<svg width="536" height="125" viewBox="0 0 536 125" fill="none" xmlns="http://www.w3.org/2000/svg">
<path d="M8.16 33.184V29.968H16.32C18.208 29.968 19.744 29.616 20.928 28.912C22.112 28.176 22.992 27.216 23.568 26.032C24.144 24.816 24.432 23.472 24.432 22C24.432 20.496 24.144 19.152 23.568 17.968C22.992 16.752 22.112 15.792 20.928 15.088C19.744 14.384 18.208 14.032 16.32 14.032H8.16V10.816H15.696C18.512 10.816 20.832 11.28 22.656 12.208C24.512 13.136 25.888 14.416 26.784 16.048C27.712 17.68 28.176 19.552 28.176 21.664V22.336C28.176 24.416 27.712 26.288 26.784 27.952C25.888 29.584 24.512 30.864 22.656 31.792C20.832 32.72 18.512 33.184 15.696 33.184H8.16ZM5.472 46V10.816H9.12V46H5.472ZM34.9841 46V20.608H37.8641V31.216H37.5761C37.5761 27.504 38.3921 24.768 40.0241 23.008C41.6561 21.216 44.2161 20.32 47.7041 20.32H48.5201V23.584H47.0321C44.2801 23.584 42.1841 24.304 40.7441 25.744C39.3041 27.152 38.5841 29.232 38.5841 31.984V46H34.9841ZM65.3914 46.816C63.2154 46.816 61.2954 46.448 59.6314 45.712C57.9994 44.944 56.6074 43.936 55.4554 42.688C54.3354 41.408 53.4714 39.984 52.8634 38.416C52.2874 36.848 51.9994 35.248 51.9994 33.616V32.944C51.9994 31.312 52.3034 29.712 52.9114 28.144C53.5194 26.544 54.3994 25.12 55.5514 23.872C56.7034 22.624 58.0954 21.632 59.7274 20.896C61.3914 20.128 63.2794 19.744 65.3914 19.744C67.5354 19.744 69.4234 20.128 71.0554 20.896C72.7194 21.632 74.1274 22.624 75.2794 23.872C76.4314 25.12 77.2954 26.544 77.8714 28.144C78.4794 29.712 78.7834 31.312 78.7834 32.944V33.616C78.7834 35.248 78.4954 36.848 77.9194 38.416C77.3434 39.984 76.4794 41.408 75.3274 42.688C74.2074 43.936 72.8154 44.944 71.1514 45.712C69.4874 46.448 67.5674 46.816 65.3914 46.816ZM65.3914 43.6C67.5034 43.6 69.2794 43.136 70.7194 42.208C72.1914 41.248 73.3114 40 74.0794 38.464C74.8474 36.896 75.2314 35.168 75.2314 33.28C75.2314 31.36 74.8314 29.632 74.0314 28.096C73.2634 26.528 72.1434 25.296 70.6714 24.4C69.1994 23.472 67.4394 23.008 65.3914 23.008C63.3754 23.008 61.6314 23.472 60.1594 24.4C58.6874 25.296 57.5514 26.528 56.7514 28.096C55.9834 29.632 55.5994 31.36 55.5994 33.28C55.5994 35.168 55.9834 36.896 56.7514 38.464C57.5194 40 58.6234 41.248 60.0634 42.208C61.5354 43.136 63.3114 43.6 65.3914 43.6ZM81.3247 55.744V52.528H84.2048C85.4528 52.528 86.3968 52.16 87.0368 51.424C87.7088 50.72 88.0448 49.696 88.0448 48.352V20.608H91.5008V47.68C91.5008 49.664 91.2288 51.248 90.6848 52.432C90.1728 53.616 89.3408 54.464 88.1888 54.976C87.0368 55.488 85.5008 55.744 83.5808 55.744H81.3247ZM83.9168 23.488V20.608H91.5008V23.488H83.9168ZM88.7168 15.472C87.8528 15.472 87.1968 15.248 86.7488 14.8C86.3328 14.32 86.1248 13.728 86.1248 13.024C86.1248 12.32 86.3328 11.744 86.7488 11.296C87.1968 10.816 87.8528 10.576 88.7168 10.576C89.5808 10.576 90.2208 10.816 90.6368 11.296C91.0528 11.744 91.2608 12.32 91.2608 13.024C91.2608 13.728 91.0528 14.32 90.6368 14.8C90.2208 15.248 89.5808 15.472 88.7168 15.472ZM111.452 46.816C109.276 46.816 107.388 46.448 105.788 45.712C104.188 44.944 102.876 43.936 101.852 42.688C100.828 41.408 100.06 39.984 99.5475 38.416C99.0675 36.848 98.8275 35.232 98.8275 33.568V32.896C98.8275 31.264 99.0675 29.664 99.5475 28.096C100.06 26.528 100.828 25.12 101.852 23.872C102.876 22.624 104.156 21.632 105.692 20.896C107.26 20.128 109.084 19.744 111.164 19.744C113.82 19.744 116.028 20.336 117.788 21.52C119.58 22.704 120.924 24.224 121.82 26.08C122.716 27.904 123.164 29.872 123.164 31.984V33.856H100.46V31.072H120.668L119.756 32.464C119.756 30.576 119.42 28.928 118.748 27.52C118.108 26.08 117.148 24.96 115.868 24.16C114.62 23.328 113.052 22.912 111.164 22.912C109.18 22.912 107.532 23.376 106.22 24.304C104.908 25.232 103.916 26.464 103.243 28C102.604 29.536 102.284 31.28 102.284 33.232C102.284 35.152 102.604 36.912 103.243 38.512C103.916 40.08 104.924 41.328 106.268 42.256C107.644 43.184 109.372 43.648 111.452 43.648C113.66 43.648 115.452 43.152 116.828 42.16C118.204 41.136 119.052 39.936 119.372 38.56H122.732C122.412 40.256 121.74 41.728 120.716 42.976C119.692 44.192 118.396 45.136 116.828 45.808C115.26 46.48 113.468 46.816 111.452 46.816ZM140.798 46.816C138.654 46.816 136.782 46.448 135.182 45.712C133.614 44.944 132.302 43.92 131.246 42.64C130.19 41.328 129.39 39.888 128.846 38.32C128.334 36.752 128.078 35.168 128.078 33.568V32.896C128.078 31.264 128.334 29.68 128.846 28.144C129.39 26.576 130.19 25.168 131.246 23.92C132.302 22.64 133.614 21.632 135.182 20.896C136.782 20.128 138.622 19.744 140.702 19.744C142.814 19.744 144.686 20.128 146.318 20.896C147.982 21.664 149.326 22.752 150.35 24.16C151.374 25.568 151.982 27.232 152.174 29.152H148.718C148.43 27.392 147.598 25.936 146.222 24.784C144.878 23.6 143.038 23.008 140.702 23.008C138.686 23.008 137.006 23.472 135.662 24.4C134.35 25.296 133.358 26.528 132.686 28.096C132.014 29.632 131.678 31.344 131.678 33.232C131.678 35.088 132.014 36.816 132.686 38.416C133.358 39.984 134.366 41.248 135.71 42.208C137.054 43.136 138.75 43.6 140.798 43.6C142.366 43.6 143.726 43.328 144.878 42.784C146.062 42.208 147.006 41.44 147.71 40.48C148.446 39.52 148.878 38.464 149.006 37.312H152.462C152.334 39.232 151.726 40.912 150.638 42.352C149.582 43.76 148.206 44.864 146.51 45.664C144.814 46.432 142.91 46.816 140.798 46.816ZM168.278 46.288C166.518 46.288 164.998 46.032 163.718 45.52C162.438 45.008 161.446 44.144 160.742 42.928C160.038 41.68 159.686 40.016 159.686 37.936V12.592H163.142V38.464C163.142 39.936 163.542 41.072 164.342 41.872C165.142 42.64 166.278 43.024 167.75 43.024H172.31V46.288H168.278ZM155.126 23.344V20.608H172.31V23.344H155.126Z" fill="#0D0D0D"/>
<path d="M191.285 46V10.96H194.933V46H191.285ZM193.973 29.824V26.512L209.477 26.464V29.776L193.973 29.824ZM193.973 14.224V10.96H210.389V14.224H193.973ZM218.25 46V20.608H221.802V46H218.25ZM214.17 23.488V20.608H221.802V23.488H214.17ZM219.018 15.904C218.154 15.904 217.498 15.68 217.05 15.232C216.634 14.752 216.426 14.16 216.426 13.456C216.426 12.752 216.634 12.176 217.05 11.728C217.498 11.248 218.154 11.008 219.018 11.008C219.882 11.008 220.522 11.248 220.938 11.728C221.354 12.176 221.562 12.752 221.562 13.456C221.562 14.16 221.354 14.752 220.938 15.232C220.522 15.68 219.882 15.904 219.018 15.904ZM231.25 46V20.608H234.13V31.264H233.554C233.554 28.896 233.906 26.864 234.61 25.168C235.314 23.472 236.37 22.16 237.778 21.232C239.186 20.304 240.962 19.84 243.106 19.84H243.25C246.45 19.84 248.834 20.848 250.402 22.864C251.97 24.848 252.754 27.648 252.754 31.264V46H249.202V30.496C249.202 28.288 248.594 26.512 247.378 25.168C246.162 23.824 244.466 23.152 242.29 23.152C240.05 23.152 238.242 23.856 236.866 25.264C235.522 26.64 234.85 28.464 234.85 30.736V46H231.25ZM277.175 46V38.368H276.599V29.344C276.599 27.456 276.103 26.016 275.111 25.024C274.119 24 272.583 23.488 270.503 23.488C269.543 23.488 268.567 23.504 267.575 23.536C266.615 23.568 265.687 23.616 264.791 23.68C263.927 23.712 263.159 23.76 262.487 23.824V20.656C263.191 20.592 263.911 20.528 264.647 20.464C265.383 20.4 266.135 20.368 266.903 20.368C267.703 20.336 268.471 20.32 269.207 20.32C271.799 20.32 273.879 20.64 275.447 21.28C277.047 21.92 278.215 22.928 278.951 24.304C279.687 25.648 280.055 27.44 280.055 29.68V46H277.175ZM268.583 46.672C266.791 46.672 265.207 46.352 263.831 45.712C262.455 45.072 261.383 44.144 260.615 42.928C259.879 41.712 259.511 40.24 259.511 38.512C259.511 36.816 259.895 35.376 260.663 34.192C261.463 33.008 262.599 32.112 264.071 31.504C265.575 30.864 267.383 30.544 269.495 30.544H276.935V33.28H269.255C267.239 33.28 265.687 33.776 264.599 34.768C263.543 35.728 263.015 36.992 263.015 38.56C263.015 40.16 263.575 41.44 264.695 42.4C265.815 43.328 267.335 43.792 269.255 43.792C270.439 43.792 271.575 43.584 272.663 43.168C273.751 42.72 274.663 41.984 275.399 40.96C276.135 39.904 276.535 38.464 276.599 36.64L277.655 38.128C277.527 40.016 277.079 41.6 276.311 42.88C275.543 44.128 274.503 45.072 273.191 45.712C271.879 46.352 270.343 46.672 268.583 46.672ZM289.047 46V20.608H291.927V31.264H291.351C291.351 28.896 291.703 26.864 292.407 25.168C293.111 23.472 294.167 22.16 295.575 21.232C296.983 20.304 298.759 19.84 300.903 19.84H301.047C304.247 19.84 306.631 20.848 308.199 22.864C309.767 24.848 310.551 27.648 310.551 31.264V46H306.999V30.496C306.999 28.288 306.391 26.512 305.175 25.168C303.959 23.824 302.263 23.152 300.087 23.152C297.847 23.152 296.039 23.856 294.663 25.264C293.319 26.64 292.647 28.464 292.647 30.736V46H289.047ZM330.219 46.816C328.075 46.816 326.203 46.448 324.603 45.712C323.035 44.944 321.723 43.92 320.667 42.64C319.611 41.328 318.811 39.888 318.267 38.32C317.755 36.752 317.499 35.168 317.499 33.568V32.896C317.499 31.264 317.755 29.68 318.267 28.144C318.811 26.576 319.611 25.168 320.667 23.92C321.723 22.64 323.035 21.632 324.603 20.896C326.203 20.128 328.043 19.744 330.123 19.744C332.235 19.744 334.107 20.128 335.739 20.896C337.403 21.664 338.747 22.752 339.771 24.16C340.795 25.568 341.403 27.232 341.595 29.152H338.139C337.851 27.392 337.019 25.936 335.643 24.784C334.299 23.6 332.459 23.008 330.123 23.008C328.107 23.008 326.427 23.472 325.083 24.4C323.771 25.296 322.779 26.528 322.107 28.096C321.435 29.632 321.099 31.344 321.099 33.232C321.099 35.088 321.435 36.816 322.107 38.416C322.779 39.984 323.787 41.248 325.131 42.208C326.475 43.136 328.171 43.6 330.219 43.6C331.787 43.6 333.147 43.328 334.299 42.784C335.483 42.208 336.427 41.44 337.131 40.48C337.867 39.52 338.299 38.464 338.427 37.312H341.883C341.755 39.232 341.147 40.912 340.059 42.352C339.003 43.76 337.627 44.864 335.931 45.664C334.235 46.432 332.331 46.816 330.219 46.816ZM349.828 46V20.608H353.38V46H349.828ZM345.748 23.488V20.608H353.38V23.488H345.748ZM350.596 15.904C349.732 15.904 349.076 15.68 348.628 15.232C348.212 14.752 348.004 14.16 348.004 13.456C348.004 12.752 348.212 12.176 348.628 11.728C349.076 11.248 349.732 11.008 350.596 11.008C351.46 11.008 352.1 11.248 352.516 11.728C352.932 12.176 353.14 12.752 353.14 13.456C353.14 14.16 352.932 14.752 352.516 15.232C352.1 15.68 351.46 15.904 350.596 15.904ZM362.828 46V20.608H365.708V31.264H365.132C365.132 28.896 365.484 26.864 366.188 25.168C366.892 23.472 367.948 22.16 369.356 21.232C370.764 20.304 372.54 19.84 374.684 19.84H374.828C378.028 19.84 380.412 20.848 381.98 22.864C383.548 24.848 384.332 27.648 384.332 31.264V46H380.78V30.496C380.78 28.288 380.172 26.512 378.956 25.168C377.74 23.824 376.044 23.152 373.868 23.152C371.628 23.152 369.82 23.856 368.444 25.264C367.1 26.64 366.428 28.464 366.428 30.736V46H362.828ZM402.993 55.936C401.809 55.936 400.609 55.872 399.393 55.744C398.209 55.648 397.073 55.52 395.985 55.36V52.288C397.137 52.448 398.337 52.576 399.585 52.672C400.865 52.8 402.065 52.864 403.185 52.864C405.617 52.864 407.553 52.544 408.993 51.904C410.433 51.264 411.457 50.24 412.065 48.832C412.705 47.456 413.025 45.632 413.025 43.36V38.272L414.369 34.72C414.305 37.152 413.793 39.248 412.833 41.008C411.873 42.736 410.577 44.064 408.945 44.992C407.313 45.92 405.457 46.384 403.377 46.384C401.553 46.384 399.889 46.032 398.385 45.328C396.913 44.624 395.649 43.664 394.593 42.448C393.537 41.2 392.721 39.792 392.145 38.224C391.569 36.656 391.281 35.008 391.281 33.28V32.608C391.281 30.912 391.569 29.296 392.145 27.76C392.721 26.192 393.537 24.816 394.593 23.632C395.649 22.416 396.929 21.472 398.433 20.8C399.969 20.096 401.665 19.744 403.521 19.744C405.761 19.744 407.713 20.24 409.377 21.232C411.041 22.224 412.337 23.6 413.265 25.36C414.225 27.12 414.737 29.184 414.801 31.552L413.649 30.928V20.608H416.481V43.216C416.481 46.256 416.033 48.704 415.137 50.56C414.241 52.416 412.801 53.776 410.817 54.64C408.865 55.504 406.257 55.936 402.993 55.936ZM404.001 43.072C405.729 43.072 407.265 42.704 408.609 41.968C409.985 41.2 411.073 40.128 411.873 38.752C412.673 37.376 413.073 35.776 413.073 33.952V31.6C413.073 29.84 412.657 28.304 411.825 26.992C411.025 25.68 409.953 24.656 408.609 23.92C407.265 23.184 405.729 22.816 404.001 22.816C402.145 22.816 400.529 23.264 399.153 24.16C397.777 25.056 396.721 26.272 395.985 27.808C395.249 29.312 394.881 31.024 394.881 32.944C394.881 34.896 395.249 36.64 395.985 38.176C396.753 39.712 397.825 40.912 399.201 41.776C400.577 42.64 402.177 43.072 404.001 43.072Z" fill="url(#paint0_radial_1097_2844)"/>
<path d="M2.976 88V70.48H4.272V88H2.976ZM9.71419 88V75.4H10.7222V80.56H10.4342C10.4342 79.456 10.6102 78.496 10.9622 77.68C11.3302 76.848 11.8662 76.208 12.5702 75.76C13.2902 75.296 14.1782 75.064 15.2342 75.064H15.3062C16.8902 75.064 18.0822 75.56 18.8822 76.552C19.6822 77.528 20.0822 78.864 20.0822 80.56V88H18.7862V80.272C18.7862 79.072 18.4582 78.104 17.8022 77.368C17.1622 76.616 16.2342 76.24 15.0182 76.24C13.7862 76.24 12.8022 76.624 12.0662 77.392C11.3462 78.144 10.9862 79.144 10.9862 80.392V88H9.71419ZM27.6651 88L23.0811 75.4H24.4251L28.9371 88H27.6651ZM28.0491 88V86.92H29.8011V88H28.0491ZM28.9131 88L32.9451 75.4H34.1931L30.1371 88H28.9131ZM42.5533 88.408C41.4813 88.408 40.5533 88.224 39.7693 87.856C38.9853 87.472 38.3453 86.968 37.8493 86.344C37.3533 85.704 36.9773 84.992 36.7213 84.208C36.4813 83.408 36.3613 82.6 36.3613 81.784V81.544C36.3613 80.712 36.4813 79.912 36.7213 79.144C36.9773 78.376 37.3533 77.68 37.8493 77.056C38.3613 76.416 38.9933 75.92 39.7453 75.568C40.5133 75.2 41.4013 75.016 42.4093 75.016C43.6893 75.016 44.7613 75.304 45.6253 75.88C46.5053 76.44 47.1693 77.176 47.6173 78.088C48.0653 79 48.2893 79.96 48.2893 80.968V81.832H36.9613V80.776H47.4493L47.0653 81.256C47.0653 80.28 46.8813 79.408 46.5133 78.64C46.1613 77.872 45.6333 77.272 44.9293 76.84C44.2413 76.392 43.4013 76.168 42.4093 76.168C41.3373 76.168 40.4413 76.416 39.7213 76.912C39.0013 77.408 38.4573 78.072 38.0893 78.904C37.7373 79.736 37.5613 80.656 37.5613 81.664C37.5613 82.672 37.7373 83.6 38.0893 84.448C38.4573 85.28 39.0093 85.96 39.7453 86.488C40.4813 87 41.4173 87.256 42.5533 87.256C43.7693 87.256 44.7453 86.976 45.4813 86.416C46.2333 85.856 46.6893 85.184 46.8493 84.4H48.0973C47.9213 85.184 47.5853 85.88 47.0893 86.488C46.5933 87.096 45.9613 87.568 45.1933 87.904C44.4413 88.24 43.5613 88.408 42.5533 88.408ZM55.7166 88.36C54.1486 88.36 52.9406 88 52.0926 87.28C51.2606 86.56 50.8366 85.64 50.8206 84.52H52.0686C52.0686 85.24 52.3486 85.872 52.9086 86.416C53.4846 86.944 54.4206 87.208 55.7166 87.208C56.9806 87.208 57.9086 86.944 58.5006 86.416C59.0926 85.872 59.3886 85.232 59.3886 84.496C59.3886 83.776 59.1166 83.224 58.5726 82.84C58.0446 82.456 57.3246 82.216 56.4126 82.12L54.9246 81.952C53.8206 81.824 52.9406 81.48 52.2846 80.92C51.6446 80.36 51.3246 79.6 51.3246 78.64C51.3246 77.952 51.5006 77.336 51.8526 76.792C52.2046 76.248 52.7086 75.816 53.3646 75.496C54.0366 75.176 54.8206 75.016 55.7166 75.016C57.0286 75.016 58.0846 75.336 58.8846 75.976C59.7006 76.616 60.1166 77.488 60.1326 78.592H58.8846C58.9006 77.904 58.6286 77.328 58.0686 76.864C57.5246 76.4 56.7406 76.168 55.7166 76.168C54.6446 76.168 53.8446 76.416 53.3166 76.912C52.8046 77.408 52.5486 77.992 52.5486 78.664C52.5486 79.224 52.7486 79.704 53.1486 80.104C53.5646 80.504 54.1886 80.752 55.0206 80.848L56.5086 81.016C57.6926 81.128 58.6686 81.472 59.4366 82.048C60.2206 82.624 60.6126 83.448 60.6126 84.52C60.6126 85.24 60.4126 85.888 60.0126 86.464C59.6286 87.04 59.0766 87.504 58.3566 87.856C57.6366 88.192 56.7566 88.36 55.7166 88.36ZM68.7111 88.12C67.9271 88.12 67.2391 88.008 66.6471 87.784C66.0551 87.544 65.5991 87.144 65.2791 86.584C64.9591 86.024 64.7991 85.272 64.7991 84.328V71.296H66.0471V84.544C66.0471 85.312 66.2551 85.912 66.6711 86.344C67.1031 86.76 67.6951 86.968 68.4471 86.968H70.7991V88.12H68.7111ZM62.3991 76.432V75.4H70.7991V76.432H62.3991ZM74.5189 88V75.4H75.5269V80.56H75.2389C75.2389 79.472 75.3989 78.52 75.7189 77.704C76.0549 76.872 76.5509 76.224 77.2069 75.76C77.8629 75.296 78.6949 75.064 79.7029 75.064H79.7749C80.7669 75.064 81.5909 75.296 82.2469 75.76C82.9029 76.208 83.3829 76.848 83.6869 77.68C84.0069 78.496 84.1669 79.456 84.1669 80.56H83.6869C83.6869 79.472 83.8469 78.52 84.1669 77.704C84.5029 76.872 84.9989 76.224 85.6549 75.76C86.3269 75.296 87.1669 75.064 88.1749 75.064H88.2469C89.2389 75.064 90.0629 75.296 90.7189 75.76C91.3909 76.208 91.8869 76.848 92.2069 77.68C92.5269 78.496 92.6869 79.456 92.6869 80.56V88H91.4149V80.272C91.4149 79.072 91.1189 78.104 90.5269 77.368C89.9509 76.616 89.0949 76.24 87.9589 76.24C86.8069 76.24 85.8949 76.624 85.2229 77.392C84.5669 78.16 84.2389 79.16 84.2389 80.392V88H82.9669V80.272C82.9669 79.072 82.6709 78.104 82.0789 77.368C81.5029 76.616 80.6469 76.24 79.5109 76.24C78.3589 76.24 77.4469 76.624 76.7749 77.392C76.1189 78.16 75.7909 79.16 75.7909 80.392V88H74.5189ZM102.6 88.408C101.528 88.408 100.6 88.224 99.8162 87.856C99.0322 87.472 98.3922 86.968 97.8962 86.344C97.4002 85.704 97.0242 84.992 96.7682 84.208C96.5282 83.408 96.4082 82.6 96.4082 81.784V81.544C96.4082 80.712 96.5282 79.912 96.7682 79.144C97.0242 78.376 97.4002 77.68 97.8962 77.056C98.4082 76.416 99.0402 75.92 99.7922 75.568C100.56 75.2 101.448 75.016 102.456 75.016C103.736 75.016 104.808 75.304 105.672 75.88C106.552 76.44 107.216 77.176 107.664 78.088C108.112 79 108.336 79.96 108.336 80.968V81.832H97.0082V80.776H107.496L107.112 81.256C107.112 80.28 106.928 79.408 106.56 78.64C106.208 77.872 105.68 77.272 104.976 76.84C104.288 76.392 103.448 76.168 102.456 76.168C101.384 76.168 100.488 76.416 99.7682 76.912C99.0482 77.408 98.5042 78.072 98.1362 78.904C97.7842 79.736 97.6082 80.656 97.6082 81.664C97.6082 82.672 97.7842 83.6 98.1362 84.448C98.5042 85.28 99.0562 85.96 99.7922 86.488C100.528 87 101.464 87.256 102.6 87.256C103.816 87.256 104.792 86.976 105.528 86.416C106.28 85.856 106.736 85.184 106.896 84.4H108.144C107.968 85.184 107.632 85.88 107.136 86.488C106.64 87.096 106.008 87.568 105.24 87.904C104.488 88.24 103.608 88.408 102.6 88.408ZM111.995 88V75.4H113.003V80.56H112.715C112.715 79.456 112.891 78.496 113.243 77.68C113.611 76.848 114.147 76.208 114.851 75.76C115.571 75.296 116.459 75.064 117.515 75.064H117.587C119.171 75.064 120.363 75.56 121.163 76.552C121.963 77.528 122.363 78.864 122.363 80.56V88H121.067V80.272C121.067 79.072 120.739 78.104 120.083 77.368C119.443 76.616 118.515 76.24 117.299 76.24C116.067 76.24 115.083 76.624 114.347 77.392C113.627 78.144 113.267 79.144 113.267 80.392V88H111.995ZM131.336 88.12C130.552 88.12 129.864 88.008 129.272 87.784C128.68 87.544 128.224 87.144 127.904 86.584C127.584 86.024 127.424 85.272 127.424 84.328V71.296H128.672V84.544C128.672 85.312 128.88 85.912 129.296 86.344C129.728 86.76 130.32 86.968 131.072 86.968H133.424V88.12H131.336ZM125.024 76.432V75.4H133.424V76.432H125.024ZM142.886 88V75.4H143.894V80.728H143.702C143.702 78.904 144.11 77.544 144.926 76.648C145.742 75.752 147.062 75.304 148.886 75.304H149.318V76.456H148.646C147.158 76.456 146.038 76.84 145.286 77.608C144.534 78.36 144.158 79.472 144.158 80.944V88H142.886ZM160.082 88V84.232H159.842V79.6C159.842 78.592 159.578 77.816 159.05 77.272C158.522 76.712 157.65 76.432 156.434 76.432C156.002 76.432 155.562 76.448 155.114 76.48C154.666 76.496 154.242 76.52 153.842 76.552C153.442 76.568 153.082 76.6 152.762 76.648V75.496C153.082 75.448 153.418 75.408 153.77 75.376C154.138 75.344 154.506 75.32 154.874 75.304C155.242 75.288 155.594 75.28 155.93 75.28C157.194 75.28 158.202 75.448 158.954 75.784C159.706 76.104 160.25 76.6 160.586 77.272C160.922 77.928 161.09 78.768 161.09 79.792V88H160.082ZM155.69 88.336C154.842 88.336 154.082 88.184 153.41 87.88C152.738 87.576 152.202 87.128 151.802 86.536C151.418 85.944 151.226 85.224 151.226 84.376C151.226 83.56 151.41 82.864 151.778 82.288C152.162 81.712 152.706 81.272 153.41 80.968C154.13 80.664 154.994 80.512 156.002 80.512H159.962V81.544H155.882C154.794 81.544 153.954 81.808 153.362 82.336C152.786 82.848 152.498 83.528 152.498 84.376C152.498 85.272 152.81 85.984 153.434 86.512C154.058 87.024 154.874 87.28 155.882 87.28C156.506 87.28 157.114 87.16 157.706 86.92C158.298 86.68 158.794 86.28 159.194 85.72C159.594 85.144 159.81 84.376 159.842 83.416L160.322 83.968C160.274 84.944 160.034 85.76 159.602 86.416C159.186 87.056 158.642 87.536 157.97 87.856C157.298 88.176 156.538 88.336 155.69 88.336ZM165.855 88V75.4H166.863V80.56H166.575C166.575 79.456 166.751 78.496 167.103 77.68C167.471 76.848 168.007 76.208 168.711 75.76C169.431 75.296 170.319 75.064 171.375 75.064H171.447C173.031 75.064 174.223 75.56 175.023 76.552C175.823 77.528 176.223 78.864 176.223 80.56V88H174.927V80.272C174.927 79.072 174.599 78.104 173.943 77.368C173.303 76.616 172.375 76.24 171.159 76.24C169.927 76.24 168.943 76.624 168.207 77.392C167.487 78.144 167.127 79.144 167.127 80.392V88H165.855ZM185.795 92.92C185.235 92.92 184.651 92.896 184.043 92.848C183.435 92.8 182.851 92.728 182.291 92.632V91.504C182.867 91.6 183.467 91.672 184.091 91.72C184.731 91.784 185.331 91.816 185.891 91.816C187.171 91.816 188.179 91.648 188.915 91.312C189.651 90.992 190.179 90.456 190.499 89.704C190.819 88.968 190.979 87.984 190.979 86.752V84.16L191.555 82.408C191.539 83.56 191.291 84.576 190.811 85.456C190.347 86.336 189.699 87.032 188.867 87.544C188.035 88.04 187.059 88.288 185.939 88.288C184.995 88.288 184.147 88.112 183.395 87.76C182.659 87.392 182.035 86.904 181.523 86.296C181.011 85.672 180.619 84.968 180.347 84.184C180.075 83.384 179.939 82.568 179.939 81.736V81.496C179.939 80.68 180.075 79.888 180.347 79.12C180.619 78.336 181.011 77.64 181.523 77.032C182.035 76.408 182.667 75.92 183.419 75.568C184.171 75.2 185.027 75.016 185.987 75.016C187.155 75.016 188.163 75.28 189.011 75.808C189.859 76.336 190.507 77.048 190.955 77.944C191.419 78.84 191.659 79.832 191.675 80.92L191.195 80.272V75.4H192.227V86.752C192.227 88.256 192.019 89.456 191.603 90.352C191.187 91.264 190.507 91.92 189.563 92.32C188.619 92.72 187.363 92.92 185.795 92.92ZM186.107 87.112C187.067 87.112 187.915 86.904 188.651 86.488C189.387 86.056 189.963 85.472 190.379 84.736C190.795 83.984 191.003 83.136 191.003 82.192V80.968C191.003 80.056 190.795 79.24 190.379 78.52C189.979 77.784 189.411 77.2 188.675 76.768C187.939 76.336 187.091 76.12 186.131 76.12C185.075 76.12 184.179 76.376 183.443 76.888C182.723 77.4 182.171 78.072 181.787 78.904C181.403 79.736 181.211 80.64 181.211 81.616C181.211 82.624 181.411 83.552 181.811 84.4C182.211 85.232 182.771 85.896 183.491 86.392C184.227 86.872 185.099 87.112 186.107 87.112ZM202.163 88.408C201.091 88.408 200.163 88.224 199.379 87.856C198.595 87.472 197.955 86.968 197.459 86.344C196.963 85.704 196.587 84.992 196.331 84.208C196.091 83.408 195.971 82.6 195.971 81.784V81.544C195.971 80.712 196.091 79.912 196.331 79.144C196.587 78.376 196.963 77.68 197.459 77.056C197.971 76.416 198.603 75.92 199.355 75.568C200.123 75.2 201.011 75.016 202.019 75.016C203.299 75.016 204.371 75.304 205.235 75.88C206.115 76.44 206.779 77.176 207.227 78.088C207.675 79 207.899 79.96 207.899 80.968V81.832H196.571V80.776H207.059L206.675 81.256C206.675 80.28 206.491 79.408 206.123 78.64C205.771 77.872 205.243 77.272 204.539 76.84C203.851 76.392 203.011 76.168 202.019 76.168C200.947 76.168 200.051 76.416 199.331 76.912C198.611 77.408 198.067 78.072 197.699 78.904C197.347 79.736 197.171 80.656 197.171 81.664C197.171 82.672 197.347 83.6 197.699 84.448C198.067 85.28 198.619 85.96 199.355 86.488C200.091 87 201.027 87.256 202.163 87.256C203.379 87.256 204.355 86.976 205.091 86.416C205.843 85.856 206.299 85.184 206.459 84.4H207.707C207.531 85.184 207.195 85.88 206.699 86.488C206.203 87.096 205.571 87.568 204.803 87.904C204.051 88.24 203.171 88.408 202.163 88.408ZM215.326 88.36C213.758 88.36 212.55 88 211.702 87.28C210.87 86.56 210.446 85.64 210.43 84.52H211.678C211.678 85.24 211.958 85.872 212.518 86.416C213.094 86.944 214.03 87.208 215.326 87.208C216.59 87.208 217.518 86.944 218.11 86.416C218.702 85.872 218.998 85.232 218.998 84.496C218.998 83.776 218.726 83.224 218.182 82.84C217.654 82.456 216.934 82.216 216.022 82.12L214.534 81.952C213.43 81.824 212.55 81.48 211.894 80.92C211.254 80.36 210.934 79.6 210.934 78.64C210.934 77.952 211.11 77.336 211.462 76.792C211.814 76.248 212.318 75.816 212.974 75.496C213.646 75.176 214.43 75.016 215.326 75.016C216.638 75.016 217.694 75.336 218.494 75.976C219.31 76.616 219.726 77.488 219.742 78.592H218.494C218.51 77.904 218.238 77.328 217.678 76.864C217.134 76.4 216.35 76.168 215.326 76.168C214.254 76.168 213.454 76.416 212.926 76.912C212.414 77.408 212.158 77.992 212.158 78.664C212.158 79.224 212.358 79.704 212.758 80.104C213.174 80.504 213.798 80.752 214.63 80.848L216.118 81.016C217.302 81.128 218.278 81.472 219.046 82.048C219.83 82.624 220.222 83.448 220.222 84.52C220.222 85.24 220.022 85.888 219.622 86.464C219.238 87.04 218.686 87.504 217.966 87.856C217.246 88.192 216.366 88.36 215.326 88.36ZM230.223 88V74.104C230.223 72.856 230.535 71.936 231.159 71.344C231.799 70.752 232.759 70.456 234.039 70.456H235.695V71.56H233.751C233.015 71.56 232.447 71.76 232.047 72.16C231.663 72.544 231.471 73.088 231.471 73.792V88H230.223ZM228.279 76.504V75.496H235.959V76.504H228.279ZM244.147 88.408C243.091 88.408 242.155 88.216 241.339 87.832C240.523 87.448 239.835 86.944 239.275 86.32C238.731 85.696 238.315 85 238.027 84.232C237.755 83.448 237.619 82.648 237.619 81.832V81.592C237.619 80.76 237.763 79.952 238.051 79.168C238.339 78.384 238.763 77.68 239.323 77.056C239.883 76.432 240.563 75.936 241.363 75.568C242.179 75.2 243.107 75.016 244.147 75.016C245.171 75.016 246.083 75.2 246.883 75.568C247.699 75.936 248.387 76.432 248.947 77.056C249.507 77.68 249.931 78.384 250.219 79.168C250.523 79.952 250.675 80.76 250.675 81.592V81.832C250.675 82.648 250.531 83.448 250.243 84.232C249.955 85 249.531 85.696 248.971 86.32C248.427 86.944 247.747 87.448 246.931 87.832C246.131 88.216 245.203 88.408 244.147 88.408ZM244.147 87.232C245.267 87.232 246.211 86.976 246.979 86.464C247.763 85.952 248.355 85.28 248.755 84.448C249.171 83.6 249.379 82.688 249.379 81.712C249.379 80.704 249.171 79.784 248.755 78.952C248.339 78.104 247.739 77.432 246.955 76.936C246.187 76.424 245.251 76.168 244.147 76.168C243.059 76.168 242.115 76.424 241.315 76.936C240.531 77.432 239.931 78.104 239.515 78.952C239.099 79.784 238.891 80.704 238.891 81.712C238.891 82.688 239.091 83.6 239.491 84.448C239.907 85.28 240.507 85.952 241.291 86.464C242.075 86.976 243.027 87.232 244.147 87.232ZM254.542 88V75.4H255.55V80.728H255.358C255.358 78.904 255.766 77.544 256.582 76.648C257.398 75.752 258.718 75.304 260.542 75.304H260.974V76.456H260.302C258.814 76.456 257.694 76.84 256.942 77.608C256.19 78.36 255.814 79.472 255.814 80.944V88H254.542Z" fill="#717171"/>
<path d="M276.112 88.408C274.96 88.408 273.952 88.144 273.088 87.616C272.24 87.072 271.576 86.352 271.096 85.456C270.632 84.56 270.392 83.568 270.376 82.48H270.832V88H269.824V70.48H271.096V79.456L270.496 80.968C270.528 79.768 270.776 78.728 271.24 77.848C271.72 76.952 272.384 76.256 273.232 75.76C274.08 75.264 275.064 75.016 276.184 75.016C277.128 75.016 277.976 75.2 278.728 75.568C279.48 75.92 280.112 76.408 280.624 77.032C281.152 77.64 281.552 78.336 281.824 79.12C282.096 79.888 282.232 80.704 282.232 81.568V81.808C282.232 82.64 282.096 83.448 281.824 84.232C281.568 85 281.176 85.704 280.648 86.344C280.12 86.968 279.472 87.472 278.704 87.856C277.952 88.224 277.088 88.408 276.112 88.408ZM275.992 87.256C277.048 87.256 277.944 87 278.68 86.488C279.432 85.96 280 85.272 280.384 84.424C280.768 83.576 280.96 82.664 280.96 81.688C280.96 80.664 280.76 79.736 280.36 78.904C279.96 78.056 279.392 77.392 278.656 76.912C277.92 76.416 277.032 76.168 275.992 76.168C275.032 76.168 274.176 76.384 273.424 76.816C272.688 77.232 272.104 77.816 271.672 78.568C271.24 79.304 271.024 80.152 271.024 81.112V82.336C271.024 83.248 271.232 84.08 271.648 84.832C272.08 85.568 272.664 86.16 273.4 86.608C274.152 87.04 275.016 87.256 275.992 87.256ZM291.249 88.408C290.177 88.408 289.249 88.224 288.465 87.856C287.681 87.472 287.041 86.968 286.545 86.344C286.049 85.704 285.673 84.992 285.417 84.208C285.177 83.408 285.057 82.6 285.057 81.784V81.544C285.057 80.712 285.177 79.912 285.417 79.144C285.673 78.376 286.049 77.68 286.545 77.056C287.057 76.416 287.689 75.92 288.441 75.568C289.209 75.2 290.097 75.016 291.105 75.016C292.385 75.016 293.457 75.304 294.321 75.88C295.201 76.44 295.865 77.176 296.313 78.088C296.761 79 296.985 79.96 296.985 80.968V81.832H285.657V80.776H296.145L295.761 81.256C295.761 80.28 295.577 79.408 295.209 78.64C294.857 77.872 294.329 77.272 293.625 76.84C292.937 76.392 292.097 76.168 291.105 76.168C290.033 76.168 289.137 76.416 288.417 76.912C287.697 77.408 287.153 78.072 286.785 78.904C286.433 79.736 286.257 80.656 286.257 81.664C286.257 82.672 286.433 83.6 286.785 84.448C287.153 85.28 287.705 85.96 288.441 86.488C289.177 87 290.113 87.256 291.249 87.256C292.465 87.256 293.441 86.976 294.177 86.416C294.929 85.856 295.385 85.184 295.545 84.4H296.793C296.617 85.184 296.281 85.88 295.785 86.488C295.289 87.096 294.657 87.568 293.889 87.904C293.137 88.24 292.257 88.408 291.249 88.408ZM304.412 88.36C302.844 88.36 301.636 88 300.788 87.28C299.956 86.56 299.532 85.64 299.516 84.52H300.764C300.764 85.24 301.044 85.872 301.604 86.416C302.18 86.944 303.116 87.208 304.412 87.208C305.676 87.208 306.604 86.944 307.196 86.416C307.788 85.872 308.084 85.232 308.084 84.496C308.084 83.776 307.812 83.224 307.268 82.84C306.74 82.456 306.02 82.216 305.108 82.12L303.62 81.952C302.516 81.824 301.636 81.48 300.98 80.92C300.34 80.36 300.02 79.6 300.02 78.64C300.02 77.952 300.196 77.336 300.548 76.792C300.9 76.248 301.404 75.816 302.06 75.496C302.732 75.176 303.516 75.016 304.412 75.016C305.724 75.016 306.78 75.336 307.58 75.976C308.396 76.616 308.812 77.488 308.828 78.592H307.58C307.596 77.904 307.324 77.328 306.764 76.864C306.22 76.4 305.436 76.168 304.412 76.168C303.34 76.168 302.54 76.416 302.012 76.912C301.5 77.408 301.244 77.992 301.244 78.664C301.244 79.224 301.444 79.704 301.844 80.104C302.26 80.504 302.884 80.752 303.716 80.848L305.204 81.016C306.388 81.128 307.364 81.472 308.132 82.048C308.916 82.624 309.308 83.448 309.308 84.52C309.308 85.24 309.108 85.888 308.708 86.464C308.324 87.04 307.772 87.504 307.052 87.856C306.332 88.192 305.452 88.36 304.412 88.36ZM313.206 92.8V75.4H314.214V80.776L313.83 80.944C313.846 79.76 314.094 78.728 314.574 77.848C315.07 76.952 315.742 76.256 316.59 75.76C317.438 75.264 318.422 75.016 319.542 75.016C320.502 75.016 321.358 75.2 322.11 75.568C322.862 75.92 323.494 76.408 324.006 77.032C324.534 77.64 324.934 78.336 325.206 79.12C325.478 79.904 325.614 80.728 325.614 81.592V81.832C325.614 82.648 325.478 83.448 325.206 84.232C324.934 85 324.534 85.704 324.006 86.344C323.494 86.968 322.862 87.472 322.11 87.856C321.358 88.224 320.502 88.408 319.542 88.408C318.422 88.408 317.43 88.152 316.566 87.64C315.718 87.128 315.054 86.424 314.574 85.528C314.094 84.616 313.838 83.584 313.806 82.432L314.478 84.112V92.8H313.206ZM319.374 87.256C320.43 87.256 321.326 87 322.062 86.488C322.814 85.96 323.382 85.28 323.766 84.448C324.15 83.6 324.342 82.688 324.342 81.712C324.342 80.688 324.142 79.76 323.742 78.928C323.358 78.08 322.79 77.408 322.038 76.912C321.302 76.416 320.414 76.168 319.374 76.168C318.414 76.168 317.558 76.384 316.806 76.816C316.07 77.232 315.486 77.816 315.054 78.568C314.622 79.304 314.406 80.152 314.406 81.112V82.336C314.406 83.248 314.614 84.08 315.03 84.832C315.462 85.568 316.046 86.16 316.782 86.608C317.534 87.04 318.398 87.256 319.374 87.256ZM334.967 88.408C333.911 88.408 332.975 88.216 332.159 87.832C331.343 87.448 330.655 86.944 330.095 86.32C329.551 85.696 329.135 85 328.847 84.232C328.575 83.448 328.439 82.648 328.439 81.832V81.592C328.439 80.76 328.583 79.952 328.871 79.168C329.159 78.384 329.583 77.68 330.143 77.056C330.703 76.432 331.383 75.936 332.183 75.568C332.999 75.2 333.927 75.016 334.967 75.016C335.991 75.016 336.903 75.2 337.703 75.568C338.519 75.936 339.207 76.432 339.767 77.056C340.327 77.68 340.751 78.384 341.039 79.168C341.343 79.952 341.495 80.76 341.495 81.592V81.832C341.495 82.648 341.351 83.448 341.063 84.232C340.775 85 340.351 85.696 339.791 86.32C339.247 86.944 338.567 87.448 337.751 87.832C336.951 88.216 336.023 88.408 334.967 88.408ZM334.967 87.232C336.087 87.232 337.031 86.976 337.799 86.464C338.583 85.952 339.175 85.28 339.575 84.448C339.991 83.6 340.199 82.688 340.199 81.712C340.199 80.704 339.991 79.784 339.575 78.952C339.159 78.104 338.559 77.432 337.775 76.936C337.007 76.424 336.071 76.168 334.967 76.168C333.879 76.168 332.935 76.424 332.135 76.936C331.351 77.432 330.751 78.104 330.335 78.952C329.919 79.784 329.711 80.704 329.711 81.712C329.711 82.688 329.911 83.6 330.311 84.448C330.727 85.28 331.327 85.952 332.111 86.464C332.895 86.976 333.847 87.232 334.967 87.232ZM353.787 88L348.411 82.072H346.395L352.539 75.4H353.979L348.507 81.328L348.531 80.536L355.323 88H353.787ZM345.363 88V70.48H346.635V88H345.363ZM362.921 88.408C361.849 88.408 360.921 88.224 360.137 87.856C359.353 87.472 358.713 86.968 358.217 86.344C357.721 85.704 357.345 84.992 357.089 84.208C356.849 83.408 356.729 82.6 356.729 81.784V81.544C356.729 80.712 356.849 79.912 357.089 79.144C357.345 78.376 357.721 77.68 358.217 77.056C358.729 76.416 359.361 75.92 360.113 75.568C360.881 75.2 361.769 75.016 362.777 75.016C364.057 75.016 365.129 75.304 365.993 75.88C366.873 76.44 367.536 77.176 367.984 78.088C368.433 79 368.657 79.96 368.657 80.968V81.832H357.329V80.776H367.817L367.432 81.256C367.432 80.28 367.249 79.408 366.881 78.64C366.529 77.872 366.001 77.272 365.297 76.84C364.609 76.392 363.769 76.168 362.777 76.168C361.705 76.168 360.809 76.416 360.089 76.912C359.369 77.408 358.825 78.072 358.457 78.904C358.105 79.736 357.929 80.656 357.929 81.664C357.929 82.672 358.105 83.6 358.457 84.448C358.825 85.28 359.377 85.96 360.113 86.488C360.849 87 361.785 87.256 362.921 87.256C364.137 87.256 365.113 86.976 365.849 86.416C366.601 85.856 367.057 85.184 367.217 84.4H368.465C368.289 85.184 367.953 85.88 367.457 86.488C366.961 87.096 366.329 87.568 365.561 87.904C364.809 88.24 363.929 88.408 362.921 88.408ZM383.194 88.408C382.122 88.408 381.194 88.224 380.41 87.856C379.626 87.472 378.986 86.968 378.49 86.344C377.994 85.704 377.618 84.992 377.362 84.208C377.122 83.408 377.002 82.6 377.002 81.784V81.544C377.002 80.712 377.122 79.912 377.362 79.144C377.618 78.376 377.994 77.68 378.49 77.056C379.002 76.416 379.634 75.92 380.386 75.568C381.154 75.2 382.042 75.016 383.05 75.016C384.33 75.016 385.402 75.304 386.266 75.88C387.146 76.44 387.81 77.176 388.258 78.088C388.706 79 388.93 79.96 388.93 80.968V81.832H377.602V80.776H388.09L387.706 81.256C387.706 80.28 387.522 79.408 387.154 78.64C386.802 77.872 386.274 77.272 385.57 76.84C384.882 76.392 384.042 76.168 383.05 76.168C381.978 76.168 381.082 76.416 380.362 76.912C379.642 77.408 379.098 78.072 378.73 78.904C378.378 79.736 378.202 80.656 378.202 81.664C378.202 82.672 378.378 83.6 378.73 84.448C379.098 85.28 379.65 85.96 380.386 86.488C381.122 87 382.058 87.256 383.194 87.256C384.41 87.256 385.386 86.976 386.122 86.416C386.874 85.856 387.33 85.184 387.49 84.4H388.738C388.562 85.184 388.226 85.88 387.73 86.488C387.234 87.096 386.602 87.568 385.834 87.904C385.082 88.24 384.202 88.408 383.194 88.408ZM397.749 88.408C396.709 88.408 395.797 88.216 395.013 87.832C394.245 87.448 393.597 86.936 393.069 86.296C392.557 85.656 392.173 84.944 391.917 84.16C391.661 83.376 391.533 82.584 391.533 81.784V81.544C391.533 80.728 391.661 79.928 391.917 79.144C392.173 78.36 392.557 77.664 393.069 77.056C393.597 76.432 394.245 75.936 395.013 75.568C395.797 75.2 396.709 75.016 397.749 75.016C398.757 75.016 399.653 75.2 400.437 75.568C401.237 75.936 401.885 76.456 402.381 77.128C402.893 77.784 403.213 78.576 403.341 79.504H402.093C401.949 78.544 401.501 77.752 400.749 77.128C399.997 76.488 398.997 76.168 397.749 76.168C396.645 76.168 395.725 76.416 394.989 76.912C394.253 77.408 393.701 78.072 393.333 78.904C392.981 79.736 392.805 80.656 392.805 81.664C392.805 82.64 392.989 83.552 393.357 84.4C393.725 85.248 394.277 85.936 395.013 86.464C395.749 86.976 396.661 87.232 397.749 87.232C398.597 87.232 399.341 87.08 399.981 86.776C400.637 86.456 401.165 86.04 401.565 85.528C401.965 85 402.205 84.424 402.285 83.8H403.533C403.421 84.728 403.101 85.536 402.573 86.224C402.045 86.896 401.365 87.432 400.533 87.832C399.701 88.216 398.773 88.408 397.749 88.408ZM412.499 88.408C411.443 88.408 410.507 88.216 409.691 87.832C408.875 87.448 408.187 86.944 407.627 86.32C407.083 85.696 406.667 85 406.379 84.232C406.107 83.448 405.971 82.648 405.971 81.832V81.592C405.971 80.76 406.115 79.952 406.403 79.168C406.691 78.384 407.115 77.68 407.675 77.056C408.235 76.432 408.915 75.936 409.715 75.568C410.531 75.2 411.459 75.016 412.499 75.016C413.523 75.016 414.435 75.2 415.235 75.568C416.051 75.936 416.739 76.432 417.299 77.056C417.859 77.68 418.283 78.384 418.571 79.168C418.875 79.952 419.027 80.76 419.027 81.592V81.832C419.027 82.648 418.883 83.448 418.595 84.232C418.307 85 417.883 85.696 417.323 86.32C416.779 86.944 416.099 87.448 415.283 87.832C414.483 88.216 413.555 88.408 412.499 88.408ZM412.499 87.232C413.619 87.232 414.563 86.976 415.331 86.464C416.115 85.952 416.707 85.28 417.107 84.448C417.523 83.6 417.731 82.688 417.731 81.712C417.731 80.704 417.523 79.784 417.107 78.952C416.691 78.104 416.091 77.432 415.307 76.936C414.539 76.424 413.603 76.168 412.499 76.168C411.411 76.168 410.467 76.424 409.667 76.936C408.883 77.432 408.283 78.104 407.867 78.952C407.451 79.784 407.243 80.704 407.243 81.712C407.243 82.688 407.443 83.6 407.843 84.448C408.259 85.28 408.859 85.952 409.643 86.464C410.427 86.976 411.379 87.232 412.499 87.232ZM426.662 88.36C425.094 88.36 423.886 88 423.038 87.28C422.206 86.56 421.782 85.64 421.766 84.52H423.014C423.014 85.24 423.294 85.872 423.854 86.416C424.43 86.944 425.366 87.208 426.662 87.208C427.926 87.208 428.854 86.944 429.446 86.416C430.038 85.872 430.334 85.232 430.334 84.496C430.334 83.776 430.062 83.224 429.518 82.84C428.99 82.456 428.27 82.216 427.358 82.12L425.87 81.952C424.766 81.824 423.886 81.48 423.23 80.92C422.59 80.36 422.27 79.6 422.27 78.64C422.27 77.952 422.446 77.336 422.798 76.792C423.15 76.248 423.654 75.816 424.31 75.496C424.982 75.176 425.766 75.016 426.662 75.016C427.974 75.016 429.03 75.336 429.83 75.976C430.646 76.616 431.062 77.488 431.078 78.592H429.83C429.846 77.904 429.574 77.328 429.014 76.864C428.47 76.4 427.686 76.168 426.662 76.168C425.59 76.168 424.79 76.416 424.262 76.912C423.75 77.408 423.494 77.992 423.494 78.664C423.494 79.224 423.694 79.704 424.094 80.104C424.51 80.504 425.134 80.752 425.966 80.848L427.454 81.016C428.638 81.128 429.614 81.472 430.382 82.048C431.166 82.624 431.558 83.448 431.558 84.52C431.558 85.24 431.358 85.888 430.958 86.464C430.574 87.04 430.022 87.504 429.302 87.856C428.582 88.192 427.702 88.36 426.662 88.36ZM433.97 92.896V91.72H435.41C435.97 91.72 436.458 91.648 436.874 91.504C437.29 91.376 437.65 91.136 437.954 90.784C438.274 90.432 438.538 89.928 438.746 89.272L443.234 75.4H444.506L439.826 89.68C439.57 90.464 439.226 91.088 438.794 91.552C438.378 92.032 437.874 92.376 437.282 92.584C436.706 92.792 436.05 92.896 435.314 92.896H433.97ZM438.338 87.688V86.56H440.114V87.688H438.338ZM438.098 87.688L433.514 75.4H434.81L439.346 87.688H438.098ZM451.599 88.36C450.031 88.36 448.823 88 447.975 87.28C447.143 86.56 446.719 85.64 446.703 84.52H447.951C447.951 85.24 448.231 85.872 448.791 86.416C449.367 86.944 450.303 87.208 451.599 87.208C452.863 87.208 453.791 86.944 454.383 86.416C454.975 85.872 455.271 85.232 455.271 84.496C455.271 83.776 454.999 83.224 454.455 82.84C453.927 82.456 453.207 82.216 452.295 82.12L450.807 81.952C449.703 81.824 448.823 81.48 448.167 80.92C447.527 80.36 447.207 79.6 447.207 78.64C447.207 77.952 447.383 77.336 447.735 76.792C448.087 76.248 448.591 75.816 449.247 75.496C449.919 75.176 450.703 75.016 451.599 75.016C452.911 75.016 453.967 75.336 454.767 75.976C455.583 76.616 455.999 77.488 456.015 78.592H454.767C454.783 77.904 454.511 77.328 453.951 76.864C453.407 76.4 452.623 76.168 451.599 76.168C450.527 76.168 449.727 76.416 449.199 76.912C448.687 77.408 448.431 77.992 448.431 78.664C448.431 79.224 448.631 79.704 449.031 80.104C449.447 80.504 450.071 80.752 450.903 80.848L452.391 81.016C453.575 81.128 454.551 81.472 455.319 82.048C456.103 82.624 456.495 83.448 456.495 84.52C456.495 85.24 456.295 85.888 455.895 86.464C455.511 87.04 454.959 87.504 454.239 87.856C453.519 88.192 452.639 88.36 451.599 88.36ZM464.594 88.12C463.81 88.12 463.122 88.008 462.53 87.784C461.938 87.544 461.482 87.144 461.162 86.584C460.842 86.024 460.682 85.272 460.682 84.328V71.296H461.93V84.544C461.93 85.312 462.138 85.912 462.554 86.344C462.986 86.76 463.578 86.968 464.33 86.968H466.682V88.12H464.594ZM458.282 76.432V75.4H466.682V76.432H458.282ZM475.421 88.408C474.349 88.408 473.421 88.224 472.637 87.856C471.853 87.472 471.213 86.968 470.717 86.344C470.221 85.704 469.845 84.992 469.589 84.208C469.349 83.408 469.229 82.6 469.229 81.784V81.544C469.229 80.712 469.349 79.912 469.589 79.144C469.845 78.376 470.221 77.68 470.717 77.056C471.229 76.416 471.861 75.92 472.613 75.568C473.381 75.2 474.269 75.016 475.277 75.016C476.557 75.016 477.629 75.304 478.493 75.88C479.373 76.44 480.036 77.176 480.484 78.088C480.933 79 481.157 79.96 481.157 80.968V81.832H469.829V80.776H480.317L479.932 81.256C479.932 80.28 479.749 79.408 479.381 78.64C479.029 77.872 478.501 77.272 477.797 76.84C477.109 76.392 476.269 76.168 475.277 76.168C474.205 76.168 473.309 76.416 472.589 76.912C471.869 77.408 471.325 78.072 470.957 78.904C470.605 79.736 470.429 80.656 470.429 81.664C470.429 82.672 470.605 83.6 470.957 84.448C471.325 85.28 471.877 85.96 472.613 86.488C473.349 87 474.285 87.256 475.421 87.256C476.637 87.256 477.613 86.976 478.349 86.416C479.101 85.856 479.557 85.184 479.717 84.4H480.965C480.789 85.184 480.453 85.88 479.957 86.488C479.461 87.096 478.829 87.568 478.061 87.904C477.309 88.24 476.429 88.408 475.421 88.408ZM484.816 88V75.4H485.824V80.56H485.536C485.536 79.472 485.696 78.52 486.016 77.704C486.352 76.872 486.848 76.224 487.504 75.76C488.16 75.296 488.992 75.064 490 75.064H490.072C491.064 75.064 491.888 75.296 492.544 75.76C493.2 76.208 493.68 76.848 493.984 77.68C494.304 78.496 494.464 79.456 494.464 80.56H493.984C493.984 79.472 494.144 78.52 494.464 77.704C494.8 76.872 495.296 76.224 495.952 75.76C496.624 75.296 497.464 75.064 498.472 75.064H498.544C499.536 75.064 500.36 75.296 501.016 75.76C501.688 76.208 502.184 76.848 502.504 77.68C502.824 78.496 502.984 79.456 502.984 80.56V88H501.712V80.272C501.712 79.072 501.416 78.104 500.824 77.368C500.248 76.616 499.392 76.24 498.256 76.24C497.104 76.24 496.192 76.624 495.52 77.392C494.864 78.16 494.536 79.16 494.536 80.392V88H493.264V80.272C493.264 79.072 492.968 78.104 492.376 77.368C491.8 76.616 490.944 76.24 489.808 76.24C488.656 76.24 487.744 76.624 487.072 77.392C486.416 78.16 486.088 79.16 486.088 80.392V88H484.816ZM7.608 118.408C6.536 118.408 5.608 118.224 4.824 117.856C4.04 117.472 3.4 116.968 2.904 116.344C2.408 115.704 2.032 114.992 1.776 114.208C1.536 113.408 1.416 112.6 1.416 111.784V111.544C1.416 110.712 1.536 109.912 1.776 109.144C2.032 108.376 2.408 107.68 2.904 107.056C3.416 106.416 4.048 105.92 4.8 105.568C5.568 105.2 6.456 105.016 7.464 105.016C8.744 105.016 9.816 105.304 10.68 105.88C11.56 106.44 12.224 107.176 12.672 108.088C13.12 109 13.344 109.96 13.344 110.968V111.832H2.016V110.776H12.504L12.12 111.256C12.12 110.28 11.936 109.408 11.568 108.64C11.216 107.872 10.688 107.272 9.984 106.84C9.296 106.392 8.456 106.168 7.464 106.168C6.392 106.168 5.496 106.416 4.776 106.912C4.056 107.408 3.512 108.072 3.144 108.904C2.792 109.736 2.616 110.656 2.616 111.664C2.616 112.672 2.792 113.6 3.144 114.448C3.512 115.28 4.064 115.96 4.8 116.488C5.536 117 6.472 117.256 7.608 117.256C8.824 117.256 9.8 116.976 10.536 116.416C11.288 115.856 11.744 115.184 11.904 114.4H13.152C12.976 115.184 12.64 115.88 12.144 116.488C11.648 117.096 11.016 117.568 10.248 117.904C9.496 118.24 8.616 118.408 7.608 118.408ZM17.0033 118V105.4H18.0113V110.56H17.7233C17.7233 109.456 17.8993 108.496 18.2513 107.68C18.6193 106.848 19.1553 106.208 19.8593 105.76C20.5793 105.296 21.4673 105.064 22.5233 105.064H22.5953C24.1793 105.064 25.3713 105.56 26.1713 106.552C26.9713 107.528 27.3713 108.864 27.3713 110.56V118H26.0753V110.272C26.0753 109.072 25.7473 108.104 25.0913 107.368C24.4513 106.616 23.5233 106.24 22.3073 106.24C21.0753 106.24 20.0913 106.624 19.3553 107.392C18.6353 108.144 18.2753 109.144 18.2753 110.392V118H17.0033ZM36.9439 122.92C36.3839 122.92 35.7999 122.896 35.1919 122.848C34.5839 122.8 33.9999 122.728 33.4399 122.632V121.504C34.0159 121.6 34.6159 121.672 35.2399 121.72C35.8799 121.784 36.4799 121.816 37.0399 121.816C38.3199 121.816 39.3279 121.648 40.0639 121.312C40.7999 120.992 41.3279 120.456 41.6479 119.704C41.9679 118.968 42.1279 117.984 42.1279 116.752V114.16L42.7039 112.408C42.6879 113.56 42.4399 114.576 41.9599 115.456C41.4959 116.336 40.8479 117.032 40.0159 117.544C39.1839 118.04 38.2079 118.288 37.0879 118.288C36.1439 118.288 35.2959 118.112 34.5439 117.76C33.8079 117.392 33.1839 116.904 32.6719 116.296C32.1599 115.672 31.7679 114.968 31.4959 114.184C31.2239 113.384 31.0879 112.568 31.0879 111.736V111.496C31.0879 110.68 31.2239 109.888 31.4959 109.12C31.7679 108.336 32.1599 107.64 32.6719 107.032C33.1839 106.408 33.8159 105.92 34.5679 105.568C35.3199 105.2 36.1759 105.016 37.1359 105.016C38.3039 105.016 39.3119 105.28 40.1599 105.808C41.0079 106.336 41.6559 107.048 42.1039 107.944C42.5679 108.84 42.8079 109.832 42.8239 110.92L42.3439 110.272V105.4H43.3759V116.752C43.3759 118.256 43.1679 119.456 42.7519 120.352C42.3359 121.264 41.6559 121.92 40.7119 122.32C39.7679 122.72 38.5119 122.92 36.9439 122.92ZM37.2559 117.112C38.2159 117.112 39.0639 116.904 39.7999 116.488C40.5359 116.056 41.1119 115.472 41.5279 114.736C41.9439 113.984 42.1519 113.136 42.1519 112.192V110.968C42.1519 110.056 41.9439 109.24 41.5279 108.52C41.1279 107.784 40.5599 107.2 39.8239 106.768C39.0879 106.336 38.2399 106.12 37.2799 106.12C36.2239 106.12 35.3279 106.376 34.5919 106.888C33.8719 107.4 33.3199 108.072 32.9359 108.904C32.5519 109.736 32.3599 110.64 32.3599 111.616C32.3599 112.624 32.5599 113.552 32.9599 114.4C33.3599 115.232 33.9199 115.896 34.6399 116.392C35.3759 116.872 36.2479 117.112 37.2559 117.112ZM48.8471 118V105.4H50.1431V118H48.8471ZM46.7591 106.504V105.4H50.1431V106.504H46.7591ZM48.9671 102.76C48.6311 102.76 48.3751 102.672 48.1991 102.496C48.0231 102.304 47.9351 102.064 47.9351 101.776C47.9351 101.472 48.0231 101.224 48.1991 101.032C48.3751 100.84 48.6391 100.744 48.9911 100.744C49.3271 100.744 49.5831 100.84 49.7591 101.032C49.9351 101.224 50.0231 101.472 50.0231 101.776C50.0231 102.064 49.9351 102.304 49.7591 102.496C49.5991 102.672 49.3351 102.76 48.9671 102.76ZM55.1126 118V105.4H56.1206V110.56H55.8326C55.8326 109.456 56.0086 108.496 56.3606 107.68C56.7286 106.848 57.2646 106.208 57.9686 105.76C58.6886 105.296 59.5766 105.064 60.6326 105.064H60.7046C62.2886 105.064 63.4806 105.56 64.2806 106.552C65.0806 107.528 65.4806 108.864 65.4806 110.56V118H64.1846V110.272C64.1846 109.072 63.8566 108.104 63.2006 107.368C62.5606 106.616 61.6326 106.24 60.4166 106.24C59.1846 106.24 58.2006 106.624 57.4646 107.392C56.7446 108.144 56.3846 109.144 56.3846 110.392V118H55.1126ZM75.3893 118.408C74.3173 118.408 73.3893 118.224 72.6053 117.856C71.8213 117.472 71.1813 116.968 70.6853 116.344C70.1893 115.704 69.8133 114.992 69.5573 114.208C69.3173 113.408 69.1973 112.6 69.1973 111.784V111.544C69.1973 110.712 69.3173 109.912 69.5573 109.144C69.8133 108.376 70.1893 107.68 70.6853 107.056C71.1973 106.416 71.8293 105.92 72.5813 105.568C73.3493 105.2 74.2373 105.016 75.2453 105.016C76.5253 105.016 77.5973 105.304 78.4613 105.88C79.3413 106.44 80.0052 107.176 80.4532 108.088C80.9013 109 81.1253 109.96 81.1253 110.968V111.832H69.7973V110.776H80.2853L79.9012 111.256C79.9012 110.28 79.7173 109.408 79.3493 108.64C78.9973 107.872 78.4693 107.272 77.7653 106.84C77.0773 106.392 76.2373 106.168 75.2453 106.168C74.1733 106.168 73.2773 106.416 72.5573 106.912C71.8373 107.408 71.2933 108.072 70.9253 108.904C70.5733 109.736 70.3973 110.656 70.3973 111.664C70.3973 112.672 70.5733 113.6 70.9253 114.448C71.2933 115.28 71.8453 115.96 72.5813 116.488C73.3173 117 74.2533 117.256 75.3893 117.256C76.6053 117.256 77.5813 116.976 78.3173 116.416C79.0693 115.856 79.5253 115.184 79.6853 114.4H80.9333C80.7573 115.184 80.4213 115.88 79.9253 116.488C79.4293 117.096 78.7973 117.568 78.0293 117.904C77.2773 118.24 76.3973 118.408 75.3893 118.408ZM89.9205 118.408C88.8485 118.408 87.9205 118.224 87.1365 117.856C86.3525 117.472 85.7125 116.968 85.2165 116.344C84.7205 115.704 84.3445 114.992 84.0885 114.208C83.8485 113.408 83.7285 112.6 83.7285 111.784V111.544C83.7285 110.712 83.8485 109.912 84.0885 109.144C84.3445 108.376 84.7205 107.68 85.2165 107.056C85.7285 106.416 86.3605 105.92 87.1125 105.568C87.8805 105.2 88.7685 105.016 89.7765 105.016C91.0565 105.016 92.1285 105.304 92.9925 105.88C93.8725 106.44 94.5365 107.176 94.9845 108.088C95.4325 109 95.6565 109.96 95.6565 110.968V111.832H84.3285V110.776H94.8165L94.4325 111.256C94.4325 110.28 94.2485 109.408 93.8805 108.64C93.5285 107.872 93.0005 107.272 92.2965 106.84C91.6085 106.392 90.7685 106.168 89.7765 106.168C88.7045 106.168 87.8085 106.416 87.0885 106.912C86.3685 107.408 85.8245 108.072 85.4565 108.904C85.1045 109.736 84.9285 110.656 84.9285 111.664C84.9285 112.672 85.1045 113.6 85.4565 114.448C85.8245 115.28 86.3765 115.96 87.1125 116.488C87.8485 117 88.7845 117.256 89.9205 117.256C91.1365 117.256 92.1125 116.976 92.8485 116.416C93.6005 115.856 94.0565 115.184 94.2165 114.4H95.4645C95.2885 115.184 94.9525 115.88 94.4565 116.488C93.9605 117.096 93.3285 117.568 92.5605 117.904C91.8085 118.24 90.9285 118.408 89.9205 118.408ZM99.3158 118V105.4H100.324V110.728H100.132C100.132 108.904 100.54 107.544 101.356 106.648C102.172 105.752 103.492 105.304 105.316 105.304H105.748V106.456H105.076C103.588 106.456 102.468 106.84 101.716 107.608C100.964 108.36 100.588 109.472 100.588 110.944V118H99.3158ZM109.527 118V105.4H110.823V118H109.527ZM107.439 106.504V105.4H110.823V106.504H107.439ZM109.647 102.76C109.311 102.76 109.055 102.672 108.879 102.496C108.703 102.304 108.615 102.064 108.615 101.776C108.615 101.472 108.703 101.224 108.879 101.032C109.055 100.84 109.319 100.744 109.671 100.744C110.007 100.744 110.263 100.84 110.439 101.032C110.615 101.224 110.703 101.472 110.703 101.776C110.703 102.064 110.615 102.304 110.439 102.496C110.279 102.672 110.015 102.76 109.647 102.76ZM115.792 118V105.4H116.8V110.56H116.512C116.512 109.456 116.688 108.496 117.04 107.68C117.408 106.848 117.944 106.208 118.648 105.76C119.368 105.296 120.256 105.064 121.312 105.064H121.384C122.968 105.064 124.16 105.56 124.96 106.552C125.76 107.528 126.16 108.864 126.16 110.56V118H124.864V110.272C124.864 109.072 124.536 108.104 123.88 107.368C123.24 106.616 122.312 106.24 121.096 106.24C119.864 106.24 118.88 106.624 118.144 107.392C117.424 108.144 117.064 109.144 117.064 110.392V118H115.792ZM135.733 122.92C135.173 122.92 134.589 122.896 133.981 122.848C133.373 122.8 132.789 122.728 132.229 122.632V121.504C132.805 121.6 133.405 121.672 134.029 121.72C134.669 121.784 135.269 121.816 135.829 121.816C137.109 121.816 138.117 121.648 138.853 121.312C139.589 120.992 140.117 120.456 140.437 119.704C140.757 118.968 140.917 117.984 140.917 116.752V114.16L141.493 112.408C141.477 113.56 141.229 114.576 140.749 115.456C140.285 116.336 139.637 117.032 138.805 117.544C137.973 118.04 136.997 118.288 135.877 118.288C134.933 118.288 134.085 118.112 133.333 117.76C132.597 117.392 131.973 116.904 131.461 116.296C130.949 115.672 130.557 114.968 130.285 114.184C130.013 113.384 129.877 112.568 129.877 111.736V111.496C129.877 110.68 130.013 109.888 130.285 109.12C130.557 108.336 130.949 107.64 131.461 107.032C131.973 106.408 132.605 105.92 133.357 105.568C134.109 105.2 134.965 105.016 135.925 105.016C137.093 105.016 138.101 105.28 138.949 105.808C139.797 106.336 140.445 107.048 140.893 107.944C141.357 108.84 141.597 109.832 141.613 110.92L141.133 110.272V105.4H142.165V116.752C142.165 118.256 141.957 119.456 141.541 120.352C141.125 121.264 140.445 121.92 139.501 122.32C138.557 122.72 137.301 122.92 135.733 122.92ZM136.045 117.112C137.005 117.112 137.853 116.904 138.589 116.488C139.325 116.056 139.901 115.472 140.317 114.736C140.733 113.984 140.941 113.136 140.941 112.192V110.968C140.941 110.056 140.733 109.24 140.317 108.52C139.917 107.784 139.349 107.2 138.613 106.768C137.877 106.336 137.029 106.12 136.069 106.12C135.013 106.12 134.117 106.376 133.381 106.888C132.661 107.4 132.109 108.072 131.725 108.904C131.341 109.736 131.149 110.64 131.149 111.616C131.149 112.624 131.349 113.552 131.749 114.4C132.149 115.232 132.709 115.896 133.429 116.392C134.165 116.872 135.037 117.112 136.045 117.112Z" fill="url(#paint1_radial_1097_2844)"/>
<defs>
<radialGradient id="paint0_radial_1097_2844" cx="0" cy="0" r="1" gradientUnits="userSpaceOnUse" gradientTransform="translate(268 30) rotate(90) scale(30 268)">
<stop stop-color="#5A69EA"/>
<stop offset="1" stop-color="#BF8BCA"/>
</radialGradient>
<radialGradient id="paint1_radial_1097_2844" cx="0" cy="0" r="1" gradientUnits="userSpaceOnUse" gradientTransform="translate(254 95) rotate(90) scale(30 254)">
<stop stop-color="#5A69EA"/>
<stop offset="1" stop-color="#BF8BCA"/>
</radialGradient>
</defs>
</svg>
