<svg width="1219" height="279" viewBox="0 0 1219 279" fill="none" xmlns="http://www.w3.org/2000/svg">
<rect width="589" height="279" rx="10" fill="#ECECEC"/>
<rect x="1" y="1" width="587" height="277" rx="9" stroke="#717171" stroke-opacity="0.5" stroke-width="2"/>
<path d="M213.824 150V138.32H215.04V150H213.824ZM214.752 150V148.896H220.592V150H214.752ZM214.752 144.608V143.52H220.048V144.608H214.752ZM214.752 139.424V138.32H220.416V139.424H214.752ZM225.693 150.24C224.605 150.24 223.767 150.005 223.181 149.536C222.594 149.056 222.295 148.416 222.285 147.616H223.405C223.426 148.021 223.607 148.389 223.949 148.72C224.301 149.051 224.882 149.216 225.693 149.216C226.45 149.216 227.015 149.061 227.389 148.752C227.773 148.432 227.965 148.048 227.965 147.6C227.965 147.184 227.805 146.864 227.485 146.64C227.175 146.405 226.722 146.256 226.125 146.192L225.165 146.096C224.397 146.011 223.773 145.776 223.293 145.392C222.823 144.997 222.589 144.459 222.589 143.776C222.589 143.275 222.717 142.837 222.973 142.464C223.229 142.091 223.586 141.803 224.045 141.6C224.514 141.387 225.063 141.28 225.693 141.28C226.599 141.28 227.335 141.493 227.901 141.92C228.477 142.347 228.77 142.955 228.781 143.744H227.661C227.65 143.339 227.479 142.997 227.149 142.72C226.818 142.443 226.333 142.304 225.693 142.304C225.031 142.304 224.535 142.448 224.205 142.736C223.885 143.024 223.725 143.376 223.725 143.792C223.725 144.144 223.847 144.437 224.093 144.672C224.338 144.896 224.722 145.035 225.245 145.088L226.205 145.184C227.058 145.28 227.751 145.525 228.285 145.92C228.829 146.315 229.101 146.88 229.101 147.616C229.101 148.117 228.957 148.571 228.669 148.976C228.391 149.371 227.997 149.68 227.485 149.904C226.973 150.128 226.375 150.24 225.693 150.24ZM234.562 150.096C233.975 150.096 233.468 150.011 233.042 149.84C232.615 149.669 232.284 149.381 232.049 148.976C231.815 148.56 231.698 148.005 231.698 147.312V138.864H232.85V147.488C232.85 147.979 232.983 148.357 233.25 148.624C233.516 148.88 233.895 149.008 234.386 149.008H235.906V150.096H234.562ZM230.178 142.448V141.536H235.906V142.448H230.178ZM238.672 150V141.536H239.856V150H238.672ZM237.312 142.496V141.536H239.856V142.496H237.312ZM238.928 139.968C238.64 139.968 238.421 139.893 238.272 139.744C238.133 139.584 238.064 139.387 238.064 139.152C238.064 138.917 238.133 138.725 238.272 138.576C238.421 138.416 238.64 138.336 238.928 138.336C239.216 138.336 239.429 138.416 239.568 138.576C239.707 138.725 239.776 138.917 239.776 139.152C239.776 139.387 239.707 139.584 239.568 139.744C239.429 139.893 239.216 139.968 238.928 139.968ZM243.005 150V141.52H243.965V145.088H243.773C243.773 144.309 243.88 143.637 244.093 143.072C244.317 142.507 244.648 142.069 245.085 141.76C245.522 141.44 246.077 141.28 246.749 141.28H246.797C247.469 141.28 248.024 141.435 248.461 141.744C248.898 142.053 249.224 142.491 249.437 143.056C249.65 143.621 249.757 144.299 249.757 145.088H249.373C249.373 144.309 249.48 143.637 249.693 143.072C249.917 142.507 250.248 142.069 250.685 141.76C251.133 141.44 251.693 141.28 252.365 141.28H252.413C253.085 141.28 253.64 141.435 254.077 141.744C254.525 142.053 254.856 142.491 255.069 143.056C255.293 143.621 255.405 144.299 255.405 145.088V150H254.205V144.816C254.205 144.069 254.024 143.477 253.661 143.04C253.298 142.603 252.776 142.384 252.093 142.384C251.389 142.384 250.829 142.613 250.413 143.072C250.008 143.52 249.805 144.128 249.805 144.896V150H248.605V144.816C248.605 144.069 248.424 143.477 248.061 143.04C247.698 142.603 247.176 142.384 246.493 142.384C245.789 142.384 245.229 142.613 244.813 143.072C244.408 143.52 244.205 144.128 244.205 144.896V150H243.005ZM263.548 150V147.456H263.356V144.448C263.356 143.819 263.19 143.339 262.86 143.008C262.529 142.667 262.017 142.496 261.324 142.496C261.004 142.496 260.678 142.501 260.348 142.512C260.028 142.523 259.718 142.539 259.42 142.56C259.132 142.571 258.876 142.587 258.652 142.608V141.552C258.886 141.531 259.126 141.509 259.372 141.488C259.617 141.467 259.868 141.456 260.124 141.456C260.39 141.445 260.646 141.44 260.892 141.44C261.756 141.44 262.449 141.547 262.972 141.76C263.505 141.973 263.894 142.309 264.14 142.768C264.385 143.216 264.508 143.813 264.508 144.56V150H263.548ZM260.684 150.224C260.086 150.224 259.558 150.117 259.1 149.904C258.641 149.691 258.284 149.381 258.028 148.976C257.782 148.571 257.66 148.08 257.66 147.504C257.66 146.939 257.788 146.459 258.044 146.064C258.31 145.669 258.689 145.371 259.18 145.168C259.681 144.955 260.284 144.848 260.988 144.848H263.468V145.76H260.908C260.236 145.76 259.718 145.925 259.356 146.256C259.004 146.576 258.828 146.997 258.828 147.52C258.828 148.053 259.014 148.48 259.388 148.8C259.761 149.109 260.268 149.264 260.908 149.264C261.302 149.264 261.681 149.195 262.044 149.056C262.406 148.907 262.71 148.661 262.956 148.32C263.201 147.968 263.334 147.488 263.356 146.88L263.708 147.376C263.665 148.005 263.516 148.533 263.26 148.96C263.004 149.376 262.657 149.691 262.22 149.904C261.782 150.117 261.27 150.224 260.684 150.224ZM270.577 150.096C269.99 150.096 269.484 150.011 269.057 149.84C268.63 149.669 268.3 149.381 268.065 148.976C267.83 148.56 267.713 148.005 267.713 147.312V138.864H268.865V147.488C268.865 147.979 268.998 148.357 269.265 148.624C269.532 148.88 269.91 149.008 270.401 149.008H271.921V150.096H270.577ZM266.193 142.448V141.536H271.921V142.448H266.193ZM277.697 150.272C276.972 150.272 276.343 150.149 275.809 149.904C275.276 149.648 274.839 149.312 274.497 148.896C274.156 148.469 273.9 147.995 273.729 147.472C273.569 146.949 273.489 146.411 273.489 145.856V145.632C273.489 145.088 273.569 144.555 273.729 144.032C273.9 143.509 274.156 143.04 274.497 142.624C274.839 142.208 275.265 141.877 275.777 141.632C276.3 141.376 276.908 141.248 277.601 141.248C278.487 141.248 279.223 141.445 279.809 141.84C280.407 142.235 280.855 142.741 281.153 143.36C281.452 143.968 281.601 144.624 281.601 145.328V145.952H274.033V145.024H280.769L280.465 145.488C280.465 144.859 280.353 144.309 280.129 143.84C279.916 143.36 279.596 142.987 279.169 142.72C278.753 142.443 278.231 142.304 277.601 142.304C276.94 142.304 276.391 142.459 275.953 142.768C275.516 143.077 275.185 143.488 274.961 144C274.748 144.512 274.641 145.093 274.641 145.744C274.641 146.384 274.748 146.971 274.961 147.504C275.185 148.027 275.521 148.443 275.969 148.752C276.428 149.061 277.004 149.216 277.697 149.216C278.433 149.216 279.031 149.051 279.489 148.72C279.948 148.379 280.231 147.979 280.337 147.52H281.457C281.351 148.085 281.127 148.576 280.785 148.992C280.444 149.397 280.012 149.712 279.489 149.936C278.967 150.16 278.369 150.272 277.697 150.272ZM287.383 150.272C286.765 150.272 286.199 150.16 285.687 149.936C285.186 149.701 284.749 149.381 284.375 148.976C284.013 148.56 283.73 148.091 283.527 147.568C283.335 147.035 283.239 146.469 283.239 145.872V145.648C283.239 145.072 283.335 144.523 283.527 144C283.719 143.467 283.991 142.997 284.343 142.592C284.706 142.176 285.138 141.851 285.639 141.616C286.151 141.371 286.722 141.248 287.351 141.248C288.066 141.248 288.695 141.403 289.239 141.712C289.783 142.021 290.221 142.469 290.551 143.056C290.882 143.632 291.058 144.341 291.079 145.184L290.551 144.192V138.32H291.751V150H290.791V146.24H291.175C291.154 147.125 290.967 147.872 290.615 148.48C290.274 149.077 289.821 149.525 289.255 149.824C288.701 150.123 288.077 150.272 287.383 150.272ZM287.543 149.216C288.119 149.216 288.637 149.088 289.095 148.832C289.565 148.576 289.933 148.213 290.199 147.744C290.466 147.264 290.599 146.715 290.599 146.096V145.328C290.599 144.731 290.466 144.208 290.199 143.76C289.933 143.301 289.565 142.944 289.095 142.688C288.637 142.432 288.114 142.304 287.527 142.304C286.898 142.304 286.349 142.459 285.879 142.768C285.421 143.067 285.063 143.477 284.807 144C284.562 144.523 284.439 145.109 284.439 145.76C284.439 146.432 284.567 147.029 284.823 147.552C285.079 148.075 285.442 148.485 285.911 148.784C286.381 149.072 286.925 149.216 287.543 149.216ZM303.831 150.272C302.786 150.272 301.89 150.091 301.143 149.728C300.407 149.355 299.805 148.869 299.335 148.272C298.877 147.675 298.541 147.029 298.327 146.336C298.114 145.632 298.007 144.949 298.007 144.288V143.984C298.007 143.269 298.114 142.56 298.327 141.856C298.551 141.141 298.893 140.496 299.351 139.92C299.821 139.344 300.418 138.885 301.143 138.544C301.869 138.192 302.727 138.016 303.719 138.016C304.722 138.016 305.586 138.192 306.311 138.544C307.047 138.896 307.634 139.392 308.071 140.032C308.509 140.661 308.775 141.408 308.871 142.272H307.639C307.554 141.579 307.33 141.003 306.967 140.544C306.605 140.075 306.141 139.723 305.575 139.488C305.021 139.253 304.402 139.136 303.719 139.136C302.983 139.136 302.333 139.269 301.767 139.536C301.213 139.792 300.749 140.155 300.375 140.624C300.002 141.083 299.719 141.616 299.527 142.224C299.335 142.821 299.239 143.461 299.239 144.144C299.239 144.795 299.33 145.419 299.511 146.016C299.703 146.613 299.991 147.152 300.375 147.632C300.759 148.101 301.239 148.475 301.815 148.752C302.391 149.019 303.063 149.152 303.831 149.152C304.898 149.152 305.794 148.885 306.519 148.352C307.245 147.808 307.693 147.029 307.863 146.016H309.095C308.978 146.816 308.701 147.541 308.263 148.192C307.826 148.832 307.234 149.339 306.487 149.712C305.751 150.085 304.866 150.272 303.831 150.272ZM315.078 150.272C314.353 150.272 313.713 150.149 313.158 149.904C312.614 149.648 312.15 149.312 311.766 148.896C311.393 148.469 311.105 147.995 310.902 147.472C310.71 146.949 310.614 146.416 310.614 145.872V145.648C310.614 145.104 310.716 144.571 310.918 144.048C311.121 143.515 311.414 143.04 311.798 142.624C312.182 142.208 312.646 141.877 313.19 141.632C313.745 141.376 314.374 141.248 315.078 141.248C315.793 141.248 316.422 141.376 316.966 141.632C317.521 141.877 317.99 142.208 318.374 142.624C318.758 143.04 319.046 143.515 319.238 144.048C319.441 144.571 319.542 145.104 319.542 145.648V145.872C319.542 146.416 319.446 146.949 319.254 147.472C319.062 147.995 318.774 148.469 318.39 148.896C318.017 149.312 317.553 149.648 316.998 149.904C316.444 150.149 315.804 150.272 315.078 150.272ZM315.078 149.2C315.782 149.2 316.374 149.045 316.854 148.736C317.345 148.416 317.718 148 317.974 147.488C318.23 146.965 318.358 146.389 318.358 145.76C318.358 145.12 318.225 144.544 317.958 144.032C317.702 143.509 317.329 143.099 316.838 142.8C316.348 142.491 315.761 142.336 315.078 142.336C314.406 142.336 313.825 142.491 313.334 142.8C312.844 143.099 312.465 143.509 312.198 144.032C311.942 144.544 311.814 145.12 311.814 145.76C311.814 146.389 311.942 146.965 312.198 147.488C312.454 148 312.822 148.416 313.302 148.736C313.793 149.045 314.385 149.2 315.078 149.2ZM324.661 150.24C323.573 150.24 322.736 150.005 322.15 149.536C321.563 149.056 321.264 148.416 321.254 147.616H322.374C322.395 148.021 322.576 148.389 322.918 148.72C323.27 149.051 323.851 149.216 324.661 149.216C325.419 149.216 325.984 149.061 326.358 148.752C326.742 148.432 326.934 148.048 326.934 147.6C326.934 147.184 326.774 146.864 326.454 146.64C326.144 146.405 325.691 146.256 325.094 146.192L324.134 146.096C323.366 146.011 322.742 145.776 322.262 145.392C321.792 144.997 321.558 144.459 321.558 143.776C321.558 143.275 321.686 142.837 321.942 142.464C322.198 142.091 322.555 141.803 323.014 141.6C323.483 141.387 324.032 141.28 324.661 141.28C325.568 141.28 326.304 141.493 326.87 141.92C327.446 142.347 327.739 142.955 327.75 143.744H326.63C326.619 143.339 326.448 142.997 326.118 142.72C325.787 142.443 325.302 142.304 324.661 142.304C324 142.304 323.504 142.448 323.174 142.736C322.854 143.024 322.694 143.376 322.694 143.792C322.694 144.144 322.816 144.437 323.062 144.672C323.307 144.896 323.691 145.035 324.214 145.088L325.174 145.184C326.027 145.28 326.72 145.525 327.254 145.92C327.798 146.315 328.07 146.88 328.07 147.616C328.07 148.117 327.926 148.571 327.638 148.976C327.36 149.371 326.966 149.68 326.454 149.904C325.942 150.128 325.344 150.24 324.661 150.24ZM333.53 150.096C332.944 150.096 332.437 150.011 332.01 149.84C331.584 149.669 331.253 149.381 331.018 148.976C330.784 148.56 330.666 148.005 330.666 147.312V138.864H331.818V147.488C331.818 147.979 331.952 148.357 332.218 148.624C332.485 148.88 332.864 149.008 333.354 149.008H334.874V150.096H333.53ZM329.146 142.448V141.536H334.874V142.448H329.146ZM337.641 150V141.536H338.825V150H337.641ZM336.281 142.496V141.536H338.825V142.496H336.281ZM337.897 139.968C337.609 139.968 337.39 139.893 337.241 139.744C337.102 139.584 337.033 139.387 337.033 139.152C337.033 138.917 337.102 138.725 337.241 138.576C337.39 138.416 337.609 138.336 337.897 138.336C338.185 138.336 338.398 138.416 338.537 138.576C338.675 138.725 338.745 138.917 338.745 139.152C338.745 139.387 338.675 139.584 338.537 139.744C338.398 139.893 338.185 139.968 337.897 139.968ZM341.974 150V141.536H342.934V145.088H342.742C342.742 144.299 342.859 143.621 343.094 143.056C343.329 142.491 343.681 142.053 344.15 141.744C344.619 141.435 345.211 141.28 345.926 141.28H345.974C347.041 141.28 347.835 141.616 348.358 142.288C348.881 142.949 349.142 143.883 349.142 145.088V150H347.958V144.832C347.958 144.096 347.755 143.504 347.35 143.056C346.945 142.608 346.379 142.384 345.654 142.384C344.907 142.384 344.305 142.619 343.846 143.088C343.398 143.547 343.174 144.155 343.174 144.912V150H341.974ZM355.362 153.312C354.967 153.312 354.567 153.291 354.162 153.248C353.767 153.216 353.389 153.173 353.026 153.12V152.096C353.41 152.149 353.81 152.192 354.226 152.224C354.653 152.267 355.053 152.288 355.426 152.288C356.237 152.288 356.882 152.181 357.362 151.968C357.842 151.755 358.183 151.413 358.386 150.944C358.599 150.485 358.706 149.877 358.706 149.12V147.424L359.154 146.24C359.133 147.051 358.962 147.749 358.642 148.336C358.322 148.912 357.89 149.355 357.346 149.664C356.802 149.973 356.183 150.128 355.49 150.128C354.882 150.128 354.327 150.011 353.826 149.776C353.335 149.541 352.914 149.221 352.562 148.816C352.21 148.4 351.938 147.931 351.746 147.408C351.554 146.885 351.458 146.336 351.458 145.76V145.536C351.458 144.971 351.554 144.432 351.746 143.92C351.938 143.397 352.21 142.939 352.562 142.544C352.914 142.139 353.341 141.824 353.842 141.6C354.354 141.365 354.919 141.248 355.538 141.248C356.285 141.248 356.935 141.413 357.49 141.744C358.045 142.075 358.477 142.533 358.786 143.12C359.106 143.707 359.277 144.395 359.298 145.184L358.914 144.976V141.536H359.858V149.072C359.858 150.085 359.709 150.901 359.41 151.52C359.111 152.139 358.631 152.592 357.97 152.88C357.319 153.168 356.45 153.312 355.362 153.312ZM355.698 149.024C356.274 149.024 356.786 148.901 357.234 148.656C357.693 148.4 358.055 148.043 358.322 147.584C358.589 147.125 358.722 146.592 358.722 145.984V145.2C358.722 144.613 358.583 144.101 358.306 143.664C358.039 143.227 357.682 142.885 357.234 142.64C356.786 142.395 356.274 142.272 355.698 142.272C355.079 142.272 354.541 142.421 354.082 142.72C353.623 143.019 353.271 143.424 353.026 143.936C352.781 144.437 352.658 145.008 352.658 145.648C352.658 146.299 352.781 146.88 353.026 147.392C353.282 147.904 353.639 148.304 354.098 148.592C354.557 148.88 355.09 149.024 355.698 149.024ZM362.625 150V148.416H364.129V150H362.625ZM362.625 143.968V142.384H364.129V143.968H362.625Z" fill="#404040"/>
<path d="M152.692 202.612C150.772 202.612 149.14 202.24 147.796 201.496C146.476 200.752 145.468 199.744 144.772 198.472C144.076 197.2 143.728 195.808 143.728 194.296H146.356C146.356 196.12 146.92 197.572 148.048 198.652C149.176 199.708 150.724 200.236 152.692 200.236C153.964 200.236 155.068 199.996 156.004 199.516C156.964 199.036 157.696 198.352 158.2 197.464C158.728 196.576 158.992 195.544 158.992 194.368C158.992 192.568 158.428 191.116 157.3 190.012C156.172 188.908 154.648 188.356 152.728 188.356C151.96 188.356 151.3 188.452 150.748 188.644C150.196 188.812 149.704 189.028 149.272 189.292L147.796 186.772L158.272 178.636L157.984 178.06H144.772V175.72H160.504V179.608L151.216 186.844L149.452 186.88C149.884 186.688 150.376 186.532 150.928 186.412C151.48 186.268 152.116 186.196 152.836 186.196C154.684 186.196 156.256 186.556 157.552 187.276C158.872 187.996 159.88 188.956 160.576 190.156C161.272 191.356 161.62 192.676 161.62 194.116V194.62C161.62 196.012 161.272 197.32 160.576 198.544C159.88 199.768 158.872 200.752 157.552 201.496C156.232 202.24 154.612 202.612 152.692 202.612ZM177.186 202.612C175.338 202.612 173.754 202.288 172.434 201.64C171.114 200.992 170.034 200.092 169.194 198.94C168.354 197.764 167.73 196.396 167.322 194.836C166.938 193.252 166.746 191.548 166.746 189.724V188.032C166.746 185.464 167.118 183.208 167.862 181.264C168.63 179.32 169.782 177.796 171.318 176.692C172.878 175.588 174.834 175.036 177.186 175.036C179.538 175.036 181.482 175.588 183.018 176.692C184.554 177.796 185.694 179.32 186.438 181.264C187.206 183.208 187.59 185.464 187.59 188.032V189.724C187.59 191.548 187.386 193.252 186.978 194.836C186.594 196.396 185.982 197.764 185.142 198.94C184.302 200.092 183.222 200.992 181.902 201.64C180.582 202.288 179.01 202.612 177.186 202.612ZM177.186 200.164C179.778 200.164 181.698 199.252 182.945 197.428C184.218 195.604 184.854 192.76 184.854 188.896C184.854 184.864 184.206 181.96 182.91 180.184C181.638 178.384 179.73 177.484 177.186 177.484C174.618 177.484 172.686 178.384 171.39 180.184C170.118 181.96 169.482 184.84 169.482 188.824C169.482 192.712 170.106 195.58 171.354 197.428C172.626 199.252 174.57 200.164 177.186 200.164ZM203.658 202.612C201.81 202.612 200.226 202.288 198.906 201.64C197.586 200.992 196.506 200.092 195.666 198.94C194.826 197.764 194.202 196.396 193.794 194.836C193.41 193.252 193.218 191.548 193.218 189.724V188.032C193.218 185.464 193.59 183.208 194.334 181.264C195.102 179.32 196.254 177.796 197.79 176.692C199.35 175.588 201.306 175.036 203.658 175.036C206.01 175.036 207.954 175.588 209.49 176.692C211.026 177.796 212.166 179.32 212.91 181.264C213.678 183.208 214.062 185.464 214.062 188.032V189.724C214.062 191.548 213.858 193.252 213.45 194.836C213.066 196.396 212.454 197.764 211.614 198.94C210.774 200.092 209.694 200.992 208.374 201.64C207.054 202.288 205.482 202.612 203.658 202.612ZM203.658 200.164C206.25 200.164 208.17 199.252 209.418 197.428C210.69 195.604 211.326 192.76 211.326 188.896C211.326 184.864 210.678 181.96 209.382 180.184C208.11 178.384 206.202 177.484 203.658 177.484C201.09 177.484 199.158 178.384 197.862 180.184C196.59 181.96 195.954 184.84 195.954 188.824C195.954 192.712 196.578 195.58 197.826 197.428C199.098 199.252 201.042 200.164 203.658 200.164ZM230.131 202.612C228.283 202.612 226.699 202.288 225.379 201.64C224.059 200.992 222.979 200.092 222.139 198.94C221.299 197.764 220.675 196.396 220.267 194.836C219.883 193.252 219.691 191.548 219.691 189.724V188.032C219.691 185.464 220.063 183.208 220.807 181.264C221.575 179.32 222.727 177.796 224.263 176.692C225.823 175.588 227.779 175.036 230.131 175.036C232.483 175.036 234.427 175.588 235.963 176.692C237.499 177.796 238.639 179.32 239.383 181.264C240.151 183.208 240.535 185.464 240.535 188.032V189.724C240.535 191.548 240.331 193.252 239.923 194.836C239.539 196.396 238.927 197.764 238.087 198.94C237.247 200.092 236.167 200.992 234.847 201.64C233.527 202.288 231.955 202.612 230.131 202.612ZM230.131 200.164C232.723 200.164 234.643 199.252 235.891 197.428C237.163 195.604 237.799 192.76 237.799 188.896C237.799 184.864 237.151 181.96 235.855 180.184C234.583 178.384 232.675 177.484 230.131 177.484C227.563 177.484 225.631 178.384 224.335 180.184C223.063 181.96 222.427 184.84 222.427 188.824C222.427 192.712 223.051 195.58 224.299 197.428C225.571 199.252 227.515 200.164 230.131 200.164ZM255.163 201.964C253.051 201.964 251.275 201.628 249.835 200.956C248.419 200.284 247.351 199.336 246.631 198.112C245.911 196.864 245.551 195.424 245.551 193.792H248.071C248.071 194.8 248.299 195.748 248.755 196.636C249.235 197.524 249.991 198.256 251.023 198.832C252.055 199.384 253.435 199.66 255.163 199.66C257.467 199.66 259.183 199.18 260.311 198.22C261.463 197.26 262.039 196.096 262.039 194.728C262.039 193.432 261.535 192.34 260.527 191.452C259.543 190.564 258.067 190.024 256.099 189.832L253.723 189.616C251.491 189.424 249.715 188.764 248.395 187.636C247.099 186.484 246.451 184.864 246.451 182.776C246.451 181.36 246.787 180.124 247.459 179.068C248.131 178.012 249.103 177.196 250.375 176.62C251.647 176.044 253.183 175.756 254.983 175.756C256.807 175.756 258.355 176.08 259.627 176.728C260.923 177.376 261.907 178.288 262.579 179.464C263.251 180.64 263.587 182.02 263.587 183.604H261.031C261.031 182.644 260.815 181.744 260.383 180.904C259.975 180.064 259.327 179.38 258.439 178.852C257.575 178.324 256.423 178.06 254.983 178.06C253.687 178.06 252.595 178.276 251.707 178.708C250.819 179.116 250.147 179.68 249.691 180.4C249.259 181.096 249.043 181.888 249.043 182.776C249.043 184 249.451 185.008 250.267 185.8C251.107 186.592 252.343 187.06 253.975 187.204L256.351 187.42C258.919 187.66 260.935 188.428 262.399 189.724C263.887 190.996 264.631 192.664 264.631 194.728C264.631 196.144 264.247 197.404 263.479 198.508C262.735 199.588 261.655 200.44 260.239 201.064C258.847 201.664 257.155 201.964 255.163 201.964ZM253.939 206.644V201.388H256.351V206.644H253.939ZM253.795 177.16V172.228H256.207V177.16H253.795ZM334.077 202.612C332.085 202.612 330.417 202.216 329.073 201.424C327.729 200.608 326.709 199.54 326.013 198.22C325.317 196.9 324.969 195.484 324.969 193.972H327.597C327.597 195.172 327.849 196.24 328.353 197.176C328.881 198.112 329.625 198.856 330.585 199.408C331.545 199.96 332.709 200.236 334.077 200.236C335.445 200.236 336.609 199.972 337.569 199.444C338.529 198.892 339.261 198.148 339.765 197.212C340.293 196.252 340.557 195.172 340.557 193.972C340.557 192.796 340.305 191.728 339.801 190.768C339.297 189.808 338.553 189.052 337.569 188.5C336.609 187.924 335.445 187.636 334.077 187.636C333.117 187.636 332.169 187.804 331.233 188.14C330.297 188.452 329.517 188.92 328.893 189.544H326.409L327.777 175.72H340.845V178.06H329.253L330.009 177.124L328.929 187.924L328.101 187.744C328.845 187 329.721 186.412 330.729 185.98C331.737 185.548 332.889 185.332 334.185 185.332C336.153 185.332 337.809 185.74 339.153 186.556C340.497 187.372 341.505 188.428 342.177 189.724C342.873 190.996 343.221 192.34 343.221 193.756V194.224C343.221 195.64 342.873 196.996 342.177 198.292C341.481 199.564 340.449 200.608 339.081 201.424C337.737 202.216 336.069 202.612 334.077 202.612ZM358.275 202.612C356.427 202.612 354.843 202.288 353.523 201.64C352.203 200.992 351.123 200.092 350.283 198.94C349.443 197.764 348.819 196.396 348.411 194.836C348.027 193.252 347.835 191.548 347.835 189.724V188.032C347.835 185.464 348.207 183.208 348.951 181.264C349.719 179.32 350.871 177.796 352.407 176.692C353.967 175.588 355.923 175.036 358.275 175.036C360.627 175.036 362.571 175.588 364.107 176.692C365.643 177.796 366.783 179.32 367.527 181.264C368.295 183.208 368.679 185.464 368.679 188.032V189.724C368.679 191.548 368.475 193.252 368.067 194.836C367.683 196.396 367.071 197.764 366.231 198.94C365.391 200.092 364.311 200.992 362.991 201.64C361.671 202.288 360.099 202.612 358.275 202.612ZM358.275 200.164C360.867 200.164 362.787 199.252 364.035 197.428C365.307 195.604 365.943 192.76 365.943 188.896C365.943 184.864 365.295 181.96 363.999 180.184C362.727 178.384 360.819 177.484 358.275 177.484C355.707 177.484 353.775 178.384 352.479 180.184C351.207 181.96 350.571 184.84 350.571 188.824C350.571 192.712 351.195 195.58 352.443 197.428C353.715 199.252 355.659 200.164 358.275 200.164ZM384.748 202.612C382.9 202.612 381.316 202.288 379.996 201.64C378.676 200.992 377.596 200.092 376.756 198.94C375.916 197.764 375.292 196.396 374.884 194.836C374.5 193.252 374.308 191.548 374.308 189.724V188.032C374.308 185.464 374.68 183.208 375.424 181.264C376.192 179.32 377.344 177.796 378.88 176.692C380.44 175.588 382.396 175.036 384.748 175.036C387.1 175.036 389.044 175.588 390.58 176.692C392.116 177.796 393.256 179.32 394 181.264C394.768 183.208 395.152 185.464 395.152 188.032V189.724C395.152 191.548 394.948 193.252 394.54 194.836C394.156 196.396 393.544 197.764 392.704 198.94C391.864 200.092 390.784 200.992 389.464 201.64C388.144 202.288 386.572 202.612 384.748 202.612ZM384.748 200.164C387.34 200.164 389.26 199.252 390.508 197.428C391.78 195.604 392.416 192.76 392.416 188.896C392.416 184.864 391.768 181.96 390.472 180.184C389.2 178.384 387.292 177.484 384.748 177.484C382.18 177.484 380.248 178.384 378.952 180.184C377.68 181.96 377.044 184.84 377.044 188.824C377.044 192.712 377.668 195.58 378.916 197.428C380.188 199.252 382.132 200.164 384.748 200.164ZM411.221 202.612C409.373 202.612 407.789 202.288 406.469 201.64C405.149 200.992 404.069 200.092 403.229 198.94C402.389 197.764 401.765 196.396 401.357 194.836C400.973 193.252 400.781 191.548 400.781 189.724V188.032C400.781 185.464 401.153 183.208 401.897 181.264C402.665 179.32 403.817 177.796 405.353 176.692C406.913 175.588 408.869 175.036 411.221 175.036C413.573 175.036 415.517 175.588 417.053 176.692C418.589 177.796 419.729 179.32 420.473 181.264C421.241 183.208 421.625 185.464 421.625 188.032V189.724C421.625 191.548 421.421 193.252 421.013 194.836C420.629 196.396 420.017 197.764 419.177 198.94C418.337 200.092 417.257 200.992 415.937 201.64C414.617 202.288 413.045 202.612 411.221 202.612ZM411.221 200.164C413.813 200.164 415.733 199.252 416.981 197.428C418.253 195.604 418.889 192.76 418.889 188.896C418.889 184.864 418.241 181.96 416.945 180.184C415.673 178.384 413.765 177.484 411.221 177.484C408.653 177.484 406.721 178.384 405.425 180.184C404.153 181.96 403.517 184.84 403.517 188.824C403.517 192.712 404.141 195.58 405.389 197.428C406.661 199.252 408.605 200.164 411.221 200.164ZM436.253 201.964C434.141 201.964 432.365 201.628 430.925 200.956C429.509 200.284 428.441 199.336 427.721 198.112C427.001 196.864 426.641 195.424 426.641 193.792H429.161C429.161 194.8 429.389 195.748 429.845 196.636C430.325 197.524 431.081 198.256 432.113 198.832C433.145 199.384 434.525 199.66 436.253 199.66C438.557 199.66 440.273 199.18 441.401 198.22C442.553 197.26 443.129 196.096 443.129 194.728C443.129 193.432 442.625 192.34 441.617 191.452C440.633 190.564 439.157 190.024 437.189 189.832L434.813 189.616C432.581 189.424 430.805 188.764 429.485 187.636C428.189 186.484 427.541 184.864 427.541 182.776C427.541 181.36 427.877 180.124 428.549 179.068C429.221 178.012 430.193 177.196 431.465 176.62C432.737 176.044 434.273 175.756 436.073 175.756C437.897 175.756 439.445 176.08 440.717 176.728C442.013 177.376 442.997 178.288 443.669 179.464C444.341 180.64 444.677 182.02 444.677 183.604H442.121C442.121 182.644 441.905 181.744 441.473 180.904C441.065 180.064 440.417 179.38 439.529 178.852C438.665 178.324 437.513 178.06 436.073 178.06C434.777 178.06 433.685 178.276 432.797 178.708C431.909 179.116 431.237 179.68 430.781 180.4C430.349 181.096 430.133 181.888 430.133 182.776C430.133 184 430.541 185.008 431.357 185.8C432.197 186.592 433.433 187.06 435.065 187.204L437.441 187.42C440.009 187.66 442.025 188.428 443.489 189.724C444.977 190.996 445.721 192.664 445.721 194.728C445.721 196.144 445.337 197.404 444.569 198.508C443.825 199.588 442.745 200.44 441.329 201.064C439.937 201.664 438.245 201.964 436.253 201.964ZM435.029 206.644V201.388H437.441V206.644H435.029ZM434.885 177.16V172.228H437.297V177.16H434.885Z" fill="url(#paint0_radial_1097_2882)"/>
<path d="M285.752 202.216C284.432 202.216 283.292 202.024 282.332 201.64C281.372 201.256 280.628 200.608 280.1 199.696C279.572 198.76 279.308 197.512 279.308 195.952V176.944H281.9V196.348C281.9 197.452 282.2 198.304 282.8 198.904C283.4 199.48 284.252 199.768 285.356 199.768H288.776V202.216H285.752ZM275.888 185.008V182.956H288.776V185.008H275.888ZM302.348 202.612C300.716 202.612 299.276 202.336 298.028 201.784C296.804 201.208 295.76 200.452 294.896 199.516C294.056 198.556 293.408 197.488 292.952 196.312C292.52 195.136 292.304 193.936 292.304 192.712V192.208C292.304 190.984 292.532 189.784 292.988 188.608C293.444 187.408 294.104 186.34 294.968 185.404C295.832 184.468 296.876 183.724 298.1 183.172C299.348 182.596 300.764 182.308 302.348 182.308C303.956 182.308 305.372 182.596 306.596 183.172C307.844 183.724 308.9 184.468 309.764 185.404C310.628 186.34 311.276 187.408 311.708 188.608C312.164 189.784 312.392 190.984 312.392 192.208V192.712C312.392 193.936 312.176 195.136 311.744 196.312C311.312 197.488 310.664 198.556 309.8 199.516C308.96 200.452 307.916 201.208 306.668 201.784C305.42 202.336 303.98 202.612 302.348 202.612ZM302.348 200.2C303.932 200.2 305.264 199.852 306.344 199.156C307.448 198.436 308.288 197.5 308.864 196.348C309.44 195.172 309.728 193.876 309.728 192.46C309.728 191.02 309.428 189.724 308.828 188.572C308.252 187.396 307.412 186.472 306.308 185.8C305.204 185.104 303.884 184.756 302.348 184.756C300.836 184.756 299.528 185.104 298.424 185.8C297.32 186.472 296.468 187.396 295.868 188.572C295.292 189.724 295.004 191.02 295.004 192.46C295.004 193.876 295.292 195.172 295.868 196.348C296.444 197.5 297.272 198.436 298.352 199.156C299.456 199.852 300.788 200.2 302.348 200.2Z" fill="#404040"/>
<path d="M152.136 100.544C150.173 100.544 148.52 100.235 147.176 99.616C145.832 98.976 144.808 98.1013 144.104 96.992C143.421 95.8613 143.08 94.592 143.08 93.184H145.512C145.512 94.08 145.725 94.9227 146.152 95.712C146.6 96.48 147.304 97.1093 148.264 97.6C149.245 98.0693 150.536 98.304 152.136 98.304C153.608 98.304 154.824 98.0907 155.784 97.664C156.765 97.2373 157.491 96.6613 157.96 95.936C158.451 95.2107 158.696 94.4 158.696 93.504C158.696 92.3733 158.248 91.4347 157.352 90.688C156.477 89.92 155.155 89.4613 153.384 89.312L150.696 89.056C148.691 88.8853 147.091 88.2667 145.896 87.2C144.723 86.112 144.136 84.6827 144.136 82.912C144.136 81.568 144.456 80.384 145.096 79.36C145.736 78.336 146.643 77.5253 147.816 76.928C149.011 76.3307 150.44 76.032 152.104 76.032C153.789 76.032 155.229 76.3413 156.424 76.96C157.64 77.5573 158.568 78.3893 159.208 79.456C159.848 80.5227 160.168 81.76 160.168 83.168H157.736C157.736 82.3147 157.544 81.5147 157.16 80.768C156.776 80.0213 156.168 79.424 155.336 78.976C154.504 78.5067 153.427 78.272 152.104 78.272C150.845 78.272 149.8 78.4853 148.968 78.912C148.157 79.3387 147.549 79.904 147.144 80.608C146.76 81.312 146.568 82.08 146.568 82.912C146.568 83.9573 146.941 84.8427 147.688 85.568C148.435 86.2933 149.512 86.7093 150.92 86.816L153.608 87.072C155.187 87.2 156.531 87.552 157.64 88.128C158.771 88.6827 159.635 89.4187 160.232 90.336C160.829 91.232 161.128 92.288 161.128 93.504C161.128 94.8693 160.755 96.0853 160.008 97.152C159.283 98.2187 158.248 99.0507 156.904 99.648C155.56 100.245 153.971 100.544 152.136 100.544ZM166.417 100V76.64H168.817V89.856L168.113 90.4C168.113 88.8213 168.337 87.4453 168.785 86.272C169.254 85.0987 169.947 84.192 170.865 83.552C171.803 82.8907 172.977 82.56 174.385 82.56H174.513C176.561 82.56 178.107 83.232 179.153 84.576C180.219 85.92 180.753 87.7867 180.753 90.176V100H178.385V89.664C178.385 88.1493 177.969 86.9547 177.137 86.08C176.305 85.2053 175.185 84.768 173.777 84.768C172.262 84.768 171.057 85.2587 170.161 86.24C169.265 87.2 168.817 88.4693 168.817 90.048V100H166.417ZM194.313 100.544C192.862 100.544 191.582 100.299 190.473 99.808C189.385 99.296 188.457 98.624 187.689 97.792C186.942 96.9387 186.366 95.9893 185.961 94.944C185.577 93.8987 185.385 92.832 185.385 91.744V91.296C185.385 90.208 185.588 89.1413 185.993 88.096C186.398 87.0293 186.985 86.08 187.753 85.248C188.521 84.416 189.449 83.7547 190.537 83.264C191.646 82.752 192.905 82.496 194.313 82.496C195.742 82.496 197.001 82.752 198.089 83.264C199.198 83.7547 200.137 84.416 200.905 85.248C201.673 86.08 202.249 87.0293 202.633 88.096C203.038 89.1413 203.241 90.208 203.241 91.296V91.744C203.241 92.832 203.049 93.8987 202.665 94.944C202.281 95.9893 201.705 96.9387 200.937 97.792C200.19 98.624 199.262 99.296 198.153 99.808C197.044 100.299 195.764 100.544 194.313 100.544ZM194.313 98.4C195.721 98.4 196.905 98.0907 197.865 97.472C198.846 96.832 199.593 96 200.105 94.976C200.617 93.9307 200.873 92.7787 200.873 91.52C200.873 90.24 200.606 89.088 200.073 88.064C199.561 87.0187 198.814 86.1973 197.833 85.6C196.852 84.9813 195.678 84.672 194.313 84.672C192.969 84.672 191.806 84.9813 190.825 85.6C189.844 86.1973 189.086 87.0187 188.553 88.064C188.041 89.088 187.785 90.24 187.785 91.52C187.785 92.7787 188.041 93.9307 188.553 94.976C189.065 96 189.801 96.832 190.761 97.472C191.742 98.0907 192.926 98.4 194.313 98.4ZM208.135 106.4V83.072H210.055V90.336L209.479 90.4C209.565 88.6933 209.927 87.2533 210.567 86.08C211.229 84.9067 212.114 84.0213 213.223 83.424C214.354 82.8053 215.613 82.496 216.999 82.496C218.237 82.496 219.357 82.7413 220.359 83.232C221.383 83.7013 222.247 84.352 222.951 85.184C223.677 85.9947 224.221 86.9333 224.583 88C224.967 89.0453 225.159 90.144 225.159 91.296V91.744C225.159 92.896 224.967 94.0053 224.583 95.072C224.199 96.1173 223.645 97.056 222.919 97.888C222.215 98.6987 221.351 99.3493 220.327 99.84C219.325 100.309 218.194 100.544 216.935 100.544C215.591 100.544 214.354 100.245 213.223 99.648C212.114 99.0293 211.207 98.1227 210.503 96.928C209.821 95.7333 209.447 94.2613 209.383 92.512L210.535 94.912V106.4H208.135ZM216.615 98.432C217.895 98.432 218.994 98.1333 219.911 97.536C220.829 96.9173 221.533 96.0853 222.023 95.04C222.514 93.9733 222.759 92.8 222.759 91.52C222.759 90.1973 222.503 89.024 221.991 88C221.501 86.9547 220.797 86.1333 219.879 85.536C218.962 84.9173 217.874 84.608 216.615 84.608C215.463 84.608 214.418 84.864 213.479 85.376C212.541 85.888 211.794 86.6133 211.239 87.552C210.706 88.4693 210.439 89.5573 210.439 90.816V92.384C210.439 93.5787 210.706 94.6347 211.239 95.552C211.794 96.448 212.541 97.152 213.479 97.664C214.418 98.176 215.463 98.432 216.615 98.432ZM230.906 100V83.072H233.274V100H230.906ZM228.186 84.992V83.072H233.274V84.992H228.186ZM231.418 79.936C230.842 79.936 230.405 79.7867 230.106 79.488C229.829 79.168 229.69 78.7733 229.69 78.304C229.69 77.8347 229.829 77.4507 230.106 77.152C230.405 76.832 230.842 76.672 231.418 76.672C231.994 76.672 232.421 76.832 232.698 77.152C232.976 77.4507 233.114 77.8347 233.114 78.304C233.114 78.7733 232.976 79.168 232.698 79.488C232.421 79.7867 231.994 79.936 231.418 79.936ZM240.053 100V81.76C240.053 79.9893 240.511 78.6773 241.429 77.824C242.346 76.9707 243.722 76.544 245.557 76.544H247.701V78.592H245.109C244.213 78.592 243.53 78.8267 243.061 79.296C242.591 79.7653 242.357 80.4267 242.357 81.28V100H240.053ZM237.589 85.056V83.2H248.053V85.056H237.589ZM250.538 106.592V104.448H252.714C253.46 104.448 254.1 104.352 254.634 104.16C255.167 103.989 255.615 103.68 255.978 103.232C256.34 102.784 256.65 102.165 256.906 101.376L262.602 83.072H264.938L258.986 102.048C258.644 103.136 258.175 104.011 257.578 104.672C256.98 105.355 256.266 105.845 255.434 106.144C254.602 106.443 253.652 106.592 252.586 106.592H250.538ZM256.042 99.584V97.568H259.082V99.584H256.042ZM255.754 99.584L249.61 83.072H252.074L257.994 99.584H255.754Z" fill="#404040"/>
<path d="M281.02 100L274.556 76.64H277.052L282.908 98.432L281.788 97.792H284.892L283.676 98.432L288.444 77.664H290.748L285.5 100H281.02ZM295.068 100L289.308 77.664H291.676L296.988 98.432L295.804 97.792H298.972L297.756 98.432L303.036 76.64H305.468L299.548 100H295.068ZM316.02 100.544C314.569 100.544 313.31 100.299 312.244 99.808C311.177 99.296 310.302 98.624 309.62 97.792C308.937 96.9387 308.425 95.9893 308.084 94.944C307.764 93.8987 307.604 92.8213 307.604 91.712V91.264C307.604 90.176 307.764 89.1093 308.084 88.064C308.425 87.0187 308.937 86.08 309.62 85.248C310.302 84.416 311.156 83.7547 312.18 83.264C313.225 82.752 314.441 82.496 315.828 82.496C317.598 82.496 319.07 82.8907 320.244 83.68C321.438 84.4693 322.334 85.4827 322.932 86.72C323.529 87.936 323.828 89.248 323.828 90.656V91.904H308.692V90.048H322.164L321.556 90.976C321.556 89.7173 321.332 88.6187 320.884 87.68C320.457 86.72 319.817 85.9733 318.964 85.44C318.132 84.8853 317.086 84.608 315.828 84.608C314.505 84.608 313.406 84.9173 312.532 85.536C311.657 86.1547 310.996 86.976 310.548 88C310.121 89.024 309.908 90.1867 309.908 91.488C309.908 92.768 310.121 93.9413 310.548 95.008C310.996 96.0533 311.668 96.8853 312.564 97.504C313.481 98.1227 314.633 98.432 316.02 98.432C317.492 98.432 318.686 98.1013 319.604 97.44C320.521 96.7573 321.086 95.9573 321.3 95.04H323.54C323.326 96.1707 322.878 97.152 322.196 97.984C321.513 98.7947 320.649 99.424 319.604 99.872C318.558 100.32 317.364 100.544 316.02 100.544ZM337.184 100.544C335.69 100.544 334.378 100.213 333.248 99.552C332.138 98.8907 331.264 97.9627 330.624 96.768C330.005 95.5733 329.674 94.1973 329.632 92.64H330.368V100H328.448V76.64H330.848V88.32L329.92 90.464C329.962 88.7573 330.304 87.3173 330.944 86.144C331.605 84.9493 332.48 84.0427 333.568 83.424C334.677 82.8053 335.936 82.496 337.344 82.496C338.581 82.496 339.701 82.7307 340.704 83.2C341.706 83.6693 342.56 84.3093 343.264 85.12C343.989 85.9307 344.533 86.8693 344.896 87.936C345.28 88.9813 345.472 90.0907 345.472 91.264V91.712C345.472 92.864 345.28 93.9733 344.896 95.04C344.512 96.0853 343.957 97.024 343.232 97.856C342.528 98.688 341.664 99.3493 340.64 99.84C339.616 100.309 338.464 100.544 337.184 100.544ZM336.928 98.432C338.208 98.432 339.306 98.1227 340.224 97.504C341.141 96.8853 341.845 96.0533 342.336 95.008C342.826 93.9627 343.072 92.7893 343.072 91.488C343.072 90.1653 342.816 88.992 342.304 87.968C341.813 86.9227 341.098 86.1013 340.16 85.504C339.242 84.9067 338.165 84.608 336.928 84.608C335.776 84.608 334.73 84.864 333.792 85.376C332.853 85.888 332.106 86.6133 331.552 87.552C331.018 88.4693 330.752 89.5573 330.752 90.816V92.384C330.752 93.5787 331.018 94.6347 331.552 95.552C332.106 96.448 332.853 97.152 333.792 97.664C334.73 98.176 335.776 98.432 336.928 98.432ZM355.667 100.48C353.491 100.48 351.816 100.011 350.643 99.072C349.469 98.112 348.872 96.832 348.851 95.232H351.091C351.133 96.0427 351.496 96.7787 352.179 97.44C352.883 98.1013 354.045 98.432 355.667 98.432C357.181 98.432 358.312 98.1227 359.059 97.504C359.827 96.864 360.211 96.096 360.211 95.2C360.211 94.368 359.891 93.728 359.251 93.28C358.632 92.8107 357.725 92.512 356.531 92.384L354.611 92.192C353.075 92.0213 351.827 91.552 350.867 90.784C349.928 89.9947 349.459 88.9173 349.459 87.552C349.459 86.5493 349.715 85.6747 350.227 84.928C350.739 84.1813 351.453 83.6053 352.371 83.2C353.309 82.7733 354.408 82.56 355.667 82.56C357.48 82.56 358.952 82.9867 360.083 83.84C361.235 84.6933 361.821 85.9093 361.843 87.488H359.603C359.581 86.6773 359.24 85.9947 358.579 85.44C357.917 84.8853 356.947 84.608 355.667 84.608C354.344 84.608 353.352 84.896 352.691 85.472C352.051 86.048 351.731 86.752 351.731 87.584C351.731 88.288 351.976 88.8747 352.467 89.344C352.957 89.792 353.725 90.0693 354.771 90.176L356.691 90.368C358.397 90.56 359.784 91.0507 360.851 91.84C361.939 92.6293 362.483 93.76 362.483 95.232C362.483 96.2347 362.195 97.1413 361.619 97.952C361.064 98.7413 360.275 99.36 359.251 99.808C358.227 100.256 357.032 100.48 355.667 100.48ZM368.156 100V83.072H370.524V100H368.156ZM365.436 84.992V83.072H370.524V84.992H365.436ZM368.668 79.936C368.092 79.936 367.655 79.7867 367.356 79.488C367.079 79.168 366.94 78.7733 366.94 78.304C366.94 77.8347 367.079 77.4507 367.356 77.152C367.655 76.832 368.092 76.672 368.668 76.672C369.244 76.672 369.671 76.832 369.948 77.152C370.226 77.4507 370.364 77.8347 370.364 78.304C370.364 78.7733 370.226 79.168 369.948 79.488C369.671 79.7867 369.244 79.936 368.668 79.936ZM382.967 100.192C381.793 100.192 380.78 100.021 379.927 99.68C379.073 99.3387 378.412 98.7627 377.943 97.952C377.473 97.12 377.239 96.0107 377.239 94.624V77.728H379.543V94.976C379.543 95.9573 379.809 96.7147 380.343 97.248C380.876 97.76 381.633 98.016 382.615 98.016H385.655V100.192H382.967ZM374.199 84.896V83.072H385.655V84.896H374.199ZM397.207 100.544C395.757 100.544 394.498 100.299 393.431 99.808C392.365 99.296 391.49 98.624 390.807 97.792C390.125 96.9387 389.613 95.9893 389.271 94.944C388.951 93.8987 388.791 92.8213 388.791 91.712V91.264C388.791 90.176 388.951 89.1093 389.271 88.064C389.613 87.0187 390.125 86.08 390.807 85.248C391.49 84.416 392.343 83.7547 393.367 83.264C394.413 82.752 395.629 82.496 397.015 82.496C398.786 82.496 400.258 82.8907 401.431 83.68C402.626 84.4693 403.522 85.4827 404.119 86.72C404.717 87.936 405.015 89.248 405.015 90.656V91.904H389.879V90.048H403.351L402.743 90.976C402.743 89.7173 402.519 88.6187 402.071 87.68C401.645 86.72 401.005 85.9733 400.151 85.44C399.319 84.8853 398.274 84.608 397.015 84.608C395.693 84.608 394.594 84.9173 393.719 85.536C392.845 86.1547 392.183 86.976 391.735 88C391.309 89.024 391.095 90.1867 391.095 91.488C391.095 92.768 391.309 93.9413 391.735 95.008C392.183 96.0533 392.855 96.8853 393.751 97.504C394.669 98.1227 395.821 98.432 397.207 98.432C398.679 98.432 399.874 98.1013 400.791 97.44C401.709 96.7573 402.274 95.9573 402.487 95.04H404.727C404.514 96.1707 404.066 97.152 403.383 97.984C402.701 98.7947 401.837 99.424 400.791 99.872C399.746 100.32 398.551 100.544 397.207 100.544Z" fill="url(#paint1_radial_1097_2882)"/>
<rect x="631" width="588" height="279" rx="10" fill="#ECECEC"/>
<rect x="632" y="1" width="586" height="277" rx="9" stroke="#717171" stroke-opacity="0.5" stroke-width="2"/>
<path d="M750.491 88.544C748.4 88.544 746.608 88.1813 745.115 87.456C743.643 86.7093 742.437 85.7387 741.499 84.544C740.581 83.3493 739.909 82.0587 739.483 80.672C739.056 79.264 738.843 77.8987 738.843 76.576V75.968C738.843 74.5387 739.056 73.12 739.483 71.712C739.931 70.2827 740.613 68.992 741.531 67.84C742.469 66.688 743.664 65.7707 745.115 65.088C746.565 64.384 748.283 64.032 750.267 64.032C752.272 64.032 754 64.384 755.451 65.088C756.923 65.792 758.096 66.784 758.971 68.064C759.845 69.3227 760.379 70.816 760.571 72.544H758.107C757.936 71.1573 757.488 70.0053 756.763 69.088C756.037 68.1493 755.109 67.4453 753.979 66.976C752.869 66.5067 751.632 66.272 750.267 66.272C748.795 66.272 747.493 66.5387 746.363 67.072C745.253 67.584 744.325 68.3093 743.579 69.248C742.832 70.1653 742.267 71.232 741.883 72.448C741.499 73.6427 741.307 74.9227 741.307 76.288C741.307 77.5893 741.488 78.8373 741.851 80.032C742.235 81.2267 742.811 82.304 743.579 83.264C744.347 84.2027 745.307 84.9493 746.459 85.504C747.611 86.0373 748.955 86.304 750.491 86.304C752.624 86.304 754.416 85.7707 755.867 84.704C757.317 83.616 758.213 82.0587 758.555 80.032H761.019C760.784 81.632 760.229 83.0827 759.355 84.384C758.48 85.664 757.296 86.6773 755.803 87.424C754.331 88.1707 752.56 88.544 750.491 88.544ZM771.257 88.48C769.23 88.48 767.684 87.8293 766.617 86.528C765.55 85.2053 765.017 83.3707 765.017 81.024V71.04H767.385V81.504C767.385 82.976 767.769 84.1493 768.537 85.024C769.326 85.8773 770.414 86.304 771.801 86.304C773.252 86.304 774.404 85.8453 775.257 84.928C776.132 84.0107 776.569 82.784 776.569 81.248V71.04H778.969V88H777.049V80.928H777.433C777.433 82.5067 777.209 83.8613 776.761 84.992C776.313 86.1013 775.641 86.9653 774.745 87.584C773.849 88.1813 772.718 88.48 771.353 88.48H771.257ZM790.589 88.48C788.413 88.48 786.738 88.0107 785.565 87.072C784.391 86.112 783.794 84.832 783.773 83.232H786.013C786.055 84.0427 786.418 84.7787 787.101 85.44C787.805 86.1013 788.967 86.432 790.589 86.432C792.103 86.432 793.234 86.1227 793.981 85.504C794.749 84.864 795.133 84.096 795.133 83.2C795.133 82.368 794.813 81.728 794.173 81.28C793.554 80.8107 792.647 80.512 791.453 80.384L789.533 80.192C787.997 80.0213 786.749 79.552 785.789 78.784C784.85 77.9947 784.381 76.9173 784.381 75.552C784.381 74.5493 784.637 73.6747 785.149 72.928C785.661 72.1813 786.375 71.6053 787.293 71.2C788.231 70.7733 789.33 70.56 790.589 70.56C792.402 70.56 793.874 70.9867 795.005 71.84C796.157 72.6933 796.743 73.9093 796.765 75.488H794.525C794.503 74.6773 794.162 73.9947 793.501 73.44C792.839 72.8853 791.869 72.608 790.589 72.608C789.266 72.608 788.274 72.896 787.613 73.472C786.973 74.048 786.653 74.752 786.653 75.584C786.653 76.288 786.898 76.8747 787.389 77.344C787.879 77.792 788.647 78.0693 789.693 78.176L791.613 78.368C793.319 78.56 794.706 79.0507 795.773 79.84C796.861 80.6293 797.405 81.76 797.405 83.232C797.405 84.2347 797.117 85.1413 796.541 85.952C795.986 86.7413 795.197 87.36 794.173 87.808C793.149 88.256 791.954 88.48 790.589 88.48ZM808.326 88.192C807.153 88.192 806.139 88.0213 805.286 87.68C804.433 87.3387 803.771 86.7627 803.302 85.952C802.833 85.12 802.598 84.0107 802.598 82.624V65.728H804.902V82.976C804.902 83.9573 805.169 84.7147 805.702 85.248C806.235 85.76 806.993 86.016 807.974 86.016H811.014V88.192H808.326ZM799.558 72.896V71.072H811.014V72.896H799.558ZM823.079 88.544C821.628 88.544 820.348 88.2987 819.239 87.808C818.151 87.296 817.223 86.624 816.455 85.792C815.708 84.9387 815.132 83.9893 814.727 82.944C814.343 81.8987 814.151 80.832 814.151 79.744V79.296C814.151 78.208 814.353 77.1413 814.759 76.096C815.164 75.0293 815.751 74.08 816.519 73.248C817.287 72.416 818.215 71.7547 819.303 71.264C820.412 70.752 821.671 70.496 823.079 70.496C824.508 70.496 825.767 70.752 826.855 71.264C827.964 71.7547 828.903 72.416 829.671 73.248C830.439 74.08 831.015 75.0293 831.399 76.096C831.804 77.1413 832.007 78.208 832.007 79.296V79.744C832.007 80.832 831.815 81.8987 831.431 82.944C831.047 83.9893 830.471 84.9387 829.703 85.792C828.956 86.624 828.028 87.296 826.919 87.808C825.809 88.2987 824.529 88.544 823.079 88.544ZM823.079 86.4C824.487 86.4 825.671 86.0907 826.631 85.472C827.612 84.832 828.359 84 828.871 82.976C829.383 81.9307 829.639 80.7787 829.639 79.52C829.639 78.24 829.372 77.088 828.839 76.064C828.327 75.0187 827.58 74.1973 826.599 73.6C825.617 72.9813 824.444 72.672 823.079 72.672C821.735 72.672 820.572 72.9813 819.591 73.6C818.609 74.1973 817.852 75.0187 817.319 76.064C816.807 77.088 816.551 78.24 816.551 79.52C816.551 80.7787 816.807 81.9307 817.319 82.976C817.831 84 818.567 84.832 819.527 85.472C820.508 86.0907 821.692 86.4 823.079 86.4ZM836.901 88V71.04H838.821V78.176H838.437C838.437 76.6187 838.65 75.2747 839.077 74.144C839.525 73.0133 840.186 72.1387 841.061 71.52C841.936 70.88 843.045 70.56 844.389 70.56H844.485C845.829 70.56 846.938 70.8693 847.813 71.488C848.688 72.1067 849.338 72.9813 849.765 74.112C850.192 75.2427 850.405 76.5973 850.405 78.176H849.637C849.637 76.6187 849.85 75.2747 850.277 74.144C850.725 73.0133 851.386 72.1387 852.261 71.52C853.157 70.88 854.277 70.56 855.621 70.56H855.717C857.061 70.56 858.17 70.8693 859.045 71.488C859.941 72.1067 860.602 72.9813 861.029 74.112C861.477 75.2427 861.701 76.5973 861.701 78.176V88H859.301V77.632C859.301 76.1387 858.938 74.9547 858.213 74.08C857.488 73.2053 856.442 72.768 855.077 72.768C853.669 72.768 852.549 73.2267 851.717 74.144C850.906 75.04 850.501 76.256 850.501 77.792V88H848.101V77.632C848.101 76.1387 847.738 74.9547 847.013 74.08C846.288 73.2053 845.242 72.768 843.877 72.768C842.469 72.768 841.349 73.2267 840.517 74.144C839.706 75.04 839.301 76.256 839.301 77.792V88H836.901ZM875.695 88V64.64H878.127V88H875.695ZM877.551 88V85.792H889.231V88H877.551ZM877.551 77.216V75.04H888.143V77.216H877.551ZM877.551 66.848V64.64H888.879V66.848H877.551ZM893.197 80.128V78.08H904.429V80.128H893.197ZM917.068 88.544C915.639 88.544 914.391 88.2987 913.324 87.808C912.279 87.296 911.404 86.6133 910.7 85.76C909.996 84.8853 909.463 83.9253 909.1 82.88C908.759 81.8347 908.588 80.7787 908.588 79.712V79.264C908.588 78.176 908.759 77.12 909.1 76.096C909.463 75.0507 909.996 74.112 910.7 73.28C911.404 72.4267 912.279 71.7547 913.324 71.264C914.391 70.752 915.617 70.496 917.004 70.496C918.412 70.496 919.66 70.752 920.748 71.264C921.857 71.776 922.753 72.5013 923.436 73.44C924.119 74.3787 924.524 75.488 924.652 76.768H922.348C922.156 75.5947 921.601 74.624 920.684 73.856C919.788 73.0667 918.561 72.672 917.004 72.672C915.66 72.672 914.54 72.9813 913.644 73.6C912.769 74.1973 912.108 75.0187 911.66 76.064C911.212 77.088 910.988 78.2293 910.988 79.488C910.988 80.7253 911.212 81.8773 911.66 82.944C912.108 83.9893 912.78 84.832 913.676 85.472C914.572 86.0907 915.703 86.4 917.068 86.4C918.113 86.4 919.02 86.2187 919.788 85.856C920.577 85.472 921.207 84.96 921.676 84.32C922.167 83.68 922.455 82.976 922.54 82.208H924.844C924.759 83.488 924.353 84.608 923.628 85.568C922.924 86.5067 922.007 87.2427 920.876 87.776C919.745 88.288 918.476 88.544 917.068 88.544ZM936.829 88.544C935.378 88.544 934.098 88.2987 932.989 87.808C931.901 87.296 930.973 86.624 930.205 85.792C929.458 84.9387 928.882 83.9893 928.477 82.944C928.093 81.8987 927.901 80.832 927.901 79.744V79.296C927.901 78.208 928.103 77.1413 928.509 76.096C928.914 75.0293 929.501 74.08 930.269 73.248C931.037 72.416 931.965 71.7547 933.053 71.264C934.162 70.752 935.421 70.496 936.829 70.496C938.258 70.496 939.517 70.752 940.605 71.264C941.714 71.7547 942.653 72.416 943.421 73.248C944.189 74.08 944.765 75.0293 945.149 76.096C945.554 77.1413 945.757 78.208 945.757 79.296V79.744C945.757 80.832 945.565 81.8987 945.181 82.944C944.797 83.9893 944.221 84.9387 943.453 85.792C942.706 86.624 941.778 87.296 940.669 87.808C939.559 88.2987 938.279 88.544 936.829 88.544ZM936.829 86.4C938.237 86.4 939.421 86.0907 940.381 85.472C941.362 84.832 942.109 84 942.621 82.976C943.133 81.9307 943.389 80.7787 943.389 79.52C943.389 78.24 943.122 77.088 942.589 76.064C942.077 75.0187 941.33 74.1973 940.349 73.6C939.367 72.9813 938.194 72.672 936.829 72.672C935.485 72.672 934.322 72.9813 933.341 73.6C932.359 74.1973 931.602 75.0187 931.069 76.064C930.557 77.088 930.301 78.24 930.301 79.52C930.301 80.7787 930.557 81.9307 931.069 82.976C931.581 84 932.317 84.832 933.277 85.472C934.258 86.0907 935.442 86.4 936.829 86.4ZM950.651 88V71.04H952.571V78.176H952.187C952.187 76.6187 952.4 75.2747 952.827 74.144C953.275 73.0133 953.936 72.1387 954.811 71.52C955.686 70.88 956.795 70.56 958.139 70.56H958.235C959.579 70.56 960.688 70.8693 961.563 71.488C962.438 72.1067 963.088 72.9813 963.515 74.112C963.942 75.2427 964.155 76.5973 964.155 78.176H963.387C963.387 76.6187 963.6 75.2747 964.027 74.144C964.475 73.0133 965.136 72.1387 966.011 71.52C966.907 70.88 968.027 70.56 969.371 70.56H969.467C970.811 70.56 971.92 70.8693 972.795 71.488C973.691 72.1067 974.352 72.9813 974.779 74.112C975.227 75.2427 975.451 76.5973 975.451 78.176V88H973.051V77.632C973.051 76.1387 972.688 74.9547 971.963 74.08C971.238 73.2053 970.192 72.768 968.827 72.768C967.419 72.768 966.299 73.2267 965.467 74.144C964.656 75.04 964.251 76.256 964.251 77.792V88H961.851V77.632C961.851 76.1387 961.488 74.9547 960.763 74.08C960.038 73.2053 958.992 72.768 957.627 72.768C956.219 72.768 955.099 73.2267 954.267 74.144C953.456 75.04 953.051 76.256 953.051 77.792V88H950.651ZM981.432 88V71.04H983.352V78.176H982.968C982.968 76.6187 983.181 75.2747 983.608 74.144C984.056 73.0133 984.717 72.1387 985.592 71.52C986.467 70.88 987.576 70.56 988.92 70.56H989.016C990.36 70.56 991.469 70.8693 992.344 71.488C993.219 72.1067 993.869 72.9813 994.296 74.112C994.723 75.2427 994.936 76.5973 994.936 78.176H994.168C994.168 76.6187 994.381 75.2747 994.808 74.144C995.256 73.0133 995.917 72.1387 996.792 71.52C997.688 70.88 998.808 70.56 1000.15 70.56H1000.25C1001.59 70.56 1002.7 70.8693 1003.58 71.488C1004.47 72.1067 1005.13 72.9813 1005.56 74.112C1006.01 75.2427 1006.23 76.5973 1006.23 78.176V88H1003.83V77.632C1003.83 76.1387 1003.47 74.9547 1002.74 74.08C1002.02 73.2053 1000.97 72.768 999.608 72.768C998.2 72.768 997.08 73.2267 996.248 74.144C995.437 75.04 995.032 76.256 995.032 77.792V88H992.632V77.632C992.632 76.1387 992.269 74.9547 991.544 74.08C990.819 73.2053 989.773 72.768 988.408 72.768C987 72.768 985.88 73.2267 985.048 74.144C984.237 75.04 983.832 76.256 983.832 77.792V88H981.432ZM1019.29 88.544C1017.83 88.544 1016.58 88.2987 1015.51 87.808C1014.44 87.296 1013.57 86.624 1012.89 85.792C1012.2 84.9387 1011.69 83.9893 1011.35 82.944C1011.03 81.8987 1010.87 80.8213 1010.87 79.712V79.264C1010.87 78.176 1011.03 77.1093 1011.35 76.064C1011.69 75.0187 1012.2 74.08 1012.89 73.248C1013.57 72.416 1014.42 71.7547 1015.45 71.264C1016.49 70.752 1017.71 70.496 1019.09 70.496C1020.86 70.496 1022.34 70.8907 1023.51 71.68C1024.7 72.4693 1025.6 73.4827 1026.2 74.72C1026.79 75.936 1027.09 77.248 1027.09 78.656V79.904H1011.96V78.048H1025.43L1024.82 78.976C1024.82 77.7173 1024.6 76.6187 1024.15 75.68C1023.72 74.72 1023.08 73.9733 1022.23 73.44C1021.4 72.8853 1020.35 72.608 1019.09 72.608C1017.77 72.608 1016.67 72.9173 1015.8 73.536C1014.92 74.1547 1014.26 74.976 1013.81 76C1013.39 77.024 1013.17 78.1867 1013.17 79.488C1013.17 80.768 1013.39 81.9413 1013.81 83.008C1014.26 84.0533 1014.93 84.8853 1015.83 85.504C1016.75 86.1227 1017.9 86.432 1019.29 86.432C1020.76 86.432 1021.95 86.1013 1022.87 85.44C1023.79 84.7573 1024.35 83.9573 1024.57 83.04H1026.81C1026.59 84.1707 1026.14 85.152 1025.46 85.984C1024.78 86.7947 1023.91 87.424 1022.87 87.872C1021.82 88.32 1020.63 88.544 1019.29 88.544ZM1031.71 88V71.072H1033.63V78.144H1033.44C1033.44 75.6693 1033.99 73.8453 1035.07 72.672C1036.16 71.4773 1037.87 70.88 1040.19 70.88H1040.74V73.056H1039.75C1037.91 73.056 1036.51 73.536 1035.55 74.496C1034.59 75.4347 1034.11 76.8213 1034.11 78.656V88H1031.71ZM1051.54 88.544C1050.11 88.544 1048.86 88.2987 1047.79 87.808C1046.75 87.296 1045.87 86.6133 1045.17 85.76C1044.46 84.8853 1043.93 83.9253 1043.57 82.88C1043.23 81.8347 1043.06 80.7787 1043.06 79.712V79.264C1043.06 78.176 1043.23 77.12 1043.57 76.096C1043.93 75.0507 1044.46 74.112 1045.17 73.28C1045.87 72.4267 1046.75 71.7547 1047.79 71.264C1048.86 70.752 1050.09 70.496 1051.47 70.496C1052.88 70.496 1054.13 70.752 1055.22 71.264C1056.33 71.776 1057.22 72.5013 1057.9 73.44C1058.59 74.3787 1058.99 75.488 1059.12 76.768H1056.82C1056.62 75.5947 1056.07 74.624 1055.15 73.856C1054.26 73.0667 1053.03 72.672 1051.47 72.672C1050.13 72.672 1049.01 72.9813 1048.11 73.6C1047.24 74.1973 1046.58 75.0187 1046.13 76.064C1045.68 77.088 1045.46 78.2293 1045.46 79.488C1045.46 80.7253 1045.68 81.8773 1046.13 82.944C1046.58 83.9893 1047.25 84.832 1048.14 85.472C1049.04 86.0907 1050.17 86.4 1051.54 86.4C1052.58 86.4 1053.49 86.2187 1054.26 85.856C1055.05 85.472 1055.68 84.96 1056.14 84.32C1056.64 83.68 1056.92 82.976 1057.01 82.208H1059.31C1059.23 83.488 1058.82 84.608 1058.1 85.568C1057.39 86.5067 1056.48 87.2427 1055.34 87.776C1054.21 88.288 1052.94 88.544 1051.54 88.544ZM1070.79 88.544C1069.33 88.544 1068.08 88.2987 1067.01 87.808C1065.94 87.296 1065.07 86.624 1064.39 85.792C1063.7 84.9387 1063.19 83.9893 1062.85 82.944C1062.53 81.8987 1062.37 80.8213 1062.37 79.712V79.264C1062.37 78.176 1062.53 77.1093 1062.85 76.064C1063.19 75.0187 1063.7 74.08 1064.39 73.248C1065.07 72.416 1065.92 71.7547 1066.95 71.264C1067.99 70.752 1069.21 70.496 1070.59 70.496C1072.36 70.496 1073.84 70.8907 1075.01 71.68C1076.2 72.4693 1077.1 73.4827 1077.7 74.72C1078.29 75.936 1078.59 77.248 1078.59 78.656V79.904H1063.46V78.048H1076.93L1076.32 78.976C1076.32 77.7173 1076.1 76.6187 1075.65 75.68C1075.22 74.72 1074.58 73.9733 1073.73 73.44C1072.9 72.8853 1071.85 72.608 1070.59 72.608C1069.27 72.608 1068.17 72.9173 1067.3 73.536C1066.42 74.1547 1065.76 74.976 1065.31 76C1064.89 77.024 1064.67 78.1867 1064.67 79.488C1064.67 80.768 1064.89 81.9413 1065.31 83.008C1065.76 84.0533 1066.43 84.8853 1067.33 85.504C1068.25 86.1227 1069.4 86.432 1070.79 86.432C1072.26 86.432 1073.45 86.1013 1074.37 85.44C1075.29 84.7573 1075.85 83.9573 1076.07 83.04H1078.31C1078.09 84.1707 1077.64 85.152 1076.96 85.984C1076.28 86.7947 1075.41 87.424 1074.37 87.872C1073.32 88.32 1072.13 88.544 1070.79 88.544Z" fill="#404040"/>
<path d="M849.504 133L843.04 109.64H845.536L851.392 131.432L850.272 130.792H853.376L852.16 131.432L856.928 110.664H859.232L853.984 133H849.504ZM863.552 133L857.792 110.664H860.16L865.472 131.432L864.288 130.792H867.456L866.24 131.432L871.52 109.64H873.952L868.032 133H863.552ZM884.504 133.544C883.053 133.544 881.795 133.299 880.728 132.808C879.661 132.296 878.787 131.624 878.104 130.792C877.421 129.939 876.909 128.989 876.568 127.944C876.248 126.899 876.088 125.821 876.088 124.712V124.264C876.088 123.176 876.248 122.109 876.568 121.064C876.909 120.019 877.421 119.08 878.104 118.248C878.787 117.416 879.64 116.755 880.664 116.264C881.709 115.752 882.925 115.496 884.312 115.496C886.083 115.496 887.555 115.891 888.728 116.68C889.923 117.469 890.819 118.483 891.416 119.72C892.013 120.936 892.312 122.248 892.312 123.656V124.904H877.176V123.048H890.648L890.04 123.976C890.04 122.717 889.816 121.619 889.368 120.68C888.941 119.72 888.301 118.973 887.448 118.44C886.616 117.885 885.571 117.608 884.312 117.608C882.989 117.608 881.891 117.917 881.016 118.536C880.141 119.155 879.48 119.976 879.032 121C878.605 122.024 878.392 123.187 878.392 124.488C878.392 125.768 878.605 126.941 879.032 128.008C879.48 129.053 880.152 129.885 881.048 130.504C881.965 131.123 883.117 131.432 884.504 131.432C885.976 131.432 887.171 131.101 888.088 130.44C889.005 129.757 889.571 128.957 889.784 128.04H892.024C891.811 129.171 891.363 130.152 890.68 130.984C889.997 131.795 889.133 132.424 888.088 132.872C887.043 133.32 885.848 133.544 884.504 133.544ZM905.668 133.544C904.175 133.544 902.863 133.213 901.732 132.552C900.623 131.891 899.748 130.963 899.108 129.768C898.489 128.573 898.159 127.197 898.116 125.64H898.852V133H896.932V109.64H899.332V121.32L898.404 123.464C898.447 121.757 898.788 120.317 899.428 119.144C900.089 117.949 900.964 117.043 902.052 116.424C903.161 115.805 904.42 115.496 905.828 115.496C907.065 115.496 908.185 115.731 909.188 116.2C910.191 116.669 911.044 117.309 911.748 118.12C912.473 118.931 913.017 119.869 913.38 120.936C913.764 121.981 913.956 123.091 913.956 124.264V124.712C913.956 125.864 913.764 126.973 913.38 128.04C912.996 129.085 912.441 130.024 911.716 130.856C911.012 131.688 910.148 132.349 909.124 132.84C908.1 133.309 906.948 133.544 905.668 133.544ZM905.412 131.432C906.692 131.432 907.791 131.123 908.708 130.504C909.625 129.885 910.329 129.053 910.82 128.008C911.311 126.963 911.556 125.789 911.556 124.488C911.556 123.165 911.3 121.992 910.788 120.968C910.297 119.923 909.583 119.101 908.644 118.504C907.727 117.907 906.649 117.608 905.412 117.608C904.26 117.608 903.215 117.864 902.276 118.376C901.337 118.888 900.591 119.613 900.036 120.552C899.503 121.469 899.236 122.557 899.236 123.816V125.384C899.236 126.579 899.503 127.635 900.036 128.552C900.591 129.448 901.337 130.152 902.276 130.664C903.215 131.176 904.26 131.432 905.412 131.432ZM924.151 133.48C921.975 133.48 920.3 133.011 919.127 132.072C917.954 131.112 917.356 129.832 917.335 128.232H919.575C919.618 129.043 919.98 129.779 920.663 130.44C921.367 131.101 922.53 131.432 924.151 131.432C925.666 131.432 926.796 131.123 927.543 130.504C928.311 129.864 928.695 129.096 928.695 128.2C928.695 127.368 928.375 126.728 927.735 126.28C927.116 125.811 926.21 125.512 925.015 125.384L923.095 125.192C921.559 125.021 920.311 124.552 919.351 123.784C918.412 122.995 917.943 121.917 917.943 120.552C917.943 119.549 918.199 118.675 918.711 117.928C919.223 117.181 919.938 116.605 920.855 116.2C921.794 115.773 922.892 115.56 924.151 115.56C925.964 115.56 927.436 115.987 928.567 116.84C929.719 117.693 930.306 118.909 930.327 120.488H928.087C928.066 119.677 927.724 118.995 927.063 118.44C926.402 117.885 925.431 117.608 924.151 117.608C922.828 117.608 921.836 117.896 921.175 118.472C920.535 119.048 920.215 119.752 920.215 120.584C920.215 121.288 920.46 121.875 920.951 122.344C921.442 122.792 922.21 123.069 923.255 123.176L925.175 123.368C926.882 123.56 928.268 124.051 929.335 124.84C930.423 125.629 930.967 126.76 930.967 128.232C930.967 129.235 930.679 130.141 930.103 130.952C929.548 131.741 928.759 132.36 927.735 132.808C926.711 133.256 925.516 133.48 924.151 133.48ZM936.641 133V116.072H939.009V133H936.641ZM933.921 117.992V116.072H939.009V117.992H933.921ZM937.153 112.936C936.577 112.936 936.139 112.787 935.841 112.488C935.563 112.168 935.425 111.773 935.425 111.304C935.425 110.835 935.563 110.451 935.841 110.152C936.139 109.832 936.577 109.672 937.153 109.672C937.729 109.672 938.155 109.832 938.433 110.152C938.71 110.451 938.849 110.835 938.849 111.304C938.849 111.773 938.71 112.168 938.433 112.488C938.155 112.787 937.729 112.936 937.153 112.936ZM951.451 133.192C950.278 133.192 949.264 133.021 948.411 132.68C947.558 132.339 946.896 131.763 946.427 130.952C945.958 130.12 945.723 129.011 945.723 127.624V110.728H948.027V127.976C948.027 128.957 948.294 129.715 948.827 130.248C949.36 130.76 950.118 131.016 951.099 131.016H954.139V133.192H951.451ZM942.683 117.896V116.072H954.139V117.896H942.683ZM965.692 133.544C964.241 133.544 962.982 133.299 961.916 132.808C960.849 132.296 959.974 131.624 959.292 130.792C958.609 129.939 958.097 128.989 957.756 127.944C957.436 126.899 957.276 125.821 957.276 124.712V124.264C957.276 123.176 957.436 122.109 957.756 121.064C958.097 120.019 958.609 119.08 959.292 118.248C959.974 117.416 960.828 116.755 961.852 116.264C962.897 115.752 964.113 115.496 965.5 115.496C967.27 115.496 968.742 115.891 969.916 116.68C971.11 117.469 972.006 118.483 972.604 119.72C973.201 120.936 973.5 122.248 973.5 123.656V124.904H958.364V123.048H971.836L971.228 123.976C971.228 122.717 971.004 121.619 970.556 120.68C970.129 119.72 969.489 118.973 968.636 118.44C967.804 117.885 966.758 117.608 965.5 117.608C964.177 117.608 963.078 117.917 962.204 118.536C961.329 119.155 960.668 119.976 960.22 121C959.793 122.024 959.58 123.187 959.58 124.488C959.58 125.768 959.793 126.941 960.22 128.008C960.668 129.053 961.34 129.885 962.236 130.504C963.153 131.123 964.305 131.432 965.692 131.432C967.164 131.432 968.358 131.101 969.276 130.44C970.193 129.757 970.758 128.957 970.972 128.04H973.212C972.998 129.171 972.55 130.152 971.868 130.984C971.185 131.795 970.321 132.424 969.276 132.872C968.23 133.32 967.036 133.544 965.692 133.544Z" fill="url(#paint2_radial_1097_2882)"/>
<path d="M826.824 173V161.32H828.04V173H826.824ZM827.752 173V171.896H833.592V173H827.752ZM827.752 167.608V166.52H833.048V167.608H827.752ZM827.752 162.424V161.32H833.416V162.424H827.752ZM838.693 173.24C837.605 173.24 836.767 173.005 836.181 172.536C835.594 172.056 835.295 171.416 835.285 170.616H836.405C836.426 171.021 836.607 171.389 836.949 171.72C837.301 172.051 837.882 172.216 838.693 172.216C839.45 172.216 840.015 172.061 840.389 171.752C840.773 171.432 840.965 171.048 840.965 170.6C840.965 170.184 840.805 169.864 840.485 169.64C840.175 169.405 839.722 169.256 839.125 169.192L838.165 169.096C837.397 169.011 836.773 168.776 836.293 168.392C835.823 167.997 835.589 167.459 835.589 166.776C835.589 166.275 835.717 165.837 835.973 165.464C836.229 165.091 836.586 164.803 837.045 164.6C837.514 164.387 838.063 164.28 838.693 164.28C839.599 164.28 840.335 164.493 840.901 164.92C841.477 165.347 841.77 165.955 841.781 166.744H840.661C840.65 166.339 840.479 165.997 840.149 165.72C839.818 165.443 839.333 165.304 838.693 165.304C838.031 165.304 837.535 165.448 837.205 165.736C836.885 166.024 836.725 166.376 836.725 166.792C836.725 167.144 836.847 167.437 837.093 167.672C837.338 167.896 837.722 168.035 838.245 168.088L839.205 168.184C840.058 168.28 840.751 168.525 841.285 168.92C841.829 169.315 842.101 169.88 842.101 170.616C842.101 171.117 841.957 171.571 841.669 171.976C841.391 172.371 840.997 172.68 840.485 172.904C839.973 173.128 839.375 173.24 838.693 173.24ZM847.562 173.096C846.975 173.096 846.468 173.011 846.042 172.84C845.615 172.669 845.284 172.381 845.049 171.976C844.815 171.56 844.698 171.005 844.698 170.312V161.864H845.85V170.488C845.85 170.979 845.983 171.357 846.25 171.624C846.516 171.88 846.895 172.008 847.386 172.008H848.906V173.096H847.562ZM843.178 165.448V164.536H848.906V165.448H843.178ZM851.672 173V164.536H852.856V173H851.672ZM850.312 165.496V164.536H852.856V165.496H850.312ZM851.928 162.968C851.64 162.968 851.421 162.893 851.272 162.744C851.133 162.584 851.064 162.387 851.064 162.152C851.064 161.917 851.133 161.725 851.272 161.576C851.421 161.416 851.64 161.336 851.928 161.336C852.216 161.336 852.429 161.416 852.568 161.576C852.707 161.725 852.776 161.917 852.776 162.152C852.776 162.387 852.707 162.584 852.568 162.744C852.429 162.893 852.216 162.968 851.928 162.968ZM856.005 173V164.52H856.965V168.088H856.773C856.773 167.309 856.88 166.637 857.093 166.072C857.317 165.507 857.648 165.069 858.085 164.76C858.522 164.44 859.077 164.28 859.749 164.28H859.797C860.469 164.28 861.024 164.435 861.461 164.744C861.898 165.053 862.224 165.491 862.437 166.056C862.65 166.621 862.757 167.299 862.757 168.088H862.373C862.373 167.309 862.48 166.637 862.693 166.072C862.917 165.507 863.248 165.069 863.685 164.76C864.133 164.44 864.693 164.28 865.365 164.28H865.413C866.085 164.28 866.64 164.435 867.077 164.744C867.525 165.053 867.856 165.491 868.069 166.056C868.293 166.621 868.405 167.299 868.405 168.088V173H867.205V167.816C867.205 167.069 867.024 166.477 866.661 166.04C866.298 165.603 865.776 165.384 865.093 165.384C864.389 165.384 863.829 165.613 863.413 166.072C863.008 166.52 862.805 167.128 862.805 167.896V173H861.605V167.816C861.605 167.069 861.424 166.477 861.061 166.04C860.698 165.603 860.176 165.384 859.493 165.384C858.789 165.384 858.229 165.613 857.813 166.072C857.408 166.52 857.205 167.128 857.205 167.896V173H856.005ZM876.548 173V170.456H876.356V167.448C876.356 166.819 876.19 166.339 875.86 166.008C875.529 165.667 875.017 165.496 874.324 165.496C874.004 165.496 873.678 165.501 873.348 165.512C873.028 165.523 872.718 165.539 872.42 165.56C872.132 165.571 871.876 165.587 871.652 165.608V164.552C871.886 164.531 872.126 164.509 872.372 164.488C872.617 164.467 872.868 164.456 873.124 164.456C873.39 164.445 873.646 164.44 873.892 164.44C874.756 164.44 875.449 164.547 875.972 164.76C876.505 164.973 876.894 165.309 877.14 165.768C877.385 166.216 877.508 166.813 877.508 167.56V173H876.548ZM873.684 173.224C873.086 173.224 872.558 173.117 872.1 172.904C871.641 172.691 871.284 172.381 871.028 171.976C870.782 171.571 870.66 171.08 870.66 170.504C870.66 169.939 870.788 169.459 871.044 169.064C871.31 168.669 871.689 168.371 872.18 168.168C872.681 167.955 873.284 167.848 873.988 167.848H876.468V168.76H873.908C873.236 168.76 872.718 168.925 872.356 169.256C872.004 169.576 871.828 169.997 871.828 170.52C871.828 171.053 872.014 171.48 872.388 171.8C872.761 172.109 873.268 172.264 873.908 172.264C874.302 172.264 874.681 172.195 875.044 172.056C875.406 171.907 875.71 171.661 875.956 171.32C876.201 170.968 876.334 170.488 876.356 169.88L876.708 170.376C876.665 171.005 876.516 171.533 876.26 171.96C876.004 172.376 875.657 172.691 875.22 172.904C874.782 173.117 874.27 173.224 873.684 173.224ZM883.577 173.096C882.99 173.096 882.484 173.011 882.057 172.84C881.63 172.669 881.3 172.381 881.065 171.976C880.83 171.56 880.713 171.005 880.713 170.312V161.864H881.865V170.488C881.865 170.979 881.998 171.357 882.265 171.624C882.532 171.88 882.91 172.008 883.401 172.008H884.921V173.096H883.577ZM879.193 165.448V164.536H884.921V165.448H879.193ZM890.697 173.272C889.972 173.272 889.343 173.149 888.809 172.904C888.276 172.648 887.839 172.312 887.497 171.896C887.156 171.469 886.9 170.995 886.729 170.472C886.569 169.949 886.489 169.411 886.489 168.856V168.632C886.489 168.088 886.569 167.555 886.729 167.032C886.9 166.509 887.156 166.04 887.497 165.624C887.839 165.208 888.265 164.877 888.777 164.632C889.3 164.376 889.908 164.248 890.601 164.248C891.487 164.248 892.223 164.445 892.809 164.84C893.407 165.235 893.855 165.741 894.153 166.36C894.452 166.968 894.601 167.624 894.601 168.328V168.952H887.033V168.024H893.769L893.465 168.488C893.465 167.859 893.353 167.309 893.129 166.84C892.916 166.36 892.596 165.987 892.169 165.72C891.753 165.443 891.231 165.304 890.601 165.304C889.94 165.304 889.391 165.459 888.953 165.768C888.516 166.077 888.185 166.488 887.961 167C887.748 167.512 887.641 168.093 887.641 168.744C887.641 169.384 887.748 169.971 887.961 170.504C888.185 171.027 888.521 171.443 888.969 171.752C889.428 172.061 890.004 172.216 890.697 172.216C891.433 172.216 892.031 172.051 892.489 171.72C892.948 171.379 893.231 170.979 893.337 170.52H894.457C894.351 171.085 894.127 171.576 893.785 171.992C893.444 172.397 893.012 172.712 892.489 172.936C891.967 173.16 891.369 173.272 890.697 173.272ZM900.383 173.272C899.765 173.272 899.199 173.16 898.687 172.936C898.186 172.701 897.749 172.381 897.375 171.976C897.013 171.56 896.73 171.091 896.527 170.568C896.335 170.035 896.239 169.469 896.239 168.872V168.648C896.239 168.072 896.335 167.523 896.527 167C896.719 166.467 896.991 165.997 897.343 165.592C897.706 165.176 898.138 164.851 898.639 164.616C899.151 164.371 899.722 164.248 900.351 164.248C901.066 164.248 901.695 164.403 902.239 164.712C902.783 165.021 903.221 165.469 903.551 166.056C903.882 166.632 904.058 167.341 904.079 168.184L903.551 167.192V161.32H904.751V173H903.791V169.24H904.175C904.154 170.125 903.967 170.872 903.615 171.48C903.274 172.077 902.821 172.525 902.255 172.824C901.701 173.123 901.077 173.272 900.383 173.272ZM900.543 172.216C901.119 172.216 901.637 172.088 902.095 171.832C902.565 171.576 902.933 171.213 903.199 170.744C903.466 170.264 903.599 169.715 903.599 169.096V168.328C903.599 167.731 903.466 167.208 903.199 166.76C902.933 166.301 902.565 165.944 902.095 165.688C901.637 165.432 901.114 165.304 900.527 165.304C899.898 165.304 899.349 165.459 898.879 165.768C898.421 166.067 898.063 166.477 897.807 167C897.562 167.523 897.439 168.109 897.439 168.76C897.439 169.432 897.567 170.029 897.823 170.552C898.079 171.075 898.442 171.485 898.911 171.784C899.381 172.072 899.925 172.216 900.543 172.216ZM916.831 173.272C915.786 173.272 914.89 173.091 914.143 172.728C913.407 172.355 912.805 171.869 912.335 171.272C911.877 170.675 911.541 170.029 911.327 169.336C911.114 168.632 911.007 167.949 911.007 167.288V166.984C911.007 166.269 911.114 165.56 911.327 164.856C911.551 164.141 911.893 163.496 912.351 162.92C912.821 162.344 913.418 161.885 914.143 161.544C914.869 161.192 915.727 161.016 916.719 161.016C917.722 161.016 918.586 161.192 919.311 161.544C920.047 161.896 920.634 162.392 921.071 163.032C921.509 163.661 921.775 164.408 921.871 165.272H920.639C920.554 164.579 920.33 164.003 919.967 163.544C919.605 163.075 919.141 162.723 918.575 162.488C918.021 162.253 917.402 162.136 916.719 162.136C915.983 162.136 915.333 162.269 914.767 162.536C914.213 162.792 913.749 163.155 913.375 163.624C913.002 164.083 912.719 164.616 912.527 165.224C912.335 165.821 912.239 166.461 912.239 167.144C912.239 167.795 912.33 168.419 912.511 169.016C912.703 169.613 912.991 170.152 913.375 170.632C913.759 171.101 914.239 171.475 914.815 171.752C915.391 172.019 916.063 172.152 916.831 172.152C917.898 172.152 918.794 171.885 919.519 171.352C920.245 170.808 920.693 170.029 920.863 169.016H922.095C921.978 169.816 921.701 170.541 921.263 171.192C920.826 171.832 920.234 172.339 919.487 172.712C918.751 173.085 917.866 173.272 916.831 173.272ZM928.078 173.272C927.353 173.272 926.713 173.149 926.158 172.904C925.614 172.648 925.15 172.312 924.766 171.896C924.393 171.469 924.105 170.995 923.902 170.472C923.71 169.949 923.614 169.416 923.614 168.872V168.648C923.614 168.104 923.716 167.571 923.918 167.048C924.121 166.515 924.414 166.04 924.798 165.624C925.182 165.208 925.646 164.877 926.19 164.632C926.745 164.376 927.374 164.248 928.078 164.248C928.793 164.248 929.422 164.376 929.966 164.632C930.521 164.877 930.99 165.208 931.374 165.624C931.758 166.04 932.046 166.515 932.238 167.048C932.441 167.571 932.542 168.104 932.542 168.648V168.872C932.542 169.416 932.446 169.949 932.254 170.472C932.062 170.995 931.774 171.469 931.39 171.896C931.017 172.312 930.553 172.648 929.998 172.904C929.444 173.149 928.804 173.272 928.078 173.272ZM928.078 172.2C928.782 172.2 929.374 172.045 929.854 171.736C930.345 171.416 930.718 171 930.974 170.488C931.23 169.965 931.358 169.389 931.358 168.76C931.358 168.12 931.225 167.544 930.958 167.032C930.702 166.509 930.329 166.099 929.838 165.8C929.348 165.491 928.761 165.336 928.078 165.336C927.406 165.336 926.825 165.491 926.334 165.8C925.844 166.099 925.465 166.509 925.198 167.032C924.942 167.544 924.814 168.12 924.814 168.76C924.814 169.389 924.942 169.965 925.198 170.488C925.454 171 925.822 171.416 926.302 171.736C926.793 172.045 927.385 172.2 928.078 172.2ZM937.661 173.24C936.573 173.24 935.736 173.005 935.15 172.536C934.563 172.056 934.264 171.416 934.254 170.616H935.374C935.395 171.021 935.576 171.389 935.918 171.72C936.27 172.051 936.851 172.216 937.661 172.216C938.419 172.216 938.984 172.061 939.358 171.752C939.742 171.432 939.934 171.048 939.934 170.6C939.934 170.184 939.774 169.864 939.454 169.64C939.144 169.405 938.691 169.256 938.094 169.192L937.134 169.096C936.366 169.011 935.742 168.776 935.262 168.392C934.792 167.997 934.558 167.459 934.558 166.776C934.558 166.275 934.686 165.837 934.942 165.464C935.198 165.091 935.555 164.803 936.014 164.6C936.483 164.387 937.032 164.28 937.661 164.28C938.568 164.28 939.304 164.493 939.87 164.92C940.446 165.347 940.739 165.955 940.75 166.744H939.63C939.619 166.339 939.448 165.997 939.118 165.72C938.787 165.443 938.302 165.304 937.661 165.304C937 165.304 936.504 165.448 936.174 165.736C935.854 166.024 935.694 166.376 935.694 166.792C935.694 167.144 935.816 167.437 936.062 167.672C936.307 167.896 936.691 168.035 937.214 168.088L938.174 168.184C939.027 168.28 939.72 168.525 940.254 168.92C940.798 169.315 941.07 169.88 941.07 170.616C941.07 171.117 940.926 171.571 940.638 171.976C940.36 172.371 939.966 172.68 939.454 172.904C938.942 173.128 938.344 173.24 937.661 173.24ZM946.53 173.096C945.944 173.096 945.437 173.011 945.01 172.84C944.584 172.669 944.253 172.381 944.018 171.976C943.784 171.56 943.666 171.005 943.666 170.312V161.864H944.818V170.488C944.818 170.979 944.952 171.357 945.218 171.624C945.485 171.88 945.864 172.008 946.354 172.008H947.874V173.096H946.53ZM942.146 165.448V164.536H947.874V165.448H942.146ZM950.641 173V164.536H951.825V173H950.641ZM949.281 165.496V164.536H951.825V165.496H949.281ZM950.897 162.968C950.609 162.968 950.39 162.893 950.241 162.744C950.102 162.584 950.033 162.387 950.033 162.152C950.033 161.917 950.102 161.725 950.241 161.576C950.39 161.416 950.609 161.336 950.897 161.336C951.185 161.336 951.398 161.416 951.537 161.576C951.675 161.725 951.745 161.917 951.745 162.152C951.745 162.387 951.675 162.584 951.537 162.744C951.398 162.893 951.185 162.968 950.897 162.968ZM954.974 173V164.536H955.934V168.088H955.742C955.742 167.299 955.859 166.621 956.094 166.056C956.329 165.491 956.681 165.053 957.15 164.744C957.619 164.435 958.211 164.28 958.926 164.28H958.974C960.041 164.28 960.835 164.616 961.358 165.288C961.881 165.949 962.142 166.883 962.142 168.088V173H960.958V167.832C960.958 167.096 960.755 166.504 960.35 166.056C959.945 165.608 959.379 165.384 958.654 165.384C957.907 165.384 957.305 165.619 956.846 166.088C956.398 166.547 956.174 167.155 956.174 167.912V173H954.974ZM968.362 176.312C967.967 176.312 967.567 176.291 967.162 176.248C966.767 176.216 966.389 176.173 966.026 176.12V175.096C966.41 175.149 966.81 175.192 967.226 175.224C967.653 175.267 968.053 175.288 968.426 175.288C969.237 175.288 969.882 175.181 970.362 174.968C970.842 174.755 971.183 174.413 971.386 173.944C971.599 173.485 971.706 172.877 971.706 172.12V170.424L972.154 169.24C972.133 170.051 971.962 170.749 971.642 171.336C971.322 171.912 970.89 172.355 970.346 172.664C969.802 172.973 969.183 173.128 968.49 173.128C967.882 173.128 967.327 173.011 966.826 172.776C966.335 172.541 965.914 172.221 965.562 171.816C965.21 171.4 964.938 170.931 964.746 170.408C964.554 169.885 964.458 169.336 964.458 168.76V168.536C964.458 167.971 964.554 167.432 964.746 166.92C964.938 166.397 965.21 165.939 965.562 165.544C965.914 165.139 966.341 164.824 966.842 164.6C967.354 164.365 967.919 164.248 968.538 164.248C969.285 164.248 969.935 164.413 970.49 164.744C971.045 165.075 971.477 165.533 971.786 166.12C972.106 166.707 972.277 167.395 972.298 168.184L971.914 167.976V164.536H972.858V172.072C972.858 173.085 972.709 173.901 972.41 174.52C972.111 175.139 971.631 175.592 970.97 175.88C970.319 176.168 969.45 176.312 968.362 176.312ZM968.698 172.024C969.274 172.024 969.786 171.901 970.234 171.656C970.693 171.4 971.055 171.043 971.322 170.584C971.589 170.125 971.722 169.592 971.722 168.984V168.2C971.722 167.613 971.583 167.101 971.306 166.664C971.039 166.227 970.682 165.885 970.234 165.64C969.786 165.395 969.274 165.272 968.698 165.272C968.079 165.272 967.541 165.421 967.082 165.72C966.623 166.019 966.271 166.424 966.026 166.936C965.781 167.437 965.658 168.008 965.658 168.648C965.658 169.299 965.781 169.88 966.026 170.392C966.282 170.904 966.639 171.304 967.098 171.592C967.557 171.88 968.09 172.024 968.698 172.024ZM975.625 173V171.416H977.129V173H975.625ZM975.625 166.968V165.384H977.129V166.968H975.625Z" fill="#404040"/>
<path d="M754.42 225.684C752.668 225.684 751.18 225.384 749.956 224.784C748.732 224.16 747.736 223.296 746.968 222.192C746.224 221.088 745.672 219.78 745.312 218.268C744.952 216.732 744.772 215.064 744.772 213.264V211.752C744.772 207.48 745.768 204.216 747.76 201.96C749.752 199.68 752.728 198.54 756.688 198.54C757.504 198.54 758.236 198.564 758.884 198.612C759.532 198.66 760.228 198.732 760.972 198.828V201.168C760.228 201.048 759.508 200.964 758.812 200.916C758.116 200.868 757.36 200.844 756.544 200.844C754.288 200.844 752.476 201.288 751.108 202.176C749.74 203.04 748.744 204.3 748.12 205.956C747.52 207.612 747.22 209.616 747.22 211.968V214.524L746.5 216.648C746.524 214.824 746.872 213.276 747.544 212.004C748.24 210.732 749.212 209.76 750.46 209.088C751.708 208.416 753.172 208.08 754.852 208.08C756.724 208.08 758.308 208.464 759.604 209.232C760.9 210 761.872 211.044 762.52 212.364C763.192 213.684 763.528 215.16 763.528 216.792C763.528 218.448 763.18 219.948 762.484 221.292C761.812 222.636 760.804 223.704 759.46 224.496C758.116 225.288 756.436 225.684 754.42 225.684ZM754.42 223.308C755.86 223.308 757.06 223.02 758.02 222.444C759.004 221.868 759.736 221.088 760.216 220.104C760.696 219.12 760.936 218.016 760.936 216.792C760.936 215.568 760.696 214.476 760.216 213.516C759.76 212.532 759.052 211.764 758.092 211.212C757.156 210.636 755.992 210.348 754.6 210.348C753.232 210.348 752.032 210.612 751 211.14C749.992 211.668 749.2 212.424 748.624 213.408C748.072 214.368 747.796 215.508 747.796 216.828C747.796 217.956 748.036 219.012 748.516 219.996C748.996 220.98 749.728 221.784 750.712 222.408C751.696 223.008 752.932 223.308 754.42 223.308ZM778.803 225.612C776.955 225.612 775.371 225.288 774.051 224.64C772.731 223.992 771.651 223.092 770.811 221.94C769.971 220.764 769.347 219.396 768.939 217.836C768.555 216.252 768.363 214.548 768.363 212.724V211.032C768.363 208.464 768.735 206.208 769.479 204.264C770.247 202.32 771.399 200.796 772.935 199.692C774.495 198.588 776.451 198.036 778.803 198.036C781.155 198.036 783.099 198.588 784.635 199.692C786.171 200.796 787.311 202.32 788.055 204.264C788.823 206.208 789.207 208.464 789.207 211.032V212.724C789.207 214.548 789.003 216.252 788.595 217.836C788.211 219.396 787.599 220.764 786.759 221.94C785.919 223.092 784.839 223.992 783.519 224.64C782.199 225.288 780.627 225.612 778.803 225.612ZM778.803 223.164C781.395 223.164 783.315 222.252 784.563 220.428C785.835 218.604 786.471 215.76 786.471 211.896C786.471 207.864 785.823 204.96 784.527 203.184C783.255 201.384 781.347 200.484 778.803 200.484C776.235 200.484 774.303 201.384 773.007 203.184C771.735 204.96 771.099 207.84 771.099 211.824C771.099 215.712 771.723 218.58 772.971 220.428C774.243 222.252 776.187 223.164 778.803 223.164ZM805.275 225.612C803.427 225.612 801.843 225.288 800.523 224.64C799.203 223.992 798.123 223.092 797.283 221.94C796.443 220.764 795.819 219.396 795.411 217.836C795.027 216.252 794.835 214.548 794.835 212.724V211.032C794.835 208.464 795.207 206.208 795.951 204.264C796.719 202.32 797.871 200.796 799.407 199.692C800.967 198.588 802.923 198.036 805.275 198.036C807.627 198.036 809.571 198.588 811.107 199.692C812.643 200.796 813.783 202.32 814.527 204.264C815.295 206.208 815.679 208.464 815.679 211.032V212.724C815.679 214.548 815.475 216.252 815.067 217.836C814.683 219.396 814.071 220.764 813.231 221.94C812.391 223.092 811.311 223.992 809.991 224.64C808.671 225.288 807.099 225.612 805.275 225.612ZM805.275 223.164C807.867 223.164 809.787 222.252 811.035 220.428C812.307 218.604 812.943 215.76 812.943 211.896C812.943 207.864 812.295 204.96 810.999 203.184C809.727 201.384 807.819 200.484 805.275 200.484C802.707 200.484 800.775 201.384 799.479 203.184C798.207 204.96 797.571 207.84 797.571 211.824C797.571 215.712 798.195 218.58 799.443 220.428C800.715 222.252 802.659 223.164 805.275 223.164ZM831.748 225.612C829.9 225.612 828.316 225.288 826.996 224.64C825.676 223.992 824.596 223.092 823.756 221.94C822.916 220.764 822.292 219.396 821.884 217.836C821.5 216.252 821.308 214.548 821.308 212.724V211.032C821.308 208.464 821.68 206.208 822.424 204.264C823.192 202.32 824.344 200.796 825.88 199.692C827.44 198.588 829.396 198.036 831.748 198.036C834.1 198.036 836.044 198.588 837.58 199.692C839.116 200.796 840.256 202.32 841 204.264C841.768 206.208 842.152 208.464 842.152 211.032V212.724C842.152 214.548 841.948 216.252 841.54 217.836C841.156 219.396 840.544 220.764 839.704 221.94C838.864 223.092 837.784 223.992 836.464 224.64C835.144 225.288 833.572 225.612 831.748 225.612ZM831.748 223.164C834.34 223.164 836.26 222.252 837.508 220.428C838.78 218.604 839.416 215.76 839.416 211.896C839.416 207.864 838.768 204.96 837.472 203.184C836.2 201.384 834.292 200.484 831.748 200.484C829.18 200.484 827.248 201.384 825.952 203.184C824.68 204.96 824.044 207.84 824.044 211.824C824.044 215.712 824.668 218.58 825.916 220.428C827.188 222.252 829.132 223.164 831.748 223.164ZM856.781 224.964C854.669 224.964 852.893 224.628 851.453 223.956C850.037 223.284 848.969 222.336 848.249 221.112C847.529 219.864 847.169 218.424 847.169 216.792H849.689C849.689 217.8 849.917 218.748 850.373 219.636C850.853 220.524 851.609 221.256 852.641 221.832C853.673 222.384 855.053 222.66 856.781 222.66C859.085 222.66 860.801 222.18 861.929 221.22C863.081 220.26 863.657 219.096 863.657 217.728C863.657 216.432 863.153 215.34 862.145 214.452C861.161 213.564 859.685 213.024 857.717 212.832L855.341 212.616C853.109 212.424 851.333 211.764 850.013 210.636C848.717 209.484 848.069 207.864 848.069 205.776C848.069 204.36 848.405 203.124 849.077 202.068C849.749 201.012 850.721 200.196 851.993 199.62C853.265 199.044 854.801 198.756 856.601 198.756C858.425 198.756 859.973 199.08 861.245 199.728C862.541 200.376 863.525 201.288 864.197 202.464C864.869 203.64 865.205 205.02 865.205 206.604H862.649C862.649 205.644 862.433 204.744 862.001 203.904C861.593 203.064 860.945 202.38 860.057 201.852C859.193 201.324 858.041 201.06 856.601 201.06C855.305 201.06 854.213 201.276 853.325 201.708C852.437 202.116 851.765 202.68 851.309 203.4C850.877 204.096 850.661 204.888 850.661 205.776C850.661 207 851.069 208.008 851.885 208.8C852.725 209.592 853.961 210.06 855.593 210.204L857.969 210.42C860.537 210.66 862.553 211.428 864.017 212.724C865.505 213.996 866.249 215.664 866.249 217.728C866.249 219.144 865.865 220.404 865.097 221.508C864.353 222.588 863.273 223.44 861.857 224.064C860.465 224.664 858.773 224.964 856.781 224.964ZM855.557 229.644V224.388H857.969V229.644H855.557ZM855.413 200.16V195.228H857.825V200.16H855.413ZM932.058 225V200.124L933.246 201.06H926.082V198.72H934.758V225H932.058ZM942.318 225V221.004C942.318 219.972 942.462 219.096 942.75 218.376C943.038 217.656 943.542 216.996 944.262 216.396C944.982 215.796 945.966 215.22 947.214 214.668L952.362 212.256C953.61 211.68 954.606 210.924 955.35 209.988C956.094 209.052 956.466 207.828 956.466 206.316C956.466 204.468 955.938 203.028 954.882 201.996C953.85 200.94 952.422 200.412 950.598 200.412C948.798 200.412 947.358 200.94 946.278 201.996C945.222 203.028 944.694 204.468 944.694 206.316H942.066C942.066 204.756 942.39 203.352 943.038 202.104C943.686 200.856 944.646 199.872 945.918 199.152C947.19 198.408 948.75 198.036 950.598 198.036C952.47 198.036 954.03 198.408 955.278 199.152C956.526 199.872 957.474 200.844 958.122 202.068C958.77 203.268 959.094 204.6 959.094 206.064V206.568C959.094 208.44 958.554 210.012 957.474 211.284C956.418 212.532 955.026 213.564 953.298 214.38L948.114 216.792C946.89 217.344 946.062 217.92 945.63 218.52C945.222 219.096 945.018 219.84 945.018 220.752V223.956L944.226 222.66H959.526V225H942.318ZM974.764 225.612C972.916 225.612 971.332 225.288 970.012 224.64C968.692 223.992 967.612 223.092 966.772 221.94C965.932 220.764 965.308 219.396 964.9 217.836C964.516 216.252 964.324 214.548 964.324 212.724V211.032C964.324 208.464 964.696 206.208 965.44 204.264C966.208 202.32 967.36 200.796 968.896 199.692C970.456 198.588 972.412 198.036 974.764 198.036C977.116 198.036 979.06 198.588 980.596 199.692C982.132 200.796 983.272 202.32 984.016 204.264C984.784 206.208 985.168 208.464 985.168 211.032V212.724C985.168 214.548 984.964 216.252 984.556 217.836C984.172 219.396 983.56 220.764 982.72 221.94C981.88 223.092 980.8 223.992 979.48 224.64C978.16 225.288 976.588 225.612 974.764 225.612ZM974.764 223.164C977.356 223.164 979.276 222.252 980.524 220.428C981.796 218.604 982.432 215.76 982.432 211.896C982.432 207.864 981.784 204.96 980.488 203.184C979.216 201.384 977.308 200.484 974.764 200.484C972.196 200.484 970.264 201.384 968.968 203.184C967.696 204.96 967.06 207.84 967.06 211.824C967.06 215.712 967.684 218.58 968.932 220.428C970.204 222.252 972.148 223.164 974.764 223.164ZM1001.24 225.612C999.388 225.612 997.804 225.288 996.484 224.64C995.164 223.992 994.084 223.092 993.244 221.94C992.404 220.764 991.78 219.396 991.372 217.836C990.988 216.252 990.796 214.548 990.796 212.724V211.032C990.796 208.464 991.168 206.208 991.912 204.264C992.68 202.32 993.832 200.796 995.368 199.692C996.928 198.588 998.884 198.036 1001.24 198.036C1003.59 198.036 1005.53 198.588 1007.07 199.692C1008.6 200.796 1009.74 202.32 1010.49 204.264C1011.26 206.208 1011.64 208.464 1011.64 211.032V212.724C1011.64 214.548 1011.44 216.252 1011.03 217.836C1010.64 219.396 1010.03 220.764 1009.19 221.94C1008.35 223.092 1007.27 223.992 1005.95 224.64C1004.63 225.288 1003.06 225.612 1001.24 225.612ZM1001.24 223.164C1003.83 223.164 1005.75 222.252 1007 220.428C1008.27 218.604 1008.9 215.76 1008.9 211.896C1008.9 207.864 1008.26 204.96 1006.96 203.184C1005.69 201.384 1003.78 200.484 1001.24 200.484C998.668 200.484 996.736 201.384 995.44 203.184C994.168 204.96 993.532 207.84 993.532 211.824C993.532 215.712 994.156 218.58 995.404 220.428C996.676 222.252 998.62 223.164 1001.24 223.164ZM1027.71 225.612C1025.86 225.612 1024.28 225.288 1022.96 224.64C1021.64 223.992 1020.56 223.092 1019.72 221.94C1018.88 220.764 1018.25 219.396 1017.84 217.836C1017.46 216.252 1017.27 214.548 1017.27 212.724V211.032C1017.27 208.464 1017.64 206.208 1018.38 204.264C1019.15 202.32 1020.3 200.796 1021.84 199.692C1023.4 198.588 1025.36 198.036 1027.71 198.036C1030.06 198.036 1032 198.588 1033.54 199.692C1035.08 200.796 1036.22 202.32 1036.96 204.264C1037.73 206.208 1038.11 208.464 1038.11 211.032V212.724C1038.11 214.548 1037.91 216.252 1037.5 217.836C1037.12 219.396 1036.5 220.764 1035.66 221.94C1034.82 223.092 1033.74 223.992 1032.42 224.64C1031.1 225.288 1029.53 225.612 1027.71 225.612ZM1027.71 223.164C1030.3 223.164 1032.22 222.252 1033.47 220.428C1034.74 218.604 1035.38 215.76 1035.38 211.896C1035.38 207.864 1034.73 204.96 1033.43 203.184C1032.16 201.384 1030.25 200.484 1027.71 200.484C1025.14 200.484 1023.21 201.384 1021.91 203.184C1020.64 204.96 1020 207.84 1020 211.824C1020 215.712 1020.63 218.58 1021.88 220.428C1023.15 222.252 1025.09 223.164 1027.71 223.164ZM1052.74 224.964C1050.63 224.964 1048.85 224.628 1047.41 223.956C1046 223.284 1044.93 222.336 1044.21 221.112C1043.49 219.864 1043.13 218.424 1043.13 216.792H1045.65C1045.65 217.8 1045.88 218.748 1046.33 219.636C1046.81 220.524 1047.57 221.256 1048.6 221.832C1049.63 222.384 1051.01 222.66 1052.74 222.66C1055.05 222.66 1056.76 222.18 1057.89 221.22C1059.04 220.26 1059.62 219.096 1059.62 217.728C1059.62 216.432 1059.11 215.34 1058.11 214.452C1057.12 213.564 1055.65 213.024 1053.68 212.832L1051.3 212.616C1049.07 212.424 1047.29 211.764 1045.97 210.636C1044.68 209.484 1044.03 207.864 1044.03 205.776C1044.03 204.36 1044.37 203.124 1045.04 202.068C1045.71 201.012 1046.68 200.196 1047.95 199.62C1049.23 199.044 1050.76 198.756 1052.56 198.756C1054.39 198.756 1055.93 199.08 1057.21 199.728C1058.5 200.376 1059.49 201.288 1060.16 202.464C1060.83 203.64 1061.17 205.02 1061.17 206.604H1058.61C1058.61 205.644 1058.39 204.744 1057.96 203.904C1057.55 203.064 1056.91 202.38 1056.02 201.852C1055.15 201.324 1054 201.06 1052.56 201.06C1051.27 201.06 1050.17 201.276 1049.29 201.708C1048.4 202.116 1047.73 202.68 1047.27 203.4C1046.84 204.096 1046.62 204.888 1046.62 205.776C1046.62 207 1047.03 208.008 1047.85 208.8C1048.69 209.592 1049.92 210.06 1051.55 210.204L1053.93 210.42C1056.5 210.66 1058.51 211.428 1059.98 212.724C1061.47 213.996 1062.21 215.664 1062.21 217.728C1062.21 219.144 1061.83 220.404 1061.06 221.508C1060.31 222.588 1059.23 223.44 1057.82 224.064C1056.43 224.664 1054.73 224.964 1052.74 224.964ZM1051.52 229.644V224.388H1053.93V229.644H1051.52ZM1051.37 200.16V195.228H1053.79V200.16H1051.37Z" fill="url(#paint3_radial_1097_2882)"/>
<path d="M887.369 225.216C886.049 225.216 884.909 225.024 883.949 224.64C882.989 224.256 882.245 223.608 881.717 222.696C881.189 221.76 880.925 220.512 880.925 218.952V199.944H883.517V219.348C883.517 220.452 883.817 221.304 884.417 221.904C885.017 222.48 885.869 222.768 886.973 222.768H890.393V225.216H887.369ZM877.505 208.008V205.956H890.393V208.008H877.505ZM903.965 225.612C902.333 225.612 900.893 225.336 899.645 224.784C898.421 224.208 897.377 223.452 896.513 222.516C895.673 221.556 895.025 220.488 894.569 219.312C894.137 218.136 893.921 216.936 893.921 215.712V215.208C893.921 213.984 894.149 212.784 894.605 211.608C895.061 210.408 895.721 209.34 896.585 208.404C897.449 207.468 898.493 206.724 899.717 206.172C900.965 205.596 902.381 205.308 903.965 205.308C905.573 205.308 906.989 205.596 908.213 206.172C909.461 206.724 910.517 207.468 911.381 208.404C912.245 209.34 912.893 210.408 913.325 211.608C913.781 212.784 914.009 213.984 914.009 215.208V215.712C914.009 216.936 913.793 218.136 913.361 219.312C912.929 220.488 912.281 221.556 911.417 222.516C910.577 223.452 909.533 224.208 908.285 224.784C907.037 225.336 905.597 225.612 903.965 225.612ZM903.965 223.2C905.549 223.2 906.881 222.852 907.961 222.156C909.065 221.436 909.905 220.5 910.481 219.348C911.057 218.172 911.345 216.876 911.345 215.46C911.345 214.02 911.045 212.724 910.445 211.572C909.869 210.396 909.029 209.472 907.925 208.8C906.821 208.104 905.501 207.756 903.965 207.756C902.453 207.756 901.145 208.104 900.041 208.8C898.937 209.472 898.085 210.396 897.485 211.572C896.909 212.724 896.621 214.02 896.621 215.46C896.621 216.876 896.909 218.172 897.485 219.348C898.061 220.5 898.889 221.436 899.969 222.156C901.073 222.852 902.405 223.2 903.965 223.2Z" fill="#404040"/>
<defs>
<radialGradient id="paint0_radial_1097_2882" cx="0" cy="0" r="1" gradientUnits="userSpaceOnUse" gradientTransform="translate(295.5 189.5) rotate(90) scale(22.5 153.5)">
<stop stop-color="#5A69EA"/>
<stop offset="1" stop-color="#BF8BCA"/>
</radialGradient>
<radialGradient id="paint1_radial_1097_2882" cx="0" cy="0" r="1" gradientUnits="userSpaceOnUse" gradientTransform="translate(274 89.5) rotate(90) scale(22.5 133)">
<stop stop-color="#5A69EA"/>
<stop offset="1" stop-color="#BF8BCA"/>
</radialGradient>
<radialGradient id="paint2_radial_1097_2882" cx="0" cy="0" r="1" gradientUnits="userSpaceOnUse" gradientTransform="translate(908.5 100) rotate(90) scale(45 173.5)">
<stop stop-color="#5A69EA"/>
<stop offset="1" stop-color="#BF8BCA"/>
</radialGradient>
<radialGradient id="paint3_radial_1097_2882" cx="0" cy="0" r="1" gradientUnits="userSpaceOnUse" gradientTransform="translate(903.5 212.5) rotate(90) scale(22.5 161.5)">
<stop stop-color="#5A69EA"/>
<stop offset="1" stop-color="#BF8BCA"/>
</radialGradient>
</defs>
</svg>
