<svg width="452" height="71" viewBox="0 0 452 71" fill="none" xmlns="http://www.w3.org/2000/svg">
<g filter="url(#filter0_ddiiii_1097_2805)">
<rect x="8" y="8" width="206" height="55" rx="10" fill="#ECECEC"/>
<rect x="5.5" y="5.5" width="211" height="60" rx="12.5" stroke="url(#paint0_radial_1097_2805)" stroke-width="5"/>
<path d="M39.96 42.34C38.7333 42.34 37.7 42.1467 36.86 41.76C36.02 41.36 35.38 40.8133 34.94 40.12C34.5133 39.4133 34.3 38.62 34.3 37.74H35.82C35.82 38.3 35.9533 38.8267 36.22 39.32C36.5 39.8 36.94 40.1933 37.54 40.5C38.1533 40.7933 38.96 40.94 39.96 40.94C40.88 40.94 41.64 40.8067 42.24 40.54C42.8533 40.2733 43.3067 39.9133 43.6 39.46C43.9067 39.0067 44.06 38.5 44.06 37.94C44.06 37.2333 43.78 36.6467 43.22 36.18C42.6733 35.7 41.8467 35.4133 40.74 35.32L39.06 35.16C37.8067 35.0533 36.8067 34.6667 36.06 34C35.3267 33.32 34.96 32.4267 34.96 31.32C34.96 30.48 35.16 29.74 35.56 29.1C35.96 28.46 36.5267 27.9533 37.26 27.58C38.0067 27.2067 38.9 27.02 39.94 27.02C40.9933 27.02 41.8933 27.2133 42.64 27.6C43.4 27.9733 43.98 28.4933 44.38 29.16C44.78 29.8267 44.98 30.6 44.98 31.48H43.46C43.46 30.9467 43.34 30.4467 43.1 29.98C42.86 29.5133 42.48 29.14 41.96 28.86C41.44 28.5667 40.7667 28.42 39.94 28.42C39.1533 28.42 38.5 28.5533 37.98 28.82C37.4733 29.0867 37.0933 29.44 36.84 29.88C36.6 30.32 36.48 30.8 36.48 31.32C36.48 31.9733 36.7133 32.5267 37.18 32.98C37.6467 33.4333 38.32 33.6933 39.2 33.76L40.88 33.92C41.8667 34 42.7067 34.22 43.4 34.58C44.1067 34.9267 44.6467 35.3867 45.02 35.96C45.3933 36.52 45.58 37.18 45.58 37.94C45.58 38.7933 45.3467 39.5533 44.88 40.22C44.4267 40.8867 43.78 41.4067 42.94 41.78C42.1 42.1533 41.1067 42.34 39.96 42.34ZM53.3453 42.34C52.452 42.34 51.672 42.1867 51.0053 41.88C50.352 41.56 49.8053 41.1333 49.3653 40.6C48.9253 40.0533 48.592 39.4533 48.3653 38.8C48.152 38.1467 48.0453 37.4867 48.0453 36.82V36.54C48.0453 35.86 48.152 35.2 48.3653 34.56C48.592 33.9067 48.9253 33.32 49.3653 32.8C49.8053 32.2667 50.352 31.8467 51.0053 31.54C51.672 31.22 52.4386 31.06 53.3053 31.06C54.1853 31.06 54.9653 31.22 55.6453 31.54C56.3386 31.86 56.8986 32.3133 57.3253 32.9C57.752 33.4867 58.0053 34.18 58.0853 34.98H56.6453C56.5253 34.2467 56.1786 33.64 55.6053 33.16C55.0453 32.6667 54.2786 32.42 53.3053 32.42C52.4653 32.42 51.7653 32.6133 51.2053 33C50.6586 33.3733 50.2453 33.8867 49.9653 34.54C49.6853 35.18 49.5453 35.8933 49.5453 36.68C49.5453 37.4533 49.6853 38.1733 49.9653 38.84C50.2453 39.4933 50.6653 40.02 51.2253 40.42C51.7853 40.8067 52.492 41 53.3453 41C53.9986 41 54.5653 40.8867 55.0453 40.66C55.5386 40.42 55.932 40.1 56.2253 39.7C56.532 39.3 56.712 38.86 56.7653 38.38H58.2053C58.152 39.18 57.8986 39.88 57.4453 40.48C57.0053 41.0667 56.432 41.5267 55.7253 41.86C55.0186 42.18 54.2253 42.34 53.3453 42.34ZM60.9556 42V31.42H62.1556V35.84H62.0356C62.0356 34.2933 62.3756 33.1533 63.0556 32.42C63.7356 31.6733 64.8023 31.3 66.2556 31.3H66.5956V32.66H65.9756C64.829 32.66 63.9556 32.96 63.3556 33.56C62.7556 34.1467 62.4556 35.0133 62.4556 36.16V42H60.9556ZM73.6253 42.34C72.7186 42.34 71.9186 42.1867 71.2253 41.88C70.5453 41.56 69.9653 41.14 69.4853 40.62C69.0186 40.0867 68.6586 39.4933 68.4053 38.84C68.1653 38.1867 68.0453 37.52 68.0453 36.84V36.56C68.0453 35.88 68.172 35.2133 68.4253 34.56C68.6786 33.8933 69.0453 33.3 69.5253 32.78C70.0053 32.26 70.5853 31.8467 71.2653 31.54C71.9586 31.22 72.7453 31.06 73.6253 31.06C74.5186 31.06 75.3053 31.22 75.9853 31.54C76.6786 31.8467 77.2653 32.26 77.7453 32.78C78.2253 33.3 78.5853 33.8933 78.8253 34.56C79.0786 35.2133 79.2053 35.88 79.2053 36.56V36.84C79.2053 37.52 79.0853 38.1867 78.8453 38.84C78.6053 39.4933 78.2453 40.0867 77.7653 40.62C77.2986 41.14 76.7186 41.56 76.0253 41.88C75.332 42.1867 74.532 42.34 73.6253 42.34ZM73.6253 41C74.5053 41 75.2453 40.8067 75.8453 40.42C76.4586 40.02 76.9253 39.5 77.2453 38.86C77.5653 38.2067 77.7253 37.4867 77.7253 36.7C77.7253 35.9 77.5586 35.18 77.2253 34.54C76.9053 33.8867 76.4386 33.3733 75.8253 33C75.212 32.6133 74.4786 32.42 73.6253 32.42C72.7853 32.42 72.0586 32.6133 71.4453 33C70.832 33.3733 70.3586 33.8867 70.0253 34.54C69.7053 35.18 69.5453 35.9 69.5453 36.7C69.5453 37.4867 69.7053 38.2067 70.0253 38.86C70.3453 39.5 70.8053 40.02 71.4053 40.42C72.0186 40.8067 72.7586 41 73.6253 41ZM82.3642 42V27.4H83.8642V42H82.3642ZM80.8242 28.62V27.4H83.8642V28.62H80.8242ZM87.8525 42V27.4H89.3525V42H87.8525ZM86.3125 28.62V27.4H89.3525V28.62H86.3125ZM99.3688 42.08V40.68H103.349C104.335 40.68 105.195 40.52 105.929 40.2C106.675 39.88 107.302 39.4467 107.809 38.9C108.315 38.34 108.695 37.7 108.949 36.98C109.202 36.26 109.329 35.4933 109.329 34.68C109.329 33.84 109.195 33.06 108.929 32.34C108.675 31.62 108.295 30.9867 107.789 30.44C107.282 29.8933 106.655 29.4733 105.909 29.18C105.175 28.8867 104.322 28.74 103.349 28.74H99.3688V27.34H103.189C104.495 27.34 105.629 27.54 106.589 27.94C107.549 28.34 108.349 28.8867 108.989 29.58C109.629 30.26 110.102 31.0267 110.409 31.88C110.715 32.7333 110.869 33.6 110.869 34.48V34.86C110.869 35.7267 110.715 36.5867 110.409 37.44C110.102 38.2933 109.635 39.0733 109.009 39.78C108.382 40.4733 107.582 41.0333 106.609 41.46C105.649 41.8733 104.509 42.08 103.189 42.08H99.3688ZM98.2488 42.08V27.34H99.7688V42.08H98.2488ZM118.547 42.34C117.641 42.34 116.841 42.1867 116.147 41.88C115.467 41.56 114.887 41.14 114.407 40.62C113.941 40.0867 113.581 39.4933 113.327 38.84C113.087 38.1867 112.967 37.52 112.967 36.84V36.56C112.967 35.88 113.094 35.2133 113.347 34.56C113.601 33.8933 113.967 33.3 114.447 32.78C114.927 32.26 115.507 31.8467 116.187 31.54C116.881 31.22 117.667 31.06 118.547 31.06C119.441 31.06 120.227 31.22 120.907 31.54C121.601 31.8467 122.187 32.26 122.667 32.78C123.147 33.3 123.507 33.8933 123.747 34.56C124.001 35.2133 124.127 35.88 124.127 36.56V36.84C124.127 37.52 124.007 38.1867 123.767 38.84C123.527 39.4933 123.167 40.0867 122.687 40.62C122.221 41.14 121.641 41.56 120.947 41.88C120.254 42.1867 119.454 42.34 118.547 42.34ZM118.547 41C119.427 41 120.167 40.8067 120.767 40.42C121.381 40.02 121.847 39.5 122.167 38.86C122.487 38.2067 122.647 37.4867 122.647 36.7C122.647 35.9 122.481 35.18 122.147 34.54C121.827 33.8867 121.361 33.3733 120.747 33C120.134 32.6133 119.401 32.42 118.547 32.42C117.707 32.42 116.981 32.6133 116.367 33C115.754 33.3733 115.281 33.8867 114.947 34.54C114.627 35.18 114.467 35.9 114.467 36.7C114.467 37.4867 114.627 38.2067 114.947 38.86C115.267 39.5 115.727 40.02 116.327 40.42C116.941 40.8067 117.681 41 118.547 41ZM129.97 42L132.23 31.76H134.33L136.95 42H135.65L133.03 31.82H133.51L131.23 42H129.97ZM129.11 42V40.78H130.93V42H129.11ZM128.75 42L125.69 31.42H127.13L130.15 42H128.75ZM135.99 42V40.78H137.77V42H135.99ZM136.77 42L139.41 31.42H140.79L138.09 42H136.77ZM143.553 42V31.42H144.753V35.86H144.513C144.513 34.8733 144.66 34.0267 144.953 33.32C145.247 32.6133 145.687 32.0667 146.273 31.68C146.86 31.2933 147.6 31.1 148.493 31.1H148.553C149.887 31.1 150.88 31.52 151.533 32.36C152.187 33.1867 152.513 34.3533 152.513 35.86V42H151.033V35.54C151.033 34.62 150.78 33.88 150.273 33.32C149.767 32.76 149.06 32.48 148.153 32.48C147.22 32.48 146.467 32.7733 145.893 33.36C145.333 33.9333 145.053 34.6933 145.053 35.64V42H143.553Z" fill="#404040"/>
<path d="M172 30.5L182 40.5M172 40.5H182V30.5" stroke="#717171" stroke-width="2.5" stroke-linecap="round" stroke-linejoin="round"/>
</g>
<g filter="url(#filter1_ddiiii_1097_2805)">
<rect x="239" y="8" width="205" height="55" rx="10" fill="#ECECEC"/>
<rect x="236.5" y="5.5" width="210" height="60" rx="12.5" stroke="#B2CEFE" stroke-width="5"/>
<path d="M269.7 42L264.48 27.4H266.04L270.88 41.06L270.06 40.62H272.18L271.3 41.06L275.8 27.4H277.34L272.44 42H269.7ZM280.211 42V31.42H281.691V42H280.211ZM278.511 32.62V31.42H281.691V32.62H278.511ZM280.531 29.46C280.171 29.46 279.898 29.3667 279.711 29.18C279.538 28.98 279.451 28.7333 279.451 28.44C279.451 28.1467 279.538 27.9067 279.711 27.72C279.898 27.52 280.171 27.42 280.531 27.42C280.891 27.42 281.158 27.52 281.331 27.72C281.504 27.9067 281.591 28.1467 281.591 28.44C281.591 28.7333 281.504 28.98 281.331 29.18C281.158 29.3667 280.891 29.46 280.531 29.46ZM288.967 42.3C287.607 42.3 286.561 42.0067 285.828 41.42C285.094 40.82 284.721 40.02 284.708 39.02H286.108C286.134 39.5267 286.361 39.9867 286.788 40.4C287.228 40.8133 287.954 41.02 288.967 41.02C289.914 41.02 290.621 40.8267 291.088 40.44C291.568 40.04 291.808 39.56 291.808 39C291.808 38.48 291.608 38.08 291.208 37.8C290.821 37.5067 290.254 37.32 289.508 37.24L288.308 37.12C287.348 37.0133 286.568 36.72 285.968 36.24C285.381 35.7467 285.088 35.0733 285.088 34.22C285.088 33.5933 285.248 33.0467 285.568 32.58C285.888 32.1133 286.334 31.7533 286.908 31.5C287.494 31.2333 288.181 31.1 288.967 31.1C290.101 31.1 291.021 31.3667 291.728 31.9C292.448 32.4333 292.814 33.1933 292.828 34.18H291.428C291.414 33.6733 291.201 33.2467 290.788 32.9C290.374 32.5533 289.768 32.38 288.967 32.38C288.141 32.38 287.521 32.56 287.108 32.92C286.708 33.28 286.508 33.72 286.508 34.24C286.508 34.68 286.661 35.0467 286.968 35.34C287.274 35.62 287.754 35.7933 288.408 35.86L289.608 35.98C290.674 36.1 291.541 36.4067 292.208 36.9C292.888 37.3933 293.228 38.1 293.228 39.02C293.228 39.6467 293.048 40.2133 292.688 40.72C292.341 41.2133 291.848 41.6 291.208 41.88C290.568 42.16 289.821 42.3 288.967 42.3ZM296.773 42V31.42H298.253V42H296.773ZM295.073 32.62V31.42H298.253V32.62H295.073ZM297.093 29.46C296.733 29.46 296.46 29.3667 296.273 29.18C296.1 28.98 296.013 28.7333 296.013 28.44C296.013 28.1467 296.1 27.9067 296.273 27.72C296.46 27.52 296.733 27.42 297.093 27.42C297.453 27.42 297.72 27.52 297.893 27.72C298.067 27.9067 298.153 28.1467 298.153 28.44C298.153 28.7333 298.067 28.98 297.893 29.18C297.72 29.3667 297.453 29.46 297.093 29.46ZM306.03 42.12C305.297 42.12 304.663 42.0133 304.13 41.8C303.597 41.5867 303.183 41.2267 302.89 40.72C302.597 40.2 302.45 39.5067 302.45 38.64V28.08H303.89V38.86C303.89 39.4733 304.057 39.9467 304.39 40.28C304.723 40.6 305.197 40.76 305.81 40.76H307.71V42.12H306.03ZM300.55 32.56V31.42H307.71V32.56H300.55ZM322.016 42.34C320.749 42.34 319.649 42.1133 318.716 41.66C317.783 41.2067 317.009 40.6067 316.396 39.86C315.783 39.1133 315.323 38.3 315.016 37.42C314.709 36.54 314.556 35.68 314.556 34.84V34.48C314.556 33.5867 314.709 32.7 315.016 31.82C315.336 30.9267 315.809 30.12 316.436 29.4C317.063 28.68 317.843 28.1067 318.776 27.68C319.709 27.24 320.789 27.02 322.016 27.02C323.256 27.02 324.336 27.24 325.256 27.68C326.189 28.1067 326.969 28.68 327.596 29.4C328.223 30.12 328.689 30.9267 328.996 31.82C329.316 32.7 329.476 33.5867 329.476 34.48V34.86C329.476 35.7 329.323 36.56 329.016 37.44C328.723 38.3067 328.263 39.1133 327.636 39.86C327.023 40.6067 326.249 41.2067 325.316 41.66C324.383 42.1133 323.283 42.34 322.016 42.34ZM322.016 40.94C322.949 40.94 323.783 40.7733 324.516 40.44C325.249 40.0933 325.869 39.6267 326.376 39.04C326.883 38.44 327.269 37.7667 327.536 37.02C327.803 36.2733 327.936 35.4933 327.936 34.68C327.936 33.8267 327.803 33.0267 327.536 32.28C327.269 31.5333 326.876 30.8733 326.356 30.3C325.849 29.7133 325.229 29.2533 324.496 28.92C323.763 28.5867 322.936 28.42 322.016 28.42C321.109 28.42 320.289 28.5867 319.556 28.92C318.823 29.2533 318.196 29.7133 317.676 30.3C317.169 30.8733 316.776 31.5333 316.496 32.28C316.229 33.0267 316.096 33.8267 316.096 34.68C316.096 35.4933 316.229 36.2733 316.496 37.02C316.763 37.7667 317.149 38.44 317.656 39.04C318.163 39.6267 318.783 40.0933 319.516 40.44C320.263 40.7733 321.096 40.94 322.016 40.94ZM336.28 42.3C335.013 42.3 334.046 41.8933 333.38 41.08C332.713 40.2533 332.38 39.1067 332.38 37.64V31.4H333.86V37.94C333.86 38.86 334.1 39.5933 334.58 40.14C335.073 40.6733 335.753 40.94 336.62 40.94C337.526 40.94 338.246 40.6533 338.78 40.08C339.326 39.5067 339.6 38.74 339.6 37.78V31.4H341.1V42H339.9V37.58H340.14C340.14 38.5667 340 39.4133 339.72 40.12C339.44 40.8133 339.02 41.3533 338.46 41.74C337.9 42.1133 337.193 42.3 336.34 42.3H336.28ZM345.022 42V31.42H346.222V35.84H346.102C346.102 34.2933 346.442 33.1533 347.122 32.42C347.802 31.6733 348.869 31.3 350.322 31.3H350.662V32.66H350.042C348.895 32.66 348.022 32.96 347.422 33.56C346.822 34.1467 346.522 35.0133 346.522 36.16V42H345.022ZM360.516 42L356.476 27.4H358.036L361.696 41.02L360.996 40.62H362.936L362.176 41.02L365.156 28.04H366.596L363.316 42H360.516ZM369.296 42L365.696 28.04H367.176L370.496 41.02L369.756 40.62H371.736L370.976 41.02L374.276 27.4H375.796L372.096 42H369.296ZM382.711 42.34C381.805 42.34 381.005 42.1867 380.311 41.88C379.631 41.56 379.051 41.14 378.571 40.62C378.105 40.0867 377.745 39.4933 377.491 38.84C377.251 38.1867 377.131 37.52 377.131 36.84V36.56C377.131 35.88 377.258 35.2133 377.511 34.56C377.765 33.8933 378.131 33.3 378.611 32.78C379.091 32.26 379.671 31.8467 380.351 31.54C381.045 31.22 381.831 31.06 382.711 31.06C383.605 31.06 384.391 31.22 385.071 31.54C385.765 31.8467 386.351 32.26 386.831 32.78C387.311 33.3 387.671 33.8933 387.911 34.56C388.165 35.2133 388.291 35.88 388.291 36.56V36.84C388.291 37.52 388.171 38.1867 387.931 38.84C387.691 39.4933 387.331 40.0867 386.851 40.62C386.385 41.14 385.805 41.56 385.111 41.88C384.418 42.1867 383.618 42.34 382.711 42.34ZM382.711 41C383.591 41 384.331 40.8067 384.931 40.42C385.545 40.02 386.011 39.5 386.331 38.86C386.651 38.2067 386.811 37.4867 386.811 36.7C386.811 35.9 386.645 35.18 386.311 34.54C385.991 33.8867 385.525 33.3733 384.911 33C384.298 32.6133 383.565 32.42 382.711 32.42C381.871 32.42 381.145 32.6133 380.531 33C379.918 33.3733 379.445 33.8867 379.111 34.54C378.791 35.18 378.631 35.9 378.631 36.7C378.631 37.4867 378.791 38.2067 379.111 38.86C379.431 39.5 379.891 40.02 380.491 40.42C381.105 40.8067 381.845 41 382.711 41ZM391.35 42V31.42H392.55V35.84H392.43C392.43 34.2933 392.77 33.1533 393.45 32.42C394.13 31.6733 395.197 31.3 396.65 31.3H396.99V32.66H396.37C395.223 32.66 394.35 32.96 393.75 33.56C393.15 34.1467 392.85 35.0133 392.85 36.16V42H391.35ZM406.617 42L402.357 37.04H400.637L405.657 31.42H407.257L402.757 36.44L402.857 35.62L408.377 42H406.617ZM399.417 42V27.4H400.917V42H399.417ZM413.616 42.3C412.256 42.3 411.209 42.0067 410.476 41.42C409.743 40.82 409.369 40.02 409.356 39.02H410.756C410.783 39.5267 411.009 39.9867 411.436 40.4C411.876 40.8133 412.603 41.02 413.616 41.02C414.563 41.02 415.269 40.8267 415.736 40.44C416.216 40.04 416.456 39.56 416.456 39C416.456 38.48 416.256 38.08 415.856 37.8C415.469 37.5067 414.903 37.32 414.156 37.24L412.956 37.12C411.996 37.0133 411.216 36.72 410.616 36.24C410.029 35.7467 409.736 35.0733 409.736 34.22C409.736 33.5933 409.896 33.0467 410.216 32.58C410.536 32.1133 410.983 31.7533 411.556 31.5C412.143 31.2333 412.829 31.1 413.616 31.1C414.749 31.1 415.669 31.3667 416.376 31.9C417.096 32.4333 417.463 33.1933 417.476 34.18H416.076C416.063 33.6733 415.849 33.2467 415.436 32.9C415.023 32.5533 414.416 32.38 413.616 32.38C412.789 32.38 412.169 32.56 411.756 32.92C411.356 33.28 411.156 33.72 411.156 34.24C411.156 34.68 411.309 35.0467 411.616 35.34C411.923 35.62 412.403 35.7933 413.056 35.86L414.256 35.98C415.323 36.1 416.189 36.4067 416.856 36.9C417.536 37.3933 417.876 38.1 417.876 39.02C417.876 39.6467 417.696 40.2133 417.336 40.72C416.989 41.2133 416.496 41.6 415.856 41.88C415.216 42.16 414.469 42.3 413.616 42.3Z" fill="#404040"/>
</g>
<defs>
<filter id="filter0_ddiiii_1097_2805" x="0" y="0" width="222" height="71" filterUnits="userSpaceOnUse" color-interpolation-filters="sRGB">
<feFlood flood-opacity="0" result="BackgroundImageFix"/>
<feColorMatrix in="SourceAlpha" type="matrix" values="0 0 0 0 0 0 0 0 0 0 0 0 0 0 0 0 0 0 127 0" result="hardAlpha"/>
<feOffset dx="-1" dy="-1"/>
<feGaussianBlur stdDeviation="1"/>
<feColorMatrix type="matrix" values="0 0 0 0 0.568627 0 0 0 0 0.568627 0 0 0 0 0.560784 0 0 0 0.5 0"/>
<feBlend mode="normal" in2="BackgroundImageFix" result="effect1_dropShadow_1097_2805"/>
<feColorMatrix in="SourceAlpha" type="matrix" values="0 0 0 0 0 0 0 0 0 0 0 0 0 0 0 0 0 0 127 0" result="hardAlpha"/>
<feOffset dx="1" dy="1"/>
<feGaussianBlur stdDeviation="1"/>
<feColorMatrix type="matrix" values="0 0 0 0 1 0 0 0 0 1 0 0 0 0 1 0 0 0 0.3 0"/>
<feBlend mode="normal" in2="effect1_dropShadow_1097_2805" result="effect2_dropShadow_1097_2805"/>
<feBlend mode="normal" in="SourceGraphic" in2="effect2_dropShadow_1097_2805" result="shape"/>
<feColorMatrix in="SourceAlpha" type="matrix" values="0 0 0 0 0 0 0 0 0 0 0 0 0 0 0 0 0 0 127 0" result="hardAlpha"/>
<feOffset dx="2" dy="2"/>
<feGaussianBlur stdDeviation="2.5"/>
<feComposite in2="hardAlpha" operator="arithmetic" k2="-1" k3="1"/>
<feColorMatrix type="matrix" values="0 0 0 0 0.568627 0 0 0 0 0.568627 0 0 0 0 0.560784 0 0 0 0.9 0"/>
<feBlend mode="normal" in2="shape" result="effect3_innerShadow_1097_2805"/>
<feColorMatrix in="SourceAlpha" type="matrix" values="0 0 0 0 0 0 0 0 0 0 0 0 0 0 0 0 0 0 127 0" result="hardAlpha"/>
<feOffset dx="-2" dy="-2"/>
<feGaussianBlur stdDeviation="2"/>
<feComposite in2="hardAlpha" operator="arithmetic" k2="-1" k3="1"/>
<feColorMatrix type="matrix" values="0 0 0 0 1 0 0 0 0 1 0 0 0 0 1 0 0 0 0.9 0"/>
<feBlend mode="normal" in2="effect3_innerShadow_1097_2805" result="effect4_innerShadow_1097_2805"/>
<feColorMatrix in="SourceAlpha" type="matrix" values="0 0 0 0 0 0 0 0 0 0 0 0 0 0 0 0 0 0 127 0" result="hardAlpha"/>
<feOffset dx="2" dy="-2"/>
<feGaussianBlur stdDeviation="2"/>
<feComposite in2="hardAlpha" operator="arithmetic" k2="-1" k3="1"/>
<feColorMatrix type="matrix" values="0 0 0 0 0.568627 0 0 0 0 0.568627 0 0 0 0 0.560784 0 0 0 0.2 0"/>
<feBlend mode="normal" in2="effect4_innerShadow_1097_2805" result="effect5_innerShadow_1097_2805"/>
<feColorMatrix in="SourceAlpha" type="matrix" values="0 0 0 0 0 0 0 0 0 0 0 0 0 0 0 0 0 0 127 0" result="hardAlpha"/>
<feOffset dx="-2" dy="2"/>
<feGaussianBlur stdDeviation="2"/>
<feComposite in2="hardAlpha" operator="arithmetic" k2="-1" k3="1"/>
<feColorMatrix type="matrix" values="0 0 0 0 0.568627 0 0 0 0 0.568627 0 0 0 0 0.560784 0 0 0 0.2 0"/>
<feBlend mode="normal" in2="effect5_innerShadow_1097_2805" result="effect6_innerShadow_1097_2805"/>
</filter>
<filter id="filter1_ddiiii_1097_2805" x="231" y="0" width="221" height="71" filterUnits="userSpaceOnUse" color-interpolation-filters="sRGB">
<feFlood flood-opacity="0" result="BackgroundImageFix"/>
<feColorMatrix in="SourceAlpha" type="matrix" values="0 0 0 0 0 0 0 0 0 0 0 0 0 0 0 0 0 0 127 0" result="hardAlpha"/>
<feOffset dx="-1" dy="-1"/>
<feGaussianBlur stdDeviation="1"/>
<feColorMatrix type="matrix" values="0 0 0 0 0.568627 0 0 0 0 0.568627 0 0 0 0 0.560784 0 0 0 0.5 0"/>
<feBlend mode="normal" in2="BackgroundImageFix" result="effect1_dropShadow_1097_2805"/>
<feColorMatrix in="SourceAlpha" type="matrix" values="0 0 0 0 0 0 0 0 0 0 0 0 0 0 0 0 0 0 127 0" result="hardAlpha"/>
<feOffset dx="1" dy="1"/>
<feGaussianBlur stdDeviation="1"/>
<feColorMatrix type="matrix" values="0 0 0 0 1 0 0 0 0 1 0 0 0 0 1 0 0 0 0.3 0"/>
<feBlend mode="normal" in2="effect1_dropShadow_1097_2805" result="effect2_dropShadow_1097_2805"/>
<feBlend mode="normal" in="SourceGraphic" in2="effect2_dropShadow_1097_2805" result="shape"/>
<feColorMatrix in="SourceAlpha" type="matrix" values="0 0 0 0 0 0 0 0 0 0 0 0 0 0 0 0 0 0 127 0" result="hardAlpha"/>
<feOffset dx="2" dy="2"/>
<feGaussianBlur stdDeviation="2.5"/>
<feComposite in2="hardAlpha" operator="arithmetic" k2="-1" k3="1"/>
<feColorMatrix type="matrix" values="0 0 0 0 0.568627 0 0 0 0 0.568627 0 0 0 0 0.560784 0 0 0 0.9 0"/>
<feBlend mode="normal" in2="shape" result="effect3_innerShadow_1097_2805"/>
<feColorMatrix in="SourceAlpha" type="matrix" values="0 0 0 0 0 0 0 0 0 0 0 0 0 0 0 0 0 0 127 0" result="hardAlpha"/>
<feOffset dx="-2" dy="-2"/>
<feGaussianBlur stdDeviation="2"/>
<feComposite in2="hardAlpha" operator="arithmetic" k2="-1" k3="1"/>
<feColorMatrix type="matrix" values="0 0 0 0 1 0 0 0 0 1 0 0 0 0 1 0 0 0 0.9 0"/>
<feBlend mode="normal" in2="effect3_innerShadow_1097_2805" result="effect4_innerShadow_1097_2805"/>
<feColorMatrix in="SourceAlpha" type="matrix" values="0 0 0 0 0 0 0 0 0 0 0 0 0 0 0 0 0 0 127 0" result="hardAlpha"/>
<feOffset dx="2" dy="-2"/>
<feGaussianBlur stdDeviation="2"/>
<feComposite in2="hardAlpha" operator="arithmetic" k2="-1" k3="1"/>
<feColorMatrix type="matrix" values="0 0 0 0 0.568627 0 0 0 0 0.568627 0 0 0 0 0.560784 0 0 0 0.2 0"/>
<feBlend mode="normal" in2="effect4_innerShadow_1097_2805" result="effect5_innerShadow_1097_2805"/>
<feColorMatrix in="SourceAlpha" type="matrix" values="0 0 0 0 0 0 0 0 0 0 0 0 0 0 0 0 0 0 127 0" result="hardAlpha"/>
<feOffset dx="-2" dy="2"/>
<feGaussianBlur stdDeviation="2"/>
<feComposite in2="hardAlpha" operator="arithmetic" k2="-1" k3="1"/>
<feColorMatrix type="matrix" values="0 0 0 0 0.568627 0 0 0 0 0.568627 0 0 0 0 0.560784 0 0 0 0.2 0"/>
<feBlend mode="normal" in2="effect5_innerShadow_1097_2805" result="effect6_innerShadow_1097_2805"/>
</filter>
<radialGradient id="paint0_radial_1097_2805" cx="0" cy="0" r="1" gradientUnits="userSpaceOnUse" gradientTransform="translate(111 35.5) rotate(90) scale(27.5 103)">
<stop stop-color="#5A69EA"/>
<stop offset="1" stop-color="#BF8BCA"/>
</radialGradient>
</defs>
</svg>
