<svg width="536" height="150" viewBox="0 0 536 150" fill="none" xmlns="http://www.w3.org/2000/svg">
<path d="M5.472 46V10.96H9.12V46H5.472ZM8.256 46V42.688H25.776V46H8.256ZM8.256 29.824V26.56H24.144V29.824H8.256ZM8.256 14.272V10.96H25.248V14.272H8.256ZM31.725 34.192V31.12H48.573V34.192H31.725ZM67.5319 46.816C65.3879 46.816 63.5159 46.448 61.9159 45.712C60.3479 44.944 59.0359 43.92 57.9799 42.64C56.9239 41.328 56.1239 39.888 55.5799 38.32C55.0679 36.752 54.8119 35.168 54.8119 33.568V32.896C54.8119 31.264 55.0679 29.68 55.5799 28.144C56.1239 26.576 56.9239 25.168 57.9799 23.92C59.0359 22.64 60.3479 21.632 61.9159 20.896C63.5159 20.128 65.3559 19.744 67.4359 19.744C69.5479 19.744 71.4199 20.128 73.0519 20.896C74.7159 21.664 76.0599 22.752 77.0839 24.16C78.1079 25.568 78.7159 27.232 78.9079 29.152H75.4519C75.1639 27.392 74.3319 25.936 72.9559 24.784C71.6119 23.6 69.7719 23.008 67.4359 23.008C65.4199 23.008 63.7399 23.472 62.3959 24.4C61.0839 25.296 60.0919 26.528 59.4199 28.096C58.7479 29.632 58.4119 31.344 58.4119 33.232C58.4119 35.088 58.7479 36.816 59.4199 38.416C60.0919 39.984 61.0999 41.248 62.4439 42.208C63.7879 43.136 65.4839 43.6 67.5319 43.6C69.0999 43.6 70.4599 43.328 71.6119 42.784C72.7959 42.208 73.7399 41.44 74.4439 40.48C75.1799 39.52 75.6119 38.464 75.7399 37.312H79.1959C79.0679 39.232 78.4599 40.912 77.3719 42.352C76.3159 43.76 74.9399 44.864 73.2439 45.664C71.5479 46.432 69.6439 46.816 67.5319 46.816ZM97.1726 46.816C94.9966 46.816 93.0766 46.448 91.4126 45.712C89.7806 44.944 88.3886 43.936 87.2366 42.688C86.1166 41.408 85.2526 39.984 84.6446 38.416C84.0686 36.848 83.7806 35.248 83.7806 33.616V32.944C83.7806 31.312 84.0846 29.712 84.6926 28.144C85.3006 26.544 86.1806 25.12 87.3326 23.872C88.4846 22.624 89.8766 21.632 91.5086 20.896C93.1726 20.128 95.0606 19.744 97.1726 19.744C99.3166 19.744 101.205 20.128 102.837 20.896C104.501 21.632 105.909 22.624 107.061 23.872C108.213 25.12 109.077 26.544 109.653 28.144C110.261 29.712 110.565 31.312 110.565 32.944V33.616C110.565 35.248 110.277 36.848 109.701 38.416C109.125 39.984 108.261 41.408 107.109 42.688C105.989 43.936 104.597 44.944 102.933 45.712C101.269 46.448 99.3486 46.816 97.1726 46.816ZM97.1726 43.6C99.2846 43.6 101.061 43.136 102.501 42.208C103.973 41.248 105.093 40 105.861 38.464C106.629 36.896 107.013 35.168 107.013 33.28C107.013 31.36 106.613 29.632 105.813 28.096C105.045 26.528 103.925 25.296 102.453 24.4C100.981 23.472 99.2206 23.008 97.1726 23.008C95.1566 23.008 93.4126 23.472 91.9406 24.4C90.4686 25.296 89.3326 26.528 88.5326 28.096C87.7646 29.632 87.3806 31.36 87.3806 33.28C87.3806 35.168 87.7646 36.896 88.5326 38.464C89.3006 40 90.4046 41.248 91.8446 42.208C93.3166 43.136 95.0926 43.6 97.1726 43.6ZM117.906 46V20.56H120.786V31.264H120.21C120.21 28.928 120.53 26.912 121.17 25.216C121.842 23.52 122.834 22.208 124.146 21.28C125.458 20.32 127.122 19.84 129.138 19.84H129.282C131.298 19.84 132.962 20.304 134.274 21.232C135.586 22.16 136.562 23.472 137.202 25.168C137.842 26.864 138.162 28.896 138.162 31.264H137.01C137.01 28.928 137.33 26.912 137.97 25.216C138.642 23.52 139.634 22.208 140.946 21.28C142.29 20.32 143.97 19.84 145.986 19.84H146.13C148.146 19.84 149.81 20.304 151.122 21.232C152.466 22.16 153.458 23.472 154.098 25.168C154.77 26.864 155.106 28.896 155.106 31.264V46H151.506V30.448C151.506 28.208 150.962 26.432 149.874 25.12C148.786 23.808 147.218 23.152 145.17 23.152C143.058 23.152 141.378 23.84 140.13 25.216C138.914 26.56 138.306 28.384 138.306 30.688V46H134.706V30.448C134.706 28.208 134.162 26.432 133.074 25.12C131.986 23.808 130.418 23.152 128.37 23.152C126.258 23.152 124.578 23.84 123.33 25.216C122.114 26.56 121.506 28.384 121.506 30.688V46H117.906ZM164.078 46V20.56H166.958V31.264H166.382C166.382 28.928 166.702 26.912 167.342 25.216C168.014 23.52 169.006 22.208 170.318 21.28C171.63 20.32 173.294 19.84 175.31 19.84H175.454C177.47 19.84 179.134 20.304 180.446 21.232C181.758 22.16 182.734 23.472 183.374 25.168C184.014 26.864 184.334 28.896 184.334 31.264H183.182C183.182 28.928 183.502 26.912 184.142 25.216C184.814 23.52 185.806 22.208 187.118 21.28C188.462 20.32 190.142 19.84 192.158 19.84H192.302C194.318 19.84 195.982 20.304 197.294 21.232C198.638 22.16 199.63 23.472 200.27 25.168C200.942 26.864 201.278 28.896 201.278 31.264V46H197.678V30.448C197.678 28.208 197.134 26.432 196.046 25.12C194.958 23.808 193.39 23.152 191.342 23.152C189.23 23.152 187.55 23.84 186.302 25.216C185.086 26.56 184.478 28.384 184.478 30.688V46H180.878V30.448C180.878 28.208 180.334 26.432 179.246 25.12C178.158 23.808 176.59 23.152 174.542 23.152C172.43 23.152 170.75 23.84 169.502 25.216C168.286 26.56 167.678 28.384 167.678 30.688V46H164.078ZM220.858 46.816C218.682 46.816 216.794 46.448 215.194 45.712C213.594 44.944 212.282 43.936 211.258 42.688C210.234 41.408 209.466 39.984 208.954 38.416C208.474 36.848 208.234 35.232 208.234 33.568V32.896C208.234 31.264 208.474 29.664 208.954 28.096C209.466 26.528 210.234 25.12 211.258 23.872C212.282 22.624 213.562 21.632 215.098 20.896C216.666 20.128 218.49 19.744 220.57 19.744C223.226 19.744 225.434 20.336 227.194 21.52C228.986 22.704 230.33 24.224 231.226 26.08C232.122 27.904 232.57 29.872 232.57 31.984V33.856H209.866V31.072H230.074L229.162 32.464C229.162 30.576 228.826 28.928 228.154 27.52C227.514 26.08 226.554 24.96 225.274 24.16C224.026 23.328 222.458 22.912 220.57 22.912C218.586 22.912 216.938 23.376 215.626 24.304C214.314 25.232 213.322 26.464 212.65 28C212.01 29.536 211.69 31.28 211.69 33.232C211.69 35.152 212.01 36.912 212.65 38.512C213.322 40.08 214.33 41.328 215.674 42.256C217.05 43.184 218.778 43.648 220.858 43.648C223.066 43.648 224.858 43.152 226.234 42.16C227.61 41.136 228.458 39.936 228.778 38.56H232.138C231.818 40.256 231.146 41.728 230.122 42.976C229.098 44.192 227.802 45.136 226.234 45.808C224.666 46.48 222.874 46.816 220.858 46.816ZM239.5 46V20.608H242.38V31.216H242.092C242.092 27.504 242.908 24.768 244.54 23.008C246.172 21.216 248.732 20.32 252.22 20.32H253.036V23.584H251.548C248.796 23.584 246.7 24.304 245.26 25.744C243.82 27.152 243.1 29.232 243.1 31.984V46H239.5ZM269.235 46.816C267.091 46.816 265.219 46.448 263.619 45.712C262.051 44.944 260.739 43.92 259.683 42.64C258.627 41.328 257.827 39.888 257.283 38.32C256.771 36.752 256.515 35.168 256.515 33.568V32.896C256.515 31.264 256.771 29.68 257.283 28.144C257.827 26.576 258.627 25.168 259.683 23.92C260.739 22.64 262.051 21.632 263.619 20.896C265.219 20.128 267.059 19.744 269.139 19.744C271.251 19.744 273.123 20.128 274.755 20.896C276.419 21.664 277.763 22.752 278.787 24.16C279.811 25.568 280.419 27.232 280.611 29.152H277.155C276.867 27.392 276.035 25.936 274.659 24.784C273.315 23.6 271.475 23.008 269.139 23.008C267.123 23.008 265.443 23.472 264.099 24.4C262.787 25.296 261.795 26.528 261.123 28.096C260.451 29.632 260.115 31.344 260.115 33.232C260.115 35.088 260.451 36.816 261.123 38.416C261.795 39.984 262.803 41.248 264.147 42.208C265.491 43.136 267.187 43.6 269.235 43.6C270.803 43.6 272.163 43.328 273.315 42.784C274.499 42.208 275.443 41.44 276.147 40.48C276.883 39.52 277.315 38.464 277.443 37.312H280.899C280.771 39.232 280.163 40.912 279.075 42.352C278.019 43.76 276.643 44.864 274.947 45.664C273.251 46.432 271.347 46.816 269.235 46.816ZM298.108 46.816C295.932 46.816 294.044 46.448 292.444 45.712C290.844 44.944 289.532 43.936 288.508 42.688C287.484 41.408 286.716 39.984 286.204 38.416C285.724 36.848 285.484 35.232 285.484 33.568V32.896C285.484 31.264 285.724 29.664 286.204 28.096C286.716 26.528 287.484 25.12 288.508 23.872C289.532 22.624 290.812 21.632 292.348 20.896C293.916 20.128 295.74 19.744 297.82 19.744C300.476 19.744 302.684 20.336 304.444 21.52C306.236 22.704 307.58 24.224 308.476 26.08C309.372 27.904 309.82 29.872 309.82 31.984V33.856H287.116V31.072H307.324L306.412 32.464C306.412 30.576 306.076 28.928 305.404 27.52C304.764 26.08 303.804 24.96 302.524 24.16C301.276 23.328 299.708 22.912 297.82 22.912C295.836 22.912 294.188 23.376 292.876 24.304C291.564 25.232 290.572 26.464 289.9 28C289.26 29.536 288.94 31.28 288.94 33.232C288.94 35.152 289.26 36.912 289.9 38.512C290.572 40.08 291.58 41.328 292.924 42.256C294.3 43.184 296.028 43.648 298.108 43.648C300.316 43.648 302.108 43.152 303.484 42.16C304.86 41.136 305.708 39.936 306.028 38.56H309.388C309.068 40.256 308.396 41.728 307.372 42.976C306.348 44.192 305.052 45.136 303.484 45.808C301.916 46.48 300.124 46.816 298.108 46.816ZM334.577 46L324.881 10.96H328.625L337.409 43.648L335.729 42.688H340.385L338.561 43.648L345.713 12.496H349.169L341.297 46H334.577ZM355.649 46L347.009 12.496H350.561L358.529 43.648L356.753 42.688H361.505L359.681 43.648L367.601 10.96H371.249L362.369 46H355.649ZM387.077 46.816C384.901 46.816 383.013 46.448 381.413 45.712C379.813 44.944 378.501 43.936 377.477 42.688C376.453 41.408 375.685 39.984 375.173 38.416C374.693 36.848 374.453 35.232 374.453 33.568V32.896C374.453 31.264 374.693 29.664 375.173 28.096C375.685 26.528 376.453 25.12 377.477 23.872C378.501 22.624 379.781 21.632 381.317 20.896C382.885 20.128 384.709 19.744 386.789 19.744C389.445 19.744 391.653 20.336 393.413 21.52C395.205 22.704 396.549 24.224 397.445 26.08C398.341 27.904 398.789 29.872 398.789 31.984V33.856H376.085V31.072H396.293L395.381 32.464C395.381 30.576 395.045 28.928 394.373 27.52C393.733 26.08 392.773 24.96 391.493 24.16C390.245 23.328 388.677 22.912 386.789 22.912C384.805 22.912 383.157 23.376 381.845 24.304C380.533 25.232 379.541 26.464 378.868 28C378.229 29.536 377.909 31.28 377.909 33.232C377.909 35.152 378.229 36.912 378.868 38.512C379.541 40.08 380.549 41.328 381.893 42.256C383.269 43.184 384.997 43.648 387.077 43.648C389.285 43.648 391.077 43.152 392.453 42.16C393.829 41.136 394.677 39.936 394.997 38.56H398.357C398.037 40.256 397.365 41.728 396.341 42.976C395.317 44.192 394.021 45.136 392.453 45.808C390.885 46.48 389.093 46.816 387.077 46.816ZM418.823 46.816C416.583 46.816 414.615 46.32 412.919 45.328C411.255 44.336 409.943 42.944 408.983 41.152C408.055 39.36 407.559 37.296 407.495 34.96H408.599V46H405.719V10.96H409.319V28.48L407.927 31.696C407.991 29.136 408.503 26.976 409.463 25.216C410.455 23.424 411.767 22.064 413.398 21.136C415.063 20.208 416.951 19.744 419.063 19.744C420.919 19.744 422.599 20.096 424.103 20.8C425.607 21.504 426.887 22.464 427.943 23.68C429.031 24.896 429.847 26.304 430.391 27.904C430.967 29.472 431.255 31.136 431.255 32.896V33.568C431.255 35.296 430.967 36.96 430.391 38.56C429.815 40.128 428.983 41.536 427.895 42.784C426.839 44.032 425.543 45.024 424.007 45.76C422.471 46.464 420.743 46.816 418.823 46.816ZM418.439 43.648C420.359 43.648 422.007 43.184 423.383 42.256C424.759 41.328 425.815 40.08 426.551 38.512C427.287 36.944 427.655 35.184 427.655 33.232C427.655 31.248 427.271 29.488 426.503 27.952C425.767 26.384 424.695 25.152 423.287 24.256C421.911 23.36 420.295 22.912 418.439 22.912C416.711 22.912 415.143 23.296 413.734 24.064C412.327 24.832 411.207 25.92 410.375 27.328C409.575 28.704 409.175 30.336 409.175 32.224V34.576C409.175 36.368 409.575 37.952 410.375 39.328C411.207 40.672 412.327 41.728 413.734 42.496C415.143 43.264 416.711 43.648 418.439 43.648ZM446.547 46.72C443.283 46.72 440.771 46.016 439.011 44.608C437.251 43.168 436.355 41.248 436.323 38.848H439.683C439.747 40.064 440.291 41.168 441.315 42.16C442.371 43.152 444.115 43.648 446.547 43.648C448.819 43.648 450.515 43.184 451.635 42.256C452.787 41.296 453.363 40.144 453.363 38.8C453.363 37.552 452.883 36.592 451.923 35.92C450.995 35.216 449.635 34.768 447.843 34.576L444.963 34.288C442.659 34.032 440.787 33.328 439.347 32.176C437.939 30.992 437.235 29.376 437.235 27.328C437.235 25.824 437.619 24.512 438.387 23.392C439.155 22.272 440.227 21.408 441.603 20.8C443.011 20.16 444.659 19.84 446.547 19.84C449.267 19.84 451.475 20.48 453.171 21.76C454.899 23.04 455.779 24.864 455.811 27.232H452.451C452.419 26.016 451.907 24.992 450.915 24.16C449.923 23.328 448.467 22.912 446.547 22.912C444.563 22.912 443.075 23.344 442.083 24.208C441.123 25.072 440.643 26.128 440.643 27.376C440.643 28.432 441.011 29.312 441.747 30.016C442.483 30.688 443.635 31.104 445.203 31.264L448.083 31.552C450.643 31.84 452.723 32.576 454.323 33.76C455.955 34.944 456.771 36.64 456.771 38.848C456.771 40.352 456.339 41.712 455.475 42.928C454.643 44.112 453.459 45.04 451.923 45.712C450.387 46.384 448.595 46.72 446.547 46.72ZM465.281 46V20.608H468.833V46H465.281ZM461.201 23.488V20.608H468.833V23.488H461.201ZM466.049 15.904C465.185 15.904 464.529 15.68 464.081 15.232C463.665 14.752 463.457 14.16 463.457 13.456C463.457 12.752 463.665 12.176 464.081 11.728C464.529 11.248 465.185 11.008 466.049 11.008C466.913 11.008 467.553 11.248 467.969 11.728C468.385 12.176 468.593 12.752 468.593 13.456C468.593 14.16 468.385 14.752 467.969 15.232C467.553 15.68 466.913 15.904 466.049 15.904ZM487.497 46.288C485.737 46.288 484.217 46.032 482.937 45.52C481.657 45.008 480.665 44.144 479.961 42.928C479.257 41.68 478.905 40.016 478.905 37.936V12.592H482.361V38.464C482.361 39.936 482.761 41.072 483.561 41.872C484.361 42.64 485.497 43.024 486.969 43.024H491.529V46.288H487.497ZM474.345 23.344V20.608H491.529V23.344H474.345ZM508.858 46.816C506.682 46.816 504.794 46.448 503.194 45.712C501.594 44.944 500.282 43.936 499.258 42.688C498.234 41.408 497.466 39.984 496.954 38.416C496.474 36.848 496.234 35.232 496.234 33.568V32.896C496.234 31.264 496.474 29.664 496.954 28.096C497.466 26.528 498.234 25.12 499.258 23.872C500.282 22.624 501.562 21.632 503.098 20.896C504.666 20.128 506.49 19.744 508.57 19.744C511.226 19.744 513.434 20.336 515.194 21.52C516.986 22.704 518.33 24.224 519.226 26.08C520.122 27.904 520.57 29.872 520.57 31.984V33.856H497.866V31.072H518.074L517.162 32.464C517.162 30.576 516.826 28.928 516.154 27.52C515.514 26.08 514.554 24.96 513.274 24.16C512.026 23.328 510.458 22.912 508.57 22.912C506.586 22.912 504.938 23.376 503.626 24.304C502.314 25.232 501.322 26.464 500.65 28C500.01 29.536 499.69 31.28 499.69 33.232C499.69 35.152 500.01 36.912 500.65 38.512C501.322 40.08 502.33 41.328 503.674 42.256C505.05 43.184 506.778 43.648 508.858 43.648C511.066 43.648 512.858 43.152 514.234 42.16C515.61 41.136 516.458 39.936 516.778 38.56H520.138C519.818 40.256 519.146 41.728 518.122 42.976C517.098 44.192 515.802 45.136 514.234 45.808C512.666 46.48 510.874 46.816 508.858 46.816Z" fill="#0D0D0D"/>
<path d="M8.16 106.192V102.832H17.712C20.08 102.832 22.144 102.448 23.904 101.68C25.696 100.912 27.2 99.872 28.416 98.56C29.632 97.216 30.544 95.68 31.152 93.952C31.76 92.224 32.064 90.384 32.064 88.432C32.064 86.416 31.744 84.544 31.104 82.816C30.496 81.088 29.584 79.568 28.368 78.256C27.152 76.944 25.648 75.936 23.856 75.232C22.096 74.528 20.048 74.176 17.712 74.176H8.16V70.816H17.328C20.464 70.816 23.184 71.296 25.488 72.256C27.792 73.216 29.712 74.528 31.248 76.192C32.784 77.824 33.92 79.664 34.656 81.712C35.392 83.76 35.76 85.84 35.76 87.952V88.864C35.76 90.944 35.392 93.008 34.656 95.056C33.92 97.104 32.8 98.976 31.296 100.672C29.792 102.336 27.872 103.68 25.536 104.704C23.232 105.696 20.496 106.192 17.328 106.192H8.16ZM5.472 106.192V70.816H9.12V106.192H5.472ZM53.4203 106.816C51.2443 106.816 49.3563 106.448 47.7563 105.712C46.1563 104.944 44.8443 103.936 43.8203 102.688C42.7963 101.408 42.0283 99.984 41.5163 98.416C41.0363 96.848 40.7963 95.232 40.7963 93.568V92.896C40.7963 91.264 41.0363 89.664 41.5163 88.096C42.0283 86.528 42.7963 85.12 43.8203 83.872C44.8443 82.624 46.1243 81.632 47.6603 80.896C49.2283 80.128 51.0523 79.744 53.1323 79.744C55.7883 79.744 57.9963 80.336 59.7563 81.52C61.5483 82.704 62.8923 84.224 63.7883 86.08C64.6843 87.904 65.1323 89.872 65.1323 91.984V93.856H42.4283V91.072H62.6363L61.7243 92.464C61.7243 90.576 61.3883 88.928 60.7163 87.52C60.0763 86.08 59.1163 84.96 57.8363 84.16C56.5883 83.328 55.0203 82.912 53.1323 82.912C51.1483 82.912 49.5003 83.376 48.1883 84.304C46.8763 85.232 45.8843 86.464 45.2122 88C44.5723 89.536 44.2523 91.28 44.2523 93.232C44.2523 95.152 44.5723 96.912 45.2122 98.512C45.8843 100.08 46.8923 101.328 48.2363 102.256C49.6123 103.184 51.3403 103.648 53.4203 103.648C55.6283 103.648 57.4203 103.152 58.7963 102.16C60.1723 101.136 61.0203 99.936 61.3403 98.56H64.7003C64.3803 100.256 63.7083 101.728 62.6843 102.976C61.6603 104.192 60.3643 105.136 58.7963 105.808C57.2283 106.48 55.4363 106.816 53.4203 106.816ZM77.5388 106L68.6108 80.608H72.3068L81.1388 106H77.5388ZM78.4988 106V103.072H83.0588V106H78.4988ZM80.4668 106L88.1948 80.608H91.7468L83.8748 106H80.4668ZM108.311 106.816C106.135 106.816 104.247 106.448 102.647 105.712C101.047 104.944 99.7349 103.936 98.7109 102.688C97.6869 101.408 96.9189 99.984 96.4069 98.416C95.9269 96.848 95.6869 95.232 95.6869 93.568V92.896C95.6869 91.264 95.9269 89.664 96.4069 88.096C96.9189 86.528 97.6869 85.12 98.7109 83.872C99.7349 82.624 101.015 81.632 102.551 80.896C104.119 80.128 105.943 79.744 108.023 79.744C110.679 79.744 112.887 80.336 114.647 81.52C116.439 82.704 117.783 84.224 118.679 86.08C119.575 87.904 120.023 89.872 120.023 91.984V93.856H97.3189V91.072H117.527L116.615 92.464C116.615 90.576 116.279 88.928 115.607 87.52C114.967 86.08 114.007 84.96 112.727 84.16C111.479 83.328 109.911 82.912 108.023 82.912C106.039 82.912 104.391 83.376 103.079 84.304C101.767 85.232 100.775 86.464 100.103 88C99.4629 89.536 99.1429 91.28 99.1429 93.232C99.1429 95.152 99.4629 96.912 100.103 98.512C100.775 100.08 101.783 101.328 103.127 102.256C104.503 103.184 106.231 103.648 108.311 103.648C110.519 103.648 112.311 103.152 113.687 102.16C115.063 101.136 115.911 99.936 116.231 98.56H119.591C119.271 100.256 118.599 101.728 117.575 102.976C116.551 104.192 115.255 105.136 113.687 105.808C112.119 106.48 110.327 106.816 108.311 106.816ZM127.193 106V70.96H130.793V106H127.193ZM123.497 73.888V70.96H130.793V73.888H123.497ZM151.501 106.816C149.325 106.816 147.405 106.448 145.741 105.712C144.109 104.944 142.717 103.936 141.565 102.688C140.445 101.408 139.581 99.984 138.973 98.416C138.397 96.848 138.109 95.248 138.109 93.616V92.944C138.109 91.312 138.413 89.712 139.021 88.144C139.629 86.544 140.509 85.12 141.661 83.872C142.813 82.624 144.205 81.632 145.837 80.896C147.501 80.128 149.389 79.744 151.501 79.744C153.645 79.744 155.533 80.128 157.165 80.896C158.829 81.632 160.237 82.624 161.389 83.872C162.541 85.12 163.405 86.544 163.981 88.144C164.589 89.712 164.893 91.312 164.893 92.944V93.616C164.893 95.248 164.605 96.848 164.029 98.416C163.453 99.984 162.589 101.408 161.437 102.688C160.317 103.936 158.925 104.944 157.261 105.712C155.597 106.448 153.677 106.816 151.501 106.816ZM151.501 103.6C153.613 103.6 155.389 103.136 156.829 102.208C158.301 101.248 159.421 100 160.189 98.464C160.957 96.896 161.341 95.168 161.341 93.28C161.341 91.36 160.941 89.632 160.141 88.096C159.373 86.528 158.253 85.296 156.781 84.4C155.309 83.472 153.549 83.008 151.501 83.008C149.485 83.008 147.741 83.472 146.269 84.4C144.797 85.296 143.661 86.528 142.861 88.096C142.093 89.632 141.709 91.36 141.709 93.28C141.709 95.168 142.093 96.896 142.861 98.464C143.629 100 144.733 101.248 146.173 102.208C147.645 103.136 149.421 103.6 151.501 103.6ZM172.234 115.6V80.608H175.114V91.504L174.25 91.6C174.378 89.04 174.922 86.88 175.882 85.12C176.874 83.36 178.202 82.032 179.866 81.136C181.562 80.208 183.45 79.744 185.53 79.744C187.386 79.744 189.066 80.112 190.57 80.848C192.106 81.552 193.402 82.528 194.458 83.776C195.546 84.992 196.362 86.4 196.906 88C197.482 89.568 197.77 91.216 197.77 92.944V93.616C197.77 95.344 197.482 97.008 196.906 98.608C196.33 100.176 195.498 101.584 194.41 102.832C193.354 104.048 192.058 105.024 190.522 105.76C189.018 106.464 187.322 106.816 185.434 106.816C183.418 106.816 181.562 106.368 179.866 105.472C178.202 104.544 176.842 103.184 175.786 101.392C174.762 99.6 174.202 97.392 174.106 94.768L175.834 98.368V115.6H172.234ZM184.954 103.648C186.874 103.648 188.522 103.2 189.898 102.304C191.274 101.376 192.33 100.128 193.066 98.56C193.802 96.96 194.17 95.2 194.17 93.28C194.17 91.296 193.786 89.536 193.018 88C192.282 86.432 191.226 85.2 189.85 84.304C188.474 83.376 186.842 82.912 184.954 82.912C183.226 82.912 181.658 83.296 180.25 84.064C178.842 84.832 177.722 85.92 176.89 87.328C176.09 88.704 175.69 90.336 175.69 92.224V94.576C175.69 96.368 176.09 97.952 176.89 99.328C177.722 100.672 178.842 101.728 180.25 102.496C181.658 103.264 183.226 103.648 184.954 103.648ZM205.047 106V80.56H207.927V91.264H207.351C207.351 88.928 207.671 86.912 208.311 85.216C208.983 83.52 209.975 82.208 211.287 81.28C212.599 80.32 214.263 79.84 216.279 79.84H216.423C218.439 79.84 220.103 80.304 221.415 81.232C222.727 82.16 223.703 83.472 224.343 85.168C224.983 86.864 225.303 88.896 225.303 91.264H224.151C224.151 88.928 224.471 86.912 225.111 85.216C225.783 83.52 226.775 82.208 228.087 81.28C229.431 80.32 231.111 79.84 233.127 79.84H233.271C235.287 79.84 236.951 80.304 238.263 81.232C239.607 82.16 240.599 83.472 241.239 85.168C241.911 86.864 242.247 88.896 242.247 91.264V106H238.647V90.448C238.647 88.208 238.103 86.432 237.015 85.12C235.927 83.808 234.359 83.152 232.311 83.152C230.199 83.152 228.519 83.84 227.271 85.216C226.055 86.56 225.447 88.384 225.447 90.688V106H221.847V90.448C221.847 88.208 221.303 86.432 220.215 85.12C219.127 83.808 217.559 83.152 215.511 83.152C213.399 83.152 211.719 83.84 210.471 85.216C209.255 86.56 208.647 88.384 208.647 90.688V106H205.047ZM261.827 106.816C259.651 106.816 257.763 106.448 256.163 105.712C254.563 104.944 253.251 103.936 252.227 102.688C251.203 101.408 250.435 99.984 249.923 98.416C249.443 96.848 249.203 95.232 249.203 93.568V92.896C249.203 91.264 249.443 89.664 249.923 88.096C250.435 86.528 251.203 85.12 252.227 83.872C253.251 82.624 254.531 81.632 256.067 80.896C257.635 80.128 259.459 79.744 261.539 79.744C264.195 79.744 266.403 80.336 268.163 81.52C269.955 82.704 271.299 84.224 272.195 86.08C273.091 87.904 273.539 89.872 273.539 91.984V93.856H250.835V91.072H271.043L270.131 92.464C270.131 90.576 269.795 88.928 269.123 87.52C268.483 86.08 267.523 84.96 266.243 84.16C264.995 83.328 263.427 82.912 261.539 82.912C259.555 82.912 257.907 83.376 256.595 84.304C255.283 85.232 254.291 86.464 253.618 88C252.979 89.536 252.659 91.28 252.659 93.232C252.659 95.152 252.979 96.912 253.618 98.512C254.291 100.08 255.299 101.328 256.643 102.256C258.019 103.184 259.747 103.648 261.827 103.648C264.035 103.648 265.827 103.152 267.203 102.16C268.579 101.136 269.427 99.936 269.747 98.56H273.107C272.787 100.256 272.115 101.728 271.091 102.976C270.067 104.192 268.771 105.136 267.203 105.808C265.635 106.48 263.843 106.816 261.827 106.816ZM280.469 106V80.608H283.349V91.264H282.773C282.773 88.896 283.125 86.864 283.829 85.168C284.533 83.472 285.589 82.16 286.997 81.232C288.405 80.304 290.181 79.84 292.325 79.84H292.469C295.669 79.84 298.053 80.848 299.621 82.864C301.189 84.848 301.973 87.648 301.973 91.264V106H298.421V90.496C298.421 88.288 297.813 86.512 296.597 85.168C295.381 83.824 293.685 83.152 291.509 83.152C289.269 83.152 287.461 83.856 286.085 85.264C284.741 86.64 284.069 88.464 284.069 90.736V106H280.469ZM320.153 106.288C318.393 106.288 316.873 106.032 315.593 105.52C314.313 105.008 313.321 104.144 312.617 102.928C311.913 101.68 311.561 100.016 311.561 97.936V72.592H315.017V98.464C315.017 99.936 315.417 101.072 316.217 101.872C317.017 102.64 318.153 103.024 319.625 103.024H324.185V106.288H320.153ZM307.001 83.344V80.608H324.185V83.344H307.001Z" fill="url(#paint0_radial_1063_862)"/>
<path d="M3.888 143L10.488 125.48H13.08L19.896 143H18.552L12.048 126.224L12.84 126.656H10.656L11.472 126.224L5.184 143H3.888ZM7.032 137.096L7.488 135.92H16.176L16.632 137.096H7.032ZM32.7713 143.36C31.2033 143.36 29.9953 143 29.1473 142.28C28.3153 141.56 27.8913 140.64 27.8753 139.52H29.1233C29.1233 140.24 29.4033 140.872 29.9633 141.416C30.5393 141.944 31.4753 142.208 32.7713 142.208C34.0353 142.208 34.9633 141.944 35.5553 141.416C36.1473 140.872 36.4433 140.232 36.4433 139.496C36.4433 138.776 36.1713 138.224 35.6273 137.84C35.0993 137.456 34.3793 137.216 33.4673 137.12L31.9793 136.952C30.8753 136.824 29.9953 136.48 29.3393 135.92C28.6993 135.36 28.3793 134.6 28.3793 133.64C28.3793 132.952 28.5553 132.336 28.9073 131.792C29.2593 131.248 29.7633 130.816 30.4193 130.496C31.0913 130.176 31.8753 130.016 32.7713 130.016C34.0833 130.016 35.1393 130.336 35.9393 130.976C36.7553 131.616 37.1713 132.488 37.1873 133.592H35.9393C35.9553 132.904 35.6833 132.328 35.1233 131.864C34.5793 131.4 33.7953 131.168 32.7713 131.168C31.6993 131.168 30.8993 131.416 30.3713 131.912C29.8593 132.408 29.6033 132.992 29.6033 133.664C29.6033 134.224 29.8033 134.704 30.2033 135.104C30.6193 135.504 31.2433 135.752 32.0753 135.848L33.5633 136.016C34.7473 136.128 35.7233 136.472 36.4913 137.048C37.2753 137.624 37.6673 138.448 37.6673 139.52C37.6673 140.24 37.4673 140.888 37.0673 141.464C36.6833 142.04 36.1313 142.504 35.4113 142.856C34.6913 143.192 33.8113 143.36 32.7713 143.36ZM45.7658 143.12C44.9818 143.12 44.2938 143.008 43.7018 142.784C43.1098 142.544 42.6538 142.144 42.3338 141.584C42.0138 141.024 41.8538 140.272 41.8538 139.328V126.296H43.1018V139.544C43.1018 140.312 43.3098 140.912 43.7258 141.344C44.1578 141.76 44.7498 141.968 45.5018 141.968H47.8538V143.12H45.7658ZM39.4538 131.432V130.4H47.8538V131.432H39.4538ZM56.9284 143.408C55.8724 143.408 54.9364 143.216 54.1204 142.832C53.3044 142.448 52.6164 141.944 52.0564 141.32C51.5124 140.696 51.0964 140 50.8084 139.232C50.5364 138.448 50.4004 137.648 50.4004 136.832V136.592C50.4004 135.76 50.5444 134.952 50.8324 134.168C51.1204 133.384 51.5444 132.68 52.1044 132.056C52.6644 131.432 53.3444 130.936 54.1444 130.568C54.9604 130.2 55.8884 130.016 56.9284 130.016C57.9524 130.016 58.8644 130.2 59.6644 130.568C60.4804 130.936 61.1684 131.432 61.7284 132.056C62.2884 132.68 62.7124 133.384 63.0004 134.168C63.3044 134.952 63.4564 135.76 63.4564 136.592V136.832C63.4564 137.648 63.3124 138.448 63.0244 139.232C62.7364 140 62.3124 140.696 61.7524 141.32C61.2084 141.944 60.5284 142.448 59.7124 142.832C58.9124 143.216 57.9844 143.408 56.9284 143.408ZM56.9284 142.232C58.0484 142.232 58.9924 141.976 59.7604 141.464C60.5444 140.952 61.1364 140.28 61.5364 139.448C61.9524 138.6 62.1604 137.688 62.1604 136.712C62.1604 135.704 61.9524 134.784 61.5364 133.952C61.1204 133.104 60.5204 132.432 59.7364 131.936C58.9684 131.424 58.0324 131.168 56.9284 131.168C55.8404 131.168 54.8964 131.424 54.0964 131.936C53.3124 132.432 52.7124 133.104 52.2964 133.952C51.8804 134.784 51.6724 135.704 51.6724 136.712C51.6724 137.688 51.8724 138.6 52.2724 139.448C52.6884 140.28 53.2884 140.952 54.0724 141.464C54.8564 141.976 55.8084 142.232 56.9284 142.232ZM67.3236 143V130.4H68.3316V135.728H68.1396C68.1396 133.904 68.5476 132.544 69.3636 131.648C70.1796 130.752 71.4996 130.304 73.3236 130.304H73.7556V131.456H73.0836C71.5956 131.456 70.4756 131.84 69.7236 132.608C68.9716 133.36 68.5956 134.472 68.5956 135.944V143H67.3236ZM81.8346 143.408C80.7626 143.408 79.8346 143.224 79.0506 142.856C78.2666 142.472 77.6266 141.968 77.1306 141.344C76.6346 140.704 76.2586 139.992 76.0026 139.208C75.7626 138.408 75.6426 137.6 75.6426 136.784V136.544C75.6426 135.712 75.7626 134.912 76.0026 134.144C76.2586 133.376 76.6346 132.68 77.1306 132.056C77.6426 131.416 78.2746 130.92 79.0266 130.568C79.7946 130.2 80.6826 130.016 81.6906 130.016C82.9706 130.016 84.0426 130.304 84.9066 130.88C85.7866 131.44 86.4506 132.176 86.8986 133.088C87.3466 134 87.5706 134.96 87.5706 135.968V136.832H76.2426V135.776H86.7306L86.3466 136.256C86.3466 135.28 86.1626 134.408 85.7946 133.64C85.4426 132.872 84.9146 132.272 84.2106 131.84C83.5226 131.392 82.6826 131.168 81.6906 131.168C80.6186 131.168 79.7226 131.416 79.0026 131.912C78.2826 132.408 77.7386 133.072 77.3706 133.904C77.0186 134.736 76.8426 135.656 76.8426 136.664C76.8426 137.672 77.0186 138.6 77.3706 139.448C77.7386 140.28 78.2906 140.96 79.0266 141.488C79.7626 142 80.6986 142.256 81.8346 142.256C83.0506 142.256 84.0266 141.976 84.7626 141.416C85.5146 140.856 85.9706 140.184 86.1306 139.4H87.3786C87.2026 140.184 86.8666 140.88 86.3706 141.488C85.8746 142.096 85.2426 142.568 84.4746 142.904C83.7226 143.24 82.8426 143.408 81.8346 143.408ZM101.172 143.12C100.388 143.12 99.7 143.008 99.108 142.784C98.516 142.544 98.06 142.144 97.74 141.584C97.42 141.024 97.26 140.272 97.26 139.328V126.296H98.508V139.544C98.508 140.312 98.716 140.912 99.132 141.344C99.564 141.76 100.156 141.968 100.908 141.968H103.26V143.12H101.172ZM94.86 131.432V130.4H103.26V131.432H94.86ZM106.98 143V125.48H108.252V134.84L107.796 135.656C107.796 134.552 107.964 133.584 108.3 132.752C108.652 131.904 109.18 131.248 109.884 130.784C110.588 130.304 111.476 130.064 112.548 130.064H112.596C114.164 130.064 115.348 130.56 116.148 131.552C116.948 132.528 117.348 133.864 117.348 135.56V143H116.052V135.272C116.052 134.056 115.724 133.08 115.068 132.344C114.412 131.608 113.484 131.24 112.284 131.24C111.052 131.24 110.068 131.632 109.332 132.416C108.612 133.184 108.252 134.192 108.252 135.44V143H106.98ZM129.824 143V139.232H129.584V134.6C129.584 133.592 129.32 132.816 128.792 132.272C128.264 131.712 127.392 131.432 126.176 131.432C125.744 131.432 125.304 131.448 124.856 131.48C124.408 131.496 123.984 131.52 123.584 131.552C123.184 131.568 122.824 131.6 122.504 131.648V130.496C122.824 130.448 123.16 130.408 123.512 130.376C123.88 130.344 124.248 130.32 124.616 130.304C124.984 130.288 125.336 130.28 125.672 130.28C126.936 130.28 127.944 130.448 128.696 130.784C129.448 131.104 129.992 131.6 130.328 132.272C130.664 132.928 130.832 133.768 130.832 134.792V143H129.824ZM125.432 143.336C124.584 143.336 123.824 143.184 123.152 142.88C122.48 142.576 121.944 142.128 121.544 141.536C121.16 140.944 120.968 140.224 120.968 139.376C120.968 138.56 121.152 137.864 121.52 137.288C121.904 136.712 122.448 136.272 123.152 135.968C123.872 135.664 124.736 135.512 125.744 135.512H129.704V136.544H125.624C124.536 136.544 123.696 136.808 123.104 137.336C122.528 137.848 122.24 138.528 122.24 139.376C122.24 140.272 122.552 140.984 123.176 141.512C123.8 142.024 124.616 142.28 125.624 142.28C126.248 142.28 126.856 142.16 127.448 141.92C128.04 141.68 128.536 141.28 128.936 140.72C129.336 140.144 129.552 139.376 129.584 138.416L130.064 138.968C130.016 139.944 129.776 140.76 129.344 141.416C128.928 142.056 128.384 142.536 127.712 142.856C127.04 143.176 126.28 143.336 125.432 143.336ZM139.797 143.12C139.013 143.12 138.325 143.008 137.733 142.784C137.141 142.544 136.685 142.144 136.365 141.584C136.045 141.024 135.885 140.272 135.885 139.328V126.296H137.133V139.544C137.133 140.312 137.341 140.912 137.757 141.344C138.189 141.76 138.781 141.968 139.533 141.968H141.885V143.12H139.797ZM133.485 131.432V130.4H141.885V131.432H133.485ZM154.659 143L157.539 130.832H159.459L162.699 143H161.523L158.283 130.904H158.667L155.787 143H154.659ZM153.795 143V141.92H155.523V143H153.795ZM153.483 143L149.715 130.4H150.987L154.683 143H153.483ZM161.883 143V141.92H163.491V143H161.883ZM162.675 143L165.963 130.4H167.163L163.851 143H162.675ZM175.921 143.408C174.865 143.408 173.929 143.216 173.113 142.832C172.297 142.448 171.609 141.944 171.049 141.32C170.505 140.696 170.089 140 169.801 139.232C169.529 138.448 169.393 137.648 169.393 136.832V136.592C169.393 135.76 169.537 134.952 169.825 134.168C170.113 133.384 170.537 132.68 171.097 132.056C171.657 131.432 172.337 130.936 173.137 130.568C173.953 130.2 174.881 130.016 175.921 130.016C176.945 130.016 177.857 130.2 178.657 130.568C179.473 130.936 180.161 131.432 180.721 132.056C181.281 132.68 181.705 133.384 181.993 134.168C182.297 134.952 182.449 135.76 182.449 136.592V136.832C182.449 137.648 182.305 138.448 182.017 139.232C181.729 140 181.305 140.696 180.745 141.32C180.201 141.944 179.521 142.448 178.705 142.832C177.905 143.216 176.977 143.408 175.921 143.408ZM175.921 142.232C177.041 142.232 177.985 141.976 178.753 141.464C179.537 140.952 180.129 140.28 180.529 139.448C180.945 138.6 181.153 137.688 181.153 136.712C181.153 135.704 180.945 134.784 180.529 133.952C180.113 133.104 179.513 132.432 178.729 131.936C177.961 131.424 177.025 131.168 175.921 131.168C174.833 131.168 173.889 131.424 173.089 131.936C172.305 132.432 171.705 133.104 171.289 133.952C170.873 134.784 170.665 135.704 170.665 136.712C170.665 137.688 170.865 138.6 171.265 139.448C171.681 140.28 172.281 140.952 173.065 141.464C173.849 141.976 174.801 142.232 175.921 142.232ZM186.316 143V130.4H187.324V135.728H187.132C187.132 133.904 187.54 132.544 188.356 131.648C189.172 130.752 190.492 130.304 192.316 130.304H192.748V131.456H192.076C190.588 131.456 189.468 131.84 188.716 132.608C187.964 133.36 187.588 134.472 187.588 135.944V143H186.316ZM204.279 143L198.903 137.072H196.887L203.031 130.4H204.471L198.999 136.328L199.023 135.536L205.815 143H204.279ZM195.855 143V125.48H197.127V143H195.855ZM212.162 143.36C210.594 143.36 209.386 143 208.538 142.28C207.706 141.56 207.282 140.64 207.266 139.52H208.514C208.514 140.24 208.794 140.872 209.354 141.416C209.93 141.944 210.866 142.208 212.162 142.208C213.426 142.208 214.354 141.944 214.946 141.416C215.538 140.872 215.834 140.232 215.834 139.496C215.834 138.776 215.562 138.224 215.018 137.84C214.49 137.456 213.77 137.216 212.858 137.12L211.37 136.952C210.266 136.824 209.386 136.48 208.73 135.92C208.09 135.36 207.77 134.6 207.77 133.64C207.77 132.952 207.946 132.336 208.298 131.792C208.65 131.248 209.154 130.816 209.81 130.496C210.482 130.176 211.266 130.016 212.162 130.016C213.474 130.016 214.53 130.336 215.33 130.976C216.146 131.616 216.562 132.488 216.578 133.592H215.33C215.346 132.904 215.074 132.328 214.514 131.864C213.97 131.4 213.186 131.168 212.162 131.168C211.09 131.168 210.29 131.416 209.762 131.912C209.25 132.408 208.994 132.992 208.994 133.664C208.994 134.224 209.194 134.704 209.594 135.104C210.01 135.504 210.634 135.752 211.466 135.848L212.954 136.016C214.138 136.128 215.114 136.472 215.882 137.048C216.666 137.624 217.058 138.448 217.058 139.52C217.058 140.24 216.858 140.888 216.458 141.464C216.074 142.04 215.522 142.504 214.802 142.856C214.082 143.192 213.202 143.36 212.162 143.36Z" fill="#717171"/>
<path d="M234.403 143V139.232H234.163V134.6C234.163 133.592 233.899 132.816 233.371 132.272C232.843 131.712 231.971 131.432 230.755 131.432C230.323 131.432 229.883 131.448 229.435 131.48C228.987 131.496 228.563 131.52 228.163 131.552C227.763 131.568 227.403 131.6 227.083 131.648V130.496C227.403 130.448 227.739 130.408 228.091 130.376C228.459 130.344 228.827 130.32 229.195 130.304C229.563 130.288 229.915 130.28 230.251 130.28C231.515 130.28 232.523 130.448 233.275 130.784C234.027 131.104 234.571 131.6 234.907 132.272C235.243 132.928 235.411 133.768 235.411 134.792V143H234.403ZM230.011 143.336C229.163 143.336 228.403 143.184 227.731 142.88C227.059 142.576 226.523 142.128 226.123 141.536C225.739 140.944 225.547 140.224 225.547 139.376C225.547 138.56 225.731 137.864 226.099 137.288C226.483 136.712 227.027 136.272 227.731 135.968C228.451 135.664 229.315 135.512 230.323 135.512H234.283V136.544H230.203C229.115 136.544 228.275 136.808 227.683 137.336C227.107 137.848 226.819 138.528 226.819 139.376C226.819 140.272 227.131 140.984 227.755 141.512C228.379 142.024 229.195 142.28 230.203 142.28C230.827 142.28 231.435 142.16 232.027 141.92C232.619 141.68 233.115 141.28 233.515 140.72C233.915 140.144 234.131 139.376 234.163 138.416L234.643 138.968C234.595 139.944 234.355 140.76 233.923 141.416C233.507 142.056 232.963 142.536 232.291 142.856C231.619 143.176 230.859 143.336 230.011 143.336ZM243.943 143.36C242.375 143.36 241.167 143 240.319 142.28C239.487 141.56 239.063 140.64 239.047 139.52H240.295C240.295 140.24 240.575 140.872 241.135 141.416C241.711 141.944 242.647 142.208 243.943 142.208C245.207 142.208 246.135 141.944 246.727 141.416C247.319 140.872 247.615 140.232 247.615 139.496C247.615 138.776 247.343 138.224 246.799 137.84C246.271 137.456 245.551 137.216 244.639 137.12L243.151 136.952C242.047 136.824 241.167 136.48 240.511 135.92C239.871 135.36 239.551 134.6 239.551 133.64C239.551 132.952 239.727 132.336 240.079 131.792C240.431 131.248 240.935 130.816 241.591 130.496C242.263 130.176 243.047 130.016 243.943 130.016C245.255 130.016 246.311 130.336 247.111 130.976C247.927 131.616 248.343 132.488 248.359 133.592H247.111C247.127 132.904 246.855 132.328 246.295 131.864C245.751 131.4 244.967 131.168 243.943 131.168C242.871 131.168 242.071 131.416 241.543 131.912C241.031 132.408 240.775 132.992 240.775 133.664C240.775 134.224 240.975 134.704 241.375 135.104C241.791 135.504 242.415 135.752 243.247 135.848L244.735 136.016C245.919 136.128 246.895 136.472 247.663 137.048C248.447 137.624 248.839 138.448 248.839 139.52C248.839 140.24 248.639 140.888 248.239 141.464C247.855 142.04 247.303 142.504 246.583 142.856C245.863 143.192 244.983 143.36 243.943 143.36ZM258.48 143V125.48H259.752V134.84L259.296 135.656C259.296 134.552 259.464 133.584 259.8 132.752C260.152 131.904 260.68 131.248 261.384 130.784C262.088 130.304 262.976 130.064 264.048 130.064H264.096C265.664 130.064 266.848 130.56 267.648 131.552C268.448 132.528 268.848 133.864 268.848 135.56V143H267.552V135.272C267.552 134.056 267.224 133.08 266.568 132.344C265.912 131.608 264.984 131.24 263.784 131.24C262.552 131.24 261.568 131.632 260.832 132.416C260.112 133.184 259.752 134.192 259.752 135.44V143H258.48ZM281.324 143V139.232H281.084V134.6C281.084 133.592 280.82 132.816 280.292 132.272C279.764 131.712 278.892 131.432 277.676 131.432C277.244 131.432 276.804 131.448 276.356 131.48C275.908 131.496 275.484 131.52 275.084 131.552C274.684 131.568 274.324 131.6 274.004 131.648V130.496C274.324 130.448 274.66 130.408 275.012 130.376C275.38 130.344 275.748 130.32 276.116 130.304C276.484 130.288 276.836 130.28 277.172 130.28C278.436 130.28 279.444 130.448 280.196 130.784C280.948 131.104 281.492 131.6 281.828 132.272C282.164 132.928 282.332 133.768 282.332 134.792V143H281.324ZM276.932 143.336C276.084 143.336 275.324 143.184 274.652 142.88C273.98 142.576 273.444 142.128 273.044 141.536C272.66 140.944 272.468 140.224 272.468 139.376C272.468 138.56 272.652 137.864 273.02 137.288C273.404 136.712 273.948 136.272 274.652 135.968C275.372 135.664 276.236 135.512 277.244 135.512H281.204V136.544H277.124C276.036 136.544 275.196 136.808 274.604 137.336C274.028 137.848 273.74 138.528 273.74 139.376C273.74 140.272 274.052 140.984 274.676 141.512C275.3 142.024 276.116 142.28 277.124 142.28C277.748 142.28 278.356 142.16 278.948 141.92C279.54 141.68 280.036 141.28 280.436 140.72C280.836 140.144 281.052 139.376 281.084 138.416L281.564 138.968C281.516 139.944 281.276 140.76 280.844 141.416C280.428 142.056 279.884 142.536 279.212 142.856C278.54 143.176 277.78 143.336 276.932 143.336ZM287.097 143V130.4H288.105V135.728H287.913C287.913 133.904 288.321 132.544 289.137 131.648C289.953 130.752 291.273 130.304 293.097 130.304H293.529V131.456H292.857C291.369 131.456 290.249 131.84 289.497 132.608C288.745 133.36 288.369 134.472 288.369 135.944V143H287.097ZM301.536 143.408C300.592 143.408 299.736 143.232 298.968 142.88C298.216 142.512 297.576 142.024 297.048 141.416C296.52 140.792 296.112 140.088 295.824 139.304C295.552 138.52 295.416 137.696 295.416 136.832V136.592C295.416 135.76 295.552 134.96 295.824 134.192C296.096 133.408 296.488 132.704 297 132.08C297.528 131.44 298.168 130.936 298.92 130.568C299.672 130.2 300.536 130.016 301.512 130.016C302.648 130.016 303.632 130.272 304.464 130.784C305.312 131.296 305.968 132 306.432 132.896C306.912 133.776 307.168 134.784 307.2 135.92L306.552 134.504V125.48H307.824V143H306.816V137.408H307.296C307.264 138.608 307 139.664 306.504 140.576C306.008 141.472 305.328 142.168 304.464 142.664C303.616 143.16 302.64 143.408 301.536 143.408ZM301.656 142.256C302.632 142.256 303.488 142.04 304.224 141.608C304.976 141.176 305.56 140.592 305.976 139.856C306.408 139.104 306.624 138.248 306.624 137.288V136.04C306.624 135.128 306.408 134.304 305.976 133.568C305.56 132.832 304.976 132.248 304.224 131.816C303.488 131.384 302.632 131.168 301.656 131.168C300.6 131.168 299.704 131.424 298.968 131.936C298.232 132.448 297.664 133.128 297.264 133.976C296.88 134.808 296.688 135.72 296.688 136.712C296.688 137.736 296.888 138.672 297.288 139.52C297.688 140.352 298.256 141.016 298.992 141.512C299.744 142.008 300.632 142.256 301.656 142.256ZM326.207 143V139.232H325.967V134.6C325.967 133.592 325.703 132.816 325.175 132.272C324.647 131.712 323.775 131.432 322.559 131.432C322.127 131.432 321.687 131.448 321.239 131.48C320.791 131.496 320.367 131.52 319.967 131.552C319.567 131.568 319.207 131.6 318.887 131.648V130.496C319.207 130.448 319.543 130.408 319.895 130.376C320.263 130.344 320.631 130.32 320.999 130.304C321.367 130.288 321.719 130.28 322.055 130.28C323.319 130.28 324.327 130.448 325.079 130.784C325.831 131.104 326.375 131.6 326.711 132.272C327.047 132.928 327.215 133.768 327.215 134.792V143H326.207ZM321.815 143.336C320.967 143.336 320.207 143.184 319.535 142.88C318.863 142.576 318.327 142.128 317.927 141.536C317.543 140.944 317.351 140.224 317.351 139.376C317.351 138.56 317.535 137.864 317.903 137.288C318.287 136.712 318.831 136.272 319.535 135.968C320.255 135.664 321.119 135.512 322.127 135.512H326.087V136.544H322.007C320.919 136.544 320.079 136.808 319.487 137.336C318.911 137.848 318.623 138.528 318.623 139.376C318.623 140.272 318.935 140.984 319.559 141.512C320.183 142.024 320.999 142.28 322.007 142.28C322.631 142.28 323.239 142.16 323.831 141.92C324.423 141.68 324.919 141.28 325.319 140.72C325.719 140.144 325.935 139.376 325.967 138.416L326.447 138.968C326.399 139.944 326.159 140.76 325.727 141.416C325.311 142.056 324.767 142.536 324.095 142.856C323.423 143.176 322.663 143.336 321.815 143.336ZM335.748 143.36C334.18 143.36 332.972 143 332.124 142.28C331.292 141.56 330.868 140.64 330.852 139.52H332.1C332.1 140.24 332.38 140.872 332.94 141.416C333.516 141.944 334.452 142.208 335.748 142.208C337.012 142.208 337.94 141.944 338.532 141.416C339.124 140.872 339.42 140.232 339.42 139.496C339.42 138.776 339.148 138.224 338.604 137.84C338.076 137.456 337.356 137.216 336.444 137.12L334.956 136.952C333.852 136.824 332.972 136.48 332.316 135.92C331.676 135.36 331.356 134.6 331.356 133.64C331.356 132.952 331.532 132.336 331.884 131.792C332.236 131.248 332.74 130.816 333.396 130.496C334.068 130.176 334.852 130.016 335.748 130.016C337.06 130.016 338.116 130.336 338.916 130.976C339.732 131.616 340.148 132.488 340.164 133.592H338.916C338.932 132.904 338.66 132.328 338.1 131.864C337.556 131.4 336.772 131.168 335.748 131.168C334.676 131.168 333.876 131.416 333.348 131.912C332.836 132.408 332.58 132.992 332.58 133.664C332.58 134.224 332.78 134.704 333.18 135.104C333.596 135.504 334.22 135.752 335.052 135.848L336.54 136.016C337.724 136.128 338.7 136.472 339.468 137.048C340.252 137.624 340.644 138.448 340.644 139.52C340.644 140.24 340.444 140.888 340.044 141.464C339.66 142.04 339.108 142.504 338.388 142.856C337.668 143.192 336.788 143.36 335.748 143.36ZM348.869 147.896V146.72H350.309C350.869 146.72 351.357 146.648 351.773 146.504C352.189 146.376 352.549 146.136 352.853 145.784C353.173 145.432 353.437 144.928 353.645 144.272L358.133 130.4H359.405L354.725 144.68C354.469 145.464 354.125 146.088 353.693 146.552C353.277 147.032 352.773 147.376 352.181 147.584C351.605 147.792 350.949 147.896 350.213 147.896H348.869ZM353.237 142.688V141.56H355.013V142.688H353.237ZM352.997 142.688L348.413 130.4H349.709L354.245 142.688H352.997ZM368.061 143.408C367.005 143.408 366.069 143.216 365.253 142.832C364.437 142.448 363.749 141.944 363.189 141.32C362.645 140.696 362.229 140 361.941 139.232C361.669 138.448 361.533 137.648 361.533 136.832V136.592C361.533 135.76 361.677 134.952 361.965 134.168C362.253 133.384 362.677 132.68 363.237 132.056C363.797 131.432 364.477 130.936 365.277 130.568C366.093 130.2 367.021 130.016 368.061 130.016C369.085 130.016 369.997 130.2 370.797 130.568C371.613 130.936 372.301 131.432 372.861 132.056C373.421 132.68 373.845 133.384 374.133 134.168C374.437 134.952 374.589 135.76 374.589 136.592V136.832C374.589 137.648 374.445 138.448 374.157 139.232C373.869 140 373.445 140.696 372.885 141.32C372.341 141.944 371.661 142.448 370.845 142.832C370.045 143.216 369.117 143.408 368.061 143.408ZM368.061 142.232C369.181 142.232 370.125 141.976 370.893 141.464C371.677 140.952 372.269 140.28 372.669 139.448C373.085 138.6 373.293 137.688 373.293 136.712C373.293 135.704 373.085 134.784 372.669 133.952C372.253 133.104 371.653 132.432 370.869 131.936C370.101 131.424 369.165 131.168 368.061 131.168C366.973 131.168 366.029 131.424 365.229 131.936C364.445 132.432 363.845 133.104 363.429 133.952C363.013 134.784 362.805 135.704 362.805 136.712C362.805 137.688 363.005 138.6 363.405 139.448C363.821 140.28 364.421 140.952 365.205 141.464C365.989 141.976 366.941 142.232 368.061 142.232ZM382.752 143.36C381.232 143.36 380.08 142.872 379.296 141.896C378.512 140.92 378.12 139.6 378.12 137.936V130.4H379.416V138.224C379.416 139.392 379.72 140.344 380.328 141.08C380.952 141.8 381.848 142.16 383.016 142.16C384.2 142.16 385.136 141.784 385.824 141.032C386.528 140.28 386.88 139.296 386.88 138.08V130.4H388.152V143H387.144V137.912H387.432C387.432 138.984 387.256 139.936 386.904 140.768C386.568 141.584 386.064 142.224 385.392 142.688C384.72 143.136 383.864 143.36 382.824 143.36H382.752ZM403.958 143.408C403.014 143.408 402.158 143.232 401.39 142.88C400.638 142.512 399.998 142.024 399.47 141.416C398.942 140.792 398.534 140.088 398.246 139.304C397.974 138.52 397.838 137.696 397.838 136.832V136.592C397.838 135.76 397.974 134.96 398.246 134.192C398.518 133.408 398.91 132.704 399.422 132.08C399.95 131.44 400.59 130.936 401.342 130.568C402.094 130.2 402.958 130.016 403.934 130.016C405.07 130.016 406.054 130.272 406.886 130.784C407.734 131.296 408.39 132 408.854 132.896C409.334 133.776 409.59 134.784 409.622 135.92L408.974 134.504V125.48H410.246V143H409.238V137.408H409.718C409.686 138.608 409.422 139.664 408.926 140.576C408.43 141.472 407.75 142.168 406.886 142.664C406.038 143.16 405.062 143.408 403.958 143.408ZM404.078 142.256C405.054 142.256 405.91 142.04 406.646 141.608C407.398 141.176 407.982 140.592 408.398 139.856C408.83 139.104 409.046 138.248 409.046 137.288V136.04C409.046 135.128 408.83 134.304 408.398 133.568C407.982 132.832 407.398 132.248 406.646 131.816C405.91 131.384 405.054 131.168 404.078 131.168C403.022 131.168 402.126 131.424 401.39 131.936C400.654 132.448 400.086 133.128 399.686 133.976C399.302 134.808 399.11 135.72 399.11 136.712C399.11 137.736 399.31 138.672 399.71 139.52C400.11 140.352 400.678 141.016 401.414 141.512C402.166 142.008 403.054 142.256 404.078 142.256ZM420.655 143.408C419.599 143.408 418.663 143.216 417.847 142.832C417.031 142.448 416.343 141.944 415.783 141.32C415.239 140.696 414.823 140 414.535 139.232C414.263 138.448 414.127 137.648 414.127 136.832V136.592C414.127 135.76 414.271 134.952 414.559 134.168C414.847 133.384 415.271 132.68 415.831 132.056C416.391 131.432 417.071 130.936 417.871 130.568C418.687 130.2 419.615 130.016 420.655 130.016C421.679 130.016 422.591 130.2 423.391 130.568C424.207 130.936 424.895 131.432 425.455 132.056C426.015 132.68 426.439 133.384 426.727 134.168C427.031 134.952 427.183 135.76 427.183 136.592V136.832C427.183 137.648 427.039 138.448 426.751 139.232C426.463 140 426.039 140.696 425.479 141.32C424.935 141.944 424.255 142.448 423.439 142.832C422.639 143.216 421.711 143.408 420.655 143.408ZM420.655 142.232C421.775 142.232 422.719 141.976 423.487 141.464C424.271 140.952 424.863 140.28 425.263 139.448C425.679 138.6 425.887 137.688 425.887 136.712C425.887 135.704 425.679 134.784 425.263 133.952C424.847 133.104 424.247 132.432 423.463 131.936C422.695 131.424 421.759 131.168 420.655 131.168C419.567 131.168 418.623 131.424 417.823 131.936C417.039 132.432 416.439 133.104 416.023 133.952C415.607 134.784 415.399 135.704 415.399 136.712C415.399 137.688 415.599 138.6 415.999 139.448C416.415 140.28 417.015 140.952 417.799 141.464C418.583 141.976 419.535 142.232 420.655 142.232Z" fill="url(#paint1_radial_1063_862)"/>
<defs>
<radialGradient id="paint0_radial_1063_862" cx="0" cy="0" r="1" gradientUnits="userSpaceOnUse" gradientTransform="translate(263 60) rotate(90) scale(60 263)">
<stop stop-color="#5A69EA"/>
<stop offset="1" stop-color="#BF8BCA"/>
</radialGradient>
<radialGradient id="paint1_radial_1063_862" cx="0" cy="0" r="1" gradientUnits="userSpaceOnUse" gradientTransform="translate(269.5 135) rotate(90) scale(15 266.5)">
<stop stop-color="#5A69EA"/>
<stop offset="1" stop-color="#BF8BCA"/>
</radialGradient>
</defs>
</svg>
