<svg width="249" height="15" viewBox="0 0 249 15" fill="none" xmlns="http://www.w3.org/2000/svg">
<path d="M0.000547051 14.6V-2.47955e-05H1.08055V14.6H0.000547051ZM0.740547 14.6V13.62H8.26055V14.6H0.740547ZM0.740547 7.67998V6.67998H7.54055V7.67998H0.740547ZM0.740547 0.979975V-2.47955e-05H8.02055V0.979975H0.740547ZM11.0379 9.49998V8.57998H17.6179V9.49998H11.0379ZM25.6784 14.94C24.8117 14.94 24.0517 14.78 23.3984 14.46C22.7584 14.14 22.2184 13.7133 21.7784 13.18C21.3517 12.6466 21.0317 12.0533 20.8184 11.4C20.605 10.7466 20.4984 10.0866 20.4984 9.41998V9.21998C20.4984 8.53998 20.605 7.87331 20.8184 7.21998C21.0317 6.56664 21.3517 5.98664 21.7784 5.47997C22.2184 4.95997 22.7584 4.54664 23.3984 4.23998C24.0517 3.93331 24.8117 3.77998 25.6784 3.77998C26.5184 3.77998 27.265 3.93331 27.9184 4.23998C28.585 4.54664 29.125 4.97998 29.5384 5.53998C29.965 6.08664 30.2317 6.74664 30.3384 7.51998H29.2984C29.1784 6.71998 28.805 6.05998 28.1784 5.53998C27.5517 5.00664 26.7184 4.73997 25.6784 4.73997C24.7584 4.73997 23.9917 4.94664 23.3784 5.35998C22.765 5.77331 22.305 6.32664 21.9984 7.01998C21.705 7.71331 21.5584 8.47998 21.5584 9.31998C21.5584 10.1333 21.7117 10.8933 22.0184 11.6C22.325 12.3066 22.785 12.88 23.3984 13.32C24.0117 13.7466 24.7717 13.96 25.6784 13.96C26.385 13.96 27.005 13.8333 27.5384 13.58C28.085 13.3133 28.525 12.9666 28.8584 12.54C29.1917 12.1 29.3917 11.62 29.4584 11.1H30.4984C30.405 11.8733 30.1384 12.5466 29.6984 13.12C29.2584 13.68 28.6917 14.1266 27.9984 14.46C27.305 14.78 26.5317 14.94 25.6784 14.94ZM37.9696 14.94C37.0896 14.94 36.3096 14.78 35.6296 14.46C34.9496 14.14 34.3763 13.72 33.9096 13.2C33.4563 12.68 33.1096 12.1 32.8696 11.46C32.6429 10.8066 32.5296 10.14 32.5296 9.45998V9.25998C32.5296 8.56664 32.6496 7.89331 32.8896 7.23997C33.1296 6.58664 33.4829 5.99998 33.9496 5.47997C34.4163 4.95997 34.9829 4.54664 35.6496 4.23998C36.3296 3.93331 37.1029 3.77998 37.9696 3.77998C38.8229 3.77998 39.5829 3.93331 40.2496 4.23998C40.9296 4.54664 41.5029 4.95997 41.9696 5.47997C42.4363 5.99998 42.7896 6.58664 43.0296 7.23997C43.2829 7.89331 43.4096 8.56664 43.4096 9.25998V9.45998C43.4096 10.14 43.2896 10.8066 43.0496 11.46C42.8096 12.1 42.4563 12.68 41.9896 13.2C41.5363 13.72 40.9696 14.14 40.2896 14.46C39.6229 14.78 38.8496 14.94 37.9696 14.94ZM37.9696 13.96C38.9029 13.96 39.6896 13.7466 40.3296 13.32C40.9829 12.8933 41.4763 12.3333 41.8096 11.64C42.1563 10.9333 42.3296 10.1733 42.3296 9.35998C42.3296 8.51998 42.1563 7.75331 41.8096 7.05998C41.4629 6.35331 40.9629 5.79331 40.3096 5.37998C39.6696 4.95331 38.8896 4.73997 37.9696 4.73997C37.0629 4.73997 36.2763 4.95331 35.6096 5.37998C34.9563 5.79331 34.4563 6.35331 34.1096 7.05998C33.7629 7.75331 33.5896 8.51998 33.5896 9.35998C33.5896 10.1733 33.7563 10.9333 34.0896 11.64C34.4363 12.3333 34.9363 12.8933 35.5896 13.32C36.2429 13.7466 37.0363 13.96 37.9696 13.96ZM46.6323 14.6V4.09997H47.4723V8.39998H47.2323C47.2323 7.49331 47.3656 6.69998 47.6323 6.01998C47.9123 5.32664 48.3256 4.78664 48.8723 4.39997C49.4189 4.01331 50.1123 3.81997 50.9523 3.81997H51.0123C51.8389 3.81997 52.5256 4.01331 53.0723 4.39997C53.6189 4.77331 54.0189 5.30664 54.2723 5.99998C54.5389 6.67998 54.6723 7.47998 54.6723 8.39998H54.2723C54.2723 7.49331 54.4056 6.69998 54.6723 6.01998C54.9523 5.32664 55.3656 4.78664 55.9123 4.39997C56.4723 4.01331 57.1723 3.81997 58.0123 3.81997H58.0723C58.8989 3.81997 59.5856 4.01331 60.1323 4.39997C60.6923 4.77331 61.1056 5.30664 61.3723 5.99998C61.6389 6.67998 61.7723 7.47998 61.7723 8.39998V14.6H60.7123V8.15998C60.7123 7.15998 60.4656 6.35331 59.9723 5.73998C59.4923 5.11331 58.7789 4.79998 57.8323 4.79998C56.8723 4.79998 56.1123 5.11998 55.5523 5.75997C55.0056 6.39998 54.7323 7.23331 54.7323 8.25998V14.6H53.6723V8.15998C53.6723 7.15998 53.4256 6.35331 52.9323 5.73998C52.4523 5.11331 51.7389 4.79998 50.7923 4.79998C49.8323 4.79998 49.0723 5.11998 48.5123 5.75997C47.9656 6.39998 47.6923 7.23331 47.6923 8.25998V14.6H46.6323ZM65.7534 14.6V4.09997H66.5934V8.39998H66.3534C66.3534 7.49331 66.4867 6.69998 66.7534 6.01998C67.0334 5.32664 67.4467 4.78664 67.9934 4.39997C68.54 4.01331 69.2334 3.81997 70.0734 3.81997H70.1334C70.96 3.81997 71.6467 4.01331 72.1934 4.39997C72.74 4.77331 73.14 5.30664 73.3934 5.99998C73.66 6.67998 73.7934 7.47998 73.7934 8.39998H73.3934C73.3934 7.49331 73.5267 6.69998 73.7934 6.01998C74.0734 5.32664 74.4867 4.78664 75.0334 4.39997C75.5934 4.01331 76.2934 3.81997 77.1334 3.81997H77.1934C78.02 3.81997 78.7067 4.01331 79.2534 4.39997C79.8134 4.77331 80.2267 5.30664 80.4934 5.99998C80.76 6.67998 80.8934 7.47998 80.8934 8.39998V14.6H79.8334V8.15998C79.8334 7.15998 79.5867 6.35331 79.0934 5.73998C78.6134 5.11331 77.9 4.79998 76.9534 4.79998C75.9934 4.79998 75.2334 5.11998 74.6734 5.75997C74.1267 6.39998 73.8534 7.23331 73.8534 8.25998V14.6H72.7934V8.15998C72.7934 7.15998 72.5467 6.35331 72.0534 5.73998C71.5734 5.11331 70.86 4.79998 69.9134 4.79998C68.9534 4.79998 68.1934 5.11998 67.6334 5.75997C67.0867 6.39998 66.8134 7.23331 66.8134 8.25998V14.6H65.7534ZM89.1545 14.94C88.2611 14.94 87.4878 14.7866 86.8345 14.48C86.1811 14.16 85.6478 13.74 85.2345 13.22C84.8211 12.6866 84.5078 12.0933 84.2945 11.44C84.0945 10.7733 83.9945 10.1 83.9945 9.41998V9.21998C83.9945 8.52664 84.0945 7.85998 84.2945 7.21998C84.5078 6.57998 84.8211 5.99998 85.2345 5.47997C85.6611 4.94664 86.1878 4.53331 86.8145 4.23998C87.4545 3.93331 88.1945 3.77998 89.0345 3.77998C90.1011 3.77998 90.9945 4.01998 91.7145 4.49998C92.4478 4.96664 93.0011 5.57998 93.3745 6.33998C93.7478 7.09998 93.9345 7.89998 93.9345 8.73998V9.45998H84.4945V8.57998H93.2345L92.9145 8.97998C92.9145 8.16664 92.7611 7.43998 92.4545 6.79998C92.1611 6.15998 91.7211 5.65998 91.1345 5.29997C90.5611 4.92664 89.8611 4.73997 89.0345 4.73997C88.1411 4.73997 87.3945 4.94664 86.7945 5.35998C86.1945 5.77331 85.7411 6.32664 85.4345 7.01998C85.1411 7.71331 84.9945 8.47998 84.9945 9.31998C84.9945 10.16 85.1411 10.9333 85.4345 11.64C85.7411 12.3333 86.2011 12.9 86.8145 13.34C87.4278 13.7666 88.2078 13.98 89.1545 13.98C90.1678 13.98 90.9811 13.7466 91.5945 13.28C92.2211 12.8133 92.6011 12.2533 92.7345 11.6H93.7745C93.6278 12.2533 93.3478 12.8333 92.9345 13.34C92.5211 13.8466 91.9945 14.24 91.3545 14.52C90.7278 14.8 89.9945 14.94 89.1545 14.94ZM96.9838 14.6V4.09997H97.8238V8.53998H97.6638C97.6638 7.01998 98.0038 5.88664 98.6838 5.13998C99.3638 4.39331 100.464 4.01997 101.984 4.01997H102.344V4.97997H101.784C100.544 4.97997 99.6105 5.29997 98.9838 5.93998C98.3572 6.56664 98.0438 7.49331 98.0438 8.71998V14.6H96.9838ZM109.096 14.94C108.23 14.94 107.47 14.78 106.816 14.46C106.176 14.14 105.636 13.7133 105.196 13.18C104.77 12.6466 104.45 12.0533 104.236 11.4C104.023 10.7466 103.916 10.0866 103.916 9.41998V9.21998C103.916 8.53998 104.023 7.87331 104.236 7.21998C104.45 6.56664 104.77 5.98664 105.196 5.47997C105.636 4.95997 106.176 4.54664 106.816 4.23998C107.47 3.93331 108.23 3.77998 109.096 3.77998C109.936 3.77998 110.683 3.93331 111.336 4.23998C112.003 4.54664 112.543 4.97998 112.956 5.53998C113.383 6.08664 113.65 6.74664 113.756 7.51998H112.716C112.596 6.71998 112.223 6.05998 111.596 5.53998C110.97 5.00664 110.136 4.73997 109.096 4.73997C108.176 4.73997 107.41 4.94664 106.796 5.35998C106.183 5.77331 105.723 6.32664 105.416 7.01998C105.123 7.71331 104.976 8.47998 104.976 9.31998C104.976 10.1333 105.13 10.8933 105.436 11.6C105.743 12.3066 106.203 12.88 106.816 13.32C107.43 13.7466 108.19 13.96 109.096 13.96C109.803 13.96 110.423 13.8333 110.956 13.58C111.503 13.3133 111.943 12.9666 112.276 12.54C112.61 12.1 112.81 11.62 112.876 11.1H113.916C113.823 11.8733 113.556 12.5466 113.116 13.12C112.676 13.68 112.11 14.1266 111.416 14.46C110.723 14.78 109.95 14.94 109.096 14.94ZM121.108 14.94C120.214 14.94 119.441 14.7866 118.788 14.48C118.134 14.16 117.601 13.74 117.188 13.22C116.774 12.6866 116.461 12.0933 116.248 11.44C116.048 10.7733 115.948 10.1 115.948 9.41998V9.21998C115.948 8.52664 116.048 7.85998 116.248 7.21998C116.461 6.57998 116.774 5.99998 117.188 5.47997C117.614 4.94664 118.141 4.53331 118.768 4.23998C119.408 3.93331 120.148 3.77998 120.988 3.77998C122.054 3.77998 122.948 4.01998 123.668 4.49998C124.401 4.96664 124.954 5.57998 125.328 6.33998C125.701 7.09998 125.888 7.89998 125.888 8.73998V9.45998H116.448V8.57998H125.188L124.868 8.97998C124.868 8.16664 124.714 7.43998 124.408 6.79998C124.114 6.15998 123.674 5.65998 123.088 5.29997C122.514 4.92664 121.814 4.73997 120.988 4.73997C120.094 4.73997 119.348 4.94664 118.748 5.35998C118.148 5.77331 117.694 6.32664 117.388 7.01998C117.094 7.71331 116.948 8.47998 116.948 9.31998C116.948 10.16 117.094 10.9333 117.388 11.64C117.694 12.3333 118.154 12.9 118.768 13.34C119.381 13.7666 120.161 13.98 121.108 13.98C122.121 13.98 122.934 13.7466 123.548 13.28C124.174 12.8133 124.554 12.2533 124.688 11.6H125.728C125.581 12.2533 125.301 12.8333 124.888 13.34C124.474 13.8466 123.948 14.24 123.308 14.52C122.681 14.8 121.948 14.94 121.108 14.94ZM132.402 14.6L137.902 -2.47955e-05H140.062L145.742 14.6H144.622L139.202 0.619974L139.862 0.979975H138.042L138.722 0.619974L133.482 14.6H132.402ZM135.022 9.67998L135.402 8.69998H142.642L143.022 9.67998H135.022ZM152.068 14.9C150.801 14.9 149.841 14.4933 149.188 13.68C148.534 12.8666 148.208 11.7666 148.208 10.38V4.09997H149.288V10.62C149.288 11.5933 149.541 12.3866 150.048 13C150.568 13.6 151.314 13.9 152.288 13.9C153.274 13.9 154.054 13.5866 154.628 12.96C155.214 12.3333 155.508 11.5133 155.508 10.5V4.09997H156.568V14.6H155.728V10.36H155.968C155.968 11.2533 155.821 12.0466 155.528 12.74C155.248 13.42 154.828 13.9533 154.268 14.34C153.708 14.7133 152.994 14.9 152.128 14.9H152.068ZM164.234 14.7C163.58 14.7 163.007 14.6066 162.514 14.42C162.02 14.22 161.64 13.8866 161.374 13.42C161.107 12.9533 160.974 12.3266 160.974 11.54V0.679975H162.014V11.72C162.014 12.36 162.187 12.86 162.534 13.22C162.894 13.5666 163.387 13.74 164.014 13.74H165.974V14.7H164.234ZM158.974 4.95998V4.09997H165.974V4.95998H158.974ZM173.536 14.94C172.656 14.94 171.876 14.78 171.196 14.46C170.516 14.14 169.943 13.72 169.476 13.2C169.023 12.68 168.676 12.1 168.436 11.46C168.209 10.8066 168.096 10.14 168.096 9.45998V9.25998C168.096 8.56664 168.216 7.89331 168.456 7.23997C168.696 6.58664 169.049 5.99998 169.516 5.47997C169.983 4.95997 170.549 4.54664 171.216 4.23998C171.896 3.93331 172.669 3.77998 173.536 3.77998C174.389 3.77998 175.149 3.93331 175.816 4.23998C176.496 4.54664 177.069 4.95997 177.536 5.47997C178.003 5.99998 178.356 6.58664 178.596 7.23997C178.849 7.89331 178.976 8.56664 178.976 9.25998V9.45998C178.976 10.14 178.856 10.8066 178.616 11.46C178.376 12.1 178.023 12.68 177.556 13.2C177.103 13.72 176.536 14.14 175.856 14.46C175.189 14.78 174.416 14.94 173.536 14.94ZM173.536 13.96C174.469 13.96 175.256 13.7466 175.896 13.32C176.549 12.8933 177.043 12.3333 177.376 11.64C177.723 10.9333 177.896 10.1733 177.896 9.35998C177.896 8.51998 177.723 7.75331 177.376 7.05998C177.029 6.35331 176.529 5.79331 175.876 5.37998C175.236 4.95331 174.456 4.73997 173.536 4.73997C172.629 4.73997 171.843 4.95331 171.176 5.37998C170.523 5.79331 170.023 6.35331 169.676 7.05998C169.329 7.75331 169.156 8.51998 169.156 9.35998C169.156 10.1733 169.323 10.9333 169.656 11.64C170.003 12.3333 170.503 12.8933 171.156 13.32C171.809 13.7466 172.603 13.96 173.536 13.96ZM182.199 14.6V4.09997H183.039V8.39998H182.799C182.799 7.49331 182.932 6.69998 183.199 6.01998C183.479 5.32664 183.892 4.78664 184.439 4.39997C184.985 4.01331 185.679 3.81997 186.519 3.81997H186.579C187.405 3.81997 188.092 4.01331 188.639 4.39997C189.185 4.77331 189.585 5.30664 189.839 5.99998C190.105 6.67998 190.239 7.47998 190.239 8.39998H189.839C189.839 7.49331 189.972 6.69998 190.239 6.01998C190.519 5.32664 190.932 4.78664 191.479 4.39997C192.039 4.01331 192.739 3.81997 193.579 3.81997H193.639C194.465 3.81997 195.152 4.01331 195.699 4.39997C196.259 4.77331 196.672 5.30664 196.939 5.99998C197.205 6.67998 197.339 7.47998 197.339 8.39998V14.6H196.279V8.15998C196.279 7.15998 196.032 6.35331 195.539 5.73998C195.059 5.11331 194.345 4.79998 193.399 4.79998C192.439 4.79998 191.679 5.11998 191.119 5.75997C190.572 6.39998 190.299 7.23331 190.299 8.25998V14.6H189.239V8.15998C189.239 7.15998 188.992 6.35331 188.499 5.73998C188.019 5.11331 187.305 4.79998 186.359 4.79998C185.399 4.79998 184.639 5.11998 184.079 5.75997C183.532 6.39998 183.259 7.23331 183.259 8.25998V14.6H182.199ZM207.74 14.6V11.46H207.54V7.59998C207.54 6.75998 207.32 6.11331 206.88 5.65998C206.44 5.19331 205.713 4.95998 204.7 4.95998C204.34 4.95998 203.973 4.97331 203.6 4.99998C203.226 5.01331 202.873 5.03331 202.54 5.05998C202.206 5.07331 201.906 5.09998 201.64 5.13998V4.17998C201.906 4.13997 202.186 4.10664 202.48 4.07998C202.786 4.05331 203.093 4.03331 203.4 4.01997C203.706 4.00664 204 3.99997 204.28 3.99997C205.333 3.99997 206.173 4.13998 206.8 4.41998C207.426 4.68664 207.88 5.09998 208.16 5.65998C208.44 6.20664 208.58 6.90664 208.58 7.75998V14.6H207.74ZM204.08 14.88C203.373 14.88 202.74 14.7533 202.18 14.5C201.62 14.2466 201.173 13.8733 200.84 13.38C200.52 12.8866 200.36 12.2866 200.36 11.58C200.36 10.9 200.513 10.32 200.82 9.83998C201.14 9.35998 201.593 8.99331 202.18 8.73998C202.78 8.48664 203.5 8.35998 204.34 8.35998H207.64V9.21998H204.24C203.333 9.21998 202.633 9.43998 202.14 9.87998C201.66 10.3066 201.42 10.8733 201.42 11.58C201.42 12.3266 201.68 12.92 202.2 13.36C202.72 13.7866 203.4 14 204.24 14C204.76 14 205.266 13.9 205.76 13.7C206.253 13.5 206.666 13.1666 207 12.7C207.333 12.22 207.513 11.58 207.54 10.78L207.94 11.24C207.9 12.0533 207.7 12.7333 207.34 13.28C206.993 13.8133 206.54 14.2133 205.98 14.48C205.42 14.7466 204.786 14.88 204.08 14.88ZM216.05 14.7C215.397 14.7 214.824 14.6066 214.33 14.42C213.837 14.22 213.457 13.8866 213.19 13.42C212.924 12.9533 212.79 12.3266 212.79 11.54V0.679975H213.83V11.72C213.83 12.36 214.004 12.86 214.35 13.22C214.71 13.5666 215.204 13.74 215.83 13.74H217.79V14.7H216.05ZM210.79 4.95998V4.09997H217.79V4.95998H210.79ZM221.45 14.6V4.09997H222.53V14.6H221.45ZM219.71 5.01997V4.09997H222.53V5.01997H219.71ZM221.55 1.89997C221.27 1.89997 221.057 1.82664 220.91 1.67998C220.763 1.51997 220.69 1.31997 220.69 1.07997C220.69 0.826641 220.763 0.619975 220.91 0.459975C221.057 0.299975 221.277 0.219975 221.57 0.219975C221.85 0.219975 222.063 0.299975 222.21 0.459975C222.357 0.619975 222.43 0.826641 222.43 1.07997C222.43 1.31997 222.357 1.51997 222.21 1.67998C222.077 1.82664 221.857 1.89997 221.55 1.89997ZM231.231 14.94C230.351 14.94 229.571 14.78 228.891 14.46C228.211 14.14 227.638 13.72 227.171 13.2C226.718 12.68 226.371 12.1 226.131 11.46C225.905 10.8066 225.791 10.14 225.791 9.45998V9.25998C225.791 8.56664 225.911 7.89331 226.151 7.23997C226.391 6.58664 226.745 5.99998 227.211 5.47997C227.678 4.95997 228.245 4.54664 228.911 4.23998C229.591 3.93331 230.365 3.77998 231.231 3.77998C232.085 3.77998 232.845 3.93331 233.511 4.23998C234.191 4.54664 234.765 4.95997 235.231 5.47997C235.698 5.99998 236.051 6.58664 236.291 7.23997C236.545 7.89331 236.671 8.56664 236.671 9.25998V9.45998C236.671 10.14 236.551 10.8066 236.311 11.46C236.071 12.1 235.718 12.68 235.251 13.2C234.798 13.72 234.231 14.14 233.551 14.46C232.885 14.78 232.111 14.94 231.231 14.94ZM231.231 13.96C232.165 13.96 232.951 13.7466 233.591 13.32C234.245 12.8933 234.738 12.3333 235.071 11.64C235.418 10.9333 235.591 10.1733 235.591 9.35998C235.591 8.51998 235.418 7.75331 235.071 7.05998C234.725 6.35331 234.225 5.79331 233.571 5.37998C232.931 4.95331 232.151 4.73997 231.231 4.73997C230.325 4.73997 229.538 4.95331 228.871 5.37998C228.218 5.79331 227.718 6.35331 227.371 7.05998C227.025 7.75331 226.851 8.51998 226.851 9.35998C226.851 10.1733 227.018 10.9333 227.351 11.64C227.698 12.3333 228.198 12.8933 228.851 13.32C229.505 13.7466 230.298 13.96 231.231 13.96ZM239.894 14.6V4.09997H240.734V8.39998H240.494C240.494 7.47998 240.641 6.67998 240.934 5.99998C241.241 5.30664 241.687 4.77331 242.274 4.39997C242.874 4.01331 243.614 3.81997 244.494 3.81997H244.554C245.874 3.81997 246.867 4.23331 247.534 5.05998C248.201 5.87331 248.534 6.98664 248.534 8.39998V14.6H247.454V8.15998C247.454 7.15998 247.181 6.35331 246.634 5.73998C246.101 5.11331 245.327 4.79998 244.314 4.79998C243.287 4.79998 242.467 5.11998 241.854 5.75997C241.254 6.38664 240.954 7.21998 240.954 8.25998V14.6H239.894Z" fill="#717171"/>
</svg>
