<svg width="536" height="150" viewBox="0 0 536 150" fill="none" xmlns="http://www.w3.org/2000/svg">
<path d="M16.704 46.816C13.76 46.816 11.28 46.352 9.264 45.424C7.248 44.464 5.712 43.152 4.656 41.488C3.632 39.792 3.12 37.888 3.12 35.776H6.768C6.768 37.12 7.088 38.384 7.728 39.568C8.4 40.72 9.456 41.664 10.896 42.4C12.368 43.104 14.304 43.456 16.704 43.456C18.912 43.456 20.736 43.136 22.176 42.496C23.648 41.856 24.736 40.992 25.44 39.904C26.176 38.816 26.544 37.6 26.544 36.256C26.544 34.56 25.872 33.152 24.528 32.032C23.216 30.88 21.232 30.192 18.576 29.968L14.544 29.584C11.536 29.328 9.136 28.4 7.344 26.8C5.584 25.168 4.704 23.024 4.704 20.368C4.704 18.352 5.184 16.576 6.144 15.04C7.104 13.504 8.464 12.288 10.224 11.392C12.016 10.496 14.16 10.048 16.656 10.048C19.184 10.048 21.344 10.512 23.136 11.44C24.96 12.336 26.352 13.584 27.312 15.184C28.272 16.784 28.752 18.64 28.752 20.752H25.104C25.104 19.472 24.816 18.272 24.24 17.152C23.664 16.032 22.752 15.136 21.504 14.464C20.256 13.76 18.64 13.408 16.656 13.408C14.768 13.408 13.2 13.728 11.952 14.368C10.736 15.008 9.824 15.856 9.216 16.912C8.64 17.968 8.352 19.12 8.352 20.368C8.352 21.936 8.912 23.264 10.032 24.352C11.152 25.44 12.768 26.064 14.88 26.224L18.912 26.608C21.28 26.8 23.296 27.328 24.96 28.192C26.656 29.024 27.952 30.128 28.848 31.504C29.744 32.848 30.192 34.432 30.192 36.256C30.192 38.304 29.632 40.128 28.512 41.728C27.424 43.328 25.872 44.576 23.856 45.472C21.84 46.368 19.456 46.816 16.704 46.816ZM47.3408 46.288C45.5808 46.288 44.0608 46.032 42.7808 45.52C41.5008 45.008 40.5088 44.144 39.8047 42.928C39.1008 41.68 38.7488 40.016 38.7488 37.936V12.592H42.2048V38.464C42.2048 39.936 42.6048 41.072 43.4048 41.872C44.2048 42.64 45.3408 43.024 46.8128 43.024H51.3728V46.288H47.3408ZM34.1888 23.344V20.608H51.3728V23.344H34.1888ZM58.3279 46V20.608H61.2079V31.216H60.9199C60.9199 27.504 61.7359 24.768 63.3679 23.008C64.9999 21.216 67.5599 20.32 71.0479 20.32H71.8639V23.584H70.3759C67.6239 23.584 65.5279 24.304 64.0879 25.744C62.6479 27.152 61.9279 29.232 61.9279 31.984V46H58.3279ZM93.0495 46V38.368H92.4735V29.344C92.4735 27.456 91.9775 26.016 90.9855 25.024C89.9935 24 88.4575 23.488 86.3775 23.488C85.4175 23.488 84.4415 23.504 83.4495 23.536C82.4895 23.568 81.5615 23.616 80.6655 23.68C79.8015 23.712 79.0335 23.76 78.3615 23.824V20.656C79.0655 20.592 79.7855 20.528 80.5215 20.464C81.2575 20.4 82.0095 20.368 82.7775 20.368C83.5775 20.336 84.3455 20.32 85.0815 20.32C87.6735 20.32 89.7535 20.64 91.3215 21.28C92.9215 21.92 94.0895 22.928 94.8255 24.304C95.5615 25.648 95.9295 27.44 95.9295 29.68V46H93.0495ZM84.4575 46.672C82.6655 46.672 81.0815 46.352 79.7055 45.712C78.3295 45.072 77.2575 44.144 76.4895 42.928C75.7535 41.712 75.3855 40.24 75.3855 38.512C75.3855 36.816 75.7695 35.376 76.5375 34.192C77.3375 33.008 78.4735 32.112 79.9455 31.504C81.4495 30.864 83.2575 30.544 85.3695 30.544H92.8095V33.28H85.1295C83.1135 33.28 81.5615 33.776 80.4735 34.768C79.4175 35.728 78.8895 36.992 78.8895 38.56C78.8895 40.16 79.4495 41.44 80.5695 42.4C81.6895 43.328 83.2095 43.792 85.1295 43.792C86.3135 43.792 87.4495 43.584 88.5375 43.168C89.6255 42.72 90.5375 41.984 91.2735 40.96C92.0095 39.904 92.4095 38.464 92.4735 36.64L93.5295 38.128C93.4015 40.016 92.9535 41.6 92.1855 42.88C91.4175 44.128 90.3775 45.072 89.0655 45.712C87.7535 46.352 86.2175 46.672 84.4575 46.672ZM114.138 46.288C112.378 46.288 110.858 46.032 109.578 45.52C108.298 45.008 107.306 44.144 106.602 42.928C105.898 41.68 105.546 40.016 105.546 37.936V12.592H109.002V38.464C109.002 39.936 109.402 41.072 110.202 41.872C111.002 42.64 112.138 43.024 113.61 43.024H118.17V46.288H114.138ZM100.986 23.344V20.608H118.17V23.344H100.986ZM135.498 46.816C133.322 46.816 131.434 46.448 129.834 45.712C128.234 44.944 126.922 43.936 125.898 42.688C124.874 41.408 124.106 39.984 123.594 38.416C123.114 36.848 122.874 35.232 122.874 33.568V32.896C122.874 31.264 123.114 29.664 123.594 28.096C124.106 26.528 124.874 25.12 125.898 23.872C126.922 22.624 128.202 21.632 129.738 20.896C131.306 20.128 133.13 19.744 135.21 19.744C137.866 19.744 140.074 20.336 141.834 21.52C143.626 22.704 144.97 24.224 145.866 26.08C146.762 27.904 147.21 29.872 147.21 31.984V33.856H124.506V31.072H144.714L143.802 32.464C143.802 30.576 143.466 28.928 142.794 27.52C142.154 26.08 141.194 24.96 139.914 24.16C138.666 23.328 137.098 22.912 135.21 22.912C133.226 22.912 131.578 23.376 130.266 24.304C128.954 25.232 127.962 26.464 127.29 28C126.65 29.536 126.33 31.28 126.33 33.232C126.33 35.152 126.65 36.912 127.29 38.512C127.962 40.08 128.97 41.328 130.314 42.256C131.69 43.184 133.418 43.648 135.498 43.648C137.706 43.648 139.498 43.152 140.874 42.16C142.25 41.136 143.098 39.936 143.418 38.56H146.778C146.458 40.256 145.786 41.728 144.762 42.976C143.738 44.192 142.442 45.136 140.874 45.808C139.306 46.48 137.514 46.816 135.498 46.816ZM163.836 55.936C162.652 55.936 161.452 55.872 160.236 55.744C159.052 55.648 157.916 55.52 156.828 55.36V52.288C157.98 52.448 159.18 52.576 160.428 52.672C161.708 52.8 162.908 52.864 164.028 52.864C166.46 52.864 168.396 52.544 169.836 51.904C171.276 51.264 172.3 50.24 172.908 48.832C173.548 47.456 173.868 45.632 173.868 43.36V38.272L175.212 34.72C175.148 37.152 174.636 39.248 173.676 41.008C172.716 42.736 171.42 44.064 169.788 44.992C168.156 45.92 166.3 46.384 164.22 46.384C162.396 46.384 160.732 46.032 159.228 45.328C157.756 44.624 156.492 43.664 155.436 42.448C154.38 41.2 153.564 39.792 152.988 38.224C152.412 36.656 152.124 35.008 152.124 33.28V32.608C152.124 30.912 152.412 29.296 152.988 27.76C153.564 26.192 154.38 24.816 155.436 23.632C156.492 22.416 157.772 21.472 159.276 20.8C160.812 20.096 162.508 19.744 164.364 19.744C166.604 19.744 168.556 20.24 170.22 21.232C171.884 22.224 173.18 23.6 174.108 25.36C175.068 27.12 175.58 29.184 175.644 31.552L174.492 30.928V20.608H177.324V43.216C177.324 46.256 176.876 48.704 175.98 50.56C175.084 52.416 173.644 53.776 171.66 54.64C169.708 55.504 167.1 55.936 163.836 55.936ZM164.844 43.072C166.572 43.072 168.108 42.704 169.452 41.968C170.828 41.2 171.916 40.128 172.716 38.752C173.516 37.376 173.916 35.776 173.916 33.952V31.6C173.916 29.84 173.5 28.304 172.668 26.992C171.868 25.68 170.796 24.656 169.452 23.92C168.108 23.184 166.572 22.816 164.844 22.816C162.988 22.816 161.372 23.264 159.996 24.16C158.62 25.056 157.564 26.272 156.828 27.808C156.092 29.312 155.724 31.024 155.724 32.944C155.724 34.896 156.092 36.64 156.828 38.176C157.596 39.712 158.668 40.912 160.044 41.776C161.42 42.64 163.02 43.072 164.844 43.072ZM187.688 46V20.608H191.24V46H187.688ZM183.608 23.488V20.608H191.24V23.488H183.608ZM188.456 15.904C187.592 15.904 186.936 15.68 186.488 15.232C186.072 14.752 185.864 14.16 185.864 13.456C185.864 12.752 186.072 12.176 186.488 11.728C186.936 11.248 187.592 11.008 188.456 11.008C189.32 11.008 189.96 11.248 190.376 11.728C190.792 12.176 191 12.752 191 13.456C191 14.16 190.792 14.752 190.376 15.232C189.96 15.68 189.32 15.904 188.456 15.904ZM211.391 46.816C209.247 46.816 207.375 46.448 205.775 45.712C204.207 44.944 202.895 43.92 201.839 42.64C200.783 41.328 199.983 39.888 199.439 38.32C198.927 36.752 198.671 35.168 198.671 33.568V32.896C198.671 31.264 198.927 29.68 199.439 28.144C199.983 26.576 200.783 25.168 201.839 23.92C202.895 22.64 204.207 21.632 205.775 20.896C207.375 20.128 209.215 19.744 211.295 19.744C213.407 19.744 215.279 20.128 216.911 20.896C218.575 21.664 219.919 22.752 220.943 24.16C221.967 25.568 222.575 27.232 222.767 29.152H219.311C219.023 27.392 218.191 25.936 216.815 24.784C215.471 23.6 213.631 23.008 211.295 23.008C209.279 23.008 207.599 23.472 206.255 24.4C204.943 25.296 203.951 26.528 203.279 28.096C202.607 29.632 202.271 31.344 202.271 33.232C202.271 35.088 202.607 36.816 203.279 38.416C203.951 39.984 204.959 41.248 206.303 42.208C207.647 43.136 209.343 43.6 211.391 43.6C212.959 43.6 214.319 43.328 215.471 42.784C216.655 42.208 217.599 41.44 218.303 40.48C219.039 39.52 219.471 38.464 219.599 37.312H223.055C222.927 39.232 222.319 40.912 221.231 42.352C220.175 43.76 218.799 44.864 217.103 45.664C215.407 46.432 213.503 46.816 211.391 46.816ZM248.875 46.72C245.611 46.72 243.099 46.016 241.339 44.608C239.579 43.168 238.683 41.248 238.651 38.848H242.011C242.075 40.064 242.619 41.168 243.643 42.16C244.699 43.152 246.443 43.648 248.875 43.648C251.147 43.648 252.843 43.184 253.963 42.256C255.115 41.296 255.691 40.144 255.691 38.8C255.691 37.552 255.211 36.592 254.251 35.92C253.323 35.216 251.963 34.768 250.171 34.576L247.291 34.288C244.987 34.032 243.115 33.328 241.675 32.176C240.267 30.992 239.563 29.376 239.563 27.328C239.563 25.824 239.947 24.512 240.715 23.392C241.483 22.272 242.555 21.408 243.931 20.8C245.339 20.16 246.987 19.84 248.875 19.84C251.595 19.84 253.803 20.48 255.499 21.76C257.227 23.04 258.107 24.864 258.139 27.232H254.779C254.747 26.016 254.235 24.992 253.243 24.16C252.251 23.328 250.795 22.912 248.875 22.912C246.891 22.912 245.403 23.344 244.411 24.208C243.451 25.072 242.971 26.128 242.971 27.376C242.971 28.432 243.339 29.312 244.075 30.016C244.811 30.688 245.963 31.104 247.531 31.264L250.411 31.552C252.971 31.84 255.051 32.576 256.651 33.76C258.283 34.944 259.099 36.64 259.099 38.848C259.099 40.352 258.667 41.712 257.803 42.928C256.971 44.112 255.787 45.04 254.251 45.712C252.715 46.384 250.923 46.72 248.875 46.72ZM276.873 46.816C274.697 46.816 272.809 46.448 271.209 45.712C269.609 44.944 268.297 43.936 267.273 42.688C266.249 41.408 265.481 39.984 264.969 38.416C264.489 36.848 264.249 35.232 264.249 33.568V32.896C264.249 31.264 264.489 29.664 264.969 28.096C265.481 26.528 266.249 25.12 267.273 23.872C268.297 22.624 269.577 21.632 271.113 20.896C272.681 20.128 274.505 19.744 276.585 19.744C279.241 19.744 281.449 20.336 283.209 21.52C285.001 22.704 286.345 24.224 287.241 26.08C288.137 27.904 288.585 29.872 288.585 31.984V33.856H265.881V31.072H286.089L285.177 32.464C285.177 30.576 284.841 28.928 284.169 27.52C283.529 26.08 282.569 24.96 281.289 24.16C280.041 23.328 278.473 22.912 276.585 22.912C274.601 22.912 272.953 23.376 271.641 24.304C270.329 25.232 269.337 26.464 268.665 28C268.025 29.536 267.705 31.28 267.705 33.232C267.705 35.152 268.025 36.912 268.665 38.512C269.337 40.08 270.345 41.328 271.689 42.256C273.065 43.184 274.793 43.648 276.873 43.648C279.081 43.648 280.873 43.152 282.249 42.16C283.625 41.136 284.473 39.936 284.793 38.56H288.153C287.833 40.256 287.161 41.728 286.137 42.976C285.113 44.192 283.817 45.136 282.249 45.808C280.681 46.48 278.889 46.816 276.873 46.816ZM295.515 46V20.608H298.395V31.216H298.107C298.107 27.504 298.923 24.768 300.555 23.008C302.187 21.216 304.747 20.32 308.235 20.32H309.051V23.584H307.563C304.811 23.584 302.715 24.304 301.275 25.744C299.835 27.152 299.115 29.232 299.115 31.984V46H295.515ZM321.383 46L312.455 20.608H316.151L324.983 46H321.383ZM322.343 46V43.072H326.903V46H322.343ZM324.311 46L332.039 20.608H335.591L327.719 46H324.311ZM343.312 46V20.608H346.865V46H343.312ZM339.233 23.488V20.608H346.865V23.488H339.233ZM344.081 15.904C343.217 15.904 342.561 15.68 342.113 15.232C341.697 14.752 341.489 14.16 341.489 13.456C341.489 12.752 341.697 12.176 342.113 11.728C342.561 11.248 343.217 11.008 344.081 11.008C344.945 11.008 345.585 11.248 346.001 11.728C346.417 12.176 346.625 12.752 346.625 13.456C346.625 14.16 346.417 14.752 346.001 15.232C345.585 15.68 344.945 15.904 344.081 15.904ZM367.016 46.816C364.872 46.816 363 46.448 361.4 45.712C359.832 44.944 358.52 43.92 357.464 42.64C356.408 41.328 355.608 39.888 355.064 38.32C354.552 36.752 354.296 35.168 354.296 33.568V32.896C354.296 31.264 354.552 29.68 355.064 28.144C355.608 26.576 356.408 25.168 357.464 23.92C358.52 22.64 359.832 21.632 361.4 20.896C363 20.128 364.84 19.744 366.92 19.744C369.032 19.744 370.904 20.128 372.536 20.896C374.2 21.664 375.544 22.752 376.568 24.16C377.592 25.568 378.2 27.232 378.392 29.152H374.936C374.648 27.392 373.816 25.936 372.44 24.784C371.096 23.6 369.256 23.008 366.92 23.008C364.904 23.008 363.224 23.472 361.88 24.4C360.568 25.296 359.576 26.528 358.904 28.096C358.232 29.632 357.896 31.344 357.896 33.232C357.896 35.088 358.232 36.816 358.904 38.416C359.576 39.984 360.584 41.248 361.928 42.208C363.272 43.136 364.968 43.6 367.016 43.6C368.584 43.6 369.944 43.328 371.096 42.784C372.28 42.208 373.224 41.44 373.928 40.48C374.664 39.52 375.096 38.464 375.224 37.312H378.68C378.552 39.232 377.944 40.912 376.856 42.352C375.8 43.76 374.424 44.864 372.728 45.664C371.032 46.432 369.128 46.816 367.016 46.816ZM395.889 46.816C393.713 46.816 391.825 46.448 390.225 45.712C388.625 44.944 387.313 43.936 386.289 42.688C385.265 41.408 384.497 39.984 383.985 38.416C383.505 36.848 383.265 35.232 383.265 33.568V32.896C383.265 31.264 383.505 29.664 383.985 28.096C384.497 26.528 385.265 25.12 386.289 23.872C387.313 22.624 388.593 21.632 390.129 20.896C391.697 20.128 393.521 19.744 395.601 19.744C398.257 19.744 400.465 20.336 402.225 21.52C404.017 22.704 405.361 24.224 406.257 26.08C407.153 27.904 407.601 29.872 407.601 31.984V33.856H384.897V31.072H405.105L404.193 32.464C404.193 30.576 403.857 28.928 403.185 27.52C402.545 26.08 401.585 24.96 400.305 24.16C399.057 23.328 397.489 22.912 395.601 22.912C393.617 22.912 391.969 23.376 390.657 24.304C389.345 25.232 388.353 26.464 387.681 28C387.041 29.536 386.721 31.28 386.721 33.232C386.721 35.152 387.041 36.912 387.681 38.512C388.353 40.08 389.361 41.328 390.705 42.256C392.081 43.184 393.809 43.648 395.889 43.648C398.097 43.648 399.889 43.152 401.265 42.16C402.641 41.136 403.489 39.936 403.809 38.56H407.169C406.849 40.256 406.177 41.728 405.153 42.976C404.129 44.192 402.833 45.136 401.265 45.808C399.697 46.48 397.905 46.816 395.889 46.816ZM422.547 46.72C419.283 46.72 416.771 46.016 415.011 44.608C413.251 43.168 412.355 41.248 412.323 38.848H415.683C415.747 40.064 416.291 41.168 417.315 42.16C418.371 43.152 420.115 43.648 422.547 43.648C424.819 43.648 426.515 43.184 427.635 42.256C428.787 41.296 429.363 40.144 429.363 38.8C429.363 37.552 428.883 36.592 427.923 35.92C426.995 35.216 425.635 34.768 423.843 34.576L420.963 34.288C418.659 34.032 416.787 33.328 415.347 32.176C413.939 30.992 413.235 29.376 413.235 27.328C413.235 25.824 413.619 24.512 414.387 23.392C415.155 22.272 416.227 21.408 417.603 20.8C419.011 20.16 420.659 19.84 422.547 19.84C425.267 19.84 427.475 20.48 429.171 21.76C430.899 23.04 431.779 24.864 431.811 27.232H428.451C428.419 26.016 427.907 24.992 426.915 24.16C425.923 23.328 424.467 22.912 422.547 22.912C420.563 22.912 419.075 23.344 418.083 24.208C417.123 25.072 416.643 26.128 416.643 27.376C416.643 28.432 417.011 29.312 417.747 30.016C418.483 30.688 419.635 31.104 421.203 31.264L424.083 31.552C426.643 31.84 428.723 32.576 430.323 33.76C431.955 34.944 432.771 36.64 432.771 38.848C432.771 40.352 432.339 41.712 431.475 42.928C430.643 44.112 429.459 45.04 427.923 45.712C426.387 46.384 424.595 46.72 422.547 46.72Z" fill="#0D0D0D"/>
<path d="M451.86 46V18.64C451.86 15.984 452.548 14.016 453.924 12.736C455.3 11.456 457.364 10.816 460.116 10.816H463.332V13.888H459.444C458.1 13.888 457.076 14.24 456.372 14.944C455.668 15.648 455.316 16.64 455.316 17.92V46H451.86ZM448.164 23.584V20.8H463.86V23.584H448.164ZM480.282 46.816C478.106 46.816 476.186 46.448 474.522 45.712C472.89 44.944 471.498 43.936 470.346 42.688C469.226 41.408 468.362 39.984 467.754 38.416C467.178 36.848 466.89 35.248 466.89 33.616V32.944C466.89 31.312 467.194 29.712 467.802 28.144C468.41 26.544 469.29 25.12 470.442 23.872C471.594 22.624 472.986 21.632 474.618 20.896C476.282 20.128 478.17 19.744 480.282 19.744C482.426 19.744 484.314 20.128 485.946 20.896C487.61 21.632 489.018 22.624 490.17 23.872C491.322 25.12 492.186 26.544 492.762 28.144C493.37 29.712 493.674 31.312 493.674 32.944V33.616C493.674 35.248 493.386 36.848 492.81 38.416C492.234 39.984 491.37 41.408 490.218 42.688C489.098 43.936 487.706 44.944 486.042 45.712C484.378 46.448 482.458 46.816 480.282 46.816ZM480.282 43.6C482.394 43.6 484.17 43.136 485.61 42.208C487.082 41.248 488.202 40 488.97 38.464C489.738 36.896 490.122 35.168 490.122 33.28C490.122 31.36 489.722 29.632 488.922 28.096C488.154 26.528 487.034 25.296 485.562 24.4C484.09 23.472 482.33 23.008 480.282 23.008C478.266 23.008 476.522 23.472 475.05 24.4C473.578 25.296 472.442 26.528 471.642 28.096C470.874 29.632 470.49 31.36 470.49 33.28C470.49 35.168 470.874 36.896 471.642 38.464C472.41 40 473.514 41.248 474.954 42.208C476.426 43.136 478.202 43.6 480.282 43.6ZM501.015 46V20.608H503.895V31.216H503.607C503.607 27.504 504.423 24.768 506.055 23.008C507.687 21.216 510.247 20.32 513.735 20.32H514.551V23.584H513.063C510.311 23.584 508.215 24.304 506.775 25.744C505.335 27.152 504.615 29.232 504.615 31.984V46H501.015ZM15.36 106.816C13.216 106.816 11.344 106.448 9.744 105.712C8.176 104.944 6.864 103.92 5.808 102.64C4.752 101.328 3.952 99.888 3.408 98.32C2.896 96.752 2.64 95.168 2.64 93.568V92.896C2.64 91.264 2.896 89.68 3.408 88.144C3.952 86.576 4.752 85.168 5.808 83.92C6.864 82.64 8.176 81.632 9.744 80.896C11.344 80.128 13.184 79.744 15.264 79.744C17.376 79.744 19.248 80.128 20.88 80.896C22.544 81.664 23.888 82.752 24.912 84.16C25.936 85.568 26.544 87.232 26.736 89.152H23.28C22.992 87.392 22.16 85.936 20.784 84.784C19.44 83.6 17.6 83.008 15.264 83.008C13.248 83.008 11.568 83.472 10.224 84.4C8.912 85.296 7.92 86.528 7.248 88.096C6.576 89.632 6.24 91.344 6.24 93.232C6.24 95.088 6.576 96.816 7.248 98.416C7.92 99.984 8.928 101.248 10.272 102.208C11.616 103.136 13.312 103.6 15.36 103.6C16.928 103.6 18.288 103.328 19.44 102.784C20.624 102.208 21.568 101.44 22.272 100.48C23.008 99.52 23.44 98.464 23.568 97.312H27.024C26.896 99.232 26.288 100.912 25.2 102.352C24.144 103.76 22.768 104.864 21.072 105.664C19.376 106.432 17.472 106.816 15.36 106.816ZM45.0008 106.816C42.8248 106.816 40.9048 106.448 39.2408 105.712C37.6088 104.944 36.2168 103.936 35.0648 102.688C33.9448 101.408 33.0808 99.984 32.4728 98.416C31.8968 96.848 31.6088 95.248 31.6088 93.616V92.944C31.6088 91.312 31.9128 89.712 32.5208 88.144C33.1288 86.544 34.0088 85.12 35.1608 83.872C36.3128 82.624 37.7048 81.632 39.3368 80.896C41.0008 80.128 42.8888 79.744 45.0008 79.744C47.1448 79.744 49.0328 80.128 50.6648 80.896C52.3288 81.632 53.7368 82.624 54.8888 83.872C56.0408 85.12 56.9048 86.544 57.4808 88.144C58.0888 89.712 58.3928 91.312 58.3928 92.944V93.616C58.3928 95.248 58.1048 96.848 57.5288 98.416C56.9528 99.984 56.0888 101.408 54.9368 102.688C53.8168 103.936 52.4248 104.944 50.7608 105.712C49.0968 106.448 47.1768 106.816 45.0008 106.816ZM45.0008 103.6C47.1128 103.6 48.8888 103.136 50.3288 102.208C51.8008 101.248 52.9208 100 53.6888 98.464C54.4568 96.896 54.8408 95.168 54.8408 93.28C54.8408 91.36 54.4408 89.632 53.6407 88.096C52.8728 86.528 51.7528 85.296 50.2808 84.4C48.8088 83.472 47.0488 83.008 45.0008 83.008C42.9848 83.008 41.2408 83.472 39.7688 84.4C38.2968 85.296 37.1608 86.528 36.3608 88.096C35.5928 89.632 35.2088 91.36 35.2088 93.28C35.2088 95.168 35.5928 96.896 36.3608 98.464C37.1288 100 38.2328 101.248 39.6728 102.208C41.1448 103.136 42.9208 103.6 45.0008 103.6ZM65.7341 106V80.56H68.6141V91.264H68.0381C68.0381 88.928 68.3581 86.912 68.9981 85.216C69.6701 83.52 70.6621 82.208 71.9741 81.28C73.2861 80.32 74.9501 79.84 76.9661 79.84H77.1101C79.1261 79.84 80.7901 80.304 82.1021 81.232C83.4141 82.16 84.3901 83.472 85.0301 85.168C85.6701 86.864 85.9901 88.896 85.9901 91.264H84.8381C84.8381 88.928 85.1581 86.912 85.7981 85.216C86.4701 83.52 87.4621 82.208 88.7741 81.28C90.1181 80.32 91.7981 79.84 93.8141 79.84H93.9581C95.9741 79.84 97.6381 80.304 98.9501 81.232C100.294 82.16 101.286 83.472 101.926 85.168C102.598 86.864 102.934 88.896 102.934 91.264V106H99.3341V90.448C99.3341 88.208 98.7901 86.432 97.7021 85.12C96.6141 83.808 95.0461 83.152 92.9981 83.152C90.8861 83.152 89.2061 83.84 87.9581 85.216C86.7421 86.56 86.1341 88.384 86.1341 90.688V106H82.5341V90.448C82.5341 88.208 81.9901 86.432 80.9021 85.12C79.8141 83.808 78.2461 83.152 76.1981 83.152C74.0861 83.152 72.4061 83.84 71.1581 85.216C69.9421 86.56 69.3341 88.384 69.3341 90.688V106H65.7341ZM111.906 115.6V80.608H114.786V91.504L113.922 91.6C114.05 89.04 114.594 86.88 115.554 85.12C116.546 83.36 117.874 82.032 119.538 81.136C121.234 80.208 123.122 79.744 125.202 79.744C127.058 79.744 128.738 80.112 130.242 80.848C131.778 81.552 133.074 82.528 134.13 83.776C135.218 84.992 136.034 86.4 136.578 88C137.154 89.568 137.442 91.216 137.442 92.944V93.616C137.442 95.344 137.154 97.008 136.578 98.608C136.002 100.176 135.17 101.584 134.082 102.832C133.026 104.048 131.73 105.024 130.194 105.76C128.69 106.464 126.994 106.816 125.106 106.816C123.09 106.816 121.234 106.368 119.538 105.472C117.874 104.544 116.514 103.184 115.458 101.392C114.434 99.6 113.874 97.392 113.778 94.768L115.506 98.368V115.6H111.906ZM124.626 103.648C126.546 103.648 128.194 103.2 129.57 102.304C130.946 101.376 132.002 100.128 132.738 98.56C133.474 96.96 133.842 95.2 133.842 93.28C133.842 91.296 133.458 89.536 132.69 88C131.954 86.432 130.898 85.2 129.522 84.304C128.146 83.376 126.514 82.912 124.626 82.912C122.898 82.912 121.33 83.296 119.922 84.064C118.514 84.832 117.394 85.92 116.562 87.328C115.762 88.704 115.362 90.336 115.362 92.224V94.576C115.362 96.368 115.762 97.952 116.562 99.328C117.394 100.672 118.514 101.728 119.922 102.496C121.33 103.264 122.898 103.648 124.626 103.648ZM144.959 106V70.96H148.559V106H144.959ZM141.263 73.888V70.96H148.559V73.888H141.263ZM168.498 106.816C166.322 106.816 164.434 106.448 162.834 105.712C161.234 104.944 159.922 103.936 158.898 102.688C157.874 101.408 157.106 99.984 156.594 98.416C156.114 96.848 155.874 95.232 155.874 93.568V92.896C155.874 91.264 156.114 89.664 156.594 88.096C157.106 86.528 157.874 85.12 158.898 83.872C159.922 82.624 161.202 81.632 162.738 80.896C164.306 80.128 166.13 79.744 168.21 79.744C170.866 79.744 173.074 80.336 174.834 81.52C176.626 82.704 177.97 84.224 178.866 86.08C179.762 87.904 180.21 89.872 180.21 91.984V93.856H157.506V91.072H177.714L176.802 92.464C176.802 90.576 176.466 88.928 175.794 87.52C175.154 86.08 174.194 84.96 172.914 84.16C171.666 83.328 170.098 82.912 168.21 82.912C166.226 82.912 164.578 83.376 163.266 84.304C161.954 85.232 160.962 86.464 160.29 88C159.65 89.536 159.33 91.28 159.33 93.232C159.33 95.152 159.65 96.912 160.29 98.512C160.962 100.08 161.97 101.328 163.314 102.256C164.69 103.184 166.418 103.648 168.498 103.648C170.706 103.648 172.498 103.152 173.874 102.16C175.25 101.136 176.098 99.936 176.418 98.56H179.778C179.458 100.256 178.786 101.728 177.762 102.976C176.738 104.192 175.442 105.136 173.874 105.808C172.306 106.48 170.514 106.816 168.498 106.816ZM183.974 106L193.382 92.608V93.568L184.55 80.608H188.486L195.206 90.592H195.878L202.262 80.608H205.958L197.654 93.184V92.272L207.542 106H203.606L195.83 95.2H195.206L187.67 106H183.974ZM232.563 106.72C229.299 106.72 226.787 106.016 225.027 104.608C223.267 103.168 222.371 101.248 222.339 98.848H225.699C225.763 100.064 226.307 101.168 227.331 102.16C228.387 103.152 230.131 103.648 232.563 103.648C234.835 103.648 236.531 103.184 237.651 102.256C238.803 101.296 239.379 100.144 239.379 98.8C239.379 97.552 238.899 96.592 237.939 95.92C237.011 95.216 235.651 94.768 233.859 94.576L230.979 94.288C228.675 94.032 226.803 93.328 225.363 92.176C223.955 90.992 223.251 89.376 223.251 87.328C223.251 85.824 223.635 84.512 224.403 83.392C225.171 82.272 226.243 81.408 227.619 80.8C229.027 80.16 230.675 79.84 232.563 79.84C235.283 79.84 237.491 80.48 239.187 81.76C240.915 83.04 241.795 84.864 241.827 87.232H238.467C238.435 86.016 237.923 84.992 236.931 84.16C235.939 83.328 234.483 82.912 232.563 82.912C230.579 82.912 229.091 83.344 228.099 84.208C227.139 85.072 226.659 86.128 226.659 87.376C226.659 88.432 227.027 89.312 227.763 90.016C228.499 90.688 229.651 91.104 231.219 91.264L234.099 91.552C236.659 91.84 238.739 92.576 240.339 93.76C241.971 94.944 242.787 96.64 242.787 98.848C242.787 100.352 242.355 101.712 241.491 102.928C240.659 104.112 239.475 105.04 237.939 105.712C236.403 106.384 234.611 106.72 232.563 106.72ZM247.556 115.888V112.672H250.82C251.94 112.672 252.9 112.528 253.7 112.24C254.5 111.984 255.172 111.52 255.716 110.848C256.26 110.176 256.724 109.248 257.108 108.064L265.652 80.608H269.156L260.228 109.072C259.716 110.704 259.012 112.016 258.116 113.008C257.22 114.032 256.148 114.768 254.9 115.216C253.652 115.664 252.228 115.888 250.628 115.888H247.556ZM255.812 105.376V102.352H260.372V105.376H255.812ZM255.38 105.376L246.164 80.608H249.86L258.74 105.376H255.38ZM283.328 106.72C280.064 106.72 277.552 106.016 275.792 104.608C274.032 103.168 273.136 101.248 273.104 98.848H276.464C276.528 100.064 277.072 101.168 278.096 102.16C279.152 103.152 280.896 103.648 283.328 103.648C285.6 103.648 287.296 103.184 288.416 102.256C289.568 101.296 290.144 100.144 290.144 98.8C290.144 97.552 289.664 96.592 288.704 95.92C287.776 95.216 286.416 94.768 284.624 94.576L281.744 94.288C279.44 94.032 277.568 93.328 276.128 92.176C274.72 90.992 274.016 89.376 274.016 87.328C274.016 85.824 274.4 84.512 275.168 83.392C275.936 82.272 277.008 81.408 278.384 80.8C279.792 80.16 281.44 79.84 283.328 79.84C286.048 79.84 288.256 80.48 289.952 81.76C291.68 83.04 292.56 84.864 292.592 87.232H289.232C289.2 86.016 288.688 84.992 287.696 84.16C286.704 83.328 285.248 82.912 283.328 82.912C281.344 82.912 279.856 83.344 278.864 84.208C277.904 85.072 277.424 86.128 277.424 87.376C277.424 88.432 277.792 89.312 278.528 90.016C279.264 90.688 280.416 91.104 281.984 91.264L284.864 91.552C287.424 91.84 289.504 92.576 291.104 93.76C292.736 94.944 293.552 96.64 293.552 98.848C293.552 100.352 293.12 101.712 292.256 102.928C291.424 104.112 290.24 105.04 288.704 105.712C287.168 106.384 285.376 106.72 283.328 106.72ZM309.935 106.288C308.175 106.288 306.655 106.032 305.375 105.52C304.095 105.008 303.103 104.144 302.398 102.928C301.695 101.68 301.343 100.016 301.343 97.936V72.592H304.799V98.464C304.799 99.936 305.199 101.072 305.999 101.872C306.799 102.64 307.935 103.024 309.407 103.024H313.967V106.288H309.935ZM296.783 83.344V80.608H313.967V83.344H296.783ZM331.295 106.816C329.119 106.816 327.231 106.448 325.631 105.712C324.031 104.944 322.719 103.936 321.695 102.688C320.671 101.408 319.903 99.984 319.391 98.416C318.911 96.848 318.671 95.232 318.671 93.568V92.896C318.671 91.264 318.911 89.664 319.391 88.096C319.903 86.528 320.671 85.12 321.695 83.872C322.719 82.624 323.999 81.632 325.535 80.896C327.103 80.128 328.927 79.744 331.007 79.744C333.663 79.744 335.871 80.336 337.631 81.52C339.423 82.704 340.767 84.224 341.663 86.08C342.559 87.904 343.007 89.872 343.007 91.984V93.856H320.303V91.072H340.511L339.599 92.464C339.599 90.576 339.263 88.928 338.591 87.52C337.951 86.08 336.991 84.96 335.711 84.16C334.463 83.328 332.895 82.912 331.007 82.912C329.023 82.912 327.375 83.376 326.063 84.304C324.751 85.232 323.759 86.464 323.087 88C322.447 89.536 322.127 91.28 322.127 93.232C322.127 95.152 322.447 96.912 323.087 98.512C323.759 100.08 324.767 101.328 326.111 102.256C327.487 103.184 329.215 103.648 331.295 103.648C333.503 103.648 335.295 103.152 336.671 102.16C338.047 101.136 338.895 99.936 339.215 98.56H342.575C342.255 100.256 341.583 101.728 340.559 102.976C339.535 104.192 338.239 105.136 336.671 105.808C335.103 106.48 333.311 106.816 331.295 106.816ZM349.937 106V80.56H352.817V91.264H352.241C352.241 88.928 352.561 86.912 353.201 85.216C353.873 83.52 354.865 82.208 356.177 81.28C357.489 80.32 359.153 79.84 361.169 79.84H361.313C363.329 79.84 364.993 80.304 366.305 81.232C367.617 82.16 368.593 83.472 369.233 85.168C369.873 86.864 370.193 88.896 370.193 91.264H369.041C369.041 88.928 369.361 86.912 370.001 85.216C370.673 83.52 371.665 82.208 372.977 81.28C374.321 80.32 376.001 79.84 378.017 79.84H378.161C380.177 79.84 381.841 80.304 383.153 81.232C384.497 82.16 385.489 83.472 386.129 85.168C386.801 86.864 387.137 88.896 387.137 91.264V106H383.537V90.448C383.537 88.208 382.993 86.432 381.905 85.12C380.817 83.808 379.249 83.152 377.201 83.152C375.089 83.152 373.409 83.84 372.161 85.216C370.945 86.56 370.337 88.384 370.337 90.688V106H366.737V90.448C366.737 88.208 366.193 86.432 365.105 85.12C364.017 83.808 362.449 83.152 360.401 83.152C358.289 83.152 356.609 83.84 355.361 85.216C354.145 86.56 353.537 88.384 353.537 90.688V106H349.937ZM404.125 106.72C400.861 106.72 398.349 106.016 396.589 104.608C394.829 103.168 393.933 101.248 393.901 98.848H397.261C397.325 100.064 397.869 101.168 398.893 102.16C399.949 103.152 401.693 103.648 404.125 103.648C406.397 103.648 408.093 103.184 409.213 102.256C410.365 101.296 410.941 100.144 410.941 98.8C410.941 97.552 410.461 96.592 409.501 95.92C408.573 95.216 407.213 94.768 405.421 94.576L402.541 94.288C400.237 94.032 398.365 93.328 396.925 92.176C395.517 90.992 394.813 89.376 394.813 87.328C394.813 85.824 395.197 84.512 395.965 83.392C396.733 82.272 397.805 81.408 399.181 80.8C400.589 80.16 402.237 79.84 404.125 79.84C406.845 79.84 409.053 80.48 410.749 81.76C412.477 83.04 413.357 84.864 413.389 87.232H410.029C409.997 86.016 409.485 84.992 408.493 84.16C407.501 83.328 406.045 82.912 404.125 82.912C402.141 82.912 400.653 83.344 399.661 84.208C398.701 85.072 398.221 86.128 398.221 87.376C398.221 88.432 398.589 89.312 399.325 90.016C400.061 90.688 401.213 91.104 402.781 91.264L405.661 91.552C408.221 91.84 410.301 92.576 411.901 93.76C413.533 94.944 414.349 96.64 414.349 98.848C414.349 100.352 413.917 101.712 413.053 102.928C412.221 104.112 411.037 105.04 409.501 105.712C407.965 106.384 406.173 106.72 404.125 106.72ZM420.327 106V101.248H424.839V106H420.327Z" fill="url(#paint0_radial_1037_1354)"/>
<path d="M8.832 143L3.888 125.48H5.208L9.84 142.184L9.288 141.824H11.088L10.536 142.184L14.376 126.272H15.6L11.52 143H8.832ZM19.368 143L14.928 126.272H16.176L20.4 142.184L19.8 141.824H21.672L21.072 142.184L25.344 125.48H26.64L22.08 143H19.368ZM30.0111 143V125.48H31.2831V134.84L30.8271 135.656C30.8271 134.552 30.9951 133.584 31.3311 132.752C31.6831 131.904 32.2111 131.248 32.9151 130.784C33.6191 130.304 34.5071 130.064 35.5791 130.064H35.6271C37.1951 130.064 38.3791 130.56 39.1791 131.552C39.9791 132.528 40.3791 133.864 40.3791 135.56V143H39.0831V135.272C39.0831 134.056 38.7551 133.08 38.0991 132.344C37.4431 131.608 36.5151 131.24 35.3151 131.24C34.0831 131.24 33.0991 131.632 32.3631 132.416C31.6431 133.184 31.2831 134.192 31.2831 135.44V143H30.0111ZM52.8557 143V139.232H52.6157V134.6C52.6157 133.592 52.3517 132.816 51.8237 132.272C51.2957 131.712 50.4237 131.432 49.2077 131.432C48.7757 131.432 48.3357 131.448 47.8877 131.48C47.4397 131.496 47.0157 131.52 46.6157 131.552C46.2157 131.568 45.8557 131.6 45.5357 131.648V130.496C45.8557 130.448 46.1917 130.408 46.5437 130.376C46.9117 130.344 47.2797 130.32 47.6477 130.304C48.0157 130.288 48.3677 130.28 48.7037 130.28C49.9677 130.28 50.9757 130.448 51.7277 130.784C52.4797 131.104 53.0237 131.6 53.3597 132.272C53.6957 132.928 53.8637 133.768 53.8637 134.792V143H52.8557ZM48.4637 143.336C47.6157 143.336 46.8557 143.184 46.1837 142.88C45.5117 142.576 44.9757 142.128 44.5757 141.536C44.1917 140.944 43.9997 140.224 43.9997 139.376C43.9997 138.56 44.1837 137.864 44.5517 137.288C44.9357 136.712 45.4797 136.272 46.1837 135.968C46.9037 135.664 47.7677 135.512 48.7757 135.512H52.7357V136.544H48.6557C47.5677 136.544 46.7277 136.808 46.1357 137.336C45.5597 137.848 45.2717 138.528 45.2717 139.376C45.2717 140.272 45.5837 140.984 46.2077 141.512C46.8317 142.024 47.6477 142.28 48.6557 142.28C49.2797 142.28 49.8877 142.16 50.4797 141.92C51.0717 141.68 51.5677 141.28 51.9677 140.72C52.3677 140.144 52.5837 139.376 52.6157 138.416L53.0957 138.968C53.0477 139.944 52.8077 140.76 52.3757 141.416C51.9597 142.056 51.4157 142.536 50.7437 142.856C50.0717 143.176 49.3117 143.336 48.4637 143.336ZM62.8283 143.12C62.0443 143.12 61.3563 143.008 60.7643 142.784C60.1723 142.544 59.7163 142.144 59.3963 141.584C59.0763 141.024 58.9163 140.272 58.9163 139.328V126.296H60.1643V139.544C60.1643 140.312 60.3723 140.912 60.7883 141.344C61.2203 141.76 61.8123 141.968 62.5643 141.968H64.9163V143.12H62.8283ZM56.5163 131.432V130.4H64.9163V131.432H56.5163ZM77.6903 143L80.5703 130.832H82.4903L85.7303 143H84.5543L81.3143 130.904H81.6983L78.8183 143H77.6903ZM76.8263 143V141.92H78.5543V143H76.8263ZM76.5143 143L72.7463 130.4H74.0183L77.7143 143H76.5143ZM84.9143 143V141.92H86.5223V143H84.9143ZM85.7063 143L88.9943 130.4H90.1943L86.8823 143H85.7063ZM98.6158 143.408C97.5438 143.408 96.6158 143.224 95.8318 142.856C95.0478 142.472 94.4078 141.968 93.9118 141.344C93.4158 140.704 93.0398 139.992 92.7838 139.208C92.5438 138.408 92.4238 137.6 92.4238 136.784V136.544C92.4238 135.712 92.5438 134.912 92.7838 134.144C93.0398 133.376 93.4158 132.68 93.9118 132.056C94.4238 131.416 95.0558 130.92 95.8078 130.568C96.5758 130.2 97.4638 130.016 98.4718 130.016C99.7518 130.016 100.824 130.304 101.688 130.88C102.568 131.44 103.232 132.176 103.68 133.088C104.128 134 104.352 134.96 104.352 135.968V136.832H93.0238V135.776H103.512L103.128 136.256C103.128 135.28 102.944 134.408 102.576 133.64C102.224 132.872 101.696 132.272 100.992 131.84C100.304 131.392 99.4638 131.168 98.4718 131.168C97.3998 131.168 96.5038 131.416 95.7838 131.912C95.0638 132.408 94.5198 133.072 94.1518 133.904C93.7998 134.736 93.6238 135.656 93.6238 136.664C93.6238 137.672 93.7998 138.6 94.1518 139.448C94.5198 140.28 95.0718 140.96 95.8078 141.488C96.5438 142 97.4798 142.256 98.6158 142.256C99.8318 142.256 100.808 141.976 101.544 141.416C102.296 140.856 102.752 140.184 102.912 139.4H104.16C103.984 140.184 103.648 140.88 103.152 141.488C102.656 142.096 102.024 142.568 101.256 142.904C100.504 143.24 99.6238 143.408 98.6158 143.408ZM120.041 143.408C118.889 143.408 117.881 143.144 117.017 142.616C116.169 142.072 115.505 141.352 115.025 140.456C114.561 139.56 114.321 138.568 114.305 137.48H114.761V143H113.753V125.48H115.025V134.456L114.425 135.968C114.457 134.768 114.705 133.728 115.169 132.848C115.649 131.952 116.313 131.256 117.161 130.76C118.009 130.264 118.993 130.016 120.113 130.016C121.057 130.016 121.905 130.2 122.657 130.568C123.409 130.92 124.041 131.408 124.553 132.032C125.081 132.64 125.481 133.336 125.753 134.12C126.025 134.888 126.161 135.704 126.161 136.568V136.808C126.161 137.64 126.025 138.448 125.753 139.232C125.497 140 125.105 140.704 124.577 141.344C124.049 141.968 123.401 142.472 122.633 142.856C121.881 143.224 121.017 143.408 120.041 143.408ZM119.921 142.256C120.977 142.256 121.873 142 122.609 141.488C123.361 140.96 123.929 140.272 124.313 139.424C124.697 138.576 124.889 137.664 124.889 136.688C124.889 135.664 124.689 134.736 124.289 133.904C123.889 133.056 123.321 132.392 122.585 131.912C121.849 131.416 120.961 131.168 119.921 131.168C118.961 131.168 118.105 131.384 117.353 131.816C116.617 132.232 116.033 132.816 115.601 133.568C115.169 134.304 114.953 135.152 114.953 136.112V137.336C114.953 138.248 115.161 139.08 115.577 139.832C116.009 140.568 116.593 141.16 117.329 141.608C118.081 142.04 118.945 142.256 119.921 142.256ZM134.338 143.36C132.818 143.36 131.666 142.872 130.882 141.896C130.098 140.92 129.706 139.6 129.706 137.936V130.4H131.002V138.224C131.002 139.392 131.306 140.344 131.914 141.08C132.538 141.8 133.434 142.16 134.602 142.16C135.786 142.16 136.722 141.784 137.41 141.032C138.114 140.28 138.466 139.296 138.466 138.08V130.4H139.738V143H138.73V137.912H139.018C139.018 138.984 138.842 139.936 138.49 140.768C138.154 141.584 137.65 142.224 136.978 142.688C136.306 143.136 135.45 143.36 134.41 143.36H134.338ZM145.41 143V130.4H146.706V143H145.41ZM143.322 131.504V130.4H146.706V131.504H143.322ZM145.53 127.76C145.194 127.76 144.938 127.672 144.762 127.496C144.586 127.304 144.498 127.064 144.498 126.776C144.498 126.472 144.586 126.224 144.762 126.032C144.938 125.84 145.202 125.744 145.554 125.744C145.89 125.744 146.146 125.84 146.322 126.032C146.498 126.224 146.586 126.472 146.586 126.776C146.586 127.064 146.498 127.304 146.322 127.496C146.162 127.672 145.898 127.76 145.53 127.76ZM151.747 143V125.48H153.019V143H151.747ZM149.851 126.56V125.48H153.019V126.56H149.851ZM163.02 143.408C162.076 143.408 161.22 143.232 160.452 142.88C159.7 142.512 159.06 142.024 158.532 141.416C158.004 140.792 157.596 140.088 157.308 139.304C157.036 138.52 156.9 137.696 156.9 136.832V136.592C156.9 135.76 157.036 134.96 157.308 134.192C157.58 133.408 157.972 132.704 158.484 132.08C159.012 131.44 159.652 130.936 160.404 130.568C161.156 130.2 162.02 130.016 162.996 130.016C164.132 130.016 165.116 130.272 165.948 130.784C166.796 131.296 167.452 132 167.916 132.896C168.396 133.776 168.652 134.784 168.684 135.92L168.036 134.504V125.48H169.308V143H168.3V137.408H168.78C168.748 138.608 168.484 139.664 167.988 140.576C167.492 141.472 166.812 142.168 165.948 142.664C165.1 143.16 164.124 143.408 163.02 143.408ZM163.14 142.256C164.116 142.256 164.972 142.04 165.708 141.608C166.46 141.176 167.044 140.592 167.46 139.856C167.892 139.104 168.108 138.248 168.108 137.288V136.04C168.108 135.128 167.892 134.304 167.46 133.568C167.044 132.832 166.46 132.248 165.708 131.816C164.972 131.384 164.116 131.168 163.14 131.168C162.084 131.168 161.188 131.424 160.452 131.936C159.716 132.448 159.148 133.128 158.748 133.976C158.364 134.808 158.172 135.72 158.172 136.712C158.172 137.736 158.372 138.672 158.772 139.52C159.172 140.352 159.74 141.016 160.476 141.512C161.228 142.008 162.116 142.256 163.14 142.256ZM180.66 143V130.4H181.956V143H180.66ZM178.572 131.504V130.4H181.956V131.504H178.572ZM180.78 127.76C180.444 127.76 180.188 127.672 180.012 127.496C179.836 127.304 179.748 127.064 179.748 126.776C179.748 126.472 179.836 126.224 180.012 126.032C180.188 125.84 180.452 125.744 180.804 125.744C181.14 125.744 181.396 125.84 181.572 126.032C181.748 126.224 181.836 126.472 181.836 126.776C181.836 127.064 181.748 127.304 181.572 127.496C181.412 127.672 181.148 127.76 180.78 127.76ZM190.693 143.36C189.125 143.36 187.917 143 187.069 142.28C186.237 141.56 185.813 140.64 185.797 139.52H187.045C187.045 140.24 187.325 140.872 187.885 141.416C188.461 141.944 189.397 142.208 190.693 142.208C191.957 142.208 192.885 141.944 193.477 141.416C194.069 140.872 194.365 140.232 194.365 139.496C194.365 138.776 194.093 138.224 193.549 137.84C193.021 137.456 192.301 137.216 191.389 137.12L189.901 136.952C188.797 136.824 187.917 136.48 187.261 135.92C186.621 135.36 186.301 134.6 186.301 133.64C186.301 132.952 186.477 132.336 186.829 131.792C187.181 131.248 187.685 130.816 188.341 130.496C189.013 130.176 189.797 130.016 190.693 130.016C192.005 130.016 193.061 130.336 193.861 130.976C194.677 131.616 195.093 132.488 195.109 133.592H193.861C193.877 132.904 193.605 132.328 193.045 131.864C192.501 131.4 191.717 131.168 190.693 131.168C189.621 131.168 188.821 131.416 188.293 131.912C187.781 132.408 187.525 132.992 187.525 133.664C187.525 134.224 187.725 134.704 188.125 135.104C188.541 135.504 189.165 135.752 189.997 135.848L191.485 136.016C192.669 136.128 193.645 136.472 194.413 137.048C195.197 137.624 195.589 138.448 195.589 139.52C195.589 140.24 195.389 140.888 194.989 141.464C194.605 142.04 194.053 142.504 193.333 142.856C192.613 143.192 191.733 143.36 190.693 143.36ZM210.294 143.408C209.35 143.408 208.494 143.232 207.726 142.88C206.974 142.512 206.334 142.024 205.806 141.416C205.278 140.792 204.87 140.088 204.582 139.304C204.31 138.52 204.174 137.696 204.174 136.832V136.592C204.174 135.76 204.31 134.96 204.582 134.192C204.854 133.408 205.246 132.704 205.758 132.08C206.286 131.44 206.926 130.936 207.678 130.568C208.43 130.2 209.294 130.016 210.27 130.016C211.406 130.016 212.39 130.272 213.222 130.784C214.07 131.296 214.726 132 215.19 132.896C215.67 133.776 215.926 134.784 215.958 135.92L215.31 134.504V125.48H216.582V143H215.574V137.408H216.054C216.022 138.608 215.758 139.664 215.262 140.576C214.766 141.472 214.086 142.168 213.222 142.664C212.374 143.16 211.398 143.408 210.294 143.408ZM210.414 142.256C211.39 142.256 212.246 142.04 212.982 141.608C213.734 141.176 214.318 140.592 214.734 139.856C215.166 139.104 215.382 138.248 215.382 137.288V136.04C215.382 135.128 215.166 134.304 214.734 133.568C214.318 132.832 213.734 132.248 212.982 131.816C212.246 131.384 211.39 131.168 210.414 131.168C209.358 131.168 208.462 131.424 207.726 131.936C206.99 132.448 206.422 133.128 206.022 133.976C205.638 134.808 205.446 135.72 205.446 136.712C205.446 137.736 205.646 138.672 206.046 139.52C206.446 140.352 207.014 141.016 207.75 141.512C208.502 142.008 209.39 142.256 210.414 142.256ZM226.655 143.408C225.583 143.408 224.655 143.224 223.871 142.856C223.087 142.472 222.447 141.968 221.951 141.344C221.455 140.704 221.079 139.992 220.823 139.208C220.583 138.408 220.463 137.6 220.463 136.784V136.544C220.463 135.712 220.583 134.912 220.823 134.144C221.079 133.376 221.455 132.68 221.951 132.056C222.463 131.416 223.095 130.92 223.847 130.568C224.615 130.2 225.503 130.016 226.511 130.016C227.791 130.016 228.863 130.304 229.727 130.88C230.607 131.44 231.271 132.176 231.719 133.088C232.167 134 232.391 134.96 232.391 135.968V136.832H221.063V135.776H231.551L231.167 136.256C231.167 135.28 230.983 134.408 230.615 133.64C230.263 132.872 229.735 132.272 229.031 131.84C228.343 131.392 227.503 131.168 226.511 131.168C225.439 131.168 224.543 131.416 223.823 131.912C223.103 132.408 222.559 133.072 222.191 133.904C221.839 134.736 221.663 135.656 221.663 136.664C221.663 137.672 221.839 138.6 222.191 139.448C222.559 140.28 223.111 140.96 223.847 141.488C224.583 142 225.519 142.256 226.655 142.256C227.871 142.256 228.847 141.976 229.583 141.416C230.335 140.856 230.791 140.184 230.951 139.4H232.199C232.023 140.184 231.687 140.88 231.191 141.488C230.695 142.096 230.063 142.568 229.295 142.904C228.543 143.24 227.663 143.408 226.655 143.408ZM236.41 143V128.96C236.41 127.712 236.722 126.792 237.346 126.2C237.986 125.608 238.946 125.312 240.226 125.312H241.69V126.416H239.938C239.202 126.416 238.634 126.616 238.234 127.016C237.85 127.4 237.658 127.944 237.658 128.648V143H236.41ZM234.466 131.456V130.448H241.81V131.456H234.466ZM245.266 143V130.4H246.538V143H245.266ZM243.202 131.504V130.4H246.538V131.504H243.202ZM245.386 127.76C245.05 127.76 244.786 127.672 244.594 127.496C244.418 127.304 244.33 127.064 244.33 126.776C244.33 126.472 244.418 126.224 244.594 126.032C244.786 125.84 245.05 125.744 245.386 125.744C245.738 125.744 246.002 125.84 246.178 126.032C246.354 126.224 246.442 126.472 246.442 126.776C246.442 127.064 246.354 127.304 246.178 127.496C246.002 127.672 245.738 127.76 245.386 127.76ZM251.519 143V130.4H252.527V135.56H252.239C252.239 134.456 252.415 133.496 252.767 132.68C253.135 131.848 253.671 131.208 254.375 130.76C255.095 130.296 255.983 130.064 257.039 130.064H257.111C258.695 130.064 259.887 130.56 260.687 131.552C261.487 132.528 261.887 133.864 261.887 135.56V143H260.591V135.272C260.591 134.072 260.263 133.104 259.607 132.368C258.967 131.616 258.039 131.24 256.823 131.24C255.591 131.24 254.607 131.624 253.871 132.392C253.151 133.144 252.791 134.144 252.791 135.392V143H251.519ZM271.796 143.408C270.724 143.408 269.796 143.224 269.012 142.856C268.228 142.472 267.588 141.968 267.092 141.344C266.596 140.704 266.22 139.992 265.964 139.208C265.724 138.408 265.604 137.6 265.604 136.784V136.544C265.604 135.712 265.724 134.912 265.964 134.144C266.22 133.376 266.596 132.68 267.092 132.056C267.604 131.416 268.236 130.92 268.988 130.568C269.756 130.2 270.644 130.016 271.652 130.016C272.932 130.016 274.004 130.304 274.868 130.88C275.748 131.44 276.411 132.176 276.859 133.088C277.308 134 277.532 134.96 277.532 135.968V136.832H266.204V135.776H276.692L276.307 136.256C276.307 135.28 276.124 134.408 275.756 133.64C275.404 132.872 274.876 132.272 274.172 131.84C273.484 131.392 272.644 131.168 271.652 131.168C270.58 131.168 269.684 131.416 268.964 131.912C268.244 132.408 267.7 133.072 267.332 133.904C266.98 134.736 266.804 135.656 266.804 136.664C266.804 137.672 266.98 138.6 267.332 139.448C267.7 140.28 268.252 140.96 268.988 141.488C269.724 142 270.66 142.256 271.796 142.256C273.012 142.256 273.988 141.976 274.724 141.416C275.476 140.856 275.932 140.184 276.092 139.4H277.34C277.164 140.184 276.828 140.88 276.332 141.488C275.836 142.096 275.204 142.568 274.436 142.904C273.684 143.24 272.804 143.408 271.796 143.408ZM286.255 143.408C285.311 143.408 284.455 143.232 283.687 142.88C282.935 142.512 282.295 142.024 281.767 141.416C281.239 140.792 280.831 140.088 280.543 139.304C280.271 138.52 280.135 137.696 280.135 136.832V136.592C280.135 135.76 280.271 134.96 280.543 134.192C280.815 133.408 281.207 132.704 281.719 132.08C282.247 131.44 282.887 130.936 283.639 130.568C284.391 130.2 285.255 130.016 286.231 130.016C287.367 130.016 288.351 130.272 289.183 130.784C290.031 131.296 290.687 132 291.151 132.896C291.631 133.776 291.887 134.784 291.919 135.92L291.271 134.504V125.48H292.543V143H291.535V137.408H292.015C291.983 138.608 291.719 139.664 291.223 140.576C290.727 141.472 290.047 142.168 289.183 142.664C288.335 143.16 287.359 143.408 286.255 143.408ZM286.375 142.256C287.351 142.256 288.207 142.04 288.943 141.608C289.695 141.176 290.279 140.592 290.695 139.856C291.127 139.104 291.343 138.248 291.343 137.288V136.04C291.343 135.128 291.127 134.304 290.695 133.568C290.279 132.832 289.695 132.248 288.943 131.816C288.207 131.384 287.351 131.168 286.375 131.168C285.319 131.168 284.423 131.424 283.687 131.936C282.951 132.448 282.383 133.128 281.983 133.976C281.599 134.808 281.407 135.72 281.407 136.712C281.407 137.736 281.607 138.672 282.007 139.52C282.407 140.352 282.975 141.016 283.711 141.512C284.463 142.008 285.351 142.256 286.375 142.256ZM309.51 143.408C308.358 143.408 307.35 143.144 306.486 142.616C305.638 142.072 304.974 141.352 304.494 140.456C304.03 139.56 303.79 138.568 303.774 137.48H304.23V143H303.222V125.48H304.494V134.456L303.894 135.968C303.926 134.768 304.174 133.728 304.638 132.848C305.118 131.952 305.782 131.256 306.63 130.76C307.478 130.264 308.462 130.016 309.582 130.016C310.526 130.016 311.374 130.2 312.126 130.568C312.878 130.92 313.51 131.408 314.022 132.032C314.55 132.64 314.95 133.336 315.222 134.12C315.494 134.888 315.63 135.704 315.63 136.568V136.808C315.63 137.64 315.494 138.448 315.222 139.232C314.966 140 314.574 140.704 314.046 141.344C313.518 141.968 312.87 142.472 312.102 142.856C311.35 143.224 310.486 143.408 309.51 143.408ZM309.39 142.256C310.446 142.256 311.342 142 312.078 141.488C312.83 140.96 313.398 140.272 313.782 139.424C314.166 138.576 314.358 137.664 314.358 136.688C314.358 135.664 314.158 134.736 313.758 133.904C313.358 133.056 312.79 132.392 312.054 131.912C311.318 131.416 310.43 131.168 309.39 131.168C308.43 131.168 307.574 131.384 306.822 131.816C306.086 132.232 305.502 132.816 305.07 133.568C304.638 134.304 304.422 135.152 304.422 136.112V137.336C304.422 138.248 304.63 139.08 305.046 139.832C305.478 140.568 306.062 141.16 306.798 141.608C307.55 142.04 308.414 142.256 309.39 142.256ZM317.884 147.896V146.72H319.324C319.884 146.72 320.372 146.648 320.788 146.504C321.204 146.376 321.564 146.136 321.868 145.784C322.188 145.432 322.452 144.928 322.66 144.272L327.148 130.4H328.42L323.74 144.68C323.484 145.464 323.14 146.088 322.708 146.552C322.292 147.032 321.788 147.376 321.196 147.584C320.62 147.792 319.964 147.896 319.228 147.896H317.884ZM322.252 142.688V141.56H324.028V142.688H322.252ZM322.012 142.688L317.428 130.4H318.724L323.26 142.688H322.012ZM338.23 143V130.4H339.526V143H338.23ZM336.142 131.504V130.4H339.526V131.504H336.142ZM338.35 127.76C338.014 127.76 337.758 127.672 337.582 127.496C337.406 127.304 337.318 127.064 337.318 126.776C337.318 126.472 337.406 126.224 337.582 126.032C337.758 125.84 338.022 125.744 338.374 125.744C338.71 125.744 338.966 125.84 339.142 126.032C339.318 126.224 339.406 126.472 339.406 126.776C339.406 127.064 339.318 127.304 339.142 127.496C338.982 127.672 338.718 127.76 338.35 127.76ZM348.695 143.12C347.911 143.12 347.223 143.008 346.631 142.784C346.039 142.544 345.583 142.144 345.263 141.584C344.943 141.024 344.783 140.272 344.783 139.328V126.296H346.031V139.544C346.031 140.312 346.239 140.912 346.655 141.344C347.087 141.76 347.679 141.968 348.431 141.968H350.783V143.12H348.695ZM342.383 131.432V130.4H350.783V131.432H342.383ZM358.178 143.36C356.61 143.36 355.402 143 354.554 142.28C353.722 141.56 353.298 140.64 353.282 139.52H354.53C354.53 140.24 354.81 140.872 355.37 141.416C355.946 141.944 356.882 142.208 358.178 142.208C359.442 142.208 360.37 141.944 360.962 141.416C361.554 140.872 361.85 140.232 361.85 139.496C361.85 138.776 361.578 138.224 361.034 137.84C360.506 137.456 359.786 137.216 358.874 137.12L357.386 136.952C356.282 136.824 355.402 136.48 354.746 135.92C354.106 135.36 353.786 134.6 353.786 133.64C353.786 132.952 353.962 132.336 354.314 131.792C354.666 131.248 355.17 130.816 355.826 130.496C356.498 130.176 357.282 130.016 358.178 130.016C359.49 130.016 360.546 130.336 361.346 130.976C362.162 131.616 362.578 132.488 362.594 133.592H361.346C361.362 132.904 361.09 132.328 360.53 131.864C359.986 131.4 359.202 131.168 358.178 131.168C357.106 131.168 356.306 131.416 355.778 131.912C355.266 132.408 355.01 132.992 355.01 133.664C355.01 134.224 355.21 134.704 355.61 135.104C356.026 135.504 356.65 135.752 357.482 135.848L358.97 136.016C360.154 136.128 361.13 136.472 361.898 137.048C362.682 137.624 363.074 138.448 363.074 139.52C363.074 140.24 362.874 140.888 362.474 141.464C362.09 142.04 361.538 142.504 360.818 142.856C360.098 143.192 359.218 143.36 358.178 143.36Z" fill="#717171"/>
<path d="M380.418 143V139.232H380.178V134.6C380.178 133.592 379.914 132.816 379.386 132.272C378.858 131.712 377.986 131.432 376.77 131.432C376.338 131.432 375.898 131.448 375.45 131.48C375.002 131.496 374.578 131.52 374.178 131.552C373.778 131.568 373.418 131.6 373.098 131.648V130.496C373.418 130.448 373.754 130.408 374.106 130.376C374.474 130.344 374.842 130.32 375.21 130.304C375.578 130.288 375.93 130.28 376.266 130.28C377.53 130.28 378.538 130.448 379.29 130.784C380.042 131.104 380.586 131.6 380.922 132.272C381.258 132.928 381.426 133.768 381.426 134.792V143H380.418ZM376.026 143.336C375.178 143.336 374.418 143.184 373.746 142.88C373.074 142.576 372.538 142.128 372.138 141.536C371.754 140.944 371.562 140.224 371.562 139.376C371.562 138.56 371.746 137.864 372.114 137.288C372.498 136.712 373.042 136.272 373.746 135.968C374.466 135.664 375.33 135.512 376.338 135.512H380.298V136.544H376.218C375.13 136.544 374.29 136.808 373.698 137.336C373.122 137.848 372.834 138.528 372.834 139.376C372.834 140.272 373.146 140.984 373.77 141.512C374.394 142.024 375.21 142.28 376.218 142.28C376.842 142.28 377.45 142.16 378.042 141.92C378.634 141.68 379.13 141.28 379.53 140.72C379.93 140.144 380.146 139.376 380.178 138.416L380.658 138.968C380.61 139.944 380.37 140.76 379.938 141.416C379.522 142.056 378.978 142.536 378.306 142.856C377.634 143.176 376.874 143.336 376.026 143.336ZM386.191 143V130.4H387.199V135.728H387.007C387.007 133.904 387.415 132.544 388.231 131.648C389.047 130.752 390.367 130.304 392.191 130.304H392.623V131.456H391.951C390.463 131.456 389.343 131.84 388.591 132.608C387.839 133.36 387.463 134.472 387.463 135.944V143H386.191ZM400.726 143.408C399.686 143.408 398.774 143.216 397.99 142.832C397.222 142.448 396.574 141.936 396.046 141.296C395.534 140.656 395.15 139.944 394.894 139.16C394.638 138.376 394.51 137.584 394.51 136.784V136.544C394.51 135.728 394.638 134.928 394.894 134.144C395.15 133.36 395.534 132.664 396.046 132.056C396.574 131.432 397.222 130.936 397.99 130.568C398.774 130.2 399.686 130.016 400.726 130.016C401.734 130.016 402.63 130.2 403.414 130.568C404.214 130.936 404.862 131.456 405.358 132.128C405.87 132.784 406.19 133.576 406.318 134.504H405.07C404.926 133.544 404.478 132.752 403.726 132.128C402.974 131.488 401.974 131.168 400.726 131.168C399.622 131.168 398.702 131.416 397.966 131.912C397.23 132.408 396.678 133.072 396.31 133.904C395.958 134.736 395.782 135.656 395.782 136.664C395.782 137.64 395.966 138.552 396.334 139.4C396.702 140.248 397.254 140.936 397.99 141.464C398.726 141.976 399.638 142.232 400.726 142.232C401.574 142.232 402.318 142.08 402.958 141.776C403.614 141.456 404.142 141.04 404.542 140.528C404.942 140 405.182 139.424 405.262 138.8H406.51C406.398 139.728 406.078 140.536 405.55 141.224C405.022 141.896 404.342 142.432 403.51 142.832C402.678 143.216 401.75 143.408 400.726 143.408ZM410.003 143V125.48H411.275V134.84L410.819 135.656C410.819 134.552 410.987 133.584 411.323 132.752C411.675 131.904 412.203 131.248 412.907 130.784C413.611 130.304 414.499 130.064 415.571 130.064H415.619C417.187 130.064 418.371 130.56 419.171 131.552C419.971 132.528 420.371 133.864 420.371 135.56V143H419.075V135.272C419.075 134.056 418.747 133.08 418.091 132.344C417.435 131.608 416.507 131.24 415.307 131.24C414.075 131.24 413.091 131.632 412.355 132.416C411.635 133.184 411.275 134.192 411.275 135.44V143H410.003ZM425.816 143V130.4H427.112V143H425.816ZM423.728 131.504V130.4H427.112V131.504H423.728ZM425.936 127.76C425.6 127.76 425.344 127.672 425.168 127.496C424.992 127.304 424.904 127.064 424.904 126.776C424.904 126.472 424.992 126.224 425.168 126.032C425.344 125.84 425.608 125.744 425.96 125.744C426.296 125.744 426.552 125.84 426.728 126.032C426.904 126.224 426.992 126.472 426.992 126.776C426.992 127.064 426.904 127.304 426.728 127.496C426.568 127.672 426.304 127.76 425.936 127.76ZM436.281 143.12C435.497 143.12 434.809 143.008 434.217 142.784C433.625 142.544 433.169 142.144 432.849 141.584C432.529 141.024 432.369 140.272 432.369 139.328V126.296H433.617V139.544C433.617 140.312 433.825 140.912 434.241 141.344C434.673 141.76 435.265 141.968 436.017 141.968H438.369V143.12H436.281ZM429.969 131.432V130.4H438.369V131.432H429.969ZM447.108 143.408C446.036 143.408 445.108 143.224 444.324 142.856C443.54 142.472 442.9 141.968 442.404 141.344C441.908 140.704 441.532 139.992 441.276 139.208C441.036 138.408 440.916 137.6 440.916 136.784V136.544C440.916 135.712 441.036 134.912 441.276 134.144C441.532 133.376 441.908 132.68 442.404 132.056C442.916 131.416 443.548 130.92 444.3 130.568C445.068 130.2 445.956 130.016 446.964 130.016C448.244 130.016 449.316 130.304 450.18 130.88C451.06 131.44 451.724 132.176 452.172 133.088C452.62 134 452.844 134.96 452.844 135.968V136.832H441.516V135.776H452.004L451.62 136.256C451.62 135.28 451.436 134.408 451.068 133.64C450.716 132.872 450.188 132.272 449.484 131.84C448.796 131.392 447.956 131.168 446.964 131.168C445.892 131.168 444.996 131.416 444.276 131.912C443.556 132.408 443.012 133.072 442.644 133.904C442.292 134.736 442.116 135.656 442.116 136.664C442.116 137.672 442.292 138.6 442.644 139.448C443.012 140.28 443.564 140.96 444.3 141.488C445.036 142 445.972 142.256 447.108 142.256C448.324 142.256 449.3 141.976 450.036 141.416C450.788 140.856 451.244 140.184 451.404 139.4H452.652C452.476 140.184 452.14 140.88 451.644 141.488C451.148 142.096 450.516 142.568 449.748 142.904C448.996 143.24 448.116 143.408 447.108 143.408ZM461.663 143.408C460.623 143.408 459.711 143.216 458.927 142.832C458.159 142.448 457.511 141.936 456.983 141.296C456.471 140.656 456.087 139.944 455.831 139.16C455.575 138.376 455.447 137.584 455.447 136.784V136.544C455.447 135.728 455.575 134.928 455.831 134.144C456.087 133.36 456.471 132.664 456.983 132.056C457.511 131.432 458.159 130.936 458.927 130.568C459.711 130.2 460.623 130.016 461.663 130.016C462.671 130.016 463.567 130.2 464.351 130.568C465.151 130.936 465.799 131.456 466.295 132.128C466.807 132.784 467.127 133.576 467.255 134.504H466.007C465.863 133.544 465.415 132.752 464.663 132.128C463.911 131.488 462.911 131.168 461.663 131.168C460.559 131.168 459.639 131.416 458.903 131.912C458.167 132.408 457.615 133.072 457.247 133.904C456.895 134.736 456.719 135.656 456.719 136.664C456.719 137.64 456.903 138.552 457.271 139.4C457.639 140.248 458.191 140.936 458.927 141.464C459.663 141.976 460.575 142.232 461.663 142.232C462.511 142.232 463.255 142.08 463.895 141.776C464.551 141.456 465.079 141.04 465.479 140.528C465.879 140 466.119 139.424 466.199 138.8H467.447C467.335 139.728 467.015 140.536 466.487 141.224C465.959 141.896 465.279 142.432 464.447 142.832C463.615 143.216 462.687 143.408 461.663 143.408ZM475.141 143.12C474.357 143.12 473.669 143.008 473.077 142.784C472.485 142.544 472.029 142.144 471.709 141.584C471.389 141.024 471.229 140.272 471.229 139.328V126.296H472.477V139.544C472.477 140.312 472.685 140.912 473.101 141.344C473.533 141.76 474.125 141.968 474.877 141.968H477.229V143.12H475.141ZM468.829 131.432V130.4H477.229V131.432H468.829ZM485.245 143.36C483.725 143.36 482.573 142.872 481.789 141.896C481.005 140.92 480.613 139.6 480.613 137.936V130.4H481.909V138.224C481.909 139.392 482.213 140.344 482.821 141.08C483.445 141.8 484.341 142.16 485.509 142.16C486.693 142.16 487.629 141.784 488.317 141.032C489.021 140.28 489.373 139.296 489.373 138.08V130.4H490.645V143H489.637V137.912H489.925C489.925 138.984 489.749 139.936 489.397 140.768C489.061 141.584 488.557 142.224 487.885 142.688C487.213 143.136 486.357 143.36 485.317 143.36H485.245ZM495.644 143V130.4H496.652V135.728H496.46C496.46 133.904 496.868 132.544 497.684 131.648C498.5 130.752 499.82 130.304 501.644 130.304H502.076V131.456H501.404C499.916 131.456 498.796 131.84 498.044 132.608C497.292 133.36 496.916 134.472 496.916 135.944V143H495.644ZM510.155 143.408C509.083 143.408 508.155 143.224 507.371 142.856C506.587 142.472 505.947 141.968 505.451 141.344C504.955 140.704 504.579 139.992 504.323 139.208C504.083 138.408 503.963 137.6 503.963 136.784V136.544C503.963 135.712 504.083 134.912 504.323 134.144C504.579 133.376 504.955 132.68 505.451 132.056C505.963 131.416 506.595 130.92 507.347 130.568C508.115 130.2 509.003 130.016 510.011 130.016C511.291 130.016 512.363 130.304 513.227 130.88C514.107 131.44 514.771 132.176 515.219 133.088C515.667 134 515.891 134.96 515.891 135.968V136.832H504.563V135.776H515.051L514.667 136.256C514.667 135.28 514.483 134.408 514.115 133.64C513.763 132.872 513.235 132.272 512.531 131.84C511.843 131.392 511.003 131.168 510.011 131.168C508.939 131.168 508.043 131.416 507.323 131.912C506.603 132.408 506.059 133.072 505.691 133.904C505.339 134.736 505.163 135.656 505.163 136.664C505.163 137.672 505.339 138.6 505.691 139.448C506.059 140.28 506.611 140.96 507.347 141.488C508.083 142 509.019 142.256 510.155 142.256C511.371 142.256 512.347 141.976 513.083 141.416C513.835 140.856 514.291 140.184 514.451 139.4H515.699C515.523 140.184 515.187 140.88 514.691 141.488C514.195 142.096 513.563 142.568 512.795 142.904C512.043 143.24 511.163 143.408 510.155 143.408Z" fill="url(#paint1_radial_1037_1354)"/>
<defs>
<radialGradient id="paint0_radial_1037_1354" cx="0" cy="0" r="1" gradientUnits="userSpaceOnUse" gradientTransform="translate(263 60) rotate(90) scale(60 263)">
<stop stop-color="#5A69EA"/>
<stop offset="1" stop-color="#BF8BCA"/>
</radialGradient>
<radialGradient id="paint1_radial_1037_1354" cx="0" cy="0" r="1" gradientUnits="userSpaceOnUse" gradientTransform="translate(269.5 135) rotate(90) scale(15 266.5)">
<stop stop-color="#5A69EA"/>
<stop offset="1" stop-color="#BF8BCA"/>
</radialGradient>
</defs>
</svg>
