<svg width="237" height="90" viewBox="0 0 237 90" fill="none" xmlns="http://www.w3.org/2000/svg">
<path d="M8.16 33.184V29.968H16.32C18.208 29.968 19.744 29.616 20.928 28.912C22.112 28.176 22.992 27.216 23.568 26.032C24.144 24.816 24.432 23.472 24.432 22C24.432 20.496 24.144 19.152 23.568 17.968C22.992 16.752 22.112 15.792 20.928 15.088C19.744 14.384 18.208 14.032 16.32 14.032H8.16V10.816H15.696C18.512 10.816 20.832 11.28 22.656 12.208C24.512 13.136 25.888 14.416 26.784 16.048C27.712 17.68 28.176 19.552 28.176 21.664V22.336C28.176 24.416 27.712 26.288 26.784 27.952C25.888 29.584 24.512 30.864 22.656 31.792C20.832 32.72 18.512 33.184 15.696 33.184H8.16ZM5.472 46V10.816H9.12V46H5.472ZM34.9841 46V20.608H37.8641V31.216H37.5761C37.5761 27.504 38.3921 24.768 40.0241 23.008C41.6561 21.216 44.2161 20.32 47.7041 20.32H48.5201V23.584H47.0321C44.2801 23.584 42.1841 24.304 40.7441 25.744C39.3041 27.152 38.5841 29.232 38.5841 31.984V46H34.9841ZM65.3914 46.816C63.2154 46.816 61.2954 46.448 59.6314 45.712C57.9994 44.944 56.6074 43.936 55.4554 42.688C54.3354 41.408 53.4714 39.984 52.8634 38.416C52.2874 36.848 51.9994 35.248 51.9994 33.616V32.944C51.9994 31.312 52.3034 29.712 52.9114 28.144C53.5194 26.544 54.3994 25.12 55.5514 23.872C56.7034 22.624 58.0954 21.632 59.7274 20.896C61.3914 20.128 63.2794 19.744 65.3914 19.744C67.5354 19.744 69.4234 20.128 71.0554 20.896C72.7194 21.632 74.1274 22.624 75.2794 23.872C76.4314 25.12 77.2954 26.544 77.8714 28.144C78.4794 29.712 78.7834 31.312 78.7834 32.944V33.616C78.7834 35.248 78.4954 36.848 77.9194 38.416C77.3434 39.984 76.4794 41.408 75.3274 42.688C74.2074 43.936 72.8154 44.944 71.1514 45.712C69.4874 46.448 67.5674 46.816 65.3914 46.816ZM65.3914 43.6C67.5034 43.6 69.2794 43.136 70.7194 42.208C72.1914 41.248 73.3114 40 74.0794 38.464C74.8474 36.896 75.2314 35.168 75.2314 33.28C75.2314 31.36 74.8314 29.632 74.0314 28.096C73.2634 26.528 72.1434 25.296 70.6714 24.4C69.1994 23.472 67.4394 23.008 65.3914 23.008C63.3754 23.008 61.6314 23.472 60.1594 24.4C58.6874 25.296 57.5514 26.528 56.7514 28.096C55.9834 29.632 55.5994 31.36 55.5994 33.28C55.5994 35.168 55.9834 36.896 56.7514 38.464C57.5194 40 58.6234 41.248 60.0634 42.208C61.5354 43.136 63.3114 43.6 65.3914 43.6ZM96.5408 46.816C94.6848 46.816 92.9888 46.48 91.4528 45.808C89.9488 45.104 88.6368 44.144 87.5168 42.928C86.4288 41.68 85.5808 40.272 84.9728 38.704C84.3968 37.104 84.1088 35.408 84.1088 33.616V32.944C84.1088 31.216 84.3968 29.568 84.9728 28C85.5488 26.4 86.3648 24.992 87.4208 23.776C88.5088 22.528 89.8048 21.552 91.3088 20.848C92.8448 20.112 94.5568 19.744 96.4448 19.744C98.5888 19.744 100.477 20.208 102.109 21.136C103.741 22.064 105.053 23.408 106.045 25.168C107.037 26.896 107.565 29.024 107.629 31.552L106.045 28.576V10.96H109.645V46H106.765V34.72H107.917C107.853 37.376 107.293 39.616 106.237 41.44C105.213 43.232 103.853 44.576 102.157 45.472C100.493 46.368 98.6208 46.816 96.5408 46.816ZM97.0208 43.648C98.7488 43.648 100.301 43.264 101.677 42.496C103.085 41.728 104.189 40.64 104.989 39.232C105.789 37.792 106.189 36.144 106.189 34.288V31.984C106.189 30.192 105.789 28.624 104.989 27.28C104.189 25.904 103.085 24.832 101.677 24.064C100.301 23.296 98.7328 22.912 96.9728 22.912C95.0848 22.912 93.4368 23.376 92.0288 24.304C90.6528 25.2 89.5808 26.432 88.8128 28C88.0768 29.568 87.7088 31.328 87.7088 33.28C87.7088 35.296 88.0928 37.088 88.8608 38.656C89.6288 40.224 90.7168 41.456 92.1248 42.352C93.5328 43.216 95.1648 43.648 97.0208 43.648ZM127.721 46.72C124.681 46.72 122.361 45.744 120.761 43.792C119.161 41.808 118.361 39.056 118.361 35.536V20.56H121.913V36.256C121.913 38.464 122.489 40.224 123.641 41.536C124.825 42.816 126.457 43.456 128.537 43.456C130.713 43.456 132.441 42.768 133.721 41.392C135.033 40.016 135.689 38.176 135.689 35.872V20.56H139.289V46H136.409V35.392H136.985C136.985 37.76 136.649 39.792 135.977 41.488C135.305 43.152 134.297 44.448 132.953 45.376C131.609 46.272 129.913 46.72 127.865 46.72H127.721ZM159.407 46.816C157.263 46.816 155.391 46.448 153.791 45.712C152.223 44.944 150.911 43.92 149.855 42.64C148.799 41.328 147.999 39.888 147.455 38.32C146.943 36.752 146.687 35.168 146.687 33.568V32.896C146.687 31.264 146.943 29.68 147.455 28.144C147.999 26.576 148.799 25.168 149.855 23.92C150.911 22.64 152.223 21.632 153.791 20.896C155.391 20.128 157.231 19.744 159.311 19.744C161.423 19.744 163.295 20.128 164.927 20.896C166.591 21.664 167.935 22.752 168.959 24.16C169.983 25.568 170.591 27.232 170.783 29.152H167.327C167.039 27.392 166.207 25.936 164.831 24.784C163.487 23.6 161.647 23.008 159.311 23.008C157.295 23.008 155.615 23.472 154.271 24.4C152.959 25.296 151.967 26.528 151.295 28.096C150.623 29.632 150.287 31.344 150.287 33.232C150.287 35.088 150.623 36.816 151.295 38.416C151.967 39.984 152.975 41.248 154.319 42.208C155.663 43.136 157.359 43.6 159.407 43.6C160.975 43.6 162.335 43.328 163.487 42.784C164.671 42.208 165.615 41.44 166.319 40.48C167.055 39.52 167.487 38.464 167.615 37.312H171.071C170.943 39.232 170.335 40.912 169.247 42.352C168.191 43.76 166.815 44.864 165.119 45.664C163.423 46.432 161.519 46.816 159.407 46.816ZM186.888 46.288C185.128 46.288 183.608 46.032 182.328 45.52C181.048 45.008 180.056 44.144 179.352 42.928C178.648 41.68 178.296 40.016 178.296 37.936V12.592H181.752V38.464C181.752 39.936 182.152 41.072 182.952 41.872C183.752 42.64 184.888 43.024 186.36 43.024H190.92V46.288H186.888ZM173.736 23.344V20.608H190.92V23.344H173.736ZM205.703 46.72C202.439 46.72 199.927 46.016 198.167 44.608C196.407 43.168 195.511 41.248 195.479 38.848H198.839C198.903 40.064 199.447 41.168 200.471 42.16C201.527 43.152 203.271 43.648 205.703 43.648C207.975 43.648 209.671 43.184 210.791 42.256C211.943 41.296 212.519 40.144 212.519 38.8C212.519 37.552 212.039 36.592 211.079 35.92C210.151 35.216 208.791 34.768 206.999 34.576L204.119 34.288C201.815 34.032 199.943 33.328 198.503 32.176C197.095 30.992 196.391 29.376 196.391 27.328C196.391 25.824 196.775 24.512 197.543 23.392C198.311 22.272 199.383 21.408 200.759 20.8C202.167 20.16 203.815 19.84 205.703 19.84C208.423 19.84 210.631 20.48 212.327 21.76C214.055 23.04 214.935 24.864 214.967 27.232H211.607C211.575 26.016 211.063 24.992 210.071 24.16C209.079 23.328 207.623 22.912 205.703 22.912C203.719 22.912 202.231 23.344 201.239 24.208C200.279 25.072 199.799 26.128 199.799 27.376C199.799 28.432 200.167 29.312 200.903 30.016C201.639 30.688 202.791 31.104 204.359 31.264L207.239 31.552C209.799 31.84 211.879 32.576 213.479 33.76C215.111 34.944 215.927 36.64 215.927 38.848C215.927 40.352 215.495 41.712 214.631 42.928C213.799 44.112 212.615 45.04 211.079 45.712C209.543 46.384 207.751 46.72 205.703 46.72Z" fill="#0D0D0D"/>
<path d="M2.28 84V69.4H3.8V84H2.28ZM3.44 84V82.62H10.74V84H3.44ZM3.44 77.26V75.9H10.06V77.26H3.44ZM3.44 70.78V69.4H10.52V70.78H3.44ZM16.2727 84L12.5527 73.42H14.0927L17.7727 84H16.2727ZM16.6727 84V82.78H18.5727V84H16.6727ZM17.4927 84L20.7127 73.42H22.1927L18.9127 84H17.4927ZM29.0944 84.34C28.1877 84.34 27.401 84.1867 26.7344 83.88C26.0677 83.56 25.521 83.14 25.0944 82.62C24.6677 82.0867 24.3477 81.4933 24.1344 80.84C23.9344 80.1867 23.8344 79.5133 23.8344 78.82V78.54C23.8344 77.86 23.9344 77.1933 24.1344 76.54C24.3477 75.8867 24.6677 75.3 25.0944 74.78C25.521 74.26 26.0544 73.8467 26.6944 73.54C27.3477 73.22 28.1077 73.06 28.9744 73.06C30.081 73.06 31.001 73.3067 31.7344 73.8C32.481 74.2933 33.041 74.9267 33.4144 75.7C33.7877 76.46 33.9744 77.28 33.9744 78.16V78.94H24.5144V77.78H32.9344L32.5544 78.36C32.5544 77.5733 32.4144 76.8867 32.1344 76.3C31.8677 75.7 31.4677 75.2333 30.9344 74.9C30.4144 74.5533 29.761 74.38 28.9744 74.38C28.1477 74.38 27.461 74.5733 26.9144 74.96C26.3677 75.3467 25.9544 75.86 25.6744 76.5C25.4077 77.14 25.2744 77.8667 25.2744 78.68C25.2744 79.48 25.4077 80.2133 25.6744 80.88C25.9544 81.5333 26.3744 82.0533 26.9344 82.44C27.5077 82.8267 28.2277 83.02 29.0944 83.02C30.0144 83.02 30.761 82.8133 31.3344 82.4C31.9077 81.9733 32.261 81.4733 32.3944 80.9H33.7944C33.661 81.6067 33.381 82.22 32.9544 82.74C32.5277 83.2467 31.9877 83.64 31.3344 83.92C30.681 84.2 29.9344 84.34 29.0944 84.34ZM36.8619 84V73.42H38.0619V77.84H37.9419C37.9419 76.2933 38.2819 75.1533 38.9619 74.42C39.6419 73.6733 40.7085 73.3 42.1619 73.3H42.5019V74.66H41.8819C40.7352 74.66 39.8619 74.96 39.2619 75.56C38.6619 76.1467 38.3619 77.0133 38.3619 78.16V84H36.8619ZM44.3398 88.12V86.78H45.6998C46.1665 86.78 46.5665 86.72 46.8998 86.6C47.2332 86.4933 47.5132 86.3 47.7398 86.02C47.9665 85.74 48.1598 85.3533 48.3198 84.86L51.8798 73.42H53.3398L49.6198 85.28C49.4065 85.96 49.1132 86.5067 48.7398 86.92C48.3665 87.3467 47.9198 87.6533 47.3998 87.84C46.8798 88.0267 46.2865 88.12 45.6198 88.12H44.3398ZM47.7798 83.74V82.48H49.6798V83.74H47.7798ZM47.5998 83.74L43.7598 73.42H45.2998L48.9998 83.74H47.5998ZM59.9988 84.12C59.2654 84.12 58.6321 84.0133 58.0988 83.8C57.5654 83.5867 57.1521 83.2267 56.8587 82.72C56.5654 82.2 56.4188 81.5067 56.4188 80.64V70.08H57.8588V80.86C57.8588 81.4733 58.0254 81.9467 58.3588 82.28C58.6921 82.6 59.1654 82.76 59.7788 82.76H61.6788V84.12H59.9988ZM54.5188 74.56V73.42H61.6788V74.56H54.5188ZM64.5767 84V69.4H66.0767V77.66L65.6367 78C65.6367 77.0133 65.7767 76.1533 66.0567 75.42C66.3501 74.6867 66.7834 74.12 67.3567 73.72C67.9434 73.3067 68.6767 73.1 69.5567 73.1H69.6367C70.9167 73.1 71.8834 73.52 72.5367 74.36C73.2034 75.2 73.5367 76.3667 73.5367 77.86V84H72.0567V77.54C72.0567 76.5933 71.7967 75.8467 71.2767 75.3C70.7567 74.7533 70.0567 74.48 69.1767 74.48C68.2301 74.48 67.4767 74.7867 66.9167 75.4C66.3567 76 66.0767 76.7933 66.0767 77.78V84H64.5767ZM77.832 84V73.42H79.312V84H77.832ZM76.132 74.62V73.42H79.312V74.62H76.132ZM78.152 71.46C77.792 71.46 77.5187 71.3667 77.332 71.18C77.1587 70.98 77.072 70.7333 77.072 70.44C77.072 70.1467 77.1587 69.9067 77.332 69.72C77.5187 69.52 77.792 69.42 78.152 69.42C78.512 69.42 78.7787 69.52 78.952 69.72C79.1254 69.9067 79.212 70.1467 79.212 70.44C79.212 70.7333 79.1254 70.98 78.952 71.18C78.7787 71.3667 78.512 71.46 78.152 71.46ZM83.2486 84V73.42H84.4486V77.86H84.2086C84.2086 76.8733 84.3553 76.0267 84.6486 75.32C84.9419 74.6133 85.3819 74.0667 85.9686 73.68C86.5553 73.2933 87.2953 73.1 88.1886 73.1H88.2486C89.5819 73.1 90.5753 73.52 91.2286 74.36C91.8819 75.1867 92.2086 76.3533 92.2086 77.86V84H90.7286V77.54C90.7286 76.62 90.4753 75.88 89.9686 75.32C89.4619 74.76 88.7553 74.48 87.8486 74.48C86.9153 74.48 86.1619 74.7733 85.5886 75.36C85.0286 75.9333 84.7486 76.6933 84.7486 77.64V84H83.2486ZM99.9839 88.14C99.4906 88.14 98.9906 88.1133 98.4839 88.06C97.9906 88.02 97.5172 87.9667 97.0639 87.9V86.62C97.5439 86.6867 98.0439 86.74 98.5639 86.78C99.0972 86.8333 99.5972 86.86 100.064 86.86C101.077 86.86 101.884 86.7267 102.484 86.46C103.084 86.1933 103.511 85.7667 103.764 85.18C104.031 84.6067 104.164 83.8467 104.164 82.9V80.78L104.724 79.3C104.697 80.3133 104.484 81.1867 104.084 81.92C103.684 82.64 103.144 83.1933 102.464 83.58C101.784 83.9667 101.011 84.16 100.144 84.16C99.3839 84.16 98.6906 84.0133 98.0639 83.72C97.4506 83.4267 96.9239 83.0267 96.4839 82.52C96.0439 82 95.7039 81.4133 95.4639 80.76C95.2239 80.1067 95.1039 79.42 95.1039 78.7V78.42C95.1039 77.7133 95.2239 77.04 95.4639 76.4C95.7039 75.7467 96.0439 75.1733 96.4839 74.68C96.9239 74.1733 97.4572 73.78 98.0839 73.5C98.7239 73.2067 99.4306 73.06 100.204 73.06C101.137 73.06 101.951 73.2667 102.644 73.68C103.337 74.0933 103.877 74.6667 104.264 75.4C104.664 76.1333 104.877 76.9933 104.904 77.98L104.424 77.72V73.42H105.604V82.84C105.604 84.1067 105.417 85.1267 105.044 85.9C104.671 86.6733 104.071 87.24 103.244 87.6C102.431 87.96 101.344 88.14 99.9839 88.14ZM100.404 82.78C101.124 82.78 101.764 82.6267 102.324 82.32C102.897 82 103.351 81.5533 103.684 80.98C104.017 80.4067 104.184 79.74 104.184 78.98V78C104.184 77.2667 104.011 76.6267 103.664 76.08C103.331 75.5333 102.884 75.1067 102.324 74.8C101.764 74.4933 101.124 74.34 100.404 74.34C99.6306 74.34 98.9572 74.5267 98.3839 74.9C97.8106 75.2733 97.3706 75.78 97.0639 76.42C96.7572 77.0467 96.6039 77.76 96.6039 78.56C96.6039 79.3733 96.7572 80.1 97.0639 80.74C97.3839 81.38 97.8306 81.88 98.4039 82.24C98.9772 82.6 99.6439 82.78 100.404 82.78Z" fill="#717171"/>
<path d="M114.33 84V72.6C114.33 71.4933 114.617 70.6733 115.19 70.14C115.763 69.6067 116.623 69.34 117.77 69.34H119.11V70.62H117.49C116.93 70.62 116.503 70.7667 116.21 71.06C115.917 71.3533 115.77 71.7667 115.77 72.3V84H114.33ZM112.79 74.66V73.5H119.33V74.66H112.79ZM126.172 84.34C125.266 84.34 124.466 84.1867 123.772 83.88C123.092 83.56 122.512 83.14 122.032 82.62C121.566 82.0867 121.206 81.4933 120.952 80.84C120.712 80.1867 120.592 79.52 120.592 78.84V78.56C120.592 77.88 120.719 77.2133 120.972 76.56C121.226 75.8933 121.592 75.3 122.072 74.78C122.552 74.26 123.132 73.8467 123.812 73.54C124.506 73.22 125.292 73.06 126.172 73.06C127.066 73.06 127.852 73.22 128.532 73.54C129.226 73.8467 129.812 74.26 130.292 74.78C130.772 75.3 131.132 75.8933 131.372 76.56C131.626 77.2133 131.752 77.88 131.752 78.56V78.84C131.752 79.52 131.632 80.1867 131.392 80.84C131.152 81.4933 130.792 82.0867 130.312 82.62C129.846 83.14 129.266 83.56 128.572 83.88C127.879 84.1867 127.079 84.34 126.172 84.34ZM126.172 83C127.052 83 127.792 82.8067 128.392 82.42C129.006 82.02 129.472 81.5 129.792 80.86C130.112 80.2067 130.272 79.4867 130.272 78.7C130.272 77.9 130.106 77.18 129.772 76.54C129.452 75.8867 128.986 75.3733 128.372 75C127.759 74.6133 127.026 74.42 126.172 74.42C125.332 74.42 124.606 74.6133 123.992 75C123.379 75.3733 122.906 75.8867 122.572 76.54C122.252 77.18 122.092 77.9 122.092 78.7C122.092 79.4867 122.252 80.2067 122.572 80.86C122.892 81.5 123.352 82.02 123.952 82.42C124.566 82.8067 125.306 83 126.172 83ZM134.811 84V73.42H136.011V77.84H135.891C135.891 76.2933 136.231 75.1533 136.911 74.42C137.591 73.6733 138.658 73.3 140.111 73.3H140.451V74.66H139.831C138.684 74.66 137.811 74.96 137.211 75.56C136.611 76.1467 136.311 77.0133 136.311 78.16V84H134.811ZM146.605 88.12V86.78H147.965C148.432 86.78 148.832 86.72 149.165 86.6C149.499 86.4933 149.779 86.3 150.005 86.02C150.232 85.74 150.425 85.3533 150.585 84.86L154.145 73.42H155.605L151.885 85.28C151.672 85.96 151.379 86.5067 151.005 86.92C150.632 87.3467 150.185 87.6533 149.665 87.84C149.145 88.0267 148.552 88.12 147.885 88.12H146.605ZM150.045 83.74V82.48H151.945V83.74H150.045ZM149.865 83.74L146.025 73.42H147.565L151.265 83.74H149.865ZM162.793 84.34C161.887 84.34 161.087 84.1867 160.393 83.88C159.713 83.56 159.133 83.14 158.653 82.62C158.187 82.0867 157.827 81.4933 157.573 80.84C157.333 80.1867 157.213 79.52 157.213 78.84V78.56C157.213 77.88 157.34 77.2133 157.593 76.56C157.847 75.8933 158.213 75.3 158.693 74.78C159.173 74.26 159.753 73.8467 160.433 73.54C161.127 73.22 161.913 73.06 162.793 73.06C163.687 73.06 164.473 73.22 165.153 73.54C165.847 73.8467 166.433 74.26 166.913 74.78C167.393 75.3 167.753 75.8933 167.993 76.56C168.247 77.2133 168.373 77.88 168.373 78.56V78.84C168.373 79.52 168.253 80.1867 168.013 80.84C167.773 81.4933 167.413 82.0867 166.933 82.62C166.467 83.14 165.887 83.56 165.193 83.88C164.5 84.1867 163.7 84.34 162.793 84.34ZM162.793 83C163.673 83 164.413 82.8067 165.013 82.42C165.627 82.02 166.093 81.5 166.413 80.86C166.733 80.2067 166.893 79.4867 166.893 78.7C166.893 77.9 166.727 77.18 166.393 76.54C166.073 75.8867 165.607 75.3733 164.993 75C164.38 74.6133 163.647 74.42 162.793 74.42C161.953 74.42 161.227 74.6133 160.613 75C160 75.3733 159.527 75.8867 159.193 76.54C158.873 77.18 158.713 77.9 158.713 78.7C158.713 79.4867 158.873 80.2067 159.193 80.86C159.513 81.5 159.973 82.02 160.573 82.42C161.187 82.8067 161.927 83 162.793 83ZM175.092 84.3C173.826 84.3 172.859 83.8933 172.192 83.08C171.526 82.2533 171.192 81.1067 171.192 79.64V73.4H172.672V79.94C172.672 80.86 172.912 81.5933 173.392 82.14C173.886 82.6733 174.566 82.94 175.432 82.94C176.339 82.94 177.059 82.6533 177.592 82.08C178.139 81.5067 178.412 80.74 178.412 79.78V73.4H179.912V84H178.712V79.58H178.952C178.952 80.5667 178.812 81.4133 178.532 82.12C178.252 82.8133 177.832 83.3533 177.272 83.74C176.712 84.1133 176.006 84.3 175.152 84.3H175.092Z" fill="url(#paint0_radial_1011_1498)"/>
<defs>
<radialGradient id="paint0_radial_1011_1498" cx="0" cy="0" r="1" gradientUnits="userSpaceOnUse" gradientTransform="translate(118.5 77.5) rotate(90) scale(12.5 118.5)">
<stop stop-color="#5A69EA"/>
<stop offset="1" stop-color="#BF8BCA"/>
</radialGradient>
</defs>
</svg>
