<svg width="678" height="171" viewBox="0 0 678 171" fill="none" xmlns="http://www.w3.org/2000/svg">
<g opacity="0.9">
<path d="M18.832 43.808V39.68H26.656C28.32 39.68 29.696 39.36 30.784 38.72C31.872 38.048 32.688 37.152 33.232 36.032C33.808 34.912 34.096 33.664 34.096 32.288C34.096 30.88 33.808 29.616 33.232 28.496C32.688 27.376 31.872 26.496 30.784 25.856C29.696 25.216 28.32 24.896 26.656 24.896H18.832V20.768H25.792C28.672 20.768 31.072 21.232 32.992 22.16C34.944 23.056 36.416 24.336 37.408 26C38.4 27.664 38.896 29.632 38.896 31.904V32.672C38.896 34.912 38.4 36.88 37.408 38.576C36.416 40.24 34.944 41.536 32.992 42.464C31.072 43.36 28.672 43.808 25.792 43.808H18.832ZM15.088 56V20.768H19.792V56H15.088ZM45.2129 56V30.368H48.8609V40.928H48.6689C48.6689 37.184 49.4849 34.448 51.1169 32.72C52.7809 30.96 55.2609 30.08 58.5569 30.08H59.4209V34.208H57.7889C55.2289 34.208 53.2609 34.896 51.8849 36.272C50.5089 37.616 49.8209 39.568 49.8209 42.128V56H45.2129ZM76.4271 56.864C74.1871 56.864 72.2191 56.48 70.5231 55.712C68.8271 54.944 67.3871 53.936 66.2031 52.688C65.0511 51.408 64.1711 49.984 63.5631 48.416C62.9871 46.848 62.6991 45.248 62.6991 43.616V42.752C62.6991 41.12 63.0031 39.52 63.6111 37.952C64.2191 36.352 65.1151 34.928 66.2991 33.68C67.4831 32.4 68.9231 31.392 70.6191 30.656C72.3151 29.888 74.2511 29.504 76.4271 29.504C78.6031 29.504 80.5391 29.888 82.2351 30.656C83.9311 31.392 85.3711 32.4 86.5551 33.68C87.7391 34.928 88.6351 36.352 89.2431 37.952C89.8511 39.52 90.1551 41.12 90.1551 42.752V43.616C90.1551 45.248 89.8511 46.848 89.2431 48.416C88.6671 49.984 87.7871 51.408 86.6031 52.688C85.4511 53.936 84.0271 54.944 82.3311 55.712C80.6351 56.48 78.6671 56.864 76.4271 56.864ZM76.4271 52.736C78.3471 52.736 79.9791 52.32 81.3231 51.488C82.6991 50.624 83.7391 49.472 84.4431 48.032C85.1791 46.592 85.5471 44.976 85.5471 43.184C85.5471 41.36 85.1791 39.728 84.4431 38.288C83.7071 36.848 82.6511 35.712 81.2751 34.88C79.9311 34.048 78.3151 33.632 76.4271 33.632C74.5711 33.632 72.9551 34.048 71.5791 34.88C70.2031 35.712 69.1471 36.848 68.4111 38.288C67.6751 39.728 67.3071 41.36 67.3071 43.184C67.3071 44.976 67.6591 46.592 68.3631 48.032C69.0991 49.472 70.1391 50.624 71.4831 51.488C72.8591 52.32 74.5071 52.736 76.4271 52.736ZM107.761 56.864C105.937 56.864 104.257 56.528 102.721 55.856C101.185 55.184 99.8406 54.24 98.6886 53.024C97.5686 51.808 96.6886 50.4 96.0486 48.8C95.4406 47.2 95.1366 45.472 95.1366 43.616V42.752C95.1366 40.928 95.4406 39.216 96.0486 37.616C96.6566 36.016 97.5046 34.608 98.5926 33.392C99.7126 32.176 101.025 31.232 102.529 30.56C104.065 29.856 105.761 29.504 107.617 29.504C109.569 29.504 111.345 29.92 112.945 30.752C114.545 31.552 115.857 32.816 116.881 34.544C117.905 36.272 118.481 38.512 118.609 41.264L116.689 38.192V20.96H121.297V56H117.649V44.624H118.993C118.865 47.536 118.257 49.904 117.169 51.728C116.081 53.52 114.705 54.832 113.041 55.664C111.409 56.464 109.649 56.864 107.761 56.864ZM108.385 52.832C109.953 52.832 111.377 52.48 112.657 51.776C113.937 51.072 114.961 50.064 115.729 48.752C116.497 47.408 116.881 45.84 116.881 44.048V41.84C116.881 40.08 116.481 38.592 115.681 37.376C114.913 36.128 113.873 35.184 112.561 34.544C111.281 33.872 109.873 33.536 108.337 33.536C106.641 33.536 105.137 33.936 103.825 34.736C102.545 35.536 101.537 36.656 100.801 38.096C100.097 39.536 99.7446 41.232 99.7446 43.184C99.7446 45.136 100.113 46.848 100.849 48.32C101.585 49.76 102.609 50.88 103.921 51.68C105.233 52.448 106.721 52.832 108.385 52.832ZM139.03 56.768C135.99 56.768 133.654 55.776 132.022 53.792C130.39 51.808 129.574 48.944 129.574 45.2V30.32H134.182V46.112C134.182 48.128 134.726 49.712 135.814 50.864C136.902 51.984 138.374 52.544 140.23 52.544C142.15 52.544 143.718 51.936 144.934 50.72C146.15 49.472 146.758 47.776 146.758 45.632V30.32H151.366V56H147.718V45.008H148.294C148.294 47.536 147.958 49.68 147.286 51.44C146.614 53.168 145.606 54.496 144.262 55.424C142.95 56.32 141.27 56.768 139.222 56.768H139.03ZM171.283 56.864C169.075 56.864 167.155 56.48 165.523 55.712C163.923 54.944 162.595 53.92 161.539 52.64C160.483 51.328 159.683 49.888 159.139 48.32C158.627 46.752 158.371 45.184 158.371 43.616V42.752C158.371 41.12 158.627 39.52 159.139 37.952C159.683 36.384 160.483 34.976 161.539 33.728C162.627 32.448 163.971 31.424 165.571 30.656C167.171 29.888 169.043 29.504 171.187 29.504C173.331 29.504 175.251 29.904 176.947 30.704C178.675 31.504 180.051 32.64 181.075 34.112C182.131 35.552 182.723 37.264 182.851 39.248H178.435C178.211 37.648 177.475 36.32 176.227 35.264C174.979 34.176 173.299 33.632 171.187 33.632C169.363 33.632 167.843 34.048 166.627 34.88C165.411 35.712 164.499 36.848 163.891 38.288C163.283 39.728 162.979 41.36 162.979 43.184C162.979 44.944 163.283 46.56 163.891 48.032C164.499 49.472 165.411 50.624 166.627 51.488C167.875 52.32 169.427 52.736 171.283 52.736C172.723 52.736 173.971 52.48 175.027 51.968C176.083 51.456 176.931 50.768 177.571 49.904C178.211 49.04 178.595 48.064 178.723 46.976H183.139C183.043 48.992 182.451 50.736 181.363 52.208C180.307 53.68 178.899 54.832 177.139 55.664C175.411 56.464 173.459 56.864 171.283 56.864ZM199.384 56.288C197.464 56.288 195.8 56.016 194.392 55.472C193.016 54.928 191.944 54 191.176 52.688C190.44 51.344 190.072 49.536 190.072 47.264V22.592H194.488V47.84C194.488 49.216 194.856 50.288 195.592 51.056C196.36 51.792 197.432 52.16 198.808 52.16H203.32V56.288H199.384ZM185.656 33.824V30.368H203.32V33.824H185.656ZM218.05 56.768C214.69 56.768 212.082 56.048 210.226 54.608C208.402 53.168 207.458 51.2 207.394 48.704H211.714C211.778 49.696 212.274 50.64 213.202 51.536C214.162 52.4 215.778 52.832 218.05 52.832C220.098 52.832 221.666 52.432 222.754 51.632C223.842 50.8 224.386 49.792 224.386 48.608C224.386 47.552 223.986 46.736 223.186 46.16C222.386 45.552 221.09 45.152 219.298 44.96L216.514 44.672C214.082 44.416 212.098 43.696 210.562 42.512C209.026 41.296 208.258 39.6 208.258 37.424C208.258 35.792 208.674 34.4 209.506 33.248C210.338 32.064 211.49 31.168 212.962 30.56C214.434 29.92 216.13 29.6 218.05 29.6C220.93 29.6 223.266 30.24 225.058 31.52C226.85 32.8 227.778 34.704 227.842 37.232H223.522C223.49 36.208 223.01 35.344 222.082 34.64C221.186 33.904 219.842 33.536 218.05 33.536C216.258 33.536 214.898 33.904 213.97 34.64C213.042 35.376 212.578 36.304 212.578 37.424C212.578 38.384 212.898 39.152 213.538 39.728C214.21 40.304 215.298 40.672 216.802 40.832L219.586 41.12C222.338 41.408 224.546 42.176 226.21 43.424C227.874 44.64 228.706 46.368 228.706 48.608C228.706 50.208 228.242 51.632 227.314 52.88C226.418 54.096 225.17 55.056 223.57 55.76C221.97 56.432 220.13 56.768 218.05 56.768ZM261.811 56V48.32H261.043V39.44C261.043 37.68 260.579 36.352 259.651 35.456C258.755 34.56 257.427 34.112 255.667 34.112C254.675 34.112 253.651 34.128 252.595 34.16C251.539 34.192 250.531 34.224 249.571 34.256C248.611 34.288 247.779 34.336 247.075 34.4V30.368C247.779 30.304 248.515 30.256 249.283 30.224C250.083 30.16 250.899 30.128 251.731 30.128C252.563 30.096 253.363 30.08 254.131 30.08C256.755 30.08 258.899 30.4 260.563 31.04C262.227 31.648 263.459 32.656 264.259 34.064C265.059 35.472 265.459 37.376 265.459 39.776V56H261.811ZM253.411 56.672C251.491 56.672 249.827 56.352 248.419 55.712C247.043 55.04 245.971 54.08 245.203 52.832C244.467 51.584 244.099 50.08 244.099 48.32C244.099 46.496 244.499 44.976 245.299 43.76C246.131 42.544 247.331 41.632 248.899 41.024C250.467 40.384 252.355 40.064 254.563 40.064H261.523V43.52H254.371C252.515 43.52 251.091 43.968 250.099 44.864C249.107 45.76 248.611 46.912 248.611 48.32C248.611 49.728 249.107 50.864 250.099 51.728C251.091 52.592 252.515 53.024 254.371 53.024C255.459 53.024 256.499 52.832 257.491 52.448C258.483 52.032 259.299 51.36 259.939 50.432C260.611 49.472 260.979 48.16 261.043 46.496L262.291 48.32C262.131 50.144 261.683 51.68 260.947 52.928C260.243 54.144 259.251 55.072 257.971 55.712C256.723 56.352 255.203 56.672 253.411 56.672ZM273.916 56V30.368H277.564V40.928H277.372C277.372 37.184 278.188 34.448 279.82 32.72C281.484 30.96 283.964 30.08 287.26 30.08H288.124V34.208H286.492C283.932 34.208 281.964 34.896 280.588 36.272C279.212 37.616 278.524 39.568 278.524 42.128V56H273.916ZM304.218 56.864C301.978 56.864 300.042 56.48 298.41 55.712C296.778 54.944 295.45 53.936 294.426 52.688C293.402 51.408 292.634 49.984 292.122 48.416C291.642 46.848 291.402 45.248 291.402 43.616V42.752C291.402 41.088 291.642 39.472 292.122 37.904C292.634 36.336 293.402 34.928 294.426 33.68C295.45 32.4 296.746 31.392 298.314 30.656C299.914 29.888 301.786 29.504 303.93 29.504C306.714 29.504 309.002 30.112 310.794 31.328C312.618 32.512 313.962 34.048 314.826 35.936C315.722 37.824 316.17 39.84 316.17 41.984V44.048H293.418V40.592H312.81L311.754 42.464C311.754 40.64 311.466 39.072 310.89 37.76C310.314 36.416 309.45 35.376 308.298 34.64C307.146 33.904 305.69 33.536 303.93 33.536C302.106 33.536 300.586 33.952 299.37 34.784C298.186 35.616 297.29 36.752 296.682 38.192C296.106 39.632 295.818 41.296 295.818 43.184C295.818 45.008 296.106 46.656 296.682 48.128C297.29 49.568 298.218 50.72 299.466 51.584C300.714 52.416 302.298 52.832 304.218 52.832C306.234 52.832 307.866 52.384 309.114 51.488C310.394 50.592 311.162 49.552 311.418 48.368H315.738C315.386 50.128 314.682 51.648 313.626 52.928C312.57 54.208 311.242 55.184 309.642 55.856C308.042 56.528 306.234 56.864 304.218 56.864Z" fill="#404040"/>
<path d="M344.627 56.864C342.419 56.864 340.499 56.48 338.867 55.712C337.267 54.944 335.939 53.92 334.883 52.64C333.827 51.328 333.027 49.888 332.483 48.32C331.971 46.752 331.715 45.184 331.715 43.616V42.752C331.715 41.12 331.971 39.52 332.483 37.952C333.027 36.384 333.827 34.976 334.883 33.728C335.971 32.448 337.315 31.424 338.915 30.656C340.515 29.888 342.387 29.504 344.531 29.504C346.675 29.504 348.595 29.904 350.291 30.704C352.019 31.504 353.395 32.64 354.419 34.112C355.475 35.552 356.067 37.264 356.195 39.248H351.779C351.555 37.648 350.819 36.32 349.571 35.264C348.323 34.176 346.643 33.632 344.531 33.632C342.707 33.632 341.187 34.048 339.971 34.88C338.755 35.712 337.843 36.848 337.235 38.288C336.627 39.728 336.323 41.36 336.323 43.184C336.323 44.944 336.627 46.56 337.235 48.032C337.843 49.472 338.755 50.624 339.971 51.488C341.219 52.32 342.771 52.736 344.627 52.736C346.067 52.736 347.315 52.48 348.371 51.968C349.427 51.456 350.275 50.768 350.915 49.904C351.555 49.04 351.939 48.064 352.067 46.976H356.483C356.387 48.992 355.795 50.736 354.707 52.208C353.651 53.68 352.243 54.832 350.483 55.664C348.755 56.464 346.803 56.864 344.627 56.864ZM374.552 56.864C372.312 56.864 370.344 56.48 368.648 55.712C366.952 54.944 365.512 53.936 364.328 52.688C363.176 51.408 362.296 49.984 361.688 48.416C361.112 46.848 360.824 45.248 360.824 43.616V42.752C360.824 41.12 361.128 39.52 361.736 37.952C362.344 36.352 363.24 34.928 364.424 33.68C365.608 32.4 367.048 31.392 368.744 30.656C370.44 29.888 372.376 29.504 374.552 29.504C376.728 29.504 378.664 29.888 380.36 30.656C382.056 31.392 383.496 32.4 384.68 33.68C385.864 34.928 386.76 36.352 387.368 37.952C387.976 39.52 388.28 41.12 388.28 42.752V43.616C388.28 45.248 387.976 46.848 387.368 48.416C386.792 49.984 385.912 51.408 384.728 52.688C383.576 53.936 382.152 54.944 380.456 55.712C378.76 56.48 376.792 56.864 374.552 56.864ZM374.552 52.736C376.472 52.736 378.104 52.32 379.448 51.488C380.824 50.624 381.864 49.472 382.568 48.032C383.304 46.592 383.672 44.976 383.672 43.184C383.672 41.36 383.304 39.728 382.568 38.288C381.832 36.848 380.776 35.712 379.4 34.88C378.056 34.048 376.44 33.632 374.552 33.632C372.696 33.632 371.08 34.048 369.704 34.88C368.328 35.712 367.272 36.848 366.536 38.288C365.8 39.728 365.432 41.36 365.432 43.184C365.432 44.976 365.784 46.592 366.488 48.032C367.224 49.472 368.264 50.624 369.608 51.488C370.984 52.32 372.632 52.736 374.552 52.736ZM395.182 56V30.368H398.83V41.36H398.254C398.254 38.864 398.574 36.752 399.214 35.024C399.886 33.264 400.878 31.92 402.19 30.992C403.502 30.064 405.166 29.6 407.182 29.6H407.374C409.39 29.6 411.054 30.064 412.366 30.992C413.71 31.92 414.702 33.264 415.342 35.024C415.982 36.752 416.302 38.864 416.302 41.36H414.958C414.958 38.864 415.294 36.752 415.966 35.024C416.638 33.264 417.63 31.92 418.942 30.992C420.286 30.064 421.966 29.6 423.982 29.6H424.174C426.19 29.6 427.87 30.064 429.214 30.992C430.558 31.92 431.55 33.264 432.19 35.024C432.862 36.752 433.198 38.864 433.198 41.36V56H428.59V40.352C428.59 38.272 428.078 36.672 427.054 35.552C426.03 34.4 424.606 33.824 422.782 33.824C420.894 33.824 419.374 34.432 418.222 35.648C417.07 36.832 416.494 38.496 416.494 40.64V56H411.886V40.352C411.886 38.272 411.374 36.672 410.35 35.552C409.326 34.4 407.902 33.824 406.078 33.824C404.19 33.824 402.67 34.432 401.518 35.648C400.366 36.832 399.79 38.496 399.79 40.64V56H395.182ZM442.883 56V30.368H447.491V56H442.883ZM438.947 34.016V30.368H447.491V34.016H438.947ZM444.179 26.24C443.155 26.24 442.387 25.968 441.875 25.424C441.395 24.88 441.155 24.192 441.155 23.36C441.155 22.528 441.395 21.84 441.875 21.296C442.387 20.752 443.155 20.48 444.179 20.48C445.203 20.48 445.955 20.752 446.435 21.296C446.947 21.84 447.203 22.528 447.203 23.36C447.203 24.192 446.947 24.88 446.435 25.424C445.955 25.968 445.203 26.24 444.179 26.24ZM456.4 56V30.368H460.048V41.36H459.472C459.472 38.832 459.808 36.704 460.48 34.976C461.184 33.216 462.24 31.888 463.648 30.992C465.056 30.064 466.832 29.6 468.976 29.6H469.168C472.4 29.6 474.784 30.608 476.32 32.624C477.888 34.64 478.672 37.552 478.672 41.36V56H474.064V40.4C474.064 38.416 473.504 36.832 472.384 35.648C471.264 34.432 469.728 33.824 467.776 33.824C465.76 33.824 464.128 34.448 462.88 35.696C461.632 36.944 461.008 38.608 461.008 40.688V56H456.4ZM496.799 65.984C495.615 65.984 494.416 65.936 493.2 65.84C492.016 65.744 490.88 65.616 489.792 65.456V61.568C490.944 61.728 492.144 61.856 493.392 61.952C494.672 62.08 495.872 62.144 496.992 62.144C499.328 62.144 501.184 61.824 502.56 61.184C503.968 60.576 504.976 59.6 505.584 58.256C506.224 56.944 506.544 55.248 506.544 53.168V48.272L508.08 44.624C507.984 47.216 507.44 49.376 506.448 51.104C505.456 52.8 504.16 54.08 502.56 54.944C500.992 55.776 499.248 56.192 497.328 56.192C495.536 56.192 493.888 55.856 492.384 55.184C490.912 54.48 489.632 53.52 488.544 52.304C487.488 51.088 486.656 49.696 486.048 48.128C485.472 46.528 485.184 44.848 485.184 43.088V42.224C485.184 40.432 485.488 38.768 486.096 37.232C486.704 35.664 487.552 34.304 488.64 33.152C489.728 32 491.024 31.104 492.528 30.464C494.064 29.824 495.744 29.504 497.568 29.504C499.712 29.504 501.6 29.968 503.232 30.896C504.864 31.792 506.144 33.12 507.072 34.88C508.032 36.608 508.56 38.736 508.656 41.264L507.312 41.312V30.368H510.96V52.976C510.96 56.048 510.48 58.528 509.52 60.416C508.592 62.336 507.088 63.744 505.008 64.64C502.96 65.536 500.224 65.984 496.799 65.984ZM498.192 51.968C499.728 51.968 501.12 51.632 502.368 50.96C503.648 50.288 504.656 49.328 505.392 48.08C506.16 46.8 506.544 45.28 506.544 43.52V41.312C506.544 39.584 506.144 38.128 505.344 36.944C504.576 35.76 503.568 34.864 502.32 34.256C501.072 33.648 499.712 33.344 498.24 33.344C496.576 33.344 495.104 33.728 493.824 34.496C492.544 35.264 491.552 36.352 490.848 37.76C490.144 39.136 489.792 40.768 489.792 42.656C489.792 44.544 490.144 46.192 490.848 47.6C491.584 49.008 492.576 50.096 493.824 50.864C495.104 51.6 496.56 51.968 498.192 51.968ZM538.816 56.768C535.456 56.768 532.848 56.048 530.992 54.608C529.168 53.168 528.224 51.2 528.16 48.704H532.48C532.544 49.696 533.04 50.64 533.968 51.536C534.928 52.4 536.544 52.832 538.816 52.832C540.864 52.832 542.432 52.432 543.52 51.632C544.608 50.8 545.152 49.792 545.152 48.608C545.152 47.552 544.752 46.736 543.952 46.16C543.152 45.552 541.856 45.152 540.064 44.96L537.28 44.672C534.848 44.416 532.864 43.696 531.328 42.512C529.792 41.296 529.024 39.6 529.024 37.424C529.024 35.792 529.44 34.4 530.272 33.248C531.104 32.064 532.256 31.168 533.728 30.56C535.2 29.92 536.896 29.6 538.816 29.6C541.696 29.6 544.032 30.24 545.824 31.52C547.616 32.8 548.544 34.704 548.608 37.232H544.288C544.256 36.208 543.776 35.344 542.848 34.64C541.952 33.904 540.608 33.536 538.816 33.536C537.024 33.536 535.664 33.904 534.736 34.64C533.808 35.376 533.344 36.304 533.344 37.424C533.344 38.384 533.664 39.152 534.304 39.728C534.976 40.304 536.064 40.672 537.568 40.832L540.352 41.12C543.104 41.408 545.312 42.176 546.976 43.424C548.64 44.64 549.472 46.368 549.472 48.608C549.472 50.208 549.008 51.632 548.08 52.88C547.184 54.096 545.936 55.056 544.336 55.76C542.736 56.432 540.896 56.768 538.816 56.768ZM567.958 56.864C565.718 56.864 563.75 56.48 562.054 55.712C560.358 54.944 558.918 53.936 557.734 52.688C556.582 51.408 555.702 49.984 555.094 48.416C554.518 46.848 554.23 45.248 554.23 43.616V42.752C554.23 41.12 554.534 39.52 555.142 37.952C555.75 36.352 556.646 34.928 557.83 33.68C559.014 32.4 560.454 31.392 562.15 30.656C563.846 29.888 565.782 29.504 567.958 29.504C570.134 29.504 572.07 29.888 573.766 30.656C575.462 31.392 576.902 32.4 578.086 33.68C579.27 34.928 580.166 36.352 580.774 37.952C581.382 39.52 581.686 41.12 581.686 42.752V43.616C581.686 45.248 581.382 46.848 580.774 48.416C580.198 49.984 579.318 51.408 578.134 52.688C576.982 53.936 575.558 54.944 573.862 55.712C572.166 56.48 570.198 56.864 567.958 56.864ZM567.958 52.736C569.878 52.736 571.51 52.32 572.854 51.488C574.23 50.624 575.27 49.472 575.974 48.032C576.71 46.592 577.078 44.976 577.078 43.184C577.078 41.36 576.71 39.728 575.974 38.288C575.238 36.848 574.182 35.712 572.806 34.88C571.462 34.048 569.846 33.632 567.958 33.632C566.102 33.632 564.486 34.048 563.11 34.88C561.734 35.712 560.678 36.848 559.942 38.288C559.206 39.728 558.838 41.36 558.838 43.184C558.838 44.976 559.19 46.592 559.894 48.032C560.63 49.472 561.67 50.624 563.014 51.488C564.39 52.32 566.038 52.736 567.958 52.736ZM600.396 56.864C598.156 56.864 596.188 56.48 594.492 55.712C592.796 54.944 591.356 53.936 590.172 52.688C589.02 51.408 588.14 49.984 587.532 48.416C586.956 46.848 586.668 45.248 586.668 43.616V42.752C586.668 41.12 586.972 39.52 587.58 37.952C588.188 36.352 589.084 34.928 590.268 33.68C591.452 32.4 592.892 31.392 594.588 30.656C596.284 29.888 598.22 29.504 600.396 29.504C602.572 29.504 604.508 29.888 606.204 30.656C607.9 31.392 609.34 32.4 610.524 33.68C611.708 34.928 612.604 36.352 613.212 37.952C613.82 39.52 614.124 41.12 614.124 42.752V43.616C614.124 45.248 613.82 46.848 613.212 48.416C612.636 49.984 611.756 51.408 610.572 52.688C609.42 53.936 607.996 54.944 606.3 55.712C604.604 56.48 602.636 56.864 600.396 56.864ZM600.396 52.736C602.316 52.736 603.948 52.32 605.292 51.488C606.668 50.624 607.708 49.472 608.412 48.032C609.148 46.592 609.516 44.976 609.516 43.184C609.516 41.36 609.148 39.728 608.412 38.288C607.676 36.848 606.62 35.712 605.244 34.88C603.9 34.048 602.284 33.632 600.396 33.632C598.54 33.632 596.924 34.048 595.548 34.88C594.172 35.712 593.116 36.848 592.38 38.288C591.644 39.728 591.276 41.36 591.276 43.184C591.276 44.976 591.628 46.592 592.332 48.032C593.068 49.472 594.108 50.624 595.452 51.488C596.828 52.32 598.476 52.736 600.396 52.736ZM621.025 56V30.368H624.673V41.36H624.097C624.097 38.832 624.433 36.704 625.105 34.976C625.809 33.216 626.865 31.888 628.273 30.992C629.681 30.064 631.457 29.6 633.601 29.6H633.793C637.025 29.6 639.409 30.608 640.945 32.624C642.513 34.64 643.297 37.552 643.297 41.36V56H638.689V40.4C638.689 38.416 638.129 36.832 637.009 35.648C635.889 34.432 634.353 33.824 632.401 33.824C630.385 33.824 628.753 34.448 627.505 35.696C626.257 36.944 625.633 38.608 625.633 40.688V56H621.025Z" fill="url(#paint0_radial_1011_1507)"/>
</g>
<g filter="url(#filter0_ddiiii_1011_1507)">
<rect x="185" y="107.5" width="128" height="55" rx="10" fill="#ECECEC"/>
<rect x="182.5" y="105" width="133" height="60" rx="12.5" stroke="url(#paint1_radial_1011_1507)" stroke-width="5"/>
<path d="M216.521 135.833L221.188 140.5L220.001 141.667L213.334 135L220.001 128.333L221.188 129.5L216.521 134.167H226.667V135.833H216.521Z" fill="#717171"/>
<path d="M243.42 141.56V140.22H247.7C248.567 140.22 249.24 139.973 249.72 139.48C250.213 138.973 250.46 138.307 250.46 137.48C250.46 136.667 250.22 136.013 249.74 135.52C249.26 135.013 248.58 134.76 247.7 134.76H243.42V133.76H247.48C248.36 133.76 249.14 133.887 249.82 134.14C250.5 134.38 251.033 134.767 251.42 135.3C251.807 135.833 252 136.533 252 137.4V137.64C252 138.427 251.833 139.12 251.5 139.72C251.167 140.307 250.667 140.76 250 141.08C249.333 141.4 248.493 141.56 247.48 141.56H243.42ZM242.28 141.56V126.84H243.8V141.56H242.28ZM243.42 134.48V133.48H247.16C248.08 133.48 248.76 133.233 249.2 132.74C249.64 132.233 249.86 131.6 249.86 130.84C249.86 130.053 249.64 129.413 249.2 128.92C248.76 128.427 248.08 128.18 247.16 128.18H243.42V126.84H246.9C248.407 126.84 249.533 127.18 250.28 127.86C251.027 128.54 251.4 129.48 251.4 130.68V130.92C251.4 131.76 251.213 132.447 250.84 132.98C250.467 133.5 249.94 133.88 249.26 134.12C248.593 134.36 247.807 134.48 246.9 134.48H243.42ZM261.837 141.5V138.32H261.597V134.56C261.597 133.773 261.39 133.173 260.977 132.76C260.564 132.333 259.924 132.12 259.057 132.12C258.657 132.12 258.25 132.127 257.837 132.14C257.437 132.153 257.05 132.173 256.677 132.2C256.317 132.213 255.997 132.233 255.717 132.26V130.94C256.01 130.913 256.31 130.887 256.617 130.86C256.924 130.833 257.237 130.82 257.557 130.82C257.89 130.807 258.21 130.8 258.517 130.8C259.597 130.8 260.464 130.933 261.117 131.2C261.784 131.467 262.27 131.887 262.577 132.46C262.884 133.02 263.037 133.767 263.037 134.7V141.5H261.837ZM258.257 141.78C257.51 141.78 256.85 141.647 256.277 141.38C255.704 141.113 255.257 140.727 254.937 140.22C254.63 139.713 254.477 139.1 254.477 138.38C254.477 137.673 254.637 137.073 254.957 136.58C255.29 136.087 255.764 135.713 256.377 135.46C257.004 135.193 257.757 135.06 258.637 135.06H261.737V136.2H258.537C257.697 136.2 257.05 136.407 256.597 136.82C256.157 137.22 255.937 137.747 255.937 138.4C255.937 139.067 256.17 139.6 256.637 140C257.104 140.387 257.737 140.58 258.537 140.58C259.03 140.58 259.504 140.493 259.957 140.32C260.41 140.133 260.79 139.827 261.097 139.4C261.404 138.96 261.57 138.36 261.597 137.6L262.037 138.22C261.984 139.007 261.797 139.667 261.477 140.2C261.157 140.72 260.724 141.113 260.177 141.38C259.63 141.647 258.99 141.78 258.257 141.78ZM271.244 141.84C270.35 141.84 269.57 141.687 268.904 141.38C268.25 141.06 267.704 140.633 267.264 140.1C266.824 139.553 266.49 138.953 266.264 138.3C266.05 137.647 265.944 136.987 265.944 136.32V136.04C265.944 135.36 266.05 134.7 266.264 134.06C266.49 133.407 266.824 132.82 267.264 132.3C267.704 131.767 268.25 131.347 268.904 131.04C269.57 130.72 270.337 130.56 271.204 130.56C272.084 130.56 272.864 130.72 273.544 131.04C274.237 131.36 274.797 131.813 275.224 132.4C275.65 132.987 275.904 133.68 275.984 134.48H274.544C274.424 133.747 274.077 133.14 273.504 132.66C272.944 132.167 272.177 131.92 271.204 131.92C270.364 131.92 269.664 132.113 269.104 132.5C268.557 132.873 268.144 133.387 267.864 134.04C267.584 134.68 267.444 135.393 267.444 136.18C267.444 136.953 267.584 137.673 267.864 138.34C268.144 138.993 268.564 139.52 269.124 139.92C269.684 140.307 270.39 140.5 271.244 140.5C271.897 140.5 272.464 140.387 272.944 140.16C273.437 139.92 273.83 139.6 274.124 139.2C274.43 138.8 274.61 138.36 274.664 137.88H276.104C276.05 138.68 275.797 139.38 275.344 139.98C274.904 140.567 274.33 141.027 273.624 141.36C272.917 141.68 272.124 141.84 271.244 141.84ZM286.054 141.5L281.794 136.54H280.074L285.094 130.92H286.694L282.194 135.94L282.294 135.12L287.814 141.5H286.054ZM278.854 141.5V126.9H280.354V141.5H278.854Z" fill="#404040"/>
</g>
<g filter="url(#filter1_ddiiii_1011_1507)">
<rect x="354" y="107.5" width="135" height="55" rx="10" fill="#ECECEC"/>
<rect x="351.5" y="105" width="140" height="60" rx="12.5" stroke="#B2CEFE" stroke-width="5"/>
<path d="M403.32 141.5V126.9H404.84V141.5H403.32ZM393.28 141.5V126.9H394.8V141.5H393.28ZM394.46 134.94V133.58H403.66V134.94H394.46ZM413.793 141.84C412.887 141.84 412.087 141.687 411.393 141.38C410.713 141.06 410.133 140.64 409.653 140.12C409.187 139.587 408.827 138.993 408.573 138.34C408.333 137.687 408.213 137.02 408.213 136.34V136.06C408.213 135.38 408.34 134.713 408.593 134.06C408.847 133.393 409.213 132.8 409.693 132.28C410.173 131.76 410.753 131.347 411.433 131.04C412.127 130.72 412.913 130.56 413.793 130.56C414.687 130.56 415.473 130.72 416.153 131.04C416.847 131.347 417.433 131.76 417.913 132.28C418.393 132.8 418.753 133.393 418.993 134.06C419.247 134.713 419.373 135.38 419.373 136.06V136.34C419.373 137.02 419.253 137.687 419.013 138.34C418.773 138.993 418.413 139.587 417.933 140.12C417.467 140.64 416.887 141.06 416.193 141.38C415.5 141.687 414.7 141.84 413.793 141.84ZM413.793 140.5C414.673 140.5 415.413 140.307 416.013 139.92C416.627 139.52 417.093 139 417.413 138.36C417.733 137.707 417.893 136.987 417.893 136.2C417.893 135.4 417.727 134.68 417.393 134.04C417.073 133.387 416.607 132.873 415.993 132.5C415.38 132.113 414.647 131.92 413.793 131.92C412.953 131.92 412.227 132.113 411.613 132.5C411 132.873 410.527 133.387 410.193 134.04C409.873 134.68 409.713 135.4 409.713 136.2C409.713 136.987 409.873 137.707 410.193 138.36C410.513 139 410.973 139.52 411.573 139.92C412.187 140.307 412.927 140.5 413.793 140.5ZM422.432 141.5V130.9H423.632V135.36H423.392C423.392 134.387 423.526 133.547 423.792 132.84C424.072 132.133 424.486 131.587 425.032 131.2C425.579 130.8 426.272 130.6 427.112 130.6H427.172C428.012 130.6 428.706 130.793 429.252 131.18C429.799 131.567 430.206 132.113 430.472 132.82C430.739 133.527 430.872 134.373 430.872 135.36H430.392C430.392 134.387 430.526 133.547 430.792 132.84C431.072 132.133 431.486 131.587 432.032 131.2C432.592 130.8 433.292 130.6 434.132 130.6H434.192C435.032 130.6 435.726 130.793 436.272 131.18C436.832 131.567 437.246 132.113 437.512 132.82C437.792 133.527 437.932 134.373 437.932 135.36V141.5H436.432V135.02C436.432 134.087 436.206 133.347 435.752 132.8C435.299 132.253 434.646 131.98 433.792 131.98C432.912 131.98 432.212 132.267 431.692 132.84C431.186 133.4 430.932 134.16 430.932 135.12V141.5H429.432V135.02C429.432 134.087 429.206 133.347 428.752 132.8C428.299 132.253 427.646 131.98 426.792 131.98C425.912 131.98 425.212 132.267 424.692 132.84C424.186 133.4 423.932 134.16 423.932 135.12V141.5H422.432ZM446.09 141.84C445.184 141.84 444.397 141.687 443.73 141.38C443.064 141.06 442.517 140.64 442.09 140.12C441.664 139.587 441.344 138.993 441.13 138.34C440.93 137.687 440.83 137.013 440.83 136.32V136.04C440.83 135.36 440.93 134.693 441.13 134.04C441.344 133.387 441.664 132.8 442.09 132.28C442.517 131.76 443.05 131.347 443.69 131.04C444.344 130.72 445.104 130.56 445.97 130.56C447.077 130.56 447.997 130.807 448.73 131.3C449.477 131.793 450.037 132.427 450.41 133.2C450.784 133.96 450.97 134.78 450.97 135.66V136.44H441.51V135.28H449.93L449.55 135.86C449.55 135.073 449.41 134.387 449.13 133.8C448.864 133.2 448.464 132.733 447.93 132.4C447.41 132.053 446.757 131.88 445.97 131.88C445.144 131.88 444.457 132.073 443.91 132.46C443.364 132.847 442.95 133.36 442.67 134C442.404 134.64 442.27 135.367 442.27 136.18C442.27 136.98 442.404 137.713 442.67 138.38C442.95 139.033 443.37 139.553 443.93 139.94C444.504 140.327 445.224 140.52 446.09 140.52C447.01 140.52 447.757 140.313 448.33 139.9C448.904 139.473 449.257 138.973 449.39 138.4H450.79C450.657 139.107 450.377 139.72 449.95 140.24C449.524 140.747 448.984 141.14 448.33 141.42C447.677 141.7 446.93 141.84 446.09 141.84Z" fill="#404040"/>
</g>
<defs>
<filter id="filter0_ddiiii_1011_1507" x="177" y="99.5" width="144" height="71" filterUnits="userSpaceOnUse" color-interpolation-filters="sRGB">
<feFlood flood-opacity="0" result="BackgroundImageFix"/>
<feColorMatrix in="SourceAlpha" type="matrix" values="0 0 0 0 0 0 0 0 0 0 0 0 0 0 0 0 0 0 127 0" result="hardAlpha"/>
<feOffset dx="-1" dy="-1"/>
<feGaussianBlur stdDeviation="1"/>
<feColorMatrix type="matrix" values="0 0 0 0 0.568627 0 0 0 0 0.568627 0 0 0 0 0.560784 0 0 0 0.5 0"/>
<feBlend mode="normal" in2="BackgroundImageFix" result="effect1_dropShadow_1011_1507"/>
<feColorMatrix in="SourceAlpha" type="matrix" values="0 0 0 0 0 0 0 0 0 0 0 0 0 0 0 0 0 0 127 0" result="hardAlpha"/>
<feOffset dx="1" dy="1"/>
<feGaussianBlur stdDeviation="1"/>
<feColorMatrix type="matrix" values="0 0 0 0 1 0 0 0 0 1 0 0 0 0 1 0 0 0 0.3 0"/>
<feBlend mode="normal" in2="effect1_dropShadow_1011_1507" result="effect2_dropShadow_1011_1507"/>
<feBlend mode="normal" in="SourceGraphic" in2="effect2_dropShadow_1011_1507" result="shape"/>
<feColorMatrix in="SourceAlpha" type="matrix" values="0 0 0 0 0 0 0 0 0 0 0 0 0 0 0 0 0 0 127 0" result="hardAlpha"/>
<feOffset dx="2" dy="2"/>
<feGaussianBlur stdDeviation="2.5"/>
<feComposite in2="hardAlpha" operator="arithmetic" k2="-1" k3="1"/>
<feColorMatrix type="matrix" values="0 0 0 0 0.568627 0 0 0 0 0.568627 0 0 0 0 0.560784 0 0 0 0.9 0"/>
<feBlend mode="normal" in2="shape" result="effect3_innerShadow_1011_1507"/>
<feColorMatrix in="SourceAlpha" type="matrix" values="0 0 0 0 0 0 0 0 0 0 0 0 0 0 0 0 0 0 127 0" result="hardAlpha"/>
<feOffset dx="-2" dy="-2"/>
<feGaussianBlur stdDeviation="2"/>
<feComposite in2="hardAlpha" operator="arithmetic" k2="-1" k3="1"/>
<feColorMatrix type="matrix" values="0 0 0 0 1 0 0 0 0 1 0 0 0 0 1 0 0 0 0.9 0"/>
<feBlend mode="normal" in2="effect3_innerShadow_1011_1507" result="effect4_innerShadow_1011_1507"/>
<feColorMatrix in="SourceAlpha" type="matrix" values="0 0 0 0 0 0 0 0 0 0 0 0 0 0 0 0 0 0 127 0" result="hardAlpha"/>
<feOffset dx="2" dy="-2"/>
<feGaussianBlur stdDeviation="2"/>
<feComposite in2="hardAlpha" operator="arithmetic" k2="-1" k3="1"/>
<feColorMatrix type="matrix" values="0 0 0 0 0.568627 0 0 0 0 0.568627 0 0 0 0 0.560784 0 0 0 0.2 0"/>
<feBlend mode="normal" in2="effect4_innerShadow_1011_1507" result="effect5_innerShadow_1011_1507"/>
<feColorMatrix in="SourceAlpha" type="matrix" values="0 0 0 0 0 0 0 0 0 0 0 0 0 0 0 0 0 0 127 0" result="hardAlpha"/>
<feOffset dx="-2" dy="2"/>
<feGaussianBlur stdDeviation="2"/>
<feComposite in2="hardAlpha" operator="arithmetic" k2="-1" k3="1"/>
<feColorMatrix type="matrix" values="0 0 0 0 0.568627 0 0 0 0 0.568627 0 0 0 0 0.560784 0 0 0 0.2 0"/>
<feBlend mode="normal" in2="effect5_innerShadow_1011_1507" result="effect6_innerShadow_1011_1507"/>
</filter>
<filter id="filter1_ddiiii_1011_1507" x="346" y="99.5" width="151" height="71" filterUnits="userSpaceOnUse" color-interpolation-filters="sRGB">
<feFlood flood-opacity="0" result="BackgroundImageFix"/>
<feColorMatrix in="SourceAlpha" type="matrix" values="0 0 0 0 0 0 0 0 0 0 0 0 0 0 0 0 0 0 127 0" result="hardAlpha"/>
<feOffset dx="-1" dy="-1"/>
<feGaussianBlur stdDeviation="1"/>
<feColorMatrix type="matrix" values="0 0 0 0 0.568627 0 0 0 0 0.568627 0 0 0 0 0.560784 0 0 0 0.5 0"/>
<feBlend mode="normal" in2="BackgroundImageFix" result="effect1_dropShadow_1011_1507"/>
<feColorMatrix in="SourceAlpha" type="matrix" values="0 0 0 0 0 0 0 0 0 0 0 0 0 0 0 0 0 0 127 0" result="hardAlpha"/>
<feOffset dx="1" dy="1"/>
<feGaussianBlur stdDeviation="1"/>
<feColorMatrix type="matrix" values="0 0 0 0 1 0 0 0 0 1 0 0 0 0 1 0 0 0 0.3 0"/>
<feBlend mode="normal" in2="effect1_dropShadow_1011_1507" result="effect2_dropShadow_1011_1507"/>
<feBlend mode="normal" in="SourceGraphic" in2="effect2_dropShadow_1011_1507" result="shape"/>
<feColorMatrix in="SourceAlpha" type="matrix" values="0 0 0 0 0 0 0 0 0 0 0 0 0 0 0 0 0 0 127 0" result="hardAlpha"/>
<feOffset dx="2" dy="2"/>
<feGaussianBlur stdDeviation="2.5"/>
<feComposite in2="hardAlpha" operator="arithmetic" k2="-1" k3="1"/>
<feColorMatrix type="matrix" values="0 0 0 0 0.568627 0 0 0 0 0.568627 0 0 0 0 0.560784 0 0 0 0.9 0"/>
<feBlend mode="normal" in2="shape" result="effect3_innerShadow_1011_1507"/>
<feColorMatrix in="SourceAlpha" type="matrix" values="0 0 0 0 0 0 0 0 0 0 0 0 0 0 0 0 0 0 127 0" result="hardAlpha"/>
<feOffset dx="-2" dy="-2"/>
<feGaussianBlur stdDeviation="2"/>
<feComposite in2="hardAlpha" operator="arithmetic" k2="-1" k3="1"/>
<feColorMatrix type="matrix" values="0 0 0 0 1 0 0 0 0 1 0 0 0 0 1 0 0 0 0.9 0"/>
<feBlend mode="normal" in2="effect3_innerShadow_1011_1507" result="effect4_innerShadow_1011_1507"/>
<feColorMatrix in="SourceAlpha" type="matrix" values="0 0 0 0 0 0 0 0 0 0 0 0 0 0 0 0 0 0 127 0" result="hardAlpha"/>
<feOffset dx="2" dy="-2"/>
<feGaussianBlur stdDeviation="2"/>
<feComposite in2="hardAlpha" operator="arithmetic" k2="-1" k3="1"/>
<feColorMatrix type="matrix" values="0 0 0 0 0.568627 0 0 0 0 0.568627 0 0 0 0 0.560784 0 0 0 0.2 0"/>
<feBlend mode="normal" in2="effect4_innerShadow_1011_1507" result="effect5_innerShadow_1011_1507"/>
<feColorMatrix in="SourceAlpha" type="matrix" values="0 0 0 0 0 0 0 0 0 0 0 0 0 0 0 0 0 0 127 0" result="hardAlpha"/>
<feOffset dx="-2" dy="2"/>
<feGaussianBlur stdDeviation="2"/>
<feComposite in2="hardAlpha" operator="arithmetic" k2="-1" k3="1"/>
<feColorMatrix type="matrix" values="0 0 0 0 0.568627 0 0 0 0 0.568627 0 0 0 0 0.560784 0 0 0 0.2 0"/>
<feBlend mode="normal" in2="effect5_innerShadow_1011_1507" result="effect6_innerShadow_1011_1507"/>
</filter>
<radialGradient id="paint0_radial_1011_1507" cx="0" cy="0" r="1" gradientUnits="userSpaceOnUse" gradientTransform="translate(339 40) rotate(90) scale(30 329)">
<stop stop-color="#5A69EA"/>
<stop offset="1" stop-color="#BF8BCA"/>
</radialGradient>
<radialGradient id="paint1_radial_1011_1507" cx="0" cy="0" r="1" gradientUnits="userSpaceOnUse" gradientTransform="translate(249 135) rotate(90) scale(27.5 64)">
<stop stop-color="#5A69EA"/>
<stop offset="1" stop-color="#BF8BCA"/>
</radialGradient>
</defs>
</svg>
