<svg width="1440" height="85" viewBox="0 0 1440 85" fill="none" xmlns="http://www.w3.org/2000/svg">
<mask id="path-1-inside-1_1011_1392" fill="white">
<path d="M0 0H1442V85H0V0Z"/>
</mask>
<path d="M0 0V0.5H1442V0V-0.5H0V0ZM1442 85V84.5H0V85V85.5H1442V85Z" fill="#717171" mask="url(#path-1-inside-1_1011_1392)"/>
<path d="M74.74 49.5L80.24 34.9H82.4L88.08 49.5H86.96L81.54 35.52L82.2 35.88H80.38L81.06 35.52L75.82 49.5H74.74ZM77.36 44.58L77.74 43.6H84.98L85.36 44.58H77.36ZM95.1056 49.84C94.2123 49.84 93.439 49.6867 92.7856 49.38C92.1323 49.06 91.599 48.64 91.1856 48.12C90.7723 47.5867 90.459 46.9933 90.2456 46.34C90.0456 45.6733 89.9456 45 89.9456 44.32V44.12C89.9456 43.4267 90.0456 42.76 90.2456 42.12C90.459 41.48 90.7723 40.9 91.1856 40.38C91.6123 39.8467 92.139 39.4333 92.7656 39.14C93.4056 38.8333 94.1456 38.68 94.9856 38.68C96.0523 38.68 96.9456 38.92 97.6656 39.4C98.399 39.8667 98.9523 40.48 99.3256 41.24C99.699 42 99.8856 42.8 99.8856 43.64V44.36H90.4456V43.48H99.1856L98.8656 43.88C98.8656 43.0667 98.7123 42.34 98.4056 41.7C98.1123 41.06 97.6723 40.56 97.0856 40.2C96.5123 39.8267 95.8123 39.64 94.9856 39.64C94.0923 39.64 93.3456 39.8467 92.7456 40.26C92.1456 40.6733 91.6923 41.2267 91.3856 41.92C91.0923 42.6133 90.9456 43.38 90.9456 44.22C90.9456 45.06 91.0923 45.8333 91.3856 46.54C91.6923 47.2333 92.1523 47.8 92.7656 48.24C93.379 48.6667 94.159 48.88 95.1056 48.88C96.119 48.88 96.9323 48.6467 97.5456 48.18C98.1723 47.7133 98.5523 47.1533 98.6856 46.5H99.7256C99.579 47.1533 99.299 47.7333 98.8856 48.24C98.4723 48.7467 97.9456 49.14 97.3056 49.42C96.679 49.7 95.9456 49.84 95.1056 49.84ZM107.215 49.84C106.322 49.84 105.548 49.6867 104.895 49.38C104.242 49.06 103.708 48.64 103.295 48.12C102.882 47.5867 102.568 46.9933 102.355 46.34C102.155 45.6733 102.055 45 102.055 44.32V44.12C102.055 43.4267 102.155 42.76 102.355 42.12C102.568 41.48 102.882 40.9 103.295 40.38C103.722 39.8467 104.248 39.4333 104.875 39.14C105.515 38.8333 106.255 38.68 107.095 38.68C108.162 38.68 109.055 38.92 109.775 39.4C110.508 39.8667 111.062 40.48 111.435 41.24C111.808 42 111.995 42.8 111.995 43.64V44.36H102.555V43.48H111.295L110.975 43.88C110.975 43.0667 110.822 42.34 110.515 41.7C110.222 41.06 109.782 40.56 109.195 40.2C108.622 39.8267 107.922 39.64 107.095 39.64C106.202 39.64 105.455 39.8467 104.855 40.26C104.255 40.6733 103.802 41.2267 103.495 41.92C103.202 42.6133 103.055 43.38 103.055 44.22C103.055 45.06 103.202 45.8333 103.495 46.54C103.802 47.2333 104.262 47.8 104.875 48.24C105.488 48.6667 106.268 48.88 107.215 48.88C108.228 48.88 109.042 48.6467 109.655 48.18C110.282 47.7133 110.662 47.1533 110.795 46.5H111.835C111.688 47.1533 111.408 47.7333 110.995 48.24C110.582 48.7467 110.055 49.14 109.415 49.42C108.788 49.7 108.055 49.84 107.215 49.84ZM118.544 49.6C117.891 49.6 117.318 49.5067 116.824 49.32C116.331 49.12 115.951 48.7867 115.684 48.32C115.418 47.8533 115.284 47.2267 115.284 46.44V35.58H116.324V46.62C116.324 47.26 116.498 47.76 116.844 48.12C117.204 48.4667 117.698 48.64 118.324 48.64H120.284V49.6H118.544ZM113.284 39.86V39H120.284V39.86H113.284ZM123.384 49.5V34.9H124.444V42.7L124.064 43.38C124.064 42.46 124.204 41.6533 124.484 40.96C124.778 40.2533 125.218 39.7067 125.804 39.32C126.391 38.92 127.131 38.72 128.024 38.72H128.064C129.371 38.72 130.358 39.1333 131.024 39.96C131.691 40.7733 132.024 41.8867 132.024 43.3V49.5H130.944V43.06C130.944 42.0467 130.671 41.2333 130.124 40.62C129.578 40.0067 128.804 39.7 127.804 39.7C126.778 39.7 125.958 40.0267 125.344 40.68C124.744 41.32 124.444 42.16 124.444 43.2V49.5H123.384ZM140.561 49.84C139.681 49.84 138.901 49.68 138.221 49.36C137.541 49.04 136.968 48.62 136.501 48.1C136.048 47.58 135.701 47 135.461 46.36C135.235 45.7067 135.121 45.04 135.121 44.36V44.16C135.121 43.4667 135.241 42.7933 135.481 42.14C135.721 41.4867 136.075 40.9 136.541 40.38C137.008 39.86 137.575 39.4467 138.241 39.14C138.921 38.8333 139.695 38.68 140.561 38.68C141.415 38.68 142.175 38.8333 142.841 39.14C143.521 39.4467 144.095 39.86 144.561 40.38C145.028 40.9 145.381 41.4867 145.621 42.14C145.875 42.7933 146.001 43.4667 146.001 44.16V44.36C146.001 45.04 145.881 45.7067 145.641 46.36C145.401 47 145.048 47.58 144.581 48.1C144.128 48.62 143.561 49.04 142.881 49.36C142.215 49.68 141.441 49.84 140.561 49.84ZM140.561 48.86C141.495 48.86 142.281 48.6467 142.921 48.22C143.575 47.7933 144.068 47.2333 144.401 46.54C144.748 45.8333 144.921 45.0733 144.921 44.26C144.921 43.42 144.748 42.6533 144.401 41.96C144.055 41.2533 143.555 40.6933 142.901 40.28C142.261 39.8533 141.481 39.64 140.561 39.64C139.655 39.64 138.868 39.8533 138.201 40.28C137.548 40.6933 137.048 41.2533 136.701 41.96C136.355 42.6533 136.181 43.42 136.181 44.26C136.181 45.0733 136.348 45.8333 136.681 46.54C137.028 47.2333 137.528 47.7933 138.181 48.22C138.835 48.6467 139.628 48.86 140.561 48.86ZM153.444 49.84C152.657 49.84 151.944 49.6933 151.304 49.4C150.677 49.0933 150.144 48.6867 149.704 48.18C149.264 47.66 148.924 47.0733 148.684 46.42C148.457 45.7667 148.344 45.08 148.344 44.36V44.16C148.344 43.4667 148.457 42.8 148.684 42.16C148.911 41.5067 149.237 40.92 149.664 40.4C150.104 39.8667 150.637 39.4467 151.264 39.14C151.891 38.8333 152.611 38.68 153.424 38.68C154.371 38.68 155.191 38.8933 155.884 39.32C156.591 39.7467 157.137 40.3333 157.524 41.08C157.924 41.8133 158.137 42.6533 158.164 43.6L157.624 42.42V34.9H158.684V49.5H157.844V44.84H158.244C158.217 45.84 157.997 46.72 157.584 47.48C157.171 48.2267 156.604 48.8067 155.884 49.22C155.177 49.6333 154.364 49.84 153.444 49.84ZM153.544 48.88C154.357 48.88 155.071 48.7 155.684 48.34C156.311 47.98 156.797 47.4933 157.144 46.88C157.504 46.2533 157.684 45.54 157.684 44.74V43.7C157.684 42.94 157.504 42.2533 157.144 41.64C156.797 41.0267 156.311 40.54 155.684 40.18C155.071 39.82 154.357 39.64 153.544 39.64C152.664 39.64 151.917 39.8533 151.304 40.28C150.691 40.7067 150.217 41.2733 149.884 41.98C149.564 42.6733 149.404 43.4333 149.404 44.26C149.404 45.1133 149.571 45.8933 149.904 46.6C150.237 47.2933 150.711 47.8467 151.324 48.26C151.951 48.6733 152.691 48.88 153.544 48.88Z" fill="#404040"/>
<g filter="url(#filter0_ddiiii_1011_1392)">
<rect x="200" y="19" width="321" height="48" rx="24" fill="#ECECEC"/>
</g>
<g filter="url(#filter1_ddddii_1011_1392)">
<circle cx="493.5" cy="43.5" r="17.5" fill="#ECECEC"/>
</g>
<path d="M499 49L496.1 46.1M497.667 42.3333C497.667 45.2789 495.279 47.6667 492.333 47.6667C489.388 47.6667 487 45.2789 487 42.3333C487 39.3878 489.388 37 492.333 37C495.279 37 497.667 39.3878 497.667 42.3333Z" stroke="#717171" stroke-width="1.6" stroke-linecap="round" stroke-linejoin="round"/>
<path d="M228.524 49.221C227.727 49.221 227.055 49.0953 226.509 48.844C225.963 48.584 225.547 48.2287 225.261 47.778C224.984 47.3187 224.845 46.803 224.845 46.231H225.833C225.833 46.595 225.92 46.9373 226.093 47.258C226.275 47.57 226.561 47.8257 226.951 48.025C227.35 48.2157 227.874 48.311 228.524 48.311C229.122 48.311 229.616 48.2243 230.006 48.051C230.405 47.8777 230.699 47.6437 230.89 47.349C231.089 47.0543 231.189 46.725 231.189 46.361C231.189 45.9017 231.007 45.5203 230.643 45.217C230.288 44.905 229.75 44.7187 229.031 44.658L227.939 44.554C227.124 44.4847 226.474 44.2333 225.989 43.8C225.512 43.358 225.274 42.7773 225.274 42.058C225.274 41.512 225.404 41.031 225.664 40.615C225.924 40.199 226.292 39.8697 226.769 39.627C227.254 39.3843 227.835 39.263 228.511 39.263C229.196 39.263 229.781 39.3887 230.266 39.64C230.76 39.8827 231.137 40.2207 231.397 40.654C231.657 41.0873 231.787 41.59 231.787 42.162H230.799C230.799 41.8153 230.721 41.4903 230.565 41.187C230.409 40.8837 230.162 40.641 229.824 40.459C229.486 40.2683 229.048 40.173 228.511 40.173C228 40.173 227.575 40.2597 227.237 40.433C226.908 40.6063 226.661 40.836 226.496 41.122C226.34 41.408 226.262 41.72 226.262 42.058C226.262 42.4827 226.414 42.8423 226.717 43.137C227.02 43.4317 227.458 43.6007 228.03 43.644L229.122 43.748C229.763 43.8 230.309 43.943 230.76 44.177C231.219 44.4023 231.57 44.7013 231.813 45.074C232.056 45.438 232.177 45.867 232.177 46.361C232.177 46.9157 232.025 47.4097 231.722 47.843C231.427 48.2763 231.007 48.6143 230.461 48.857C229.915 49.0997 229.269 49.221 228.524 49.221ZM237.198 49.221C236.609 49.221 236.098 49.1213 235.664 48.922C235.231 48.714 234.876 48.441 234.598 48.103C234.321 47.7563 234.113 47.3707 233.974 46.946C233.844 46.5213 233.779 46.0837 233.779 45.633V45.451C233.779 45.009 233.844 44.5757 233.974 44.151C234.113 43.7263 234.321 43.345 234.598 43.007C234.876 42.669 235.222 42.4003 235.638 42.201C236.063 41.993 236.557 41.889 237.12 41.889C237.84 41.889 238.438 42.0493 238.914 42.37C239.4 42.6907 239.764 43.1023 240.006 43.605C240.249 44.099 240.37 44.632 240.37 45.204V45.711H234.221V44.957H239.694L239.447 45.334C239.447 44.8227 239.356 44.3763 239.174 43.995C239.001 43.605 238.741 43.3017 238.394 43.085C238.056 42.8597 237.632 42.747 237.12 42.747C236.583 42.747 236.137 42.8727 235.781 43.124C235.426 43.3753 235.157 43.709 234.975 44.125C234.802 44.541 234.715 45.0133 234.715 45.542C234.715 46.062 234.802 46.5387 234.975 46.972C235.157 47.3967 235.43 47.7347 235.794 47.986C236.167 48.2373 236.635 48.363 237.198 48.363C237.796 48.363 238.282 48.2287 238.654 47.96C239.027 47.6827 239.257 47.3577 239.343 46.985H240.253C240.167 47.4443 239.985 47.843 239.707 48.181C239.43 48.5103 239.079 48.766 238.654 48.948C238.23 49.13 237.744 49.221 237.198 49.221ZM246.433 49V46.933H246.277V44.489C246.277 43.9777 246.143 43.5877 245.874 43.319C245.606 43.0417 245.19 42.903 244.626 42.903C244.366 42.903 244.102 42.9073 243.833 42.916C243.573 42.9247 243.322 42.9377 243.079 42.955C242.845 42.9637 242.637 42.9767 242.455 42.994V42.136C242.646 42.1187 242.841 42.1013 243.04 42.084C243.24 42.0667 243.443 42.058 243.651 42.058C243.868 42.0493 244.076 42.045 244.275 42.045C244.977 42.045 245.541 42.1317 245.965 42.305C246.399 42.4783 246.715 42.7513 246.914 43.124C247.114 43.488 247.213 43.9733 247.213 44.58V49H246.433ZM244.106 49.182C243.621 49.182 243.192 49.0953 242.819 48.922C242.447 48.7487 242.156 48.4973 241.948 48.168C241.749 47.8387 241.649 47.44 241.649 46.972C241.649 46.5127 241.753 46.1227 241.961 45.802C242.178 45.4813 242.486 45.2387 242.884 45.074C243.292 44.9007 243.781 44.814 244.353 44.814H246.368V45.555H244.288C243.742 45.555 243.322 45.6893 243.027 45.958C242.741 46.218 242.598 46.5603 242.598 46.985C242.598 47.4183 242.75 47.765 243.053 48.025C243.357 48.2763 243.768 48.402 244.288 48.402C244.609 48.402 244.917 48.3457 245.211 48.233C245.506 48.1117 245.753 47.9123 245.952 47.635C246.152 47.349 246.26 46.959 246.277 46.465L246.563 46.868C246.529 47.3793 246.407 47.8083 246.199 48.155C245.991 48.493 245.71 48.7487 245.354 48.922C244.999 49.0953 244.583 49.182 244.106 49.182ZM249.649 49V42.123H250.429V44.996H250.351C250.351 43.9907 250.572 43.2497 251.014 42.773C251.456 42.2877 252.149 42.045 253.094 42.045H253.315V42.929H252.912C252.166 42.929 251.599 43.124 251.209 43.514C250.819 43.8953 250.624 44.4587 250.624 45.204V49H249.649ZM257.702 49.221C257.121 49.221 256.614 49.1213 256.181 48.922C255.756 48.714 255.401 48.4367 255.115 48.09C254.829 47.7347 254.612 47.3447 254.465 46.92C254.326 46.4953 254.257 46.0663 254.257 45.633V45.451C254.257 45.009 254.326 44.58 254.465 44.164C254.612 43.7393 254.829 43.358 255.115 43.02C255.401 42.6733 255.756 42.4003 256.181 42.201C256.614 41.993 257.113 41.889 257.676 41.889C258.248 41.889 258.755 41.993 259.197 42.201C259.648 42.409 260.012 42.7037 260.289 43.085C260.566 43.4663 260.731 43.917 260.783 44.437H259.847C259.769 43.9603 259.544 43.566 259.171 43.254C258.807 42.9333 258.309 42.773 257.676 42.773C257.13 42.773 256.675 42.8987 256.311 43.15C255.956 43.3927 255.687 43.7263 255.505 44.151C255.323 44.567 255.232 45.0307 255.232 45.542C255.232 46.0447 255.323 46.5127 255.505 46.946C255.687 47.3707 255.96 47.713 256.324 47.973C256.688 48.2243 257.147 48.35 257.702 48.35C258.127 48.35 258.495 48.2763 258.807 48.129C259.128 47.973 259.383 47.765 259.574 47.505C259.773 47.245 259.89 46.959 259.925 46.647H260.861C260.826 47.167 260.662 47.622 260.367 48.012C260.081 48.3933 259.708 48.6923 259.249 48.909C258.79 49.117 258.274 49.221 257.702 49.221ZM262.649 49V39.51H263.624V44.879L263.338 45.1C263.338 44.4587 263.429 43.8997 263.611 43.423C263.801 42.9463 264.083 42.578 264.456 42.318C264.837 42.0493 265.314 41.915 265.886 41.915H265.938C266.77 41.915 267.398 42.188 267.823 42.734C268.256 43.28 268.473 44.0383 268.473 45.009V49H267.511V44.801C267.511 44.1857 267.342 43.7003 267.004 43.345C266.666 42.9897 266.211 42.812 265.639 42.812C265.023 42.812 264.534 43.0113 264.17 43.41C263.806 43.8 263.624 44.3157 263.624 44.957V49H262.649ZM274.156 49V39.51H275.144V49H274.156ZM274.884 44.619V43.722L279.083 43.709V44.606L274.884 44.619ZM274.884 40.394V39.51H279.33V40.394H274.884ZM281.459 49V42.123H282.421V49H281.459ZM280.354 42.903V42.123H282.421V42.903H280.354ZM281.667 40.849C281.433 40.849 281.255 40.7883 281.134 40.667C281.021 40.537 280.965 40.3767 280.965 40.186C280.965 39.9953 281.021 39.8393 281.134 39.718C281.255 39.588 281.433 39.523 281.667 39.523C281.901 39.523 282.074 39.588 282.187 39.718C282.3 39.8393 282.356 39.9953 282.356 40.186C282.356 40.3767 282.3 40.537 282.187 40.667C282.074 40.7883 281.901 40.849 281.667 40.849ZM285.045 49V39.51H286.02V49H285.045ZM284.044 40.303V39.51H286.02V40.303H284.044ZM291.043 49.078C290.566 49.078 290.155 49.0087 289.808 48.87C289.461 48.7313 289.193 48.4973 289.002 48.168C288.811 47.83 288.716 47.3793 288.716 46.816V39.952H289.652V46.959C289.652 47.3577 289.76 47.6653 289.977 47.882C290.194 48.09 290.501 48.194 290.9 48.194H292.135V49.078H291.043ZM287.481 42.864V42.123H292.135V42.864H287.481ZM296.828 49.221C296.239 49.221 295.728 49.1213 295.294 48.922C294.861 48.714 294.506 48.441 294.228 48.103C293.951 47.7563 293.743 47.3707 293.604 46.946C293.474 46.5213 293.409 46.0837 293.409 45.633V45.451C293.409 45.009 293.474 44.5757 293.604 44.151C293.743 43.7263 293.951 43.345 294.228 43.007C294.506 42.669 294.852 42.4003 295.268 42.201C295.693 41.993 296.187 41.889 296.75 41.889C297.47 41.889 298.068 42.0493 298.544 42.37C299.03 42.6907 299.394 43.1023 299.636 43.605C299.879 44.099 300 44.632 300 45.204V45.711H293.851V44.957H299.324L299.077 45.334C299.077 44.8227 298.986 44.3763 298.804 43.995C298.631 43.605 298.371 43.3017 298.024 43.085C297.686 42.8597 297.262 42.747 296.75 42.747C296.213 42.747 295.767 42.8727 295.411 43.124C295.056 43.3753 294.787 43.709 294.605 44.125C294.432 44.541 294.345 45.0133 294.345 45.542C294.345 46.062 294.432 46.5387 294.605 46.972C294.787 47.3967 295.06 47.7347 295.424 47.986C295.797 48.2373 296.265 48.363 296.828 48.363C297.426 48.363 297.912 48.2287 298.284 47.96C298.657 47.6827 298.887 47.3577 298.973 46.985H299.883C299.797 47.4443 299.615 47.843 299.337 48.181C299.06 48.5103 298.709 48.766 298.284 48.948C297.86 49.13 297.374 49.221 296.828 49.221ZM301.877 49V42.123H302.657V44.996H302.579C302.579 43.9907 302.8 43.2497 303.242 42.773C303.684 42.2877 304.378 42.045 305.322 42.045H305.543V42.929H305.14C304.395 42.929 303.827 43.124 303.437 43.514C303.047 43.8953 302.852 44.4587 302.852 45.204V49H301.877ZM309.291 49.195C308.407 49.195 307.727 49.0043 307.25 48.623C306.774 48.233 306.531 47.713 306.522 47.063H307.432C307.45 47.3923 307.597 47.6913 307.874 47.96C308.16 48.2287 308.633 48.363 309.291 48.363C309.907 48.363 310.366 48.2373 310.669 47.986C310.981 47.726 311.137 47.414 311.137 47.05C311.137 46.712 311.007 46.452 310.747 46.27C310.496 46.0793 310.128 45.958 309.642 45.906L308.862 45.828C308.238 45.7587 307.731 45.568 307.341 45.256C306.96 44.9353 306.769 44.4977 306.769 43.943C306.769 43.5357 306.873 43.1803 307.081 42.877C307.289 42.5737 307.58 42.3397 307.952 42.175C308.334 42.0017 308.78 41.915 309.291 41.915C310.028 41.915 310.626 42.0883 311.085 42.435C311.553 42.7817 311.792 43.2757 311.8 43.917H310.89C310.882 43.5877 310.743 43.3103 310.474 43.085C310.206 42.8597 309.811 42.747 309.291 42.747C308.754 42.747 308.351 42.864 308.082 43.098C307.822 43.332 307.692 43.618 307.692 43.956C307.692 44.242 307.792 44.4803 307.991 44.671C308.191 44.853 308.503 44.9657 308.927 45.009L309.707 45.087C310.401 45.165 310.964 45.3643 311.397 45.685C311.839 46.0057 312.06 46.465 312.06 47.063C312.06 47.4703 311.943 47.8387 311.709 48.168C311.484 48.4887 311.163 48.74 310.747 48.922C310.331 49.104 309.846 49.195 309.291 49.195Z" fill="url(#paint0_radial_1011_1392)"/>
<path d="M562.44 49.5V34.9H563.52V49.5H562.44ZM563.18 49.5V48.52H570.7V49.5H563.18ZM563.18 42.58V41.58H569.98V42.58H563.18ZM563.18 35.88V34.9H570.46V35.88H563.18ZM572.829 49.5L576.849 43.96L576.929 44.38L573.109 39H574.289L577.329 43.3H577.569L580.469 39H581.589L578.049 44.18L577.949 43.78L582.209 49.5H581.029L577.569 44.82H577.309L573.949 49.5H572.829ZM584.873 53.5V39H585.713V43.48L585.393 43.62C585.406 42.6333 585.613 41.7733 586.013 41.04C586.426 40.2933 586.986 39.7133 587.693 39.3C588.399 38.8867 589.219 38.68 590.153 38.68C590.953 38.68 591.666 38.8333 592.293 39.14C592.919 39.4333 593.446 39.84 593.873 40.36C594.313 40.8667 594.646 41.4467 594.873 42.1C595.099 42.7533 595.213 43.44 595.213 44.16V44.36C595.213 45.04 595.099 45.7067 594.873 46.36C594.646 47 594.313 47.5867 593.873 48.12C593.446 48.64 592.919 49.06 592.293 49.38C591.666 49.6867 590.953 49.84 590.153 49.84C589.219 49.84 588.393 49.6267 587.673 49.2C586.966 48.7733 586.413 48.1867 586.013 47.44C585.613 46.68 585.399 45.82 585.373 44.86L585.933 46.26V53.5H584.873ZM590.013 48.88C590.893 48.88 591.639 48.6667 592.253 48.24C592.879 47.8 593.353 47.2333 593.673 46.54C593.993 45.8333 594.153 45.0733 594.153 44.26C594.153 43.4067 593.986 42.6333 593.653 41.94C593.333 41.2333 592.859 40.6733 592.233 40.26C591.619 39.8467 590.879 39.64 590.013 39.64C589.213 39.64 588.499 39.82 587.873 40.18C587.259 40.5267 586.773 41.0133 586.413 41.64C586.053 42.2533 585.873 42.96 585.873 43.76V44.78C585.873 45.54 586.046 46.2333 586.393 46.86C586.753 47.4733 587.239 47.9667 587.853 48.34C588.479 48.7 589.199 48.88 590.013 48.88ZM598.507 49.5V34.9H599.567V49.5H598.507ZM596.927 35.8V34.9H599.567V35.8H596.927ZM608.241 49.84C607.361 49.84 606.581 49.68 605.901 49.36C605.221 49.04 604.648 48.62 604.181 48.1C603.728 47.58 603.381 47 603.141 46.36C602.914 45.7067 602.801 45.04 602.801 44.36V44.16C602.801 43.4667 602.921 42.7933 603.161 42.14C603.401 41.4867 603.754 40.9 604.221 40.38C604.688 39.86 605.254 39.4467 605.921 39.14C606.601 38.8333 607.374 38.68 608.241 38.68C609.094 38.68 609.854 38.8333 610.521 39.14C611.201 39.4467 611.774 39.86 612.241 40.38C612.708 40.9 613.061 41.4867 613.301 42.14C613.554 42.7933 613.681 43.4667 613.681 44.16V44.36C613.681 45.04 613.561 45.7067 613.321 46.36C613.081 47 612.728 47.58 612.261 48.1C611.808 48.62 611.241 49.04 610.561 49.36C609.894 49.68 609.121 49.84 608.241 49.84ZM608.241 48.86C609.174 48.86 609.961 48.6467 610.601 48.22C611.254 47.7933 611.748 47.2333 612.081 46.54C612.428 45.8333 612.601 45.0733 612.601 44.26C612.601 43.42 612.428 42.6533 612.081 41.96C611.734 41.2533 611.234 40.6933 610.581 40.28C609.941 39.8533 609.161 39.64 608.241 39.64C607.334 39.64 606.548 39.8533 605.881 40.28C605.228 40.6933 604.728 41.2533 604.381 41.96C604.034 42.6533 603.861 43.42 603.861 44.26C603.861 45.0733 604.028 45.8333 604.361 46.54C604.708 47.2333 605.208 47.7933 605.861 48.22C606.514 48.6467 607.308 48.86 608.241 48.86ZM616.904 49.5V39H617.744V43.44H617.584C617.584 41.92 617.924 40.7867 618.604 40.04C619.284 39.2933 620.384 38.92 621.904 38.92H622.264V39.88H621.704C620.464 39.88 619.53 40.2 618.904 40.84C618.277 41.4667 617.964 42.3933 617.964 43.62V49.5H616.904ZM628.996 49.84C628.103 49.84 627.33 49.6867 626.676 49.38C626.023 49.06 625.49 48.64 625.076 48.12C624.663 47.5867 624.35 46.9933 624.136 46.34C623.936 45.6733 623.836 45 623.836 44.32V44.12C623.836 43.4267 623.936 42.76 624.136 42.12C624.35 41.48 624.663 40.9 625.076 40.38C625.503 39.8467 626.03 39.4333 626.656 39.14C627.296 38.8333 628.036 38.68 628.876 38.68C629.943 38.68 630.836 38.92 631.556 39.4C632.29 39.8667 632.843 40.48 633.216 41.24C633.59 42 633.776 42.8 633.776 43.64V44.36H624.336V43.48H633.076L632.756 43.88C632.756 43.0667 632.603 42.34 632.296 41.7C632.003 41.06 631.563 40.56 630.976 40.2C630.403 39.8267 629.703 39.64 628.876 39.64C627.983 39.64 627.236 39.8467 626.636 40.26C626.036 40.6733 625.583 41.2267 625.276 41.92C624.983 42.6133 624.836 43.38 624.836 44.22C624.836 45.06 624.983 45.8333 625.276 46.54C625.583 47.2333 626.043 47.8 626.656 48.24C627.27 48.6667 628.05 48.88 628.996 48.88C630.01 48.88 630.823 48.6467 631.436 48.18C632.063 47.7133 632.443 47.1533 632.576 46.5H633.616C633.47 47.1533 633.19 47.7333 632.776 48.24C632.363 48.7467 631.836 49.14 631.196 49.42C630.57 49.7 629.836 49.84 628.996 49.84ZM636.606 49.5V47.96H638.006V49.5H636.606ZM636.606 41.84V40.3H638.006V41.84H636.606Z" fill="#404040"/>
<path d="M707.73 49L704.094 35.86H705.498L708.792 48.118L708.162 47.758H709.908L709.224 48.118L711.906 36.436H713.202L710.25 49H707.73ZM715.632 49L712.392 36.436H713.724L716.712 48.118L716.046 47.758H717.828L717.144 48.118L720.114 35.86H721.482L718.152 49H715.632ZM727.417 49.306C726.601 49.306 725.893 49.168 725.293 48.892C724.693 48.604 724.201 48.226 723.817 47.758C723.433 47.278 723.145 46.744 722.953 46.156C722.773 45.568 722.683 44.962 722.683 44.338V44.086C722.683 43.474 722.773 42.874 722.953 42.286C723.145 41.698 723.433 41.17 723.817 40.702C724.201 40.234 724.681 39.862 725.257 39.586C725.845 39.298 726.529 39.154 727.309 39.154C728.305 39.154 729.133 39.376 729.793 39.82C730.465 40.264 730.969 40.834 731.305 41.53C731.641 42.214 731.809 42.952 731.809 43.744V44.446H723.295V43.402H730.873L730.531 43.924C730.531 43.216 730.405 42.598 730.153 42.07C729.913 41.53 729.553 41.11 729.073 40.81C728.605 40.498 728.017 40.342 727.309 40.342C726.565 40.342 725.947 40.516 725.455 40.864C724.963 41.212 724.591 41.674 724.339 42.25C724.099 42.826 723.979 43.48 723.979 44.212C723.979 44.932 724.099 45.592 724.339 46.192C724.591 46.78 724.969 47.248 725.473 47.596C725.989 47.944 726.637 48.118 727.417 48.118C728.245 48.118 728.917 47.932 729.433 47.56C729.949 47.176 730.267 46.726 730.387 46.21H731.647C731.527 46.846 731.275 47.398 730.891 47.866C730.507 48.322 730.021 48.676 729.433 48.928C728.845 49.18 728.173 49.306 727.417 49.306ZM739.322 49.306C738.482 49.306 737.744 49.12 737.108 48.748C736.484 48.376 735.992 47.854 735.632 47.182C735.284 46.51 735.098 45.736 735.074 44.86H735.488V49H734.408V35.86H735.758V42.43L735.236 43.636C735.26 42.676 735.452 41.866 735.812 41.206C736.184 40.534 736.676 40.024 737.288 39.676C737.912 39.328 738.62 39.154 739.412 39.154C740.108 39.154 740.738 39.286 741.302 39.55C741.866 39.814 742.346 40.174 742.742 40.63C743.15 41.086 743.456 41.614 743.66 42.214C743.876 42.802 743.984 43.426 743.984 44.086V44.338C743.984 44.986 743.876 45.61 743.66 46.21C743.444 46.798 743.132 47.326 742.724 47.794C742.328 48.262 741.842 48.634 741.266 48.91C740.69 49.174 740.042 49.306 739.322 49.306ZM739.178 48.118C739.898 48.118 740.516 47.944 741.032 47.596C741.548 47.248 741.944 46.78 742.22 46.192C742.496 45.604 742.634 44.944 742.634 44.212C742.634 43.468 742.49 42.808 742.202 42.232C741.926 41.644 741.524 41.182 740.996 40.846C740.48 40.51 739.874 40.342 739.178 40.342C738.53 40.342 737.942 40.486 737.414 40.774C736.886 41.062 736.466 41.47 736.154 41.998C735.854 42.514 735.704 43.126 735.704 43.834V44.716C735.704 45.388 735.854 45.982 736.154 46.498C736.466 47.002 736.886 47.398 737.414 47.686C737.942 47.974 738.53 48.118 739.178 48.118ZM749.719 49.27C748.495 49.27 747.553 49.006 746.893 48.478C746.233 47.938 745.897 47.218 745.885 46.318H747.145C747.169 46.774 747.373 47.188 747.757 47.56C748.153 47.932 748.807 48.118 749.719 48.118C750.571 48.118 751.207 47.944 751.627 47.596C752.059 47.236 752.275 46.804 752.275 46.3C752.275 45.832 752.095 45.472 751.735 45.22C751.387 44.956 750.877 44.788 750.205 44.716L749.125 44.608C748.261 44.512 747.559 44.248 747.019 43.816C746.491 43.372 746.227 42.766 746.227 41.998C746.227 41.434 746.371 40.942 746.659 40.522C746.947 40.102 747.349 39.778 747.865 39.55C748.393 39.31 749.011 39.19 749.719 39.19C750.739 39.19 751.567 39.43 752.203 39.91C752.851 40.39 753.181 41.074 753.193 41.962H751.933C751.921 41.506 751.729 41.122 751.357 40.81C750.985 40.498 750.439 40.342 749.719 40.342C748.975 40.342 748.417 40.504 748.045 40.828C747.685 41.152 747.505 41.548 747.505 42.016C747.505 42.412 747.643 42.742 747.919 43.006C748.195 43.258 748.627 43.414 749.215 43.474L750.295 43.582C751.255 43.69 752.035 43.966 752.635 44.41C753.247 44.854 753.553 45.49 753.553 46.318C753.553 46.882 753.391 47.392 753.067 47.848C752.755 48.292 752.311 48.64 751.735 48.892C751.159 49.144 750.487 49.27 749.719 49.27ZM756.744 49V39.478H758.076V49H756.744ZM755.214 40.558V39.478H758.076V40.558H755.214ZM757.032 37.714C756.708 37.714 756.462 37.63 756.294 37.462C756.138 37.282 756.06 37.06 756.06 36.796C756.06 36.532 756.138 36.316 756.294 36.148C756.462 35.968 756.708 35.878 757.032 35.878C757.356 35.878 757.596 35.968 757.752 36.148C757.908 36.316 757.986 36.532 757.986 36.796C757.986 37.06 757.908 37.282 757.752 37.462C757.596 37.63 757.356 37.714 757.032 37.714ZM765.075 49.108C764.415 49.108 763.845 49.012 763.365 48.82C762.885 48.628 762.513 48.304 762.249 47.848C761.985 47.38 761.853 46.756 761.853 45.976V36.472H763.149V46.174C763.149 46.726 763.299 47.152 763.599 47.452C763.899 47.74 764.325 47.884 764.877 47.884H766.587V49.108H765.075ZM760.143 40.504V39.478H766.587V40.504H760.143ZM773.085 49.306C772.269 49.306 771.561 49.168 770.961 48.892C770.361 48.604 769.869 48.226 769.485 47.758C769.101 47.278 768.813 46.744 768.621 46.156C768.441 45.568 768.351 44.962 768.351 44.338V44.086C768.351 43.474 768.441 42.874 768.621 42.286C768.813 41.698 769.101 41.17 769.485 40.702C769.869 40.234 770.349 39.862 770.925 39.586C771.513 39.298 772.197 39.154 772.977 39.154C773.973 39.154 774.801 39.376 775.461 39.82C776.133 40.264 776.637 40.834 776.973 41.53C777.309 42.214 777.477 42.952 777.477 43.744V44.446H768.963V43.402H776.541L776.199 43.924C776.199 43.216 776.073 42.598 775.821 42.07C775.581 41.53 775.221 41.11 774.741 40.81C774.273 40.498 773.685 40.342 772.977 40.342C772.233 40.342 771.615 40.516 771.123 40.864C770.631 41.212 770.259 41.674 770.007 42.25C769.767 42.826 769.647 43.48 769.647 44.212C769.647 44.932 769.767 45.592 770.007 46.192C770.259 46.78 770.637 47.248 771.141 47.596C771.657 47.944 772.305 48.118 773.085 48.118C773.913 48.118 774.585 47.932 775.101 47.56C775.617 47.176 775.935 46.726 776.055 46.21H777.315C777.195 46.846 776.943 47.398 776.559 47.866C776.175 48.322 775.689 48.676 775.101 48.928C774.513 49.18 773.841 49.306 773.085 49.306ZM783.082 49.27C781.858 49.27 780.916 49.006 780.256 48.478C779.596 47.938 779.26 47.218 779.248 46.318H780.508C780.532 46.774 780.736 47.188 781.12 47.56C781.516 47.932 782.17 48.118 783.082 48.118C783.934 48.118 784.57 47.944 784.99 47.596C785.422 47.236 785.638 46.804 785.638 46.3C785.638 45.832 785.458 45.472 785.098 45.22C784.75 44.956 784.24 44.788 783.568 44.716L782.488 44.608C781.624 44.512 780.922 44.248 780.382 43.816C779.854 43.372 779.59 42.766 779.59 41.998C779.59 41.434 779.734 40.942 780.022 40.522C780.31 40.102 780.712 39.778 781.228 39.55C781.756 39.31 782.374 39.19 783.082 39.19C784.102 39.19 784.93 39.43 785.566 39.91C786.214 40.39 786.544 41.074 786.556 41.962H785.296C785.284 41.506 785.092 41.122 784.72 40.81C784.348 40.498 783.802 40.342 783.082 40.342C782.338 40.342 781.78 40.504 781.408 40.828C781.048 41.152 780.868 41.548 780.868 42.016C780.868 42.412 781.006 42.742 781.282 43.006C781.558 43.258 781.99 43.414 782.578 43.474L783.658 43.582C784.618 43.69 785.398 43.966 785.998 44.41C786.61 44.854 786.916 45.49 786.916 46.318C786.916 46.882 786.754 47.392 786.43 47.848C786.118 48.292 785.674 48.64 785.098 48.892C784.522 49.144 783.85 49.27 783.082 49.27Z" fill="#717171"/>
<path d="M802.5 40.5L806.5 44.5L810.5 40.5" stroke="#717171" stroke-width="1.6" stroke-linecap="round" stroke-linejoin="round"/>
<path d="M861.664 49.306C860.464 49.306 859.468 49.078 858.676 48.622C857.884 48.166 857.29 47.53 856.894 46.714C856.498 45.886 856.3 44.938 856.3 43.87V35.86H857.668V44.032C857.668 44.836 857.812 45.538 858.1 46.138C858.4 46.738 858.844 47.206 859.432 47.542C860.032 47.878 860.776 48.046 861.664 48.046C862.54 48.046 863.272 47.884 863.86 47.56C864.448 47.224 864.892 46.756 865.192 46.156C865.492 45.544 865.642 44.836 865.642 44.032V35.86H867.01V43.87C867.01 44.938 866.812 45.886 866.416 46.714C866.02 47.53 865.426 48.166 864.634 48.622C863.854 49.078 862.864 49.306 861.664 49.306ZM871.059 49V39.478H872.391V49H871.059ZM869.529 40.558V39.478H872.391V40.558H869.529ZM871.347 37.714C871.023 37.714 870.777 37.63 870.609 37.462C870.453 37.282 870.375 37.06 870.375 36.796C870.375 36.532 870.453 36.316 870.609 36.148C870.777 35.968 871.023 35.878 871.347 35.878C871.671 35.878 871.911 35.968 872.067 36.148C872.223 36.316 872.301 36.532 872.301 36.796C872.301 37.06 872.223 37.282 872.067 37.462C871.911 37.63 871.671 37.714 871.347 37.714ZM888.127 49L882.565 43.096C882.049 42.532 881.635 42.04 881.323 41.62C881.023 41.2 880.807 40.798 880.675 40.414C880.543 40.018 880.477 39.592 880.477 39.136C880.477 38.392 880.615 37.768 880.891 37.264C881.179 36.76 881.629 36.382 882.241 36.13C882.853 35.866 883.645 35.734 884.617 35.734C885.037 35.734 885.487 35.752 885.967 35.788C886.447 35.824 886.897 35.866 887.317 35.914V37.102C887.053 37.078 886.735 37.054 886.363 37.03C886.003 36.994 885.643 36.97 885.283 36.958C884.935 36.934 884.629 36.922 884.365 36.922C883.429 36.922 882.763 37.114 882.367 37.498C881.971 37.882 881.773 38.434 881.773 39.154C881.773 39.73 881.905 40.252 882.169 40.72C882.433 41.176 882.847 41.704 883.411 42.304L889.711 49H888.127ZM883.501 49.306C882.637 49.306 881.869 49.144 881.197 48.82C880.525 48.484 879.997 48.028 879.613 47.452C879.229 46.864 879.037 46.198 879.037 45.454V45.238C879.037 44.374 879.277 43.612 879.757 42.952C880.249 42.28 880.855 41.746 881.575 41.35L882.259 42.304C881.683 42.592 881.215 43.012 880.855 43.564C880.507 44.104 880.333 44.698 880.333 45.346C880.333 45.958 880.477 46.474 880.765 46.894C881.065 47.302 881.455 47.614 881.935 47.83C882.415 48.046 882.937 48.154 883.501 48.154C884.401 48.154 885.163 47.902 885.787 47.398C886.411 46.882 886.885 46.138 887.209 45.166C887.533 44.182 887.695 42.982 887.695 41.566H888.901C888.901 42.754 888.787 43.828 888.559 44.788C888.331 45.736 887.989 46.546 887.533 47.218C887.077 47.89 886.507 48.406 885.823 48.766C885.151 49.126 884.377 49.306 883.501 49.306ZM885.463 41.764V40.684H890.017V41.764H885.463ZM901.9 49.306C900.7 49.306 899.704 49.078 898.912 48.622C898.12 48.166 897.526 47.53 897.13 46.714C896.734 45.886 896.536 44.938 896.536 43.87V35.86H897.904V44.032C897.904 44.836 898.048 45.538 898.336 46.138C898.636 46.738 899.08 47.206 899.668 47.542C900.268 47.878 901.012 48.046 901.9 48.046C902.776 48.046 903.508 47.884 904.096 47.56C904.684 47.224 905.128 46.756 905.428 46.156C905.728 45.544 905.878 44.836 905.878 44.032V35.86H907.246V43.87C907.246 44.938 907.048 45.886 906.652 46.714C906.256 47.53 905.662 48.166 904.87 48.622C904.09 49.078 903.1 49.306 901.9 49.306ZM909.621 49L913.149 43.978V44.338L909.837 39.478H911.313L913.833 43.222H914.085L916.479 39.478H917.865L914.751 44.194V43.852L918.459 49H916.983L914.067 44.95H913.833L911.007 49H909.621Z" fill="url(#paint1_radial_1011_1392)"/>
<path d="M933.5 40.5L937.5 44.5L941.5 40.5" stroke="url(#paint2_radial_1011_1392)" stroke-width="1.6" stroke-linecap="round" stroke-linejoin="round"/>
<path d="M1003.15 49.306C1001.97 49.306 1000.97 49.102 1000.13 48.694C999.298 48.274 998.62 47.728 998.092 47.056C997.576 46.384 997.198 45.658 996.958 44.878C996.718 44.086 996.598 43.318 996.598 42.574V42.232C996.598 41.428 996.718 40.63 996.958 39.838C997.21 39.034 997.594 38.308 998.11 37.66C998.638 37.012 999.31 36.496 1000.13 36.112C1000.94 35.716 1001.91 35.518 1003.02 35.518C1004.15 35.518 1005.12 35.716 1005.94 36.112C1006.77 36.508 1007.43 37.066 1007.92 37.786C1008.41 38.494 1008.71 39.334 1008.82 40.306H1007.43C1007.34 39.526 1007.09 38.878 1006.68 38.362C1006.27 37.834 1005.75 37.438 1005.11 37.174C1004.49 36.91 1003.79 36.778 1003.02 36.778C1002.2 36.778 1001.46 36.928 1000.83 37.228C1000.2 37.516 999.682 37.924 999.262 38.452C998.842 38.968 998.524 39.568 998.308 40.252C998.092 40.924 997.984 41.644 997.984 42.412C997.984 43.144 998.086 43.846 998.29 44.518C998.506 45.19 998.83 45.796 999.262 46.336C999.694 46.864 1000.23 47.284 1000.88 47.596C1001.53 47.896 1002.29 48.046 1003.15 48.046C1004.35 48.046 1005.36 47.746 1006.17 47.146C1006.99 46.534 1007.49 45.658 1007.69 44.518H1009.07C1008.94 45.418 1008.63 46.234 1008.14 46.966C1007.64 47.686 1006.98 48.256 1006.14 48.676C1005.31 49.096 1004.31 49.306 1003.15 49.306ZM1017.33 49V46.138H1017.12V42.754C1017.12 42.046 1016.93 41.506 1016.56 41.134C1016.19 40.75 1015.61 40.558 1014.83 40.558C1014.47 40.558 1014.11 40.564 1013.73 40.576C1013.37 40.588 1013.03 40.606 1012.69 40.63C1012.37 40.642 1012.08 40.66 1011.83 40.684V39.496C1012.09 39.472 1012.36 39.448 1012.64 39.424C1012.91 39.4 1013.19 39.388 1013.48 39.388C1013.78 39.376 1014.07 39.37 1014.35 39.37C1015.32 39.37 1016.1 39.49 1016.69 39.73C1017.29 39.97 1017.72 40.348 1018 40.864C1018.28 41.368 1018.41 42.04 1018.41 42.88V49H1017.33ZM1014.11 49.252C1013.44 49.252 1012.85 49.132 1012.33 48.892C1011.81 48.652 1011.41 48.304 1011.12 47.848C1010.85 47.392 1010.71 46.84 1010.71 46.192C1010.71 45.556 1010.85 45.016 1011.14 44.572C1011.44 44.128 1011.87 43.792 1012.42 43.564C1012.98 43.324 1013.66 43.204 1014.45 43.204H1017.24V44.23H1014.36C1013.61 44.23 1013.03 44.416 1012.62 44.788C1012.22 45.148 1012.02 45.622 1012.02 46.21C1012.02 46.81 1012.23 47.29 1012.65 47.65C1013.07 47.998 1013.64 48.172 1014.36 48.172C1014.81 48.172 1015.23 48.094 1015.64 47.938C1016.05 47.77 1016.39 47.494 1016.67 47.11C1016.94 46.714 1017.09 46.174 1017.12 45.49L1017.51 46.048C1017.47 46.756 1017.3 47.35 1017.01 47.83C1016.72 48.298 1016.33 48.652 1015.84 48.892C1015.35 49.132 1014.77 49.252 1014.11 49.252ZM1024.79 49.27C1023.57 49.27 1022.63 49.006 1021.97 48.478C1021.31 47.938 1020.97 47.218 1020.96 46.318H1022.22C1022.24 46.774 1022.45 47.188 1022.83 47.56C1023.23 47.932 1023.88 48.118 1024.79 48.118C1025.64 48.118 1026.28 47.944 1026.7 47.596C1027.13 47.236 1027.35 46.804 1027.35 46.3C1027.35 45.832 1027.17 45.472 1026.81 45.22C1026.46 44.956 1025.95 44.788 1025.28 44.716L1024.2 44.608C1023.33 44.512 1022.63 44.248 1022.09 43.816C1021.56 43.372 1021.3 42.766 1021.3 41.998C1021.3 41.434 1021.44 40.942 1021.73 40.522C1022.02 40.102 1022.42 39.778 1022.94 39.55C1023.47 39.31 1024.08 39.19 1024.79 39.19C1025.81 39.19 1026.64 39.43 1027.28 39.91C1027.92 40.39 1028.25 41.074 1028.27 41.962H1027.01C1026.99 41.506 1026.8 41.122 1026.43 40.81C1026.06 40.498 1025.51 40.342 1024.79 40.342C1024.05 40.342 1023.49 40.504 1023.12 40.828C1022.76 41.152 1022.58 41.548 1022.58 42.016C1022.58 42.412 1022.72 42.742 1022.99 43.006C1023.27 43.258 1023.7 43.414 1024.29 43.474L1025.37 43.582C1026.33 43.69 1027.11 43.966 1027.71 44.41C1028.32 44.854 1028.63 45.49 1028.63 46.318C1028.63 46.882 1028.46 47.392 1028.14 47.848C1027.83 48.292 1027.38 48.64 1026.81 48.892C1026.23 49.144 1025.56 49.27 1024.79 49.27ZM1035.29 49.306C1034.47 49.306 1033.77 49.168 1033.17 48.892C1032.57 48.604 1032.07 48.226 1031.69 47.758C1031.31 47.278 1031.02 46.744 1030.83 46.156C1030.65 45.568 1030.56 44.962 1030.56 44.338V44.086C1030.56 43.474 1030.65 42.874 1030.83 42.286C1031.02 41.698 1031.31 41.17 1031.69 40.702C1032.07 40.234 1032.55 39.862 1033.13 39.586C1033.72 39.298 1034.4 39.154 1035.18 39.154C1036.18 39.154 1037.01 39.376 1037.67 39.82C1038.34 40.264 1038.84 40.834 1039.18 41.53C1039.51 42.214 1039.68 42.952 1039.68 43.744V44.446H1031.17V43.402H1038.75L1038.4 43.924C1038.4 43.216 1038.28 42.598 1038.03 42.07C1037.79 41.53 1037.43 41.11 1036.95 40.81C1036.48 40.498 1035.89 40.342 1035.18 40.342C1034.44 40.342 1033.82 40.516 1033.33 40.864C1032.84 41.212 1032.46 41.674 1032.21 42.25C1031.97 42.826 1031.85 43.48 1031.85 44.212C1031.85 44.932 1031.97 45.592 1032.21 46.192C1032.46 46.78 1032.84 47.248 1033.35 47.596C1033.86 47.944 1034.51 48.118 1035.29 48.118C1036.12 48.118 1036.79 47.932 1037.31 47.56C1037.82 47.176 1038.14 46.726 1038.26 46.21H1039.52C1039.4 46.846 1039.15 47.398 1038.76 47.866C1038.38 48.322 1037.89 48.676 1037.31 48.928C1036.72 49.18 1036.05 49.306 1035.29 49.306ZM1051 49.306C1049.9 49.306 1048.97 49.132 1048.21 48.784C1047.45 48.424 1046.88 47.932 1046.48 47.308C1046.1 46.672 1045.91 45.958 1045.91 45.166H1047.27C1047.27 45.67 1047.39 46.144 1047.63 46.588C1047.89 47.02 1048.28 47.374 1048.82 47.65C1049.37 47.914 1050.1 48.046 1051 48.046C1051.83 48.046 1052.51 47.926 1053.05 47.686C1053.6 47.446 1054.01 47.122 1054.28 46.714C1054.55 46.306 1054.69 45.85 1054.69 45.346C1054.69 44.71 1054.44 44.182 1053.93 43.762C1053.44 43.33 1052.7 43.072 1051.7 42.988L1050.19 42.844C1049.06 42.748 1048.16 42.4 1047.49 41.8C1046.83 41.188 1046.5 40.384 1046.5 39.388C1046.5 38.632 1046.68 37.966 1047.04 37.39C1047.4 36.814 1047.91 36.358 1048.57 36.022C1049.24 35.686 1050.05 35.518 1050.98 35.518C1051.93 35.518 1052.74 35.692 1053.41 36.04C1054.1 36.376 1054.62 36.844 1054.98 37.444C1055.34 38.044 1055.52 38.74 1055.52 39.532H1054.15C1054.15 39.052 1054.04 38.602 1053.83 38.182C1053.61 37.762 1053.27 37.426 1052.8 37.174C1052.33 36.91 1051.73 36.778 1050.98 36.778C1050.27 36.778 1049.69 36.898 1049.22 37.138C1048.76 37.378 1048.42 37.696 1048.19 38.092C1047.98 38.488 1047.87 38.92 1047.87 39.388C1047.87 39.976 1048.08 40.474 1048.5 40.882C1048.92 41.29 1049.52 41.524 1050.32 41.584L1051.83 41.728C1052.72 41.8 1053.47 41.998 1054.1 42.322C1054.73 42.634 1055.22 43.048 1055.55 43.564C1055.89 44.068 1056.06 44.662 1056.06 45.346C1056.06 46.114 1055.85 46.798 1055.43 47.398C1055.02 47.998 1054.44 48.466 1053.68 48.802C1052.93 49.138 1052.03 49.306 1051 49.306ZM1062.49 49.108C1061.83 49.108 1061.26 49.012 1060.78 48.82C1060.3 48.628 1059.93 48.304 1059.66 47.848C1059.4 47.38 1059.27 46.756 1059.27 45.976V36.472H1060.56V46.174C1060.56 46.726 1060.71 47.152 1061.01 47.452C1061.31 47.74 1061.74 47.884 1062.29 47.884H1064V49.108H1062.49ZM1057.56 40.504V39.478H1064V40.504H1057.56ZM1069.9 49.27C1068.76 49.27 1067.89 48.904 1067.29 48.172C1066.69 47.428 1066.39 46.396 1066.39 45.076V39.46H1067.73V45.346C1067.73 46.174 1067.94 46.834 1068.37 47.326C1068.82 47.806 1069.43 48.046 1070.21 48.046C1071.03 48.046 1071.67 47.788 1072.15 47.272C1072.65 46.756 1072.89 46.066 1072.89 45.202V39.46H1074.24V49H1073.16V45.022H1073.38C1073.38 45.91 1073.25 46.672 1073 47.308C1072.75 47.932 1072.37 48.418 1071.87 48.766C1071.36 49.102 1070.73 49.27 1069.96 49.27H1069.9ZM1081.68 49.306C1080.98 49.306 1080.35 49.18 1079.77 48.928C1079.21 48.664 1078.71 48.304 1078.29 47.848C1077.89 47.38 1077.57 46.852 1077.34 46.264C1077.12 45.664 1077.02 45.028 1077.02 44.356V44.104C1077.02 43.456 1077.12 42.838 1077.34 42.25C1077.56 41.65 1077.86 41.122 1078.26 40.666C1078.67 40.198 1079.15 39.832 1079.72 39.568C1080.29 39.292 1080.93 39.154 1081.64 39.154C1082.45 39.154 1083.15 39.328 1083.77 39.676C1084.38 40.024 1084.87 40.528 1085.24 41.188C1085.61 41.836 1085.81 42.634 1085.84 43.582L1085.24 42.466V35.86H1086.59V49H1085.51V44.77H1085.94C1085.92 45.766 1085.71 46.606 1085.31 47.29C1084.93 47.962 1084.42 48.466 1083.78 48.802C1083.16 49.138 1082.46 49.306 1081.68 49.306ZM1081.86 48.118C1082.51 48.118 1083.09 47.974 1083.6 47.686C1084.13 47.398 1084.55 46.99 1084.85 46.462C1085.15 45.922 1085.3 45.304 1085.3 44.608V43.744C1085.3 43.072 1085.15 42.484 1084.85 41.98C1084.55 41.464 1084.13 41.062 1083.6 40.774C1083.09 40.486 1082.5 40.342 1081.84 40.342C1081.13 40.342 1080.51 40.516 1079.99 40.864C1079.47 41.2 1079.07 41.662 1078.78 42.25C1078.5 42.838 1078.37 43.498 1078.37 44.23C1078.37 44.986 1078.51 45.658 1078.8 46.246C1079.09 46.834 1079.49 47.296 1080.02 47.632C1080.55 47.956 1081.16 48.118 1081.86 48.118ZM1090.58 49V39.478H1091.91V49H1090.58ZM1089.05 40.558V39.478H1091.91V40.558H1089.05ZM1090.87 37.714C1090.54 37.714 1090.3 37.63 1090.13 37.462C1089.97 37.282 1089.9 37.06 1089.9 36.796C1089.9 36.532 1089.97 36.316 1090.13 36.148C1090.3 35.968 1090.54 35.878 1090.87 35.878C1091.19 35.878 1091.43 35.968 1091.59 36.148C1091.74 36.316 1091.82 36.532 1091.82 36.796C1091.82 37.06 1091.74 37.282 1091.59 37.462C1091.43 37.63 1091.19 37.714 1090.87 37.714ZM1099.43 49.306C1098.62 49.306 1097.91 49.168 1097.31 48.892C1096.71 48.604 1096.22 48.226 1095.83 47.758C1095.45 47.278 1095.16 46.744 1094.97 46.156C1094.79 45.568 1094.7 44.962 1094.7 44.338V44.086C1094.7 43.474 1094.79 42.874 1094.97 42.286C1095.16 41.698 1095.45 41.17 1095.83 40.702C1096.22 40.234 1096.7 39.862 1097.27 39.586C1097.86 39.298 1098.54 39.154 1099.32 39.154C1100.32 39.154 1101.15 39.376 1101.81 39.82C1102.48 40.264 1102.98 40.834 1103.32 41.53C1103.66 42.214 1103.82 42.952 1103.82 43.744V44.446H1095.31V43.402H1102.89L1102.55 43.924C1102.55 43.216 1102.42 42.598 1102.17 42.07C1101.93 41.53 1101.57 41.11 1101.09 40.81C1100.62 40.498 1100.03 40.342 1099.32 40.342C1098.58 40.342 1097.96 40.516 1097.47 40.864C1096.98 41.212 1096.61 41.674 1096.35 42.25C1096.11 42.826 1095.99 43.48 1095.99 44.212C1095.99 44.932 1096.11 45.592 1096.35 46.192C1096.61 46.78 1096.98 47.248 1097.49 47.596C1098 47.944 1098.65 48.118 1099.43 48.118C1100.26 48.118 1100.93 47.932 1101.45 47.56C1101.96 47.176 1102.28 46.726 1102.4 46.21H1103.66C1103.54 46.846 1103.29 47.398 1102.91 47.866C1102.52 48.322 1102.04 48.676 1101.45 48.928C1100.86 49.18 1100.19 49.306 1099.43 49.306ZM1109.43 49.27C1108.21 49.27 1107.26 49.006 1106.6 48.478C1105.94 47.938 1105.61 47.218 1105.6 46.318H1106.86C1106.88 46.774 1107.08 47.188 1107.47 47.56C1107.86 47.932 1108.52 48.118 1109.43 48.118C1110.28 48.118 1110.92 47.944 1111.34 47.596C1111.77 47.236 1111.99 46.804 1111.99 46.3C1111.99 45.832 1111.81 45.472 1111.45 45.22C1111.1 44.956 1110.59 44.788 1109.92 44.716L1108.84 44.608C1107.97 44.512 1107.27 44.248 1106.73 43.816C1106.2 43.372 1105.94 42.766 1105.94 41.998C1105.94 41.434 1106.08 40.942 1106.37 40.522C1106.66 40.102 1107.06 39.778 1107.58 39.55C1108.1 39.31 1108.72 39.19 1109.43 39.19C1110.45 39.19 1111.28 39.43 1111.91 39.91C1112.56 40.39 1112.89 41.074 1112.9 41.962H1111.64C1111.63 41.506 1111.44 41.122 1111.07 40.81C1110.7 40.498 1110.15 40.342 1109.43 40.342C1108.69 40.342 1108.13 40.504 1107.76 40.828C1107.4 41.152 1107.22 41.548 1107.22 42.016C1107.22 42.412 1107.35 42.742 1107.63 43.006C1107.91 43.258 1108.34 43.414 1108.93 43.474L1110.01 43.582C1110.97 43.69 1111.75 43.966 1112.35 44.41C1112.96 44.854 1113.26 45.49 1113.26 46.318C1113.26 46.882 1113.1 47.392 1112.78 47.848C1112.47 48.292 1112.02 48.64 1111.45 48.892C1110.87 49.144 1110.2 49.27 1109.43 49.27Z" fill="#717171"/>
<path d="M1128.5 40.5L1132.5 44.5L1136.5 40.5" stroke="#717171" stroke-width="1.6" stroke-linecap="round" stroke-linejoin="round"/>
<path d="M1183.09 49L1187.94 35.86H1190.38L1195.39 49H1193.98L1189.32 36.724L1190.06 37.102H1188.17L1188.94 36.724L1184.46 49H1183.09ZM1185.69 44.824L1186.14 43.582H1192.24L1192.71 44.824H1185.69ZM1198.23 49V39.478H1199.56V49H1198.23ZM1196.7 40.558V39.478H1199.56V40.558H1196.7ZM1198.52 37.714C1198.2 37.714 1197.95 37.63 1197.78 37.462C1197.63 37.282 1197.55 37.06 1197.55 36.796C1197.55 36.532 1197.63 36.316 1197.78 36.148C1197.95 35.968 1198.2 35.878 1198.52 35.878C1198.84 35.878 1199.08 35.968 1199.24 36.148C1199.4 36.316 1199.47 36.532 1199.47 36.796C1199.47 37.06 1199.4 37.282 1199.24 37.462C1199.08 37.63 1198.84 37.714 1198.52 37.714Z" fill="#717171"/>
<path d="M1215.5 40.5L1219.5 44.5L1223.5 40.5" stroke="#717171" stroke-width="1.6" stroke-linecap="round" stroke-linejoin="round"/>
<path d="M1269.31 49.306C1268.17 49.306 1267.18 49.102 1266.34 48.694C1265.5 48.286 1264.81 47.746 1264.25 47.074C1263.7 46.402 1263.29 45.67 1263.01 44.878C1262.74 44.086 1262.6 43.312 1262.6 42.556V42.232C1262.6 41.428 1262.74 40.63 1263.01 39.838C1263.3 39.034 1263.73 38.308 1264.29 37.66C1264.85 37.012 1265.56 36.496 1266.4 36.112C1267.24 35.716 1268.21 35.518 1269.31 35.518C1270.43 35.518 1271.4 35.716 1272.23 36.112C1273.07 36.496 1273.77 37.012 1274.33 37.66C1274.9 38.308 1275.32 39.034 1275.59 39.838C1275.88 40.63 1276.03 41.428 1276.03 42.232V42.574C1276.03 43.33 1275.89 44.104 1275.61 44.896C1275.35 45.676 1274.93 46.402 1274.37 47.074C1273.82 47.746 1273.12 48.286 1272.28 48.694C1271.44 49.102 1270.45 49.306 1269.31 49.306ZM1269.31 48.046C1270.15 48.046 1270.9 47.896 1271.56 47.596C1272.22 47.284 1272.78 46.864 1273.24 46.336C1273.69 45.796 1274.04 45.19 1274.28 44.518C1274.52 43.846 1274.64 43.144 1274.64 42.412C1274.64 41.644 1274.52 40.924 1274.28 40.252C1274.04 39.58 1273.69 38.986 1273.22 38.47C1272.76 37.942 1272.2 37.528 1271.54 37.228C1270.88 36.928 1270.14 36.778 1269.31 36.778C1268.5 36.778 1267.76 36.928 1267.1 37.228C1266.44 37.528 1265.87 37.942 1265.41 38.47C1264.95 38.986 1264.6 39.58 1264.34 40.252C1264.1 40.924 1263.98 41.644 1263.98 42.412C1263.98 43.144 1264.1 43.846 1264.34 44.518C1264.58 45.19 1264.93 45.796 1265.39 46.336C1265.84 46.864 1266.4 47.284 1267.06 47.596C1267.73 47.896 1268.48 48.046 1269.31 48.046ZM1282.31 49.108C1281.65 49.108 1281.08 49.012 1280.6 48.82C1280.12 48.628 1279.75 48.304 1279.49 47.848C1279.22 47.38 1279.09 46.756 1279.09 45.976V36.472H1280.39V46.174C1280.39 46.726 1280.54 47.152 1280.84 47.452C1281.14 47.74 1281.56 47.884 1282.11 47.884H1283.82V49.108H1282.31ZM1277.38 40.504V39.478H1283.82V40.504H1277.38ZM1286.43 49V35.86H1287.78V43.294L1287.39 43.6C1287.39 42.712 1287.51 41.938 1287.76 41.278C1288.03 40.618 1288.42 40.108 1288.93 39.748C1289.46 39.376 1290.12 39.19 1290.91 39.19H1290.99C1292.14 39.19 1293.01 39.568 1293.6 40.324C1294.2 41.08 1294.5 42.13 1294.5 43.474V49H1293.16V43.186C1293.16 42.334 1292.93 41.662 1292.46 41.17C1291.99 40.678 1291.36 40.432 1290.57 40.432C1289.72 40.432 1289.04 40.708 1288.54 41.26C1288.03 41.8 1287.78 42.514 1287.78 43.402V49H1286.43ZM1301.84 49.306C1301.02 49.306 1300.31 49.168 1299.71 48.892C1299.11 48.604 1298.62 48.226 1298.24 47.758C1297.85 47.278 1297.56 46.744 1297.37 46.156C1297.19 45.568 1297.1 44.962 1297.1 44.338V44.086C1297.1 43.474 1297.19 42.874 1297.37 42.286C1297.56 41.698 1297.85 41.17 1298.24 40.702C1298.62 40.234 1299.1 39.862 1299.68 39.586C1300.26 39.298 1300.95 39.154 1301.73 39.154C1302.72 39.154 1303.55 39.376 1304.21 39.82C1304.88 40.264 1305.39 40.834 1305.72 41.53C1306.06 42.214 1306.23 42.952 1306.23 43.744V44.446H1297.71V43.402H1305.29L1304.95 43.924C1304.95 43.216 1304.82 42.598 1304.57 42.07C1304.33 41.53 1303.97 41.11 1303.49 40.81C1303.02 40.498 1302.44 40.342 1301.73 40.342C1300.98 40.342 1300.37 40.516 1299.87 40.864C1299.38 41.212 1299.01 41.674 1298.76 42.25C1298.52 42.826 1298.4 43.48 1298.4 44.212C1298.4 44.932 1298.52 45.592 1298.76 46.192C1299.01 46.78 1299.39 47.248 1299.89 47.596C1300.41 47.944 1301.06 48.118 1301.84 48.118C1302.66 48.118 1303.34 47.932 1303.85 47.56C1304.37 47.176 1304.69 46.726 1304.81 46.21H1306.07C1305.95 46.846 1305.69 47.398 1305.31 47.866C1304.93 48.322 1304.44 48.676 1303.85 48.928C1303.26 49.18 1302.59 49.306 1301.84 49.306ZM1308.83 49V39.478H1309.91V43.456H1309.8C1309.8 42.064 1310.1 41.038 1310.72 40.378C1311.33 39.706 1312.29 39.37 1313.6 39.37H1313.9V40.594H1313.34C1312.31 40.594 1311.53 40.864 1310.99 41.404C1310.45 41.932 1310.18 42.712 1310.18 43.744V49H1308.83ZM1319.09 49.27C1317.87 49.27 1316.93 49.006 1316.27 48.478C1315.61 47.938 1315.27 47.218 1315.26 46.318H1316.52C1316.54 46.774 1316.75 47.188 1317.13 47.56C1317.53 47.932 1318.18 48.118 1319.09 48.118C1319.94 48.118 1320.58 47.944 1321 47.596C1321.43 47.236 1321.65 46.804 1321.65 46.3C1321.65 45.832 1321.47 45.472 1321.11 45.22C1320.76 44.956 1320.25 44.788 1319.58 44.716L1318.5 44.608C1317.63 44.512 1316.93 44.248 1316.39 43.816C1315.86 43.372 1315.6 42.766 1315.6 41.998C1315.6 41.434 1315.74 40.942 1316.03 40.522C1316.32 40.102 1316.72 39.778 1317.24 39.55C1317.77 39.31 1318.38 39.19 1319.09 39.19C1320.11 39.19 1320.94 39.43 1321.58 39.91C1322.22 40.39 1322.55 41.074 1322.57 41.962H1321.31C1321.29 41.506 1321.1 41.122 1320.73 40.81C1320.36 40.498 1319.81 40.342 1319.09 40.342C1318.35 40.342 1317.79 40.504 1317.42 40.828C1317.06 41.152 1316.88 41.548 1316.88 42.016C1316.88 42.412 1317.02 42.742 1317.29 43.006C1317.57 43.258 1318 43.414 1318.59 43.474L1319.67 43.582C1320.63 43.69 1321.41 43.966 1322.01 44.41C1322.62 44.854 1322.93 45.49 1322.93 46.318C1322.93 46.882 1322.76 47.392 1322.44 47.848C1322.13 48.292 1321.68 48.64 1321.11 48.892C1320.53 49.144 1319.86 49.27 1319.09 49.27Z" fill="#717171"/>
<path d="M1338.5 40.5L1342.5 44.5L1346.5 40.5" stroke="#717171" stroke-width="1.6" stroke-linecap="round" stroke-linejoin="round"/>
<defs>
<filter id="filter0_ddiiii_1011_1392" x="197" y="16" width="327" height="54" filterUnits="userSpaceOnUse" color-interpolation-filters="sRGB">
<feFlood flood-opacity="0" result="BackgroundImageFix"/>
<feColorMatrix in="SourceAlpha" type="matrix" values="0 0 0 0 0 0 0 0 0 0 0 0 0 0 0 0 0 0 127 0" result="hardAlpha"/>
<feOffset dx="-1" dy="-1"/>
<feGaussianBlur stdDeviation="1"/>
<feColorMatrix type="matrix" values="0 0 0 0 0.745098 0 0 0 0 0.745098 0 0 0 0 0.745098 0 0 0 0.5 0"/>
<feBlend mode="normal" in2="BackgroundImageFix" result="effect1_dropShadow_1011_1392"/>
<feColorMatrix in="SourceAlpha" type="matrix" values="0 0 0 0 0 0 0 0 0 0 0 0 0 0 0 0 0 0 127 0" result="hardAlpha"/>
<feOffset dx="1" dy="1"/>
<feGaussianBlur stdDeviation="1"/>
<feColorMatrix type="matrix" values="0 0 0 0 1 0 0 0 0 1 0 0 0 0 1 0 0 0 0.3 0"/>
<feBlend mode="normal" in2="effect1_dropShadow_1011_1392" result="effect2_dropShadow_1011_1392"/>
<feBlend mode="normal" in="SourceGraphic" in2="effect2_dropShadow_1011_1392" result="shape"/>
<feColorMatrix in="SourceAlpha" type="matrix" values="0 0 0 0 0 0 0 0 0 0 0 0 0 0 0 0 0 0 127 0" result="hardAlpha"/>
<feOffset dx="3" dy="3"/>
<feGaussianBlur stdDeviation="4"/>
<feComposite in2="hardAlpha" operator="arithmetic" k2="-1" k3="1"/>
<feColorMatrix type="matrix" values="0 0 0 0 0.745098 0 0 0 0 0.745098 0 0 0 0 0.745098 0 0 0 0.9 0"/>
<feBlend mode="normal" in2="shape" result="effect3_innerShadow_1011_1392"/>
<feColorMatrix in="SourceAlpha" type="matrix" values="0 0 0 0 0 0 0 0 0 0 0 0 0 0 0 0 0 0 127 0" result="hardAlpha"/>
<feOffset dx="-3" dy="-3"/>
<feGaussianBlur stdDeviation="3"/>
<feComposite in2="hardAlpha" operator="arithmetic" k2="-1" k3="1"/>
<feColorMatrix type="matrix" values="0 0 0 0 1 0 0 0 0 1 0 0 0 0 1 0 0 0 0.9 0"/>
<feBlend mode="normal" in2="effect3_innerShadow_1011_1392" result="effect4_innerShadow_1011_1392"/>
<feColorMatrix in="SourceAlpha" type="matrix" values="0 0 0 0 0 0 0 0 0 0 0 0 0 0 0 0 0 0 127 0" result="hardAlpha"/>
<feOffset dx="3" dy="-3"/>
<feGaussianBlur stdDeviation="3"/>
<feComposite in2="hardAlpha" operator="arithmetic" k2="-1" k3="1"/>
<feColorMatrix type="matrix" values="0 0 0 0 0.745098 0 0 0 0 0.745098 0 0 0 0 0.745098 0 0 0 0.2 0"/>
<feBlend mode="normal" in2="effect4_innerShadow_1011_1392" result="effect5_innerShadow_1011_1392"/>
<feColorMatrix in="SourceAlpha" type="matrix" values="0 0 0 0 0 0 0 0 0 0 0 0 0 0 0 0 0 0 127 0" result="hardAlpha"/>
<feOffset dx="-3" dy="3"/>
<feGaussianBlur stdDeviation="3"/>
<feComposite in2="hardAlpha" operator="arithmetic" k2="-1" k3="1"/>
<feColorMatrix type="matrix" values="0 0 0 0 0.745098 0 0 0 0 0.745098 0 0 0 0 0.745098 0 0 0 0.2 0"/>
<feBlend mode="normal" in2="effect5_innerShadow_1011_1392" result="effect6_innerShadow_1011_1392"/>
</filter>
<filter id="filter1_ddddii_1011_1392" x="464" y="14" width="61" height="61" filterUnits="userSpaceOnUse" color-interpolation-filters="sRGB">
<feFlood flood-opacity="0" result="BackgroundImageFix"/>
<feColorMatrix in="SourceAlpha" type="matrix" values="0 0 0 0 0 0 0 0 0 0 0 0 0 0 0 0 0 0 127 0" result="hardAlpha"/>
<feOffset dx="4" dy="4"/>
<feGaussianBlur stdDeviation="5"/>
<feColorMatrix type="matrix" values="0 0 0 0 0.745098 0 0 0 0 0.745098 0 0 0 0 0.745098 0 0 0 0.9 0"/>
<feBlend mode="normal" in2="BackgroundImageFix" result="effect1_dropShadow_1011_1392"/>
<feColorMatrix in="SourceAlpha" type="matrix" values="0 0 0 0 0 0 0 0 0 0 0 0 0 0 0 0 0 0 127 0" result="hardAlpha"/>
<feOffset dx="-4" dy="-4"/>
<feGaussianBlur stdDeviation="4"/>
<feColorMatrix type="matrix" values="0 0 0 0 1 0 0 0 0 1 0 0 0 0 1 0 0 0 0.9 0"/>
<feBlend mode="normal" in2="effect1_dropShadow_1011_1392" result="effect2_dropShadow_1011_1392"/>
<feColorMatrix in="SourceAlpha" type="matrix" values="0 0 0 0 0 0 0 0 0 0 0 0 0 0 0 0 0 0 127 0" result="hardAlpha"/>
<feOffset dx="4" dy="-4"/>
<feGaussianBlur stdDeviation="4"/>
<feColorMatrix type="matrix" values="0 0 0 0 0.745098 0 0 0 0 0.745098 0 0 0 0 0.745098 0 0 0 0.2 0"/>
<feBlend mode="normal" in2="effect2_dropShadow_1011_1392" result="effect3_dropShadow_1011_1392"/>
<feColorMatrix in="SourceAlpha" type="matrix" values="0 0 0 0 0 0 0 0 0 0 0 0 0 0 0 0 0 0 127 0" result="hardAlpha"/>
<feOffset dx="-4" dy="4"/>
<feGaussianBlur stdDeviation="4"/>
<feColorMatrix type="matrix" values="0 0 0 0 0.745098 0 0 0 0 0.745098 0 0 0 0 0.745098 0 0 0 0.2 0"/>
<feBlend mode="normal" in2="effect3_dropShadow_1011_1392" result="effect4_dropShadow_1011_1392"/>
<feBlend mode="normal" in="SourceGraphic" in2="effect4_dropShadow_1011_1392" result="shape"/>
<feColorMatrix in="SourceAlpha" type="matrix" values="0 0 0 0 0 0 0 0 0 0 0 0 0 0 0 0 0 0 127 0" result="hardAlpha"/>
<feOffset dx="-1" dy="-1"/>
<feGaussianBlur stdDeviation="1"/>
<feComposite in2="hardAlpha" operator="arithmetic" k2="-1" k3="1"/>
<feColorMatrix type="matrix" values="0 0 0 0 0.745098 0 0 0 0 0.745098 0 0 0 0 0.745098 0 0 0 0.5 0"/>
<feBlend mode="normal" in2="shape" result="effect5_innerShadow_1011_1392"/>
<feColorMatrix in="SourceAlpha" type="matrix" values="0 0 0 0 0 0 0 0 0 0 0 0 0 0 0 0 0 0 127 0" result="hardAlpha"/>
<feOffset dx="1" dy="1"/>
<feGaussianBlur stdDeviation="1"/>
<feComposite in2="hardAlpha" operator="arithmetic" k2="-1" k3="1"/>
<feColorMatrix type="matrix" values="0 0 0 0 1 0 0 0 0 1 0 0 0 0 1 0 0 0 0.3 0"/>
<feBlend mode="normal" in2="effect5_innerShadow_1011_1392" result="effect6_innerShadow_1011_1392"/>
</filter>
<radialGradient id="paint0_radial_1011_1392" cx="0" cy="0" r="1" gradientUnits="userSpaceOnUse" gradientTransform="translate(268.5 45) rotate(90) scale(8 44.5)">
<stop stop-color="#5A69EA"/>
<stop offset="1" stop-color="#BF8BCA"/>
</radialGradient>
<radialGradient id="paint1_radial_1011_1392" cx="0" cy="0" r="1" gradientUnits="userSpaceOnUse" gradientTransform="translate(887 42.5) rotate(90) scale(11.5 32.5)">
<stop stop-color="#5A69EA"/>
<stop offset="1" stop-color="#BF8BCA"/>
</radialGradient>
<radialGradient id="paint2_radial_1011_1392" cx="0" cy="0" r="1" gradientUnits="userSpaceOnUse" gradientTransform="translate(937.5 42.5) rotate(90) scale(2 4)">
<stop stop-color="#5A69EA"/>
<stop offset="1" stop-color="#BF8BCA"/>
</radialGradient>
</defs>
</svg>
