<svg width="237" height="90" viewBox="0 0 237 90" fill="none" xmlns="http://www.w3.org/2000/svg">
<path d="M11.28 46L1.584 10.96H5.328L14.112 43.648L12.432 42.688H17.088L15.264 43.648L22.416 12.496H25.872L18 46H11.28ZM32.352 46L23.712 12.496H27.264L35.232 43.648L33.456 42.688H38.208L36.384 43.648L44.304 10.96H47.952L39.072 46H32.352ZM64.5476 46.816C62.3716 46.816 60.4516 46.448 58.7876 45.712C57.1556 44.944 55.7636 43.936 54.6116 42.688C53.4916 41.408 52.6276 39.984 52.0196 38.416C51.4436 36.848 51.1556 35.248 51.1556 33.616V32.944C51.1556 31.312 51.4596 29.712 52.0676 28.144C52.6756 26.544 53.5556 25.12 54.7076 23.872C55.8596 22.624 57.2516 21.632 58.8836 20.896C60.5476 20.128 62.4356 19.744 64.5476 19.744C66.6916 19.744 68.5796 20.128 70.2116 20.896C71.8756 21.632 73.2836 22.624 74.4356 23.872C75.5876 25.12 76.4516 26.544 77.0276 28.144C77.6356 29.712 77.9396 31.312 77.9396 32.944V33.616C77.9396 35.248 77.6516 36.848 77.0756 38.416C76.4996 39.984 75.6356 41.408 74.4836 42.688C73.3636 43.936 71.9716 44.944 70.3076 45.712C68.6436 46.448 66.7236 46.816 64.5476 46.816ZM64.5476 43.6C66.6596 43.6 68.4356 43.136 69.8756 42.208C71.3476 41.248 72.4676 40 73.2356 38.464C74.0036 36.896 74.3876 35.168 74.3876 33.28C74.3876 31.36 73.9876 29.632 73.1876 28.096C72.4196 26.528 71.2996 25.296 69.8276 24.4C68.3556 23.472 66.5956 23.008 64.5476 23.008C62.5316 23.008 60.7876 23.472 59.3156 24.4C57.8436 25.296 56.7076 26.528 55.9076 28.096C55.1396 29.632 54.7556 31.36 54.7556 33.28C54.7556 35.168 55.1396 36.896 55.9076 38.464C56.6756 40 57.7796 41.248 59.2196 42.208C60.6916 43.136 62.4676 43.6 64.5476 43.6ZM85.281 46V20.608H88.161V31.216H87.873C87.873 27.504 88.689 24.768 90.321 23.008C91.953 21.216 94.513 20.32 98.001 20.32H98.817V23.584H97.329C94.577 23.584 92.481 24.304 91.041 25.744C89.601 27.152 88.881 29.232 88.881 31.984V46H85.281ZM121.92 46L111.696 34.096H107.568L119.616 20.608H123.456L112.656 32.656L112.896 30.688L126.144 46H121.92ZM104.64 46V10.96H108.24V46H104.64ZM138.719 46.72C135.455 46.72 132.943 46.016 131.183 44.608C129.423 43.168 128.527 41.248 128.495 38.848H131.855C131.919 40.064 132.463 41.168 133.487 42.16C134.543 43.152 136.287 43.648 138.719 43.648C140.991 43.648 142.687 43.184 143.807 42.256C144.959 41.296 145.535 40.144 145.535 38.8C145.535 37.552 145.055 36.592 144.095 35.92C143.167 35.216 141.807 34.768 140.015 34.576L137.135 34.288C134.831 34.032 132.959 33.328 131.519 32.176C130.111 30.992 129.407 29.376 129.407 27.328C129.407 25.824 129.791 24.512 130.559 23.392C131.327 22.272 132.399 21.408 133.775 20.8C135.183 20.16 136.831 19.84 138.719 19.84C141.439 19.84 143.647 20.48 145.343 21.76C147.071 23.04 147.951 24.864 147.983 27.232H144.623C144.591 26.016 144.079 24.992 143.087 24.16C142.095 23.328 140.639 22.912 138.719 22.912C136.735 22.912 135.247 23.344 134.255 24.208C133.295 25.072 132.815 26.128 132.815 27.376C132.815 28.432 133.183 29.312 133.919 30.016C134.655 30.688 135.807 31.104 137.375 31.264L140.255 31.552C142.815 31.84 144.895 32.576 146.495 33.76C148.127 34.944 148.943 36.64 148.943 38.848C148.943 40.352 148.511 41.712 147.647 42.928C146.815 44.112 145.631 45.04 144.095 45.712C142.559 46.384 140.767 46.72 138.719 46.72Z" fill="#0D0D0D"/>
<path d="M2.28 84V69.4H3.8V84H2.28ZM3.4 84V82.62H10.26V84H3.4ZM17.4027 84.34C16.496 84.34 15.696 84.1867 15.0027 83.88C14.3227 83.56 13.7427 83.14 13.2627 82.62C12.796 82.0867 12.436 81.4933 12.1827 80.84C11.9427 80.1867 11.8227 79.52 11.8227 78.84V78.56C11.8227 77.88 11.9493 77.2133 12.2027 76.56C12.456 75.8933 12.8227 75.3 13.3027 74.78C13.7827 74.26 14.3627 73.8467 15.0427 73.54C15.736 73.22 16.5227 73.06 17.4027 73.06C18.296 73.06 19.0827 73.22 19.7627 73.54C20.456 73.8467 21.0427 74.26 21.5227 74.78C22.0027 75.3 22.3627 75.8933 22.6027 76.56C22.856 77.2133 22.9827 77.88 22.9827 78.56V78.84C22.9827 79.52 22.8627 80.1867 22.6227 80.84C22.3827 81.4933 22.0227 82.0867 21.5427 82.62C21.076 83.14 20.496 83.56 19.8027 83.88C19.1093 84.1867 18.3093 84.34 17.4027 84.34ZM17.4027 83C18.2827 83 19.0227 82.8067 19.6227 82.42C20.236 82.02 20.7027 81.5 21.0227 80.86C21.3427 80.2067 21.5027 79.4867 21.5027 78.7C21.5027 77.9 21.336 77.18 21.0027 76.54C20.6827 75.8867 20.216 75.3733 19.6027 75C18.9893 74.6133 18.256 74.42 17.4027 74.42C16.5627 74.42 15.836 74.6133 15.2227 75C14.6093 75.3733 14.136 75.8867 13.8027 76.54C13.4827 77.18 13.3227 77.9 13.3227 78.7C13.3227 79.4867 13.4827 80.2067 13.8027 80.86C14.1227 81.5 14.5827 82.02 15.1827 82.42C15.796 82.8067 16.536 83 17.4027 83ZM30.7816 84.34C29.8749 84.34 29.0749 84.1867 28.3816 83.88C27.7016 83.56 27.1216 83.14 26.6416 82.62C26.1749 82.0867 25.8149 81.4933 25.5616 80.84C25.3216 80.1867 25.2016 79.52 25.2016 78.84V78.56C25.2016 77.88 25.3282 77.2133 25.5816 76.56C25.8349 75.8933 26.2016 75.3 26.6816 74.78C27.1616 74.26 27.7416 73.8467 28.4216 73.54C29.1149 73.22 29.9016 73.06 30.7816 73.06C31.6749 73.06 32.4616 73.22 33.1416 73.54C33.8349 73.8467 34.4216 74.26 34.9016 74.78C35.3816 75.3 35.7416 75.8933 35.9816 76.56C36.2349 77.2133 36.3616 77.88 36.3616 78.56V78.84C36.3616 79.52 36.2416 80.1867 36.0016 80.84C35.7616 81.4933 35.4016 82.0867 34.9216 82.62C34.4549 83.14 33.8749 83.56 33.1816 83.88C32.4882 84.1867 31.6882 84.34 30.7816 84.34ZM30.7816 83C31.6616 83 32.4016 82.8067 33.0016 82.42C33.6149 82.02 34.0816 81.5 34.4016 80.86C34.7216 80.2067 34.8816 79.4867 34.8816 78.7C34.8816 77.9 34.7149 77.18 34.3816 76.54C34.0616 75.8867 33.5949 75.3733 32.9816 75C32.3682 74.6133 31.6349 74.42 30.7816 74.42C29.9416 74.42 29.2149 74.6133 28.6016 75C27.9882 75.3733 27.5149 75.8867 27.1816 76.54C26.8616 77.18 26.7016 77.9 26.7016 78.7C26.7016 79.4867 26.8616 80.2067 27.1816 80.86C27.5016 81.5 27.9616 82.02 28.5616 82.42C29.1749 82.8067 29.9149 83 30.7816 83ZM46.6205 84L42.3605 79.04H40.6405L45.6605 73.42H47.2605L42.7605 78.44L42.8605 77.62L48.3805 84H46.6205ZM39.4205 84V69.4H40.9205V84H39.4205ZM55.625 84V73.42H57.105V84H55.625ZM53.925 74.62V73.42H57.105V74.62H53.925ZM55.945 71.46C55.585 71.46 55.3117 71.3667 55.125 71.18C54.9517 70.98 54.865 70.7333 54.865 70.44C54.865 70.1467 54.9517 69.9067 55.125 69.72C55.3117 69.52 55.585 69.42 55.945 69.42C56.305 69.42 56.5717 69.52 56.745 69.72C56.9183 69.9067 57.005 70.1467 57.005 70.44C57.005 70.7333 56.9183 70.98 56.745 71.18C56.5717 71.3667 56.305 71.46 55.945 71.46ZM61.0416 84V73.42H62.2416V77.86H62.0016C62.0016 76.8733 62.1482 76.0267 62.4416 75.32C62.7349 74.6133 63.1749 74.0667 63.7616 73.68C64.3482 73.2933 65.0882 73.1 65.9816 73.1H66.0416C67.3749 73.1 68.3682 73.52 69.0216 74.36C69.6749 75.1867 70.0016 76.3533 70.0016 77.86V84H68.5216V77.54C68.5216 76.62 68.2682 75.88 67.7616 75.32C67.2549 74.76 66.5482 74.48 65.6416 74.48C64.7082 74.48 63.9549 74.7733 63.3816 75.36C62.8216 75.9333 62.5416 76.6933 62.5416 77.64V84H61.0416ZM77.5769 84.12C76.8435 84.12 76.2102 84.0133 75.6769 83.8C75.1435 83.5867 74.7302 83.2267 74.4369 82.72C74.1435 82.2 73.9969 81.5067 73.9969 80.64V70.08H75.4369V80.86C75.4369 81.4733 75.6035 81.9467 75.9369 82.28C76.2702 82.6 76.7435 82.76 77.3569 82.76H79.2569V84.12H77.5769ZM72.0969 74.56V73.42H79.2569V74.56H72.0969ZM86.7972 84.34C85.8905 84.34 85.0905 84.1867 84.3972 83.88C83.7172 83.56 83.1372 83.14 82.6572 82.62C82.1905 82.0867 81.8305 81.4933 81.5772 80.84C81.3372 80.1867 81.2172 79.52 81.2172 78.84V78.56C81.2172 77.88 81.3439 77.2133 81.5972 76.56C81.8505 75.8933 82.2172 75.3 82.6972 74.78C83.1772 74.26 83.7572 73.8467 84.4372 73.54C85.1305 73.22 85.9172 73.06 86.7972 73.06C87.6905 73.06 88.4772 73.22 89.1572 73.54C89.8505 73.8467 90.4372 74.26 90.9172 74.78C91.3972 75.3 91.7572 75.8933 91.9972 76.56C92.2505 77.2133 92.3772 77.88 92.3772 78.56V78.84C92.3772 79.52 92.2572 80.1867 92.0172 80.84C91.7772 81.4933 91.4172 82.0867 90.9372 82.62C90.4705 83.14 89.8905 83.56 89.1972 83.88C88.5039 84.1867 87.7039 84.34 86.7972 84.34ZM86.7972 83C87.6772 83 88.4172 82.8067 89.0172 82.42C89.6305 82.02 90.0972 81.5 90.4172 80.86C90.7372 80.2067 90.8972 79.4867 90.8972 78.7C90.8972 77.9 90.7305 77.18 90.3972 76.54C90.0772 75.8867 89.6105 75.3733 88.9972 75C88.3839 74.6133 87.6505 74.42 86.7972 74.42C85.9572 74.42 85.2305 74.6133 84.6172 75C84.0039 75.3733 83.5305 75.8867 83.1972 76.54C82.8772 77.18 82.7172 77.9 82.7172 78.7C82.7172 79.4867 82.8772 80.2067 83.1972 80.86C83.5172 81.5 83.9772 82.02 84.5772 82.42C85.1905 82.8067 85.9305 83 86.7972 83ZM104.844 84.34C103.937 84.34 103.137 84.1867 102.444 83.88C101.764 83.56 101.184 83.14 100.704 82.62C100.237 82.0867 99.8774 81.4933 99.6241 80.84C99.3841 80.1867 99.2641 79.52 99.2641 78.84V78.56C99.2641 77.88 99.3907 77.2133 99.6441 76.56C99.8974 75.8933 100.264 75.3 100.744 74.78C101.224 74.26 101.804 73.8467 102.484 73.54C103.177 73.22 103.964 73.06 104.844 73.06C105.737 73.06 106.524 73.22 107.204 73.54C107.897 73.8467 108.484 74.26 108.964 74.78C109.444 75.3 109.804 75.8933 110.044 76.56C110.297 77.2133 110.424 77.88 110.424 78.56V78.84C110.424 79.52 110.304 80.1867 110.064 80.84C109.824 81.4933 109.464 82.0867 108.984 82.62C108.517 83.14 107.937 83.56 107.244 83.88C106.551 84.1867 105.751 84.34 104.844 84.34ZM104.844 83C105.724 83 106.464 82.8067 107.064 82.42C107.677 82.02 108.144 81.5 108.464 80.86C108.784 80.2067 108.944 79.4867 108.944 78.7C108.944 77.9 108.777 77.18 108.444 76.54C108.124 75.8867 107.657 75.3733 107.044 75C106.431 74.6133 105.697 74.42 104.844 74.42C104.004 74.42 103.277 74.6133 102.664 75C102.051 75.3733 101.577 75.8867 101.244 76.54C100.924 77.18 100.764 77.9 100.764 78.7C100.764 79.4867 100.924 80.2067 101.244 80.86C101.564 81.5 102.024 82.02 102.624 82.42C103.237 82.8067 103.977 83 104.844 83ZM117.143 84.3C115.876 84.3 114.91 83.8933 114.243 83.08C113.576 82.2533 113.243 81.1067 113.243 79.64V73.4H114.723V79.94C114.723 80.86 114.963 81.5933 115.443 82.14C115.936 82.6733 116.616 82.94 117.483 82.94C118.39 82.94 119.11 82.6533 119.643 82.08C120.19 81.5067 120.463 80.74 120.463 79.78V73.4H121.963V84H120.763V79.58H121.003C121.003 80.5667 120.863 81.4133 120.583 82.12C120.303 82.8133 119.883 83.3533 119.323 83.74C118.763 84.1133 118.056 84.3 117.203 84.3H117.143ZM125.885 84V73.42H127.085V77.84H126.965C126.965 76.2933 127.305 75.1533 127.985 74.42C128.665 73.6733 129.732 73.3 131.185 73.3H131.525V74.66H130.905C129.759 74.66 128.885 74.96 128.285 75.56C127.685 76.1467 127.385 77.0133 127.385 78.16V84H125.885ZM141.58 84L143.84 73.76H145.94L148.56 84H147.26L144.64 73.82H145.12L142.84 84H141.58ZM140.72 84V82.78H142.54V84H140.72ZM140.36 84L137.3 73.42H138.74L141.76 84H140.36ZM147.6 84V82.78H149.38V84H147.6ZM148.38 84L151.02 73.42H152.4L149.7 84H148.38ZM159.727 84.34C158.82 84.34 158.02 84.1867 157.327 83.88C156.647 83.56 156.067 83.14 155.587 82.62C155.12 82.0867 154.76 81.4933 154.507 80.84C154.267 80.1867 154.147 79.52 154.147 78.84V78.56C154.147 77.88 154.274 77.2133 154.527 76.56C154.78 75.8933 155.147 75.3 155.627 74.78C156.107 74.26 156.687 73.8467 157.367 73.54C158.06 73.22 158.847 73.06 159.727 73.06C160.62 73.06 161.407 73.22 162.087 73.54C162.78 73.8467 163.367 74.26 163.847 74.78C164.327 75.3 164.687 75.8933 164.927 76.56C165.18 77.2133 165.307 77.88 165.307 78.56V78.84C165.307 79.52 165.187 80.1867 164.947 80.84C164.707 81.4933 164.347 82.0867 163.867 82.62C163.4 83.14 162.82 83.56 162.127 83.88C161.434 84.1867 160.634 84.34 159.727 84.34ZM159.727 83C160.607 83 161.347 82.8067 161.947 82.42C162.56 82.02 163.027 81.5 163.347 80.86C163.667 80.2067 163.827 79.4867 163.827 78.7C163.827 77.9 163.66 77.18 163.327 76.54C163.007 75.8867 162.54 75.3733 161.927 75C161.314 74.6133 160.58 74.42 159.727 74.42C158.887 74.42 158.16 74.6133 157.547 75C156.934 75.3733 156.46 75.8867 156.127 76.54C155.807 77.18 155.647 77.9 155.647 78.7C155.647 79.4867 155.807 80.2067 156.127 80.86C156.447 81.5 156.907 82.02 157.507 82.42C158.12 82.8067 158.86 83 159.727 83ZM168.366 84V73.42H169.566V77.84H169.446C169.446 76.2933 169.786 75.1533 170.466 74.42C171.146 73.6733 172.212 73.3 173.666 73.3H174.006V74.66H173.386C172.239 74.66 171.366 74.96 170.766 75.56C170.166 76.1467 169.866 77.0133 169.866 78.16V84H168.366ZM183.632 84L179.372 79.04H177.652L182.672 73.42H184.272L179.772 78.44L179.872 77.62L185.392 84H183.632ZM176.432 84V69.4H177.932V84H176.432ZM190.632 84.3C189.272 84.3 188.225 84.0067 187.492 83.42C186.758 82.82 186.385 82.02 186.372 81.02H187.772C187.798 81.5267 188.025 81.9867 188.452 82.4C188.892 82.8133 189.618 83.02 190.632 83.02C191.578 83.02 192.285 82.8267 192.752 82.44C193.232 82.04 193.472 81.56 193.472 81C193.472 80.48 193.272 80.08 192.872 79.8C192.485 79.5067 191.918 79.32 191.172 79.24L189.972 79.12C189.012 79.0133 188.232 78.72 187.632 78.24C187.045 77.7467 186.752 77.0733 186.752 76.22C186.752 75.5933 186.912 75.0467 187.232 74.58C187.552 74.1133 187.998 73.7533 188.572 73.5C189.158 73.2333 189.845 73.1 190.632 73.1C191.765 73.1 192.685 73.3667 193.392 73.9C194.112 74.4333 194.478 75.1933 194.492 76.18H193.092C193.078 75.6733 192.865 75.2467 192.452 74.9C192.038 74.5533 191.432 74.38 190.632 74.38C189.805 74.38 189.185 74.56 188.772 74.92C188.372 75.28 188.172 75.72 188.172 76.24C188.172 76.68 188.325 77.0467 188.632 77.34C188.938 77.62 189.418 77.7933 190.072 77.86L191.272 77.98C192.338 78.1 193.205 78.4067 193.872 78.9C194.552 79.3933 194.892 80.1 194.892 81.02C194.892 81.6467 194.712 82.2133 194.352 82.72C194.005 83.2133 193.512 83.6 192.872 83.88C192.232 84.16 191.485 84.3 190.632 84.3Z" fill="#717171"/>
</svg>
