<svg width="350" height="23" viewBox="0 0 350 23" fill="none" xmlns="http://www.w3.org/2000/svg">
<path d="M0.000796974 17.592V0.0720406H1.8248V17.592H0.000796974ZM6.92761 17.592V4.89604H8.36761V10.224H8.07961C8.07961 9.04004 8.25561 8.02404 8.60761 7.17604C8.95961 6.32804 9.48761 5.67204 10.1916 5.20804C10.8956 4.74404 11.7836 4.51204 12.8556 4.51204H12.9276C14.5276 4.51204 15.7196 5.01604 16.5036 6.02404C17.2876 7.01604 17.6796 8.41604 17.6796 10.224V17.592H15.9036V9.84004C15.9036 8.73604 15.5996 7.84804 14.9916 7.17604C14.3836 6.50404 13.5356 6.16804 12.4476 6.16804C11.3276 6.16804 10.4236 6.52004 9.73561 7.22404C9.06361 7.91204 8.72761 8.82404 8.72761 9.96004V17.592H6.92761ZM26.77 17.736C25.89 17.736 25.13 17.608 24.49 17.352C23.85 17.096 23.354 16.664 23.002 16.056C22.65 15.432 22.474 14.6 22.474 13.56V0.88804H24.202V13.824C24.202 14.56 24.402 15.128 24.802 15.528C25.202 15.912 25.77 16.104 26.506 16.104H28.786V17.736H26.77ZM20.194 6.26404V4.89604H28.786V6.26404H20.194ZM37.4504 18C36.3624 18 35.4184 17.816 34.6184 17.448C33.8184 17.064 33.1624 16.56 32.6504 15.936C32.1384 15.296 31.7544 14.584 31.4984 13.8C31.2584 13.016 31.1384 12.208 31.1384 11.376V11.04C31.1384 10.224 31.2584 9.42404 31.4984 8.64004C31.7544 7.85604 32.1384 7.15204 32.6504 6.52804C33.1624 5.90404 33.8024 5.40804 34.5704 5.04004C35.3544 4.65604 36.2664 4.46404 37.3064 4.46404C38.6344 4.46404 39.7384 4.76004 40.6184 5.35204C41.5144 5.94404 42.1864 6.70404 42.6344 7.63204C43.0824 8.54404 43.3064 9.52804 43.3064 10.584V11.52H31.9544V10.128H42.0584L41.6024 10.824C41.6024 9.88004 41.4344 9.05604 41.0984 8.35204C40.7784 7.63204 40.2984 7.07204 39.6584 6.67204C39.0344 6.25604 38.2504 6.04804 37.3064 6.04804C36.3144 6.04804 35.4904 6.28004 34.8344 6.74404C34.1784 7.20804 33.6824 7.82404 33.3464 8.59204C33.0264 9.36004 32.8664 10.232 32.8664 11.208C32.8664 12.168 33.0264 13.048 33.3464 13.848C33.6824 14.632 34.1864 15.256 34.8584 15.72C35.5464 16.184 36.4104 16.416 37.4504 16.416C38.5544 16.416 39.4504 16.168 40.1384 15.672C40.8264 15.16 41.2504 14.56 41.4104 13.872H43.0904C42.9304 14.72 42.5944 15.456 42.0824 16.08C41.5704 16.688 40.9224 17.16 40.1384 17.496C39.3544 17.832 38.4584 18 37.4504 18ZM46.8914 17.592V0.0720406H48.6914V17.592H46.8914ZM45.0434 1.53604V0.0720406H48.6914V1.53604H45.0434ZM53.4773 17.592V0.0720406H55.2773V17.592H53.4773ZM51.6293 1.53604V0.0720406H55.2773V1.53604H51.6293ZM60.6152 17.592V4.89604H62.3912V17.592H60.6152ZM58.5752 6.33604V4.89604H62.3912V6.33604H58.5752ZM60.9992 2.54404C60.5672 2.54404 60.2392 2.43204 60.0152 2.20804C59.8072 1.96804 59.7032 1.67204 59.7032 1.32004C59.7032 0.96804 59.8072 0.68004 60.0152 0.45604C60.2392 0.21604 60.5672 0.0960402 60.9992 0.0960402C61.4312 0.0960402 61.7512 0.21604 61.9592 0.45604C62.1672 0.68004 62.2712 0.96804 62.2712 1.32004C62.2712 1.67204 62.1672 1.96804 61.9592 2.20804C61.7512 2.43204 61.4312 2.54404 60.9992 2.54404ZM71.9631 22.56C71.3711 22.56 70.7711 22.528 70.1631 22.464C69.5711 22.416 69.0031 22.352 68.4591 22.272V20.736C69.0351 20.816 69.6351 20.88 70.2591 20.928C70.8991 20.992 71.4991 21.024 72.0591 21.024C73.2751 21.024 74.2431 20.864 74.9631 20.544C75.6831 20.224 76.1951 19.712 76.4991 19.008C76.8191 18.32 76.9791 17.408 76.9791 16.272V13.728L77.6511 11.952C77.6191 13.168 77.3631 14.216 76.8831 15.096C76.4031 15.96 75.7551 16.624 74.9391 17.088C74.1231 17.552 73.1951 17.784 72.1551 17.784C71.2431 17.784 70.4111 17.608 69.6591 17.256C68.9231 16.904 68.2911 16.424 67.7631 15.816C67.2351 15.192 66.8271 14.488 66.5391 13.704C66.2511 12.92 66.1071 12.096 66.1071 11.232V10.896C66.1071 10.048 66.2511 9.24004 66.5391 8.47204C66.8271 7.68804 67.2351 7.00004 67.7631 6.40804C68.2911 5.80004 68.9311 5.32804 69.6831 4.99204C70.4511 4.64004 71.2991 4.46404 72.2271 4.46404C73.3471 4.46404 74.3231 4.71204 75.1551 5.20804C75.9871 5.70404 76.6351 6.39204 77.0991 7.27204C77.5791 8.15204 77.8351 9.18404 77.8671 10.368L77.2911 10.056V4.89604H78.7071V16.2C78.7071 17.72 78.4831 18.944 78.0351 19.872C77.5871 20.8 76.8671 21.48 75.8751 21.912C74.8991 22.344 73.5951 22.56 71.9631 22.56ZM72.4671 16.128C73.3311 16.128 74.0991 15.944 74.7711 15.576C75.4591 15.192 76.0031 14.656 76.4031 13.968C76.8031 13.28 77.0031 12.48 77.0031 11.568V10.392C77.0031 9.51204 76.7951 8.74404 76.3791 8.08804C75.9791 7.43204 75.4431 6.92004 74.7711 6.55204C74.0991 6.18404 73.3311 6.00004 72.4671 6.00004C71.5391 6.00004 70.7311 6.22404 70.0431 6.67204C69.3551 7.12004 68.8271 7.72804 68.4591 8.49604C68.0911 9.24804 67.9071 10.104 67.9071 11.064C67.9071 12.04 68.0911 12.912 68.4591 13.68C68.8431 14.448 69.3791 15.048 70.0671 15.48C70.7551 15.912 71.5551 16.128 72.4671 16.128ZM88.5207 18C87.4327 18 86.4887 17.816 85.6887 17.448C84.8887 17.064 84.2327 16.56 83.7207 15.936C83.2087 15.296 82.8247 14.584 82.5687 13.8C82.3287 13.016 82.2087 12.208 82.2087 11.376V11.04C82.2087 10.224 82.3287 9.42404 82.5687 8.64004C82.8247 7.85604 83.2087 7.15204 83.7207 6.52804C84.2327 5.90404 84.8727 5.40804 85.6407 5.04004C86.4247 4.65604 87.3367 4.46404 88.3767 4.46404C89.7047 4.46404 90.8087 4.76004 91.6887 5.35204C92.5847 5.94404 93.2567 6.70404 93.7047 7.63204C94.1527 8.54404 94.3767 9.52804 94.3767 10.584V11.52H83.0247V10.128H93.1287L92.6727 10.824C92.6727 9.88004 92.5047 9.05604 92.1687 8.35204C91.8487 7.63204 91.3687 7.07204 90.7287 6.67204C90.1047 6.25604 89.3207 6.04804 88.3767 6.04804C87.3847 6.04804 86.5607 6.28004 85.9047 6.74404C85.2487 7.20804 84.7527 7.82404 84.4167 8.59204C84.0967 9.36004 83.9367 10.232 83.9367 11.208C83.9367 12.168 84.0967 13.048 84.4167 13.848C84.7527 14.632 85.2567 15.256 85.9287 15.72C86.6167 16.184 87.4807 16.416 88.5207 16.416C89.6247 16.416 90.5207 16.168 91.2087 15.672C91.8967 15.16 92.3207 14.56 92.4807 13.872H94.1607C94.0007 14.72 93.6647 15.456 93.1527 16.08C92.6407 16.688 91.9927 17.16 91.2087 17.496C90.4247 17.832 89.5287 18 88.5207 18ZM97.8417 17.592V4.89604H99.2817V10.224H98.9937C98.9937 9.04004 99.1697 8.02404 99.5217 7.17604C99.8737 6.32804 100.402 5.67204 101.106 5.20804C101.81 4.74404 102.698 4.51204 103.77 4.51204H103.842C105.442 4.51204 106.634 5.01604 107.418 6.02404C108.202 7.01604 108.594 8.41604 108.594 10.224V17.592H106.818V9.84004C106.818 8.73604 106.514 7.84804 105.906 7.17604C105.298 6.50404 104.45 6.16804 103.362 6.16804C102.242 6.16804 101.338 6.52004 100.65 7.22404C99.9777 7.91204 99.6417 8.82404 99.6417 9.96004V17.592H97.8417ZM118.428 18C117.356 18 116.42 17.816 115.62 17.448C114.836 17.064 114.18 16.552 113.652 15.912C113.124 15.256 112.724 14.536 112.452 13.752C112.196 12.968 112.068 12.176 112.068 11.376V11.04C112.068 10.224 112.196 9.43204 112.452 8.66404C112.724 7.88004 113.124 7.17604 113.652 6.55204C114.18 5.91204 114.836 5.40804 115.62 5.04004C116.42 4.65604 117.34 4.46404 118.38 4.46404C119.436 4.46404 120.372 4.65604 121.188 5.04004C122.02 5.42404 122.692 5.96804 123.204 6.67204C123.716 7.37604 124.02 8.20804 124.116 9.16804H122.388C122.244 8.28804 121.828 7.56004 121.14 6.98404C120.468 6.39204 119.548 6.09604 118.38 6.09604C117.372 6.09604 116.532 6.32804 115.86 6.79204C115.204 7.24004 114.708 7.85604 114.372 8.64004C114.036 9.40804 113.868 10.264 113.868 11.208C113.868 12.136 114.036 13 114.372 13.8C114.708 14.584 115.212 15.216 115.884 15.696C116.556 16.16 117.404 16.392 118.428 16.392C119.212 16.392 119.892 16.256 120.468 15.984C121.06 15.696 121.532 15.312 121.884 14.832C122.252 14.352 122.468 13.824 122.532 13.248H124.26C124.196 14.208 123.892 15.048 123.348 15.768C122.82 16.472 122.132 17.024 121.284 17.424C120.436 17.808 119.484 18 118.428 18ZM132.864 18C131.776 18 130.832 17.816 130.032 17.448C129.232 17.064 128.576 16.56 128.064 15.936C127.552 15.296 127.168 14.584 126.912 13.8C126.672 13.016 126.552 12.208 126.552 11.376V11.04C126.552 10.224 126.672 9.42404 126.912 8.64004C127.168 7.85604 127.552 7.15204 128.064 6.52804C128.576 5.90404 129.216 5.40804 129.984 5.04004C130.768 4.65604 131.68 4.46404 132.72 4.46404C134.048 4.46404 135.152 4.76004 136.032 5.35204C136.928 5.94404 137.6 6.70404 138.048 7.63204C138.496 8.54404 138.72 9.52804 138.72 10.584V11.52H127.368V10.128H137.472L137.016 10.824C137.016 9.88004 136.848 9.05604 136.512 8.35204C136.192 7.63204 135.712 7.07204 135.072 6.67204C134.448 6.25604 133.664 6.04804 132.72 6.04804C131.728 6.04804 130.904 6.28004 130.248 6.74404C129.592 7.20804 129.096 7.82404 128.76 8.59204C128.44 9.36004 128.28 10.232 128.28 11.208C128.28 12.168 128.44 13.048 128.76 13.848C129.096 14.632 129.6 15.256 130.272 15.72C130.96 16.184 131.824 16.416 132.864 16.416C133.968 16.416 134.864 16.168 135.552 15.672C136.24 15.16 136.664 14.56 136.824 13.872H138.504C138.344 14.72 138.008 15.456 137.496 16.08C136.984 16.688 136.336 17.16 135.552 17.496C134.768 17.832 133.872 18 132.864 18ZM141.997 21.264L140.533 20.736L142.621 14.952L144.133 15.504L141.997 21.264ZM347.419 17.592V15.216H349.675V17.592H347.419Z" fill="#717171"/>
<path d="M160.362 18C159.242 18 158.258 17.752 157.41 17.256C156.578 16.76 155.922 16.064 155.442 15.168C154.978 14.272 154.73 13.24 154.698 12.072H155.25V17.592H153.81V0.0720406H155.61V8.83204L154.914 10.44C154.946 9.16004 155.202 8.08004 155.682 7.20004C156.178 6.30404 156.834 5.62404 157.65 5.16004C158.482 4.69604 159.426 4.46404 160.482 4.46404C161.41 4.46404 162.25 4.64004 163.002 4.99204C163.754 5.34404 164.394 5.82404 164.922 6.43204C165.466 7.04004 165.874 7.74404 166.146 8.54404C166.434 9.32804 166.578 10.16 166.578 11.04V11.376C166.578 12.24 166.434 13.072 166.146 13.872C165.858 14.656 165.442 15.36 164.898 15.984C164.37 16.608 163.722 17.104 162.954 17.472C162.186 17.824 161.322 18 160.362 18ZM160.17 16.416C161.13 16.416 161.954 16.184 162.642 15.72C163.33 15.256 163.858 14.632 164.226 13.848C164.594 13.064 164.778 12.184 164.778 11.208C164.778 10.216 164.586 9.33604 164.202 8.56804C163.834 7.78404 163.298 7.16804 162.594 6.72004C161.906 6.27204 161.098 6.04804 160.17 6.04804C159.306 6.04804 158.522 6.24004 157.818 6.62404C157.114 7.00804 156.554 7.55204 156.138 8.25604C155.738 8.94404 155.538 9.76004 155.538 10.704V11.88C155.538 12.776 155.738 13.568 156.138 14.256C156.554 14.928 157.114 15.456 157.818 15.84C158.522 16.224 159.306 16.416 160.17 16.416ZM175.521 18C174.433 18 173.489 17.816 172.689 17.448C171.889 17.064 171.233 16.56 170.721 15.936C170.209 15.296 169.825 14.584 169.569 13.8C169.329 13.016 169.209 12.208 169.209 11.376V11.04C169.209 10.224 169.329 9.42404 169.569 8.64004C169.825 7.85604 170.209 7.15204 170.721 6.52804C171.233 5.90404 171.873 5.40804 172.641 5.04004C173.425 4.65604 174.337 4.46404 175.377 4.46404C176.705 4.46404 177.809 4.76004 178.689 5.35204C179.585 5.94404 180.257 6.70404 180.705 7.63204C181.153 8.54404 181.377 9.52804 181.377 10.584V11.52H170.025V10.128H180.129L179.673 10.824C179.673 9.88004 179.505 9.05604 179.169 8.35204C178.849 7.63204 178.369 7.07204 177.729 6.67204C177.105 6.25604 176.321 6.04804 175.377 6.04804C174.385 6.04804 173.561 6.28004 172.905 6.74404C172.249 7.20804 171.753 7.82404 171.417 8.59204C171.097 9.36004 170.937 10.232 170.937 11.208C170.937 12.168 171.097 13.048 171.417 13.848C171.753 14.632 172.257 15.256 172.929 15.72C173.617 16.184 174.481 16.416 175.521 16.416C176.625 16.416 177.521 16.168 178.209 15.672C178.897 15.16 179.321 14.56 179.481 13.872H181.161C181.001 14.72 180.665 15.456 180.153 16.08C179.641 16.688 178.993 17.16 178.209 17.496C177.425 17.832 176.529 18 175.521 18ZM185.202 17.592V3.91204C185.202 2.58404 185.546 1.60004 186.234 0.960041C186.922 0.32004 187.954 4.00543e-05 189.33 4.00543e-05H190.938V1.53604H188.994C188.322 1.53604 187.81 1.71204 187.458 2.06404C187.106 2.41604 186.93 2.91204 186.93 3.55204V17.592H185.202ZM183.354 6.38404V4.99204H191.202V6.38404H183.354ZM199.412 18C198.324 18 197.364 17.816 196.532 17.448C195.716 17.064 195.02 16.56 194.444 15.936C193.884 15.296 193.452 14.584 193.148 13.8C192.86 13.016 192.716 12.216 192.716 11.4V11.064C192.716 10.248 192.868 9.44804 193.172 8.66404C193.476 7.86404 193.916 7.15204 194.492 6.52804C195.068 5.90404 195.764 5.40804 196.58 5.04004C197.412 4.65604 198.356 4.46404 199.412 4.46404C200.484 4.46404 201.428 4.65604 202.244 5.04004C203.076 5.40804 203.78 5.90404 204.356 6.52804C204.932 7.15204 205.364 7.86404 205.652 8.66404C205.956 9.44804 206.108 10.248 206.108 11.064V11.4C206.108 12.216 205.964 13.016 205.676 13.8C205.388 14.584 204.956 15.296 204.38 15.936C203.82 16.56 203.124 17.064 202.292 17.448C201.46 17.816 200.5 18 199.412 18ZM199.412 16.392C200.468 16.392 201.356 16.16 202.076 15.696C202.812 15.216 203.372 14.592 203.756 13.824C204.14 13.04 204.332 12.176 204.332 11.232C204.332 10.272 204.132 9.40804 203.732 8.64004C203.348 7.85604 202.788 7.24004 202.052 6.79204C201.316 6.32804 200.436 6.09604 199.412 6.09604C198.404 6.09604 197.532 6.32804 196.796 6.79204C196.06 7.24004 195.492 7.85604 195.092 8.64004C194.708 9.40804 194.516 10.272 194.516 11.232C194.516 12.176 194.708 13.04 195.092 13.824C195.476 14.592 196.028 15.216 196.748 15.696C197.484 16.16 198.372 16.392 199.412 16.392ZM209.779 17.592V4.89604H211.219V10.2H211.075C211.075 8.34404 211.483 6.97604 212.299 6.09604C213.115 5.20004 214.395 4.75204 216.139 4.75204H216.547V6.38404H215.803C214.427 6.38404 213.379 6.74404 212.659 7.46404C211.939 8.16804 211.579 9.20804 211.579 10.584V17.592H209.779ZM224.599 18C223.511 18 222.567 17.816 221.767 17.448C220.967 17.064 220.311 16.56 219.799 15.936C219.287 15.296 218.903 14.584 218.647 13.8C218.407 13.016 218.287 12.208 218.287 11.376V11.04C218.287 10.224 218.407 9.42404 218.647 8.64004C218.903 7.85604 219.287 7.15204 219.799 6.52804C220.311 5.90404 220.951 5.40804 221.719 5.04004C222.503 4.65604 223.415 4.46404 224.455 4.46404C225.783 4.46404 226.887 4.76004 227.767 5.35204C228.663 5.94404 229.335 6.70404 229.783 7.63204C230.231 8.54404 230.455 9.52804 230.455 10.584V11.52H219.103V10.128H229.207L228.751 10.824C228.751 9.88004 228.583 9.05604 228.247 8.35204C227.927 7.63204 227.447 7.07204 226.807 6.67204C226.183 6.25604 225.399 6.04804 224.455 6.04804C223.463 6.04804 222.639 6.28004 221.983 6.74404C221.327 7.20804 220.831 7.82404 220.495 8.59204C220.175 9.36004 220.015 10.232 220.015 11.208C220.015 12.168 220.175 13.048 220.495 13.848C220.831 14.632 221.335 15.256 222.007 15.72C222.695 16.184 223.559 16.416 224.599 16.416C225.703 16.416 226.599 16.168 227.287 15.672C227.975 15.16 228.399 14.56 228.559 13.872H230.239C230.079 14.72 229.743 15.456 229.231 16.08C228.719 16.688 228.071 17.16 227.287 17.496C226.503 17.832 225.607 18 224.599 18ZM240.193 17.592V4.89604H241.969V17.592H240.193ZM238.153 6.33604V4.89604H241.969V6.33604H238.153ZM240.577 2.54404C240.145 2.54404 239.817 2.43204 239.593 2.20804C239.385 1.96804 239.281 1.67204 239.281 1.32004C239.281 0.96804 239.385 0.68004 239.593 0.45604C239.817 0.21604 240.145 0.0960402 240.577 0.0960402C241.009 0.0960402 241.329 0.21604 241.537 0.45604C241.745 0.68004 241.849 0.96804 241.849 1.32004C241.849 1.67204 241.745 1.96804 241.537 2.20804C241.329 2.43204 241.009 2.54404 240.577 2.54404ZM246.693 17.592V4.89604H248.133V10.224H247.845C247.845 9.04004 248.021 8.02404 248.373 7.17604C248.725 6.32804 249.253 5.67204 249.957 5.20804C250.661 4.74404 251.549 4.51204 252.621 4.51204H252.693C254.293 4.51204 255.485 5.01604 256.269 6.02404C257.053 7.01604 257.445 8.41604 257.445 10.224V17.592H255.669V9.84004C255.669 8.73604 255.365 7.84804 254.757 7.17604C254.149 6.50404 253.301 6.16804 252.213 6.16804C251.093 6.16804 250.189 6.52004 249.501 7.22404C248.829 7.91204 248.493 8.82404 248.493 9.96004V17.592H246.693ZM266.536 17.736C265.656 17.736 264.896 17.608 264.256 17.352C263.616 17.096 263.12 16.664 262.768 16.056C262.416 15.432 262.24 14.6 262.24 13.56V0.88804H263.968V13.824C263.968 14.56 264.168 15.128 264.568 15.528C264.968 15.912 265.536 16.104 266.272 16.104H268.552V17.736H266.536ZM259.96 6.26404V4.89604H268.552V6.26404H259.96ZM277.216 18C276.128 18 275.184 17.816 274.384 17.448C273.584 17.064 272.928 16.56 272.416 15.936C271.904 15.296 271.52 14.584 271.264 13.8C271.024 13.016 270.904 12.208 270.904 11.376V11.04C270.904 10.224 271.024 9.42404 271.264 8.64004C271.52 7.85604 271.904 7.15204 272.416 6.52804C272.928 5.90404 273.568 5.40804 274.336 5.04004C275.12 4.65604 276.032 4.46404 277.072 4.46404C278.4 4.46404 279.504 4.76004 280.384 5.35204C281.28 5.94404 281.952 6.70404 282.4 7.63204C282.848 8.54404 283.072 9.52804 283.072 10.584V11.52H271.72V10.128H281.824L281.368 10.824C281.368 9.88004 281.2 9.05604 280.864 8.35204C280.544 7.63204 280.064 7.07204 279.424 6.67204C278.8 6.25604 278.016 6.04804 277.072 6.04804C276.08 6.04804 275.256 6.28004 274.6 6.74404C273.944 7.20804 273.448 7.82404 273.112 8.59204C272.792 9.36004 272.632 10.232 272.632 11.208C272.632 12.168 272.792 13.048 273.112 13.848C273.448 14.632 273.952 15.256 274.624 15.72C275.312 16.184 276.176 16.416 277.216 16.416C278.32 16.416 279.216 16.168 279.904 15.672C280.592 15.16 281.016 14.56 281.176 13.872H282.856C282.696 14.72 282.36 15.456 281.848 16.08C281.336 16.688 280.688 17.16 279.904 17.496C279.12 17.832 278.224 18 277.216 18ZM286.537 17.592V4.89604H287.977V10.2H287.833C287.833 8.34404 288.241 6.97604 289.057 6.09604C289.873 5.20004 291.153 4.75204 292.897 4.75204H293.305V6.38404H292.561C291.185 6.38404 290.137 6.74404 289.417 7.46404C288.697 8.16804 288.337 9.20804 288.337 10.584V17.592H286.537ZM296.624 17.592V3.91204C296.624 2.58404 296.968 1.60004 297.656 0.960041C298.344 0.32004 299.376 4.00543e-05 300.752 4.00543e-05H302.36V1.53604H300.416C299.744 1.53604 299.232 1.71204 298.88 2.06404C298.528 2.41604 298.352 2.91204 298.352 3.55204V17.592H296.624ZM294.776 6.38404V4.99204H302.624V6.38404H294.776ZM312.898 17.592V13.776H312.61V9.26404C312.61 8.32004 312.362 7.60004 311.866 7.10404C311.37 6.59204 310.602 6.33604 309.562 6.33604C309.082 6.33604 308.594 6.34404 308.098 6.36004C307.618 6.37604 307.154 6.40004 306.706 6.43204C306.274 6.44804 305.89 6.47204 305.554 6.50404V4.92004C305.906 4.88804 306.266 4.85604 306.634 4.82404C307.002 4.79204 307.378 4.77604 307.762 4.77604C308.162 4.76004 308.546 4.75204 308.914 4.75204C310.21 4.75204 311.25 4.91204 312.034 5.23204C312.834 5.55204 313.418 6.05604 313.786 6.74404C314.154 7.41604 314.338 8.31204 314.338 9.43204V17.592H312.898ZM308.602 17.928C307.706 17.928 306.914 17.768 306.226 17.448C305.538 17.128 305.002 16.664 304.618 16.056C304.25 15.448 304.066 14.712 304.066 13.848C304.066 13 304.258 12.28 304.642 11.688C305.042 11.096 305.61 10.648 306.346 10.344C307.098 10.024 308.002 9.86404 309.058 9.86404H312.778V11.232H308.938C307.93 11.232 307.154 11.48 306.61 11.976C306.082 12.456 305.818 13.088 305.818 13.872C305.818 14.672 306.098 15.312 306.658 15.792C307.218 16.256 307.978 16.488 308.938 16.488C309.53 16.488 310.098 16.384 310.642 16.176C311.186 15.952 311.642 15.584 312.01 15.072C312.378 14.544 312.578 13.824 312.61 12.912L313.138 13.656C313.074 14.6 312.85 15.392 312.466 16.032C312.082 16.656 311.562 17.128 310.906 17.448C310.25 17.768 309.482 17.928 308.602 17.928ZM324.186 18C323.114 18 322.178 17.816 321.378 17.448C320.594 17.064 319.938 16.552 319.41 15.912C318.882 15.256 318.482 14.536 318.21 13.752C317.954 12.968 317.826 12.176 317.826 11.376V11.04C317.826 10.224 317.954 9.43204 318.21 8.66404C318.482 7.88004 318.882 7.17604 319.41 6.55204C319.938 5.91204 320.594 5.40804 321.378 5.04004C322.178 4.65604 323.098 4.46404 324.138 4.46404C325.194 4.46404 326.13 4.65604 326.946 5.04004C327.778 5.42404 328.45 5.96804 328.962 6.67204C329.474 7.37604 329.778 8.20804 329.874 9.16804H328.146C328.002 8.28804 327.586 7.56004 326.898 6.98404C326.226 6.39204 325.306 6.09604 324.138 6.09604C323.13 6.09604 322.29 6.32804 321.618 6.79204C320.962 7.24004 320.466 7.85604 320.13 8.64004C319.794 9.40804 319.626 10.264 319.626 11.208C319.626 12.136 319.794 13 320.13 13.8C320.466 14.584 320.97 15.216 321.642 15.696C322.314 16.16 323.162 16.392 324.186 16.392C324.97 16.392 325.65 16.256 326.226 15.984C326.818 15.696 327.29 15.312 327.642 14.832C328.01 14.352 328.226 13.824 328.29 13.248H330.018C329.954 14.208 329.65 15.048 329.106 15.768C328.578 16.472 327.89 17.024 327.042 17.424C326.194 17.808 325.242 18 324.186 18ZM338.622 18C337.534 18 336.59 17.816 335.79 17.448C334.99 17.064 334.334 16.56 333.822 15.936C333.31 15.296 332.926 14.584 332.67 13.8C332.43 13.016 332.31 12.208 332.31 11.376V11.04C332.31 10.224 332.43 9.42404 332.67 8.64004C332.926 7.85604 333.31 7.15204 333.822 6.52804C334.334 5.90404 334.974 5.40804 335.742 5.04004C336.526 4.65604 337.438 4.46404 338.478 4.46404C339.806 4.46404 340.91 4.76004 341.79 5.35204C342.686 5.94404 343.358 6.70404 343.806 7.63204C344.254 8.54404 344.478 9.52804 344.478 10.584V11.52H333.126V10.128H343.23L342.774 10.824C342.774 9.88004 342.606 9.05604 342.27 8.35204C341.95 7.63204 341.47 7.07204 340.83 6.67204C340.206 6.25604 339.422 6.04804 338.478 6.04804C337.486 6.04804 336.662 6.28004 336.006 6.74404C335.35 7.20804 334.854 7.82404 334.518 8.59204C334.198 9.36004 334.038 10.232 334.038 11.208C334.038 12.168 334.198 13.048 334.518 13.848C334.854 14.632 335.358 15.256 336.03 15.72C336.718 16.184 337.582 16.416 338.622 16.416C339.726 16.416 340.622 16.168 341.31 15.672C341.998 15.16 342.422 14.56 342.582 13.872H344.262C344.102 14.72 343.766 15.456 343.254 16.08C342.742 16.688 342.094 17.16 341.31 17.496C340.526 17.832 339.63 18 338.622 18Z" fill="url(#paint0_radial_944_595)"/>
<defs>
<radialGradient id="paint0_radial_944_595" cx="0" cy="0" r="1" gradientUnits="userSpaceOnUse" gradientTransform="translate(174.717 9.59204) rotate(90) scale(15 177.5)">
<stop stop-color="#5A69EA"/>
<stop offset="1" stop-color="#BF8BCA"/>
</radialGradient>
</defs>
</svg>
