<svg width="68" height="16" viewBox="0 0 68 16" fill="none" xmlns="http://www.w3.org/2000/svg">
<path d="M7.4593 15.32C6.19263 15.32 5.09263 15.0933 4.1593 14.64C3.22596 14.1866 2.45263 13.5866 1.8393 12.84C1.22596 12.0933 0.765964 11.28 0.459297 10.4C0.15263 9.51998 -0.000703037 8.65998 -0.000703037 7.81998V7.45998C-0.000703037 6.56665 0.15263 5.67998 0.459297 4.79998C0.779297 3.90665 1.25263 3.09998 1.8793 2.37998C2.50596 1.65998 3.28596 1.08665 4.2193 0.65998C5.15263 0.21998 6.23263 -1.97887e-05 7.4593 -1.97887e-05C8.6993 -1.97887e-05 9.7793 0.21998 10.6993 0.65998C11.6326 1.08665 12.4126 1.65998 13.0393 2.37998C13.666 3.09998 14.1326 3.90665 14.4393 4.79998C14.7593 5.67998 14.9193 6.56665 14.9193 7.45998V7.83998C14.9193 8.67998 14.766 9.53998 14.4593 10.42C14.166 11.2866 13.706 12.0933 13.0793 12.84C12.466 13.5866 11.6926 14.1866 10.7593 14.64C9.82596 15.0933 8.72596 15.32 7.4593 15.32ZM7.4593 13.92C8.39263 13.92 9.22596 13.7533 9.9593 13.42C10.6926 13.0733 11.3126 12.6066 11.8193 12.02C12.326 11.42 12.7126 10.7466 12.9793 9.99998C13.246 9.25331 13.3793 8.47331 13.3793 7.65998C13.3793 6.80665 13.246 6.00665 12.9793 5.25998C12.7126 4.51331 12.3193 3.85331 11.7993 3.27998C11.2926 2.69331 10.6726 2.23331 9.9393 1.89998C9.20596 1.56665 8.3793 1.39998 7.4593 1.39998C6.55263 1.39998 5.73263 1.56665 4.9993 1.89998C4.26596 2.23331 3.6393 2.69331 3.1193 3.27998C2.61263 3.85331 2.2193 4.51331 1.9393 5.25998C1.67263 6.00665 1.5393 6.80665 1.5393 7.65998C1.5393 8.47331 1.67263 9.25331 1.9393 9.99998C2.20596 10.7466 2.59263 11.42 3.0993 12.02C3.60596 12.6066 4.22596 13.0733 4.9593 13.42C5.70596 13.7533 6.5393 13.92 7.4593 13.92ZM21.903 15.1C21.1697 15.1 20.5364 14.9933 20.003 14.78C19.4697 14.5666 19.0564 14.2066 18.763 13.7C18.4697 13.18 18.323 12.4866 18.323 11.62V1.05998H19.763V11.84C19.763 12.4533 19.9297 12.9266 20.263 13.26C20.5964 13.58 21.0697 13.74 21.683 13.74H23.583V15.1H21.903ZM16.423 5.53998V4.39998H23.583V5.53998H16.423ZM26.481 14.98V0.37998H27.981V8.63998L27.541 8.97998C27.541 7.99331 27.681 7.13331 27.961 6.39998C28.2543 5.66665 28.6877 5.09998 29.261 4.69998C29.8477 4.28665 30.581 4.07998 31.461 4.07998H31.541C32.821 4.07998 33.7877 4.49998 34.441 5.33998C35.1077 6.17998 35.441 7.34665 35.441 8.83998V14.98H33.961V8.51998C33.961 7.57331 33.701 6.82665 33.181 6.27998C32.661 5.73331 31.961 5.45998 31.081 5.45998C30.1343 5.45998 29.381 5.76665 28.821 6.37998C28.261 6.97998 27.981 7.77331 27.981 8.75998V14.98H26.481ZM43.5963 15.32C42.6897 15.32 41.903 15.1666 41.2363 14.86C40.5697 14.54 40.023 14.12 39.5963 13.6C39.1697 13.0666 38.8497 12.4733 38.6363 11.82C38.4363 11.1666 38.3363 10.4933 38.3363 9.79998V9.51998C38.3363 8.83998 38.4363 8.17331 38.6363 7.51998C38.8497 6.86665 39.1697 6.27998 39.5963 5.75998C40.023 5.23998 40.5563 4.82665 41.1963 4.51998C41.8497 4.19998 42.6097 4.03998 43.4763 4.03998C44.583 4.03998 45.503 4.28665 46.2363 4.77998C46.983 5.27331 47.543 5.90665 47.9163 6.67998C48.2897 7.43998 48.4763 8.25998 48.4763 9.13998V9.91998H39.0163V8.75998H47.4363L47.0563 9.33998C47.0563 8.55331 46.9163 7.86665 46.6363 7.27998C46.3697 6.67998 45.9697 6.21331 45.4363 5.87998C44.9163 5.53331 44.263 5.35998 43.4763 5.35998C42.6497 5.35998 41.963 5.55331 41.4163 5.93998C40.8697 6.32665 40.4563 6.83998 40.1763 7.47998C39.9097 8.11998 39.7763 8.84665 39.7763 9.65998C39.7763 10.46 39.9097 11.1933 40.1763 11.86C40.4563 12.5133 40.8763 13.0333 41.4363 13.42C42.0097 13.8066 42.7297 14 43.5963 14C44.5163 14 45.263 13.7933 45.8363 13.38C46.4097 12.9533 46.763 12.4533 46.8963 11.88H48.2963C48.163 12.5866 47.883 13.2 47.4563 13.72C47.0297 14.2266 46.4897 14.62 45.8363 14.9C45.183 15.18 44.4363 15.32 43.5963 15.32ZM51.3638 14.98V4.39998H52.5638V8.81998H52.4438C52.4438 7.27331 52.7838 6.13331 53.4638 5.39998C54.1438 4.65331 55.2105 4.27998 56.6638 4.27998H57.0038V5.63998H56.3838C55.2372 5.63998 54.3638 5.93998 53.7638 6.53998C53.1638 7.12665 52.8638 7.99331 52.8638 9.13998V14.98H51.3638ZM62.7702 15.28C61.4102 15.28 60.3636 14.9866 59.6302 14.4C58.8969 13.8 58.5236 13 58.5102 12H59.9102C59.9369 12.5066 60.1636 12.9666 60.5902 13.38C61.0302 13.7933 61.7569 14 62.7702 14C63.7169 14 64.4236 13.8066 64.8902 13.42C65.3702 13.02 65.6102 12.54 65.6102 11.98C65.6102 11.46 65.4102 11.06 65.0102 10.78C64.6236 10.4866 64.0569 10.3 63.3102 10.22L62.1102 10.1C61.1502 9.99331 60.3702 9.69998 59.7702 9.21998C59.1836 8.72665 58.8902 8.05331 58.8902 7.19998C58.8902 6.57331 59.0502 6.02665 59.3702 5.55998C59.6902 5.09331 60.1369 4.73331 60.7102 4.47998C61.2969 4.21331 61.9836 4.07998 62.7702 4.07998C63.9036 4.07998 64.8236 4.34665 65.5302 4.87998C66.2502 5.41331 66.6169 6.17331 66.6302 7.15998H65.2302C65.2169 6.65331 65.0036 6.22665 64.5902 5.87998C64.1769 5.53331 63.5702 5.35998 62.7702 5.35998C61.9436 5.35998 61.3236 5.53998 60.9102 5.89998C60.5102 6.25998 60.3102 6.69998 60.3102 7.21998C60.3102 7.65998 60.4636 8.02665 60.7702 8.31998C61.0769 8.59998 61.5569 8.77331 62.2102 8.83998L63.4102 8.95998C64.4769 9.07998 65.3436 9.38665 66.0102 9.87998C66.6902 10.3733 67.0302 11.08 67.0302 12C67.0302 12.6266 66.8502 13.1933 66.4902 13.7C66.1436 14.1933 65.6502 14.58 65.0102 14.86C64.3702 15.14 63.6236 15.28 62.7702 15.28Z" fill="#717171"/>
</svg>
