<svg width="157" height="37" viewBox="0 0 157 37" fill="none" xmlns="http://www.w3.org/2000/svg">
<path d="M13.5849 36.768C10.6409 36.768 8.16086 36.304 6.14486 35.376C4.12886 34.416 2.59286 33.104 1.53686 31.44C0.51286 29.744 0.000859618 27.84 0.000859618 25.728H3.64886C3.64886 27.072 3.96886 28.336 4.60886 29.52C5.28086 30.672 6.33686 31.616 7.77686 32.352C9.24886 33.056 11.1849 33.408 13.5849 33.408C15.7929 33.408 17.6169 33.088 19.0569 32.448C20.5289 31.808 21.6169 30.944 22.3209 29.856C23.0569 28.768 23.4249 27.552 23.4249 26.208C23.4249 24.512 22.7529 23.104 21.4089 21.984C20.0969 20.832 18.1129 20.144 15.4569 19.92L11.4249 19.536C8.41686 19.28 6.01686 18.352 4.22486 16.752C2.46486 15.12 1.58486 12.976 1.58486 10.32C1.58486 8.30403 2.06486 6.52803 3.02486 4.99202C3.98486 3.45603 5.34486 2.24003 7.10486 1.34403C8.89686 0.448026 11.0409 2.57492e-05 13.5369 2.57492e-05C16.0649 2.57492e-05 18.2249 0.464025 20.0169 1.39202C21.8409 2.28802 23.2329 3.53603 24.1929 5.13603C25.1529 6.73603 25.6329 8.59203 25.6329 10.704H21.9849C21.9849 9.42402 21.6969 8.22402 21.1209 7.10403C20.5449 5.98403 19.6329 5.08803 18.3849 4.41603C17.1369 3.71203 15.5209 3.36003 13.5369 3.36003C11.6489 3.36003 10.0809 3.68003 8.83286 4.32002C7.61686 4.96002 6.70486 5.80802 6.09686 6.86403C5.52086 7.92003 5.23286 9.07203 5.23286 10.32C5.23286 11.888 5.79286 13.216 6.91286 14.304C8.03286 15.392 9.64886 16.016 11.7609 16.176L15.7929 16.56C18.1609 16.752 20.1769 17.28 21.8409 18.144C23.5369 18.976 24.8329 20.08 25.7289 21.456C26.6249 22.8 27.0729 24.384 27.0729 26.208C27.0729 28.256 26.5129 30.08 25.3929 31.68C24.3049 33.28 22.7529 34.528 20.7369 35.424C18.7209 36.32 16.3369 36.768 13.5849 36.768ZM44.2216 36.24C42.4616 36.24 40.9416 35.984 39.6616 35.472C38.3816 34.96 37.3896 34.096 36.6856 32.88C35.9816 31.632 35.6296 29.968 35.6296 27.888V2.54402H39.0856V28.416C39.0856 29.888 39.4856 31.024 40.2856 31.824C41.0856 32.592 42.2216 32.976 43.6936 32.976H48.2536V36.24H44.2216ZM31.0696 13.296V10.56H48.2536V13.296H31.0696ZM63.9927 36.672C60.9527 36.672 58.6327 35.696 57.0327 33.744C55.4327 31.76 54.6327 29.008 54.6327 25.488V10.512H58.1847V26.208C58.1847 28.416 58.7607 30.176 59.9127 31.488C61.0967 32.768 62.7287 33.408 64.8087 33.408C66.9847 33.408 68.7127 32.72 69.9927 31.344C71.3047 29.968 71.9607 28.128 71.9607 25.824V10.512H75.5607V35.952H72.6807V25.344H73.2567C73.2567 27.712 72.9207 29.744 72.2487 31.44C71.5767 33.104 70.5687 34.4 69.2247 35.328C67.8807 36.224 66.1847 36.672 64.1367 36.672H63.9927ZM95.3904 36.768C93.5344 36.768 91.8384 36.432 90.3024 35.76C88.7984 35.056 87.4864 34.096 86.3664 32.88C85.2784 31.632 84.4304 30.224 83.8224 28.656C83.2464 27.056 82.9584 25.36 82.9584 23.568V22.896C82.9584 21.168 83.2464 19.52 83.8224 17.952C84.3984 16.352 85.2144 14.944 86.2704 13.728C87.3584 12.48 88.6544 11.504 90.1584 10.8C91.6944 10.064 93.4064 9.69602 95.2944 9.69602C97.4384 9.69602 99.3264 10.16 100.958 11.088C102.59 12.016 103.902 13.36 104.894 15.12C105.886 16.848 106.414 18.976 106.478 21.504L104.894 18.528V0.912025H108.494V35.952H105.614V24.672H106.766C106.702 27.328 106.142 29.568 105.086 31.392C104.062 33.184 102.702 34.528 101.006 35.424C99.3424 36.32 97.4704 36.768 95.3904 36.768ZM95.8704 33.6C97.5984 33.6 99.1504 33.216 100.526 32.448C101.934 31.68 103.038 30.592 103.838 29.184C104.638 27.744 105.038 26.096 105.038 24.24V21.936C105.038 20.144 104.638 18.576 103.838 17.232C103.038 15.856 101.934 14.784 100.526 14.016C99.1504 13.248 97.5824 12.864 95.8224 12.864C93.9344 12.864 92.2864 13.328 90.8784 14.256C89.5024 15.152 88.4304 16.384 87.6624 17.952C86.9264 19.52 86.5584 21.28 86.5584 23.232C86.5584 25.248 86.9424 27.04 87.7104 28.608C88.4784 30.176 89.5664 31.408 90.9744 32.304C92.3824 33.168 94.0144 33.6 95.8704 33.6ZM119.131 35.952V10.56H122.683V35.952H119.131ZM115.051 13.44V10.56H122.683V13.44H115.051ZM119.899 5.85602C119.035 5.85602 118.379 5.63202 117.931 5.18402C117.515 4.70403 117.307 4.11203 117.307 3.40802C117.307 2.70402 117.515 2.12802 117.931 1.68002C118.379 1.20002 119.035 0.960025 119.899 0.960025C120.763 0.960025 121.403 1.20002 121.819 1.68002C122.235 2.12802 122.443 2.70402 122.443 3.40802C122.443 4.11203 122.235 4.70403 121.819 5.18402C121.403 5.63202 120.763 5.85602 119.899 5.85602ZM143.507 36.768C141.331 36.768 139.411 36.4 137.747 35.664C136.115 34.896 134.723 33.888 133.571 32.64C132.451 31.36 131.587 29.936 130.979 28.368C130.403 26.8 130.115 25.2 130.115 23.568V22.896C130.115 21.264 130.419 19.664 131.027 18.096C131.635 16.496 132.515 15.072 133.667 13.824C134.819 12.576 136.211 11.584 137.843 10.848C139.507 10.08 141.395 9.69602 143.507 9.69602C145.651 9.69602 147.539 10.08 149.171 10.848C150.835 11.584 152.243 12.576 153.395 13.824C154.547 15.072 155.411 16.496 155.987 18.096C156.595 19.664 156.899 21.264 156.899 22.896V23.568C156.899 25.2 156.611 26.8 156.035 28.368C155.459 29.936 154.595 31.36 153.443 32.64C152.323 33.888 150.931 34.896 149.267 35.664C147.603 36.4 145.683 36.768 143.507 36.768ZM143.507 33.552C145.619 33.552 147.395 33.088 148.835 32.16C150.307 31.2 151.427 29.952 152.195 28.416C152.963 26.848 153.347 25.12 153.347 23.232C153.347 21.312 152.947 19.584 152.147 18.048C151.379 16.48 150.259 15.248 148.787 14.352C147.315 13.424 145.555 12.96 143.507 12.96C141.491 12.96 139.747 13.424 138.275 14.352C136.803 15.248 135.667 16.48 134.867 18.048C134.099 19.584 133.715 21.312 133.715 23.232C133.715 25.12 134.099 26.848 134.867 28.416C135.635 29.952 136.739 31.2 138.179 32.16C139.651 33.088 141.427 33.552 143.507 33.552Z" fill="#0D0D0D"/>
</svg>
