<svg width="540" height="46" viewBox="0 0 540 46" fill="none" xmlns="http://www.w3.org/2000/svg">
<path d="M9.69602 35.9519L1.56164e-05 0.911903H3.74402L12.528 33.5999L10.848 32.6399H15.504L13.68 33.5999L20.832 2.4479H24.288L16.416 35.9519H9.69602ZM30.768 35.9519L22.128 2.4479H25.68L33.648 33.5999L31.872 32.6399H36.624L34.8 33.5999L42.72 0.911903H46.368L37.488 35.9519H30.768ZM52.6189 35.9519V0.911903H56.2189V20.7359L55.1629 21.5519C55.1629 19.1839 55.4989 17.1199 56.1709 15.3599C56.8749 13.5999 57.9149 12.2399 59.2909 11.2799C60.6989 10.2879 62.4589 9.7919 64.5709 9.7919H64.7629C67.8349 9.7919 70.1549 10.7999 71.7229 12.8159C73.3229 14.8319 74.1229 17.6319 74.1229 21.2159V35.9519H70.5709V20.4479C70.5709 18.1759 69.9469 16.3839 68.6989 15.0719C67.4509 13.7599 65.7709 13.1039 63.6589 13.1039C61.3869 13.1039 59.5789 13.8399 58.2349 15.3119C56.8909 16.7519 56.2189 18.6559 56.2189 21.0239V35.9519H52.6189ZM98.5436 35.9519V28.3199H97.9676V19.2959C97.9676 17.4079 97.4716 15.9679 96.4796 14.9759C95.4876 13.9519 93.9516 13.4399 91.8716 13.4399C90.9116 13.4399 89.9356 13.4559 88.9436 13.4879C87.9836 13.5199 87.0556 13.5679 86.1596 13.6319C85.2956 13.6639 84.5276 13.7119 83.8556 13.7759V10.6079C84.5596 10.5439 85.2796 10.4799 86.0156 10.4159C86.7516 10.3519 87.5036 10.3199 88.2716 10.3199C89.0716 10.2879 89.8396 10.2719 90.5756 10.2719C93.1676 10.2719 95.2476 10.5919 96.8156 11.2319C98.4156 11.8719 99.5836 12.8799 100.32 14.2559C101.056 15.5999 101.424 17.3919 101.424 19.6319V35.9519H98.5436ZM89.9516 36.6239C88.1596 36.6239 86.5756 36.3039 85.1996 35.6639C83.8236 35.0239 82.7516 34.0959 81.9836 32.8799C81.2476 31.6639 80.8796 30.1919 80.8796 28.4639C80.8796 26.7679 81.2636 25.3279 82.0316 24.1439C82.8316 22.9599 83.9676 22.0639 85.4396 21.4559C86.9436 20.8159 88.7516 20.4959 90.8636 20.4959H98.3036V23.2319H90.6236C88.6076 23.2319 87.0556 23.7279 85.9676 24.7199C84.9116 25.6799 84.3836 26.9439 84.3836 28.5119C84.3836 30.1119 84.9436 31.3919 86.0636 32.3519C87.1836 33.2799 88.7036 33.7439 90.6236 33.7439C91.8076 33.7439 92.9436 33.5359 94.0316 33.1199C95.1196 32.6719 96.0316 31.9359 96.7676 30.9119C97.5036 29.8559 97.9036 28.4159 97.9676 26.5919L99.0236 28.0799C98.8956 29.9679 98.4476 31.5519 97.6796 32.8319C96.9116 34.0799 95.8716 35.0239 94.5596 35.6639C93.2476 36.3039 91.7116 36.6239 89.9516 36.6239ZM119.632 36.2399C117.872 36.2399 116.352 35.9839 115.072 35.4719C113.792 34.9599 112.8 34.0959 112.096 32.8799C111.392 31.6319 111.04 29.9679 111.04 27.8879V2.5439H114.496V28.4159C114.496 29.8879 114.896 31.0239 115.696 31.8239C116.496 32.5919 117.632 32.9759 119.104 32.9759H123.664V36.2399H119.632ZM106.48 13.2959V10.5599H123.664V13.2959H106.48ZM143.166 35.9519V10.5599H146.718V35.9519H143.166ZM139.086 13.4399V10.5599H146.718V13.4399H139.086ZM143.934 5.8559C143.07 5.8559 142.414 5.6319 141.966 5.1839C141.55 4.7039 141.342 4.1119 141.342 3.4079C141.342 2.7039 141.55 2.1279 141.966 1.6799C142.414 1.1999 143.07 0.959903 143.934 0.959903C144.798 0.959903 145.438 1.1999 145.854 1.6799C146.27 2.1279 146.478 2.7039 146.478 3.4079C146.478 4.1119 146.27 4.7039 145.854 5.1839C145.438 5.6319 144.798 5.8559 143.934 5.8559ZM164.182 36.6719C160.918 36.6719 158.406 35.9679 156.646 34.5599C154.886 33.1199 153.99 31.1999 153.958 28.7999H157.318C157.382 30.0159 157.926 31.1199 158.95 32.1119C160.006 33.1039 161.75 33.5999 164.182 33.5999C166.454 33.5999 168.15 33.1359 169.27 32.2079C170.422 31.2479 170.998 30.0959 170.998 28.7519C170.998 27.5039 170.518 26.5439 169.558 25.8719C168.63 25.1679 167.27 24.7199 165.478 24.5279L162.598 24.2399C160.294 23.9839 158.422 23.2799 156.982 22.1279C155.574 20.9439 154.87 19.3279 154.87 17.2799C154.87 15.7759 155.254 14.4639 156.022 13.3439C156.79 12.2239 157.862 11.3599 159.238 10.7519C160.646 10.1119 162.294 9.7919 164.182 9.7919C166.902 9.7919 169.11 10.4319 170.806 11.7119C172.534 12.9919 173.414 14.8159 173.446 17.1839H170.086C170.054 15.9679 169.542 14.9439 168.55 14.1119C167.558 13.2799 166.102 12.8639 164.182 12.8639C162.198 12.8639 160.71 13.2959 159.718 14.1599C158.758 15.0239 158.278 16.0799 158.278 17.3279C158.278 18.3839 158.646 19.2639 159.382 19.9679C160.118 20.6399 161.27 21.0559 162.838 21.2159L165.718 21.5039C168.278 21.7919 170.358 22.5279 171.958 23.7119C173.59 24.8959 174.406 26.5919 174.406 28.7999C174.406 30.3039 173.974 31.6639 173.11 32.8799C172.278 34.0639 171.094 34.9919 169.558 35.6639C168.022 36.3359 166.23 36.6719 164.182 36.6719Z" fill="#0D0D0D"/>
<path d="M204.823 36.7679C201.879 36.7679 199.399 36.3039 197.383 35.3759C195.367 34.4159 193.831 33.1039 192.775 31.4399C191.751 29.7439 191.239 27.8399 191.239 25.7279H194.887C194.887 27.0719 195.207 28.3359 195.847 29.5199C196.519 30.6719 197.575 31.6159 199.015 32.3519C200.487 33.0559 202.423 33.4079 204.823 33.4079C207.031 33.4079 208.855 33.0879 210.295 32.4479C211.767 31.8079 212.855 30.9439 213.559 29.8559C214.295 28.7679 214.663 27.5519 214.663 26.2079C214.663 24.5119 213.991 23.1039 212.647 21.9839C211.335 20.8319 209.351 20.1439 206.695 19.9199L202.663 19.5359C199.655 19.2799 197.255 18.3519 195.463 16.7519C193.703 15.1199 192.823 12.9759 192.823 10.3199C192.823 8.3039 193.303 6.5279 194.263 4.9919C195.223 3.4559 196.583 2.2399 198.343 1.3439C200.135 0.447904 202.279 -9.63211e-05 204.775 -9.63211e-05C207.303 -9.63211e-05 209.463 0.463903 211.255 1.3919C213.079 2.2879 214.471 3.5359 215.431 5.1359C216.391 6.7359 216.871 8.5919 216.871 10.7039H213.223C213.223 9.4239 212.935 8.2239 212.359 7.1039C211.783 5.9839 210.871 5.0879 209.623 4.4159C208.375 3.7119 206.759 3.3599 204.775 3.3599C202.887 3.3599 201.319 3.6799 200.071 4.3199C198.855 4.9599 197.943 5.8079 197.335 6.8639C196.759 7.9199 196.471 9.0719 196.471 10.3199C196.471 11.8879 197.031 13.2159 198.151 14.3039C199.271 15.3919 200.887 16.0159 202.999 16.1759L207.031 16.5599C209.399 16.7519 211.415 17.2799 213.079 18.1439C214.775 18.9759 216.071 20.0799 216.967 21.4559C217.863 22.7999 218.311 24.3839 218.311 26.2079C218.311 28.2559 217.751 30.0799 216.631 31.6799C215.543 33.2799 213.991 34.5279 211.975 35.4239C209.959 36.3199 207.575 36.7679 204.823 36.7679ZM223.988 45.8399V42.6239H227.252C228.372 42.6239 229.332 42.4799 230.132 42.1919C230.932 41.9359 231.604 41.4719 232.148 40.7999C232.692 40.1279 233.156 39.1999 233.54 38.0159L242.084 10.5599H245.588L236.66 39.0239C236.148 40.6559 235.444 41.9679 234.548 42.9599C233.652 43.9839 232.58 44.7199 231.332 45.1679C230.084 45.6159 228.66 45.8399 227.06 45.8399H223.988ZM232.244 35.3279V32.3039H236.804V35.3279H232.244ZM231.812 35.3279L222.596 10.5599H226.292L235.172 35.3279H231.812ZM259.76 36.6719C256.496 36.6719 253.984 35.9679 252.224 34.5599C250.464 33.1199 249.568 31.1999 249.536 28.7999H252.896C252.96 30.0159 253.504 31.1199 254.528 32.1119C255.584 33.1039 257.328 33.5999 259.76 33.5999C262.032 33.5999 263.728 33.1359 264.848 32.2079C266 31.2479 266.576 30.0959 266.576 28.7519C266.576 27.5039 266.096 26.5439 265.136 25.8719C264.208 25.1679 262.848 24.7199 261.056 24.5279L258.176 24.2399C255.872 23.9839 254 23.2799 252.56 22.1279C251.152 20.9439 250.448 19.3279 250.448 17.2799C250.448 15.7759 250.832 14.4639 251.6 13.3439C252.368 12.2239 253.44 11.3599 254.816 10.7519C256.224 10.1119 257.872 9.7919 259.76 9.7919C262.48 9.7919 264.688 10.4319 266.384 11.7119C268.112 12.9919 268.992 14.8159 269.024 17.1839H265.664C265.632 15.9679 265.12 14.9439 264.128 14.1119C263.136 13.2799 261.68 12.8639 259.76 12.8639C257.776 12.8639 256.288 13.2959 255.296 14.1599C254.336 15.0239 253.856 16.0799 253.856 17.3279C253.856 18.3839 254.224 19.2639 254.96 19.9679C255.696 20.6399 256.848 21.0559 258.416 21.2159L261.296 21.5039C263.856 21.7919 265.936 22.5279 267.536 23.7119C269.168 24.8959 269.984 26.5919 269.984 28.7999C269.984 30.3039 269.552 31.6639 268.688 32.8799C267.856 34.0639 266.672 34.9919 265.136 35.6639C263.6 36.3359 261.808 36.6719 259.76 36.6719ZM286.366 36.2399C284.606 36.2399 283.086 35.9839 281.806 35.4719C280.526 34.9599 279.534 34.0959 278.83 32.8799C278.126 31.6319 277.774 29.9679 277.774 27.8879V2.5439H281.23V28.4159C281.23 29.8879 281.63 31.0239 282.43 31.8239C283.23 32.5919 284.366 32.9759 285.838 32.9759H290.398V36.2399H286.366ZM273.214 13.2959V10.5599H290.398V13.2959H273.214ZM307.727 36.7679C305.551 36.7679 303.663 36.3999 302.063 35.6639C300.463 34.8959 299.151 33.8879 298.127 32.6399C297.103 31.3599 296.335 29.9359 295.823 28.3679C295.343 26.7999 295.103 25.1839 295.103 23.5199V22.8479C295.103 21.2159 295.343 19.6159 295.823 18.0479C296.335 16.4799 297.103 15.0719 298.127 13.8239C299.151 12.5759 300.431 11.5839 301.967 10.8479C303.535 10.0799 305.359 9.6959 307.439 9.6959C310.095 9.6959 312.303 10.2879 314.063 11.4719C315.855 12.6559 317.199 14.1759 318.095 16.0319C318.991 17.8559 319.439 19.8239 319.439 21.9359V23.8079H296.735V21.0239H316.943L316.031 22.4159C316.031 20.5279 315.695 18.8799 315.023 17.4719C314.383 16.0319 313.423 14.9119 312.143 14.1119C310.895 13.2799 309.327 12.8639 307.439 12.8639C305.455 12.8639 303.807 13.3279 302.495 14.2559C301.183 15.1839 300.191 16.4159 299.519 17.9519C298.879 19.4879 298.559 21.2319 298.559 23.1839C298.559 25.1039 298.879 26.8639 299.519 28.4639C300.191 30.0319 301.199 31.2799 302.543 32.2079C303.919 33.1359 305.647 33.5999 307.727 33.5999C309.935 33.5999 311.727 33.1039 313.103 32.1119C314.479 31.0879 315.327 29.8879 315.647 28.5119H319.007C318.687 30.2079 318.015 31.6799 316.991 32.9279C315.967 34.1439 314.671 35.0879 313.103 35.7599C311.535 36.4319 309.743 36.7679 307.727 36.7679ZM326.369 35.9519V10.5119H329.249V21.2159H328.673C328.673 18.8799 328.993 16.8639 329.633 15.1679C330.305 13.4719 331.297 12.1599 332.609 11.2319C333.921 10.2719 335.585 9.7919 337.601 9.7919H337.745C339.761 9.7919 341.425 10.2559 342.737 11.1839C344.049 12.1119 345.025 13.4239 345.665 15.1199C346.305 16.8159 346.625 18.8479 346.625 21.2159H345.473C345.473 18.8799 345.793 16.8639 346.433 15.1679C347.105 13.4719 348.097 12.1599 349.409 11.2319C350.753 10.2719 352.433 9.7919 354.449 9.7919H354.593C356.609 9.7919 358.273 10.2559 359.585 11.1839C360.929 12.1119 361.921 13.4239 362.561 15.1199C363.233 16.8159 363.569 18.8479 363.569 21.2159V35.9519H359.969V20.3999C359.969 18.1599 359.425 16.3839 358.337 15.0719C357.249 13.7599 355.681 13.1039 353.633 13.1039C351.521 13.1039 349.841 13.7919 348.593 15.1679C347.377 16.5119 346.769 18.3359 346.769 20.6399V35.9519H343.169V20.3999C343.169 18.1599 342.625 16.3839 341.537 15.0719C340.449 13.7599 338.881 13.1039 336.833 13.1039C334.721 13.1039 333.041 13.7919 331.793 15.1679C330.577 16.5119 329.969 18.3359 329.969 20.6399V35.9519H326.369ZM395.792 36.7679C392.848 36.7679 390.368 36.3039 388.352 35.3759C386.336 34.4159 384.8 33.1039 383.744 31.4399C382.72 29.7439 382.208 27.8399 382.208 25.7279H385.856C385.856 27.0719 386.176 28.3359 386.816 29.5199C387.488 30.6719 388.544 31.6159 389.984 32.3519C391.456 33.0559 393.392 33.4079 395.792 33.4079C398 33.4079 399.824 33.0879 401.264 32.4479C402.736 31.8079 403.824 30.9439 404.528 29.8559C405.264 28.7679 405.632 27.5519 405.632 26.2079C405.632 24.5119 404.96 23.1039 403.616 21.9839C402.304 20.8319 400.32 20.1439 397.664 19.9199L393.632 19.5359C390.624 19.2799 388.224 18.3519 386.432 16.7519C384.672 15.1199 383.792 12.9759 383.792 10.3199C383.792 8.3039 384.272 6.5279 385.232 4.9919C386.192 3.4559 387.552 2.2399 389.312 1.3439C391.104 0.447904 393.248 -9.63211e-05 395.744 -9.63211e-05C398.272 -9.63211e-05 400.432 0.463903 402.224 1.3919C404.048 2.2879 405.44 3.5359 406.4 5.1359C407.36 6.7359 407.84 8.5919 407.84 10.7039H404.192C404.192 9.4239 403.904 8.2239 403.328 7.1039C402.752 5.9839 401.84 5.0879 400.592 4.4159C399.344 3.7119 397.728 3.3599 395.744 3.3599C393.856 3.3599 392.288 3.6799 391.04 4.3199C389.824 4.9599 388.912 5.8079 388.304 6.8639C387.728 7.9199 387.44 9.0719 387.44 10.3199C387.44 11.8879 388 13.2159 389.12 14.3039C390.24 15.3919 391.856 16.0159 393.968 16.1759L398 16.5599C400.368 16.7519 402.384 17.2799 404.048 18.1439C405.744 18.9759 407.04 20.0799 407.936 21.4559C408.832 22.7999 409.28 24.3839 409.28 26.2079C409.28 28.2559 408.72 30.0799 407.6 31.6799C406.512 33.2799 404.96 34.5279 402.944 35.4239C400.928 36.3199 398.544 36.7679 395.792 36.7679ZM426.429 36.2399C424.669 36.2399 423.149 35.9839 421.869 35.4719C420.589 34.9599 419.597 34.0959 418.893 32.8799C418.189 31.6319 417.837 29.9679 417.837 27.8879V2.5439H421.293V28.4159C421.293 29.8879 421.693 31.0239 422.493 31.8239C423.293 32.5919 424.429 32.9759 425.901 32.9759H430.461V36.2399H426.429ZM413.277 13.2959V10.5599H430.461V13.2959H413.277ZM446.2 36.6719C443.16 36.6719 440.84 35.6959 439.24 33.7439C437.64 31.7599 436.84 29.0079 436.84 25.4879V10.5119H440.392V26.2079C440.392 28.4159 440.968 30.1759 442.12 31.4879C443.304 32.7679 444.936 33.4079 447.016 33.4079C449.192 33.4079 450.92 32.7199 452.2 31.3439C453.512 29.9679 454.168 28.1279 454.168 25.8239V10.5119H457.768V35.9519H454.888V25.3439H455.464C455.464 27.7119 455.128 29.7439 454.456 31.4399C453.784 33.1039 452.776 34.3999 451.432 35.3279C450.088 36.2239 448.392 36.6719 446.344 36.6719H446.2ZM477.597 36.7679C475.741 36.7679 474.045 36.4319 472.509 35.7599C471.005 35.0559 469.693 34.0959 468.573 32.8799C467.485 31.6319 466.637 30.2239 466.029 28.6559C465.453 27.0559 465.165 25.3599 465.165 23.5679V22.8959C465.165 21.1679 465.453 19.5199 466.029 17.9519C466.605 16.3519 467.421 14.9439 468.477 13.7279C469.565 12.4799 470.861 11.5039 472.365 10.7999C473.901 10.0639 475.613 9.6959 477.501 9.6959C479.645 9.6959 481.533 10.1599 483.165 11.0879C484.797 12.0159 486.109 13.3599 487.101 15.1199C488.093 16.8479 488.621 18.9759 488.685 21.5039L487.101 18.5279V0.911903H490.701V35.9519H487.821V24.6719H488.973C488.909 27.3279 488.349 29.5679 487.293 31.3919C486.269 33.1839 484.909 34.5279 483.213 35.4239C481.549 36.3199 479.677 36.7679 477.597 36.7679ZM478.077 33.5999C479.805 33.5999 481.357 33.2159 482.733 32.4479C484.141 31.6799 485.245 30.5919 486.045 29.1839C486.845 27.7439 487.245 26.0959 487.245 24.2399V21.9359C487.245 20.1439 486.845 18.5759 486.045 17.2319C485.245 15.8559 484.141 14.7839 482.733 14.0159C481.357 13.2479 479.789 12.8639 478.029 12.8639C476.141 12.8639 474.493 13.3279 473.085 14.2559C471.709 15.1519 470.637 16.3839 469.869 17.9519C469.133 19.5199 468.765 21.2799 468.765 23.2319C468.765 25.2479 469.149 27.0399 469.917 28.6079C470.685 30.1759 471.773 31.4079 473.181 32.3039C474.589 33.1679 476.221 33.5999 478.077 33.5999ZM501.338 35.9519V10.5599H504.89V35.9519H501.338ZM497.258 13.4399V10.5599H504.89V13.4399H497.258ZM502.106 5.8559C501.242 5.8559 500.586 5.6319 500.138 5.1839C499.722 4.7039 499.514 4.1119 499.514 3.4079C499.514 2.7039 499.722 2.1279 500.138 1.6799C500.586 1.1999 501.242 0.959903 502.106 0.959903C502.97 0.959903 503.61 1.1999 504.026 1.6799C504.442 2.1279 504.65 2.7039 504.65 3.4079C504.65 4.1119 504.442 4.7039 504.026 5.1839C503.61 5.6319 502.97 5.8559 502.106 5.8559ZM525.714 36.7679C523.538 36.7679 521.618 36.3999 519.954 35.6639C518.322 34.8959 516.93 33.8879 515.778 32.6399C514.658 31.3599 513.794 29.9359 513.186 28.3679C512.61 26.7999 512.322 25.1999 512.322 23.5679V22.8959C512.322 21.2639 512.626 19.6639 513.234 18.0959C513.842 16.4959 514.722 15.0719 515.874 13.8239C517.026 12.5759 518.418 11.5839 520.05 10.8479C521.714 10.0799 523.602 9.6959 525.714 9.6959C527.858 9.6959 529.746 10.0799 531.378 10.8479C533.042 11.5839 534.45 12.5759 535.602 13.8239C536.754 15.0719 537.618 16.4959 538.194 18.0959C538.802 19.6639 539.106 21.2639 539.106 22.8959V23.5679C539.106 25.1999 538.818 26.7999 538.242 28.3679C537.666 29.9359 536.802 31.3599 535.65 32.6399C534.53 33.8879 533.138 34.8959 531.474 35.6639C529.81 36.3999 527.89 36.7679 525.714 36.7679ZM525.714 33.5519C527.826 33.5519 529.602 33.0879 531.042 32.1599C532.514 31.1999 533.634 29.9519 534.402 28.4159C535.17 26.8479 535.554 25.1199 535.554 23.2319C535.554 21.3119 535.154 19.5839 534.354 18.0479C533.586 16.4799 532.466 15.2479 530.994 14.3519C529.522 13.4239 527.762 12.9599 525.714 12.9599C523.698 12.9599 521.954 13.4239 520.482 14.3519C519.01 15.2479 517.874 16.4799 517.074 18.0479C516.306 19.5839 515.922 21.3119 515.922 23.2319C515.922 25.1199 516.306 26.8479 517.074 28.4159C517.842 29.9519 518.946 31.1999 520.386 32.1599C521.858 33.0879 523.634 33.5519 525.714 33.5519Z" fill="url(#paint0_radial_581_1382)"/>
<defs>
<radialGradient id="paint0_radial_581_1382" cx="0" cy="0" r="1" gradientUnits="userSpaceOnUse" gradientTransform="translate(367.916 19.9519) rotate(90) scale(30 369.5)">
<stop stop-color="#5A69EA"/>
<stop offset="1" stop-color="#BF8BCA"/>
</radialGradient>
</defs>
</svg>
