<svg width="226" height="28" viewBox="0 0 226 28" fill="none" xmlns="http://www.w3.org/2000/svg">
<path d="M7.2725 26.964L0.000499994 0.683989H2.8085L9.3965 25.2L8.1365 24.48H11.6285L10.2605 25.2L15.6245 1.83599H18.2165L12.3125 26.964H7.2725ZM23.0765 26.964L16.5965 1.83599H19.2605L25.2365 25.2L23.9045 24.48H27.4685L26.1005 25.2L32.0405 0.683989H34.7765L28.1165 26.964H23.0765ZM39.4647 26.964V0.683989H42.1647V15.552L41.3727 16.164C41.3727 14.388 41.6247 12.84 42.1287 11.52C42.6567 10.2 43.4367 9.17999 44.4687 8.45999C45.5247 7.71599 46.8447 7.34399 48.4287 7.34399H48.5727C50.8767 7.34399 52.6167 8.09999 53.7927 9.61199C54.9927 11.124 55.5927 13.224 55.5927 15.912V26.964H52.9287V15.336C52.9287 13.632 52.4607 12.288 51.5247 11.304C50.5887 10.32 49.3287 9.82799 47.7447 9.82799C46.0407 9.82799 44.6847 10.38 43.6767 11.484C42.6687 12.564 42.1647 13.992 42.1647 15.768V26.964H39.4647ZM70.8482 27.576C69.2162 27.576 67.7762 27.3 66.5282 26.748C65.3042 26.172 64.2602 25.416 63.3962 24.48C62.5562 23.52 61.9082 22.452 61.4522 21.276C61.0202 20.1 60.8042 18.9 60.8042 17.676V17.172C60.8042 15.948 61.0322 14.748 61.4882 13.572C61.9442 12.372 62.6042 11.304 63.4682 10.368C64.3322 9.43199 65.3762 8.68799 66.6002 8.13599C67.8482 7.55999 69.2642 7.27199 70.8482 7.27199C72.4562 7.27199 73.8722 7.55999 75.0962 8.13599C76.3442 8.68799 77.4002 9.43199 78.2642 10.368C79.1282 11.304 79.7762 12.372 80.2082 13.572C80.6642 14.748 80.8922 15.948 80.8922 17.172V17.676C80.8922 18.9 80.6762 20.1 80.2442 21.276C79.8122 22.452 79.1642 23.52 78.3002 24.48C77.4602 25.416 76.4162 26.172 75.1682 26.748C73.9202 27.3 72.4802 27.576 70.8482 27.576ZM70.8482 25.164C72.4322 25.164 73.7642 24.816 74.8442 24.12C75.9482 23.4 76.7882 22.464 77.3642 21.312C77.9402 20.136 78.2282 18.84 78.2282 17.424C78.2282 15.984 77.9282 14.688 77.3282 13.536C76.7522 12.36 75.9122 11.436 74.8082 10.764C73.7042 10.068 72.3842 9.71999 70.8482 9.71999C69.3362 9.71999 68.0282 10.068 66.9242 10.764C65.8202 11.436 64.9682 12.36 64.3682 13.536C63.7922 14.688 63.5042 15.984 63.5042 17.424C63.5042 18.84 63.7922 20.136 64.3682 21.312C64.9442 22.464 65.7722 23.4 66.8522 24.12C67.9562 24.816 69.2882 25.164 70.8482 25.164ZM100.129 26.964L104.197 8.53199H107.977L112.693 26.964H110.353L105.637 8.63999H106.501L102.397 26.964H100.129ZM98.5806 26.964V24.768H101.857V26.964H98.5806ZM97.9326 26.964L92.4246 7.91999H95.0166L100.453 26.964H97.9326ZM110.965 26.964V24.768H114.169V26.964H110.965ZM112.369 26.964L117.121 7.91999H119.605L114.745 26.964H112.369ZM132.218 27.576C130.586 27.576 129.17 27.3 127.97 26.748C126.77 26.172 125.786 25.416 125.018 24.48C124.25 23.52 123.674 22.452 123.29 21.276C122.93 20.1 122.75 18.888 122.75 17.64V17.136C122.75 15.912 122.93 14.712 123.29 13.536C123.674 12.36 124.25 11.304 125.018 10.368C125.786 9.43199 126.746 8.68799 127.898 8.13599C129.074 7.55999 130.442 7.27199 132.002 7.27199C133.994 7.27199 135.65 7.71599 136.97 8.60399C138.314 9.49199 139.322 10.632 139.994 12.024C140.666 13.392 141.002 14.868 141.002 16.452V17.856H123.974V15.768H139.13L138.446 16.812C138.446 15.396 138.194 14.16 137.69 13.104C137.21 12.024 136.49 11.184 135.53 10.584C134.594 9.95999 133.418 9.64799 132.002 9.64799C130.514 9.64799 129.278 9.99599 128.294 10.692C127.31 11.388 126.566 12.312 126.062 13.464C125.582 14.616 125.342 15.924 125.342 17.388C125.342 18.828 125.582 20.148 126.062 21.348C126.566 22.524 127.322 23.46 128.33 24.156C129.362 24.852 130.658 25.2 132.218 25.2C133.874 25.2 135.218 24.828 136.25 24.084C137.282 23.316 137.918 22.416 138.158 21.384H140.678C140.438 22.656 139.934 23.76 139.166 24.696C138.398 25.608 137.426 26.316 136.25 26.82C135.074 27.324 133.73 27.576 132.218 27.576ZM166.193 26.964V21.24H165.761V14.472C165.761 13.056 165.389 11.976 164.645 11.232C163.901 10.464 162.749 10.08 161.189 10.08C160.469 10.08 159.737 10.092 158.993 10.116C158.273 10.14 157.577 10.176 156.905 10.224C156.257 10.248 155.681 10.284 155.177 10.332V7.95599C155.705 7.90799 156.245 7.85999 156.797 7.81199C157.349 7.76399 157.913 7.73999 158.489 7.73999C159.089 7.71599 159.665 7.70399 160.217 7.70399C162.161 7.70399 163.721 7.94399 164.897 8.42399C166.097 8.90399 166.973 9.65999 167.525 10.692C168.077 11.7 168.353 13.044 168.353 14.724V26.964H166.193ZM159.749 27.468C158.405 27.468 157.217 27.228 156.185 26.748C155.153 26.268 154.349 25.572 153.773 24.66C153.221 23.748 152.945 22.644 152.945 21.348C152.945 20.076 153.233 18.996 153.809 18.108C154.409 17.22 155.261 16.548 156.365 16.092C157.493 15.612 158.849 15.372 160.433 15.372H166.013V17.424H160.253C158.741 17.424 157.577 17.796 156.761 18.54C155.969 19.26 155.573 20.208 155.573 21.384C155.573 22.584 155.993 23.544 156.833 24.264C157.673 24.96 158.813 25.308 160.253 25.308C161.141 25.308 161.993 25.152 162.809 24.84C163.625 24.504 164.309 23.952 164.861 23.184C165.413 22.392 165.713 21.312 165.761 19.944L166.553 21.06C166.457 22.476 166.121 23.664 165.545 24.624C164.969 25.56 164.189 26.268 163.205 26.748C162.221 27.228 161.069 27.468 159.749 27.468ZM175.097 26.964V7.91999H177.257V15.876H177.041C177.041 13.092 177.653 11.04 178.877 9.71999C180.101 8.37599 182.021 7.70399 184.637 7.70399H185.249V10.152H184.133C182.069 10.152 180.497 10.692 179.417 11.772C178.337 12.828 177.797 14.388 177.797 16.452V26.964H175.097ZM197.327 27.576C195.695 27.576 194.279 27.3 193.079 26.748C191.879 26.172 190.895 25.416 190.127 24.48C189.359 23.52 188.783 22.452 188.399 21.276C188.039 20.1 187.859 18.888 187.859 17.64V17.136C187.859 15.912 188.039 14.712 188.399 13.536C188.783 12.36 189.359 11.304 190.127 10.368C190.895 9.43199 191.855 8.68799 193.007 8.13599C194.183 7.55999 195.551 7.27199 197.111 7.27199C199.103 7.27199 200.759 7.71599 202.079 8.60399C203.423 9.49199 204.431 10.632 205.103 12.024C205.775 13.392 206.111 14.868 206.111 16.452V17.856H189.083V15.768H204.239L203.555 16.812C203.555 15.396 203.303 14.16 202.799 13.104C202.319 12.024 201.599 11.184 200.639 10.584C199.703 9.95999 198.527 9.64799 197.111 9.64799C195.623 9.64799 194.387 9.99599 193.403 10.692C192.419 11.388 191.675 12.312 191.171 13.464C190.691 14.616 190.451 15.924 190.451 17.388C190.451 18.828 190.691 20.148 191.171 21.348C191.675 22.524 192.431 23.46 193.439 24.156C194.471 24.852 195.767 25.2 197.327 25.2C198.983 25.2 200.327 24.828 201.359 24.084C202.391 23.316 203.027 22.416 203.267 21.384H205.787C205.547 22.656 205.043 23.76 204.275 24.696C203.507 25.608 202.535 26.316 201.359 26.82C200.183 27.324 198.839 27.576 197.327 27.576ZM214.919 19.692V13.032H217.007C218.831 13.032 220.211 12.528 221.147 11.52C222.083 10.488 222.551 9.21599 222.551 7.70399C222.551 6.59999 222.323 5.65199 221.867 4.85999C221.411 4.06799 220.775 3.45599 219.959 3.02399C219.167 2.59199 218.255 2.37599 217.223 2.37599C216.071 2.37599 215.063 2.61599 214.199 3.09599C213.359 3.57599 212.699 4.24799 212.219 5.11199C211.763 5.97599 211.535 6.97199 211.535 8.09999H208.943C208.943 6.63599 209.255 5.29199 209.879 4.06799C210.527 2.84399 211.463 1.85999 212.687 1.11599C213.935 0.371988 215.447 -1.12057e-05 217.223 -1.12057e-05C218.831 -1.12057e-05 220.223 0.347989 221.399 1.04399C222.599 1.71599 223.523 2.61599 224.171 3.74399C224.819 4.87199 225.143 6.11999 225.143 7.48799V7.88399C225.143 9.22799 224.831 10.464 224.207 11.592C223.583 12.72 222.647 13.62 221.399 14.292C220.151 14.964 218.603 15.3 216.755 15.3L217.655 13.968L217.619 19.692H214.919ZM214.595 26.964V23.4H217.943V26.964H214.595Z" fill="#0D0D0D"/>
</svg>
