<svg width="16" height="13" viewBox="0 0 16 13" fill="none" xmlns="http://www.w3.org/2000/svg">
<path d="M9.93378 0.330131L9.87281 2.08908L10.1926 2.10016C11.0188 2.1288 11.68 2.29848 12.1762 2.60919C12.6466 2.89233 12.9903 3.37119 13.207 4.04577C13.4238 4.72035 13.5128 5.6173 13.4739 6.73663L13.3825 9.37505L14.1492 8.04081C13.993 7.92866 13.7825 7.84132 13.5179 7.77878C13.2532 7.71624 12.9743 7.67989 12.6811 7.66973C12.0149 7.64663 11.4616 7.82757 11.0213 8.21255C10.5811 8.59752 10.3485 9.14979 10.3235 9.86936C10.3004 10.5356 10.4814 11.0889 10.8663 11.5292C11.2513 11.9694 11.7903 12.2016 12.4832 12.2256C12.9629 12.2422 13.4201 12.138 13.8548 11.9129C14.2629 11.6869 14.6099 11.2987 14.8958 10.7483C15.1551 10.197 15.3027 9.40159 15.3387 8.36222L15.3651 7.60267C15.4307 5.71048 15.2678 4.25062 14.8765 3.22312C14.4595 2.16804 13.8577 1.44008 13.0711 1.03926C12.2854 0.611777 11.3463 0.379098 10.2536 0.341218L9.93378 0.330131ZM0.408257 -9.44647e-05L0.347279 1.75885L0.667087 1.76994C1.49326 1.79858 2.15444 1.96825 2.65064 2.27897C3.12111 2.5621 3.46473 3.04096 3.68149 3.71554C3.89825 4.39013 3.98722 5.28708 3.94842 6.40641L3.85695 9.04482L4.62364 7.71058C4.46743 7.59844 4.257 7.5111 3.99234 7.44856C3.72768 7.38602 3.44877 7.34966 3.15561 7.3395C2.48935 7.3164 1.93608 7.49734 1.49581 7.88232C1.05554 8.2673 0.822934 8.81957 0.797989 9.53914C0.774891 10.2054 0.955831 10.7587 1.34081 11.1989C1.72579 11.6392 2.26473 11.8714 2.95765 11.8954C3.43736 11.912 3.89458 11.8078 4.32931 11.5827C4.73738 11.3567 5.08437 10.9685 5.37028 10.4181C5.62954 9.86673 5.77719 9.07137 5.81322 8.03199L5.83955 7.27245C5.90515 5.38025 5.74229 3.9204 5.35099 2.89289C4.93396 1.83781 4.33216 1.10986 3.54557 0.70903C2.75991 0.281552 1.82074 0.0488727 0.728065 0.0109924L0.408257 -9.44647e-05Z" fill="#717171"/>
</svg>
