<svg width="536" height="125" viewBox="0 0 536 125" fill="none" xmlns="http://www.w3.org/2000/svg">
<path d="M8.16 33.184V29.968H16.32C18.208 29.968 19.744 29.616 20.928 28.912C22.112 28.176 22.992 27.216 23.568 26.032C24.144 24.816 24.432 23.472 24.432 22C24.432 20.496 24.144 19.152 23.568 17.968C22.992 16.752 22.112 15.792 20.928 15.088C19.744 14.384 18.208 14.032 16.32 14.032H8.16V10.816H15.696C18.512 10.816 20.832 11.28 22.656 12.208C24.512 13.136 25.888 14.416 26.784 16.048C27.712 17.68 28.176 19.552 28.176 21.664V22.336C28.176 24.416 27.712 26.288 26.784 27.952C25.888 29.584 24.512 30.864 22.656 31.792C20.832 32.72 18.512 33.184 15.696 33.184H8.16ZM5.472 46V10.816H9.12V46H5.472ZM34.9841 46V20.608H37.8641V31.216H37.5761C37.5761 27.504 38.3921 24.768 40.0241 23.008C41.6561 21.216 44.2161 20.32 47.7041 20.32H48.5201V23.584H47.0321C44.2801 23.584 42.1841 24.304 40.7441 25.744C39.3041 27.152 38.5841 29.232 38.5841 31.984V46H34.9841ZM65.3914 46.816C63.2154 46.816 61.2954 46.448 59.6314 45.712C57.9994 44.944 56.6074 43.936 55.4554 42.688C54.3354 41.408 53.4714 39.984 52.8634 38.416C52.2874 36.848 51.9994 35.248 51.9994 33.616V32.944C51.9994 31.312 52.3034 29.712 52.9114 28.144C53.5194 26.544 54.3994 25.12 55.5514 23.872C56.7034 22.624 58.0954 21.632 59.7274 20.896C61.3914 20.128 63.2794 19.744 65.3914 19.744C67.5354 19.744 69.4234 20.128 71.0554 20.896C72.7194 21.632 74.1274 22.624 75.2794 23.872C76.4314 25.12 77.2954 26.544 77.8714 28.144C78.4794 29.712 78.7834 31.312 78.7834 32.944V33.616C78.7834 35.248 78.4954 36.848 77.9194 38.416C77.3434 39.984 76.4794 41.408 75.3274 42.688C74.2074 43.936 72.8154 44.944 71.1514 45.712C69.4874 46.448 67.5674 46.816 65.3914 46.816ZM65.3914 43.6C67.5034 43.6 69.2794 43.136 70.7194 42.208C72.1914 41.248 73.3114 40 74.0794 38.464C74.8474 36.896 75.2314 35.168 75.2314 33.28C75.2314 31.36 74.8314 29.632 74.0314 28.096C73.2634 26.528 72.1434 25.296 70.6714 24.4C69.1994 23.472 67.4394 23.008 65.3914 23.008C63.3754 23.008 61.6314 23.472 60.1594 24.4C58.6874 25.296 57.5514 26.528 56.7514 28.096C55.9834 29.632 55.5994 31.36 55.5994 33.28C55.5994 35.168 55.9834 36.896 56.7514 38.464C57.5194 40 58.6234 41.248 60.0634 42.208C61.5354 43.136 63.3114 43.6 65.3914 43.6ZM81.3247 55.744V52.528H84.2048C85.4528 52.528 86.3968 52.16 87.0368 51.424C87.7088 50.72 88.0448 49.696 88.0448 48.352V20.608H91.5008V47.68C91.5008 49.664 91.2288 51.248 90.6848 52.432C90.1728 53.616 89.3408 54.464 88.1888 54.976C87.0368 55.488 85.5008 55.744 83.5808 55.744H81.3247ZM83.9168 23.488V20.608H91.5008V23.488H83.9168ZM88.7168 15.472C87.8528 15.472 87.1968 15.248 86.7488 14.8C86.3328 14.32 86.1248 13.728 86.1248 13.024C86.1248 12.32 86.3328 11.744 86.7488 11.296C87.1968 10.816 87.8528 10.576 88.7168 10.576C89.5808 10.576 90.2208 10.816 90.6368 11.296C91.0528 11.744 91.2608 12.32 91.2608 13.024C91.2608 13.728 91.0528 14.32 90.6368 14.8C90.2208 15.248 89.5808 15.472 88.7168 15.472ZM111.452 46.816C109.276 46.816 107.388 46.448 105.788 45.712C104.188 44.944 102.876 43.936 101.852 42.688C100.828 41.408 100.06 39.984 99.5475 38.416C99.0675 36.848 98.8275 35.232 98.8275 33.568V32.896C98.8275 31.264 99.0675 29.664 99.5475 28.096C100.06 26.528 100.828 25.12 101.852 23.872C102.876 22.624 104.156 21.632 105.692 20.896C107.26 20.128 109.084 19.744 111.164 19.744C113.82 19.744 116.028 20.336 117.788 21.52C119.58 22.704 120.924 24.224 121.82 26.08C122.716 27.904 123.164 29.872 123.164 31.984V33.856H100.46V31.072H120.668L119.756 32.464C119.756 30.576 119.42 28.928 118.748 27.52C118.108 26.08 117.148 24.96 115.868 24.16C114.62 23.328 113.052 22.912 111.164 22.912C109.18 22.912 107.532 23.376 106.22 24.304C104.908 25.232 103.916 26.464 103.243 28C102.604 29.536 102.284 31.28 102.284 33.232C102.284 35.152 102.604 36.912 103.243 38.512C103.916 40.08 104.924 41.328 106.268 42.256C107.644 43.184 109.372 43.648 111.452 43.648C113.66 43.648 115.452 43.152 116.828 42.16C118.204 41.136 119.052 39.936 119.372 38.56H122.732C122.412 40.256 121.74 41.728 120.716 42.976C119.692 44.192 118.396 45.136 116.828 45.808C115.26 46.48 113.468 46.816 111.452 46.816ZM140.798 46.816C138.654 46.816 136.782 46.448 135.182 45.712C133.614 44.944 132.302 43.92 131.246 42.64C130.19 41.328 129.39 39.888 128.846 38.32C128.334 36.752 128.078 35.168 128.078 33.568V32.896C128.078 31.264 128.334 29.68 128.846 28.144C129.39 26.576 130.19 25.168 131.246 23.92C132.302 22.64 133.614 21.632 135.182 20.896C136.782 20.128 138.622 19.744 140.702 19.744C142.814 19.744 144.686 20.128 146.318 20.896C147.982 21.664 149.326 22.752 150.35 24.16C151.374 25.568 151.982 27.232 152.174 29.152H148.718C148.43 27.392 147.598 25.936 146.222 24.784C144.878 23.6 143.038 23.008 140.702 23.008C138.686 23.008 137.006 23.472 135.662 24.4C134.35 25.296 133.358 26.528 132.686 28.096C132.014 29.632 131.678 31.344 131.678 33.232C131.678 35.088 132.014 36.816 132.686 38.416C133.358 39.984 134.366 41.248 135.71 42.208C137.054 43.136 138.75 43.6 140.798 43.6C142.366 43.6 143.726 43.328 144.878 42.784C146.062 42.208 147.006 41.44 147.71 40.48C148.446 39.52 148.878 38.464 149.006 37.312H152.462C152.334 39.232 151.726 40.912 150.638 42.352C149.582 43.76 148.206 44.864 146.51 45.664C144.814 46.432 142.91 46.816 140.798 46.816ZM168.278 46.288C166.518 46.288 164.998 46.032 163.718 45.52C162.438 45.008 161.446 44.144 160.742 42.928C160.038 41.68 159.686 40.016 159.686 37.936V12.592H163.142V38.464C163.142 39.936 163.542 41.072 164.342 41.872C165.142 42.64 166.278 43.024 167.75 43.024H172.31V46.288H168.278ZM155.126 23.344V20.608H172.31V23.344H155.126Z" fill="#0D0D0D"/>
<path d="M191.285 46V10.96H194.933V46H191.285ZM193.973 29.824V26.512L209.477 26.464V29.776L193.973 29.824ZM193.973 14.224V10.96H210.389V14.224H193.973ZM218.25 46V20.608H221.802V46H218.25ZM214.17 23.488V20.608H221.802V23.488H214.17ZM219.018 15.904C218.154 15.904 217.498 15.68 217.05 15.232C216.634 14.752 216.426 14.16 216.426 13.456C216.426 12.752 216.634 12.176 217.05 11.728C217.498 11.248 218.154 11.008 219.018 11.008C219.882 11.008 220.522 11.248 220.938 11.728C221.354 12.176 221.562 12.752 221.562 13.456C221.562 14.16 221.354 14.752 220.938 15.232C220.522 15.68 219.882 15.904 219.018 15.904ZM231.25 46V20.608H234.13V31.264H233.554C233.554 28.896 233.906 26.864 234.61 25.168C235.314 23.472 236.37 22.16 237.778 21.232C239.186 20.304 240.962 19.84 243.106 19.84H243.25C246.45 19.84 248.834 20.848 250.402 22.864C251.97 24.848 252.754 27.648 252.754 31.264V46H249.202V30.496C249.202 28.288 248.594 26.512 247.378 25.168C246.162 23.824 244.466 23.152 242.29 23.152C240.05 23.152 238.242 23.856 236.866 25.264C235.522 26.64 234.85 28.464 234.85 30.736V46H231.25ZM277.175 46V38.368H276.599V29.344C276.599 27.456 276.103 26.016 275.111 25.024C274.119 24 272.583 23.488 270.503 23.488C269.543 23.488 268.567 23.504 267.575 23.536C266.615 23.568 265.687 23.616 264.791 23.68C263.927 23.712 263.159 23.76 262.487 23.824V20.656C263.191 20.592 263.911 20.528 264.647 20.464C265.383 20.4 266.135 20.368 266.903 20.368C267.703 20.336 268.471 20.32 269.207 20.32C271.799 20.32 273.879 20.64 275.447 21.28C277.047 21.92 278.215 22.928 278.951 24.304C279.687 25.648 280.055 27.44 280.055 29.68V46H277.175ZM268.583 46.672C266.791 46.672 265.207 46.352 263.831 45.712C262.455 45.072 261.383 44.144 260.615 42.928C259.879 41.712 259.511 40.24 259.511 38.512C259.511 36.816 259.895 35.376 260.663 34.192C261.463 33.008 262.599 32.112 264.071 31.504C265.575 30.864 267.383 30.544 269.495 30.544H276.935V33.28H269.255C267.239 33.28 265.687 33.776 264.599 34.768C263.543 35.728 263.015 36.992 263.015 38.56C263.015 40.16 263.575 41.44 264.695 42.4C265.815 43.328 267.335 43.792 269.255 43.792C270.439 43.792 271.575 43.584 272.663 43.168C273.751 42.72 274.663 41.984 275.399 40.96C276.135 39.904 276.535 38.464 276.599 36.64L277.655 38.128C277.527 40.016 277.079 41.6 276.311 42.88C275.543 44.128 274.503 45.072 273.191 45.712C271.879 46.352 270.343 46.672 268.583 46.672ZM289.047 46V20.608H291.927V31.264H291.351C291.351 28.896 291.703 26.864 292.407 25.168C293.111 23.472 294.167 22.16 295.575 21.232C296.983 20.304 298.759 19.84 300.903 19.84H301.047C304.247 19.84 306.631 20.848 308.199 22.864C309.767 24.848 310.551 27.648 310.551 31.264V46H306.999V30.496C306.999 28.288 306.391 26.512 305.175 25.168C303.959 23.824 302.263 23.152 300.087 23.152C297.847 23.152 296.039 23.856 294.663 25.264C293.319 26.64 292.647 28.464 292.647 30.736V46H289.047ZM330.219 46.816C328.075 46.816 326.203 46.448 324.603 45.712C323.035 44.944 321.723 43.92 320.667 42.64C319.611 41.328 318.811 39.888 318.267 38.32C317.755 36.752 317.499 35.168 317.499 33.568V32.896C317.499 31.264 317.755 29.68 318.267 28.144C318.811 26.576 319.611 25.168 320.667 23.92C321.723 22.64 323.035 21.632 324.603 20.896C326.203 20.128 328.043 19.744 330.123 19.744C332.235 19.744 334.107 20.128 335.739 20.896C337.403 21.664 338.747 22.752 339.771 24.16C340.795 25.568 341.403 27.232 341.595 29.152H338.139C337.851 27.392 337.019 25.936 335.643 24.784C334.299 23.6 332.459 23.008 330.123 23.008C328.107 23.008 326.427 23.472 325.083 24.4C323.771 25.296 322.779 26.528 322.107 28.096C321.435 29.632 321.099 31.344 321.099 33.232C321.099 35.088 321.435 36.816 322.107 38.416C322.779 39.984 323.787 41.248 325.131 42.208C326.475 43.136 328.171 43.6 330.219 43.6C331.787 43.6 333.147 43.328 334.299 42.784C335.483 42.208 336.427 41.44 337.131 40.48C337.867 39.52 338.299 38.464 338.427 37.312H341.883C341.755 39.232 341.147 40.912 340.059 42.352C339.003 43.76 337.627 44.864 335.931 45.664C334.235 46.432 332.331 46.816 330.219 46.816ZM349.828 46V20.608H353.38V46H349.828ZM345.748 23.488V20.608H353.38V23.488H345.748ZM350.596 15.904C349.732 15.904 349.076 15.68 348.628 15.232C348.212 14.752 348.004 14.16 348.004 13.456C348.004 12.752 348.212 12.176 348.628 11.728C349.076 11.248 349.732 11.008 350.596 11.008C351.46 11.008 352.1 11.248 352.516 11.728C352.932 12.176 353.14 12.752 353.14 13.456C353.14 14.16 352.932 14.752 352.516 15.232C352.1 15.68 351.46 15.904 350.596 15.904ZM362.828 46V20.608H365.708V31.264H365.132C365.132 28.896 365.484 26.864 366.188 25.168C366.892 23.472 367.948 22.16 369.356 21.232C370.764 20.304 372.54 19.84 374.684 19.84H374.828C378.028 19.84 380.412 20.848 381.98 22.864C383.548 24.848 384.332 27.648 384.332 31.264V46H380.78V30.496C380.78 28.288 380.172 26.512 378.956 25.168C377.74 23.824 376.044 23.152 373.868 23.152C371.628 23.152 369.82 23.856 368.444 25.264C367.1 26.64 366.428 28.464 366.428 30.736V46H362.828ZM402.993 55.936C401.809 55.936 400.609 55.872 399.393 55.744C398.209 55.648 397.073 55.52 395.985 55.36V52.288C397.137 52.448 398.337 52.576 399.585 52.672C400.865 52.8 402.065 52.864 403.185 52.864C405.617 52.864 407.553 52.544 408.993 51.904C410.433 51.264 411.457 50.24 412.065 48.832C412.705 47.456 413.025 45.632 413.025 43.36V38.272L414.369 34.72C414.305 37.152 413.793 39.248 412.833 41.008C411.873 42.736 410.577 44.064 408.945 44.992C407.313 45.92 405.457 46.384 403.377 46.384C401.553 46.384 399.889 46.032 398.385 45.328C396.913 44.624 395.649 43.664 394.593 42.448C393.537 41.2 392.721 39.792 392.145 38.224C391.569 36.656 391.281 35.008 391.281 33.28V32.608C391.281 30.912 391.569 29.296 392.145 27.76C392.721 26.192 393.537 24.816 394.593 23.632C395.649 22.416 396.929 21.472 398.433 20.8C399.969 20.096 401.665 19.744 403.521 19.744C405.761 19.744 407.713 20.24 409.377 21.232C411.041 22.224 412.337 23.6 413.265 25.36C414.225 27.12 414.737 29.184 414.801 31.552L413.649 30.928V20.608H416.481V43.216C416.481 46.256 416.033 48.704 415.137 50.56C414.241 52.416 412.801 53.776 410.817 54.64C408.865 55.504 406.257 55.936 402.993 55.936ZM404.001 43.072C405.729 43.072 407.265 42.704 408.609 41.968C409.985 41.2 411.073 40.128 411.873 38.752C412.673 37.376 413.073 35.776 413.073 33.952V31.6C413.073 29.84 412.657 28.304 411.825 26.992C411.025 25.68 409.953 24.656 408.609 23.92C407.265 23.184 405.729 22.816 404.001 22.816C402.145 22.816 400.529 23.264 399.153 24.16C397.777 25.056 396.721 26.272 395.985 27.808C395.249 29.312 394.881 31.024 394.881 32.944C394.881 34.896 395.249 36.64 395.985 38.176C396.753 39.712 397.825 40.912 399.201 41.776C400.577 42.64 402.177 43.072 404.001 43.072Z" fill="url(#paint0_radial_1323_1412)"/>
<path d="M2.928 88V70.48H4.224V88H2.928ZM3.768 79.648V78.448L11.76 78.424V79.6L3.768 79.648ZM3.768 71.656V70.48L12.24 70.456V71.656H3.768ZM16.3628 88V75.4H17.6588V88H16.3628ZM14.2748 76.504V75.4H17.6588V76.504H14.2748ZM16.4828 72.76C16.1468 72.76 15.8908 72.672 15.7148 72.496C15.5388 72.304 15.4508 72.064 15.4508 71.776C15.4508 71.472 15.5388 71.224 15.7148 71.032C15.8908 70.84 16.1548 70.744 16.5068 70.744C16.8428 70.744 17.0988 70.84 17.2748 71.032C17.4508 71.224 17.5388 71.472 17.5388 71.776C17.5388 72.064 17.4508 72.304 17.2748 72.496C17.1148 72.672 16.8508 72.76 16.4828 72.76ZM22.6283 88V75.4H23.6363V80.56H23.3483C23.3483 79.456 23.5243 78.496 23.8763 77.68C24.2443 76.848 24.7803 76.208 25.4843 75.76C26.2043 75.296 27.0923 75.064 28.1483 75.064H28.2203C29.8043 75.064 30.9963 75.56 31.7963 76.552C32.5963 77.528 32.9963 78.864 32.9963 80.56V88H31.7003V80.272C31.7003 79.072 31.3723 78.104 30.7163 77.368C30.0763 76.616 29.1483 76.24 27.9323 76.24C26.7003 76.24 25.7163 76.624 24.9803 77.392C24.2603 78.144 23.9003 79.144 23.9003 80.392V88H22.6283ZM45.4729 88V84.232H45.2329V79.6C45.2329 78.592 44.9689 77.816 44.4409 77.272C43.9129 76.712 43.0409 76.432 41.8249 76.432C41.3929 76.432 40.9529 76.448 40.5049 76.48C40.0569 76.496 39.6329 76.52 39.2329 76.552C38.8329 76.568 38.4729 76.6 38.1529 76.648V75.496C38.4729 75.448 38.8089 75.408 39.1609 75.376C39.5289 75.344 39.8969 75.32 40.2649 75.304C40.6329 75.288 40.9849 75.28 41.3209 75.28C42.5849 75.28 43.5929 75.448 44.3449 75.784C45.0969 76.104 45.6409 76.6 45.9769 77.272C46.3129 77.928 46.4809 78.768 46.4809 79.792V88H45.4729ZM41.0809 88.336C40.2329 88.336 39.4729 88.184 38.8009 87.88C38.1289 87.576 37.5929 87.128 37.1929 86.536C36.8089 85.944 36.6169 85.224 36.6169 84.376C36.6169 83.56 36.8009 82.864 37.1689 82.288C37.5529 81.712 38.0969 81.272 38.8009 80.968C39.5209 80.664 40.3849 80.512 41.3929 80.512H45.3529V81.544H41.2729C40.1849 81.544 39.3449 81.808 38.7529 82.336C38.1769 82.848 37.8889 83.528 37.8889 84.376C37.8889 85.272 38.2009 85.984 38.8249 86.512C39.4489 87.024 40.2649 87.28 41.2729 87.28C41.8969 87.28 42.5049 87.16 43.0969 86.92C43.6889 86.68 44.1849 86.28 44.5849 85.72C44.9849 85.144 45.2009 84.376 45.2329 83.416L45.7129 83.968C45.6649 84.944 45.4249 85.76 44.9929 86.416C44.5769 87.056 44.0329 87.536 43.3609 87.856C42.6889 88.176 41.9289 88.336 41.0809 88.336ZM51.2454 88V75.4H52.2534V80.56H51.9654C51.9654 79.456 52.1414 78.496 52.4934 77.68C52.8614 76.848 53.3974 76.208 54.1014 75.76C54.8214 75.296 55.7094 75.064 56.7654 75.064H56.8374C58.4214 75.064 59.6134 75.56 60.4134 76.552C61.2134 77.528 61.6134 78.864 61.6134 80.56V88H60.3174V80.272C60.3174 79.072 59.9894 78.104 59.3334 77.368C58.6934 76.616 57.7654 76.24 56.5494 76.24C55.3174 76.24 54.3334 76.624 53.5974 77.392C52.8774 78.144 52.5174 79.144 52.5174 80.392V88H51.2454ZM71.5461 88.408C70.5061 88.408 69.5941 88.216 68.8101 87.832C68.0421 87.448 67.3941 86.936 66.8661 86.296C66.3541 85.656 65.9701 84.944 65.7141 84.16C65.4581 83.376 65.3301 82.584 65.3301 81.784V81.544C65.3301 80.728 65.4581 79.928 65.7141 79.144C65.9701 78.36 66.3541 77.664 66.8661 77.056C67.3941 76.432 68.0421 75.936 68.8101 75.568C69.5941 75.2 70.5061 75.016 71.5461 75.016C72.5541 75.016 73.4501 75.2 74.2341 75.568C75.0341 75.936 75.6821 76.456 76.1781 77.128C76.6901 77.784 77.0101 78.576 77.1381 79.504H75.8901C75.7461 78.544 75.2981 77.752 74.5461 77.128C73.7941 76.488 72.7941 76.168 71.5461 76.168C70.4421 76.168 69.5221 76.416 68.7861 76.912C68.0501 77.408 67.4981 78.072 67.1301 78.904C66.7781 79.736 66.6021 80.656 66.6021 81.664C66.6021 82.64 66.7861 83.552 67.1541 84.4C67.5221 85.248 68.0741 85.936 68.8101 86.464C69.5461 86.976 70.4581 87.232 71.5461 87.232C72.3941 87.232 73.1381 87.08 73.7781 86.776C74.4341 86.456 74.9621 86.04 75.3621 85.528C75.7621 85 76.0021 84.424 76.0821 83.8H77.3301C77.2181 84.728 76.8981 85.536 76.3701 86.224C75.8421 86.896 75.1621 87.432 74.3301 87.832C73.4981 88.216 72.5701 88.408 71.5461 88.408ZM81.4956 88V75.4H82.7916V88H81.4956ZM79.4076 76.504V75.4H82.7916V76.504H79.4076ZM81.6156 72.76C81.2796 72.76 81.0236 72.672 80.8476 72.496C80.6716 72.304 80.5836 72.064 80.5836 71.776C80.5836 71.472 80.6716 71.224 80.8476 71.032C81.0236 70.84 81.2876 70.744 81.6396 70.744C81.9756 70.744 82.2316 70.84 82.4076 71.032C82.5836 71.224 82.6716 71.472 82.6716 71.776C82.6716 72.064 82.5836 72.304 82.4076 72.496C82.2476 72.672 81.9836 72.76 81.6156 72.76ZM95.4651 88V84.232H95.2251V79.6C95.2251 78.592 94.9611 77.816 94.4331 77.272C93.9051 76.712 93.0331 76.432 91.8171 76.432C91.3851 76.432 90.9451 76.448 90.4971 76.48C90.0491 76.496 89.6251 76.52 89.2251 76.552C88.8251 76.568 88.4651 76.6 88.1451 76.648V75.496C88.4651 75.448 88.8011 75.408 89.1531 75.376C89.5211 75.344 89.8891 75.32 90.2571 75.304C90.6251 75.288 90.9771 75.28 91.3131 75.28C92.5771 75.28 93.5851 75.448 94.3371 75.784C95.0891 76.104 95.6331 76.6 95.9691 77.272C96.3051 77.928 96.4731 78.768 96.4731 79.792V88H95.4651ZM91.0731 88.336C90.2251 88.336 89.4651 88.184 88.7931 87.88C88.1211 87.576 87.5851 87.128 87.1851 86.536C86.8011 85.944 86.6091 85.224 86.6091 84.376C86.6091 83.56 86.7931 82.864 87.1611 82.288C87.5451 81.712 88.0891 81.272 88.7931 80.968C89.5131 80.664 90.3771 80.512 91.3851 80.512H95.3451V81.544H91.2651C90.1771 81.544 89.3371 81.808 88.7451 82.336C88.1691 82.848 87.8811 83.528 87.8811 84.376C87.8811 85.272 88.1931 85.984 88.8171 86.512C89.4411 87.024 90.2571 87.28 91.2651 87.28C91.8891 87.28 92.4971 87.16 93.0891 86.92C93.6811 86.68 94.1771 86.28 94.5771 85.72C94.9771 85.144 95.1931 84.376 95.2251 83.416L95.7051 83.968C95.6571 84.944 95.4171 85.76 94.9851 86.416C94.5691 87.056 94.0251 87.536 93.3531 87.856C92.6811 88.176 91.9211 88.336 91.0731 88.336ZM101.31 88V70.48H102.582V88H101.31ZM99.4136 71.56V70.48H102.582V71.56H99.4136ZM113.261 92.8V75.4H114.269V80.776L113.885 80.944C113.901 79.76 114.149 78.728 114.629 77.848C115.125 76.952 115.797 76.256 116.645 75.76C117.493 75.264 118.477 75.016 119.597 75.016C120.557 75.016 121.413 75.2 122.165 75.568C122.917 75.92 123.549 76.408 124.061 77.032C124.589 77.64 124.989 78.336 125.261 79.12C125.533 79.904 125.669 80.728 125.669 81.592V81.832C125.669 82.648 125.533 83.448 125.261 84.232C124.989 85 124.589 85.704 124.061 86.344C123.549 86.968 122.917 87.472 122.165 87.856C121.413 88.224 120.557 88.408 119.597 88.408C118.477 88.408 117.485 88.152 116.621 87.64C115.773 87.128 115.109 86.424 114.629 85.528C114.149 84.616 113.893 83.584 113.861 82.432L114.533 84.112V92.8H113.261ZM119.429 87.256C120.485 87.256 121.381 87 122.117 86.488C122.869 85.96 123.437 85.28 123.821 84.448C124.205 83.6 124.397 82.688 124.397 81.712C124.397 80.688 124.197 79.76 123.797 78.928C123.413 78.08 122.845 77.408 122.093 76.912C121.357 76.416 120.469 76.168 119.429 76.168C118.469 76.168 117.613 76.384 116.861 76.816C116.125 77.232 115.541 77.816 115.109 78.568C114.677 79.304 114.461 80.152 114.461 81.112V82.336C114.461 83.248 114.669 84.08 115.085 84.832C115.517 85.568 116.101 86.16 116.837 86.608C117.589 87.04 118.453 87.256 119.429 87.256ZM137.254 88V84.232H137.014V79.6C137.014 78.592 136.75 77.816 136.222 77.272C135.694 76.712 134.822 76.432 133.606 76.432C133.174 76.432 132.734 76.448 132.286 76.48C131.838 76.496 131.414 76.52 131.014 76.552C130.614 76.568 130.254 76.6 129.934 76.648V75.496C130.254 75.448 130.59 75.408 130.942 75.376C131.31 75.344 131.678 75.32 132.046 75.304C132.414 75.288 132.766 75.28 133.102 75.28C134.366 75.28 135.374 75.448 136.126 75.784C136.878 76.104 137.422 76.6 137.758 77.272C138.094 77.928 138.262 78.768 138.262 79.792V88H137.254ZM132.862 88.336C132.014 88.336 131.254 88.184 130.582 87.88C129.91 87.576 129.374 87.128 128.974 86.536C128.59 85.944 128.398 85.224 128.398 84.376C128.398 83.56 128.582 82.864 128.95 82.288C129.334 81.712 129.878 81.272 130.582 80.968C131.302 80.664 132.166 80.512 133.174 80.512H137.134V81.544H133.054C131.966 81.544 131.126 81.808 130.534 82.336C129.958 82.848 129.67 83.528 129.67 84.376C129.67 85.272 129.982 85.984 130.606 86.512C131.23 87.024 132.046 87.28 133.054 87.28C133.678 87.28 134.286 87.16 134.878 86.92C135.47 86.68 135.966 86.28 136.366 85.72C136.766 85.144 136.982 84.376 137.014 83.416L137.494 83.968C137.446 84.944 137.206 85.76 136.774 86.416C136.358 87.056 135.814 87.536 135.142 87.856C134.47 88.176 133.71 88.336 132.862 88.336ZM143.027 88V75.4H144.035V80.728H143.843C143.843 78.904 144.251 77.544 145.067 76.648C145.883 75.752 147.203 75.304 149.027 75.304H149.459V76.456H148.787C147.299 76.456 146.179 76.84 145.427 77.608C144.675 78.36 144.299 79.472 144.299 80.944V88H143.027ZM160.223 88V84.232H159.983V79.6C159.983 78.592 159.719 77.816 159.191 77.272C158.663 76.712 157.791 76.432 156.575 76.432C156.143 76.432 155.703 76.448 155.255 76.48C154.807 76.496 154.383 76.52 153.983 76.552C153.583 76.568 153.223 76.6 152.903 76.648V75.496C153.223 75.448 153.559 75.408 153.911 75.376C154.279 75.344 154.647 75.32 155.015 75.304C155.383 75.288 155.735 75.28 156.071 75.28C157.335 75.28 158.343 75.448 159.095 75.784C159.847 76.104 160.391 76.6 160.727 77.272C161.063 77.928 161.231 78.768 161.231 79.792V88H160.223ZM155.831 88.336C154.983 88.336 154.223 88.184 153.551 87.88C152.879 87.576 152.343 87.128 151.943 86.536C151.559 85.944 151.367 85.224 151.367 84.376C151.367 83.56 151.551 82.864 151.919 82.288C152.303 81.712 152.847 81.272 153.551 80.968C154.271 80.664 155.135 80.512 156.143 80.512H160.103V81.544H156.023C154.935 81.544 154.095 81.808 153.503 82.336C152.927 82.848 152.639 83.528 152.639 84.376C152.639 85.272 152.951 85.984 153.575 86.512C154.199 87.024 155.015 87.28 156.023 87.28C156.647 87.28 157.255 87.16 157.847 86.92C158.439 86.68 158.935 86.28 159.335 85.72C159.735 85.144 159.951 84.376 159.983 83.416L160.463 83.968C160.415 84.944 160.175 85.76 159.743 86.416C159.327 87.056 158.783 87.536 158.111 87.856C157.439 88.176 156.679 88.336 155.831 88.336ZM165.995 88V75.4H167.003V80.56H166.715C166.715 79.472 166.875 78.52 167.195 77.704C167.531 76.872 168.027 76.224 168.683 75.76C169.339 75.296 170.171 75.064 171.179 75.064H171.251C172.243 75.064 173.067 75.296 173.723 75.76C174.379 76.208 174.859 76.848 175.163 77.68C175.483 78.496 175.643 79.456 175.643 80.56H175.163C175.163 79.472 175.323 78.52 175.643 77.704C175.979 76.872 176.475 76.224 177.131 75.76C177.803 75.296 178.643 75.064 179.651 75.064H179.723C180.715 75.064 181.539 75.296 182.195 75.76C182.867 76.208 183.363 76.848 183.683 77.68C184.003 78.496 184.163 79.456 184.163 80.56V88H182.891V80.272C182.891 79.072 182.595 78.104 182.003 77.368C181.427 76.616 180.571 76.24 179.435 76.24C178.283 76.24 177.371 76.624 176.699 77.392C176.043 78.16 175.715 79.16 175.715 80.392V88H174.443V80.272C174.443 79.072 174.147 78.104 173.555 77.368C172.979 76.616 172.123 76.24 170.987 76.24C169.835 76.24 168.923 76.624 168.251 77.392C167.595 78.16 167.267 79.16 167.267 80.392V88H165.995ZM194.077 88.408C193.005 88.408 192.077 88.224 191.293 87.856C190.509 87.472 189.869 86.968 189.373 86.344C188.877 85.704 188.501 84.992 188.245 84.208C188.005 83.408 187.885 82.6 187.885 81.784V81.544C187.885 80.712 188.005 79.912 188.245 79.144C188.501 78.376 188.877 77.68 189.373 77.056C189.885 76.416 190.517 75.92 191.269 75.568C192.037 75.2 192.925 75.016 193.933 75.016C195.213 75.016 196.285 75.304 197.149 75.88C198.029 76.44 198.693 77.176 199.141 78.088C199.589 79 199.813 79.96 199.813 80.968V81.832H188.485V80.776H198.973L198.589 81.256C198.589 80.28 198.405 79.408 198.037 78.64C197.685 77.872 197.157 77.272 196.453 76.84C195.765 76.392 194.925 76.168 193.933 76.168C192.861 76.168 191.965 76.416 191.245 76.912C190.525 77.408 189.981 78.072 189.613 78.904C189.261 79.736 189.085 80.656 189.085 81.664C189.085 82.672 189.261 83.6 189.613 84.448C189.981 85.28 190.533 85.96 191.269 86.488C192.005 87 192.941 87.256 194.077 87.256C195.293 87.256 196.269 86.976 197.005 86.416C197.757 85.856 198.213 85.184 198.373 84.4H199.621C199.445 85.184 199.109 85.88 198.613 86.488C198.117 87.096 197.485 87.568 196.717 87.904C195.965 88.24 195.085 88.408 194.077 88.408ZM207.672 88.12C206.888 88.12 206.2 88.008 205.608 87.784C205.016 87.544 204.56 87.144 204.24 86.584C203.92 86.024 203.76 85.272 203.76 84.328V71.296H205.008V84.544C205.008 85.312 205.216 85.912 205.632 86.344C206.064 86.76 206.656 86.968 207.408 86.968H209.76V88.12H207.672ZM201.36 76.432V75.4H209.76V76.432H201.36ZM218.499 88.408C217.427 88.408 216.499 88.224 215.715 87.856C214.931 87.472 214.291 86.968 213.795 86.344C213.299 85.704 212.923 84.992 212.667 84.208C212.427 83.408 212.307 82.6 212.307 81.784V81.544C212.307 80.712 212.427 79.912 212.667 79.144C212.923 78.376 213.299 77.68 213.795 77.056C214.307 76.416 214.939 75.92 215.691 75.568C216.459 75.2 217.347 75.016 218.355 75.016C219.635 75.016 220.707 75.304 221.571 75.88C222.451 76.44 223.115 77.176 223.563 78.088C224.011 79 224.235 79.96 224.235 80.968V81.832H212.907V80.776H223.395L223.011 81.256C223.011 80.28 222.827 79.408 222.459 78.64C222.107 77.872 221.579 77.272 220.875 76.84C220.187 76.392 219.347 76.168 218.355 76.168C217.283 76.168 216.387 76.416 215.667 76.912C214.947 77.408 214.403 78.072 214.035 78.904C213.683 79.736 213.507 80.656 213.507 81.664C213.507 82.672 213.683 83.6 214.035 84.448C214.403 85.28 214.955 85.96 215.691 86.488C216.427 87 217.363 87.256 218.499 87.256C219.715 87.256 220.691 86.976 221.427 86.416C222.179 85.856 222.635 85.184 222.795 84.4H224.043C223.867 85.184 223.531 85.88 223.035 86.488C222.539 87.096 221.907 87.568 221.139 87.904C220.387 88.24 219.507 88.408 218.499 88.408ZM227.894 88V75.4H228.902V80.728H228.71C228.71 78.904 229.118 77.544 229.934 76.648C230.75 75.752 232.07 75.304 233.894 75.304H234.326V76.456H233.654C232.166 76.456 231.046 76.84 230.294 77.608C229.542 78.36 229.166 79.472 229.166 80.944V88H227.894ZM241.201 88.36C239.633 88.36 238.425 88 237.577 87.28C236.745 86.56 236.321 85.64 236.305 84.52H237.553C237.553 85.24 237.833 85.872 238.393 86.416C238.969 86.944 239.905 87.208 241.201 87.208C242.465 87.208 243.393 86.944 243.985 86.416C244.577 85.872 244.873 85.232 244.873 84.496C244.873 83.776 244.601 83.224 244.057 82.84C243.529 82.456 242.809 82.216 241.897 82.12L240.409 81.952C239.305 81.824 238.425 81.48 237.769 80.92C237.129 80.36 236.809 79.6 236.809 78.64C236.809 77.952 236.985 77.336 237.337 76.792C237.689 76.248 238.193 75.816 238.849 75.496C239.521 75.176 240.305 75.016 241.201 75.016C242.513 75.016 243.569 75.336 244.369 75.976C245.185 76.616 245.601 77.488 245.617 78.592H244.369C244.385 77.904 244.113 77.328 243.553 76.864C243.009 76.4 242.225 76.168 241.201 76.168C240.129 76.168 239.329 76.416 238.801 76.912C238.289 77.408 238.033 77.992 238.033 78.664C238.033 79.224 238.233 79.704 238.633 80.104C239.049 80.504 239.673 80.752 240.505 80.848L241.993 81.016C243.177 81.128 244.153 81.472 244.921 82.048C245.705 82.624 246.097 83.448 246.097 84.52C246.097 85.24 245.897 85.888 245.497 86.464C245.113 87.04 244.561 87.504 243.841 87.856C243.121 88.192 242.241 88.36 241.201 88.36ZM262.026 88.408C260.874 88.408 259.866 88.144 259.002 87.616C258.154 87.072 257.49 86.352 257.01 85.456C256.546 84.56 256.306 83.568 256.29 82.48H256.746V88H255.738V70.48H257.01V79.456L256.41 80.968C256.442 79.768 256.69 78.728 257.154 77.848C257.634 76.952 258.298 76.256 259.146 75.76C259.994 75.264 260.978 75.016 262.098 75.016C263.042 75.016 263.89 75.2 264.642 75.568C265.394 75.92 266.026 76.408 266.538 77.032C267.066 77.64 267.466 78.336 267.738 79.12C268.01 79.888 268.146 80.704 268.146 81.568V81.808C268.146 82.64 268.01 83.448 267.738 84.232C267.482 85 267.09 85.704 266.562 86.344C266.034 86.968 265.386 87.472 264.618 87.856C263.866 88.224 263.002 88.408 262.026 88.408ZM261.906 87.256C262.962 87.256 263.858 87 264.594 86.488C265.346 85.96 265.914 85.272 266.298 84.424C266.682 83.576 266.874 82.664 266.874 81.688C266.874 80.664 266.674 79.736 266.274 78.904C265.874 78.056 265.306 77.392 264.57 76.912C263.834 76.416 262.946 76.168 261.906 76.168C260.946 76.168 260.09 76.384 259.338 76.816C258.602 77.232 258.018 77.816 257.586 78.568C257.154 79.304 256.938 80.152 256.938 81.112V82.336C256.938 83.248 257.146 84.08 257.562 84.832C257.994 85.568 258.578 86.16 259.314 86.608C260.066 87.04 260.93 87.256 261.906 87.256ZM276.323 88.36C274.803 88.36 273.651 87.872 272.867 86.896C272.083 85.92 271.691 84.6 271.691 82.936V75.4H272.987V83.224C272.987 84.392 273.291 85.344 273.899 86.08C274.523 86.8 275.419 87.16 276.587 87.16C277.771 87.16 278.707 86.784 279.395 86.032C280.099 85.28 280.451 84.296 280.451 83.08V75.4H281.723V88H280.715V82.912H281.003C281.003 83.984 280.827 84.936 280.475 85.768C280.139 86.584 279.635 87.224 278.963 87.688C278.291 88.136 277.435 88.36 276.395 88.36H276.323ZM287.394 88V75.4H288.69V88H287.394ZM285.306 76.504V75.4H288.69V76.504H285.306ZM287.514 72.76C287.178 72.76 286.922 72.672 286.746 72.496C286.57 72.304 286.482 72.064 286.482 71.776C286.482 71.472 286.57 71.224 286.746 71.032C286.922 70.84 287.186 70.744 287.538 70.744C287.874 70.744 288.13 70.84 288.306 71.032C288.482 71.224 288.57 71.472 288.57 71.776C288.57 72.064 288.482 72.304 288.306 72.496C288.146 72.672 287.882 72.76 287.514 72.76ZM293.732 88V70.48H295.004V88H293.732ZM291.836 71.56V70.48H295.004V71.56H291.836ZM304.141 88.12C303.357 88.12 302.669 88.008 302.077 87.784C301.485 87.544 301.029 87.144 300.709 86.584C300.389 86.024 300.229 85.272 300.229 84.328V71.296H301.477V84.544C301.477 85.312 301.685 85.912 302.101 86.344C302.533 86.76 303.125 86.968 303.877 86.968H306.229V88.12H304.141ZM297.829 76.432V75.4H306.229V76.432H297.829ZM323.395 88V84.232H323.155V79.6C323.155 78.592 322.891 77.816 322.363 77.272C321.835 76.712 320.963 76.432 319.747 76.432C319.315 76.432 318.875 76.448 318.427 76.48C317.979 76.496 317.555 76.52 317.155 76.552C316.755 76.568 316.395 76.6 316.075 76.648V75.496C316.395 75.448 316.731 75.408 317.083 75.376C317.451 75.344 317.819 75.32 318.187 75.304C318.555 75.288 318.907 75.28 319.243 75.28C320.507 75.28 321.515 75.448 322.267 75.784C323.019 76.104 323.563 76.6 323.899 77.272C324.235 77.928 324.403 78.768 324.403 79.792V88H323.395ZM319.003 88.336C318.155 88.336 317.395 88.184 316.723 87.88C316.051 87.576 315.515 87.128 315.115 86.536C314.731 85.944 314.539 85.224 314.539 84.376C314.539 83.56 314.723 82.864 315.091 82.288C315.475 81.712 316.019 81.272 316.723 80.968C317.443 80.664 318.307 80.512 319.315 80.512H323.275V81.544H319.195C318.107 81.544 317.267 81.808 316.675 82.336C316.099 82.848 315.811 83.528 315.811 84.376C315.811 85.272 316.123 85.984 316.747 86.512C317.371 87.024 318.187 87.28 319.195 87.28C319.819 87.28 320.427 87.16 321.019 86.92C321.611 86.68 322.107 86.28 322.507 85.72C322.907 85.144 323.123 84.376 323.155 83.416L323.635 83.968C323.587 84.944 323.347 85.76 322.915 86.416C322.499 87.056 321.955 87.536 321.283 87.856C320.611 88.176 319.851 88.336 319.003 88.336ZM329.167 88V75.4H330.175V80.728H329.983C329.983 78.904 330.391 77.544 331.207 76.648C332.023 75.752 333.343 75.304 335.167 75.304H335.599V76.456H334.927C333.439 76.456 332.319 76.84 331.567 77.608C330.815 78.36 330.439 79.472 330.439 80.944V88H329.167ZM344.014 88.408C342.958 88.408 342.022 88.216 341.206 87.832C340.39 87.448 339.702 86.944 339.142 86.32C338.598 85.696 338.182 85 337.894 84.232C337.622 83.448 337.486 82.648 337.486 81.832V81.592C337.486 80.76 337.63 79.952 337.918 79.168C338.206 78.384 338.63 77.68 339.19 77.056C339.75 76.432 340.43 75.936 341.23 75.568C342.046 75.2 342.974 75.016 344.014 75.016C345.038 75.016 345.95 75.2 346.75 75.568C347.566 75.936 348.254 76.432 348.814 77.056C349.374 77.68 349.798 78.384 350.086 79.168C350.39 79.952 350.542 80.76 350.542 81.592V81.832C350.542 82.648 350.398 83.448 350.11 84.232C349.822 85 349.398 85.696 348.838 86.32C348.294 86.944 347.614 87.448 346.798 87.832C345.998 88.216 345.07 88.408 344.014 88.408ZM344.014 87.232C345.134 87.232 346.078 86.976 346.846 86.464C347.63 85.952 348.222 85.28 348.622 84.448C349.038 83.6 349.246 82.688 349.246 81.712C349.246 80.704 349.038 79.784 348.622 78.952C348.206 78.104 347.606 77.432 346.822 76.936C346.054 76.424 345.118 76.168 344.014 76.168C342.926 76.168 341.982 76.424 341.182 76.936C340.398 77.432 339.798 78.104 339.382 78.952C338.966 79.784 338.758 80.704 338.758 81.712C338.758 82.688 338.958 83.6 339.358 84.448C339.774 85.28 340.374 85.952 341.158 86.464C341.942 86.976 342.894 87.232 344.014 87.232ZM358.706 88.36C357.186 88.36 356.034 87.872 355.25 86.896C354.466 85.92 354.074 84.6 354.074 82.936V75.4H355.37V83.224C355.37 84.392 355.674 85.344 356.282 86.08C356.906 86.8 357.802 87.16 358.97 87.16C360.154 87.16 361.09 86.784 361.778 86.032C362.482 85.28 362.834 84.296 362.834 83.08V75.4H364.106V88H363.098V82.912H363.386C363.386 83.984 363.21 84.936 362.858 85.768C362.522 86.584 362.018 87.224 361.346 87.688C360.674 88.136 359.818 88.36 358.778 88.36H358.706ZM369.105 88V75.4H370.113V80.56H369.825C369.825 79.456 370.001 78.496 370.353 77.68C370.721 76.848 371.257 76.208 371.961 75.76C372.681 75.296 373.569 75.064 374.625 75.064H374.697C376.281 75.064 377.473 75.56 378.273 76.552C379.073 77.528 379.473 78.864 379.473 80.56V88H378.177V80.272C378.177 79.072 377.849 78.104 377.193 77.368C376.553 76.616 375.625 76.24 374.409 76.24C373.177 76.24 372.193 76.624 371.457 77.392C370.737 78.144 370.377 79.144 370.377 80.392V88H369.105ZM389.309 88.408C388.365 88.408 387.509 88.232 386.741 87.88C385.989 87.512 385.349 87.024 384.821 86.416C384.293 85.792 383.885 85.088 383.597 84.304C383.325 83.52 383.189 82.696 383.189 81.832V81.592C383.189 80.76 383.325 79.96 383.597 79.192C383.869 78.408 384.261 77.704 384.773 77.08C385.301 76.44 385.941 75.936 386.693 75.568C387.445 75.2 388.309 75.016 389.285 75.016C390.421 75.016 391.405 75.272 392.237 75.784C393.085 76.296 393.741 77 394.205 77.896C394.685 78.776 394.941 79.784 394.973 80.92L394.325 79.504V70.48H395.597V88H394.589V82.408H395.069C395.037 83.608 394.773 84.664 394.277 85.576C393.781 86.472 393.101 87.168 392.237 87.664C391.389 88.16 390.413 88.408 389.309 88.408ZM389.429 87.256C390.405 87.256 391.261 87.04 391.997 86.608C392.749 86.176 393.333 85.592 393.749 84.856C394.181 84.104 394.397 83.248 394.397 82.288V81.04C394.397 80.128 394.181 79.304 393.749 78.568C393.333 77.832 392.749 77.248 391.997 76.816C391.261 76.384 390.405 76.168 389.429 76.168C388.373 76.168 387.477 76.424 386.741 76.936C386.005 77.448 385.437 78.128 385.037 78.976C384.653 79.808 384.461 80.72 384.461 81.712C384.461 82.736 384.661 83.672 385.061 84.52C385.461 85.352 386.029 86.016 386.765 86.512C387.517 87.008 388.405 87.256 389.429 87.256ZM245.888 118V116.152H247.568V118H245.888Z" fill="#717171"/>
<path d="M6.24 118.36C4.672 118.36 3.464 118 2.616 117.28C1.784 116.56 1.36 115.64 1.344 114.52H2.592C2.592 115.24 2.872 115.872 3.432 116.416C4.008 116.944 4.944 117.208 6.24 117.208C7.504 117.208 8.432 116.944 9.024 116.416C9.616 115.872 9.912 115.232 9.912 114.496C9.912 113.776 9.64 113.224 9.096 112.84C8.568 112.456 7.848 112.216 6.936 112.12L5.448 111.952C4.344 111.824 3.464 111.48 2.808 110.92C2.168 110.36 1.848 109.6 1.848 108.64C1.848 107.952 2.024 107.336 2.376 106.792C2.728 106.248 3.232 105.816 3.888 105.496C4.56 105.176 5.344 105.016 6.24 105.016C7.552 105.016 8.608 105.336 9.408 105.976C10.224 106.616 10.64 107.488 10.656 108.592H9.408C9.424 107.904 9.152 107.328 8.592 106.864C8.048 106.4 7.264 106.168 6.24 106.168C5.168 106.168 4.368 106.416 3.84 106.912C3.328 107.408 3.072 107.992 3.072 108.664C3.072 109.224 3.272 109.704 3.672 110.104C4.088 110.504 4.712 110.752 5.544 110.848L7.032 111.016C8.216 111.128 9.192 111.472 9.96 112.048C10.744 112.624 11.136 113.448 11.136 114.52C11.136 115.24 10.936 115.888 10.536 116.464C10.152 117.04 9.6 117.504 8.88 117.856C8.16 118.192 7.28 118.36 6.24 118.36ZM13.5482 122.896V121.72H14.9882C15.5482 121.72 16.0362 121.648 16.4522 121.504C16.8682 121.376 17.2282 121.136 17.5322 120.784C17.8522 120.432 18.1162 119.928 18.3242 119.272L22.8122 105.4H24.0842L19.4042 119.68C19.1482 120.464 18.8042 121.088 18.3722 121.552C17.9562 122.032 17.4522 122.376 16.8602 122.584C16.2842 122.792 15.6282 122.896 14.8922 122.896H13.5482ZM17.9162 117.688V116.56H19.6922V117.688H17.9162ZM17.6762 117.688L13.0922 105.4H14.3882L18.9242 117.688H17.6762ZM31.1775 118.36C29.6095 118.36 28.4015 118 27.5535 117.28C26.7215 116.56 26.2975 115.64 26.2815 114.52H27.5295C27.5295 115.24 27.8095 115.872 28.3695 116.416C28.9455 116.944 29.8815 117.208 31.1775 117.208C32.4415 117.208 33.3695 116.944 33.9615 116.416C34.5535 115.872 34.8495 115.232 34.8495 114.496C34.8495 113.776 34.5775 113.224 34.0335 112.84C33.5055 112.456 32.7855 112.216 31.8735 112.12L30.3855 111.952C29.2815 111.824 28.4015 111.48 27.7455 110.92C27.1055 110.36 26.7855 109.6 26.7855 108.64C26.7855 107.952 26.9615 107.336 27.3135 106.792C27.6655 106.248 28.1695 105.816 28.8255 105.496C29.4975 105.176 30.2815 105.016 31.1775 105.016C32.4895 105.016 33.5455 105.336 34.3455 105.976C35.1615 106.616 35.5775 107.488 35.5935 108.592H34.3455C34.3615 107.904 34.0895 107.328 33.5295 106.864C32.9855 106.4 32.2015 106.168 31.1775 106.168C30.1055 106.168 29.3055 106.416 28.7775 106.912C28.2655 107.408 28.0095 107.992 28.0095 108.664C28.0095 109.224 28.2095 109.704 28.6095 110.104C29.0255 110.504 29.6495 110.752 30.4815 110.848L31.9695 111.016C33.1535 111.128 34.1295 111.472 34.8975 112.048C35.6815 112.624 36.0735 113.448 36.0735 114.52C36.0735 115.24 35.8735 115.888 35.4735 116.464C35.0895 117.04 34.5375 117.504 33.8175 117.856C33.0975 118.192 32.2175 118.36 31.1775 118.36ZM44.172 118.12C43.388 118.12 42.7 118.008 42.108 117.784C41.516 117.544 41.06 117.144 40.74 116.584C40.42 116.024 40.26 115.272 40.26 114.328V101.296H41.508V114.544C41.508 115.312 41.716 115.912 42.132 116.344C42.564 116.76 43.156 116.968 43.908 116.968H46.26V118.12H44.172ZM37.86 106.432V105.4H46.26V106.432H37.86ZM54.9986 118.408C53.9266 118.408 52.9986 118.224 52.2146 117.856C51.4306 117.472 50.7906 116.968 50.2946 116.344C49.7986 115.704 49.4226 114.992 49.1666 114.208C48.9266 113.408 48.8066 112.6 48.8066 111.784V111.544C48.8066 110.712 48.9266 109.912 49.1666 109.144C49.4226 108.376 49.7986 107.68 50.2946 107.056C50.8066 106.416 51.4386 105.92 52.1906 105.568C52.9586 105.2 53.8466 105.016 54.8546 105.016C56.1346 105.016 57.2066 105.304 58.0706 105.88C58.9506 106.44 59.6146 107.176 60.0626 108.088C60.5106 109 60.7346 109.96 60.7346 110.968V111.832H49.4066V110.776H59.8946L59.5106 111.256C59.5106 110.28 59.3266 109.408 58.9586 108.64C58.6066 107.872 58.0786 107.272 57.3746 106.84C56.6866 106.392 55.8466 106.168 54.8546 106.168C53.7826 106.168 52.8866 106.416 52.1666 106.912C51.4466 107.408 50.9026 108.072 50.5346 108.904C50.1826 109.736 50.0066 110.656 50.0066 111.664C50.0066 112.672 50.1826 113.6 50.5346 114.448C50.9026 115.28 51.4546 115.96 52.1906 116.488C52.9266 117 53.8626 117.256 54.9986 117.256C56.2146 117.256 57.1906 116.976 57.9266 116.416C58.6786 115.856 59.1346 115.184 59.2946 114.4H60.5426C60.3666 115.184 60.0306 115.88 59.5346 116.488C59.0386 117.096 58.4066 117.568 57.6386 117.904C56.8866 118.24 56.0066 118.408 54.9986 118.408ZM64.3939 118V105.4H65.4019V110.56H65.1139C65.1139 109.472 65.2739 108.52 65.5939 107.704C65.9299 106.872 66.4259 106.224 67.0819 105.76C67.7379 105.296 68.5699 105.064 69.5779 105.064H69.6499C70.6419 105.064 71.4659 105.296 72.1219 105.76C72.7779 106.208 73.2579 106.848 73.5619 107.68C73.8819 108.496 74.0419 109.456 74.0419 110.56H73.5619C73.5619 109.472 73.7219 108.52 74.0419 107.704C74.3779 106.872 74.8739 106.224 75.5299 105.76C76.2019 105.296 77.0419 105.064 78.0499 105.064H78.1219C79.1139 105.064 79.9379 105.296 80.5939 105.76C81.2659 106.208 81.7619 106.848 82.0819 107.68C82.4019 108.496 82.5619 109.456 82.5619 110.56V118H81.2899V110.272C81.2899 109.072 80.9939 108.104 80.4019 107.368C79.8259 106.616 78.9699 106.24 77.8339 106.24C76.6819 106.24 75.7699 106.624 75.0979 107.392C74.4419 108.16 74.1139 109.16 74.1139 110.392V118H72.8419V110.272C72.8419 109.072 72.5459 108.104 71.9539 107.368C71.3779 106.616 70.5219 106.24 69.3859 106.24C68.2339 106.24 67.3219 106.624 66.6499 107.392C65.9939 108.16 65.6659 109.16 65.6659 110.392V118H64.3939ZM88.0112 118V105.4H89.3072V118H88.0112ZM85.9232 106.504V105.4H89.3072V106.504H85.9232ZM88.1312 102.76C87.7952 102.76 87.5392 102.672 87.3632 102.496C87.1872 102.304 87.0992 102.064 87.0992 101.776C87.0992 101.472 87.1872 101.224 87.3632 101.032C87.5392 100.84 87.8032 100.744 88.1552 100.744C88.4912 100.744 88.7472 100.84 88.9232 101.032C89.0992 101.224 89.1872 101.472 89.1872 101.776C89.1872 102.064 89.0992 102.304 88.9232 102.496C88.7632 102.672 88.4992 102.76 88.1312 102.76ZM99.4367 118.408C98.3967 118.408 97.4847 118.216 96.7007 117.832C95.9327 117.448 95.2847 116.936 94.7567 116.296C94.2447 115.656 93.8607 114.944 93.6047 114.16C93.3487 113.376 93.2207 112.584 93.2207 111.784V111.544C93.2207 110.728 93.3487 109.928 93.6047 109.144C93.8607 108.36 94.2447 107.664 94.7567 107.056C95.2847 106.432 95.9327 105.936 96.7007 105.568C97.4847 105.2 98.3967 105.016 99.4367 105.016C100.445 105.016 101.341 105.2 102.125 105.568C102.925 105.936 103.573 106.456 104.069 107.128C104.581 107.784 104.901 108.576 105.029 109.504H103.781C103.637 108.544 103.189 107.752 102.437 107.128C101.685 106.488 100.685 106.168 99.4367 106.168C98.3327 106.168 97.4127 106.416 96.6767 106.912C95.9407 107.408 95.3887 108.072 95.0207 108.904C94.6687 109.736 94.4927 110.656 94.4927 111.664C94.4927 112.64 94.6767 113.552 95.0447 114.4C95.4127 115.248 95.9647 115.936 96.7007 116.464C97.4367 116.976 98.3487 117.232 99.4367 117.232C100.285 117.232 101.029 117.08 101.669 116.776C102.325 116.456 102.853 116.04 103.253 115.528C103.653 115 103.893 114.424 103.973 113.8H105.221C105.109 114.728 104.789 115.536 104.261 116.224C103.733 116.896 103.053 117.432 102.221 117.832C101.389 118.216 100.461 118.408 99.4367 118.408ZM119.616 118.408C118.576 118.408 117.664 118.216 116.88 117.832C116.112 117.448 115.464 116.936 114.936 116.296C114.424 115.656 114.04 114.944 113.784 114.16C113.528 113.376 113.4 112.584 113.4 111.784V111.544C113.4 110.728 113.528 109.928 113.784 109.144C114.04 108.36 114.424 107.664 114.936 107.056C115.464 106.432 116.112 105.936 116.88 105.568C117.664 105.2 118.576 105.016 119.616 105.016C120.624 105.016 121.52 105.2 122.304 105.568C123.104 105.936 123.752 106.456 124.248 107.128C124.76 107.784 125.08 108.576 125.208 109.504H123.96C123.816 108.544 123.368 107.752 122.616 107.128C121.864 106.488 120.864 106.168 119.616 106.168C118.512 106.168 117.592 106.416 116.856 106.912C116.12 107.408 115.568 108.072 115.2 108.904C114.848 109.736 114.672 110.656 114.672 111.664C114.672 112.64 114.856 113.552 115.224 114.4C115.592 115.248 116.144 115.936 116.88 116.464C117.616 116.976 118.528 117.232 119.616 117.232C120.464 117.232 121.208 117.08 121.848 116.776C122.504 116.456 123.032 116.04 123.432 115.528C123.832 115 124.072 114.424 124.152 113.8H125.4C125.288 114.728 124.968 115.536 124.44 116.224C123.912 116.896 123.232 117.432 122.4 117.832C121.568 118.216 120.64 118.408 119.616 118.408ZM134.366 118.408C133.31 118.408 132.374 118.216 131.558 117.832C130.742 117.448 130.054 116.944 129.494 116.32C128.95 115.696 128.534 115 128.246 114.232C127.974 113.448 127.838 112.648 127.838 111.832V111.592C127.838 110.76 127.982 109.952 128.27 109.168C128.558 108.384 128.982 107.68 129.542 107.056C130.102 106.432 130.782 105.936 131.582 105.568C132.398 105.2 133.326 105.016 134.366 105.016C135.39 105.016 136.302 105.2 137.102 105.568C137.918 105.936 138.606 106.432 139.166 107.056C139.726 107.68 140.15 108.384 140.438 109.168C140.742 109.952 140.894 110.76 140.894 111.592V111.832C140.894 112.648 140.75 113.448 140.462 114.232C140.174 115 139.75 115.696 139.19 116.32C138.646 116.944 137.966 117.448 137.15 117.832C136.35 118.216 135.422 118.408 134.366 118.408ZM134.366 117.232C135.486 117.232 136.43 116.976 137.198 116.464C137.982 115.952 138.574 115.28 138.974 114.448C139.39 113.6 139.598 112.688 139.598 111.712C139.598 110.704 139.39 109.784 138.974 108.952C138.558 108.104 137.958 107.432 137.174 106.936C136.406 106.424 135.47 106.168 134.366 106.168C133.278 106.168 132.334 106.424 131.534 106.936C130.75 107.432 130.15 108.104 129.734 108.952C129.318 109.784 129.11 110.704 129.11 111.712C129.11 112.688 129.31 113.6 129.71 114.448C130.126 115.28 130.726 115.952 131.51 116.464C132.294 116.976 133.246 117.232 134.366 117.232ZM144.761 118V105.4H145.769V110.56H145.481C145.481 109.472 145.641 108.52 145.961 107.704C146.297 106.872 146.793 106.224 147.449 105.76C148.105 105.296 148.937 105.064 149.945 105.064H150.017C151.009 105.064 151.833 105.296 152.489 105.76C153.145 106.208 153.625 106.848 153.929 107.68C154.249 108.496 154.409 109.456 154.409 110.56H153.929C153.929 109.472 154.089 108.52 154.409 107.704C154.745 106.872 155.241 106.224 155.897 105.76C156.569 105.296 157.409 105.064 158.417 105.064H158.489C159.481 105.064 160.305 105.296 160.961 105.76C161.633 106.208 162.129 106.848 162.449 107.68C162.769 108.496 162.929 109.456 162.929 110.56V118H161.657V110.272C161.657 109.072 161.361 108.104 160.769 107.368C160.193 106.616 159.337 106.24 158.201 106.24C157.049 106.24 156.137 106.624 155.465 107.392C154.809 108.16 154.481 109.16 154.481 110.392V118H153.209V110.272C153.209 109.072 152.913 108.104 152.321 107.368C151.745 106.616 150.889 106.24 149.753 106.24C148.601 106.24 147.689 106.624 147.017 107.392C146.361 108.16 146.033 109.16 146.033 110.392V118H144.761ZM167.706 122.8V105.4H168.714V110.776L168.33 110.944C168.346 109.76 168.594 108.728 169.074 107.848C169.57 106.952 170.242 106.256 171.09 105.76C171.938 105.264 172.922 105.016 174.042 105.016C175.002 105.016 175.858 105.2 176.61 105.568C177.362 105.92 177.994 106.408 178.506 107.032C179.034 107.64 179.434 108.336 179.706 109.12C179.978 109.904 180.114 110.728 180.114 111.592V111.832C180.114 112.648 179.978 113.448 179.706 114.232C179.434 115 179.034 115.704 178.506 116.344C177.994 116.968 177.362 117.472 176.61 117.856C175.858 118.224 175.002 118.408 174.042 118.408C172.922 118.408 171.93 118.152 171.066 117.64C170.218 117.128 169.554 116.424 169.074 115.528C168.594 114.616 168.338 113.584 168.306 112.432L168.978 114.112V122.8H167.706ZM173.874 117.256C174.93 117.256 175.826 117 176.562 116.488C177.314 115.96 177.882 115.28 178.266 114.448C178.65 113.6 178.842 112.688 178.842 111.712C178.842 110.688 178.642 109.76 178.242 108.928C177.858 108.08 177.29 107.408 176.538 106.912C175.802 106.416 174.914 106.168 173.874 106.168C172.914 106.168 172.058 106.384 171.306 106.816C170.57 107.232 169.986 107.816 169.554 108.568C169.122 109.304 168.906 110.152 168.906 111.112V112.336C168.906 113.248 169.114 114.08 169.53 114.832C169.962 115.568 170.546 116.16 171.282 116.608C172.034 117.04 172.898 117.256 173.874 117.256ZM184.067 118V100.48H185.339V118H184.067ZM182.171 101.56V100.48H185.339V101.56H182.171ZM195.413 118.408C194.341 118.408 193.413 118.224 192.629 117.856C191.845 117.472 191.205 116.968 190.709 116.344C190.213 115.704 189.837 114.992 189.581 114.208C189.341 113.408 189.221 112.6 189.221 111.784V111.544C189.221 110.712 189.341 109.912 189.581 109.144C189.837 108.376 190.213 107.68 190.709 107.056C191.221 106.416 191.853 105.92 192.605 105.568C193.373 105.2 194.261 105.016 195.269 105.016C196.549 105.016 197.621 105.304 198.485 105.88C199.365 106.44 200.029 107.176 200.477 108.088C200.925 109 201.149 109.96 201.149 110.968V111.832H189.821V110.776H200.309L199.925 111.256C199.925 110.28 199.741 109.408 199.373 108.64C199.021 107.872 198.493 107.272 197.789 106.84C197.101 106.392 196.261 106.168 195.269 106.168C194.197 106.168 193.301 106.416 192.581 106.912C191.861 107.408 191.317 108.072 190.949 108.904C190.597 109.736 190.421 110.656 190.421 111.664C190.421 112.672 190.597 113.6 190.949 114.448C191.317 115.28 191.869 115.96 192.605 116.488C193.341 117 194.277 117.256 195.413 117.256C196.629 117.256 197.605 116.976 198.341 116.416C199.093 115.856 199.549 115.184 199.709 114.4H200.957C200.781 115.184 200.445 115.88 199.949 116.488C199.453 117.096 198.821 117.568 198.053 117.904C197.301 118.24 196.421 118.408 195.413 118.408ZM203.177 118L208.001 111.352L208.097 111.856L203.513 105.4H204.929L208.577 110.56H208.865L212.345 105.4H213.689L209.441 111.616L209.321 111.136L214.432 118H213.017L208.865 112.384H208.553L204.521 118H203.177ZM218.3 118V105.4H219.596V118H218.3ZM216.212 106.504V105.4H219.596V106.504H216.212ZM218.42 102.76C218.084 102.76 217.828 102.672 217.652 102.496C217.476 102.304 217.388 102.064 217.388 101.776C217.388 101.472 217.476 101.224 217.652 101.032C217.828 100.84 218.092 100.744 218.444 100.744C218.78 100.744 219.036 100.84 219.212 101.032C219.388 101.224 219.476 101.472 219.476 101.776C219.476 102.064 219.388 102.304 219.212 102.496C219.052 102.672 218.788 102.76 218.42 102.76ZM228.766 118.12C227.982 118.12 227.294 118.008 226.702 117.784C226.11 117.544 225.654 117.144 225.334 116.584C225.014 116.024 224.854 115.272 224.854 114.328V101.296H226.102V114.544C226.102 115.312 226.31 115.912 226.726 116.344C227.158 116.76 227.75 116.968 228.502 116.968H230.854V118.12H228.766ZM222.454 106.432V105.4H230.854V106.432H222.454ZM233.158 122.896V121.72H234.598C235.158 121.72 235.646 121.648 236.062 121.504C236.478 121.376 236.838 121.136 237.142 120.784C237.462 120.432 237.726 119.928 237.934 119.272L242.422 105.4H243.694L239.014 119.68C238.758 120.464 238.414 121.088 237.982 121.552C237.566 122.032 237.062 122.376 236.47 122.584C235.894 122.792 235.238 122.896 234.502 122.896H233.158ZM237.526 117.688V116.56H239.302V117.688H237.526ZM237.286 117.688L232.702 105.4H233.998L238.534 117.688H237.286Z" fill="url(#paint1_radial_1323_1412)"/>
<defs>
<radialGradient id="paint0_radial_1323_1412" cx="0" cy="0" r="1" gradientUnits="userSpaceOnUse" gradientTransform="translate(268 30) rotate(90) scale(30 268)">
<stop stop-color="#5A69EA"/>
<stop offset="1" stop-color="#BF8BCA"/>
</radialGradient>
<radialGradient id="paint1_radial_1323_1412" cx="0" cy="0" r="1" gradientUnits="userSpaceOnUse" gradientTransform="translate(254 95) rotate(90) scale(30 254)">
<stop stop-color="#5A69EA"/>
<stop offset="1" stop-color="#BF8BCA"/>
</radialGradient>
</defs>
</svg>
