<svg width="1219" height="279" viewBox="0 0 1219 279" fill="none" xmlns="http://www.w3.org/2000/svg">
<rect width="589" height="279" rx="10" fill="#ECECEC"/>
<rect x="1" y="1" width="587" height="277" rx="9" stroke="#717171" stroke-opacity="0.5" stroke-width="2"/>
<path d="M219.824 152V140.32H221.04V152H219.824ZM220.752 152V150.896H226.592V152H220.752ZM220.752 146.608V145.52H226.048V146.608H220.752ZM220.752 141.424V140.32H226.416V141.424H220.752ZM231.693 152.24C230.605 152.24 229.767 152.005 229.181 151.536C228.594 151.056 228.295 150.416 228.285 149.616H229.405C229.426 150.021 229.607 150.389 229.949 150.72C230.301 151.051 230.882 151.216 231.693 151.216C232.45 151.216 233.015 151.061 233.389 150.752C233.773 150.432 233.965 150.048 233.965 149.6C233.965 149.184 233.805 148.864 233.485 148.64C233.175 148.405 232.722 148.256 232.125 148.192L231.165 148.096C230.397 148.011 229.773 147.776 229.293 147.392C228.823 146.997 228.589 146.459 228.589 145.776C228.589 145.275 228.717 144.837 228.973 144.464C229.229 144.091 229.586 143.803 230.045 143.6C230.514 143.387 231.063 143.28 231.693 143.28C232.599 143.28 233.335 143.493 233.901 143.92C234.477 144.347 234.77 144.955 234.781 145.744H233.661C233.65 145.339 233.479 144.997 233.149 144.72C232.818 144.443 232.333 144.304 231.693 144.304C231.031 144.304 230.535 144.448 230.205 144.736C229.885 145.024 229.725 145.376 229.725 145.792C229.725 146.144 229.847 146.437 230.093 146.672C230.338 146.896 230.722 147.035 231.245 147.088L232.205 147.184C233.058 147.28 233.751 147.525 234.285 147.92C234.829 148.315 235.101 148.88 235.101 149.616C235.101 150.117 234.957 150.571 234.669 150.976C234.391 151.371 233.997 151.68 233.485 151.904C232.973 152.128 232.375 152.24 231.693 152.24ZM240.562 152.096C239.975 152.096 239.468 152.011 239.042 151.84C238.615 151.669 238.284 151.381 238.049 150.976C237.815 150.56 237.698 150.005 237.698 149.312V140.864H238.85V149.488C238.85 149.979 238.983 150.357 239.25 150.624C239.516 150.88 239.895 151.008 240.386 151.008H241.906V152.096H240.562ZM236.178 144.448V143.536H241.906V144.448H236.178ZM244.672 152V143.536H245.856V152H244.672ZM243.312 144.496V143.536H245.856V144.496H243.312ZM244.928 141.968C244.64 141.968 244.421 141.893 244.272 141.744C244.133 141.584 244.064 141.387 244.064 141.152C244.064 140.917 244.133 140.725 244.272 140.576C244.421 140.416 244.64 140.336 244.928 140.336C245.216 140.336 245.429 140.416 245.568 140.576C245.707 140.725 245.776 140.917 245.776 141.152C245.776 141.387 245.707 141.584 245.568 141.744C245.429 141.893 245.216 141.968 244.928 141.968ZM249.005 152V143.52H249.965V147.088H249.773C249.773 146.309 249.88 145.637 250.093 145.072C250.317 144.507 250.648 144.069 251.085 143.76C251.522 143.44 252.077 143.28 252.749 143.28H252.797C253.469 143.28 254.024 143.435 254.461 143.744C254.898 144.053 255.224 144.491 255.437 145.056C255.65 145.621 255.757 146.299 255.757 147.088H255.373C255.373 146.309 255.48 145.637 255.693 145.072C255.917 144.507 256.248 144.069 256.685 143.76C257.133 143.44 257.693 143.28 258.365 143.28H258.413C259.085 143.28 259.64 143.435 260.077 143.744C260.525 144.053 260.856 144.491 261.069 145.056C261.293 145.621 261.405 146.299 261.405 147.088V152H260.205V146.816C260.205 146.069 260.024 145.477 259.661 145.04C259.298 144.603 258.776 144.384 258.093 144.384C257.389 144.384 256.829 144.613 256.413 145.072C256.008 145.52 255.805 146.128 255.805 146.896V152H254.605V146.816C254.605 146.069 254.424 145.477 254.061 145.04C253.698 144.603 253.176 144.384 252.493 144.384C251.789 144.384 251.229 144.613 250.813 145.072C250.408 145.52 250.205 146.128 250.205 146.896V152H249.005ZM269.548 152V149.456H269.356V146.448C269.356 145.819 269.19 145.339 268.86 145.008C268.529 144.667 268.017 144.496 267.324 144.496C267.004 144.496 266.678 144.501 266.348 144.512C266.028 144.523 265.718 144.539 265.42 144.56C265.132 144.571 264.876 144.587 264.652 144.608V143.552C264.886 143.531 265.126 143.509 265.372 143.488C265.617 143.467 265.868 143.456 266.124 143.456C266.39 143.445 266.646 143.44 266.892 143.44C267.756 143.44 268.449 143.547 268.972 143.76C269.505 143.973 269.894 144.309 270.14 144.768C270.385 145.216 270.508 145.813 270.508 146.56V152H269.548ZM266.684 152.224C266.086 152.224 265.558 152.117 265.1 151.904C264.641 151.691 264.284 151.381 264.028 150.976C263.782 150.571 263.66 150.08 263.66 149.504C263.66 148.939 263.788 148.459 264.044 148.064C264.31 147.669 264.689 147.371 265.18 147.168C265.681 146.955 266.284 146.848 266.988 146.848H269.468V147.76H266.908C266.236 147.76 265.718 147.925 265.356 148.256C265.004 148.576 264.828 148.997 264.828 149.52C264.828 150.053 265.014 150.48 265.388 150.8C265.761 151.109 266.268 151.264 266.908 151.264C267.302 151.264 267.681 151.195 268.044 151.056C268.406 150.907 268.71 150.661 268.956 150.32C269.201 149.968 269.334 149.488 269.356 148.88L269.708 149.376C269.665 150.005 269.516 150.533 269.26 150.96C269.004 151.376 268.657 151.691 268.22 151.904C267.782 152.117 267.27 152.224 266.684 152.224ZM276.577 152.096C275.99 152.096 275.484 152.011 275.057 151.84C274.63 151.669 274.3 151.381 274.065 150.976C273.83 150.56 273.713 150.005 273.713 149.312V140.864H274.865V149.488C274.865 149.979 274.998 150.357 275.265 150.624C275.532 150.88 275.91 151.008 276.401 151.008H277.921V152.096H276.577ZM272.193 144.448V143.536H277.921V144.448H272.193ZM283.697 152.272C282.972 152.272 282.343 152.149 281.809 151.904C281.276 151.648 280.839 151.312 280.497 150.896C280.156 150.469 279.9 149.995 279.729 149.472C279.569 148.949 279.489 148.411 279.489 147.856V147.632C279.489 147.088 279.569 146.555 279.729 146.032C279.9 145.509 280.156 145.04 280.497 144.624C280.839 144.208 281.265 143.877 281.777 143.632C282.3 143.376 282.908 143.248 283.601 143.248C284.487 143.248 285.223 143.445 285.809 143.84C286.407 144.235 286.855 144.741 287.153 145.36C287.452 145.968 287.601 146.624 287.601 147.328V147.952H280.033V147.024H286.769L286.465 147.488C286.465 146.859 286.353 146.309 286.129 145.84C285.916 145.36 285.596 144.987 285.169 144.72C284.753 144.443 284.231 144.304 283.601 144.304C282.94 144.304 282.391 144.459 281.953 144.768C281.516 145.077 281.185 145.488 280.961 146C280.748 146.512 280.641 147.093 280.641 147.744C280.641 148.384 280.748 148.971 280.961 149.504C281.185 150.027 281.521 150.443 281.969 150.752C282.428 151.061 283.004 151.216 283.697 151.216C284.433 151.216 285.031 151.051 285.489 150.72C285.948 150.379 286.231 149.979 286.337 149.52H287.457C287.351 150.085 287.127 150.576 286.785 150.992C286.444 151.397 286.012 151.712 285.489 151.936C284.967 152.16 284.369 152.272 283.697 152.272ZM293.383 152.272C292.765 152.272 292.199 152.16 291.687 151.936C291.186 151.701 290.749 151.381 290.375 150.976C290.013 150.56 289.73 150.091 289.527 149.568C289.335 149.035 289.239 148.469 289.239 147.872V147.648C289.239 147.072 289.335 146.523 289.527 146C289.719 145.467 289.991 144.997 290.343 144.592C290.706 144.176 291.138 143.851 291.639 143.616C292.151 143.371 292.722 143.248 293.351 143.248C294.066 143.248 294.695 143.403 295.239 143.712C295.783 144.021 296.221 144.469 296.551 145.056C296.882 145.632 297.058 146.341 297.079 147.184L296.551 146.192V140.32H297.751V152H296.791V148.24H297.175C297.154 149.125 296.967 149.872 296.615 150.48C296.274 151.077 295.821 151.525 295.255 151.824C294.701 152.123 294.077 152.272 293.383 152.272ZM293.543 151.216C294.119 151.216 294.637 151.088 295.095 150.832C295.565 150.576 295.933 150.213 296.199 149.744C296.466 149.264 296.599 148.715 296.599 148.096V147.328C296.599 146.731 296.466 146.208 296.199 145.76C295.933 145.301 295.565 144.944 295.095 144.688C294.637 144.432 294.114 144.304 293.527 144.304C292.898 144.304 292.349 144.459 291.879 144.768C291.421 145.067 291.063 145.477 290.807 146C290.562 146.523 290.439 147.109 290.439 147.76C290.439 148.432 290.567 149.029 290.823 149.552C291.079 150.075 291.442 150.485 291.911 150.784C292.381 151.072 292.925 151.216 293.543 151.216ZM309.831 152.272C308.786 152.272 307.89 152.091 307.143 151.728C306.407 151.355 305.805 150.869 305.335 150.272C304.877 149.675 304.541 149.029 304.327 148.336C304.114 147.632 304.007 146.949 304.007 146.288V145.984C304.007 145.269 304.114 144.56 304.327 143.856C304.551 143.141 304.893 142.496 305.351 141.92C305.821 141.344 306.418 140.885 307.143 140.544C307.869 140.192 308.727 140.016 309.719 140.016C310.722 140.016 311.586 140.192 312.311 140.544C313.047 140.896 313.634 141.392 314.071 142.032C314.509 142.661 314.775 143.408 314.871 144.272H313.639C313.554 143.579 313.33 143.003 312.967 142.544C312.605 142.075 312.141 141.723 311.575 141.488C311.021 141.253 310.402 141.136 309.719 141.136C308.983 141.136 308.333 141.269 307.767 141.536C307.213 141.792 306.749 142.155 306.375 142.624C306.002 143.083 305.719 143.616 305.527 144.224C305.335 144.821 305.239 145.461 305.239 146.144C305.239 146.795 305.33 147.419 305.511 148.016C305.703 148.613 305.991 149.152 306.375 149.632C306.759 150.101 307.239 150.475 307.815 150.752C308.391 151.019 309.063 151.152 309.831 151.152C310.898 151.152 311.794 150.885 312.519 150.352C313.245 149.808 313.693 149.029 313.863 148.016H315.095C314.978 148.816 314.701 149.541 314.263 150.192C313.826 150.832 313.234 151.339 312.487 151.712C311.751 152.085 310.866 152.272 309.831 152.272ZM321.078 152.272C320.353 152.272 319.713 152.149 319.158 151.904C318.614 151.648 318.15 151.312 317.766 150.896C317.393 150.469 317.105 149.995 316.902 149.472C316.71 148.949 316.614 148.416 316.614 147.872V147.648C316.614 147.104 316.716 146.571 316.918 146.048C317.121 145.515 317.414 145.04 317.798 144.624C318.182 144.208 318.646 143.877 319.19 143.632C319.745 143.376 320.374 143.248 321.078 143.248C321.793 143.248 322.422 143.376 322.966 143.632C323.521 143.877 323.99 144.208 324.374 144.624C324.758 145.04 325.046 145.515 325.238 146.048C325.441 146.571 325.542 147.104 325.542 147.648V147.872C325.542 148.416 325.446 148.949 325.254 149.472C325.062 149.995 324.774 150.469 324.39 150.896C324.017 151.312 323.553 151.648 322.998 151.904C322.444 152.149 321.804 152.272 321.078 152.272ZM321.078 151.2C321.782 151.2 322.374 151.045 322.854 150.736C323.345 150.416 323.718 150 323.974 149.488C324.23 148.965 324.358 148.389 324.358 147.76C324.358 147.12 324.225 146.544 323.958 146.032C323.702 145.509 323.329 145.099 322.838 144.8C322.348 144.491 321.761 144.336 321.078 144.336C320.406 144.336 319.825 144.491 319.334 144.8C318.844 145.099 318.465 145.509 318.198 146.032C317.942 146.544 317.814 147.12 317.814 147.76C317.814 148.389 317.942 148.965 318.198 149.488C318.454 150 318.822 150.416 319.302 150.736C319.793 151.045 320.385 151.2 321.078 151.2ZM330.661 152.24C329.573 152.24 328.736 152.005 328.15 151.536C327.563 151.056 327.264 150.416 327.254 149.616H328.374C328.395 150.021 328.576 150.389 328.918 150.72C329.27 151.051 329.851 151.216 330.661 151.216C331.419 151.216 331.984 151.061 332.358 150.752C332.742 150.432 332.934 150.048 332.934 149.6C332.934 149.184 332.774 148.864 332.454 148.64C332.144 148.405 331.691 148.256 331.094 148.192L330.134 148.096C329.366 148.011 328.742 147.776 328.262 147.392C327.792 146.997 327.558 146.459 327.558 145.776C327.558 145.275 327.686 144.837 327.942 144.464C328.198 144.091 328.555 143.803 329.014 143.6C329.483 143.387 330.032 143.28 330.661 143.28C331.568 143.28 332.304 143.493 332.87 143.92C333.446 144.347 333.739 144.955 333.75 145.744H332.63C332.619 145.339 332.448 144.997 332.118 144.72C331.787 144.443 331.302 144.304 330.661 144.304C330 144.304 329.504 144.448 329.174 144.736C328.854 145.024 328.694 145.376 328.694 145.792C328.694 146.144 328.816 146.437 329.062 146.672C329.307 146.896 329.691 147.035 330.214 147.088L331.174 147.184C332.027 147.28 332.72 147.525 333.254 147.92C333.798 148.315 334.07 148.88 334.07 149.616C334.07 150.117 333.926 150.571 333.638 150.976C333.36 151.371 332.966 151.68 332.454 151.904C331.942 152.128 331.344 152.24 330.661 152.24ZM339.53 152.096C338.944 152.096 338.437 152.011 338.01 151.84C337.584 151.669 337.253 151.381 337.018 150.976C336.784 150.56 336.666 150.005 336.666 149.312V140.864H337.818V149.488C337.818 149.979 337.952 150.357 338.218 150.624C338.485 150.88 338.864 151.008 339.354 151.008H340.874V152.096H339.53ZM335.146 144.448V143.536H340.874V144.448H335.146ZM343.641 152V143.536H344.825V152H343.641ZM342.281 144.496V143.536H344.825V144.496H342.281ZM343.897 141.968C343.609 141.968 343.39 141.893 343.241 141.744C343.102 141.584 343.033 141.387 343.033 141.152C343.033 140.917 343.102 140.725 343.241 140.576C343.39 140.416 343.609 140.336 343.897 140.336C344.185 140.336 344.398 140.416 344.537 140.576C344.675 140.725 344.745 140.917 344.745 141.152C344.745 141.387 344.675 141.584 344.537 141.744C344.398 141.893 344.185 141.968 343.897 141.968ZM347.974 152V143.536H348.934V147.088H348.742C348.742 146.299 348.859 145.621 349.094 145.056C349.329 144.491 349.681 144.053 350.15 143.744C350.619 143.435 351.211 143.28 351.926 143.28H351.974C353.041 143.28 353.835 143.616 354.358 144.288C354.881 144.949 355.142 145.883 355.142 147.088V152H353.958V146.832C353.958 146.096 353.755 145.504 353.35 145.056C352.945 144.608 352.379 144.384 351.654 144.384C350.907 144.384 350.305 144.619 349.846 145.088C349.398 145.547 349.174 146.155 349.174 146.912V152H347.974ZM361.362 155.312C360.967 155.312 360.567 155.291 360.162 155.248C359.767 155.216 359.389 155.173 359.026 155.12V154.096C359.41 154.149 359.81 154.192 360.226 154.224C360.653 154.267 361.053 154.288 361.426 154.288C362.237 154.288 362.882 154.181 363.362 153.968C363.842 153.755 364.183 153.413 364.386 152.944C364.599 152.485 364.706 151.877 364.706 151.12V149.424L365.154 148.24C365.133 149.051 364.962 149.749 364.642 150.336C364.322 150.912 363.89 151.355 363.346 151.664C362.802 151.973 362.183 152.128 361.49 152.128C360.882 152.128 360.327 152.011 359.826 151.776C359.335 151.541 358.914 151.221 358.562 150.816C358.21 150.4 357.938 149.931 357.746 149.408C357.554 148.885 357.458 148.336 357.458 147.76V147.536C357.458 146.971 357.554 146.432 357.746 145.92C357.938 145.397 358.21 144.939 358.562 144.544C358.914 144.139 359.341 143.824 359.842 143.6C360.354 143.365 360.919 143.248 361.538 143.248C362.285 143.248 362.935 143.413 363.49 143.744C364.045 144.075 364.477 144.533 364.786 145.12C365.106 145.707 365.277 146.395 365.298 147.184L364.914 146.976V143.536H365.858V151.072C365.858 152.085 365.709 152.901 365.41 153.52C365.111 154.139 364.631 154.592 363.97 154.88C363.319 155.168 362.45 155.312 361.362 155.312ZM361.698 151.024C362.274 151.024 362.786 150.901 363.234 150.656C363.693 150.4 364.055 150.043 364.322 149.584C364.589 149.125 364.722 148.592 364.722 147.984V147.2C364.722 146.613 364.583 146.101 364.306 145.664C364.039 145.227 363.682 144.885 363.234 144.64C362.786 144.395 362.274 144.272 361.698 144.272C361.079 144.272 360.541 144.421 360.082 144.72C359.623 145.019 359.271 145.424 359.026 145.936C358.781 146.437 358.658 147.008 358.658 147.648C358.658 148.299 358.781 148.88 359.026 149.392C359.282 149.904 359.639 150.304 360.098 150.592C360.557 150.88 361.09 151.024 361.698 151.024ZM368.625 152V150.416H370.129V152H368.625ZM368.625 145.968V144.384H370.129V145.968H368.625Z" fill="#404040"/>
<path d="M158.692 204.612C156.772 204.612 155.14 204.24 153.796 203.496C152.476 202.752 151.468 201.744 150.772 200.472C150.076 199.2 149.728 197.808 149.728 196.296H152.356C152.356 198.12 152.92 199.572 154.048 200.652C155.176 201.708 156.724 202.236 158.692 202.236C159.964 202.236 161.068 201.996 162.004 201.516C162.964 201.036 163.696 200.352 164.2 199.464C164.728 198.576 164.992 197.544 164.992 196.368C164.992 194.568 164.428 193.116 163.3 192.012C162.172 190.908 160.648 190.356 158.728 190.356C157.96 190.356 157.3 190.452 156.748 190.644C156.196 190.812 155.704 191.028 155.272 191.292L153.796 188.772L164.272 180.636L163.984 180.06H150.772V177.72H166.504V181.608L157.216 188.844L155.452 188.88C155.884 188.688 156.376 188.532 156.928 188.412C157.48 188.268 158.116 188.196 158.836 188.196C160.684 188.196 162.256 188.556 163.552 189.276C164.872 189.996 165.88 190.956 166.576 192.156C167.272 193.356 167.62 194.676 167.62 196.116V196.62C167.62 198.012 167.272 199.32 166.576 200.544C165.88 201.768 164.872 202.752 163.552 203.496C162.232 204.24 160.612 204.612 158.692 204.612ZM183.186 204.612C181.338 204.612 179.754 204.288 178.434 203.64C177.114 202.992 176.034 202.092 175.194 200.94C174.354 199.764 173.73 198.396 173.322 196.836C172.938 195.252 172.746 193.548 172.746 191.724V190.032C172.746 187.464 173.118 185.208 173.862 183.264C174.63 181.32 175.782 179.796 177.318 178.692C178.878 177.588 180.834 177.036 183.186 177.036C185.538 177.036 187.482 177.588 189.018 178.692C190.554 179.796 191.694 181.32 192.438 183.264C193.206 185.208 193.59 187.464 193.59 190.032V191.724C193.59 193.548 193.386 195.252 192.978 196.836C192.594 198.396 191.982 199.764 191.142 200.94C190.302 202.092 189.222 202.992 187.902 203.64C186.582 204.288 185.01 204.612 183.186 204.612ZM183.186 202.164C185.778 202.164 187.698 201.252 188.945 199.428C190.218 197.604 190.854 194.76 190.854 190.896C190.854 186.864 190.206 183.96 188.91 182.184C187.638 180.384 185.73 179.484 183.186 179.484C180.618 179.484 178.686 180.384 177.39 182.184C176.118 183.96 175.482 186.84 175.482 190.824C175.482 194.712 176.106 197.58 177.354 199.428C178.626 201.252 180.57 202.164 183.186 202.164ZM209.658 204.612C207.81 204.612 206.226 204.288 204.906 203.64C203.586 202.992 202.506 202.092 201.666 200.94C200.826 199.764 200.202 198.396 199.794 196.836C199.41 195.252 199.218 193.548 199.218 191.724V190.032C199.218 187.464 199.59 185.208 200.334 183.264C201.102 181.32 202.254 179.796 203.79 178.692C205.35 177.588 207.306 177.036 209.658 177.036C212.01 177.036 213.954 177.588 215.49 178.692C217.026 179.796 218.166 181.32 218.91 183.264C219.678 185.208 220.062 187.464 220.062 190.032V191.724C220.062 193.548 219.858 195.252 219.45 196.836C219.066 198.396 218.454 199.764 217.614 200.94C216.774 202.092 215.694 202.992 214.374 203.64C213.054 204.288 211.482 204.612 209.658 204.612ZM209.658 202.164C212.25 202.164 214.17 201.252 215.418 199.428C216.69 197.604 217.326 194.76 217.326 190.896C217.326 186.864 216.678 183.96 215.382 182.184C214.11 180.384 212.202 179.484 209.658 179.484C207.09 179.484 205.158 180.384 203.862 182.184C202.59 183.96 201.954 186.84 201.954 190.824C201.954 194.712 202.578 197.58 203.826 199.428C205.098 201.252 207.042 202.164 209.658 202.164ZM236.131 204.612C234.283 204.612 232.699 204.288 231.379 203.64C230.059 202.992 228.979 202.092 228.139 200.94C227.299 199.764 226.675 198.396 226.267 196.836C225.883 195.252 225.691 193.548 225.691 191.724V190.032C225.691 187.464 226.063 185.208 226.807 183.264C227.575 181.32 228.727 179.796 230.263 178.692C231.823 177.588 233.779 177.036 236.131 177.036C238.483 177.036 240.427 177.588 241.963 178.692C243.499 179.796 244.639 181.32 245.383 183.264C246.151 185.208 246.535 187.464 246.535 190.032V191.724C246.535 193.548 246.331 195.252 245.923 196.836C245.539 198.396 244.927 199.764 244.087 200.94C243.247 202.092 242.167 202.992 240.847 203.64C239.527 204.288 237.955 204.612 236.131 204.612ZM236.131 202.164C238.723 202.164 240.643 201.252 241.891 199.428C243.163 197.604 243.799 194.76 243.799 190.896C243.799 186.864 243.151 183.96 241.855 182.184C240.583 180.384 238.675 179.484 236.131 179.484C233.563 179.484 231.631 180.384 230.335 182.184C229.063 183.96 228.427 186.84 228.427 190.824C228.427 194.712 229.051 197.58 230.299 199.428C231.571 201.252 233.515 202.164 236.131 202.164ZM261.163 203.964C259.051 203.964 257.275 203.628 255.835 202.956C254.419 202.284 253.351 201.336 252.631 200.112C251.911 198.864 251.551 197.424 251.551 195.792H254.071C254.071 196.8 254.299 197.748 254.755 198.636C255.235 199.524 255.991 200.256 257.023 200.832C258.055 201.384 259.435 201.66 261.163 201.66C263.467 201.66 265.183 201.18 266.311 200.22C267.463 199.26 268.039 198.096 268.039 196.728C268.039 195.432 267.535 194.34 266.527 193.452C265.543 192.564 264.067 192.024 262.099 191.832L259.723 191.616C257.491 191.424 255.715 190.764 254.395 189.636C253.099 188.484 252.451 186.864 252.451 184.776C252.451 183.36 252.787 182.124 253.459 181.068C254.131 180.012 255.103 179.196 256.375 178.62C257.647 178.044 259.183 177.756 260.983 177.756C262.807 177.756 264.355 178.08 265.627 178.728C266.923 179.376 267.907 180.288 268.579 181.464C269.251 182.64 269.587 184.02 269.587 185.604H267.031C267.031 184.644 266.815 183.744 266.383 182.904C265.975 182.064 265.327 181.38 264.439 180.852C263.575 180.324 262.423 180.06 260.983 180.06C259.687 180.06 258.595 180.276 257.707 180.708C256.819 181.116 256.147 181.68 255.691 182.4C255.259 183.096 255.043 183.888 255.043 184.776C255.043 186 255.451 187.008 256.267 187.8C257.107 188.592 258.343 189.06 259.975 189.204L262.351 189.42C264.919 189.66 266.935 190.428 268.399 191.724C269.887 192.996 270.631 194.664 270.631 196.728C270.631 198.144 270.247 199.404 269.479 200.508C268.735 201.588 267.655 202.44 266.239 203.064C264.847 203.664 263.155 203.964 261.163 203.964ZM259.939 208.644V203.388H262.351V208.644H259.939ZM259.795 179.16V174.228H262.207V179.16H259.795ZM340.077 204.612C338.085 204.612 336.417 204.216 335.073 203.424C333.729 202.608 332.709 201.54 332.013 200.22C331.317 198.9 330.969 197.484 330.969 195.972H333.597C333.597 197.172 333.849 198.24 334.353 199.176C334.881 200.112 335.625 200.856 336.585 201.408C337.545 201.96 338.709 202.236 340.077 202.236C341.445 202.236 342.609 201.972 343.569 201.444C344.529 200.892 345.261 200.148 345.765 199.212C346.293 198.252 346.557 197.172 346.557 195.972C346.557 194.796 346.305 193.728 345.801 192.768C345.297 191.808 344.553 191.052 343.569 190.5C342.609 189.924 341.445 189.636 340.077 189.636C339.117 189.636 338.169 189.804 337.233 190.14C336.297 190.452 335.517 190.92 334.893 191.544H332.409L333.777 177.72H346.845V180.06H335.253L336.009 179.124L334.929 189.924L334.101 189.744C334.845 189 335.721 188.412 336.729 187.98C337.737 187.548 338.889 187.332 340.185 187.332C342.153 187.332 343.809 187.74 345.153 188.556C346.497 189.372 347.505 190.428 348.177 191.724C348.873 192.996 349.221 194.34 349.221 195.756V196.224C349.221 197.64 348.873 198.996 348.177 200.292C347.481 201.564 346.449 202.608 345.081 203.424C343.737 204.216 342.069 204.612 340.077 204.612ZM364.275 204.612C362.427 204.612 360.843 204.288 359.523 203.64C358.203 202.992 357.123 202.092 356.283 200.94C355.443 199.764 354.819 198.396 354.411 196.836C354.027 195.252 353.835 193.548 353.835 191.724V190.032C353.835 187.464 354.207 185.208 354.951 183.264C355.719 181.32 356.871 179.796 358.407 178.692C359.967 177.588 361.923 177.036 364.275 177.036C366.627 177.036 368.571 177.588 370.107 178.692C371.643 179.796 372.783 181.32 373.527 183.264C374.295 185.208 374.679 187.464 374.679 190.032V191.724C374.679 193.548 374.475 195.252 374.067 196.836C373.683 198.396 373.071 199.764 372.231 200.94C371.391 202.092 370.311 202.992 368.991 203.64C367.671 204.288 366.099 204.612 364.275 204.612ZM364.275 202.164C366.867 202.164 368.787 201.252 370.035 199.428C371.307 197.604 371.943 194.76 371.943 190.896C371.943 186.864 371.295 183.96 369.999 182.184C368.727 180.384 366.819 179.484 364.275 179.484C361.707 179.484 359.775 180.384 358.479 182.184C357.207 183.96 356.571 186.84 356.571 190.824C356.571 194.712 357.195 197.58 358.443 199.428C359.715 201.252 361.659 202.164 364.275 202.164ZM390.748 204.612C388.9 204.612 387.316 204.288 385.996 203.64C384.676 202.992 383.596 202.092 382.756 200.94C381.916 199.764 381.292 198.396 380.884 196.836C380.5 195.252 380.308 193.548 380.308 191.724V190.032C380.308 187.464 380.68 185.208 381.424 183.264C382.192 181.32 383.344 179.796 384.88 178.692C386.44 177.588 388.396 177.036 390.748 177.036C393.1 177.036 395.044 177.588 396.58 178.692C398.116 179.796 399.256 181.32 400 183.264C400.768 185.208 401.152 187.464 401.152 190.032V191.724C401.152 193.548 400.948 195.252 400.54 196.836C400.156 198.396 399.544 199.764 398.704 200.94C397.864 202.092 396.784 202.992 395.464 203.64C394.144 204.288 392.572 204.612 390.748 204.612ZM390.748 202.164C393.34 202.164 395.26 201.252 396.508 199.428C397.78 197.604 398.416 194.76 398.416 190.896C398.416 186.864 397.768 183.96 396.472 182.184C395.2 180.384 393.292 179.484 390.748 179.484C388.18 179.484 386.248 180.384 384.952 182.184C383.68 183.96 383.044 186.84 383.044 190.824C383.044 194.712 383.668 197.58 384.916 199.428C386.188 201.252 388.132 202.164 390.748 202.164ZM417.221 204.612C415.373 204.612 413.789 204.288 412.469 203.64C411.149 202.992 410.069 202.092 409.229 200.94C408.389 199.764 407.765 198.396 407.357 196.836C406.973 195.252 406.781 193.548 406.781 191.724V190.032C406.781 187.464 407.153 185.208 407.897 183.264C408.665 181.32 409.817 179.796 411.353 178.692C412.913 177.588 414.869 177.036 417.221 177.036C419.573 177.036 421.517 177.588 423.053 178.692C424.589 179.796 425.729 181.32 426.473 183.264C427.241 185.208 427.625 187.464 427.625 190.032V191.724C427.625 193.548 427.421 195.252 427.013 196.836C426.629 198.396 426.017 199.764 425.177 200.94C424.337 202.092 423.257 202.992 421.937 203.64C420.617 204.288 419.045 204.612 417.221 204.612ZM417.221 202.164C419.813 202.164 421.733 201.252 422.981 199.428C424.253 197.604 424.889 194.76 424.889 190.896C424.889 186.864 424.241 183.96 422.945 182.184C421.673 180.384 419.765 179.484 417.221 179.484C414.653 179.484 412.721 180.384 411.425 182.184C410.153 183.96 409.517 186.84 409.517 190.824C409.517 194.712 410.141 197.58 411.389 199.428C412.661 201.252 414.605 202.164 417.221 202.164ZM442.253 203.964C440.141 203.964 438.365 203.628 436.925 202.956C435.509 202.284 434.441 201.336 433.721 200.112C433.001 198.864 432.641 197.424 432.641 195.792H435.161C435.161 196.8 435.389 197.748 435.845 198.636C436.325 199.524 437.081 200.256 438.113 200.832C439.145 201.384 440.525 201.66 442.253 201.66C444.557 201.66 446.273 201.18 447.401 200.22C448.553 199.26 449.129 198.096 449.129 196.728C449.129 195.432 448.625 194.34 447.617 193.452C446.633 192.564 445.157 192.024 443.189 191.832L440.813 191.616C438.581 191.424 436.805 190.764 435.485 189.636C434.189 188.484 433.541 186.864 433.541 184.776C433.541 183.36 433.877 182.124 434.549 181.068C435.221 180.012 436.193 179.196 437.465 178.62C438.737 178.044 440.273 177.756 442.073 177.756C443.897 177.756 445.445 178.08 446.717 178.728C448.013 179.376 448.997 180.288 449.669 181.464C450.341 182.64 450.677 184.02 450.677 185.604H448.121C448.121 184.644 447.905 183.744 447.473 182.904C447.065 182.064 446.417 181.38 445.529 180.852C444.665 180.324 443.513 180.06 442.073 180.06C440.777 180.06 439.685 180.276 438.797 180.708C437.909 181.116 437.237 181.68 436.781 182.4C436.349 183.096 436.133 183.888 436.133 184.776C436.133 186 436.541 187.008 437.357 187.8C438.197 188.592 439.433 189.06 441.065 189.204L443.441 189.42C446.009 189.66 448.025 190.428 449.489 191.724C450.977 192.996 451.721 194.664 451.721 196.728C451.721 198.144 451.337 199.404 450.569 200.508C449.825 201.588 448.745 202.44 447.329 203.064C445.937 203.664 444.245 203.964 442.253 203.964ZM441.029 208.644V203.388H443.441V208.644H441.029ZM440.885 179.16V174.228H443.297V179.16H440.885Z" fill="url(#paint0_radial_1323_1415)"/>
<path d="M291.752 204.216C290.432 204.216 289.292 204.024 288.332 203.64C287.372 203.256 286.628 202.608 286.1 201.696C285.572 200.76 285.308 199.512 285.308 197.952V178.944H287.9V198.348C287.9 199.452 288.2 200.304 288.8 200.904C289.4 201.48 290.252 201.768 291.356 201.768H294.776V204.216H291.752ZM281.888 187.008V184.956H294.776V187.008H281.888ZM308.348 204.612C306.716 204.612 305.276 204.336 304.028 203.784C302.804 203.208 301.76 202.452 300.896 201.516C300.056 200.556 299.408 199.488 298.952 198.312C298.52 197.136 298.304 195.936 298.304 194.712V194.208C298.304 192.984 298.532 191.784 298.988 190.608C299.444 189.408 300.104 188.34 300.968 187.404C301.832 186.468 302.876 185.724 304.1 185.172C305.348 184.596 306.764 184.308 308.348 184.308C309.956 184.308 311.372 184.596 312.596 185.172C313.844 185.724 314.9 186.468 315.764 187.404C316.628 188.34 317.276 189.408 317.708 190.608C318.164 191.784 318.392 192.984 318.392 194.208V194.712C318.392 195.936 318.176 197.136 317.744 198.312C317.312 199.488 316.664 200.556 315.8 201.516C314.96 202.452 313.916 203.208 312.668 203.784C311.42 204.336 309.98 204.612 308.348 204.612ZM308.348 202.2C309.932 202.2 311.264 201.852 312.344 201.156C313.448 200.436 314.288 199.5 314.864 198.348C315.44 197.172 315.728 195.876 315.728 194.46C315.728 193.02 315.428 191.724 314.828 190.572C314.252 189.396 313.412 188.472 312.308 187.8C311.204 187.104 309.884 186.756 308.348 186.756C306.836 186.756 305.528 187.104 304.424 187.8C303.32 188.472 302.468 189.396 301.868 190.572C301.292 191.724 301.004 193.02 301.004 194.46C301.004 195.876 301.292 197.172 301.868 198.348C302.444 199.5 303.272 200.436 304.352 201.156C305.456 201.852 306.788 202.2 308.348 202.2Z" fill="#404040"/>
<path d="M182.128 90.456V88.312H187.568C188.826 88.312 189.85 88.0773 190.64 87.608C191.429 87.1173 192.016 86.4773 192.4 85.688C192.784 84.8773 192.976 83.9813 192.976 83C192.976 81.9973 192.784 81.1013 192.4 80.312C192.016 79.5013 191.429 78.8613 190.64 78.392C189.85 77.9227 188.826 77.688 187.568 77.688H182.128V75.544H187.152C189.029 75.544 190.576 75.8533 191.792 76.472C193.029 77.0907 193.946 77.944 194.544 79.032C195.162 80.12 195.472 81.368 195.472 82.776V83.224C195.472 84.6107 195.162 85.8587 194.544 86.968C193.946 88.056 193.029 88.9093 191.792 89.528C190.576 90.1467 189.029 90.456 187.152 90.456H182.128ZM180.336 99V75.544H182.768V99H180.336ZM200.01 99V82.072H201.93V89.144H201.738C201.738 86.6693 202.282 84.8453 203.37 83.672C204.458 82.4773 206.165 81.88 208.49 81.88H209.034V84.056H208.042C206.208 84.056 204.81 84.536 203.85 85.496C202.89 86.4347 202.41 87.8213 202.41 89.656V99H200.01ZM219.77 99.544C218.319 99.544 217.06 99.2987 215.994 98.808C214.927 98.296 214.052 97.624 213.37 96.792C212.687 95.9387 212.175 94.9893 211.834 93.944C211.514 92.8987 211.354 91.8213 211.354 90.712V90.264C211.354 89.176 211.514 88.1093 211.834 87.064C212.175 86.0187 212.687 85.08 213.37 84.248C214.052 83.416 214.906 82.7547 215.93 82.264C216.975 81.752 218.191 81.496 219.578 81.496C221.348 81.496 222.82 81.8907 223.994 82.68C225.188 83.4693 226.084 84.4827 226.682 85.72C227.279 86.936 227.578 88.248 227.578 89.656V90.904H212.442V89.048H225.914L225.306 89.976C225.306 88.7173 225.082 87.6187 224.634 86.68C224.207 85.72 223.567 84.9733 222.714 84.44C221.882 83.8853 220.836 83.608 219.578 83.608C218.255 83.608 217.156 83.9173 216.282 84.536C215.407 85.1547 214.746 85.976 214.298 87C213.871 88.024 213.658 89.1867 213.658 90.488C213.658 91.768 213.871 92.9413 214.298 94.008C214.746 95.0533 215.418 95.8853 216.314 96.504C217.231 97.1227 218.383 97.432 219.77 97.432C221.242 97.432 222.436 97.1013 223.354 96.44C224.271 95.7573 224.836 94.9573 225.05 94.04H227.29C227.076 95.1707 226.628 96.152 225.946 96.984C225.263 97.7947 224.399 98.424 223.354 98.872C222.308 99.32 221.114 99.544 219.77 99.544ZM232.198 99V82.04H234.118V89.176H233.734C233.734 87.6187 233.947 86.2747 234.374 85.144C234.822 84.0133 235.483 83.1387 236.358 82.52C237.232 81.88 238.342 81.56 239.686 81.56H239.782C241.126 81.56 242.235 81.8693 243.11 82.488C243.984 83.1067 244.635 83.9813 245.062 85.112C245.488 86.2427 245.702 87.5973 245.702 89.176H244.934C244.934 87.6187 245.147 86.2747 245.574 85.144C246.022 84.0133 246.683 83.1387 247.558 82.52C248.454 81.88 249.574 81.56 250.918 81.56H251.014C252.358 81.56 253.467 81.8693 254.342 82.488C255.238 83.1067 255.899 83.9813 256.326 85.112C256.774 86.2427 256.998 87.5973 256.998 89.176V99H254.598V88.632C254.598 87.1387 254.235 85.9547 253.51 85.08C252.784 84.2053 251.739 83.768 250.374 83.768C248.966 83.768 247.846 84.2267 247.014 85.144C246.203 86.04 245.798 87.256 245.798 88.792V99H243.398V88.632C243.398 87.1387 243.035 85.9547 242.31 85.08C241.584 84.2053 240.539 83.768 239.174 83.768C237.766 83.768 236.646 84.2267 235.814 85.144C235.003 86.04 234.598 87.256 234.598 88.792V99H232.198ZM273.283 99V93.912H272.899V87.896C272.899 86.6373 272.568 85.6773 271.907 85.016C271.246 84.3333 270.222 83.992 268.835 83.992C268.195 83.992 267.544 84.0027 266.883 84.024C266.243 84.0453 265.624 84.0773 265.027 84.12C264.451 84.1413 263.939 84.1733 263.491 84.216V82.104C263.96 82.0613 264.44 82.0187 264.931 81.976C265.422 81.9333 265.923 81.912 266.435 81.912C266.968 81.8907 267.48 81.88 267.971 81.88C269.699 81.88 271.086 82.0933 272.131 82.52C273.198 82.9467 273.976 83.6187 274.467 84.536C274.958 85.432 275.203 86.6267 275.203 88.12V99H273.283ZM267.555 99.448C266.36 99.448 265.304 99.2347 264.387 98.808C263.47 98.3813 262.755 97.7627 262.243 96.952C261.752 96.1413 261.507 95.16 261.507 94.008C261.507 92.8773 261.763 91.9173 262.275 91.128C262.808 90.3387 263.566 89.7413 264.547 89.336C265.55 88.9093 266.755 88.696 268.163 88.696H273.123V90.52H268.003C266.659 90.52 265.624 90.8507 264.899 91.512C264.195 92.152 263.843 92.9947 263.843 94.04C263.843 95.1067 264.216 95.96 264.963 96.6C265.71 97.2187 266.723 97.528 268.003 97.528C268.792 97.528 269.55 97.3893 270.275 97.112C271 96.8133 271.608 96.3227 272.099 95.64C272.59 94.936 272.856 93.976 272.899 92.76L273.603 93.752C273.518 95.0107 273.219 96.0667 272.707 96.92C272.195 97.752 271.502 98.3813 270.627 98.808C269.752 99.2347 268.728 99.448 267.555 99.448ZM288.142 99.544C286.904 99.544 285.774 99.32 284.75 98.872C283.747 98.4027 282.872 97.7627 282.126 96.952C281.4 96.12 280.835 95.1813 280.43 94.136C280.046 93.0693 279.854 91.9387 279.854 90.744V90.296C279.854 89.144 280.046 88.0453 280.43 87C280.814 85.9333 281.358 84.9947 282.062 84.184C282.787 83.352 283.651 82.7013 284.654 82.232C285.678 81.7413 286.819 81.496 288.078 81.496C289.507 81.496 290.766 81.8053 291.854 82.424C292.942 83.0427 293.816 83.9387 294.478 85.112C295.139 86.264 295.491 87.6827 295.534 89.368L294.478 87.384V75.64H296.878V99H294.958V91.48H295.726C295.683 93.2507 295.31 94.744 294.606 95.96C293.923 97.1547 293.016 98.0507 291.886 98.648C290.776 99.2453 289.528 99.544 288.142 99.544ZM288.462 97.432C289.614 97.432 290.648 97.176 291.566 96.664C292.504 96.152 293.24 95.4267 293.774 94.488C294.307 93.528 294.574 92.4293 294.574 91.192V89.656C294.574 88.4613 294.307 87.416 293.774 86.52C293.24 85.6027 292.504 84.888 291.566 84.376C290.648 83.864 289.603 83.608 288.43 83.608C287.171 83.608 286.072 83.9173 285.134 84.536C284.216 85.1333 283.502 85.9547 282.99 87C282.499 88.0453 282.254 89.2187 282.254 90.52C282.254 91.864 282.51 93.0587 283.022 94.104C283.534 95.1493 284.259 95.9707 285.198 96.568C286.136 97.144 287.224 97.432 288.462 97.432ZM310.145 99.544C308.694 99.544 307.435 99.2987 306.369 98.808C305.302 98.296 304.427 97.624 303.745 96.792C303.062 95.9387 302.55 94.9893 302.209 93.944C301.889 92.8987 301.729 91.8213 301.729 90.712V90.264C301.729 89.176 301.889 88.1093 302.209 87.064C302.55 86.0187 303.062 85.08 303.745 84.248C304.427 83.416 305.281 82.7547 306.305 82.264C307.35 81.752 308.566 81.496 309.953 81.496C311.723 81.496 313.195 81.8907 314.369 82.68C315.563 83.4693 316.459 84.4827 317.057 85.72C317.654 86.936 317.953 88.248 317.953 89.656V90.904H302.817V89.048H316.289L315.681 89.976C315.681 88.7173 315.457 87.6187 315.009 86.68C314.582 85.72 313.942 84.9733 313.089 84.44C312.257 83.8853 311.211 83.608 309.953 83.608C308.63 83.608 307.531 83.9173 306.657 84.536C305.782 85.1547 305.121 85.976 304.673 87C304.246 88.024 304.033 89.1867 304.033 90.488C304.033 91.768 304.246 92.9413 304.673 94.008C305.121 95.0533 305.793 95.8853 306.689 96.504C307.606 97.1227 308.758 97.432 310.145 97.432C311.617 97.432 312.811 97.1013 313.729 96.44C314.646 95.7573 315.211 94.9573 315.425 94.04H317.665C317.451 95.1707 317.003 96.152 316.321 96.984C315.638 97.7947 314.774 98.424 313.729 98.872C312.683 99.32 311.489 99.544 310.145 99.544Z" fill="#404040"/>
<path d="M335.13 99V77.24H337.562V99H335.13ZM327.834 77.848V75.64H344.858V77.848H327.834ZM354.469 99.544C353.019 99.544 351.739 99.2987 350.629 98.808C349.541 98.296 348.613 97.624 347.845 96.792C347.099 95.9387 346.523 94.9893 346.117 93.944C345.733 92.8987 345.541 91.832 345.541 90.744V90.296C345.541 89.208 345.744 88.1413 346.149 87.096C346.555 86.0293 347.141 85.08 347.909 84.248C348.677 83.416 349.605 82.7547 350.693 82.264C351.803 81.752 353.061 81.496 354.469 81.496C355.899 81.496 357.157 81.752 358.245 82.264C359.355 82.7547 360.293 83.416 361.061 84.248C361.829 85.08 362.405 86.0293 362.789 87.096C363.195 88.1413 363.397 89.208 363.397 90.296V90.744C363.397 91.832 363.205 92.8987 362.821 93.944C362.437 94.9893 361.861 95.9387 361.093 96.792C360.347 97.624 359.419 98.296 358.309 98.808C357.2 99.2987 355.92 99.544 354.469 99.544ZM354.469 97.4C355.877 97.4 357.061 97.0907 358.021 96.472C359.003 95.832 359.749 95 360.261 93.976C360.773 92.9307 361.029 91.7787 361.029 90.52C361.029 89.24 360.763 88.088 360.229 87.064C359.717 86.0187 358.971 85.1973 357.989 84.6C357.008 83.9813 355.835 83.672 354.469 83.672C353.125 83.672 351.963 83.9813 350.981 84.6C350 85.1973 349.243 86.0187 348.709 87.064C348.197 88.088 347.941 89.24 347.941 90.52C347.941 91.7787 348.197 92.9307 348.709 93.976C349.221 95 349.957 95.832 350.917 96.472C351.899 97.0907 353.083 97.4 354.469 97.4ZM375.876 99.544C374.425 99.544 373.145 99.2987 372.036 98.808C370.948 98.296 370.02 97.624 369.252 96.792C368.505 95.9387 367.929 94.9893 367.524 93.944C367.14 92.8987 366.948 91.832 366.948 90.744V90.296C366.948 89.208 367.15 88.1413 367.556 87.096C367.961 86.0293 368.548 85.08 369.316 84.248C370.084 83.416 371.012 82.7547 372.1 82.264C373.209 81.752 374.468 81.496 375.876 81.496C377.305 81.496 378.564 81.752 379.652 82.264C380.761 82.7547 381.7 83.416 382.468 84.248C383.236 85.08 383.812 86.0293 384.196 87.096C384.601 88.1413 384.804 89.208 384.804 90.296V90.744C384.804 91.832 384.612 92.8987 384.228 93.944C383.844 94.9893 383.268 95.9387 382.5 96.792C381.753 97.624 380.825 98.296 379.716 98.808C378.606 99.2987 377.326 99.544 375.876 99.544ZM375.876 97.4C377.284 97.4 378.468 97.0907 379.428 96.472C380.409 95.832 381.156 95 381.668 93.976C382.18 92.9307 382.436 91.7787 382.436 90.52C382.436 89.24 382.169 88.088 381.635 87.064C381.124 86.0187 380.377 85.1973 379.396 84.6C378.414 83.9813 377.241 83.672 375.876 83.672C374.532 83.672 373.369 83.9813 372.388 84.6C371.406 85.1973 370.649 86.0187 370.116 87.064C369.604 88.088 369.348 89.24 369.348 90.52C369.348 91.7787 369.604 92.9307 370.116 93.976C370.628 95 371.364 95.832 372.324 96.472C373.305 97.0907 374.489 97.4 375.876 97.4ZM389.858 99V75.64H392.258V99H389.858ZM387.394 77.592V75.64H392.258V77.592H387.394ZM403.823 99.48C401.647 99.48 399.972 99.0107 398.799 98.072C397.626 97.112 397.028 95.832 397.007 94.232H399.247C399.29 95.0427 399.652 95.7787 400.335 96.44C401.039 97.1013 402.202 97.432 403.823 97.432C405.338 97.432 406.468 97.1227 407.215 96.504C407.983 95.864 408.367 95.096 408.367 94.2C408.367 93.368 408.047 92.728 407.407 92.28C406.788 91.8107 405.882 91.512 404.687 91.384L402.767 91.192C401.231 91.0213 399.983 90.552 399.023 89.784C398.084 88.9947 397.615 87.9173 397.615 86.552C397.615 85.5493 397.871 84.6747 398.383 83.928C398.895 83.1813 399.61 82.6053 400.527 82.2C401.466 81.7733 402.564 81.56 403.823 81.56C405.636 81.56 407.108 81.9867 408.239 82.84C409.391 83.6933 409.978 84.9093 409.999 86.488H407.759C407.738 85.6773 407.396 84.9947 406.735 84.44C406.074 83.8853 405.103 83.608 403.823 83.608C402.5 83.608 401.508 83.896 400.847 84.472C400.207 85.048 399.887 85.752 399.887 86.584C399.887 87.288 400.132 87.8747 400.623 88.344C401.114 88.792 401.882 89.0693 402.927 89.176L404.847 89.368C406.554 89.56 407.94 90.0507 409.007 90.84C410.095 91.6293 410.639 92.76 410.639 94.232C410.639 95.2347 410.351 96.1413 409.775 96.952C409.22 97.7413 408.431 98.36 407.407 98.808C406.383 99.256 405.188 99.48 403.823 99.48Z" fill="url(#paint1_radial_1323_1415)"/>
<rect x="631" width="588" height="279" rx="10" fill="#ECECEC"/>
<rect x="632" y="1" width="586" height="277" rx="9" stroke="#717171" stroke-opacity="0.5" stroke-width="2"/>
<path d="M828.834 99.544C826.744 99.544 824.952 99.1813 823.458 98.456C821.986 97.7093 820.781 96.7387 819.842 95.544C818.925 94.3493 818.253 93.0587 817.826 91.672C817.4 90.264 817.186 88.8987 817.186 87.576V86.968C817.186 85.5387 817.4 84.12 817.826 82.712C818.274 81.2827 818.957 79.992 819.874 78.84C820.813 77.688 822.008 76.7707 823.458 76.088C824.909 75.384 826.626 75.032 828.61 75.032C830.616 75.032 832.344 75.384 833.794 76.088C835.266 76.792 836.44 77.784 837.314 79.064C838.189 80.3227 838.722 81.816 838.914 83.544H836.45C836.28 82.1573 835.832 81.0053 835.106 80.088C834.381 79.1493 833.453 78.4453 832.322 77.976C831.213 77.5067 829.976 77.272 828.61 77.272C827.138 77.272 825.837 77.5387 824.706 78.072C823.597 78.584 822.669 79.3093 821.922 80.248C821.176 81.1653 820.61 82.232 820.226 83.448C819.842 84.6427 819.65 85.9227 819.65 87.288C819.65 88.5893 819.832 89.8373 820.194 91.032C820.578 92.2267 821.154 93.304 821.922 94.264C822.69 95.2027 823.65 95.9493 824.802 96.504C825.954 97.0373 827.298 97.304 828.834 97.304C830.968 97.304 832.76 96.7707 834.21 95.704C835.661 94.616 836.557 93.0587 836.898 91.032H839.362C839.128 92.632 838.573 94.0827 837.698 95.384C836.824 96.664 835.64 97.6773 834.146 98.424C832.674 99.1707 830.904 99.544 828.834 99.544ZM849.601 99.48C847.574 99.48 846.027 98.8293 844.961 97.528C843.894 96.2053 843.361 94.3707 843.361 92.024V82.04H845.729V92.504C845.729 93.976 846.113 95.1493 846.881 96.024C847.67 96.8773 848.758 97.304 850.145 97.304C851.595 97.304 852.747 96.8453 853.601 95.928C854.475 95.0107 854.913 93.784 854.913 92.248V82.04H857.313V99H855.393V91.928H855.777C855.777 93.5067 855.553 94.8613 855.105 95.992C854.657 97.1013 853.985 97.9653 853.089 98.584C852.193 99.1813 851.062 99.48 849.697 99.48H849.601ZM868.932 99.48C866.756 99.48 865.082 99.0107 863.908 98.072C862.735 97.112 862.138 95.832 862.116 94.232H864.356C864.399 95.0427 864.762 95.7787 865.444 96.44C866.148 97.1013 867.311 97.432 868.932 97.432C870.447 97.432 871.578 97.1227 872.324 96.504C873.092 95.864 873.476 95.096 873.476 94.2C873.476 93.368 873.156 92.728 872.516 92.28C871.898 91.8107 870.991 91.512 869.796 91.384L867.876 91.192C866.34 91.0213 865.092 90.552 864.132 89.784C863.194 88.9947 862.724 87.9173 862.724 86.552C862.724 85.5493 862.98 84.6747 863.492 83.928C864.004 83.1813 864.719 82.6053 865.636 82.2C866.575 81.7733 867.674 81.56 868.932 81.56C870.746 81.56 872.218 81.9867 873.348 82.84C874.5 83.6933 875.087 84.9093 875.108 86.488H872.868C872.847 85.6773 872.506 84.9947 871.844 84.44C871.183 83.8853 870.212 83.608 868.932 83.608C867.61 83.608 866.618 83.896 865.956 84.472C865.316 85.048 864.996 85.752 864.996 86.584C864.996 87.288 865.242 87.8747 865.732 88.344C866.223 88.792 866.991 89.0693 868.036 89.176L869.956 89.368C871.663 89.56 873.05 90.0507 874.116 90.84C875.204 91.6293 875.748 92.76 875.748 94.232C875.748 95.2347 875.46 96.1413 874.884 96.952C874.33 97.7413 873.54 98.36 872.516 98.808C871.492 99.256 870.298 99.48 868.932 99.48ZM886.67 99.192C885.497 99.192 884.483 99.0213 883.63 98.68C882.777 98.3387 882.115 97.7627 881.646 96.952C881.177 96.12 880.942 95.0107 880.942 93.624V76.728H883.246V93.976C883.246 94.9573 883.513 95.7147 884.046 96.248C884.579 96.76 885.337 97.016 886.318 97.016H889.358V99.192H886.67ZM877.902 83.896V82.072H889.358V83.896H877.902ZM901.422 99.544C899.972 99.544 898.692 99.2987 897.582 98.808C896.494 98.296 895.566 97.624 894.798 96.792C894.052 95.9387 893.476 94.9893 893.07 93.944C892.686 92.8987 892.494 91.832 892.494 90.744V90.296C892.494 89.208 892.697 88.1413 893.102 87.096C893.508 86.0293 894.094 85.08 894.862 84.248C895.63 83.416 896.558 82.7547 897.646 82.264C898.756 81.752 900.014 81.496 901.422 81.496C902.852 81.496 904.11 81.752 905.198 82.264C906.308 82.7547 907.246 83.416 908.014 84.248C908.782 85.08 909.358 86.0293 909.742 87.096C910.148 88.1413 910.35 89.208 910.35 90.296V90.744C910.35 91.832 910.158 92.8987 909.774 93.944C909.39 94.9893 908.814 95.9387 908.046 96.792C907.3 97.624 906.372 98.296 905.262 98.808C904.153 99.2987 902.873 99.544 901.422 99.544ZM901.422 97.4C902.83 97.4 904.014 97.0907 904.974 96.472C905.956 95.832 906.702 95 907.214 93.976C907.726 92.9307 907.982 91.7787 907.982 90.52C907.982 89.24 907.716 88.088 907.182 87.064C906.67 86.0187 905.924 85.1973 904.942 84.6C903.961 83.9813 902.788 83.672 901.422 83.672C900.078 83.672 898.916 83.9813 897.934 84.6C896.953 85.1973 896.196 86.0187 895.662 87.064C895.15 88.088 894.894 89.24 894.894 90.52C894.894 91.7787 895.15 92.9307 895.662 93.976C896.174 95 896.91 95.832 897.87 96.472C898.852 97.0907 900.036 97.4 901.422 97.4ZM915.245 99V82.04H917.165V89.176H916.781C916.781 87.6187 916.994 86.2747 917.421 85.144C917.869 84.0133 918.53 83.1387 919.405 82.52C920.279 81.88 921.389 81.56 922.733 81.56H922.829C924.173 81.56 925.282 81.8693 926.157 82.488C927.031 83.1067 927.682 83.9813 928.109 85.112C928.535 86.2427 928.749 87.5973 928.749 89.176H927.981C927.981 87.6187 928.194 86.2747 928.621 85.144C929.069 84.0133 929.73 83.1387 930.605 82.52C931.501 81.88 932.621 81.56 933.965 81.56H934.061C935.405 81.56 936.514 81.8693 937.389 82.488C938.285 83.1067 938.946 83.9813 939.373 85.112C939.821 86.2427 940.045 87.5973 940.045 89.176V99H937.645V88.632C937.645 87.1387 937.282 85.9547 936.557 85.08C935.831 84.2053 934.786 83.768 933.421 83.768C932.013 83.768 930.893 84.2267 930.061 85.144C929.25 86.04 928.845 87.256 928.845 88.792V99H926.445V88.632C926.445 87.1387 926.082 85.9547 925.357 85.08C924.631 84.2053 923.586 83.768 922.221 83.768C920.813 83.768 919.693 84.2267 918.861 85.144C918.05 86.04 917.645 87.256 917.645 88.792V99H915.245Z" fill="#404040"/>
<path d="M958.583 99V77.24H961.015V99H958.583ZM951.287 77.848V75.64H968.311V77.848H951.287ZM977.922 99.544C976.472 99.544 975.192 99.2987 974.082 98.808C972.994 98.296 972.066 97.624 971.298 96.792C970.552 95.9387 969.976 94.9893 969.57 93.944C969.186 92.8987 968.994 91.832 968.994 90.744V90.296C968.994 89.208 969.197 88.1413 969.602 87.096C970.008 86.0293 970.594 85.08 971.362 84.248C972.13 83.416 973.058 82.7547 974.146 82.264C975.256 81.752 976.514 81.496 977.922 81.496C979.352 81.496 980.61 81.752 981.698 82.264C982.808 82.7547 983.746 83.416 984.514 84.248C985.282 85.08 985.858 86.0293 986.242 87.096C986.648 88.1413 986.85 89.208 986.85 90.296V90.744C986.85 91.832 986.658 92.8987 986.274 93.944C985.89 94.9893 985.314 95.9387 984.546 96.792C983.8 97.624 982.872 98.296 981.762 98.808C980.653 99.2987 979.373 99.544 977.922 99.544ZM977.922 97.4C979.33 97.4 980.514 97.0907 981.474 96.472C982.456 95.832 983.202 95 983.714 93.976C984.226 92.9307 984.482 91.7787 984.482 90.52C984.482 89.24 984.216 88.088 983.682 87.064C983.17 86.0187 982.424 85.1973 981.442 84.6C980.461 83.9813 979.288 83.672 977.922 83.672C976.578 83.672 975.416 83.9813 974.434 84.6C973.453 85.1973 972.696 86.0187 972.162 87.064C971.65 88.088 971.394 89.24 971.394 90.52C971.394 91.7787 971.65 92.9307 972.162 93.976C972.674 95 973.41 95.832 974.37 96.472C975.352 97.0907 976.536 97.4 977.922 97.4ZM999.329 99.544C997.878 99.544 996.598 99.2987 995.489 98.808C994.401 98.296 993.473 97.624 992.705 96.792C991.958 95.9387 991.382 94.9893 990.977 93.944C990.593 92.8987 990.401 91.832 990.401 90.744V90.296C990.401 89.208 990.603 88.1413 991.009 87.096C991.414 86.0293 992.001 85.08 992.769 84.248C993.537 83.416 994.465 82.7547 995.553 82.264C996.662 81.752 997.921 81.496 999.329 81.496C1000.76 81.496 1002.02 81.752 1003.1 82.264C1004.21 82.7547 1005.15 83.416 1005.92 84.248C1006.69 85.08 1007.26 86.0293 1007.65 87.096C1008.05 88.1413 1008.26 89.208 1008.26 90.296V90.744C1008.26 91.832 1008.06 92.8987 1007.68 93.944C1007.3 94.9893 1006.72 95.9387 1005.95 96.792C1005.21 97.624 1004.28 98.296 1003.17 98.808C1002.06 99.2987 1000.78 99.544 999.329 99.544ZM999.329 97.4C1000.74 97.4 1001.92 97.0907 1002.88 96.472C1003.86 95.832 1004.61 95 1005.12 93.976C1005.63 92.9307 1005.89 91.7787 1005.89 90.52C1005.89 89.24 1005.62 88.088 1005.09 87.064C1004.58 86.0187 1003.83 85.1973 1002.85 84.6C1001.87 83.9813 1000.69 83.672 999.329 83.672C997.985 83.672 996.822 83.9813 995.841 84.6C994.859 85.1973 994.102 86.0187 993.569 87.064C993.057 88.088 992.801 89.24 992.801 90.52C992.801 91.7787 993.057 92.9307 993.569 93.976C994.081 95 994.817 95.832 995.777 96.472C996.758 97.0907 997.942 97.4 999.329 97.4ZM1013.31 99V75.64H1015.71V99H1013.31ZM1010.85 77.592V75.64H1015.71V77.592H1010.85ZM1027.28 99.48C1025.1 99.48 1023.43 99.0107 1022.25 98.072C1021.08 97.112 1020.48 95.832 1020.46 94.232H1022.7C1022.74 95.0427 1023.11 95.7787 1023.79 96.44C1024.49 97.1013 1025.65 97.432 1027.28 97.432C1028.79 97.432 1029.92 97.1227 1030.67 96.504C1031.44 95.864 1031.82 95.096 1031.82 94.2C1031.82 93.368 1031.5 92.728 1030.86 92.28C1030.24 91.8107 1029.33 91.512 1028.14 91.384L1026.22 91.192C1024.68 91.0213 1023.44 90.552 1022.48 89.784C1021.54 88.9947 1021.07 87.9173 1021.07 86.552C1021.07 85.5493 1021.32 84.6747 1021.84 83.928C1022.35 83.1813 1023.06 82.6053 1023.98 82.2C1024.92 81.7733 1026.02 81.56 1027.28 81.56C1029.09 81.56 1030.56 81.9867 1031.69 82.84C1032.84 83.6933 1033.43 84.9093 1033.45 86.488H1031.21C1031.19 85.6773 1030.85 84.9947 1030.19 84.44C1029.53 83.8853 1028.56 83.608 1027.28 83.608C1025.95 83.608 1024.96 83.896 1024.3 84.472C1023.66 85.048 1023.34 85.752 1023.34 86.584C1023.34 87.288 1023.59 87.8747 1024.08 88.344C1024.57 88.792 1025.33 89.0693 1026.38 89.176L1028.3 89.368C1030.01 89.56 1031.39 90.0507 1032.46 90.84C1033.55 91.6293 1034.09 92.76 1034.09 94.232C1034.09 95.2347 1033.8 96.1413 1033.23 96.952C1032.67 97.7413 1031.88 98.36 1030.86 98.808C1029.84 99.256 1028.64 99.48 1027.28 99.48Z" fill="url(#paint2_radial_1323_1415)"/>
<path d="M848.824 152V140.32H850.04V152H848.824ZM849.752 152V150.896H855.592V152H849.752ZM849.752 146.608V145.52H855.048V146.608H849.752ZM849.752 141.424V140.32H855.416V141.424H849.752ZM860.693 152.24C859.605 152.24 858.767 152.005 858.181 151.536C857.594 151.056 857.295 150.416 857.285 149.616H858.405C858.426 150.021 858.607 150.389 858.949 150.72C859.301 151.051 859.882 151.216 860.693 151.216C861.45 151.216 862.015 151.061 862.389 150.752C862.773 150.432 862.965 150.048 862.965 149.6C862.965 149.184 862.805 148.864 862.485 148.64C862.175 148.405 861.722 148.256 861.125 148.192L860.165 148.096C859.397 148.011 858.773 147.776 858.293 147.392C857.823 146.997 857.589 146.459 857.589 145.776C857.589 145.275 857.717 144.837 857.973 144.464C858.229 144.091 858.586 143.803 859.045 143.6C859.514 143.387 860.063 143.28 860.693 143.28C861.599 143.28 862.335 143.493 862.901 143.92C863.477 144.347 863.77 144.955 863.781 145.744H862.661C862.65 145.339 862.479 144.997 862.149 144.72C861.818 144.443 861.333 144.304 860.693 144.304C860.031 144.304 859.535 144.448 859.205 144.736C858.885 145.024 858.725 145.376 858.725 145.792C858.725 146.144 858.847 146.437 859.093 146.672C859.338 146.896 859.722 147.035 860.245 147.088L861.205 147.184C862.058 147.28 862.751 147.525 863.285 147.92C863.829 148.315 864.101 148.88 864.101 149.616C864.101 150.117 863.957 150.571 863.669 150.976C863.391 151.371 862.997 151.68 862.485 151.904C861.973 152.128 861.375 152.24 860.693 152.24ZM869.562 152.096C868.975 152.096 868.468 152.011 868.042 151.84C867.615 151.669 867.284 151.381 867.049 150.976C866.815 150.56 866.698 150.005 866.698 149.312V140.864H867.85V149.488C867.85 149.979 867.983 150.357 868.25 150.624C868.516 150.88 868.895 151.008 869.386 151.008H870.906V152.096H869.562ZM865.178 144.448V143.536H870.906V144.448H865.178ZM873.672 152V143.536H874.856V152H873.672ZM872.312 144.496V143.536H874.856V144.496H872.312ZM873.928 141.968C873.64 141.968 873.421 141.893 873.272 141.744C873.133 141.584 873.064 141.387 873.064 141.152C873.064 140.917 873.133 140.725 873.272 140.576C873.421 140.416 873.64 140.336 873.928 140.336C874.216 140.336 874.429 140.416 874.568 140.576C874.707 140.725 874.776 140.917 874.776 141.152C874.776 141.387 874.707 141.584 874.568 141.744C874.429 141.893 874.216 141.968 873.928 141.968ZM878.005 152V143.52H878.965V147.088H878.773C878.773 146.309 878.88 145.637 879.093 145.072C879.317 144.507 879.648 144.069 880.085 143.76C880.522 143.44 881.077 143.28 881.749 143.28H881.797C882.469 143.28 883.024 143.435 883.461 143.744C883.898 144.053 884.224 144.491 884.437 145.056C884.65 145.621 884.757 146.299 884.757 147.088H884.373C884.373 146.309 884.48 145.637 884.693 145.072C884.917 144.507 885.248 144.069 885.685 143.76C886.133 143.44 886.693 143.28 887.365 143.28H887.413C888.085 143.28 888.64 143.435 889.077 143.744C889.525 144.053 889.856 144.491 890.069 145.056C890.293 145.621 890.405 146.299 890.405 147.088V152H889.205V146.816C889.205 146.069 889.024 145.477 888.661 145.04C888.298 144.603 887.776 144.384 887.093 144.384C886.389 144.384 885.829 144.613 885.413 145.072C885.008 145.52 884.805 146.128 884.805 146.896V152H883.605V146.816C883.605 146.069 883.424 145.477 883.061 145.04C882.698 144.603 882.176 144.384 881.493 144.384C880.789 144.384 880.229 144.613 879.813 145.072C879.408 145.52 879.205 146.128 879.205 146.896V152H878.005ZM898.548 152V149.456H898.356V146.448C898.356 145.819 898.19 145.339 897.86 145.008C897.529 144.667 897.017 144.496 896.324 144.496C896.004 144.496 895.678 144.501 895.348 144.512C895.028 144.523 894.718 144.539 894.42 144.56C894.132 144.571 893.876 144.587 893.652 144.608V143.552C893.886 143.531 894.126 143.509 894.372 143.488C894.617 143.467 894.868 143.456 895.124 143.456C895.39 143.445 895.646 143.44 895.892 143.44C896.756 143.44 897.449 143.547 897.972 143.76C898.505 143.973 898.894 144.309 899.14 144.768C899.385 145.216 899.508 145.813 899.508 146.56V152H898.548ZM895.684 152.224C895.086 152.224 894.558 152.117 894.1 151.904C893.641 151.691 893.284 151.381 893.028 150.976C892.782 150.571 892.66 150.08 892.66 149.504C892.66 148.939 892.788 148.459 893.044 148.064C893.31 147.669 893.689 147.371 894.18 147.168C894.681 146.955 895.284 146.848 895.988 146.848H898.468V147.76H895.908C895.236 147.76 894.718 147.925 894.356 148.256C894.004 148.576 893.828 148.997 893.828 149.52C893.828 150.053 894.014 150.48 894.388 150.8C894.761 151.109 895.268 151.264 895.908 151.264C896.302 151.264 896.681 151.195 897.044 151.056C897.406 150.907 897.71 150.661 897.956 150.32C898.201 149.968 898.334 149.488 898.356 148.88L898.708 149.376C898.665 150.005 898.516 150.533 898.26 150.96C898.004 151.376 897.657 151.691 897.22 151.904C896.782 152.117 896.27 152.224 895.684 152.224ZM905.577 152.096C904.99 152.096 904.484 152.011 904.057 151.84C903.63 151.669 903.3 151.381 903.065 150.976C902.83 150.56 902.713 150.005 902.713 149.312V140.864H903.865V149.488C903.865 149.979 903.998 150.357 904.265 150.624C904.532 150.88 904.91 151.008 905.401 151.008H906.921V152.096H905.577ZM901.193 144.448V143.536H906.921V144.448H901.193ZM912.697 152.272C911.972 152.272 911.343 152.149 910.809 151.904C910.276 151.648 909.839 151.312 909.497 150.896C909.156 150.469 908.9 149.995 908.729 149.472C908.569 148.949 908.489 148.411 908.489 147.856V147.632C908.489 147.088 908.569 146.555 908.729 146.032C908.9 145.509 909.156 145.04 909.497 144.624C909.839 144.208 910.265 143.877 910.777 143.632C911.3 143.376 911.908 143.248 912.601 143.248C913.487 143.248 914.223 143.445 914.809 143.84C915.407 144.235 915.855 144.741 916.153 145.36C916.452 145.968 916.601 146.624 916.601 147.328V147.952H909.033V147.024H915.769L915.465 147.488C915.465 146.859 915.353 146.309 915.129 145.84C914.916 145.36 914.596 144.987 914.169 144.72C913.753 144.443 913.231 144.304 912.601 144.304C911.94 144.304 911.391 144.459 910.953 144.768C910.516 145.077 910.185 145.488 909.961 146C909.748 146.512 909.641 147.093 909.641 147.744C909.641 148.384 909.748 148.971 909.961 149.504C910.185 150.027 910.521 150.443 910.969 150.752C911.428 151.061 912.004 151.216 912.697 151.216C913.433 151.216 914.031 151.051 914.489 150.72C914.948 150.379 915.231 149.979 915.337 149.52H916.457C916.351 150.085 916.127 150.576 915.785 150.992C915.444 151.397 915.012 151.712 914.489 151.936C913.967 152.16 913.369 152.272 912.697 152.272ZM922.383 152.272C921.765 152.272 921.199 152.16 920.687 151.936C920.186 151.701 919.749 151.381 919.375 150.976C919.013 150.56 918.73 150.091 918.527 149.568C918.335 149.035 918.239 148.469 918.239 147.872V147.648C918.239 147.072 918.335 146.523 918.527 146C918.719 145.467 918.991 144.997 919.343 144.592C919.706 144.176 920.138 143.851 920.639 143.616C921.151 143.371 921.722 143.248 922.351 143.248C923.066 143.248 923.695 143.403 924.239 143.712C924.783 144.021 925.221 144.469 925.551 145.056C925.882 145.632 926.058 146.341 926.079 147.184L925.551 146.192V140.32H926.751V152H925.791V148.24H926.175C926.154 149.125 925.967 149.872 925.615 150.48C925.274 151.077 924.821 151.525 924.255 151.824C923.701 152.123 923.077 152.272 922.383 152.272ZM922.543 151.216C923.119 151.216 923.637 151.088 924.095 150.832C924.565 150.576 924.933 150.213 925.199 149.744C925.466 149.264 925.599 148.715 925.599 148.096V147.328C925.599 146.731 925.466 146.208 925.199 145.76C924.933 145.301 924.565 144.944 924.095 144.688C923.637 144.432 923.114 144.304 922.527 144.304C921.898 144.304 921.349 144.459 920.879 144.768C920.421 145.067 920.063 145.477 919.807 146C919.562 146.523 919.439 147.109 919.439 147.76C919.439 148.432 919.567 149.029 919.823 149.552C920.079 150.075 920.442 150.485 920.911 150.784C921.381 151.072 921.925 151.216 922.543 151.216ZM938.831 152.272C937.786 152.272 936.89 152.091 936.143 151.728C935.407 151.355 934.805 150.869 934.335 150.272C933.877 149.675 933.541 149.029 933.327 148.336C933.114 147.632 933.007 146.949 933.007 146.288V145.984C933.007 145.269 933.114 144.56 933.327 143.856C933.551 143.141 933.893 142.496 934.351 141.92C934.821 141.344 935.418 140.885 936.143 140.544C936.869 140.192 937.727 140.016 938.719 140.016C939.722 140.016 940.586 140.192 941.311 140.544C942.047 140.896 942.634 141.392 943.071 142.032C943.509 142.661 943.775 143.408 943.871 144.272H942.639C942.554 143.579 942.33 143.003 941.967 142.544C941.605 142.075 941.141 141.723 940.575 141.488C940.021 141.253 939.402 141.136 938.719 141.136C937.983 141.136 937.333 141.269 936.767 141.536C936.213 141.792 935.749 142.155 935.375 142.624C935.002 143.083 934.719 143.616 934.527 144.224C934.335 144.821 934.239 145.461 934.239 146.144C934.239 146.795 934.33 147.419 934.511 148.016C934.703 148.613 934.991 149.152 935.375 149.632C935.759 150.101 936.239 150.475 936.815 150.752C937.391 151.019 938.063 151.152 938.831 151.152C939.898 151.152 940.794 150.885 941.519 150.352C942.245 149.808 942.693 149.029 942.863 148.016H944.095C943.978 148.816 943.701 149.541 943.263 150.192C942.826 150.832 942.234 151.339 941.487 151.712C940.751 152.085 939.866 152.272 938.831 152.272ZM950.078 152.272C949.353 152.272 948.713 152.149 948.158 151.904C947.614 151.648 947.15 151.312 946.766 150.896C946.393 150.469 946.105 149.995 945.902 149.472C945.71 148.949 945.614 148.416 945.614 147.872V147.648C945.614 147.104 945.716 146.571 945.918 146.048C946.121 145.515 946.414 145.04 946.798 144.624C947.182 144.208 947.646 143.877 948.19 143.632C948.745 143.376 949.374 143.248 950.078 143.248C950.793 143.248 951.422 143.376 951.966 143.632C952.521 143.877 952.99 144.208 953.374 144.624C953.758 145.04 954.046 145.515 954.238 146.048C954.441 146.571 954.542 147.104 954.542 147.648V147.872C954.542 148.416 954.446 148.949 954.254 149.472C954.062 149.995 953.774 150.469 953.39 150.896C953.017 151.312 952.553 151.648 951.998 151.904C951.444 152.149 950.804 152.272 950.078 152.272ZM950.078 151.2C950.782 151.2 951.374 151.045 951.854 150.736C952.345 150.416 952.718 150 952.974 149.488C953.23 148.965 953.358 148.389 953.358 147.76C953.358 147.12 953.225 146.544 952.958 146.032C952.702 145.509 952.329 145.099 951.838 144.8C951.348 144.491 950.761 144.336 950.078 144.336C949.406 144.336 948.825 144.491 948.334 144.8C947.844 145.099 947.465 145.509 947.198 146.032C946.942 146.544 946.814 147.12 946.814 147.76C946.814 148.389 946.942 148.965 947.198 149.488C947.454 150 947.822 150.416 948.302 150.736C948.793 151.045 949.385 151.2 950.078 151.2ZM959.661 152.24C958.573 152.24 957.736 152.005 957.15 151.536C956.563 151.056 956.264 150.416 956.254 149.616H957.374C957.395 150.021 957.576 150.389 957.918 150.72C958.27 151.051 958.851 151.216 959.661 151.216C960.419 151.216 960.984 151.061 961.358 150.752C961.742 150.432 961.934 150.048 961.934 149.6C961.934 149.184 961.774 148.864 961.454 148.64C961.144 148.405 960.691 148.256 960.094 148.192L959.134 148.096C958.366 148.011 957.742 147.776 957.262 147.392C956.792 146.997 956.558 146.459 956.558 145.776C956.558 145.275 956.686 144.837 956.942 144.464C957.198 144.091 957.555 143.803 958.014 143.6C958.483 143.387 959.032 143.28 959.661 143.28C960.568 143.28 961.304 143.493 961.87 143.92C962.446 144.347 962.739 144.955 962.75 145.744H961.63C961.619 145.339 961.448 144.997 961.118 144.72C960.787 144.443 960.302 144.304 959.661 144.304C959 144.304 958.504 144.448 958.174 144.736C957.854 145.024 957.694 145.376 957.694 145.792C957.694 146.144 957.816 146.437 958.062 146.672C958.307 146.896 958.691 147.035 959.214 147.088L960.174 147.184C961.027 147.28 961.72 147.525 962.254 147.92C962.798 148.315 963.07 148.88 963.07 149.616C963.07 150.117 962.926 150.571 962.638 150.976C962.36 151.371 961.966 151.68 961.454 151.904C960.942 152.128 960.344 152.24 959.661 152.24ZM968.53 152.096C967.944 152.096 967.437 152.011 967.01 151.84C966.584 151.669 966.253 151.381 966.018 150.976C965.784 150.56 965.666 150.005 965.666 149.312V140.864H966.818V149.488C966.818 149.979 966.952 150.357 967.218 150.624C967.485 150.88 967.864 151.008 968.354 151.008H969.874V152.096H968.53ZM964.146 144.448V143.536H969.874V144.448H964.146ZM972.641 152V143.536H973.825V152H972.641ZM971.281 144.496V143.536H973.825V144.496H971.281ZM972.897 141.968C972.609 141.968 972.39 141.893 972.241 141.744C972.102 141.584 972.033 141.387 972.033 141.152C972.033 140.917 972.102 140.725 972.241 140.576C972.39 140.416 972.609 140.336 972.897 140.336C973.185 140.336 973.398 140.416 973.537 140.576C973.675 140.725 973.745 140.917 973.745 141.152C973.745 141.387 973.675 141.584 973.537 141.744C973.398 141.893 973.185 141.968 972.897 141.968ZM976.974 152V143.536H977.934V147.088H977.742C977.742 146.299 977.859 145.621 978.094 145.056C978.329 144.491 978.681 144.053 979.15 143.744C979.619 143.435 980.211 143.28 980.926 143.28H980.974C982.041 143.28 982.835 143.616 983.358 144.288C983.881 144.949 984.142 145.883 984.142 147.088V152H982.958V146.832C982.958 146.096 982.755 145.504 982.35 145.056C981.945 144.608 981.379 144.384 980.654 144.384C979.907 144.384 979.305 144.619 978.846 145.088C978.398 145.547 978.174 146.155 978.174 146.912V152H976.974ZM990.362 155.312C989.967 155.312 989.567 155.291 989.162 155.248C988.767 155.216 988.389 155.173 988.026 155.12V154.096C988.41 154.149 988.81 154.192 989.226 154.224C989.653 154.267 990.053 154.288 990.426 154.288C991.237 154.288 991.882 154.181 992.362 153.968C992.842 153.755 993.183 153.413 993.386 152.944C993.599 152.485 993.706 151.877 993.706 151.12V149.424L994.154 148.24C994.133 149.051 993.962 149.749 993.642 150.336C993.322 150.912 992.89 151.355 992.346 151.664C991.802 151.973 991.183 152.128 990.49 152.128C989.882 152.128 989.327 152.011 988.826 151.776C988.335 151.541 987.914 151.221 987.562 150.816C987.21 150.4 986.938 149.931 986.746 149.408C986.554 148.885 986.458 148.336 986.458 147.76V147.536C986.458 146.971 986.554 146.432 986.746 145.92C986.938 145.397 987.21 144.939 987.562 144.544C987.914 144.139 988.341 143.824 988.842 143.6C989.354 143.365 989.919 143.248 990.538 143.248C991.285 143.248 991.935 143.413 992.49 143.744C993.045 144.075 993.477 144.533 993.786 145.12C994.106 145.707 994.277 146.395 994.298 147.184L993.914 146.976V143.536H994.858V151.072C994.858 152.085 994.709 152.901 994.41 153.52C994.111 154.139 993.631 154.592 992.97 154.88C992.319 155.168 991.45 155.312 990.362 155.312ZM990.698 151.024C991.274 151.024 991.786 150.901 992.234 150.656C992.693 150.4 993.055 150.043 993.322 149.584C993.589 149.125 993.722 148.592 993.722 147.984V147.2C993.722 146.613 993.583 146.101 993.306 145.664C993.039 145.227 992.682 144.885 992.234 144.64C991.786 144.395 991.274 144.272 990.698 144.272C990.079 144.272 989.541 144.421 989.082 144.72C988.623 145.019 988.271 145.424 988.026 145.936C987.781 146.437 987.658 147.008 987.658 147.648C987.658 148.299 987.781 148.88 988.026 149.392C988.282 149.904 988.639 150.304 989.098 150.592C989.557 150.88 990.09 151.024 990.698 151.024ZM997.625 152V150.416H999.129V152H997.625ZM997.625 145.968V144.384H999.129V145.968H997.625Z" fill="#404040"/>
<path d="M776.42 204.684C774.668 204.684 773.18 204.384 771.956 203.784C770.732 203.16 769.736 202.296 768.968 201.192C768.224 200.088 767.672 198.78 767.312 197.268C766.952 195.732 766.772 194.064 766.772 192.264V190.752C766.772 186.48 767.768 183.216 769.76 180.96C771.752 178.68 774.728 177.54 778.688 177.54C779.504 177.54 780.236 177.564 780.884 177.612C781.532 177.66 782.228 177.732 782.972 177.828V180.168C782.228 180.048 781.508 179.964 780.812 179.916C780.116 179.868 779.36 179.844 778.544 179.844C776.288 179.844 774.476 180.288 773.108 181.176C771.74 182.04 770.744 183.3 770.12 184.956C769.52 186.612 769.22 188.616 769.22 190.968V193.524L768.5 195.648C768.524 193.824 768.872 192.276 769.544 191.004C770.24 189.732 771.212 188.76 772.46 188.088C773.708 187.416 775.172 187.08 776.852 187.08C778.724 187.08 780.308 187.464 781.604 188.232C782.9 189 783.872 190.044 784.52 191.364C785.192 192.684 785.528 194.16 785.528 195.792C785.528 197.448 785.18 198.948 784.484 200.292C783.812 201.636 782.804 202.704 781.46 203.496C780.116 204.288 778.436 204.684 776.42 204.684ZM776.42 202.308C777.86 202.308 779.06 202.02 780.02 201.444C781.004 200.868 781.736 200.088 782.216 199.104C782.696 198.12 782.936 197.016 782.936 195.792C782.936 194.568 782.696 193.476 782.216 192.516C781.76 191.532 781.052 190.764 780.092 190.212C779.156 189.636 777.992 189.348 776.6 189.348C775.232 189.348 774.032 189.612 773 190.14C771.992 190.668 771.2 191.424 770.624 192.408C770.072 193.368 769.796 194.508 769.796 195.828C769.796 196.956 770.036 198.012 770.516 198.996C770.996 199.98 771.728 200.784 772.712 201.408C773.696 202.008 774.932 202.308 776.42 202.308ZM800.803 204.612C798.955 204.612 797.371 204.288 796.051 203.64C794.731 202.992 793.651 202.092 792.811 200.94C791.971 199.764 791.347 198.396 790.939 196.836C790.555 195.252 790.363 193.548 790.363 191.724V190.032C790.363 187.464 790.735 185.208 791.479 183.264C792.247 181.32 793.399 179.796 794.935 178.692C796.495 177.588 798.451 177.036 800.803 177.036C803.155 177.036 805.099 177.588 806.635 178.692C808.171 179.796 809.311 181.32 810.055 183.264C810.823 185.208 811.207 187.464 811.207 190.032V191.724C811.207 193.548 811.003 195.252 810.595 196.836C810.211 198.396 809.599 199.764 808.759 200.94C807.919 202.092 806.839 202.992 805.519 203.64C804.199 204.288 802.627 204.612 800.803 204.612ZM800.803 202.164C803.395 202.164 805.315 201.252 806.563 199.428C807.835 197.604 808.471 194.76 808.471 190.896C808.471 186.864 807.823 183.96 806.527 182.184C805.255 180.384 803.347 179.484 800.803 179.484C798.235 179.484 796.303 180.384 795.007 182.184C793.735 183.96 793.099 186.84 793.099 190.824C793.099 194.712 793.723 197.58 794.971 199.428C796.243 201.252 798.187 202.164 800.803 202.164ZM827.275 204.612C825.427 204.612 823.843 204.288 822.523 203.64C821.203 202.992 820.123 202.092 819.283 200.94C818.443 199.764 817.819 198.396 817.411 196.836C817.027 195.252 816.835 193.548 816.835 191.724V190.032C816.835 187.464 817.207 185.208 817.951 183.264C818.719 181.32 819.871 179.796 821.407 178.692C822.967 177.588 824.923 177.036 827.275 177.036C829.627 177.036 831.571 177.588 833.107 178.692C834.643 179.796 835.783 181.32 836.527 183.264C837.295 185.208 837.679 187.464 837.679 190.032V191.724C837.679 193.548 837.475 195.252 837.067 196.836C836.683 198.396 836.071 199.764 835.231 200.94C834.391 202.092 833.311 202.992 831.991 203.64C830.671 204.288 829.099 204.612 827.275 204.612ZM827.275 202.164C829.867 202.164 831.787 201.252 833.035 199.428C834.307 197.604 834.943 194.76 834.943 190.896C834.943 186.864 834.295 183.96 832.999 182.184C831.727 180.384 829.819 179.484 827.275 179.484C824.707 179.484 822.775 180.384 821.479 182.184C820.207 183.96 819.571 186.84 819.571 190.824C819.571 194.712 820.195 197.58 821.443 199.428C822.715 201.252 824.659 202.164 827.275 202.164ZM853.748 204.612C851.9 204.612 850.316 204.288 848.996 203.64C847.676 202.992 846.596 202.092 845.756 200.94C844.916 199.764 844.292 198.396 843.884 196.836C843.5 195.252 843.308 193.548 843.308 191.724V190.032C843.308 187.464 843.68 185.208 844.424 183.264C845.192 181.32 846.344 179.796 847.88 178.692C849.44 177.588 851.396 177.036 853.748 177.036C856.1 177.036 858.044 177.588 859.58 178.692C861.116 179.796 862.256 181.32 863 183.264C863.768 185.208 864.152 187.464 864.152 190.032V191.724C864.152 193.548 863.948 195.252 863.54 196.836C863.156 198.396 862.544 199.764 861.704 200.94C860.864 202.092 859.784 202.992 858.464 203.64C857.144 204.288 855.572 204.612 853.748 204.612ZM853.748 202.164C856.34 202.164 858.26 201.252 859.508 199.428C860.78 197.604 861.416 194.76 861.416 190.896C861.416 186.864 860.768 183.96 859.472 182.184C858.2 180.384 856.292 179.484 853.748 179.484C851.18 179.484 849.248 180.384 847.952 182.184C846.68 183.96 846.044 186.84 846.044 190.824C846.044 194.712 846.668 197.58 847.916 199.428C849.188 201.252 851.132 202.164 853.748 202.164ZM878.781 203.964C876.669 203.964 874.893 203.628 873.453 202.956C872.037 202.284 870.969 201.336 870.249 200.112C869.529 198.864 869.169 197.424 869.169 195.792H871.689C871.689 196.8 871.917 197.748 872.373 198.636C872.853 199.524 873.609 200.256 874.641 200.832C875.673 201.384 877.053 201.66 878.781 201.66C881.085 201.66 882.801 201.18 883.929 200.22C885.081 199.26 885.657 198.096 885.657 196.728C885.657 195.432 885.153 194.34 884.145 193.452C883.161 192.564 881.685 192.024 879.717 191.832L877.341 191.616C875.109 191.424 873.333 190.764 872.013 189.636C870.717 188.484 870.069 186.864 870.069 184.776C870.069 183.36 870.405 182.124 871.077 181.068C871.749 180.012 872.721 179.196 873.993 178.62C875.265 178.044 876.801 177.756 878.601 177.756C880.425 177.756 881.973 178.08 883.245 178.728C884.541 179.376 885.525 180.288 886.197 181.464C886.869 182.64 887.205 184.02 887.205 185.604H884.649C884.649 184.644 884.433 183.744 884.001 182.904C883.593 182.064 882.945 181.38 882.057 180.852C881.193 180.324 880.041 180.06 878.601 180.06C877.305 180.06 876.213 180.276 875.325 180.708C874.437 181.116 873.765 181.68 873.309 182.4C872.877 183.096 872.661 183.888 872.661 184.776C872.661 186 873.069 187.008 873.885 187.8C874.725 188.592 875.961 189.06 877.593 189.204L879.969 189.42C882.537 189.66 884.553 190.428 886.017 191.724C887.505 192.996 888.249 194.664 888.249 196.728C888.249 198.144 887.865 199.404 887.097 200.508C886.353 201.588 885.273 202.44 883.857 203.064C882.465 203.664 880.773 203.964 878.781 203.964ZM877.557 208.644V203.388H879.969V208.644H877.557ZM877.413 179.16V174.228H879.825V179.16H877.413ZM954.058 204V179.124L955.246 180.06H948.082V177.72H956.758V204H954.058ZM964.318 204V200.004C964.318 198.972 964.462 198.096 964.75 197.376C965.038 196.656 965.542 195.996 966.262 195.396C966.982 194.796 967.966 194.22 969.214 193.668L974.362 191.256C975.61 190.68 976.606 189.924 977.35 188.988C978.094 188.052 978.466 186.828 978.466 185.316C978.466 183.468 977.938 182.028 976.882 180.996C975.85 179.94 974.422 179.412 972.598 179.412C970.798 179.412 969.358 179.94 968.278 180.996C967.222 182.028 966.694 183.468 966.694 185.316H964.066C964.066 183.756 964.39 182.352 965.038 181.104C965.686 179.856 966.646 178.872 967.918 178.152C969.19 177.408 970.75 177.036 972.598 177.036C974.47 177.036 976.03 177.408 977.278 178.152C978.526 178.872 979.474 179.844 980.122 181.068C980.77 182.268 981.094 183.6 981.094 185.064V185.568C981.094 187.44 980.554 189.012 979.474 190.284C978.418 191.532 977.026 192.564 975.298 193.38L970.114 195.792C968.89 196.344 968.062 196.92 967.63 197.52C967.222 198.096 967.018 198.84 967.018 199.752V202.956L966.226 201.66H981.526V204H964.318ZM996.764 204.612C994.916 204.612 993.332 204.288 992.012 203.64C990.692 202.992 989.612 202.092 988.772 200.94C987.932 199.764 987.308 198.396 986.9 196.836C986.516 195.252 986.324 193.548 986.324 191.724V190.032C986.324 187.464 986.696 185.208 987.44 183.264C988.208 181.32 989.36 179.796 990.896 178.692C992.456 177.588 994.412 177.036 996.764 177.036C999.116 177.036 1001.06 177.588 1002.6 178.692C1004.13 179.796 1005.27 181.32 1006.02 183.264C1006.78 185.208 1007.17 187.464 1007.17 190.032V191.724C1007.17 193.548 1006.96 195.252 1006.56 196.836C1006.17 198.396 1005.56 199.764 1004.72 200.94C1003.88 202.092 1002.8 202.992 1001.48 203.64C1000.16 204.288 998.588 204.612 996.764 204.612ZM996.764 202.164C999.356 202.164 1001.28 201.252 1002.52 199.428C1003.8 197.604 1004.43 194.76 1004.43 190.896C1004.43 186.864 1003.78 183.96 1002.49 182.184C1001.22 180.384 999.308 179.484 996.764 179.484C994.196 179.484 992.264 180.384 990.968 182.184C989.696 183.96 989.06 186.84 989.06 190.824C989.06 194.712 989.684 197.58 990.932 199.428C992.204 201.252 994.148 202.164 996.764 202.164ZM1023.24 204.612C1021.39 204.612 1019.8 204.288 1018.48 203.64C1017.16 202.992 1016.08 202.092 1015.24 200.94C1014.4 199.764 1013.78 198.396 1013.37 196.836C1012.99 195.252 1012.8 193.548 1012.8 191.724V190.032C1012.8 187.464 1013.17 185.208 1013.91 183.264C1014.68 181.32 1015.83 179.796 1017.37 178.692C1018.93 177.588 1020.88 177.036 1023.24 177.036C1025.59 177.036 1027.53 177.588 1029.07 178.692C1030.6 179.796 1031.74 181.32 1032.49 183.264C1033.26 185.208 1033.64 187.464 1033.64 190.032V191.724C1033.64 193.548 1033.44 195.252 1033.03 196.836C1032.64 198.396 1032.03 199.764 1031.19 200.94C1030.35 202.092 1029.27 202.992 1027.95 203.64C1026.63 204.288 1025.06 204.612 1023.24 204.612ZM1023.24 202.164C1025.83 202.164 1027.75 201.252 1029 199.428C1030.27 197.604 1030.9 194.76 1030.9 190.896C1030.9 186.864 1030.26 183.96 1028.96 182.184C1027.69 180.384 1025.78 179.484 1023.24 179.484C1020.67 179.484 1018.74 180.384 1017.44 182.184C1016.17 183.96 1015.53 186.84 1015.53 190.824C1015.53 194.712 1016.16 197.58 1017.4 199.428C1018.68 201.252 1020.62 202.164 1023.24 202.164ZM1049.71 204.612C1047.86 204.612 1046.28 204.288 1044.96 203.64C1043.64 202.992 1042.56 202.092 1041.72 200.94C1040.88 199.764 1040.25 198.396 1039.84 196.836C1039.46 195.252 1039.27 193.548 1039.27 191.724V190.032C1039.27 187.464 1039.64 185.208 1040.38 183.264C1041.15 181.32 1042.3 179.796 1043.84 178.692C1045.4 177.588 1047.36 177.036 1049.71 177.036C1052.06 177.036 1054 177.588 1055.54 178.692C1057.08 179.796 1058.22 181.32 1058.96 183.264C1059.73 185.208 1060.11 187.464 1060.11 190.032V191.724C1060.11 193.548 1059.91 195.252 1059.5 196.836C1059.12 198.396 1058.5 199.764 1057.66 200.94C1056.82 202.092 1055.74 202.992 1054.42 203.64C1053.1 204.288 1051.53 204.612 1049.71 204.612ZM1049.71 202.164C1052.3 202.164 1054.22 201.252 1055.47 199.428C1056.74 197.604 1057.38 194.76 1057.38 190.896C1057.38 186.864 1056.73 183.96 1055.43 182.184C1054.16 180.384 1052.25 179.484 1049.71 179.484C1047.14 179.484 1045.21 180.384 1043.91 182.184C1042.64 183.96 1042 186.84 1042 190.824C1042 194.712 1042.63 197.58 1043.88 199.428C1045.15 201.252 1047.09 202.164 1049.71 202.164ZM1074.74 203.964C1072.63 203.964 1070.85 203.628 1069.41 202.956C1068 202.284 1066.93 201.336 1066.21 200.112C1065.49 198.864 1065.13 197.424 1065.13 195.792H1067.65C1067.65 196.8 1067.88 197.748 1068.33 198.636C1068.81 199.524 1069.57 200.256 1070.6 200.832C1071.63 201.384 1073.01 201.66 1074.74 201.66C1077.05 201.66 1078.76 201.18 1079.89 200.22C1081.04 199.26 1081.62 198.096 1081.62 196.728C1081.62 195.432 1081.11 194.34 1080.11 193.452C1079.12 192.564 1077.65 192.024 1075.68 191.832L1073.3 191.616C1071.07 191.424 1069.29 190.764 1067.97 189.636C1066.68 188.484 1066.03 186.864 1066.03 184.776C1066.03 183.36 1066.37 182.124 1067.04 181.068C1067.71 180.012 1068.68 179.196 1069.95 178.62C1071.23 178.044 1072.76 177.756 1074.56 177.756C1076.39 177.756 1077.93 178.08 1079.21 178.728C1080.5 179.376 1081.49 180.288 1082.16 181.464C1082.83 182.64 1083.17 184.02 1083.17 185.604H1080.61C1080.61 184.644 1080.39 183.744 1079.96 182.904C1079.55 182.064 1078.91 181.38 1078.02 180.852C1077.15 180.324 1076 180.06 1074.56 180.06C1073.27 180.06 1072.17 180.276 1071.29 180.708C1070.4 181.116 1069.73 181.68 1069.27 182.4C1068.84 183.096 1068.62 183.888 1068.62 184.776C1068.62 186 1069.03 187.008 1069.85 187.8C1070.69 188.592 1071.92 189.06 1073.55 189.204L1075.93 189.42C1078.5 189.66 1080.51 190.428 1081.98 191.724C1083.47 192.996 1084.21 194.664 1084.21 196.728C1084.21 198.144 1083.83 199.404 1083.06 200.508C1082.31 201.588 1081.23 202.44 1079.82 203.064C1078.43 203.664 1076.73 203.964 1074.74 203.964ZM1073.52 208.644V203.388H1075.93V208.644H1073.52ZM1073.37 179.16V174.228H1075.79V179.16H1073.37Z" fill="url(#paint3_radial_1323_1415)"/>
<path d="M909.369 204.216C908.049 204.216 906.909 204.024 905.949 203.64C904.989 203.256 904.245 202.608 903.717 201.696C903.189 200.76 902.925 199.512 902.925 197.952V178.944H905.517V198.348C905.517 199.452 905.817 200.304 906.417 200.904C907.017 201.48 907.869 201.768 908.973 201.768H912.393V204.216H909.369ZM899.505 187.008V184.956H912.393V187.008H899.505ZM925.965 204.612C924.333 204.612 922.893 204.336 921.645 203.784C920.421 203.208 919.377 202.452 918.513 201.516C917.673 200.556 917.025 199.488 916.569 198.312C916.137 197.136 915.921 195.936 915.921 194.712V194.208C915.921 192.984 916.149 191.784 916.605 190.608C917.061 189.408 917.721 188.34 918.585 187.404C919.449 186.468 920.493 185.724 921.717 185.172C922.965 184.596 924.381 184.308 925.965 184.308C927.573 184.308 928.989 184.596 930.213 185.172C931.461 185.724 932.517 186.468 933.381 187.404C934.245 188.34 934.893 189.408 935.325 190.608C935.781 191.784 936.009 192.984 936.009 194.208V194.712C936.009 195.936 935.793 197.136 935.361 198.312C934.929 199.488 934.281 200.556 933.417 201.516C932.577 202.452 931.533 203.208 930.285 203.784C929.037 204.336 927.597 204.612 925.965 204.612ZM925.965 202.2C927.549 202.2 928.881 201.852 929.961 201.156C931.065 200.436 931.905 199.5 932.481 198.348C933.057 197.172 933.345 195.876 933.345 194.46C933.345 193.02 933.045 191.724 932.445 190.572C931.869 189.396 931.029 188.472 929.925 187.8C928.821 187.104 927.501 186.756 925.965 186.756C924.453 186.756 923.145 187.104 922.041 187.8C920.937 188.472 920.085 189.396 919.485 190.572C918.909 191.724 918.621 193.02 918.621 194.46C918.621 195.876 918.909 197.172 919.485 198.348C920.061 199.5 920.889 200.436 921.969 201.156C923.073 201.852 924.405 202.2 925.965 202.2Z" fill="#404040"/>
<defs>
<radialGradient id="paint0_radial_1323_1415" cx="0" cy="0" r="1" gradientUnits="userSpaceOnUse" gradientTransform="translate(301.5 191.5) rotate(90) scale(22.5 153.5)">
<stop stop-color="#5A69EA"/>
<stop offset="1" stop-color="#BF8BCA"/>
</radialGradient>
<radialGradient id="paint1_radial_1323_1415" cx="0" cy="0" r="1" gradientUnits="userSpaceOnUse" gradientTransform="translate(294.5 88.5) rotate(90) scale(22.5 182.5)">
<stop stop-color="#5A69EA"/>
<stop offset="1" stop-color="#BF8BCA"/>
</radialGradient>
<radialGradient id="paint2_radial_1323_1415" cx="0" cy="0" r="1" gradientUnits="userSpaceOnUse" gradientTransform="translate(925.5 88.5) rotate(90) scale(22.5 173.5)">
<stop stop-color="#5A69EA"/>
<stop offset="1" stop-color="#BF8BCA"/>
</radialGradient>
<radialGradient id="paint3_radial_1323_1415" cx="0" cy="0" r="1" gradientUnits="userSpaceOnUse" gradientTransform="translate(925.5 191.5) rotate(90) scale(22.5 161.5)">
<stop stop-color="#5A69EA"/>
<stop offset="1" stop-color="#BF8BCA"/>
</radialGradient>
</defs>
</svg>
