<svg width="355" height="110" viewBox="0 0 355 110" fill="none" xmlns="http://www.w3.org/2000/svg">
<path d="M0.792 23L7.248 5.48H10.512L17.184 23H15.312L9.096 6.632L10.08 7.136H7.56L8.592 6.632L2.616 23H0.792ZM4.248 17.432L4.848 15.776H12.984L13.608 17.432H4.248ZM20.7606 23V5.48H22.5846V23H20.7606ZM27.1594 17.096V15.56H35.5834V17.096H27.1594ZM41.4628 23.096V21.416H46.2388C47.4228 21.416 48.4548 21.224 49.3348 20.84C50.2308 20.456 50.9828 19.936 51.5908 19.28C52.1988 18.608 52.6548 17.84 52.9588 16.976C53.2628 16.112 53.4148 15.192 53.4148 14.216C53.4148 13.208 53.2548 12.272 52.9348 11.408C52.6308 10.544 52.1748 9.784 51.5668 9.128C50.9588 8.472 50.2068 7.968 49.3108 7.616C48.4308 7.264 47.4068 7.088 46.2388 7.088H41.4628V5.408H46.0468C47.6148 5.408 48.9748 5.648 50.1268 6.128C51.2788 6.608 52.2388 7.264 53.0068 8.096C53.7748 8.912 54.3428 9.832 54.7108 10.856C55.0788 11.88 55.2628 12.92 55.2628 13.976V14.432C55.2628 15.472 55.0788 16.504 54.7108 17.528C54.3428 18.552 53.7828 19.488 53.0308 20.336C52.2788 21.168 51.3188 21.84 50.1508 22.352C48.9988 22.848 47.6308 23.096 46.0468 23.096H41.4628ZM40.1188 23.096V5.408H41.9428V23.096H40.1188ZM58.7889 23V10.304H60.2289V15.608H60.0849C60.0849 13.752 60.4929 12.384 61.3089 11.504C62.1249 10.608 63.4049 10.16 65.1489 10.16H65.5569V11.792H64.8129C63.4369 11.792 62.3889 12.152 61.6689 12.872C60.9489 13.576 60.5889 14.616 60.5889 15.992V23H58.7889ZM69.1406 23V10.304H70.9166V23H69.1406ZM67.1006 11.744V10.304H70.9166V11.744H67.1006ZM69.5246 7.952C69.0926 7.952 68.7646 7.84 68.5406 7.616C68.3326 7.376 68.2286 7.08 68.2286 6.728C68.2286 6.376 68.3326 6.088 68.5406 5.864C68.7646 5.624 69.0926 5.504 69.5246 5.504C69.9566 5.504 70.2766 5.624 70.4846 5.864C70.6926 6.088 70.7966 6.376 70.7966 6.728C70.7966 7.08 70.6926 7.376 70.4846 7.616C70.2766 7.84 69.9566 7.952 69.5246 7.952ZM78.4725 23L74.0085 10.304H75.8565L80.2725 23H78.4725ZM78.9525 23V21.536H81.2325V23H78.9525ZM79.9365 23L83.8005 10.304H85.5765L81.6405 23H79.9365ZM93.8586 23.408C92.7706 23.408 91.8266 23.224 91.0266 22.856C90.2266 22.472 89.5706 21.968 89.0586 21.344C88.5466 20.704 88.1626 19.992 87.9066 19.208C87.6666 18.424 87.5466 17.616 87.5466 16.784V16.448C87.5466 15.632 87.6666 14.832 87.9066 14.048C88.1626 13.264 88.5466 12.56 89.0586 11.936C89.5706 11.312 90.2106 10.816 90.9786 10.448C91.7626 10.064 92.6746 9.872 93.7146 9.872C95.0426 9.872 96.1466 10.168 97.0266 10.76C97.9226 11.352 98.5946 12.112 99.0426 13.04C99.4906 13.952 99.7146 14.936 99.7146 15.992V16.928H88.3626V15.536H98.4666L98.0106 16.232C98.0106 15.288 97.8426 14.464 97.5066 13.76C97.1866 13.04 96.7066 12.48 96.0666 12.08C95.4426 11.664 94.6586 11.456 93.7146 11.456C92.7226 11.456 91.8986 11.688 91.2426 12.152C90.5866 12.616 90.0906 13.232 89.7546 14C89.4346 14.768 89.2746 15.64 89.2746 16.616C89.2746 17.576 89.4346 18.456 89.7546 19.256C90.0906 20.04 90.5946 20.664 91.2666 21.128C91.9546 21.592 92.8186 21.824 93.8586 21.824C94.9626 21.824 95.8586 21.576 96.5466 21.08C97.2346 20.568 97.6586 19.968 97.8186 19.28H99.4986C99.3386 20.128 99.0026 20.864 98.4906 21.488C97.9786 22.096 97.3306 22.568 96.5466 22.904C95.7626 23.24 94.8666 23.408 93.8586 23.408ZM103.18 23V10.304H104.62V15.632H104.332C104.332 14.448 104.508 13.432 104.86 12.584C105.212 11.736 105.74 11.08 106.444 10.616C107.148 10.152 108.036 9.92 109.108 9.92H109.18C110.78 9.92 111.972 10.424 112.756 11.432C113.54 12.424 113.932 13.824 113.932 15.632V23H112.156V15.248C112.156 14.144 111.852 13.256 111.244 12.584C110.636 11.912 109.788 11.576 108.7 11.576C107.58 11.576 106.676 11.928 105.988 12.632C105.316 13.32 104.98 14.232 104.98 15.368V23H103.18Z" fill="#404040"/>
<path d="M122.479 23L128.936 5.48H132.2L138.872 23H137L130.784 6.632L131.768 7.136H129.248L130.28 6.632L124.304 23H122.479ZM125.936 17.432L126.536 15.776H134.672L135.296 17.432H125.936ZM146.267 23.36C144.747 23.36 143.587 22.872 142.787 21.896C141.987 20.904 141.587 19.528 141.587 17.768V10.28H143.363V18.128C143.363 19.232 143.651 20.112 144.227 20.768C144.819 21.408 145.635 21.728 146.675 21.728C147.763 21.728 148.627 21.384 149.267 20.696C149.923 20.008 150.251 19.088 150.251 17.936V10.28H152.051V23H150.611V17.696H150.899C150.899 18.88 150.731 19.896 150.395 20.744C150.059 21.576 149.555 22.224 148.883 22.688C148.211 23.136 147.363 23.36 146.339 23.36H146.267ZM161.366 23.144C160.486 23.144 159.726 23.016 159.086 22.76C158.446 22.504 157.95 22.072 157.598 21.464C157.246 20.84 157.07 20.008 157.07 18.968V6.296H158.798V19.232C158.798 19.968 158.998 20.536 159.398 20.936C159.798 21.32 160.366 21.512 161.102 21.512H163.382V23.144H161.366ZM154.79 11.672V10.304H163.382V11.672H154.79ZM172.43 23.408C171.342 23.408 170.382 23.224 169.55 22.856C168.734 22.472 168.038 21.968 167.462 21.344C166.902 20.704 166.47 19.992 166.166 19.208C165.878 18.424 165.734 17.624 165.734 16.808V16.472C165.734 15.656 165.886 14.856 166.19 14.072C166.494 13.272 166.934 12.56 167.51 11.936C168.086 11.312 168.782 10.816 169.598 10.448C170.43 10.064 171.374 9.872 172.43 9.872C173.502 9.872 174.446 10.064 175.262 10.448C176.094 10.816 176.798 11.312 177.374 11.936C177.95 12.56 178.382 13.272 178.67 14.072C178.974 14.856 179.126 15.656 179.126 16.472V16.808C179.126 17.624 178.982 18.424 178.694 19.208C178.406 19.992 177.974 20.704 177.398 21.344C176.838 21.968 176.142 22.472 175.31 22.856C174.478 23.224 173.518 23.408 172.43 23.408ZM172.43 21.8C173.486 21.8 174.374 21.568 175.094 21.104C175.83 20.624 176.39 20 176.774 19.232C177.158 18.448 177.35 17.584 177.35 16.64C177.35 15.68 177.15 14.816 176.75 14.048C176.366 13.264 175.806 12.648 175.07 12.2C174.334 11.736 173.454 11.504 172.43 11.504C171.422 11.504 170.55 11.736 169.814 12.2C169.078 12.648 168.51 13.264 168.11 14.048C167.726 14.816 167.534 15.68 167.534 16.64C167.534 17.584 167.726 18.448 168.11 19.232C168.494 20 169.046 20.624 169.766 21.104C170.502 21.568 171.39 21.8 172.43 21.8ZM182.797 23V10.28H184.237V15.632H183.949C183.949 14.464 184.109 13.456 184.429 12.608C184.765 11.76 185.261 11.104 185.917 10.64C186.573 10.16 187.405 9.92 188.413 9.92H188.485C189.493 9.92 190.325 10.152 190.981 10.616C191.637 11.08 192.125 11.736 192.445 12.584C192.765 13.432 192.925 14.448 192.925 15.632H192.349C192.349 14.464 192.509 13.456 192.829 12.608C193.165 11.76 193.661 11.104 194.317 10.64C194.989 10.16 195.829 9.92 196.837 9.92H196.909C197.917 9.92 198.749 10.152 199.405 10.616C200.077 11.08 200.573 11.736 200.893 12.584C201.229 13.432 201.397 14.448 201.397 15.632V23H199.597V15.224C199.597 14.104 199.325 13.216 198.781 12.56C198.237 11.904 197.453 11.576 196.429 11.576C195.373 11.576 194.533 11.92 193.909 12.608C193.301 13.28 192.997 14.192 192.997 15.344V23H191.197V15.224C191.197 14.104 190.925 13.216 190.381 12.56C189.837 11.904 189.053 11.576 188.029 11.576C186.973 11.576 186.133 11.92 185.509 12.608C184.901 13.28 184.597 14.192 184.597 15.344V23H182.797ZM213.611 23V19.184H213.323V14.672C213.323 13.728 213.075 13.008 212.579 12.512C212.083 12 211.315 11.744 210.275 11.744C209.795 11.744 209.307 11.752 208.811 11.768C208.331 11.784 207.867 11.808 207.419 11.84C206.987 11.856 206.603 11.88 206.267 11.912V10.328C206.619 10.296 206.979 10.264 207.347 10.232C207.715 10.2 208.091 10.184 208.475 10.184C208.875 10.168 209.259 10.16 209.627 10.16C210.923 10.16 211.963 10.32 212.747 10.64C213.547 10.96 214.131 11.464 214.499 12.152C214.867 12.824 215.051 13.72 215.051 14.84V23H213.611ZM209.315 23.336C208.419 23.336 207.627 23.176 206.939 22.856C206.251 22.536 205.715 22.072 205.331 21.464C204.963 20.856 204.779 20.12 204.779 19.256C204.779 18.408 204.971 17.688 205.355 17.096C205.755 16.504 206.323 16.056 207.059 15.752C207.811 15.432 208.715 15.272 209.771 15.272H213.491V16.64H209.651C208.643 16.64 207.867 16.888 207.323 17.384C206.795 17.864 206.531 18.496 206.531 19.28C206.531 20.08 206.811 20.72 207.371 21.2C207.931 21.664 208.691 21.896 209.651 21.896C210.243 21.896 210.811 21.792 211.355 21.584C211.899 21.36 212.355 20.992 212.723 20.48C213.091 19.952 213.291 19.232 213.323 18.32L213.851 19.064C213.787 20.008 213.563 20.8 213.179 21.44C212.795 22.064 212.275 22.536 211.619 22.856C210.963 23.176 210.195 23.336 209.315 23.336ZM224.155 23.144C223.275 23.144 222.515 23.016 221.875 22.76C221.235 22.504 220.739 22.072 220.387 21.464C220.035 20.84 219.859 20.008 219.859 18.968V6.296H221.587V19.232C221.587 19.968 221.787 20.536 222.187 20.936C222.587 21.32 223.155 21.512 223.891 21.512H226.171V23.144H224.155ZM217.579 11.672V10.304H226.171V11.672H217.579ZM230.32 23V10.304H232.096V23H230.32ZM228.28 11.744V10.304H232.096V11.744H228.28ZM230.704 7.952C230.272 7.952 229.944 7.84 229.72 7.616C229.512 7.376 229.408 7.08 229.408 6.728C229.408 6.376 229.512 6.088 229.72 5.864C229.944 5.624 230.272 5.504 230.704 5.504C231.136 5.504 231.456 5.624 231.664 5.864C231.872 6.088 231.976 6.376 231.976 6.728C231.976 7.08 231.872 7.376 231.664 7.616C231.456 7.84 231.136 7.952 230.704 7.952ZM242.508 23.408C241.42 23.408 240.46 23.224 239.628 22.856C238.812 22.472 238.116 21.968 237.54 21.344C236.98 20.704 236.548 19.992 236.244 19.208C235.956 18.424 235.812 17.624 235.812 16.808V16.472C235.812 15.656 235.964 14.856 236.268 14.072C236.572 13.272 237.012 12.56 237.588 11.936C238.164 11.312 238.86 10.816 239.676 10.448C240.508 10.064 241.452 9.872 242.508 9.872C243.58 9.872 244.524 10.064 245.34 10.448C246.172 10.816 246.876 11.312 247.452 11.936C248.028 12.56 248.46 13.272 248.748 14.072C249.052 14.856 249.204 15.656 249.204 16.472V16.808C249.204 17.624 249.06 18.424 248.772 19.208C248.484 19.992 248.052 20.704 247.476 21.344C246.916 21.968 246.22 22.472 245.388 22.856C244.556 23.224 243.596 23.408 242.508 23.408ZM242.508 21.8C243.564 21.8 244.452 21.568 245.172 21.104C245.908 20.624 246.468 20 246.852 19.232C247.236 18.448 247.428 17.584 247.428 16.64C247.428 15.68 247.228 14.816 246.828 14.048C246.444 13.264 245.884 12.648 245.148 12.2C244.412 11.736 243.532 11.504 242.508 11.504C241.5 11.504 240.628 11.736 239.892 12.2C239.156 12.648 238.588 13.264 238.188 14.048C237.804 14.816 237.612 15.68 237.612 16.64C237.612 17.584 237.804 18.448 238.188 19.232C238.572 20 239.124 20.624 239.844 21.104C240.58 21.568 241.468 21.8 242.508 21.8ZM252.875 23V10.304H254.315V15.632H254.027C254.027 14.448 254.203 13.432 254.555 12.584C254.907 11.736 255.435 11.08 256.139 10.616C256.843 10.152 257.731 9.92 258.803 9.92H258.875C260.475 9.92 261.667 10.424 262.451 11.432C263.235 12.424 263.627 13.824 263.627 15.632V23H261.851V15.248C261.851 14.144 261.547 13.256 260.939 12.584C260.331 11.912 259.483 11.576 258.395 11.576C257.275 11.576 256.371 11.928 255.683 12.632C255.011 13.32 254.675 14.232 254.675 15.368V23H252.875Z" fill="url(#paint0_radial_193_624)"/>
<path d="M7.944 65.272C6.93067 65.272 6.05067 65.0907 5.304 64.728C4.55733 64.3653 3.93867 63.8853 3.448 63.288C2.95733 62.6907 2.58933 62.04 2.344 61.336C2.09867 60.632 1.976 59.944 1.976 59.272V58.984C1.976 58.2693 2.09867 57.56 2.344 56.856C2.6 56.1413 2.97867 55.496 3.48 54.92C3.98133 54.344 4.60533 53.8853 5.352 53.544C6.09867 53.192 6.96267 53.016 7.944 53.016C8.936 53.016 9.8 53.192 10.536 53.544C11.2827 53.8853 11.9067 54.344 12.408 54.92C12.9093 55.496 13.2827 56.1413 13.528 56.856C13.784 57.56 13.912 58.2693 13.912 58.984V59.288C13.912 59.96 13.7893 60.648 13.544 61.352C13.3093 62.0453 12.9413 62.6907 12.44 63.288C11.9493 63.8853 11.3307 64.3653 10.584 64.728C9.83733 65.0907 8.95733 65.272 7.944 65.272ZM7.944 64.152C8.69067 64.152 9.35733 64.0187 9.944 63.752C10.5307 63.4747 11.0267 63.1013 11.432 62.632C11.8373 62.152 12.1467 61.6133 12.36 61.016C12.5733 60.4187 12.68 59.7947 12.68 59.144C12.68 58.4613 12.5733 57.8213 12.36 57.224C12.1467 56.6267 11.832 56.0987 11.416 55.64C11.0107 55.1707 10.5147 54.8027 9.928 54.536C9.34133 54.2693 8.68 54.136 7.944 54.136C7.21867 54.136 6.56267 54.2693 5.976 54.536C5.38933 54.8027 4.888 55.1707 4.472 55.64C4.06667 56.0987 3.752 56.6267 3.528 57.224C3.31467 57.8213 3.208 58.4613 3.208 59.144C3.208 59.7947 3.31467 60.4187 3.528 61.016C3.74133 61.6133 4.05067 62.152 4.456 62.632C4.86133 63.1013 5.35733 63.4747 5.944 63.752C6.54133 64.0187 7.208 64.152 7.944 64.152ZM16.427 68.2V56.536H17.387V60.168L17.099 60.2C17.1417 59.3467 17.323 58.6267 17.643 58.04C17.9737 57.4533 18.4163 57.0107 18.971 56.712C19.5363 56.4027 20.1657 56.248 20.859 56.248C21.4777 56.248 22.0377 56.3707 22.539 56.616C23.051 56.8507 23.483 57.176 23.835 57.592C24.1977 57.9973 24.4697 58.4667 24.651 59C24.843 59.5227 24.939 60.072 24.939 60.648V60.872C24.939 61.448 24.843 62.0027 24.651 62.536C24.459 63.0587 24.1817 63.528 23.819 63.944C23.467 64.3493 23.035 64.6747 22.523 64.92C22.0217 65.1547 21.4563 65.272 20.827 65.272C20.155 65.272 19.5363 65.1227 18.971 64.824C18.4163 64.5147 17.963 64.0613 17.611 63.464C17.2697 62.8667 17.083 62.1307 17.051 61.256L17.627 62.456V68.2H16.427ZM20.667 64.216C21.307 64.216 21.8563 64.0667 22.315 63.768C22.7737 63.4587 23.1257 63.0427 23.371 62.52C23.6163 61.9867 23.739 61.4 23.739 60.76C23.739 60.0987 23.611 59.512 23.355 59C23.1097 58.4773 22.7577 58.0667 22.299 57.768C21.8403 57.4587 21.2963 57.304 20.667 57.304C20.091 57.304 19.5683 57.432 19.099 57.688C18.6297 57.944 18.2563 58.3067 17.979 58.776C17.7123 59.2347 17.579 59.7787 17.579 60.408V61.192C17.579 61.7893 17.7123 62.3173 17.979 62.776C18.2563 63.224 18.6297 63.576 19.099 63.832C19.5683 64.088 20.091 64.216 20.667 64.216ZM30.9005 65.272C30.1752 65.272 29.5458 65.1493 29.0125 64.904C28.4792 64.648 28.0418 64.312 27.7005 63.896C27.3592 63.4693 27.1032 62.9947 26.9325 62.472C26.7725 61.9493 26.6925 61.4107 26.6925 60.856V60.632C26.6925 60.088 26.7725 59.5547 26.9325 59.032C27.1032 58.5093 27.3592 58.04 27.7005 57.624C28.0418 57.208 28.4685 56.8773 28.9805 56.632C29.5032 56.376 30.1112 56.248 30.8045 56.248C31.6898 56.248 32.4258 56.4453 33.0125 56.84C33.6098 57.2347 34.0578 57.7413 34.3565 58.36C34.6552 58.968 34.8045 59.624 34.8045 60.328V60.952H27.2365V60.024H33.9725L33.6685 60.488C33.6685 59.8587 33.5565 59.3093 33.3325 58.84C33.1192 58.36 32.7992 57.9867 32.3725 57.72C31.9565 57.4427 31.4338 57.304 30.8045 57.304C30.1432 57.304 29.5938 57.4587 29.1565 57.768C28.7192 58.0773 28.3885 58.488 28.1645 59C27.9512 59.512 27.8445 60.0933 27.8445 60.744C27.8445 61.384 27.9512 61.9707 28.1645 62.504C28.3885 63.0267 28.7245 63.4427 29.1725 63.752C29.6312 64.0613 30.2072 64.216 30.9005 64.216C31.6365 64.216 32.2338 64.0507 32.6925 63.72C33.1512 63.3787 33.4338 62.9787 33.5405 62.52H34.6605C34.5538 63.0853 34.3298 63.576 33.9885 63.992C33.6472 64.3973 33.2152 64.712 32.6925 64.936C32.1698 65.16 31.5725 65.272 30.9005 65.272ZM37.1145 65V56.536H38.0745V60.072H37.9785C37.9785 58.8347 38.2505 57.9227 38.7945 57.336C39.3385 56.7387 40.1918 56.44 41.3545 56.44H41.6265V57.528H41.1305C40.2132 57.528 39.5145 57.768 39.0345 58.248C38.5545 58.7173 38.3145 59.4107 38.3145 60.328V65H37.1145ZM48.6884 65V62.456H48.4964V59.448C48.4964 58.8187 48.331 58.3387 48.0004 58.008C47.6697 57.6667 47.1577 57.496 46.4644 57.496C46.1444 57.496 45.819 57.5013 45.4884 57.512C45.1684 57.5227 44.859 57.5387 44.5604 57.56C44.2724 57.5707 44.0164 57.5867 43.7924 57.608V56.552C44.027 56.5307 44.267 56.5093 44.5124 56.488C44.7577 56.4667 45.0084 56.456 45.2644 56.456C45.531 56.4453 45.787 56.44 46.0324 56.44C46.8964 56.44 47.5897 56.5467 48.1124 56.76C48.6457 56.9733 49.035 57.3093 49.2804 57.768C49.5257 58.216 49.6484 58.8133 49.6484 59.56V65H48.6884ZM45.8244 65.224C45.227 65.224 44.699 65.1173 44.2404 64.904C43.7817 64.6907 43.4244 64.3813 43.1684 63.976C42.923 63.5707 42.8004 63.08 42.8004 62.504C42.8004 61.9387 42.9284 61.4587 43.1844 61.064C43.451 60.6693 43.8297 60.3707 44.3204 60.168C44.8217 59.9547 45.4244 59.848 46.1284 59.848H48.6084V60.76H46.0484C45.3764 60.76 44.859 60.9253 44.4964 61.256C44.1444 61.576 43.9684 61.9973 43.9684 62.52C43.9684 63.0533 44.155 63.48 44.5284 63.8C44.9017 64.1093 45.4084 64.264 46.0484 64.264C46.443 64.264 46.8217 64.1947 47.1844 64.056C47.547 63.9067 47.851 63.6613 48.0964 63.32C48.3417 62.968 48.475 62.488 48.4964 61.88L48.8484 62.376C48.8057 63.0053 48.6564 63.5333 48.4004 63.96C48.1444 64.376 47.7977 64.6907 47.3604 64.904C46.923 65.1173 46.411 65.224 45.8244 65.224ZM55.7178 65.096C55.1311 65.096 54.6244 65.0107 54.1978 64.84C53.7711 64.6693 53.4404 64.3813 53.2057 63.976C52.9711 63.56 52.8538 63.0053 52.8538 62.312V53.864H54.0058V62.488C54.0058 62.9787 54.1391 63.3573 54.4058 63.624C54.6724 63.88 55.0511 64.008 55.5418 64.008H57.0618V65.096H55.7178ZM51.3338 57.448V56.536H57.0618V57.448H51.3338ZM59.8281 65V56.536H61.0121V65H59.8281ZM58.4681 57.496V56.536H61.0121V57.496H58.4681ZM60.0841 54.968C59.7961 54.968 59.5775 54.8933 59.4281 54.744C59.2895 54.584 59.2201 54.3867 59.2201 54.152C59.2201 53.9173 59.2895 53.7253 59.4281 53.576C59.5775 53.416 59.7961 53.336 60.0841 53.336C60.3721 53.336 60.5855 53.416 60.7241 53.576C60.8628 53.7253 60.9321 53.9173 60.9321 54.152C60.9321 54.3867 60.8628 54.584 60.7241 54.744C60.5855 54.8933 60.3721 54.968 60.0841 54.968ZM67.9534 65.272C67.228 65.272 66.588 65.1493 66.0334 64.904C65.4894 64.648 65.0254 64.312 64.6414 63.896C64.268 63.4693 63.98 62.9947 63.7774 62.472C63.5854 61.9493 63.4894 61.416 63.4894 60.872V60.648C63.4894 60.104 63.5907 59.5707 63.7934 59.048C63.996 58.5147 64.2894 58.04 64.6734 57.624C65.0574 57.208 65.5214 56.8773 66.0654 56.632C66.62 56.376 67.2494 56.248 67.9534 56.248C68.668 56.248 69.2974 56.376 69.8414 56.632C70.396 56.8773 70.8654 57.208 71.2494 57.624C71.6334 58.04 71.9214 58.5147 72.1134 59.048C72.316 59.5707 72.4174 60.104 72.4174 60.648V60.872C72.4174 61.416 72.3214 61.9493 72.1294 62.472C71.9374 62.9947 71.6494 63.4693 71.2654 63.896C70.892 64.312 70.428 64.648 69.8734 64.904C69.3187 65.1493 68.6787 65.272 67.9534 65.272ZM67.9534 64.2C68.6574 64.2 69.2494 64.0453 69.7294 63.736C70.22 63.416 70.5934 63 70.8494 62.488C71.1054 61.9653 71.2334 61.3893 71.2334 60.76C71.2334 60.12 71.1 59.544 70.8334 59.032C70.5774 58.5093 70.204 58.0987 69.7134 57.8C69.2227 57.4907 68.636 57.336 67.9534 57.336C67.2814 57.336 66.7 57.4907 66.2094 57.8C65.7187 58.0987 65.34 58.5093 65.0734 59.032C64.8174 59.544 64.6894 60.12 64.6894 60.76C64.6894 61.3893 64.8174 61.9653 65.0734 62.488C65.3294 63 65.6974 63.416 66.1774 63.736C66.668 64.0453 67.26 64.2 67.9534 64.2ZM74.8645 65V56.536H75.8245V60.088H75.6325C75.6325 59.2987 75.7498 58.6213 75.9845 58.056C76.2192 57.4907 76.5712 57.0533 77.0405 56.744C77.5098 56.4347 78.1018 56.28 78.8165 56.28H78.8645C79.9312 56.28 80.7258 56.616 81.2485 57.288C81.7712 57.9493 82.0325 58.8827 82.0325 60.088V65H80.8485V59.832C80.8485 59.096 80.6458 58.504 80.2405 58.056C79.8352 57.608 79.2698 57.384 78.5445 57.384C77.7978 57.384 77.1952 57.6187 76.7365 58.088C76.2885 58.5467 76.0645 59.1547 76.0645 59.912V65H74.8645ZM90.1728 65V62.456H89.9808V59.448C89.9808 58.8187 89.8154 58.3387 89.4848 58.008C89.1541 57.6667 88.6421 57.496 87.9488 57.496C87.6288 57.496 87.3034 57.5013 86.9728 57.512C86.6528 57.5227 86.3434 57.5387 86.0448 57.56C85.7568 57.5707 85.5008 57.5867 85.2768 57.608V56.552C85.5114 56.5307 85.7514 56.5093 85.9968 56.488C86.2421 56.4667 86.4928 56.456 86.7488 56.456C87.0154 56.4453 87.2714 56.44 87.5168 56.44C88.3808 56.44 89.0741 56.5467 89.5968 56.76C90.1301 56.9733 90.5194 57.3093 90.7648 57.768C91.0101 58.216 91.1328 58.8133 91.1328 59.56V65H90.1728ZM87.3088 65.224C86.7114 65.224 86.1834 65.1173 85.7248 64.904C85.2661 64.6907 84.9088 64.3813 84.6528 63.976C84.4074 63.5707 84.2848 63.08 84.2848 62.504C84.2848 61.9387 84.4128 61.4587 84.6688 61.064C84.9354 60.6693 85.3141 60.3707 85.8048 60.168C86.3061 59.9547 86.9088 59.848 87.6128 59.848H90.0928V60.76H87.5328C86.8608 60.76 86.3434 60.9253 85.9808 61.256C85.6288 61.576 85.4528 61.9973 85.4528 62.52C85.4528 63.0533 85.6394 63.48 86.0128 63.8C86.3861 64.1093 86.8928 64.264 87.5328 64.264C87.9274 64.264 88.3061 64.1947 88.6688 64.056C89.0314 63.9067 89.3354 63.6613 89.5808 63.32C89.8261 62.968 89.9594 62.488 89.9808 61.88L90.3328 62.376C90.2901 63.0053 90.1408 63.5333 89.8848 63.96C89.6288 64.376 89.2821 64.6907 88.8448 64.904C88.4074 65.1173 87.8954 65.224 87.3088 65.224ZM94.2101 65V53.32H95.4101V65H94.2101ZM92.9781 54.296V53.32H95.4101V54.296H92.9781ZM102.703 65V56.536H103.887V65H102.703ZM101.343 57.496V56.536H103.887V57.496H101.343ZM102.959 54.968C102.671 54.968 102.452 54.8933 102.303 54.744C102.164 54.584 102.095 54.3867 102.095 54.152C102.095 53.9173 102.164 53.7253 102.303 53.576C102.452 53.416 102.671 53.336 102.959 53.336C103.247 53.336 103.46 53.416 103.599 53.576C103.738 53.7253 103.807 53.9173 103.807 54.152C103.807 54.3867 103.738 54.584 103.599 54.744C103.46 54.8933 103.247 54.968 102.959 54.968ZM107.036 65V56.536H107.996V60.088H107.804C107.804 59.2987 107.922 58.6213 108.156 58.056C108.391 57.4907 108.743 57.0533 109.212 56.744C109.682 56.4347 110.274 56.28 110.988 56.28H111.036C112.103 56.28 112.898 56.616 113.42 57.288C113.943 57.9493 114.204 58.8827 114.204 60.088V65H113.02V59.832C113.02 59.096 112.818 58.504 112.412 58.056C112.007 57.608 111.442 57.384 110.716 57.384C109.97 57.384 109.367 57.6187 108.908 58.088C108.46 58.5467 108.236 59.1547 108.236 59.912V65H107.036ZM120.265 65.096C119.678 65.096 119.171 65.0107 118.745 64.84C118.318 64.6693 117.987 64.3813 117.753 63.976C117.518 63.56 117.401 63.0053 117.401 62.312V53.864H118.553V62.488C118.553 62.9787 118.686 63.3573 118.953 63.624C119.219 63.88 119.598 64.008 120.089 64.008H121.609V65.096H120.265ZM115.881 57.448V56.536H121.609V57.448H115.881ZM127.385 65.272C126.66 65.272 126.03 65.1493 125.497 64.904C124.964 64.648 124.526 64.312 124.185 63.896C123.844 63.4693 123.588 62.9947 123.417 62.472C123.257 61.9493 123.177 61.4107 123.177 60.856V60.632C123.177 60.088 123.257 59.5547 123.417 59.032C123.588 58.5093 123.844 58.04 124.185 57.624C124.526 57.208 124.953 56.8773 125.465 56.632C125.988 56.376 126.596 56.248 127.289 56.248C128.174 56.248 128.91 56.4453 129.497 56.84C130.094 57.2347 130.542 57.7413 130.841 58.36C131.14 58.968 131.289 59.624 131.289 60.328V60.952H123.721V60.024H130.457L130.153 60.488C130.153 59.8587 130.041 59.3093 129.817 58.84C129.604 58.36 129.284 57.9867 128.857 57.72C128.441 57.4427 127.918 57.304 127.289 57.304C126.628 57.304 126.078 57.4587 125.641 57.768C125.204 58.0773 124.873 58.488 124.649 59C124.436 59.512 124.329 60.0933 124.329 60.744C124.329 61.384 124.436 61.9707 124.649 62.504C124.873 63.0267 125.209 63.4427 125.657 63.752C126.116 64.0613 126.692 64.216 127.385 64.216C128.121 64.216 128.718 64.0507 129.177 63.72C129.636 63.3787 129.918 62.9787 130.025 62.52H131.145C131.038 63.0853 130.814 63.576 130.473 63.992C130.132 64.3973 129.7 64.712 129.177 64.936C128.654 65.16 128.057 65.272 127.385 65.272ZM133.679 65V53.32H134.879V65H133.679ZM132.447 54.296V53.32H134.879V54.296H132.447ZM138.07 65V53.32H139.27V65H138.07ZM136.838 54.296V53.32H139.27V54.296H136.838ZM142.828 65V56.536H144.012V65H142.828ZM141.468 57.496V56.536H144.012V57.496H141.468ZM143.084 54.968C142.796 54.968 142.577 54.8933 142.428 54.744C142.289 54.584 142.22 54.3867 142.22 54.152C142.22 53.9173 142.289 53.7253 142.428 53.576C142.577 53.416 142.796 53.336 143.084 53.336C143.372 53.336 143.585 53.416 143.724 53.576C143.863 53.7253 143.932 53.9173 143.932 54.152C143.932 54.3867 143.863 54.584 143.724 54.744C143.585 54.8933 143.372 54.968 143.084 54.968ZM150.393 68.312C149.999 68.312 149.599 68.2907 149.193 68.248C148.799 68.216 148.42 68.1733 148.057 68.12V67.096C148.441 67.1493 148.841 67.192 149.257 67.224C149.684 67.2667 150.084 67.288 150.457 67.288C151.268 67.288 151.913 67.1813 152.393 66.968C152.873 66.7547 153.215 66.4133 153.417 65.944C153.631 65.4853 153.737 64.8773 153.737 64.12V62.424L154.185 61.24C154.164 62.0507 153.993 62.7493 153.673 63.336C153.353 63.912 152.921 64.3547 152.377 64.664C151.833 64.9733 151.215 65.128 150.521 65.128C149.913 65.128 149.359 65.0107 148.857 64.776C148.367 64.5413 147.945 64.2213 147.593 63.816C147.241 63.4 146.969 62.9307 146.777 62.408C146.585 61.8853 146.489 61.336 146.489 60.76V60.536C146.489 59.9707 146.585 59.432 146.777 58.92C146.969 58.3973 147.241 57.9387 147.593 57.544C147.945 57.1387 148.372 56.824 148.873 56.6C149.385 56.3653 149.951 56.248 150.569 56.248C151.316 56.248 151.967 56.4133 152.521 56.744C153.076 57.0747 153.508 57.5333 153.817 58.12C154.137 58.7067 154.308 59.3947 154.329 60.184L153.945 59.976V56.536H154.889V64.072C154.889 65.0853 154.74 65.9013 154.441 66.52C154.143 67.1387 153.663 67.592 153.001 67.88C152.351 68.168 151.481 68.312 150.393 68.312ZM150.729 64.024C151.305 64.024 151.817 63.9013 152.265 63.656C152.724 63.4 153.087 63.0427 153.353 62.584C153.62 62.1253 153.753 61.592 153.753 60.984V60.2C153.753 59.6133 153.615 59.1013 153.337 58.664C153.071 58.2267 152.713 57.8853 152.265 57.64C151.817 57.3947 151.305 57.272 150.729 57.272C150.111 57.272 149.572 57.4213 149.113 57.72C148.655 58.0187 148.303 58.424 148.057 58.936C147.812 59.4373 147.689 60.008 147.689 60.648C147.689 61.2987 147.812 61.88 148.057 62.392C148.313 62.904 148.671 63.304 149.129 63.592C149.588 63.88 150.121 64.024 150.729 64.024ZM161.432 65.272C160.706 65.272 160.077 65.1493 159.544 64.904C159.01 64.648 158.573 64.312 158.232 63.896C157.89 63.4693 157.634 62.9947 157.464 62.472C157.304 61.9493 157.224 61.4107 157.224 60.856V60.632C157.224 60.088 157.304 59.5547 157.464 59.032C157.634 58.5093 157.89 58.04 158.232 57.624C158.573 57.208 159 56.8773 159.512 56.632C160.034 56.376 160.642 56.248 161.336 56.248C162.221 56.248 162.957 56.4453 163.544 56.84C164.141 57.2347 164.589 57.7413 164.888 58.36C165.186 58.968 165.336 59.624 165.336 60.328V60.952H157.768V60.024H164.504L164.2 60.488C164.2 59.8587 164.088 59.3093 163.864 58.84C163.65 58.36 163.33 57.9867 162.904 57.72C162.488 57.4427 161.965 57.304 161.336 57.304C160.674 57.304 160.125 57.4587 159.688 57.768C159.25 58.0773 158.92 58.488 158.696 59C158.482 59.512 158.376 60.0933 158.376 60.744C158.376 61.384 158.482 61.9707 158.696 62.504C158.92 63.0267 159.256 63.4427 159.704 63.752C160.162 64.0613 160.738 64.216 161.432 64.216C162.168 64.216 162.765 64.0507 163.224 63.72C163.682 63.3787 163.965 62.9787 164.072 62.52H165.192C165.085 63.0853 164.861 63.576 164.52 63.992C164.178 64.3973 163.746 64.712 163.224 64.936C162.701 65.16 162.104 65.272 161.432 65.272ZM167.646 65V56.536H168.606V60.088H168.414C168.414 59.2987 168.531 58.6213 168.766 58.056C169 57.4907 169.352 57.0533 169.822 56.744C170.291 56.4347 170.883 56.28 171.598 56.28H171.646C172.712 56.28 173.507 56.616 174.03 57.288C174.552 57.9493 174.814 58.8827 174.814 60.088V65H173.63V59.832C173.63 59.096 173.427 58.504 173.022 58.056C172.616 57.608 172.051 57.384 171.326 57.384C170.579 57.384 169.976 57.6187 169.518 58.088C169.07 58.5467 168.846 59.1547 168.846 59.912V65H167.646ZM181.37 65.272C180.655 65.272 180.031 65.1493 179.498 64.904C178.975 64.648 178.538 64.3067 178.186 63.88C177.834 63.4427 177.567 62.9627 177.386 62.44C177.215 61.9173 177.13 61.3893 177.13 60.856V60.632C177.13 60.088 177.215 59.56 177.386 59.048C177.567 58.5253 177.834 58.056 178.186 57.64C178.538 57.2133 178.975 56.8773 179.498 56.632C180.031 56.376 180.645 56.248 181.338 56.248C182.042 56.248 182.666 56.376 183.21 56.632C183.765 56.888 184.213 57.2507 184.554 57.72C184.895 58.1893 185.098 58.744 185.162 59.384H184.01C183.914 58.7973 183.637 58.312 183.178 57.928C182.73 57.5333 182.117 57.336 181.338 57.336C180.666 57.336 180.106 57.4907 179.658 57.8C179.221 58.0987 178.89 58.5093 178.666 59.032C178.442 59.544 178.33 60.1147 178.33 60.744C178.33 61.3627 178.442 61.9387 178.666 62.472C178.89 62.9947 179.226 63.416 179.674 63.736C180.122 64.0453 180.687 64.2 181.37 64.2C181.893 64.2 182.346 64.1093 182.73 63.928C183.125 63.736 183.439 63.48 183.674 63.16C183.919 62.84 184.063 62.488 184.106 62.104H185.258C185.215 62.744 185.013 63.304 184.65 63.784C184.298 64.2533 183.839 64.6213 183.274 64.888C182.709 65.144 182.074 65.272 181.37 65.272ZM190.994 65.272C190.269 65.272 189.64 65.1493 189.106 64.904C188.573 64.648 188.136 64.312 187.794 63.896C187.453 63.4693 187.197 62.9947 187.026 62.472C186.866 61.9493 186.786 61.4107 186.786 60.856V60.632C186.786 60.088 186.866 59.5547 187.026 59.032C187.197 58.5093 187.453 58.04 187.794 57.624C188.136 57.208 188.562 56.8773 189.074 56.632C189.597 56.376 190.205 56.248 190.898 56.248C191.784 56.248 192.52 56.4453 193.106 56.84C193.704 57.2347 194.152 57.7413 194.45 58.36C194.749 58.968 194.898 59.624 194.898 60.328V60.952H187.33V60.024H194.066L193.762 60.488C193.762 59.8587 193.65 59.3093 193.426 58.84C193.213 58.36 192.893 57.9867 192.466 57.72C192.05 57.4427 191.528 57.304 190.898 57.304C190.237 57.304 189.688 57.4587 189.25 57.768C188.813 58.0773 188.482 58.488 188.258 59C188.045 59.512 187.938 60.0933 187.938 60.744C187.938 61.384 188.045 61.9707 188.258 62.504C188.482 63.0267 188.818 63.4427 189.266 63.752C189.725 64.0613 190.301 64.216 190.994 64.216C191.73 64.216 192.328 64.0507 192.786 63.72C193.245 63.3787 193.528 62.9787 193.634 62.52H194.754C194.648 63.0853 194.424 63.576 194.082 63.992C193.741 64.3973 193.309 64.712 192.786 64.936C192.264 65.16 191.666 65.272 190.994 65.272ZM3.72 85.064V83.944H6.904C7.69333 83.944 8.38133 83.816 8.968 83.56C9.56533 83.304 10.0667 82.9573 10.472 82.52C10.8773 82.072 11.1813 81.56 11.384 80.984C11.5867 80.408 11.688 79.7947 11.688 79.144C11.688 78.472 11.5813 77.848 11.368 77.272C11.1653 76.696 10.8613 76.1893 10.456 75.752C10.0507 75.3147 9.54933 74.9787 8.952 74.744C8.36533 74.5093 7.68267 74.392 6.904 74.392H3.72V73.272H6.776C7.82133 73.272 8.728 73.432 9.496 73.752C10.264 74.072 10.904 74.5093 11.416 75.064C11.928 75.608 12.3067 76.2213 12.552 76.904C12.7973 77.5867 12.92 78.28 12.92 78.984V79.288C12.92 79.9813 12.7973 80.6693 12.552 81.352C12.3067 82.0347 11.9333 82.6587 11.432 83.224C10.9307 83.7787 10.2907 84.2267 9.512 84.568C8.744 84.8987 7.832 85.064 6.776 85.064H3.72ZM2.824 85.064V73.272H4.04V85.064H2.824ZM18.8068 85.272C18.0814 85.272 17.4521 85.1493 16.9188 84.904C16.3854 84.648 15.9481 84.312 15.6068 83.896C15.2654 83.4693 15.0094 82.9947 14.8388 82.472C14.6788 81.9493 14.5988 81.4107 14.5988 80.856V80.632C14.5988 80.088 14.6788 79.5547 14.8388 79.032C15.0094 78.5093 15.2654 78.04 15.6068 77.624C15.9481 77.208 16.3748 76.8773 16.8868 76.632C17.4094 76.376 18.0174 76.248 18.7108 76.248C19.5961 76.248 20.3321 76.4453 20.9188 76.84C21.5161 77.2347 21.9641 77.7413 22.2628 78.36C22.5614 78.968 22.7108 79.624 22.7108 80.328V80.952H15.1428V80.024H21.8788L21.5748 80.488C21.5748 79.8587 21.4628 79.3093 21.2388 78.84C21.0254 78.36 20.7054 77.9867 20.2788 77.72C19.8628 77.4427 19.3401 77.304 18.7108 77.304C18.0494 77.304 17.5001 77.4587 17.0628 77.768C16.6254 78.0773 16.2948 78.488 16.0707 79C15.8574 79.512 15.7508 80.0933 15.7508 80.744C15.7508 81.384 15.8574 81.9707 16.0707 82.504C16.2948 83.0267 16.6308 83.4427 17.0788 83.752C17.5374 84.0613 18.1134 84.216 18.8068 84.216C19.5428 84.216 20.1401 84.0507 20.5988 83.72C21.0574 83.3787 21.3401 82.9787 21.4468 82.52H22.5668C22.4601 83.0853 22.2361 83.576 21.8948 83.992C21.5534 84.3973 21.1214 84.712 20.5988 84.936C20.0761 85.16 19.4788 85.272 18.8068 85.272ZM28.5888 85.272C27.8741 85.272 27.2501 85.1493 26.7168 84.904C26.1941 84.648 25.7568 84.3067 25.4048 83.88C25.0528 83.4427 24.7861 82.9627 24.6048 82.44C24.4341 81.9173 24.3488 81.3893 24.3488 80.856V80.632C24.3488 80.088 24.4341 79.56 24.6048 79.048C24.7861 78.5253 25.0528 78.056 25.4048 77.64C25.7568 77.2133 26.1941 76.8773 26.7168 76.632C27.2501 76.376 27.8634 76.248 28.5568 76.248C29.2608 76.248 29.8848 76.376 30.4288 76.632C30.9834 76.888 31.4314 77.2507 31.7728 77.72C32.1141 78.1893 32.3168 78.744 32.3808 79.384H31.2288C31.1328 78.7973 30.8554 78.312 30.3968 77.928C29.9488 77.5333 29.3354 77.336 28.5568 77.336C27.8848 77.336 27.3248 77.4907 26.8768 77.8C26.4394 78.0987 26.1088 78.5093 25.8848 79.032C25.6608 79.544 25.5488 80.1147 25.5488 80.744C25.5488 81.3627 25.6608 81.9387 25.8848 82.472C26.1088 82.9947 26.4448 83.416 26.8928 83.736C27.3408 84.0453 27.9061 84.2 28.5888 84.2C29.1114 84.2 29.5648 84.1093 29.9488 83.928C30.3434 83.736 30.6581 83.48 30.8928 83.16C31.1381 82.84 31.2821 82.488 31.3248 82.104H32.4768C32.4341 82.744 32.2314 83.304 31.8688 83.784C31.5168 84.2533 31.0581 84.6213 30.4928 84.888C29.9274 85.144 29.2928 85.272 28.5888 85.272ZM35.125 85V76.536H36.309V85H35.125ZM33.765 77.496V76.536H36.309V77.496H33.765ZM35.381 74.968C35.093 74.968 34.8743 74.8933 34.725 74.744C34.5863 74.584 34.517 74.3867 34.517 74.152C34.517 73.9173 34.5863 73.7253 34.725 73.576C34.8743 73.416 35.093 73.336 35.381 73.336C35.669 73.336 35.8823 73.416 36.021 73.576C36.1597 73.7253 36.229 73.9173 36.229 74.152C36.229 74.3867 36.1597 74.584 36.021 74.744C35.8823 74.8933 35.669 74.968 35.381 74.968ZM42.1302 85.24C41.0422 85.24 40.2049 85.0053 39.6183 84.536C39.0316 84.056 38.7329 83.416 38.7223 82.616H39.8423C39.8636 83.0213 40.0449 83.3893 40.3863 83.72C40.7383 84.0507 41.3196 84.216 42.1302 84.216C42.8876 84.216 43.4529 84.0613 43.8263 83.752C44.2103 83.432 44.4023 83.048 44.4023 82.6C44.4023 82.184 44.2423 81.864 43.9223 81.64C43.6129 81.4053 43.1596 81.256 42.5623 81.192L41.6023 81.096C40.8343 81.0107 40.2103 80.776 39.7303 80.392C39.2609 79.9973 39.0263 79.4587 39.0263 78.776C39.0263 78.2747 39.1543 77.8373 39.4103 77.464C39.6663 77.0907 40.0236 76.8027 40.4823 76.6C40.9516 76.3867 41.5009 76.28 42.1302 76.28C43.0369 76.28 43.7729 76.4933 44.3383 76.92C44.9143 77.3467 45.2076 77.9547 45.2183 78.744H44.0983C44.0876 78.3387 43.9169 77.9973 43.5863 77.72C43.2556 77.4427 42.7703 77.304 42.1302 77.304C41.4689 77.304 40.9729 77.448 40.6423 77.736C40.3223 78.024 40.1623 78.376 40.1623 78.792C40.1623 79.144 40.2849 79.4373 40.5303 79.672C40.7756 79.896 41.1596 80.0347 41.6823 80.088L42.6423 80.184C43.4956 80.28 44.1889 80.5253 44.7223 80.92C45.2663 81.3147 45.5383 81.88 45.5383 82.616C45.5383 83.1173 45.3943 83.5707 45.1063 83.976C44.8289 84.3707 44.4343 84.68 43.9223 84.904C43.4103 85.128 42.8129 85.24 42.1302 85.24ZM48.375 85V76.536H49.559V85H48.375ZM47.015 77.496V76.536H49.559V77.496H47.015ZM48.631 74.968C48.343 74.968 48.1243 74.8933 47.975 74.744C47.8363 74.584 47.767 74.3867 47.767 74.152C47.767 73.9173 47.8363 73.7253 47.975 73.576C48.1243 73.416 48.343 73.336 48.631 73.336C48.919 73.336 49.1323 73.416 49.271 73.576C49.4097 73.7253 49.479 73.9173 49.479 74.152C49.479 74.3867 49.4097 74.584 49.271 74.744C49.1323 74.8933 48.919 74.968 48.631 74.968ZM56.5003 85.272C55.7749 85.272 55.1349 85.1493 54.5803 84.904C54.0363 84.648 53.5723 84.312 53.1883 83.896C52.8149 83.4693 52.5269 82.9947 52.3243 82.472C52.1323 81.9493 52.0363 81.416 52.0363 80.872V80.648C52.0363 80.104 52.1376 79.5707 52.3403 79.048C52.5429 78.5147 52.8363 78.04 53.2203 77.624C53.6043 77.208 54.0683 76.8773 54.6123 76.632C55.1669 76.376 55.7963 76.248 56.5003 76.248C57.2149 76.248 57.8443 76.376 58.3883 76.632C58.9429 76.8773 59.4123 77.208 59.7963 77.624C60.1803 78.04 60.4683 78.5147 60.6603 79.048C60.8629 79.5707 60.9643 80.104 60.9643 80.648V80.872C60.9643 81.416 60.8683 81.9493 60.6763 82.472C60.4843 82.9947 60.1963 83.4693 59.8123 83.896C59.4389 84.312 58.9749 84.648 58.4203 84.904C57.8656 85.1493 57.2256 85.272 56.5003 85.272ZM56.5003 84.2C57.2043 84.2 57.7963 84.0453 58.2763 83.736C58.7669 83.416 59.1403 83 59.3963 82.488C59.6523 81.9653 59.7803 81.3893 59.7803 80.76C59.7803 80.12 59.6469 79.544 59.3802 79.032C59.1243 78.5093 58.7509 78.0987 58.2603 77.8C57.7696 77.4907 57.1829 77.336 56.5003 77.336C55.8283 77.336 55.2469 77.4907 54.7563 77.8C54.2656 78.0987 53.8869 78.5093 53.6203 79.032C53.3643 79.544 53.2363 80.12 53.2363 80.76C53.2363 81.3893 53.3643 81.9653 53.6203 82.488C53.8763 83 54.2443 83.416 54.7243 83.736C55.2149 84.0453 55.8069 84.2 56.5003 84.2ZM63.4114 85V76.536H64.3714V80.088H64.1794C64.1794 79.2987 64.2967 78.6213 64.5314 78.056C64.766 77.4907 65.118 77.0533 65.5874 76.744C66.0567 76.4347 66.6487 76.28 67.3634 76.28H67.4114C68.478 76.28 69.2727 76.616 69.7954 77.288C70.318 77.9493 70.5794 78.8827 70.5794 80.088V85H69.3954V79.832C69.3954 79.096 69.1927 78.504 68.7874 78.056C68.382 77.608 67.8167 77.384 67.0914 77.384C66.3447 77.384 65.742 77.6187 65.2834 78.088C64.8354 78.5467 64.6114 79.1547 64.6114 79.912V85H63.4114ZM79.974 85.24C78.886 85.24 78.0487 85.0053 77.462 84.536C76.8753 84.056 76.5767 83.416 76.566 82.616H77.686C77.7073 83.0213 77.8887 83.3893 78.23 83.72C78.582 84.0507 79.1633 84.216 79.974 84.216C80.7313 84.216 81.2967 84.0613 81.67 83.752C82.054 83.432 82.246 83.048 82.246 82.6C82.246 82.184 82.086 81.864 81.766 81.64C81.4567 81.4053 81.0033 81.256 80.406 81.192L79.446 81.096C78.678 81.0107 78.054 80.776 77.574 80.392C77.1047 79.9973 76.87 79.4587 76.87 78.776C76.87 78.2747 76.998 77.8373 77.254 77.464C77.51 77.0907 77.8673 76.8027 78.326 76.6C78.7953 76.3867 79.3447 76.28 79.974 76.28C80.8807 76.28 81.6167 76.4933 82.182 76.92C82.758 77.3467 83.0513 77.9547 83.062 78.744H81.942C81.9313 78.3387 81.7607 77.9973 81.43 77.72C81.0993 77.4427 80.614 77.304 79.974 77.304C79.3127 77.304 78.8167 77.448 78.486 77.736C78.166 78.024 78.006 78.376 78.006 78.792C78.006 79.144 78.1287 79.4373 78.374 79.672C78.6193 79.896 79.0033 80.0347 79.526 80.088L80.486 80.184C81.3393 80.28 82.0327 80.5253 82.566 80.92C83.11 81.3147 83.382 81.88 83.382 82.616C83.382 83.1173 83.238 83.5707 82.95 83.976C82.6727 84.3707 82.278 84.68 81.766 84.904C81.254 85.128 80.6567 85.24 79.974 85.24ZM88.6988 85.24C87.6854 85.24 86.9121 84.9147 86.3788 84.264C85.8454 83.6027 85.5788 82.6853 85.5788 81.512V76.52H86.7628V81.752C86.7628 82.488 86.9548 83.0747 87.3388 83.512C87.7334 83.9387 88.2774 84.152 88.9708 84.152C89.6961 84.152 90.2721 83.9227 90.6988 83.464C91.1361 83.0053 91.3548 82.392 91.3548 81.624V76.52H92.5548V85H91.5948V81.464H91.7868C91.7868 82.2533 91.6748 82.9307 91.4508 83.496C91.2268 84.0507 90.8908 84.4827 90.4428 84.792C89.9948 85.0907 89.4294 85.24 88.7468 85.24H88.6988ZM95.6926 88.2V76.536H96.6526V80.168L96.3646 80.2C96.4073 79.3467 96.5886 78.6267 96.9086 78.04C97.2393 77.4533 97.682 77.0107 98.2366 76.712C98.802 76.4027 99.4313 76.248 100.125 76.248C100.743 76.248 101.303 76.3707 101.805 76.616C102.317 76.8507 102.749 77.176 103.101 77.592C103.463 77.9973 103.735 78.4667 103.917 79C104.109 79.5227 104.205 80.072 104.205 80.648V80.872C104.205 81.448 104.109 82.0027 103.917 82.536C103.725 83.0587 103.447 83.528 103.085 83.944C102.733 84.3493 102.301 84.6747 101.789 84.92C101.287 85.1547 100.722 85.272 100.093 85.272C99.4206 85.272 98.802 85.1227 98.2366 84.824C97.682 84.5147 97.2286 84.0613 96.8766 83.464C96.5353 82.8667 96.3486 82.1307 96.3166 81.256L96.8926 82.456V88.2H95.6926ZM99.9326 84.216C100.573 84.216 101.122 84.0667 101.581 83.768C102.039 83.4587 102.391 83.0427 102.637 82.52C102.882 81.9867 103.005 81.4 103.005 80.76C103.005 80.0987 102.877 79.512 102.621 79C102.375 78.4773 102.023 78.0667 101.565 77.768C101.106 77.4587 100.562 77.304 99.9326 77.304C99.3566 77.304 98.834 77.432 98.3646 77.688C97.8953 77.944 97.522 78.3067 97.2446 78.776C96.978 79.2347 96.8446 79.7787 96.8446 80.408V81.192C96.8446 81.7893 96.978 82.3173 97.2446 82.776C97.522 83.224 97.8953 83.576 98.3646 83.832C98.834 84.088 99.3566 84.216 99.9326 84.216ZM106.63 88.2V76.536H107.59V80.168L107.302 80.2C107.345 79.3467 107.526 78.6267 107.846 78.04C108.177 77.4533 108.619 77.0107 109.174 76.712C109.739 76.4027 110.369 76.248 111.062 76.248C111.681 76.248 112.241 76.3707 112.742 76.616C113.254 76.8507 113.686 77.176 114.038 77.592C114.401 77.9973 114.673 78.4667 114.854 79C115.046 79.5227 115.142 80.072 115.142 80.648V80.872C115.142 81.448 115.046 82.0027 114.854 82.536C114.662 83.0587 114.385 83.528 114.022 83.944C113.67 84.3493 113.238 84.6747 112.726 84.92C112.225 85.1547 111.659 85.272 111.03 85.272C110.358 85.272 109.739 85.1227 109.174 84.824C108.619 84.5147 108.166 84.0613 107.814 83.464C107.473 82.8667 107.286 82.1307 107.254 81.256L107.83 82.456V88.2H106.63ZM110.87 84.216C111.51 84.216 112.059 84.0667 112.518 83.768C112.977 83.4587 113.329 83.0427 113.574 82.52C113.819 81.9867 113.942 81.4 113.942 80.76C113.942 80.0987 113.814 79.512 113.558 79C113.313 78.4773 112.961 78.0667 112.502 77.768C112.043 77.4587 111.499 77.304 110.87 77.304C110.294 77.304 109.771 77.432 109.302 77.688C108.833 77.944 108.459 78.3067 108.182 78.776C107.915 79.2347 107.782 79.7787 107.782 80.408V81.192C107.782 81.7893 107.915 82.3173 108.182 82.776C108.459 83.224 108.833 83.576 109.302 83.832C109.771 84.088 110.294 84.216 110.87 84.216ZM121.36 85.272C120.634 85.272 119.994 85.1493 119.44 84.904C118.896 84.648 118.432 84.312 118.048 83.896C117.674 83.4693 117.386 82.9947 117.184 82.472C116.992 81.9493 116.896 81.416 116.896 80.872V80.648C116.896 80.104 116.997 79.5707 117.2 79.048C117.402 78.5147 117.696 78.04 118.08 77.624C118.464 77.208 118.928 76.8773 119.472 76.632C120.026 76.376 120.656 76.248 121.36 76.248C122.074 76.248 122.704 76.376 123.248 76.632C123.802 76.8773 124.272 77.208 124.656 77.624C125.04 78.04 125.328 78.5147 125.52 79.048C125.722 79.5707 125.824 80.104 125.824 80.648V80.872C125.824 81.416 125.728 81.9493 125.536 82.472C125.344 82.9947 125.056 83.4693 124.672 83.896C124.298 84.312 123.834 84.648 123.28 84.904C122.725 85.1493 122.085 85.272 121.36 85.272ZM121.36 84.2C122.064 84.2 122.656 84.0453 123.136 83.736C123.626 83.416 124 83 124.256 82.488C124.512 81.9653 124.64 81.3893 124.64 80.76C124.64 80.12 124.506 79.544 124.24 79.032C123.984 78.5093 123.61 78.0987 123.12 77.8C122.629 77.4907 122.042 77.336 121.36 77.336C120.688 77.336 120.106 77.4907 119.616 77.8C119.125 78.0987 118.746 78.5093 118.48 79.032C118.224 79.544 118.096 80.12 118.096 80.76C118.096 81.3893 118.224 81.9653 118.48 82.488C118.736 83 119.104 83.416 119.584 83.736C120.074 84.0453 120.666 84.2 121.36 84.2ZM128.271 85V76.536H129.231V80.072H129.135C129.135 78.8347 129.407 77.9227 129.951 77.336C130.495 76.7387 131.348 76.44 132.511 76.44H132.783V77.528H132.287C131.369 77.528 130.671 77.768 130.191 78.248C129.711 78.7173 129.471 79.4107 129.471 80.328V85H128.271ZM137.952 85.096C137.365 85.096 136.859 85.0107 136.432 84.84C136.005 84.6693 135.675 84.3813 135.44 83.976C135.205 83.56 135.088 83.0053 135.088 82.312V73.864H136.24V82.488C136.24 82.9787 136.373 83.3573 136.64 83.624C136.907 83.88 137.285 84.008 137.776 84.008H139.296V85.096H137.952ZM133.568 77.448V76.536H139.296V77.448H133.568ZM3.72 100.728V99.656H6.44C7.06933 99.656 7.58133 99.5387 7.976 99.304C8.37067 99.0587 8.664 98.7387 8.856 98.344C9.048 97.9387 9.144 97.4907 9.144 97C9.144 96.4987 9.048 96.0507 8.856 95.656C8.664 95.2507 8.37067 94.9307 7.976 94.696C7.58133 94.4613 7.06933 94.344 6.44 94.344H3.72V93.272H6.232C7.17067 93.272 7.944 93.4267 8.552 93.736C9.17067 94.0453 9.62933 94.472 9.928 95.016C10.2373 95.56 10.392 96.184 10.392 96.888V97.112C10.392 97.8053 10.2373 98.4293 9.928 98.984C9.62933 99.528 9.17067 99.9547 8.552 100.264C7.944 100.573 7.17067 100.728 6.232 100.728H3.72ZM2.824 105V93.272H4.04V105H2.824ZM12.6614 105V96.536H13.6214V100.072H13.5254C13.5254 98.8347 13.7974 97.9227 14.3414 97.336C14.8854 96.7387 15.7387 96.44 16.9014 96.44H17.1734V97.528H16.6774C15.76 97.528 15.0614 97.768 14.5814 98.248C14.1014 98.7173 13.8614 99.4107 13.8614 100.328V105H12.6614ZM22.7971 105.272C22.0718 105.272 21.4318 105.149 20.8771 104.904C20.3331 104.648 19.8691 104.312 19.4851 103.896C19.1118 103.469 18.8238 102.995 18.6211 102.472C18.4291 101.949 18.3331 101.416 18.3331 100.872V100.648C18.3331 100.104 18.4345 99.5707 18.6371 99.048C18.8398 98.5147 19.1331 98.04 19.5171 97.624C19.9011 97.208 20.3651 96.8773 20.9091 96.632C21.4638 96.376 22.0931 96.248 22.7971 96.248C23.5118 96.248 24.1411 96.376 24.6851 96.632C25.2398 96.8773 25.7091 97.208 26.0931 97.624C26.4771 98.04 26.7651 98.5147 26.9571 99.048C27.1598 99.5707 27.2611 100.104 27.2611 100.648V100.872C27.2611 101.416 27.1651 101.949 26.9731 102.472C26.7811 102.995 26.4931 103.469 26.1091 103.896C25.7358 104.312 25.2718 104.648 24.7171 104.904C24.1625 105.149 23.5225 105.272 22.7971 105.272ZM22.7971 104.2C23.5011 104.2 24.0931 104.045 24.5731 103.736C25.0638 103.416 25.4371 103 25.6931 102.488C25.9491 101.965 26.0771 101.389 26.0771 100.76C26.0771 100.12 25.9438 99.544 25.6771 99.032C25.4211 98.5093 25.0478 98.0987 24.5571 97.8C24.0665 97.4907 23.4798 97.336 22.7971 97.336C22.1251 97.336 21.5438 97.4907 21.0531 97.8C20.5625 98.0987 20.1838 98.5093 19.9171 99.032C19.6611 99.544 19.5331 100.12 19.5331 100.76C19.5331 101.389 19.6611 101.965 19.9171 102.488C20.1731 103 20.5411 103.416 21.0211 103.736C21.5118 104.045 22.1038 104.2 22.7971 104.2ZM33.2763 105.272C32.5616 105.272 31.9376 105.149 31.4043 104.904C30.8816 104.648 30.4443 104.307 30.0923 103.88C29.7403 103.443 29.4736 102.963 29.2923 102.44C29.1216 101.917 29.0363 101.389 29.0363 100.856V100.632C29.0363 100.088 29.1216 99.56 29.2923 99.048C29.4736 98.5253 29.7403 98.056 30.0923 97.64C30.4443 97.2133 30.8816 96.8773 31.4043 96.632C31.9376 96.376 32.5509 96.248 33.2443 96.248C33.9483 96.248 34.5723 96.376 35.1163 96.632C35.6709 96.888 36.1189 97.2507 36.4603 97.72C36.8016 98.1893 37.0043 98.744 37.0683 99.384H35.9163C35.8203 98.7973 35.5429 98.312 35.0843 97.928C34.6363 97.5333 34.0229 97.336 33.2443 97.336C32.5723 97.336 32.0123 97.4907 31.5643 97.8C31.1269 98.0987 30.7963 98.5093 30.5723 99.032C30.3483 99.544 30.2363 100.115 30.2363 100.744C30.2363 101.363 30.3483 101.939 30.5723 102.472C30.7963 102.995 31.1323 103.416 31.5803 103.736C32.0283 104.045 32.5936 104.2 33.2763 104.2C33.7989 104.2 34.2523 104.109 34.6363 103.928C35.0309 103.736 35.3456 103.48 35.5803 103.16C35.8256 102.84 35.9696 102.488 36.0123 102.104H37.1643C37.1216 102.744 36.9189 103.304 36.5563 103.784C36.2043 104.253 35.7456 104.621 35.1803 104.888C34.6149 105.144 33.9803 105.272 33.2763 105.272ZM42.9005 105.272C42.1752 105.272 41.5458 105.149 41.0125 104.904C40.4792 104.648 40.0418 104.312 39.7005 103.896C39.3592 103.469 39.1032 102.995 38.9325 102.472C38.7725 101.949 38.6925 101.411 38.6925 100.856V100.632C38.6925 100.088 38.7725 99.5547 38.9325 99.032C39.1032 98.5093 39.3592 98.04 39.7005 97.624C40.0418 97.208 40.4685 96.8773 40.9805 96.632C41.5032 96.376 42.1112 96.248 42.8045 96.248C43.6898 96.248 44.4258 96.4453 45.0125 96.84C45.6098 97.2347 46.0578 97.7413 46.3565 98.36C46.6552 98.968 46.8045 99.624 46.8045 100.328V100.952H39.2365V100.024H45.9725L45.6685 100.488C45.6685 99.8587 45.5565 99.3093 45.3325 98.84C45.1192 98.36 44.7992 97.9867 44.3725 97.72C43.9565 97.4427 43.4338 97.304 42.8045 97.304C42.1432 97.304 41.5938 97.4587 41.1565 97.768C40.7192 98.0773 40.3885 98.488 40.1645 99C39.9512 99.512 39.8445 100.093 39.8445 100.744C39.8445 101.384 39.9512 101.971 40.1645 102.504C40.3885 103.027 40.7245 103.443 41.1725 103.752C41.6312 104.061 42.2072 104.216 42.9005 104.216C43.6365 104.216 44.2338 104.051 44.6925 103.72C45.1512 103.379 45.4338 102.979 45.5405 102.52H46.6605C46.5538 103.085 46.3298 103.576 45.9885 103.992C45.6472 104.397 45.2152 104.712 44.6925 104.936C44.1698 105.16 43.5725 105.272 42.9005 105.272ZM51.7865 105.24C50.6985 105.24 49.8612 105.005 49.2745 104.536C48.6878 104.056 48.3892 103.416 48.3785 102.616H49.4985C49.5198 103.021 49.7012 103.389 50.0425 103.72C50.3945 104.051 50.9758 104.216 51.7865 104.216C52.5438 104.216 53.1092 104.061 53.4825 103.752C53.8665 103.432 54.0585 103.048 54.0585 102.6C54.0585 102.184 53.8985 101.864 53.5785 101.64C53.2692 101.405 52.8158 101.256 52.2185 101.192L51.2585 101.096C50.4905 101.011 49.8665 100.776 49.3865 100.392C48.9172 99.9973 48.6825 99.4587 48.6825 98.776C48.6825 98.2747 48.8105 97.8373 49.0665 97.464C49.3225 97.0907 49.6798 96.8027 50.1385 96.6C50.6078 96.3867 51.1572 96.28 51.7865 96.28C52.6932 96.28 53.4292 96.4933 53.9945 96.92C54.5705 97.3467 54.8638 97.9547 54.8745 98.744H53.7545C53.7438 98.3387 53.5732 97.9973 53.2425 97.72C52.9118 97.4427 52.4265 97.304 51.7865 97.304C51.1252 97.304 50.6292 97.448 50.2985 97.736C49.9785 98.024 49.8185 98.376 49.8185 98.792C49.8185 99.144 49.9412 99.4373 50.1865 99.672C50.4318 99.896 50.8158 100.035 51.3385 100.088L52.2985 100.184C53.1518 100.28 53.8452 100.525 54.3785 100.92C54.9225 101.315 55.1945 101.88 55.1945 102.616C55.1945 103.117 55.0505 103.571 54.7625 103.976C54.4852 104.371 54.0905 104.68 53.5785 104.904C53.0665 105.128 52.4692 105.24 51.7865 105.24ZM60.2552 105.24C59.1672 105.24 58.3299 105.005 57.7433 104.536C57.1566 104.056 56.8579 103.416 56.8473 102.616H57.9673C57.9886 103.021 58.1699 103.389 58.5113 103.72C58.8633 104.051 59.4446 104.216 60.2552 104.216C61.0126 104.216 61.5779 104.061 61.9513 103.752C62.3353 103.432 62.5273 103.048 62.5273 102.6C62.5273 102.184 62.3673 101.864 62.0473 101.64C61.7379 101.405 61.2846 101.256 60.6873 101.192L59.7273 101.096C58.9593 101.011 58.3353 100.776 57.8553 100.392C57.3859 99.9973 57.1513 99.4587 57.1513 98.776C57.1513 98.2747 57.2793 97.8373 57.5353 97.464C57.7913 97.0907 58.1486 96.8027 58.6073 96.6C59.0766 96.3867 59.6259 96.28 60.2552 96.28C61.1619 96.28 61.8979 96.4933 62.4633 96.92C63.0393 97.3467 63.3326 97.9547 63.3433 98.744H62.2233C62.2126 98.3387 62.0419 97.9973 61.7113 97.72C61.3806 97.4427 60.8953 97.304 60.2552 97.304C59.5939 97.304 59.0979 97.448 58.7673 97.736C58.4473 98.024 58.2873 98.376 58.2873 98.792C58.2873 99.144 58.4099 99.4373 58.6553 99.672C58.9006 99.896 59.2846 100.035 59.8073 100.088L60.7673 100.184C61.6206 100.28 62.3139 100.525 62.8473 100.92C63.3913 101.315 63.6633 101.88 63.6633 102.616C63.6633 103.117 63.5193 103.571 63.2313 103.976C62.9539 104.371 62.5593 104.68 62.0473 104.904C61.5353 105.128 60.9379 105.24 60.2552 105.24ZM73.5784 105.272C72.853 105.272 72.213 105.149 71.6584 104.904C71.1144 104.648 70.6504 104.312 70.2664 103.896C69.893 103.469 69.605 102.995 69.4024 102.472C69.2104 101.949 69.1144 101.416 69.1144 100.872V100.648C69.1144 100.104 69.2157 99.5707 69.4184 99.048C69.621 98.5147 69.9144 98.04 70.2984 97.624C70.6824 97.208 71.1464 96.8773 71.6904 96.632C72.245 96.376 72.8744 96.248 73.5784 96.248C74.293 96.248 74.9224 96.376 75.4664 96.632C76.021 96.8773 76.4904 97.208 76.8744 97.624C77.2584 98.04 77.5464 98.5147 77.7384 99.048C77.941 99.5707 78.0424 100.104 78.0424 100.648V100.872C78.0424 101.416 77.9464 101.949 77.7544 102.472C77.5624 102.995 77.2744 103.469 76.8904 103.896C76.517 104.312 76.053 104.648 75.4984 104.904C74.9437 105.149 74.3037 105.272 73.5784 105.272ZM73.5784 104.2C74.2824 104.2 74.8744 104.045 75.3544 103.736C75.845 103.416 76.2184 103 76.4744 102.488C76.7304 101.965 76.8584 101.389 76.8584 100.76C76.8584 100.12 76.725 99.544 76.4584 99.032C76.2024 98.5093 75.829 98.0987 75.3384 97.8C74.8477 97.4907 74.261 97.336 73.5784 97.336C72.9064 97.336 72.325 97.4907 71.8344 97.8C71.3437 98.0987 70.965 98.5093 70.6984 99.032C70.4424 99.544 70.3144 100.12 70.3144 100.76C70.3144 101.389 70.4424 101.965 70.6984 102.488C70.9544 103 71.3224 103.416 71.8024 103.736C72.293 104.045 72.885 104.2 73.5784 104.2ZM80.4895 105V96.536H81.4495V100.072H81.3535C81.3535 98.8347 81.6255 97.9227 82.1695 97.336C82.7135 96.7387 83.5668 96.44 84.7295 96.44H85.0015V97.528H84.5055C83.5882 97.528 82.8895 97.768 82.4095 98.248C81.9295 98.7173 81.6895 99.4107 81.6895 100.328V105H80.4895ZM90.4013 105.272C89.6866 105.272 89.0626 105.149 88.5293 104.904C88.0066 104.648 87.5693 104.307 87.2173 103.88C86.8653 103.443 86.5986 102.963 86.4173 102.44C86.2466 101.917 86.1613 101.389 86.1613 100.856V100.632C86.1613 100.088 86.2466 99.56 86.4173 99.048C86.5986 98.5253 86.8653 98.056 87.2173 97.64C87.5693 97.2133 88.0066 96.8773 88.5293 96.632C89.0626 96.376 89.6759 96.248 90.3693 96.248C91.0733 96.248 91.6973 96.376 92.2413 96.632C92.7959 96.888 93.2439 97.2507 93.5853 97.72C93.9266 98.1893 94.1293 98.744 94.1933 99.384H93.0413C92.9453 98.7973 92.6679 98.312 92.2093 97.928C91.7613 97.5333 91.1479 97.336 90.3693 97.336C89.6973 97.336 89.1373 97.4907 88.6893 97.8C88.2519 98.0987 87.9213 98.5093 87.6973 99.032C87.4733 99.544 87.3613 100.115 87.3613 100.744C87.3613 101.363 87.4733 101.939 87.6973 102.472C87.9213 102.995 88.2573 103.416 88.7053 103.736C89.1533 104.045 89.7186 104.2 90.4013 104.2C90.9239 104.2 91.3773 104.109 91.7613 103.928C92.1559 103.736 92.4706 103.48 92.7053 103.16C92.9506 102.84 93.0946 102.488 93.1373 102.104H94.2893C94.2466 102.744 94.0439 103.304 93.6813 103.784C93.3293 104.253 92.8706 104.621 92.3053 104.888C91.7399 105.144 91.1053 105.272 90.4013 105.272ZM96.4895 105V93.32H97.6895V99.928L97.3375 100.2C97.3375 99.4107 97.4495 98.7227 97.6735 98.136C97.9082 97.5493 98.2548 97.096 98.7135 96.776C99.1828 96.4453 99.7695 96.28 100.474 96.28H100.538C101.562 96.28 102.335 96.616 102.858 97.288C103.391 97.96 103.658 98.8933 103.658 100.088V105H102.474V99.832C102.474 99.0747 102.266 98.4773 101.85 98.04C101.434 97.6027 100.874 97.384 100.17 97.384C99.4122 97.384 98.8095 97.6293 98.3615 98.12C97.9135 98.6 97.6895 99.2347 97.6895 100.024V105H96.4895ZM110.182 105.272C109.456 105.272 108.827 105.149 108.294 104.904C107.76 104.648 107.323 104.312 106.982 103.896C106.64 103.469 106.384 102.995 106.214 102.472C106.054 101.949 105.974 101.411 105.974 100.856V100.632C105.974 100.088 106.054 99.5547 106.214 99.032C106.384 98.5093 106.64 98.04 106.982 97.624C107.323 97.208 107.75 96.8773 108.262 96.632C108.784 96.376 109.392 96.248 110.086 96.248C110.971 96.248 111.707 96.4453 112.294 96.84C112.891 97.2347 113.339 97.7413 113.638 98.36C113.936 98.968 114.086 99.624 114.086 100.328V100.952H106.518V100.024H113.254L112.95 100.488C112.95 99.8587 112.838 99.3093 112.614 98.84C112.4 98.36 112.08 97.9867 111.654 97.72C111.238 97.4427 110.715 97.304 110.086 97.304C109.424 97.304 108.875 97.4587 108.438 97.768C108 98.0773 107.67 98.488 107.446 99C107.232 99.512 107.126 100.093 107.126 100.744C107.126 101.384 107.232 101.971 107.446 102.504C107.67 103.027 108.006 103.443 108.454 103.752C108.912 104.061 109.488 104.216 110.182 104.216C110.918 104.216 111.515 104.051 111.974 103.72C112.432 103.379 112.715 102.979 112.822 102.52H113.942C113.835 103.085 113.611 103.576 113.27 103.992C112.928 104.397 112.496 104.712 111.974 104.936C111.451 105.16 110.854 105.272 110.182 105.272ZM119.068 105.24C117.98 105.24 117.142 105.005 116.556 104.536C115.969 104.056 115.67 103.416 115.66 102.616H116.78C116.801 103.021 116.982 103.389 117.324 103.72C117.676 104.051 118.257 104.216 119.068 104.216C119.825 104.216 120.39 104.061 120.764 103.752C121.148 103.432 121.34 103.048 121.34 102.6C121.34 102.184 121.18 101.864 120.86 101.64C120.55 101.405 120.097 101.256 119.5 101.192L118.54 101.096C117.772 101.011 117.148 100.776 116.668 100.392C116.198 99.9973 115.964 99.4587 115.964 98.776C115.964 98.2747 116.092 97.8373 116.348 97.464C116.604 97.0907 116.961 96.8027 117.42 96.6C117.889 96.3867 118.438 96.28 119.068 96.28C119.974 96.28 120.71 96.4933 121.276 96.92C121.852 97.3467 122.145 97.9547 122.156 98.744H121.036C121.025 98.3387 120.854 97.9973 120.524 97.72C120.193 97.4427 119.708 97.304 119.068 97.304C118.406 97.304 117.91 97.448 117.58 97.736C117.26 98.024 117.1 98.376 117.1 98.792C117.1 99.144 117.222 99.4373 117.468 99.672C117.713 99.896 118.097 100.035 118.62 100.088L119.58 100.184C120.433 100.28 121.126 100.525 121.66 100.92C122.204 101.315 122.476 101.88 122.476 102.616C122.476 103.117 122.332 103.571 122.044 103.976C121.766 104.371 121.372 104.68 120.86 104.904C120.348 105.128 119.75 105.24 119.068 105.24ZM127.937 105.096C127.35 105.096 126.843 105.011 126.417 104.84C125.99 104.669 125.659 104.381 125.424 103.976C125.19 103.56 125.073 103.005 125.073 102.312V93.864H126.225V102.488C126.225 102.979 126.358 103.357 126.625 103.624C126.891 103.88 127.27 104.008 127.761 104.008H129.281V105.096H127.937ZM123.553 97.448V96.536H129.281V97.448H123.553ZM131.599 105V96.536H132.559V100.072H132.463C132.463 98.8347 132.735 97.9227 133.279 97.336C133.823 96.7387 134.676 96.44 135.839 96.44H136.111V97.528H135.615C134.698 97.528 133.999 97.768 133.519 98.248C133.039 98.7173 132.799 99.4107 132.799 100.328V105H131.599ZM143.173 105V102.456H142.981V99.448C142.981 98.8187 142.815 98.3387 142.485 98.008C142.154 97.6667 141.642 97.496 140.949 97.496C140.629 97.496 140.303 97.5013 139.973 97.512C139.653 97.5227 139.343 97.5387 139.045 97.56C138.757 97.5707 138.501 97.5867 138.277 97.608V96.552C138.511 96.5307 138.751 96.5093 138.997 96.488C139.242 96.4667 139.493 96.456 139.749 96.456C140.015 96.4453 140.271 96.44 140.517 96.44C141.381 96.44 142.074 96.5467 142.597 96.76C143.13 96.9733 143.519 97.3093 143.765 97.768C144.01 98.216 144.133 98.8133 144.133 99.56V105H143.173ZM140.309 105.224C139.711 105.224 139.183 105.117 138.725 104.904C138.266 104.691 137.909 104.381 137.653 103.976C137.407 103.571 137.285 103.08 137.285 102.504C137.285 101.939 137.413 101.459 137.669 101.064C137.935 100.669 138.314 100.371 138.805 100.168C139.306 99.9547 139.909 99.848 140.613 99.848H143.093V100.76H140.533C139.861 100.76 139.343 100.925 138.981 101.256C138.629 101.576 138.453 101.997 138.453 102.52C138.453 103.053 138.639 103.48 139.013 103.8C139.386 104.109 139.893 104.264 140.533 104.264C140.927 104.264 141.306 104.195 141.669 104.056C142.031 103.907 142.335 103.661 142.581 103.32C142.826 102.968 142.959 102.488 142.981 101.88L143.333 102.376C143.29 103.005 143.141 103.533 142.885 103.96C142.629 104.376 142.282 104.691 141.845 104.904C141.407 105.117 140.895 105.224 140.309 105.224ZM150.202 105.096C149.615 105.096 149.109 105.011 148.682 104.84C148.255 104.669 147.925 104.381 147.69 103.976C147.455 103.56 147.338 103.005 147.338 102.312V93.864H148.49V102.488C148.49 102.979 148.623 103.357 148.89 103.624C149.157 103.88 149.535 104.008 150.026 104.008H151.546V105.096H150.202ZM145.818 97.448V96.536H151.546V97.448H145.818ZM154.312 105V96.536H155.497V105H154.312ZM152.953 97.496V96.536H155.497V97.496H152.953ZM154.569 94.968C154.281 94.968 154.062 94.8933 153.913 94.744C153.774 94.584 153.705 94.3867 153.705 94.152C153.705 93.9173 153.774 93.7253 153.913 93.576C154.062 93.416 154.281 93.336 154.569 93.336C154.857 93.336 155.07 93.416 155.209 93.576C155.347 93.7253 155.417 93.9173 155.417 94.152C155.417 94.3867 155.347 94.584 155.209 94.744C155.07 94.8933 154.857 94.968 154.569 94.968ZM162.438 105.272C161.712 105.272 161.072 105.149 160.518 104.904C159.974 104.648 159.51 104.312 159.126 103.896C158.752 103.469 158.464 102.995 158.262 102.472C158.07 101.949 157.974 101.416 157.974 100.872V100.648C157.974 100.104 158.075 99.5707 158.278 99.048C158.48 98.5147 158.774 98.04 159.158 97.624C159.542 97.208 160.006 96.8773 160.55 96.632C161.104 96.376 161.734 96.248 162.438 96.248C163.152 96.248 163.782 96.376 164.326 96.632C164.88 96.8773 165.35 97.208 165.734 97.624C166.118 98.04 166.406 98.5147 166.598 99.048C166.8 99.5707 166.902 100.104 166.902 100.648V100.872C166.902 101.416 166.806 101.949 166.614 102.472C166.422 102.995 166.134 103.469 165.75 103.896C165.376 104.312 164.912 104.648 164.358 104.904C163.803 105.149 163.163 105.272 162.438 105.272ZM162.438 104.2C163.142 104.2 163.734 104.045 164.214 103.736C164.704 103.416 165.078 103 165.334 102.488C165.59 101.965 165.718 101.389 165.718 100.76C165.718 100.12 165.584 99.544 165.318 99.032C165.062 98.5093 164.688 98.0987 164.198 97.8C163.707 97.4907 163.12 97.336 162.438 97.336C161.766 97.336 161.184 97.4907 160.694 97.8C160.203 98.0987 159.824 98.5093 159.558 99.032C159.302 99.544 159.174 100.12 159.174 100.76C159.174 101.389 159.302 101.965 159.558 102.488C159.814 103 160.182 103.416 160.662 103.736C161.152 104.045 161.744 104.2 162.438 104.2ZM169.349 105V96.536H170.309V100.088H170.117C170.117 99.2987 170.234 98.6213 170.469 98.056C170.704 97.4907 171.056 97.0533 171.525 96.744C171.994 96.4347 172.586 96.28 173.301 96.28H173.349C174.416 96.28 175.21 96.616 175.733 97.288C176.256 97.9493 176.517 98.8827 176.517 100.088V105H175.333V99.832C175.333 99.096 175.13 98.504 174.725 98.056C174.32 97.608 173.754 97.384 173.029 97.384C172.282 97.384 171.68 97.6187 171.221 98.088C170.773 98.5467 170.549 99.1547 170.549 99.912V105H169.349Z" fill="#404040"/>
<defs>
<radialGradient id="paint0_radial_193_624" cx="0" cy="0" r="1" gradientUnits="userSpaceOnUse" gradientTransform="translate(177.5 15) rotate(90) scale(15 177.5)">
<stop stop-color="#5A69EA"/>
<stop offset="1" stop-color="#BF8BCA"/>
</radialGradient>
</defs>
</svg>
