<svg width="350" height="130" viewBox="0 0 350 130" fill="none" xmlns="http://www.w3.org/2000/svg">
<path d="M1.15528 23L7.61128 5.48H10.8753L17.5473 23H15.6753L9.45928 6.632L10.4433 7.136H7.92328L8.95528 6.632L2.97928 23H1.15528ZM4.61128 17.432L5.21128 15.776H13.3473L13.9713 17.432H4.61128ZM20.6678 27.8V10.304H22.1078V15.752L21.6758 15.8C21.7398 14.52 22.0118 13.44 22.4918 12.56C22.9878 11.68 23.6518 11.016 24.4838 10.568C25.3318 10.104 26.2758 9.872 27.3158 9.872C28.2438 9.872 29.0838 10.056 29.8358 10.424C30.6038 10.776 31.2518 11.264 31.7798 11.888C32.3238 12.496 32.7318 13.2 33.0038 14C33.2918 14.784 33.4358 15.608 33.4358 16.472V16.808C33.4358 17.672 33.2918 18.504 33.0038 19.304C32.7158 20.088 32.2998 20.792 31.7558 21.416C31.2278 22.024 30.5798 22.512 29.8118 22.88C29.0598 23.232 28.2118 23.408 27.2678 23.408C26.2598 23.408 25.3318 23.184 24.4838 22.736C23.6518 22.272 22.9718 21.592 22.4438 20.696C21.9318 19.8 21.6518 18.696 21.6038 17.384L22.4678 19.184V27.8H20.6678ZM27.0278 21.824C27.9878 21.824 28.8118 21.6 29.4998 21.152C30.1878 20.688 30.7158 20.064 31.0838 19.28C31.4518 18.48 31.6358 17.6 31.6358 16.64C31.6358 15.648 31.4438 14.768 31.0598 14C30.6918 13.216 30.1638 12.6 29.4758 12.152C28.7878 11.688 27.9718 11.456 27.0278 11.456C26.1638 11.456 25.3798 11.648 24.6758 12.032C23.9718 12.416 23.4118 12.96 22.9958 13.664C22.5958 14.352 22.3958 15.168 22.3958 16.112V17.288C22.3958 18.184 22.5958 18.976 22.9958 19.664C23.4118 20.336 23.9718 20.864 24.6758 21.248C25.3798 21.632 26.1638 21.824 27.0278 21.824ZM37.0741 27.8V10.304H38.5141V15.752L38.0821 15.8C38.1461 14.52 38.4181 13.44 38.8981 12.56C39.3941 11.68 40.0581 11.016 40.8901 10.568C41.7381 10.104 42.6821 9.872 43.7221 9.872C44.6501 9.872 45.4901 10.056 46.2421 10.424C47.0101 10.776 47.6581 11.264 48.1861 11.888C48.7301 12.496 49.1381 13.2 49.4101 14C49.6981 14.784 49.8421 15.608 49.8421 16.472V16.808C49.8421 17.672 49.6981 18.504 49.4101 19.304C49.1221 20.088 48.7061 20.792 48.1621 21.416C47.6341 22.024 46.9861 22.512 46.2181 22.88C45.4661 23.232 44.6181 23.408 43.6741 23.408C42.6661 23.408 41.7381 23.184 40.8901 22.736C40.0581 22.272 39.3781 21.592 38.8501 20.696C38.3381 19.8 38.0581 18.696 38.0101 17.384L38.8741 19.184V27.8H37.0741ZM43.4341 21.824C44.3941 21.824 45.2181 21.6 45.9061 21.152C46.5941 20.688 47.1221 20.064 47.4901 19.28C47.8581 18.48 48.0421 17.6 48.0421 16.64C48.0421 15.648 47.8501 14.768 47.4661 14C47.0981 13.216 46.5701 12.6 45.8821 12.152C45.1941 11.688 44.3781 11.456 43.4341 11.456C42.5701 11.456 41.7861 11.648 41.0821 12.032C40.3781 12.416 39.8181 12.96 39.4021 13.664C39.0021 14.352 38.8021 15.168 38.8021 16.112V17.288C38.8021 18.184 39.0021 18.976 39.4021 19.664C39.8181 20.336 40.3781 20.864 41.0821 21.248C41.7861 21.632 42.5701 21.824 43.4341 21.824ZM53.6003 23V5.48H55.4003V23H53.6003ZM51.7523 6.944V5.48H55.4003V6.944H51.7523ZM60.7383 23V10.304H62.5143V23H60.7383ZM58.6983 11.744V10.304H62.5143V11.744H58.6983ZM61.1223 7.952C60.6903 7.952 60.3623 7.84 60.1383 7.616C59.9303 7.376 59.8263 7.08 59.8263 6.728C59.8263 6.376 59.9303 6.088 60.1383 5.864C60.3623 5.624 60.6903 5.504 61.1223 5.504C61.5543 5.504 61.8743 5.624 62.0823 5.864C62.2903 6.088 62.3943 6.376 62.3943 6.728C62.3943 7.08 62.2903 7.376 62.0823 7.616C61.8743 7.84 61.5543 7.952 61.1223 7.952ZM72.5422 23.408C71.4542 23.408 70.5102 23.224 69.7102 22.856C68.9102 22.472 68.2542 21.968 67.7422 21.344C67.2302 20.704 66.8462 19.992 66.5902 19.208C66.3502 18.424 66.2302 17.616 66.2302 16.784V16.448C66.2302 15.632 66.3502 14.832 66.5902 14.048C66.8462 13.264 67.2302 12.56 67.7422 11.936C68.2542 11.312 68.8942 10.816 69.6622 10.448C70.4462 10.064 71.3582 9.872 72.3982 9.872C73.7262 9.872 74.8302 10.168 75.7102 10.76C76.6062 11.352 77.2782 12.112 77.7262 13.04C78.1742 13.952 78.3982 14.936 78.3982 15.992V16.928H67.0462V15.536H77.1502L76.6942 16.232C76.6942 15.288 76.5262 14.464 76.1902 13.76C75.8702 13.04 75.3902 12.48 74.7502 12.08C74.1262 11.664 73.3422 11.456 72.3982 11.456C71.4062 11.456 70.5822 11.688 69.9262 12.152C69.2702 12.616 68.7742 13.232 68.4382 14C68.1182 14.768 67.9582 15.64 67.9582 16.616C67.9582 17.576 68.1182 18.456 68.4382 19.256C68.7742 20.04 69.2782 20.664 69.9502 21.128C70.6382 21.592 71.5022 21.824 72.5422 21.824C73.6462 21.824 74.5422 21.576 75.2302 21.08C75.9182 20.568 76.3422 19.968 76.5022 19.28H78.1822C78.0222 20.128 77.6862 20.864 77.1742 21.488C76.6622 22.096 76.0142 22.568 75.2302 22.904C74.4462 23.24 73.5502 23.408 72.5422 23.408ZM87.0712 23.408C86.1432 23.408 85.2952 23.24 84.5272 22.904C83.7752 22.552 83.1192 22.072 82.5592 21.464C82.0152 20.84 81.5912 20.136 81.2872 19.352C80.9992 18.552 80.8552 17.704 80.8552 16.808V16.472C80.8552 15.608 80.9992 14.784 81.2872 14C81.5752 13.2 81.9832 12.496 82.5112 11.888C83.0552 11.264 83.7032 10.776 84.4552 10.424C85.2232 10.056 86.0792 9.872 87.0232 9.872C88.0952 9.872 89.0392 10.104 89.8552 10.568C90.6712 11.032 91.3272 11.704 91.8232 12.584C92.3192 13.448 92.5832 14.512 92.6152 15.776L91.8232 14.288V5.48H93.6232V23H92.1832V17.36H92.7592C92.7272 18.688 92.4472 19.808 91.9192 20.72C91.4072 21.616 90.7272 22.288 89.8792 22.736C89.0472 23.184 88.1112 23.408 87.0712 23.408ZM87.3112 21.824C88.1752 21.824 88.9512 21.632 89.6392 21.248C90.3432 20.864 90.8952 20.32 91.2952 19.616C91.6952 18.896 91.8952 18.072 91.8952 17.144V15.992C91.8952 15.096 91.6952 14.312 91.2952 13.64C90.8952 12.952 90.3432 12.416 89.6392 12.032C88.9512 11.648 88.1672 11.456 87.2872 11.456C86.3432 11.456 85.5192 11.688 84.8152 12.152C84.1272 12.6 83.5912 13.216 83.2072 14C82.8392 14.784 82.6552 15.664 82.6552 16.64C82.6552 17.648 82.8472 18.544 83.2312 19.328C83.6152 20.112 84.1592 20.728 84.8632 21.176C85.5672 21.608 86.3832 21.824 87.3112 21.824Z" fill="#404040"/>
<path d="M104.279 23V5.408H106.103V23H104.279ZM115.151 23L109.175 15.248H111.311L117.383 23H115.151ZM105.359 16.352V14.72H110.063C110.927 14.72 111.647 14.552 112.223 14.216C112.799 13.88 113.231 13.424 113.519 12.848C113.807 12.272 113.951 11.616 113.951 10.88C113.951 10.144 113.807 9.488 113.519 8.912C113.231 8.336 112.799 7.88 112.223 7.544C111.647 7.192 110.927 7.016 110.063 7.016H105.359V5.408H109.751C111.047 5.408 112.143 5.616 113.039 6.032C113.951 6.432 114.639 7.032 115.103 7.832C115.583 8.616 115.823 9.576 115.823 10.712V11.048C115.823 12.184 115.583 13.152 115.103 13.952C114.623 14.736 113.935 15.336 113.039 15.752C112.143 16.152 111.047 16.352 109.751 16.352H105.359ZM125.417 23.408C124.329 23.408 123.385 23.224 122.585 22.856C121.785 22.472 121.129 21.968 120.617 21.344C120.105 20.704 119.721 19.992 119.465 19.208C119.225 18.424 119.105 17.616 119.105 16.784V16.448C119.105 15.632 119.225 14.832 119.465 14.048C119.721 13.264 120.105 12.56 120.617 11.936C121.129 11.312 121.769 10.816 122.537 10.448C123.321 10.064 124.233 9.872 125.273 9.872C126.601 9.872 127.705 10.168 128.585 10.76C129.481 11.352 130.153 12.112 130.601 13.04C131.049 13.952 131.273 14.936 131.273 15.992V16.928H119.921V15.536H130.025L129.569 16.232C129.569 15.288 129.401 14.464 129.065 13.76C128.745 13.04 128.265 12.48 127.625 12.08C127.001 11.664 126.217 11.456 125.273 11.456C124.281 11.456 123.457 11.688 122.801 12.152C122.145 12.616 121.649 13.232 121.313 14C120.993 14.768 120.833 15.64 120.833 16.616C120.833 17.576 120.993 18.456 121.313 19.256C121.649 20.04 122.153 20.664 122.825 21.128C123.513 21.592 124.377 21.824 125.417 21.824C126.521 21.824 127.417 21.576 128.105 21.08C128.793 20.568 129.217 19.968 129.377 19.28H131.057C130.897 20.128 130.561 20.864 130.049 21.488C129.537 22.096 128.889 22.568 128.105 22.904C127.321 23.24 126.425 23.408 125.417 23.408ZM138.746 23.36C137.114 23.36 135.858 23.008 134.978 22.304C134.098 21.584 133.65 20.624 133.634 19.424H135.314C135.346 20.032 135.618 20.584 136.13 21.08C136.658 21.576 137.53 21.824 138.746 21.824C139.882 21.824 140.73 21.592 141.29 21.128C141.866 20.648 142.154 20.072 142.154 19.4C142.154 18.776 141.914 18.296 141.434 17.96C140.97 17.608 140.29 17.384 139.394 17.288L137.954 17.144C136.802 17.016 135.866 16.664 135.146 16.088C134.442 15.496 134.09 14.688 134.09 13.664C134.09 12.912 134.282 12.256 134.666 11.696C135.05 11.136 135.586 10.704 136.274 10.4C136.978 10.08 137.802 9.92 138.746 9.92C140.106 9.92 141.21 10.24 142.058 10.88C142.922 11.52 143.362 12.432 143.378 13.616H141.698C141.682 13.008 141.426 12.496 140.93 12.08C140.434 11.664 139.706 11.456 138.746 11.456C137.754 11.456 137.01 11.672 136.514 12.104C136.034 12.536 135.794 13.064 135.794 13.688C135.794 14.216 135.978 14.656 136.346 15.008C136.714 15.344 137.29 15.552 138.074 15.632L139.514 15.776C140.794 15.92 141.834 16.288 142.634 16.88C143.45 17.472 143.858 18.32 143.858 19.424C143.858 20.176 143.642 20.856 143.21 21.464C142.794 22.056 142.202 22.52 141.434 22.856C140.666 23.192 139.77 23.36 138.746 23.36ZM152.745 23.408C151.657 23.408 150.713 23.224 149.913 22.856C149.113 22.472 148.457 21.968 147.945 21.344C147.433 20.704 147.049 19.992 146.793 19.208C146.553 18.424 146.433 17.616 146.433 16.784V16.448C146.433 15.632 146.553 14.832 146.793 14.048C147.049 13.264 147.433 12.56 147.945 11.936C148.457 11.312 149.097 10.816 149.865 10.448C150.649 10.064 151.561 9.872 152.601 9.872C153.929 9.872 155.033 10.168 155.913 10.76C156.809 11.352 157.481 12.112 157.929 13.04C158.377 13.952 158.601 14.936 158.601 15.992V16.928H147.249V15.536H157.353L156.897 16.232C156.897 15.288 156.729 14.464 156.393 13.76C156.073 13.04 155.593 12.48 154.953 12.08C154.329 11.664 153.545 11.456 152.601 11.456C151.609 11.456 150.785 11.688 150.129 12.152C149.473 12.616 148.977 13.232 148.641 14C148.321 14.768 148.161 15.64 148.161 16.616C148.161 17.576 148.321 18.456 148.641 19.256C148.977 20.04 149.481 20.664 150.153 21.128C150.841 21.592 151.705 21.824 152.745 21.824C153.849 21.824 154.745 21.576 155.433 21.08C156.121 20.568 156.545 19.968 156.705 19.28H158.385C158.225 20.128 157.889 20.864 157.377 21.488C156.865 22.096 156.217 22.568 155.433 22.904C154.649 23.24 153.753 23.408 152.745 23.408ZM169.794 23V19.184H169.506V14.672C169.506 13.728 169.258 13.008 168.762 12.512C168.266 12 167.498 11.744 166.458 11.744C165.978 11.744 165.49 11.752 164.994 11.768C164.514 11.784 164.05 11.808 163.602 11.84C163.17 11.856 162.786 11.88 162.45 11.912V10.328C162.802 10.296 163.162 10.264 163.53 10.232C163.898 10.2 164.274 10.184 164.658 10.184C165.058 10.168 165.442 10.16 165.81 10.16C167.106 10.16 168.146 10.32 168.93 10.64C169.73 10.96 170.314 11.464 170.682 12.152C171.05 12.824 171.234 13.72 171.234 14.84V23H169.794ZM165.498 23.336C164.602 23.336 163.81 23.176 163.122 22.856C162.434 22.536 161.898 22.072 161.514 21.464C161.146 20.856 160.962 20.12 160.962 19.256C160.962 18.408 161.154 17.688 161.538 17.096C161.938 16.504 162.506 16.056 163.242 15.752C163.994 15.432 164.898 15.272 165.954 15.272H169.674V16.64H165.834C164.826 16.64 164.05 16.888 163.506 17.384C162.978 17.864 162.714 18.496 162.714 19.28C162.714 20.08 162.994 20.72 163.554 21.2C164.114 21.664 164.874 21.896 165.834 21.896C166.426 21.896 166.994 21.792 167.538 21.584C168.082 21.36 168.538 20.992 168.906 20.48C169.274 19.952 169.474 19.232 169.506 18.32L170.034 19.064C169.97 20.008 169.746 20.8 169.362 21.44C168.978 22.064 168.458 22.536 167.802 22.856C167.146 23.176 166.378 23.336 165.498 23.336ZM175.73 23V10.304H177.17V15.608H177.026C177.026 13.752 177.434 12.384 178.25 11.504C179.066 10.608 180.346 10.16 182.09 10.16H182.498V11.792H181.754C180.378 11.792 179.33 12.152 178.61 12.872C177.89 13.576 177.53 14.616 177.53 15.992V23H175.73ZM190.598 23.408C189.526 23.408 188.59 23.224 187.79 22.856C187.006 22.472 186.35 21.96 185.822 21.32C185.294 20.664 184.894 19.944 184.622 19.16C184.366 18.376 184.238 17.584 184.238 16.784V16.448C184.238 15.632 184.366 14.84 184.622 14.072C184.894 13.288 185.294 12.584 185.822 11.96C186.35 11.32 187.006 10.816 187.79 10.448C188.59 10.064 189.51 9.872 190.55 9.872C191.606 9.872 192.542 10.064 193.358 10.448C194.19 10.832 194.862 11.376 195.374 12.08C195.886 12.784 196.19 13.616 196.286 14.576H194.558C194.414 13.696 193.998 12.968 193.31 12.392C192.638 11.8 191.718 11.504 190.55 11.504C189.542 11.504 188.702 11.736 188.03 12.2C187.374 12.648 186.878 13.264 186.542 14.048C186.206 14.816 186.038 15.672 186.038 16.616C186.038 17.544 186.206 18.408 186.542 19.208C186.878 19.992 187.382 20.624 188.054 21.104C188.726 21.568 189.574 21.8 190.598 21.8C191.382 21.8 192.062 21.664 192.638 21.392C193.23 21.104 193.702 20.72 194.054 20.24C194.422 19.76 194.638 19.232 194.702 18.656H196.43C196.366 19.616 196.062 20.456 195.518 21.176C194.99 21.88 194.302 22.432 193.454 22.832C192.606 23.216 191.654 23.408 190.598 23.408ZM199.73 23V5.48H201.53V15.392L201.002 15.8C201.002 14.616 201.17 13.584 201.506 12.704C201.858 11.824 202.378 11.144 203.066 10.664C203.77 10.168 204.65 9.92 205.706 9.92H205.802C207.338 9.92 208.498 10.424 209.282 11.432C210.082 12.44 210.482 13.84 210.482 15.632V23H208.706V15.248C208.706 14.112 208.394 13.216 207.77 12.56C207.146 11.904 206.306 11.576 205.25 11.576C204.114 11.576 203.21 11.944 202.538 12.68C201.866 13.4 201.53 14.352 201.53 15.536V23H199.73Z" fill="url(#paint0_radial_193_631)"/>
<path d="M3.76 65L0.528 53.32H1.776L4.704 64.216L4.144 63.896H5.696L5.088 64.216L7.472 53.832H8.624L6 65H3.76ZM10.784 65L7.904 53.832H9.088L11.744 64.216L11.152 63.896H12.736L12.128 64.216L14.768 53.32H15.984L13.024 65H10.784ZM21.2599 65.272C20.5345 65.272 19.9052 65.1493 19.3719 64.904C18.8385 64.648 18.4012 64.312 18.0599 63.896C17.7185 63.4693 17.4625 62.9947 17.2919 62.472C17.1319 61.9493 17.0519 61.4107 17.0519 60.856V60.632C17.0519 60.088 17.1319 59.5547 17.2919 59.032C17.4625 58.5093 17.7185 58.04 18.0599 57.624C18.4012 57.208 18.8279 56.8773 19.3399 56.632C19.8625 56.376 20.4705 56.248 21.1639 56.248C22.0492 56.248 22.7852 56.4453 23.3719 56.84C23.9692 57.2347 24.4172 57.7413 24.7159 58.36C25.0145 58.968 25.1639 59.624 25.1639 60.328V60.952H17.5959V60.024H24.3319L24.0279 60.488C24.0279 59.8587 23.9159 59.3093 23.6919 58.84C23.4785 58.36 23.1585 57.9867 22.7319 57.72C22.3159 57.4427 21.7932 57.304 21.1639 57.304C20.5025 57.304 19.9532 57.4587 19.5159 57.768C19.0785 58.0773 18.7479 58.488 18.5239 59C18.3105 59.512 18.2039 60.0933 18.2039 60.744C18.2039 61.384 18.3105 61.9707 18.5239 62.504C18.7479 63.0267 19.0839 63.4427 19.5319 63.752C19.9905 64.0613 20.5665 64.216 21.2599 64.216C21.9959 64.216 22.5932 64.0507 23.0519 63.72C23.5105 63.3787 23.7932 62.9787 23.8999 62.52H25.0199C24.9132 63.0853 24.6892 63.576 24.3479 63.992C24.0065 64.3973 23.5745 64.712 23.0519 64.936C22.5292 65.16 21.9319 65.272 21.2599 65.272ZM33.8802 65.24C32.7922 65.24 31.9549 65.0053 31.3683 64.536C30.7816 64.056 30.4829 63.416 30.4723 62.616H31.5923C31.6136 63.0213 31.7949 63.3893 32.1363 63.72C32.4883 64.0507 33.0696 64.216 33.8802 64.216C34.6376 64.216 35.2029 64.0613 35.5763 63.752C35.9603 63.432 36.1523 63.048 36.1523 62.6C36.1523 62.184 35.9923 61.864 35.6723 61.64C35.3629 61.4053 34.9096 61.256 34.3123 61.192L33.3523 61.096C32.5843 61.0107 31.9603 60.776 31.4803 60.392C31.0109 59.9973 30.7763 59.4587 30.7763 58.776C30.7763 58.2747 30.9043 57.8373 31.1603 57.464C31.4163 57.0907 31.7736 56.8027 32.2323 56.6C32.7016 56.3867 33.2509 56.28 33.8802 56.28C34.7869 56.28 35.5229 56.4933 36.0883 56.92C36.6643 57.3467 36.9576 57.9547 36.9683 58.744H35.8483C35.8376 58.3387 35.6669 57.9973 35.3363 57.72C35.0056 57.4427 34.5203 57.304 33.8802 57.304C33.2189 57.304 32.7229 57.448 32.3923 57.736C32.0723 58.024 31.9123 58.376 31.9123 58.792C31.9123 59.144 32.0349 59.4373 32.2803 59.672C32.5256 59.896 32.9096 60.0347 33.4323 60.088L34.3923 60.184C35.2456 60.28 35.9389 60.5253 36.4723 60.92C37.0163 61.3147 37.2883 61.88 37.2883 62.616C37.2883 63.1173 37.1443 63.5707 36.8563 63.976C36.5789 64.3707 36.1843 64.68 35.6723 64.904C35.1603 65.128 34.5629 65.24 33.8802 65.24ZM42.749 65.096C42.1623 65.096 41.6557 65.0107 41.229 64.84C40.8023 64.6693 40.4717 64.3813 40.237 63.976C40.0023 63.56 39.885 63.0053 39.885 62.312V53.864H41.037V62.488C41.037 62.9787 41.1703 63.3573 41.437 63.624C41.7037 63.88 42.0823 64.008 42.573 64.008H44.093V65.096H42.749ZM38.365 57.448V56.536H44.093V57.448H38.365ZM49.3394 65.24C48.326 65.24 47.5527 64.9147 47.0194 64.264C46.486 63.6027 46.2194 62.6853 46.2194 61.512V56.52H47.4034V61.752C47.4034 62.488 47.5954 63.0747 47.9794 63.512C48.374 63.9387 48.918 64.152 49.6114 64.152C50.3367 64.152 50.9127 63.9227 51.3394 63.464C51.7767 63.0053 51.9954 62.392 51.9954 61.624V56.52H53.1954V65H52.2354V61.464H52.4274C52.4274 62.2533 52.3154 62.9307 52.0914 63.496C51.8674 64.0507 51.5314 64.4827 51.0834 64.792C50.6354 65.0907 50.07 65.24 49.3874 65.24H49.3394ZM59.8053 65.272C59.1866 65.272 58.6213 65.16 58.1093 64.936C57.6079 64.7013 57.1706 64.3813 56.7973 63.976C56.4346 63.56 56.1519 63.0907 55.9493 62.568C55.7573 62.0347 55.6613 61.4693 55.6613 60.872V60.648C55.6613 60.072 55.7573 59.5227 55.9493 59C56.1413 58.4667 56.4133 57.9973 56.7653 57.592C57.1279 57.176 57.5599 56.8507 58.0613 56.616C58.5733 56.3707 59.1439 56.248 59.7733 56.248C60.4879 56.248 61.1173 56.4027 61.6613 56.712C62.2053 57.0213 62.6426 57.4693 62.9733 58.056C63.3039 58.632 63.4799 59.3413 63.5013 60.184L62.9733 59.192V53.32H64.1733V65H63.2133V61.24H63.5972C63.5759 62.1253 63.3893 62.872 63.0373 63.48C62.6959 64.0773 62.2426 64.5253 61.6773 64.824C61.1226 65.1227 60.4986 65.272 59.8053 65.272ZM59.9653 64.216C60.5413 64.216 61.0586 64.088 61.5173 63.832C61.9866 63.576 62.3546 63.2133 62.6213 62.744C62.8879 62.264 63.0213 61.7147 63.0213 61.096V60.328C63.0213 59.7307 62.8879 59.208 62.6213 58.76C62.3546 58.3013 61.9866 57.944 61.5173 57.688C61.0586 57.432 60.5359 57.304 59.9493 57.304C59.3199 57.304 58.7706 57.4587 58.3013 57.768C57.8426 58.0667 57.4853 58.4773 57.2293 59C56.9839 59.5227 56.8613 60.1093 56.8613 60.76C56.8613 61.432 56.9893 62.0293 57.2453 62.552C57.5013 63.0747 57.8639 63.4853 58.3333 63.784C58.8026 64.072 59.3466 64.216 59.9653 64.216ZM66.5188 68.296V67.224H67.6068C67.9801 67.224 68.3001 67.176 68.5668 67.08C68.8334 66.9947 69.0574 66.84 69.2388 66.616C69.4201 66.392 69.5748 66.0827 69.7028 65.688L72.5508 56.536H73.7188L70.7428 66.024C70.5721 66.568 70.3374 67.0053 70.0388 67.336C69.7401 67.6773 69.3828 67.9227 68.9668 68.072C68.5508 68.2213 68.0761 68.296 67.5428 68.296H66.5188ZM69.2708 64.792V63.784H70.7908V64.792H69.2708ZM69.1268 64.792L66.0548 56.536H67.2868L70.2468 64.792H69.1268ZM83.088 65.272C82.3627 65.272 81.7333 65.1493 81.2 64.904C80.6667 64.648 80.2293 64.312 79.888 63.896C79.5467 63.4693 79.2907 62.9947 79.12 62.472C78.96 61.9493 78.88 61.4107 78.88 60.856V60.632C78.88 60.088 78.96 59.5547 79.12 59.032C79.2907 58.5093 79.5467 58.04 79.888 57.624C80.2293 57.208 80.656 56.8773 81.168 56.632C81.6907 56.376 82.2987 56.248 82.992 56.248C83.8773 56.248 84.6133 56.4453 85.2 56.84C85.7973 57.2347 86.2453 57.7413 86.544 58.36C86.8427 58.968 86.992 59.624 86.992 60.328V60.952H79.424V60.024H86.16L85.856 60.488C85.856 59.8587 85.744 59.3093 85.52 58.84C85.3067 58.36 84.9867 57.9867 84.56 57.72C84.144 57.4427 83.6213 57.304 82.992 57.304C82.3307 57.304 81.7813 57.4587 81.344 57.768C80.9067 58.0773 80.576 58.488 80.352 59C80.1387 59.512 80.032 60.0933 80.032 60.744C80.032 61.384 80.1387 61.9707 80.352 62.504C80.576 63.0267 80.912 63.4427 81.36 63.752C81.8187 64.0613 82.3947 64.216 83.088 64.216C83.824 64.216 84.4213 64.0507 84.88 63.72C85.3387 63.3787 85.6213 62.9787 85.728 62.52H86.848C86.7413 63.0853 86.5173 63.576 86.176 63.992C85.8347 64.3973 85.4027 64.712 84.88 64.936C84.3573 65.16 83.76 65.272 83.088 65.272ZM89.302 65V56.52H90.262V60.088H90.07C90.07 59.3093 90.1767 58.6373 90.39 58.072C90.614 57.5067 90.9447 57.0693 91.382 56.76C91.8193 56.44 92.374 56.28 93.046 56.28H93.094C93.766 56.28 94.3207 56.4347 94.758 56.744C95.1953 57.0533 95.5207 57.4907 95.734 58.056C95.9473 58.6213 96.054 59.2987 96.054 60.088H95.67C95.67 59.3093 95.7767 58.6373 95.99 58.072C96.214 57.5067 96.5447 57.0693 96.982 56.76C97.43 56.44 97.99 56.28 98.662 56.28H98.71C99.382 56.28 99.9367 56.4347 100.374 56.744C100.822 57.0533 101.153 57.4907 101.366 58.056C101.59 58.6213 101.702 59.2987 101.702 60.088V65H100.502V59.816C100.502 59.0693 100.321 58.4773 99.958 58.04C99.5953 57.6027 99.0727 57.384 98.39 57.384C97.686 57.384 97.126 57.6133 96.71 58.072C96.3047 58.52 96.102 59.128 96.102 59.896V65H94.902V59.816C94.902 59.0693 94.7207 58.4773 94.358 58.04C93.9953 57.6027 93.4727 57.384 92.79 57.384C92.086 57.384 91.526 57.6133 91.11 58.072C90.7047 58.52 90.502 59.128 90.502 59.896V65H89.302ZM108.229 65.272C107.503 65.272 106.874 65.1493 106.341 64.904C105.807 64.648 105.37 64.312 105.029 63.896C104.687 63.4693 104.431 62.9947 104.261 62.472C104.101 61.9493 104.021 61.4107 104.021 60.856V60.632C104.021 60.088 104.101 59.5547 104.261 59.032C104.431 58.5093 104.687 58.04 105.029 57.624C105.37 57.208 105.797 56.8773 106.309 56.632C106.831 56.376 107.439 56.248 108.133 56.248C109.018 56.248 109.754 56.4453 110.341 56.84C110.938 57.2347 111.386 57.7413 111.685 58.36C111.983 58.968 112.133 59.624 112.133 60.328V60.952H104.565V60.024H111.301L110.997 60.488C110.997 59.8587 110.885 59.3093 110.661 58.84C110.447 58.36 110.127 57.9867 109.701 57.72C109.285 57.4427 108.762 57.304 108.133 57.304C107.471 57.304 106.922 57.4587 106.485 57.768C106.047 58.0773 105.717 58.488 105.493 59C105.279 59.512 105.173 60.0933 105.173 60.744C105.173 61.384 105.279 61.9707 105.493 62.504C105.717 63.0267 106.053 63.4427 106.501 63.752C106.959 64.0613 107.535 64.216 108.229 64.216C108.965 64.216 109.562 64.0507 110.021 63.72C110.479 63.3787 110.762 62.9787 110.869 62.52H111.989C111.882 63.0853 111.658 63.576 111.317 63.992C110.975 64.3973 110.543 64.712 110.021 64.936C109.498 65.16 108.901 65.272 108.229 65.272ZM114.443 65V56.536H115.403V60.072H115.307C115.307 58.8347 115.579 57.9227 116.123 57.336C116.667 56.7387 117.52 56.44 118.683 56.44H118.955V57.528H118.459C117.541 57.528 116.843 57.768 116.363 58.248C115.883 58.7173 115.643 59.4107 115.643 60.328V65H114.443ZM124.018 68.312C123.624 68.312 123.224 68.2907 122.818 68.248C122.424 68.216 122.045 68.1733 121.682 68.12V67.096C122.066 67.1493 122.466 67.192 122.882 67.224C123.309 67.2667 123.709 67.288 124.082 67.288C124.893 67.288 125.538 67.1813 126.018 66.968C126.498 66.7547 126.84 66.4133 127.042 65.944C127.256 65.4853 127.362 64.8773 127.362 64.12V62.424L127.81 61.24C127.789 62.0507 127.618 62.7493 127.298 63.336C126.978 63.912 126.546 64.3547 126.002 64.664C125.458 64.9733 124.84 65.128 124.146 65.128C123.538 65.128 122.984 65.0107 122.482 64.776C121.992 64.5413 121.57 64.2213 121.218 63.816C120.866 63.4 120.594 62.9307 120.402 62.408C120.21 61.8853 120.114 61.336 120.114 60.76V60.536C120.114 59.9707 120.21 59.432 120.402 58.92C120.594 58.3973 120.866 57.9387 121.218 57.544C121.57 57.1387 121.997 56.824 122.498 56.6C123.01 56.3653 123.576 56.248 124.194 56.248C124.941 56.248 125.592 56.4133 126.146 56.744C126.701 57.0747 127.133 57.5333 127.442 58.12C127.762 58.7067 127.933 59.3947 127.954 60.184L127.57 59.976V56.536H128.514V64.072C128.514 65.0853 128.365 65.9013 128.066 66.52C127.768 67.1387 127.288 67.592 126.626 67.88C125.976 68.168 125.106 68.312 124.018 68.312ZM124.354 64.024C124.93 64.024 125.442 63.9013 125.89 63.656C126.349 63.4 126.712 63.0427 126.978 62.584C127.245 62.1253 127.378 61.592 127.378 60.984V60.2C127.378 59.6133 127.24 59.1013 126.962 58.664C126.696 58.2267 126.338 57.8853 125.89 57.64C125.442 57.3947 124.93 57.272 124.354 57.272C123.736 57.272 123.197 57.4213 122.738 57.72C122.28 58.0187 121.928 58.424 121.682 58.936C121.437 59.4373 121.314 60.008 121.314 60.648C121.314 61.2987 121.437 61.88 121.682 62.392C121.938 62.904 122.296 63.304 122.754 63.592C123.213 63.88 123.746 64.024 124.354 64.024ZM131.969 65V56.536H133.153V65H131.969ZM130.609 57.496V56.536H133.153V57.496H130.609ZM132.225 54.968C131.937 54.968 131.718 54.8933 131.569 54.744C131.43 54.584 131.361 54.3867 131.361 54.152C131.361 53.9173 131.43 53.7253 131.569 53.576C131.718 53.416 131.937 53.336 132.225 53.336C132.513 53.336 132.726 53.416 132.865 53.576C133.003 53.7253 133.073 53.9173 133.073 54.152C133.073 54.3867 133.003 54.584 132.865 54.744C132.726 54.8933 132.513 54.968 132.225 54.968ZM136.302 65V56.536H137.262V60.088H137.07C137.07 59.2987 137.187 58.6213 137.422 58.056C137.657 57.4907 138.009 57.0533 138.478 56.744C138.947 56.4347 139.539 56.28 140.254 56.28H140.302C141.369 56.28 142.163 56.616 142.686 57.288C143.209 57.9493 143.47 58.8827 143.47 60.088V65H142.286V59.832C142.286 59.096 142.083 58.504 141.678 58.056C141.273 57.608 140.707 57.384 139.982 57.384C139.235 57.384 138.633 57.6187 138.174 58.088C137.726 58.5467 137.502 59.1547 137.502 59.912V65H136.302ZM149.69 68.312C149.296 68.312 148.896 68.2907 148.49 68.248C148.096 68.216 147.717 68.1733 147.354 68.12V67.096C147.738 67.1493 148.138 67.192 148.554 67.224C148.981 67.2667 149.381 67.288 149.754 67.288C150.565 67.288 151.21 67.1813 151.69 66.968C152.17 66.7547 152.512 66.4133 152.714 65.944C152.928 65.4853 153.034 64.8773 153.034 64.12V62.424L153.482 61.24C153.461 62.0507 153.29 62.7493 152.97 63.336C152.65 63.912 152.218 64.3547 151.674 64.664C151.13 64.9733 150.512 65.128 149.818 65.128C149.21 65.128 148.656 65.0107 148.154 64.776C147.664 64.5413 147.242 64.2213 146.89 63.816C146.538 63.4 146.266 62.9307 146.074 62.408C145.882 61.8853 145.786 61.336 145.786 60.76V60.536C145.786 59.9707 145.882 59.432 146.074 58.92C146.266 58.3973 146.538 57.9387 146.89 57.544C147.242 57.1387 147.669 56.824 148.17 56.6C148.682 56.3653 149.248 56.248 149.866 56.248C150.613 56.248 151.264 56.4133 151.818 56.744C152.373 57.0747 152.805 57.5333 153.114 58.12C153.434 58.7067 153.605 59.3947 153.626 60.184L153.242 59.976V56.536H154.186V64.072C154.186 65.0853 154.037 65.9013 153.738 66.52C153.44 67.1387 152.96 67.592 152.298 67.88C151.648 68.168 150.778 68.312 149.69 68.312ZM150.026 64.024C150.602 64.024 151.114 63.9013 151.562 63.656C152.021 63.4 152.384 63.0427 152.65 62.584C152.917 62.1253 153.05 61.592 153.05 60.984V60.2C153.05 59.6133 152.912 59.1013 152.634 58.664C152.368 58.2267 152.01 57.8853 151.562 57.64C151.114 57.3947 150.602 57.272 150.026 57.272C149.408 57.272 148.869 57.4213 148.41 57.72C147.952 58.0187 147.6 58.424 147.354 58.936C147.109 59.4373 146.986 60.008 146.986 60.648C146.986 61.2987 147.109 61.88 147.354 62.392C147.61 62.904 147.968 63.304 148.426 63.592C148.885 63.88 149.418 64.024 150.026 64.024ZM163.599 65.24C162.511 65.24 161.674 65.0053 161.087 64.536C160.5 64.056 160.202 63.416 160.191 62.616H161.311C161.332 63.0213 161.514 63.3893 161.855 63.72C162.207 64.0507 162.788 64.216 163.599 64.216C164.356 64.216 164.922 64.0613 165.295 63.752C165.679 63.432 165.871 63.048 165.871 62.6C165.871 62.184 165.711 61.864 165.391 61.64C165.082 61.4053 164.628 61.256 164.031 61.192L163.071 61.096C162.303 61.0107 161.679 60.776 161.199 60.392C160.73 59.9973 160.495 59.4587 160.495 58.776C160.495 58.2747 160.623 57.8373 160.879 57.464C161.135 57.0907 161.492 56.8027 161.951 56.6C162.42 56.3867 162.97 56.28 163.599 56.28C164.506 56.28 165.242 56.4933 165.807 56.92C166.383 57.3467 166.676 57.9547 166.687 58.744H165.567C165.556 58.3387 165.386 57.9973 165.055 57.72C164.724 57.4427 164.239 57.304 163.599 57.304C162.938 57.304 162.442 57.448 162.111 57.736C161.791 58.024 161.631 58.376 161.631 58.792C161.631 59.144 161.754 59.4373 161.999 59.672C162.244 59.896 162.628 60.0347 163.151 60.088L164.111 60.184C164.964 60.28 165.658 60.5253 166.191 60.92C166.735 61.3147 167.007 61.88 167.007 62.616C167.007 63.1173 166.863 63.5707 166.575 63.976C166.298 64.3707 165.903 64.68 165.391 64.904C164.879 65.128 164.282 65.24 163.599 65.24ZM168.597 68.296V67.224H169.685C170.058 67.224 170.378 67.176 170.645 67.08C170.912 66.9947 171.136 66.84 171.317 66.616C171.498 66.392 171.653 66.0827 171.781 65.688L174.629 56.536H175.797L172.821 66.024C172.65 66.568 172.416 67.0053 172.117 67.336C171.818 67.6773 171.461 67.9227 171.045 68.072C170.629 68.2213 170.154 68.296 169.621 68.296H168.597ZM171.349 64.792V63.784H172.869V64.792H171.349ZM171.205 64.792L168.133 56.536H169.365L172.325 64.792H171.205ZM180.521 65.24C179.433 65.24 178.596 65.0053 178.009 64.536C177.422 64.056 177.124 63.416 177.113 62.616H178.233C178.254 63.0213 178.436 63.3893 178.777 63.72C179.129 64.0507 179.71 64.216 180.521 64.216C181.278 64.216 181.844 64.0613 182.217 63.752C182.601 63.432 182.793 63.048 182.793 62.6C182.793 62.184 182.633 61.864 182.313 61.64C182.004 61.4053 181.55 61.256 180.953 61.192L179.993 61.096C179.225 61.0107 178.601 60.776 178.121 60.392C177.652 59.9973 177.417 59.4587 177.417 58.776C177.417 58.2747 177.545 57.8373 177.801 57.464C178.057 57.0907 178.414 56.8027 178.873 56.6C179.342 56.3867 179.892 56.28 180.521 56.28C181.428 56.28 182.164 56.4933 182.729 56.92C183.305 57.3467 183.598 57.9547 183.609 58.744H182.489C182.478 58.3387 182.308 57.9973 181.977 57.72C181.646 57.4427 181.161 57.304 180.521 57.304C179.86 57.304 179.364 57.448 179.033 57.736C178.713 58.024 178.553 58.376 178.553 58.792C178.553 59.144 178.676 59.4373 178.921 59.672C179.166 59.896 179.55 60.0347 180.073 60.088L181.033 60.184C181.886 60.28 182.58 60.5253 183.113 60.92C183.657 61.3147 183.929 61.88 183.929 62.616C183.929 63.1173 183.785 63.5707 183.497 63.976C183.22 64.3707 182.825 64.68 182.313 64.904C181.801 65.128 181.204 65.24 180.521 65.24ZM189.39 65.096C188.803 65.096 188.296 65.0107 187.87 64.84C187.443 64.6693 187.112 64.3813 186.878 63.976C186.643 63.56 186.526 63.0053 186.526 62.312V53.864H187.678V62.488C187.678 62.9787 187.811 63.3573 188.078 63.624C188.344 63.88 188.723 64.008 189.214 64.008H190.734V65.096H189.39ZM185.006 57.448V56.536H190.734V57.448H185.006ZM196.51 65.272C195.785 65.272 195.155 65.1493 194.622 64.904C194.089 64.648 193.651 64.312 193.31 63.896C192.969 63.4693 192.713 62.9947 192.542 62.472C192.382 61.9493 192.302 61.4107 192.302 60.856V60.632C192.302 60.088 192.382 59.5547 192.542 59.032C192.713 58.5093 192.969 58.04 193.31 57.624C193.651 57.208 194.078 56.8773 194.59 56.632C195.113 56.376 195.721 56.248 196.414 56.248C197.299 56.248 198.035 56.4453 198.622 56.84C199.219 57.2347 199.667 57.7413 199.966 58.36C200.265 58.968 200.414 59.624 200.414 60.328V60.952H192.846V60.024H199.582L199.278 60.488C199.278 59.8587 199.166 59.3093 198.942 58.84C198.729 58.36 198.409 57.9867 197.982 57.72C197.566 57.4427 197.043 57.304 196.414 57.304C195.753 57.304 195.203 57.4587 194.766 57.768C194.329 58.0773 193.998 58.488 193.774 59C193.561 59.512 193.454 60.0933 193.454 60.744C193.454 61.384 193.561 61.9707 193.774 62.504C193.998 63.0267 194.334 63.4427 194.782 63.752C195.241 64.0613 195.817 64.216 196.51 64.216C197.246 64.216 197.843 64.0507 198.302 63.72C198.761 63.3787 199.043 62.9787 199.15 62.52H200.27C200.163 63.0853 199.939 63.576 199.598 63.992C199.257 64.3973 198.825 64.712 198.302 64.936C197.779 65.16 197.182 65.272 196.51 65.272ZM202.724 65V56.52H203.684V60.088H203.492C203.492 59.3093 203.599 58.6373 203.812 58.072C204.036 57.5067 204.367 57.0693 204.804 56.76C205.241 56.44 205.796 56.28 206.468 56.28H206.516C207.188 56.28 207.743 56.4347 208.18 56.744C208.617 57.0533 208.943 57.4907 209.156 58.056C209.369 58.6213 209.476 59.2987 209.476 60.088H209.092C209.092 59.3093 209.199 58.6373 209.412 58.072C209.636 57.5067 209.967 57.0693 210.404 56.76C210.852 56.44 211.412 56.28 212.084 56.28H212.132C212.804 56.28 213.359 56.4347 213.796 56.744C214.244 57.0533 214.575 57.4907 214.788 58.056C215.012 58.6213 215.124 59.2987 215.124 60.088V65H213.924V59.816C213.924 59.0693 213.743 58.4773 213.38 58.04C213.017 57.6027 212.495 57.384 211.812 57.384C211.108 57.384 210.548 57.6133 210.132 58.072C209.727 58.52 209.524 59.128 209.524 59.896V65H208.324V59.816C208.324 59.0693 208.143 58.4773 207.78 58.04C207.417 57.6027 206.895 57.384 206.212 57.384C205.508 57.384 204.948 57.6133 204.532 58.072C204.127 58.52 203.924 59.128 203.924 59.896V65H202.724ZM220.786 65.24C219.698 65.24 218.861 65.0053 218.275 64.536C217.688 64.056 217.389 63.416 217.379 62.616H218.499C218.52 63.0213 218.701 63.3893 219.043 63.72C219.395 64.0507 219.976 64.216 220.786 64.216C221.544 64.216 222.109 64.0613 222.483 63.752C222.867 63.432 223.059 63.048 223.059 62.6C223.059 62.184 222.899 61.864 222.579 61.64C222.269 61.4053 221.816 61.256 221.219 61.192L220.259 61.096C219.491 61.0107 218.867 60.776 218.387 60.392C217.917 59.9973 217.683 59.4587 217.683 58.776C217.683 58.2747 217.811 57.8373 218.067 57.464C218.323 57.0907 218.68 56.8027 219.139 56.6C219.608 56.3867 220.157 56.28 220.786 56.28C221.693 56.28 222.429 56.4933 222.995 56.92C223.571 57.3467 223.864 57.9547 223.875 58.744H222.755C222.744 58.3387 222.573 57.9973 222.243 57.72C221.912 57.4427 221.427 57.304 220.786 57.304C220.125 57.304 219.629 57.448 219.299 57.736C218.979 58.024 218.819 58.376 218.819 58.792C218.819 59.144 218.941 59.4373 219.187 59.672C219.432 59.896 219.816 60.0347 220.339 60.088L221.299 60.184C222.152 60.28 222.845 60.5253 223.379 60.92C223.923 61.3147 224.195 61.88 224.195 62.616C224.195 63.1173 224.051 63.5707 223.763 63.976C223.485 64.3707 223.091 64.68 222.579 64.904C222.067 65.128 221.469 65.24 220.786 65.24ZM4.096 85V74.12H5.312V85H4.096ZM0.448 74.424V73.32H8.96V74.424H0.448ZM10.9583 85V73.32H12.1583V79.928L11.8063 80.2C11.8063 79.4107 11.9183 78.7227 12.1423 78.136C12.3769 77.5493 12.7236 77.096 13.1823 76.776C13.6516 76.4453 14.2383 76.28 14.9423 76.28H15.0063C16.0303 76.28 16.8036 76.616 17.3263 77.288C17.8596 77.96 18.1263 78.8933 18.1263 80.088V85H16.9423V79.832C16.9423 79.0747 16.7343 78.4773 16.3183 78.04C15.9023 77.6027 15.3423 77.384 14.6383 77.384C13.8809 77.384 13.2783 77.6293 12.8303 78.12C12.3823 78.6 12.1583 79.2347 12.1583 80.024V85H10.9583ZM24.6505 85.272C23.9252 85.272 23.2958 85.1493 22.7625 84.904C22.2292 84.648 21.7918 84.312 21.4505 83.896C21.1092 83.4693 20.8532 82.9947 20.6825 82.472C20.5225 81.9493 20.4425 81.4107 20.4425 80.856V80.632C20.4425 80.088 20.5225 79.5547 20.6825 79.032C20.8532 78.5093 21.1092 78.04 21.4505 77.624C21.7918 77.208 22.2185 76.8773 22.7305 76.632C23.2532 76.376 23.8612 76.248 24.5545 76.248C25.4398 76.248 26.1758 76.4453 26.7625 76.84C27.3598 77.2347 27.8078 77.7413 28.1065 78.36C28.4052 78.968 28.5545 79.624 28.5545 80.328V80.952H20.9865V80.024H27.7225L27.4185 80.488C27.4185 79.8587 27.3065 79.3093 27.0825 78.84C26.8692 78.36 26.5492 77.9867 26.1225 77.72C25.7065 77.4427 25.1838 77.304 24.5545 77.304C23.8932 77.304 23.3438 77.4587 22.9065 77.768C22.4692 78.0773 22.1385 78.488 21.9145 79C21.7012 79.512 21.5945 80.0933 21.5945 80.744C21.5945 81.384 21.7012 81.9707 21.9145 82.504C22.1385 83.0267 22.4745 83.4427 22.9225 83.752C23.3812 84.0613 23.9572 84.216 24.6505 84.216C25.3865 84.216 25.9838 84.0507 26.4425 83.72C26.9012 83.3787 27.1838 82.9787 27.2905 82.52H28.4105C28.3038 83.0853 28.0798 83.576 27.7385 83.992C27.3972 84.3973 26.9652 84.712 26.4425 84.936C25.9198 85.16 25.3225 85.272 24.6505 85.272ZM30.8645 85V76.536H31.8245V80.088H31.6325C31.6325 79.2987 31.7498 78.6213 31.9845 78.056C32.2192 77.4907 32.5712 77.0533 33.0405 76.744C33.5098 76.4347 34.1018 76.28 34.8165 76.28H34.8645C35.9312 76.28 36.7258 76.616 37.2485 77.288C37.7712 77.9493 38.0325 78.8827 38.0325 80.088V85H36.8485V79.832C36.8485 79.096 36.6458 78.504 36.2405 78.056C35.8352 77.608 35.2698 77.384 34.5445 77.384C33.7978 77.384 33.1952 77.6187 32.7365 78.088C32.2885 78.5467 32.0645 79.1547 32.0645 79.912V85H30.8645ZM47.1231 85L48.9311 76.808H50.6111L52.7071 85H51.6671L49.5711 76.856H49.9551L48.1311 85H47.1231ZM46.4351 85V84.024H47.8911V85H46.4351ZM46.1471 85L43.6991 76.536H44.8511L47.2671 85H46.1471ZM51.9391 85V84.024H53.3631V85H51.9391ZM52.5631 85L54.6751 76.536H55.7791L53.6191 85H52.5631ZM61.3849 85.272C60.6595 85.272 60.0302 85.1493 59.4969 84.904C58.9635 84.648 58.5262 84.312 58.1849 83.896C57.8435 83.4693 57.5875 82.9947 57.4169 82.472C57.2569 81.9493 57.1769 81.4107 57.1769 80.856V80.632C57.1769 80.088 57.2569 79.5547 57.4169 79.032C57.5875 78.5093 57.8435 78.04 58.1849 77.624C58.5262 77.208 58.9529 76.8773 59.4649 76.632C59.9875 76.376 60.5955 76.248 61.2889 76.248C62.1742 76.248 62.9102 76.4453 63.4969 76.84C64.0942 77.2347 64.5422 77.7413 64.8409 78.36C65.1395 78.968 65.2889 79.624 65.2889 80.328V80.952H57.7209V80.024H64.4569L64.1529 80.488C64.1529 79.8587 64.0409 79.3093 63.8169 78.84C63.6035 78.36 63.2835 77.9867 62.8569 77.72C62.4409 77.4427 61.9182 77.304 61.2889 77.304C60.6275 77.304 60.0782 77.4587 59.6409 77.768C59.2035 78.0773 58.8729 78.488 58.6489 79C58.4355 79.512 58.3289 80.0933 58.3289 80.744C58.3289 81.384 58.4355 81.9707 58.6489 82.504C58.8729 83.0267 59.2089 83.4427 59.6569 83.752C60.1155 84.0613 60.6915 84.216 61.3849 84.216C62.1209 84.216 62.7182 84.0507 63.1769 83.72C63.6355 83.3787 63.9182 82.9787 64.0249 82.52H65.1449C65.0382 83.0853 64.8142 83.576 64.4729 83.992C64.1315 84.3973 63.6995 84.712 63.1769 84.936C62.6542 85.16 62.0569 85.272 61.3849 85.272ZM74.4053 85.096C73.8186 85.096 73.3119 85.0107 72.8853 84.84C72.4586 84.6693 72.1279 84.3813 71.8932 83.976C71.6586 83.56 71.5413 83.0053 71.5413 82.312V73.864H72.6933V82.488C72.6933 82.9787 72.8266 83.3573 73.0933 83.624C73.3599 83.88 73.7386 84.008 74.2293 84.008H75.7493V85.096H74.4053ZM70.0213 77.448V76.536H75.7493V77.448H70.0213ZM80.9956 85.24C79.9823 85.24 79.209 84.9147 78.6756 84.264C78.1423 83.6027 77.8756 82.6853 77.8756 81.512V76.52H79.0596V81.752C79.0596 82.488 79.2516 83.0747 79.6356 83.512C80.0303 83.9387 80.5743 84.152 81.2676 84.152C81.993 84.152 82.569 83.9227 82.9956 83.464C83.433 83.0053 83.6516 82.392 83.6516 81.624V76.52H84.8516V85H83.8916V81.464H84.0836C84.0836 82.2533 83.9716 82.9307 83.7476 83.496C83.5236 84.0507 83.1876 84.4827 82.7396 84.792C82.2916 85.0907 81.7263 85.24 81.0436 85.24H80.9956ZM87.9895 85V76.536H88.9495V80.072H88.8535C88.8535 78.8347 89.1255 77.9227 89.6695 77.336C90.2135 76.7387 91.0668 76.44 92.2295 76.44H92.5015V77.528H92.0055C91.0882 77.528 90.3895 77.768 89.9095 78.248C89.4295 78.7173 89.1895 79.4107 89.1895 80.328V85H87.9895ZM94.4426 85V76.536H95.4026V80.088H95.2106C95.2106 79.2987 95.328 78.6213 95.5626 78.056C95.7973 77.4907 96.1493 77.0533 96.6186 76.744C97.088 76.4347 97.68 76.28 98.3946 76.28H98.4426C99.5093 76.28 100.304 76.616 100.827 77.288C101.349 77.9493 101.611 78.8827 101.611 80.088V85H100.427V79.832C100.427 79.096 100.224 78.504 99.8186 78.056C99.4133 77.608 98.848 77.384 98.1226 77.384C97.376 77.384 96.7733 77.6187 96.3146 78.088C95.8666 78.5467 95.6426 79.1547 95.6426 79.912V85H94.4426ZM108.781 85V76.536H109.965V85H108.781ZM107.421 77.496V76.536H109.965V77.496H107.421ZM109.037 74.968C108.749 74.968 108.531 74.8933 108.381 74.744C108.243 74.584 108.173 74.3867 108.173 74.152C108.173 73.9173 108.243 73.7253 108.381 73.576C108.531 73.416 108.749 73.336 109.037 73.336C109.325 73.336 109.539 73.416 109.677 73.576C109.816 73.7253 109.885 73.9173 109.885 74.152C109.885 74.3867 109.816 74.584 109.677 74.744C109.539 74.8933 109.325 74.968 109.037 74.968ZM113.115 85V76.536H114.075V80.088H113.883C113.883 79.2987 114 78.6213 114.235 78.056C114.469 77.4907 114.821 77.0533 115.291 76.744C115.76 76.4347 116.352 76.28 117.067 76.28H117.115C118.181 76.28 118.976 76.616 119.499 77.288C120.021 77.9493 120.283 78.8827 120.283 80.088V85H119.099V79.832C119.099 79.096 118.896 78.504 118.491 78.056C118.085 77.608 117.52 77.384 116.795 77.384C116.048 77.384 115.445 77.6187 114.987 78.088C114.539 78.5467 114.315 79.1547 114.315 79.912V85H113.115ZM125.943 85.24C124.855 85.24 124.017 85.0053 123.431 84.536C122.844 84.056 122.545 83.416 122.535 82.616H123.655C123.676 83.0213 123.857 83.3893 124.199 83.72C124.551 84.0507 125.132 84.216 125.943 84.216C126.7 84.216 127.265 84.0613 127.639 83.752C128.023 83.432 128.215 83.048 128.215 82.6C128.215 82.184 128.055 81.864 127.735 81.64C127.425 81.4053 126.972 81.256 126.375 81.192L125.415 81.096C124.647 81.0107 124.023 80.776 123.543 80.392C123.073 79.9973 122.839 79.4587 122.839 78.776C122.839 78.2747 122.967 77.8373 123.223 77.464C123.479 77.0907 123.836 76.8027 124.295 76.6C124.764 76.3867 125.313 76.28 125.943 76.28C126.849 76.28 127.585 76.4933 128.151 76.92C128.727 77.3467 129.02 77.9547 129.031 78.744H127.911C127.9 78.3387 127.729 77.9973 127.399 77.72C127.068 77.4427 126.583 77.304 125.943 77.304C125.281 77.304 124.785 77.448 124.455 77.736C124.135 78.024 123.975 78.376 123.975 78.792C123.975 79.144 124.097 79.4373 124.343 79.672C124.588 79.896 124.972 80.0347 125.495 80.088L126.455 80.184C127.308 80.28 128.001 80.5253 128.535 80.92C129.079 81.3147 129.351 81.88 129.351 82.616C129.351 83.1173 129.207 83.5707 128.919 83.976C128.641 84.3707 128.247 84.68 127.735 84.904C127.223 85.128 126.625 85.24 125.943 85.24ZM132.188 85V76.536H133.372V85H132.188ZM130.828 77.496V76.536H133.372V77.496H130.828ZM132.444 74.968C132.156 74.968 131.937 74.8933 131.788 74.744C131.649 74.584 131.58 74.3867 131.58 74.152C131.58 73.9173 131.649 73.7253 131.788 73.576C131.937 73.416 132.156 73.336 132.444 73.336C132.732 73.336 132.945 73.416 133.084 73.576C133.222 73.7253 133.292 73.9173 133.292 74.152C133.292 74.3867 133.222 74.584 133.084 74.744C132.945 74.8933 132.732 74.968 132.444 74.968ZM139.753 88.312C139.358 88.312 138.958 88.2907 138.553 88.248C138.158 88.216 137.779 88.1733 137.417 88.12V87.096C137.801 87.1493 138.201 87.192 138.617 87.224C139.043 87.2667 139.443 87.288 139.817 87.288C140.627 87.288 141.273 87.1813 141.753 86.968C142.233 86.7547 142.574 86.4133 142.777 85.944C142.99 85.4853 143.097 84.8773 143.097 84.12V82.424L143.545 81.24C143.523 82.0507 143.353 82.7493 143.033 83.336C142.713 83.912 142.281 84.3547 141.737 84.664C141.193 84.9733 140.574 85.128 139.881 85.128C139.273 85.128 138.718 85.0107 138.217 84.776C137.726 84.5413 137.305 84.2213 136.953 83.816C136.601 83.4 136.329 82.9307 136.137 82.408C135.945 81.8853 135.849 81.336 135.849 80.76V80.536C135.849 79.9707 135.945 79.432 136.137 78.92C136.329 78.3973 136.601 77.9387 136.953 77.544C137.305 77.1387 137.731 76.824 138.233 76.6C138.745 76.3653 139.31 76.248 139.929 76.248C140.675 76.248 141.326 76.4133 141.881 76.744C142.435 77.0747 142.867 77.5333 143.177 78.12C143.497 78.7067 143.667 79.3947 143.689 80.184L143.305 79.976V76.536H144.249V84.072C144.249 85.0853 144.099 85.9013 143.801 86.52C143.502 87.1387 143.022 87.592 142.361 87.88C141.71 88.168 140.841 88.312 139.753 88.312ZM140.089 84.024C140.665 84.024 141.177 83.9013 141.625 83.656C142.083 83.4 142.446 83.0427 142.713 82.584C142.979 82.1253 143.113 81.592 143.113 80.984V80.2C143.113 79.6133 142.974 79.1013 142.697 78.664C142.43 78.2267 142.073 77.8853 141.625 77.64C141.177 77.3947 140.665 77.272 140.089 77.272C139.47 77.272 138.931 77.4213 138.473 77.72C138.014 78.0187 137.662 78.424 137.417 78.936C137.171 79.4373 137.049 80.008 137.049 80.648C137.049 81.2987 137.171 81.88 137.417 82.392C137.673 82.904 138.03 83.304 138.489 83.592C138.947 83.88 139.481 84.024 140.089 84.024ZM147.255 85V73.32H148.455V79.928L148.103 80.2C148.103 79.4107 148.215 78.7227 148.439 78.136C148.674 77.5493 149.02 77.096 149.479 76.776C149.948 76.4453 150.535 76.28 151.239 76.28H151.303C152.327 76.28 153.1 76.616 153.623 77.288C154.156 77.96 154.423 78.8933 154.423 80.088V85H153.239V79.832C153.239 79.0747 153.031 78.4773 152.615 78.04C152.199 77.6027 151.639 77.384 150.935 77.384C150.178 77.384 149.575 77.6293 149.127 78.12C148.679 78.6 148.455 79.2347 148.455 80.024V85H147.255ZM160.483 85.096C159.897 85.096 159.39 85.0107 158.963 84.84C158.537 84.6693 158.206 84.3813 157.971 83.976C157.737 83.56 157.619 83.0053 157.619 82.312V73.864H158.771V82.488C158.771 82.9787 158.905 83.3573 159.171 83.624C159.438 83.88 159.817 84.008 160.307 84.008H161.827V85.096H160.483ZM156.099 77.448V76.536H161.827V77.448H156.099ZM166.755 85.24C165.667 85.24 164.83 85.0053 164.243 84.536C163.657 84.056 163.358 83.416 163.347 82.616H164.467C164.489 83.0213 164.67 83.3893 165.011 83.72C165.363 84.0507 165.945 84.216 166.755 84.216C167.513 84.216 168.078 84.0613 168.451 83.752C168.835 83.432 169.027 83.048 169.027 82.6C169.027 82.184 168.867 81.864 168.547 81.64C168.238 81.4053 167.785 81.256 167.187 81.192L166.227 81.096C165.459 81.0107 164.835 80.776 164.355 80.392C163.886 79.9973 163.651 79.4587 163.651 78.776C163.651 78.2747 163.779 77.8373 164.035 77.464C164.291 77.0907 164.649 76.8027 165.107 76.6C165.577 76.3867 166.126 76.28 166.755 76.28C167.662 76.28 168.398 76.4933 168.963 76.92C169.539 77.3467 169.833 77.9547 169.843 78.744H168.723C168.713 78.3387 168.542 77.9973 168.211 77.72C167.881 77.4427 167.395 77.304 166.755 77.304C166.094 77.304 165.598 77.448 165.267 77.736C164.947 78.024 164.787 78.376 164.787 78.792C164.787 79.144 164.91 79.4373 165.155 79.672C165.401 79.896 165.785 80.0347 166.307 80.088L167.267 80.184C168.121 80.28 168.814 80.5253 169.347 80.92C169.891 81.3147 170.163 81.88 170.163 82.616C170.163 83.1173 170.019 83.5707 169.731 83.976C169.454 84.3707 169.059 84.68 168.547 84.904C168.035 85.128 167.438 85.24 166.755 85.24ZM176.734 85V76.536H177.918V85H176.734ZM175.374 77.496V76.536H177.918V77.496H175.374ZM176.99 74.968C176.702 74.968 176.484 74.8933 176.334 74.744C176.196 74.584 176.126 74.3867 176.126 74.152C176.126 73.9173 176.196 73.7253 176.334 73.576C176.484 73.416 176.702 73.336 176.99 73.336C177.278 73.336 177.492 73.416 177.63 73.576C177.769 73.7253 177.838 73.9173 177.838 74.152C177.838 74.3867 177.769 74.584 177.63 74.744C177.492 74.8933 177.278 74.968 176.99 74.968ZM181.068 85V76.536H182.028V80.088H181.836C181.836 79.2987 181.953 78.6213 182.188 78.056C182.422 77.4907 182.774 77.0533 183.244 76.744C183.713 76.4347 184.305 76.28 185.02 76.28H185.068C186.134 76.28 186.929 76.616 187.452 77.288C187.974 77.9493 188.236 78.8827 188.236 80.088V85H187.052V79.832C187.052 79.096 186.849 78.504 186.444 78.056C186.038 77.608 185.473 77.384 184.748 77.384C184.001 77.384 183.398 77.6187 182.94 78.088C182.492 78.5467 182.268 79.1547 182.268 79.912V85H181.068ZM194.296 85.096C193.709 85.096 193.203 85.0107 192.776 84.84C192.349 84.6693 192.019 84.3813 191.784 83.976C191.549 83.56 191.432 83.0053 191.432 82.312V73.864H192.584V82.488C192.584 82.9787 192.717 83.3573 192.984 83.624C193.251 83.88 193.629 84.008 194.12 84.008H195.64V85.096H194.296ZM189.912 77.448V76.536H195.64V77.448H189.912ZM201.672 85.272C200.947 85.272 200.307 85.1493 199.752 84.904C199.208 84.648 198.744 84.312 198.36 83.896C197.987 83.4693 197.699 82.9947 197.496 82.472C197.304 81.9493 197.208 81.416 197.208 80.872V80.648C197.208 80.104 197.309 79.5707 197.512 79.048C197.715 78.5147 198.008 78.04 198.392 77.624C198.776 77.208 199.24 76.8773 199.784 76.632C200.339 76.376 200.968 76.248 201.672 76.248C202.387 76.248 203.016 76.376 203.56 76.632C204.115 76.8773 204.584 77.208 204.968 77.624C205.352 78.04 205.64 78.5147 205.832 79.048C206.035 79.5707 206.136 80.104 206.136 80.648V80.872C206.136 81.416 206.04 81.9493 205.848 82.472C205.656 82.9947 205.368 83.4693 204.984 83.896C204.611 84.312 204.147 84.648 203.592 84.904C203.037 85.1493 202.397 85.272 201.672 85.272ZM201.672 84.2C202.376 84.2 202.968 84.0453 203.448 83.736C203.939 83.416 204.312 83 204.568 82.488C204.824 81.9653 204.952 81.3893 204.952 80.76C204.952 80.12 204.819 79.544 204.552 79.032C204.296 78.5093 203.923 78.0987 203.432 77.8C202.941 77.4907 202.355 77.336 201.672 77.336C201 77.336 200.419 77.4907 199.928 77.8C199.437 78.0987 199.059 78.5093 198.792 79.032C198.536 79.544 198.408 80.12 198.408 80.76C198.408 81.3893 198.536 81.9653 198.792 82.488C199.048 83 199.416 83.416 199.896 83.736C200.387 84.0453 200.979 84.2 201.672 84.2ZM215.39 85.096C214.803 85.096 214.296 85.0107 213.87 84.84C213.443 84.6693 213.112 84.3813 212.878 83.976C212.643 83.56 212.526 83.0053 212.526 82.312V73.864H213.678V82.488C213.678 82.9787 213.811 83.3573 214.078 83.624C214.344 83.88 214.723 84.008 215.214 84.008H216.734V85.096H215.39ZM211.006 77.448V76.536H216.734V77.448H211.006ZM222.766 85.272C222.041 85.272 221.401 85.1493 220.846 84.904C220.302 84.648 219.838 84.312 219.454 83.896C219.081 83.4693 218.793 82.9947 218.59 82.472C218.398 81.9493 218.302 81.416 218.302 80.872V80.648C218.302 80.104 218.403 79.5707 218.606 79.048C218.809 78.5147 219.102 78.04 219.486 77.624C219.87 77.208 220.334 76.8773 220.878 76.632C221.433 76.376 222.062 76.248 222.766 76.248C223.481 76.248 224.11 76.376 224.654 76.632C225.209 76.8773 225.678 77.208 226.062 77.624C226.446 78.04 226.734 78.5147 226.926 79.048C227.129 79.5707 227.23 80.104 227.23 80.648V80.872C227.23 81.416 227.134 81.9493 226.942 82.472C226.75 82.9947 226.462 83.4693 226.078 83.896C225.705 84.312 225.241 84.648 224.686 84.904C224.131 85.1493 223.491 85.272 222.766 85.272ZM222.766 84.2C223.47 84.2 224.062 84.0453 224.542 83.736C225.033 83.416 225.406 83 225.662 82.488C225.918 81.9653 226.046 81.3893 226.046 80.76C226.046 80.12 225.913 79.544 225.646 79.032C225.39 78.5093 225.017 78.0987 224.526 77.8C224.035 77.4907 223.449 77.336 222.766 77.336C222.094 77.336 221.513 77.4907 221.022 77.8C220.531 78.0987 220.153 78.5093 219.886 79.032C219.63 79.544 219.502 80.12 219.502 80.76C219.502 81.3893 219.63 81.9653 219.886 82.488C220.142 83 220.51 83.416 220.99 83.736C221.481 84.0453 222.073 84.2 222.766 84.2ZM233.469 85.272C232.744 85.272 232.104 85.1493 231.549 84.904C231.005 84.648 230.541 84.312 230.157 83.896C229.784 83.4693 229.496 82.9947 229.293 82.472C229.101 81.9493 229.005 81.416 229.005 80.872V80.648C229.005 80.104 229.106 79.5707 229.309 79.048C229.512 78.5147 229.805 78.04 230.189 77.624C230.573 77.208 231.037 76.8773 231.581 76.632C232.136 76.376 232.765 76.248 233.469 76.248C234.184 76.248 234.813 76.376 235.357 76.632C235.912 76.8773 236.381 77.208 236.765 77.624C237.149 78.04 237.437 78.5147 237.629 79.048C237.832 79.5707 237.933 80.104 237.933 80.648V80.872C237.933 81.416 237.837 81.9493 237.645 82.472C237.453 82.9947 237.165 83.4693 236.781 83.896C236.408 84.312 235.944 84.648 235.389 84.904C234.834 85.1493 234.194 85.272 233.469 85.272ZM233.469 84.2C234.173 84.2 234.765 84.0453 235.245 83.736C235.736 83.416 236.109 83 236.365 82.488C236.621 81.9653 236.749 81.3893 236.749 80.76C236.749 80.12 236.616 79.544 236.349 79.032C236.093 78.5093 235.72 78.0987 235.229 77.8C234.738 77.4907 234.152 77.336 233.469 77.336C232.797 77.336 232.216 77.4907 231.725 77.8C231.234 78.0987 230.856 78.5093 230.589 79.032C230.333 79.544 230.205 80.12 230.205 80.76C230.205 81.3893 230.333 81.9653 230.589 82.488C230.845 83 231.213 83.416 231.693 83.736C232.184 84.0453 232.776 84.2 233.469 84.2ZM240.46 85V73.32H241.66V85H240.46ZM239.228 74.296V73.32H241.66V74.296H239.228ZM247.443 85.24C246.355 85.24 245.517 85.0053 244.931 84.536C244.344 84.056 244.045 83.416 244.035 82.616H245.155C245.176 83.0213 245.357 83.3893 245.699 83.72C246.051 84.0507 246.632 84.216 247.443 84.216C248.2 84.216 248.765 84.0613 249.139 83.752C249.523 83.432 249.715 83.048 249.715 82.6C249.715 82.184 249.555 81.864 249.235 81.64C248.925 81.4053 248.472 81.256 247.875 81.192L246.915 81.096C246.147 81.0107 245.523 80.776 245.043 80.392C244.573 79.9973 244.339 79.4587 244.339 78.776C244.339 78.2747 244.467 77.8373 244.723 77.464C244.979 77.0907 245.336 76.8027 245.795 76.6C246.264 76.3867 246.813 76.28 247.443 76.28C248.349 76.28 249.085 76.4933 249.651 76.92C250.227 77.3467 250.52 77.9547 250.531 78.744H249.411C249.4 78.3387 249.229 77.9973 248.899 77.72C248.568 77.4427 248.083 77.304 247.443 77.304C246.781 77.304 246.285 77.448 245.955 77.736C245.635 78.024 245.475 78.376 245.475 78.792C245.475 79.144 245.597 79.4373 245.843 79.672C246.088 79.896 246.472 80.0347 246.995 80.088L247.955 80.184C248.808 80.28 249.501 80.5253 250.035 80.92C250.579 81.3147 250.851 81.88 250.851 82.616C250.851 83.1173 250.707 83.5707 250.419 83.976C250.141 84.3707 249.747 84.68 249.235 84.904C248.723 85.128 248.125 85.24 247.443 85.24ZM1.824 105V93.32H3.04V105H1.824ZM2.752 105V103.896H8.592V105H2.752ZM2.752 99.608V98.52H8.048V99.608H2.752ZM2.752 94.424V93.32H8.416V94.424H2.752ZM16.3446 105V102.456H16.1526V99.448C16.1526 98.8187 15.9873 98.3387 15.6566 98.008C15.326 97.6667 14.814 97.496 14.1206 97.496C13.8006 97.496 13.4753 97.5013 13.1446 97.512C12.8246 97.5227 12.5153 97.5387 12.2166 97.56C11.9286 97.5707 11.6726 97.5867 11.4486 97.608V96.552C11.6833 96.5307 11.9233 96.5093 12.1686 96.488C12.414 96.4667 12.6646 96.456 12.9206 96.456C13.1873 96.4453 13.4433 96.44 13.6886 96.44C14.5526 96.44 15.246 96.5467 15.7686 96.76C16.302 96.9733 16.6913 97.3093 16.9366 97.768C17.182 98.216 17.3046 98.8133 17.3046 99.56V105H16.3446ZM13.4806 105.224C12.8833 105.224 12.3553 105.117 11.8966 104.904C11.438 104.691 11.0806 104.381 10.8246 103.976C10.5793 103.571 10.4566 103.08 10.4566 102.504C10.4566 101.939 10.5846 101.459 10.8406 101.064C11.1073 100.669 11.486 100.371 11.9766 100.168C12.478 99.9547 13.0806 99.848 13.7846 99.848H16.2646V100.76H13.7046C13.0326 100.76 12.5153 100.925 12.1526 101.256C11.8006 101.576 11.6246 101.997 11.6246 102.52C11.6246 103.053 11.8113 103.48 12.1846 103.8C12.558 104.109 13.0646 104.264 13.7046 104.264C14.0993 104.264 14.478 104.195 14.8406 104.056C15.2033 103.907 15.5073 103.661 15.7526 103.32C15.998 102.968 16.1313 102.488 16.1526 101.88L16.5046 102.376C16.462 103.005 16.3126 103.533 16.0566 103.96C15.8006 104.376 15.454 104.691 15.0166 104.904C14.5793 105.117 14.0673 105.224 13.4806 105.224ZM23.87 105.272C23.1553 105.272 22.5313 105.149 21.998 104.904C21.4753 104.648 21.038 104.307 20.686 103.88C20.334 103.443 20.0673 102.963 19.886 102.44C19.7153 101.917 19.63 101.389 19.63 100.856V100.632C19.63 100.088 19.7153 99.56 19.886 99.048C20.0673 98.5253 20.334 98.056 20.686 97.64C21.038 97.2133 21.4753 96.8773 21.998 96.632C22.5313 96.376 23.1447 96.248 23.838 96.248C24.542 96.248 25.166 96.376 25.71 96.632C26.2647 96.888 26.7127 97.2507 27.054 97.72C27.3953 98.1893 27.598 98.744 27.662 99.384H26.51C26.414 98.7973 26.1367 98.312 25.678 97.928C25.23 97.5333 24.6167 97.336 23.838 97.336C23.166 97.336 22.606 97.4907 22.158 97.8C21.7207 98.0987 21.39 98.5093 21.166 99.032C20.942 99.544 20.83 100.115 20.83 100.744C20.83 101.363 20.942 101.939 21.166 102.472C21.39 102.995 21.726 103.416 22.174 103.736C22.622 104.045 23.1873 104.2 23.87 104.2C24.3927 104.2 24.846 104.109 25.23 103.928C25.6247 103.736 25.9393 103.48 26.174 103.16C26.4193 102.84 26.5633 102.488 26.606 102.104H27.758C27.7153 102.744 27.5127 103.304 27.15 103.784C26.798 104.253 26.3393 104.621 25.774 104.888C25.2087 105.144 24.574 105.272 23.87 105.272ZM29.9583 105V93.32H31.1583V99.928L30.8063 100.2C30.8063 99.4107 30.9183 98.7227 31.1423 98.136C31.3769 97.5493 31.7236 97.096 32.1823 96.776C32.6516 96.4453 33.2383 96.28 33.9423 96.28H34.0063C35.0303 96.28 35.8036 96.616 36.3263 97.288C36.8596 97.96 37.1263 98.8933 37.1263 100.088V105H35.9423V99.832C35.9423 99.0747 35.7343 98.4773 35.3183 98.04C34.9023 97.6027 34.3423 97.384 33.6383 97.384C32.8809 97.384 32.2783 97.6293 31.8303 98.12C31.3823 98.6 31.1583 99.2347 31.1583 100.024V105H29.9583ZM46.2169 105L48.0249 96.808H49.7049L51.8009 105H50.7609L48.6649 96.856H49.0489L47.2249 105H46.2169ZM45.5289 105V104.024H46.9849V105H45.5289ZM45.2409 105L42.7929 96.536H43.9449L46.3609 105H45.2409ZM51.0329 105V104.024H52.4569V105H51.0329ZM51.6569 105L53.7689 96.536H54.8729L52.7129 105H51.6569ZM57.5312 105V96.536H58.7153V105H57.5312ZM56.1713 97.496V96.536H58.7153V97.496H56.1713ZM57.7873 94.968C57.4993 94.968 57.2806 94.8933 57.1313 94.744C56.9926 94.584 56.9233 94.3867 56.9233 94.152C56.9233 93.9173 56.9926 93.7253 57.1313 93.576C57.2806 93.416 57.4993 93.336 57.7873 93.336C58.0753 93.336 58.2886 93.416 58.4273 93.576C58.5659 93.7253 58.6353 93.9173 58.6353 94.152C58.6353 94.3867 58.5659 94.584 58.4273 94.744C58.2886 94.8933 58.0753 94.968 57.7873 94.968ZM64.9365 105.096C64.3498 105.096 63.8432 105.011 63.4165 104.84C62.9898 104.669 62.6592 104.381 62.4245 103.976C62.1898 103.56 62.0725 103.005 62.0725 102.312V93.864H63.2245V102.488C63.2245 102.979 63.3578 103.357 63.6245 103.624C63.8912 103.88 64.2698 104.008 64.7605 104.008H66.2805V105.096H64.9365ZM60.5525 97.448V96.536H66.2805V97.448H60.5525ZM68.5989 105V93.32H69.7989V99.928L69.4469 100.2C69.4469 99.4107 69.5589 98.7227 69.7829 98.136C70.0175 97.5493 70.3642 97.096 70.8229 96.776C71.2922 96.4453 71.8789 96.28 72.5829 96.28H72.6469C73.6709 96.28 74.4442 96.616 74.9669 97.288C75.5002 97.96 75.7669 98.8933 75.7669 100.088V105H74.5829V99.832C74.5829 99.0747 74.3749 98.4773 73.9589 98.04C73.5429 97.6027 72.9829 97.384 72.2789 97.384C71.5215 97.384 70.9189 97.6293 70.4709 98.12C70.0229 98.6 69.7989 99.2347 69.7989 100.024V105H68.5989ZM85.1615 105.24C84.0735 105.24 83.2362 105.005 82.6495 104.536C82.0628 104.056 81.7642 103.416 81.7535 102.616H82.8735C82.8948 103.021 83.0762 103.389 83.4175 103.72C83.7695 104.051 84.3508 104.216 85.1615 104.216C85.9188 104.216 86.4842 104.061 86.8575 103.752C87.2415 103.432 87.4335 103.048 87.4335 102.6C87.4335 102.184 87.2735 101.864 86.9535 101.64C86.6442 101.405 86.1908 101.256 85.5935 101.192L84.6335 101.096C83.8655 101.011 83.2415 100.776 82.7615 100.392C82.2922 99.9973 82.0575 99.4587 82.0575 98.776C82.0575 98.2747 82.1855 97.8373 82.4415 97.464C82.6975 97.0907 83.0548 96.8027 83.5135 96.6C83.9828 96.3867 84.5322 96.28 85.1615 96.28C86.0682 96.28 86.8042 96.4933 87.3695 96.92C87.9455 97.3467 88.2388 97.9547 88.2495 98.744H87.1295C87.1188 98.3387 86.9482 97.9973 86.6175 97.72C86.2868 97.4427 85.8015 97.304 85.1615 97.304C84.5002 97.304 84.0042 97.448 83.6735 97.736C83.3535 98.024 83.1935 98.376 83.1935 98.792C83.1935 99.144 83.3162 99.4373 83.5615 99.672C83.8068 99.896 84.1908 100.035 84.7135 100.088L85.6735 100.184C86.5268 100.28 87.2202 100.525 87.7535 100.92C88.2975 101.315 88.5695 101.88 88.5695 102.616C88.5695 103.117 88.4255 103.571 88.1375 103.976C87.8602 104.371 87.4655 104.68 86.9535 104.904C86.4415 105.128 85.8442 105.24 85.1615 105.24ZM90.9583 105V93.32H92.1583V99.928L91.8063 100.2C91.8063 99.4107 91.9183 98.7227 92.1423 98.136C92.3769 97.5493 92.7236 97.096 93.1823 96.776C93.6516 96.4453 94.2383 96.28 94.9423 96.28H95.0063C96.0303 96.28 96.8036 96.616 97.3263 97.288C97.8596 97.96 98.1263 98.8933 98.1263 100.088V105H96.9423V99.832C96.9423 99.0747 96.7343 98.4773 96.3183 98.04C95.9023 97.6027 95.3423 97.384 94.6383 97.384C93.8809 97.384 93.2783 97.6293 92.8303 98.12C92.3823 98.6 92.1583 99.2347 92.1583 100.024V105H90.9583ZM104.907 105.272C104.181 105.272 103.541 105.149 102.987 104.904C102.443 104.648 101.979 104.312 101.595 103.896C101.221 103.469 100.933 102.995 100.731 102.472C100.539 101.949 100.443 101.416 100.443 100.872V100.648C100.443 100.104 100.544 99.5707 100.747 99.048C100.949 98.5147 101.243 98.04 101.627 97.624C102.011 97.208 102.475 96.8773 103.019 96.632C103.573 96.376 104.203 96.248 104.907 96.248C105.621 96.248 106.251 96.376 106.795 96.632C107.349 96.8773 107.819 97.208 108.203 97.624C108.587 98.04 108.875 98.5147 109.067 99.048C109.269 99.5707 109.371 100.104 109.371 100.648V100.872C109.371 101.416 109.275 101.949 109.083 102.472C108.891 102.995 108.603 103.469 108.219 103.896C107.845 104.312 107.381 104.648 106.827 104.904C106.272 105.149 105.632 105.272 104.907 105.272ZM104.907 104.2C105.611 104.2 106.203 104.045 106.683 103.736C107.173 103.416 107.547 103 107.803 102.488C108.059 101.965 108.187 101.389 108.187 100.76C108.187 100.12 108.053 99.544 107.786 99.032C107.531 98.5093 107.157 98.0987 106.667 97.8C106.176 97.4907 105.589 97.336 104.907 97.336C104.235 97.336 103.653 97.4907 103.163 97.8C102.672 98.0987 102.293 98.5093 102.027 99.032C101.771 99.544 101.643 100.12 101.643 100.76C101.643 101.389 101.771 101.965 102.027 102.488C102.283 103 102.651 103.416 103.131 103.736C103.621 104.045 104.213 104.2 104.907 104.2ZM111.818 105V96.536H112.778V100.072H112.682C112.682 98.8347 112.954 97.9227 113.498 97.336C114.042 96.7387 114.895 96.44 116.058 96.44H116.33V97.528H115.834C114.916 97.528 114.218 97.768 113.738 98.248C113.258 98.7173 113.018 99.4107 113.018 100.328V105H111.818ZM121.499 105.096C120.912 105.096 120.406 105.011 119.979 104.84C119.552 104.669 119.222 104.381 118.987 103.976C118.752 103.56 118.635 103.005 118.635 102.312V93.864H119.787V102.488C119.787 102.979 119.92 103.357 120.187 103.624C120.454 103.88 120.832 104.008 121.323 104.008H122.843V105.096H121.499ZM117.115 97.448V96.536H122.843V97.448H117.115ZM125.145 107.448L124.169 107.096L125.561 103.24L126.569 103.608L125.145 107.448ZM136.093 105.096C135.506 105.096 134.999 105.011 134.573 104.84C134.146 104.669 133.815 104.381 133.581 103.976C133.346 103.56 133.229 103.005 133.229 102.312V93.864H134.381V102.488C134.381 102.979 134.514 103.357 134.781 103.624C135.047 103.88 135.426 104.008 135.917 104.008H137.437V105.096H136.093ZM131.709 97.448V96.536H137.437V97.448H131.709ZM139.755 105V93.32H140.955V99.928L140.603 100.2C140.603 99.4107 140.715 98.7227 140.939 98.136C141.174 97.5493 141.52 97.096 141.979 96.776C142.448 96.4453 143.035 96.28 143.739 96.28H143.803C144.827 96.28 145.6 96.616 146.123 97.288C146.656 97.96 146.923 98.8933 146.923 100.088V105H145.739V99.832C145.739 99.0747 145.531 98.4773 145.115 98.04C144.699 97.6027 144.139 97.384 143.435 97.384C142.678 97.384 142.075 97.6293 141.627 98.12C141.179 98.6 140.955 99.2347 140.955 100.024V105H139.755ZM153.703 105.272C152.978 105.272 152.338 105.149 151.783 104.904C151.239 104.648 150.775 104.312 150.391 103.896C150.018 103.469 149.73 102.995 149.527 102.472C149.335 101.949 149.239 101.416 149.239 100.872V100.648C149.239 100.104 149.341 99.5707 149.543 99.048C149.746 98.5147 150.039 98.04 150.423 97.624C150.807 97.208 151.271 96.8773 151.815 96.632C152.37 96.376 152.999 96.248 153.703 96.248C154.418 96.248 155.047 96.376 155.591 96.632C156.146 96.8773 156.615 97.208 156.999 97.624C157.383 98.04 157.671 98.5147 157.863 99.048C158.066 99.5707 158.167 100.104 158.167 100.648V100.872C158.167 101.416 158.071 101.949 157.879 102.472C157.687 102.995 157.399 103.469 157.015 103.896C156.642 104.312 156.178 104.648 155.623 104.904C155.069 105.149 154.429 105.272 153.703 105.272ZM153.703 104.2C154.407 104.2 154.999 104.045 155.479 103.736C155.97 103.416 156.343 103 156.599 102.488C156.855 101.965 156.983 101.389 156.983 100.76C156.983 100.12 156.85 99.544 156.583 99.032C156.327 98.5093 155.954 98.0987 155.463 97.8C154.973 97.4907 154.386 97.336 153.703 97.336C153.031 97.336 152.45 97.4907 151.959 97.8C151.469 98.0987 151.09 98.5093 150.823 99.032C150.567 99.544 150.439 100.12 150.439 100.76C150.439 101.389 150.567 101.965 150.823 102.488C151.079 103 151.447 103.416 151.927 103.736C152.418 104.045 153.01 104.2 153.703 104.2ZM163.543 105.24C162.529 105.24 161.756 104.915 161.223 104.264C160.689 103.603 160.423 102.685 160.423 101.512V96.52H161.607V101.752C161.607 102.488 161.799 103.075 162.183 103.512C162.577 103.939 163.121 104.152 163.815 104.152C164.54 104.152 165.116 103.923 165.543 103.464C165.98 103.005 166.199 102.392 166.199 101.624V96.52H167.399V105H166.439V101.464H166.631C166.631 102.253 166.519 102.931 166.295 103.496C166.071 104.051 165.735 104.483 165.287 104.792C164.839 105.091 164.273 105.24 163.591 105.24H163.543ZM173.768 108.312C173.374 108.312 172.974 108.291 172.568 108.248C172.174 108.216 171.795 108.173 171.432 108.12V107.096C171.816 107.149 172.216 107.192 172.632 107.224C173.059 107.267 173.459 107.288 173.832 107.288C174.643 107.288 175.288 107.181 175.768 106.968C176.248 106.755 176.59 106.413 176.792 105.944C177.006 105.485 177.112 104.877 177.112 104.12V102.424L177.56 101.24C177.539 102.051 177.368 102.749 177.048 103.336C176.728 103.912 176.296 104.355 175.752 104.664C175.208 104.973 174.59 105.128 173.896 105.128C173.288 105.128 172.734 105.011 172.232 104.776C171.742 104.541 171.32 104.221 170.968 103.816C170.616 103.4 170.344 102.931 170.152 102.408C169.96 101.885 169.864 101.336 169.864 100.76V100.536C169.864 99.9707 169.96 99.432 170.152 98.92C170.344 98.3973 170.616 97.9387 170.968 97.544C171.32 97.1387 171.747 96.824 172.248 96.6C172.76 96.3653 173.326 96.248 173.944 96.248C174.691 96.248 175.342 96.4133 175.896 96.744C176.451 97.0747 176.883 97.5333 177.192 98.12C177.512 98.7067 177.683 99.3947 177.704 100.184L177.32 99.976V96.536H178.264V104.072C178.264 105.085 178.115 105.901 177.816 106.52C177.518 107.139 177.038 107.592 176.376 107.88C175.726 108.168 174.856 108.312 173.768 108.312ZM174.104 104.024C174.68 104.024 175.192 103.901 175.64 103.656C176.099 103.4 176.462 103.043 176.728 102.584C176.995 102.125 177.128 101.592 177.128 100.984V100.2C177.128 99.6133 176.99 99.1013 176.712 98.664C176.446 98.2267 176.088 97.8853 175.64 97.64C175.192 97.3947 174.68 97.272 174.104 97.272C173.486 97.272 172.947 97.4213 172.488 97.72C172.03 98.0187 171.678 98.424 171.432 98.936C171.187 99.4373 171.064 100.008 171.064 100.648C171.064 101.299 171.187 101.88 171.432 102.392C171.688 102.904 172.046 103.304 172.504 103.592C172.963 103.88 173.496 104.024 174.104 104.024ZM181.271 105V93.32H182.471V99.928L182.119 100.2C182.119 99.4107 182.231 98.7227 182.455 98.136C182.689 97.5493 183.036 97.096 183.495 96.776C183.964 96.4453 184.551 96.28 185.255 96.28H185.319C186.343 96.28 187.116 96.616 187.639 97.288C188.172 97.96 188.439 98.8933 188.439 100.088V105H187.255V99.832C187.255 99.0747 187.047 98.4773 186.631 98.04C186.215 97.6027 185.655 97.384 184.951 97.384C184.193 97.384 183.591 97.6293 183.143 98.12C182.695 98.6 182.471 99.2347 182.471 100.024V105H181.271ZM194.499 105.096C193.912 105.096 193.406 105.011 192.979 104.84C192.552 104.669 192.222 104.381 191.987 103.976C191.752 103.56 191.635 103.005 191.635 102.312V93.864H192.787V102.488C192.787 102.979 192.92 103.357 193.187 103.624C193.454 103.88 193.832 104.008 194.323 104.008H195.843V105.096H194.499ZM190.115 97.448V96.536H195.843V97.448H190.115ZM198.401 105V95.88C198.401 94.9947 198.631 94.3387 199.089 93.912C199.548 93.4853 200.236 93.272 201.153 93.272H202.225V94.296H200.929C200.481 94.296 200.14 94.4133 199.905 94.648C199.671 94.8827 199.553 95.2133 199.553 95.64V105H198.401ZM197.169 97.528V96.6H202.401V97.528H197.169ZM207.089 105.24C206.076 105.24 205.303 104.915 204.769 104.264C204.236 103.603 203.969 102.685 203.969 101.512V96.52H205.153V101.752C205.153 102.488 205.345 103.075 205.729 103.512C206.124 103.939 206.668 104.152 207.361 104.152C208.087 104.152 208.663 103.923 209.089 103.464C209.527 103.005 209.745 102.392 209.745 101.624V96.52H210.945V105H209.985V101.464H210.177C210.177 102.253 210.065 102.931 209.841 103.496C209.617 104.051 209.281 104.483 208.833 104.792C208.385 105.091 207.82 105.24 207.137 105.24H207.089ZM214.163 105V93.32H215.363V105H214.163ZM212.931 94.296V93.32H215.363V94.296H212.931ZM225.68 105.272C225.062 105.272 224.496 105.16 223.984 104.936C223.483 104.701 223.046 104.381 222.672 103.976C222.31 103.56 222.027 103.091 221.824 102.568C221.632 102.035 221.536 101.469 221.536 100.872V100.648C221.536 100.072 221.632 99.5227 221.824 99C222.016 98.4667 222.288 97.9973 222.64 97.592C223.003 97.176 223.435 96.8507 223.936 96.616C224.448 96.3707 225.019 96.248 225.648 96.248C226.363 96.248 226.992 96.4027 227.536 96.712C228.08 97.0213 228.518 97.4693 228.848 98.056C229.179 98.632 229.355 99.3413 229.376 100.184L228.848 99.192V93.32H230.048V105H229.088V101.24H229.472C229.451 102.125 229.264 102.872 228.912 103.48C228.571 104.077 228.118 104.525 227.552 104.824C226.998 105.123 226.374 105.272 225.68 105.272ZM225.84 104.216C226.416 104.216 226.934 104.088 227.392 103.832C227.862 103.576 228.23 103.213 228.496 102.744C228.763 102.264 228.896 101.715 228.896 101.096V100.328C228.896 99.7307 228.763 99.208 228.496 98.76C228.23 98.3013 227.862 97.944 227.392 97.688C226.934 97.432 226.411 97.304 225.824 97.304C225.195 97.304 224.646 97.4587 224.176 97.768C223.718 98.0667 223.36 98.4773 223.104 99C222.859 99.5227 222.736 100.109 222.736 100.76C222.736 101.432 222.864 102.029 223.12 102.552C223.376 103.075 223.739 103.485 224.208 103.784C224.678 104.072 225.222 104.216 225.84 104.216ZM236.682 105.272C235.956 105.272 235.327 105.149 234.794 104.904C234.26 104.648 233.823 104.312 233.482 103.896C233.14 103.469 232.884 102.995 232.714 102.472C232.554 101.949 232.474 101.411 232.474 100.856V100.632C232.474 100.088 232.554 99.5547 232.714 99.032C232.884 98.5093 233.14 98.04 233.482 97.624C233.823 97.208 234.25 96.8773 234.762 96.632C235.284 96.376 235.892 96.248 236.586 96.248C237.471 96.248 238.207 96.4453 238.794 96.84C239.391 97.2347 239.839 97.7413 240.138 98.36C240.436 98.968 240.586 99.624 240.586 100.328V100.952H233.018V100.024H239.754L239.45 100.488C239.45 99.8587 239.338 99.3093 239.114 98.84C238.9 98.36 238.58 97.9867 238.154 97.72C237.738 97.4427 237.215 97.304 236.586 97.304C235.924 97.304 235.375 97.4587 234.938 97.768C234.5 98.0773 234.17 98.488 233.946 99C233.732 99.512 233.626 100.093 233.626 100.744C233.626 101.384 233.732 101.971 233.946 102.504C234.17 103.027 234.506 103.443 234.954 103.752C235.412 104.061 235.988 104.216 236.682 104.216C237.418 104.216 238.015 104.051 238.474 103.72C238.932 103.379 239.215 102.979 239.322 102.52H240.442C240.335 103.085 240.111 103.576 239.77 103.992C239.428 104.397 238.996 104.712 238.474 104.936C237.951 105.16 237.354 105.272 236.682 105.272ZM245.568 105.24C244.48 105.24 243.642 105.005 243.056 104.536C242.469 104.056 242.17 103.416 242.16 102.616H243.28C243.301 103.021 243.482 103.389 243.824 103.72C244.176 104.051 244.757 104.216 245.568 104.216C246.325 104.216 246.89 104.061 247.264 103.752C247.648 103.432 247.84 103.048 247.84 102.6C247.84 102.184 247.68 101.864 247.36 101.64C247.05 101.405 246.597 101.256 246 101.192L245.04 101.096C244.272 101.011 243.648 100.776 243.168 100.392C242.698 99.9973 242.464 99.4587 242.464 98.776C242.464 98.2747 242.592 97.8373 242.848 97.464C243.104 97.0907 243.461 96.8027 243.92 96.6C244.389 96.3867 244.938 96.28 245.568 96.28C246.474 96.28 247.21 96.4933 247.776 96.92C248.352 97.3467 248.645 97.9547 248.656 98.744H247.536C247.525 98.3387 247.354 97.9973 247.024 97.72C246.693 97.4427 246.208 97.304 245.568 97.304C244.906 97.304 244.41 97.448 244.08 97.736C243.76 98.024 243.6 98.376 243.6 98.792C243.6 99.144 243.722 99.4373 243.968 99.672C244.213 99.896 244.597 100.035 245.12 100.088L246.08 100.184C246.933 100.28 247.626 100.525 248.16 100.92C248.704 101.315 248.976 101.88 248.976 102.616C248.976 103.117 248.832 103.571 248.544 103.976C248.266 104.371 247.872 104.68 247.36 104.904C246.848 105.128 246.25 105.24 245.568 105.24ZM254.933 105.272C254.218 105.272 253.594 105.149 253.061 104.904C252.538 104.648 252.101 104.307 251.749 103.88C251.397 103.443 251.13 102.963 250.949 102.44C250.778 101.917 250.693 101.389 250.693 100.856V100.632C250.693 100.088 250.778 99.56 250.949 99.048C251.13 98.5253 251.397 98.056 251.749 97.64C252.101 97.2133 252.538 96.8773 253.061 96.632C253.594 96.376 254.207 96.248 254.901 96.248C255.605 96.248 256.229 96.376 256.773 96.632C257.327 96.888 257.775 97.2507 258.117 97.72C258.458 98.1893 258.661 98.744 258.725 99.384H257.573C257.477 98.7973 257.199 98.312 256.741 97.928C256.293 97.5333 255.679 97.336 254.901 97.336C254.229 97.336 253.669 97.4907 253.221 97.8C252.783 98.0987 252.453 98.5093 252.229 99.032C252.005 99.544 251.893 100.115 251.893 100.744C251.893 101.363 252.005 101.939 252.229 102.472C252.453 102.995 252.789 103.416 253.237 103.736C253.685 104.045 254.25 104.2 254.933 104.2C255.455 104.2 255.909 104.109 256.293 103.928C256.687 103.736 257.002 103.48 257.237 103.16C257.482 102.84 257.626 102.488 257.669 102.104H258.821C258.778 102.744 258.575 103.304 258.213 103.784C257.861 104.253 257.402 104.621 256.837 104.888C256.271 105.144 255.637 105.272 254.933 105.272ZM261.021 105V96.536H261.981V100.072H261.885C261.885 98.8347 262.157 97.9227 262.701 97.336C263.245 96.7387 264.098 96.44 265.261 96.44H265.533V97.528H265.037C264.119 97.528 263.421 97.768 262.941 98.248C262.461 98.7173 262.221 99.4107 262.221 100.328V105H261.021ZM267.922 105V96.536H269.106V105H267.922ZM266.562 97.496V96.536H269.106V97.496H266.562ZM268.178 94.968C267.89 94.968 267.671 94.8933 267.522 94.744C267.383 94.584 267.314 94.3867 267.314 94.152C267.314 93.9173 267.383 93.7253 267.522 93.576C267.671 93.416 267.89 93.336 268.178 93.336C268.466 93.336 268.679 93.416 268.818 93.576C268.957 93.7253 269.026 93.9173 269.026 94.152C269.026 94.3867 268.957 94.584 268.818 94.744C268.679 94.8933 268.466 94.968 268.178 94.968ZM272.255 108.2V96.536H273.215V100.168L272.927 100.2C272.97 99.3467 273.151 98.6267 273.471 98.04C273.802 97.4533 274.244 97.0107 274.799 96.712C275.364 96.4027 275.994 96.248 276.687 96.248C277.306 96.248 277.866 96.3707 278.367 96.616C278.879 96.8507 279.311 97.176 279.663 97.592C280.026 97.9973 280.298 98.4667 280.479 99C280.671 99.5227 280.767 100.072 280.767 100.648V100.872C280.767 101.448 280.671 102.003 280.479 102.536C280.287 103.059 280.01 103.528 279.647 103.944C279.295 104.349 278.863 104.675 278.351 104.92C277.85 105.155 277.284 105.272 276.655 105.272C275.983 105.272 275.364 105.123 274.799 104.824C274.244 104.515 273.791 104.061 273.439 103.464C273.098 102.867 272.911 102.131 272.879 101.256L273.455 102.456V108.2H272.255ZM276.495 104.216C277.135 104.216 277.684 104.067 278.143 103.768C278.602 103.459 278.954 103.043 279.199 102.52C279.444 101.987 279.567 101.4 279.567 100.76C279.567 100.099 279.439 99.512 279.183 99C278.938 98.4773 278.586 98.0667 278.127 97.768C277.668 97.4587 277.124 97.304 276.495 97.304C275.919 97.304 275.396 97.432 274.927 97.688C274.458 97.944 274.084 98.3067 273.807 98.776C273.54 99.2347 273.407 99.7787 273.407 100.408V101.192C273.407 101.789 273.54 102.317 273.807 102.776C274.084 103.224 274.458 103.576 274.927 103.832C275.396 104.088 275.919 104.216 276.495 104.216ZM286.265 105.096C285.678 105.096 285.171 105.011 284.745 104.84C284.318 104.669 283.987 104.381 283.753 103.976C283.518 103.56 283.401 103.005 283.401 102.312V93.864H284.553V102.488C284.553 102.979 284.686 103.357 284.953 103.624C285.219 103.88 285.598 104.008 286.089 104.008H287.609V105.096H286.265ZM281.881 97.448V96.536H287.609V97.448H281.881ZM290.375 105V96.536H291.559V105H290.375ZM289.015 97.496V96.536H291.559V97.496H289.015ZM290.631 94.968C290.343 94.968 290.124 94.8933 289.975 94.744C289.836 94.584 289.767 94.3867 289.767 94.152C289.767 93.9173 289.836 93.7253 289.975 93.576C290.124 93.416 290.343 93.336 290.631 93.336C290.919 93.336 291.132 93.416 291.271 93.576C291.41 93.7253 291.479 93.9173 291.479 94.152C291.479 94.3867 291.41 94.584 291.271 94.744C291.132 94.8933 290.919 94.968 290.631 94.968ZM298.5 105.272C297.775 105.272 297.135 105.149 296.58 104.904C296.036 104.648 295.572 104.312 295.188 103.896C294.815 103.469 294.527 102.995 294.324 102.472C294.132 101.949 294.036 101.416 294.036 100.872V100.648C294.036 100.104 294.138 99.5707 294.34 99.048C294.543 98.5147 294.836 98.04 295.22 97.624C295.604 97.208 296.068 96.8773 296.612 96.632C297.167 96.376 297.796 96.248 298.5 96.248C299.215 96.248 299.844 96.376 300.388 96.632C300.943 96.8773 301.412 97.208 301.796 97.624C302.18 98.04 302.468 98.5147 302.66 99.048C302.863 99.5707 302.964 100.104 302.964 100.648V100.872C302.964 101.416 302.868 101.949 302.676 102.472C302.484 102.995 302.196 103.469 301.812 103.896C301.439 104.312 300.975 104.648 300.42 104.904C299.866 105.149 299.226 105.272 298.5 105.272ZM298.5 104.2C299.204 104.2 299.796 104.045 300.276 103.736C300.767 103.416 301.14 103 301.396 102.488C301.652 101.965 301.78 101.389 301.78 100.76C301.78 100.12 301.647 99.544 301.38 99.032C301.124 98.5093 300.751 98.0987 300.26 97.8C299.77 97.4907 299.183 97.336 298.5 97.336C297.828 97.336 297.247 97.4907 296.756 97.8C296.266 98.0987 295.887 98.5093 295.62 99.032C295.364 99.544 295.236 100.12 295.236 100.76C295.236 101.389 295.364 101.965 295.62 102.488C295.876 103 296.244 103.416 296.724 103.736C297.215 104.045 297.807 104.2 298.5 104.2ZM305.411 105V96.536H306.371V100.088H306.179C306.179 99.2987 306.297 98.6213 306.531 98.056C306.766 97.4907 307.118 97.0533 307.587 96.744C308.057 96.4347 308.649 96.28 309.363 96.28H309.411C310.478 96.28 311.273 96.616 311.795 97.288C312.318 97.9493 312.579 98.8827 312.579 100.088V105H311.395V99.832C311.395 99.096 311.193 98.504 310.787 98.056C310.382 97.608 309.817 97.384 309.091 97.384C308.345 97.384 307.742 97.6187 307.283 98.088C306.835 98.5467 306.611 99.1547 306.611 99.912V105H305.411ZM318.24 105.24C317.152 105.24 316.314 105.005 315.728 104.536C315.141 104.056 314.842 103.416 314.832 102.616H315.952C315.973 103.021 316.154 103.389 316.496 103.72C316.848 104.051 317.429 104.216 318.24 104.216C318.997 104.216 319.562 104.061 319.936 103.752C320.32 103.432 320.512 103.048 320.512 102.6C320.512 102.184 320.352 101.864 320.032 101.64C319.722 101.405 319.269 101.256 318.672 101.192L317.712 101.096C316.944 101.011 316.32 100.776 315.84 100.392C315.37 99.9973 315.136 99.4587 315.136 98.776C315.136 98.2747 315.264 97.8373 315.52 97.464C315.776 97.0907 316.133 96.8027 316.592 96.6C317.061 96.3867 317.61 96.28 318.24 96.28C319.146 96.28 319.882 96.4933 320.448 96.92C321.024 97.3467 321.317 97.9547 321.328 98.744H320.208C320.197 98.3387 320.026 97.9973 319.696 97.72C319.365 97.4427 318.88 97.304 318.24 97.304C317.578 97.304 317.082 97.448 316.752 97.736C316.432 98.024 316.272 98.376 316.272 98.792C316.272 99.144 316.394 99.4373 316.64 99.672C316.885 99.896 317.269 100.035 317.792 100.088L318.752 100.184C319.605 100.28 320.298 100.525 320.832 100.92C321.376 101.315 321.648 101.88 321.648 102.616C321.648 103.117 321.504 103.571 321.216 103.976C320.938 104.371 320.544 104.68 320.032 104.904C319.52 105.128 318.922 105.24 318.24 105.24ZM323.64 105V103.416H325.144V105H323.64Z" fill="#404040"/>
<defs>
<radialGradient id="paint0_radial_193_631" cx="0" cy="0" r="1" gradientUnits="userSpaceOnUse" gradientTransform="translate(106.5 15) rotate(90) scale(15 106.5)">
<stop stop-color="#5A69EA"/>
<stop offset="1" stop-color="#BF8BCA"/>
</radialGradient>
</defs>
</svg>
