<svg width="481" height="56" viewBox="0 0 481 56" fill="none" xmlns="http://www.w3.org/2000/svg">
<g filter="url(#filter0_ddiiii_704_265)">
<rect x="3" y="3" width="475" height="50" rx="20" fill="#D7D7D5"/>
</g>
<path d="M50.5 35.5L46.875 31.875M48.8333 27.1667C48.8333 30.8486 45.8486 33.8333 42.1667 33.8333C38.4848 33.8333 35.5 30.8486 35.5 27.1667C35.5 23.4848 38.4848 20.5 42.1667 20.5C45.8486 20.5 48.8333 23.4848 48.8333 27.1667Z" stroke="#3B719F" stroke-width="2" stroke-linecap="round" stroke-linejoin="round"/>
<path d="M64.528 33L68.832 21.32H71.008L75.456 33H74.208L70.064 22.088L70.72 22.424H69.04L69.728 22.088L65.744 33H64.528ZM66.832 29.288L67.232 28.184H72.656L73.072 29.288H66.832ZM80.1771 33.24C79.0891 33.24 78.2518 33.0053 77.6651 32.536C77.0785 32.056 76.7798 31.416 76.7691 30.616H77.8891C77.9105 31.0213 78.0918 31.3893 78.4331 31.72C78.7851 32.0507 79.3665 32.216 80.1771 32.216C80.9345 32.216 81.4998 32.0613 81.8731 31.752C82.2571 31.432 82.4491 31.048 82.4491 30.6C82.4491 30.184 82.2891 29.864 81.9691 29.64C81.6598 29.4053 81.2065 29.256 80.6091 29.192L79.6491 29.096C78.8811 29.0107 78.2571 28.776 77.7771 28.392C77.3078 27.9973 77.0731 27.4587 77.0731 26.776C77.0731 26.2747 77.2011 25.8373 77.4571 25.464C77.7131 25.0907 78.0705 24.8027 78.5291 24.6C78.9985 24.3867 79.5478 24.28 80.1771 24.28C81.0838 24.28 81.8198 24.4933 82.3851 24.92C82.9611 25.3467 83.2545 25.9547 83.2651 26.744H82.1451C82.1345 26.3387 81.9638 25.9973 81.6331 25.72C81.3025 25.4427 80.8171 25.304 80.1771 25.304C79.5158 25.304 79.0198 25.448 78.6891 25.736C78.3691 26.024 78.2091 26.376 78.2091 26.792C78.2091 27.144 78.3318 27.4373 78.5771 27.672C78.8225 27.896 79.2065 28.0347 79.7291 28.088L80.6891 28.184C81.5425 28.28 82.2358 28.5253 82.7691 28.92C83.3131 29.3147 83.5851 29.88 83.5851 30.616C83.5851 31.1173 83.4411 31.5707 83.1531 31.976C82.8758 32.3707 82.4811 32.68 81.9691 32.904C81.4571 33.128 80.8598 33.24 80.1771 33.24ZM91.7339 33L88.3259 29.032H86.9499L90.9659 24.536H92.2459L88.6459 28.552L88.7259 27.896L93.1419 33H91.7339ZM85.9739 33V21.32H87.1739V33H85.9739ZM102.506 33.272C101.524 33.272 100.698 33.1173 100.026 32.808C99.3535 32.488 98.8415 32.0507 98.4895 31.496C98.1482 30.9307 97.9775 30.296 97.9775 29.592H99.1935C99.1935 30.04 99.3002 30.4613 99.5135 30.856C99.7375 31.24 100.09 31.5547 100.57 31.8C101.06 32.0347 101.706 32.152 102.506 32.152C103.242 32.152 103.85 32.0453 104.33 31.832C104.82 31.6187 105.183 31.3307 105.418 30.968C105.663 30.6053 105.786 30.2 105.786 29.752C105.786 29.1867 105.562 28.7173 105.114 28.344C104.676 27.96 104.015 27.7307 103.13 27.656L101.786 27.528C100.783 27.4427 99.9828 27.1333 99.3855 26.6C98.7988 26.056 98.5055 25.3413 98.5055 24.456C98.5055 23.784 98.6655 23.192 98.9855 22.68C99.3055 22.168 99.7588 21.7627 100.346 21.464C100.943 21.1653 101.658 21.016 102.49 21.016C103.332 21.016 104.052 21.1707 104.65 21.48C105.258 21.7787 105.722 22.1947 106.042 22.728C106.362 23.2613 106.522 23.88 106.522 24.584H105.306C105.306 24.1573 105.209 23.7573 105.017 23.384C104.826 23.0107 104.522 22.712 104.106 22.488C103.69 22.2533 103.151 22.136 102.49 22.136C101.86 22.136 101.338 22.2427 100.922 22.456C100.516 22.6693 100.212 22.952 100.01 23.304C99.8175 23.656 99.7215 24.04 99.7215 24.456C99.7215 24.9787 99.9082 25.4213 100.282 25.784C100.655 26.1467 101.194 26.3547 101.898 26.408L103.242 26.536C104.031 26.6 104.703 26.776 105.258 27.064C105.823 27.3413 106.255 27.7093 106.554 28.168C106.852 28.616 107.002 29.144 107.002 29.752C107.002 30.4347 106.815 31.0427 106.442 31.576C106.079 32.1093 105.562 32.5253 104.89 32.824C104.218 33.1227 103.423 33.272 102.506 33.272ZM109.646 33V24.52H110.606V28.088H110.414C110.414 27.3093 110.52 26.6373 110.734 26.072C110.958 25.5067 111.288 25.0693 111.726 24.76C112.163 24.44 112.718 24.28 113.39 24.28H113.438C114.11 24.28 114.664 24.4347 115.102 24.744C115.539 25.0533 115.864 25.4907 116.078 26.056C116.291 26.6213 116.398 27.2987 116.398 28.088H116.014C116.014 27.3093 116.12 26.6373 116.334 26.072C116.558 25.5067 116.888 25.0693 117.326 24.76C117.774 24.44 118.334 24.28 119.006 24.28H119.054C119.726 24.28 120.28 24.4347 120.718 24.744C121.166 25.0533 121.496 25.4907 121.71 26.056C121.934 26.6213 122.046 27.2987 122.046 28.088V33H120.846V27.816C120.846 27.0693 120.664 26.4773 120.302 26.04C119.939 25.6027 119.416 25.384 118.734 25.384C118.03 25.384 117.47 25.6133 117.054 26.072C116.648 26.52 116.446 27.128 116.446 27.896V33H115.246V27.816C115.246 27.0693 115.064 26.4773 114.702 26.04C114.339 25.6027 113.816 25.384 113.134 25.384C112.43 25.384 111.87 25.6133 111.454 26.072C111.048 26.52 110.846 27.128 110.846 27.896V33H109.646ZM125.484 33V24.536H126.668V33H125.484ZM124.124 25.496V24.536H126.668V25.496H124.124ZM125.74 22.968C125.452 22.968 125.234 22.8933 125.084 22.744C124.946 22.584 124.876 22.3867 124.876 22.152C124.876 21.9173 124.946 21.7253 125.084 21.576C125.234 21.416 125.452 21.336 125.74 21.336C126.028 21.336 126.242 21.416 126.38 21.576C126.519 21.7253 126.588 21.9173 126.588 22.152C126.588 22.3867 126.519 22.584 126.38 22.744C126.242 22.8933 126.028 22.968 125.74 22.968ZM132.89 33.096C132.303 33.096 131.796 33.0107 131.37 32.84C130.943 32.6693 130.612 32.3813 130.378 31.976C130.143 31.56 130.026 31.0053 130.026 30.312V21.864H131.178V30.488C131.178 30.9787 131.311 31.3573 131.578 31.624C131.844 31.88 132.223 32.008 132.714 32.008H134.234V33.096H132.89ZM128.506 25.448V24.536H134.234V25.448H128.506ZM136.552 33V21.32H137.752V27.928L137.4 28.2C137.4 27.4107 137.512 26.7227 137.736 26.136C137.971 25.5493 138.317 25.096 138.776 24.776C139.245 24.4453 139.832 24.28 140.536 24.28H140.6C141.624 24.28 142.397 24.616 142.92 25.288C143.453 25.96 143.72 26.8933 143.72 28.088V33H142.536V27.832C142.536 27.0747 142.328 26.4773 141.912 26.04C141.496 25.6027 140.936 25.384 140.232 25.384C139.475 25.384 138.872 25.6293 138.424 26.12C137.976 26.6 137.752 27.2347 137.752 28.024V33H136.552ZM155.595 33V30.456H155.403V27.448C155.403 26.8187 155.237 26.3387 154.907 26.008C154.576 25.6667 154.064 25.496 153.371 25.496C153.051 25.496 152.725 25.5013 152.395 25.512C152.075 25.5227 151.765 25.5387 151.467 25.56C151.179 25.5707 150.923 25.5867 150.699 25.608V24.552C150.933 24.5307 151.173 24.5093 151.419 24.488C151.664 24.4667 151.915 24.456 152.171 24.456C152.437 24.4453 152.693 24.44 152.939 24.44C153.803 24.44 154.496 24.5467 155.019 24.76C155.552 24.9733 155.941 25.3093 156.187 25.768C156.432 26.216 156.555 26.8133 156.555 27.56V33H155.595ZM152.731 33.224C152.133 33.224 151.605 33.1173 151.147 32.904C150.688 32.6907 150.331 32.3813 150.075 31.976C149.829 31.5707 149.707 31.08 149.707 30.504C149.707 29.9387 149.835 29.4587 150.091 29.064C150.357 28.6693 150.736 28.3707 151.227 28.168C151.728 27.9547 152.331 27.848 153.035 27.848H155.515V28.76H152.955C152.283 28.76 151.765 28.9253 151.403 29.256C151.051 29.576 150.875 29.9973 150.875 30.52C150.875 31.0533 151.061 31.48 151.435 31.8C151.808 32.1093 152.315 32.264 152.955 32.264C153.349 32.264 153.728 32.1947 154.091 32.056C154.453 31.9067 154.757 31.6613 155.003 31.32C155.248 30.968 155.381 30.488 155.403 29.88L155.755 30.376C155.712 31.0053 155.563 31.5333 155.307 31.96C155.051 32.376 154.704 32.6907 154.267 32.904C153.829 33.1173 153.317 33.224 152.731 33.224ZM163.92 33.272C163.173 33.272 162.517 33.1067 161.952 32.776C161.397 32.4453 160.96 31.9813 160.64 31.384C160.331 30.7867 160.165 30.0987 160.144 29.32H160.512V33H159.552V21.32H160.752V27.16L160.288 28.232C160.309 27.3787 160.48 26.6587 160.8 26.072C161.131 25.4747 161.568 25.0213 162.112 24.712C162.667 24.4027 163.296 24.248 164 24.248C164.619 24.248 165.179 24.3653 165.68 24.6C166.181 24.8347 166.608 25.1547 166.96 25.56C167.323 25.9653 167.595 26.4347 167.776 26.968C167.968 27.4907 168.064 28.0453 168.064 28.632V28.856C168.064 29.432 167.968 29.9867 167.776 30.52C167.584 31.0427 167.307 31.512 166.944 31.928C166.592 32.344 166.16 32.6747 165.648 32.92C165.136 33.1547 164.56 33.272 163.92 33.272ZM163.792 32.216C164.432 32.216 164.981 32.0613 165.44 31.752C165.899 31.4427 166.251 31.0267 166.496 30.504C166.741 29.9813 166.864 29.3947 166.864 28.744C166.864 28.0827 166.736 27.496 166.48 26.984C166.235 26.4613 165.877 26.0507 165.408 25.752C164.949 25.4533 164.411 25.304 163.792 25.304C163.216 25.304 162.693 25.432 162.224 25.688C161.755 25.944 161.381 26.3067 161.104 26.776C160.837 27.2347 160.704 27.7787 160.704 28.408V29.192C160.704 29.7893 160.837 30.3173 161.104 30.776C161.381 31.224 161.755 31.576 162.224 31.832C162.693 32.088 163.216 32.216 163.792 32.216ZM174.282 33.272C173.556 33.272 172.916 33.1493 172.362 32.904C171.818 32.648 171.354 32.312 170.97 31.896C170.596 31.4693 170.308 30.9947 170.106 30.472C169.914 29.9493 169.818 29.416 169.818 28.872V28.648C169.818 28.104 169.919 27.5707 170.122 27.048C170.324 26.5147 170.618 26.04 171.002 25.624C171.386 25.208 171.85 24.8773 172.394 24.632C172.948 24.376 173.578 24.248 174.282 24.248C174.996 24.248 175.626 24.376 176.17 24.632C176.724 24.8773 177.194 25.208 177.578 25.624C177.962 26.04 178.25 26.5147 178.442 27.048C178.644 27.5707 178.746 28.104 178.746 28.648V28.872C178.746 29.416 178.65 29.9493 178.458 30.472C178.266 30.9947 177.978 31.4693 177.594 31.896C177.22 32.312 176.756 32.648 176.202 32.904C175.647 33.1493 175.007 33.272 174.282 33.272ZM174.282 32.2C174.986 32.2 175.578 32.0453 176.058 31.736C176.548 31.416 176.922 31 177.178 30.488C177.434 29.9653 177.562 29.3893 177.562 28.76C177.562 28.12 177.428 27.544 177.161 27.032C176.906 26.5093 176.532 26.0987 176.042 25.8C175.551 25.4907 174.964 25.336 174.282 25.336C173.61 25.336 173.028 25.4907 172.538 25.8C172.047 26.0987 171.668 26.5093 171.402 27.032C171.146 27.544 171.018 28.12 171.018 28.76C171.018 29.3893 171.146 29.9653 171.402 30.488C171.658 31 172.026 31.416 172.506 31.736C172.996 32.0453 173.588 32.2 174.282 32.2ZM184.121 33.24C183.107 33.24 182.334 32.9147 181.801 32.264C181.267 31.6027 181.001 30.6853 181.001 29.512V24.52H182.185V29.752C182.185 30.488 182.377 31.0747 182.761 31.512C183.155 31.9387 183.699 32.152 184.393 32.152C185.118 32.152 185.694 31.9227 186.121 31.464C186.558 31.0053 186.777 30.392 186.777 29.624V24.52H187.977V33H187.017V29.464H187.209C187.209 30.2533 187.097 30.9307 186.873 31.496C186.649 32.0507 186.313 32.4827 185.865 32.792C185.417 33.0907 184.851 33.24 184.169 33.24H184.121ZM194.187 33.096C193.6 33.096 193.093 33.0107 192.667 32.84C192.24 32.6693 191.909 32.3813 191.674 31.976C191.44 31.56 191.323 31.0053 191.323 30.312V21.864H192.475V30.488C192.475 30.9787 192.608 31.3573 192.875 31.624C193.141 31.88 193.52 32.008 194.011 32.008H195.531V33.096H194.187ZM189.803 25.448V24.536H195.531V25.448H189.803ZM200.831 36.296V35.224H201.919C202.293 35.224 202.613 35.176 202.879 35.08C203.146 34.9947 203.37 34.84 203.551 34.616C203.733 34.392 203.887 34.0827 204.015 33.688L206.863 24.536H208.031L205.055 34.024C204.885 34.568 204.65 35.0053 204.351 35.336C204.053 35.6773 203.695 35.9227 203.279 36.072C202.863 36.2213 202.389 36.296 201.855 36.296H200.831ZM203.583 32.792V31.784H205.103V32.792H203.583ZM203.439 32.792L200.367 24.536H201.599L204.559 32.792H203.439ZM213.782 33.272C213.056 33.272 212.416 33.1493 211.862 32.904C211.318 32.648 210.854 32.312 210.47 31.896C210.096 31.4693 209.808 30.9947 209.606 30.472C209.414 29.9493 209.318 29.416 209.318 28.872V28.648C209.318 28.104 209.419 27.5707 209.622 27.048C209.824 26.5147 210.118 26.04 210.502 25.624C210.886 25.208 211.35 24.8773 211.894 24.632C212.448 24.376 213.078 24.248 213.782 24.248C214.496 24.248 215.126 24.376 215.67 24.632C216.224 24.8773 216.694 25.208 217.078 25.624C217.462 26.04 217.75 26.5147 217.942 27.048C218.144 27.5707 218.246 28.104 218.246 28.648V28.872C218.246 29.416 218.15 29.9493 217.958 30.472C217.766 30.9947 217.478 31.4693 217.094 31.896C216.72 32.312 216.256 32.648 215.702 32.904C215.147 33.1493 214.507 33.272 213.782 33.272ZM213.782 32.2C214.486 32.2 215.078 32.0453 215.558 31.736C216.048 31.416 216.422 31 216.678 30.488C216.934 29.9653 217.062 29.3893 217.062 28.76C217.062 28.12 216.928 27.544 216.661 27.032C216.406 26.5093 216.032 26.0987 215.542 25.8C215.051 25.4907 214.464 25.336 213.782 25.336C213.11 25.336 212.528 25.4907 212.038 25.8C211.547 26.0987 211.168 26.5093 210.902 27.032C210.646 27.544 210.518 28.12 210.518 28.76C210.518 29.3893 210.646 29.9653 210.902 30.488C211.158 31 211.526 31.416 212.006 31.736C212.496 32.0453 213.088 32.2 213.782 32.2ZM223.621 33.24C222.607 33.24 221.834 32.9147 221.301 32.264C220.767 31.6027 220.501 30.6853 220.501 29.512V24.52H221.685V29.752C221.685 30.488 221.877 31.0747 222.261 31.512C222.655 31.9387 223.199 32.152 223.893 32.152C224.618 32.152 225.194 31.9227 225.621 31.464C226.058 31.0053 226.277 30.392 226.277 29.624V24.52H227.477V33H226.517V29.464H226.709C226.709 30.2533 226.597 30.9307 226.373 31.496C226.149 32.0507 225.813 32.4827 225.365 32.792C224.917 33.0907 224.351 33.24 223.669 33.24H223.621ZM230.615 33V24.536H231.575V28.072H231.479C231.479 26.8347 231.751 25.9227 232.295 25.336C232.839 24.7387 233.692 24.44 234.855 24.44H235.127V25.528H234.631C233.713 25.528 233.015 25.768 232.535 26.248C232.055 26.7173 231.815 27.4107 231.815 28.328V33H230.615ZM247.442 36.2V30.456L247.954 29.256C247.933 30.12 247.757 30.8507 247.426 31.448C247.095 32.0453 246.653 32.4987 246.098 32.808C245.554 33.1173 244.935 33.272 244.242 33.272C243.623 33.272 243.058 33.1547 242.546 32.92C242.045 32.6853 241.613 32.36 241.25 31.944C240.898 31.528 240.621 31.0533 240.418 30.52C240.226 29.9867 240.13 29.4267 240.13 28.84V28.616C240.13 28.0293 240.226 27.48 240.418 26.968C240.61 26.4453 240.887 25.9813 241.25 25.576C241.613 25.16 242.045 24.8347 242.546 24.6C243.058 24.3653 243.634 24.248 244.274 24.248C245.031 24.248 245.687 24.4187 246.242 24.76C246.807 25.0907 247.245 25.5493 247.554 26.136C247.874 26.7227 248.045 27.4107 248.066 28.2L247.682 28.104V24.536H248.642V36.2H247.442ZM244.434 32.184C245.01 32.184 245.527 32.056 245.986 31.8C246.455 31.5333 246.823 31.1653 247.09 30.696C247.357 30.2267 247.49 29.6827 247.49 29.064V28.28C247.49 27.6827 247.357 27.16 247.09 26.712C246.823 26.2533 246.455 25.9013 245.986 25.656C245.527 25.4 245.01 25.272 244.434 25.272C243.794 25.272 243.239 25.4267 242.77 25.736C242.311 26.0347 241.954 26.4453 241.698 26.968C241.453 27.4907 241.33 28.0773 241.33 28.728C241.33 29.3893 241.458 29.9813 241.714 30.504C241.97 31.0267 242.333 31.4373 242.802 31.736C243.271 32.0347 243.815 32.184 244.434 32.184ZM254.668 33.24C253.654 33.24 252.881 32.9147 252.348 32.264C251.814 31.6027 251.548 30.6853 251.548 29.512V24.52H252.732V29.752C252.732 30.488 252.924 31.0747 253.308 31.512C253.702 31.9387 254.246 32.152 254.94 32.152C255.665 32.152 256.241 31.9227 256.668 31.464C257.105 31.0053 257.324 30.392 257.324 29.624V24.52H258.524V33H257.564V29.464H257.756C257.756 30.2533 257.644 30.9307 257.42 31.496C257.196 32.0507 256.86 32.4827 256.412 32.792C255.964 33.0907 255.398 33.24 254.716 33.24H254.668ZM265.197 33.272C264.472 33.272 263.843 33.1493 263.309 32.904C262.776 32.648 262.339 32.312 261.997 31.896C261.656 31.4693 261.4 30.9947 261.229 30.472C261.069 29.9493 260.989 29.4107 260.989 28.856V28.632C260.989 28.088 261.069 27.5547 261.229 27.032C261.4 26.5093 261.656 26.04 261.997 25.624C262.339 25.208 262.765 24.8773 263.277 24.632C263.8 24.376 264.408 24.248 265.101 24.248C265.987 24.248 266.723 24.4453 267.309 24.84C267.907 25.2347 268.355 25.7413 268.653 26.36C268.952 26.968 269.101 27.624 269.101 28.328V28.952H261.533V28.024H268.269L267.965 28.488C267.965 27.8587 267.853 27.3093 267.629 26.84C267.416 26.36 267.096 25.9867 266.669 25.72C266.253 25.4427 265.731 25.304 265.101 25.304C264.44 25.304 263.891 25.4587 263.453 25.768C263.016 26.0773 262.685 26.488 262.461 27C262.248 27.512 262.141 28.0933 262.141 28.744C262.141 29.384 262.248 29.9707 262.461 30.504C262.685 31.0267 263.021 31.4427 263.469 31.752C263.928 32.0613 264.504 32.216 265.197 32.216C265.933 32.216 266.531 32.0507 266.989 31.72C267.448 31.3787 267.731 30.9787 267.837 30.52H268.957C268.851 31.0853 268.627 31.576 268.285 31.992C267.944 32.3973 267.512 32.712 266.989 32.936C266.467 33.16 265.869 33.272 265.197 33.272ZM271.411 33V24.536H272.371V28.072H272.275C272.275 26.8347 272.547 25.9227 273.091 25.336C273.635 24.7387 274.489 24.44 275.651 24.44H275.923V25.528H275.427C274.51 25.528 273.811 25.768 273.331 26.248C272.851 26.7173 272.611 27.4107 272.611 28.328V33H271.411ZM277.394 36.296V35.224H278.482C278.855 35.224 279.175 35.176 279.442 35.08C279.708 34.9947 279.932 34.84 280.114 34.616C280.295 34.392 280.45 34.0827 280.578 33.688L283.426 24.536H284.594L281.618 34.024C281.447 34.568 281.212 35.0053 280.914 35.336C280.615 35.6773 280.258 35.9227 279.842 36.072C279.426 36.2213 278.951 36.296 278.418 36.296H277.394ZM280.146 32.792V31.784H281.666V32.792H280.146ZM280.002 32.792L276.93 24.536H278.162L281.122 32.792H280.002Z" fill="url(#paint0_radial_704_265)"/>
<defs>
<filter id="filter0_ddiiii_704_265" x="0" y="0" width="481" height="56" filterUnits="userSpaceOnUse" color-interpolation-filters="sRGB">
<feFlood flood-opacity="0" result="BackgroundImageFix"/>
<feColorMatrix in="SourceAlpha" type="matrix" values="0 0 0 0 0 0 0 0 0 0 0 0 0 0 0 0 0 0 127 0" result="hardAlpha"/>
<feOffset dx="-1" dy="-1"/>
<feGaussianBlur stdDeviation="1"/>
<feColorMatrix type="matrix" values="0 0 0 0 0.717647 0 0 0 0 0.717647 0 0 0 0 0.709804 0 0 0 0.5 0"/>
<feBlend mode="normal" in2="BackgroundImageFix" result="effect1_dropShadow_704_265"/>
<feColorMatrix in="SourceAlpha" type="matrix" values="0 0 0 0 0 0 0 0 0 0 0 0 0 0 0 0 0 0 127 0" result="hardAlpha"/>
<feOffset dx="1" dy="1"/>
<feGaussianBlur stdDeviation="1"/>
<feColorMatrix type="matrix" values="0 0 0 0 0.968627 0 0 0 0 0.968627 0 0 0 0 0.960784 0 0 0 0.3 0"/>
<feBlend mode="normal" in2="effect1_dropShadow_704_265" result="effect2_dropShadow_704_265"/>
<feBlend mode="normal" in="SourceGraphic" in2="effect2_dropShadow_704_265" result="shape"/>
<feColorMatrix in="SourceAlpha" type="matrix" values="0 0 0 0 0 0 0 0 0 0 0 0 0 0 0 0 0 0 127 0" result="hardAlpha"/>
<feOffset dx="2" dy="2"/>
<feGaussianBlur stdDeviation="2.5"/>
<feComposite in2="hardAlpha" operator="arithmetic" k2="-1" k3="1"/>
<feColorMatrix type="matrix" values="0 0 0 0 0.717647 0 0 0 0 0.717647 0 0 0 0 0.709804 0 0 0 0.9 0"/>
<feBlend mode="normal" in2="shape" result="effect3_innerShadow_704_265"/>
<feColorMatrix in="SourceAlpha" type="matrix" values="0 0 0 0 0 0 0 0 0 0 0 0 0 0 0 0 0 0 127 0" result="hardAlpha"/>
<feOffset dx="-2" dy="-2"/>
<feGaussianBlur stdDeviation="2"/>
<feComposite in2="hardAlpha" operator="arithmetic" k2="-1" k3="1"/>
<feColorMatrix type="matrix" values="0 0 0 0 0.968627 0 0 0 0 0.968627 0 0 0 0 0.960784 0 0 0 0.9 0"/>
<feBlend mode="normal" in2="effect3_innerShadow_704_265" result="effect4_innerShadow_704_265"/>
<feColorMatrix in="SourceAlpha" type="matrix" values="0 0 0 0 0 0 0 0 0 0 0 0 0 0 0 0 0 0 127 0" result="hardAlpha"/>
<feOffset dx="2" dy="-2"/>
<feGaussianBlur stdDeviation="2"/>
<feComposite in2="hardAlpha" operator="arithmetic" k2="-1" k3="1"/>
<feColorMatrix type="matrix" values="0 0 0 0 0.717647 0 0 0 0 0.717647 0 0 0 0 0.709804 0 0 0 0.2 0"/>
<feBlend mode="normal" in2="effect4_innerShadow_704_265" result="effect5_innerShadow_704_265"/>
<feColorMatrix in="SourceAlpha" type="matrix" values="0 0 0 0 0 0 0 0 0 0 0 0 0 0 0 0 0 0 127 0" result="hardAlpha"/>
<feOffset dx="-2" dy="2"/>
<feGaussianBlur stdDeviation="2"/>
<feComposite in2="hardAlpha" operator="arithmetic" k2="-1" k3="1"/>
<feColorMatrix type="matrix" values="0 0 0 0 0.717647 0 0 0 0 0.717647 0 0 0 0 0.709804 0 0 0 0.2 0"/>
<feBlend mode="normal" in2="effect5_innerShadow_704_265" result="effect6_innerShadow_704_265"/>
</filter>
<radialGradient id="paint0_radial_704_265" cx="0" cy="0" r="1" gradientUnits="userSpaceOnUse" gradientTransform="translate(175 28) rotate(90) scale(10 111)">
<stop stop-color="#5A69EA"/>
<stop offset="1" stop-color="#BF8BCA"/>
</radialGradient>
</defs>
</svg>
