<svg width="299" height="65" viewBox="0 0 299 65" fill="none" xmlns="http://www.w3.org/2000/svg">
<rect x="1" y="1" width="297" height="63" rx="19" stroke="#404040" stroke-width="2"/>
<path d="M26.96 39.34C25.7333 39.34 24.7 39.1467 23.86 38.76C23.02 38.36 22.38 37.8133 21.94 37.12C21.5133 36.4133 21.3 35.62 21.3 34.74H22.82C22.82 35.3 22.9533 35.8267 23.22 36.32C23.5 36.8 23.94 37.1933 24.54 37.5C25.1533 37.7933 25.96 37.94 26.96 37.94C27.88 37.94 28.64 37.8067 29.24 37.54C29.8533 37.2733 30.3067 36.9133 30.6 36.46C30.9067 36.0067 31.06 35.5 31.06 34.94C31.06 34.2333 30.78 33.6467 30.22 33.18C29.6733 32.7 28.8467 32.4133 27.74 32.32L26.06 32.16C24.8067 32.0533 23.8067 31.6667 23.06 31C22.3267 30.32 21.96 29.4267 21.96 28.32C21.96 27.48 22.16 26.74 22.56 26.1C22.96 25.46 23.5267 24.9533 24.26 24.58C25.0067 24.2067 25.9 24.02 26.94 24.02C27.9933 24.02 28.8933 24.2133 29.64 24.6C30.4 24.9733 30.98 25.4933 31.38 26.16C31.78 26.8267 31.98 27.6 31.98 28.48H30.46C30.46 27.9467 30.34 27.4467 30.1 26.98C29.86 26.5133 29.48 26.14 28.96 25.86C28.44 25.5667 27.7667 25.42 26.94 25.42C26.1533 25.42 25.5 25.5533 24.98 25.82C24.4733 26.0867 24.0933 26.44 23.84 26.88C23.6 27.32 23.48 27.8 23.48 28.32C23.48 28.9733 23.7133 29.5267 24.18 29.98C24.6467 30.4333 25.32 30.6933 26.2 30.76L27.88 30.92C28.8667 31 29.7067 31.22 30.4 31.58C31.1067 31.9267 31.6467 32.3867 32.02 32.96C32.3933 33.52 32.58 34.18 32.58 34.94C32.58 35.7933 32.3467 36.5533 31.88 37.22C31.4267 37.8867 30.78 38.4067 29.94 38.78C29.1 39.1533 28.1067 39.34 26.96 39.34ZM40.3453 39.34C39.452 39.34 38.672 39.1867 38.0053 38.88C37.352 38.56 36.8053 38.1333 36.3653 37.6C35.9253 37.0533 35.592 36.4533 35.3653 35.8C35.152 35.1467 35.0453 34.4867 35.0453 33.82V33.54C35.0453 32.86 35.152 32.2 35.3653 31.56C35.592 30.9067 35.9253 30.32 36.3653 29.8C36.8053 29.2667 37.352 28.8467 38.0053 28.54C38.672 28.22 39.4386 28.06 40.3053 28.06C41.1853 28.06 41.9653 28.22 42.6453 28.54C43.3386 28.86 43.8986 29.3133 44.3253 29.9C44.752 30.4867 45.0053 31.18 45.0853 31.98H43.6453C43.5253 31.2467 43.1786 30.64 42.6053 30.16C42.0453 29.6667 41.2786 29.42 40.3053 29.42C39.4653 29.42 38.7653 29.6133 38.2053 30C37.6586 30.3733 37.2453 30.8867 36.9653 31.54C36.6853 32.18 36.5453 32.8933 36.5453 33.68C36.5453 34.4533 36.6853 35.1733 36.9653 35.84C37.2453 36.4933 37.6653 37.02 38.2253 37.42C38.7853 37.8067 39.492 38 40.3453 38C40.9986 38 41.5653 37.8867 42.0453 37.66C42.5386 37.42 42.932 37.1 43.2253 36.7C43.532 36.3 43.712 35.86 43.7653 35.38H45.2053C45.152 36.18 44.8986 36.88 44.4453 37.48C44.0053 38.0667 43.432 38.5267 42.7253 38.86C42.0186 39.18 41.2253 39.34 40.3453 39.34ZM47.9556 39V28.42H49.1556V32.84H49.0356C49.0356 31.2933 49.3756 30.1533 50.0556 29.42C50.7356 28.6733 51.8023 28.3 53.2556 28.3H53.5956V29.66H52.9756C51.829 29.66 50.9556 29.96 50.3556 30.56C49.7556 31.1467 49.4556 32.0133 49.4556 33.16V39H47.9556ZM60.6253 39.34C59.7186 39.34 58.9186 39.1867 58.2253 38.88C57.5453 38.56 56.9653 38.14 56.4853 37.62C56.0186 37.0867 55.6586 36.4933 55.4053 35.84C55.1653 35.1867 55.0453 34.52 55.0453 33.84V33.56C55.0453 32.88 55.172 32.2133 55.4253 31.56C55.6786 30.8933 56.0453 30.3 56.5253 29.78C57.0053 29.26 57.5853 28.8467 58.2653 28.54C58.9586 28.22 59.7453 28.06 60.6253 28.06C61.5186 28.06 62.3053 28.22 62.9853 28.54C63.6786 28.8467 64.2653 29.26 64.7453 29.78C65.2253 30.3 65.5853 30.8933 65.8253 31.56C66.0786 32.2133 66.2053 32.88 66.2053 33.56V33.84C66.2053 34.52 66.0853 35.1867 65.8453 35.84C65.6053 36.4933 65.2453 37.0867 64.7653 37.62C64.2986 38.14 63.7186 38.56 63.0253 38.88C62.332 39.1867 61.532 39.34 60.6253 39.34ZM60.6253 38C61.5053 38 62.2453 37.8067 62.8453 37.42C63.4586 37.02 63.9253 36.5 64.2453 35.86C64.5653 35.2067 64.7253 34.4867 64.7253 33.7C64.7253 32.9 64.5586 32.18 64.2253 31.54C63.9053 30.8867 63.4386 30.3733 62.8253 30C62.212 29.6133 61.4786 29.42 60.6253 29.42C59.7853 29.42 59.0586 29.6133 58.4453 30C57.832 30.3733 57.3586 30.8867 57.0253 31.54C56.7053 32.18 56.5453 32.9 56.5453 33.7C56.5453 34.4867 56.7053 35.2067 57.0253 35.86C57.3453 36.5 57.8053 37.02 58.4053 37.42C59.0186 37.8067 59.7586 38 60.6253 38ZM69.3642 39V24.4H70.8642V39H69.3642ZM67.8242 25.62V24.4H70.8642V25.62H67.8242ZM74.8525 39V24.4H76.3525V39H74.8525ZM73.3125 25.62V24.4H76.3525V25.62H73.3125ZM89.2488 39.34C88.4754 39.34 87.7688 39.2 87.1288 38.92C86.5021 38.6267 85.9554 38.2267 85.4888 37.72C85.0354 37.2 84.6821 36.6133 84.4288 35.96C84.1888 35.2933 84.0688 34.5867 84.0688 33.84V33.56C84.0688 32.84 84.1888 32.1533 84.4288 31.5C84.6688 30.8333 85.0088 30.2467 85.4488 29.74C85.9021 29.22 86.4421 28.8133 87.0688 28.52C87.7088 28.2133 88.4221 28.06 89.2088 28.06C90.1021 28.06 90.8888 28.2533 91.5688 28.64C92.2488 29.0267 92.7954 29.5867 93.2088 30.32C93.6221 31.04 93.8421 31.9267 93.8688 32.98L93.2088 31.74V24.4H94.7088V39H93.5088V34.3H93.9887C93.9621 35.4067 93.7288 36.34 93.2888 37.1C92.8621 37.8467 92.2954 38.4067 91.5888 38.78C90.8954 39.1533 90.1154 39.34 89.2488 39.34ZM89.4488 38.02C90.1688 38.02 90.8154 37.86 91.3888 37.54C91.9754 37.22 92.4354 36.7667 92.7688 36.18C93.1021 35.58 93.2688 34.8933 93.2688 34.12V33.16C93.2688 32.4133 93.1021 31.76 92.7688 31.2C92.4354 30.6267 91.9754 30.18 91.3888 29.86C90.8154 29.54 90.1621 29.38 89.4288 29.38C88.6421 29.38 87.9554 29.5733 87.3688 29.96C86.7954 30.3333 86.3488 30.8467 86.0288 31.5C85.7221 32.1533 85.5688 32.8867 85.5688 33.7C85.5688 34.54 85.7288 35.2867 86.0488 35.94C86.3688 36.5933 86.8221 37.1067 87.4088 37.48C87.9954 37.84 88.6754 38.02 89.4488 38.02ZM103.321 39.34C102.414 39.34 101.614 39.1867 100.921 38.88C100.241 38.56 99.6606 38.14 99.1806 37.62C98.714 37.0867 98.354 36.4933 98.1006 35.84C97.8606 35.1867 97.7406 34.52 97.7406 33.84V33.56C97.7406 32.88 97.8673 32.2133 98.1206 31.56C98.374 30.8933 98.7406 30.3 99.2206 29.78C99.7006 29.26 100.281 28.8467 100.961 28.54C101.654 28.22 102.441 28.06 103.321 28.06C104.214 28.06 105.001 28.22 105.681 28.54C106.374 28.8467 106.961 29.26 107.441 29.78C107.921 30.3 108.281 30.8933 108.521 31.56C108.774 32.2133 108.901 32.88 108.901 33.56V33.84C108.901 34.52 108.781 35.1867 108.541 35.84C108.301 36.4933 107.941 37.0867 107.461 37.62C106.994 38.14 106.414 38.56 105.721 38.88C105.027 39.1867 104.227 39.34 103.321 39.34ZM103.321 38C104.201 38 104.941 37.8067 105.541 37.42C106.154 37.02 106.621 36.5 106.941 35.86C107.261 35.2067 107.421 34.4867 107.421 33.7C107.421 32.9 107.254 32.18 106.921 31.54C106.601 30.8867 106.134 30.3733 105.521 30C104.907 29.6133 104.174 29.42 103.321 29.42C102.481 29.42 101.754 29.6133 101.141 30C100.527 30.3733 100.054 30.8867 99.7206 31.54C99.4006 32.18 99.2406 32.9 99.2406 33.7C99.2406 34.4867 99.4006 35.2067 99.7206 35.86C100.041 36.5 100.501 37.02 101.101 37.42C101.714 37.8067 102.454 38 103.321 38ZM114.744 39L117.004 28.76H119.104L121.724 39H120.424L117.804 28.82H118.284L116.004 39H114.744ZM113.884 39V37.78H115.704V39H113.884ZM113.524 39L110.464 28.42H111.904L114.924 39H113.524ZM120.764 39V37.78H122.544V39H120.764ZM121.544 39L124.184 28.42H125.564L122.864 39H121.544ZM128.327 39V28.42H129.527V32.86H129.287C129.287 31.8733 129.433 31.0267 129.727 30.32C130.02 29.6133 130.46 29.0667 131.047 28.68C131.633 28.2933 132.373 28.1 133.267 28.1H133.327C134.66 28.1 135.653 28.52 136.307 29.36C136.96 30.1867 137.287 31.3533 137.287 32.86V39H135.807V32.54C135.807 31.62 135.553 30.88 135.047 30.32C134.54 29.76 133.833 29.48 132.927 29.48C131.993 29.48 131.24 29.7733 130.667 30.36C130.107 30.9333 129.827 31.6933 129.827 32.64V39H128.327ZM145.99 39V27.6C145.99 26.4933 146.277 25.6733 146.85 25.14C147.423 24.6067 148.283 24.34 149.43 24.34H150.77V25.62H149.15C148.59 25.62 148.163 25.7667 147.87 26.06C147.577 26.3533 147.43 26.7667 147.43 27.3V39H145.99ZM144.45 29.66V28.5H150.99V29.66H144.45ZM157.832 39.34C156.926 39.34 156.126 39.1867 155.432 38.88C154.752 38.56 154.172 38.14 153.692 37.62C153.226 37.0867 152.866 36.4933 152.612 35.84C152.372 35.1867 152.252 34.52 152.252 33.84V33.56C152.252 32.88 152.379 32.2133 152.632 31.56C152.886 30.8933 153.252 30.3 153.732 29.78C154.212 29.26 154.792 28.8467 155.472 28.54C156.166 28.22 156.952 28.06 157.832 28.06C158.726 28.06 159.512 28.22 160.192 28.54C160.886 28.8467 161.472 29.26 161.952 29.78C162.432 30.3 162.792 30.8933 163.032 31.56C163.286 32.2133 163.412 32.88 163.412 33.56V33.84C163.412 34.52 163.292 35.1867 163.052 35.84C162.812 36.4933 162.452 37.0867 161.972 37.62C161.506 38.14 160.926 38.56 160.232 38.88C159.539 39.1867 158.739 39.34 157.832 39.34ZM157.832 38C158.712 38 159.452 37.8067 160.052 37.42C160.666 37.02 161.132 36.5 161.452 35.86C161.772 35.2067 161.932 34.4867 161.932 33.7C161.932 32.9 161.766 32.18 161.432 31.54C161.112 30.8867 160.646 30.3733 160.032 30C159.419 29.6133 158.686 29.42 157.832 29.42C156.992 29.42 156.266 29.6133 155.652 30C155.039 30.3733 154.566 30.8867 154.232 31.54C153.912 32.18 153.752 32.9 153.752 33.7C153.752 34.4867 153.912 35.2067 154.232 35.86C154.552 36.5 155.012 37.02 155.612 37.42C156.226 37.8067 156.966 38 157.832 38ZM166.471 39V28.42H167.671V32.84H167.551C167.551 31.2933 167.891 30.1533 168.571 29.42C169.251 28.6733 170.318 28.3 171.771 28.3H172.111V29.66H171.491C170.345 29.66 169.471 29.96 168.871 30.56C168.271 31.1467 167.971 32.0133 167.971 33.16V39H166.471ZM183.546 39.34C182.772 39.34 182.066 39.2 181.426 38.92C180.799 38.6267 180.252 38.2267 179.786 37.72C179.332 37.2 178.979 36.6133 178.726 35.96C178.486 35.2933 178.366 34.5867 178.366 33.84V33.56C178.366 32.84 178.486 32.1533 178.726 31.5C178.966 30.8333 179.306 30.2467 179.746 29.74C180.199 29.22 180.739 28.8133 181.366 28.52C182.006 28.2133 182.719 28.06 183.506 28.06C184.399 28.06 185.186 28.2533 185.866 28.64C186.546 29.0267 187.092 29.5867 187.506 30.32C187.919 31.04 188.139 31.9267 188.166 32.98L187.506 31.74V24.4H189.006V39H187.806V34.3H188.286C188.259 35.4067 188.026 36.34 187.586 37.1C187.159 37.8467 186.592 38.4067 185.886 38.78C185.192 39.1533 184.412 39.34 183.546 39.34ZM183.746 38.02C184.466 38.02 185.112 37.86 185.686 37.54C186.272 37.22 186.732 36.7667 187.066 36.18C187.399 35.58 187.566 34.8933 187.566 34.12V33.16C187.566 32.4133 187.399 31.76 187.066 31.2C186.732 30.6267 186.272 30.18 185.686 29.86C185.112 29.54 184.459 29.38 183.726 29.38C182.939 29.38 182.252 29.5733 181.666 29.96C181.092 30.3333 180.646 30.8467 180.326 31.5C180.019 32.1533 179.866 32.8867 179.866 33.7C179.866 34.54 180.026 35.2867 180.346 35.94C180.666 36.5933 181.119 37.1067 181.706 37.48C182.292 37.84 182.972 38.02 183.746 38.02ZM197.298 39.34C196.391 39.34 195.604 39.1867 194.938 38.88C194.271 38.56 193.724 38.14 193.298 37.62C192.871 37.0867 192.551 36.4933 192.338 35.84C192.138 35.1867 192.038 34.5133 192.038 33.82V33.54C192.038 32.86 192.138 32.1933 192.338 31.54C192.551 30.8867 192.871 30.3 193.298 29.78C193.724 29.26 194.258 28.8467 194.898 28.54C195.551 28.22 196.311 28.06 197.178 28.06C198.284 28.06 199.204 28.3067 199.938 28.8C200.684 29.2933 201.244 29.9267 201.618 30.7C201.991 31.46 202.178 32.28 202.178 33.16V33.94H192.718V32.78H201.138L200.758 33.36C200.758 32.5733 200.618 31.8867 200.338 31.3C200.071 30.7 199.671 30.2333 199.138 29.9C198.618 29.5533 197.964 29.38 197.178 29.38C196.351 29.38 195.664 29.5733 195.118 29.96C194.571 30.3467 194.158 30.86 193.877 31.5C193.611 32.14 193.478 32.8667 193.478 33.68C193.478 34.48 193.611 35.2133 193.877 35.88C194.158 36.5333 194.578 37.0533 195.138 37.44C195.711 37.8267 196.431 38.02 197.298 38.02C198.218 38.02 198.964 37.8133 199.538 37.4C200.111 36.9733 200.464 36.4733 200.598 35.9H201.998C201.864 36.6067 201.584 37.22 201.158 37.74C200.731 38.2467 200.191 38.64 199.538 38.92C198.884 39.2 198.138 39.34 197.298 39.34ZM208.905 39.12C208.172 39.12 207.538 39.0133 207.005 38.8C206.472 38.5867 206.058 38.2267 205.765 37.72C205.472 37.2 205.325 36.5067 205.325 35.64V25.08H206.765V35.86C206.765 36.4733 206.932 36.9467 207.265 37.28C207.598 37.6 208.072 37.76 208.685 37.76H210.585V39.12H208.905ZM203.425 29.56V28.42H210.585V29.56H203.425ZM219.884 39V35.82H219.644V32.06C219.644 31.2733 219.437 30.6733 219.024 30.26C218.611 29.8333 217.971 29.62 217.104 29.62C216.704 29.62 216.297 29.6267 215.884 29.64C215.484 29.6533 215.097 29.6733 214.724 29.7C214.364 29.7133 214.044 29.7333 213.764 29.76V28.44C214.057 28.4133 214.357 28.3867 214.664 28.36C214.971 28.3333 215.284 28.32 215.604 28.32C215.937 28.3067 216.257 28.3 216.564 28.3C217.644 28.3 218.511 28.4333 219.164 28.7C219.831 28.9667 220.317 29.3867 220.624 29.96C220.931 30.52 221.084 31.2667 221.084 32.2V39H219.884ZM216.304 39.28C215.557 39.28 214.897 39.1467 214.324 38.88C213.751 38.6133 213.304 38.2267 212.984 37.72C212.677 37.2133 212.524 36.6 212.524 35.88C212.524 35.1733 212.684 34.5733 213.004 34.08C213.337 33.5867 213.811 33.2133 214.424 32.96C215.051 32.6933 215.804 32.56 216.684 32.56H219.784V33.7H216.584C215.744 33.7 215.097 33.9067 214.644 34.32C214.204 34.72 213.984 35.2467 213.984 35.9C213.984 36.5667 214.217 37.1 214.684 37.5C215.151 37.8867 215.784 38.08 216.584 38.08C217.077 38.08 217.551 37.9933 218.004 37.82C218.457 37.6333 218.837 37.3267 219.144 36.9C219.451 36.46 219.617 35.86 219.644 35.1L220.084 35.72C220.031 36.5067 219.844 37.1667 219.524 37.7C219.204 38.22 218.771 38.6133 218.224 38.88C217.677 39.1467 217.037 39.28 216.304 39.28ZM225.391 39V28.42H226.871V39H225.391ZM223.691 29.62V28.42H226.871V29.62H223.691ZM225.711 26.46C225.351 26.46 225.077 26.3667 224.891 26.18C224.717 25.98 224.631 25.7333 224.631 25.44C224.631 25.1467 224.717 24.9067 224.891 24.72C225.077 24.52 225.351 24.42 225.711 24.42C226.071 24.42 226.337 24.52 226.511 24.72C226.684 24.9067 226.771 25.1467 226.771 25.44C226.771 25.7333 226.684 25.98 226.511 26.18C226.337 26.3667 226.071 26.46 225.711 26.46ZM230.907 39V24.4H232.407V39H230.907ZM229.367 25.62V24.4H232.407V25.62H229.367ZM239.635 39.3C238.275 39.3 237.229 39.0067 236.495 38.42C235.762 37.82 235.389 37.02 235.375 36.02H236.775C236.802 36.5267 237.029 36.9867 237.455 37.4C237.895 37.8133 238.622 38.02 239.635 38.02C240.582 38.02 241.289 37.8267 241.755 37.44C242.235 37.04 242.475 36.56 242.475 36C242.475 35.48 242.275 35.08 241.875 34.8C241.489 34.5067 240.922 34.32 240.175 34.24L238.975 34.12C238.015 34.0133 237.235 33.72 236.635 33.24C236.049 32.7467 235.755 32.0733 235.755 31.22C235.755 30.5933 235.915 30.0467 236.235 29.58C236.555 29.1133 237.002 28.7533 237.575 28.5C238.162 28.2333 238.849 28.1 239.635 28.1C240.769 28.1 241.689 28.3667 242.395 28.9C243.115 29.4333 243.482 30.1933 243.495 31.18H242.095C242.082 30.6733 241.869 30.2467 241.455 29.9C241.042 29.5533 240.435 29.38 239.635 29.38C238.809 29.38 238.189 29.56 237.775 29.92C237.375 30.28 237.175 30.72 237.175 31.24C237.175 31.68 237.329 32.0467 237.635 32.34C237.942 32.62 238.422 32.7933 239.075 32.86L240.275 32.98C241.342 33.1 242.209 33.4067 242.875 33.9C243.555 34.3933 243.895 35.1 243.895 36.02C243.895 36.6467 243.715 37.2133 243.355 37.72C243.009 38.2133 242.515 38.6 241.875 38.88C241.235 39.16 240.489 39.3 239.635 39.3Z" fill="#404040"/>
<path d="M267 35.9L261 29.9L262.4 28.5L267 33.1L271.6 28.5L273 29.9L267 35.9Z" fill="#404040"/>
</svg>
