<svg width="81" height="81" viewBox="0 0 81 81" fill="none" xmlns="http://www.w3.org/2000/svg">
<g filter="url(#filter0_ddddii_704_260)">
<circle cx="39.5" cy="39.5" r="27.5" fill="#D7D7D5"/>
</g>
<g clip-path="url(#clip0_704_260)">
<path d="M41.5415 34.1667C42.3555 34.3255 43.1035 34.7236 43.6899 35.31C44.2763 35.8964 44.6744 36.6444 44.8332 37.4584M41.5415 30.8334C43.2326 31.0212 44.8095 31.7785 46.0134 32.9809C47.2173 34.1832 47.9765 35.7592 48.1665 37.45M47.3332 44.1V46.6C47.3341 46.8321 47.2866 47.0618 47.1936 47.2745C47.1006 47.4871 46.9643 47.678 46.7933 47.8349C46.6222 47.9918 46.4203 48.1113 46.2005 48.1856C45.9806 48.26 45.7477 48.2876 45.5165 48.2667C42.9522 47.9881 40.489 47.1118 38.3249 45.7084C36.3114 44.4289 34.6043 42.7219 33.3249 40.7084C31.9165 38.5344 31.0401 36.0592 30.7665 33.4834C30.7457 33.2529 30.7731 33.0207 30.8469 32.8014C30.9208 32.5821 31.0395 32.3806 31.1955 32.2097C31.3515 32.0388 31.5414 31.9023 31.753 31.8088C31.9647 31.7153 32.1935 31.6669 32.4249 31.6667H34.9249C35.3293 31.6627 35.7214 31.8059 36.028 32.0697C36.3346 32.3334 36.5349 32.6996 36.5915 33.1C36.697 33.9001 36.8927 34.6856 37.1749 35.4417C37.287 35.74 37.3112 36.0641 37.2448 36.3758C37.1783 36.6874 37.0239 36.9735 36.7999 37.2L35.7415 38.2584C36.9278 40.3447 38.6552 42.0721 40.7415 43.2584L41.7999 42.2C42.0264 41.976 42.3125 41.8216 42.6241 41.7551C42.9358 41.6887 43.2599 41.7129 43.5582 41.825C44.3143 42.1072 45.0998 42.3029 45.8999 42.4084C46.3047 42.4655 46.6744 42.6694 46.9386 42.9813C47.2029 43.2932 47.3433 43.6914 47.3332 44.1Z" stroke="#404040" stroke-width="2.5" stroke-linecap="round" stroke-linejoin="round"/>
</g>
<defs>
<filter id="filter0_ddddii_704_260" x="0" y="0" width="81" height="81" filterUnits="userSpaceOnUse" color-interpolation-filters="sRGB">
<feFlood flood-opacity="0" result="BackgroundImageFix"/>
<feColorMatrix in="SourceAlpha" type="matrix" values="0 0 0 0 0 0 0 0 0 0 0 0 0 0 0 0 0 0 127 0" result="hardAlpha"/>
<feOffset dx="4" dy="4"/>
<feGaussianBlur stdDeviation="5"/>
<feColorMatrix type="matrix" values="0 0 0 0 0.717647 0 0 0 0 0.717647 0 0 0 0 0.709804 0 0 0 0.9 0"/>
<feBlend mode="normal" in2="BackgroundImageFix" result="effect1_dropShadow_704_260"/>
<feColorMatrix in="SourceAlpha" type="matrix" values="0 0 0 0 0 0 0 0 0 0 0 0 0 0 0 0 0 0 127 0" result="hardAlpha"/>
<feOffset dx="-4" dy="-4"/>
<feGaussianBlur stdDeviation="4"/>
<feColorMatrix type="matrix" values="0 0 0 0 0.968627 0 0 0 0 0.968627 0 0 0 0 0.960784 0 0 0 0.9 0"/>
<feBlend mode="normal" in2="effect1_dropShadow_704_260" result="effect2_dropShadow_704_260"/>
<feColorMatrix in="SourceAlpha" type="matrix" values="0 0 0 0 0 0 0 0 0 0 0 0 0 0 0 0 0 0 127 0" result="hardAlpha"/>
<feOffset dx="4" dy="-4"/>
<feGaussianBlur stdDeviation="4"/>
<feColorMatrix type="matrix" values="0 0 0 0 0.717647 0 0 0 0 0.717647 0 0 0 0 0.709804 0 0 0 0.2 0"/>
<feBlend mode="normal" in2="effect2_dropShadow_704_260" result="effect3_dropShadow_704_260"/>
<feColorMatrix in="SourceAlpha" type="matrix" values="0 0 0 0 0 0 0 0 0 0 0 0 0 0 0 0 0 0 127 0" result="hardAlpha"/>
<feOffset dx="-4" dy="4"/>
<feGaussianBlur stdDeviation="4"/>
<feColorMatrix type="matrix" values="0 0 0 0 0.717647 0 0 0 0 0.717647 0 0 0 0 0.709804 0 0 0 0.2 0"/>
<feBlend mode="normal" in2="effect3_dropShadow_704_260" result="effect4_dropShadow_704_260"/>
<feBlend mode="normal" in="SourceGraphic" in2="effect4_dropShadow_704_260" result="shape"/>
<feColorMatrix in="SourceAlpha" type="matrix" values="0 0 0 0 0 0 0 0 0 0 0 0 0 0 0 0 0 0 127 0" result="hardAlpha"/>
<feOffset dx="-1" dy="-1"/>
<feGaussianBlur stdDeviation="1"/>
<feComposite in2="hardAlpha" operator="arithmetic" k2="-1" k3="1"/>
<feColorMatrix type="matrix" values="0 0 0 0 0.717647 0 0 0 0 0.717647 0 0 0 0 0.709804 0 0 0 0.5 0"/>
<feBlend mode="normal" in2="shape" result="effect5_innerShadow_704_260"/>
<feColorMatrix in="SourceAlpha" type="matrix" values="0 0 0 0 0 0 0 0 0 0 0 0 0 0 0 0 0 0 127 0" result="hardAlpha"/>
<feOffset dx="1" dy="1"/>
<feGaussianBlur stdDeviation="1"/>
<feComposite in2="hardAlpha" operator="arithmetic" k2="-1" k3="1"/>
<feColorMatrix type="matrix" values="0 0 0 0 0.968627 0 0 0 0 0.968627 0 0 0 0 0.960784 0 0 0 0.3 0"/>
<feBlend mode="normal" in2="effect5_innerShadow_704_260" result="effect6_innerShadow_704_260"/>
</filter>
<clipPath id="clip0_704_260">
<rect width="20" height="20" fill="white" transform="translate(29 30)"/>
</clipPath>
</defs>
</svg>
