<svg width="138" height="36" viewBox="0 0 138 36" fill="none" xmlns="http://www.w3.org/2000/svg">
<path d="M2.68734 35.3761V32.0161H12.2393C14.6073 32.0161 16.6713 31.6321 18.4313 30.8641C20.2233 30.0961 21.7273 29.0561 22.9433 27.7441C24.1593 26.4001 25.0713 24.8641 25.6793 23.1361C26.2873 21.4081 26.5913 19.5681 26.5913 17.6161C26.5913 15.6001 26.2713 13.7281 25.6313 12.0001C25.0233 10.2721 24.1113 8.75208 22.8953 7.44008C21.6793 6.12808 20.1753 5.12008 18.3833 4.41608C16.6233 3.71208 14.5753 3.36008 12.2393 3.36008H2.68734V8.01086e-05H11.8553C14.9913 8.01086e-05 17.7113 0.480081 20.0153 1.44008C22.3193 2.40008 24.2393 3.71208 25.7753 5.37608C27.3113 7.00808 28.4473 8.84808 29.1833 10.8961C29.9193 12.9441 30.2873 15.0241 30.2873 17.1361V18.0481C30.2873 20.1281 29.9193 22.1921 29.1833 24.2401C28.4473 26.2881 27.3273 28.1601 25.8233 29.8561C24.3193 31.5201 22.3993 32.8641 20.0633 33.8881C17.7593 34.8801 15.0233 35.3761 11.8553 35.3761H2.68734ZM-0.00065589 35.3761V8.01086e-05H3.64734V35.3761H-0.00065589ZM47.9476 36.0001C45.7716 36.0001 43.8836 35.6321 42.2836 34.8961C40.6836 34.1281 39.3716 33.1201 38.3476 31.8721C37.3236 30.5921 36.5556 29.1681 36.0436 27.6001C35.5636 26.0321 35.3236 24.4161 35.3236 22.7521V22.0801C35.3236 20.4481 35.5636 18.8481 36.0436 17.2801C36.5556 15.7121 37.3236 14.3041 38.3476 13.0561C39.3716 11.8081 40.6516 10.8161 42.1876 10.0801C43.7556 9.31208 45.5796 8.92808 47.6596 8.92808C50.3156 8.92808 52.5236 9.52008 54.2836 10.7041C56.0756 11.8881 57.4196 13.4081 58.3156 15.2641C59.2116 17.0881 59.6596 19.0561 59.6596 21.1681V23.0401H36.9556V20.2561H57.1636L56.2516 21.6481C56.2516 19.7601 55.9156 18.1121 55.2436 16.7041C54.6036 15.2641 53.6436 14.1441 52.3636 13.3441C51.1156 12.5121 49.5476 12.0961 47.6596 12.0961C45.6756 12.0961 44.0276 12.5601 42.7156 13.4881C41.4036 14.4161 40.4116 15.6481 39.7396 17.1841C39.0996 18.7201 38.7796 20.4641 38.7796 22.4161C38.7796 24.3361 39.0996 26.0961 39.7396 27.6961C40.4116 29.2641 41.4196 30.5121 42.7636 31.4401C44.1396 32.3681 45.8676 32.8321 47.9476 32.8321C50.1556 32.8321 51.9476 32.3361 53.3236 31.3441C54.6996 30.3201 55.5476 29.1201 55.8676 27.7441H59.2276C58.9076 29.4401 58.2356 30.9121 57.2116 32.1601C56.1876 33.3761 54.8916 34.3201 53.3236 34.9921C51.7556 35.6641 49.9636 36.0001 47.9476 36.0001ZM66.5896 35.1841V9.74408H69.4696V20.4481H68.8936C68.8936 18.1121 69.2136 16.0961 69.8536 14.4001C70.5256 12.7041 71.5176 11.3921 72.8296 10.4641C74.1416 9.50408 75.8056 9.02408 77.8216 9.02408H77.9656C79.9816 9.02408 81.6456 9.48808 82.9576 10.4161C84.2696 11.3441 85.2456 12.6561 85.8856 14.3521C86.5256 16.0481 86.8456 18.0801 86.8456 20.4481H85.6936C85.6936 18.1121 86.0136 16.0961 86.6536 14.4001C87.3256 12.7041 88.3176 11.3921 89.6296 10.4641C90.9736 9.50408 92.6536 9.02408 94.6696 9.02408H94.8136C96.8296 9.02408 98.4936 9.48808 99.8056 10.4161C101.15 11.3441 102.142 12.6561 102.782 14.3521C103.454 16.0481 103.79 18.0801 103.79 20.4481V35.1841H100.19V19.6321C100.19 17.3921 99.6456 15.6161 98.5576 14.3041C97.4696 12.9921 95.9016 12.3361 93.8536 12.3361C91.7416 12.3361 90.0616 13.0241 88.8136 14.4001C87.5976 15.7441 86.9896 17.5681 86.9896 19.8721V35.1841H83.3896V19.6321C83.3896 17.3921 82.8456 15.6161 81.7576 14.3041C80.6696 12.9921 79.1016 12.3361 77.0536 12.3361C74.9416 12.3361 73.2616 13.0241 72.0136 14.4001C70.7976 15.7441 70.1896 17.5681 70.1896 19.8721V35.1841H66.5896ZM124.137 36.0001C121.961 36.0001 120.041 35.6321 118.377 34.8961C116.745 34.1281 115.353 33.1201 114.201 31.8721C113.081 30.5921 112.217 29.1681 111.609 27.6001C111.033 26.0321 110.745 24.4321 110.745 22.8001V22.1281C110.745 20.4961 111.049 18.8961 111.657 17.3281C112.265 15.7281 113.145 14.3041 114.297 13.0561C115.449 11.8081 116.841 10.8161 118.473 10.0801C120.137 9.31208 122.025 8.92808 124.137 8.92808C126.281 8.92808 128.169 9.31208 129.801 10.0801C131.465 10.8161 132.873 11.8081 134.025 13.0561C135.177 14.3041 136.041 15.7281 136.617 17.3281C137.225 18.8961 137.529 20.4961 137.529 22.1281V22.8001C137.529 24.4321 137.241 26.0321 136.665 27.6001C136.089 29.1681 135.225 30.5921 134.073 31.8721C132.953 33.1201 131.561 34.1281 129.897 34.8961C128.233 35.6321 126.313 36.0001 124.137 36.0001ZM124.137 32.7841C126.249 32.7841 128.025 32.3201 129.465 31.3921C130.937 30.4321 132.057 29.1841 132.825 27.6481C133.593 26.0801 133.977 24.3521 133.977 22.4641C133.977 20.5441 133.577 18.8161 132.777 17.2801C132.009 15.7121 130.889 14.4801 129.417 13.5841C127.945 12.6561 126.185 12.1921 124.137 12.1921C122.121 12.1921 120.377 12.6561 118.905 13.5841C117.433 14.4801 116.297 15.7121 115.497 17.2801C114.729 18.8161 114.345 20.5441 114.345 22.4641C114.345 24.3521 114.729 26.0801 115.497 27.6481C116.265 29.1841 117.369 30.4321 118.809 31.3921C120.281 32.3201 122.057 32.7841 124.137 32.7841Z" fill="#0D0D0D"/>
</svg>
