<svg width="400" height="400" viewBox="-25 -25 270 320" fill="none" xmlns="http://www.w3.org/2000/svg">
  <defs>
    <!-- Filter for Upper Ribbon (Vector 10) -->
    <filter id="filter_upper_ribbon" x="-20" y="-20" width="250" height="200" filterUnits="userSpaceOnUse" color-interpolation-filters="sRGB">
      <feFlood flood-opacity="0" result="BackgroundImageFix"/>
      <feColorMatrix in="SourceAlpha" type="matrix" values="0 0 0 0 0 0 0 0 0 0 0 0 0 0 0 0 0 0 127 0" result="hardAlpha"/>
      <feOffset dx="0" dy="3"/>
      <feGaussianBlur stdDeviation="3"/>
      <feColorMatrix type="matrix" values="0 0 0 0 0.4 0 0 0 0 0.48 0 0 0 0 0.6 0 0 0 0.25 0"/>
      <feBlend mode="normal" in2="BackgroundImageFix" result="effect1_dropShadow"/>
      <feBlend mode="normal" in="SourceGraphic" in2="effect1_dropShadow" result="shape"/>
    </filter>

    <!-- Filter for Lower Ribbon -->
    <filter id="filter_lower_ribbon" x="-20" y="-20" width="300" height="350" filterUnits="userSpaceOnUse" color-interpolation-filters="sRGB">
      <feFlood flood-opacity="0" result="BackgroundImageFix"/>
      <feColorMatrix in="SourceAlpha" type="matrix" values="0 0 0 0 0 0 0 0 0 0 0 0 0 0 0 0 0 0 127 0" result="hardAlpha"/>
      <feOffset dx="0" dy="4"/>
      <feGaussianBlur stdDeviation="4"/>
      <feColorMatrix type="matrix" values="0 0 0 0 0.4 0 0 0 0 0.48 0 0 0 0 0.6 0 0 0 0.25 0"/>
      <feBlend mode="normal" in2="BackgroundImageFix" result="effect1_dropShadow"/>
      <feBlend mode="normal" in="SourceGraphic" in2="effect1_dropShadow" result="shape"/>
    </filter>

    <!-- Filter for Base Triangle (Vector 11) -->
    <filter id="filter_base" x="-20" y="-20" width="300" height="350" filterUnits="userSpaceOnUse" color-interpolation-filters="sRGB">
      <feFlood flood-opacity="0" result="BackgroundImageFix"/>
      <feColorMatrix in="SourceAlpha" type="matrix" values="0 0 0 0 0 0 0 0 0 0 0 0 0 0 0 0 0 0 127 0" result="hardAlpha"/>
      <feOffset dx="0" dy="6"/>
      <feGaussianBlur stdDeviation="8"/>
      <feColorMatrix type="matrix" values="0 0 0 0 0 0 0 0 0 0 0 0 0 0 0 0 0 0 0.08 0"/>
      <feBlend mode="normal" in2="BackgroundImageFix" result="effect1_dropShadow"/>
      <feBlend mode="normal" in="SourceGraphic" in2="effect1_dropShadow" result="shape"/>
    </filter>
  </defs>

  <!-- Vector 11 (Blue Base shape) -->
  <g filter="url(#filter_base)">
    <path d="M79.6073 3L15.678 132.197C15.678 132.197 -5.1784 170.088 6.61001 152.74C18.3984 135.392 44.0415 115.424 61.4713 119.871C69.3946 121.892 81.3439 130.586 85.5015 141.784C90.4889 144.523 120.609 212.419 133.109 233.545C133.109 233.545 156.585 269.196 212 264.589L79.6073 3Z" fill="#B2CEFE"/>
  </g>

  <!-- Lower White Ribbon (Stroked curve) -->
  <g filter="url(#filter_lower_ribbon)">
    <path d="M 6.61001 152.74 C 18.3984 135.392 44.0415 115.424 61.4713 119.871 C 69.3946 121.892 81.3439 130.586 85.5015 141.784 C 90.4889 144.523 120.609 212.419 133.109 233.545 C 133.109 233.545 156.585 269.196 212 264.589" 
          stroke="#FFFFFF" stroke-width="16.8" stroke-linecap="round" stroke-linejoin="round" fill="none"/>
  </g>

  <!-- Vector 10 (Upper White Ribbon) -->
  <g filter="url(#filter_upper_ribbon)">
    <path d="M53.5014 20.4872L29.8126 62.8000C29.8126 62.8000 56.5829 42.0237 62.1681 38.9832C67.7533 35.9428 72.3787 31.9377 80.0792 29.6085C89.4945 26.7608 95.6875 26.3478 105.5012 27.8349C117.8349 29.7038 127.2645 36.8718 133.8126 41.0102C133.8126 39.7433 123.4126 28.5951 123.4126 28.5951C120.5240 25.0479 104.3461 8.8322 95.1012 5.2850C85.8570 1.7378 78.6348 3.0047 71.9903 4.5249C66.6747 5.7411 57.4496 15.6732 53.5014 20.4872Z" fill="#FFFFFF"/>
  </g>
</svg>
