<svg width="281" height="60" viewBox="0 0 281 60" fill="none" xmlns="http://www.w3.org/2000/svg">
<path d="M23.6 41.544C21.5093 41.544 19.7173 41.1813 18.224 40.456C16.752 39.7093 15.5467 38.7387 14.608 37.544C13.6907 36.3493 13.0187 35.0587 12.592 33.672C12.1653 32.264 11.952 30.8987 11.952 29.576V28.968C11.952 27.5387 12.1653 26.12 12.592 24.712C13.04 23.2827 13.7227 21.992 14.64 20.84C15.5787 19.688 16.7733 18.7707 18.224 18.088C19.6747 17.384 21.392 17.032 23.376 17.032C25.3813 17.032 27.1093 17.384 28.56 18.088C30.032 18.792 31.2053 19.784 32.08 21.064C32.9547 22.3227 33.488 23.816 33.68 25.544H31.216C31.0453 24.1573 30.5973 23.0053 29.872 22.088C29.1467 21.1493 28.2187 20.4453 27.088 19.976C25.9787 19.5067 24.7413 19.272 23.376 19.272C21.904 19.272 20.6027 19.5387 19.472 20.072C18.3627 20.584 17.4347 21.3093 16.688 22.248C15.9413 23.1653 15.376 24.232 14.992 25.448C14.608 26.6427 14.416 27.9227 14.416 29.288C14.416 30.5893 14.5973 31.8373 14.96 33.032C15.344 34.2267 15.92 35.304 16.688 36.264C17.456 37.2027 18.416 37.9493 19.568 38.504C20.72 39.0373 22.064 39.304 23.6 39.304C25.7333 39.304 27.5253 38.7707 28.976 37.704C30.4267 36.616 31.3227 35.0587 31.664 33.032H34.128C33.8933 34.632 33.3387 36.0827 32.464 37.384C31.5893 38.664 30.4053 39.6773 28.912 40.424C27.44 41.1707 25.6693 41.544 23.6 41.544ZM44.3663 41.48C42.3396 41.48 40.7929 40.8293 39.7263 39.528C38.6596 38.2053 38.1263 36.3707 38.1263 34.024V24.04H40.4943V34.504C40.4943 35.976 40.8783 37.1493 41.6463 38.024C42.4356 38.8773 43.5236 39.304 44.9103 39.304C46.3609 39.304 47.5129 38.8453 48.3663 37.928C49.2409 37.0107 49.6783 35.784 49.6783 34.248V24.04H52.0783V41H50.1583V33.928H50.5423C50.5423 35.5067 50.3183 36.8613 49.8703 37.992C49.4223 39.1013 48.7503 39.9653 47.8543 40.584C46.9583 41.1813 45.8276 41.48 44.4623 41.48H44.3663ZM58.354 41V24.072H60.274V31.144H60.082C60.082 28.6693 60.626 26.8453 61.714 25.672C62.802 24.4773 64.5087 23.88 66.834 23.88H67.378V26.056H66.386C64.5513 26.056 63.154 26.536 62.194 27.496C61.234 28.4347 60.754 29.8213 60.754 31.656V41H58.354ZM71.2603 41V24.072H73.1803V31.144H72.9883C72.9883 28.6693 73.5323 26.8453 74.6203 25.672C75.7083 24.4773 77.4149 23.88 79.7403 23.88H80.2843V26.056H79.2923C77.4576 26.056 76.0603 26.536 75.1003 27.496C74.1403 28.4347 73.6603 29.8213 73.6603 31.656V41H71.2603ZM91.0198 41.544C89.5691 41.544 88.3104 41.2987 87.2438 40.808C86.1771 40.296 85.3024 39.624 84.6198 38.792C83.9371 37.9387 83.4251 36.9893 83.0838 35.944C82.7638 34.8987 82.6038 33.8213 82.6038 32.712V32.264C82.6038 31.176 82.7638 30.1093 83.0838 29.064C83.4251 28.0187 83.9371 27.08 84.6198 26.248C85.3024 25.416 86.1558 24.7547 87.1798 24.264C88.2251 23.752 89.4411 23.496 90.8278 23.496C92.5984 23.496 94.0704 23.8907 95.2438 24.68C96.4384 25.4693 97.3344 26.4827 97.9318 27.72C98.5291 28.936 98.8278 30.248 98.8278 31.656V32.904H83.6918V31.048H97.1638L96.5558 31.976C96.5558 30.7173 96.3318 29.6187 95.8838 28.68C95.4571 27.72 94.8171 26.9733 93.9638 26.44C93.1318 25.8853 92.0864 25.608 90.8278 25.608C89.5051 25.608 88.4064 25.9173 87.5318 26.536C86.6571 27.1547 85.9958 27.976 85.5477 29C85.1211 30.024 84.9078 31.1867 84.9078 32.488C84.9078 33.768 85.1211 34.9413 85.5477 36.008C85.9958 37.0533 86.6678 37.8853 87.5638 38.504C88.4811 39.1227 89.6331 39.432 91.0198 39.432C92.4918 39.432 93.6864 39.1013 94.6038 38.44C95.5211 37.7573 96.0864 36.9573 96.2998 36.04H98.5398C98.3264 37.1707 97.8784 38.152 97.1958 38.984C96.5131 39.7947 95.6491 40.424 94.6038 40.872C93.5584 41.32 92.3638 41.544 91.0198 41.544ZM103.448 41V24.072H105.368V31.176H104.984C104.984 29.5973 105.218 28.2427 105.688 27.112C106.157 25.9813 106.861 25.1067 107.8 24.488C108.738 23.8693 109.922 23.56 111.352 23.56H111.448C113.581 23.56 115.17 24.232 116.216 25.576C117.261 26.8987 117.784 28.7653 117.784 31.176V41H115.416V30.664C115.416 29.192 115.01 28.008 114.2 27.112C113.389 26.216 112.258 25.768 110.808 25.768C109.314 25.768 108.109 26.2373 107.192 27.176C106.296 28.0933 105.848 29.3093 105.848 30.824V41H103.448ZM129.904 41.192C128.731 41.192 127.718 41.0213 126.864 40.68C126.011 40.3387 125.35 39.7627 124.88 38.952C124.411 38.12 124.176 37.0107 124.176 35.624V18.728H126.48V35.976C126.48 36.9573 126.747 37.7147 127.28 38.248C127.814 38.76 128.571 39.016 129.552 39.016H132.592V41.192H129.904ZM121.136 25.896V24.072H132.592V25.896H121.136ZM145.242 41V17.64H147.674V41H145.242ZM147.034 30.216V28.008L157.37 27.976V30.184L147.034 30.216ZM147.034 19.816V17.64H157.978V19.816H147.034ZM169.876 41.544C168.425 41.544 167.145 41.2987 166.036 40.808C164.948 40.296 164.02 39.624 163.252 38.792C162.505 37.9387 161.929 36.9893 161.524 35.944C161.14 34.8987 160.948 33.832 160.948 32.744V32.296C160.948 31.208 161.15 30.1413 161.556 29.096C161.961 28.0293 162.548 27.08 163.316 26.248C164.084 25.416 165.012 24.7547 166.1 24.264C167.209 23.752 168.468 23.496 169.876 23.496C171.305 23.496 172.564 23.752 173.652 24.264C174.761 24.7547 175.7 25.416 176.468 26.248C177.236 27.08 177.812 28.0293 178.196 29.096C178.601 30.1413 178.804 31.208 178.804 32.296V32.744C178.804 33.832 178.612 34.8987 178.228 35.944C177.844 36.9893 177.268 37.9387 176.5 38.792C175.753 39.624 174.825 40.296 173.716 40.808C172.606 41.2987 171.326 41.544 169.876 41.544ZM169.876 39.4C171.284 39.4 172.468 39.0907 173.428 38.472C174.409 37.832 175.156 37 175.668 35.976C176.18 34.9307 176.436 33.7787 176.436 32.52C176.436 31.24 176.169 30.088 175.635 29.064C175.124 28.0187 174.377 27.1973 173.396 26.6C172.414 25.9813 171.241 25.672 169.876 25.672C168.532 25.672 167.369 25.9813 166.388 26.6C165.406 27.1973 164.649 28.0187 164.116 29.064C163.604 30.088 163.348 31.24 163.348 32.52C163.348 33.7787 163.604 34.9307 164.116 35.976C164.628 37 165.364 37.832 166.324 38.472C167.305 39.0907 168.489 39.4 169.876 39.4ZM190.834 41.544C189.404 41.544 188.156 41.2987 187.09 40.808C186.044 40.296 185.17 39.6133 184.466 38.76C183.762 37.8853 183.228 36.9253 182.866 35.88C182.524 34.8347 182.354 33.7787 182.354 32.712V32.264C182.354 31.176 182.524 30.12 182.866 29.096C183.228 28.0507 183.762 27.112 184.466 26.28C185.17 25.4267 186.044 24.7547 187.09 24.264C188.156 23.752 189.383 23.496 190.77 23.496C192.178 23.496 193.426 23.752 194.514 24.264C195.623 24.776 196.519 25.5013 197.202 26.44C197.884 27.3787 198.29 28.488 198.418 29.768H196.114C195.922 28.5947 195.367 27.624 194.45 26.856C193.554 26.0667 192.327 25.672 190.77 25.672C189.426 25.672 188.306 25.9813 187.41 26.6C186.535 27.1973 185.874 28.0187 185.426 29.064C184.978 30.088 184.754 31.2293 184.754 32.488C184.754 33.7253 184.978 34.8773 185.426 35.944C185.874 36.9893 186.546 37.832 187.442 38.472C188.338 39.0907 189.468 39.4 190.834 39.4C191.879 39.4 192.786 39.2187 193.554 38.856C194.343 38.472 194.972 37.96 195.442 37.32C195.932 36.68 196.22 35.976 196.306 35.208H198.61C198.524 36.488 198.119 37.608 197.394 38.568C196.69 39.5067 195.772 40.2427 194.642 40.776C193.511 41.288 192.242 41.544 190.834 41.544ZM208.866 41.48C206.84 41.48 205.293 40.8293 204.226 39.528C203.16 38.2053 202.626 36.3707 202.626 34.024V24.04H204.994V34.504C204.994 35.976 205.378 37.1493 206.146 38.024C206.936 38.8773 208.024 39.304 209.41 39.304C210.861 39.304 212.013 38.8453 212.866 37.928C213.741 37.0107 214.178 35.784 214.178 34.248V24.04H216.578V41H214.658V33.928H215.042C215.042 35.5067 214.818 36.8613 214.37 37.992C213.922 39.1013 213.25 39.9653 212.354 40.584C211.458 41.1813 210.328 41.48 208.962 41.48H208.866ZM228.198 41.48C226.022 41.48 224.347 41.0107 223.174 40.072C222.001 39.112 221.403 37.832 221.382 36.232H223.622C223.665 37.0427 224.027 37.7787 224.71 38.44C225.414 39.1013 226.577 39.432 228.198 39.432C229.713 39.432 230.843 39.1227 231.59 38.504C232.358 37.864 232.742 37.096 232.742 36.2C232.742 35.368 232.422 34.728 231.782 34.28C231.163 33.8107 230.257 33.512 229.062 33.384L227.142 33.192C225.606 33.0213 224.358 32.552 223.398 31.784C222.459 30.9947 221.99 29.9173 221.99 28.552C221.99 27.5493 222.246 26.6747 222.758 25.928C223.27 25.1813 223.985 24.6053 224.902 24.2C225.841 23.7733 226.939 23.56 228.198 23.56C230.011 23.56 231.483 23.9867 232.614 24.84C233.766 25.6933 234.353 26.9093 234.374 28.488H232.134C232.113 27.6773 231.771 26.9947 231.11 26.44C230.449 25.8853 229.478 25.608 228.198 25.608C226.875 25.608 225.883 25.896 225.222 26.472C224.582 27.048 224.262 27.752 224.262 28.584C224.262 29.288 224.507 29.8747 224.998 30.344C225.489 30.792 226.257 31.0693 227.302 31.176L229.222 31.368C230.929 31.56 232.315 32.0507 233.382 32.84C234.47 33.6293 235.014 34.76 235.014 36.232C235.014 37.2347 234.726 38.1413 234.15 38.952C233.595 39.7413 232.806 40.36 231.782 40.808C230.758 41.256 229.563 41.48 228.198 41.48Z" fill="#404040"/>
<path d="M259 35C260.383 35 261.562 34.5125 262.538 33.5375C263.513 32.5625 264 31.3833 264 30C264 28.6167 263.513 27.4375 262.538 26.4625C261.562 25.4875 260.383 25 259 25C257.617 25 256.438 25.4875 255.463 26.4625C254.488 27.4375 254 28.6167 254 30C254 31.3833 254.488 32.5625 255.463 33.5375C256.438 34.5125 257.617 35 259 35ZM259 40C257.617 40 256.317 39.7375 255.1 39.2125C253.883 38.6875 252.825 37.975 251.925 37.075C251.025 36.175 250.312 35.1167 249.788 33.9C249.262 32.6833 249 31.3833 249 30C249 28.6167 249.262 27.3167 249.788 26.1C250.312 24.8833 251.025 23.825 251.925 22.925C252.825 22.025 253.883 21.3125 255.1 20.7875C256.317 20.2625 257.617 20 259 20C260.383 20 261.683 20.2625 262.9 20.7875C264.117 21.3125 265.175 22.025 266.075 22.925C266.975 23.825 267.688 24.8833 268.212 26.1C268.737 27.3167 269 28.6167 269 30C269 31.3833 268.737 32.6833 268.212 33.9C267.688 35.1167 266.975 36.175 266.075 37.075C265.175 37.975 264.117 38.6875 262.9 39.2125C261.683 39.7375 260.383 40 259 40ZM259 38C261.233 38 263.125 37.225 264.675 35.675C266.225 34.125 267 32.2333 267 30C267 27.7667 266.225 25.875 264.675 24.325C263.125 22.775 261.233 22 259 22C256.767 22 254.875 22.775 253.325 24.325C251.775 25.875 251 27.7667 251 30C251 32.2333 251.775 34.125 253.325 35.675C254.875 37.225 256.767 38 259 38Z" fill="#34C759"/>
</svg>
