<svg width="24" height="24" viewBox="0 0 24 24" fill="none" xmlns="http://www.w3.org/2000/svg">
  <path d="M12 15C13.6569 15 15 13.6569 15 12C15 10.3431 13.6569 9 12 9C10.3431 9 9 10.3431 9 12C9 13.6569 10.3431 15 12 15Z" stroke="#FFFFFF" stroke-width="2" stroke-linecap="round" stroke-linejoin="round"/>
  <path d="M19.4 15A1.65 1.65 0 0 0 19.73 16.82L19.79 16.88A2 2 0 0 1 16.96 19.71L16.9 19.65A1.65 1.65 0 0 0 15.08 19.32A1.65 1.65 0 0 0 14.08 20.83V21A2 2 0 0 1 10.08 21V20.91A1.65 1.65 0 0 0 9.08 19.4A1.65 1.65 0 0 0 7.26 19.73L7.2 19.79A2 2 0 0 1 4.37 16.96L4.43 16.9A1.65 1.65 0 0 0 4.76 15.08A1.65 1.65 0 0 0 3.25 14.08H3.16A2 2 0 0 1 3.16 10.08H3.25A1.65 1.65 0 0 0 4.76 9.08A1.65 1.65 0 0 0 4.43 7.26L4.37 7.2A2 2 0 0 1 7.2 4.37L7.26 4.43A1.65 1.65 0 0 0 9.08 4.76A1.65 1.65 0 0 0 10.08 3.25V3.16A2 2 0 0 1 14.08 3.16V3.25A1.65 1.65 0 0 0 15.08 4.76A1.65 1.65 0 0 0 16.9 4.43L16.96 4.37A2 2 0 0 1 19.79 7.2L19.73 7.26A1.65 1.65 0 0 0 19.4 9.08A1.65 1.65 0 0 0 20.91 10.08H21A2 2 0 0 1 21 14.08H20.91A1.65 1.65 0 0 0 19.4 15Z" stroke="#FFFFFF" stroke-width="2" stroke-linecap="round" stroke-linejoin="round"/>
</svg>
