<svg width="376" height="90" viewBox="0 0 376 90" fill="none" xmlns="http://www.w3.org/2000/svg">
<path d="M8.352 23.408C6.88 23.408 5.64 23.176 4.632 22.712C3.624 22.232 2.856 21.576 2.328 20.744C1.816 19.896 1.56 18.944 1.56 17.888H3.384C3.384 18.56 3.544 19.192 3.864 19.784C4.2 20.36 4.728 20.832 5.448 21.2C6.184 21.552 7.152 21.728 8.352 21.728C9.456 21.728 10.368 21.568 11.088 21.248C11.824 20.928 12.368 20.496 12.72 19.952C13.088 19.408 13.272 18.8 13.272 18.128C13.272 17.28 12.936 16.576 12.264 16.016C11.608 15.44 10.616 15.096 9.288 14.984L7.272 14.792C5.768 14.664 4.568 14.2 3.672 13.4C2.792 12.584 2.352 11.512 2.352 10.184C2.352 9.176 2.592 8.288 3.072 7.52C3.552 6.752 4.232 6.144 5.112 5.696C6.008 5.248 7.08 5.024 8.328 5.024C9.592 5.024 10.672 5.256 11.568 5.72C12.48 6.168 13.176 6.792 13.656 7.592C14.136 8.392 14.376 9.32 14.376 10.376H12.552C12.552 9.736 12.408 9.136 12.12 8.576C11.832 8.016 11.376 7.568 10.752 7.232C10.128 6.88 9.32 6.704 8.328 6.704C7.384 6.704 6.6 6.864 5.976 7.184C5.368 7.504 4.912 7.928 4.608 8.456C4.32 8.984 4.176 9.56 4.176 10.184C4.176 10.968 4.456 11.632 5.016 12.176C5.576 12.72 6.384 13.032 7.44 13.112L9.456 13.304C10.64 13.4 11.648 13.664 12.48 14.096C13.328 14.512 13.976 15.064 14.424 15.752C14.872 16.424 15.096 17.216 15.096 18.128C15.096 19.152 14.816 20.064 14.256 20.864C13.712 21.664 12.936 22.288 11.928 22.736C10.92 23.184 9.728 23.408 8.352 23.408ZM17.9344 27.944V26.336H19.5664C20.1264 26.336 20.6064 26.264 21.0064 26.12C21.4064 25.992 21.7424 25.76 22.0144 25.424C22.2864 25.088 22.5184 24.624 22.7104 24.032L26.9824 10.304H28.7344L24.2704 24.536C24.0144 25.352 23.6624 26.008 23.2144 26.504C22.7664 27.016 22.2304 27.384 21.6064 27.608C20.9824 27.832 20.2704 27.944 19.4704 27.944H17.9344ZM22.0624 22.688V21.176H24.3424V22.688H22.0624ZM21.8464 22.688L17.2384 10.304H19.0864L23.5264 22.688H21.8464ZM35.8204 23.36C34.1884 23.36 32.9324 23.008 32.0524 22.304C31.1724 21.584 30.7244 20.624 30.7084 19.424H32.3884C32.4204 20.032 32.6924 20.584 33.2044 21.08C33.7324 21.576 34.6044 21.824 35.8204 21.824C36.9564 21.824 37.8044 21.592 38.3644 21.128C38.9404 20.648 39.2284 20.072 39.2284 19.4C39.2284 18.776 38.9884 18.296 38.5084 17.96C38.0444 17.608 37.3644 17.384 36.4684 17.288L35.0284 17.144C33.8764 17.016 32.9404 16.664 32.2204 16.088C31.5164 15.496 31.1644 14.688 31.1644 13.664C31.1644 12.912 31.3564 12.256 31.7404 11.696C32.1244 11.136 32.6604 10.704 33.3484 10.4C34.0524 10.08 34.8764 9.92 35.8204 9.92C37.1804 9.92 38.2844 10.24 39.1324 10.88C39.9964 11.52 40.4364 12.432 40.4524 13.616H38.7724C38.7564 13.008 38.5004 12.496 38.0044 12.08C37.5084 11.664 36.7804 11.456 35.8204 11.456C34.8284 11.456 34.0844 11.672 33.5884 12.104C33.1084 12.536 32.8684 13.064 32.8684 13.688C32.8684 14.216 33.0524 14.656 33.4204 15.008C33.7884 15.344 34.3644 15.552 35.1484 15.632L36.5884 15.776C37.8684 15.92 38.9084 16.288 39.7084 16.88C40.5244 17.472 40.9324 18.32 40.9324 19.424C40.9324 20.176 40.7164 20.856 40.2844 21.464C39.8684 22.056 39.2764 22.52 38.5084 22.856C37.7404 23.192 36.8444 23.36 35.8204 23.36ZM49.1235 23.144C48.2435 23.144 47.4835 23.016 46.8435 22.76C46.2035 22.504 45.7075 22.072 45.3555 21.464C45.0035 20.84 44.8275 20.008 44.8275 18.968V6.296H46.5555V19.232C46.5555 19.968 46.7555 20.536 47.1555 20.936C47.5555 21.32 48.1235 21.512 48.8595 21.512H51.1395V23.144H49.1235ZM42.5475 11.672V10.304H51.1395V11.672H42.5475ZM59.8039 23.408C58.7159 23.408 57.7719 23.224 56.9719 22.856C56.1719 22.472 55.5159 21.968 55.0039 21.344C54.4919 20.704 54.1079 19.992 53.8519 19.208C53.6119 18.424 53.4919 17.616 53.4919 16.784V16.448C53.4919 15.632 53.6119 14.832 53.8519 14.048C54.1079 13.264 54.4919 12.56 55.0039 11.936C55.5159 11.312 56.1559 10.816 56.9239 10.448C57.7079 10.064 58.6199 9.872 59.6599 9.872C60.9879 9.872 62.0919 10.168 62.9719 10.76C63.8679 11.352 64.5399 12.112 64.9879 13.04C65.4359 13.952 65.6599 14.936 65.6599 15.992V16.928H54.3079V15.536H64.4119L63.9559 16.232C63.9559 15.288 63.7879 14.464 63.4519 13.76C63.1319 13.04 62.6519 12.48 62.0119 12.08C61.3879 11.664 60.6039 11.456 59.6599 11.456C58.6679 11.456 57.8439 11.688 57.1879 12.152C56.5319 12.616 56.0359 13.232 55.6999 14C55.3799 14.768 55.2199 15.64 55.2199 16.616C55.2199 17.576 55.3799 18.456 55.6999 19.256C56.0359 20.04 56.5399 20.664 57.2119 21.128C57.8999 21.592 58.7639 21.824 59.8039 21.824C60.9079 21.824 61.8039 21.576 62.4919 21.08C63.1799 20.568 63.6039 19.968 63.7639 19.28H65.4439C65.2839 20.128 64.9479 20.864 64.4359 21.488C63.9239 22.096 63.2759 22.568 62.4919 22.904C61.7079 23.24 60.8119 23.408 59.8039 23.408ZM69.1249 23V10.28H70.5649V15.632H70.2769C70.2769 14.464 70.4369 13.456 70.7569 12.608C71.0929 11.76 71.5889 11.104 72.2449 10.64C72.9009 10.16 73.7329 9.92 74.7409 9.92H74.8129C75.8209 9.92 76.6529 10.152 77.3089 10.616C77.9649 11.08 78.4529 11.736 78.7729 12.584C79.0929 13.432 79.2529 14.448 79.2529 15.632H78.6769C78.6769 14.464 78.8369 13.456 79.1569 12.608C79.4929 11.76 79.9889 11.104 80.6449 10.64C81.3169 10.16 82.1569 9.92 83.1649 9.92H83.2369C84.2449 9.92 85.0769 10.152 85.7329 10.616C86.4049 11.08 86.9009 11.736 87.2209 12.584C87.5569 13.432 87.7249 14.448 87.7249 15.632V23H85.9249V15.224C85.9249 14.104 85.6529 13.216 85.1089 12.56C84.5649 11.904 83.7809 11.576 82.7569 11.576C81.7009 11.576 80.8609 11.92 80.2369 12.608C79.6289 13.28 79.3249 14.192 79.3249 15.344V23H77.5249V15.224C77.5249 14.104 77.2529 13.216 76.7089 12.56C76.1649 11.904 75.3809 11.576 74.3569 11.576C73.3009 11.576 72.4609 11.92 71.8369 12.608C71.2289 13.28 70.9249 14.192 70.9249 15.344V23H69.1249ZM96.2188 23.36C94.5868 23.36 93.3308 23.008 92.4508 22.304C91.5708 21.584 91.1228 20.624 91.1068 19.424H92.7868C92.8188 20.032 93.0908 20.584 93.6028 21.08C94.1308 21.576 95.0028 21.824 96.2188 21.824C97.3548 21.824 98.2028 21.592 98.7628 21.128C99.3388 20.648 99.6268 20.072 99.6268 19.4C99.6268 18.776 99.3868 18.296 98.9068 17.96C98.4428 17.608 97.7628 17.384 96.8668 17.288L95.4268 17.144C94.2748 17.016 93.3388 16.664 92.6188 16.088C91.9148 15.496 91.5628 14.688 91.5628 13.664C91.5628 12.912 91.7548 12.256 92.1388 11.696C92.5228 11.136 93.0588 10.704 93.7468 10.4C94.4508 10.08 95.2748 9.92 96.2188 9.92C97.5788 9.92 98.6828 10.24 99.5308 10.88C100.395 11.52 100.835 12.432 100.851 13.616H99.1708C99.1548 13.008 98.8988 12.496 98.4028 12.08C97.9068 11.664 97.1788 11.456 96.2188 11.456C95.2268 11.456 94.4828 11.672 93.9868 12.104C93.5068 12.536 93.2668 13.064 93.2668 13.688C93.2668 14.216 93.4508 14.656 93.8188 15.008C94.1868 15.344 94.7628 15.552 95.5468 15.632L96.9868 15.776C98.2668 15.92 99.3068 16.288 100.107 16.88C100.923 17.472 101.331 18.32 101.331 19.424C101.331 20.176 101.115 20.856 100.683 21.464C100.267 22.056 99.6748 22.52 98.9068 22.856C98.1388 23.192 97.2428 23.36 96.2188 23.36Z" fill="#404040"/>
<path d="M108.979 23L115.436 5.48H118.7L125.372 23H123.5L117.284 6.632L118.268 7.136H115.748L116.78 6.632L110.804 23H108.979ZM112.436 17.432L113.036 15.776H121.172L121.796 17.432H112.436ZM128.492 23V10.304H129.932V15.608H129.788C129.788 13.752 130.196 12.384 131.012 11.504C131.828 10.608 133.108 10.16 134.852 10.16H135.26V11.792H134.516C133.14 11.792 132.092 12.152 131.372 12.872C130.652 13.576 130.292 14.616 130.292 15.992V23H128.492ZM143.36 23.408C142.288 23.408 141.352 23.224 140.552 22.856C139.768 22.472 139.112 21.96 138.584 21.32C138.056 20.664 137.656 19.944 137.384 19.16C137.128 18.376 137 17.584 137 16.784V16.448C137 15.632 137.128 14.84 137.384 14.072C137.656 13.288 138.056 12.584 138.584 11.96C139.112 11.32 139.768 10.816 140.552 10.448C141.352 10.064 142.272 9.872 143.312 9.872C144.368 9.872 145.304 10.064 146.12 10.448C146.952 10.832 147.624 11.376 148.136 12.08C148.648 12.784 148.952 13.616 149.048 14.576H147.32C147.176 13.696 146.76 12.968 146.072 12.392C145.4 11.8 144.48 11.504 143.312 11.504C142.304 11.504 141.464 11.736 140.792 12.2C140.136 12.648 139.64 13.264 139.304 14.048C138.968 14.816 138.8 15.672 138.8 16.616C138.8 17.544 138.968 18.408 139.304 19.208C139.64 19.992 140.144 20.624 140.816 21.104C141.488 21.568 142.336 21.8 143.36 21.8C144.144 21.8 144.824 21.664 145.4 21.392C145.992 21.104 146.464 20.72 146.816 20.24C147.184 19.76 147.4 19.232 147.464 18.656H149.192C149.128 19.616 148.824 20.456 148.28 21.176C147.752 21.88 147.064 22.432 146.216 22.832C145.368 23.216 144.416 23.408 143.36 23.408ZM152.492 23V5.48H154.292V15.392L153.764 15.8C153.764 14.616 153.932 13.584 154.268 12.704C154.62 11.824 155.14 11.144 155.828 10.664C156.532 10.168 157.412 9.92 158.468 9.92H158.564C160.1 9.92 161.26 10.424 162.044 11.432C162.844 12.44 163.244 13.84 163.244 15.632V23H161.468V15.248C161.468 14.112 161.156 13.216 160.532 12.56C159.908 11.904 159.068 11.576 158.012 11.576C156.876 11.576 155.972 11.944 155.3 12.68C154.628 13.4 154.292 14.352 154.292 15.536V23H152.492ZM168.398 23V10.304H170.174V23H168.398ZM166.358 11.744V10.304H170.174V11.744H166.358ZM168.782 7.952C168.35 7.952 168.022 7.84 167.798 7.616C167.59 7.376 167.486 7.08 167.486 6.728C167.486 6.376 167.59 6.088 167.798 5.864C168.022 5.624 168.35 5.504 168.782 5.504C169.214 5.504 169.534 5.624 169.742 5.864C169.95 6.088 170.054 6.376 170.054 6.728C170.054 7.08 169.95 7.376 169.742 7.616C169.534 7.84 169.214 7.952 168.782 7.952ZM179.506 23.144C178.626 23.144 177.866 23.016 177.226 22.76C176.586 22.504 176.09 22.072 175.738 21.464C175.386 20.84 175.21 20.008 175.21 18.968V6.296H176.938V19.232C176.938 19.968 177.138 20.536 177.538 20.936C177.938 21.32 178.506 21.512 179.242 21.512H181.522V23.144H179.506ZM172.93 11.672V10.304H181.522V11.672H172.93ZM190.187 23.408C189.099 23.408 188.155 23.224 187.355 22.856C186.555 22.472 185.899 21.968 185.387 21.344C184.875 20.704 184.491 19.992 184.235 19.208C183.995 18.424 183.875 17.616 183.875 16.784V16.448C183.875 15.632 183.995 14.832 184.235 14.048C184.491 13.264 184.875 12.56 185.387 11.936C185.899 11.312 186.539 10.816 187.307 10.448C188.091 10.064 189.003 9.872 190.043 9.872C191.371 9.872 192.475 10.168 193.355 10.76C194.251 11.352 194.923 12.112 195.371 13.04C195.819 13.952 196.043 14.936 196.043 15.992V16.928H184.691V15.536H194.795L194.339 16.232C194.339 15.288 194.171 14.464 193.835 13.76C193.515 13.04 193.035 12.48 192.395 12.08C191.771 11.664 190.987 11.456 190.043 11.456C189.051 11.456 188.227 11.688 187.571 12.152C186.915 12.616 186.419 13.232 186.083 14C185.763 14.768 185.603 15.64 185.603 16.616C185.603 17.576 185.763 18.456 186.083 19.256C186.419 20.04 186.923 20.664 187.595 21.128C188.283 21.592 189.147 21.824 190.187 21.824C191.291 21.824 192.187 21.576 192.875 21.08C193.563 20.568 193.987 19.968 194.147 19.28H195.827C195.667 20.128 195.331 20.864 194.819 21.488C194.307 22.096 193.659 22.568 192.875 22.904C192.091 23.24 191.195 23.408 190.187 23.408ZM204.86 23.408C203.788 23.408 202.852 23.224 202.052 22.856C201.268 22.472 200.612 21.96 200.084 21.32C199.556 20.664 199.156 19.944 198.884 19.16C198.628 18.376 198.5 17.584 198.5 16.784V16.448C198.5 15.632 198.628 14.84 198.884 14.072C199.156 13.288 199.556 12.584 200.084 11.96C200.612 11.32 201.268 10.816 202.052 10.448C202.852 10.064 203.772 9.872 204.812 9.872C205.868 9.872 206.804 10.064 207.62 10.448C208.452 10.832 209.124 11.376 209.636 12.08C210.148 12.784 210.452 13.616 210.548 14.576H208.82C208.676 13.696 208.26 12.968 207.572 12.392C206.9 11.8 205.98 11.504 204.812 11.504C203.804 11.504 202.964 11.736 202.292 12.2C201.636 12.648 201.14 13.264 200.804 14.048C200.468 14.816 200.3 15.672 200.3 16.616C200.3 17.544 200.468 18.408 200.804 19.208C201.14 19.992 201.644 20.624 202.316 21.104C202.988 21.568 203.836 21.8 204.86 21.8C205.644 21.8 206.324 21.664 206.9 21.392C207.492 21.104 207.964 20.72 208.316 20.24C208.684 19.76 208.9 19.232 208.964 18.656H210.692C210.628 19.616 210.324 20.456 209.78 21.176C209.252 21.88 208.564 22.432 207.716 22.832C206.868 23.216 205.916 23.408 204.86 23.408ZM218.6 23.144C217.72 23.144 216.96 23.016 216.32 22.76C215.68 22.504 215.184 22.072 214.832 21.464C214.48 20.84 214.304 20.008 214.304 18.968V6.296H216.032V19.232C216.032 19.968 216.232 20.536 216.632 20.936C217.032 21.32 217.6 21.512 218.336 21.512H220.616V23.144H218.6ZM212.024 11.672V10.304H220.616V11.672H212.024ZM228.486 23.36C226.966 23.36 225.806 22.872 225.006 21.896C224.206 20.904 223.806 19.528 223.806 17.768V10.28H225.582V18.128C225.582 19.232 225.87 20.112 226.446 20.768C227.038 21.408 227.854 21.728 228.894 21.728C229.982 21.728 230.846 21.384 231.486 20.696C232.142 20.008 232.47 19.088 232.47 17.936V10.28H234.27V23H232.83V17.696H233.118C233.118 18.88 232.95 19.896 232.614 20.744C232.278 21.576 231.774 22.224 231.102 22.688C230.43 23.136 229.582 23.36 228.558 23.36H228.486ZM238.976 23V10.304H240.416V15.608H240.272C240.272 13.752 240.68 12.384 241.496 11.504C242.312 10.608 243.592 10.16 245.336 10.16H245.744V11.792H245C243.624 11.792 242.576 12.152 241.856 12.872C241.136 13.576 240.776 14.616 240.776 15.992V23H238.976ZM253.796 23.408C252.708 23.408 251.764 23.224 250.964 22.856C250.164 22.472 249.508 21.968 248.996 21.344C248.484 20.704 248.1 19.992 247.844 19.208C247.604 18.424 247.484 17.616 247.484 16.784V16.448C247.484 15.632 247.604 14.832 247.844 14.048C248.1 13.264 248.484 12.56 248.996 11.936C249.508 11.312 250.148 10.816 250.916 10.448C251.7 10.064 252.612 9.872 253.652 9.872C254.98 9.872 256.084 10.168 256.964 10.76C257.86 11.352 258.532 12.112 258.98 13.04C259.428 13.952 259.652 14.936 259.652 15.992V16.928H248.3V15.536H258.404L257.948 16.232C257.948 15.288 257.78 14.464 257.444 13.76C257.124 13.04 256.644 12.48 256.004 12.08C255.38 11.664 254.596 11.456 253.652 11.456C252.66 11.456 251.836 11.688 251.18 12.152C250.524 12.616 250.028 13.232 249.692 14C249.372 14.768 249.212 15.64 249.212 16.616C249.212 17.576 249.372 18.456 249.692 19.256C250.028 20.04 250.532 20.664 251.204 21.128C251.892 21.592 252.756 21.824 253.796 21.824C254.9 21.824 255.796 21.576 256.484 21.08C257.172 20.568 257.596 19.968 257.756 19.28H259.436C259.276 20.128 258.94 20.864 258.428 21.488C257.916 22.096 257.268 22.568 256.484 22.904C255.7 23.24 254.804 23.408 253.796 23.408Z" fill="url(#paint0_radial_193_613)"/>
<path d="M3.76 65L0.528 53.32H1.776L4.704 64.216L4.144 63.896H5.696L5.088 64.216L7.472 53.832H8.624L6 65H3.76ZM10.784 65L7.904 53.832H9.088L11.744 64.216L11.152 63.896H12.736L12.128 64.216L14.768 53.32H15.984L13.024 65H10.784ZM21.2599 65.272C20.5345 65.272 19.9052 65.1493 19.3719 64.904C18.8385 64.648 18.4012 64.312 18.0599 63.896C17.7185 63.4693 17.4625 62.9947 17.2919 62.472C17.1319 61.9493 17.0519 61.4107 17.0519 60.856V60.632C17.0519 60.088 17.1319 59.5547 17.2919 59.032C17.4625 58.5093 17.7185 58.04 18.0599 57.624C18.4012 57.208 18.8279 56.8773 19.3399 56.632C19.8625 56.376 20.4705 56.248 21.1639 56.248C22.0492 56.248 22.7852 56.4453 23.3719 56.84C23.9692 57.2347 24.4172 57.7413 24.7159 58.36C25.0145 58.968 25.1639 59.624 25.1639 60.328V60.952H17.5959V60.024H24.3319L24.0279 60.488C24.0279 59.8587 23.9159 59.3093 23.6919 58.84C23.4785 58.36 23.1585 57.9867 22.7319 57.72C22.3159 57.4427 21.7932 57.304 21.1639 57.304C20.5025 57.304 19.9532 57.4587 19.5159 57.768C19.0785 58.0773 18.7479 58.488 18.5239 59C18.3105 59.512 18.2039 60.0933 18.2039 60.744C18.2039 61.384 18.3105 61.9707 18.5239 62.504C18.7479 63.0267 19.0839 63.4427 19.5319 63.752C19.9905 64.0613 20.5665 64.216 21.2599 64.216C21.9959 64.216 22.5932 64.0507 23.0519 63.72C23.5105 63.3787 23.7932 62.9787 23.8999 62.52H25.0199C24.9132 63.0853 24.6892 63.576 24.3479 63.992C24.0065 64.3973 23.5745 64.712 23.0519 64.936C22.5292 65.16 21.9319 65.272 21.2599 65.272ZM34.6803 65.272C34.0616 65.272 33.4963 65.16 32.9843 64.936C32.4829 64.7013 32.0456 64.3813 31.6723 63.976C31.3096 63.56 31.0269 63.0907 30.8243 62.568C30.6323 62.0347 30.5363 61.4693 30.5363 60.872V60.648C30.5363 60.072 30.6323 59.5227 30.8243 59C31.0163 58.4667 31.2883 57.9973 31.6403 57.592C32.0029 57.176 32.4349 56.8507 32.9363 56.616C33.4483 56.3707 34.0189 56.248 34.6483 56.248C35.3629 56.248 35.9923 56.4027 36.5363 56.712C37.0803 57.0213 37.5176 57.4693 37.8483 58.056C38.1789 58.632 38.3549 59.3413 38.3763 60.184L37.8483 59.192V53.32H39.0483V65H38.0883V61.24H38.4722C38.4509 62.1253 38.2643 62.872 37.9123 63.48C37.5709 64.0773 37.1176 64.5253 36.5523 64.824C35.9976 65.1227 35.3736 65.272 34.6803 65.272ZM34.8403 64.216C35.4163 64.216 35.9336 64.088 36.3923 63.832C36.8616 63.576 37.2296 63.2133 37.4963 62.744C37.7629 62.264 37.8963 61.7147 37.8963 61.096V60.328C37.8963 59.7307 37.7629 59.208 37.4963 58.76C37.2296 58.3013 36.8616 57.944 36.3923 57.688C35.9336 57.432 35.4109 57.304 34.8243 57.304C34.1949 57.304 33.6456 57.4587 33.1763 57.768C32.7176 58.0667 32.3603 58.4773 32.1043 59C31.8589 59.5227 31.7363 60.1093 31.7363 60.76C31.7363 61.432 31.8643 62.0293 32.1203 62.552C32.3763 63.0747 32.7389 63.4853 33.2083 63.784C33.6776 64.072 34.2216 64.216 34.8403 64.216ZM45.6818 65.272C44.9564 65.272 44.3271 65.1493 43.7938 64.904C43.2604 64.648 42.8231 64.312 42.4818 63.896C42.1404 63.4693 41.8844 62.9947 41.7138 62.472C41.5538 61.9493 41.4738 61.4107 41.4738 60.856V60.632C41.4738 60.088 41.5538 59.5547 41.7138 59.032C41.8844 58.5093 42.1404 58.04 42.4818 57.624C42.8231 57.208 43.2498 56.8773 43.7618 56.632C44.2844 56.376 44.8924 56.248 45.5858 56.248C46.4711 56.248 47.2071 56.4453 47.7938 56.84C48.3911 57.2347 48.8391 57.7413 49.1378 58.36C49.4364 58.968 49.5858 59.624 49.5858 60.328V60.952H42.0178V60.024H48.7538L48.4498 60.488C48.4498 59.8587 48.3378 59.3093 48.1138 58.84C47.9004 58.36 47.5804 57.9867 47.1538 57.72C46.7378 57.4427 46.2151 57.304 45.5858 57.304C44.9244 57.304 44.3751 57.4587 43.9378 57.768C43.5004 58.0773 43.1698 58.488 42.9457 59C42.7324 59.512 42.6258 60.0933 42.6258 60.744C42.6258 61.384 42.7324 61.9707 42.9457 62.504C43.1698 63.0267 43.5058 63.4427 43.9538 63.752C44.4124 64.0613 44.9884 64.216 45.6818 64.216C46.4178 64.216 47.0151 64.0507 47.4738 63.72C47.9324 63.3787 48.2151 62.9787 48.3218 62.52H49.4418C49.3351 63.0853 49.1111 63.576 48.7698 63.992C48.4284 64.3973 47.9964 64.712 47.4738 64.936C46.9511 65.16 46.3538 65.272 45.6818 65.272ZM54.5677 65.24C53.4797 65.24 52.6424 65.0053 52.0558 64.536C51.4691 64.056 51.1704 63.416 51.1598 62.616H52.2798C52.3011 63.0213 52.4824 63.3893 52.8238 63.72C53.1758 64.0507 53.7571 64.216 54.5677 64.216C55.3251 64.216 55.8904 64.0613 56.2638 63.752C56.6478 63.432 56.8398 63.048 56.8398 62.6C56.8398 62.184 56.6798 61.864 56.3598 61.64C56.0504 61.4053 55.5971 61.256 54.9998 61.192L54.0398 61.096C53.2718 61.0107 52.6478 60.776 52.1678 60.392C51.6984 59.9973 51.4638 59.4587 51.4638 58.776C51.4638 58.2747 51.5918 57.8373 51.8478 57.464C52.1038 57.0907 52.4611 56.8027 52.9198 56.6C53.3891 56.3867 53.9384 56.28 54.5677 56.28C55.4744 56.28 56.2104 56.4933 56.7758 56.92C57.3518 57.3467 57.6451 57.9547 57.6558 58.744H56.5358C56.5251 58.3387 56.3544 57.9973 56.0238 57.72C55.6931 57.4427 55.2078 57.304 54.5677 57.304C53.9064 57.304 53.4104 57.448 53.0798 57.736C52.7598 58.024 52.5998 58.376 52.5998 58.792C52.5998 59.144 52.7224 59.4373 52.9678 59.672C53.2131 59.896 53.5971 60.0347 54.1198 60.088L55.0798 60.184C55.9331 60.28 56.6264 60.5253 57.1598 60.92C57.7038 61.3147 57.9758 61.88 57.9758 62.616C57.9758 63.1173 57.8318 63.5707 57.5438 63.976C57.2664 64.3707 56.8718 64.68 56.3598 64.904C55.8478 65.128 55.2504 65.24 54.5677 65.24ZM60.8125 65V56.536H61.9965V65H60.8125ZM59.4525 57.496V56.536H61.9965V57.496H59.4525ZM61.0685 54.968C60.7805 54.968 60.5618 54.8933 60.4125 54.744C60.2738 54.584 60.2045 54.3867 60.2045 54.152C60.2045 53.9173 60.2738 53.7253 60.4125 53.576C60.5618 53.416 60.7805 53.336 61.0685 53.336C61.3565 53.336 61.5698 53.416 61.7085 53.576C61.8472 53.7253 61.9165 53.9173 61.9165 54.152C61.9165 54.3867 61.8472 54.584 61.7085 54.744C61.5698 54.8933 61.3565 54.968 61.0685 54.968ZM68.3778 68.312C67.9831 68.312 67.5831 68.2907 67.1778 68.248C66.7831 68.216 66.4044 68.1733 66.0418 68.12V67.096C66.4258 67.1493 66.8258 67.192 67.2418 67.224C67.6684 67.2667 68.0684 67.288 68.4418 67.288C69.2524 67.288 69.8978 67.1813 70.3778 66.968C70.8578 66.7547 71.1991 66.4133 71.4018 65.944C71.6151 65.4853 71.7218 64.8773 71.7218 64.12V62.424L72.1698 61.24C72.1484 62.0507 71.9778 62.7493 71.6578 63.336C71.3378 63.912 70.9058 64.3547 70.3618 64.664C69.8178 64.9733 69.1991 65.128 68.5058 65.128C67.8978 65.128 67.3431 65.0107 66.8418 64.776C66.3511 64.5413 65.9298 64.2213 65.5778 63.816C65.2258 63.4 64.9538 62.9307 64.7618 62.408C64.5698 61.8853 64.4738 61.336 64.4738 60.76V60.536C64.4738 59.9707 64.5698 59.432 64.7618 58.92C64.9538 58.3973 65.2258 57.9387 65.5778 57.544C65.9298 57.1387 66.3564 56.824 66.8578 56.6C67.3698 56.3653 67.9351 56.248 68.5538 56.248C69.3004 56.248 69.9511 56.4133 70.5058 56.744C71.0604 57.0747 71.4924 57.5333 71.8018 58.12C72.1218 58.7067 72.2924 59.3947 72.3138 60.184L71.9298 59.976V56.536H72.8738V64.072C72.8738 65.0853 72.7244 65.9013 72.4258 66.52C72.1271 67.1387 71.6471 67.592 70.9858 67.88C70.3351 68.168 69.4658 68.312 68.3778 68.312ZM68.7138 64.024C69.2898 64.024 69.8018 63.9013 70.2498 63.656C70.7084 63.4 71.0711 63.0427 71.3378 62.584C71.6044 62.1253 71.7378 61.592 71.7378 60.984V60.2C71.7378 59.6133 71.5991 59.1013 71.3218 58.664C71.0551 58.2267 70.6978 57.8853 70.2498 57.64C69.8018 57.3947 69.2898 57.272 68.7138 57.272C68.0951 57.272 67.5564 57.4213 67.0978 57.72C66.6391 58.0187 66.2871 58.424 66.0418 58.936C65.7964 59.4373 65.6738 60.008 65.6738 60.648C65.6738 61.2987 65.7964 61.88 66.0418 62.392C66.2978 62.904 66.6551 63.304 67.1138 63.592C67.5724 63.88 68.1058 64.024 68.7138 64.024ZM75.8801 65V56.536H76.8401V60.088H76.6481C76.6481 59.2987 76.7655 58.6213 77.0001 58.056C77.2348 57.4907 77.5868 57.0533 78.0561 56.744C78.5255 56.4347 79.1175 56.28 79.8321 56.28H79.8801C80.9468 56.28 81.7415 56.616 82.2641 57.288C82.7868 57.9493 83.0481 58.8827 83.0481 60.088V65H81.8641V59.832C81.8641 59.096 81.6615 58.504 81.2561 58.056C80.8508 57.608 80.2855 57.384 79.5601 57.384C78.8135 57.384 78.2108 57.6187 77.7521 58.088C77.3041 58.5467 77.0801 59.1547 77.0801 59.912V65H75.8801ZM90.2188 65V56.536H91.4028V65H90.2188ZM88.8588 57.496V56.536H91.4028V57.496H88.8588ZM90.4748 54.968C90.1868 54.968 89.9681 54.8933 89.8188 54.744C89.6801 54.584 89.6108 54.3867 89.6108 54.152C89.6108 53.9173 89.6801 53.7253 89.8188 53.576C89.9681 53.416 90.1868 53.336 90.4748 53.336C90.7628 53.336 90.9761 53.416 91.1148 53.576C91.2534 53.7253 91.3228 53.9173 91.3228 54.152C91.3228 54.3867 91.2534 54.584 91.1148 54.744C90.9761 54.8933 90.7628 54.968 90.4748 54.968ZM94.552 65V56.536H95.512V60.088H95.32C95.32 59.2987 95.4373 58.6213 95.672 58.056C95.9067 57.4907 96.2587 57.0533 96.728 56.744C97.1973 56.4347 97.7893 56.28 98.504 56.28H98.552C99.6187 56.28 100.413 56.616 100.936 57.288C101.459 57.9493 101.72 58.8827 101.72 60.088V65H100.536V59.832C100.536 59.096 100.333 58.504 99.928 58.056C99.5227 57.608 98.9573 57.384 98.232 57.384C97.4853 57.384 96.8827 57.6187 96.424 58.088C95.976 58.5467 95.752 59.1547 95.752 59.912V65H94.552ZM107.78 65.096C107.194 65.096 106.687 65.0107 106.26 64.84C105.834 64.6693 105.503 64.3813 105.268 63.976C105.034 63.56 104.916 63.0053 104.916 62.312V53.864H106.068V62.488C106.068 62.9787 106.202 63.3573 106.468 63.624C106.735 63.88 107.114 64.008 107.604 64.008H109.124V65.096H107.78ZM103.396 57.448V56.536H109.124V57.448H103.396ZM114.901 65.272C114.175 65.272 113.546 65.1493 113.013 64.904C112.479 64.648 112.042 64.312 111.701 63.896C111.359 63.4693 111.103 62.9947 110.933 62.472C110.773 61.9493 110.693 61.4107 110.693 60.856V60.632C110.693 60.088 110.773 59.5547 110.933 59.032C111.103 58.5093 111.359 58.04 111.701 57.624C112.042 57.208 112.469 56.8773 112.981 56.632C113.503 56.376 114.111 56.248 114.805 56.248C115.69 56.248 116.426 56.4453 117.013 56.84C117.61 57.2347 118.058 57.7413 118.357 58.36C118.655 58.968 118.805 59.624 118.805 60.328V60.952H111.237V60.024H117.973L117.669 60.488C117.669 59.8587 117.557 59.3093 117.333 58.84C117.119 58.36 116.799 57.9867 116.373 57.72C115.957 57.4427 115.434 57.304 114.805 57.304C114.143 57.304 113.594 57.4587 113.157 57.768C112.719 58.0773 112.389 58.488 112.164 59C111.951 59.512 111.845 60.0933 111.845 60.744C111.845 61.384 111.951 61.9707 112.164 62.504C112.389 63.0267 112.725 63.4427 113.173 63.752C113.631 64.0613 114.207 64.216 114.901 64.216C115.637 64.216 116.234 64.0507 116.693 63.72C117.151 63.3787 117.434 62.9787 117.541 62.52H118.661C118.554 63.0853 118.33 63.576 117.989 63.992C117.647 64.3973 117.215 64.712 116.693 64.936C116.17 65.16 115.573 65.272 114.901 65.272ZM121.195 65V53.32H122.395V65H121.195ZM119.963 54.296V53.32H122.395V54.296H119.963ZM125.585 65V53.32H126.785V65H125.585ZM124.353 54.296V53.32H126.785V54.296H124.353ZM130.344 65V56.536H131.528V65H130.344ZM128.984 57.496V56.536H131.528V57.496H128.984ZM130.6 54.968C130.312 54.968 130.093 54.8933 129.944 54.744C129.805 54.584 129.736 54.3867 129.736 54.152C129.736 53.9173 129.805 53.7253 129.944 53.576C130.093 53.416 130.312 53.336 130.6 53.336C130.888 53.336 131.101 53.416 131.24 53.576C131.378 53.7253 131.448 53.9173 131.448 54.152C131.448 54.3867 131.378 54.584 131.24 54.744C131.101 54.8933 130.888 54.968 130.6 54.968ZM137.909 68.312C137.514 68.312 137.114 68.2907 136.709 68.248C136.314 68.216 135.936 68.1733 135.573 68.12V67.096C135.957 67.1493 136.357 67.192 136.773 67.224C137.2 67.2667 137.6 67.288 137.973 67.288C138.784 67.288 139.429 67.1813 139.909 66.968C140.389 66.7547 140.73 66.4133 140.933 65.944C141.146 65.4853 141.253 64.8773 141.253 64.12V62.424L141.701 61.24C141.68 62.0507 141.509 62.7493 141.189 63.336C140.869 63.912 140.437 64.3547 139.893 64.664C139.349 64.9733 138.73 65.128 138.037 65.128C137.429 65.128 136.874 65.0107 136.373 64.776C135.882 64.5413 135.461 64.2213 135.109 63.816C134.757 63.4 134.485 62.9307 134.293 62.408C134.101 61.8853 134.005 61.336 134.005 60.76V60.536C134.005 59.9707 134.101 59.432 134.293 58.92C134.485 58.3973 134.757 57.9387 135.109 57.544C135.461 57.1387 135.888 56.824 136.389 56.6C136.901 56.3653 137.466 56.248 138.085 56.248C138.832 56.248 139.482 56.4133 140.037 56.744C140.592 57.0747 141.024 57.5333 141.333 58.12C141.653 58.7067 141.824 59.3947 141.845 60.184L141.461 59.976V56.536H142.405V64.072C142.405 65.0853 142.256 65.9013 141.957 66.52C141.658 67.1387 141.178 67.592 140.517 67.88C139.866 68.168 138.997 68.312 137.909 68.312ZM138.245 64.024C138.821 64.024 139.333 63.9013 139.781 63.656C140.24 63.4 140.602 63.0427 140.869 62.584C141.136 62.1253 141.269 61.592 141.269 60.984V60.2C141.269 59.6133 141.13 59.1013 140.853 58.664C140.586 58.2267 140.229 57.8853 139.781 57.64C139.333 57.3947 138.821 57.272 138.245 57.272C137.626 57.272 137.088 57.4213 136.629 57.72C136.17 58.0187 135.818 58.424 135.573 58.936C135.328 59.4373 135.205 60.008 135.205 60.648C135.205 61.2987 135.328 61.88 135.573 62.392C135.829 62.904 136.186 63.304 136.645 63.592C137.104 63.88 137.637 64.024 138.245 64.024ZM148.947 65.272C148.222 65.272 147.593 65.1493 147.059 64.904C146.526 64.648 146.089 64.312 145.747 63.896C145.406 63.4693 145.15 62.9947 144.979 62.472C144.819 61.9493 144.739 61.4107 144.739 60.856V60.632C144.739 60.088 144.819 59.5547 144.979 59.032C145.15 58.5093 145.406 58.04 145.747 57.624C146.089 57.208 146.515 56.8773 147.027 56.632C147.55 56.376 148.158 56.248 148.851 56.248C149.737 56.248 150.473 56.4453 151.059 56.84C151.657 57.2347 152.105 57.7413 152.403 58.36C152.702 58.968 152.851 59.624 152.851 60.328V60.952H145.283V60.024H152.019L151.715 60.488C151.715 59.8587 151.603 59.3093 151.379 58.84C151.166 58.36 150.846 57.9867 150.419 57.72C150.003 57.4427 149.481 57.304 148.851 57.304C148.19 57.304 147.641 57.4587 147.203 57.768C146.766 58.0773 146.435 58.488 146.211 59C145.998 59.512 145.891 60.0933 145.891 60.744C145.891 61.384 145.998 61.9707 146.211 62.504C146.435 63.0267 146.771 63.4427 147.219 63.752C147.678 64.0613 148.254 64.216 148.947 64.216C149.683 64.216 150.281 64.0507 150.739 63.72C151.198 63.3787 151.481 62.9787 151.587 62.52H152.707C152.601 63.0853 152.377 63.576 152.035 63.992C151.694 64.3973 151.262 64.712 150.739 64.936C150.217 65.16 149.619 65.272 148.947 65.272ZM155.161 65V56.536H156.121V60.088H155.929C155.929 59.2987 156.047 58.6213 156.281 58.056C156.516 57.4907 156.868 57.0533 157.337 56.744C157.807 56.4347 158.399 56.28 159.113 56.28H159.161C160.228 56.28 161.023 56.616 161.545 57.288C162.068 57.9493 162.329 58.8827 162.329 60.088V65H161.145V59.832C161.145 59.096 160.943 58.504 160.537 58.056C160.132 57.608 159.567 57.384 158.841 57.384C158.095 57.384 157.492 57.6187 157.033 58.088C156.585 58.5467 156.361 59.1547 156.361 59.912V65H155.161ZM168.39 65.096C167.803 65.096 167.296 65.0107 166.87 64.84C166.443 64.6693 166.112 64.3813 165.878 63.976C165.643 63.56 165.526 63.0053 165.526 62.312V53.864H166.678V62.488C166.678 62.9787 166.811 63.3573 167.078 63.624C167.344 63.88 167.723 64.008 168.214 64.008H169.734V65.096H168.39ZM164.006 57.448V56.536H169.734V57.448H164.006ZM179.258 65.272C178.64 65.272 178.074 65.16 177.562 64.936C177.061 64.7013 176.624 64.3813 176.25 63.976C175.888 63.56 175.605 63.0907 175.402 62.568C175.21 62.0347 175.114 61.4693 175.114 60.872V60.648C175.114 60.072 175.21 59.5227 175.402 59C175.594 58.4667 175.866 57.9973 176.218 57.592C176.581 57.176 177.013 56.8507 177.514 56.616C178.026 56.3707 178.597 56.248 179.226 56.248C179.941 56.248 180.57 56.4027 181.114 56.712C181.658 57.0213 182.096 57.4693 182.426 58.056C182.757 58.632 182.933 59.3413 182.954 60.184L182.426 59.192V53.32H183.626V65H182.666V61.24H183.05C183.029 62.1253 182.842 62.872 182.49 63.48C182.149 64.0773 181.696 64.5253 181.13 64.824C180.576 65.1227 179.952 65.272 179.258 65.272ZM179.418 64.216C179.994 64.216 180.512 64.088 180.97 63.832C181.44 63.576 181.808 63.2133 182.074 62.744C182.341 62.264 182.474 61.7147 182.474 61.096V60.328C182.474 59.7307 182.341 59.208 182.074 58.76C181.808 58.3013 181.44 57.944 180.97 57.688C180.512 57.432 179.989 57.304 179.402 57.304C178.773 57.304 178.224 57.4587 177.754 57.768C177.296 58.0667 176.938 58.4773 176.682 59C176.437 59.5227 176.314 60.1093 176.314 60.76C176.314 61.432 176.442 62.0293 176.698 62.552C176.954 63.0747 177.317 63.4853 177.786 63.784C178.256 64.072 178.8 64.216 179.418 64.216ZM187.172 65V56.536H188.356V65H187.172ZM185.812 57.496V56.536H188.356V57.496H185.812ZM187.428 54.968C187.14 54.968 186.921 54.8933 186.772 54.744C186.633 54.584 186.564 54.3867 186.564 54.152C186.564 53.9173 186.633 53.7253 186.772 53.576C186.921 53.416 187.14 53.336 187.428 53.336C187.716 53.336 187.929 53.416 188.068 53.576C188.207 53.7253 188.276 53.9173 188.276 54.152C188.276 54.3867 188.207 54.584 188.068 54.744C187.929 54.8933 187.716 54.968 187.428 54.968ZM194.737 68.312C194.342 68.312 193.942 68.2907 193.537 68.248C193.142 68.216 192.764 68.1733 192.401 68.12V67.096C192.785 67.1493 193.185 67.192 193.601 67.224C194.028 67.2667 194.428 67.288 194.801 67.288C195.612 67.288 196.257 67.1813 196.737 66.968C197.217 66.7547 197.558 66.4133 197.761 65.944C197.974 65.4853 198.081 64.8773 198.081 64.12V62.424L198.529 61.24C198.508 62.0507 198.337 62.7493 198.017 63.336C197.697 63.912 197.265 64.3547 196.721 64.664C196.177 64.9733 195.558 65.128 194.865 65.128C194.257 65.128 193.702 65.0107 193.201 64.776C192.71 64.5413 192.289 64.2213 191.937 63.816C191.585 63.4 191.313 62.9307 191.121 62.408C190.929 61.8853 190.833 61.336 190.833 60.76V60.536C190.833 59.9707 190.929 59.432 191.121 58.92C191.313 58.3973 191.585 57.9387 191.937 57.544C192.289 57.1387 192.716 56.824 193.217 56.6C193.729 56.3653 194.294 56.248 194.913 56.248C195.66 56.248 196.31 56.4133 196.865 56.744C197.42 57.0747 197.852 57.5333 198.161 58.12C198.481 58.7067 198.652 59.3947 198.673 60.184L198.289 59.976V56.536H199.233V64.072C199.233 65.0853 199.084 65.9013 198.785 66.52C198.486 67.1387 198.006 67.592 197.345 67.88C196.694 68.168 195.825 68.312 194.737 68.312ZM195.073 64.024C195.649 64.024 196.161 63.9013 196.609 63.656C197.068 63.4 197.43 63.0427 197.697 62.584C197.964 62.1253 198.097 61.592 198.097 60.984V60.2C198.097 59.6133 197.958 59.1013 197.681 58.664C197.414 58.2267 197.057 57.8853 196.609 57.64C196.161 57.3947 195.649 57.272 195.073 57.272C194.454 57.272 193.916 57.4213 193.457 57.72C192.998 58.0187 192.646 58.424 192.401 58.936C192.156 59.4373 192.033 60.008 192.033 60.648C192.033 61.2987 192.156 61.88 192.401 62.392C192.657 62.904 193.014 63.304 193.473 63.592C193.932 63.88 194.465 64.024 195.073 64.024ZM202.688 65V56.536H203.872V65H202.688ZM201.328 57.496V56.536H203.872V57.496H201.328ZM202.944 54.968C202.656 54.968 202.437 54.8933 202.288 54.744C202.149 54.584 202.08 54.3867 202.08 54.152C202.08 53.9173 202.149 53.7253 202.288 53.576C202.437 53.416 202.656 53.336 202.944 53.336C203.232 53.336 203.445 53.416 203.584 53.576C203.722 53.7253 203.792 53.9173 203.792 54.152C203.792 54.3867 203.722 54.584 203.584 54.744C203.445 54.8933 203.232 54.968 202.944 54.968ZM210.093 65.096C209.506 65.096 208.999 65.0107 208.573 64.84C208.146 64.6693 207.815 64.3813 207.581 63.976C207.346 63.56 207.229 63.0053 207.229 62.312V53.864H208.381V62.488C208.381 62.9787 208.514 63.3573 208.781 63.624C209.047 63.88 209.426 64.008 209.917 64.008H211.437V65.096H210.093ZM205.709 57.448V56.536H211.437V57.448H205.709ZM218.876 65V62.456H218.684V59.448C218.684 58.8187 218.519 58.3387 218.188 58.008C217.857 57.6667 217.345 57.496 216.652 57.496C216.332 57.496 216.007 57.5013 215.676 57.512C215.356 57.5227 215.047 57.5387 214.748 57.56C214.46 57.5707 214.204 57.5867 213.98 57.608V56.552C214.215 56.5307 214.455 56.5093 214.7 56.488C214.945 56.4667 215.196 56.456 215.452 56.456C215.719 56.4453 215.975 56.44 216.22 56.44C217.084 56.44 217.777 56.5467 218.3 56.76C218.833 56.9733 219.223 57.3093 219.468 57.768C219.713 58.216 219.836 58.8133 219.836 59.56V65H218.876ZM216.012 65.224C215.415 65.224 214.887 65.1173 214.428 64.904C213.969 64.6907 213.612 64.3813 213.356 63.976C213.111 63.5707 212.988 63.08 212.988 62.504C212.988 61.9387 213.116 61.4587 213.372 61.064C213.639 60.6693 214.017 60.3707 214.508 60.168C215.009 59.9547 215.612 59.848 216.316 59.848H218.796V60.76H216.236C215.564 60.76 215.047 60.9253 214.684 61.256C214.332 61.576 214.156 61.9973 214.156 62.52C214.156 63.0533 214.343 63.48 214.716 63.8C215.089 64.1093 215.596 64.264 216.236 64.264C216.631 64.264 217.009 64.1947 217.372 64.056C217.735 63.9067 218.039 63.6613 218.284 63.32C218.529 62.968 218.663 62.488 218.684 61.88L219.036 62.376C218.993 63.0053 218.844 63.5333 218.588 63.96C218.332 64.376 217.985 64.6907 217.548 64.904C217.111 65.1173 216.599 65.224 216.012 65.224ZM222.913 65V53.32H224.113V65H222.913ZM221.681 54.296V53.32H224.113V54.296H221.681ZM233.63 65.24C232.542 65.24 231.705 65.0053 231.118 64.536C230.532 64.056 230.233 63.416 230.222 62.616H231.342C231.364 63.0213 231.545 63.3893 231.886 63.72C232.238 64.0507 232.82 64.216 233.63 64.216C234.388 64.216 234.953 64.0613 235.326 63.752C235.71 63.432 235.902 63.048 235.902 62.6C235.902 62.184 235.742 61.864 235.422 61.64C235.113 61.4053 234.66 61.256 234.062 61.192L233.102 61.096C232.334 61.0107 231.71 60.776 231.23 60.392C230.761 59.9973 230.526 59.4587 230.526 58.776C230.526 58.2747 230.654 57.8373 230.91 57.464C231.166 57.0907 231.524 56.8027 231.982 56.6C232.452 56.3867 233.001 56.28 233.63 56.28C234.537 56.28 235.273 56.4933 235.838 56.92C236.414 57.3467 236.708 57.9547 236.718 58.744H235.598C235.588 58.3387 235.417 57.9973 235.086 57.72C234.756 57.4427 234.27 57.304 233.63 57.304C232.969 57.304 232.473 57.448 232.142 57.736C231.822 58.024 231.662 58.376 231.662 58.792C231.662 59.144 231.785 59.4373 232.03 59.672C232.276 59.896 232.66 60.0347 233.182 60.088L234.142 60.184C234.996 60.28 235.689 60.5253 236.222 60.92C236.766 61.3147 237.038 61.88 237.038 62.616C237.038 63.1173 236.894 63.5707 236.606 63.976C236.329 64.3707 235.934 64.68 235.422 64.904C234.91 65.128 234.313 65.24 233.63 65.24ZM238.628 68.296V67.224H239.716C240.089 67.224 240.409 67.176 240.676 67.08C240.943 66.9947 241.167 66.84 241.348 66.616C241.529 66.392 241.684 66.0827 241.812 65.688L244.66 56.536H245.828L242.852 66.024C242.681 66.568 242.447 67.0053 242.148 67.336C241.849 67.6773 241.492 67.9227 241.076 68.072C240.66 68.2213 240.185 68.296 239.652 68.296H238.628ZM241.38 64.792V63.784H242.9V64.792H241.38ZM241.236 64.792L238.164 56.536H239.396L242.356 64.792H241.236ZM250.552 65.24C249.464 65.24 248.627 65.0053 248.04 64.536C247.453 64.056 247.155 63.416 247.144 62.616H248.264C248.285 63.0213 248.467 63.3893 248.808 63.72C249.16 64.0507 249.741 64.216 250.552 64.216C251.309 64.216 251.875 64.0613 252.248 63.752C252.632 63.432 252.824 63.048 252.824 62.6C252.824 62.184 252.664 61.864 252.344 61.64C252.035 61.4053 251.581 61.256 250.984 61.192L250.024 61.096C249.256 61.0107 248.632 60.776 248.152 60.392C247.683 59.9973 247.448 59.4587 247.448 58.776C247.448 58.2747 247.576 57.8373 247.832 57.464C248.088 57.0907 248.445 56.8027 248.904 56.6C249.373 56.3867 249.923 56.28 250.552 56.28C251.459 56.28 252.195 56.4933 252.76 56.92C253.336 57.3467 253.629 57.9547 253.64 58.744H252.52C252.509 58.3387 252.339 57.9973 252.008 57.72C251.677 57.4427 251.192 57.304 250.552 57.304C249.891 57.304 249.395 57.448 249.064 57.736C248.744 58.024 248.584 58.376 248.584 58.792C248.584 59.144 248.707 59.4373 248.952 59.672C249.197 59.896 249.581 60.0347 250.104 60.088L251.064 60.184C251.917 60.28 252.611 60.5253 253.144 60.92C253.688 61.3147 253.96 61.88 253.96 62.616C253.96 63.1173 253.816 63.5707 253.528 63.976C253.251 64.3707 252.856 64.68 252.344 64.904C251.832 65.128 251.235 65.24 250.552 65.24ZM259.421 65.096C258.834 65.096 258.328 65.0107 257.901 64.84C257.474 64.6693 257.144 64.3813 256.909 63.976C256.674 63.56 256.557 63.0053 256.557 62.312V53.864H257.709V62.488C257.709 62.9787 257.842 63.3573 258.109 63.624C258.376 63.88 258.754 64.008 259.245 64.008H260.765V65.096H259.421ZM255.037 57.448V56.536H260.765V57.448H255.037ZM266.541 65.272C265.816 65.272 265.186 65.1493 264.653 64.904C264.12 64.648 263.682 64.312 263.341 63.896C263 63.4693 262.744 62.9947 262.573 62.472C262.413 61.9493 262.333 61.4107 262.333 60.856V60.632C262.333 60.088 262.413 59.5547 262.573 59.032C262.744 58.5093 263 58.04 263.341 57.624C263.682 57.208 264.109 56.8773 264.621 56.632C265.144 56.376 265.752 56.248 266.445 56.248C267.33 56.248 268.066 56.4453 268.653 56.84C269.25 57.2347 269.698 57.7413 269.997 58.36C270.296 58.968 270.445 59.624 270.445 60.328V60.952H262.877V60.024H269.613L269.309 60.488C269.309 59.8587 269.197 59.3093 268.973 58.84C268.76 58.36 268.44 57.9867 268.013 57.72C267.597 57.4427 267.074 57.304 266.445 57.304C265.784 57.304 265.234 57.4587 264.797 57.768C264.36 58.0773 264.029 58.488 263.805 59C263.592 59.512 263.485 60.0933 263.485 60.744C263.485 61.384 263.592 61.9707 263.805 62.504C264.029 63.0267 264.365 63.4427 264.813 63.752C265.272 64.0613 265.848 64.216 266.541 64.216C267.277 64.216 267.874 64.0507 268.333 63.72C268.792 63.3787 269.074 62.9787 269.181 62.52H270.301C270.194 63.0853 269.97 63.576 269.629 63.992C269.288 64.3973 268.856 64.712 268.333 64.936C267.81 65.16 267.213 65.272 266.541 65.272ZM272.755 65V56.52H273.715V60.088H273.523C273.523 59.3093 273.63 58.6373 273.843 58.072C274.067 57.5067 274.398 57.0693 274.835 56.76C275.272 56.44 275.827 56.28 276.499 56.28H276.547C277.219 56.28 277.774 56.4347 278.211 56.744C278.648 57.0533 278.974 57.4907 279.187 58.056C279.4 58.6213 279.507 59.2987 279.507 60.088H279.123C279.123 59.3093 279.23 58.6373 279.443 58.072C279.667 57.5067 279.998 57.0693 280.435 56.76C280.883 56.44 281.443 56.28 282.115 56.28H282.163C282.835 56.28 283.39 56.4347 283.827 56.744C284.275 57.0533 284.606 57.4907 284.819 58.056C285.043 58.6213 285.155 59.2987 285.155 60.088V65H283.955V59.816C283.955 59.0693 283.774 58.4773 283.411 58.04C283.048 57.6027 282.526 57.384 281.843 57.384C281.139 57.384 280.579 57.6133 280.163 58.072C279.758 58.52 279.555 59.128 279.555 59.896V65H278.355V59.816C278.355 59.0693 278.174 58.4773 277.811 58.04C277.448 57.6027 276.926 57.384 276.243 57.384C275.539 57.384 274.979 57.6133 274.563 58.072C274.158 58.52 273.955 59.128 273.955 59.896V65H272.755ZM290.818 65.24C289.73 65.24 288.892 65.0053 288.306 64.536C287.719 64.056 287.42 63.416 287.41 62.616H288.53C288.551 63.0213 288.732 63.3893 289.074 63.72C289.426 64.0507 290.007 64.216 290.818 64.216C291.575 64.216 292.14 64.0613 292.514 63.752C292.898 63.432 293.09 63.048 293.09 62.6C293.09 62.184 292.93 61.864 292.61 61.64C292.3 61.4053 291.847 61.256 291.25 61.192L290.29 61.096C289.522 61.0107 288.898 60.776 288.418 60.392C287.948 59.9973 287.714 59.4587 287.714 58.776C287.714 58.2747 287.842 57.8373 288.098 57.464C288.354 57.0907 288.711 56.8027 289.17 56.6C289.639 56.3867 290.188 56.28 290.818 56.28C291.724 56.28 292.46 56.4933 293.026 56.92C293.602 57.3467 293.895 57.9547 293.906 58.744H292.786C292.775 58.3387 292.604 57.9973 292.274 57.72C291.943 57.4427 291.458 57.304 290.818 57.304C290.156 57.304 289.66 57.448 289.33 57.736C289.01 58.024 288.85 58.376 288.85 58.792C288.85 59.144 288.972 59.4373 289.218 59.672C289.463 59.896 289.847 60.0347 290.37 60.088L291.33 60.184C292.183 60.28 292.876 60.5253 293.41 60.92C293.954 61.3147 294.226 61.88 294.226 62.616C294.226 63.1173 294.082 63.5707 293.794 63.976C293.516 64.3707 293.122 64.68 292.61 64.904C292.098 65.128 291.5 65.24 290.818 65.24ZM296.218 65V63.416H297.722V65H296.218ZM1.824 85V73.32H3.856L10.256 83.896H10.768L10.448 84.152V73.32H11.616V85H9.568L3.168 74.424H2.656L2.976 74.168V85H1.824ZM18.7815 85.272C18.0562 85.272 17.4162 85.1493 16.8615 84.904C16.3175 84.648 15.8535 84.312 15.4695 83.896C15.0962 83.4693 14.8082 82.9947 14.6055 82.472C14.4135 81.9493 14.3175 81.416 14.3175 80.872V80.648C14.3175 80.104 14.4188 79.5707 14.6215 79.048C14.8242 78.5147 15.1175 78.04 15.5015 77.624C15.8855 77.208 16.3495 76.8773 16.8935 76.632C17.4482 76.376 18.0775 76.248 18.7815 76.248C19.4962 76.248 20.1255 76.376 20.6695 76.632C21.2242 76.8773 21.6935 77.208 22.0775 77.624C22.4615 78.04 22.7495 78.5147 22.9415 79.048C23.1442 79.5707 23.2455 80.104 23.2455 80.648V80.872C23.2455 81.416 23.1495 81.9493 22.9575 82.472C22.7655 82.9947 22.4775 83.4693 22.0935 83.896C21.7202 84.312 21.2562 84.648 20.7015 84.904C20.1468 85.1493 19.5068 85.272 18.7815 85.272ZM18.7815 84.2C19.4855 84.2 20.0775 84.0453 20.5575 83.736C21.0482 83.416 21.4215 83 21.6775 82.488C21.9335 81.9653 22.0615 81.3893 22.0615 80.76C22.0615 80.12 21.9282 79.544 21.6615 79.032C21.4055 78.5093 21.0322 78.0987 20.5415 77.8C20.0508 77.4907 19.4642 77.336 18.7815 77.336C18.1095 77.336 17.5282 77.4907 17.0375 77.8C16.5468 78.0987 16.1682 78.5093 15.9015 79.032C15.6455 79.544 15.5175 80.12 15.5175 80.76C15.5175 81.3893 15.6455 81.9653 15.9015 82.488C16.1575 83 16.5255 83.416 17.0055 83.736C17.4962 84.0453 18.0882 84.2 18.7815 84.2ZM28.7646 85.096C28.178 85.096 27.6713 85.0107 27.2446 84.84C26.818 84.6693 26.4873 84.3813 26.2526 83.976C26.018 83.56 25.9006 83.0053 25.9006 82.312V73.864H27.0526V82.488C27.0526 82.9787 27.186 83.3573 27.4526 83.624C27.7193 83.88 28.098 84.008 28.5886 84.008H30.1086V85.096H28.7646ZM24.3806 77.448V76.536H30.1086V77.448H24.3806ZM41.3134 85V82.456H41.1214V79.448C41.1214 78.8187 40.956 78.3387 40.6254 78.008C40.2947 77.6667 39.7827 77.496 39.0894 77.496C38.7694 77.496 38.444 77.5013 38.1134 77.512C37.7934 77.5227 37.484 77.5387 37.1854 77.56C36.8974 77.5707 36.6414 77.5867 36.4174 77.608V76.552C36.652 76.5307 36.892 76.5093 37.1374 76.488C37.3827 76.4667 37.6334 76.456 37.8894 76.456C38.156 76.4453 38.412 76.44 38.6574 76.44C39.5214 76.44 40.2147 76.5467 40.7374 76.76C41.2707 76.9733 41.66 77.3093 41.9054 77.768C42.1507 78.216 42.2734 78.8133 42.2734 79.56V85H41.3134ZM38.4494 85.224C37.852 85.224 37.324 85.1173 36.8654 84.904C36.4067 84.6907 36.0494 84.3813 35.7934 83.976C35.548 83.5707 35.4254 83.08 35.4254 82.504C35.4254 81.9387 35.5534 81.4587 35.8094 81.064C36.076 80.6693 36.4547 80.3707 36.9454 80.168C37.4467 79.9547 38.0494 79.848 38.7534 79.848H41.2334V80.76H38.6734C38.0014 80.76 37.484 80.9253 37.1214 81.256C36.7694 81.576 36.5934 81.9973 36.5934 82.52C36.5934 83.0533 36.78 83.48 37.1534 83.8C37.5267 84.1093 38.0334 84.264 38.6734 84.264C39.068 84.264 39.4467 84.1947 39.8094 84.056C40.172 83.9067 40.476 83.6613 40.7214 83.32C40.9667 82.968 41.1 82.488 41.1214 81.88L41.4734 82.376C41.4307 83.0053 41.2814 83.5333 41.0254 83.96C40.7694 84.376 40.4227 84.6907 39.9854 84.904C39.548 85.1173 39.036 85.224 38.4494 85.224ZM45.2708 88.2V76.536H46.2308V80.168L45.9428 80.2C45.9854 79.3467 46.1668 78.6267 46.4868 78.04C46.8174 77.4533 47.2601 77.0107 47.8148 76.712C48.3801 76.4027 49.0094 76.248 49.7028 76.248C50.3214 76.248 50.8814 76.3707 51.3828 76.616C51.8948 76.8507 52.3268 77.176 52.6788 77.592C53.0414 77.9973 53.3134 78.4667 53.4948 79C53.6868 79.5227 53.7828 80.072 53.7828 80.648V80.872C53.7828 81.448 53.6868 82.0027 53.4948 82.536C53.3028 83.0587 53.0254 83.528 52.6628 83.944C52.3108 84.3493 51.8788 84.6747 51.3668 84.92C50.8654 85.1547 50.3001 85.272 49.6708 85.272C48.9988 85.272 48.3801 85.1227 47.8148 84.824C47.2601 84.5147 46.8068 84.0613 46.4548 83.464C46.1134 82.8667 45.9268 82.1307 45.8948 81.256L46.4708 82.456V88.2H45.2708ZM49.5108 84.216C50.1508 84.216 50.7001 84.0667 51.1588 83.768C51.6174 83.4587 51.9694 83.0427 52.2148 82.52C52.4601 81.9867 52.5828 81.4 52.5828 80.76C52.5828 80.0987 52.4548 79.512 52.1988 79C51.9534 78.4773 51.6014 78.0667 51.1428 77.768C50.6841 77.4587 50.1401 77.304 49.5108 77.304C48.9348 77.304 48.4121 77.432 47.9427 77.688C47.4734 77.944 47.1001 78.3067 46.8228 78.776C46.5561 79.2347 46.4228 79.7787 46.4228 80.408V81.192C46.4228 81.7893 46.5561 82.3173 46.8228 82.776C47.1001 83.224 47.4734 83.576 47.9427 83.832C48.4121 84.088 48.9348 84.216 49.5108 84.216ZM56.2083 88.2V76.536H57.1683V80.168L56.8803 80.2C56.9229 79.3467 57.1043 78.6267 57.4243 78.04C57.7549 77.4533 58.1976 77.0107 58.7523 76.712C59.3176 76.4027 59.9469 76.248 60.6403 76.248C61.2589 76.248 61.8189 76.3707 62.3203 76.616C62.8323 76.8507 63.2643 77.176 63.6163 77.592C63.9789 77.9973 64.2509 78.4667 64.4323 79C64.6243 79.5227 64.7203 80.072 64.7203 80.648V80.872C64.7203 81.448 64.6243 82.0027 64.4323 82.536C64.2403 83.0587 63.9629 83.528 63.6003 83.944C63.2483 84.3493 62.8163 84.6747 62.3043 84.92C61.8029 85.1547 61.2376 85.272 60.6083 85.272C59.9363 85.272 59.3176 85.1227 58.7523 84.824C58.1976 84.5147 57.7443 84.0613 57.3923 83.464C57.0509 82.8667 56.8643 82.1307 56.8323 81.256L57.4083 82.456V88.2H56.2083ZM60.4483 84.216C61.0883 84.216 61.6376 84.0667 62.0963 83.768C62.5549 83.4587 62.9069 83.0427 63.1523 82.52C63.3976 81.9867 63.5203 81.4 63.5203 80.76C63.5203 80.0987 63.3923 79.512 63.1363 79C62.8909 78.4773 62.5389 78.0667 62.0803 77.768C61.6216 77.4587 61.0776 77.304 60.4483 77.304C59.8723 77.304 59.3496 77.432 58.8802 77.688C58.4109 77.944 58.0376 78.3067 57.7603 78.776C57.4936 79.2347 57.3603 79.7787 57.3603 80.408V81.192C57.3603 81.7893 57.4936 82.3173 57.7603 82.776C58.0376 83.224 58.4109 83.576 58.8802 83.832C59.3496 84.088 59.8723 84.216 60.4483 84.216ZM69.8177 85.24C68.7297 85.24 67.8924 85.0053 67.3058 84.536C66.7191 84.056 66.4204 83.416 66.4098 82.616H67.5298C67.5511 83.0213 67.7324 83.3893 68.0738 83.72C68.4258 84.0507 69.0071 84.216 69.8177 84.216C70.5751 84.216 71.1404 84.0613 71.5138 83.752C71.8978 83.432 72.0898 83.048 72.0898 82.6C72.0898 82.184 71.9298 81.864 71.6098 81.64C71.3004 81.4053 70.8471 81.256 70.2498 81.192L69.2898 81.096C68.5218 81.0107 67.8978 80.776 67.4178 80.392C66.9484 79.9973 66.7138 79.4587 66.7138 78.776C66.7138 78.2747 66.8418 77.8373 67.0978 77.464C67.3538 77.0907 67.7111 76.8027 68.1698 76.6C68.6391 76.3867 69.1884 76.28 69.8177 76.28C70.7244 76.28 71.4604 76.4933 72.0258 76.92C72.6018 77.3467 72.8951 77.9547 72.9058 78.744H71.7858C71.7751 78.3387 71.6044 77.9973 71.2738 77.72C70.9431 77.4427 70.4578 77.304 69.8177 77.304C69.1564 77.304 68.6604 77.448 68.3298 77.736C68.0098 78.024 67.8498 78.376 67.8498 78.792C67.8498 79.144 67.9724 79.4373 68.2178 79.672C68.4631 79.896 68.8471 80.0347 69.3698 80.088L70.3298 80.184C71.1831 80.28 71.8764 80.5253 72.4098 80.92C72.9538 81.3147 73.2258 81.88 73.2258 82.616C73.2258 83.1173 73.0818 83.5707 72.7938 83.976C72.5164 84.3707 72.1218 84.68 71.6098 84.904C71.0978 85.128 70.5004 85.24 69.8177 85.24ZM75.4423 87.448L74.4663 87.096L75.8583 83.24L76.8663 83.608L75.4423 87.448ZM83.3176 85V76.536H84.2776V80.088H84.0856C84.0856 79.2987 84.203 78.6213 84.4376 78.056C84.6723 77.4907 85.0243 77.0533 85.4936 76.744C85.963 76.4347 86.555 76.28 87.2696 76.28H87.3176C88.3843 76.28 89.179 76.616 89.7016 77.288C90.2243 77.9493 90.4856 78.8827 90.4856 80.088V85H89.3016V79.832C89.3016 79.096 89.099 78.504 88.6936 78.056C88.2883 77.608 87.723 77.384 86.9976 77.384C86.251 77.384 85.6483 77.6187 85.1896 78.088C84.7416 78.5467 84.5176 79.1547 84.5176 79.912V85H83.3176ZM97.2659 85.272C96.5405 85.272 95.9005 85.1493 95.3459 84.904C94.8019 84.648 94.3379 84.312 93.9539 83.896C93.5805 83.4693 93.2925 82.9947 93.0899 82.472C92.8979 81.9493 92.8019 81.416 92.8019 80.872V80.648C92.8019 80.104 92.9032 79.5707 93.1059 79.048C93.3085 78.5147 93.6019 78.04 93.9859 77.624C94.3699 77.208 94.8339 76.8773 95.3779 76.632C95.9325 76.376 96.5619 76.248 97.2659 76.248C97.9805 76.248 98.6099 76.376 99.1539 76.632C99.7085 76.8773 100.178 77.208 100.562 77.624C100.946 78.04 101.234 78.5147 101.426 79.048C101.629 79.5707 101.73 80.104 101.73 80.648V80.872C101.73 81.416 101.634 81.9493 101.442 82.472C101.25 82.9947 100.962 83.4693 100.578 83.896C100.205 84.312 99.7405 84.648 99.1859 84.904C98.6312 85.1493 97.9912 85.272 97.2659 85.272ZM97.2659 84.2C97.9699 84.2 98.5619 84.0453 99.0419 83.736C99.5325 83.416 99.9059 83 100.162 82.488C100.418 81.9653 100.546 81.3893 100.546 80.76C100.546 80.12 100.413 79.544 100.146 79.032C99.8899 78.5093 99.5165 78.0987 99.0259 77.8C98.5352 77.4907 97.9485 77.336 97.2659 77.336C96.5939 77.336 96.0125 77.4907 95.5219 77.8C95.0312 78.0987 94.6525 78.5093 94.3859 79.032C94.1299 79.544 94.0019 80.12 94.0019 80.76C94.0019 81.3893 94.1299 81.9653 94.3859 82.488C94.6419 83 95.0099 83.416 95.4899 83.736C95.9805 84.0453 96.5725 84.2 97.2659 84.2ZM107.249 85.096C106.662 85.096 106.156 85.0107 105.729 84.84C105.302 84.6693 104.972 84.3813 104.737 83.976C104.502 83.56 104.385 83.0053 104.385 82.312V73.864H105.537V82.488C105.537 82.9787 105.67 83.3573 105.937 83.624C106.204 83.88 106.582 84.008 107.073 84.008H108.593V85.096H107.249ZM102.865 77.448V76.536H108.593V77.448H102.865ZM117.014 85L118.822 76.808H120.502L122.598 85H121.558L119.462 76.856H119.846L118.022 85H117.014ZM116.326 85V84.024H117.782V85H116.326ZM116.038 85L113.59 76.536H114.742L117.158 85H116.038ZM121.83 85V84.024H123.254V85H121.83ZM122.454 85L124.566 76.536H125.67L123.51 85H122.454ZM131.276 85.272C130.55 85.272 129.921 85.1493 129.388 84.904C128.854 84.648 128.417 84.312 128.076 83.896C127.734 83.4693 127.478 82.9947 127.308 82.472C127.148 81.9493 127.068 81.4107 127.068 80.856V80.632C127.068 80.088 127.148 79.5547 127.308 79.032C127.478 78.5093 127.734 78.04 128.076 77.624C128.417 77.208 128.844 76.8773 129.356 76.632C129.878 76.376 130.486 76.248 131.18 76.248C132.065 76.248 132.801 76.4453 133.388 76.84C133.985 77.2347 134.433 77.7413 134.732 78.36C135.03 78.968 135.18 79.624 135.18 80.328V80.952H127.612V80.024H134.348L134.044 80.488C134.044 79.8587 133.932 79.3093 133.708 78.84C133.494 78.36 133.174 77.9867 132.748 77.72C132.332 77.4427 131.809 77.304 131.18 77.304C130.518 77.304 129.969 77.4587 129.532 77.768C129.094 78.0773 128.764 78.488 128.539 79C128.326 79.512 128.22 80.0933 128.22 80.744C128.22 81.384 128.326 81.9707 128.539 82.504C128.764 83.0267 129.1 83.4427 129.548 83.752C130.006 84.0613 130.582 84.216 131.276 84.216C132.012 84.216 132.609 84.0507 133.068 83.72C133.526 83.3787 133.809 82.9787 133.916 82.52H135.036C134.929 83.0853 134.705 83.576 134.364 83.992C134.022 84.3973 133.59 84.712 133.068 84.936C132.545 85.16 131.948 85.272 131.276 85.272ZM141.858 85.272C141.111 85.272 140.455 85.1067 139.89 84.776C139.335 84.4453 138.898 83.9813 138.578 83.384C138.268 82.7867 138.103 82.0987 138.082 81.32H138.45V85H137.49V73.32H138.69V79.16L138.226 80.232C138.247 79.3787 138.418 78.6587 138.738 78.072C139.068 77.4747 139.506 77.0213 140.049 76.712C140.604 76.4027 141.234 76.248 141.938 76.248C142.556 76.248 143.116 76.3653 143.618 76.6C144.119 76.8347 144.546 77.1547 144.898 77.56C145.26 77.9653 145.532 78.4347 145.714 78.968C145.906 79.4907 146.002 80.0453 146.002 80.632V80.856C146.002 81.432 145.906 81.9867 145.714 82.52C145.522 83.0427 145.244 83.512 144.882 83.928C144.53 84.344 144.098 84.6747 143.586 84.92C143.074 85.1547 142.498 85.272 141.858 85.272ZM141.73 84.216C142.37 84.216 142.919 84.0613 143.378 83.752C143.836 83.4427 144.188 83.0267 144.434 82.504C144.679 81.9813 144.802 81.3947 144.802 80.744C144.802 80.0827 144.674 79.496 144.418 78.984C144.172 78.4613 143.815 78.0507 143.346 77.752C142.887 77.4533 142.348 77.304 141.73 77.304C141.154 77.304 140.631 77.432 140.161 77.688C139.692 77.944 139.319 78.3067 139.042 78.776C138.775 79.2347 138.642 79.7787 138.642 80.408V81.192C138.642 81.7893 138.775 82.3173 139.042 82.776C139.319 83.224 139.692 83.576 140.161 83.832C140.631 84.088 141.154 84.216 141.73 84.216ZM151.099 85.24C150.011 85.24 149.174 85.0053 148.587 84.536C148 84.056 147.702 83.416 147.691 82.616H148.811C148.832 83.0213 149.014 83.3893 149.355 83.72C149.707 84.0507 150.288 84.216 151.099 84.216C151.856 84.216 152.422 84.0613 152.795 83.752C153.179 83.432 153.371 83.048 153.371 82.6C153.371 82.184 153.211 81.864 152.891 81.64C152.582 81.4053 152.128 81.256 151.531 81.192L150.571 81.096C149.803 81.0107 149.179 80.776 148.699 80.392C148.23 79.9973 147.995 79.4587 147.995 78.776C147.995 78.2747 148.123 77.8373 148.379 77.464C148.635 77.0907 148.992 76.8027 149.451 76.6C149.92 76.3867 150.47 76.28 151.099 76.28C152.006 76.28 152.742 76.4933 153.307 76.92C153.883 77.3467 154.176 77.9547 154.187 78.744H153.067C153.056 78.3387 152.886 77.9973 152.555 77.72C152.224 77.4427 151.739 77.304 151.099 77.304C150.438 77.304 149.942 77.448 149.611 77.736C149.291 78.024 149.131 78.376 149.131 78.792C149.131 79.144 149.254 79.4373 149.499 79.672C149.744 79.896 150.128 80.0347 150.651 80.088L151.611 80.184C152.464 80.28 153.158 80.5253 153.691 80.92C154.235 81.3147 154.507 81.88 154.507 82.616C154.507 83.1173 154.363 83.5707 154.075 83.976C153.798 84.3707 153.403 84.68 152.891 84.904C152.379 85.128 151.782 85.24 151.099 85.24ZM157.344 85V76.536H158.528V85H157.344ZM155.984 77.496V76.536H158.528V77.496H155.984ZM157.6 74.968C157.312 74.968 157.093 74.8933 156.944 74.744C156.805 74.584 156.736 74.3867 156.736 74.152C156.736 73.9173 156.805 73.7253 156.944 73.576C157.093 73.416 157.312 73.336 157.6 73.336C157.888 73.336 158.101 73.416 158.24 73.576C158.378 73.7253 158.448 73.9173 158.448 74.152C158.448 74.3867 158.378 74.584 158.24 74.744C158.101 74.8933 157.888 74.968 157.6 74.968ZM164.749 85.096C164.162 85.096 163.656 85.0107 163.229 84.84C162.802 84.6693 162.472 84.3813 162.237 83.976C162.002 83.56 161.885 83.0053 161.885 82.312V73.864H163.037V82.488C163.037 82.9787 163.17 83.3573 163.437 83.624C163.704 83.88 164.082 84.008 164.573 84.008H166.093V85.096H164.749ZM160.365 77.448V76.536H166.093V77.448H160.365ZM171.869 85.272C171.144 85.272 170.515 85.1493 169.981 84.904C169.448 84.648 169.011 84.312 168.669 83.896C168.328 83.4693 168.072 82.9947 167.901 82.472C167.741 81.9493 167.661 81.4107 167.661 80.856V80.632C167.661 80.088 167.741 79.5547 167.901 79.032C168.072 78.5093 168.328 78.04 168.669 77.624C169.011 77.208 169.437 76.8773 169.949 76.632C170.472 76.376 171.08 76.248 171.773 76.248C172.659 76.248 173.395 76.4453 173.981 76.84C174.579 77.2347 175.027 77.7413 175.325 78.36C175.624 78.968 175.773 79.624 175.773 80.328V80.952H168.205V80.024H174.941L174.637 80.488C174.637 79.8587 174.525 79.3093 174.301 78.84C174.088 78.36 173.768 77.9867 173.341 77.72C172.925 77.4427 172.403 77.304 171.773 77.304C171.112 77.304 170.563 77.4587 170.125 77.768C169.688 78.0773 169.357 78.488 169.133 79C168.92 79.512 168.813 80.0933 168.813 80.744C168.813 81.384 168.92 81.9707 169.133 82.504C169.357 83.0267 169.693 83.4427 170.141 83.752C170.6 84.0613 171.176 84.216 171.869 84.216C172.605 84.216 173.203 84.0507 173.661 83.72C174.12 83.3787 174.403 82.9787 174.509 82.52H175.629C175.523 83.0853 175.299 83.576 174.957 83.992C174.616 84.3973 174.184 84.712 173.661 84.936C173.139 85.16 172.541 85.272 171.869 85.272ZM180.755 85.24C179.667 85.24 178.83 85.0053 178.243 84.536C177.657 84.056 177.358 83.416 177.347 82.616H178.467C178.489 83.0213 178.67 83.3893 179.011 83.72C179.363 84.0507 179.945 84.216 180.755 84.216C181.513 84.216 182.078 84.0613 182.451 83.752C182.835 83.432 183.027 83.048 183.027 82.6C183.027 82.184 182.867 81.864 182.547 81.64C182.238 81.4053 181.785 81.256 181.187 81.192L180.227 81.096C179.459 81.0107 178.835 80.776 178.355 80.392C177.886 79.9973 177.651 79.4587 177.651 78.776C177.651 78.2747 177.779 77.8373 178.035 77.464C178.291 77.0907 178.649 76.8027 179.107 76.6C179.577 76.3867 180.126 76.28 180.755 76.28C181.662 76.28 182.398 76.4933 182.963 76.92C183.539 77.3467 183.833 77.9547 183.843 78.744H182.723C182.713 78.3387 182.542 77.9973 182.211 77.72C181.881 77.4427 181.395 77.304 180.755 77.304C180.094 77.304 179.598 77.448 179.267 77.736C178.947 78.024 178.787 78.376 178.787 78.792C178.787 79.144 178.91 79.4373 179.155 79.672C179.401 79.896 179.785 80.0347 180.307 80.088L181.267 80.184C182.121 80.28 182.814 80.5253 183.347 80.92C183.891 81.3147 184.163 81.88 184.163 82.616C184.163 83.1173 184.019 83.5707 183.731 83.976C183.454 84.3707 183.059 84.68 182.547 84.904C182.035 85.128 181.438 85.24 180.755 85.24ZM189.022 81.064V80.04H202.75V81.064H189.022ZM210.99 85.24C209.902 85.24 209.064 85.0053 208.478 84.536C207.891 84.056 207.592 83.416 207.582 82.616H208.702C208.723 83.0213 208.904 83.3893 209.246 83.72C209.598 84.0507 210.179 84.216 210.99 84.216C211.747 84.216 212.312 84.0613 212.686 83.752C213.07 83.432 213.262 83.048 213.262 82.6C213.262 82.184 213.102 81.864 212.782 81.64C212.472 81.4053 212.019 81.256 211.422 81.192L210.462 81.096C209.694 81.0107 209.07 80.776 208.59 80.392C208.12 79.9973 207.886 79.4587 207.886 78.776C207.886 78.2747 208.014 77.8373 208.27 77.464C208.526 77.0907 208.883 76.8027 209.342 76.6C209.811 76.3867 210.36 76.28 210.99 76.28C211.896 76.28 212.632 76.4933 213.198 76.92C213.774 77.3467 214.067 77.9547 214.078 78.744H212.958C212.947 78.3387 212.776 77.9973 212.446 77.72C212.115 77.4427 211.63 77.304 210.99 77.304C210.328 77.304 209.832 77.448 209.502 77.736C209.182 78.024 209.022 78.376 209.022 78.792C209.022 79.144 209.144 79.4373 209.39 79.672C209.635 79.896 210.019 80.0347 210.542 80.088L211.502 80.184C212.355 80.28 213.048 80.5253 213.582 80.92C214.126 81.3147 214.398 81.88 214.398 82.616C214.398 83.1173 214.254 83.5707 213.966 83.976C213.688 84.3707 213.294 84.68 212.782 84.904C212.27 85.128 211.672 85.24 210.99 85.24ZM215.988 88.296V87.224H217.076C217.449 87.224 217.769 87.176 218.036 87.08C218.302 86.9947 218.526 86.84 218.708 86.616C218.889 86.392 219.044 86.0827 219.172 85.688L222.02 76.536H223.188L220.212 86.024C220.041 86.568 219.806 87.0053 219.508 87.336C219.209 87.6773 218.852 87.9227 218.436 88.072C218.02 88.2213 217.545 88.296 217.012 88.296H215.988ZM218.74 84.792V83.784H220.26V84.792H218.74ZM218.596 84.792L215.524 76.536H216.756L219.716 84.792H218.596ZM227.911 85.24C226.823 85.24 225.986 85.0053 225.4 84.536C224.813 84.056 224.514 83.416 224.504 82.616H225.624C225.645 83.0213 225.826 83.3893 226.168 83.72C226.52 84.0507 227.101 84.216 227.911 84.216C228.669 84.216 229.234 84.0613 229.608 83.752C229.992 83.432 230.184 83.048 230.184 82.6C230.184 82.184 230.024 81.864 229.704 81.64C229.394 81.4053 228.941 81.256 228.344 81.192L227.384 81.096C226.616 81.0107 225.992 80.776 225.512 80.392C225.042 79.9973 224.808 79.4587 224.808 78.776C224.808 78.2747 224.936 77.8373 225.192 77.464C225.448 77.0907 225.805 76.8027 226.264 76.6C226.733 76.3867 227.282 76.28 227.911 76.28C228.818 76.28 229.554 76.4933 230.12 76.92C230.696 77.3467 230.989 77.9547 231 78.744H229.88C229.869 78.3387 229.698 77.9973 229.368 77.72C229.037 77.4427 228.552 77.304 227.911 77.304C227.25 77.304 226.754 77.448 226.424 77.736C226.104 78.024 225.944 78.376 225.944 78.792C225.944 79.144 226.066 79.4373 226.312 79.672C226.557 79.896 226.941 80.0347 227.464 80.088L228.424 80.184C229.277 80.28 229.97 80.5253 230.504 80.92C231.048 81.3147 231.32 81.88 231.32 82.616C231.32 83.1173 231.176 83.5707 230.888 83.976C230.61 84.3707 230.216 84.68 229.704 84.904C229.192 85.128 228.594 85.24 227.911 85.24ZM236.78 85.096C236.194 85.096 235.687 85.0107 235.26 84.84C234.834 84.6693 234.503 84.3813 234.268 83.976C234.034 83.56 233.916 83.0053 233.916 82.312V73.864H235.068V82.488C235.068 82.9787 235.202 83.3573 235.468 83.624C235.735 83.88 236.114 84.008 236.604 84.008H238.124V85.096H236.78ZM232.396 77.448V76.536H238.124V77.448H232.396ZM243.901 85.272C243.175 85.272 242.546 85.1493 242.013 84.904C241.479 84.648 241.042 84.312 240.701 83.896C240.359 83.4693 240.103 82.9947 239.933 82.472C239.773 81.9493 239.693 81.4107 239.693 80.856V80.632C239.693 80.088 239.773 79.5547 239.933 79.032C240.103 78.5093 240.359 78.04 240.701 77.624C241.042 77.208 241.469 76.8773 241.981 76.632C242.503 76.376 243.111 76.248 243.805 76.248C244.69 76.248 245.426 76.4453 246.013 76.84C246.61 77.2347 247.058 77.7413 247.357 78.36C247.655 78.968 247.805 79.624 247.805 80.328V80.952H240.237V80.024H246.973L246.669 80.488C246.669 79.8587 246.557 79.3093 246.333 78.84C246.119 78.36 245.799 77.9867 245.373 77.72C244.957 77.4427 244.434 77.304 243.805 77.304C243.143 77.304 242.594 77.4587 242.157 77.768C241.719 78.0773 241.389 78.488 241.164 79C240.951 79.512 240.845 80.0933 240.845 80.744C240.845 81.384 240.951 81.9707 241.164 82.504C241.389 83.0267 241.725 83.4427 242.173 83.752C242.631 84.0613 243.207 84.216 243.901 84.216C244.637 84.216 245.234 84.0507 245.693 83.72C246.151 83.3787 246.434 82.9787 246.541 82.52H247.661C247.554 83.0853 247.33 83.576 246.989 83.992C246.647 84.3973 246.215 84.712 245.693 84.936C245.17 85.16 244.573 85.272 243.901 85.272ZM250.115 85V76.52H251.075V80.088H250.883C250.883 79.3093 250.989 78.6373 251.203 78.072C251.427 77.5067 251.757 77.0693 252.195 76.76C252.632 76.44 253.187 76.28 253.859 76.28H253.907C254.579 76.28 255.133 76.4347 255.571 76.744C256.008 77.0533 256.333 77.4907 256.547 78.056C256.76 78.6213 256.867 79.2987 256.867 80.088H256.483C256.483 79.3093 256.589 78.6373 256.803 78.072C257.027 77.5067 257.357 77.0693 257.795 76.76C258.243 76.44 258.803 76.28 259.475 76.28H259.523C260.195 76.28 260.749 76.4347 261.187 76.744C261.635 77.0533 261.965 77.4907 262.179 78.056C262.403 78.6213 262.515 79.2987 262.515 80.088V85H261.315V79.816C261.315 79.0693 261.133 78.4773 260.771 78.04C260.408 77.6027 259.885 77.384 259.203 77.384C258.499 77.384 257.939 77.6133 257.523 78.072C257.117 78.52 256.915 79.128 256.915 79.896V85H255.715V79.816C255.715 79.0693 255.533 78.4773 255.171 78.04C254.808 77.6027 254.285 77.384 253.603 77.384C252.899 77.384 252.339 77.6133 251.923 78.072C251.517 78.52 251.315 79.128 251.315 79.896V85H250.115ZM268.177 85.24C267.089 85.24 266.252 85.0053 265.665 84.536C265.078 84.056 264.78 83.416 264.769 82.616H265.889C265.91 83.0213 266.092 83.3893 266.433 83.72C266.785 84.0507 267.366 84.216 268.177 84.216C268.934 84.216 269.5 84.0613 269.873 83.752C270.257 83.432 270.449 83.048 270.449 82.6C270.449 82.184 270.289 81.864 269.969 81.64C269.66 81.4053 269.206 81.256 268.609 81.192L267.649 81.096C266.881 81.0107 266.257 80.776 265.777 80.392C265.308 79.9973 265.073 79.4587 265.073 78.776C265.073 78.2747 265.201 77.8373 265.457 77.464C265.713 77.0907 266.07 76.8027 266.529 76.6C266.998 76.3867 267.548 76.28 268.177 76.28C269.084 76.28 269.82 76.4933 270.385 76.92C270.961 77.3467 271.254 77.9547 271.265 78.744H270.145C270.134 78.3387 269.964 77.9973 269.633 77.72C269.302 77.4427 268.817 77.304 268.177 77.304C267.516 77.304 267.02 77.448 266.689 77.736C266.369 78.024 266.209 78.376 266.209 78.792C266.209 79.144 266.332 79.4373 266.577 79.672C266.822 79.896 267.206 80.0347 267.729 80.088L268.689 80.184C269.542 80.28 270.236 80.5253 270.769 80.92C271.313 81.3147 271.585 81.88 271.585 82.616C271.585 83.1173 271.441 83.5707 271.153 83.976C270.876 84.3707 270.481 84.68 269.969 84.904C269.457 85.128 268.86 85.24 268.177 85.24Z" fill="#404040"/>
<defs>
<radialGradient id="paint0_radial_193_613" cx="0" cy="0" r="1" gradientUnits="userSpaceOnUse" gradientTransform="translate(188 15) rotate(90) scale(15 188)">
<stop stop-color="#5A69EA"/>
<stop offset="1" stop-color="#BF8BCA"/>
</radialGradient>
</defs>
</svg>
