<svg width="412" height="106" viewBox="0 0 412 106" fill="none" xmlns="http://www.w3.org/2000/svg">
<path d="M10.9443 35.9519V3.3119H14.5923V35.9519H10.9443ZM0.000250041 4.2239V0.911903H25.5363V4.2239H0.000250041ZM46.15 36.7679C43.014 36.7679 40.326 36.2239 38.086 35.1359C35.878 34.0159 34.07 32.5599 32.662 30.7679C31.286 28.9759 30.278 27.0399 29.638 24.9599C28.998 22.8479 28.678 20.7999 28.678 18.8159V17.9039C28.678 15.7599 28.998 13.6319 29.638 11.5199C30.31 9.3759 31.334 7.4399 32.71 5.7119C34.118 3.9839 35.91 2.6079 38.086 1.5839C40.262 0.527904 42.838 -9.63211e-05 45.814 -9.63211e-05C48.822 -9.63211e-05 51.414 0.527904 53.59 1.5839C55.798 2.6399 57.558 4.1279 58.87 6.0479C60.182 7.9359 60.982 10.1759 61.27 12.7679H57.574C57.318 10.6879 56.646 8.9599 55.558 7.5839C54.47 6.1759 53.078 5.1199 51.382 4.4159C49.718 3.7119 47.862 3.3599 45.814 3.3599C43.606 3.3599 41.654 3.7599 39.958 4.5599C38.294 5.3279 36.902 6.4159 35.782 7.8239C34.662 9.1999 33.814 10.7999 33.238 12.6239C32.662 14.4159 32.374 16.3359 32.374 18.3839C32.374 20.3359 32.646 22.2079 33.19 23.9999C33.766 25.7919 34.63 27.4079 35.782 28.8479C36.934 30.2559 38.374 31.3759 40.102 32.2079C41.83 33.0079 43.846 33.4079 46.15 33.4079C49.35 33.4079 52.038 32.6079 54.214 31.0079C56.39 29.3759 57.734 27.0399 58.246 23.9999H61.942C61.59 26.3999 60.758 28.5759 59.446 30.5279C58.134 32.4479 56.358 33.9679 54.118 35.0879C51.91 36.2079 49.254 36.7679 46.15 36.7679ZM84.6434 36.7679C81.7634 36.7679 79.2034 36.2879 76.9634 35.3279C74.7554 34.3679 72.8994 33.0559 71.3954 31.3919C69.8914 29.6959 68.7394 27.7599 67.9394 25.5839C67.1714 23.3759 66.7874 21.0559 66.7874 18.6239V17.7599C66.7874 15.5199 67.1554 13.3439 67.8914 11.2319C68.6594 9.1199 69.7634 7.2159 71.2034 5.5199C72.6434 3.8239 74.4354 2.4799 76.5794 1.4879C78.7234 0.495903 81.1554 -9.63211e-05 83.8754 -9.63211e-05C86.7234 -9.63211e-05 89.2514 0.543903 91.4594 1.6319C93.6674 2.6879 95.4434 4.1759 96.7874 6.0959C98.1634 8.0159 98.9634 10.2399 99.1874 12.7679H95.4914C95.2354 10.7199 94.5474 8.9919 93.4274 7.5839C92.3394 6.1759 90.9634 5.1199 89.2994 4.4159C87.6354 3.7119 85.8274 3.3599 83.8754 3.3599C81.8274 3.3599 79.9714 3.7279 78.3074 4.4639C76.6434 5.1999 75.2354 6.2399 74.0834 7.5839C72.9314 8.9279 72.0354 10.5119 71.3954 12.3359C70.7874 14.1279 70.4834 16.0959 70.4834 18.2399C70.4834 20.5119 70.8034 22.5919 71.4434 24.4799C72.0834 26.3359 73.0114 27.9359 74.2274 29.2799C75.4434 30.6239 76.9154 31.6639 78.6434 32.3999C80.4034 33.1359 82.4034 33.5039 84.6434 33.5039C87.3954 33.5039 89.8114 32.9759 91.8914 31.9199C94.0034 30.8319 95.6354 29.4079 96.7874 27.6479L95.3474 32.1599V21.7919H98.8034V30.5279C97.2994 32.4799 95.3474 34.0159 92.9474 35.1359C90.5474 36.2239 87.7794 36.7679 84.6434 36.7679ZM83.3474 22.5599V19.4879H101.923V22.5599H83.3474ZM140.921 35.9519L126.089 20.2079C124.713 18.7039 123.609 17.3919 122.777 16.2719C121.977 15.1519 121.401 14.0799 121.049 13.0559C120.697 11.9999 120.521 10.8639 120.521 9.6479C120.521 7.6639 120.889 5.9999 121.625 4.6559C122.393 3.3119 123.593 2.3039 125.225 1.6319C126.857 0.927902 128.969 0.575902 131.561 0.575902C132.681 0.575902 133.881 0.623902 135.161 0.719903C136.441 0.815904 137.641 0.927903 138.761 1.0559V4.2239C138.057 4.1599 137.209 4.0959 136.217 4.0319C135.257 3.9359 134.297 3.8719 133.337 3.8399C132.409 3.7759 131.593 3.7439 130.889 3.7439C128.393 3.7439 126.617 4.2559 125.561 5.2799C124.505 6.3039 123.977 7.7759 123.977 9.6959C123.977 11.2319 124.329 12.6239 125.033 13.8719C125.737 15.0879 126.841 16.4959 128.345 18.0959L145.145 35.9519H140.921ZM128.585 36.7679C126.281 36.7679 124.233 36.3359 122.441 35.4719C120.649 34.5759 119.241 33.3599 118.217 31.8239C117.193 30.2559 116.681 28.4799 116.681 26.4959V25.9199C116.681 23.6159 117.321 21.5839 118.601 19.8239C119.913 18.0319 121.529 16.6079 123.449 15.5519L125.273 18.0959C123.737 18.8639 122.489 19.9839 121.529 21.4559C120.601 22.8959 120.137 24.4799 120.137 26.2079C120.137 27.8399 120.521 29.2159 121.289 30.3359C122.089 31.4239 123.129 32.2559 124.409 32.8319C125.689 33.4079 127.081 33.6959 128.585 33.6959C130.985 33.6959 133.017 33.0239 134.681 31.6799C136.345 30.3039 137.609 28.3199 138.473 25.7279C139.337 23.1039 139.769 19.9039 139.769 16.1279H142.985C142.985 19.2959 142.681 22.1599 142.073 24.7199C141.465 27.2479 140.553 29.4079 139.337 31.1999C138.121 32.9919 136.601 34.3679 134.777 35.3279C132.985 36.2879 130.921 36.7679 128.585 36.7679ZM133.817 16.6559V13.7759H145.961V16.6559H133.817ZM170.835 35.9519V3.3119H174.483V35.9519H170.835ZM159.891 4.2239V0.911903H185.427V4.2239H159.891ZM190.015 35.9519V10.5599H192.895V21.1679H192.607C192.607 17.4559 193.423 14.7199 195.055 12.9599C196.687 11.1679 199.247 10.2719 202.735 10.2719H203.551V13.5359H202.063C199.311 13.5359 197.215 14.2559 195.775 15.6959C194.335 17.1039 193.615 19.1839 193.615 21.9359V35.9519H190.015ZM224.737 35.9519V28.3199H224.161V19.2959C224.161 17.4079 223.665 15.9679 222.673 14.9759C221.681 13.9519 220.145 13.4399 218.065 13.4399C217.105 13.4399 216.129 13.4559 215.137 13.4879C214.177 13.5199 213.249 13.5679 212.353 13.6319C211.489 13.6639 210.721 13.7119 210.049 13.7759V10.6079C210.753 10.5439 211.473 10.4799 212.209 10.4159C212.945 10.3519 213.697 10.3199 214.465 10.3199C215.265 10.2879 216.033 10.2719 216.769 10.2719C219.361 10.2719 221.441 10.5919 223.009 11.2319C224.609 11.8719 225.777 12.8799 226.513 14.2559C227.249 15.5999 227.617 17.3919 227.617 19.6319V35.9519H224.737ZM216.145 36.6239C214.353 36.6239 212.769 36.3039 211.393 35.6639C210.017 35.0239 208.945 34.0959 208.177 32.8799C207.441 31.6639 207.073 30.1919 207.073 28.4639C207.073 26.7679 207.457 25.3279 208.225 24.1439C209.025 22.9599 210.161 22.0639 211.633 21.4559C213.137 20.8159 214.945 20.4959 217.057 20.4959H224.497V23.2319H216.817C214.801 23.2319 213.249 23.7279 212.161 24.7199C211.105 25.6799 210.577 26.9439 210.577 28.5119C210.577 30.1119 211.137 31.3919 212.257 32.3519C213.377 33.2799 214.897 33.7439 216.817 33.7439C218.001 33.7439 219.137 33.5359 220.225 33.1199C221.313 32.6719 222.225 31.9359 222.961 30.9119C223.697 29.8559 224.097 28.4159 224.161 26.5919L225.217 28.0799C225.089 29.9679 224.641 31.5519 223.873 32.8319C223.105 34.0799 222.065 35.0239 220.753 35.6639C219.441 36.3039 217.905 36.6239 216.145 36.6239ZM247.025 36.7679C245.169 36.7679 243.473 36.4319 241.937 35.7599C240.433 35.0559 239.121 34.0959 238.001 32.8799C236.913 31.6319 236.065 30.2239 235.457 28.6559C234.881 27.0559 234.593 25.3599 234.593 23.5679V22.8959C234.593 21.1679 234.881 19.5199 235.457 17.9519C236.033 16.3519 236.849 14.9439 237.905 13.7279C238.993 12.4799 240.289 11.5039 241.793 10.7999C243.329 10.0639 245.041 9.6959 246.929 9.6959C249.073 9.6959 250.961 10.1599 252.593 11.0879C254.225 12.0159 255.537 13.3599 256.529 15.1199C257.521 16.8479 258.049 18.9759 258.113 21.5039L256.529 18.5279V0.911903H260.129V35.9519H257.249V24.6719H258.401C258.337 27.3279 257.777 29.5679 256.721 31.3919C255.697 33.1839 254.337 34.5279 252.641 35.4239C250.977 36.3199 249.105 36.7679 247.025 36.7679ZM247.505 33.5999C249.233 33.5999 250.785 33.2159 252.161 32.4479C253.569 31.6799 254.673 30.5919 255.473 29.1839C256.273 27.7439 256.673 26.0959 256.673 24.2399V21.9359C256.673 20.1439 256.273 18.5759 255.473 17.2319C254.673 15.8559 253.569 14.7839 252.161 14.0159C250.785 13.2479 249.217 12.8639 247.457 12.8639C245.569 12.8639 243.921 13.3279 242.513 14.2559C241.137 15.1519 240.065 16.3839 239.297 17.9519C238.561 19.5199 238.193 21.2799 238.193 23.2319C238.193 25.2479 238.577 27.0399 239.345 28.6079C240.113 30.1759 241.201 31.4079 242.609 32.3039C244.017 33.1679 245.649 33.5999 247.505 33.5999ZM270.766 35.9519V10.5599H274.318V35.9519H270.766ZM266.686 13.4399V10.5599H274.318V13.4399H266.686ZM271.534 5.8559C270.67 5.8559 270.014 5.6319 269.566 5.1839C269.15 4.7039 268.942 4.1119 268.942 3.4079C268.942 2.7039 269.15 2.1279 269.566 1.6799C270.014 1.1999 270.67 0.959903 271.534 0.959903C272.398 0.959903 273.038 1.1999 273.454 1.6799C273.87 2.1279 274.078 2.7039 274.078 3.4079C274.078 4.1119 273.87 4.7039 273.454 5.1839C273.038 5.6319 272.398 5.8559 271.534 5.8559ZM283.765 35.9519V10.5599H286.645V21.2159H286.069C286.069 18.8479 286.421 16.8159 287.125 15.1199C287.829 13.4239 288.885 12.1119 290.293 11.1839C291.701 10.2559 293.477 9.7919 295.621 9.7919H295.765C298.965 9.7919 301.349 10.7999 302.917 12.8159C304.485 14.7999 305.269 17.5999 305.269 21.2159V35.9519H301.717V20.4479C301.717 18.2399 301.109 16.4639 299.893 15.1199C298.677 13.7759 296.981 13.1039 294.805 13.1039C292.565 13.1039 290.757 13.8079 289.381 15.2159C288.037 16.5919 287.365 18.4159 287.365 20.6879V35.9519H283.765ZM323.93 45.8879C322.746 45.8879 321.546 45.8239 320.33 45.6959C319.146 45.5999 318.01 45.4719 316.922 45.3119V42.2399C318.074 42.3999 319.274 42.5279 320.522 42.6239C321.802 42.7519 323.002 42.8159 324.122 42.8159C326.554 42.8159 328.49 42.4959 329.93 41.8559C331.37 41.2159 332.394 40.1919 333.002 38.7839C333.642 37.4079 333.962 35.5839 333.962 33.3119V28.2239L335.306 24.6719C335.242 27.1039 334.73 29.1999 333.77 30.9599C332.81 32.6879 331.514 34.0159 329.882 34.9439C328.25 35.8719 326.394 36.3359 324.314 36.3359C322.49 36.3359 320.826 35.9839 319.322 35.2799C317.85 34.5759 316.586 33.6159 315.53 32.3999C314.474 31.1519 313.658 29.7439 313.082 28.1759C312.506 26.6079 312.218 24.9599 312.218 23.2319V22.5599C312.218 20.8639 312.506 19.2479 313.082 17.7119C313.658 16.1439 314.474 14.7679 315.53 13.5839C316.586 12.3679 317.866 11.4239 319.37 10.7519C320.906 10.0479 322.602 9.6959 324.458 9.6959C326.698 9.6959 328.65 10.1919 330.314 11.1839C331.978 12.1759 333.274 13.5519 334.202 15.3119C335.162 17.0719 335.674 19.1359 335.738 21.5039L334.586 20.8799V10.5599H337.418V33.1679C337.418 36.2079 336.97 38.6559 336.074 40.5119C335.178 42.3679 333.738 43.7279 331.754 44.5919C329.802 45.4559 327.194 45.8879 323.93 45.8879ZM324.938 33.0239C326.666 33.0239 328.202 32.6559 329.546 31.9199C330.922 31.1519 332.01 30.0799 332.81 28.7039C333.61 27.3279 334.01 25.7279 334.01 23.9039V21.5519C334.01 19.7919 333.594 18.2559 332.762 16.9439C331.962 15.6319 330.89 14.6079 329.546 13.8719C328.202 13.1359 326.666 12.7679 324.938 12.7679C323.082 12.7679 321.466 13.2159 320.09 14.1119C318.714 15.0079 317.658 16.2239 316.922 17.7599C316.186 19.2639 315.818 20.9759 315.818 22.8959C315.818 24.8479 316.186 26.5919 316.922 28.1279C317.69 29.6639 318.762 30.8639 320.138 31.7279C321.514 32.5919 323.114 33.0239 324.938 33.0239ZM19.0563 96.7679C15.9203 96.7679 13.2323 96.2239 10.9922 95.1359C8.78425 94.0159 6.97625 92.5599 5.56825 90.7679C4.19225 88.9759 3.18425 87.0399 2.54425 84.9599C1.90425 82.8479 1.58425 80.7999 1.58425 78.8159V77.9039C1.58425 75.7599 1.90425 73.6319 2.54425 71.5199C3.21625 69.3759 4.24025 67.4399 5.61625 65.7119C7.02425 63.9839 8.81625 62.6079 10.9922 61.5839C13.1683 60.5279 15.7443 59.9999 18.7203 59.9999C21.7283 59.9999 24.3203 60.5279 26.4963 61.5839C28.7043 62.6399 30.4643 64.1279 31.7763 66.0479C33.0883 67.9359 33.8883 70.1759 34.1763 72.7679H30.4803C30.2243 70.6879 29.5523 68.9599 28.4643 67.5839C27.3763 66.1759 25.9843 65.1199 24.2883 64.4159C22.6243 63.7119 20.7683 63.3599 18.7203 63.3599C16.5123 63.3599 14.5603 63.7599 12.8643 64.5599C11.2003 65.3279 9.80825 66.4159 8.68825 67.8239C7.56825 69.1999 6.72025 70.7999 6.14425 72.6239C5.56825 74.4159 5.28025 76.3359 5.28025 78.3839C5.28025 80.3359 5.55225 82.2079 6.09625 83.9999C6.67225 85.7919 7.53625 87.4079 8.68825 88.8479C9.84025 90.2559 11.2803 91.3759 13.0083 92.2079C14.7363 93.0079 16.7523 93.4079 19.0563 93.4079C22.2563 93.4079 24.9443 92.6079 27.1203 91.0079C29.2963 89.3759 30.6403 87.0399 31.1523 83.9999H34.8483C34.4963 86.3999 33.6643 88.5759 32.3523 90.5279C31.0403 92.4479 29.2643 93.9679 27.0243 95.0879C24.8163 96.2079 22.1603 96.7679 19.0563 96.7679ZM56.8776 95.9519V88.3199H56.3016V79.2959C56.3016 77.4079 55.8056 75.9679 54.8136 74.9759C53.8216 73.9519 52.2856 73.4399 50.2056 73.4399C49.2456 73.4399 48.2696 73.4559 47.2776 73.4879C46.3176 73.5199 45.3896 73.5679 44.4936 73.6319C43.6296 73.6639 42.8616 73.7119 42.1896 73.7759V70.6079C42.8936 70.5439 43.6136 70.4799 44.3496 70.4159C45.0856 70.3519 45.8376 70.3199 46.6056 70.3199C47.4056 70.2879 48.1736 70.2719 48.9096 70.2719C51.5016 70.2719 53.5816 70.5919 55.1496 71.2319C56.7496 71.8719 57.9176 72.8799 58.6536 74.2559C59.3896 75.5999 59.7576 77.3919 59.7576 79.6319V95.9519H56.8776ZM48.2856 96.6239C46.4936 96.6239 44.9096 96.3039 43.5336 95.6639C42.1576 95.0239 41.0856 94.0959 40.3176 92.8799C39.5816 91.6639 39.2136 90.1919 39.2136 88.4639C39.2136 86.7679 39.5976 85.3279 40.3656 84.1439C41.1656 82.9599 42.3016 82.0639 43.7736 81.4559C45.2776 80.8159 47.0856 80.4959 49.1976 80.4959H56.6376V83.2319H48.9576C46.9416 83.2319 45.3896 83.7279 44.3016 84.7199C43.2456 85.6799 42.7176 86.9439 42.7176 88.5119C42.7176 90.1119 43.2776 91.3919 44.3976 92.3519C45.5176 93.2799 47.0376 93.7439 48.9576 93.7439C50.1416 93.7439 51.2776 93.5359 52.3656 93.1199C53.4536 92.6719 54.3656 91.9359 55.1016 90.9119C55.8376 89.8559 56.2376 88.4159 56.3016 86.5919L57.3576 88.0799C57.2296 89.9679 56.7816 91.5519 56.0136 92.8319C55.2456 94.0799 54.2056 95.0239 52.8936 95.6639C51.5816 96.3039 50.0456 96.6239 48.2856 96.6239ZM68.7498 95.9519V70.5599H71.6298V81.1679H71.3418C71.3418 77.4559 72.1578 74.7199 73.7898 72.9599C75.4218 71.1679 77.9818 70.2719 81.4698 70.2719H82.2858V73.5359H80.7978C78.0458 73.5359 75.9498 74.2559 74.5098 75.6959C73.0698 77.1039 72.3498 79.1839 72.3498 81.9359V95.9519H68.7498ZM98.197 96.7679C96.341 96.7679 94.645 96.4319 93.109 95.7599C91.605 95.0559 90.293 94.0959 89.173 92.8799C88.085 91.6319 87.237 90.2239 86.629 88.6559C86.053 87.0559 85.765 85.3599 85.765 83.5679V82.8959C85.765 81.1679 86.053 79.5199 86.629 77.9519C87.205 76.3519 88.021 74.9439 89.077 73.7279C90.165 72.4799 91.461 71.5039 92.965 70.7999C94.501 70.0639 96.213 69.6959 98.101 69.6959C100.245 69.6959 102.133 70.1599 103.765 71.0879C105.397 72.0159 106.709 73.3599 107.701 75.1199C108.693 76.8479 109.221 78.9759 109.285 81.5039L107.701 78.5279V60.9119H111.301V95.9519H108.421V84.6719H109.573C109.509 87.3279 108.949 89.5679 107.893 91.3919C106.869 93.1839 105.509 94.5279 103.813 95.4239C102.149 96.3199 100.277 96.7679 98.197 96.7679ZM98.677 93.5999C100.405 93.5999 101.957 93.2159 103.333 92.4479C104.741 91.6799 105.845 90.5919 106.645 89.1839C107.445 87.7439 107.845 86.0959 107.845 84.2399V81.9359C107.845 80.1439 107.445 78.5759 106.645 77.2319C105.845 75.8559 104.741 74.7839 103.333 74.0159C101.957 73.2479 100.389 72.8639 98.629 72.8639C96.741 72.8639 95.093 73.3279 93.685 74.2559C92.309 75.1519 91.237 76.3839 90.469 77.9519C89.733 79.5199 89.365 81.2799 89.365 83.2319C89.365 85.2479 89.749 87.0399 90.517 88.6079C91.285 90.1759 92.373 91.4079 93.781 92.3039C95.189 93.1679 96.821 93.5999 98.677 93.5999Z" fill="#0D0D0D"/>
<path d="M132.613 95.9519V60.9119H136.261V95.9519H132.613ZM135.397 95.9519V92.6399H152.917V95.9519H135.397ZM135.397 79.7759V76.5119H151.285V79.7759H135.397ZM135.397 64.2239V60.9119H152.389V64.2239H135.397ZM170.86 96.7679C168.716 96.7679 166.844 96.3999 165.244 95.6639C163.676 94.8959 162.364 93.8719 161.308 92.5919C160.252 91.2799 159.452 89.8399 158.908 88.2719C158.396 86.7039 158.14 85.1199 158.14 83.5199V82.8479C158.14 81.2159 158.396 79.6319 158.908 78.0959C159.452 76.5279 160.252 75.1199 161.308 73.8719C162.364 72.5919 163.676 71.5839 165.244 70.8479C166.844 70.0799 168.684 69.6959 170.764 69.6959C172.876 69.6959 174.748 70.0799 176.38 70.8479C178.044 71.6159 179.388 72.7039 180.412 74.1119C181.436 75.5199 182.044 77.1839 182.236 79.1039H178.78C178.492 77.3439 177.66 75.8879 176.284 74.7359C174.94 73.5519 173.1 72.9599 170.764 72.9599C168.748 72.9599 167.068 73.4239 165.724 74.3519C164.412 75.2479 163.42 76.4799 162.748 78.0479C162.076 79.5839 161.74 81.2959 161.74 83.1839C161.74 85.0399 162.076 86.7679 162.748 88.3679C163.42 89.9359 164.428 91.1999 165.772 92.1599C167.116 93.0879 168.812 93.5519 170.86 93.5519C172.428 93.5519 173.788 93.2799 174.94 92.7359C176.124 92.1599 177.068 91.3919 177.772 90.4319C178.508 89.4719 178.94 88.4159 179.068 87.2639H182.524C182.396 89.1839 181.788 90.8639 180.7 92.3039C179.644 93.7119 178.268 94.8159 176.572 95.6159C174.876 96.3839 172.972 96.7679 170.86 96.7679ZM200.501 96.7679C198.325 96.7679 196.405 96.3999 194.741 95.6639C193.109 94.8959 191.717 93.8879 190.565 92.6399C189.445 91.3599 188.581 89.9359 187.973 88.3679C187.397 86.7999 187.109 85.1999 187.109 83.5679V82.8959C187.109 81.2639 187.413 79.6639 188.021 78.0959C188.629 76.4959 189.509 75.0719 190.661 73.8239C191.813 72.5759 193.205 71.5839 194.837 70.8479C196.501 70.0799 198.389 69.6959 200.501 69.6959C202.645 69.6959 204.533 70.0799 206.165 70.8479C207.829 71.5839 209.237 72.5759 210.389 73.8239C211.541 75.0719 212.405 76.4959 212.981 78.0959C213.589 79.6639 213.893 81.2639 213.893 82.8959V83.5679C213.893 85.1999 213.605 86.7999 213.029 88.3679C212.453 89.9359 211.589 91.3599 210.437 92.6399C209.317 93.8879 207.925 94.8959 206.261 95.6639C204.597 96.3999 202.677 96.7679 200.501 96.7679ZM200.501 93.5519C202.613 93.5519 204.389 93.0879 205.829 92.1599C207.301 91.1999 208.421 89.9519 209.189 88.4159C209.957 86.8479 210.341 85.1199 210.341 83.2319C210.341 81.3119 209.941 79.5839 209.141 78.0479C208.373 76.4799 207.253 75.2479 205.781 74.3519C204.309 73.4239 202.549 72.9599 200.501 72.9599C198.485 72.9599 196.741 73.4239 195.269 74.3519C193.797 75.2479 192.661 76.4799 191.861 78.0479C191.093 79.5839 190.709 81.3119 190.709 83.2319C190.709 85.1199 191.093 86.8479 191.861 88.4159C192.629 89.9519 193.733 91.1999 195.173 92.1599C196.645 93.0879 198.421 93.5519 200.501 93.5519ZM229.25 96.6719C225.986 96.6719 223.474 95.9679 221.714 94.5599C219.954 93.1199 219.058 91.1999 219.026 88.7999H222.386C222.45 90.0159 222.994 91.1199 224.018 92.1119C225.074 93.1039 226.818 93.5999 229.25 93.5999C231.522 93.5999 233.218 93.1359 234.338 92.2079C235.49 91.2479 236.066 90.0959 236.066 88.7519C236.066 87.5039 235.586 86.5439 234.626 85.8719C233.698 85.1679 232.338 84.7199 230.546 84.5279L227.666 84.2399C225.362 83.9839 223.49 83.2799 222.05 82.1279C220.642 80.9439 219.938 79.3279 219.938 77.2799C219.938 75.7759 220.322 74.4639 221.09 73.3439C221.858 72.2239 222.93 71.3599 224.306 70.7519C225.714 70.1119 227.362 69.7919 229.25 69.7919C231.97 69.7919 234.178 70.4319 235.874 71.7119C237.602 72.9919 238.482 74.8159 238.514 77.1839H235.154C235.122 75.9679 234.61 74.9439 233.618 74.1119C232.626 73.2799 231.17 72.8639 229.25 72.8639C227.266 72.8639 225.778 73.2959 224.786 74.1599C223.826 75.0239 223.346 76.0799 223.346 77.3279C223.346 78.3839 223.714 79.2639 224.45 79.9679C225.186 80.6399 226.338 81.0559 227.906 81.2159L230.786 81.5039C233.346 81.7919 235.426 82.5279 237.026 83.7119C238.658 84.8959 239.474 86.5919 239.474 88.7999C239.474 90.3039 239.042 91.6639 238.178 92.8799C237.346 94.0639 236.162 94.9919 234.626 95.6639C233.09 96.3359 231.298 96.6719 229.25 96.6719ZM244.244 105.84V102.624H247.508C248.628 102.624 249.588 102.48 250.388 102.192C251.188 101.936 251.86 101.472 252.404 100.8C252.948 100.128 253.412 99.1999 253.796 98.0159L262.34 70.5599H265.844L256.916 99.0239C256.404 100.656 255.7 101.968 254.804 102.96C253.908 103.984 252.836 104.72 251.588 105.168C250.34 105.616 248.916 105.84 247.316 105.84H244.244ZM252.5 95.3279V92.3039H257.06V95.3279H252.5ZM252.068 95.3279L242.852 70.5599H246.548L255.428 95.3279H252.068ZM280.016 96.6719C276.752 96.6719 274.24 95.9679 272.48 94.5599C270.72 93.1199 269.824 91.1999 269.792 88.7999H273.152C273.216 90.0159 273.76 91.1199 274.784 92.1119C275.84 93.1039 277.584 93.5999 280.016 93.5999C282.288 93.5999 283.984 93.1359 285.104 92.2079C286.256 91.2479 286.832 90.0959 286.832 88.7519C286.832 87.5039 286.352 86.5439 285.392 85.8719C284.464 85.1679 283.104 84.7199 281.312 84.5279L278.432 84.2399C276.128 83.9839 274.256 83.2799 272.816 82.1279C271.408 80.9439 270.704 79.3279 270.704 77.2799C270.704 75.7759 271.088 74.4639 271.856 73.3439C272.624 72.2239 273.696 71.3599 275.072 70.7519C276.48 70.1119 278.128 69.7919 280.016 69.7919C282.736 69.7919 284.944 70.4319 286.64 71.7119C288.368 72.9919 289.248 74.8159 289.28 77.1839H285.92C285.888 75.9679 285.376 74.9439 284.384 74.1119C283.392 73.2799 281.936 72.8639 280.016 72.8639C278.032 72.8639 276.544 73.2959 275.552 74.1599C274.592 75.0239 274.112 76.0799 274.112 77.3279C274.112 78.3839 274.48 79.2639 275.216 79.9679C275.952 80.6399 277.104 81.0559 278.672 81.2159L281.552 81.5039C284.112 81.7919 286.192 82.5279 287.792 83.7119C289.424 84.8959 290.24 86.5919 290.24 88.7999C290.24 90.3039 289.808 91.6639 288.944 92.8799C288.112 94.0639 286.928 94.9919 285.392 95.6639C283.856 96.3359 282.064 96.6719 280.016 96.6719ZM306.622 96.2399C304.862 96.2399 303.342 95.9839 302.062 95.4719C300.782 94.9599 299.79 94.0959 299.086 92.8799C298.382 91.6319 298.03 89.9679 298.03 87.8879V62.5439H301.486V88.4159C301.486 89.8879 301.886 91.0239 302.686 91.8239C303.486 92.5919 304.622 92.9759 306.094 92.9759H310.654V96.2399H306.622ZM293.47 73.2959V70.5599H310.654V73.2959H293.47ZM327.983 96.7679C325.807 96.7679 323.919 96.3999 322.319 95.6639C320.719 94.8959 319.407 93.8879 318.383 92.6399C317.359 91.3599 316.591 89.9359 316.079 88.3679C315.599 86.7999 315.359 85.1839 315.359 83.5199V82.8479C315.359 81.2159 315.599 79.6159 316.079 78.0479C316.591 76.4799 317.359 75.0719 318.383 73.8239C319.407 72.5759 320.687 71.5839 322.223 70.8479C323.791 70.0799 325.615 69.6959 327.695 69.6959C330.351 69.6959 332.559 70.2879 334.319 71.4719C336.111 72.6559 337.455 74.1759 338.351 76.0319C339.247 77.8559 339.695 79.8239 339.695 81.9359V83.8079H316.991V81.0239H337.199L336.287 82.4159C336.287 80.5279 335.951 78.8799 335.279 77.4719C334.639 76.0319 333.679 74.9119 332.399 74.1119C331.151 73.2799 329.583 72.8639 327.695 72.8639C325.711 72.8639 324.063 73.3279 322.751 74.2559C321.439 75.1839 320.447 76.4159 319.775 77.9519C319.135 79.4879 318.815 81.2319 318.815 83.1839C318.815 85.1039 319.135 86.8639 319.775 88.4639C320.447 90.0319 321.455 91.2799 322.799 92.2079C324.175 93.1359 325.903 93.5999 327.983 93.5999C330.191 93.5999 331.983 93.1039 333.359 92.1119C334.735 91.0879 335.583 89.8879 335.903 88.5119H339.263C338.943 90.2079 338.271 91.6799 337.247 92.9279C336.223 94.1439 334.927 95.0879 333.359 95.7599C331.791 96.4319 329.999 96.7679 327.983 96.7679ZM346.625 95.9519V70.5119H349.505V81.2159H348.929C348.929 78.8799 349.249 76.8639 349.889 75.1679C350.561 73.4719 351.553 72.1599 352.865 71.2319C354.177 70.2719 355.841 69.7919 357.857 69.7919H358.001C360.017 69.7919 361.681 70.2559 362.993 71.1839C364.305 72.1119 365.281 73.4239 365.921 75.1199C366.561 76.8159 366.881 78.8479 366.881 81.2159H365.729C365.729 78.8799 366.049 76.8639 366.689 75.1679C367.361 73.4719 368.353 72.1599 369.665 71.2319C371.009 70.2719 372.689 69.7919 374.705 69.7919H374.849C376.865 69.7919 378.529 70.2559 379.841 71.1839C381.185 72.1119 382.177 73.4239 382.817 75.1199C383.489 76.8159 383.825 78.8479 383.825 81.2159V95.9519H380.225V80.3999C380.225 78.1599 379.681 76.3839 378.593 75.0719C377.505 73.7599 375.937 73.1039 373.889 73.1039C371.777 73.1039 370.097 73.7919 368.849 75.1679C367.633 76.5119 367.025 78.3359 367.025 80.6399V95.9519H363.425V80.3999C363.425 78.1599 362.881 76.3839 361.793 75.0719C360.705 73.7599 359.137 73.1039 357.089 73.1039C354.977 73.1039 353.297 73.7919 352.049 75.1679C350.833 76.5119 350.225 78.3359 350.225 80.6399V95.9519H346.625ZM400.813 96.6719C397.549 96.6719 395.037 95.9679 393.277 94.5599C391.517 93.1199 390.621 91.1999 390.589 88.7999H393.949C394.013 90.0159 394.557 91.1199 395.581 92.1119C396.637 93.1039 398.381 93.5999 400.813 93.5999C403.085 93.5999 404.781 93.1359 405.901 92.2079C407.053 91.2479 407.629 90.0959 407.629 88.7519C407.629 87.5039 407.149 86.5439 406.189 85.8719C405.261 85.1679 403.901 84.7199 402.109 84.5279L399.229 84.2399C396.925 83.9839 395.053 83.2799 393.613 82.1279C392.205 80.9439 391.501 79.3279 391.501 77.2799C391.501 75.7759 391.885 74.4639 392.653 73.3439C393.421 72.2239 394.493 71.3599 395.869 70.7519C397.277 70.1119 398.925 69.7919 400.813 69.7919C403.533 69.7919 405.741 70.4319 407.437 71.7119C409.165 72.9919 410.045 74.8159 410.077 77.1839H406.717C406.685 75.9679 406.173 74.9439 405.181 74.1119C404.189 73.2799 402.733 72.8639 400.813 72.8639C398.829 72.8639 397.341 73.2959 396.349 74.1599C395.389 75.0239 394.909 76.0799 394.909 77.3279C394.909 78.3839 395.277 79.2639 396.013 79.9679C396.749 80.6399 397.901 81.0559 399.469 81.2159L402.349 81.5039C404.909 81.7919 406.989 82.5279 408.589 83.7119C410.221 84.8959 411.037 86.5919 411.037 88.7999C411.037 90.3039 410.605 91.6639 409.741 92.8799C408.909 94.0639 407.725 94.9919 406.189 95.6639C404.653 96.3359 402.861 96.6719 400.813 96.6719Z" fill="url(#paint0_radial_149_138)"/>
<defs>
<radialGradient id="paint0_radial_149_138" cx="0" cy="0" r="1" gradientUnits="userSpaceOnUse" gradientTransform="translate(233.156 49.9519) rotate(90) scale(60 234.5)">
<stop stop-color="#5A69EA"/>
<stop offset="1" stop-color="#BF8BCA"/>
</radialGradient>
</defs>
</svg>
