<svg width="1198" height="554" viewBox="0 0 1198 554" fill="none" xmlns="http://www.w3.org/2000/svg">
<g filter="url(#filter0_ddddii_1078_1681)">
<rect x="15" y="15" width="1165" height="521" rx="10" fill="#ECECEC"/>
<rect x="16" y="16" width="1163" height="519" rx="9" stroke="#717171" stroke-opacity="0.5" stroke-width="2"/>
</g>
<path d="M66.0716 80.124L74.6796 56.764H79.0316L87.9276 80.124H85.4316L77.1436 58.3L78.4556 58.972H75.0956L76.4716 58.3L68.5036 80.124H66.0716ZM70.6796 72.7L71.4796 70.492H82.3276L83.1596 72.7H70.6796ZM97.3699 80.604C95.1939 80.604 93.5192 80.1347 92.3459 79.196C91.1725 78.236 90.5752 76.956 90.5539 75.356H92.7939C92.8365 76.1667 93.1992 76.9027 93.8819 77.564C94.5859 78.2254 95.7485 78.556 97.3699 78.556C98.8845 78.556 100.015 78.2467 100.762 77.628C101.53 76.988 101.914 76.22 101.914 75.324C101.914 74.492 101.594 73.852 100.954 73.404C100.335 72.9347 99.4285 72.636 98.2339 72.508L96.3139 72.316C94.7779 72.1454 93.5299 71.676 92.5699 70.908C91.6312 70.1187 91.1619 69.0414 91.1619 67.676C91.1619 66.6734 91.4179 65.7987 91.9299 65.052C92.4419 64.3054 93.1565 63.7294 94.0739 63.324C95.0125 62.8974 96.1112 62.684 97.3699 62.684C99.1832 62.684 100.655 63.1107 101.786 63.964C102.938 64.8174 103.525 66.0334 103.546 67.612H101.306C101.285 66.8014 100.943 66.1187 100.282 65.564C99.6205 65.0094 98.6499 64.732 97.3699 64.732C96.0472 64.732 95.0552 65.02 94.3939 65.596C93.7539 66.172 93.4339 66.876 93.4339 67.708C93.4339 68.412 93.6792 68.9987 94.1699 69.468C94.6605 69.916 95.4285 70.1934 96.4739 70.3L98.3939 70.492C100.101 70.684 101.487 71.1747 102.554 71.964C103.642 72.7534 104.186 73.884 104.186 75.356C104.186 76.3587 103.898 77.2654 103.322 78.076C102.767 78.8654 101.978 79.484 100.954 79.932C99.9299 80.38 98.7352 80.604 97.3699 80.604ZM120.483 80.124L113.667 72.188H110.915L118.947 63.196H121.507L114.307 71.228L114.467 69.916L123.299 80.124H120.483ZM108.963 80.124V56.764H111.363V80.124H108.963ZM149.067 86.812C147.979 86.812 147.029 86.6414 146.219 86.3C145.429 85.9587 144.821 85.404 144.395 84.636C143.968 83.8894 143.755 82.876 143.755 81.596V79.036H145.995V81.948C145.995 82.8014 146.229 83.4627 146.699 83.932C147.168 84.4014 147.829 84.636 148.683 84.636H152.651V86.812H149.067ZM144.779 80.668C142.752 80.668 140.992 80.3054 139.499 79.58C138.005 78.8547 136.768 77.8947 135.787 76.7C134.805 75.5054 134.069 74.204 133.579 72.796C133.088 71.388 132.843 70.012 132.843 68.668V68.092C132.843 66.6627 133.088 65.244 133.579 63.836C134.091 62.4067 134.848 61.116 135.851 59.964C136.853 58.812 138.101 57.8947 139.595 57.212C141.088 56.508 142.816 56.156 144.779 56.156C146.763 56.156 148.491 56.508 149.963 57.212C151.456 57.8947 152.704 58.812 153.707 59.964C154.709 61.116 155.456 62.4067 155.947 63.836C156.459 65.244 156.715 66.6627 156.715 68.092V68.7C156.715 70.044 156.469 71.42 155.979 72.828C155.509 74.2147 154.773 75.5054 153.771 76.7C152.789 77.8947 151.552 78.8547 150.059 79.58C148.565 80.3054 146.805 80.668 144.779 80.668ZM144.779 78.428C146.272 78.428 147.605 78.1614 148.779 77.628C149.952 77.0734 150.944 76.3267 151.755 75.388C152.565 74.428 153.184 73.3507 153.611 72.156C154.037 70.9614 154.251 69.7134 154.251 68.412C154.251 67.0467 154.037 65.7667 153.611 64.572C153.184 63.3774 152.555 62.3214 151.723 61.404C150.912 60.4654 149.92 59.7294 148.747 59.196C147.573 58.6627 146.251 58.396 144.779 58.396C143.328 58.396 142.016 58.6627 140.843 59.196C139.669 59.7294 138.667 60.4654 137.835 61.404C137.024 62.3214 136.395 63.3774 135.947 64.572C135.52 65.7667 135.307 67.0467 135.307 68.412C135.307 69.7134 135.52 70.9614 135.947 72.156C136.373 73.3507 136.992 74.428 137.803 75.388C138.613 76.3267 139.605 77.0734 140.779 77.628C141.973 78.1614 143.307 78.428 144.779 78.428ZM167.601 80.604C165.574 80.604 164.027 79.9534 162.961 78.652C161.894 77.3294 161.361 75.4947 161.361 73.148V63.164H163.729V73.628C163.729 75.1 164.113 76.2734 164.881 77.148C165.67 78.0014 166.758 78.428 168.145 78.428C169.595 78.428 170.747 77.9694 171.601 77.052C172.475 76.1347 172.913 74.908 172.913 73.372V63.164H175.313V80.124H173.393V73.052H173.777C173.777 74.6307 173.553 75.9854 173.105 77.116C172.657 78.2254 171.985 79.0894 171.089 79.708C170.193 80.3054 169.062 80.604 167.697 80.604H167.601ZM188.66 80.668C187.21 80.668 185.951 80.4227 184.884 79.932C183.818 79.42 182.943 78.748 182.26 77.916C181.578 77.0627 181.066 76.1134 180.724 75.068C180.404 74.0227 180.244 72.9454 180.244 71.836V71.388C180.244 70.3 180.404 69.2334 180.724 68.188C181.066 67.1427 181.578 66.204 182.26 65.372C182.943 64.54 183.796 63.8787 184.82 63.388C185.866 62.876 187.082 62.62 188.468 62.62C190.239 62.62 191.711 63.0147 192.884 63.804C194.079 64.5934 194.975 65.6067 195.572 66.844C196.17 68.06 196.468 69.372 196.468 70.78V72.028H181.332V70.172H194.804L194.196 71.1C194.196 69.8414 193.972 68.7427 193.524 67.804C193.098 66.844 192.458 66.0974 191.604 65.564C190.772 65.0094 189.727 64.732 188.468 64.732C187.146 64.732 186.047 65.0414 185.172 65.66C184.298 66.2787 183.636 67.1 183.188 68.124C182.762 69.148 182.548 70.3107 182.548 71.612C182.548 72.892 182.762 74.0654 183.188 75.132C183.636 76.1774 184.308 77.0094 185.204 77.628C186.122 78.2467 187.274 78.556 188.66 78.556C190.132 78.556 191.327 78.2254 192.244 77.564C193.162 76.8814 193.727 76.0814 193.94 75.164H196.18C195.967 76.2947 195.519 77.276 194.836 78.108C194.154 78.9187 193.29 79.548 192.244 79.996C191.199 80.444 190.004 80.668 188.66 80.668ZM206.432 80.604C204.256 80.604 202.582 80.1347 201.408 79.196C200.235 78.236 199.638 76.956 199.616 75.356H201.856C201.899 76.1667 202.262 76.9027 202.944 77.564C203.648 78.2254 204.811 78.556 206.432 78.556C207.947 78.556 209.078 78.2467 209.824 77.628C210.592 76.988 210.976 76.22 210.976 75.324C210.976 74.492 210.656 73.852 210.016 73.404C209.398 72.9347 208.491 72.636 207.296 72.508L205.376 72.316C203.84 72.1454 202.592 71.676 201.632 70.908C200.694 70.1187 200.224 69.0414 200.224 67.676C200.224 66.6734 200.48 65.7987 200.992 65.052C201.504 64.3054 202.219 63.7294 203.136 63.324C204.075 62.8974 205.174 62.684 206.432 62.684C208.246 62.684 209.718 63.1107 210.848 63.964C212 64.8174 212.587 66.0334 212.608 67.612H210.368C210.347 66.8014 210.006 66.1187 209.344 65.564C208.683 65.0094 207.712 64.732 206.432 64.732C205.11 64.732 204.118 65.02 203.456 65.596C202.816 66.172 202.496 66.876 202.496 67.708C202.496 68.412 202.742 68.9987 203.232 69.468C203.723 69.916 204.491 70.1934 205.536 70.3L207.456 70.492C209.163 70.684 210.55 71.1747 211.616 71.964C212.704 72.7534 213.248 73.884 213.248 75.356C213.248 76.3587 212.96 77.2654 212.384 78.076C211.83 78.8654 211.04 79.484 210.016 79.932C208.992 80.38 207.798 80.604 206.432 80.604ZM224.17 80.316C222.997 80.316 221.983 80.1454 221.13 79.804C220.277 79.4627 219.615 78.8867 219.146 78.076C218.677 77.244 218.442 76.1347 218.442 74.748V57.852H220.746V75.1C220.746 76.0814 221.013 76.8387 221.546 77.372C222.079 77.884 222.837 78.14 223.818 78.14H226.858V80.316H224.17ZM215.402 65.02V63.196H226.858V65.02H215.402ZM232.391 80.124V63.196H234.759V80.124H232.391ZM229.671 65.116V63.196H234.759V65.116H229.671ZM232.903 60.06C232.327 60.06 231.889 59.9107 231.591 59.612C231.313 59.292 231.175 58.8974 231.175 58.428C231.175 57.9587 231.313 57.5747 231.591 57.276C231.889 56.956 232.327 56.796 232.903 56.796C233.479 56.796 233.905 56.956 234.183 57.276C234.46 57.5747 234.599 57.9587 234.599 58.428C234.599 58.8974 234.46 59.292 234.183 59.612C233.905 59.9107 233.479 60.06 232.903 60.06ZM248.641 80.668C247.19 80.668 245.91 80.4227 244.801 79.932C243.713 79.42 242.785 78.748 242.017 77.916C241.27 77.0627 240.694 76.1134 240.289 75.068C239.905 74.0227 239.713 72.956 239.713 71.868V71.42C239.713 70.332 239.916 69.2654 240.321 68.22C240.726 67.1534 241.313 66.204 242.081 65.372C242.849 64.54 243.777 63.8787 244.865 63.388C245.974 62.876 247.233 62.62 248.641 62.62C250.07 62.62 251.329 62.876 252.417 63.388C253.526 63.8787 254.465 64.54 255.233 65.372C256.001 66.204 256.577 67.1534 256.961 68.22C257.366 69.2654 257.569 70.332 257.569 71.42V71.868C257.569 72.956 257.377 74.0227 256.993 75.068C256.609 76.1134 256.033 77.0627 255.265 77.916C254.518 78.748 253.59 79.42 252.481 79.932C251.372 80.4227 250.092 80.668 248.641 80.668ZM248.641 78.524C250.049 78.524 251.233 78.2147 252.193 77.596C253.174 76.956 253.921 76.124 254.433 75.1C254.945 74.0547 255.201 72.9027 255.201 71.644C255.201 70.364 254.934 69.212 254.401 68.188C253.889 67.1427 253.142 66.3214 252.161 65.724C251.18 65.1054 250.006 64.796 248.641 64.796C247.297 64.796 246.134 65.1054 245.153 65.724C244.172 66.3214 243.414 67.1427 242.881 68.188C242.369 69.212 242.113 70.364 242.113 71.644C242.113 72.9027 242.369 74.0547 242.881 75.1C243.393 76.124 244.129 76.956 245.089 77.596C246.07 78.2147 247.254 78.524 248.641 78.524ZM262.463 80.124V63.196H264.383V70.3H263.999C263.999 68.7214 264.234 67.3667 264.703 66.236C265.173 65.1054 265.877 64.2307 266.815 63.612C267.754 62.9934 268.938 62.684 270.367 62.684H270.463C272.597 62.684 274.186 63.356 275.231 64.7C276.277 66.0227 276.799 67.8894 276.799 70.3V80.124H274.431V69.788C274.431 68.316 274.026 67.132 273.215 66.236C272.405 65.34 271.274 64.892 269.823 64.892C268.33 64.892 267.125 65.3614 266.207 66.3C265.311 67.2174 264.863 68.4334 264.863 69.948V80.124H262.463Z" fill="#404040"/>
<path d="M292.581 80.252V78.012H298.949C300.527 78.012 301.903 77.756 303.077 77.244C304.271 76.732 305.274 76.0387 306.085 75.164C306.895 74.268 307.503 73.244 307.909 72.092C308.314 70.94 308.517 69.7134 308.517 68.412C308.517 67.068 308.303 65.82 307.877 64.668C307.471 63.516 306.863 62.5027 306.053 61.628C305.242 60.7534 304.239 60.0814 303.045 59.612C301.871 59.1427 300.506 58.908 298.949 58.908H292.581V56.668H298.693C300.783 56.668 302.597 56.988 304.133 57.628C305.669 58.268 306.949 59.1427 307.973 60.252C308.997 61.34 309.754 62.5667 310.245 63.932C310.735 65.2974 310.981 66.684 310.981 68.092V68.7C310.981 70.0867 310.735 71.4627 310.245 72.828C309.754 74.1934 309.007 75.4414 308.005 76.572C307.002 77.6814 305.722 78.5774 304.165 79.26C302.629 79.9214 300.805 80.252 298.693 80.252H292.581ZM290.789 80.252V56.668H293.221V80.252H290.789ZM316.578 80.124V63.196H318.946V80.124H316.578ZM313.858 65.116V63.196H318.946V65.116H313.858ZM317.09 60.06C316.514 60.06 316.077 59.9107 315.778 59.612C315.501 59.292 315.362 58.8974 315.362 58.428C315.362 57.9587 315.501 57.5747 315.778 57.276C316.077 56.956 316.514 56.796 317.09 56.796C317.666 56.796 318.093 56.956 318.37 57.276C318.647 57.5747 318.786 57.9587 318.786 58.428C318.786 58.8974 318.647 59.292 318.37 59.612C318.093 59.9107 317.666 60.06 317.09 60.06ZM325.245 80.124V63.196H327.165V70.268H326.973C326.973 67.7934 327.517 65.9694 328.605 64.796C329.693 63.6014 331.399 63.004 333.725 63.004H334.269V65.18H333.277C331.442 65.18 330.045 65.66 329.085 66.62C328.125 67.5587 327.645 68.9454 327.645 70.78V80.124H325.245ZM345.004 80.668C343.553 80.668 342.295 80.4227 341.228 79.932C340.161 79.42 339.287 78.748 338.604 77.916C337.921 77.0627 337.409 76.1134 337.068 75.068C336.748 74.0227 336.588 72.9454 336.588 71.836V71.388C336.588 70.3 336.748 69.2334 337.068 68.188C337.409 67.1427 337.921 66.204 338.604 65.372C339.287 64.54 340.14 63.8787 341.164 63.388C342.209 62.876 343.425 62.62 344.812 62.62C346.583 62.62 348.055 63.0147 349.228 63.804C350.423 64.5934 351.319 65.6067 351.916 66.844C352.513 68.06 352.812 69.372 352.812 70.78V72.028H337.676V70.172H351.148L350.54 71.1C350.54 69.8414 350.316 68.7427 349.868 67.804C349.441 66.844 348.801 66.0974 347.948 65.564C347.116 65.0094 346.071 64.732 344.812 64.732C343.489 64.732 342.391 65.0414 341.516 65.66C340.641 66.2787 339.98 67.1 339.532 68.124C339.105 69.148 338.892 70.3107 338.892 71.612C338.892 72.892 339.105 74.0654 339.532 75.132C339.98 76.1774 340.652 77.0094 341.548 77.628C342.465 78.2467 343.617 78.556 345.004 78.556C346.476 78.556 347.671 78.2254 348.588 77.564C349.505 76.8814 350.071 76.0814 350.284 75.164H352.524C352.311 76.2947 351.863 77.276 351.18 78.108C350.497 78.9187 349.633 79.548 348.588 79.996C347.543 80.444 346.348 80.668 345.004 80.668ZM364.568 80.668C363.139 80.668 361.891 80.4227 360.824 79.932C359.779 79.42 358.904 78.7374 358.2 77.884C357.496 77.0094 356.963 76.0494 356.6 75.004C356.259 73.9587 356.088 72.9027 356.088 71.836V71.388C356.088 70.3 356.259 69.244 356.6 68.22C356.963 67.1747 357.496 66.236 358.2 65.404C358.904 64.5507 359.779 63.8787 360.824 63.388C361.891 62.876 363.117 62.62 364.504 62.62C365.912 62.62 367.16 62.876 368.248 63.388C369.357 63.9 370.253 64.6254 370.936 65.564C371.619 66.5027 372.024 67.612 372.152 68.892H369.848C369.656 67.7187 369.101 66.748 368.184 65.98C367.288 65.1907 366.061 64.796 364.504 64.796C363.16 64.796 362.04 65.1054 361.144 65.724C360.269 66.3214 359.608 67.1427 359.16 68.188C358.712 69.212 358.488 70.3534 358.488 71.612C358.488 72.8494 358.712 74.0014 359.16 75.068C359.608 76.1134 360.28 76.956 361.176 77.596C362.072 78.2147 363.203 78.524 364.568 78.524C365.613 78.524 366.52 78.3427 367.288 77.98C368.077 77.596 368.707 77.084 369.176 76.444C369.667 75.804 369.955 75.1 370.04 74.332H372.344C372.259 75.612 371.853 76.732 371.128 77.692C370.424 78.6307 369.507 79.3667 368.376 79.9C367.245 80.412 365.976 80.668 364.568 80.668ZM382.889 80.316C381.715 80.316 380.702 80.1454 379.849 79.804C378.995 79.4627 378.334 78.8867 377.865 78.076C377.395 77.244 377.161 76.1347 377.161 74.748V57.852H379.465V75.1C379.465 76.0814 379.731 76.8387 380.265 77.372C380.798 77.884 381.555 78.14 382.537 78.14H385.577V80.316H382.889ZM374.121 65.02V63.196H385.577V65.02H374.121ZM390.373 80.124V56.764H392.773V80.124H390.373ZM387.909 58.716V56.764H392.773V58.716H387.909ZM397.491 86.716V84.572H399.667C400.413 84.572 401.053 84.476 401.587 84.284C402.12 84.1134 402.568 83.804 402.931 83.356C403.293 82.908 403.603 82.2894 403.859 81.5L409.555 63.196H411.891L405.939 82.172C405.597 83.26 405.128 84.1347 404.531 84.796C403.933 85.4787 403.219 85.9694 402.387 86.268C401.555 86.5667 400.605 86.716 399.539 86.716H397.491ZM402.995 79.708V77.692H406.035V79.708H402.995ZM402.707 79.708L396.563 63.196H399.027L404.947 79.708H402.707Z" fill="url(#paint0_radial_1078_1681)"/>
<g filter="url(#filter1_ddiiii_1078_1681)">
<rect x="62" y="112.978" width="559" height="48.9889" rx="10" fill="#ECECEC"/>
<rect x="62.5" y="113.478" width="558" height="47.9889" rx="9.5" stroke="url(#paint1_radial_1078_1681)"/>
</g>
<g filter="url(#filter2_ddiiii_1078_1681)">
<rect x="61" y="176" width="1040" height="317" rx="10" fill="#ECECEC"/>
<rect x="61.5" y="176.5" width="1039" height="316" rx="9.5" stroke="url(#paint2_radial_1078_1681)"/>
</g>
<path d="M91.9434 138.399L88.6534 132.183H89.7734L92.6714 137.741L92.2234 137.559H93.7774L93.3154 137.741L96.0594 132.183H97.1094L94.0154 138.399H91.9434ZM92.4474 142.403V138.161H93.4974V142.403H92.4474ZM101.362 142.641C100.727 142.641 100.167 142.533 99.6815 142.319C99.2055 142.095 98.7995 141.801 98.4635 141.437C98.1369 141.063 97.8849 140.648 97.7075 140.191C97.5395 139.733 97.4555 139.267 97.4555 138.791V138.595C97.4555 138.119 97.5442 137.652 97.7215 137.195C97.8989 136.728 98.1555 136.313 98.4915 135.949C98.8275 135.585 99.2335 135.295 99.7095 135.081C100.195 134.857 100.746 134.745 101.362 134.745C101.987 134.745 102.538 134.857 103.014 135.081C103.499 135.295 103.91 135.585 104.246 135.949C104.582 136.313 104.834 136.728 105.002 137.195C105.179 137.652 105.268 138.119 105.268 138.595V138.791C105.268 139.267 105.184 139.733 105.016 140.191C104.848 140.648 104.596 141.063 104.26 141.437C103.933 141.801 103.527 142.095 103.042 142.319C102.556 142.533 101.996 142.641 101.362 142.641ZM101.362 141.703C101.978 141.703 102.496 141.567 102.916 141.297C103.345 141.017 103.672 140.653 103.896 140.205C104.12 139.747 104.232 139.243 104.232 138.693C104.232 138.133 104.115 137.629 103.882 137.181C103.658 136.723 103.331 136.364 102.902 136.103C102.472 135.832 101.959 135.697 101.362 135.697C100.774 135.697 100.265 135.832 99.8355 136.103C99.4062 136.364 99.0749 136.723 98.8415 137.181C98.6175 137.629 98.5055 138.133 98.5055 138.693C98.5055 139.243 98.6175 139.747 98.8415 140.205C99.0655 140.653 99.3875 141.017 99.8075 141.297C100.237 141.567 100.755 141.703 101.362 141.703ZM109.971 142.613C109.084 142.613 108.407 142.328 107.941 141.759C107.474 141.18 107.241 140.377 107.241 139.351V134.983H108.277V139.561C108.277 140.205 108.445 140.718 108.781 141.101C109.126 141.474 109.602 141.661 110.209 141.661C110.843 141.661 111.347 141.46 111.721 141.059C112.103 140.657 112.295 140.121 112.295 139.449V134.983H113.345V142.403H112.505V139.309H112.673C112.673 139.999 112.575 140.592 112.379 141.087C112.183 141.572 111.889 141.95 111.497 142.221C111.105 142.482 110.61 142.613 110.013 142.613H109.971ZM116.09 142.403V134.997H116.93V138.091H116.846C116.846 137.008 117.084 136.21 117.56 135.697C118.036 135.174 118.783 134.913 119.8 134.913H120.038V135.865H119.604C118.802 135.865 118.19 136.075 117.77 136.495C117.35 136.905 117.14 137.512 117.14 138.315V142.403H116.09ZM128.098 142.641C127.464 142.641 126.913 142.533 126.446 142.319C125.98 142.095 125.597 141.801 125.298 141.437C125 141.063 124.776 140.648 124.626 140.191C124.486 139.733 124.416 139.262 124.416 138.777V138.581C124.416 138.105 124.486 137.638 124.626 137.181C124.776 136.723 125 136.313 125.298 135.949C125.597 135.585 125.97 135.295 126.418 135.081C126.876 134.857 127.408 134.745 128.014 134.745C128.789 134.745 129.433 134.917 129.946 135.263C130.469 135.608 130.861 136.051 131.122 136.593C131.384 137.125 131.514 137.699 131.514 138.315V138.861H124.892V138.049H130.786L130.52 138.455C130.52 137.904 130.422 137.423 130.226 137.013C130.04 136.593 129.76 136.266 129.386 136.033C129.022 135.79 128.565 135.669 128.014 135.669C127.436 135.669 126.955 135.804 126.572 136.075C126.19 136.345 125.9 136.705 125.704 137.153C125.518 137.601 125.424 138.109 125.424 138.679C125.424 139.239 125.518 139.752 125.704 140.219C125.9 140.676 126.194 141.04 126.586 141.311C126.988 141.581 127.492 141.717 128.098 141.717C128.742 141.717 129.265 141.572 129.666 141.283C130.068 140.984 130.315 140.634 130.408 140.233H131.388C131.295 140.727 131.099 141.157 130.8 141.521C130.502 141.875 130.124 142.151 129.666 142.347C129.209 142.543 128.686 142.641 128.098 142.641ZM133.536 142.403V134.983H134.376V138.105H134.208C134.208 137.423 134.301 136.835 134.488 136.341C134.684 135.846 134.973 135.463 135.356 135.193C135.738 134.913 136.224 134.773 136.812 134.773H136.854C137.442 134.773 137.927 134.908 138.31 135.179C138.692 135.449 138.977 135.832 139.164 136.327C139.35 136.821 139.444 137.414 139.444 138.105H139.108C139.108 137.423 139.201 136.835 139.388 136.341C139.584 135.846 139.873 135.463 140.256 135.193C140.648 134.913 141.138 134.773 141.726 134.773H141.768C142.356 134.773 142.841 134.908 143.224 135.179C143.616 135.449 143.905 135.832 144.092 136.327C144.288 136.821 144.386 137.414 144.386 138.105V142.403H143.336V137.867C143.336 137.213 143.177 136.695 142.86 136.313C142.542 135.93 142.085 135.739 141.488 135.739C140.872 135.739 140.382 135.939 140.018 136.341C139.663 136.733 139.486 137.265 139.486 137.937V142.403H138.436V137.867C138.436 137.213 138.277 136.695 137.96 136.313C137.642 135.93 137.185 135.739 136.588 135.739C135.972 135.739 135.482 135.939 135.118 136.341C134.763 136.733 134.586 137.265 134.586 137.937V142.403H133.536ZM151.511 142.403V140.177H151.343V137.545C151.343 136.994 151.198 136.574 150.909 136.285C150.619 135.986 150.171 135.837 149.565 135.837C149.285 135.837 149 135.841 148.711 135.851C148.431 135.86 148.16 135.874 147.899 135.893C147.647 135.902 147.423 135.916 147.227 135.935V135.011C147.432 134.992 147.642 134.973 147.857 134.955C148.071 134.936 148.291 134.927 148.515 134.927C148.748 134.917 148.972 134.913 149.187 134.913C149.943 134.913 150.549 135.006 151.007 135.193C151.473 135.379 151.814 135.673 152.029 136.075C152.243 136.467 152.351 136.989 152.351 137.643V142.403H151.511ZM149.005 142.599C148.482 142.599 148.02 142.505 147.619 142.319C147.217 142.132 146.905 141.861 146.681 141.507C146.466 141.152 146.359 140.723 146.359 140.219C146.359 139.724 146.471 139.304 146.695 138.959C146.928 138.613 147.259 138.352 147.689 138.175C148.127 137.988 148.655 137.895 149.271 137.895H151.441V138.693H149.201C148.613 138.693 148.16 138.837 147.843 139.127C147.535 139.407 147.381 139.775 147.381 140.233C147.381 140.699 147.544 141.073 147.871 141.353C148.197 141.623 148.641 141.759 149.201 141.759C149.546 141.759 149.877 141.698 150.195 141.577C150.512 141.446 150.778 141.231 150.993 140.933C151.207 140.625 151.324 140.205 151.343 139.673L151.651 140.107C151.613 140.657 151.483 141.119 151.259 141.493C151.035 141.857 150.731 142.132 150.349 142.319C149.966 142.505 149.518 142.599 149.005 142.599ZM155.365 142.403V134.997H156.401V142.403H155.365ZM154.175 135.837V134.997H156.401V135.837H154.175ZM155.589 133.625C155.337 133.625 155.146 133.559 155.015 133.429C154.894 133.289 154.833 133.116 154.833 132.911C154.833 132.705 154.894 132.537 155.015 132.407C155.146 132.267 155.337 132.197 155.589 132.197C155.841 132.197 156.028 132.267 156.149 132.407C156.271 132.537 156.331 132.705 156.331 132.911C156.331 133.116 156.271 133.289 156.149 133.429C156.028 133.559 155.841 133.625 155.589 133.625ZM159.227 142.403V132.183H160.277V142.403H159.227ZM158.149 133.037V132.183H160.277V133.037H158.149Z" fill="#717171" fill-opacity="0.5"/>
<path d="M92.8633 204.631L89.5733 198.415H90.6933L93.5913 203.973L93.1433 203.791H94.6973L94.2353 203.973L96.9793 198.415H98.0293L94.9353 204.631H92.8633ZM93.3673 208.635V204.393H94.4173V208.635H93.3673ZM102.281 208.873C101.647 208.873 101.087 208.765 100.601 208.551C100.125 208.327 99.7195 208.033 99.3835 207.669C99.0568 207.295 98.8048 206.88 98.6275 206.423C98.4595 205.965 98.3755 205.499 98.3755 205.023V204.827C98.3755 204.351 98.4641 203.884 98.6415 203.427C98.8188 202.96 99.0755 202.545 99.4115 202.181C99.7475 201.817 100.153 201.527 100.629 201.313C101.115 201.089 101.665 200.977 102.281 200.977C102.907 200.977 103.457 201.089 103.933 201.313C104.419 201.527 104.829 201.817 105.165 202.181C105.501 202.545 105.753 202.96 105.921 203.427C106.099 203.884 106.187 204.351 106.187 204.827V205.023C106.187 205.499 106.103 205.965 105.935 206.423C105.767 206.88 105.515 207.295 105.179 207.669C104.853 208.033 104.447 208.327 103.961 208.551C103.476 208.765 102.916 208.873 102.281 208.873ZM102.281 207.935C102.897 207.935 103.415 207.799 103.835 207.529C104.265 207.249 104.591 206.885 104.815 206.437C105.039 205.979 105.151 205.475 105.151 204.925C105.151 204.365 105.035 203.861 104.801 203.413C104.577 202.955 104.251 202.596 103.821 202.335C103.392 202.064 102.879 201.929 102.281 201.929C101.693 201.929 101.185 202.064 100.755 202.335C100.326 202.596 99.9948 202.955 99.7615 203.413C99.5375 203.861 99.4255 204.365 99.4255 204.925C99.4255 205.475 99.5375 205.979 99.7615 206.437C99.9855 206.885 100.307 207.249 100.727 207.529C101.157 207.799 101.675 207.935 102.281 207.935ZM110.891 208.845C110.004 208.845 109.327 208.56 108.861 207.991C108.394 207.412 108.161 206.609 108.161 205.583V201.215H109.197V205.793C109.197 206.437 109.365 206.95 109.701 207.333C110.046 207.706 110.522 207.893 111.129 207.893C111.763 207.893 112.267 207.692 112.641 207.291C113.023 206.889 113.215 206.353 113.215 205.681V201.215H114.265V208.635H113.425V205.541H113.593C113.593 206.231 113.495 206.824 113.299 207.319C113.103 207.804 112.809 208.182 112.417 208.453C112.025 208.714 111.53 208.845 110.933 208.845H110.891ZM117.01 208.635V201.229H117.85V204.323H117.766C117.766 203.24 118.004 202.442 118.48 201.929C118.956 201.406 119.703 201.145 120.72 201.145H120.958V202.097H120.524C119.722 202.097 119.11 202.307 118.69 202.727C118.27 203.137 118.06 203.744 118.06 204.547V208.635H117.01ZM131.734 211.435V206.409L132.182 205.359C132.164 206.115 132.01 206.754 131.72 207.277C131.431 207.799 131.044 208.196 130.558 208.467C130.082 208.737 129.541 208.873 128.934 208.873C128.393 208.873 127.898 208.77 127.45 208.565C127.012 208.359 126.634 208.075 126.316 207.711C126.008 207.347 125.766 206.931 125.588 206.465C125.42 205.998 125.336 205.508 125.336 204.995V204.799C125.336 204.285 125.42 203.805 125.588 203.357C125.756 202.899 125.999 202.493 126.316 202.139C126.634 201.775 127.012 201.49 127.45 201.285C127.898 201.079 128.402 200.977 128.962 200.977C129.625 200.977 130.199 201.126 130.684 201.425C131.179 201.714 131.562 202.115 131.832 202.629C132.112 203.142 132.262 203.744 132.28 204.435L131.944 204.351V201.229H132.784V211.435H131.734ZM129.102 207.921C129.606 207.921 130.059 207.809 130.46 207.585C130.871 207.351 131.193 207.029 131.426 206.619C131.66 206.208 131.776 205.732 131.776 205.191V204.505C131.776 203.982 131.66 203.525 131.426 203.133C131.193 202.731 130.871 202.423 130.46 202.209C130.059 201.985 129.606 201.873 129.102 201.873C128.542 201.873 128.057 202.008 127.646 202.279C127.245 202.54 126.932 202.899 126.708 203.357C126.494 203.814 126.386 204.327 126.386 204.897C126.386 205.475 126.498 205.993 126.722 206.451C126.946 206.908 127.264 207.267 127.674 207.529C128.085 207.79 128.561 207.921 129.102 207.921ZM138.057 208.845C137.17 208.845 136.493 208.56 136.027 207.991C135.56 207.412 135.327 206.609 135.327 205.583V201.215H136.363V205.793C136.363 206.437 136.531 206.95 136.867 207.333C137.212 207.706 137.688 207.893 138.295 207.893C138.929 207.893 139.433 207.692 139.807 207.291C140.189 206.889 140.381 206.353 140.381 205.681V201.215H141.431V208.635H140.591V205.541H140.759C140.759 206.231 140.661 206.824 140.465 207.319C140.269 207.804 139.975 208.182 139.583 208.453C139.191 208.714 138.696 208.845 138.099 208.845H138.057ZM147.27 208.873C146.636 208.873 146.085 208.765 145.618 208.551C145.152 208.327 144.769 208.033 144.47 207.669C144.172 207.295 143.948 206.88 143.798 206.423C143.658 205.965 143.588 205.494 143.588 205.009V204.813C143.588 204.337 143.658 203.87 143.798 203.413C143.948 202.955 144.172 202.545 144.47 202.181C144.769 201.817 145.142 201.527 145.59 201.313C146.048 201.089 146.58 200.977 147.186 200.977C147.961 200.977 148.605 201.149 149.118 201.495C149.641 201.84 150.033 202.283 150.294 202.825C150.556 203.357 150.686 203.931 150.686 204.547V205.093H144.064V204.281H149.958L149.692 204.687C149.692 204.136 149.594 203.655 149.398 203.245C149.212 202.825 148.932 202.498 148.558 202.265C148.194 202.022 147.737 201.901 147.186 201.901C146.608 201.901 146.127 202.036 145.744 202.307C145.362 202.577 145.072 202.937 144.876 203.385C144.69 203.833 144.596 204.341 144.596 204.911C144.596 205.471 144.69 205.984 144.876 206.451C145.072 206.908 145.366 207.272 145.758 207.543C146.16 207.813 146.664 207.949 147.27 207.949C147.914 207.949 148.437 207.804 148.838 207.515C149.24 207.216 149.487 206.866 149.58 206.465H150.56C150.467 206.959 150.271 207.389 149.972 207.753C149.674 208.107 149.296 208.383 148.838 208.579C148.381 208.775 147.858 208.873 147.27 208.873ZM152.708 208.635V201.229H153.548V204.323H153.464C153.464 203.24 153.702 202.442 154.178 201.929C154.654 201.406 155.4 201.145 156.418 201.145H156.656V202.097H156.222C155.419 202.097 154.808 202.307 154.388 202.727C153.968 203.137 153.758 203.744 153.758 204.547V208.635H152.708ZM157.942 211.519V210.581H158.894C159.221 210.581 159.501 210.539 159.734 210.455C159.968 210.38 160.164 210.245 160.322 210.049C160.481 209.853 160.616 209.582 160.728 209.237L163.22 201.229H164.242L161.638 209.531C161.489 210.007 161.284 210.389 161.022 210.679C160.761 210.977 160.448 211.192 160.084 211.323C159.72 211.453 159.305 211.519 158.838 211.519H157.942ZM160.35 208.453V207.571H161.68V208.453H160.35ZM160.224 208.453L157.536 201.229H158.614L161.204 208.453H160.224Z" fill="#717171" fill-opacity="0.5"/>
<g filter="url(#filter3_ddiiii_1078_1681)">
<rect x="658" y="116.19" width="137" height="44.1704" rx="10" fill="#ECECEC"/>
<rect x="655.5" y="113.69" width="142" height="49.1704" rx="12.5" stroke="url(#paint3_radial_1078_1681)" stroke-width="5"/>
<path d="M689.96 145.115C688.733 145.115 687.7 144.922 686.86 144.535C686.02 144.135 685.38 143.589 684.94 142.895C684.513 142.189 684.3 141.395 684.3 140.515H685.82C685.82 141.075 685.953 141.602 686.22 142.095C686.5 142.575 686.94 142.969 687.54 143.275C688.153 143.569 688.96 143.715 689.96 143.715C690.88 143.715 691.64 143.582 692.24 143.315C692.853 143.049 693.307 142.689 693.6 142.235C693.907 141.782 694.06 141.275 694.06 140.715C694.06 140.009 693.78 139.422 693.22 138.955C692.673 138.475 691.847 138.189 690.74 138.095L689.06 137.935C687.807 137.829 686.807 137.442 686.06 136.775C685.327 136.095 684.96 135.202 684.96 134.095C684.96 133.255 685.16 132.515 685.56 131.875C685.96 131.235 686.527 130.729 687.26 130.355C688.007 129.982 688.9 129.795 689.94 129.795C690.993 129.795 691.893 129.989 692.64 130.375C693.4 130.749 693.98 131.269 694.38 131.935C694.78 132.602 694.98 133.375 694.98 134.255H693.46C693.46 133.722 693.34 133.222 693.1 132.755C692.86 132.289 692.48 131.915 691.96 131.635C691.44 131.342 690.767 131.195 689.94 131.195C689.153 131.195 688.5 131.329 687.98 131.595C687.473 131.862 687.093 132.215 686.84 132.655C686.6 133.095 686.48 133.575 686.48 134.095C686.48 134.749 686.713 135.302 687.18 135.755C687.647 136.209 688.32 136.469 689.2 136.535L690.88 136.695C691.867 136.775 692.707 136.995 693.4 137.355C694.107 137.702 694.647 138.162 695.02 138.735C695.393 139.295 695.58 139.955 695.58 140.715C695.58 141.569 695.347 142.329 694.88 142.995C694.427 143.662 693.78 144.182 692.94 144.555C692.1 144.929 691.107 145.115 689.96 145.115ZM703.305 145.115C702.399 145.115 701.612 144.962 700.945 144.655C700.279 144.335 699.732 143.915 699.305 143.395C698.879 142.862 698.559 142.269 698.345 141.615C698.145 140.962 698.045 140.289 698.045 139.595V139.315C698.045 138.635 698.145 137.969 698.345 137.315C698.559 136.662 698.879 136.075 699.305 135.555C699.732 135.035 700.265 134.622 700.905 134.315C701.559 133.995 702.319 133.835 703.185 133.835C704.292 133.835 705.212 134.082 705.945 134.575C706.692 135.069 707.252 135.702 707.625 136.475C707.999 137.235 708.185 138.055 708.185 138.935V139.715H698.725V138.555H707.145L706.765 139.135C706.765 138.349 706.625 137.662 706.345 137.075C706.079 136.475 705.679 136.009 705.145 135.675C704.625 135.329 703.972 135.155 703.185 135.155C702.359 135.155 701.672 135.349 701.125 135.735C700.579 136.122 700.165 136.635 699.885 137.275C699.619 137.915 699.485 138.642 699.485 139.455C699.485 140.255 699.619 140.989 699.885 141.655C700.165 142.309 700.585 142.829 701.145 143.215C701.719 143.602 702.439 143.795 703.305 143.795C704.225 143.795 704.972 143.589 705.545 143.175C706.119 142.749 706.472 142.249 706.605 141.675H708.005C707.872 142.382 707.592 142.995 707.165 143.515C706.739 144.022 706.199 144.415 705.545 144.695C704.892 144.975 704.145 145.115 703.305 145.115ZM711.073 144.775V134.195H712.273V138.635H712.033C712.033 137.649 712.179 136.802 712.473 136.095C712.766 135.389 713.206 134.842 713.793 134.455C714.379 134.069 715.119 133.875 716.013 133.875H716.073C717.406 133.875 718.399 134.295 719.053 135.135C719.706 135.962 720.033 137.129 720.033 138.635V144.775H718.553V138.315C718.553 137.395 718.299 136.655 717.793 136.095C717.286 135.535 716.579 135.255 715.673 135.255C714.739 135.255 713.986 135.549 713.413 136.135C712.853 136.709 712.573 137.469 712.573 138.415V144.775H711.073ZM728.108 145.115C727.335 145.115 726.628 144.975 725.988 144.695C725.361 144.402 724.815 144.002 724.348 143.495C723.895 142.975 723.541 142.389 723.288 141.735C723.048 141.069 722.928 140.362 722.928 139.615V139.335C722.928 138.615 723.048 137.929 723.288 137.275C723.528 136.609 723.868 136.022 724.308 135.515C724.761 134.995 725.301 134.589 725.928 134.295C726.568 133.989 727.281 133.835 728.068 133.835C728.961 133.835 729.748 134.029 730.428 134.415C731.108 134.802 731.655 135.362 732.068 136.095C732.481 136.815 732.701 137.702 732.728 138.755L732.068 137.515V130.175H733.568V144.775H732.368V140.075H732.848C732.821 141.182 732.588 142.115 732.148 142.875C731.721 143.622 731.155 144.182 730.448 144.555C729.755 144.929 728.975 145.115 728.108 145.115ZM728.308 143.795C729.028 143.795 729.675 143.635 730.248 143.315C730.835 142.995 731.295 142.542 731.628 141.955C731.961 141.355 732.128 140.669 732.128 139.895V138.935C732.128 138.189 731.961 137.535 731.628 136.975C731.295 136.402 730.835 135.955 730.248 135.635C729.675 135.315 729.021 135.155 728.288 135.155C727.501 135.155 726.815 135.349 726.228 135.735C725.655 136.109 725.208 136.622 724.888 137.275C724.581 137.929 724.428 138.662 724.428 139.475C724.428 140.315 724.588 141.062 724.908 141.715C725.228 142.369 725.681 142.882 726.268 143.255C726.855 143.615 727.535 143.795 728.308 143.795Z" fill="#404040"/>
<path d="M753 143.275L763 133.275M763 143.275V133.275H753" stroke="#717171" stroke-width="2.5" stroke-linecap="round" stroke-linejoin="round"/>
</g>
<defs>
<filter id="filter0_ddddii_1078_1681" x="0" y="0" width="1198" height="554" filterUnits="userSpaceOnUse" color-interpolation-filters="sRGB">
<feFlood flood-opacity="0" result="BackgroundImageFix"/>
<feColorMatrix in="SourceAlpha" type="matrix" values="0 0 0 0 0 0 0 0 0 0 0 0 0 0 0 0 0 0 127 0" result="hardAlpha"/>
<feOffset dx="5" dy="5"/>
<feGaussianBlur stdDeviation="6.5"/>
<feColorMatrix type="matrix" values="0 0 0 0 0.831373 0 0 0 0 0.831373 0 0 0 0 0.831373 0 0 0 0.9 0"/>
<feBlend mode="normal" in2="BackgroundImageFix" result="effect1_dropShadow_1078_1681"/>
<feColorMatrix in="SourceAlpha" type="matrix" values="0 0 0 0 0 0 0 0 0 0 0 0 0 0 0 0 0 0 127 0" result="hardAlpha"/>
<feOffset dx="-5" dy="-5"/>
<feGaussianBlur stdDeviation="5"/>
<feColorMatrix type="matrix" values="0 0 0 0 1 0 0 0 0 1 0 0 0 0 1 0 0 0 0.9 0"/>
<feBlend mode="normal" in2="effect1_dropShadow_1078_1681" result="effect2_dropShadow_1078_1681"/>
<feColorMatrix in="SourceAlpha" type="matrix" values="0 0 0 0 0 0 0 0 0 0 0 0 0 0 0 0 0 0 127 0" result="hardAlpha"/>
<feOffset dx="5" dy="-5"/>
<feGaussianBlur stdDeviation="5"/>
<feColorMatrix type="matrix" values="0 0 0 0 0.831373 0 0 0 0 0.831373 0 0 0 0 0.831373 0 0 0 0.2 0"/>
<feBlend mode="normal" in2="effect2_dropShadow_1078_1681" result="effect3_dropShadow_1078_1681"/>
<feColorMatrix in="SourceAlpha" type="matrix" values="0 0 0 0 0 0 0 0 0 0 0 0 0 0 0 0 0 0 127 0" result="hardAlpha"/>
<feOffset dx="-5" dy="5"/>
<feGaussianBlur stdDeviation="5"/>
<feColorMatrix type="matrix" values="0 0 0 0 0.831373 0 0 0 0 0.831373 0 0 0 0 0.831373 0 0 0 0.2 0"/>
<feBlend mode="normal" in2="effect3_dropShadow_1078_1681" result="effect4_dropShadow_1078_1681"/>
<feBlend mode="normal" in="SourceGraphic" in2="effect4_dropShadow_1078_1681" result="shape"/>
<feColorMatrix in="SourceAlpha" type="matrix" values="0 0 0 0 0 0 0 0 0 0 0 0 0 0 0 0 0 0 127 0" result="hardAlpha"/>
<feOffset dx="-1" dy="-1"/>
<feGaussianBlur stdDeviation="1"/>
<feComposite in2="hardAlpha" operator="arithmetic" k2="-1" k3="1"/>
<feColorMatrix type="matrix" values="0 0 0 0 0.831373 0 0 0 0 0.831373 0 0 0 0 0.831373 0 0 0 0.5 0"/>
<feBlend mode="normal" in2="shape" result="effect5_innerShadow_1078_1681"/>
<feColorMatrix in="SourceAlpha" type="matrix" values="0 0 0 0 0 0 0 0 0 0 0 0 0 0 0 0 0 0 127 0" result="hardAlpha"/>
<feOffset dx="1" dy="1"/>
<feGaussianBlur stdDeviation="1"/>
<feComposite in2="hardAlpha" operator="arithmetic" k2="-1" k3="1"/>
<feColorMatrix type="matrix" values="0 0 0 0 1 0 0 0 0 1 0 0 0 0 1 0 0 0 0.3 0"/>
<feBlend mode="normal" in2="effect5_innerShadow_1078_1681" result="effect6_innerShadow_1078_1681"/>
</filter>
<filter id="filter1_ddiiii_1078_1681" x="59" y="109.978" width="565" height="54.9888" filterUnits="userSpaceOnUse" color-interpolation-filters="sRGB">
<feFlood flood-opacity="0" result="BackgroundImageFix"/>
<feColorMatrix in="SourceAlpha" type="matrix" values="0 0 0 0 0 0 0 0 0 0 0 0 0 0 0 0 0 0 127 0" result="hardAlpha"/>
<feOffset dx="-1" dy="-1"/>
<feGaussianBlur stdDeviation="1"/>
<feColorMatrix type="matrix" values="0 0 0 0 0.831373 0 0 0 0 0.831373 0 0 0 0 0.831373 0 0 0 0.5 0"/>
<feBlend mode="normal" in2="BackgroundImageFix" result="effect1_dropShadow_1078_1681"/>
<feColorMatrix in="SourceAlpha" type="matrix" values="0 0 0 0 0 0 0 0 0 0 0 0 0 0 0 0 0 0 127 0" result="hardAlpha"/>
<feOffset dx="1" dy="1"/>
<feGaussianBlur stdDeviation="1"/>
<feColorMatrix type="matrix" values="0 0 0 0 1 0 0 0 0 1 0 0 0 0 1 0 0 0 0.3 0"/>
<feBlend mode="normal" in2="effect1_dropShadow_1078_1681" result="effect2_dropShadow_1078_1681"/>
<feBlend mode="normal" in="SourceGraphic" in2="effect2_dropShadow_1078_1681" result="shape"/>
<feColorMatrix in="SourceAlpha" type="matrix" values="0 0 0 0 0 0 0 0 0 0 0 0 0 0 0 0 0 0 127 0" result="hardAlpha"/>
<feOffset dx="2" dy="2"/>
<feGaussianBlur stdDeviation="2.5"/>
<feComposite in2="hardAlpha" operator="arithmetic" k2="-1" k3="1"/>
<feColorMatrix type="matrix" values="0 0 0 0 0.831373 0 0 0 0 0.831373 0 0 0 0 0.831373 0 0 0 0.9 0"/>
<feBlend mode="normal" in2="shape" result="effect3_innerShadow_1078_1681"/>
<feColorMatrix in="SourceAlpha" type="matrix" values="0 0 0 0 0 0 0 0 0 0 0 0 0 0 0 0 0 0 127 0" result="hardAlpha"/>
<feOffset dx="-2" dy="-2"/>
<feGaussianBlur stdDeviation="2"/>
<feComposite in2="hardAlpha" operator="arithmetic" k2="-1" k3="1"/>
<feColorMatrix type="matrix" values="0 0 0 0 1 0 0 0 0 1 0 0 0 0 1 0 0 0 0.9 0"/>
<feBlend mode="normal" in2="effect3_innerShadow_1078_1681" result="effect4_innerShadow_1078_1681"/>
<feColorMatrix in="SourceAlpha" type="matrix" values="0 0 0 0 0 0 0 0 0 0 0 0 0 0 0 0 0 0 127 0" result="hardAlpha"/>
<feOffset dx="2" dy="-2"/>
<feGaussianBlur stdDeviation="2"/>
<feComposite in2="hardAlpha" operator="arithmetic" k2="-1" k3="1"/>
<feColorMatrix type="matrix" values="0 0 0 0 0.831373 0 0 0 0 0.831373 0 0 0 0 0.831373 0 0 0 0.2 0"/>
<feBlend mode="normal" in2="effect4_innerShadow_1078_1681" result="effect5_innerShadow_1078_1681"/>
<feColorMatrix in="SourceAlpha" type="matrix" values="0 0 0 0 0 0 0 0 0 0 0 0 0 0 0 0 0 0 127 0" result="hardAlpha"/>
<feOffset dx="-2" dy="2"/>
<feGaussianBlur stdDeviation="2"/>
<feComposite in2="hardAlpha" operator="arithmetic" k2="-1" k3="1"/>
<feColorMatrix type="matrix" values="0 0 0 0 0.831373 0 0 0 0 0.831373 0 0 0 0 0.831373 0 0 0 0.2 0"/>
<feBlend mode="normal" in2="effect5_innerShadow_1078_1681" result="effect6_innerShadow_1078_1681"/>
</filter>
<filter id="filter2_ddiiii_1078_1681" x="58" y="173" width="1046" height="323" filterUnits="userSpaceOnUse" color-interpolation-filters="sRGB">
<feFlood flood-opacity="0" result="BackgroundImageFix"/>
<feColorMatrix in="SourceAlpha" type="matrix" values="0 0 0 0 0 0 0 0 0 0 0 0 0 0 0 0 0 0 127 0" result="hardAlpha"/>
<feOffset dx="-1" dy="-1"/>
<feGaussianBlur stdDeviation="1"/>
<feColorMatrix type="matrix" values="0 0 0 0 0.831373 0 0 0 0 0.831373 0 0 0 0 0.831373 0 0 0 0.5 0"/>
<feBlend mode="normal" in2="BackgroundImageFix" result="effect1_dropShadow_1078_1681"/>
<feColorMatrix in="SourceAlpha" type="matrix" values="0 0 0 0 0 0 0 0 0 0 0 0 0 0 0 0 0 0 127 0" result="hardAlpha"/>
<feOffset dx="1" dy="1"/>
<feGaussianBlur stdDeviation="1"/>
<feColorMatrix type="matrix" values="0 0 0 0 1 0 0 0 0 1 0 0 0 0 1 0 0 0 0.3 0"/>
<feBlend mode="normal" in2="effect1_dropShadow_1078_1681" result="effect2_dropShadow_1078_1681"/>
<feBlend mode="normal" in="SourceGraphic" in2="effect2_dropShadow_1078_1681" result="shape"/>
<feColorMatrix in="SourceAlpha" type="matrix" values="0 0 0 0 0 0 0 0 0 0 0 0 0 0 0 0 0 0 127 0" result="hardAlpha"/>
<feOffset dx="2" dy="2"/>
<feGaussianBlur stdDeviation="2.5"/>
<feComposite in2="hardAlpha" operator="arithmetic" k2="-1" k3="1"/>
<feColorMatrix type="matrix" values="0 0 0 0 0.831373 0 0 0 0 0.831373 0 0 0 0 0.831373 0 0 0 0.9 0"/>
<feBlend mode="normal" in2="shape" result="effect3_innerShadow_1078_1681"/>
<feColorMatrix in="SourceAlpha" type="matrix" values="0 0 0 0 0 0 0 0 0 0 0 0 0 0 0 0 0 0 127 0" result="hardAlpha"/>
<feOffset dx="-2" dy="-2"/>
<feGaussianBlur stdDeviation="2"/>
<feComposite in2="hardAlpha" operator="arithmetic" k2="-1" k3="1"/>
<feColorMatrix type="matrix" values="0 0 0 0 1 0 0 0 0 1 0 0 0 0 1 0 0 0 0.9 0"/>
<feBlend mode="normal" in2="effect3_innerShadow_1078_1681" result="effect4_innerShadow_1078_1681"/>
<feColorMatrix in="SourceAlpha" type="matrix" values="0 0 0 0 0 0 0 0 0 0 0 0 0 0 0 0 0 0 127 0" result="hardAlpha"/>
<feOffset dx="2" dy="-2"/>
<feGaussianBlur stdDeviation="2"/>
<feComposite in2="hardAlpha" operator="arithmetic" k2="-1" k3="1"/>
<feColorMatrix type="matrix" values="0 0 0 0 0.831373 0 0 0 0 0.831373 0 0 0 0 0.831373 0 0 0 0.2 0"/>
<feBlend mode="normal" in2="effect4_innerShadow_1078_1681" result="effect5_innerShadow_1078_1681"/>
<feColorMatrix in="SourceAlpha" type="matrix" values="0 0 0 0 0 0 0 0 0 0 0 0 0 0 0 0 0 0 127 0" result="hardAlpha"/>
<feOffset dx="-2" dy="2"/>
<feGaussianBlur stdDeviation="2"/>
<feComposite in2="hardAlpha" operator="arithmetic" k2="-1" k3="1"/>
<feColorMatrix type="matrix" values="0 0 0 0 0.831373 0 0 0 0 0.831373 0 0 0 0 0.831373 0 0 0 0.2 0"/>
<feBlend mode="normal" in2="effect5_innerShadow_1078_1681" result="effect6_innerShadow_1078_1681"/>
</filter>
<filter id="filter3_ddiiii_1078_1681" x="650" y="108.19" width="153" height="60.1704" filterUnits="userSpaceOnUse" color-interpolation-filters="sRGB">
<feFlood flood-opacity="0" result="BackgroundImageFix"/>
<feColorMatrix in="SourceAlpha" type="matrix" values="0 0 0 0 0 0 0 0 0 0 0 0 0 0 0 0 0 0 127 0" result="hardAlpha"/>
<feOffset dx="-1" dy="-1"/>
<feGaussianBlur stdDeviation="1"/>
<feColorMatrix type="matrix" values="0 0 0 0 0.568627 0 0 0 0 0.568627 0 0 0 0 0.560784 0 0 0 0.5 0"/>
<feBlend mode="normal" in2="BackgroundImageFix" result="effect1_dropShadow_1078_1681"/>
<feColorMatrix in="SourceAlpha" type="matrix" values="0 0 0 0 0 0 0 0 0 0 0 0 0 0 0 0 0 0 127 0" result="hardAlpha"/>
<feOffset dx="1" dy="1"/>
<feGaussianBlur stdDeviation="1"/>
<feColorMatrix type="matrix" values="0 0 0 0 1 0 0 0 0 1 0 0 0 0 1 0 0 0 0.3 0"/>
<feBlend mode="normal" in2="effect1_dropShadow_1078_1681" result="effect2_dropShadow_1078_1681"/>
<feBlend mode="normal" in="SourceGraphic" in2="effect2_dropShadow_1078_1681" result="shape"/>
<feColorMatrix in="SourceAlpha" type="matrix" values="0 0 0 0 0 0 0 0 0 0 0 0 0 0 0 0 0 0 127 0" result="hardAlpha"/>
<feOffset dx="2" dy="2"/>
<feGaussianBlur stdDeviation="2.5"/>
<feComposite in2="hardAlpha" operator="arithmetic" k2="-1" k3="1"/>
<feColorMatrix type="matrix" values="0 0 0 0 0.568627 0 0 0 0 0.568627 0 0 0 0 0.560784 0 0 0 0.9 0"/>
<feBlend mode="normal" in2="shape" result="effect3_innerShadow_1078_1681"/>
<feColorMatrix in="SourceAlpha" type="matrix" values="0 0 0 0 0 0 0 0 0 0 0 0 0 0 0 0 0 0 127 0" result="hardAlpha"/>
<feOffset dx="-2" dy="-2"/>
<feGaussianBlur stdDeviation="2"/>
<feComposite in2="hardAlpha" operator="arithmetic" k2="-1" k3="1"/>
<feColorMatrix type="matrix" values="0 0 0 0 1 0 0 0 0 1 0 0 0 0 1 0 0 0 0.9 0"/>
<feBlend mode="normal" in2="effect3_innerShadow_1078_1681" result="effect4_innerShadow_1078_1681"/>
<feColorMatrix in="SourceAlpha" type="matrix" values="0 0 0 0 0 0 0 0 0 0 0 0 0 0 0 0 0 0 127 0" result="hardAlpha"/>
<feOffset dx="2" dy="-2"/>
<feGaussianBlur stdDeviation="2"/>
<feComposite in2="hardAlpha" operator="arithmetic" k2="-1" k3="1"/>
<feColorMatrix type="matrix" values="0 0 0 0 0.568627 0 0 0 0 0.568627 0 0 0 0 0.560784 0 0 0 0.2 0"/>
<feBlend mode="normal" in2="effect4_innerShadow_1078_1681" result="effect5_innerShadow_1078_1681"/>
<feColorMatrix in="SourceAlpha" type="matrix" values="0 0 0 0 0 0 0 0 0 0 0 0 0 0 0 0 0 0 127 0" result="hardAlpha"/>
<feOffset dx="-2" dy="2"/>
<feGaussianBlur stdDeviation="2"/>
<feComposite in2="hardAlpha" operator="arithmetic" k2="-1" k3="1"/>
<feColorMatrix type="matrix" values="0 0 0 0 0.568627 0 0 0 0 0.568627 0 0 0 0 0.560784 0 0 0 0.2 0"/>
<feBlend mode="normal" in2="effect5_innerShadow_1078_1681" result="effect6_innerShadow_1078_1681"/>
</filter>
<radialGradient id="paint0_radial_1078_1681" cx="0" cy="0" r="1" gradientUnits="userSpaceOnUse" gradientTransform="translate(239 65.1937) rotate(90) scale(18.0697 174)">
<stop stop-color="#5A69EA"/>
<stop offset="1" stop-color="#BF8BCA"/>
</radialGradient>
<radialGradient id="paint1_radial_1078_1681" cx="0" cy="0" r="1" gradientUnits="userSpaceOnUse" gradientTransform="translate(341.5 137.472) rotate(90) scale(24.4945 279.5)">
<stop stop-color="#5A69EA"/>
<stop offset="1" stop-color="#BF8BCA"/>
</radialGradient>
<radialGradient id="paint2_radial_1078_1681" cx="0" cy="0" r="1" gradientUnits="userSpaceOnUse" gradientTransform="translate(581 334.5) rotate(90) scale(158.5 520)">
<stop stop-color="#5A69EA"/>
<stop offset="1" stop-color="#BF8BCA"/>
</radialGradient>
<radialGradient id="paint3_radial_1078_1681" cx="0" cy="0" r="1" gradientUnits="userSpaceOnUse" gradientTransform="translate(726.5 138.276) rotate(90) scale(22.0852 68.5)">
<stop stop-color="#5A69EA"/>
<stop offset="1" stop-color="#BF8BCA"/>
</radialGradient>
</defs>
</svg>
