<svg width="159" height="25" viewBox="0 0 159 25" fill="none" xmlns="http://www.w3.org/2000/svg">
<path d="M-0.000640631 23.9678L8.60736 0.607773H12.9594L21.8554 23.9678H19.3594L11.0714 2.14377L12.3834 2.81577H9.02336L10.3994 2.14377L2.43136 23.9678H-0.000640631ZM4.60736 16.5438L5.40736 14.3358H16.2554L17.0874 16.5438H4.60736ZM31.2976 24.4478C29.1216 24.4478 27.4469 23.9784 26.2736 23.0398C25.1003 22.0798 24.5029 20.7998 24.4816 19.1998H26.7216C26.7643 20.0104 27.1269 20.7464 27.8096 21.4078C28.5136 22.0691 29.6763 22.3998 31.2976 22.3998C32.8123 22.3998 33.9429 22.0904 34.6896 21.4718C35.4576 20.8318 35.8416 20.0638 35.8416 19.1678C35.8416 18.3358 35.5216 17.6958 34.8816 17.2478C34.2629 16.7784 33.3563 16.4798 32.1616 16.3518L30.2416 16.1598C28.7056 15.9891 27.4576 15.5198 26.4976 14.7518C25.5589 13.9624 25.0896 12.8851 25.0896 11.5198C25.0896 10.5171 25.3456 9.64244 25.8576 8.89577C26.3696 8.14911 27.0843 7.57311 28.0016 7.16777C28.9403 6.74111 30.0389 6.52777 31.2976 6.52777C33.1109 6.52777 34.5829 6.95444 35.7136 7.80777C36.8656 8.66111 37.4523 9.87711 37.4736 11.4558H35.2336C35.2123 10.6451 34.8709 9.96244 34.2096 9.40777C33.5483 8.85311 32.5776 8.57577 31.2976 8.57577C29.9749 8.57577 28.9829 8.86377 28.3216 9.43977C27.6816 10.0158 27.3616 10.7198 27.3616 11.5518C27.3616 12.2558 27.6069 12.8424 28.0976 13.3118C28.5883 13.7598 29.3563 14.0371 30.4016 14.1438L32.3216 14.3358C34.0283 14.5278 35.4149 15.0184 36.4816 15.8078C37.5696 16.5971 38.1136 17.7278 38.1136 19.1998C38.1136 20.2024 37.8256 21.1091 37.2496 21.9198C36.6949 22.7091 35.9056 23.3278 34.8816 23.7758C33.8576 24.2238 32.6629 24.4478 31.2976 24.4478ZM54.4111 23.9678L47.5951 16.0318H44.8431L52.8751 7.03977H55.4351L48.2351 15.0718L48.3951 13.7598L57.2271 23.9678H54.4111ZM42.8911 23.9678V0.607773H45.2911V23.9678H42.8911Z" fill="#404040"/>
<path d="M75.9544 24.5118C73.9917 24.5118 72.3384 24.2024 70.9944 23.5838C69.6504 22.9438 68.6264 22.0691 67.9224 20.9598C67.2397 19.8291 66.8984 18.5598 66.8984 17.1518H69.3304C69.3304 18.0478 69.5437 18.8904 69.9704 19.6798C70.4184 20.4478 71.1224 21.0771 72.0824 21.5678C73.0637 22.0371 74.3544 22.2718 75.9544 22.2718C77.4264 22.2718 78.6424 22.0584 79.6024 21.6318C80.5837 21.2051 81.309 20.6291 81.7784 19.9038C82.269 19.1784 82.5144 18.3678 82.5144 17.4718C82.5144 16.3411 82.0664 15.4024 81.1704 14.6558C80.2957 13.8878 78.973 13.4291 77.2024 13.2798L74.5144 13.0238C72.509 12.8531 70.909 12.2344 69.7144 11.1678C68.541 10.0798 67.9544 8.65044 67.9544 6.87977C67.9544 5.53577 68.2744 4.35177 68.9144 3.32777C69.5544 2.30377 70.461 1.49311 71.6344 0.895773C72.829 0.29844 74.2584 -0.000226974 75.9224 -0.000226974C77.6077 -0.000226974 79.0477 0.309106 80.2424 0.927773C81.4584 1.52511 82.3864 2.35711 83.0264 3.42377C83.6664 4.49044 83.9864 5.72777 83.9864 7.13577H81.5544C81.5544 6.28244 81.3624 5.48244 80.9784 4.73577C80.5944 3.98911 79.9864 3.39177 79.1544 2.94377C78.3224 2.47444 77.245 2.23977 75.9224 2.23977C74.6637 2.23977 73.6184 2.45311 72.7864 2.87977C71.9757 3.30644 71.3677 3.87177 70.9624 4.57577C70.5784 5.27977 70.3864 6.04777 70.3864 6.87977C70.3864 7.92511 70.7597 8.81044 71.5064 9.53577C72.253 10.2611 73.3304 10.6771 74.7384 10.7838L77.4264 11.0398C79.005 11.1678 80.349 11.5198 81.4584 12.0958C82.589 12.6504 83.453 13.3864 84.0504 14.3038C84.6477 15.1998 84.9464 16.2558 84.9464 17.4718C84.9464 18.8371 84.573 20.0531 83.8264 21.1198C83.101 22.1864 82.0664 23.0184 80.7224 23.6158C79.3784 24.2131 77.789 24.5118 75.9544 24.5118ZM90.2349 23.9678V7.00777H92.1549V14.1438H91.7709C91.7709 12.5864 91.9842 11.2424 92.4109 10.1118C92.8589 8.98111 93.5202 8.10644 94.3949 7.48777C95.2695 6.84777 96.3789 6.52777 97.7229 6.52777H97.8189C99.1629 6.52777 100.272 6.83711 101.147 7.45577C102.022 8.07444 102.672 8.94911 103.099 10.0798C103.526 11.2104 103.739 12.5651 103.739 14.1438H102.971C102.971 12.5864 103.184 11.2424 103.611 10.1118C104.059 8.98111 104.72 8.10644 105.595 7.48777C106.491 6.84777 107.611 6.52777 108.955 6.52777H109.051C110.395 6.52777 111.504 6.83711 112.379 7.45577C113.275 8.07444 113.936 8.94911 114.363 10.0798C114.811 11.2104 115.035 12.5651 115.035 14.1438V23.9678H112.635V13.5998C112.635 12.1064 112.272 10.9224 111.547 10.0478C110.822 9.17311 109.776 8.73577 108.411 8.73577C107.003 8.73577 105.883 9.19444 105.051 10.1118C104.24 11.0078 103.835 12.2238 103.835 13.7598V23.9678H101.435V13.5998C101.435 12.1064 101.072 10.9224 100.347 10.0478C99.6215 9.17311 98.5762 8.73577 97.2109 8.73577C95.8029 8.73577 94.6829 9.19444 93.8509 10.1118C93.0402 11.0078 92.6349 12.2238 92.6349 13.7598V23.9678H90.2349ZM121.912 23.9678V7.03977H124.28V23.9678H121.912ZM119.192 8.95977V7.03977H124.28V8.95977H119.192ZM122.424 3.90377C121.848 3.90377 121.411 3.75444 121.112 3.45577C120.835 3.13577 120.696 2.74111 120.696 2.27177C120.696 1.80244 120.835 1.41844 121.112 1.11977C121.411 0.799772 121.848 0.639772 122.424 0.639772C123 0.639772 123.427 0.799772 123.704 1.11977C123.981 1.41844 124.12 1.80244 124.12 2.27177C124.12 2.74111 123.981 3.13577 123.704 3.45577C123.427 3.75444 123 3.90377 122.424 3.90377ZM136.723 24.1598C135.549 24.1598 134.536 23.9891 133.683 23.6478C132.829 23.3064 132.168 22.7304 131.699 21.9198C131.229 21.0878 130.995 19.9784 130.995 18.5918V1.69577H133.299V18.9438C133.299 19.9251 133.565 20.6824 134.099 21.2158C134.632 21.7278 135.389 21.9838 136.371 21.9838H139.411V24.1598H136.723ZM127.955 8.86377V7.03977H139.411V8.86377H127.955ZM144.047 23.9678V0.607773H146.447V13.8238L145.743 14.3678C145.743 12.7891 145.967 11.4131 146.415 10.2398C146.885 9.06644 147.578 8.15977 148.495 7.51977C149.434 6.85844 150.607 6.52777 152.015 6.52777H152.143C154.191 6.52777 155.738 7.19977 156.783 8.54377C157.85 9.88777 158.383 11.7544 158.383 14.1438V23.9678H156.015V13.6318C156.015 12.1171 155.599 10.9224 154.767 10.0478C153.935 9.17311 152.815 8.73577 151.407 8.73577C149.893 8.73577 148.687 9.22644 147.791 10.2078C146.895 11.1678 146.447 12.4371 146.447 14.0158V23.9678H144.047Z" fill="url(#paint0_radial_1078_1666)"/>
<defs>
<radialGradient id="paint0_radial_1078_1666" cx="0" cy="0" r="1" gradientUnits="userSpaceOnUse" gradientTransform="translate(80.4434 13.4678) rotate(90) scale(22.5 81.5)">
<stop stop-color="#5A69EA"/>
<stop offset="1" stop-color="#BF8BCA"/>
</radialGradient>
</defs>
</svg>
