<svg width="239" height="31" viewBox="0 0 239 31" fill="none" xmlns="http://www.w3.org/2000/svg">
<path d="M-0.000640631 23.4561L8.60736 0.0960541H12.9594L21.8554 23.4561H19.3594L11.0714 1.63205L12.3834 2.30405H9.02336L10.3994 1.63205L2.43136 23.4561H-0.000640631ZM4.60736 16.0321L5.40736 13.8241H16.2554L17.0874 16.0321H4.60736ZM29.4484 23.4561L23.4964 6.52805H25.9604L31.8484 23.4561H29.4484ZM30.0884 23.4561V21.5041H33.1284V23.4561H30.0884ZM31.4004 23.4561L36.5524 6.52805H38.9204L33.6724 23.4561H31.4004ZM49.9631 24.0001C48.5124 24.0001 47.2538 23.7547 46.1871 23.2641C45.1204 22.7521 44.2458 22.0801 43.5631 21.2481C42.8804 20.3947 42.3684 19.4454 42.0271 18.4001C41.7071 17.3547 41.5471 16.2774 41.5471 15.1681V14.7201C41.5471 13.6321 41.7071 12.5654 42.0271 11.5201C42.3684 10.4747 42.8804 9.53605 43.5631 8.70405C44.2458 7.87205 45.0991 7.21072 46.1231 6.72005C47.1684 6.20805 48.3844 5.95205 49.7711 5.95205C51.5418 5.95205 53.0138 6.34672 54.1871 7.13605C55.3818 7.92539 56.2778 8.93872 56.8751 10.1761C57.4724 11.3921 57.7711 12.7041 57.7711 14.1121V15.3601H42.6351V13.5041H56.1071L55.4991 14.4321C55.4991 13.1734 55.2751 12.0747 54.8271 11.1361C54.4004 10.1761 53.7604 9.42939 52.9071 8.89605C52.0751 8.34139 51.0298 8.06405 49.7711 8.06405C48.4484 8.06405 47.3498 8.37339 46.4751 8.99205C45.6004 9.61072 44.9391 10.4321 44.4911 11.4561C44.0644 12.4801 43.8511 13.6427 43.8511 14.9441C43.8511 16.2241 44.0644 17.3974 44.4911 18.4641C44.9391 19.5094 45.6111 20.3414 46.5071 20.9601C47.4244 21.5787 48.5764 21.8881 49.9631 21.8881C51.4351 21.8881 52.6298 21.5574 53.5471 20.8961C54.4644 20.2134 55.0298 19.4134 55.2431 18.4961H57.4831C57.2698 19.6267 56.8218 20.6081 56.1391 21.4401C55.4564 22.2507 54.5924 22.8801 53.5471 23.3281C52.5018 23.7761 51.3071 24.0001 49.9631 24.0001ZM62.3911 23.4561V6.52805H64.3111V13.6001H64.1191C64.1191 11.1254 64.6631 9.30139 65.7511 8.12805C66.8391 6.93339 68.5458 6.33605 70.8711 6.33605H71.4151V8.51205H70.4231C68.5884 8.51205 67.1911 8.99205 66.2311 9.95205C65.2711 10.8907 64.7911 12.2774 64.7911 14.1121V23.4561H62.3911ZM85.5389 23.4561V18.3681H85.1549V12.3521C85.1549 11.0934 84.8242 10.1334 84.1629 9.47205C83.5015 8.78939 82.4775 8.44805 81.0909 8.44805C80.4509 8.44805 79.8002 8.45872 79.1389 8.48005C78.4989 8.50139 77.8802 8.53339 77.2829 8.57605C76.7069 8.59739 76.1949 8.62939 75.7469 8.67205V6.56005C76.2162 6.51739 76.6962 6.47472 77.1869 6.43205C77.6775 6.38939 78.1789 6.36805 78.6909 6.36805C79.2242 6.34672 79.7362 6.33605 80.2269 6.33605C81.9549 6.33605 83.3415 6.54939 84.3869 6.97605C85.4535 7.40272 86.2322 8.07472 86.7229 8.99205C87.2135 9.88805 87.4589 11.0827 87.4589 12.5761V23.4561H85.5389ZM79.8109 23.9041C78.6162 23.9041 77.5602 23.6907 76.6429 23.2641C75.7255 22.8374 75.0109 22.2187 74.4989 21.4081C74.0082 20.5974 73.7629 19.6161 73.7629 18.4641C73.7629 17.3334 74.0189 16.3734 74.5309 15.5841C75.0642 14.7947 75.8215 14.1974 76.8029 13.7921C77.8055 13.3654 79.0109 13.1521 80.4189 13.1521H85.3789V14.9761H80.2589C78.9149 14.9761 77.8802 15.3067 77.1549 15.9681C76.4509 16.6081 76.0989 17.4507 76.0989 18.4961C76.0989 19.5627 76.4722 20.4161 77.2189 21.0561C77.9655 21.6747 78.9789 21.9841 80.2589 21.9841C81.0482 21.9841 81.8055 21.8454 82.5309 21.5681C83.2562 21.2694 83.8642 20.7787 84.3549 20.0961C84.8455 19.3921 85.1122 18.4321 85.1549 17.2161L85.8589 18.2081C85.7735 19.4667 85.4749 20.5227 84.9629 21.3761C84.4509 22.2081 83.7575 22.8374 82.8829 23.2641C82.0082 23.6907 80.9842 23.9041 79.8109 23.9041ZM99.9176 30.0801C99.1283 30.0801 98.3283 30.0374 97.5176 29.9521C96.7283 29.8881 95.9709 29.8027 95.2456 29.6961V27.6481C96.0136 27.7547 96.8136 27.8401 97.6456 27.9041C98.4989 27.9894 99.2989 28.0321 100.046 28.0321C101.667 28.0321 102.958 27.8187 103.918 27.3921C104.878 26.9654 105.56 26.2827 105.966 25.3441C106.392 24.4267 106.606 23.2107 106.606 21.6961V18.3041L107.502 15.9361C107.459 17.5574 107.118 18.9547 106.478 20.1281C105.838 21.2801 104.974 22.1654 103.886 22.7841C102.798 23.4027 101.56 23.7121 100.174 23.7121C98.9576 23.7121 97.8483 23.4774 96.8456 23.0081C95.8643 22.5387 95.0216 21.8987 94.3176 21.0881C93.6136 20.2561 93.0696 19.3174 92.6856 18.2721C92.3016 17.2267 92.1096 16.1281 92.1096 14.9761V14.5281C92.1096 13.3974 92.3016 12.3201 92.6856 11.2961C93.0696 10.2507 93.6136 9.33339 94.3176 8.54405C95.0216 7.73339 95.8749 7.10405 96.8776 6.65605C97.9016 6.18672 99.0323 5.95205 100.27 5.95205C101.763 5.95205 103.064 6.28272 104.174 6.94405C105.283 7.60539 106.147 8.52272 106.766 9.69605C107.406 10.8694 107.747 12.2454 107.79 13.8241L107.022 13.4081V6.52805H108.91V21.6001C108.91 23.6267 108.611 25.2587 108.014 26.4961C107.416 27.7334 106.456 28.6401 105.134 29.2161C103.832 29.7921 102.094 30.0801 99.9176 30.0801ZM100.59 21.5041C101.742 21.5041 102.766 21.2587 103.662 20.7681C104.579 20.2561 105.304 19.5414 105.838 18.6241C106.371 17.7067 106.638 16.6401 106.638 15.4241V13.8561C106.638 12.6827 106.36 11.6587 105.806 10.7841C105.272 9.90939 104.558 9.22672 103.662 8.73605C102.766 8.24539 101.742 8.00005 100.59 8.00005C99.3523 8.00005 98.2749 8.29872 97.3576 8.89605C96.4403 9.49339 95.7363 10.3041 95.2456 11.3281C94.7549 12.3307 94.5096 13.4721 94.5096 14.7521C94.5096 16.0534 94.7549 17.2161 95.2456 18.2401C95.7576 19.2641 96.4723 20.0641 97.3896 20.6401C98.3069 21.2161 99.3736 21.5041 100.59 21.5041ZM121.994 24.0001C120.544 24.0001 119.285 23.7547 118.218 23.2641C117.152 22.7521 116.277 22.0801 115.594 21.2481C114.912 20.3947 114.4 19.4454 114.058 18.4001C113.738 17.3547 113.578 16.2774 113.578 15.1681V14.7201C113.578 13.6321 113.738 12.5654 114.058 11.5201C114.4 10.4747 114.912 9.53605 115.594 8.70405C116.277 7.87205 117.13 7.21072 118.154 6.72005C119.2 6.20805 120.416 5.95205 121.802 5.95205C123.573 5.95205 125.045 6.34672 126.218 7.13605C127.413 7.92539 128.309 8.93872 128.906 10.1761C129.504 11.3921 129.802 12.7041 129.802 14.1121V15.3601H114.666V13.5041H128.138L127.53 14.4321C127.53 13.1734 127.306 12.0747 126.858 11.1361C126.432 10.1761 125.792 9.42939 124.938 8.89605C124.106 8.34139 123.061 8.06405 121.802 8.06405C120.48 8.06405 119.381 8.37339 118.506 8.99205C117.632 9.61072 116.97 10.4321 116.522 11.4561C116.096 12.4801 115.882 13.6427 115.882 14.9441C115.882 16.2241 116.096 17.3974 116.522 18.4641C116.97 19.5094 117.642 20.3414 118.538 20.9601C119.456 21.5787 120.608 21.8881 121.994 21.8881C123.466 21.8881 124.661 21.5574 125.578 20.8961C126.496 20.2134 127.061 19.4134 127.274 18.4961H129.514C129.301 19.6267 128.853 20.6081 128.17 21.4401C127.488 22.2507 126.624 22.8801 125.578 23.3281C124.533 23.7761 123.338 24.0001 121.994 24.0001Z" fill="#404040"/>
<path d="M142.435 23.4561V5.34058e-05H144.867V23.4561H142.435ZM156.931 23.4561L148.963 13.1201H151.811L159.907 23.4561H156.931ZM143.875 14.5921V12.4161H150.147C151.299 12.4161 152.259 12.1921 153.027 11.7441C153.795 11.2961 154.371 10.6881 154.755 9.92005C155.139 9.15205 155.331 8.27739 155.331 7.29605C155.331 6.31472 155.139 5.44005 154.755 4.67205C154.371 3.90405 153.795 3.29605 153.027 2.84805C152.259 2.37872 151.299 2.14405 150.147 2.14405H143.875V5.34058e-05H149.731C151.459 5.34058e-05 152.92 0.277387 154.115 0.832054C155.331 1.36539 156.248 2.16539 156.867 3.23205C157.507 4.27739 157.827 5.55739 157.827 7.07205V7.52005C157.827 9.03472 157.507 10.3254 156.867 11.3921C156.227 12.4374 155.31 13.2374 154.115 13.7921C152.92 14.3254 151.459 14.5921 149.731 14.5921H143.875ZM174.164 23.4561V18.3681H173.78V12.3521C173.78 11.0934 173.449 10.1334 172.788 9.47205C172.127 8.78939 171.103 8.44805 169.716 8.44805C169.076 8.44805 168.425 8.45872 167.764 8.48005C167.124 8.50139 166.505 8.53339 165.908 8.57605C165.332 8.59739 164.82 8.62939 164.372 8.67205V6.56005C164.841 6.51739 165.321 6.47472 165.812 6.43205C166.303 6.38939 166.804 6.36805 167.316 6.36805C167.849 6.34672 168.361 6.33605 168.852 6.33605C170.58 6.33605 171.967 6.54939 173.012 6.97605C174.079 7.40272 174.857 8.07472 175.348 8.99205C175.839 9.88805 176.084 11.0827 176.084 12.5761V23.4561H174.164ZM168.436 23.9041C167.241 23.9041 166.185 23.6907 165.268 23.2641C164.351 22.8374 163.636 22.2187 163.124 21.4081C162.633 20.5974 162.388 19.6161 162.388 18.4641C162.388 17.3334 162.644 16.3734 163.156 15.5841C163.689 14.7947 164.447 14.1974 165.428 13.7921C166.431 13.3654 167.636 13.1521 169.044 13.1521H174.004V14.9761H168.884C167.54 14.9761 166.505 15.3067 165.78 15.9681C165.076 16.6081 164.724 17.4507 164.724 18.4961C164.724 19.5627 165.097 20.4161 165.844 21.0561C166.591 21.6747 167.604 21.9841 168.884 21.9841C169.673 21.9841 170.431 21.8454 171.156 21.5681C171.881 21.2694 172.489 20.7787 172.98 20.0961C173.471 19.3921 173.737 18.4321 173.78 17.2161L174.484 18.2081C174.399 19.4667 174.1 20.5227 173.588 21.3761C173.076 22.2081 172.383 22.8374 171.508 23.2641C170.633 23.6907 169.609 23.9041 168.436 23.9041ZM182.079 23.4561V6.52805H183.999V13.6321H183.615C183.615 12.0534 183.849 10.6987 184.319 9.56805C184.788 8.43739 185.492 7.56272 186.431 6.94405C187.369 6.32539 188.553 6.01605 189.983 6.01605H190.079C192.212 6.01605 193.801 6.68805 194.847 8.03205C195.892 9.35472 196.415 11.2214 196.415 13.6321V23.4561H194.047V13.1201C194.047 11.6481 193.641 10.4641 192.831 9.56805C192.02 8.67205 190.889 8.22405 189.439 8.22405C187.945 8.22405 186.74 8.69339 185.823 9.63205C184.927 10.5494 184.479 11.7654 184.479 13.2801V23.4561H182.079ZM208.855 30.0801C208.066 30.0801 207.266 30.0374 206.455 29.9521C205.666 29.8881 204.908 29.8027 204.183 29.6961V27.6481C204.951 27.7547 205.751 27.8401 206.583 27.9041C207.436 27.9894 208.236 28.0321 208.983 28.0321C210.604 28.0321 211.895 27.8187 212.855 27.3921C213.815 26.9654 214.498 26.2827 214.903 25.3441C215.33 24.4267 215.543 23.2107 215.543 21.6961V18.3041L216.439 15.9361C216.396 17.5574 216.055 18.9547 215.415 20.1281C214.775 21.2801 213.911 22.1654 212.823 22.7841C211.735 23.4027 210.498 23.7121 209.111 23.7121C207.895 23.7121 206.786 23.4774 205.783 23.0081C204.802 22.5387 203.959 21.8987 203.255 21.0881C202.551 20.2561 202.007 19.3174 201.623 18.2721C201.239 17.2267 201.047 16.1281 201.047 14.9761V14.5281C201.047 13.3974 201.239 12.3201 201.623 11.2961C202.007 10.2507 202.551 9.33339 203.255 8.54405C203.959 7.73339 204.812 7.10405 205.815 6.65605C206.839 6.18672 207.97 5.95205 209.207 5.95205C210.7 5.95205 212.002 6.28272 213.111 6.94405C214.22 7.60539 215.084 8.52272 215.703 9.69605C216.343 10.8694 216.684 12.2454 216.727 13.8241L215.959 13.4081V6.52805H217.847V21.6001C217.847 23.6267 217.548 25.2587 216.951 26.4961C216.354 27.7334 215.394 28.6401 214.071 29.2161C212.77 29.7921 211.031 30.0801 208.855 30.0801ZM209.527 21.5041C210.679 21.5041 211.703 21.2587 212.599 20.7681C213.516 20.2561 214.242 19.5414 214.775 18.6241C215.308 17.7067 215.575 16.6401 215.575 15.4241V13.8561C215.575 12.6827 215.298 11.6587 214.743 10.7841C214.21 9.90939 213.495 9.22672 212.599 8.73605C211.703 8.24539 210.679 8.00005 209.527 8.00005C208.29 8.00005 207.212 8.29872 206.295 8.89605C205.378 9.49339 204.674 10.3041 204.183 11.3281C203.692 12.3307 203.447 13.4721 203.447 14.7521C203.447 16.0534 203.692 17.2161 204.183 18.2401C204.695 19.2641 205.41 20.0641 206.327 20.6401C207.244 21.2161 208.311 21.5041 209.527 21.5041ZM230.932 24.0001C229.481 24.0001 228.223 23.7547 227.156 23.2641C226.089 22.7521 225.215 22.0801 224.532 21.2481C223.849 20.3947 223.337 19.4454 222.996 18.4001C222.676 17.3547 222.516 16.2774 222.516 15.1681V14.7201C222.516 13.6321 222.676 12.5654 222.996 11.5201C223.337 10.4747 223.849 9.53605 224.532 8.70405C225.215 7.87205 226.068 7.21072 227.092 6.72005C228.137 6.20805 229.353 5.95205 230.74 5.95205C232.511 5.95205 233.983 6.34672 235.156 7.13605C236.351 7.92539 237.247 8.93872 237.844 10.1761C238.441 11.3921 238.74 12.7041 238.74 14.1121V15.3601H223.604V13.5041H237.076L236.468 14.4321C236.468 13.1734 236.244 12.0747 235.796 11.1361C235.369 10.1761 234.729 9.42939 233.876 8.89605C233.044 8.34139 231.999 8.06405 230.74 8.06405C229.417 8.06405 228.319 8.37339 227.444 8.99205C226.569 9.61072 225.908 10.4321 225.46 11.4561C225.033 12.4801 224.82 13.6427 224.82 14.9441C224.82 16.2241 225.033 17.3974 225.46 18.4641C225.908 19.5094 226.58 20.3414 227.476 20.9601C228.393 21.5787 229.545 21.8881 230.932 21.8881C232.404 21.8881 233.599 21.5574 234.516 20.8961C235.433 20.2134 235.999 19.4134 236.212 18.4961H238.452C238.239 19.6267 237.791 20.6081 237.108 21.4401C236.425 22.2507 235.561 22.8801 234.516 23.3281C233.471 23.7761 232.276 24.0001 230.932 24.0001Z" fill="url(#paint0_radial_1080_1694)"/>
<defs>
<radialGradient id="paint0_radial_1080_1694" cx="0" cy="0" r="1" gradientUnits="userSpaceOnUse" gradientTransform="translate(119.943 12.9561) rotate(90) scale(22.5 121)">
<stop stop-color="#5A69EA"/>
<stop offset="1" stop-color="#BF8BCA"/>
</radialGradient>
</defs>
</svg>
