<svg width="191" height="25" viewBox="0 0 191 25" fill="none" xmlns="http://www.w3.org/2000/svg">
<path d="M11.6488 24.5118C9.55816 24.5118 7.76616 24.1491 6.27283 23.4238C4.80083 22.6771 3.5955 21.7064 2.65683 20.5118C1.73949 19.3171 1.06749 18.0264 0.640828 16.6398C0.214162 15.2318 0.000828266 13.8664 0.000828266 12.5438V11.9358C0.000828266 10.5064 0.214162 9.08777 0.640828 7.67977C1.08883 6.25044 1.7715 4.95977 2.68883 3.80777C3.6275 2.65577 4.82216 1.73844 6.27283 1.05577C7.7235 0.351773 9.44083 -0.000226974 11.4248 -0.000226974C13.4302 -0.000226974 15.1582 0.351773 16.6088 1.05577C18.0808 1.75977 19.2542 2.75177 20.1288 4.03177C21.0035 5.29044 21.5368 6.78377 21.7288 8.51177H19.2648C19.0942 7.12511 18.6462 5.97311 17.9208 5.05577C17.1955 4.11711 16.2675 3.41311 15.1368 2.94377C14.0275 2.47444 12.7902 2.23977 11.4248 2.23977C9.95283 2.23977 8.65149 2.50644 7.52083 3.03977C6.4115 3.55177 5.4835 4.27711 4.73683 5.21577C3.99016 6.13311 3.42483 7.19977 3.04083 8.41577C2.65683 9.61044 2.46483 10.8904 2.46483 12.2558C2.46483 13.5571 2.64616 14.8051 3.00883 15.9998C3.39283 17.1944 3.96883 18.2718 4.73683 19.2318C5.50483 20.1704 6.46483 20.9171 7.61683 21.4718C8.76883 22.0051 10.1128 22.2718 11.6488 22.2718C13.7822 22.2718 15.5742 21.7384 17.0248 20.6718C18.4755 19.5838 19.3715 18.0264 19.7128 15.9998H22.1768C21.9422 17.5998 21.3875 19.0504 20.5128 20.3518C19.6382 21.6318 18.4542 22.6451 16.9608 23.3918C15.4888 24.1384 13.7182 24.5118 11.6488 24.5118ZM34.1431 24.5118C32.6924 24.5118 31.4124 24.2664 30.3031 23.7758C29.2151 23.2638 28.2871 22.5918 27.5191 21.7598C26.7724 20.9064 26.1964 19.9571 25.7911 18.9118C25.4071 17.8664 25.2151 16.7998 25.2151 15.7118V15.2638C25.2151 14.1758 25.4177 13.1091 25.8231 12.0638C26.2284 10.9971 26.8151 10.0478 27.5831 9.21577C28.3511 8.38377 29.2791 7.72244 30.3671 7.23177C31.4764 6.71977 32.7351 6.46377 34.1431 6.46377C35.5724 6.46377 36.8311 6.71977 37.9191 7.23177C39.0284 7.72244 39.9671 8.38377 40.7351 9.21577C41.5031 10.0478 42.0791 10.9971 42.4631 12.0638C42.8684 13.1091 43.0711 14.1758 43.0711 15.2638V15.7118C43.0711 16.7998 42.8791 17.8664 42.4951 18.9118C42.1111 19.9571 41.5351 20.9064 40.7671 21.7598C40.0204 22.5918 39.0924 23.2638 37.9831 23.7758C36.8737 24.2664 35.5937 24.5118 34.1431 24.5118ZM34.1431 22.3678C35.5511 22.3678 36.7351 22.0584 37.6951 21.4398C38.6764 20.7998 39.4231 19.9678 39.9351 18.9438C40.4471 17.8984 40.7031 16.7464 40.7031 15.4878C40.7031 14.2078 40.4364 13.0558 39.9031 12.0318C39.3911 10.9864 38.6444 10.1651 37.6631 9.56777C36.6817 8.94911 35.5084 8.63977 34.1431 8.63977C32.7991 8.63977 31.6364 8.94911 30.6551 9.56777C29.6737 10.1651 28.9164 10.9864 28.3831 12.0318C27.8711 13.0558 27.6151 14.2078 27.6151 15.4878C27.6151 16.7464 27.8711 17.8984 28.3831 18.9438C28.8951 19.9678 29.6311 20.7998 30.5911 21.4398C31.5724 22.0584 32.7564 22.3678 34.1431 22.3678ZM47.9653 23.9678V7.03977H49.8853V14.1438H49.5013C49.5013 12.5651 49.736 11.2104 50.2053 10.0798C50.6747 8.94911 51.3787 8.07444 52.3173 7.45577C53.256 6.83711 54.44 6.52777 55.8693 6.52777H55.9653C58.0987 6.52777 59.688 7.19977 60.7333 8.54377C61.7787 9.86644 62.3013 11.7331 62.3013 14.1438V23.9678H59.9333V13.6318C59.9333 12.1598 59.528 10.9758 58.7173 10.0798C57.9067 9.18377 56.776 8.73577 55.3253 8.73577C53.832 8.73577 52.6267 9.20511 51.7093 10.1438C50.8133 11.0611 50.3653 12.2771 50.3653 13.7918V23.9678H47.9653ZM74.4218 24.1598C73.2485 24.1598 72.2352 23.9891 71.3818 23.6478C70.5285 23.3064 69.8672 22.7304 69.3978 21.9198C68.9285 21.0878 68.6938 19.9784 68.6938 18.5918V1.69577H70.9978V18.9438C70.9978 19.9251 71.2645 20.6824 71.7978 21.2158C72.3312 21.7278 73.0885 21.9838 74.0698 21.9838H77.1098V24.1598H74.4218ZM65.6538 8.86377V7.03977H77.1098V8.86377H65.6538ZM81.7466 23.9678V7.03977H83.6666V14.1118H83.4746C83.4746 11.6371 84.0186 9.81311 85.1066 8.63977C86.1946 7.44511 87.9012 6.84777 90.2266 6.84777H90.7706V9.02377H89.7786C87.9439 9.02377 86.5466 9.50377 85.5866 10.4638C84.6266 11.4024 84.1466 12.7891 84.1466 14.6238V23.9678H81.7466ZM104.894 23.9678V18.8798H104.51V12.8638C104.51 11.6051 104.18 10.6451 103.518 9.98377C102.857 9.30111 101.833 8.95977 100.446 8.95977C99.8063 8.95977 99.1557 8.97044 98.4943 8.99177C97.8543 9.01311 97.2357 9.04511 96.6383 9.08777C96.0623 9.10911 95.5503 9.14111 95.1023 9.18377V7.07177C95.5717 7.02911 96.0517 6.98644 96.5423 6.94377C97.033 6.90111 97.5343 6.87977 98.0463 6.87977C98.5797 6.85844 99.0917 6.84777 99.5823 6.84777C101.31 6.84777 102.697 7.06111 103.742 7.48777C104.809 7.91444 105.588 8.58644 106.078 9.50377C106.569 10.3998 106.814 11.5944 106.814 13.0878V23.9678H104.894ZM99.1663 24.4158C97.9717 24.4158 96.9157 24.2024 95.9983 23.7758C95.081 23.3491 94.3663 22.7304 93.8543 21.9198C93.3637 21.1091 93.1183 20.1278 93.1183 18.9758C93.1183 17.8451 93.3743 16.8851 93.8863 16.0958C94.4197 15.3064 95.177 14.7091 96.1583 14.3038C97.161 13.8771 98.3663 13.6638 99.7743 13.6638H104.734V15.4878H99.6143C98.2703 15.4878 97.2357 15.8184 96.5103 16.4798C95.8063 17.1198 95.4543 17.9624 95.4543 19.0078C95.4543 20.0744 95.8277 20.9278 96.5743 21.5678C97.321 22.1864 98.3343 22.4958 99.6143 22.4958C100.404 22.4958 101.161 22.3571 101.886 22.0798C102.612 21.7811 103.22 21.2904 103.71 20.6078C104.201 19.9038 104.468 18.9438 104.51 17.7278L105.214 18.7198C105.129 19.9784 104.83 21.0344 104.318 21.8878C103.806 22.7198 103.113 23.3491 102.238 23.7758C101.364 24.2024 100.34 24.4158 99.1663 24.4158ZM119.945 24.5118C118.516 24.5118 117.268 24.2664 116.201 23.7758C115.156 23.2638 114.281 22.5811 113.577 21.7278C112.873 20.8531 112.34 19.8931 111.977 18.8478C111.636 17.8024 111.465 16.7464 111.465 15.6798V15.2318C111.465 14.1438 111.636 13.0878 111.977 12.0638C112.34 11.0184 112.873 10.0798 113.577 9.24777C114.281 8.39444 115.156 7.72244 116.201 7.23177C117.268 6.71977 118.494 6.46377 119.881 6.46377C121.289 6.46377 122.537 6.71977 123.625 7.23177C124.734 7.74377 125.63 8.46911 126.313 9.40777C126.996 10.3464 127.401 11.4558 127.529 12.7358H125.225C125.033 11.5624 124.478 10.5918 123.561 9.82377C122.665 9.03444 121.438 8.63977 119.881 8.63977C118.537 8.63977 117.417 8.94911 116.521 9.56777C115.646 10.1651 114.985 10.9864 114.537 12.0318C114.089 13.0558 113.865 14.1971 113.865 15.4558C113.865 16.6931 114.089 17.8451 114.537 18.9118C114.985 19.9571 115.657 20.7998 116.553 21.4398C117.449 22.0584 118.58 22.3678 119.945 22.3678C120.99 22.3678 121.897 22.1864 122.665 21.8238C123.454 21.4398 124.084 20.9278 124.553 20.2878C125.044 19.6478 125.332 18.9438 125.417 18.1758H127.721C127.636 19.4558 127.23 20.5758 126.505 21.5358C125.801 22.4744 124.884 23.2104 123.753 23.7438C122.622 24.2558 121.353 24.5118 119.945 24.5118ZM138.266 24.1598C137.092 24.1598 136.079 23.9891 135.226 23.6478C134.372 23.3064 133.711 22.7304 133.242 21.9198C132.772 21.0878 132.538 19.9784 132.538 18.5918V1.69577H134.842V18.9438C134.842 19.9251 135.108 20.6824 135.642 21.2158C136.175 21.7278 136.932 21.9838 137.914 21.9838H140.954V24.1598H138.266ZM129.498 8.86377V7.03977H140.954V8.86377H129.498Z" fill="#404040"/>
<path d="M162.691 24.5118C160.558 24.5118 158.787 24.1064 157.379 23.2958C155.971 22.4851 154.915 21.3544 154.211 19.9038C153.507 18.4318 153.155 16.7464 153.155 14.8478V0.607773H155.587V15.1358C155.587 16.5651 155.843 17.8131 156.355 18.8798C156.888 19.9464 157.678 20.7784 158.723 21.3758C159.79 21.9731 161.112 22.2718 162.691 22.2718C164.248 22.2718 165.55 21.9838 166.595 21.4078C167.64 20.8104 168.43 19.9784 168.963 18.9118C169.496 17.8238 169.763 16.5651 169.763 15.1358V0.607773H172.195V14.8478C172.195 16.7464 171.843 18.4318 171.139 19.9038C170.435 21.3544 169.379 22.4851 167.971 23.2958C166.584 24.1064 164.824 24.5118 162.691 24.5118ZM183.841 24.4478C181.665 24.4478 179.99 23.9784 178.817 23.0398C177.643 22.0798 177.046 20.7998 177.025 19.1998H179.265C179.307 20.0104 179.67 20.7464 180.353 21.4078C181.057 22.0691 182.219 22.3998 183.841 22.3998C185.355 22.3998 186.486 22.0904 187.233 21.4718C188.001 20.8318 188.385 20.0638 188.385 19.1678C188.385 18.3358 188.065 17.6958 187.425 17.2478C186.806 16.7784 185.899 16.4798 184.705 16.3518L182.785 16.1598C181.249 15.9891 180.001 15.5198 179.041 14.7518C178.102 13.9624 177.633 12.8851 177.633 11.5198C177.633 10.5171 177.889 9.64244 178.401 8.89577C178.913 8.14911 179.627 7.57311 180.545 7.16777C181.483 6.74111 182.582 6.52777 183.841 6.52777C185.654 6.52777 187.126 6.95444 188.257 7.80777C189.409 8.66111 189.995 9.87711 190.017 11.4558H187.777C187.755 10.6451 187.414 9.96244 186.753 9.40777C186.091 8.85311 185.121 8.57577 183.841 8.57577C182.518 8.57577 181.526 8.86377 180.865 9.43977C180.225 10.0158 179.905 10.7198 179.905 11.5518C179.905 12.2558 180.15 12.8424 180.641 13.3118C181.131 13.7598 181.899 14.0371 182.945 14.1438L184.865 14.3358C186.571 14.5278 187.958 15.0184 189.025 15.8078C190.113 16.5971 190.657 17.7278 190.657 19.1998C190.657 20.2024 190.369 21.1091 189.793 21.9198C189.238 22.7091 188.449 23.3278 187.425 23.7758C186.401 24.2238 185.206 24.4478 183.841 24.4478Z" fill="url(#paint0_radial_1074_1648)"/>
<defs>
<radialGradient id="paint0_radial_1074_1648" cx="0" cy="0" r="1" gradientUnits="userSpaceOnUse" gradientTransform="translate(95.1895 13.4678) rotate(90) scale(22.5 97.5)">
<stop stop-color="#5A69EA"/>
<stop offset="1" stop-color="#BF8BCA"/>
</radialGradient>
</defs>
</svg>
