<svg width="536" height="95" viewBox="0 0 536 95" fill="none" xmlns="http://www.w3.org/2000/svg">
<path d="M5.472 46V10.96H9.12V46H5.472ZM8.16 29.824V26.512L23.664 26.464V29.776L8.16 29.824ZM8.16 14.224V10.96H24.576V14.224H8.16ZM26.4277 46L39.3398 10.96H45.8678L59.2118 46H55.4678L43.0358 13.264L45.0038 14.272H39.9638L42.0278 13.264L30.0758 46H26.4277ZM33.3398 34.864L34.5398 31.552H50.8118L52.0598 34.864H33.3398ZM87.0296 56.032C85.3976 56.032 83.9736 55.776 82.7576 55.264C81.5736 54.752 80.6616 53.92 80.0216 52.768C79.3816 51.648 79.0616 50.128 79.0616 48.208V44.368H82.4216V48.736C82.4216 50.016 82.7736 51.008 83.4776 51.712C84.1816 52.416 85.1736 52.768 86.4536 52.768H92.4056V56.032H87.0296ZM80.5976 46.816C77.5576 46.816 74.9176 46.272 72.6776 45.184C70.4376 44.096 68.5816 42.656 67.1096 40.864C65.6376 39.072 64.5336 37.12 63.7976 35.008C63.0616 32.896 62.6936 30.832 62.6936 28.816V27.952C62.6936 25.808 63.0616 23.68 63.7976 21.568C64.5656 19.424 65.7016 17.488 67.2056 15.76C68.7096 14.032 70.5816 12.656 72.8216 11.632C75.0616 10.576 77.6536 10.048 80.5976 10.048C83.5736 10.048 86.1656 10.576 88.3736 11.632C90.6136 12.656 92.4856 14.032 93.9896 15.76C95.4936 17.488 96.6136 19.424 97.3496 21.568C98.1176 23.68 98.5016 25.808 98.5016 27.952V28.864C98.5016 30.88 98.1336 32.944 97.3976 35.056C96.6936 37.136 95.5896 39.072 94.0856 40.864C92.6136 42.656 90.7576 44.096 88.5176 45.184C86.2776 46.272 83.6376 46.816 80.5976 46.816ZM80.5976 43.456C82.8376 43.456 84.8376 43.056 86.5976 42.256C88.3576 41.424 89.8456 40.304 91.0616 38.896C92.2776 37.456 93.2056 35.84 93.8456 34.048C94.4856 32.256 94.8056 30.384 94.8056 28.432C94.8056 26.384 94.4856 24.464 93.8456 22.672C93.2056 20.88 92.2616 19.296 91.0136 17.92C89.7976 16.512 88.3096 15.408 86.5496 14.608C84.7896 13.808 82.8056 13.408 80.5976 13.408C78.4216 13.408 76.4536 13.808 74.6936 14.608C72.9336 15.408 71.4296 16.512 70.1816 17.92C68.9656 19.296 68.0216 20.88 67.3496 22.672C66.7096 24.464 66.3896 26.384 66.3896 28.432C66.3896 30.384 66.7096 32.256 67.3496 34.048C67.9896 35.84 68.9176 37.456 70.1336 38.896C71.3496 40.304 72.8376 41.424 74.5976 42.256C76.3896 43.056 78.3896 43.456 80.5976 43.456Z" fill="#0D0D0D"/>
<path d="M2.928 88V70.48H4.224V88H2.928ZM3.768 79.648V78.448L11.76 78.424V79.6L3.768 79.648ZM3.768 71.656V70.48L12.24 70.456V71.656H3.768ZM20.8033 88.408C19.7313 88.408 18.8033 88.224 18.0193 87.856C17.2353 87.472 16.5953 86.968 16.0993 86.344C15.6033 85.704 15.2273 84.992 14.9713 84.208C14.7313 83.408 14.6113 82.6 14.6113 81.784V81.544C14.6113 80.712 14.7313 79.912 14.9713 79.144C15.2273 78.376 15.6033 77.68 16.0993 77.056C16.6113 76.416 17.2433 75.92 17.9953 75.568C18.7633 75.2 19.6513 75.016 20.6593 75.016C21.9393 75.016 23.0113 75.304 23.8753 75.88C24.7553 76.44 25.4193 77.176 25.8673 78.088C26.3153 79 26.5393 79.96 26.5393 80.968V81.832H15.2113V80.776H25.6993L25.3153 81.256C25.3153 80.28 25.1313 79.408 24.7633 78.64C24.4113 77.872 23.8833 77.272 23.1793 76.84C22.4913 76.392 21.6513 76.168 20.6593 76.168C19.5873 76.168 18.6913 76.416 17.9713 76.912C17.2513 77.408 16.7073 78.072 16.3393 78.904C15.9873 79.736 15.8113 80.656 15.8113 81.664C15.8113 82.672 15.9873 83.6 16.3393 84.448C16.7073 85.28 17.2593 85.96 17.9953 86.488C18.7313 87 19.6673 87.256 20.8033 87.256C22.0193 87.256 22.9953 86.976 23.7313 86.416C24.4833 85.856 24.9393 85.184 25.0993 84.4H26.3473C26.1713 85.184 25.8353 85.88 25.3393 86.488C24.8433 87.096 24.2113 87.568 23.4433 87.904C22.6913 88.24 21.8113 88.408 20.8033 88.408ZM35.3346 88.408C34.2626 88.408 33.3346 88.224 32.5506 87.856C31.7666 87.472 31.1266 86.968 30.6306 86.344C30.1346 85.704 29.7586 84.992 29.5026 84.208C29.2626 83.408 29.1426 82.6 29.1426 81.784V81.544C29.1426 80.712 29.2626 79.912 29.5026 79.144C29.7586 78.376 30.1346 77.68 30.6306 77.056C31.1426 76.416 31.7746 75.92 32.5266 75.568C33.2946 75.2 34.1826 75.016 35.1906 75.016C36.4706 75.016 37.5426 75.304 38.4066 75.88C39.2866 76.44 39.9506 77.176 40.3986 78.088C40.8466 79 41.0706 79.96 41.0706 80.968V81.832H29.7426V80.776H40.2306L39.8466 81.256C39.8466 80.28 39.6626 79.408 39.2946 78.64C38.9426 77.872 38.4146 77.272 37.7106 76.84C37.0226 76.392 36.1826 76.168 35.1906 76.168C34.1186 76.168 33.2226 76.416 32.5026 76.912C31.7826 77.408 31.2386 78.072 30.8706 78.904C30.5186 79.736 30.3426 80.656 30.3426 81.664C30.3426 82.672 30.5186 83.6 30.8706 84.448C31.2386 85.28 31.7906 85.96 32.5266 86.488C33.2626 87 34.1986 87.256 35.3346 87.256C36.5506 87.256 37.5266 86.976 38.2626 86.416C39.0146 85.856 39.4706 85.184 39.6306 84.4H40.8786C40.7026 85.184 40.3666 85.88 39.8706 86.488C39.3746 87.096 38.7426 87.568 37.9746 87.904C37.2226 88.24 36.3426 88.408 35.3346 88.408ZM44.8018 88V70.48H46.0738V88H44.8018ZM42.9058 71.56V70.48H46.0738V71.56H42.9058ZM57.1133 88V74.104C57.1133 72.856 57.4253 71.936 58.0493 71.344C58.6893 70.752 59.6493 70.456 60.9293 70.456H62.5853V71.56H60.6413C59.9053 71.56 59.3373 71.76 58.9373 72.16C58.5533 72.544 58.3613 73.088 58.3613 73.792V88H57.1133ZM55.1693 76.504V75.496H62.8493V76.504H55.1693ZM65.472 88V75.4H66.48V80.728H66.288C66.288 78.904 66.696 77.544 67.512 76.648C68.328 75.752 69.648 75.304 71.472 75.304H71.904V76.456H71.232C69.744 76.456 68.624 76.84 67.872 77.608C67.12 78.36 66.744 79.472 66.744 80.944V88H65.472ZM79.983 88.408C78.911 88.408 77.983 88.224 77.199 87.856C76.415 87.472 75.775 86.968 75.279 86.344C74.783 85.704 74.407 84.992 74.151 84.208C73.911 83.408 73.791 82.6 73.791 81.784V81.544C73.791 80.712 73.911 79.912 74.151 79.144C74.407 78.376 74.783 77.68 75.279 77.056C75.791 76.416 76.423 75.92 77.175 75.568C77.943 75.2 78.831 75.016 79.839 75.016C81.119 75.016 82.191 75.304 83.055 75.88C83.935 76.44 84.599 77.176 85.047 78.088C85.495 79 85.719 79.96 85.719 80.968V81.832H74.391V80.776H84.879L84.495 81.256C84.495 80.28 84.311 79.408 83.943 78.64C83.591 77.872 83.063 77.272 82.359 76.84C81.671 76.392 80.831 76.168 79.839 76.168C78.767 76.168 77.871 76.416 77.151 76.912C76.431 77.408 75.887 78.072 75.519 78.904C75.167 79.736 74.991 80.656 74.991 81.664C74.991 82.672 75.167 83.6 75.519 84.448C75.887 85.28 76.439 85.96 77.175 86.488C77.911 87 78.847 87.256 79.983 87.256C81.199 87.256 82.175 86.976 82.911 86.416C83.663 85.856 84.119 85.184 84.279 84.4H85.527C85.351 85.184 85.015 85.88 84.519 86.488C84.023 87.096 83.391 87.568 82.623 87.904C81.871 88.24 80.991 88.408 79.983 88.408ZM94.5143 88.408C93.4423 88.408 92.5143 88.224 91.7303 87.856C90.9463 87.472 90.3063 86.968 89.8103 86.344C89.3143 85.704 88.9383 84.992 88.6823 84.208C88.4423 83.408 88.3223 82.6 88.3223 81.784V81.544C88.3223 80.712 88.4423 79.912 88.6823 79.144C88.9383 78.376 89.3143 77.68 89.8103 77.056C90.3223 76.416 90.9543 75.92 91.7063 75.568C92.4743 75.2 93.3623 75.016 94.3703 75.016C95.6503 75.016 96.7223 75.304 97.5863 75.88C98.4663 76.44 99.1302 77.176 99.5782 78.088C100.026 79 100.25 79.96 100.25 80.968V81.832H88.9223V80.776H99.4103L99.0262 81.256C99.0262 80.28 98.8423 79.408 98.4743 78.64C98.1223 77.872 97.5943 77.272 96.8903 76.84C96.2023 76.392 95.3623 76.168 94.3703 76.168C93.2983 76.168 92.4023 76.416 91.6823 76.912C90.9623 77.408 90.4183 78.072 90.0503 78.904C89.6983 79.736 89.5223 80.656 89.5223 81.664C89.5223 82.672 89.6983 83.6 90.0503 84.448C90.4183 85.28 90.9703 85.96 91.7063 86.488C92.4423 87 93.3783 87.256 94.5143 87.256C95.7303 87.256 96.7063 86.976 97.4423 86.416C98.1943 85.856 98.6503 85.184 98.8103 84.4H100.058C99.8823 85.184 99.5463 85.88 99.0503 86.488C98.5543 87.096 97.9223 87.568 97.1543 87.904C96.4023 88.24 95.5223 88.408 94.5143 88.408ZM113.852 88.12C113.068 88.12 112.38 88.008 111.788 87.784C111.196 87.544 110.74 87.144 110.42 86.584C110.1 86.024 109.94 85.272 109.94 84.328V71.296H111.188V84.544C111.188 85.312 111.396 85.912 111.812 86.344C112.244 86.76 112.836 86.968 113.588 86.968H115.94V88.12H113.852ZM107.54 76.432V75.4H115.94V76.432H107.54ZM125.014 88.408C123.958 88.408 123.022 88.216 122.206 87.832C121.39 87.448 120.702 86.944 120.142 86.32C119.598 85.696 119.182 85 118.894 84.232C118.622 83.448 118.486 82.648 118.486 81.832V81.592C118.486 80.76 118.63 79.952 118.918 79.168C119.206 78.384 119.63 77.68 120.19 77.056C120.75 76.432 121.43 75.936 122.23 75.568C123.046 75.2 123.974 75.016 125.014 75.016C126.038 75.016 126.95 75.2 127.75 75.568C128.566 75.936 129.254 76.432 129.814 77.056C130.374 77.68 130.798 78.384 131.086 79.168C131.39 79.952 131.542 80.76 131.542 81.592V81.832C131.542 82.648 131.398 83.448 131.11 84.232C130.822 85 130.398 85.696 129.838 86.32C129.294 86.944 128.614 87.448 127.798 87.832C126.998 88.216 126.07 88.408 125.014 88.408ZM125.014 87.232C126.134 87.232 127.078 86.976 127.846 86.464C128.63 85.952 129.222 85.28 129.622 84.448C130.038 83.6 130.246 82.688 130.246 81.712C130.246 80.704 130.038 79.784 129.622 78.952C129.206 78.104 128.606 77.432 127.822 76.936C127.054 76.424 126.118 76.168 125.014 76.168C123.926 76.168 122.982 76.424 122.182 76.936C121.398 77.432 120.798 78.104 120.382 78.952C119.966 79.784 119.758 80.704 119.758 81.712C119.758 82.688 119.958 83.6 120.358 84.448C120.774 85.28 121.374 85.952 122.158 86.464C122.942 86.976 123.894 87.232 125.014 87.232ZM303.661 88V86.152H305.341V88H303.661Z" fill="#717171"/>
<path d="M148.856 88V84.232H148.616V79.6C148.616 78.592 148.352 77.816 147.824 77.272C147.296 76.712 146.424 76.432 145.208 76.432C144.776 76.432 144.336 76.448 143.888 76.48C143.44 76.496 143.016 76.52 142.616 76.552C142.216 76.568 141.856 76.6 141.536 76.648V75.496C141.856 75.448 142.192 75.408 142.544 75.376C142.912 75.344 143.28 75.32 143.648 75.304C144.016 75.288 144.368 75.28 144.704 75.28C145.968 75.28 146.976 75.448 147.728 75.784C148.48 76.104 149.024 76.6 149.36 77.272C149.696 77.928 149.864 78.768 149.864 79.792V88H148.856ZM144.464 88.336C143.616 88.336 142.856 88.184 142.184 87.88C141.512 87.576 140.976 87.128 140.576 86.536C140.192 85.944 140 85.224 140 84.376C140 83.56 140.184 82.864 140.552 82.288C140.936 81.712 141.48 81.272 142.184 80.968C142.904 80.664 143.768 80.512 144.776 80.512H148.736V81.544H144.656C143.568 81.544 142.728 81.808 142.136 82.336C141.56 82.848 141.272 83.528 141.272 84.376C141.272 85.272 141.584 85.984 142.208 86.512C142.832 87.024 143.648 87.28 144.656 87.28C145.28 87.28 145.888 87.16 146.48 86.92C147.072 86.68 147.568 86.28 147.968 85.72C148.368 85.144 148.584 84.376 148.616 83.416L149.096 83.968C149.048 84.944 148.808 85.76 148.376 86.416C147.96 87.056 147.416 87.536 146.744 87.856C146.072 88.176 145.312 88.336 144.464 88.336ZM158.396 88.36C156.828 88.36 155.62 88 154.772 87.28C153.94 86.56 153.516 85.64 153.5 84.52H154.748C154.748 85.24 155.028 85.872 155.588 86.416C156.164 86.944 157.1 87.208 158.396 87.208C159.66 87.208 160.588 86.944 161.18 86.416C161.772 85.872 162.068 85.232 162.068 84.496C162.068 83.776 161.796 83.224 161.252 82.84C160.724 82.456 160.004 82.216 159.092 82.12L157.604 81.952C156.5 81.824 155.62 81.48 154.964 80.92C154.324 80.36 154.004 79.6 154.004 78.64C154.004 77.952 154.18 77.336 154.532 76.792C154.884 76.248 155.388 75.816 156.044 75.496C156.716 75.176 157.5 75.016 158.396 75.016C159.708 75.016 160.764 75.336 161.564 75.976C162.38 76.616 162.796 77.488 162.812 78.592H161.564C161.58 77.904 161.308 77.328 160.748 76.864C160.204 76.4 159.42 76.168 158.396 76.168C157.324 76.168 156.524 76.416 155.996 76.912C155.484 77.408 155.228 77.992 155.228 78.664C155.228 79.224 155.428 79.704 155.828 80.104C156.244 80.504 156.868 80.752 157.7 80.848L159.188 81.016C160.372 81.128 161.348 81.472 162.116 82.048C162.9 82.624 163.292 83.448 163.292 84.52C163.292 85.24 163.092 85.888 162.692 86.464C162.308 87.04 161.756 87.504 161.036 87.856C160.316 88.192 159.436 88.36 158.396 88.36ZM175.615 88L170.239 82.072H168.223L174.367 75.4H175.807L170.335 81.328L170.359 80.536L177.151 88H175.615ZM167.191 88V70.48H168.463V88H167.191ZM195.646 92.8V84.16L196.27 82.432C196.254 83.6 196.006 84.64 195.526 85.552C195.046 86.448 194.382 87.152 193.534 87.664C192.686 88.16 191.702 88.408 190.582 88.408C189.638 88.408 188.79 88.224 188.038 87.856C187.286 87.488 186.646 86.992 186.118 86.368C185.59 85.744 185.19 85.04 184.918 84.256C184.646 83.472 184.51 82.648 184.51 81.784V81.544C184.51 80.728 184.646 79.936 184.918 79.168C185.19 78.384 185.582 77.68 186.094 77.056C186.622 76.432 187.262 75.936 188.014 75.568C188.782 75.2 189.654 75.016 190.63 75.016C191.814 75.016 192.83 75.28 193.678 75.808C194.526 76.336 195.182 77.048 195.646 77.944C196.126 78.84 196.374 79.84 196.39 80.944L195.91 80.608V75.4H196.918V92.8H195.646ZM190.75 87.208C191.726 87.208 192.582 87 193.318 86.584C194.07 86.152 194.654 85.56 195.07 84.808C195.502 84.056 195.718 83.2 195.718 82.24V81.016C195.718 80.104 195.502 79.28 195.07 78.544C194.654 77.808 194.07 77.224 193.318 76.792C192.582 76.344 191.726 76.12 190.75 76.12C189.694 76.12 188.798 76.376 188.062 76.888C187.326 77.4 186.758 78.08 186.358 78.928C185.974 79.776 185.782 80.688 185.782 81.664C185.782 82.688 185.982 83.624 186.382 84.472C186.782 85.304 187.35 85.968 188.086 86.464C188.838 86.96 189.726 87.208 190.75 87.208ZM206.151 88.36C204.631 88.36 203.479 87.872 202.695 86.896C201.911 85.92 201.519 84.6 201.519 82.936V75.4H202.815V83.224C202.815 84.392 203.119 85.344 203.727 86.08C204.351 86.8 205.247 87.16 206.415 87.16C207.599 87.16 208.535 86.784 209.223 86.032C209.927 85.28 210.279 84.296 210.279 83.08V75.4H211.551V88H210.543V82.912H210.831C210.831 83.984 210.655 84.936 210.303 85.768C209.967 86.584 209.463 87.224 208.791 87.688C208.119 88.136 207.263 88.36 206.223 88.36H206.151ZM221.686 88.408C220.614 88.408 219.686 88.224 218.902 87.856C218.118 87.472 217.478 86.968 216.982 86.344C216.486 85.704 216.11 84.992 215.854 84.208C215.614 83.408 215.494 82.6 215.494 81.784V81.544C215.494 80.712 215.614 79.912 215.854 79.144C216.11 78.376 216.486 77.68 216.982 77.056C217.494 76.416 218.126 75.92 218.878 75.568C219.646 75.2 220.534 75.016 221.542 75.016C222.822 75.016 223.894 75.304 224.758 75.88C225.638 76.44 226.302 77.176 226.75 78.088C227.198 79 227.422 79.96 227.422 80.968V81.832H216.094V80.776H226.582L226.198 81.256C226.198 80.28 226.014 79.408 225.646 78.64C225.294 77.872 224.766 77.272 224.062 76.84C223.374 76.392 222.534 76.168 221.542 76.168C220.47 76.168 219.574 76.416 218.854 76.912C218.134 77.408 217.59 78.072 217.222 78.904C216.87 79.736 216.694 80.656 216.694 81.664C216.694 82.672 216.87 83.6 217.222 84.448C217.59 85.28 218.142 85.96 218.878 86.488C219.614 87 220.55 87.256 221.686 87.256C222.902 87.256 223.878 86.976 224.614 86.416C225.366 85.856 225.822 85.184 225.982 84.4H227.23C227.054 85.184 226.718 85.88 226.222 86.488C225.726 87.096 225.094 87.568 224.326 87.904C223.574 88.24 222.694 88.408 221.686 88.408ZM234.849 88.36C233.281 88.36 232.073 88 231.225 87.28C230.393 86.56 229.969 85.64 229.953 84.52H231.201C231.201 85.24 231.481 85.872 232.041 86.416C232.617 86.944 233.553 87.208 234.849 87.208C236.113 87.208 237.041 86.944 237.633 86.416C238.225 85.872 238.521 85.232 238.521 84.496C238.521 83.776 238.249 83.224 237.705 82.84C237.177 82.456 236.457 82.216 235.545 82.12L234.057 81.952C232.953 81.824 232.073 81.48 231.417 80.92C230.777 80.36 230.457 79.6 230.457 78.64C230.457 77.952 230.633 77.336 230.985 76.792C231.337 76.248 231.841 75.816 232.497 75.496C233.169 75.176 233.953 75.016 234.849 75.016C236.161 75.016 237.217 75.336 238.017 75.976C238.833 76.616 239.249 77.488 239.265 78.592H238.017C238.033 77.904 237.761 77.328 237.201 76.864C236.657 76.4 235.873 76.168 234.849 76.168C233.777 76.168 232.977 76.416 232.449 76.912C231.937 77.408 231.681 77.992 231.681 78.664C231.681 79.224 231.881 79.704 232.281 80.104C232.697 80.504 233.321 80.752 234.153 80.848L235.641 81.016C236.825 81.128 237.801 81.472 238.569 82.048C239.353 82.624 239.745 83.448 239.745 84.52C239.745 85.24 239.545 85.888 239.145 86.464C238.761 87.04 238.209 87.504 237.489 87.856C236.769 88.192 235.889 88.36 234.849 88.36ZM247.844 88.12C247.06 88.12 246.372 88.008 245.78 87.784C245.188 87.544 244.732 87.144 244.412 86.584C244.092 86.024 243.932 85.272 243.932 84.328V71.296H245.18V84.544C245.18 85.312 245.388 85.912 245.804 86.344C246.236 86.76 246.828 86.968 247.58 86.968H249.932V88.12H247.844ZM241.532 76.432V75.4H249.932V76.432H241.532ZM254.324 88V75.4H255.62V88H254.324ZM252.236 76.504V75.4H255.62V76.504H252.236ZM254.444 72.76C254.108 72.76 253.852 72.672 253.676 72.496C253.5 72.304 253.412 72.064 253.412 71.776C253.412 71.472 253.5 71.224 253.676 71.032C253.852 70.84 254.116 70.744 254.468 70.744C254.804 70.744 255.06 70.84 255.236 71.032C255.412 71.224 255.5 71.472 255.5 71.776C255.5 72.064 255.412 72.304 255.236 72.496C255.076 72.672 254.812 72.76 254.444 72.76ZM266.061 88.408C265.005 88.408 264.069 88.216 263.253 87.832C262.437 87.448 261.749 86.944 261.189 86.32C260.645 85.696 260.229 85 259.941 84.232C259.669 83.448 259.533 82.648 259.533 81.832V81.592C259.533 80.76 259.677 79.952 259.965 79.168C260.253 78.384 260.677 77.68 261.237 77.056C261.797 76.432 262.477 75.936 263.277 75.568C264.093 75.2 265.021 75.016 266.061 75.016C267.085 75.016 267.997 75.2 268.797 75.568C269.613 75.936 270.301 76.432 270.861 77.056C271.421 77.68 271.845 78.384 272.133 79.168C272.437 79.952 272.589 80.76 272.589 81.592V81.832C272.589 82.648 272.445 83.448 272.157 84.232C271.869 85 271.445 85.696 270.885 86.32C270.341 86.944 269.661 87.448 268.845 87.832C268.045 88.216 267.117 88.408 266.061 88.408ZM266.061 87.232C267.181 87.232 268.125 86.976 268.893 86.464C269.677 85.952 270.269 85.28 270.669 84.448C271.085 83.6 271.293 82.688 271.293 81.712C271.293 80.704 271.085 79.784 270.669 78.952C270.253 78.104 269.653 77.432 268.869 76.936C268.101 76.424 267.165 76.168 266.061 76.168C264.973 76.168 264.029 76.424 263.229 76.936C262.445 77.432 261.845 78.104 261.429 78.952C261.013 79.784 260.805 80.704 260.805 81.712C260.805 82.688 261.005 83.6 261.405 84.448C261.821 85.28 262.421 85.952 263.205 86.464C263.989 86.976 264.941 87.232 266.061 87.232ZM276.456 88V75.4H277.464V80.56H277.176C277.176 79.456 277.352 78.496 277.704 77.68C278.072 76.848 278.608 76.208 279.312 75.76C280.032 75.296 280.92 75.064 281.976 75.064H282.048C283.632 75.064 284.824 75.56 285.624 76.552C286.424 77.528 286.824 78.864 286.824 80.56V88H285.528V80.272C285.528 79.072 285.2 78.104 284.544 77.368C283.904 76.616 282.976 76.24 281.76 76.24C280.528 76.24 279.544 76.624 278.808 77.392C278.088 78.144 277.728 79.144 277.728 80.392V88H276.456ZM295.365 88.36C293.797 88.36 292.589 88 291.741 87.28C290.909 86.56 290.485 85.64 290.469 84.52H291.717C291.717 85.24 291.997 85.872 292.557 86.416C293.133 86.944 294.069 87.208 295.365 87.208C296.629 87.208 297.557 86.944 298.149 86.416C298.741 85.872 299.037 85.232 299.037 84.496C299.037 83.776 298.765 83.224 298.221 82.84C297.693 82.456 296.973 82.216 296.061 82.12L294.573 81.952C293.469 81.824 292.589 81.48 291.933 80.92C291.293 80.36 290.973 79.6 290.973 78.64C290.973 77.952 291.149 77.336 291.501 76.792C291.853 76.248 292.357 75.816 293.013 75.496C293.685 75.176 294.469 75.016 295.365 75.016C296.677 75.016 297.733 75.336 298.533 75.976C299.349 76.616 299.765 77.488 299.781 78.592H298.533C298.549 77.904 298.277 77.328 297.717 76.864C297.173 76.4 296.389 76.168 295.365 76.168C294.293 76.168 293.493 76.416 292.965 76.912C292.453 77.408 292.197 77.992 292.197 78.664C292.197 79.224 292.397 79.704 292.797 80.104C293.213 80.504 293.837 80.752 294.669 80.848L296.157 81.016C297.341 81.128 298.317 81.472 299.085 82.048C299.869 82.624 300.261 83.448 300.261 84.52C300.261 85.24 300.061 85.888 299.661 86.464C299.277 87.04 298.725 87.504 298.005 87.856C297.285 88.192 296.405 88.36 295.365 88.36Z" fill="url(#paint0_radial_1078_1660)"/>
<defs>
<radialGradient id="paint0_radial_1078_1660" cx="0" cy="0" r="1" gradientUnits="userSpaceOnUse" gradientTransform="translate(268 80) rotate(90) scale(15 268)">
<stop stop-color="#5A69EA"/>
<stop offset="1" stop-color="#BF8BCA"/>
</radialGradient>
</defs>
</svg>
