<svg width="536" height="95" viewBox="0 0 536 95" fill="none" xmlns="http://www.w3.org/2000/svg">
<path d="M27.264 56.032C25.632 56.032 24.208 55.776 22.992 55.264C21.808 54.752 20.896 53.92 20.256 52.768C19.616 51.648 19.296 50.128 19.296 48.208V44.368H22.656V48.736C22.656 50.016 23.008 51.008 23.712 51.712C24.416 52.416 25.408 52.768 26.688 52.768H32.64V56.032H27.264ZM20.832 46.816C17.792 46.816 15.152 46.272 12.912 45.184C10.672 44.096 8.816 42.656 7.344 40.864C5.872 39.072 4.768 37.12 4.032 35.008C3.296 32.896 2.928 30.832 2.928 28.816V27.952C2.928 25.808 3.296 23.68 4.032 21.568C4.8 19.424 5.936 17.488 7.44 15.76C8.944 14.032 10.816 12.656 13.056 11.632C15.296 10.576 17.888 10.048 20.832 10.048C23.808 10.048 26.4 10.576 28.608 11.632C30.848 12.656 32.72 14.032 34.224 15.76C35.728 17.488 36.848 19.424 37.584 21.568C38.352 23.68 38.736 25.808 38.736 27.952V28.864C38.736 30.88 38.368 32.944 37.632 35.056C36.928 37.136 35.824 39.072 34.32 40.864C32.848 42.656 30.992 44.096 28.752 45.184C26.512 46.272 23.872 46.816 20.832 46.816ZM20.832 43.456C23.072 43.456 25.072 43.056 26.832 42.256C28.592 41.424 30.08 40.304 31.296 38.896C32.512 37.456 33.44 35.84 34.08 34.048C34.72 32.256 35.04 30.384 35.04 28.432C35.04 26.384 34.72 24.464 34.08 22.672C33.44 20.88 32.496 19.296 31.248 17.92C30.032 16.512 28.544 15.408 26.784 14.608C25.024 13.808 23.04 13.408 20.832 13.408C18.656 13.408 16.688 13.808 14.928 14.608C13.168 15.408 11.664 16.512 10.416 17.92C9.2 19.296 8.256 20.88 7.584 22.672C6.944 24.464 6.624 26.384 6.624 28.432C6.624 30.384 6.944 32.256 7.584 34.048C8.224 35.84 9.152 37.456 10.368 38.896C11.584 40.304 13.072 41.424 14.832 42.256C16.624 43.056 18.624 43.456 20.832 43.456ZM55.065 46.72C52.025 46.72 49.705 45.744 48.105 43.792C46.505 41.808 45.705 39.056 45.705 35.536V20.56H49.257V36.256C49.257 38.464 49.833 40.224 50.985 41.536C52.169 42.816 53.801 43.456 55.881 43.456C58.057 43.456 59.785 42.768 61.065 41.392C62.377 40.016 63.033 38.176 63.033 35.872V20.56H66.633V46H63.753V35.392H64.329C64.329 37.76 63.993 39.792 63.321 41.488C62.649 43.152 61.641 44.448 60.297 45.376C58.953 46.272 57.257 46.72 55.209 46.72H55.065ZM77.3906 46V20.608H80.9426V46H77.3906ZM73.3106 23.488V20.608H80.9426V23.488H73.3106ZM78.1586 15.904C77.2946 15.904 76.6386 15.68 76.1906 15.232C75.7746 14.752 75.5666 14.16 75.5666 13.456C75.5666 12.752 75.7746 12.176 76.1906 11.728C76.6386 11.248 77.2946 11.008 78.1586 11.008C79.0226 11.008 79.6626 11.248 80.0786 11.728C80.4946 12.176 80.7026 12.752 80.7026 13.456C80.7026 14.16 80.4946 14.752 80.0786 15.232C79.6626 15.68 79.0226 15.904 78.1586 15.904ZM101.094 46.816C98.9504 46.816 97.0784 46.448 95.4784 45.712C93.9104 44.944 92.5984 43.92 91.5424 42.64C90.4864 41.328 89.6864 39.888 89.1424 38.32C88.6304 36.752 88.3744 35.168 88.3744 33.568V32.896C88.3744 31.264 88.6304 29.68 89.1424 28.144C89.6864 26.576 90.4864 25.168 91.5424 23.92C92.5984 22.64 93.9104 21.632 95.4784 20.896C97.0784 20.128 98.9184 19.744 100.998 19.744C103.11 19.744 104.982 20.128 106.614 20.896C108.278 21.664 109.622 22.752 110.646 24.16C111.67 25.568 112.278 27.232 112.47 29.152H109.014C108.726 27.392 107.894 25.936 106.518 24.784C105.174 23.6 103.334 23.008 100.998 23.008C98.9824 23.008 97.3024 23.472 95.9584 24.4C94.6464 25.296 93.6544 26.528 92.9824 28.096C92.3104 29.632 91.9744 31.344 91.9744 33.232C91.9744 35.088 92.3104 36.816 92.9824 38.416C93.6544 39.984 94.6624 41.248 96.0064 42.208C97.3504 43.136 99.0464 43.6 101.094 43.6C102.662 43.6 104.022 43.328 105.174 42.784C106.358 42.208 107.302 41.44 108.006 40.48C108.742 39.52 109.174 38.464 109.302 37.312H112.758C112.63 39.232 112.022 40.912 110.934 42.352C109.878 43.76 108.502 44.864 106.806 45.664C105.11 46.432 103.206 46.816 101.094 46.816ZM136.639 46L126.415 34.096H122.287L134.335 20.608H138.175L127.375 32.656L127.615 30.688L140.863 46H136.639ZM119.359 46V10.96H122.959V46H119.359Z" fill="#0D0D0D"/>
<path d="M157.722 46V10.96H161.37V46H157.722ZM160.41 46V42.688H176.874V46H160.41ZM184.125 46V20.608H187.677V46H184.125ZM180.045 23.488V20.608H187.677V23.488H180.045ZM184.893 15.904C184.029 15.904 183.373 15.68 182.925 15.232C182.509 14.752 182.301 14.16 182.301 13.456C182.301 12.752 182.509 12.176 182.925 11.728C183.373 11.248 184.029 11.008 184.893 11.008C185.757 11.008 186.397 11.248 186.813 11.728C187.229 12.176 187.437 12.752 187.437 13.456C187.437 14.16 187.229 14.752 186.813 15.232C186.397 15.68 185.757 15.904 184.893 15.904ZM205.141 46.72C201.877 46.72 199.365 46.016 197.605 44.608C195.845 43.168 194.949 41.248 194.917 38.848H198.277C198.341 40.064 198.885 41.168 199.909 42.16C200.965 43.152 202.709 43.648 205.141 43.648C207.413 43.648 209.109 43.184 210.229 42.256C211.381 41.296 211.957 40.144 211.957 38.8C211.957 37.552 211.477 36.592 210.517 35.92C209.589 35.216 208.229 34.768 206.437 34.576L203.557 34.288C201.253 34.032 199.381 33.328 197.941 32.176C196.533 30.992 195.829 29.376 195.829 27.328C195.829 25.824 196.213 24.512 196.981 23.392C197.749 22.272 198.821 21.408 200.197 20.8C201.605 20.16 203.253 19.84 205.141 19.84C207.861 19.84 210.069 20.48 211.765 21.76C213.493 23.04 214.373 24.864 214.405 27.232H211.045C211.013 26.016 210.501 24.992 209.509 24.16C208.517 23.328 207.061 22.912 205.141 22.912C203.157 22.912 201.669 23.344 200.677 24.208C199.717 25.072 199.237 26.128 199.237 27.376C199.237 28.432 199.605 29.312 200.341 30.016C201.077 30.688 202.229 31.104 203.797 31.264L206.677 31.552C209.237 31.84 211.317 32.576 212.917 33.76C214.549 34.944 215.365 36.64 215.365 38.848C215.365 40.352 214.933 41.712 214.069 42.928C213.237 44.112 212.053 45.04 210.517 45.712C208.981 46.384 207.189 46.72 205.141 46.72ZM231.747 46.288C229.987 46.288 228.467 46.032 227.187 45.52C225.907 45.008 224.915 44.144 224.211 42.928C223.507 41.68 223.155 40.016 223.155 37.936V12.592H226.611V38.464C226.611 39.936 227.011 41.072 227.811 41.872C228.611 42.64 229.747 43.024 231.219 43.024H235.779V46.288H231.747ZM218.595 23.344V20.608H235.779V23.344H218.595Z" fill="url(#paint0_radial_1063_1313)"/>
<path d="M3.768 81.304V80.128H7.992C9.048 80.128 9.896 79.936 10.536 79.552C11.176 79.168 11.648 78.656 11.952 78.016C12.256 77.36 12.408 76.64 12.408 75.856C12.408 75.072 12.256 74.36 11.952 73.72C11.648 73.064 11.176 72.544 10.536 72.16C9.896 71.776 9.048 71.584 7.992 71.584H3.768V70.408H7.824C9.184 70.408 10.296 70.648 11.16 71.128C12.024 71.592 12.664 72.224 13.08 73.024C13.496 73.824 13.704 74.72 13.704 75.712V76C13.704 76.976 13.496 77.872 13.08 78.688C12.664 79.488 12.024 80.128 11.16 80.608C10.296 81.072 9.184 81.304 7.824 81.304H3.768ZM2.928 88V70.408H4.224V88H2.928ZM17.4017 88V75.4H18.4097V80.728H18.2177C18.2177 78.904 18.6257 77.544 19.4417 76.648C20.2577 75.752 21.5777 75.304 23.4017 75.304H23.8337V76.456H23.1617C21.6737 76.456 20.5537 76.84 19.8017 77.608C19.0497 78.36 18.6737 79.472 18.6737 80.944V88H17.4017ZM32.2487 88.408C31.1927 88.408 30.2567 88.216 29.4407 87.832C28.6247 87.448 27.9367 86.944 27.3767 86.32C26.8327 85.696 26.4167 85 26.1287 84.232C25.8567 83.448 25.7207 82.648 25.7207 81.832V81.592C25.7207 80.76 25.8647 79.952 26.1527 79.168C26.4407 78.384 26.8647 77.68 27.4247 77.056C27.9847 76.432 28.6647 75.936 29.4647 75.568C30.2807 75.2 31.2087 75.016 32.2487 75.016C33.2727 75.016 34.1847 75.2 34.9847 75.568C35.8007 75.936 36.4887 76.432 37.0487 77.056C37.6087 77.68 38.0327 78.384 38.3207 79.168C38.6247 79.952 38.7767 80.76 38.7767 81.592V81.832C38.7767 82.648 38.6327 83.448 38.3447 84.232C38.0567 85 37.6327 85.696 37.0727 86.32C36.5287 86.944 35.8487 87.448 35.0327 87.832C34.2327 88.216 33.3047 88.408 32.2487 88.408ZM32.2487 87.232C33.3687 87.232 34.3127 86.976 35.0807 86.464C35.8647 85.952 36.4567 85.28 36.8567 84.448C37.2727 83.6 37.4807 82.688 37.4807 81.712C37.4807 80.704 37.2727 79.784 36.8567 78.952C36.4407 78.104 35.8407 77.432 35.0567 76.936C34.2887 76.424 33.3527 76.168 32.2487 76.168C31.1607 76.168 30.2167 76.424 29.4167 76.936C28.6327 77.432 28.0327 78.104 27.6167 78.952C27.2007 79.784 26.9927 80.704 26.9927 81.712C26.9927 82.688 27.1927 83.6 27.5927 84.448C28.0087 85.28 28.6087 85.952 29.3927 86.464C30.1767 86.976 31.1287 87.232 32.2487 87.232ZM48.9319 88.408C47.7799 88.408 46.7719 88.144 45.9079 87.616C45.0599 87.072 44.3959 86.352 43.9159 85.456C43.4519 84.56 43.2119 83.568 43.1959 82.48H43.6519V88H42.6439V70.48H43.9159V79.456L43.3159 80.968C43.3479 79.768 43.5959 78.728 44.0599 77.848C44.5399 76.952 45.2039 76.256 46.0519 75.76C46.8999 75.264 47.8839 75.016 49.0039 75.016C49.9479 75.016 50.7959 75.2 51.5479 75.568C52.2999 75.92 52.9319 76.408 53.4439 77.032C53.9719 77.64 54.3719 78.336 54.6439 79.12C54.9159 79.888 55.0519 80.704 55.0519 81.568V81.808C55.0519 82.64 54.9159 83.448 54.6439 84.232C54.3879 85 53.9959 85.704 53.4679 86.344C52.9399 86.968 52.2919 87.472 51.5239 87.856C50.7719 88.224 49.9079 88.408 48.9319 88.408ZM48.8119 87.256C49.8679 87.256 50.7639 87 51.4999 86.488C52.2519 85.96 52.8199 85.272 53.2039 84.424C53.5879 83.576 53.7799 82.664 53.7799 81.688C53.7799 80.664 53.5799 79.736 53.1799 78.904C52.7799 78.056 52.2119 77.392 51.4759 76.912C50.7399 76.416 49.8519 76.168 48.8119 76.168C47.8519 76.168 46.9959 76.384 46.2439 76.816C45.5079 77.232 44.9239 77.816 44.4919 78.568C44.0599 79.304 43.8439 80.152 43.8439 81.112V82.336C43.8439 83.248 44.0519 84.08 44.4679 84.832C44.8999 85.568 45.4839 86.16 46.2199 86.608C46.9719 87.04 47.8359 87.256 48.8119 87.256ZM59.0049 88V70.48H60.2769V88H59.0049ZM57.1089 71.56V70.48H60.2769V71.56H57.1089ZM70.3502 88.408C69.2782 88.408 68.3502 88.224 67.5662 87.856C66.7822 87.472 66.1422 86.968 65.6462 86.344C65.1502 85.704 64.7742 84.992 64.5182 84.208C64.2782 83.408 64.1582 82.6 64.1582 81.784V81.544C64.1582 80.712 64.2782 79.912 64.5182 79.144C64.7742 78.376 65.1502 77.68 65.6462 77.056C66.1582 76.416 66.7902 75.92 67.5422 75.568C68.3102 75.2 69.1982 75.016 70.2062 75.016C71.4862 75.016 72.5582 75.304 73.4222 75.88C74.3022 76.44 74.9662 77.176 75.4142 78.088C75.8622 79 76.0862 79.96 76.0862 80.968V81.832H64.7582V80.776H75.2462L74.8622 81.256C74.8622 80.28 74.6782 79.408 74.3102 78.64C73.9582 77.872 73.4302 77.272 72.7262 76.84C72.0382 76.392 71.1982 76.168 70.2062 76.168C69.1342 76.168 68.2382 76.416 67.5182 76.912C66.7982 77.408 66.2542 78.072 65.8862 78.904C65.5342 79.736 65.3582 80.656 65.3582 81.664C65.3582 82.672 65.5342 83.6 65.8862 84.448C66.2542 85.28 66.8062 85.96 67.5422 86.488C68.2782 87 69.2142 87.256 70.3502 87.256C71.5662 87.256 72.5422 86.976 73.2782 86.416C74.0302 85.856 74.4862 85.184 74.6462 84.4H75.8942C75.7182 85.184 75.3822 85.88 74.8862 86.488C74.3902 87.096 73.7582 87.568 72.9902 87.904C72.2382 88.24 71.3582 88.408 70.3502 88.408ZM79.7454 88V75.4H80.7534V80.56H80.4654C80.4654 79.472 80.6254 78.52 80.9454 77.704C81.2814 76.872 81.7774 76.224 82.4334 75.76C83.0894 75.296 83.9214 75.064 84.9294 75.064H85.0014C85.9934 75.064 86.8174 75.296 87.4734 75.76C88.1294 76.208 88.6094 76.848 88.9134 77.68C89.2334 78.496 89.3934 79.456 89.3934 80.56H88.9134C88.9134 79.472 89.0734 78.52 89.3934 77.704C89.7294 76.872 90.2254 76.224 90.8814 75.76C91.5534 75.296 92.3934 75.064 93.4014 75.064H93.4734C94.4654 75.064 95.2894 75.296 95.9454 75.76C96.6174 76.208 97.1134 76.848 97.4334 77.68C97.7534 78.496 97.9134 79.456 97.9134 80.56V88H96.6414V80.272C96.6414 79.072 96.3454 78.104 95.7534 77.368C95.1774 76.616 94.3214 76.24 93.1854 76.24C92.0334 76.24 91.1214 76.624 90.4494 77.392C89.7934 78.16 89.4654 79.16 89.4654 80.392V88H88.1934V80.272C88.1934 79.072 87.8974 78.104 87.3054 77.368C86.7294 76.616 85.8734 76.24 84.7374 76.24C83.5854 76.24 82.6734 76.624 82.0014 77.392C81.3454 78.16 81.0174 79.16 81.0174 80.392V88H79.7454ZM106.459 88.36C104.891 88.36 103.683 88 102.835 87.28C102.003 86.56 101.579 85.64 101.563 84.52H102.811C102.811 85.24 103.091 85.872 103.651 86.416C104.227 86.944 105.163 87.208 106.459 87.208C107.723 87.208 108.651 86.944 109.243 86.416C109.835 85.872 110.131 85.232 110.131 84.496C110.131 83.776 109.859 83.224 109.315 82.84C108.787 82.456 108.067 82.216 107.155 82.12L105.667 81.952C104.563 81.824 103.683 81.48 103.027 80.92C102.387 80.36 102.067 79.6 102.067 78.64C102.067 77.952 102.243 77.336 102.595 76.792C102.947 76.248 103.451 75.816 104.107 75.496C104.779 75.176 105.563 75.016 106.459 75.016C107.771 75.016 108.827 75.336 109.627 75.976C110.443 76.616 110.859 77.488 110.875 78.592H109.627C109.643 77.904 109.371 77.328 108.811 76.864C108.267 76.4 107.483 76.168 106.459 76.168C105.387 76.168 104.587 76.416 104.059 76.912C103.547 77.408 103.291 77.992 103.291 78.664C103.291 79.224 103.491 79.704 103.891 80.104C104.307 80.504 104.931 80.752 105.763 80.848L107.251 81.016C108.435 81.128 109.411 81.472 110.179 82.048C110.963 82.624 111.355 83.448 111.355 84.52C111.355 85.24 111.155 85.888 110.755 86.464C110.371 87.04 109.819 87.504 109.099 87.856C108.379 88.192 107.499 88.36 106.459 88.36ZM125.195 88.12C124.411 88.12 123.723 88.008 123.131 87.784C122.539 87.544 122.083 87.144 121.763 86.584C121.443 86.024 121.283 85.272 121.283 84.328V71.296H122.531V84.544C122.531 85.312 122.739 85.912 123.155 86.344C123.587 86.76 124.179 86.968 124.931 86.968H127.283V88.12H125.195ZM118.883 76.432V75.4H127.283V76.432H118.883ZM131.003 88V70.48H132.275V79.84L131.819 80.656C131.819 79.552 131.987 78.584 132.323 77.752C132.675 76.904 133.203 76.248 133.907 75.784C134.611 75.304 135.499 75.064 136.571 75.064H136.619C138.187 75.064 139.371 75.56 140.171 76.552C140.971 77.528 141.371 78.864 141.371 80.56V88H140.075V80.272C140.075 79.056 139.747 78.08 139.091 77.344C138.435 76.608 137.507 76.24 136.307 76.24C135.075 76.24 134.091 76.632 133.355 77.416C132.635 78.184 132.275 79.192 132.275 80.44V88H131.003ZM153.848 88V84.232H153.608V79.6C153.608 78.592 153.344 77.816 152.816 77.272C152.288 76.712 151.416 76.432 150.2 76.432C149.768 76.432 149.328 76.448 148.88 76.48C148.432 76.496 148.008 76.52 147.608 76.552C147.208 76.568 146.848 76.6 146.528 76.648V75.496C146.848 75.448 147.184 75.408 147.536 75.376C147.904 75.344 148.272 75.32 148.64 75.304C149.008 75.288 149.36 75.28 149.696 75.28C150.96 75.28 151.968 75.448 152.72 75.784C153.472 76.104 154.016 76.6 154.352 77.272C154.688 77.928 154.856 78.768 154.856 79.792V88H153.848ZM149.456 88.336C148.608 88.336 147.848 88.184 147.176 87.88C146.504 87.576 145.968 87.128 145.568 86.536C145.184 85.944 144.992 85.224 144.992 84.376C144.992 83.56 145.176 82.864 145.544 82.288C145.928 81.712 146.472 81.272 147.176 80.968C147.896 80.664 148.76 80.512 149.768 80.512H153.728V81.544H149.648C148.56 81.544 147.72 81.808 147.128 82.336C146.552 82.848 146.264 83.528 146.264 84.376C146.264 85.272 146.576 85.984 147.2 86.512C147.824 87.024 148.64 87.28 149.648 87.28C150.272 87.28 150.88 87.16 151.472 86.92C152.064 86.68 152.56 86.28 152.96 85.72C153.36 85.144 153.576 84.376 153.608 83.416L154.088 83.968C154.04 84.944 153.8 85.76 153.368 86.416C152.952 87.056 152.408 87.536 151.736 87.856C151.064 88.176 150.304 88.336 149.456 88.336ZM163.82 88.12C163.036 88.12 162.348 88.008 161.756 87.784C161.164 87.544 160.708 87.144 160.388 86.584C160.068 86.024 159.908 85.272 159.908 84.328V71.296H161.156V84.544C161.156 85.312 161.364 85.912 161.78 86.344C162.212 86.76 162.804 86.968 163.556 86.968H165.908V88.12H163.82ZM157.508 76.432V75.4H165.908V76.432H157.508ZM173.954 92.896V91.72H175.394C175.954 91.72 176.442 91.648 176.858 91.504C177.274 91.376 177.634 91.136 177.938 90.784C178.258 90.432 178.522 89.928 178.73 89.272L183.218 75.4H184.49L179.81 89.68C179.554 90.464 179.21 91.088 178.778 91.552C178.362 92.032 177.858 92.376 177.266 92.584C176.69 92.792 176.034 92.896 175.298 92.896H173.954ZM178.322 87.688V86.56H180.098V87.688H178.322ZM178.082 87.688L173.498 75.4H174.794L179.33 87.688H178.082ZM193.147 88.408C192.091 88.408 191.155 88.216 190.339 87.832C189.523 87.448 188.835 86.944 188.275 86.32C187.731 85.696 187.315 85 187.027 84.232C186.755 83.448 186.619 82.648 186.619 81.832V81.592C186.619 80.76 186.763 79.952 187.051 79.168C187.339 78.384 187.763 77.68 188.323 77.056C188.883 76.432 189.563 75.936 190.363 75.568C191.179 75.2 192.107 75.016 193.147 75.016C194.171 75.016 195.083 75.2 195.883 75.568C196.699 75.936 197.387 76.432 197.947 77.056C198.507 77.68 198.931 78.384 199.219 79.168C199.523 79.952 199.675 80.76 199.675 81.592V81.832C199.675 82.648 199.531 83.448 199.243 84.232C198.955 85 198.531 85.696 197.971 86.32C197.427 86.944 196.747 87.448 195.931 87.832C195.131 88.216 194.203 88.408 193.147 88.408ZM193.147 87.232C194.267 87.232 195.211 86.976 195.979 86.464C196.763 85.952 197.355 85.28 197.755 84.448C198.171 83.6 198.379 82.688 198.379 81.712C198.379 80.704 198.171 79.784 197.755 78.952C197.339 78.104 196.739 77.432 195.955 76.936C195.187 76.424 194.251 76.168 193.147 76.168C192.059 76.168 191.115 76.424 190.315 76.936C189.531 77.432 188.931 78.104 188.515 78.952C188.099 79.784 187.891 80.704 187.891 81.712C187.891 82.688 188.091 83.6 188.491 84.448C188.907 85.28 189.507 85.952 190.291 86.464C191.075 86.976 192.027 87.232 193.147 87.232ZM207.838 88.36C206.318 88.36 205.166 87.872 204.382 86.896C203.598 85.92 203.206 84.6 203.206 82.936V75.4H204.502V83.224C204.502 84.392 204.806 85.344 205.414 86.08C206.038 86.8 206.934 87.16 208.102 87.16C209.286 87.16 210.222 86.784 210.91 86.032C211.614 85.28 211.966 84.296 211.966 83.08V75.4H213.238V88H212.23V82.912H212.518C212.518 83.984 212.342 84.936 211.99 85.768C211.654 86.584 211.15 87.224 210.478 87.688C209.806 88.136 208.95 88.36 207.91 88.36H207.838ZM227.292 88L230.172 75.832H232.092L235.332 88H234.156L230.916 75.904H231.3L228.42 88H227.292ZM226.428 88V86.92H228.156V88H226.428ZM226.116 88L222.348 75.4H223.62L227.316 88H226.116ZM234.516 88V86.92H236.124V88H234.516ZM235.308 88L238.596 75.4H239.796L236.484 88H235.308ZM248.553 88.408C247.497 88.408 246.561 88.216 245.745 87.832C244.929 87.448 244.241 86.944 243.681 86.32C243.137 85.696 242.721 85 242.433 84.232C242.161 83.448 242.025 82.648 242.025 81.832V81.592C242.025 80.76 242.169 79.952 242.457 79.168C242.745 78.384 243.169 77.68 243.729 77.056C244.289 76.432 244.969 75.936 245.769 75.568C246.585 75.2 247.513 75.016 248.553 75.016C249.577 75.016 250.489 75.2 251.289 75.568C252.105 75.936 252.793 76.432 253.353 77.056C253.913 77.68 254.337 78.384 254.625 79.168C254.929 79.952 255.081 80.76 255.081 81.592V81.832C255.081 82.648 254.937 83.448 254.649 84.232C254.361 85 253.937 85.696 253.377 86.32C252.833 86.944 252.153 87.448 251.337 87.832C250.537 88.216 249.609 88.408 248.553 88.408ZM248.553 87.232C249.673 87.232 250.617 86.976 251.385 86.464C252.169 85.952 252.761 85.28 253.161 84.448C253.577 83.6 253.785 82.688 253.785 81.712C253.785 80.704 253.577 79.784 253.161 78.952C252.745 78.104 252.145 77.432 251.361 76.936C250.593 76.424 249.657 76.168 248.553 76.168C247.465 76.168 246.521 76.424 245.721 76.936C244.937 77.432 244.337 78.104 243.921 78.952C243.505 79.784 243.297 80.704 243.297 81.712C243.297 82.688 243.497 83.6 243.897 84.448C244.313 85.28 244.913 85.952 245.697 86.464C246.481 86.976 247.433 87.232 248.553 87.232ZM258.949 88V75.4H259.957V80.56H259.669C259.669 79.456 259.845 78.496 260.197 77.68C260.565 76.848 261.101 76.208 261.805 75.76C262.525 75.296 263.413 75.064 264.469 75.064H264.541C266.125 75.064 267.317 75.56 268.117 76.552C268.917 77.528 269.317 78.864 269.317 80.56V88H268.021V80.272C268.021 79.072 267.693 78.104 267.037 77.368C266.397 76.616 265.469 76.24 264.253 76.24C263.021 76.24 262.037 76.624 261.301 77.392C260.581 78.144 260.221 79.144 260.221 80.392V88H258.949ZM272.514 77.008V76.144H272.73C273.194 76.144 273.57 76.064 273.858 75.904C274.162 75.728 274.378 75.432 274.506 75.016C274.65 74.584 274.722 74 274.722 73.264V71.872L275.034 72.4C274.954 72.464 274.842 72.52 274.698 72.568C274.554 72.616 274.394 72.64 274.218 72.64C273.882 72.64 273.61 72.536 273.402 72.328C273.194 72.12 273.09 71.84 273.09 71.488C273.09 71.152 273.186 70.88 273.378 70.672C273.57 70.464 273.85 70.36 274.218 70.36C274.49 70.36 274.73 70.424 274.938 70.552C275.146 70.68 275.314 70.904 275.442 71.224C275.57 71.528 275.634 71.952 275.634 72.496V72.952C275.634 74.056 275.514 74.904 275.274 75.496C275.05 76.072 274.714 76.472 274.266 76.696C273.834 76.904 273.322 77.008 272.73 77.008H272.514ZM283.633 88.12C282.849 88.12 282.161 88.008 281.569 87.784C280.977 87.544 280.521 87.144 280.201 86.584C279.881 86.024 279.721 85.272 279.721 84.328V71.296H280.969V84.544C280.969 85.312 281.177 85.912 281.593 86.344C282.025 86.76 282.617 86.968 283.369 86.968H285.721V88.12H283.633ZM277.321 76.432V75.4H285.721V76.432H277.321Z" fill="#717171"/>
<path d="M295.543 88V74.104C295.543 72.856 295.855 71.936 296.479 71.344C297.119 70.752 298.079 70.456 299.359 70.456H301.015V71.56H299.071C298.335 71.56 297.767 71.76 297.367 72.16C296.983 72.544 296.791 73.088 296.791 73.792V88H295.543ZM293.599 76.504V75.496H301.279V76.504H293.599ZM311.676 88V84.232H311.436V79.6C311.436 78.592 311.172 77.816 310.644 77.272C310.116 76.712 309.244 76.432 308.028 76.432C307.596 76.432 307.156 76.448 306.708 76.48C306.26 76.496 305.836 76.52 305.436 76.552C305.036 76.568 304.676 76.6 304.356 76.648V75.496C304.676 75.448 305.012 75.408 305.364 75.376C305.732 75.344 306.1 75.32 306.468 75.304C306.836 75.288 307.188 75.28 307.524 75.28C308.788 75.28 309.796 75.448 310.548 75.784C311.3 76.104 311.844 76.6 312.18 77.272C312.516 77.928 312.684 78.768 312.684 79.792V88H311.676ZM307.284 88.336C306.436 88.336 305.676 88.184 305.004 87.88C304.332 87.576 303.796 87.128 303.396 86.536C303.012 85.944 302.82 85.224 302.82 84.376C302.82 83.56 303.004 82.864 303.372 82.288C303.756 81.712 304.3 81.272 305.004 80.968C305.724 80.664 306.588 80.512 307.596 80.512H311.556V81.544H307.476C306.388 81.544 305.548 81.808 304.956 82.336C304.38 82.848 304.092 83.528 304.092 84.376C304.092 85.272 304.404 85.984 305.028 86.512C305.652 87.024 306.468 87.28 307.476 87.28C308.1 87.28 308.708 87.16 309.3 86.92C309.892 86.68 310.388 86.28 310.788 85.72C311.188 85.144 311.404 84.376 311.436 83.416L311.916 83.968C311.868 84.944 311.628 85.76 311.196 86.416C310.78 87.056 310.236 87.536 309.564 87.856C308.892 88.176 308.132 88.336 307.284 88.336ZM322.609 88.408C321.569 88.408 320.657 88.216 319.873 87.832C319.105 87.448 318.457 86.936 317.929 86.296C317.417 85.656 317.033 84.944 316.777 84.16C316.521 83.376 316.393 82.584 316.393 81.784V81.544C316.393 80.728 316.521 79.928 316.777 79.144C317.033 78.36 317.417 77.664 317.929 77.056C318.457 76.432 319.105 75.936 319.873 75.568C320.657 75.2 321.569 75.016 322.609 75.016C323.617 75.016 324.513 75.2 325.297 75.568C326.097 75.936 326.745 76.456 327.241 77.128C327.753 77.784 328.073 78.576 328.201 79.504H326.953C326.809 78.544 326.361 77.752 325.609 77.128C324.857 76.488 323.857 76.168 322.609 76.168C321.505 76.168 320.585 76.416 319.849 76.912C319.113 77.408 318.561 78.072 318.193 78.904C317.841 79.736 317.665 80.656 317.665 81.664C317.665 82.64 317.849 83.552 318.217 84.4C318.585 85.248 319.137 85.936 319.873 86.464C320.609 86.976 321.521 87.232 322.609 87.232C323.457 87.232 324.201 87.08 324.841 86.776C325.497 86.456 326.025 86.04 326.425 85.528C326.825 85 327.065 84.424 327.145 83.8H328.393C328.281 84.728 327.961 85.536 327.433 86.224C326.905 86.896 326.225 87.432 325.393 87.832C324.561 88.216 323.633 88.408 322.609 88.408ZM337.022 88.408C335.95 88.408 335.022 88.224 334.238 87.856C333.454 87.472 332.814 86.968 332.318 86.344C331.822 85.704 331.446 84.992 331.19 84.208C330.95 83.408 330.83 82.6 330.83 81.784V81.544C330.83 80.712 330.95 79.912 331.19 79.144C331.446 78.376 331.822 77.68 332.318 77.056C332.83 76.416 333.462 75.92 334.214 75.568C334.982 75.2 335.87 75.016 336.878 75.016C338.158 75.016 339.23 75.304 340.094 75.88C340.974 76.44 341.638 77.176 342.086 78.088C342.534 79 342.758 79.96 342.758 80.968V81.832H331.43V80.776H341.918L341.534 81.256C341.534 80.28 341.35 79.408 340.982 78.64C340.63 77.872 340.102 77.272 339.398 76.84C338.71 76.392 337.87 76.168 336.878 76.168C335.806 76.168 334.91 76.416 334.19 76.912C333.47 77.408 332.926 78.072 332.558 78.904C332.206 79.736 332.03 80.656 332.03 81.664C332.03 82.672 332.206 83.6 332.558 84.448C332.926 85.28 333.478 85.96 334.214 86.488C334.95 87 335.886 87.256 337.022 87.256C338.238 87.256 339.214 86.976 339.95 86.416C340.702 85.856 341.158 85.184 341.318 84.4H342.566C342.39 85.184 342.054 85.88 341.558 86.488C341.062 87.096 340.43 87.568 339.662 87.904C338.91 88.24 338.03 88.408 337.022 88.408ZM359.864 88V84.232H359.624V79.6C359.624 78.592 359.36 77.816 358.832 77.272C358.304 76.712 357.432 76.432 356.216 76.432C355.784 76.432 355.344 76.448 354.896 76.48C354.448 76.496 354.024 76.52 353.624 76.552C353.224 76.568 352.864 76.6 352.544 76.648V75.496C352.864 75.448 353.2 75.408 353.552 75.376C353.92 75.344 354.288 75.32 354.656 75.304C355.024 75.288 355.376 75.28 355.712 75.28C356.976 75.28 357.984 75.448 358.736 75.784C359.488 76.104 360.032 76.6 360.368 77.272C360.704 77.928 360.872 78.768 360.872 79.792V88H359.864ZM355.472 88.336C354.624 88.336 353.864 88.184 353.192 87.88C352.52 87.576 351.984 87.128 351.584 86.536C351.2 85.944 351.008 85.224 351.008 84.376C351.008 83.56 351.192 82.864 351.56 82.288C351.944 81.712 352.488 81.272 353.192 80.968C353.912 80.664 354.776 80.512 355.784 80.512H359.744V81.544H355.664C354.576 81.544 353.736 81.808 353.144 82.336C352.568 82.848 352.28 83.528 352.28 84.376C352.28 85.272 352.592 85.984 353.215 86.512C353.84 87.024 354.656 87.28 355.664 87.28C356.288 87.28 356.896 87.16 357.488 86.92C358.08 86.68 358.576 86.28 358.976 85.72C359.376 85.144 359.592 84.376 359.624 83.416L360.104 83.968C360.056 84.944 359.816 85.76 359.384 86.416C358.968 87.056 358.424 87.536 357.752 87.856C357.08 88.176 356.32 88.336 355.472 88.336ZM370.436 92.92C369.876 92.92 369.292 92.896 368.684 92.848C368.076 92.8 367.492 92.728 366.932 92.632V91.504C367.508 91.6 368.108 91.672 368.732 91.72C369.372 91.784 369.972 91.816 370.532 91.816C371.812 91.816 372.82 91.648 373.556 91.312C374.292 90.992 374.82 90.456 375.14 89.704C375.46 88.968 375.62 87.984 375.62 86.752V84.16L376.196 82.408C376.18 83.56 375.932 84.576 375.452 85.456C374.988 86.336 374.34 87.032 373.508 87.544C372.676 88.04 371.7 88.288 370.58 88.288C369.636 88.288 368.788 88.112 368.036 87.76C367.3 87.392 366.676 86.904 366.164 86.296C365.652 85.672 365.26 84.968 364.988 84.184C364.716 83.384 364.58 82.568 364.58 81.736V81.496C364.58 80.68 364.716 79.888 364.988 79.12C365.26 78.336 365.652 77.64 366.164 77.032C366.676 76.408 367.308 75.92 368.06 75.568C368.812 75.2 369.668 75.016 370.628 75.016C371.796 75.016 372.804 75.28 373.652 75.808C374.5 76.336 375.148 77.048 375.596 77.944C376.06 78.84 376.3 79.832 376.316 80.92L375.836 80.272V75.4H376.868V86.752C376.868 88.256 376.66 89.456 376.244 90.352C375.828 91.264 375.148 91.92 374.204 92.32C373.26 92.72 372.004 92.92 370.436 92.92ZM370.748 87.112C371.708 87.112 372.556 86.904 373.292 86.488C374.028 86.056 374.604 85.472 375.02 84.736C375.436 83.984 375.644 83.136 375.644 82.192V80.968C375.644 80.056 375.436 79.24 375.02 78.52C374.62 77.784 374.052 77.2 373.316 76.768C372.58 76.336 371.732 76.12 370.772 76.12C369.716 76.12 368.82 76.376 368.084 76.888C367.364 77.4 366.812 78.072 366.428 78.904C366.044 79.736 365.852 80.64 365.852 81.616C365.852 82.624 366.052 83.552 366.452 84.4C366.852 85.232 367.412 85.896 368.132 86.392C368.868 86.872 369.74 87.112 370.748 87.112ZM389.371 88V84.232H389.131V79.6C389.131 78.592 388.867 77.816 388.339 77.272C387.811 76.712 386.939 76.432 385.723 76.432C385.291 76.432 384.851 76.448 384.403 76.48C383.955 76.496 383.531 76.52 383.131 76.552C382.731 76.568 382.371 76.6 382.051 76.648V75.496C382.371 75.448 382.707 75.408 383.059 75.376C383.427 75.344 383.795 75.32 384.163 75.304C384.531 75.288 384.883 75.28 385.219 75.28C386.483 75.28 387.491 75.448 388.243 75.784C388.995 76.104 389.539 76.6 389.875 77.272C390.211 77.928 390.379 78.768 390.379 79.792V88H389.371ZM384.979 88.336C384.131 88.336 383.371 88.184 382.699 87.88C382.027 87.576 381.491 87.128 381.091 86.536C380.707 85.944 380.515 85.224 380.515 84.376C380.515 83.56 380.699 82.864 381.067 82.288C381.451 81.712 381.995 81.272 382.699 80.968C383.419 80.664 384.283 80.512 385.291 80.512H389.251V81.544H385.171C384.083 81.544 383.243 81.808 382.651 82.336C382.075 82.848 381.787 83.528 381.787 84.376C381.787 85.272 382.099 85.984 382.723 86.512C383.347 87.024 384.163 87.28 385.171 87.28C385.795 87.28 386.403 87.16 386.995 86.92C387.587 86.68 388.083 86.28 388.483 85.72C388.883 85.144 389.099 84.376 389.131 83.416L389.611 83.968C389.563 84.944 389.323 85.76 388.891 86.416C388.475 87.056 387.931 87.536 387.259 87.856C386.587 88.176 385.827 88.336 384.979 88.336ZM395.816 88V75.4H397.112V88H395.816ZM393.728 76.504V75.4H397.112V76.504H393.728ZM395.936 72.76C395.6 72.76 395.344 72.672 395.168 72.496C394.992 72.304 394.904 72.064 394.904 71.776C394.904 71.472 394.992 71.224 395.168 71.032C395.344 70.84 395.608 70.744 395.96 70.744C396.296 70.744 396.552 70.84 396.728 71.032C396.904 71.224 396.992 71.472 396.992 71.776C396.992 72.064 396.904 72.304 396.728 72.496C396.568 72.672 396.304 72.76 395.936 72.76ZM402.081 88V75.4H403.089V80.56H402.801C402.801 79.456 402.977 78.496 403.329 77.68C403.697 76.848 404.233 76.208 404.937 75.76C405.657 75.296 406.545 75.064 407.601 75.064H407.673C409.257 75.064 410.449 75.56 411.249 76.552C412.049 77.528 412.449 78.864 412.449 80.56V88H411.153V80.272C411.153 79.072 410.825 78.104 410.169 77.368C409.529 76.616 408.601 76.24 407.385 76.24C406.153 76.24 405.169 76.624 404.433 77.392C403.713 78.144 403.353 79.144 403.353 80.392V88H402.081Z" fill="url(#paint1_radial_1063_1313)"/>
<defs>
<radialGradient id="paint0_radial_1063_1313" cx="0" cy="0" r="1" gradientUnits="userSpaceOnUse" gradientTransform="translate(268 30) rotate(90) scale(30 268)">
<stop stop-color="#5A69EA"/>
<stop offset="1" stop-color="#BF8BCA"/>
</radialGradient>
<radialGradient id="paint1_radial_1063_1313" cx="0" cy="0" r="1" gradientUnits="userSpaceOnUse" gradientTransform="translate(268 80) rotate(90) scale(15 268)">
<stop stop-color="#5A69EA"/>
<stop offset="1" stop-color="#BF8BCA"/>
</radialGradient>
</defs>
</svg>
