<svg width="536" height="150" viewBox="0 0 536 150" fill="none" xmlns="http://www.w3.org/2000/svg">
<path d="M12.288 46V13.36H15.936V46H12.288ZM1.344 14.272V10.96H26.88V14.272H1.344ZM47.4938 46.816C44.3578 46.816 41.6698 46.272 39.4297 45.184C37.2218 44.064 35.4138 42.608 34.0058 40.816C32.6298 39.024 31.6218 37.088 30.9818 35.008C30.3418 32.896 30.0218 30.848 30.0218 28.864V27.952C30.0218 25.808 30.3418 23.68 30.9818 21.568C31.6538 19.424 32.6778 17.488 34.0538 15.76C35.4618 14.032 37.2538 12.656 39.4297 11.632C41.6058 10.576 44.1818 10.048 47.1578 10.048C50.1658 10.048 52.7578 10.576 54.9338 11.632C57.1418 12.688 58.9018 14.176 60.2138 16.096C61.5258 17.984 62.3258 20.224 62.6138 22.816H58.9178C58.6618 20.736 57.9898 19.008 56.9018 17.632C55.8138 16.224 54.4218 15.168 52.7258 14.464C51.0618 13.76 49.2058 13.408 47.1578 13.408C44.9498 13.408 42.9978 13.808 41.3018 14.608C39.6378 15.376 38.2458 16.464 37.1258 17.872C36.0058 19.248 35.1578 20.848 34.5818 22.672C34.0058 24.464 33.7178 26.384 33.7178 28.432C33.7178 30.384 33.9898 32.256 34.5338 34.048C35.1098 35.84 35.9738 37.456 37.1258 38.896C38.2778 40.304 39.7178 41.424 41.4458 42.256C43.1738 43.056 45.1898 43.456 47.4938 43.456C50.6938 43.456 53.3818 42.656 55.5578 41.056C57.7338 39.424 59.0778 37.088 59.5898 34.048H63.2858C62.9338 36.448 62.1018 38.624 60.7898 40.576C59.4778 42.496 57.7018 44.016 55.4618 45.136C53.2538 46.256 50.5978 46.816 47.4938 46.816ZM85.9871 46.816C83.1071 46.816 80.5471 46.336 78.3071 45.376C76.0991 44.416 74.2431 43.104 72.7391 41.44C71.2351 39.744 70.0831 37.808 69.2831 35.632C68.5151 33.424 68.1311 31.104 68.1311 28.672V27.808C68.1311 25.568 68.4991 23.392 69.2351 21.28C70.0031 19.168 71.1071 17.264 72.5471 15.568C73.9871 13.872 75.7791 12.528 77.9231 11.536C80.0671 10.544 82.4991 10.048 85.2191 10.048C88.0671 10.048 90.5951 10.592 92.8031 11.68C95.0111 12.736 96.7871 14.224 98.1311 16.144C99.5071 18.064 100.307 20.288 100.531 22.816H96.8351C96.5791 20.768 95.8911 19.04 94.7711 17.632C93.6831 16.224 92.3071 15.168 90.6431 14.464C88.9791 13.76 87.1711 13.408 85.2191 13.408C83.1711 13.408 81.3151 13.776 79.6511 14.512C77.9871 15.248 76.5791 16.288 75.4271 17.632C74.2751 18.976 73.3791 20.56 72.7391 22.384C72.1311 24.176 71.8271 26.144 71.8271 28.288C71.8271 30.56 72.1471 32.64 72.7871 34.528C73.4271 36.384 74.3551 37.984 75.5711 39.328C76.7871 40.672 78.2591 41.712 79.9871 42.448C81.7471 43.184 83.7471 43.552 85.9871 43.552C88.7391 43.552 91.1551 43.024 93.2351 41.968C95.3471 40.88 96.9791 39.456 98.1311 37.696L96.6911 42.208V31.84H100.147V40.576C98.6431 42.528 96.6911 44.064 94.2911 45.184C91.8911 46.272 89.1231 46.816 85.9871 46.816ZM84.6911 32.608V29.536H103.267V32.608H84.6911ZM127.577 46L117.881 10.96H121.625L130.409 43.648L128.729 42.688H133.385L131.561 43.648L138.713 12.496H142.169L134.297 46H127.577ZM148.649 46L140.009 12.496H143.561L151.529 43.648L149.753 42.688H154.505L152.681 43.648L160.601 10.96H164.249L155.369 46H148.649ZM180.077 46.816C177.901 46.816 176.013 46.448 174.413 45.712C172.813 44.944 171.501 43.936 170.477 42.688C169.453 41.408 168.685 39.984 168.173 38.416C167.693 36.848 167.453 35.232 167.453 33.568V32.896C167.453 31.264 167.693 29.664 168.173 28.096C168.685 26.528 169.453 25.12 170.477 23.872C171.501 22.624 172.781 21.632 174.317 20.896C175.885 20.128 177.709 19.744 179.789 19.744C182.445 19.744 184.653 20.336 186.413 21.52C188.205 22.704 189.549 24.224 190.445 26.08C191.341 27.904 191.789 29.872 191.789 31.984V33.856H169.085V31.072H189.293L188.381 32.464C188.381 30.576 188.045 28.928 187.373 27.52C186.733 26.08 185.773 24.96 184.493 24.16C183.245 23.328 181.677 22.912 179.789 22.912C177.805 22.912 176.157 23.376 174.845 24.304C173.533 25.232 172.541 26.464 171.868 28C171.229 29.536 170.909 31.28 170.909 33.232C170.909 35.152 171.229 36.912 171.868 38.512C172.541 40.08 173.549 41.328 174.893 42.256C176.269 43.184 177.997 43.648 180.077 43.648C182.285 43.648 184.077 43.152 185.453 42.16C186.829 41.136 187.677 39.936 187.997 38.56H191.357C191.037 40.256 190.365 41.728 189.341 42.976C188.317 44.192 187.021 45.136 185.453 45.808C183.885 46.48 182.093 46.816 180.077 46.816ZM211.823 46.816C209.583 46.816 207.615 46.32 205.919 45.328C204.255 44.336 202.943 42.944 201.983 41.152C201.055 39.36 200.559 37.296 200.495 34.96H201.599V46H198.719V10.96H202.319V28.48L200.927 31.696C200.991 29.136 201.503 26.976 202.463 25.216C203.455 23.424 204.767 22.064 206.398 21.136C208.063 20.208 209.951 19.744 212.063 19.744C213.919 19.744 215.599 20.096 217.103 20.8C218.607 21.504 219.887 22.464 220.943 23.68C222.031 24.896 222.847 26.304 223.391 27.904C223.967 29.472 224.255 31.136 224.255 32.896V33.568C224.255 35.296 223.967 36.96 223.391 38.56C222.815 40.128 221.983 41.536 220.895 42.784C219.839 44.032 218.543 45.024 217.007 45.76C215.471 46.464 213.743 46.816 211.823 46.816ZM211.439 43.648C213.359 43.648 215.007 43.184 216.383 42.256C217.759 41.328 218.815 40.08 219.551 38.512C220.287 36.944 220.655 35.184 220.655 33.232C220.655 31.248 220.271 29.488 219.503 27.952C218.767 26.384 217.695 25.152 216.287 24.256C214.911 23.36 213.295 22.912 211.439 22.912C209.711 22.912 208.143 23.296 206.734 24.064C205.327 24.832 204.207 25.92 203.375 27.328C202.575 28.704 202.175 30.336 202.175 32.224V34.576C202.175 36.368 202.575 37.952 203.375 39.328C204.207 40.672 205.327 41.728 206.734 42.496C208.143 43.264 209.711 43.648 211.439 43.648ZM239.547 46.72C236.283 46.72 233.771 46.016 232.011 44.608C230.251 43.168 229.355 41.248 229.323 38.848H232.683C232.747 40.064 233.291 41.168 234.315 42.16C235.371 43.152 237.115 43.648 239.547 43.648C241.819 43.648 243.515 43.184 244.635 42.256C245.787 41.296 246.363 40.144 246.363 38.8C246.363 37.552 245.883 36.592 244.923 35.92C243.995 35.216 242.635 34.768 240.843 34.576L237.963 34.288C235.659 34.032 233.787 33.328 232.347 32.176C230.939 30.992 230.235 29.376 230.235 27.328C230.235 25.824 230.619 24.512 231.387 23.392C232.155 22.272 233.227 21.408 234.603 20.8C236.011 20.16 237.659 19.84 239.547 19.84C242.267 19.84 244.475 20.48 246.171 21.76C247.899 23.04 248.779 24.864 248.811 27.232H245.451C245.419 26.016 244.907 24.992 243.915 24.16C242.923 23.328 241.467 22.912 239.547 22.912C237.563 22.912 236.075 23.344 235.083 24.208C234.123 25.072 233.643 26.128 233.643 27.376C233.643 28.432 234.011 29.312 234.747 30.016C235.483 30.688 236.635 31.104 238.203 31.264L241.083 31.552C243.643 31.84 245.723 32.576 247.323 33.76C248.955 34.944 249.771 36.64 249.771 38.848C249.771 40.352 249.339 41.712 248.475 42.928C247.643 44.112 246.459 45.04 244.923 45.712C243.387 46.384 241.595 46.72 239.547 46.72ZM258.281 46V20.608H261.833V46H258.281ZM254.201 23.488V20.608H261.833V23.488H254.201ZM259.049 15.904C258.185 15.904 257.529 15.68 257.081 15.232C256.665 14.752 256.457 14.16 256.457 13.456C256.457 12.752 256.665 12.176 257.081 11.728C257.529 11.248 258.185 11.008 259.049 11.008C259.913 11.008 260.553 11.248 260.969 11.728C261.385 12.176 261.593 12.752 261.593 13.456C261.593 14.16 261.385 14.752 260.969 15.232C260.553 15.68 259.913 15.904 259.049 15.904ZM280.497 46.288C278.737 46.288 277.217 46.032 275.937 45.52C274.657 45.008 273.665 44.144 272.961 42.928C272.257 41.68 271.905 40.016 271.905 37.936V12.592H275.361V38.464C275.361 39.936 275.761 41.072 276.561 41.872C277.361 42.64 278.497 43.024 279.969 43.024H284.529V46.288H280.497ZM267.345 23.344V20.608H284.529V23.344H267.345ZM301.858 46.816C299.682 46.816 297.794 46.448 296.194 45.712C294.594 44.944 293.282 43.936 292.258 42.688C291.234 41.408 290.466 39.984 289.954 38.416C289.474 36.848 289.234 35.232 289.234 33.568V32.896C289.234 31.264 289.474 29.664 289.954 28.096C290.466 26.528 291.234 25.12 292.258 23.872C293.282 22.624 294.562 21.632 296.098 20.896C297.666 20.128 299.49 19.744 301.57 19.744C304.226 19.744 306.434 20.336 308.194 21.52C309.986 22.704 311.33 24.224 312.226 26.08C313.122 27.904 313.57 29.872 313.57 31.984V33.856H290.866V31.072H311.074L310.162 32.464C310.162 30.576 309.826 28.928 309.154 27.52C308.514 26.08 307.554 24.96 306.274 24.16C305.026 23.328 303.458 22.912 301.57 22.912C299.586 22.912 297.938 23.376 296.626 24.304C295.314 25.232 294.322 26.464 293.65 28C293.01 29.536 292.69 31.28 292.69 33.232C292.69 35.152 293.01 36.912 293.65 38.512C294.322 40.08 295.33 41.328 296.674 42.256C298.05 43.184 299.778 43.648 301.858 43.648C304.066 43.648 305.858 43.152 307.234 42.16C308.61 41.136 309.458 39.936 309.778 38.56H313.138C312.818 40.256 312.146 41.728 311.122 42.976C310.098 44.192 308.802 45.136 307.234 45.808C305.666 46.48 303.874 46.816 301.858 46.816Z" fill="#0D0D0D"/>
<path d="M8.16 106.192V102.832H17.712C20.08 102.832 22.144 102.448 23.904 101.68C25.696 100.912 27.2 99.872 28.416 98.56C29.632 97.216 30.544 95.68 31.152 93.952C31.76 92.224 32.064 90.384 32.064 88.432C32.064 86.416 31.744 84.544 31.104 82.816C30.496 81.088 29.584 79.568 28.368 78.256C27.152 76.944 25.648 75.936 23.856 75.232C22.096 74.528 20.048 74.176 17.712 74.176H8.16V70.816H17.328C20.464 70.816 23.184 71.296 25.488 72.256C27.792 73.216 29.712 74.528 31.248 76.192C32.784 77.824 33.92 79.664 34.656 81.712C35.392 83.76 35.76 85.84 35.76 87.952V88.864C35.76 90.944 35.392 93.008 34.656 95.056C33.92 97.104 32.8 98.976 31.296 100.672C29.792 102.336 27.872 103.68 25.536 104.704C23.232 105.696 20.496 106.192 17.328 106.192H8.16ZM5.472 106.192V70.816H9.12V106.192H5.472ZM53.4203 106.816C51.2443 106.816 49.3563 106.448 47.7563 105.712C46.1563 104.944 44.8443 103.936 43.8203 102.688C42.7963 101.408 42.0283 99.984 41.5163 98.416C41.0363 96.848 40.7963 95.232 40.7963 93.568V92.896C40.7963 91.264 41.0363 89.664 41.5163 88.096C42.0283 86.528 42.7963 85.12 43.8203 83.872C44.8443 82.624 46.1243 81.632 47.6603 80.896C49.2283 80.128 51.0523 79.744 53.1323 79.744C55.7883 79.744 57.9963 80.336 59.7563 81.52C61.5483 82.704 62.8923 84.224 63.7883 86.08C64.6843 87.904 65.1323 89.872 65.1323 91.984V93.856H42.4283V91.072H62.6363L61.7243 92.464C61.7243 90.576 61.3883 88.928 60.7163 87.52C60.0763 86.08 59.1163 84.96 57.8363 84.16C56.5883 83.328 55.0203 82.912 53.1323 82.912C51.1483 82.912 49.5003 83.376 48.1883 84.304C46.8763 85.232 45.8843 86.464 45.2122 88C44.5723 89.536 44.2523 91.28 44.2523 93.232C44.2523 95.152 44.5723 96.912 45.2122 98.512C45.8843 100.08 46.8923 101.328 48.2363 102.256C49.6123 103.184 51.3403 103.648 53.4203 103.648C55.6283 103.648 57.4203 103.152 58.7963 102.16C60.1723 101.136 61.0203 99.936 61.3403 98.56H64.7003C64.3803 100.256 63.7083 101.728 62.6843 102.976C61.6603 104.192 60.3643 105.136 58.7963 105.808C57.2283 106.48 55.4363 106.816 53.4203 106.816ZM77.5388 106L68.6108 80.608H72.3068L81.1388 106H77.5388ZM78.4988 106V103.072H83.0588V106H78.4988ZM80.4668 106L88.1948 80.608H91.7468L83.8748 106H80.4668ZM108.311 106.816C106.135 106.816 104.247 106.448 102.647 105.712C101.047 104.944 99.7349 103.936 98.7109 102.688C97.6869 101.408 96.9189 99.984 96.4069 98.416C95.9269 96.848 95.6869 95.232 95.6869 93.568V92.896C95.6869 91.264 95.9269 89.664 96.4069 88.096C96.9189 86.528 97.6869 85.12 98.7109 83.872C99.7349 82.624 101.015 81.632 102.551 80.896C104.119 80.128 105.943 79.744 108.023 79.744C110.679 79.744 112.887 80.336 114.647 81.52C116.439 82.704 117.783 84.224 118.679 86.08C119.575 87.904 120.023 89.872 120.023 91.984V93.856H97.3189V91.072H117.527L116.615 92.464C116.615 90.576 116.279 88.928 115.607 87.52C114.967 86.08 114.007 84.96 112.727 84.16C111.479 83.328 109.911 82.912 108.023 82.912C106.039 82.912 104.391 83.376 103.079 84.304C101.767 85.232 100.775 86.464 100.103 88C99.4629 89.536 99.1429 91.28 99.1429 93.232C99.1429 95.152 99.4629 96.912 100.103 98.512C100.775 100.08 101.783 101.328 103.127 102.256C104.503 103.184 106.231 103.648 108.311 103.648C110.519 103.648 112.311 103.152 113.687 102.16C115.063 101.136 115.911 99.936 116.231 98.56H119.591C119.271 100.256 118.599 101.728 117.575 102.976C116.551 104.192 115.255 105.136 113.687 105.808C112.119 106.48 110.327 106.816 108.311 106.816ZM127.193 106V70.96H130.793V106H127.193ZM123.497 73.888V70.96H130.793V73.888H123.497ZM151.501 106.816C149.325 106.816 147.405 106.448 145.741 105.712C144.109 104.944 142.717 103.936 141.565 102.688C140.445 101.408 139.581 99.984 138.973 98.416C138.397 96.848 138.109 95.248 138.109 93.616V92.944C138.109 91.312 138.413 89.712 139.021 88.144C139.629 86.544 140.509 85.12 141.661 83.872C142.813 82.624 144.205 81.632 145.837 80.896C147.501 80.128 149.389 79.744 151.501 79.744C153.645 79.744 155.533 80.128 157.165 80.896C158.829 81.632 160.237 82.624 161.389 83.872C162.541 85.12 163.405 86.544 163.981 88.144C164.589 89.712 164.893 91.312 164.893 92.944V93.616C164.893 95.248 164.605 96.848 164.029 98.416C163.453 99.984 162.589 101.408 161.437 102.688C160.317 103.936 158.925 104.944 157.261 105.712C155.597 106.448 153.677 106.816 151.501 106.816ZM151.501 103.6C153.613 103.6 155.389 103.136 156.829 102.208C158.301 101.248 159.421 100 160.189 98.464C160.957 96.896 161.341 95.168 161.341 93.28C161.341 91.36 160.941 89.632 160.141 88.096C159.373 86.528 158.253 85.296 156.781 84.4C155.309 83.472 153.549 83.008 151.501 83.008C149.485 83.008 147.741 83.472 146.269 84.4C144.797 85.296 143.661 86.528 142.861 88.096C142.093 89.632 141.709 91.36 141.709 93.28C141.709 95.168 142.093 96.896 142.861 98.464C143.629 100 144.733 101.248 146.173 102.208C147.645 103.136 149.421 103.6 151.501 103.6ZM172.234 115.6V80.608H175.114V91.504L174.25 91.6C174.378 89.04 174.922 86.88 175.882 85.12C176.874 83.36 178.202 82.032 179.866 81.136C181.562 80.208 183.45 79.744 185.53 79.744C187.386 79.744 189.066 80.112 190.57 80.848C192.106 81.552 193.402 82.528 194.458 83.776C195.546 84.992 196.362 86.4 196.906 88C197.482 89.568 197.77 91.216 197.77 92.944V93.616C197.77 95.344 197.482 97.008 196.906 98.608C196.33 100.176 195.498 101.584 194.41 102.832C193.354 104.048 192.058 105.024 190.522 105.76C189.018 106.464 187.322 106.816 185.434 106.816C183.418 106.816 181.562 106.368 179.866 105.472C178.202 104.544 176.842 103.184 175.786 101.392C174.762 99.6 174.202 97.392 174.106 94.768L175.834 98.368V115.6H172.234ZM184.954 103.648C186.874 103.648 188.522 103.2 189.898 102.304C191.274 101.376 192.33 100.128 193.066 98.56C193.802 96.96 194.17 95.2 194.17 93.28C194.17 91.296 193.786 89.536 193.018 88C192.282 86.432 191.226 85.2 189.85 84.304C188.474 83.376 186.842 82.912 184.954 82.912C183.226 82.912 181.658 83.296 180.25 84.064C178.842 84.832 177.722 85.92 176.89 87.328C176.09 88.704 175.69 90.336 175.69 92.224V94.576C175.69 96.368 176.09 97.952 176.89 99.328C177.722 100.672 178.842 101.728 180.25 102.496C181.658 103.264 183.226 103.648 184.954 103.648ZM205.047 106V80.56H207.927V91.264H207.351C207.351 88.928 207.671 86.912 208.311 85.216C208.983 83.52 209.975 82.208 211.287 81.28C212.599 80.32 214.263 79.84 216.279 79.84H216.423C218.439 79.84 220.103 80.304 221.415 81.232C222.727 82.16 223.703 83.472 224.343 85.168C224.983 86.864 225.303 88.896 225.303 91.264H224.151C224.151 88.928 224.471 86.912 225.111 85.216C225.783 83.52 226.775 82.208 228.087 81.28C229.431 80.32 231.111 79.84 233.127 79.84H233.271C235.287 79.84 236.951 80.304 238.263 81.232C239.607 82.16 240.599 83.472 241.239 85.168C241.911 86.864 242.247 88.896 242.247 91.264V106H238.647V90.448C238.647 88.208 238.103 86.432 237.015 85.12C235.927 83.808 234.359 83.152 232.311 83.152C230.199 83.152 228.519 83.84 227.271 85.216C226.055 86.56 225.447 88.384 225.447 90.688V106H221.847V90.448C221.847 88.208 221.303 86.432 220.215 85.12C219.127 83.808 217.559 83.152 215.511 83.152C213.399 83.152 211.719 83.84 210.471 85.216C209.255 86.56 208.647 88.384 208.647 90.688V106H205.047ZM261.827 106.816C259.651 106.816 257.763 106.448 256.163 105.712C254.563 104.944 253.251 103.936 252.227 102.688C251.203 101.408 250.435 99.984 249.923 98.416C249.443 96.848 249.203 95.232 249.203 93.568V92.896C249.203 91.264 249.443 89.664 249.923 88.096C250.435 86.528 251.203 85.12 252.227 83.872C253.251 82.624 254.531 81.632 256.067 80.896C257.635 80.128 259.459 79.744 261.539 79.744C264.195 79.744 266.403 80.336 268.163 81.52C269.955 82.704 271.299 84.224 272.195 86.08C273.091 87.904 273.539 89.872 273.539 91.984V93.856H250.835V91.072H271.043L270.131 92.464C270.131 90.576 269.795 88.928 269.123 87.52C268.483 86.08 267.523 84.96 266.243 84.16C264.995 83.328 263.427 82.912 261.539 82.912C259.555 82.912 257.907 83.376 256.595 84.304C255.283 85.232 254.291 86.464 253.618 88C252.979 89.536 252.659 91.28 252.659 93.232C252.659 95.152 252.979 96.912 253.618 98.512C254.291 100.08 255.299 101.328 256.643 102.256C258.019 103.184 259.747 103.648 261.827 103.648C264.035 103.648 265.827 103.152 267.203 102.16C268.579 101.136 269.427 99.936 269.747 98.56H273.107C272.787 100.256 272.115 101.728 271.091 102.976C270.067 104.192 268.771 105.136 267.203 105.808C265.635 106.48 263.843 106.816 261.827 106.816ZM280.469 106V80.608H283.349V91.264H282.773C282.773 88.896 283.125 86.864 283.829 85.168C284.533 83.472 285.589 82.16 286.997 81.232C288.405 80.304 290.181 79.84 292.325 79.84H292.469C295.669 79.84 298.053 80.848 299.621 82.864C301.189 84.848 301.973 87.648 301.973 91.264V106H298.421V90.496C298.421 88.288 297.813 86.512 296.597 85.168C295.381 83.824 293.685 83.152 291.509 83.152C289.269 83.152 287.461 83.856 286.085 85.264C284.741 86.64 284.069 88.464 284.069 90.736V106H280.469ZM320.153 106.288C318.393 106.288 316.873 106.032 315.593 105.52C314.313 105.008 313.321 104.144 312.617 102.928C311.913 101.68 311.561 100.016 311.561 97.936V72.592H315.017V98.464C315.017 99.936 315.417 101.072 316.217 101.872C317.017 102.64 318.153 103.024 319.625 103.024H324.185V106.288H320.153ZM307.001 83.344V80.608H324.185V83.344H307.001Z" fill="url(#paint0_radial_1063_702)"/>
<path d="M8.832 143L3.888 125.48H5.208L9.84 142.184L9.288 141.824H11.088L10.536 142.184L14.376 126.272H15.6L11.52 143H8.832ZM19.368 143L14.928 126.272H16.176L20.4 142.184L19.8 141.824H21.672L21.072 142.184L25.344 125.48H26.64L22.08 143H19.368ZM30.0111 143V125.48H31.2831V134.84L30.8271 135.656C30.8271 134.552 30.9951 133.584 31.3311 132.752C31.6831 131.904 32.2111 131.248 32.9151 130.784C33.6191 130.304 34.5071 130.064 35.5791 130.064H35.6271C37.1951 130.064 38.3791 130.56 39.1791 131.552C39.9791 132.528 40.3791 133.864 40.3791 135.56V143H39.0831V135.272C39.0831 134.056 38.7551 133.08 38.0991 132.344C37.4431 131.608 36.5151 131.24 35.3151 131.24C34.0831 131.24 33.0991 131.632 32.3631 132.416C31.6431 133.184 31.2831 134.192 31.2831 135.44V143H30.0111ZM52.8557 143V139.232H52.6157V134.6C52.6157 133.592 52.3517 132.816 51.8237 132.272C51.2957 131.712 50.4237 131.432 49.2077 131.432C48.7757 131.432 48.3357 131.448 47.8877 131.48C47.4397 131.496 47.0157 131.52 46.6157 131.552C46.2157 131.568 45.8557 131.6 45.5357 131.648V130.496C45.8557 130.448 46.1917 130.408 46.5437 130.376C46.9117 130.344 47.2797 130.32 47.6477 130.304C48.0157 130.288 48.3677 130.28 48.7037 130.28C49.9677 130.28 50.9757 130.448 51.7277 130.784C52.4797 131.104 53.0237 131.6 53.3597 132.272C53.6957 132.928 53.8637 133.768 53.8637 134.792V143H52.8557ZM48.4637 143.336C47.6157 143.336 46.8557 143.184 46.1837 142.88C45.5117 142.576 44.9757 142.128 44.5757 141.536C44.1917 140.944 43.9997 140.224 43.9997 139.376C43.9997 138.56 44.1837 137.864 44.5517 137.288C44.9357 136.712 45.4797 136.272 46.1837 135.968C46.9037 135.664 47.7677 135.512 48.7757 135.512H52.7357V136.544H48.6557C47.5677 136.544 46.7277 136.808 46.1357 137.336C45.5597 137.848 45.2717 138.528 45.2717 139.376C45.2717 140.272 45.5837 140.984 46.2077 141.512C46.8317 142.024 47.6477 142.28 48.6557 142.28C49.2797 142.28 49.8877 142.16 50.4797 141.92C51.0717 141.68 51.5677 141.28 51.9677 140.72C52.3677 140.144 52.5837 139.376 52.6157 138.416L53.0957 138.968C53.0477 139.944 52.8077 140.76 52.3757 141.416C51.9597 142.056 51.4157 142.536 50.7437 142.856C50.0717 143.176 49.3117 143.336 48.4637 143.336ZM62.8283 143.12C62.0443 143.12 61.3563 143.008 60.7643 142.784C60.1723 142.544 59.7163 142.144 59.3963 141.584C59.0763 141.024 58.9163 140.272 58.9163 139.328V126.296H60.1643V139.544C60.1643 140.312 60.3723 140.912 60.7883 141.344C61.2203 141.76 61.8123 141.968 62.5643 141.968H64.9163V143.12H62.8283ZM56.5163 131.432V130.4H64.9163V131.432H56.5163ZM77.6903 143L80.5703 130.832H82.4903L85.7303 143H84.5543L81.3143 130.904H81.6983L78.8183 143H77.6903ZM76.8263 143V141.92H78.5543V143H76.8263ZM76.5143 143L72.7463 130.4H74.0183L77.7143 143H76.5143ZM84.9143 143V141.92H86.5223V143H84.9143ZM85.7063 143L88.9943 130.4H90.1943L86.8823 143H85.7063ZM98.6158 143.408C97.5438 143.408 96.6158 143.224 95.8318 142.856C95.0478 142.472 94.4078 141.968 93.9118 141.344C93.4158 140.704 93.0398 139.992 92.7838 139.208C92.5438 138.408 92.4238 137.6 92.4238 136.784V136.544C92.4238 135.712 92.5438 134.912 92.7838 134.144C93.0398 133.376 93.4158 132.68 93.9118 132.056C94.4238 131.416 95.0558 130.92 95.8078 130.568C96.5758 130.2 97.4638 130.016 98.4718 130.016C99.7518 130.016 100.824 130.304 101.688 130.88C102.568 131.44 103.232 132.176 103.68 133.088C104.128 134 104.352 134.96 104.352 135.968V136.832H93.0238V135.776H103.512L103.128 136.256C103.128 135.28 102.944 134.408 102.576 133.64C102.224 132.872 101.696 132.272 100.992 131.84C100.304 131.392 99.4638 131.168 98.4718 131.168C97.3998 131.168 96.5038 131.416 95.7838 131.912C95.0638 132.408 94.5198 133.072 94.1518 133.904C93.7998 134.736 93.6238 135.656 93.6238 136.664C93.6238 137.672 93.7998 138.6 94.1518 139.448C94.5198 140.28 95.0718 140.96 95.8078 141.488C96.5438 142 97.4798 142.256 98.6158 142.256C99.8318 142.256 100.808 141.976 101.544 141.416C102.296 140.856 102.752 140.184 102.912 139.4H104.16C103.984 140.184 103.648 140.88 103.152 141.488C102.656 142.096 102.024 142.568 101.256 142.904C100.504 143.24 99.6238 143.408 98.6158 143.408ZM120.041 143.408C118.889 143.408 117.881 143.144 117.017 142.616C116.169 142.072 115.505 141.352 115.025 140.456C114.561 139.56 114.321 138.568 114.305 137.48H114.761V143H113.753V125.48H115.025V134.456L114.425 135.968C114.457 134.768 114.705 133.728 115.169 132.848C115.649 131.952 116.313 131.256 117.161 130.76C118.009 130.264 118.993 130.016 120.113 130.016C121.057 130.016 121.905 130.2 122.657 130.568C123.409 130.92 124.041 131.408 124.553 132.032C125.081 132.64 125.481 133.336 125.753 134.12C126.025 134.888 126.161 135.704 126.161 136.568V136.808C126.161 137.64 126.025 138.448 125.753 139.232C125.497 140 125.105 140.704 124.577 141.344C124.049 141.968 123.401 142.472 122.633 142.856C121.881 143.224 121.017 143.408 120.041 143.408ZM119.921 142.256C120.977 142.256 121.873 142 122.609 141.488C123.361 140.96 123.929 140.272 124.313 139.424C124.697 138.576 124.889 137.664 124.889 136.688C124.889 135.664 124.689 134.736 124.289 133.904C123.889 133.056 123.321 132.392 122.585 131.912C121.849 131.416 120.961 131.168 119.921 131.168C118.961 131.168 118.105 131.384 117.353 131.816C116.617 132.232 116.033 132.816 115.601 133.568C115.169 134.304 114.953 135.152 114.953 136.112V137.336C114.953 138.248 115.161 139.08 115.577 139.832C116.009 140.568 116.593 141.16 117.329 141.608C118.081 142.04 118.945 142.256 119.921 142.256ZM134.338 143.36C132.818 143.36 131.666 142.872 130.882 141.896C130.098 140.92 129.706 139.6 129.706 137.936V130.4H131.002V138.224C131.002 139.392 131.306 140.344 131.914 141.08C132.538 141.8 133.434 142.16 134.602 142.16C135.786 142.16 136.722 141.784 137.41 141.032C138.114 140.28 138.466 139.296 138.466 138.08V130.4H139.738V143H138.73V137.912H139.018C139.018 138.984 138.842 139.936 138.49 140.768C138.154 141.584 137.65 142.224 136.978 142.688C136.306 143.136 135.45 143.36 134.41 143.36H134.338ZM145.41 143V130.4H146.706V143H145.41ZM143.322 131.504V130.4H146.706V131.504H143.322ZM145.53 127.76C145.194 127.76 144.938 127.672 144.762 127.496C144.586 127.304 144.498 127.064 144.498 126.776C144.498 126.472 144.586 126.224 144.762 126.032C144.938 125.84 145.202 125.744 145.554 125.744C145.89 125.744 146.146 125.84 146.322 126.032C146.498 126.224 146.586 126.472 146.586 126.776C146.586 127.064 146.498 127.304 146.322 127.496C146.162 127.672 145.898 127.76 145.53 127.76ZM151.747 143V125.48H153.019V143H151.747ZM149.851 126.56V125.48H153.019V126.56H149.851ZM163.02 143.408C162.076 143.408 161.22 143.232 160.452 142.88C159.7 142.512 159.06 142.024 158.532 141.416C158.004 140.792 157.596 140.088 157.308 139.304C157.036 138.52 156.9 137.696 156.9 136.832V136.592C156.9 135.76 157.036 134.96 157.308 134.192C157.58 133.408 157.972 132.704 158.484 132.08C159.012 131.44 159.652 130.936 160.404 130.568C161.156 130.2 162.02 130.016 162.996 130.016C164.132 130.016 165.116 130.272 165.948 130.784C166.796 131.296 167.452 132 167.916 132.896C168.396 133.776 168.652 134.784 168.684 135.92L168.036 134.504V125.48H169.308V143H168.3V137.408H168.78C168.748 138.608 168.484 139.664 167.988 140.576C167.492 141.472 166.812 142.168 165.948 142.664C165.1 143.16 164.124 143.408 163.02 143.408ZM163.14 142.256C164.116 142.256 164.972 142.04 165.708 141.608C166.46 141.176 167.044 140.592 167.46 139.856C167.892 139.104 168.108 138.248 168.108 137.288V136.04C168.108 135.128 167.892 134.304 167.46 133.568C167.044 132.832 166.46 132.248 165.708 131.816C164.972 131.384 164.116 131.168 163.14 131.168C162.084 131.168 161.188 131.424 160.452 131.936C159.716 132.448 159.148 133.128 158.748 133.976C158.364 134.808 158.172 135.72 158.172 136.712C158.172 137.736 158.372 138.672 158.772 139.52C159.172 140.352 159.74 141.016 160.476 141.512C161.228 142.008 162.116 142.256 163.14 142.256ZM180.66 143V130.4H181.956V143H180.66ZM178.572 131.504V130.4H181.956V131.504H178.572ZM180.78 127.76C180.444 127.76 180.188 127.672 180.012 127.496C179.836 127.304 179.748 127.064 179.748 126.776C179.748 126.472 179.836 126.224 180.012 126.032C180.188 125.84 180.452 125.744 180.804 125.744C181.14 125.744 181.396 125.84 181.572 126.032C181.748 126.224 181.836 126.472 181.836 126.776C181.836 127.064 181.748 127.304 181.572 127.496C181.412 127.672 181.148 127.76 180.78 127.76ZM190.693 143.36C189.125 143.36 187.917 143 187.069 142.28C186.237 141.56 185.813 140.64 185.797 139.52H187.045C187.045 140.24 187.325 140.872 187.885 141.416C188.461 141.944 189.397 142.208 190.693 142.208C191.957 142.208 192.885 141.944 193.477 141.416C194.069 140.872 194.365 140.232 194.365 139.496C194.365 138.776 194.093 138.224 193.549 137.84C193.021 137.456 192.301 137.216 191.389 137.12L189.901 136.952C188.797 136.824 187.917 136.48 187.261 135.92C186.621 135.36 186.301 134.6 186.301 133.64C186.301 132.952 186.477 132.336 186.829 131.792C187.181 131.248 187.685 130.816 188.341 130.496C189.013 130.176 189.797 130.016 190.693 130.016C192.005 130.016 193.061 130.336 193.861 130.976C194.677 131.616 195.093 132.488 195.109 133.592H193.861C193.877 132.904 193.605 132.328 193.045 131.864C192.501 131.4 191.717 131.168 190.693 131.168C189.621 131.168 188.821 131.416 188.293 131.912C187.781 132.408 187.525 132.992 187.525 133.664C187.525 134.224 187.725 134.704 188.125 135.104C188.541 135.504 189.165 135.752 189.997 135.848L191.485 136.016C192.669 136.128 193.645 136.472 194.413 137.048C195.197 137.624 195.589 138.448 195.589 139.52C195.589 140.24 195.389 140.888 194.989 141.464C194.605 142.04 194.053 142.504 193.333 142.856C192.613 143.192 191.733 143.36 190.693 143.36ZM210.294 143.408C209.35 143.408 208.494 143.232 207.726 142.88C206.974 142.512 206.334 142.024 205.806 141.416C205.278 140.792 204.87 140.088 204.582 139.304C204.31 138.52 204.174 137.696 204.174 136.832V136.592C204.174 135.76 204.31 134.96 204.582 134.192C204.854 133.408 205.246 132.704 205.758 132.08C206.286 131.44 206.926 130.936 207.678 130.568C208.43 130.2 209.294 130.016 210.27 130.016C211.406 130.016 212.39 130.272 213.222 130.784C214.07 131.296 214.726 132 215.19 132.896C215.67 133.776 215.926 134.784 215.958 135.92L215.31 134.504V125.48H216.582V143H215.574V137.408H216.054C216.022 138.608 215.758 139.664 215.262 140.576C214.766 141.472 214.086 142.168 213.222 142.664C212.374 143.16 211.398 143.408 210.294 143.408ZM210.414 142.256C211.39 142.256 212.246 142.04 212.982 141.608C213.734 141.176 214.318 140.592 214.734 139.856C215.166 139.104 215.382 138.248 215.382 137.288V136.04C215.382 135.128 215.166 134.304 214.734 133.568C214.318 132.832 213.734 132.248 212.982 131.816C212.246 131.384 211.39 131.168 210.414 131.168C209.358 131.168 208.462 131.424 207.726 131.936C206.99 132.448 206.422 133.128 206.022 133.976C205.638 134.808 205.446 135.72 205.446 136.712C205.446 137.736 205.646 138.672 206.046 139.52C206.446 140.352 207.014 141.016 207.75 141.512C208.502 142.008 209.39 142.256 210.414 142.256ZM226.655 143.408C225.583 143.408 224.655 143.224 223.871 142.856C223.087 142.472 222.447 141.968 221.951 141.344C221.455 140.704 221.079 139.992 220.823 139.208C220.583 138.408 220.463 137.6 220.463 136.784V136.544C220.463 135.712 220.583 134.912 220.823 134.144C221.079 133.376 221.455 132.68 221.951 132.056C222.463 131.416 223.095 130.92 223.847 130.568C224.615 130.2 225.503 130.016 226.511 130.016C227.791 130.016 228.863 130.304 229.727 130.88C230.607 131.44 231.271 132.176 231.719 133.088C232.167 134 232.391 134.96 232.391 135.968V136.832H221.063V135.776H231.551L231.167 136.256C231.167 135.28 230.983 134.408 230.615 133.64C230.263 132.872 229.735 132.272 229.031 131.84C228.343 131.392 227.503 131.168 226.511 131.168C225.439 131.168 224.543 131.416 223.823 131.912C223.103 132.408 222.559 133.072 222.191 133.904C221.839 134.736 221.663 135.656 221.663 136.664C221.663 137.672 221.839 138.6 222.191 139.448C222.559 140.28 223.111 140.96 223.847 141.488C224.583 142 225.519 142.256 226.655 142.256C227.871 142.256 228.847 141.976 229.583 141.416C230.335 140.856 230.791 140.184 230.951 139.4H232.199C232.023 140.184 231.687 140.88 231.191 141.488C230.695 142.096 230.063 142.568 229.295 142.904C228.543 143.24 227.663 143.408 226.655 143.408ZM236.41 143V128.96C236.41 127.712 236.722 126.792 237.346 126.2C237.986 125.608 238.946 125.312 240.226 125.312H241.69V126.416H239.938C239.202 126.416 238.634 126.616 238.234 127.016C237.85 127.4 237.658 127.944 237.658 128.648V143H236.41ZM234.466 131.456V130.448H241.81V131.456H234.466ZM245.266 143V130.4H246.538V143H245.266ZM243.202 131.504V130.4H246.538V131.504H243.202ZM245.386 127.76C245.05 127.76 244.786 127.672 244.594 127.496C244.418 127.304 244.33 127.064 244.33 126.776C244.33 126.472 244.418 126.224 244.594 126.032C244.786 125.84 245.05 125.744 245.386 125.744C245.738 125.744 246.002 125.84 246.178 126.032C246.354 126.224 246.442 126.472 246.442 126.776C246.442 127.064 246.354 127.304 246.178 127.496C246.002 127.672 245.738 127.76 245.386 127.76ZM251.519 143V130.4H252.527V135.56H252.239C252.239 134.456 252.415 133.496 252.767 132.68C253.135 131.848 253.671 131.208 254.375 130.76C255.095 130.296 255.983 130.064 257.039 130.064H257.111C258.695 130.064 259.887 130.56 260.687 131.552C261.487 132.528 261.887 133.864 261.887 135.56V143H260.591V135.272C260.591 134.072 260.263 133.104 259.607 132.368C258.967 131.616 258.039 131.24 256.823 131.24C255.591 131.24 254.607 131.624 253.871 132.392C253.151 133.144 252.791 134.144 252.791 135.392V143H251.519ZM271.796 143.408C270.724 143.408 269.796 143.224 269.012 142.856C268.228 142.472 267.588 141.968 267.092 141.344C266.596 140.704 266.22 139.992 265.964 139.208C265.724 138.408 265.604 137.6 265.604 136.784V136.544C265.604 135.712 265.724 134.912 265.964 134.144C266.22 133.376 266.596 132.68 267.092 132.056C267.604 131.416 268.236 130.92 268.988 130.568C269.756 130.2 270.644 130.016 271.652 130.016C272.932 130.016 274.004 130.304 274.868 130.88C275.748 131.44 276.411 132.176 276.859 133.088C277.308 134 277.532 134.96 277.532 135.968V136.832H266.204V135.776H276.692L276.307 136.256C276.307 135.28 276.124 134.408 275.756 133.64C275.404 132.872 274.876 132.272 274.172 131.84C273.484 131.392 272.644 131.168 271.652 131.168C270.58 131.168 269.684 131.416 268.964 131.912C268.244 132.408 267.7 133.072 267.332 133.904C266.98 134.736 266.804 135.656 266.804 136.664C266.804 137.672 266.98 138.6 267.332 139.448C267.7 140.28 268.252 140.96 268.988 141.488C269.724 142 270.66 142.256 271.796 142.256C273.012 142.256 273.988 141.976 274.724 141.416C275.476 140.856 275.932 140.184 276.092 139.4H277.34C277.164 140.184 276.828 140.88 276.332 141.488C275.836 142.096 275.204 142.568 274.436 142.904C273.684 143.24 272.804 143.408 271.796 143.408ZM286.255 143.408C285.311 143.408 284.455 143.232 283.687 142.88C282.935 142.512 282.295 142.024 281.767 141.416C281.239 140.792 280.831 140.088 280.543 139.304C280.271 138.52 280.135 137.696 280.135 136.832V136.592C280.135 135.76 280.271 134.96 280.543 134.192C280.815 133.408 281.207 132.704 281.719 132.08C282.247 131.44 282.887 130.936 283.639 130.568C284.391 130.2 285.255 130.016 286.231 130.016C287.367 130.016 288.351 130.272 289.183 130.784C290.031 131.296 290.687 132 291.151 132.896C291.631 133.776 291.887 134.784 291.919 135.92L291.271 134.504V125.48H292.543V143H291.535V137.408H292.015C291.983 138.608 291.719 139.664 291.223 140.576C290.727 141.472 290.047 142.168 289.183 142.664C288.335 143.16 287.359 143.408 286.255 143.408ZM286.375 142.256C287.351 142.256 288.207 142.04 288.943 141.608C289.695 141.176 290.279 140.592 290.695 139.856C291.127 139.104 291.343 138.248 291.343 137.288V136.04C291.343 135.128 291.127 134.304 290.695 133.568C290.279 132.832 289.695 132.248 288.943 131.816C288.207 131.384 287.351 131.168 286.375 131.168C285.319 131.168 284.423 131.424 283.687 131.936C282.951 132.448 282.383 133.128 281.983 133.976C281.599 134.808 281.407 135.72 281.407 136.712C281.407 137.736 281.607 138.672 282.007 139.52C282.407 140.352 282.975 141.016 283.711 141.512C284.463 142.008 285.351 142.256 286.375 142.256ZM309.51 143.408C308.358 143.408 307.35 143.144 306.486 142.616C305.638 142.072 304.974 141.352 304.494 140.456C304.03 139.56 303.79 138.568 303.774 137.48H304.23V143H303.222V125.48H304.494V134.456L303.894 135.968C303.926 134.768 304.174 133.728 304.638 132.848C305.118 131.952 305.782 131.256 306.63 130.76C307.478 130.264 308.462 130.016 309.582 130.016C310.526 130.016 311.374 130.2 312.126 130.568C312.878 130.92 313.51 131.408 314.022 132.032C314.55 132.64 314.95 133.336 315.222 134.12C315.494 134.888 315.63 135.704 315.63 136.568V136.808C315.63 137.64 315.494 138.448 315.222 139.232C314.966 140 314.574 140.704 314.046 141.344C313.518 141.968 312.87 142.472 312.102 142.856C311.35 143.224 310.486 143.408 309.51 143.408ZM309.39 142.256C310.446 142.256 311.342 142 312.078 141.488C312.83 140.96 313.398 140.272 313.782 139.424C314.166 138.576 314.358 137.664 314.358 136.688C314.358 135.664 314.158 134.736 313.758 133.904C313.358 133.056 312.79 132.392 312.054 131.912C311.318 131.416 310.43 131.168 309.39 131.168C308.43 131.168 307.574 131.384 306.822 131.816C306.086 132.232 305.502 132.816 305.07 133.568C304.638 134.304 304.422 135.152 304.422 136.112V137.336C304.422 138.248 304.63 139.08 305.046 139.832C305.478 140.568 306.062 141.16 306.798 141.608C307.55 142.04 308.414 142.256 309.39 142.256ZM317.884 147.896V146.72H319.324C319.884 146.72 320.372 146.648 320.788 146.504C321.204 146.376 321.564 146.136 321.868 145.784C322.188 145.432 322.452 144.928 322.66 144.272L327.148 130.4H328.42L323.74 144.68C323.484 145.464 323.14 146.088 322.708 146.552C322.292 147.032 321.788 147.376 321.196 147.584C320.62 147.792 319.964 147.896 319.228 147.896H317.884ZM322.252 142.688V141.56H324.028V142.688H322.252ZM322.012 142.688L317.428 130.4H318.724L323.26 142.688H322.012ZM338.23 143V130.4H339.526V143H338.23ZM336.142 131.504V130.4H339.526V131.504H336.142ZM338.35 127.76C338.014 127.76 337.758 127.672 337.582 127.496C337.406 127.304 337.318 127.064 337.318 126.776C337.318 126.472 337.406 126.224 337.582 126.032C337.758 125.84 338.022 125.744 338.374 125.744C338.71 125.744 338.966 125.84 339.142 126.032C339.318 126.224 339.406 126.472 339.406 126.776C339.406 127.064 339.318 127.304 339.142 127.496C338.982 127.672 338.718 127.76 338.35 127.76ZM348.695 143.12C347.911 143.12 347.223 143.008 346.631 142.784C346.039 142.544 345.583 142.144 345.263 141.584C344.943 141.024 344.783 140.272 344.783 139.328V126.296H346.031V139.544C346.031 140.312 346.239 140.912 346.655 141.344C347.087 141.76 347.679 141.968 348.431 141.968H350.783V143.12H348.695ZM342.383 131.432V130.4H350.783V131.432H342.383ZM358.178 143.36C356.61 143.36 355.402 143 354.554 142.28C353.722 141.56 353.298 140.64 353.282 139.52H354.53C354.53 140.24 354.81 140.872 355.37 141.416C355.946 141.944 356.882 142.208 358.178 142.208C359.442 142.208 360.37 141.944 360.962 141.416C361.554 140.872 361.85 140.232 361.85 139.496C361.85 138.776 361.578 138.224 361.034 137.84C360.506 137.456 359.786 137.216 358.874 137.12L357.386 136.952C356.282 136.824 355.402 136.48 354.746 135.92C354.106 135.36 353.786 134.6 353.786 133.64C353.786 132.952 353.962 132.336 354.314 131.792C354.666 131.248 355.17 130.816 355.826 130.496C356.498 130.176 357.282 130.016 358.178 130.016C359.49 130.016 360.546 130.336 361.346 130.976C362.162 131.616 362.578 132.488 362.594 133.592H361.346C361.362 132.904 361.09 132.328 360.53 131.864C359.986 131.4 359.202 131.168 358.178 131.168C357.106 131.168 356.306 131.416 355.778 131.912C355.266 132.408 355.01 132.992 355.01 133.664C355.01 134.224 355.21 134.704 355.61 135.104C356.026 135.504 356.65 135.752 357.482 135.848L358.97 136.016C360.154 136.128 361.13 136.472 361.898 137.048C362.682 137.624 363.074 138.448 363.074 139.52C363.074 140.24 362.874 140.888 362.474 141.464C362.09 142.04 361.538 142.504 360.818 142.856C360.098 143.192 359.218 143.36 358.178 143.36Z" fill="#717171"/>
<path d="M380.418 143V139.232H380.178V134.6C380.178 133.592 379.914 132.816 379.386 132.272C378.858 131.712 377.986 131.432 376.77 131.432C376.338 131.432 375.898 131.448 375.45 131.48C375.002 131.496 374.578 131.52 374.178 131.552C373.778 131.568 373.418 131.6 373.098 131.648V130.496C373.418 130.448 373.754 130.408 374.106 130.376C374.474 130.344 374.842 130.32 375.21 130.304C375.578 130.288 375.93 130.28 376.266 130.28C377.53 130.28 378.538 130.448 379.29 130.784C380.042 131.104 380.586 131.6 380.922 132.272C381.258 132.928 381.426 133.768 381.426 134.792V143H380.418ZM376.026 143.336C375.178 143.336 374.418 143.184 373.746 142.88C373.074 142.576 372.538 142.128 372.138 141.536C371.754 140.944 371.562 140.224 371.562 139.376C371.562 138.56 371.746 137.864 372.114 137.288C372.498 136.712 373.042 136.272 373.746 135.968C374.466 135.664 375.33 135.512 376.338 135.512H380.298V136.544H376.218C375.13 136.544 374.29 136.808 373.698 137.336C373.122 137.848 372.834 138.528 372.834 139.376C372.834 140.272 373.146 140.984 373.77 141.512C374.394 142.024 375.21 142.28 376.218 142.28C376.842 142.28 377.45 142.16 378.042 141.92C378.634 141.68 379.13 141.28 379.53 140.72C379.93 140.144 380.146 139.376 380.178 138.416L380.658 138.968C380.61 139.944 380.37 140.76 379.938 141.416C379.522 142.056 378.978 142.536 378.306 142.856C377.634 143.176 376.874 143.336 376.026 143.336ZM386.191 143V130.4H387.199V135.728H387.007C387.007 133.904 387.415 132.544 388.231 131.648C389.047 130.752 390.367 130.304 392.191 130.304H392.623V131.456H391.951C390.463 131.456 389.343 131.84 388.591 132.608C387.839 133.36 387.463 134.472 387.463 135.944V143H386.191ZM400.726 143.408C399.686 143.408 398.774 143.216 397.99 142.832C397.222 142.448 396.574 141.936 396.046 141.296C395.534 140.656 395.15 139.944 394.894 139.16C394.638 138.376 394.51 137.584 394.51 136.784V136.544C394.51 135.728 394.638 134.928 394.894 134.144C395.15 133.36 395.534 132.664 396.046 132.056C396.574 131.432 397.222 130.936 397.99 130.568C398.774 130.2 399.686 130.016 400.726 130.016C401.734 130.016 402.63 130.2 403.414 130.568C404.214 130.936 404.862 131.456 405.358 132.128C405.87 132.784 406.19 133.576 406.318 134.504H405.07C404.926 133.544 404.478 132.752 403.726 132.128C402.974 131.488 401.974 131.168 400.726 131.168C399.622 131.168 398.702 131.416 397.966 131.912C397.23 132.408 396.678 133.072 396.31 133.904C395.958 134.736 395.782 135.656 395.782 136.664C395.782 137.64 395.966 138.552 396.334 139.4C396.702 140.248 397.254 140.936 397.99 141.464C398.726 141.976 399.638 142.232 400.726 142.232C401.574 142.232 402.318 142.08 402.958 141.776C403.614 141.456 404.142 141.04 404.542 140.528C404.942 140 405.182 139.424 405.262 138.8H406.51C406.398 139.728 406.078 140.536 405.55 141.224C405.022 141.896 404.342 142.432 403.51 142.832C402.678 143.216 401.75 143.408 400.726 143.408ZM410.003 143V125.48H411.275V134.84L410.819 135.656C410.819 134.552 410.987 133.584 411.323 132.752C411.675 131.904 412.203 131.248 412.907 130.784C413.611 130.304 414.499 130.064 415.571 130.064H415.619C417.187 130.064 418.371 130.56 419.171 131.552C419.971 132.528 420.371 133.864 420.371 135.56V143H419.075V135.272C419.075 134.056 418.747 133.08 418.091 132.344C417.435 131.608 416.507 131.24 415.307 131.24C414.075 131.24 413.091 131.632 412.355 132.416C411.635 133.184 411.275 134.192 411.275 135.44V143H410.003ZM425.816 143V130.4H427.112V143H425.816ZM423.728 131.504V130.4H427.112V131.504H423.728ZM425.936 127.76C425.6 127.76 425.344 127.672 425.168 127.496C424.992 127.304 424.904 127.064 424.904 126.776C424.904 126.472 424.992 126.224 425.168 126.032C425.344 125.84 425.608 125.744 425.96 125.744C426.296 125.744 426.552 125.84 426.728 126.032C426.904 126.224 426.992 126.472 426.992 126.776C426.992 127.064 426.904 127.304 426.728 127.496C426.568 127.672 426.304 127.76 425.936 127.76ZM436.281 143.12C435.497 143.12 434.809 143.008 434.217 142.784C433.625 142.544 433.169 142.144 432.849 141.584C432.529 141.024 432.369 140.272 432.369 139.328V126.296H433.617V139.544C433.617 140.312 433.825 140.912 434.241 141.344C434.673 141.76 435.265 141.968 436.017 141.968H438.369V143.12H436.281ZM429.969 131.432V130.4H438.369V131.432H429.969ZM447.108 143.408C446.036 143.408 445.108 143.224 444.324 142.856C443.54 142.472 442.9 141.968 442.404 141.344C441.908 140.704 441.532 139.992 441.276 139.208C441.036 138.408 440.916 137.6 440.916 136.784V136.544C440.916 135.712 441.036 134.912 441.276 134.144C441.532 133.376 441.908 132.68 442.404 132.056C442.916 131.416 443.548 130.92 444.3 130.568C445.068 130.2 445.956 130.016 446.964 130.016C448.244 130.016 449.316 130.304 450.18 130.88C451.06 131.44 451.724 132.176 452.172 133.088C452.62 134 452.844 134.96 452.844 135.968V136.832H441.516V135.776H452.004L451.62 136.256C451.62 135.28 451.436 134.408 451.068 133.64C450.716 132.872 450.188 132.272 449.484 131.84C448.796 131.392 447.956 131.168 446.964 131.168C445.892 131.168 444.996 131.416 444.276 131.912C443.556 132.408 443.012 133.072 442.644 133.904C442.292 134.736 442.116 135.656 442.116 136.664C442.116 137.672 442.292 138.6 442.644 139.448C443.012 140.28 443.564 140.96 444.3 141.488C445.036 142 445.972 142.256 447.108 142.256C448.324 142.256 449.3 141.976 450.036 141.416C450.788 140.856 451.244 140.184 451.404 139.4H452.652C452.476 140.184 452.14 140.88 451.644 141.488C451.148 142.096 450.516 142.568 449.748 142.904C448.996 143.24 448.116 143.408 447.108 143.408ZM461.663 143.408C460.623 143.408 459.711 143.216 458.927 142.832C458.159 142.448 457.511 141.936 456.983 141.296C456.471 140.656 456.087 139.944 455.831 139.16C455.575 138.376 455.447 137.584 455.447 136.784V136.544C455.447 135.728 455.575 134.928 455.831 134.144C456.087 133.36 456.471 132.664 456.983 132.056C457.511 131.432 458.159 130.936 458.927 130.568C459.711 130.2 460.623 130.016 461.663 130.016C462.671 130.016 463.567 130.2 464.351 130.568C465.151 130.936 465.799 131.456 466.295 132.128C466.807 132.784 467.127 133.576 467.255 134.504H466.007C465.863 133.544 465.415 132.752 464.663 132.128C463.911 131.488 462.911 131.168 461.663 131.168C460.559 131.168 459.639 131.416 458.903 131.912C458.167 132.408 457.615 133.072 457.247 133.904C456.895 134.736 456.719 135.656 456.719 136.664C456.719 137.64 456.903 138.552 457.271 139.4C457.639 140.248 458.191 140.936 458.927 141.464C459.663 141.976 460.575 142.232 461.663 142.232C462.511 142.232 463.255 142.08 463.895 141.776C464.551 141.456 465.079 141.04 465.479 140.528C465.879 140 466.119 139.424 466.199 138.8H467.447C467.335 139.728 467.015 140.536 466.487 141.224C465.959 141.896 465.279 142.432 464.447 142.832C463.615 143.216 462.687 143.408 461.663 143.408ZM475.141 143.12C474.357 143.12 473.669 143.008 473.077 142.784C472.485 142.544 472.029 142.144 471.709 141.584C471.389 141.024 471.229 140.272 471.229 139.328V126.296H472.477V139.544C472.477 140.312 472.685 140.912 473.101 141.344C473.533 141.76 474.125 141.968 474.877 141.968H477.229V143.12H475.141ZM468.829 131.432V130.4H477.229V131.432H468.829ZM485.245 143.36C483.725 143.36 482.573 142.872 481.789 141.896C481.005 140.92 480.613 139.6 480.613 137.936V130.4H481.909V138.224C481.909 139.392 482.213 140.344 482.821 141.08C483.445 141.8 484.341 142.16 485.509 142.16C486.693 142.16 487.629 141.784 488.317 141.032C489.021 140.28 489.373 139.296 489.373 138.08V130.4H490.645V143H489.637V137.912H489.925C489.925 138.984 489.749 139.936 489.397 140.768C489.061 141.584 488.557 142.224 487.885 142.688C487.213 143.136 486.357 143.36 485.317 143.36H485.245ZM495.644 143V130.4H496.652V135.728H496.46C496.46 133.904 496.868 132.544 497.684 131.648C498.5 130.752 499.82 130.304 501.644 130.304H502.076V131.456H501.404C499.916 131.456 498.796 131.84 498.044 132.608C497.292 133.36 496.916 134.472 496.916 135.944V143H495.644ZM510.155 143.408C509.083 143.408 508.155 143.224 507.371 142.856C506.587 142.472 505.947 141.968 505.451 141.344C504.955 140.704 504.579 139.992 504.323 139.208C504.083 138.408 503.963 137.6 503.963 136.784V136.544C503.963 135.712 504.083 134.912 504.323 134.144C504.579 133.376 504.955 132.68 505.451 132.056C505.963 131.416 506.595 130.92 507.347 130.568C508.115 130.2 509.003 130.016 510.011 130.016C511.291 130.016 512.363 130.304 513.227 130.88C514.107 131.44 514.771 132.176 515.219 133.088C515.667 134 515.891 134.96 515.891 135.968V136.832H504.563V135.776H515.051L514.667 136.256C514.667 135.28 514.483 134.408 514.115 133.64C513.763 132.872 513.235 132.272 512.531 131.84C511.843 131.392 511.003 131.168 510.011 131.168C508.939 131.168 508.043 131.416 507.323 131.912C506.603 132.408 506.059 133.072 505.691 133.904C505.339 134.736 505.163 135.656 505.163 136.664C505.163 137.672 505.339 138.6 505.691 139.448C506.059 140.28 506.611 140.96 507.347 141.488C508.083 142 509.019 142.256 510.155 142.256C511.371 142.256 512.347 141.976 513.083 141.416C513.835 140.856 514.291 140.184 514.451 139.4H515.699C515.523 140.184 515.187 140.88 514.691 141.488C514.195 142.096 513.563 142.568 512.795 142.904C512.043 143.24 511.163 143.408 510.155 143.408Z" fill="url(#paint1_radial_1063_702)"/>
<defs>
<radialGradient id="paint0_radial_1063_702" cx="0" cy="0" r="1" gradientUnits="userSpaceOnUse" gradientTransform="translate(263 60) rotate(90) scale(60 263)">
<stop stop-color="#5A69EA"/>
<stop offset="1" stop-color="#BF8BCA"/>
</radialGradient>
<radialGradient id="paint1_radial_1063_702" cx="0" cy="0" r="1" gradientUnits="userSpaceOnUse" gradientTransform="translate(269.5 135) rotate(90) scale(15 266.5)">
<stop stop-color="#5A69EA"/>
<stop offset="1" stop-color="#BF8BCA"/>
</radialGradient>
</defs>
</svg>
