<svg width="329" height="63" viewBox="0 0 329 63" fill="none" xmlns="http://www.w3.org/2000/svg">
<path d="M3.564 47.204C2.924 47.204 2.38 47.08 1.932 46.832C1.492 46.584 1.156 46.248 0.924 45.824C0.692 45.4 0.576 44.936 0.576 44.432H1.452C1.452 45.04 1.64 45.524 2.016 45.884C2.392 46.236 2.908 46.412 3.564 46.412C3.988 46.412 4.356 46.332 4.668 46.172C4.988 46.012 5.232 45.784 5.4 45.488C5.576 45.192 5.664 44.848 5.664 44.456C5.664 43.856 5.476 43.372 5.1 43.004C4.724 42.636 4.216 42.452 3.576 42.452C3.32 42.452 3.1 42.484 2.916 42.548C2.732 42.604 2.568 42.676 2.424 42.764L1.932 41.924L5.424 39.212L5.328 39.02H0.924V38.24H6.168V39.536L3.072 41.948L2.484 41.96C2.628 41.896 2.792 41.844 2.976 41.804C3.16 41.756 3.372 41.732 3.612 41.732C4.228 41.732 4.752 41.852 5.184 42.092C5.624 42.332 5.96 42.652 6.192 43.052C6.424 43.452 6.54 43.892 6.54 44.372V44.54C6.54 45.004 6.424 45.44 6.192 45.848C5.96 46.256 5.624 46.584 5.184 46.832C4.744 47.08 4.204 47.204 3.564 47.204ZM11.7285 47.204C11.1125 47.204 10.5845 47.096 10.1445 46.88C9.7045 46.664 9.3445 46.364 9.0645 45.98C8.7845 45.588 8.5765 45.132 8.4405 44.612C8.3125 44.084 8.2485 43.516 8.2485 42.908V42.344C8.2485 41.488 8.3725 40.736 8.6205 40.088C8.8765 39.44 9.2605 38.932 9.7725 38.564C10.2925 38.196 10.9445 38.012 11.7285 38.012C12.5125 38.012 13.1605 38.196 13.6725 38.564C14.1845 38.932 14.5645 39.44 14.8125 40.088C15.0685 40.736 15.1965 41.488 15.1965 42.344V42.908C15.1965 43.516 15.1285 44.084 14.9925 44.612C14.8645 45.132 14.6605 45.588 14.3805 45.98C14.1005 46.364 13.7405 46.664 13.3005 46.88C12.8605 47.096 12.3365 47.204 11.7285 47.204ZM11.7285 46.388C12.5925 46.388 13.2325 46.084 13.6485 45.476C14.0725 44.868 14.2845 43.92 14.2845 42.632C14.2845 41.288 14.0685 40.32 13.6365 39.728C13.2125 39.128 12.5765 38.828 11.7285 38.828C10.8725 38.828 10.2285 39.128 9.7965 39.728C9.3725 40.32 9.1605 41.28 9.1605 42.608C9.1605 43.904 9.3685 44.86 9.7845 45.476C10.2085 46.084 10.8565 46.388 11.7285 46.388ZM20.5527 47.204C19.9367 47.204 19.4087 47.096 18.9687 46.88C18.5287 46.664 18.1687 46.364 17.8887 45.98C17.6087 45.588 17.4007 45.132 17.2647 44.612C17.1367 44.084 17.0727 43.516 17.0727 42.908V42.344C17.0727 41.488 17.1967 40.736 17.4447 40.088C17.7007 39.44 18.0847 38.932 18.5967 38.564C19.1167 38.196 19.7687 38.012 20.5527 38.012C21.3367 38.012 21.9847 38.196 22.4967 38.564C23.0087 38.932 23.3887 39.44 23.6367 40.088C23.8927 40.736 24.0207 41.488 24.0207 42.344V42.908C24.0207 43.516 23.9527 44.084 23.8167 44.612C23.6887 45.132 23.4847 45.588 23.2047 45.98C22.9247 46.364 22.5647 46.664 22.1247 46.88C21.6847 47.096 21.1607 47.204 20.5527 47.204ZM20.5527 46.388C21.4167 46.388 22.0567 46.084 22.4727 45.476C22.8967 44.868 23.1087 43.92 23.1087 42.632C23.1087 41.288 22.8927 40.32 22.4607 39.728C22.0367 39.128 21.4007 38.828 20.5527 38.828C19.6967 38.828 19.0527 39.128 18.6207 39.728C18.1967 40.32 17.9847 41.28 17.9847 42.608C17.9847 43.904 18.1927 44.86 18.6087 45.476C19.0327 46.084 19.6807 46.388 20.5527 46.388ZM29.3769 47.204C28.7609 47.204 28.2329 47.096 27.7929 46.88C27.3529 46.664 26.9929 46.364 26.7129 45.98C26.4329 45.588 26.2249 45.132 26.0889 44.612C25.9609 44.084 25.8969 43.516 25.8969 42.908V42.344C25.8969 41.488 26.0209 40.736 26.2689 40.088C26.5249 39.44 26.9089 38.932 27.4209 38.564C27.9409 38.196 28.5929 38.012 29.3769 38.012C30.1609 38.012 30.8089 38.196 31.3209 38.564C31.8329 38.932 32.2129 39.44 32.4609 40.088C32.7169 40.736 32.8449 41.488 32.8449 42.344V42.908C32.8449 43.516 32.7769 44.084 32.6409 44.612C32.5129 45.132 32.3089 45.588 32.0289 45.98C31.7489 46.364 31.3889 46.664 30.9489 46.88C30.5089 47.096 29.9849 47.204 29.3769 47.204ZM29.3769 46.388C30.2409 46.388 30.8809 46.084 31.2969 45.476C31.7209 44.868 31.9329 43.92 31.9329 42.632C31.9329 41.288 31.7169 40.32 31.2849 39.728C30.8609 39.128 30.2249 38.828 29.3769 38.828C28.5209 38.828 27.8769 39.128 27.4449 39.728C27.0209 40.32 26.8089 41.28 26.8089 42.608C26.8089 43.904 27.0169 44.86 27.4329 45.476C27.8569 46.084 28.5049 46.388 29.3769 46.388ZM37.7212 46.988C37.0172 46.988 36.4252 46.876 35.9452 46.652C35.4732 46.428 35.1172 46.112 34.8772 45.704C34.6372 45.288 34.5172 44.808 34.5172 44.264H35.3572C35.3572 44.6 35.4332 44.916 35.5852 45.212C35.7452 45.508 35.9972 45.752 36.3412 45.944C36.6852 46.128 37.1452 46.22 37.7212 46.22C38.4892 46.22 39.0612 46.06 39.4372 45.74C39.8212 45.42 40.0132 45.032 40.0132 44.576C40.0132 44.144 39.8452 43.78 39.5092 43.484C39.1812 43.188 38.6892 43.008 38.0332 42.944L37.2412 42.872C36.4972 42.808 35.9052 42.588 35.4652 42.212C35.0332 41.828 34.8172 41.288 34.8172 40.592C34.8172 40.12 34.9292 39.708 35.1532 39.356C35.3772 39.004 35.7012 38.732 36.1252 38.54C36.5492 38.348 37.0612 38.252 37.6612 38.252C38.2692 38.252 38.7852 38.36 39.2092 38.576C39.6412 38.792 39.9692 39.096 40.1932 39.488C40.4172 39.88 40.5292 40.34 40.5292 40.868H39.6772C39.6772 40.548 39.6052 40.248 39.4612 39.968C39.3252 39.688 39.1092 39.46 38.8132 39.284C38.5252 39.108 38.1412 39.02 37.6612 39.02C37.2292 39.02 36.8652 39.092 36.5692 39.236C36.2732 39.372 36.0492 39.56 35.8972 39.8C35.7532 40.032 35.6812 40.296 35.6812 40.592C35.6812 41 35.8172 41.336 36.0892 41.6C36.3692 41.864 36.7812 42.02 37.3252 42.068L38.1172 42.14C38.9732 42.22 39.6452 42.476 40.1332 42.908C40.6292 43.332 40.8772 43.888 40.8772 44.576C40.8772 45.048 40.7492 45.468 40.4932 45.836C40.2452 46.196 39.8852 46.48 39.4132 46.688C38.9492 46.888 38.3852 46.988 37.7212 46.988ZM37.3132 48.548V46.796H38.1172V48.548H37.3132ZM37.2652 38.72V37.076H38.0692V38.72H37.2652Z" fill="#717171"/>
<g filter="url(#filter0_ddddii_1074_1647)">
<mask id="path-2-inside-1_1074_1647" fill="white">
<path d="M146.867 30.834H156V49.834H131V30.834H140.131L143.499 25L146.867 30.834Z"/>
</mask>
<path d="M146.867 30.834H156V49.834H131V30.834H140.131L143.499 25L146.867 30.834Z" fill="url(#paint0_linear_1074_1647)"/>
<path d="M146.867 30.834L146.001 31.334L146.29 31.834H146.867V30.834ZM156 30.834H157V29.834H156V30.834ZM156 49.834V50.834H157V49.834H156ZM131 49.834H130V50.834H131V49.834ZM131 30.834V29.834H130V30.834H131ZM140.131 30.834V31.834H140.708L140.997 31.334L140.131 30.834ZM143.499 25L144.365 24.5L143.499 23L142.633 24.5L143.499 25ZM146.867 30.834V31.834H156V30.834V29.834H146.867V30.834ZM156 30.834H155V49.834H156H157V30.834H156ZM156 49.834V48.834H131V49.834V50.834H156V49.834ZM131 49.834H132V30.834H131H130V49.834H131ZM131 30.834V31.834H140.131V30.834V29.834H131V30.834ZM140.131 30.834L140.997 31.334L144.365 25.5L143.499 25L142.633 24.5L139.265 30.334L140.131 30.834ZM143.499 25L142.633 25.5L146.001 31.334L146.867 30.834L147.733 30.334L144.365 24.5L143.499 25Z" fill="url(#paint1_radial_1074_1647)" mask="url(#path-2-inside-1_1074_1647)"/>
</g>
<path d="M142.508 42.576V40.356H143.204C143.812 40.356 144.272 40.188 144.584 39.852C144.896 39.508 145.052 39.084 145.052 38.58C145.052 38.212 144.976 37.896 144.824 37.632C144.672 37.368 144.46 37.164 144.188 37.02C143.924 36.876 143.62 36.804 143.276 36.804C142.892 36.804 142.556 36.884 142.268 37.044C141.988 37.204 141.768 37.428 141.608 37.716C141.456 38.004 141.38 38.336 141.38 38.712H140.516C140.516 38.224 140.62 37.776 140.828 37.368C141.044 36.96 141.356 36.632 141.764 36.384C142.18 36.136 142.684 36.012 143.276 36.012C143.812 36.012 144.276 36.128 144.668 36.36C145.068 36.584 145.376 36.884 145.592 37.26C145.808 37.636 145.916 38.052 145.916 38.508V38.64C145.916 39.088 145.812 39.5 145.604 39.876C145.396 40.252 145.084 40.552 144.668 40.776C144.252 41 143.736 41.112 143.12 41.112L143.42 40.668L143.408 42.576H142.508ZM142.4 45V43.812H143.516V45H142.4Z" fill="#717171"/>
<path d="M193.544 47V38.708L193.94 39.02H191.552V38.24H194.444V47H193.544ZM196.964 47V45.668C196.964 45.324 197.012 45.032 197.108 44.792C197.204 44.552 197.372 44.332 197.612 44.132C197.852 43.932 198.18 43.74 198.596 43.556L200.312 42.752C200.728 42.56 201.06 42.308 201.308 41.996C201.556 41.684 201.68 41.276 201.68 40.772C201.68 40.156 201.504 39.676 201.152 39.332C200.808 38.98 200.332 38.804 199.724 38.804C199.124 38.804 198.644 38.98 198.284 39.332C197.932 39.676 197.756 40.156 197.756 40.772H196.88C196.88 40.252 196.988 39.784 197.204 39.368C197.42 38.952 197.74 38.624 198.164 38.384C198.588 38.136 199.108 38.012 199.724 38.012C200.348 38.012 200.868 38.136 201.284 38.384C201.7 38.624 202.016 38.948 202.232 39.356C202.448 39.756 202.556 40.2 202.556 40.688V40.856C202.556 41.48 202.376 42.004 202.016 42.428C201.664 42.844 201.2 43.188 200.624 43.46L198.896 44.264C198.488 44.448 198.212 44.64 198.068 44.84C197.932 45.032 197.864 45.28 197.864 45.584V46.652L197.6 46.22H202.7V47H196.964ZM207.779 47.204C207.163 47.204 206.635 47.096 206.195 46.88C205.755 46.664 205.395 46.364 205.115 45.98C204.835 45.588 204.627 45.132 204.491 44.612C204.363 44.084 204.299 43.516 204.299 42.908V42.344C204.299 41.488 204.423 40.736 204.671 40.088C204.927 39.44 205.311 38.932 205.823 38.564C206.343 38.196 206.995 38.012 207.779 38.012C208.563 38.012 209.211 38.196 209.723 38.564C210.235 38.932 210.615 39.44 210.863 40.088C211.119 40.736 211.247 41.488 211.247 42.344V42.908C211.247 43.516 211.179 44.084 211.043 44.612C210.915 45.132 210.711 45.588 210.431 45.98C210.151 46.364 209.791 46.664 209.351 46.88C208.911 47.096 208.387 47.204 207.779 47.204ZM207.779 46.388C208.643 46.388 209.283 46.084 209.699 45.476C210.123 44.868 210.335 43.92 210.335 42.632C210.335 41.288 210.119 40.32 209.687 39.728C209.263 39.128 208.627 38.828 207.779 38.828C206.923 38.828 206.279 39.128 205.847 39.728C205.423 40.32 205.211 41.28 205.211 42.608C205.211 43.904 205.419 44.86 205.835 45.476C206.259 46.084 206.907 46.388 207.779 46.388ZM216.604 47.204C215.988 47.204 215.46 47.096 215.02 46.88C214.58 46.664 214.22 46.364 213.94 45.98C213.66 45.588 213.452 45.132 213.316 44.612C213.188 44.084 213.124 43.516 213.124 42.908V42.344C213.124 41.488 213.248 40.736 213.496 40.088C213.752 39.44 214.136 38.932 214.648 38.564C215.168 38.196 215.82 38.012 216.604 38.012C217.388 38.012 218.036 38.196 218.548 38.564C219.06 38.932 219.44 39.44 219.688 40.088C219.944 40.736 220.072 41.488 220.072 42.344V42.908C220.072 43.516 220.004 44.084 219.868 44.612C219.74 45.132 219.536 45.588 219.256 45.98C218.976 46.364 218.616 46.664 218.176 46.88C217.736 47.096 217.212 47.204 216.604 47.204ZM216.604 46.388C217.468 46.388 218.108 46.084 218.523 45.476C218.948 44.868 219.16 43.92 219.16 42.632C219.16 41.288 218.944 40.32 218.512 39.728C218.088 39.128 217.452 38.828 216.604 38.828C215.748 38.828 215.104 39.128 214.672 39.728C214.248 40.32 214.036 41.28 214.036 42.608C214.036 43.904 214.244 44.86 214.66 45.476C215.084 46.084 215.732 46.388 216.604 46.388ZM225.428 47.204C224.812 47.204 224.284 47.096 223.844 46.88C223.404 46.664 223.044 46.364 222.764 45.98C222.484 45.588 222.276 45.132 222.14 44.612C222.012 44.084 221.948 43.516 221.948 42.908V42.344C221.948 41.488 222.072 40.736 222.32 40.088C222.576 39.44 222.96 38.932 223.472 38.564C223.992 38.196 224.644 38.012 225.428 38.012C226.212 38.012 226.86 38.196 227.372 38.564C227.884 38.932 228.264 39.44 228.512 40.088C228.768 40.736 228.896 41.488 228.896 42.344V42.908C228.896 43.516 228.828 44.084 228.692 44.612C228.564 45.132 228.36 45.588 228.08 45.98C227.8 46.364 227.44 46.664 227 46.88C226.56 47.096 226.036 47.204 225.428 47.204ZM225.428 46.388C226.292 46.388 226.932 46.084 227.348 45.476C227.772 44.868 227.984 43.92 227.984 42.632C227.984 41.288 227.768 40.32 227.336 39.728C226.912 39.128 226.276 38.828 225.428 38.828C224.572 38.828 223.928 39.128 223.496 39.728C223.072 40.32 222.86 41.28 222.86 42.608C222.86 43.904 223.068 44.86 223.484 45.476C223.908 46.084 224.556 46.388 225.428 46.388ZM233.772 46.988C233.068 46.988 232.476 46.876 231.996 46.652C231.524 46.428 231.168 46.112 230.928 45.704C230.688 45.288 230.568 44.808 230.568 44.264H231.408C231.408 44.6 231.484 44.916 231.636 45.212C231.796 45.508 232.048 45.752 232.392 45.944C232.736 46.128 233.196 46.22 233.772 46.22C234.54 46.22 235.112 46.06 235.488 45.74C235.872 45.42 236.064 45.032 236.064 44.576C236.064 44.144 235.896 43.78 235.56 43.484C235.232 43.188 234.74 43.008 234.084 42.944L233.292 42.872C232.548 42.808 231.956 42.588 231.516 42.212C231.084 41.828 230.868 41.288 230.868 40.592C230.868 40.12 230.98 39.708 231.204 39.356C231.428 39.004 231.752 38.732 232.176 38.54C232.6 38.348 233.112 38.252 233.712 38.252C234.32 38.252 234.836 38.36 235.26 38.576C235.692 38.792 236.02 39.096 236.244 39.488C236.468 39.88 236.58 40.34 236.58 40.868H235.728C235.728 40.548 235.656 40.248 235.512 39.968C235.376 39.688 235.16 39.46 234.864 39.284C234.576 39.108 234.192 39.02 233.712 39.02C233.28 39.02 232.916 39.092 232.62 39.236C232.324 39.372 232.1 39.56 231.948 39.8C231.804 40.032 231.732 40.296 231.732 40.592C231.732 41 231.868 41.336 232.14 41.6C232.42 41.864 232.832 42.02 233.376 42.068L234.168 42.14C235.024 42.22 235.696 42.476 236.184 42.908C236.68 43.332 236.928 43.888 236.928 44.576C236.928 45.048 236.8 45.468 236.544 45.836C236.296 46.196 235.936 46.48 235.464 46.688C235 46.888 234.436 46.988 233.772 46.988ZM233.364 48.548V46.796H234.168V48.548H233.364ZM233.316 38.72V37.076H234.12V38.72H233.316Z" fill="#717171"/>
<g filter="url(#filter1_ddiiii_1074_1647)">
<rect x="21" y="14" width="289" height="9" fill="#ECECEC"/>
</g>
<g filter="url(#filter2_ddiiii_1074_1647)">
<rect x="22" y="17" width="288" height="4" fill="#B2CEFE"/>
</g>
<g filter="url(#filter3_ddddii_1074_1647)">
<circle cx="21.5" cy="18.5" r="12.5" fill="url(#paint2_linear_1074_1647)"/>
<circle cx="21.5" cy="18.5" r="12" stroke="url(#paint3_radial_1074_1647)"/>
</g>
<g filter="url(#filter4_ddddii_1074_1647)">
<circle cx="215.5" cy="18.5" r="12.5" fill="url(#paint4_linear_1074_1647)"/>
<circle cx="215.5" cy="18.5" r="12" stroke="url(#paint5_radial_1074_1647)"/>
</g>
<g filter="url(#filter5_ddddii_1074_1647)">
<circle cx="215.5" cy="18.5" r="12.5" fill="url(#paint6_linear_1074_1647)"/>
<circle cx="215.5" cy="18.5" r="12" stroke="url(#paint7_radial_1074_1647)"/>
</g>
<g filter="url(#filter6_ddddii_1074_1647)">
<circle cx="309.5" cy="18.5" r="12.5" fill="url(#paint8_linear_1074_1647)"/>
<circle cx="309.5" cy="18.5" r="12" stroke="url(#paint9_radial_1074_1647)"/>
</g>
<defs>
<filter id="filter0_ddddii_1074_1647" x="128" y="22" width="32" height="31.834" filterUnits="userSpaceOnUse" color-interpolation-filters="sRGB">
<feFlood flood-opacity="0" result="BackgroundImageFix"/>
<feColorMatrix in="SourceAlpha" type="matrix" values="0 0 0 0 0 0 0 0 0 0 0 0 0 0 0 0 0 0 127 0" result="hardAlpha"/>
<feOffset dx="1" dy="1"/>
<feGaussianBlur stdDeviation="1.5"/>
<feColorMatrix type="matrix" values="0 0 0 0 0.831373 0 0 0 0 0.831373 0 0 0 0 0.831373 0 0 0 0.9 0"/>
<feBlend mode="normal" in2="BackgroundImageFix" result="effect1_dropShadow_1074_1647"/>
<feColorMatrix in="SourceAlpha" type="matrix" values="0 0 0 0 0 0 0 0 0 0 0 0 0 0 0 0 0 0 127 0" result="hardAlpha"/>
<feOffset dx="-1" dy="-1"/>
<feGaussianBlur stdDeviation="1"/>
<feColorMatrix type="matrix" values="0 0 0 0 1 0 0 0 0 1 0 0 0 0 1 0 0 0 0.9 0"/>
<feBlend mode="normal" in2="effect1_dropShadow_1074_1647" result="effect2_dropShadow_1074_1647"/>
<feColorMatrix in="SourceAlpha" type="matrix" values="0 0 0 0 0 0 0 0 0 0 0 0 0 0 0 0 0 0 127 0" result="hardAlpha"/>
<feOffset dx="1" dy="-1"/>
<feGaussianBlur stdDeviation="1"/>
<feColorMatrix type="matrix" values="0 0 0 0 0.831373 0 0 0 0 0.831373 0 0 0 0 0.831373 0 0 0 0.2 0"/>
<feBlend mode="normal" in2="effect2_dropShadow_1074_1647" result="effect3_dropShadow_1074_1647"/>
<feColorMatrix in="SourceAlpha" type="matrix" values="0 0 0 0 0 0 0 0 0 0 0 0 0 0 0 0 0 0 127 0" result="hardAlpha"/>
<feOffset dx="-1" dy="1"/>
<feGaussianBlur stdDeviation="1"/>
<feColorMatrix type="matrix" values="0 0 0 0 0.831373 0 0 0 0 0.831373 0 0 0 0 0.831373 0 0 0 0.2 0"/>
<feBlend mode="normal" in2="effect3_dropShadow_1074_1647" result="effect4_dropShadow_1074_1647"/>
<feBlend mode="normal" in="SourceGraphic" in2="effect4_dropShadow_1074_1647" result="shape"/>
<feColorMatrix in="SourceAlpha" type="matrix" values="0 0 0 0 0 0 0 0 0 0 0 0 0 0 0 0 0 0 127 0" result="hardAlpha"/>
<feOffset dx="-1" dy="-1"/>
<feGaussianBlur stdDeviation="1"/>
<feComposite in2="hardAlpha" operator="arithmetic" k2="-1" k3="1"/>
<feColorMatrix type="matrix" values="0 0 0 0 0.831373 0 0 0 0 0.831373 0 0 0 0 0.831373 0 0 0 0.5 0"/>
<feBlend mode="normal" in2="shape" result="effect5_innerShadow_1074_1647"/>
<feColorMatrix in="SourceAlpha" type="matrix" values="0 0 0 0 0 0 0 0 0 0 0 0 0 0 0 0 0 0 127 0" result="hardAlpha"/>
<feOffset dx="1" dy="1"/>
<feGaussianBlur stdDeviation="1"/>
<feComposite in2="hardAlpha" operator="arithmetic" k2="-1" k3="1"/>
<feColorMatrix type="matrix" values="0 0 0 0 1 0 0 0 0 1 0 0 0 0 1 0 0 0 0.3 0"/>
<feBlend mode="normal" in2="effect5_innerShadow_1074_1647" result="effect6_innerShadow_1074_1647"/>
</filter>
<filter id="filter1_ddiiii_1074_1647" x="18" y="11" width="295" height="15" filterUnits="userSpaceOnUse" color-interpolation-filters="sRGB">
<feFlood flood-opacity="0" result="BackgroundImageFix"/>
<feColorMatrix in="SourceAlpha" type="matrix" values="0 0 0 0 0 0 0 0 0 0 0 0 0 0 0 0 0 0 127 0" result="hardAlpha"/>
<feOffset dx="-1" dy="-1"/>
<feGaussianBlur stdDeviation="1"/>
<feColorMatrix type="matrix" values="0 0 0 0 0.831373 0 0 0 0 0.831373 0 0 0 0 0.831373 0 0 0 0.5 0"/>
<feBlend mode="normal" in2="BackgroundImageFix" result="effect1_dropShadow_1074_1647"/>
<feColorMatrix in="SourceAlpha" type="matrix" values="0 0 0 0 0 0 0 0 0 0 0 0 0 0 0 0 0 0 127 0" result="hardAlpha"/>
<feOffset dx="1" dy="1"/>
<feGaussianBlur stdDeviation="1"/>
<feColorMatrix type="matrix" values="0 0 0 0 1 0 0 0 0 1 0 0 0 0 1 0 0 0 0.3 0"/>
<feBlend mode="normal" in2="effect1_dropShadow_1074_1647" result="effect2_dropShadow_1074_1647"/>
<feBlend mode="normal" in="SourceGraphic" in2="effect2_dropShadow_1074_1647" result="shape"/>
<feColorMatrix in="SourceAlpha" type="matrix" values="0 0 0 0 0 0 0 0 0 0 0 0 0 0 0 0 0 0 127 0" result="hardAlpha"/>
<feOffset dx="3" dy="3"/>
<feGaussianBlur stdDeviation="4"/>
<feComposite in2="hardAlpha" operator="arithmetic" k2="-1" k3="1"/>
<feColorMatrix type="matrix" values="0 0 0 0 0.831373 0 0 0 0 0.831373 0 0 0 0 0.831373 0 0 0 0.9 0"/>
<feBlend mode="normal" in2="shape" result="effect3_innerShadow_1074_1647"/>
<feColorMatrix in="SourceAlpha" type="matrix" values="0 0 0 0 0 0 0 0 0 0 0 0 0 0 0 0 0 0 127 0" result="hardAlpha"/>
<feOffset dx="-3" dy="-3"/>
<feGaussianBlur stdDeviation="3"/>
<feComposite in2="hardAlpha" operator="arithmetic" k2="-1" k3="1"/>
<feColorMatrix type="matrix" values="0 0 0 0 1 0 0 0 0 1 0 0 0 0 1 0 0 0 0.9 0"/>
<feBlend mode="normal" in2="effect3_innerShadow_1074_1647" result="effect4_innerShadow_1074_1647"/>
<feColorMatrix in="SourceAlpha" type="matrix" values="0 0 0 0 0 0 0 0 0 0 0 0 0 0 0 0 0 0 127 0" result="hardAlpha"/>
<feOffset dx="3" dy="-3"/>
<feGaussianBlur stdDeviation="3"/>
<feComposite in2="hardAlpha" operator="arithmetic" k2="-1" k3="1"/>
<feColorMatrix type="matrix" values="0 0 0 0 0.831373 0 0 0 0 0.831373 0 0 0 0 0.831373 0 0 0 0.2 0"/>
<feBlend mode="normal" in2="effect4_innerShadow_1074_1647" result="effect5_innerShadow_1074_1647"/>
<feColorMatrix in="SourceAlpha" type="matrix" values="0 0 0 0 0 0 0 0 0 0 0 0 0 0 0 0 0 0 127 0" result="hardAlpha"/>
<feOffset dx="-3" dy="3"/>
<feGaussianBlur stdDeviation="3"/>
<feComposite in2="hardAlpha" operator="arithmetic" k2="-1" k3="1"/>
<feColorMatrix type="matrix" values="0 0 0 0 0.831373 0 0 0 0 0.831373 0 0 0 0 0.831373 0 0 0 0.2 0"/>
<feBlend mode="normal" in2="effect5_innerShadow_1074_1647" result="effect6_innerShadow_1074_1647"/>
</filter>
<filter id="filter2_ddiiii_1074_1647" x="19" y="14" width="294" height="10" filterUnits="userSpaceOnUse" color-interpolation-filters="sRGB">
<feFlood flood-opacity="0" result="BackgroundImageFix"/>
<feColorMatrix in="SourceAlpha" type="matrix" values="0 0 0 0 0 0 0 0 0 0 0 0 0 0 0 0 0 0 127 0" result="hardAlpha"/>
<feOffset dx="-1" dy="-1"/>
<feGaussianBlur stdDeviation="1"/>
<feColorMatrix type="matrix" values="0 0 0 0 0.627451 0 0 0 0 0.72549 0 0 0 0 0.898039 0 0 0 0.5 0"/>
<feBlend mode="normal" in2="BackgroundImageFix" result="effect1_dropShadow_1074_1647"/>
<feColorMatrix in="SourceAlpha" type="matrix" values="0 0 0 0 0 0 0 0 0 0 0 0 0 0 0 0 0 0 127 0" result="hardAlpha"/>
<feOffset dx="1" dy="1"/>
<feGaussianBlur stdDeviation="1"/>
<feColorMatrix type="matrix" values="0 0 0 0 0.768627 0 0 0 0 0.890196 0 0 0 0 1 0 0 0 0.3 0"/>
<feBlend mode="normal" in2="effect1_dropShadow_1074_1647" result="effect2_dropShadow_1074_1647"/>
<feBlend mode="normal" in="SourceGraphic" in2="effect2_dropShadow_1074_1647" result="shape"/>
<feColorMatrix in="SourceAlpha" type="matrix" values="0 0 0 0 0 0 0 0 0 0 0 0 0 0 0 0 0 0 127 0" result="hardAlpha"/>
<feOffset dx="1" dy="1"/>
<feGaussianBlur stdDeviation="1.5"/>
<feComposite in2="hardAlpha" operator="arithmetic" k2="-1" k3="1"/>
<feColorMatrix type="matrix" values="0 0 0 0 0.627451 0 0 0 0 0.72549 0 0 0 0 0.898039 0 0 0 0.9 0"/>
<feBlend mode="normal" in2="shape" result="effect3_innerShadow_1074_1647"/>
<feColorMatrix in="SourceAlpha" type="matrix" values="0 0 0 0 0 0 0 0 0 0 0 0 0 0 0 0 0 0 127 0" result="hardAlpha"/>
<feOffset dx="-1" dy="-1"/>
<feGaussianBlur stdDeviation="1"/>
<feComposite in2="hardAlpha" operator="arithmetic" k2="-1" k3="1"/>
<feColorMatrix type="matrix" values="0 0 0 0 0.768627 0 0 0 0 0.890196 0 0 0 0 1 0 0 0 0.9 0"/>
<feBlend mode="normal" in2="effect3_innerShadow_1074_1647" result="effect4_innerShadow_1074_1647"/>
<feColorMatrix in="SourceAlpha" type="matrix" values="0 0 0 0 0 0 0 0 0 0 0 0 0 0 0 0 0 0 127 0" result="hardAlpha"/>
<feOffset dx="1" dy="-1"/>
<feGaussianBlur stdDeviation="1"/>
<feComposite in2="hardAlpha" operator="arithmetic" k2="-1" k3="1"/>
<feColorMatrix type="matrix" values="0 0 0 0 0.627451 0 0 0 0 0.72549 0 0 0 0 0.898039 0 0 0 0.2 0"/>
<feBlend mode="normal" in2="effect4_innerShadow_1074_1647" result="effect5_innerShadow_1074_1647"/>
<feColorMatrix in="SourceAlpha" type="matrix" values="0 0 0 0 0 0 0 0 0 0 0 0 0 0 0 0 0 0 127 0" result="hardAlpha"/>
<feOffset dx="-1" dy="1"/>
<feGaussianBlur stdDeviation="1"/>
<feComposite in2="hardAlpha" operator="arithmetic" k2="-1" k3="1"/>
<feColorMatrix type="matrix" values="0 0 0 0 0.627451 0 0 0 0 0.72549 0 0 0 0 0.898039 0 0 0 0.2 0"/>
<feBlend mode="normal" in2="effect5_innerShadow_1074_1647" result="effect6_innerShadow_1074_1647"/>
</filter>
<filter id="filter3_ddddii_1074_1647" x="3" y="0" width="38" height="38" filterUnits="userSpaceOnUse" color-interpolation-filters="sRGB">
<feFlood flood-opacity="0" result="BackgroundImageFix"/>
<feColorMatrix in="SourceAlpha" type="matrix" values="0 0 0 0 0 0 0 0 0 0 0 0 0 0 0 0 0 0 127 0" result="hardAlpha"/>
<feOffset dx="2" dy="2"/>
<feGaussianBlur stdDeviation="2.5"/>
<feColorMatrix type="matrix" values="0 0 0 0 0.831373 0 0 0 0 0.831373 0 0 0 0 0.831373 0 0 0 0.9 0"/>
<feBlend mode="normal" in2="BackgroundImageFix" result="effect1_dropShadow_1074_1647"/>
<feColorMatrix in="SourceAlpha" type="matrix" values="0 0 0 0 0 0 0 0 0 0 0 0 0 0 0 0 0 0 127 0" result="hardAlpha"/>
<feOffset dx="-2" dy="-2"/>
<feGaussianBlur stdDeviation="2"/>
<feColorMatrix type="matrix" values="0 0 0 0 1 0 0 0 0 1 0 0 0 0 1 0 0 0 0.9 0"/>
<feBlend mode="normal" in2="effect1_dropShadow_1074_1647" result="effect2_dropShadow_1074_1647"/>
<feColorMatrix in="SourceAlpha" type="matrix" values="0 0 0 0 0 0 0 0 0 0 0 0 0 0 0 0 0 0 127 0" result="hardAlpha"/>
<feOffset dx="2" dy="-2"/>
<feGaussianBlur stdDeviation="2"/>
<feColorMatrix type="matrix" values="0 0 0 0 0.831373 0 0 0 0 0.831373 0 0 0 0 0.831373 0 0 0 0.2 0"/>
<feBlend mode="normal" in2="effect2_dropShadow_1074_1647" result="effect3_dropShadow_1074_1647"/>
<feColorMatrix in="SourceAlpha" type="matrix" values="0 0 0 0 0 0 0 0 0 0 0 0 0 0 0 0 0 0 127 0" result="hardAlpha"/>
<feOffset dx="-2" dy="2"/>
<feGaussianBlur stdDeviation="2"/>
<feColorMatrix type="matrix" values="0 0 0 0 0.831373 0 0 0 0 0.831373 0 0 0 0 0.831373 0 0 0 0.2 0"/>
<feBlend mode="normal" in2="effect3_dropShadow_1074_1647" result="effect4_dropShadow_1074_1647"/>
<feBlend mode="normal" in="SourceGraphic" in2="effect4_dropShadow_1074_1647" result="shape"/>
<feColorMatrix in="SourceAlpha" type="matrix" values="0 0 0 0 0 0 0 0 0 0 0 0 0 0 0 0 0 0 127 0" result="hardAlpha"/>
<feOffset dx="-1" dy="-1"/>
<feGaussianBlur stdDeviation="1"/>
<feComposite in2="hardAlpha" operator="arithmetic" k2="-1" k3="1"/>
<feColorMatrix type="matrix" values="0 0 0 0 0.831373 0 0 0 0 0.831373 0 0 0 0 0.831373 0 0 0 0.5 0"/>
<feBlend mode="normal" in2="shape" result="effect5_innerShadow_1074_1647"/>
<feColorMatrix in="SourceAlpha" type="matrix" values="0 0 0 0 0 0 0 0 0 0 0 0 0 0 0 0 0 0 127 0" result="hardAlpha"/>
<feOffset dx="1" dy="1"/>
<feGaussianBlur stdDeviation="1"/>
<feComposite in2="hardAlpha" operator="arithmetic" k2="-1" k3="1"/>
<feColorMatrix type="matrix" values="0 0 0 0 1 0 0 0 0 1 0 0 0 0 1 0 0 0 0.3 0"/>
<feBlend mode="normal" in2="effect5_innerShadow_1074_1647" result="effect6_innerShadow_1074_1647"/>
</filter>
<filter id="filter4_ddddii_1074_1647" x="197" y="0" width="38" height="38" filterUnits="userSpaceOnUse" color-interpolation-filters="sRGB">
<feFlood flood-opacity="0" result="BackgroundImageFix"/>
<feColorMatrix in="SourceAlpha" type="matrix" values="0 0 0 0 0 0 0 0 0 0 0 0 0 0 0 0 0 0 127 0" result="hardAlpha"/>
<feOffset dx="2" dy="2"/>
<feGaussianBlur stdDeviation="2.5"/>
<feColorMatrix type="matrix" values="0 0 0 0 0.831373 0 0 0 0 0.831373 0 0 0 0 0.831373 0 0 0 0.9 0"/>
<feBlend mode="normal" in2="BackgroundImageFix" result="effect1_dropShadow_1074_1647"/>
<feColorMatrix in="SourceAlpha" type="matrix" values="0 0 0 0 0 0 0 0 0 0 0 0 0 0 0 0 0 0 127 0" result="hardAlpha"/>
<feOffset dx="-2" dy="-2"/>
<feGaussianBlur stdDeviation="2"/>
<feColorMatrix type="matrix" values="0 0 0 0 1 0 0 0 0 1 0 0 0 0 1 0 0 0 0.9 0"/>
<feBlend mode="normal" in2="effect1_dropShadow_1074_1647" result="effect2_dropShadow_1074_1647"/>
<feColorMatrix in="SourceAlpha" type="matrix" values="0 0 0 0 0 0 0 0 0 0 0 0 0 0 0 0 0 0 127 0" result="hardAlpha"/>
<feOffset dx="2" dy="-2"/>
<feGaussianBlur stdDeviation="2"/>
<feColorMatrix type="matrix" values="0 0 0 0 0.831373 0 0 0 0 0.831373 0 0 0 0 0.831373 0 0 0 0.2 0"/>
<feBlend mode="normal" in2="effect2_dropShadow_1074_1647" result="effect3_dropShadow_1074_1647"/>
<feColorMatrix in="SourceAlpha" type="matrix" values="0 0 0 0 0 0 0 0 0 0 0 0 0 0 0 0 0 0 127 0" result="hardAlpha"/>
<feOffset dx="-2" dy="2"/>
<feGaussianBlur stdDeviation="2"/>
<feColorMatrix type="matrix" values="0 0 0 0 0.831373 0 0 0 0 0.831373 0 0 0 0 0.831373 0 0 0 0.2 0"/>
<feBlend mode="normal" in2="effect3_dropShadow_1074_1647" result="effect4_dropShadow_1074_1647"/>
<feBlend mode="normal" in="SourceGraphic" in2="effect4_dropShadow_1074_1647" result="shape"/>
<feColorMatrix in="SourceAlpha" type="matrix" values="0 0 0 0 0 0 0 0 0 0 0 0 0 0 0 0 0 0 127 0" result="hardAlpha"/>
<feOffset dx="-1" dy="-1"/>
<feGaussianBlur stdDeviation="1"/>
<feComposite in2="hardAlpha" operator="arithmetic" k2="-1" k3="1"/>
<feColorMatrix type="matrix" values="0 0 0 0 0.831373 0 0 0 0 0.831373 0 0 0 0 0.831373 0 0 0 0.5 0"/>
<feBlend mode="normal" in2="shape" result="effect5_innerShadow_1074_1647"/>
<feColorMatrix in="SourceAlpha" type="matrix" values="0 0 0 0 0 0 0 0 0 0 0 0 0 0 0 0 0 0 127 0" result="hardAlpha"/>
<feOffset dx="1" dy="1"/>
<feGaussianBlur stdDeviation="1"/>
<feComposite in2="hardAlpha" operator="arithmetic" k2="-1" k3="1"/>
<feColorMatrix type="matrix" values="0 0 0 0 1 0 0 0 0 1 0 0 0 0 1 0 0 0 0.3 0"/>
<feBlend mode="normal" in2="effect5_innerShadow_1074_1647" result="effect6_innerShadow_1074_1647"/>
</filter>
<filter id="filter5_ddddii_1074_1647" x="197" y="0" width="38" height="38" filterUnits="userSpaceOnUse" color-interpolation-filters="sRGB">
<feFlood flood-opacity="0" result="BackgroundImageFix"/>
<feColorMatrix in="SourceAlpha" type="matrix" values="0 0 0 0 0 0 0 0 0 0 0 0 0 0 0 0 0 0 127 0" result="hardAlpha"/>
<feOffset dx="2" dy="2"/>
<feGaussianBlur stdDeviation="2.5"/>
<feColorMatrix type="matrix" values="0 0 0 0 0.831373 0 0 0 0 0.831373 0 0 0 0 0.831373 0 0 0 0.9 0"/>
<feBlend mode="normal" in2="BackgroundImageFix" result="effect1_dropShadow_1074_1647"/>
<feColorMatrix in="SourceAlpha" type="matrix" values="0 0 0 0 0 0 0 0 0 0 0 0 0 0 0 0 0 0 127 0" result="hardAlpha"/>
<feOffset dx="-2" dy="-2"/>
<feGaussianBlur stdDeviation="2"/>
<feColorMatrix type="matrix" values="0 0 0 0 1 0 0 0 0 1 0 0 0 0 1 0 0 0 0.9 0"/>
<feBlend mode="normal" in2="effect1_dropShadow_1074_1647" result="effect2_dropShadow_1074_1647"/>
<feColorMatrix in="SourceAlpha" type="matrix" values="0 0 0 0 0 0 0 0 0 0 0 0 0 0 0 0 0 0 127 0" result="hardAlpha"/>
<feOffset dx="2" dy="-2"/>
<feGaussianBlur stdDeviation="2"/>
<feColorMatrix type="matrix" values="0 0 0 0 0.831373 0 0 0 0 0.831373 0 0 0 0 0.831373 0 0 0 0.2 0"/>
<feBlend mode="normal" in2="effect2_dropShadow_1074_1647" result="effect3_dropShadow_1074_1647"/>
<feColorMatrix in="SourceAlpha" type="matrix" values="0 0 0 0 0 0 0 0 0 0 0 0 0 0 0 0 0 0 127 0" result="hardAlpha"/>
<feOffset dx="-2" dy="2"/>
<feGaussianBlur stdDeviation="2"/>
<feColorMatrix type="matrix" values="0 0 0 0 0.831373 0 0 0 0 0.831373 0 0 0 0 0.831373 0 0 0 0.2 0"/>
<feBlend mode="normal" in2="effect3_dropShadow_1074_1647" result="effect4_dropShadow_1074_1647"/>
<feBlend mode="normal" in="SourceGraphic" in2="effect4_dropShadow_1074_1647" result="shape"/>
<feColorMatrix in="SourceAlpha" type="matrix" values="0 0 0 0 0 0 0 0 0 0 0 0 0 0 0 0 0 0 127 0" result="hardAlpha"/>
<feOffset dx="-1" dy="-1"/>
<feGaussianBlur stdDeviation="1"/>
<feComposite in2="hardAlpha" operator="arithmetic" k2="-1" k3="1"/>
<feColorMatrix type="matrix" values="0 0 0 0 0.831373 0 0 0 0 0.831373 0 0 0 0 0.831373 0 0 0 0.5 0"/>
<feBlend mode="normal" in2="shape" result="effect5_innerShadow_1074_1647"/>
<feColorMatrix in="SourceAlpha" type="matrix" values="0 0 0 0 0 0 0 0 0 0 0 0 0 0 0 0 0 0 127 0" result="hardAlpha"/>
<feOffset dx="1" dy="1"/>
<feGaussianBlur stdDeviation="1"/>
<feComposite in2="hardAlpha" operator="arithmetic" k2="-1" k3="1"/>
<feColorMatrix type="matrix" values="0 0 0 0 1 0 0 0 0 1 0 0 0 0 1 0 0 0 0.3 0"/>
<feBlend mode="normal" in2="effect5_innerShadow_1074_1647" result="effect6_innerShadow_1074_1647"/>
</filter>
<filter id="filter6_ddddii_1074_1647" x="291" y="0" width="38" height="38" filterUnits="userSpaceOnUse" color-interpolation-filters="sRGB">
<feFlood flood-opacity="0" result="BackgroundImageFix"/>
<feColorMatrix in="SourceAlpha" type="matrix" values="0 0 0 0 0 0 0 0 0 0 0 0 0 0 0 0 0 0 127 0" result="hardAlpha"/>
<feOffset dx="2" dy="2"/>
<feGaussianBlur stdDeviation="2.5"/>
<feColorMatrix type="matrix" values="0 0 0 0 0.831373 0 0 0 0 0.831373 0 0 0 0 0.831373 0 0 0 0.9 0"/>
<feBlend mode="normal" in2="BackgroundImageFix" result="effect1_dropShadow_1074_1647"/>
<feColorMatrix in="SourceAlpha" type="matrix" values="0 0 0 0 0 0 0 0 0 0 0 0 0 0 0 0 0 0 127 0" result="hardAlpha"/>
<feOffset dx="-2" dy="-2"/>
<feGaussianBlur stdDeviation="2"/>
<feColorMatrix type="matrix" values="0 0 0 0 1 0 0 0 0 1 0 0 0 0 1 0 0 0 0.9 0"/>
<feBlend mode="normal" in2="effect1_dropShadow_1074_1647" result="effect2_dropShadow_1074_1647"/>
<feColorMatrix in="SourceAlpha" type="matrix" values="0 0 0 0 0 0 0 0 0 0 0 0 0 0 0 0 0 0 127 0" result="hardAlpha"/>
<feOffset dx="2" dy="-2"/>
<feGaussianBlur stdDeviation="2"/>
<feColorMatrix type="matrix" values="0 0 0 0 0.831373 0 0 0 0 0.831373 0 0 0 0 0.831373 0 0 0 0.2 0"/>
<feBlend mode="normal" in2="effect2_dropShadow_1074_1647" result="effect3_dropShadow_1074_1647"/>
<feColorMatrix in="SourceAlpha" type="matrix" values="0 0 0 0 0 0 0 0 0 0 0 0 0 0 0 0 0 0 127 0" result="hardAlpha"/>
<feOffset dx="-2" dy="2"/>
<feGaussianBlur stdDeviation="2"/>
<feColorMatrix type="matrix" values="0 0 0 0 0.831373 0 0 0 0 0.831373 0 0 0 0 0.831373 0 0 0 0.2 0"/>
<feBlend mode="normal" in2="effect3_dropShadow_1074_1647" result="effect4_dropShadow_1074_1647"/>
<feBlend mode="normal" in="SourceGraphic" in2="effect4_dropShadow_1074_1647" result="shape"/>
<feColorMatrix in="SourceAlpha" type="matrix" values="0 0 0 0 0 0 0 0 0 0 0 0 0 0 0 0 0 0 127 0" result="hardAlpha"/>
<feOffset dx="-1" dy="-1"/>
<feGaussianBlur stdDeviation="1"/>
<feComposite in2="hardAlpha" operator="arithmetic" k2="-1" k3="1"/>
<feColorMatrix type="matrix" values="0 0 0 0 0.831373 0 0 0 0 0.831373 0 0 0 0 0.831373 0 0 0 0.5 0"/>
<feBlend mode="normal" in2="shape" result="effect5_innerShadow_1074_1647"/>
<feColorMatrix in="SourceAlpha" type="matrix" values="0 0 0 0 0 0 0 0 0 0 0 0 0 0 0 0 0 0 127 0" result="hardAlpha"/>
<feOffset dx="1" dy="1"/>
<feGaussianBlur stdDeviation="1"/>
<feComposite in2="hardAlpha" operator="arithmetic" k2="-1" k3="1"/>
<feColorMatrix type="matrix" values="0 0 0 0 1 0 0 0 0 1 0 0 0 0 1 0 0 0 0.3 0"/>
<feBlend mode="normal" in2="effect5_innerShadow_1074_1647" result="effect6_innerShadow_1074_1647"/>
</filter>
<linearGradient id="paint0_linear_1074_1647" x1="131" y1="25" x2="161.167" y2="49.4602" gradientUnits="userSpaceOnUse">
<stop offset="1" stop-color="#F8F8F8"/>
<stop stop-color="#E0E0E0"/>
</linearGradient>
<radialGradient id="paint1_radial_1074_1647" cx="0" cy="0" r="1" gradientUnits="userSpaceOnUse" gradientTransform="translate(143.5 37.417) rotate(90) scale(12.417 12.5)">
<stop stop-color="#5A69EA"/>
<stop offset="1" stop-color="#BF8BCA"/>
</radialGradient>
<linearGradient id="paint2_linear_1074_1647" x1="9" y1="6" x2="34" y2="31" gradientUnits="userSpaceOnUse">
<stop offset="1" stop-color="#F8F8F8"/>
<stop stop-color="#E0E0E0"/>
</linearGradient>
<radialGradient id="paint3_radial_1074_1647" cx="0" cy="0" r="1" gradientUnits="userSpaceOnUse" gradientTransform="translate(21.5 18.5) rotate(90) scale(12.5)">
<stop stop-color="#5A69EA"/>
<stop offset="1" stop-color="#BF8BCA"/>
</radialGradient>
<linearGradient id="paint4_linear_1074_1647" x1="203" y1="6" x2="228" y2="31" gradientUnits="userSpaceOnUse">
<stop offset="1" stop-color="#F8F8F8"/>
<stop stop-color="#E0E0E0"/>
</linearGradient>
<radialGradient id="paint5_radial_1074_1647" cx="0" cy="0" r="1" gradientUnits="userSpaceOnUse" gradientTransform="translate(215.5 18.5) rotate(90) scale(12.5)">
<stop stop-color="#5A69EA"/>
<stop offset="1" stop-color="#BF8BCA"/>
</radialGradient>
<linearGradient id="paint6_linear_1074_1647" x1="203" y1="6" x2="228" y2="31" gradientUnits="userSpaceOnUse">
<stop offset="1" stop-color="#F8F8F8"/>
<stop stop-color="#E0E0E0"/>
</linearGradient>
<radialGradient id="paint7_radial_1074_1647" cx="0" cy="0" r="1" gradientUnits="userSpaceOnUse" gradientTransform="translate(215.5 18.5) rotate(90) scale(12.5)">
<stop stop-color="#5A69EA"/>
<stop offset="1" stop-color="#BF8BCA"/>
</radialGradient>
<linearGradient id="paint8_linear_1074_1647" x1="297" y1="6" x2="322" y2="31" gradientUnits="userSpaceOnUse">
<stop offset="1" stop-color="#F8F8F8"/>
<stop stop-color="#E0E0E0"/>
</linearGradient>
<radialGradient id="paint9_radial_1074_1647" cx="0" cy="0" r="1" gradientUnits="userSpaceOnUse" gradientTransform="translate(309.5 18.5) rotate(90) scale(12.5)">
<stop stop-color="#5A69EA"/>
<stop offset="1" stop-color="#BF8BCA"/>
</radialGradient>
</defs>
</svg>
