<svg width="357" height="29" viewBox="0 0 357 29" fill="none" xmlns="http://www.w3.org/2000/svg">
<rect x="0.25" y="0.25" width="356.5" height="28.5" rx="4.75" fill="#ECECEC"/>
<rect x="0.25" y="0.25" width="356.5" height="28.5" rx="4.75" stroke="#717171" stroke-width="0.5"/>
<path d="M19.9076 18L17.8876 10.7H18.6676L20.4976 17.51L20.1476 17.31H21.1176L20.7376 17.51L22.2276 11.02H22.9476L21.3076 18H19.9076ZM24.2976 18L22.4976 11.02H23.2376L24.8976 17.51L24.5276 17.31H25.5176L25.1376 17.51L26.7876 10.7H27.5476L25.6976 18H24.2976ZM28.8499 18V10.7H29.5999V14.83L29.3799 15C29.3799 14.5067 29.4499 14.0767 29.5899 13.71C29.7365 13.3433 29.9532 13.06 30.2399 12.86C30.5332 12.6533 30.8999 12.55 31.3399 12.55H31.3799C32.0199 12.55 32.5032 12.76 32.8299 13.18C33.1632 13.6 33.3299 14.1833 33.3299 14.93V18H32.5899V14.77C32.5899 14.2967 32.4599 13.9233 32.1999 13.65C31.9399 13.3767 31.5899 13.24 31.1499 13.24C30.6765 13.24 30.2999 13.3933 30.0199 13.7C29.7399 14 29.5999 14.3967 29.5999 14.89V18H28.8499ZM38.4175 18V16.41H38.2975V14.53C38.2975 14.1367 38.1942 13.8367 37.9875 13.63C37.7809 13.4167 37.4609 13.31 37.0275 13.31C36.8275 13.31 36.6242 13.3133 36.4175 13.32C36.2175 13.3267 36.0242 13.3367 35.8375 13.35C35.6575 13.3567 35.4975 13.3667 35.3575 13.38V12.72C35.5042 12.7067 35.6542 12.6933 35.8075 12.68C35.9609 12.6667 36.1175 12.66 36.2775 12.66C36.4442 12.6533 36.6042 12.65 36.7575 12.65C37.2975 12.65 37.7309 12.7167 38.0575 12.85C38.3909 12.9833 38.6342 13.1933 38.7875 13.48C38.9409 13.76 39.0175 14.1333 39.0175 14.6V18H38.4175ZM36.6275 18.14C36.2542 18.14 35.9242 18.0733 35.6375 17.94C35.3509 17.8067 35.1275 17.6133 34.9675 17.36C34.8142 17.1067 34.7375 16.8 34.7375 16.44C34.7375 16.0867 34.8175 15.7867 34.9775 15.54C35.1442 15.2933 35.3809 15.1067 35.6875 14.98C36.0009 14.8467 36.3775 14.78 36.8175 14.78H38.3675V15.35H36.7675C36.3475 15.35 36.0242 15.4533 35.7975 15.66C35.5775 15.86 35.4675 16.1233 35.4675 16.45C35.4675 16.7833 35.5842 17.05 35.8175 17.25C36.0509 17.4433 36.3675 17.54 36.7675 17.54C37.0142 17.54 37.2509 17.4967 37.4775 17.41C37.7042 17.3167 37.8942 17.1633 38.0475 16.95C38.2009 16.73 38.2842 16.43 38.2975 16.05L38.5175 16.36C38.4909 16.7533 38.3975 17.0833 38.2375 17.35C38.0775 17.61 37.8609 17.8067 37.5875 17.94C37.3142 18.0733 36.9942 18.14 36.6275 18.14ZM42.8109 18.06C42.4442 18.06 42.1276 18.0067 41.8609 17.9C41.5942 17.7933 41.3876 17.6133 41.2409 17.36C41.0942 17.1 41.0209 16.7533 41.0209 16.32V11.04H41.7409V16.43C41.7409 16.7367 41.8242 16.9733 41.9909 17.14C42.1576 17.3 42.3942 17.38 42.7009 17.38H43.6509V18.06H42.8109ZM40.0709 13.28V12.71H43.6509V13.28H40.0709ZM47.4339 20V12.71H48.0339V14.98L47.8539 15C47.8805 14.4667 47.9939 14.0167 48.1939 13.65C48.4005 13.2833 48.6772 13.0067 49.0239 12.82C49.3772 12.6267 49.7705 12.53 50.2039 12.53C50.5905 12.53 50.9405 12.6067 51.2539 12.76C51.5739 12.9067 51.8439 13.11 52.0639 13.37C52.2905 13.6233 52.4605 13.9167 52.5739 14.25C52.6939 14.5767 52.7539 14.92 52.7539 15.28V15.42C52.7539 15.78 52.6939 16.1267 52.5739 16.46C52.4539 16.7867 52.2805 17.08 52.0539 17.34C51.8339 17.5933 51.5639 17.7967 51.2439 17.95C50.9305 18.0967 50.5772 18.17 50.1839 18.17C49.7639 18.17 49.3772 18.0767 49.0239 17.89C48.6772 17.6967 48.3939 17.4133 48.1739 17.04C47.9605 16.6667 47.8439 16.2067 47.8239 15.66L48.1839 16.41V20H47.4339ZM50.0839 17.51C50.4839 17.51 50.8272 17.4167 51.1139 17.23C51.4005 17.0367 51.6205 16.7767 51.7739 16.45C51.9272 16.1167 52.0039 15.75 52.0039 15.35C52.0039 14.9367 51.9239 14.57 51.7639 14.25C51.6105 13.9233 51.3905 13.6667 51.1039 13.48C50.8172 13.2867 50.4772 13.19 50.0839 13.19C49.7239 13.19 49.3972 13.27 49.1039 13.43C48.8105 13.59 48.5772 13.8167 48.4039 14.11C48.2372 14.3967 48.1539 14.7367 48.1539 15.13V15.62C48.1539 15.9933 48.2372 16.3233 48.4039 16.61C48.5772 16.89 48.8105 17.11 49.1039 17.27C49.3972 17.43 49.7239 17.51 50.0839 17.51ZM57.4898 18V16.41H57.3698V14.53C57.3698 14.1367 57.2665 13.8367 57.0598 13.63C56.8531 13.4167 56.5331 13.31 56.0998 13.31C55.8998 13.31 55.6965 13.3133 55.4898 13.32C55.2898 13.3267 55.0965 13.3367 54.9098 13.35C54.7298 13.3567 54.5698 13.3667 54.4298 13.38V12.72C54.5765 12.7067 54.7265 12.6933 54.8798 12.68C55.0331 12.6667 55.1898 12.66 55.3498 12.66C55.5165 12.6533 55.6765 12.65 55.8298 12.65C56.3698 12.65 56.8031 12.7167 57.1298 12.85C57.4631 12.9833 57.7065 13.1933 57.8598 13.48C58.0131 13.76 58.0898 14.1333 58.0898 14.6V18H57.4898ZM55.6998 18.14C55.3265 18.14 54.9965 18.0733 54.7098 17.94C54.4231 17.8067 54.1998 17.6133 54.0398 17.36C53.8865 17.1067 53.8098 16.8 53.8098 16.44C53.8098 16.0867 53.8898 15.7867 54.0498 15.54C54.2165 15.2933 54.4531 15.1067 54.7598 14.98C55.0731 14.8467 55.4498 14.78 55.8898 14.78H57.4398V15.35H55.8398C55.4198 15.35 55.0965 15.4533 54.8698 15.66C54.6498 15.86 54.5398 16.1233 54.5398 16.45C54.5398 16.7833 54.6565 17.05 54.8898 17.25C55.1231 17.4433 55.4398 17.54 55.8398 17.54C56.0865 17.54 56.3231 17.4967 56.5498 17.41C56.7765 17.3167 56.9665 17.1633 57.1198 16.95C57.2731 16.73 57.3565 16.43 57.3698 16.05L57.5898 16.36C57.5631 16.7533 57.4698 17.0833 57.3098 17.35C57.1498 17.61 56.9331 17.8067 56.6598 17.94C56.3865 18.0733 56.0665 18.14 55.6998 18.14ZM59.9632 18V12.71H60.5632V14.92H60.5032C60.5032 14.1467 60.6732 13.5767 61.0132 13.21C61.3532 12.8367 61.8865 12.65 62.6132 12.65H62.7832V13.33H62.4732C61.8998 13.33 61.4632 13.48 61.1632 13.78C60.8632 14.0733 60.7132 14.5067 60.7132 15.08V18H59.9632ZM67.1968 18V16.41H67.0768V14.53C67.0768 14.1367 66.9735 13.8367 66.7668 13.63C66.5602 13.4167 66.2402 13.31 65.8068 13.31C65.6068 13.31 65.4035 13.3133 65.1968 13.32C64.9968 13.3267 64.8035 13.3367 64.6168 13.35C64.4368 13.3567 64.2768 13.3667 64.1368 13.38V12.72C64.2835 12.7067 64.4335 12.6933 64.5868 12.68C64.7402 12.6667 64.8968 12.66 65.0568 12.66C65.2235 12.6533 65.3835 12.65 65.5368 12.65C66.0768 12.65 66.5102 12.7167 66.8368 12.85C67.1702 12.9833 67.4135 13.1933 67.5668 13.48C67.7202 13.76 67.7968 14.1333 67.7968 14.6V18H67.1968ZM65.4068 18.14C65.0335 18.14 64.7035 18.0733 64.4168 17.94C64.1302 17.8067 63.9068 17.6133 63.7468 17.36C63.5935 17.1067 63.5168 16.8 63.5168 16.44C63.5168 16.0867 63.5968 15.7867 63.7568 15.54C63.9235 15.2933 64.1602 15.1067 64.4668 14.98C64.7802 14.8467 65.1568 14.78 65.5968 14.78H67.1468V15.35H65.5468C65.1268 15.35 64.8035 15.4533 64.5768 15.66C64.3568 15.86 64.2468 16.1233 64.2468 16.45C64.2468 16.7833 64.3635 17.05 64.5968 17.25C64.8302 17.4433 65.1468 17.54 65.5468 17.54C65.7935 17.54 66.0302 17.4967 66.2568 17.41C66.4835 17.3167 66.6735 17.1633 66.8268 16.95C66.9802 16.73 67.0635 16.43 67.0768 16.05L67.2968 16.36C67.2702 16.7533 67.1768 17.0833 67.0168 17.35C66.8568 17.61 66.6402 17.8067 66.3668 17.94C66.0935 18.0733 65.7735 18.14 65.4068 18.14ZM69.6702 18V12.7H70.2702V14.93H70.1502C70.1502 14.4433 70.2169 14.0233 70.3502 13.67C70.4902 13.3167 70.6969 13.0433 70.9702 12.85C71.2435 12.65 71.5902 12.55 72.0102 12.55H72.0402C72.4602 12.55 72.8069 12.6467 73.0802 12.84C73.3535 13.0333 73.5569 13.3067 73.6902 13.66C73.8235 14.0133 73.8902 14.4367 73.8902 14.93H73.6502C73.6502 14.4433 73.7169 14.0233 73.8502 13.67C73.9902 13.3167 74.1969 13.0433 74.4702 12.85C74.7502 12.65 75.1002 12.55 75.5202 12.55H75.5502C75.9702 12.55 76.3169 12.6467 76.5902 12.84C76.8702 13.0333 77.0769 13.3067 77.2102 13.66C77.3502 14.0133 77.4202 14.4367 77.4202 14.93V18H76.6702V14.76C76.6702 14.2933 76.5569 13.9233 76.3302 13.65C76.1035 13.3767 75.7769 13.24 75.3502 13.24C74.9102 13.24 74.5602 13.3833 74.3002 13.67C74.0469 13.95 73.9202 14.33 73.9202 14.81V18H73.1702V14.76C73.1702 14.2933 73.0569 13.9233 72.8302 13.65C72.6035 13.3767 72.2769 13.24 71.8502 13.24C71.4102 13.24 71.0602 13.3833 70.8002 13.67C70.5469 13.95 70.4202 14.33 70.4202 14.81V18H69.6702ZM81.4993 18.17C81.046 18.17 80.6527 18.0933 80.3193 17.94C79.986 17.78 79.7127 17.57 79.4993 17.31C79.286 17.0433 79.126 16.7467 79.0193 16.42C78.9193 16.0933 78.8693 15.7567 78.8693 15.41V15.27C78.8693 14.93 78.9193 14.5967 79.0193 14.27C79.126 13.9433 79.286 13.65 79.4993 13.39C79.7127 13.13 79.9793 12.9233 80.2993 12.77C80.626 12.61 81.006 12.53 81.4393 12.53C81.9927 12.53 82.4527 12.6533 82.8193 12.9C83.1927 13.1467 83.4727 13.4633 83.6593 13.85C83.846 14.23 83.9393 14.64 83.9393 15.08V15.47H79.2093V14.89H83.4193L83.2293 15.18C83.2293 14.7867 83.1593 14.4433 83.0193 14.15C82.886 13.85 82.686 13.6167 82.4193 13.45C82.1593 13.2767 81.8327 13.19 81.4393 13.19C81.026 13.19 80.6827 13.2867 80.4093 13.48C80.136 13.6733 79.9293 13.93 79.7893 14.25C79.656 14.57 79.5893 14.9333 79.5893 15.34C79.5893 15.74 79.656 16.1067 79.7893 16.44C79.9293 16.7667 80.1393 17.0267 80.4193 17.22C80.706 17.4133 81.066 17.51 81.4993 17.51C81.9593 17.51 82.3327 17.4067 82.6193 17.2C82.906 16.9867 83.0827 16.7367 83.1493 16.45H83.8493C83.7827 16.8033 83.6427 17.11 83.4293 17.37C83.216 17.6233 82.946 17.82 82.6193 17.96C82.2927 18.1 81.9193 18.17 81.4993 18.17ZM87.3031 18.06C86.9364 18.06 86.6198 18.0067 86.3531 17.9C86.0864 17.7933 85.8798 17.6133 85.7331 17.36C85.5864 17.1 85.5131 16.7533 85.5131 16.32V11.04H86.2331V16.43C86.2331 16.7367 86.3164 16.9733 86.4831 17.14C86.6498 17.3 86.8864 17.38 87.1931 17.38H88.1431V18.06H87.3031ZM84.5631 13.28V12.71H88.1431V13.28H84.5631ZM91.7532 18.17C91.2999 18.17 90.9066 18.0933 90.5732 17.94C90.2399 17.78 89.9666 17.57 89.7532 17.31C89.5399 17.0433 89.3799 16.7467 89.2732 16.42C89.1732 16.0933 89.1232 15.7567 89.1232 15.41V15.27C89.1232 14.93 89.1732 14.5967 89.2732 14.27C89.3799 13.9433 89.5399 13.65 89.7532 13.39C89.9666 13.13 90.2332 12.9233 90.5532 12.77C90.8799 12.61 91.2599 12.53 91.6932 12.53C92.2466 12.53 92.7066 12.6533 93.0732 12.9C93.4466 13.1467 93.7266 13.4633 93.9132 13.85C94.0999 14.23 94.1932 14.64 94.1932 15.08V15.47H89.4632V14.89H93.6732L93.4832 15.18C93.4832 14.7867 93.4132 14.4433 93.2732 14.15C93.1399 13.85 92.9399 13.6167 92.6732 13.45C92.4132 13.2767 92.0866 13.19 91.6932 13.19C91.2799 13.19 90.9366 13.2867 90.6632 13.48C90.3899 13.6733 90.1832 13.93 90.0432 14.25C89.9099 14.57 89.8432 14.9333 89.8432 15.34C89.8432 15.74 89.9099 16.1067 90.0432 16.44C90.1832 16.7667 90.3932 17.0267 90.6732 17.22C90.9599 17.4133 91.3199 17.51 91.7532 17.51C92.2132 17.51 92.5866 17.4067 92.8732 17.2C93.1599 16.9867 93.3366 16.7367 93.4032 16.45H94.1032C94.0366 16.8033 93.8966 17.11 93.6832 17.37C93.4699 17.6233 93.1999 17.82 92.8732 17.96C92.5466 18.1 92.1732 18.17 91.7532 18.17ZM95.637 18V12.71H96.237V14.92H96.177C96.177 14.1467 96.347 13.5767 96.687 13.21C97.027 12.8367 97.5603 12.65 98.287 12.65H98.457V13.33H98.147C97.5737 13.33 97.137 13.48 96.837 13.78C96.537 14.0733 96.387 14.5067 96.387 15.08V18H95.637ZM101.34 18.15C100.66 18.15 100.137 18.0033 99.7702 17.71C99.4035 17.41 99.2169 17.01 99.2102 16.51H99.9102C99.9235 16.7633 100.037 16.9933 100.25 17.2C100.47 17.4067 100.834 17.51 101.34 17.51C101.814 17.51 102.167 17.4133 102.4 17.22C102.64 17.02 102.76 16.78 102.76 16.5C102.76 16.24 102.66 16.04 102.46 15.9C102.267 15.7533 101.984 15.66 101.61 15.62L101.01 15.56C100.53 15.5067 100.14 15.36 99.8402 15.12C99.5469 14.8733 99.4002 14.5367 99.4002 14.11C99.4002 13.7967 99.4802 13.5233 99.6402 13.29C99.8002 13.0567 100.024 12.8767 100.31 12.75C100.604 12.6167 100.947 12.55 101.34 12.55C101.907 12.55 102.367 12.6833 102.72 12.95C103.08 13.2167 103.264 13.5967 103.27 14.09H102.57C102.564 13.8367 102.457 13.6233 102.25 13.45C102.044 13.2767 101.74 13.19 101.34 13.19C100.927 13.19 100.617 13.28 100.41 13.46C100.21 13.64 100.11 13.86 100.11 14.12C100.11 14.34 100.187 14.5233 100.34 14.67C100.494 14.81 100.734 14.8967 101.06 14.93L101.66 14.99C102.194 15.05 102.627 15.2033 102.96 15.45C103.3 15.6967 103.47 16.05 103.47 16.51C103.47 16.8233 103.38 17.1067 103.2 17.36C103.027 17.6067 102.78 17.8 102.46 17.94C102.14 18.08 101.767 18.15 101.34 18.15ZM109.467 18.17C109.08 18.17 108.727 18.1 108.407 17.96C108.094 17.8133 107.82 17.6133 107.587 17.36C107.36 17.1 107.184 16.8067 107.057 16.48C106.937 16.1467 106.877 15.7933 106.877 15.42V15.28C106.877 14.92 106.937 14.5767 107.057 14.25C107.177 13.9167 107.347 13.6233 107.567 13.37C107.794 13.11 108.064 12.9067 108.377 12.76C108.697 12.6067 109.054 12.53 109.447 12.53C109.894 12.53 110.287 12.6267 110.627 12.82C110.967 13.0133 111.24 13.2933 111.447 13.66C111.654 14.02 111.764 14.4633 111.777 14.99L111.447 14.37V10.7H112.197V18H111.597V15.65H111.837C111.824 16.2033 111.707 16.67 111.487 17.05C111.274 17.4233 110.99 17.7033 110.637 17.89C110.29 18.0767 109.9 18.17 109.467 18.17ZM109.567 17.51C109.927 17.51 110.25 17.43 110.537 17.27C110.83 17.11 111.06 16.8833 111.227 16.59C111.394 16.29 111.477 15.9467 111.477 15.56V15.08C111.477 14.7067 111.394 14.38 111.227 14.1C111.06 13.8133 110.83 13.59 110.537 13.43C110.25 13.27 109.924 13.19 109.557 13.19C109.164 13.19 108.82 13.2867 108.527 13.48C108.24 13.6667 108.017 13.9233 107.857 14.25C107.704 14.5767 107.627 14.9433 107.627 15.35C107.627 15.77 107.707 16.1433 107.867 16.47C108.027 16.7967 108.254 17.0533 108.547 17.24C108.84 17.42 109.18 17.51 109.567 17.51ZM116.343 18.17C115.89 18.17 115.496 18.0933 115.163 17.94C114.83 17.78 114.556 17.57 114.343 17.31C114.13 17.0433 113.97 16.7467 113.863 16.42C113.763 16.0933 113.713 15.7567 113.713 15.41V15.27C113.713 14.93 113.763 14.5967 113.863 14.27C113.97 13.9433 114.13 13.65 114.343 13.39C114.556 13.13 114.823 12.9233 115.143 12.77C115.47 12.61 115.85 12.53 116.283 12.53C116.836 12.53 117.296 12.6533 117.663 12.9C118.036 13.1467 118.316 13.4633 118.503 13.85C118.69 14.23 118.783 14.64 118.783 15.08V15.47H114.053V14.89H118.263L118.073 15.18C118.073 14.7867 118.003 14.4433 117.863 14.15C117.73 13.85 117.53 13.6167 117.263 13.45C117.003 13.2767 116.676 13.19 116.283 13.19C115.87 13.19 115.526 13.2867 115.253 13.48C114.98 13.6733 114.773 13.93 114.633 14.25C114.5 14.57 114.433 14.9333 114.433 15.34C114.433 15.74 114.5 16.1067 114.633 16.44C114.773 16.7667 114.983 17.0267 115.263 17.22C115.55 17.4133 115.91 17.51 116.343 17.51C116.803 17.51 117.176 17.4067 117.463 17.2C117.75 16.9867 117.926 16.7367 117.993 16.45H118.693C118.626 16.8033 118.486 17.11 118.273 17.37C118.06 17.6233 117.79 17.82 117.463 17.96C117.136 18.1 116.763 18.17 116.343 18.17ZM122.147 18.06C121.78 18.06 121.464 18.0067 121.197 17.9C120.93 17.7933 120.724 17.6133 120.577 17.36C120.43 17.1 120.357 16.7533 120.357 16.32V11.04H121.077V16.43C121.077 16.7367 121.16 16.9733 121.327 17.14C121.494 17.3 121.73 17.38 122.037 17.38H122.987V18.06H122.147ZM119.407 13.28V12.71H122.987V13.28H119.407ZM126.597 18.17C126.144 18.17 125.75 18.0933 125.417 17.94C125.084 17.78 124.81 17.57 124.597 17.31C124.384 17.0433 124.224 16.7467 124.117 16.42C124.017 16.0933 123.967 15.7567 123.967 15.41V15.27C123.967 14.93 124.017 14.5967 124.117 14.27C124.224 13.9433 124.384 13.65 124.597 13.39C124.81 13.13 125.077 12.9233 125.397 12.77C125.724 12.61 126.104 12.53 126.537 12.53C127.09 12.53 127.55 12.6533 127.917 12.9C128.29 13.1467 128.57 13.4633 128.757 13.85C128.944 14.23 129.037 14.64 129.037 15.08V15.47H124.307V14.89H128.517L128.327 15.18C128.327 14.7867 128.257 14.4433 128.117 14.15C127.984 13.85 127.784 13.6167 127.517 13.45C127.257 13.2767 126.93 13.19 126.537 13.19C126.124 13.19 125.78 13.2867 125.507 13.48C125.234 13.6733 125.027 13.93 124.887 14.25C124.754 14.57 124.687 14.9333 124.687 15.34C124.687 15.74 124.754 16.1067 124.887 16.44C125.027 16.7667 125.237 17.0267 125.517 17.22C125.804 17.4133 126.164 17.51 126.597 17.51C127.057 17.51 127.43 17.4067 127.717 17.2C128.004 16.9867 128.18 16.7367 128.247 16.45H128.947C128.88 16.8033 128.74 17.11 128.527 17.37C128.314 17.6233 128.044 17.82 127.717 17.96C127.39 18.1 127.017 18.17 126.597 18.17ZM130.481 18V12.71H131.081V14.92H131.021C131.021 14.1467 131.191 13.5767 131.531 13.21C131.871 12.8367 132.404 12.65 133.131 12.65H133.301V13.33H132.991C132.417 13.33 131.981 13.48 131.681 13.78C131.381 14.0733 131.231 14.5067 131.231 15.08V18H130.481ZM134.514 18V12.7H135.114V14.93H134.994C134.994 14.4433 135.061 14.0233 135.194 13.67C135.334 13.3167 135.541 13.0433 135.814 12.85C136.087 12.65 136.434 12.55 136.854 12.55H136.884C137.304 12.55 137.651 12.6467 137.924 12.84C138.197 13.0333 138.401 13.3067 138.534 13.66C138.667 14.0133 138.734 14.4367 138.734 14.93H138.494C138.494 14.4433 138.561 14.0233 138.694 13.67C138.834 13.3167 139.041 13.0433 139.314 12.85C139.594 12.65 139.944 12.55 140.364 12.55H140.394C140.814 12.55 141.161 12.6467 141.434 12.84C141.714 13.0333 141.921 13.3067 142.054 13.66C142.194 14.0133 142.264 14.4367 142.264 14.93V18H141.514V14.76C141.514 14.2933 141.401 13.9233 141.174 13.65C140.947 13.3767 140.621 13.24 140.194 13.24C139.754 13.24 139.404 13.3833 139.144 13.67C138.891 13.95 138.764 14.33 138.764 14.81V18H138.014V14.76C138.014 14.2933 137.901 13.9233 137.674 13.65C137.447 13.3767 137.121 13.24 136.694 13.24C136.254 13.24 135.904 13.3833 135.644 13.67C135.391 13.95 135.264 14.33 135.264 14.81V18H134.514ZM144.413 18V12.71H145.153V18H144.413ZM143.563 13.31V12.71H145.153V13.31H143.563ZM144.573 11.73C144.393 11.73 144.256 11.6833 144.163 11.59C144.076 11.49 144.033 11.3667 144.033 11.22C144.033 11.0733 144.076 10.9533 144.163 10.86C144.256 10.76 144.393 10.71 144.573 10.71C144.753 10.71 144.886 10.76 144.973 10.86C145.06 10.9533 145.103 11.0733 145.103 11.22C145.103 11.3667 145.06 11.49 144.973 11.59C144.886 11.6833 144.753 11.73 144.573 11.73ZM147.121 18V12.71H147.721V14.93H147.601C147.601 14.4367 147.675 14.0133 147.821 13.66C147.968 13.3067 148.188 13.0333 148.481 12.84C148.775 12.6467 149.145 12.55 149.591 12.55H149.621C150.288 12.55 150.785 12.76 151.111 13.18C151.438 13.5933 151.601 14.1767 151.601 14.93V18H150.861V14.77C150.861 14.31 150.735 13.94 150.481 13.66C150.228 13.38 149.875 13.24 149.421 13.24C148.955 13.24 148.578 13.3867 148.291 13.68C148.011 13.9667 147.871 14.3467 147.871 14.82V18H147.121ZM155.679 18.17C155.226 18.17 154.832 18.0933 154.499 17.94C154.166 17.78 153.892 17.57 153.679 17.31C153.466 17.0433 153.306 16.7467 153.199 16.42C153.099 16.0933 153.049 15.7567 153.049 15.41V15.27C153.049 14.93 153.099 14.5967 153.199 14.27C153.306 13.9433 153.466 13.65 153.679 13.39C153.892 13.13 154.159 12.9233 154.479 12.77C154.806 12.61 155.186 12.53 155.619 12.53C156.172 12.53 156.632 12.6533 156.999 12.9C157.372 13.1467 157.652 13.4633 157.839 13.85C158.026 14.23 158.119 14.64 158.119 15.08V15.47H153.389V14.89H157.599L157.409 15.18C157.409 14.7867 157.339 14.4433 157.199 14.15C157.066 13.85 156.866 13.6167 156.599 13.45C156.339 13.2767 156.012 13.19 155.619 13.19C155.206 13.19 154.862 13.2867 154.589 13.48C154.316 13.6733 154.109 13.93 153.969 14.25C153.836 14.57 153.769 14.9333 153.769 15.34C153.769 15.74 153.836 16.1067 153.969 16.44C154.109 16.7667 154.319 17.0267 154.599 17.22C154.886 17.4133 155.246 17.51 155.679 17.51C156.139 17.51 156.512 17.4067 156.799 17.2C157.086 16.9867 157.262 16.7367 157.329 16.45H158.029C157.962 16.8033 157.822 17.11 157.609 17.37C157.396 17.6233 157.126 17.82 156.799 17.96C156.472 18.1 156.099 18.17 155.679 18.17ZM163.817 18.06C163.45 18.06 163.133 18.0067 162.867 17.9C162.6 17.7933 162.393 17.6133 162.247 17.36C162.1 17.1 162.027 16.7533 162.027 16.32V11.04H162.747V16.43C162.747 16.7367 162.83 16.9733 162.997 17.14C163.163 17.3 163.4 17.38 163.707 17.38H164.657V18.06H163.817ZM161.077 13.28V12.71H164.657V13.28H161.077ZM166.106 18V10.7H166.856V14.83L166.636 15C166.636 14.5067 166.706 14.0767 166.846 13.71C166.992 13.3433 167.209 13.06 167.496 12.86C167.789 12.6533 168.156 12.55 168.596 12.55H168.636C169.276 12.55 169.759 12.76 170.086 13.18C170.419 13.6 170.586 14.1833 170.586 14.93V18H169.846V14.77C169.846 14.2967 169.716 13.9233 169.456 13.65C169.196 13.3767 168.846 13.24 168.406 13.24C167.932 13.24 167.556 13.3933 167.276 13.7C166.996 14 166.856 14.3967 166.856 14.89V18H166.106ZM174.663 18.17C174.21 18.17 173.817 18.0933 173.483 17.94C173.15 17.78 172.877 17.57 172.663 17.31C172.45 17.0433 172.29 16.7467 172.183 16.42C172.083 16.0933 172.033 15.7567 172.033 15.41V15.27C172.033 14.93 172.083 14.5967 172.183 14.27C172.29 13.9433 172.45 13.65 172.663 13.39C172.877 13.13 173.143 12.9233 173.463 12.77C173.79 12.61 174.17 12.53 174.603 12.53C175.157 12.53 175.617 12.6533 175.983 12.9C176.357 13.1467 176.637 13.4633 176.823 13.85C177.01 14.23 177.103 14.64 177.103 15.08V15.47H172.373V14.89H176.583L176.393 15.18C176.393 14.7867 176.323 14.4433 176.183 14.15C176.05 13.85 175.85 13.6167 175.583 13.45C175.323 13.2767 174.997 13.19 174.603 13.19C174.19 13.19 173.847 13.2867 173.573 13.48C173.3 13.6733 173.093 13.93 172.953 14.25C172.82 14.57 172.753 14.9333 172.753 15.34C172.753 15.74 172.82 16.1067 172.953 16.44C173.093 16.7667 173.303 17.0267 173.583 17.22C173.87 17.4133 174.23 17.51 174.663 17.51C175.123 17.51 175.497 17.4067 175.783 17.2C176.07 16.9867 176.247 16.7367 176.313 16.45H177.013C176.947 16.8033 176.807 17.11 176.593 17.37C176.38 17.6233 176.11 17.82 175.783 17.96C175.457 18.1 175.083 18.17 174.663 18.17ZM181.031 18V12.24C181.031 11.6867 181.174 11.2767 181.461 11.01C181.748 10.7433 182.178 10.61 182.751 10.61H183.361V11.25H182.611C182.331 11.25 182.118 11.3233 181.971 11.47C181.824 11.6167 181.751 11.8233 181.751 12.09V18H181.031ZM180.261 13.29V12.71H183.331V13.29H180.261ZM184.711 18V12.71H185.461V18H184.711ZM183.891 13.31V12.71H185.461V13.31H183.891ZM184.871 11.73C184.691 11.73 184.558 11.6833 184.471 11.59C184.384 11.49 184.341 11.3667 184.341 11.22C184.341 11.0733 184.384 10.9533 184.471 10.86C184.558 10.76 184.691 10.71 184.871 10.71C185.051 10.71 185.184 10.76 185.271 10.86C185.358 10.9533 185.401 11.0733 185.401 11.22C185.401 11.3667 185.358 11.49 185.271 11.59C185.184 11.6833 185.051 11.73 184.871 11.73ZM187.424 18V12.71H188.024V14.93H187.904C187.904 14.4367 187.977 14.0133 188.124 13.66C188.271 13.3067 188.491 13.0333 188.784 12.84C189.077 12.6467 189.447 12.55 189.894 12.55H189.924C190.591 12.55 191.087 12.76 191.414 13.18C191.741 13.5933 191.904 14.1767 191.904 14.93V18H191.164V14.77C191.164 14.31 191.037 13.94 190.784 13.66C190.531 13.38 190.177 13.24 189.724 13.24C189.257 13.24 188.881 13.3867 188.594 13.68C188.314 13.9667 188.174 14.3467 188.174 14.82V18H187.424ZM196.992 18V16.41H196.872V14.53C196.872 14.1367 196.768 13.8367 196.562 13.63C196.355 13.4167 196.035 13.31 195.602 13.31C195.402 13.31 195.198 13.3133 194.992 13.32C194.792 13.3267 194.598 13.3367 194.412 13.35C194.232 13.3567 194.072 13.3667 193.932 13.38V12.72C194.078 12.7067 194.228 12.6933 194.382 12.68C194.535 12.6667 194.692 12.66 194.852 12.66C195.018 12.6533 195.178 12.65 195.332 12.65C195.872 12.65 196.305 12.7167 196.632 12.85C196.965 12.9833 197.208 13.1933 197.362 13.48C197.515 13.76 197.592 14.1333 197.592 14.6V18H196.992ZM195.202 18.14C194.828 18.14 194.498 18.0733 194.212 17.94C193.925 17.8067 193.702 17.6133 193.542 17.36C193.388 17.1067 193.312 16.8 193.312 16.44C193.312 16.0867 193.392 15.7867 193.552 15.54C193.718 15.2933 193.955 15.1067 194.262 14.98C194.575 14.8467 194.952 14.78 195.392 14.78H196.942V15.35H195.342C194.922 15.35 194.598 15.4533 194.372 15.66C194.152 15.86 194.042 16.1233 194.042 16.45C194.042 16.7833 194.158 17.05 194.392 17.25C194.625 17.4433 194.942 17.54 195.342 17.54C195.588 17.54 195.825 17.4967 196.052 17.41C196.278 17.3167 196.468 17.1633 196.622 16.95C196.775 16.73 196.858 16.43 196.872 16.05L197.092 16.36C197.065 16.7533 196.972 17.0833 196.812 17.35C196.652 17.61 196.435 17.8067 196.162 17.94C195.888 18.0733 195.568 18.14 195.202 18.14ZM199.515 18V10.7H200.265V18H199.515ZM198.745 11.31V10.7H200.265V11.31H198.745ZM206.773 18.17C206.327 18.17 205.937 18.0933 205.603 17.94C205.277 17.78 205.003 17.5667 204.783 17.3C204.563 17.0267 204.397 16.7267 204.283 16.4C204.177 16.0733 204.123 15.7433 204.123 15.41V15.27C204.123 14.93 204.177 14.6 204.283 14.28C204.397 13.9533 204.563 13.66 204.783 13.4C205.003 13.1333 205.277 12.9233 205.603 12.77C205.937 12.61 206.32 12.53 206.753 12.53C207.193 12.53 207.583 12.61 207.923 12.77C208.27 12.93 208.55 13.1567 208.763 13.45C208.977 13.7433 209.103 14.09 209.143 14.49H208.423C208.363 14.1233 208.19 13.82 207.903 13.58C207.623 13.3333 207.24 13.21 206.753 13.21C206.333 13.21 205.983 13.3067 205.703 13.5C205.43 13.6867 205.223 13.9433 205.083 14.27C204.943 14.59 204.873 14.9467 204.873 15.34C204.873 15.7267 204.943 16.0867 205.083 16.42C205.223 16.7467 205.433 17.01 205.713 17.21C205.993 17.4033 206.347 17.5 206.773 17.5C207.1 17.5 207.383 17.4433 207.623 17.33C207.87 17.21 208.067 17.05 208.213 16.85C208.367 16.65 208.457 16.43 208.483 16.19H209.203C209.177 16.59 209.05 16.94 208.823 17.24C208.603 17.5333 208.317 17.7633 207.963 17.93C207.61 18.09 207.213 18.17 206.773 18.17ZM212.948 18.17C212.495 18.17 212.095 18.0933 211.748 17.94C211.408 17.78 211.118 17.57 210.878 17.31C210.645 17.0433 210.465 16.7467 210.338 16.42C210.218 16.0933 210.158 15.76 210.158 15.42V15.28C210.158 14.94 210.222 14.6067 210.348 14.28C210.475 13.9467 210.658 13.65 210.898 13.39C211.138 13.13 211.428 12.9233 211.768 12.77C212.115 12.61 212.508 12.53 212.948 12.53C213.395 12.53 213.788 12.61 214.128 12.77C214.475 12.9233 214.768 13.13 215.008 13.39C215.248 13.65 215.428 13.9467 215.548 14.28C215.675 14.6067 215.738 14.94 215.738 15.28V15.42C215.738 15.76 215.678 16.0933 215.558 16.42C215.438 16.7467 215.258 17.0433 215.018 17.31C214.785 17.57 214.495 17.78 214.148 17.94C213.802 18.0933 213.402 18.17 212.948 18.17ZM212.948 17.5C213.388 17.5 213.758 17.4033 214.058 17.21C214.365 17.01 214.598 16.75 214.758 16.43C214.918 16.1033 214.998 15.7433 214.998 15.35C214.998 14.95 214.915 14.59 214.748 14.27C214.588 13.9433 214.355 13.6867 214.048 13.5C213.742 13.3067 213.375 13.21 212.948 13.21C212.528 13.21 212.165 13.3067 211.858 13.5C211.552 13.6867 211.315 13.9433 211.148 14.27C210.988 14.59 210.908 14.95 210.908 15.35C210.908 15.7433 210.988 16.1033 211.148 16.43C211.308 16.75 211.538 17.01 211.838 17.21C212.145 17.4033 212.515 17.5 212.948 17.5ZM218.938 18.15C218.258 18.15 217.735 18.0033 217.368 17.71C217.001 17.41 216.815 17.01 216.808 16.51H217.508C217.521 16.7633 217.635 16.9933 217.848 17.2C218.068 17.4067 218.431 17.51 218.938 17.51C219.411 17.51 219.765 17.4133 219.998 17.22C220.238 17.02 220.358 16.78 220.358 16.5C220.358 16.24 220.258 16.04 220.058 15.9C219.865 15.7533 219.581 15.66 219.208 15.62L218.608 15.56C218.128 15.5067 217.738 15.36 217.438 15.12C217.145 14.8733 216.998 14.5367 216.998 14.11C216.998 13.7967 217.078 13.5233 217.238 13.29C217.398 13.0567 217.621 12.8767 217.908 12.75C218.201 12.6167 218.545 12.55 218.938 12.55C219.505 12.55 219.965 12.6833 220.318 12.95C220.678 13.2167 220.861 13.5967 220.868 14.09H220.168C220.161 13.8367 220.055 13.6233 219.848 13.45C219.641 13.2767 219.338 13.19 218.938 13.19C218.525 13.19 218.215 13.28 218.008 13.46C217.808 13.64 217.708 13.86 217.708 14.12C217.708 14.34 217.785 14.5233 217.938 14.67C218.091 14.81 218.331 14.8967 218.658 14.93L219.258 14.99C219.791 15.05 220.225 15.2033 220.558 15.45C220.898 15.6967 221.068 16.05 221.068 16.51C221.068 16.8233 220.978 17.1067 220.798 17.36C220.625 17.6067 220.378 17.8 220.058 17.94C219.738 18.08 219.365 18.15 218.938 18.15ZM224.481 18.06C224.114 18.06 223.797 18.0067 223.531 17.9C223.264 17.7933 223.057 17.6133 222.911 17.36C222.764 17.1 222.691 16.7533 222.691 16.32V11.04H223.411V16.43C223.411 16.7367 223.494 16.9733 223.661 17.14C223.827 17.3 224.064 17.38 224.371 17.38H225.321V18.06H224.481ZM221.741 13.28V12.71H225.321V13.28H221.741ZM231.474 18.17C231.02 18.17 230.62 18.0933 230.274 17.94C229.934 17.78 229.644 17.57 229.404 17.31C229.17 17.0433 228.99 16.7467 228.864 16.42C228.744 16.0933 228.684 15.76 228.684 15.42V15.28C228.684 14.94 228.747 14.6067 228.874 14.28C229 13.9467 229.184 13.65 229.424 13.39C229.664 13.13 229.954 12.9233 230.294 12.77C230.64 12.61 231.034 12.53 231.474 12.53C231.92 12.53 232.314 12.61 232.654 12.77C233 12.9233 233.294 13.13 233.534 13.39C233.774 13.65 233.954 13.9467 234.074 14.28C234.2 14.6067 234.264 14.94 234.264 15.28V15.42C234.264 15.76 234.204 16.0933 234.084 16.42C233.964 16.7467 233.784 17.0433 233.544 17.31C233.31 17.57 233.02 17.78 232.674 17.94C232.327 18.0933 231.927 18.17 231.474 18.17ZM231.474 17.5C231.914 17.5 232.284 17.4033 232.584 17.21C232.89 17.01 233.124 16.75 233.284 16.43C233.444 16.1033 233.524 15.7433 233.524 15.35C233.524 14.95 233.44 14.59 233.274 14.27C233.114 13.9433 232.88 13.6867 232.574 13.5C232.267 13.3067 231.9 13.21 231.474 13.21C231.054 13.21 230.69 13.3067 230.384 13.5C230.077 13.6867 229.84 13.9433 229.674 14.27C229.514 14.59 229.434 14.95 229.434 15.35C229.434 15.7433 229.514 16.1033 229.674 16.43C229.834 16.75 230.064 17.01 230.364 17.21C230.67 17.4033 231.04 17.5 231.474 17.5ZM235.943 18V12.3C235.943 11.7467 236.087 11.3367 236.373 11.07C236.66 10.8033 237.09 10.67 237.663 10.67H238.333V11.31H237.523C237.243 11.31 237.03 11.3833 236.883 11.53C236.737 11.6767 236.663 11.8833 236.663 12.15V18H235.943ZM235.173 13.33V12.75H238.443V13.33H235.173ZM241.877 18V12.7H242.477V14.93H242.357C242.357 14.4433 242.424 14.0233 242.557 13.67C242.697 13.3167 242.904 13.0433 243.177 12.85C243.451 12.65 243.797 12.55 244.217 12.55H244.247C244.667 12.55 245.014 12.6467 245.287 12.84C245.561 13.0333 245.764 13.3067 245.897 13.66C246.031 14.0133 246.097 14.4367 246.097 14.93H245.857C245.857 14.4433 245.924 14.0233 246.057 13.67C246.197 13.3167 246.404 13.0433 246.677 12.85C246.957 12.65 247.307 12.55 247.727 12.55H247.757C248.177 12.55 248.524 12.6467 248.797 12.84C249.077 13.0333 249.284 13.3067 249.417 13.66C249.557 14.0133 249.627 14.4367 249.627 14.93V18H248.877V14.76C248.877 14.2933 248.764 13.9233 248.537 13.65C248.311 13.3767 247.984 13.24 247.557 13.24C247.117 13.24 246.767 13.3833 246.507 13.67C246.254 13.95 246.127 14.33 246.127 14.81V18H245.377V14.76C245.377 14.2933 245.264 13.9233 245.037 13.65C244.811 13.3767 244.484 13.24 244.057 13.24C243.617 13.24 243.267 13.3833 243.007 13.67C242.754 13.95 242.627 14.33 242.627 14.81V18H241.877ZM250.987 20.06V19.39H251.667C251.901 19.39 252.101 19.36 252.267 19.3C252.434 19.2467 252.574 19.15 252.687 19.01C252.801 18.87 252.897 18.6767 252.977 18.43L254.757 12.71H255.487L253.627 18.64C253.521 18.98 253.374 19.2533 253.187 19.46C253.001 19.6733 252.777 19.8267 252.517 19.92C252.257 20.0133 251.961 20.06 251.627 20.06H250.987ZM252.707 17.87V17.24H253.657V17.87H252.707ZM252.617 17.87L250.697 12.71H251.467L253.317 17.87H252.617ZM261.363 18.17C260.916 18.17 260.526 18.0933 260.193 17.94C259.866 17.78 259.593 17.5667 259.373 17.3C259.153 17.0267 258.986 16.7267 258.873 16.4C258.766 16.0733 258.713 15.7433 258.713 15.41V15.27C258.713 14.93 258.766 14.6 258.873 14.28C258.986 13.9533 259.153 13.66 259.373 13.4C259.593 13.1333 259.866 12.9233 260.193 12.77C260.526 12.61 260.91 12.53 261.343 12.53C261.783 12.53 262.173 12.61 262.513 12.77C262.86 12.93 263.14 13.1567 263.353 13.45C263.566 13.7433 263.693 14.09 263.733 14.49H263.013C262.953 14.1233 262.78 13.82 262.493 13.58C262.213 13.3333 261.83 13.21 261.343 13.21C260.923 13.21 260.573 13.3067 260.293 13.5C260.02 13.6867 259.813 13.9433 259.673 14.27C259.533 14.59 259.463 14.9467 259.463 15.34C259.463 15.7267 259.533 16.0867 259.673 16.42C259.813 16.7467 260.023 17.01 260.303 17.21C260.583 17.4033 260.936 17.5 261.363 17.5C261.69 17.5 261.973 17.4433 262.213 17.33C262.46 17.21 262.656 17.05 262.803 16.85C262.956 16.65 263.046 16.43 263.073 16.19H263.793C263.766 16.59 263.64 16.94 263.413 17.24C263.193 17.5333 262.906 17.7633 262.553 17.93C262.2 18.09 261.803 18.17 261.363 18.17ZM266.998 18.15C266.365 18.15 265.882 17.9467 265.548 17.54C265.215 17.1267 265.048 16.5533 265.048 15.82V12.7H265.788V15.97C265.788 16.43 265.908 16.7967 266.148 17.07C266.395 17.3367 266.735 17.47 267.168 17.47C267.622 17.47 267.982 17.3267 268.248 17.04C268.522 16.7533 268.658 16.37 268.658 15.89V12.7H269.408V18H268.808V15.79H268.928C268.928 16.2833 268.858 16.7067 268.718 17.06C268.578 17.4067 268.368 17.6767 268.088 17.87C267.808 18.0567 267.455 18.15 267.028 18.15H266.998ZM273.039 18.15C272.359 18.15 271.836 18.0033 271.469 17.71C271.103 17.41 270.916 17.01 270.909 16.51H271.609C271.623 16.7633 271.736 16.9933 271.949 17.2C272.169 17.4067 272.533 17.51 273.039 17.51C273.513 17.51 273.866 17.4133 274.099 17.22C274.339 17.02 274.459 16.78 274.459 16.5C274.459 16.24 274.359 16.04 274.159 15.9C273.966 15.7533 273.683 15.66 273.309 15.62L272.709 15.56C272.229 15.5067 271.839 15.36 271.539 15.12C271.246 14.8733 271.099 14.5367 271.099 14.11C271.099 13.7967 271.179 13.5233 271.339 13.29C271.499 13.0567 271.723 12.8767 272.009 12.75C272.303 12.6167 272.646 12.55 273.039 12.55C273.606 12.55 274.066 12.6833 274.419 12.95C274.779 13.2167 274.963 13.5967 274.969 14.09H274.269C274.263 13.8367 274.156 13.6233 273.949 13.45C273.743 13.2767 273.439 13.19 273.039 13.19C272.626 13.19 272.316 13.28 272.109 13.46C271.909 13.64 271.809 13.86 271.809 14.12C271.809 14.34 271.886 14.5233 272.039 14.67C272.193 14.81 272.433 14.8967 272.759 14.93L273.359 14.99C273.893 15.05 274.326 15.2033 274.659 15.45C274.999 15.6967 275.169 16.05 275.169 16.51C275.169 16.8233 275.079 17.1067 274.899 17.36C274.726 17.6067 274.479 17.8 274.159 17.94C273.839 18.08 273.466 18.15 273.039 18.15ZM278.582 18.06C278.216 18.06 277.899 18.0067 277.632 17.9C277.366 17.7933 277.159 17.6133 277.012 17.36C276.866 17.1 276.792 16.7533 276.792 16.32V11.04H277.512V16.43C277.512 16.7367 277.596 16.9733 277.762 17.14C277.929 17.3 278.166 17.38 278.472 17.38H279.422V18.06H278.582ZM275.842 13.28V12.71H279.422V13.28H275.842ZM283.193 18.17C282.739 18.17 282.339 18.0933 281.993 17.94C281.653 17.78 281.363 17.57 281.123 17.31C280.889 17.0433 280.709 16.7467 280.583 16.42C280.463 16.0933 280.403 15.76 280.403 15.42V15.28C280.403 14.94 280.466 14.6067 280.593 14.28C280.719 13.9467 280.903 13.65 281.143 13.39C281.383 13.13 281.673 12.9233 282.013 12.77C282.359 12.61 282.753 12.53 283.193 12.53C283.639 12.53 284.033 12.61 284.373 12.77C284.719 12.9233 285.013 13.13 285.253 13.39C285.493 13.65 285.673 13.9467 285.793 14.28C285.919 14.6067 285.983 14.94 285.983 15.28V15.42C285.983 15.76 285.923 16.0933 285.803 16.42C285.683 16.7467 285.503 17.0433 285.263 17.31C285.029 17.57 284.739 17.78 284.393 17.94C284.046 18.0933 283.646 18.17 283.193 18.17ZM283.193 17.5C283.633 17.5 284.003 17.4033 284.303 17.21C284.609 17.01 284.843 16.75 285.003 16.43C285.163 16.1033 285.243 15.7433 285.243 15.35C285.243 14.95 285.159 14.59 284.993 14.27C284.833 13.9433 284.599 13.6867 284.293 13.5C283.986 13.3067 283.619 13.21 283.193 13.21C282.773 13.21 282.409 13.3067 282.103 13.5C281.796 13.6867 281.559 13.9433 281.393 14.27C281.233 14.59 281.153 14.95 281.153 15.35C281.153 15.7433 281.233 16.1033 281.393 16.43C281.553 16.75 281.783 17.01 282.083 17.21C282.389 17.4033 282.759 17.5 283.193 17.5ZM287.512 18V12.7H288.112V14.93H287.992C287.992 14.4433 288.059 14.0233 288.192 13.67C288.332 13.3167 288.539 13.0433 288.812 12.85C289.085 12.65 289.432 12.55 289.852 12.55H289.882C290.302 12.55 290.649 12.6467 290.922 12.84C291.195 13.0333 291.399 13.3067 291.532 13.66C291.665 14.0133 291.732 14.4367 291.732 14.93H291.492C291.492 14.4433 291.559 14.0233 291.692 13.67C291.832 13.3167 292.039 13.0433 292.312 12.85C292.592 12.65 292.942 12.55 293.362 12.55H293.392C293.812 12.55 294.159 12.6467 294.432 12.84C294.712 13.0333 294.919 13.3067 295.052 13.66C295.192 14.0133 295.262 14.4367 295.262 14.93V18H294.512V14.76C294.512 14.2933 294.399 13.9233 294.172 13.65C293.945 13.3767 293.619 13.24 293.192 13.24C292.752 13.24 292.402 13.3833 292.142 13.67C291.889 13.95 291.762 14.33 291.762 14.81V18H291.012V14.76C291.012 14.2933 290.899 13.9233 290.672 13.65C290.445 13.3767 290.119 13.24 289.692 13.24C289.252 13.24 288.902 13.3833 288.642 13.67C288.389 13.95 288.262 14.33 288.262 14.81V18H287.512ZM301.135 18.15C300.455 18.15 299.932 18.0033 299.565 17.71C299.198 17.41 299.012 17.01 299.005 16.51H299.705C299.718 16.7633 299.832 16.9933 300.045 17.2C300.265 17.4067 300.628 17.51 301.135 17.51C301.608 17.51 301.962 17.4133 302.195 17.22C302.435 17.02 302.555 16.78 302.555 16.5C302.555 16.24 302.455 16.04 302.255 15.9C302.062 15.7533 301.778 15.66 301.405 15.62L300.805 15.56C300.325 15.5067 299.935 15.36 299.635 15.12C299.342 14.8733 299.195 14.5367 299.195 14.11C299.195 13.7967 299.275 13.5233 299.435 13.29C299.595 13.0567 299.818 12.8767 300.105 12.75C300.398 12.6167 300.742 12.55 301.135 12.55C301.702 12.55 302.162 12.6833 302.515 12.95C302.875 13.2167 303.058 13.5967 303.065 14.09H302.365C302.358 13.8367 302.252 13.6233 302.045 13.45C301.838 13.2767 301.535 13.19 301.135 13.19C300.722 13.19 300.412 13.28 300.205 13.46C300.005 13.64 299.905 13.86 299.905 14.12C299.905 14.34 299.982 14.5233 300.135 14.67C300.288 14.81 300.528 14.8967 300.855 14.93L301.455 14.99C301.988 15.05 302.422 15.2033 302.755 15.45C303.095 15.6967 303.265 16.05 303.265 16.51C303.265 16.8233 303.175 17.1067 302.995 17.36C302.822 17.6067 302.575 17.8 302.255 17.94C301.935 18.08 301.562 18.15 301.135 18.15ZM304.259 20.06V19.39H304.939C305.172 19.39 305.372 19.36 305.539 19.3C305.705 19.2467 305.845 19.15 305.959 19.01C306.072 18.87 306.169 18.6767 306.249 18.43L308.029 12.71H308.759L306.899 18.64C306.792 18.98 306.645 19.2533 306.459 19.46C306.272 19.6733 306.049 19.8267 305.789 19.92C305.529 20.0133 305.232 20.06 304.899 20.06H304.259ZM305.979 17.87V17.24H306.929V17.87H305.979ZM305.889 17.87L303.969 12.71H304.739L306.589 17.87H305.889ZM311.711 18.15C311.031 18.15 310.508 18.0033 310.141 17.71C309.775 17.41 309.588 17.01 309.581 16.51H310.281C310.295 16.7633 310.408 16.9933 310.621 17.2C310.841 17.4067 311.205 17.51 311.711 17.51C312.185 17.51 312.538 17.4133 312.771 17.22C313.011 17.02 313.131 16.78 313.131 16.5C313.131 16.24 313.031 16.04 312.831 15.9C312.638 15.7533 312.355 15.66 311.981 15.62L311.381 15.56C310.901 15.5067 310.511 15.36 310.211 15.12C309.918 14.8733 309.771 14.5367 309.771 14.11C309.771 13.7967 309.851 13.5233 310.011 13.29C310.171 13.0567 310.395 12.8767 310.681 12.75C310.975 12.6167 311.318 12.55 311.711 12.55C312.278 12.55 312.738 12.6833 313.091 12.95C313.451 13.2167 313.635 13.5967 313.641 14.09H312.941C312.935 13.8367 312.828 13.6233 312.621 13.45C312.415 13.2767 312.111 13.19 311.711 13.19C311.298 13.19 310.988 13.28 310.781 13.46C310.581 13.64 310.481 13.86 310.481 14.12C310.481 14.34 310.558 14.5233 310.711 14.67C310.865 14.81 311.105 14.8967 311.431 14.93L312.031 14.99C312.565 15.05 312.998 15.2033 313.331 15.45C313.671 15.6967 313.841 16.05 313.841 16.51C313.841 16.8233 313.751 17.1067 313.571 17.36C313.398 17.6067 313.151 17.8 312.831 17.94C312.511 18.08 312.138 18.15 311.711 18.15ZM317.254 18.06C316.888 18.06 316.571 18.0067 316.304 17.9C316.038 17.7933 315.831 17.6133 315.684 17.36C315.538 17.1 315.464 16.7533 315.464 16.32V11.04H316.184V16.43C316.184 16.7367 316.268 16.9733 316.434 17.14C316.601 17.3 316.838 17.38 317.144 17.38H318.094V18.06H317.254ZM314.514 13.28V12.71H318.094V13.28H314.514ZM321.704 18.17C321.251 18.17 320.858 18.0933 320.524 17.94C320.191 17.78 319.918 17.57 319.704 17.31C319.491 17.0433 319.331 16.7467 319.224 16.42C319.124 16.0933 319.074 15.7567 319.074 15.41V15.27C319.074 14.93 319.124 14.5967 319.224 14.27C319.331 13.9433 319.491 13.65 319.704 13.39C319.918 13.13 320.184 12.9233 320.504 12.77C320.831 12.61 321.211 12.53 321.644 12.53C322.198 12.53 322.658 12.6533 323.024 12.9C323.398 13.1467 323.678 13.4633 323.864 13.85C324.051 14.23 324.144 14.64 324.144 15.08V15.47H319.414V14.89H323.624L323.434 15.18C323.434 14.7867 323.364 14.4433 323.224 14.15C323.091 13.85 322.891 13.6167 322.624 13.45C322.364 13.2767 322.038 13.19 321.644 13.19C321.231 13.19 320.888 13.2867 320.614 13.48C320.341 13.6733 320.134 13.93 319.994 14.25C319.861 14.57 319.794 14.9333 319.794 15.34C319.794 15.74 319.861 16.1067 319.994 16.44C320.134 16.7667 320.344 17.0267 320.624 17.22C320.911 17.4133 321.271 17.51 321.704 17.51C322.164 17.51 322.538 17.4067 322.824 17.2C323.111 16.9867 323.288 16.7367 323.354 16.45H324.054C323.988 16.8033 323.848 17.11 323.634 17.37C323.421 17.6233 323.151 17.82 322.824 17.96C322.498 18.1 322.124 18.17 321.704 18.17ZM325.588 18V12.7H326.188V14.93H326.068C326.068 14.4433 326.135 14.0233 326.268 13.67C326.408 13.3167 326.615 13.0433 326.888 12.85C327.161 12.65 327.508 12.55 327.928 12.55H327.958C328.378 12.55 328.725 12.6467 328.998 12.84C329.271 13.0333 329.475 13.3067 329.608 13.66C329.741 14.0133 329.808 14.4367 329.808 14.93H329.568C329.568 14.4433 329.635 14.0233 329.768 13.67C329.908 13.3167 330.115 13.0433 330.388 12.85C330.668 12.65 331.018 12.55 331.438 12.55H331.468C331.888 12.55 332.235 12.6467 332.508 12.84C332.788 13.0333 332.995 13.3067 333.128 13.66C333.268 14.0133 333.338 14.4367 333.338 14.93V18H332.588V14.76C332.588 14.2933 332.475 13.9233 332.248 13.65C332.021 13.3767 331.695 13.24 331.268 13.24C330.828 13.24 330.478 13.3833 330.218 13.67C329.965 13.95 329.838 14.33 329.838 14.81V18H329.088V14.76C329.088 14.2933 328.975 13.9233 328.748 13.65C328.521 13.3767 328.195 13.24 327.768 13.24C327.328 13.24 326.978 13.3833 326.718 13.67C326.465 13.95 326.338 14.33 326.338 14.81V18H325.588ZM336.054 15.98V14.13H336.634C337.141 14.13 337.524 13.99 337.784 13.71C338.044 13.4233 338.174 13.07 338.174 12.65C338.174 12.3433 338.111 12.08 337.984 11.86C337.857 11.64 337.681 11.47 337.454 11.35C337.234 11.23 336.981 11.17 336.694 11.17C336.374 11.17 336.094 11.2367 335.854 11.37C335.621 11.5033 335.437 11.69 335.304 11.93C335.177 12.17 335.114 12.4467 335.114 12.76H334.394C334.394 12.3533 334.481 11.98 334.654 11.64C334.834 11.3 335.094 11.0267 335.434 10.82C335.781 10.6133 336.201 10.51 336.694 10.51C337.141 10.51 337.527 10.6067 337.854 10.8C338.187 10.9867 338.444 11.2367 338.624 11.55C338.804 11.8633 338.894 12.21 338.894 12.59V12.7C338.894 13.0733 338.807 13.4167 338.634 13.73C338.461 14.0433 338.201 14.2933 337.854 14.48C337.507 14.6667 337.077 14.76 336.564 14.76L336.814 14.39L336.804 15.98H336.054ZM335.964 18V17.01H336.894V18H335.964Z" fill="#404040"/>
</svg>
