<svg width="19" height="19" viewBox="0 0 19 19" fill="none" xmlns="http://www.w3.org/2000/svg">
<path d="M9.49935 9.50008C8.62852 9.50008 7.88303 9.19001 7.26289 8.56987C6.64275 7.94973 6.33268 7.20425 6.33268 6.33341C6.33268 5.46258 6.64275 4.7171 7.26289 4.09696C7.88303 3.47682 8.62852 3.16675 9.49935 3.16675C10.3702 3.16675 11.1157 3.47682 11.7358 4.09696C12.3559 4.7171 12.666 5.46258 12.666 6.33341C12.666 7.20425 12.3559 7.94973 11.7358 8.56987C11.1157 9.19001 10.3702 9.50008 9.49935 9.50008ZM3.16602 15.8334V13.6167C3.16602 13.1681 3.28147 12.7558 3.51237 12.3798C3.74327 12.0037 4.05004 11.7167 4.43268 11.5188C5.25074 11.1098 6.08199 10.803 6.92643 10.5985C7.77088 10.394 8.62852 10.2917 9.49935 10.2917C10.3702 10.2917 11.2278 10.394 12.0723 10.5985C12.9167 10.803 13.748 11.1098 14.566 11.5188C14.9487 11.7167 15.2554 12.0037 15.4863 12.3798C15.7172 12.7558 15.8327 13.1681 15.8327 13.6167V15.8334H3.16602ZM4.74935 14.2501H14.2493V13.6167C14.2493 13.4716 14.2131 13.3397 14.1405 13.2209C14.0679 13.1022 13.9723 13.0098 13.8535 12.9438C13.141 12.5876 12.4219 12.3204 11.6962 12.1423C10.9705 11.9641 10.2382 11.8751 9.49935 11.8751C8.76046 11.8751 8.02817 11.9641 7.30247 12.1423C6.57678 12.3204 5.85768 12.5876 5.14518 12.9438C5.02643 13.0098 4.93077 13.1022 4.8582 13.2209C4.78563 13.3397 4.74935 13.4716 4.74935 13.6167V14.2501ZM9.49935 7.91675C9.93477 7.91675 10.3075 7.76171 10.6176 7.45164C10.9276 7.14157 11.0827 6.76883 11.0827 6.33341C11.0827 5.898 10.9276 5.52525 10.6176 5.21519C10.3075 4.90512 9.93477 4.75008 9.49935 4.75008C9.06393 4.75008 8.69119 4.90512 8.38112 5.21519C8.07105 5.52525 7.91602 5.898 7.91602 6.33341C7.91602 6.76883 8.07105 7.14157 8.38112 7.45164C8.69119 7.76171 9.06393 7.91675 9.49935 7.91675Z" fill="#717171"/>
</svg>
