<svg width="297" height="41" viewBox="0 0 297 41" fill="none" xmlns="http://www.w3.org/2000/svg">
<g filter="url(#filter0_ddiiii_1184_1304)">
<rect x="3" y="3" width="291" height="35" rx="10" fill="#ECECEC"/>
</g>
<g clip-path="url(#clip0_1184_1304)">
<path d="M21.875 23.875L20.2437 22.2437M21.125 20.125C21.125 21.7819 19.7819 23.125 18.125 23.125C16.4681 23.125 15.125 21.7819 15.125 20.125C15.125 18.4681 16.4681 17.125 18.125 17.125C19.7819 17.125 21.125 18.4681 21.125 20.125Z" stroke="url(#paint0_radial_1184_1304)" stroke-width="0.514286" stroke-linecap="round" stroke-linejoin="round"/>
</g>
<path d="M28.33 24L31.02 16.7H32.38L35.16 24H34.38L31.79 17.18L32.2 17.39H31.15L31.58 17.18L29.09 24H28.33ZM29.77 21.68L30.02 20.99H33.41L33.67 21.68H29.77ZM38.1107 24.15C37.4307 24.15 36.9074 24.0033 36.5407 23.71C36.174 23.41 35.9874 23.01 35.9807 22.51H36.6807C36.694 22.7633 36.8074 22.9933 37.0207 23.2C37.2407 23.4067 37.604 23.51 38.1107 23.51C38.584 23.51 38.9374 23.4133 39.1707 23.22C39.4107 23.02 39.5307 22.78 39.5307 22.5C39.5307 22.24 39.4307 22.04 39.2307 21.9C39.0374 21.7533 38.754 21.66 38.3807 21.62L37.7807 21.56C37.3007 21.5067 36.9107 21.36 36.6107 21.12C36.3174 20.8733 36.1707 20.5367 36.1707 20.11C36.1707 19.7967 36.2507 19.5233 36.4107 19.29C36.5707 19.0567 36.794 18.8767 37.0807 18.75C37.374 18.6167 37.7174 18.55 38.1107 18.55C38.6774 18.55 39.1374 18.6833 39.4907 18.95C39.8507 19.2167 40.034 19.5967 40.0407 20.09H39.3407C39.334 19.8367 39.2274 19.6233 39.0207 19.45C38.814 19.2767 38.5107 19.19 38.1107 19.19C37.6974 19.19 37.3874 19.28 37.1807 19.46C36.9807 19.64 36.8807 19.86 36.8807 20.12C36.8807 20.34 36.9574 20.5233 37.1107 20.67C37.264 20.81 37.504 20.8967 37.8307 20.93L38.4307 20.99C38.964 21.05 39.3974 21.2033 39.7307 21.45C40.0707 21.6967 40.2407 22.05 40.2407 22.51C40.2407 22.8233 40.1507 23.1067 39.9707 23.36C39.7974 23.6067 39.5507 23.8 39.2307 23.94C38.9107 24.08 38.5374 24.15 38.1107 24.15ZM45.3337 24L43.2037 21.52H42.3437L44.8537 18.71H45.6537L43.4037 21.22L43.4537 20.81L46.2137 24H45.3337ZM41.7337 24V16.7H42.4837V24H41.7337ZM52.0659 24.17C51.4526 24.17 50.9359 24.0733 50.5159 23.88C50.0959 23.68 49.7759 23.4067 49.5559 23.06C49.3426 22.7067 49.2359 22.31 49.2359 21.87H49.9959C49.9959 22.15 50.0626 22.4133 50.1959 22.66C50.3359 22.9 50.5559 23.0967 50.8559 23.25C51.1626 23.3967 51.5659 23.47 52.0659 23.47C52.5259 23.47 52.9059 23.4033 53.2059 23.27C53.5126 23.1367 53.7393 22.9567 53.8859 22.73C54.0393 22.5033 54.1159 22.25 54.1159 21.97C54.1159 21.6167 53.9759 21.3233 53.6959 21.09C53.4226 20.85 53.0093 20.7067 52.4559 20.66L51.6159 20.58C50.9893 20.5267 50.4893 20.3333 50.1159 20C49.7493 19.66 49.5659 19.2133 49.5659 18.66C49.5659 18.24 49.6659 17.87 49.8659 17.55C50.0659 17.23 50.3493 16.9767 50.7159 16.79C51.0893 16.6033 51.5359 16.51 52.0559 16.51C52.5826 16.51 53.0326 16.6067 53.4059 16.8C53.7859 16.9867 54.0759 17.2467 54.2759 17.58C54.4759 17.9133 54.5759 18.3 54.5759 18.74H53.8159C53.8159 18.4733 53.7559 18.2233 53.6359 17.99C53.5159 17.7567 53.3259 17.57 53.0659 17.43C52.8059 17.2833 52.4693 17.21 52.0559 17.21C51.6626 17.21 51.3359 17.2767 51.0759 17.41C50.8226 17.5433 50.6326 17.72 50.5059 17.94C50.3859 18.16 50.3259 18.4 50.3259 18.66C50.3259 18.9867 50.4426 19.2633 50.6759 19.49C50.9093 19.7167 51.2459 19.8467 51.6859 19.88L52.5259 19.96C53.0193 20 53.4393 20.11 53.7859 20.29C54.1393 20.4633 54.4093 20.6933 54.5959 20.98C54.7826 21.26 54.8759 21.59 54.8759 21.97C54.8759 22.3967 54.7593 22.7767 54.5259 23.11C54.2993 23.4433 53.9759 23.7033 53.5559 23.89C53.1359 24.0767 52.6393 24.17 52.0659 24.17ZM56.5286 24V18.7H57.1286V20.93H57.0086C57.0086 20.4433 57.0753 20.0233 57.2086 19.67C57.3486 19.3167 57.5553 19.0433 57.8286 18.85C58.1019 18.65 58.4486 18.55 58.8686 18.55H58.8986C59.3186 18.55 59.6653 18.6467 59.9386 18.84C60.2119 19.0333 60.4153 19.3067 60.5486 19.66C60.6819 20.0133 60.7486 20.4367 60.7486 20.93H60.5086C60.5086 20.4433 60.5753 20.0233 60.7086 19.67C60.8486 19.3167 61.0553 19.0433 61.3286 18.85C61.6086 18.65 61.9586 18.55 62.3786 18.55H62.4086C62.8286 18.55 63.1753 18.6467 63.4486 18.84C63.7286 19.0333 63.9353 19.3067 64.0686 19.66C64.2086 20.0133 64.2786 20.4367 64.2786 20.93V24H63.5286V20.76C63.5286 20.2933 63.4153 19.9233 63.1886 19.65C62.9619 19.3767 62.6353 19.24 62.2086 19.24C61.7686 19.24 61.4186 19.3833 61.1586 19.67C60.9053 19.95 60.7786 20.33 60.7786 20.81V24H60.0286V20.76C60.0286 20.2933 59.9153 19.9233 59.6886 19.65C59.4619 19.3767 59.1353 19.24 58.7086 19.24C58.2686 19.24 57.9186 19.3833 57.6586 19.67C57.4053 19.95 57.2786 20.33 57.2786 20.81V24H56.5286ZM66.4277 24V18.71H67.1677V24H66.4277ZM65.5777 19.31V18.71H67.1677V19.31H65.5777ZM66.5877 17.73C66.4077 17.73 66.2711 17.6833 66.1777 17.59C66.0911 17.49 66.0477 17.3667 66.0477 17.22C66.0477 17.0733 66.0911 16.9533 66.1777 16.86C66.2711 16.76 66.4077 16.71 66.5877 16.71C66.7677 16.71 66.9011 16.76 66.9877 16.86C67.0744 16.9533 67.1177 17.0733 67.1177 17.22C67.1177 17.3667 67.0744 17.49 66.9877 17.59C66.9011 17.6833 66.7677 17.73 66.5877 17.73ZM71.056 24.06C70.6893 24.06 70.3727 24.0067 70.106 23.9C69.8393 23.7933 69.6327 23.6133 69.486 23.36C69.3393 23.1 69.266 22.7533 69.266 22.32V17.04H69.986V22.43C69.986 22.7367 70.0693 22.9733 70.236 23.14C70.4027 23.3 70.6393 23.38 70.946 23.38H71.896V24.06H71.056ZM68.316 19.28V18.71H71.896V19.28H68.316ZM73.345 24V16.7H74.095V20.83L73.875 21C73.875 20.5067 73.945 20.0767 74.085 19.71C74.2317 19.3433 74.4483 19.06 74.735 18.86C75.0283 18.6533 75.395 18.55 75.835 18.55H75.875C76.515 18.55 76.9983 18.76 77.325 19.18C77.6583 19.6 77.825 20.1833 77.825 20.93V24H77.085V20.77C77.085 20.2967 76.955 19.9233 76.695 19.65C76.435 19.3767 76.085 19.24 75.645 19.24C75.1717 19.24 74.795 19.3933 74.515 19.7C74.235 20 74.095 20.3967 74.095 20.89V24H73.345ZM85.2466 24V22.41H85.1266V20.53C85.1266 20.1367 85.0233 19.8367 84.8166 19.63C84.61 19.4167 84.29 19.31 83.8566 19.31C83.6566 19.31 83.4533 19.3133 83.2466 19.32C83.0466 19.3267 82.8533 19.3367 82.6666 19.35C82.4866 19.3567 82.3266 19.3667 82.1866 19.38V18.72C82.3333 18.7067 82.4833 18.6933 82.6366 18.68C82.79 18.6667 82.9466 18.66 83.1066 18.66C83.2733 18.6533 83.4333 18.65 83.5866 18.65C84.1266 18.65 84.56 18.7167 84.8866 18.85C85.22 18.9833 85.4633 19.1933 85.6166 19.48C85.77 19.76 85.8466 20.1333 85.8466 20.6V24H85.2466ZM83.4566 24.14C83.0833 24.14 82.7533 24.0733 82.4666 23.94C82.18 23.8067 81.9566 23.6133 81.7966 23.36C81.6433 23.1067 81.5666 22.8 81.5666 22.44C81.5666 22.0867 81.6466 21.7867 81.8066 21.54C81.9733 21.2933 82.21 21.1067 82.5166 20.98C82.83 20.8467 83.2066 20.78 83.6466 20.78H85.1966V21.35H83.5966C83.1766 21.35 82.8533 21.4533 82.6266 21.66C82.4066 21.86 82.2966 22.1233 82.2966 22.45C82.2966 22.7833 82.4133 23.05 82.6466 23.25C82.88 23.4433 83.1966 23.54 83.5966 23.54C83.8433 23.54 84.08 23.4967 84.3066 23.41C84.5333 23.3167 84.7233 23.1633 84.8766 22.95C85.03 22.73 85.1133 22.43 85.1266 22.05L85.3466 22.36C85.32 22.7533 85.2266 23.0833 85.0666 23.35C84.9066 23.61 84.69 23.8067 84.4166 23.94C84.1433 24.0733 83.8233 24.14 83.4566 24.14ZM90.45 24.17C89.9833 24.17 89.5733 24.0667 89.22 23.86C88.8733 23.6533 88.6 23.3633 88.4 22.99C88.2067 22.6167 88.1033 22.1867 88.09 21.7H88.32V24H87.72V16.7H88.47V20.35L88.18 21.02C88.1933 20.4867 88.3 20.0367 88.5 19.67C88.7067 19.2967 88.98 19.0133 89.32 18.82C89.6667 18.6267 90.06 18.53 90.5 18.53C90.8867 18.53 91.2367 18.6033 91.55 18.75C91.8633 18.8967 92.13 19.0967 92.35 19.35C92.5767 19.6033 92.7467 19.8967 92.86 20.23C92.98 20.5567 93.04 20.9033 93.04 21.27V21.41C93.04 21.77 92.98 22.1167 92.86 22.45C92.74 22.7767 92.5667 23.07 92.34 23.33C92.12 23.59 91.85 23.7967 91.53 23.95C91.21 24.0967 90.85 24.17 90.45 24.17ZM90.37 23.51C90.77 23.51 91.1133 23.4133 91.4 23.22C91.6867 23.0267 91.9067 22.7667 92.06 22.44C92.2133 22.1133 92.29 21.7467 92.29 21.34C92.29 20.9267 92.21 20.56 92.05 20.24C91.8967 19.9133 91.6733 19.6567 91.38 19.47C91.0933 19.2833 90.7567 19.19 90.37 19.19C90.01 19.19 89.6833 19.27 89.39 19.43C89.0967 19.59 88.8633 19.8167 88.69 20.11C88.5233 20.3967 88.44 20.7367 88.44 21.13V21.62C88.44 21.9933 88.5233 22.3233 88.69 22.61C88.8633 22.89 89.0967 23.11 89.39 23.27C89.6833 23.43 90.01 23.51 90.37 23.51ZM96.9259 24.17C96.4726 24.17 96.0726 24.0933 95.7259 23.94C95.3859 23.78 95.0959 23.57 94.8559 23.31C94.6226 23.0433 94.4426 22.7467 94.3159 22.42C94.1959 22.0933 94.1359 21.76 94.1359 21.42V21.28C94.1359 20.94 94.1993 20.6067 94.3259 20.28C94.4526 19.9467 94.6359 19.65 94.8759 19.39C95.1159 19.13 95.4059 18.9233 95.7459 18.77C96.0926 18.61 96.4859 18.53 96.9259 18.53C97.3726 18.53 97.7659 18.61 98.1059 18.77C98.4526 18.9233 98.7459 19.13 98.9859 19.39C99.2259 19.65 99.4059 19.9467 99.5259 20.28C99.6526 20.6067 99.7159 20.94 99.7159 21.28V21.42C99.7159 21.76 99.6559 22.0933 99.5359 22.42C99.4159 22.7467 99.2359 23.0433 98.9959 23.31C98.7626 23.57 98.4726 23.78 98.1259 23.94C97.7793 24.0933 97.3793 24.17 96.9259 24.17ZM96.9259 23.5C97.3659 23.5 97.7359 23.4033 98.0359 23.21C98.3426 23.01 98.5759 22.75 98.7359 22.43C98.8959 22.1033 98.9759 21.7433 98.9759 21.35C98.9759 20.95 98.8926 20.59 98.7259 20.27C98.5659 19.9433 98.3326 19.6867 98.0259 19.5C97.7193 19.3067 97.3526 19.21 96.9259 19.21C96.5059 19.21 96.1426 19.3067 95.8359 19.5C95.5293 19.6867 95.2926 19.9433 95.1259 20.27C94.9659 20.59 94.8859 20.95 94.8859 21.35C94.8859 21.7433 94.9659 22.1033 95.1259 22.43C95.2859 22.75 95.5159 23.01 95.8159 23.21C96.1226 23.4033 96.4926 23.5 96.9259 23.5ZM103.075 24.15C102.442 24.15 101.959 23.9467 101.625 23.54C101.292 23.1267 101.125 22.5533 101.125 21.82V18.7H101.865V21.97C101.865 22.43 101.985 22.7967 102.225 23.07C102.472 23.3367 102.812 23.47 103.245 23.47C103.699 23.47 104.059 23.3267 104.325 23.04C104.599 22.7533 104.735 22.37 104.735 21.89V18.7H105.485V24H104.885V21.79H105.005C105.005 22.2833 104.935 22.7067 104.795 23.06C104.655 23.4067 104.445 23.6767 104.165 23.87C103.885 24.0567 103.532 24.15 103.105 24.15H103.075ZM109.367 24.06C109 24.06 108.683 24.0067 108.417 23.9C108.15 23.7933 107.943 23.6133 107.797 23.36C107.65 23.1 107.577 22.7533 107.577 22.32V17.04H108.297V22.43C108.297 22.7367 108.38 22.9733 108.547 23.14C108.713 23.3 108.95 23.38 109.257 23.38H110.207V24.06H109.367ZM106.627 19.28V18.71H110.207V19.28H106.627ZM113.52 26.06V25.39H114.2C114.433 25.39 114.633 25.36 114.8 25.3C114.966 25.2467 115.106 25.15 115.22 25.01C115.333 24.87 115.43 24.6767 115.51 24.43L117.29 18.71H118.02L116.16 24.64C116.053 24.98 115.906 25.2533 115.72 25.46C115.533 25.6733 115.31 25.8267 115.05 25.92C114.79 26.0133 114.493 26.06 114.16 26.06H113.52ZM115.24 23.87V23.24H116.19V23.87H115.24ZM115.15 23.87L113.23 18.71H114L115.85 23.87H115.15ZM121.613 24.17C121.16 24.17 120.76 24.0933 120.413 23.94C120.073 23.78 119.783 23.57 119.543 23.31C119.31 23.0433 119.13 22.7467 119.003 22.42C118.883 22.0933 118.823 21.76 118.823 21.42V21.28C118.823 20.94 118.887 20.6067 119.013 20.28C119.14 19.9467 119.323 19.65 119.563 19.39C119.803 19.13 120.093 18.9233 120.433 18.77C120.78 18.61 121.173 18.53 121.613 18.53C122.06 18.53 122.453 18.61 122.793 18.77C123.14 18.9233 123.433 19.13 123.673 19.39C123.913 19.65 124.093 19.9467 124.213 20.28C124.34 20.6067 124.403 20.94 124.403 21.28V21.42C124.403 21.76 124.343 22.0933 124.223 22.42C124.103 22.7467 123.923 23.0433 123.683 23.31C123.45 23.57 123.16 23.78 122.813 23.94C122.467 24.0933 122.067 24.17 121.613 24.17ZM121.613 23.5C122.053 23.5 122.423 23.4033 122.723 23.21C123.03 23.01 123.263 22.75 123.423 22.43C123.583 22.1033 123.663 21.7433 123.663 21.35C123.663 20.95 123.58 20.59 123.413 20.27C123.253 19.9433 123.02 19.6867 122.713 19.5C122.407 19.3067 122.04 19.21 121.613 19.21C121.193 19.21 120.83 19.3067 120.523 19.5C120.217 19.6867 119.98 19.9433 119.813 20.27C119.653 20.59 119.573 20.95 119.573 21.35C119.573 21.7433 119.653 22.1033 119.813 22.43C119.973 22.75 120.203 23.01 120.503 23.21C120.81 23.4033 121.18 23.5 121.613 23.5ZM127.763 24.15C127.13 24.15 126.646 23.9467 126.313 23.54C125.98 23.1267 125.813 22.5533 125.813 21.82V18.7H126.553V21.97C126.553 22.43 126.673 22.7967 126.913 23.07C127.16 23.3367 127.5 23.47 127.933 23.47C128.386 23.47 128.746 23.3267 129.013 23.04C129.286 22.7533 129.423 22.37 129.423 21.89V18.7H130.173V24H129.573V21.79H129.693C129.693 22.2833 129.623 22.7067 129.483 23.06C129.343 23.4067 129.133 23.6767 128.853 23.87C128.573 24.0567 128.22 24.15 127.793 24.15H127.763ZM132.134 24V18.71H132.734V20.92H132.674C132.674 20.1467 132.844 19.5767 133.184 19.21C133.524 18.8367 134.057 18.65 134.784 18.65H134.954V19.33H134.644C134.071 19.33 133.634 19.48 133.334 19.78C133.034 20.0733 132.884 20.5067 132.884 21.08V24H132.134ZM142.651 26V22.41L142.971 21.66C142.958 22.2 142.848 22.6567 142.641 23.03C142.435 23.4033 142.158 23.6867 141.811 23.88C141.471 24.0733 141.085 24.17 140.651 24.17C140.265 24.17 139.911 24.0967 139.591 23.95C139.278 23.8033 139.008 23.6 138.781 23.34C138.561 23.08 138.388 22.7833 138.261 22.45C138.141 22.1167 138.081 21.7667 138.081 21.4V21.26C138.081 20.8933 138.141 20.55 138.261 20.23C138.381 19.9033 138.555 19.6133 138.781 19.36C139.008 19.1 139.278 18.8967 139.591 18.75C139.911 18.6033 140.271 18.53 140.671 18.53C141.145 18.53 141.555 18.6367 141.901 18.85C142.255 19.0567 142.528 19.3433 142.721 19.71C142.921 20.0767 143.028 20.5067 143.041 21L142.801 20.94V18.71H143.401V26H142.651ZM140.771 23.49C141.131 23.49 141.455 23.41 141.741 23.25C142.035 23.0833 142.265 22.8533 142.431 22.56C142.598 22.2667 142.681 21.9267 142.681 21.54V21.05C142.681 20.6767 142.598 20.35 142.431 20.07C142.265 19.7833 142.035 19.5633 141.741 19.41C141.455 19.25 141.131 19.17 140.771 19.17C140.371 19.17 140.025 19.2667 139.731 19.46C139.445 19.6467 139.221 19.9033 139.061 20.23C138.908 20.5567 138.831 20.9233 138.831 21.33C138.831 21.7433 138.911 22.1133 139.071 22.44C139.231 22.7667 139.458 23.0233 139.751 23.21C140.045 23.3967 140.385 23.49 140.771 23.49ZM147.167 24.15C146.534 24.15 146.051 23.9467 145.717 23.54C145.384 23.1267 145.217 22.5533 145.217 21.82V18.7H145.957V21.97C145.957 22.43 146.077 22.7967 146.317 23.07C146.564 23.3367 146.904 23.47 147.337 23.47C147.791 23.47 148.151 23.3267 148.417 23.04C148.691 22.7533 148.827 22.37 148.827 21.89V18.7H149.577V24H148.977V21.79H149.097C149.097 22.2833 149.027 22.7067 148.887 23.06C148.747 23.4067 148.537 23.6767 148.257 23.87C147.977 24.0567 147.624 24.15 147.197 24.15H147.167ZM153.748 24.17C153.295 24.17 152.902 24.0933 152.568 23.94C152.235 23.78 151.962 23.57 151.748 23.31C151.535 23.0433 151.375 22.7467 151.268 22.42C151.168 22.0933 151.118 21.7567 151.118 21.41V21.27C151.118 20.93 151.168 20.5967 151.268 20.27C151.375 19.9433 151.535 19.65 151.748 19.39C151.962 19.13 152.228 18.9233 152.548 18.77C152.875 18.61 153.255 18.53 153.688 18.53C154.242 18.53 154.702 18.6533 155.068 18.9C155.442 19.1467 155.722 19.4633 155.908 19.85C156.095 20.23 156.188 20.64 156.188 21.08V21.47H151.458V20.89H155.668L155.478 21.18C155.478 20.7867 155.408 20.4433 155.268 20.15C155.135 19.85 154.935 19.6167 154.668 19.45C154.408 19.2767 154.082 19.19 153.688 19.19C153.275 19.19 152.932 19.2867 152.658 19.48C152.385 19.6733 152.178 19.93 152.038 20.25C151.905 20.57 151.838 20.9333 151.838 21.34C151.838 21.74 151.905 22.1067 152.038 22.44C152.178 22.7667 152.388 23.0267 152.668 23.22C152.955 23.4133 153.315 23.51 153.748 23.51C154.208 23.51 154.582 23.4067 154.868 23.2C155.155 22.9867 155.332 22.7367 155.398 22.45H156.098C156.032 22.8033 155.892 23.11 155.678 23.37C155.465 23.6233 155.195 23.82 154.868 23.96C154.542 24.1 154.168 24.17 153.748 24.17ZM157.632 24V18.71H158.232V20.92H158.172C158.172 20.1467 158.342 19.5767 158.682 19.21C159.022 18.8367 159.555 18.65 160.282 18.65H160.452V19.33H160.142C159.569 19.33 159.132 19.48 158.832 19.78C158.532 20.0733 158.382 20.5067 158.382 21.08V24H157.632ZM161.371 26.06V25.39H162.051C162.284 25.39 162.484 25.36 162.651 25.3C162.818 25.2467 162.958 25.15 163.071 25.01C163.184 24.87 163.281 24.6767 163.361 24.43L165.141 18.71H165.871L164.011 24.64C163.904 24.98 163.758 25.2533 163.571 25.46C163.384 25.6733 163.161 25.8267 162.901 25.92C162.641 26.0133 162.344 26.06 162.011 26.06H161.371ZM163.091 23.87V23.24H164.041V23.87H163.091ZM163.001 23.87L161.081 18.71H161.851L163.701 23.87H163.001Z" fill="url(#paint1_radial_1184_1304)"/>
<defs>
<filter id="filter0_ddiiii_1184_1304" x="0" y="0" width="297" height="41" filterUnits="userSpaceOnUse" color-interpolation-filters="sRGB">
<feFlood flood-opacity="0" result="BackgroundImageFix"/>
<feColorMatrix in="SourceAlpha" type="matrix" values="0 0 0 0 0 0 0 0 0 0 0 0 0 0 0 0 0 0 127 0" result="hardAlpha"/>
<feOffset dx="-1" dy="-1"/>
<feGaussianBlur stdDeviation="1"/>
<feColorMatrix type="matrix" values="0 0 0 0 0.831373 0 0 0 0 0.831373 0 0 0 0 0.831373 0 0 0 0.5 0"/>
<feBlend mode="normal" in2="BackgroundImageFix" result="effect1_dropShadow_1184_1304"/>
<feColorMatrix in="SourceAlpha" type="matrix" values="0 0 0 0 0 0 0 0 0 0 0 0 0 0 0 0 0 0 127 0" result="hardAlpha"/>
<feOffset dx="1" dy="1"/>
<feGaussianBlur stdDeviation="1"/>
<feColorMatrix type="matrix" values="0 0 0 0 1 0 0 0 0 1 0 0 0 0 1 0 0 0 0.3 0"/>
<feBlend mode="normal" in2="effect1_dropShadow_1184_1304" result="effect2_dropShadow_1184_1304"/>
<feBlend mode="normal" in="SourceGraphic" in2="effect2_dropShadow_1184_1304" result="shape"/>
<feColorMatrix in="SourceAlpha" type="matrix" values="0 0 0 0 0 0 0 0 0 0 0 0 0 0 0 0 0 0 127 0" result="hardAlpha"/>
<feOffset dx="1" dy="1"/>
<feGaussianBlur stdDeviation="1.5"/>
<feComposite in2="hardAlpha" operator="arithmetic" k2="-1" k3="1"/>
<feColorMatrix type="matrix" values="0 0 0 0 0.831373 0 0 0 0 0.831373 0 0 0 0 0.831373 0 0 0 0.9 0"/>
<feBlend mode="normal" in2="shape" result="effect3_innerShadow_1184_1304"/>
<feColorMatrix in="SourceAlpha" type="matrix" values="0 0 0 0 0 0 0 0 0 0 0 0 0 0 0 0 0 0 127 0" result="hardAlpha"/>
<feOffset dx="-1" dy="-1"/>
<feGaussianBlur stdDeviation="1"/>
<feComposite in2="hardAlpha" operator="arithmetic" k2="-1" k3="1"/>
<feColorMatrix type="matrix" values="0 0 0 0 1 0 0 0 0 1 0 0 0 0 1 0 0 0 0.9 0"/>
<feBlend mode="normal" in2="effect3_innerShadow_1184_1304" result="effect4_innerShadow_1184_1304"/>
<feColorMatrix in="SourceAlpha" type="matrix" values="0 0 0 0 0 0 0 0 0 0 0 0 0 0 0 0 0 0 127 0" result="hardAlpha"/>
<feOffset dx="1" dy="-1"/>
<feGaussianBlur stdDeviation="1"/>
<feComposite in2="hardAlpha" operator="arithmetic" k2="-1" k3="1"/>
<feColorMatrix type="matrix" values="0 0 0 0 0.831373 0 0 0 0 0.831373 0 0 0 0 0.831373 0 0 0 0.2 0"/>
<feBlend mode="normal" in2="effect4_innerShadow_1184_1304" result="effect5_innerShadow_1184_1304"/>
<feColorMatrix in="SourceAlpha" type="matrix" values="0 0 0 0 0 0 0 0 0 0 0 0 0 0 0 0 0 0 127 0" result="hardAlpha"/>
<feOffset dx="-1" dy="1"/>
<feGaussianBlur stdDeviation="1"/>
<feComposite in2="hardAlpha" operator="arithmetic" k2="-1" k3="1"/>
<feColorMatrix type="matrix" values="0 0 0 0 0.831373 0 0 0 0 0.831373 0 0 0 0 0.831373 0 0 0 0.2 0"/>
<feBlend mode="normal" in2="effect5_innerShadow_1184_1304" result="effect6_innerShadow_1184_1304"/>
</filter>
<radialGradient id="paint0_radial_1184_1304" cx="0" cy="0" r="1" gradientUnits="userSpaceOnUse" gradientTransform="translate(18.5 20.5) rotate(90) scale(3.375)">
<stop stop-color="#5A69EA"/>
<stop offset="1" stop-color="#BF8BCA"/>
</radialGradient>
<radialGradient id="paint1_radial_1184_1304" cx="0" cy="0" r="1" gradientUnits="userSpaceOnUse" gradientTransform="translate(97.5 20.5) rotate(90) scale(6.5 69.5)">
<stop stop-color="#5A69EA"/>
<stop offset="1" stop-color="#BF8BCA"/>
</radialGradient>
<clipPath id="clip0_1184_1304">
<rect width="9" height="9" fill="white" transform="translate(14 16)"/>
</clipPath>
</defs>
</svg>
