<svg width="660" height="260" viewBox="0 0 660 260" fill="none" xmlns="http://www.w3.org/2000/svg">
<path d="M0 9.99999C0 4.47714 4.47715 0 10 0H650C655.523 0 660 4.47715 660 10V137.264V250C660 255.523 655.523 260 650 260H9.99999C4.47714 260 0 255.523 0 250V153.796V9.99999Z" fill="#ECECEC"/>
<path d="M10 1H650C654.971 1 659 5.02944 659 10V250C659 254.971 654.971 259 650 259H10C5.02944 259 1 254.971 1 250V10C1 5.02944 5.02944 1 10 1Z" stroke="#717171" stroke-opacity="0.5" stroke-width="2"/>
</svg>
