<svg width="85" height="15" viewBox="0 0 85 15" fill="none" xmlns="http://www.w3.org/2000/svg">
<path d="M-0.000156254 14.6001L5.37984 9.72748e-05H8.09984L13.6598 14.6001H12.0998L6.91984 0.960097L7.73984 1.3801H5.63984L6.49984 0.960097L1.51984 14.6001H-0.000156254ZM2.87984 9.9601L3.37984 8.5801H10.1598L10.6798 9.9601H2.87984ZM20.5827 14.9401C19.676 14.9401 18.8893 14.7868 18.2227 14.4801C17.556 14.1601 17.0093 13.7401 16.5827 13.2201C16.156 12.6868 15.836 12.0934 15.6227 11.4401C15.4227 10.7868 15.3227 10.1134 15.3227 9.4201V9.1401C15.3227 8.4601 15.4227 7.79343 15.6227 7.1401C15.836 6.48676 16.156 5.9001 16.5827 5.3801C17.0093 4.8601 17.5427 4.44676 18.1827 4.1401C18.836 3.8201 19.596 3.6601 20.4627 3.6601C21.5693 3.6601 22.4893 3.90676 23.2227 4.4001C23.9693 4.89343 24.5293 5.52676 24.9027 6.3001C25.276 7.0601 25.4627 7.8801 25.4627 8.7601V9.5401H16.0027V8.3801H24.4227L24.0427 8.9601C24.0427 8.17343 23.9027 7.48676 23.6227 6.9001C23.356 6.3001 22.956 5.83343 22.4227 5.5001C21.9027 5.15343 21.2493 4.9801 20.4627 4.9801C19.636 4.9801 18.9493 5.17343 18.4027 5.5601C17.856 5.94676 17.4427 6.4601 17.1627 7.1001C16.896 7.7401 16.7627 8.46676 16.7627 9.2801C16.7627 10.0801 16.896 10.8134 17.1627 11.4801C17.4427 12.1334 17.8627 12.6534 18.4227 13.0401C18.996 13.4268 19.716 13.6201 20.5827 13.6201C21.5027 13.6201 22.2493 13.4134 22.8227 13.0001C23.396 12.5734 23.7493 12.0734 23.8827 11.5001H25.2827C25.1493 12.2068 24.8693 12.8201 24.4427 13.3401C24.016 13.8468 23.476 14.2401 22.8227 14.5201C22.1693 14.8001 21.4227 14.9401 20.5827 14.9401ZM32.7702 14.9401C31.8635 14.9401 31.0768 14.7868 30.4102 14.4801C29.7435 14.1601 29.1968 13.7401 28.7702 13.2201C28.3435 12.6868 28.0235 12.0934 27.8102 11.4401C27.6102 10.7868 27.5102 10.1134 27.5102 9.4201V9.1401C27.5102 8.4601 27.6102 7.79343 27.8102 7.1401C28.0235 6.48676 28.3435 5.9001 28.7702 5.3801C29.1968 4.8601 29.7302 4.44676 30.3702 4.1401C31.0235 3.8201 31.7835 3.6601 32.6502 3.6601C33.7568 3.6601 34.6768 3.90676 35.4102 4.4001C36.1568 4.89343 36.7168 5.52676 37.0902 6.3001C37.4635 7.0601 37.6502 7.8801 37.6502 8.7601V9.5401H28.1902V8.3801H36.6102L36.2302 8.9601C36.2302 8.17343 36.0902 7.48676 35.8102 6.9001C35.5435 6.3001 35.1435 5.83343 34.6102 5.5001C34.0902 5.15343 33.4368 4.9801 32.6502 4.9801C31.8235 4.9801 31.1368 5.17343 30.5902 5.5601C30.0435 5.94676 29.6302 6.4601 29.3502 7.1001C29.0835 7.7401 28.9502 8.46676 28.9502 9.2801C28.9502 10.0801 29.0835 10.8134 29.3502 11.4801C29.6302 12.1334 30.0502 12.6534 30.6102 13.0401C31.1835 13.4268 31.9035 13.6201 32.7702 13.6201C33.6902 13.6201 34.4368 13.4134 35.0102 13.0001C35.5835 12.5734 35.9368 12.0734 36.0702 11.5001H37.4702C37.3368 12.2068 37.0568 12.8201 36.6302 13.3401C36.2035 13.8468 35.6635 14.2401 35.0102 14.5201C34.3568 14.8001 33.6102 14.9401 32.7702 14.9401ZM44.3777 14.7201C43.6443 14.7201 43.011 14.6134 42.4777 14.4001C41.9443 14.1868 41.531 13.8268 41.2377 13.3201C40.9443 12.8001 40.7977 12.1068 40.7977 11.2401V0.680097H42.2377V11.4601C42.2377 12.0734 42.4043 12.5468 42.7377 12.8801C43.071 13.2001 43.5443 13.3601 44.1577 13.3601H46.0577V14.7201H44.3777ZM38.8977 5.1601V4.0201H46.0577V5.1601H38.8977ZM48.9556 14.6001V9.72748e-05H50.4556V8.2601L50.0156 8.6001C50.0156 7.61343 50.1556 6.75343 50.4356 6.0201C50.729 5.28676 51.1623 4.7201 51.7356 4.3201C52.3223 3.90676 53.0556 3.7001 53.9356 3.7001H54.0156C55.2956 3.7001 56.2623 4.1201 56.9156 4.9601C57.5823 5.8001 57.9156 6.96676 57.9156 8.4601V14.6001H56.4356V8.1401C56.4356 7.19343 56.1756 6.44676 55.6556 5.9001C55.1356 5.35343 54.4356 5.0801 53.5556 5.0801C52.609 5.0801 51.8556 5.38676 51.2956 6.0001C50.7356 6.6001 50.4556 7.39343 50.4556 8.3801V14.6001H48.9556ZM66.3909 14.9401C65.4843 14.9401 64.6843 14.7868 63.9909 14.4801C63.3109 14.1601 62.7309 13.7401 62.2509 13.2201C61.7843 12.6868 61.4243 12.0934 61.1709 11.4401C60.9309 10.7868 60.8109 10.1201 60.8109 9.4401V9.1601C60.8109 8.4801 60.9376 7.81343 61.1909 7.1601C61.4443 6.49343 61.8109 5.9001 62.2909 5.3801C62.7709 4.8601 63.3509 4.44676 64.0309 4.1401C64.7243 3.8201 65.5109 3.6601 66.3909 3.6601C67.2843 3.6601 68.0709 3.8201 68.7509 4.1401C69.4443 4.44676 70.0309 4.8601 70.5109 5.3801C70.9909 5.9001 71.3509 6.49343 71.5909 7.1601C71.8443 7.81343 71.9709 8.4801 71.9709 9.1601V9.4401C71.9709 10.1201 71.8509 10.7868 71.6109 11.4401C71.3709 12.0934 71.0109 12.6868 70.5309 13.2201C70.0643 13.7401 69.4843 14.1601 68.7909 14.4801C68.0976 14.7868 67.2976 14.9401 66.3909 14.9401ZM66.3909 13.6001C67.2709 13.6001 68.0109 13.4068 68.6109 13.0201C69.2243 12.6201 69.6909 12.1001 70.0109 11.4601C70.3309 10.8068 70.4909 10.0868 70.4909 9.3001C70.4909 8.5001 70.3243 7.7801 69.9909 7.1401C69.6709 6.48676 69.2043 5.97343 68.5909 5.6001C67.9776 5.21343 67.2443 5.0201 66.3909 5.0201C65.5509 5.0201 64.8243 5.21343 64.2109 5.6001C63.5976 5.97343 63.1243 6.48676 62.7909 7.1401C62.4709 7.7801 62.3109 8.5001 62.3109 9.3001C62.3109 10.0868 62.4709 10.8068 62.7909 11.4601C63.1109 12.1001 63.5709 12.6201 64.1709 13.0201C64.7843 13.4068 65.5243 13.6001 66.3909 13.6001ZM79.3698 14.9401C78.5965 14.9401 77.8898 14.8001 77.2498 14.5201C76.6232 14.2268 76.0765 13.8268 75.6098 13.3201C75.1565 12.8001 74.8032 12.2134 74.5498 11.5601C74.3098 10.8934 74.1898 10.1868 74.1898 9.4401V9.1601C74.1898 8.4401 74.3098 7.75343 74.5498 7.1001C74.7898 6.43343 75.1298 5.84676 75.5698 5.3401C76.0232 4.8201 76.5632 4.41343 77.1898 4.1201C77.8298 3.81343 78.5432 3.6601 79.3298 3.6601C80.2232 3.6601 81.0098 3.85343 81.6898 4.2401C82.3698 4.62676 82.9165 5.18676 83.3298 5.9201C83.7432 6.6401 83.9632 7.52676 83.9898 8.5801L83.3298 7.3401V9.72748e-05H84.8298V14.6001H83.6298V9.9001H84.1098C84.0832 11.0068 83.8498 11.9401 83.4098 12.7001C82.9832 13.4468 82.4165 14.0068 81.7098 14.3801C81.0165 14.7534 80.2365 14.9401 79.3698 14.9401ZM79.5698 13.6201C80.2898 13.6201 80.9365 13.4601 81.5098 13.1401C82.0965 12.8201 82.5565 12.3668 82.8898 11.7801C83.2232 11.1801 83.3898 10.4934 83.3898 9.7201V8.7601C83.3898 8.01343 83.2232 7.3601 82.8898 6.8001C82.5565 6.22676 82.0965 5.7801 81.5098 5.4601C80.9365 5.1401 80.2832 4.9801 79.5498 4.9801C78.7632 4.9801 78.0765 5.17343 77.4898 5.5601C76.9165 5.93343 76.4698 6.44676 76.1498 7.1001C75.8432 7.75343 75.6898 8.48676 75.6898 9.3001C75.6898 10.1401 75.8498 10.8868 76.1698 11.5401C76.4898 12.1934 76.9432 12.7068 77.5298 13.0801C78.1165 13.4401 78.7965 13.6201 79.5698 13.6201Z" fill="#404040"/>
</svg>
