<svg width="995" height="80" viewBox="0 0 995 80" fill="none" xmlns="http://www.w3.org/2000/svg">
<path d="M0.000656426 9.756V0.324003H2.34066V9.756H0.000656426ZM5.43666 9.756V0.324003H7.77666V9.756H5.43666ZM20.2082 26.604V2.124H22.9442V26.604H20.2082ZM12.0002 2.808V0.324003H31.1522V2.808H12.0002ZM35.6483 26.604V0.324003H38.3483V15.192L37.5563 15.804C37.5563 14.028 37.8083 12.48 38.3123 11.16C38.8403 9.84 39.6203 8.82 40.6523 8.1C41.7083 7.356 43.0283 6.984 44.6123 6.984H44.7563C47.0603 6.984 48.8003 7.74 49.9763 9.252C51.1763 10.764 51.7763 12.864 51.7763 15.552V26.604H49.1123V14.976C49.1123 13.272 48.6443 11.928 47.7083 10.944C46.7723 9.96 45.5123 9.468 43.9283 9.468C42.2243 9.468 40.8683 10.02 39.8603 11.124C38.8523 12.204 38.3483 13.632 38.3483 15.408V26.604H35.6483ZM66.4558 27.216C64.8238 27.216 63.4078 26.94 62.2078 26.388C61.0078 25.812 60.0238 25.056 59.2558 24.12C58.4878 23.16 57.9118 22.092 57.5278 20.916C57.1678 19.74 56.9878 18.528 56.9878 17.28V16.776C56.9878 15.552 57.1678 14.352 57.5278 13.176C57.9118 12 58.4878 10.944 59.2558 10.008C60.0238 9.072 60.9838 8.328 62.1358 7.776C63.3118 7.2 64.6798 6.912 66.2398 6.912C68.2318 6.912 69.8878 7.356 71.2078 8.244C72.5518 9.132 73.5598 10.272 74.2318 11.664C74.9038 13.032 75.2398 14.508 75.2398 16.092V17.496H58.2118V15.408H73.3678L72.6838 16.452C72.6838 15.036 72.4318 13.8 71.9278 12.744C71.4478 11.664 70.7278 10.824 69.7678 10.224C68.8318 9.6 67.6558 9.288 66.2398 9.288C64.7518 9.288 63.5158 9.636 62.5318 10.332C61.5478 11.028 60.8038 11.952 60.2998 13.104C59.8198 14.256 59.5798 15.564 59.5798 17.028C59.5798 18.468 59.8198 19.788 60.2998 20.988C60.8038 22.164 61.5598 23.1 62.5678 23.796C63.5998 24.492 64.8958 24.84 66.4558 24.84C68.1118 24.84 69.4558 24.468 70.4878 23.724C71.5198 22.956 72.1558 22.056 72.3958 21.024H74.9158C74.6758 22.296 74.1718 23.4 73.4038 24.336C72.6358 25.248 71.6638 25.956 70.4878 26.46C69.3118 26.964 67.9678 27.216 66.4558 27.216ZM89.3797 26.604V5.868C89.3797 3.876 89.8957 2.4 90.9277 1.44C91.9597 0.480003 93.5077 3.09944e-06 95.5717 3.09944e-06H97.7677V2.304H95.0677C94.0597 2.304 93.2917 2.568 92.7637 3.096C92.2357 3.624 91.9717 4.368 91.9717 5.328V26.604H89.3797ZM86.6077 9.648V7.56H97.6597V9.648H86.6077ZM102.628 26.604V7.56H105.328V26.604H102.628ZM99.6757 9.72V7.56H105.328V9.72H99.6757ZM103.204 4.032C102.556 4.032 102.076 3.864 101.764 3.528C101.452 3.168 101.296 2.724 101.296 2.196C101.296 1.668 101.452 1.236 101.764 0.900002C102.076 0.540003 102.556 0.360003 103.204 0.360003C103.852 0.360003 104.332 0.540003 104.644 0.900002C104.956 1.236 105.112 1.668 105.112 2.196C105.112 2.724 104.956 3.168 104.644 3.528C104.332 3.864 103.852 4.032 103.204 4.032ZM112.394 26.604V7.56H114.554V15.516H114.338C114.338 12.732 114.95 10.68 116.174 9.36C117.398 8.016 119.318 7.344 121.934 7.344H122.546V9.792H121.43C119.366 9.792 117.794 10.332 116.714 11.412C115.634 12.468 115.094 14.028 115.094 16.092V26.604H112.394ZM132.926 27.144C130.478 27.144 128.594 26.616 127.274 25.56C125.954 24.48 125.282 23.04 125.258 21.24H127.778C127.826 22.152 128.234 22.98 129.002 23.724C129.794 24.468 131.102 24.84 132.926 24.84C134.63 24.84 135.902 24.492 136.742 23.796C137.606 23.076 138.038 22.212 138.038 21.204C138.038 20.268 137.678 19.548 136.958 19.044C136.262 18.516 135.242 18.18 133.898 18.036L131.738 17.82C130.01 17.628 128.606 17.1 127.526 16.236C126.47 15.348 125.942 14.136 125.942 12.6C125.942 11.472 126.23 10.488 126.806 9.648C127.382 8.808 128.186 8.16 129.218 7.704C130.274 7.224 131.51 6.984 132.926 6.984C134.966 6.984 136.622 7.464 137.894 8.424C139.19 9.384 139.85 10.752 139.874 12.528H137.354C137.33 11.616 136.946 10.848 136.202 10.224C135.458 9.6 134.366 9.288 132.926 9.288C131.438 9.288 130.322 9.612 129.578 10.26C128.858 10.908 128.498 11.7 128.498 12.636C128.498 13.428 128.774 14.088 129.326 14.616C129.878 15.12 130.742 15.432 131.918 15.552L134.078 15.768C135.998 15.984 137.558 16.536 138.758 17.424C139.982 18.312 140.594 19.584 140.594 21.24C140.594 22.368 140.27 23.388 139.622 24.3C138.998 25.188 138.11 25.884 136.958 26.388C135.806 26.892 134.462 27.144 132.926 27.144ZM152.881 26.82C151.561 26.82 150.421 26.628 149.461 26.244C148.501 25.86 147.757 25.212 147.229 24.3C146.701 23.364 146.437 22.116 146.437 20.556V1.548H149.029V20.952C149.029 22.056 149.329 22.908 149.929 23.508C150.529 24.084 151.381 24.372 152.485 24.372H155.905V26.82H152.881ZM143.017 9.612V7.56H155.905V9.612H143.017ZM177.551 27.216C175.943 27.216 174.539 26.94 173.339 26.388C172.163 25.812 171.179 25.044 170.387 24.084C169.595 23.1 168.995 22.02 168.587 20.844C168.203 19.668 168.011 18.48 168.011 17.28V16.776C168.011 15.552 168.203 14.364 168.587 13.212C168.995 12.036 169.595 10.98 170.387 10.044C171.179 9.084 172.163 8.328 173.339 7.776C174.539 7.2 175.919 6.912 177.479 6.912C179.063 6.912 180.467 7.2 181.691 7.776C182.939 8.352 183.947 9.168 184.715 10.224C185.483 11.28 185.939 12.528 186.083 13.968H183.491C183.275 12.648 182.651 11.556 181.619 10.692C180.611 9.804 179.231 9.36 177.479 9.36C175.967 9.36 174.707 9.708 173.699 10.404C172.715 11.076 171.971 12 171.467 13.176C170.963 14.328 170.711 15.612 170.711 17.028C170.711 18.42 170.963 19.716 171.467 20.916C171.971 22.092 172.727 23.04 173.735 23.76C174.743 24.456 176.015 24.804 177.551 24.804C178.727 24.804 179.747 24.6 180.611 24.192C181.499 23.76 182.207 23.184 182.735 22.464C183.287 21.744 183.611 20.952 183.707 20.088H186.299C186.203 21.528 185.747 22.788 184.931 23.868C184.139 24.924 183.107 25.752 181.835 26.352C180.563 26.928 179.135 27.216 177.551 27.216ZM199.782 27.216C198.15 27.216 196.71 26.94 195.462 26.388C194.238 25.812 193.194 25.056 192.33 24.12C191.49 23.16 190.842 22.092 190.386 20.916C189.954 19.74 189.738 18.54 189.738 17.316V16.812C189.738 15.588 189.966 14.388 190.422 13.212C190.878 12.012 191.538 10.944 192.402 10.008C193.266 9.072 194.31 8.328 195.534 7.776C196.782 7.2 198.198 6.912 199.782 6.912C201.39 6.912 202.806 7.2 204.03 7.776C205.278 8.328 206.334 9.072 207.198 10.008C208.062 10.944 208.71 12.012 209.142 13.212C209.598 14.388 209.826 15.588 209.826 16.812V17.316C209.826 18.54 209.61 19.74 209.178 20.916C208.746 22.092 208.098 23.16 207.234 24.12C206.394 25.056 205.35 25.812 204.102 26.388C202.854 26.94 201.414 27.216 199.782 27.216ZM199.782 24.804C201.366 24.804 202.698 24.456 203.778 23.76C204.882 23.04 205.722 22.104 206.298 20.952C206.874 19.776 207.162 18.48 207.162 17.064C207.162 15.624 206.862 14.328 206.262 13.176C205.686 12 204.846 11.076 203.742 10.404C202.638 9.708 201.318 9.36 199.782 9.36C198.27 9.36 196.962 9.708 195.858 10.404C194.754 11.076 193.902 12 193.302 13.176C192.726 14.328 192.438 15.624 192.438 17.064C192.438 18.48 192.726 19.776 193.302 20.952C193.878 22.104 194.706 23.04 195.786 23.76C196.89 24.456 198.222 24.804 199.782 24.804ZM215.332 26.604V7.56H217.492V15.552H217.06C217.06 13.776 217.324 12.252 217.852 10.98C218.38 9.708 219.172 8.724 220.228 8.028C221.284 7.332 222.616 6.984 224.224 6.984H224.332C226.732 6.984 228.52 7.74 229.696 9.252C230.872 10.74 231.46 12.84 231.46 15.552V26.604H228.796V14.976C228.796 13.32 228.34 11.988 227.428 10.98C226.516 9.972 225.244 9.468 223.612 9.468C221.932 9.468 220.576 9.996 219.544 11.052C218.536 12.084 218.032 13.452 218.032 15.156V26.604H215.332ZM242.291 26.604L235.595 7.56H238.367L244.991 26.604H242.291ZM243.011 26.604V24.408H246.431V26.604H243.011ZM244.487 26.604L250.283 7.56H252.947L247.043 26.604H244.487ZM265.37 27.216C263.738 27.216 262.322 26.94 261.122 26.388C259.922 25.812 258.938 25.056 258.17 24.12C257.402 23.16 256.826 22.092 256.442 20.916C256.082 19.74 255.902 18.528 255.902 17.28V16.776C255.902 15.552 256.082 14.352 256.442 13.176C256.826 12 257.402 10.944 258.17 10.008C258.938 9.072 259.898 8.328 261.05 7.776C262.226 7.2 263.594 6.912 265.154 6.912C267.146 6.912 268.802 7.356 270.122 8.244C271.466 9.132 272.474 10.272 273.146 11.664C273.818 13.032 274.154 14.508 274.154 16.092V17.496H257.126V15.408H272.282L271.598 16.452C271.598 15.036 271.346 13.8 270.842 12.744C270.362 11.664 269.642 10.824 268.682 10.224C267.746 9.6 266.57 9.288 265.154 9.288C263.666 9.288 262.43 9.636 261.446 10.332C260.462 11.028 259.718 11.952 259.214 13.104C258.734 14.256 258.494 15.564 258.494 17.028C258.494 18.468 258.734 19.788 259.214 20.988C259.718 22.164 260.474 23.1 261.482 23.796C262.514 24.492 263.81 24.84 265.37 24.84C267.026 24.84 268.37 24.468 269.402 23.724C270.434 22.956 271.07 22.056 271.31 21.024H273.83C273.59 22.296 273.086 23.4 272.318 24.336C271.55 25.248 270.578 25.956 269.402 26.46C268.226 26.964 266.882 27.216 265.37 27.216ZM279.351 26.604V7.56H281.511V15.516H281.295C281.295 12.732 281.907 10.68 283.131 9.36C284.355 8.016 286.275 7.344 288.891 7.344H289.503V9.792H288.387C286.323 9.792 284.751 10.332 283.671 11.412C282.591 12.468 282.051 14.028 282.051 16.092V26.604H279.351ZM299.883 27.144C297.435 27.144 295.551 26.616 294.231 25.56C292.911 24.48 292.239 23.04 292.215 21.24H294.735C294.783 22.152 295.191 22.98 295.959 23.724C296.751 24.468 298.059 24.84 299.883 24.84C301.587 24.84 302.859 24.492 303.699 23.796C304.563 23.076 304.995 22.212 304.995 21.204C304.995 20.268 304.635 19.548 303.915 19.044C303.219 18.516 302.199 18.18 300.855 18.036L298.695 17.82C296.967 17.628 295.563 17.1 294.483 16.236C293.427 15.348 292.899 14.136 292.899 12.6C292.899 11.472 293.187 10.488 293.763 9.648C294.339 8.808 295.143 8.16 296.175 7.704C297.231 7.224 298.467 6.984 299.883 6.984C301.923 6.984 303.579 7.464 304.851 8.424C306.147 9.384 306.807 10.752 306.831 12.528H304.311C304.287 11.616 303.903 10.848 303.159 10.224C302.415 9.6 301.323 9.288 299.883 9.288C298.395 9.288 297.279 9.612 296.535 10.26C295.815 10.908 295.455 11.7 295.455 12.636C295.455 13.428 295.731 14.088 296.283 14.616C296.835 15.12 297.699 15.432 298.875 15.552L301.035 15.768C302.955 15.984 304.515 16.536 305.715 17.424C306.939 18.312 307.551 19.584 307.551 21.24C307.551 22.368 307.227 23.388 306.579 24.3C305.955 25.188 305.067 25.884 303.915 26.388C302.763 26.892 301.419 27.144 299.883 27.144ZM324.518 26.604V20.88H324.086V14.112C324.086 12.696 323.714 11.616 322.97 10.872C322.226 10.104 321.074 9.72 319.514 9.72C318.794 9.72 318.062 9.732 317.318 9.756C316.598 9.78 315.902 9.816 315.23 9.864C314.582 9.888 314.006 9.924 313.502 9.972V7.596C314.03 7.548 314.57 7.5 315.122 7.452C315.674 7.404 316.238 7.38 316.814 7.38C317.414 7.356 317.99 7.344 318.542 7.344C320.486 7.344 322.046 7.584 323.222 8.064C324.422 8.544 325.298 9.3 325.85 10.332C326.402 11.34 326.678 12.684 326.678 14.364V26.604H324.518ZM318.074 27.108C316.73 27.108 315.542 26.868 314.51 26.388C313.478 25.908 312.674 25.212 312.098 24.3C311.546 23.388 311.27 22.284 311.27 20.988C311.27 19.716 311.558 18.636 312.134 17.748C312.734 16.86 313.586 16.188 314.69 15.732C315.818 15.252 317.174 15.012 318.758 15.012H324.338V17.064H318.578C317.066 17.064 315.902 17.436 315.086 18.18C314.294 18.9 313.898 19.848 313.898 21.024C313.898 22.224 314.318 23.184 315.158 23.904C315.998 24.6 317.138 24.948 318.578 24.948C319.466 24.948 320.318 24.792 321.134 24.48C321.95 24.144 322.634 23.592 323.186 22.824C323.738 22.032 324.038 20.952 324.086 19.584L324.878 20.7C324.782 22.116 324.446 23.304 323.87 24.264C323.294 25.2 322.514 25.908 321.53 26.388C320.546 26.868 319.394 27.108 318.074 27.108ZM340.334 26.82C339.014 26.82 337.874 26.628 336.914 26.244C335.954 25.86 335.21 25.212 334.682 24.3C334.154 23.364 333.89 22.116 333.89 20.556V1.548H336.482V20.952C336.482 22.056 336.782 22.908 337.382 23.508C337.982 24.084 338.834 24.372 339.938 24.372H343.358V26.82H340.334ZM330.47 9.612V7.56H343.358V9.612H330.47ZM349.582 26.604V7.56H352.246V26.604H349.582ZM346.522 9.72V7.56H352.246V9.72H346.522ZM350.158 4.032C349.51 4.032 349.018 3.864 348.682 3.528C348.37 3.168 348.214 2.724 348.214 2.196C348.214 1.668 348.37 1.236 348.682 0.900002C349.018 0.540003 349.51 0.360003 350.158 0.360003C350.806 0.360003 351.286 0.540003 351.598 0.900002C351.91 1.236 352.066 1.668 352.066 2.196C352.066 2.724 351.91 3.168 351.598 3.528C351.286 3.864 350.806 4.032 350.158 4.032ZM367.864 27.216C366.232 27.216 364.792 26.94 363.544 26.388C362.32 25.812 361.276 25.056 360.412 24.12C359.572 23.16 358.924 22.092 358.468 20.916C358.036 19.74 357.82 18.54 357.82 17.316V16.812C357.82 15.588 358.048 14.388 358.504 13.212C358.96 12.012 359.62 10.944 360.484 10.008C361.348 9.072 362.392 8.328 363.616 7.776C364.864 7.2 366.28 6.912 367.864 6.912C369.472 6.912 370.888 7.2 372.112 7.776C373.36 8.328 374.416 9.072 375.28 10.008C376.144 10.944 376.792 12.012 377.224 13.212C377.68 14.388 377.908 15.588 377.908 16.812V17.316C377.908 18.54 377.692 19.74 377.26 20.916C376.828 22.092 376.18 23.16 375.316 24.12C374.476 25.056 373.432 25.812 372.184 26.388C370.936 26.94 369.496 27.216 367.864 27.216ZM367.864 24.804C369.448 24.804 370.78 24.456 371.86 23.76C372.964 23.04 373.804 22.104 374.38 20.952C374.956 19.776 375.244 18.48 375.244 17.064C375.244 15.624 374.944 14.328 374.344 13.176C373.768 12 372.928 11.076 371.824 10.404C370.72 9.708 369.4 9.36 367.864 9.36C366.352 9.36 365.044 9.708 363.94 10.404C362.836 11.076 361.984 12 361.384 13.176C360.808 14.328 360.52 15.624 360.52 17.064C360.52 18.48 360.808 19.776 361.384 20.952C361.96 22.104 362.788 23.04 363.868 23.76C364.972 24.456 366.304 24.804 367.864 24.804ZM383.414 26.604V7.56H385.574V15.552H385.142C385.142 13.776 385.406 12.252 385.934 10.98C386.462 9.708 387.254 8.724 388.31 8.028C389.366 7.332 390.698 6.984 392.306 6.984H392.414C394.814 6.984 396.602 7.74 397.778 9.252C398.954 10.74 399.542 12.84 399.542 15.552V26.604H396.878V14.976C396.878 13.32 396.422 11.988 395.51 10.98C394.598 9.972 393.326 9.468 391.694 9.468C390.014 9.468 388.658 9.996 387.626 11.052C386.618 12.084 386.114 13.452 386.114 15.156V26.604H383.414ZM422.696 27.216C421.088 27.216 419.684 26.94 418.484 26.388C417.308 25.812 416.324 25.044 415.532 24.084C414.74 23.1 414.14 22.02 413.732 20.844C413.348 19.668 413.156 18.48 413.156 17.28V16.776C413.156 15.552 413.348 14.364 413.732 13.212C414.14 12.036 414.74 10.98 415.532 10.044C416.324 9.084 417.308 8.328 418.484 7.776C419.684 7.2 421.064 6.912 422.624 6.912C424.208 6.912 425.612 7.2 426.836 7.776C428.084 8.352 429.092 9.168 429.86 10.224C430.628 11.28 431.084 12.528 431.228 13.968H428.636C428.42 12.648 427.796 11.556 426.764 10.692C425.756 9.804 424.376 9.36 422.624 9.36C421.112 9.36 419.852 9.708 418.844 10.404C417.86 11.076 417.116 12 416.612 13.176C416.108 14.328 415.856 15.612 415.856 17.028C415.856 18.42 416.108 19.716 416.612 20.916C417.116 22.092 417.872 23.04 418.88 23.76C419.888 24.456 421.16 24.804 422.696 24.804C423.872 24.804 424.892 24.6 425.756 24.192C426.644 23.76 427.352 23.184 427.88 22.464C428.432 21.744 428.756 20.952 428.852 20.088H431.444C431.348 21.528 430.892 22.788 430.076 23.868C429.284 24.924 428.252 25.752 426.98 26.352C425.708 26.928 424.28 27.216 422.696 27.216ZM444.926 27.216C443.294 27.216 441.854 26.94 440.606 26.388C439.382 25.812 438.338 25.056 437.474 24.12C436.634 23.16 435.986 22.092 435.53 20.916C435.098 19.74 434.882 18.54 434.882 17.316V16.812C434.882 15.588 435.11 14.388 435.566 13.212C436.022 12.012 436.682 10.944 437.546 10.008C438.41 9.072 439.454 8.328 440.678 7.776C441.926 7.2 443.342 6.912 444.926 6.912C446.534 6.912 447.95 7.2 449.174 7.776C450.422 8.328 451.478 9.072 452.342 10.008C453.206 10.944 453.854 12.012 454.286 13.212C454.742 14.388 454.97 15.588 454.97 16.812V17.316C454.97 18.54 454.754 19.74 454.322 20.916C453.89 22.092 453.242 23.16 452.378 24.12C451.538 25.056 450.494 25.812 449.246 26.388C447.998 26.94 446.558 27.216 444.926 27.216ZM444.926 24.804C446.51 24.804 447.842 24.456 448.922 23.76C450.026 23.04 450.866 22.104 451.442 20.952C452.018 19.776 452.306 18.48 452.306 17.064C452.306 15.624 452.006 14.328 451.406 13.176C450.83 12 449.99 11.076 448.886 10.404C447.782 9.708 446.462 9.36 444.926 9.36C443.414 9.36 442.106 9.708 441.002 10.404C439.898 11.076 439.046 12 438.446 13.176C437.87 14.328 437.582 15.624 437.582 17.064C437.582 18.48 437.87 19.776 438.446 20.952C439.022 22.104 439.85 23.04 440.93 23.76C442.034 24.456 443.366 24.804 444.926 24.804ZM466.488 27.144C464.04 27.144 462.156 26.616 460.836 25.56C459.516 24.48 458.844 23.04 458.82 21.24H461.34C461.388 22.152 461.796 22.98 462.564 23.724C463.356 24.468 464.664 24.84 466.488 24.84C468.192 24.84 469.464 24.492 470.304 23.796C471.168 23.076 471.6 22.212 471.6 21.204C471.6 20.268 471.24 19.548 470.52 19.044C469.824 18.516 468.804 18.18 467.46 18.036L465.3 17.82C463.572 17.628 462.168 17.1 461.088 16.236C460.032 15.348 459.504 14.136 459.504 12.6C459.504 11.472 459.792 10.488 460.368 9.648C460.944 8.808 461.748 8.16 462.78 7.704C463.836 7.224 465.072 6.984 466.488 6.984C468.528 6.984 470.184 7.464 471.456 8.424C472.752 9.384 473.412 10.752 473.436 12.528H470.916C470.892 11.616 470.508 10.848 469.764 10.224C469.02 9.6 467.928 9.288 466.488 9.288C465 9.288 463.884 9.612 463.14 10.26C462.42 10.908 462.06 11.7 462.06 12.636C462.06 13.428 462.336 14.088 462.888 14.616C463.44 15.12 464.304 15.432 465.48 15.552L467.64 15.768C469.56 15.984 471.12 16.536 472.32 17.424C473.544 18.312 474.156 19.584 474.156 21.24C474.156 22.368 473.832 23.388 473.184 24.3C472.56 25.188 471.672 25.884 470.52 26.388C469.368 26.892 468.024 27.144 466.488 27.144ZM486.443 26.82C485.123 26.82 483.983 26.628 483.023 26.244C482.063 25.86 481.319 25.212 480.791 24.3C480.263 23.364 479.999 22.116 479.999 20.556V1.548H482.591V20.952C482.591 22.056 482.891 22.908 483.491 23.508C484.091 24.084 484.943 24.372 486.047 24.372H489.467V26.82H486.443ZM476.579 9.612V7.56H489.467V9.612H476.579ZM500.555 27.144C498.107 27.144 496.223 26.616 494.903 25.56C493.583 24.48 492.911 23.04 492.887 21.24H495.407C495.455 22.152 495.863 22.98 496.631 23.724C497.423 24.468 498.731 24.84 500.555 24.84C502.259 24.84 503.531 24.492 504.371 23.796C505.235 23.076 505.667 22.212 505.667 21.204C505.667 20.268 505.307 19.548 504.587 19.044C503.891 18.516 502.871 18.18 501.527 18.036L499.367 17.82C497.639 17.628 496.235 17.1 495.155 16.236C494.099 15.348 493.571 14.136 493.571 12.6C493.571 11.472 493.859 10.488 494.435 9.648C495.011 8.808 495.815 8.16 496.847 7.704C497.903 7.224 499.139 6.984 500.555 6.984C502.595 6.984 504.251 7.464 505.523 8.424C506.819 9.384 507.479 10.752 507.503 12.528H504.983C504.959 11.616 504.575 10.848 503.831 10.224C503.087 9.6 501.995 9.288 500.555 9.288C499.067 9.288 497.951 9.612 497.207 10.26C496.487 10.908 496.127 11.7 496.127 12.636C496.127 13.428 496.403 14.088 496.955 14.616C497.507 15.12 498.371 15.432 499.547 15.552L501.707 15.768C503.627 15.984 505.187 16.536 506.387 17.424C507.611 18.312 508.223 19.584 508.223 21.24C508.223 22.368 507.899 23.388 507.251 24.3C506.627 25.188 505.739 25.884 504.587 26.388C503.435 26.892 502.091 27.144 500.555 27.144ZM522 26.604V7.56H524.16V15.552H523.728C523.728 13.776 523.992 12.252 524.52 10.98C525.048 9.708 525.84 8.724 526.896 8.028C527.952 7.332 529.284 6.984 530.892 6.984H531C533.4 6.984 535.188 7.74 536.364 9.252C537.54 10.74 538.128 12.84 538.128 15.552V26.604H535.464V14.976C535.464 13.32 535.008 11.988 534.096 10.98C533.184 9.972 531.912 9.468 530.28 9.468C528.6 9.468 527.244 9.996 526.212 11.052C525.204 12.084 524.7 13.452 524.7 15.156V26.604H522ZM553.383 27.216C551.751 27.216 550.311 26.94 549.063 26.388C547.839 25.812 546.795 25.056 545.931 24.12C545.091 23.16 544.443 22.092 543.987 20.916C543.555 19.74 543.339 18.54 543.339 17.316V16.812C543.339 15.588 543.567 14.388 544.023 13.212C544.479 12.012 545.139 10.944 546.003 10.008C546.867 9.072 547.911 8.328 549.135 7.776C550.383 7.2 551.799 6.912 553.383 6.912C554.991 6.912 556.407 7.2 557.631 7.776C558.879 8.328 559.935 9.072 560.799 10.008C561.663 10.944 562.311 12.012 562.743 13.212C563.199 14.388 563.427 15.588 563.427 16.812V17.316C563.427 18.54 563.211 19.74 562.779 20.916C562.347 22.092 561.699 23.16 560.835 24.12C559.995 25.056 558.951 25.812 557.703 26.388C556.455 26.94 555.015 27.216 553.383 27.216ZM553.383 24.804C554.967 24.804 556.299 24.456 557.379 23.76C558.483 23.04 559.323 22.104 559.899 20.952C560.475 19.776 560.763 18.48 560.763 17.064C560.763 15.624 560.463 14.328 559.863 13.176C559.287 12 558.447 11.076 557.343 10.404C556.239 9.708 554.919 9.36 553.383 9.36C551.871 9.36 550.563 9.708 549.459 10.404C548.355 11.076 547.503 12 546.903 13.176C546.327 14.328 546.039 15.624 546.039 17.064C546.039 18.48 546.327 19.776 546.903 20.952C547.479 22.104 548.307 23.04 549.387 23.76C550.491 24.456 551.823 24.804 553.383 24.804ZM575.845 26.82C574.525 26.82 573.385 26.628 572.425 26.244C571.465 25.86 570.721 25.212 570.193 24.3C569.665 23.364 569.401 22.116 569.401 20.556V1.548H571.993V20.952C571.993 22.056 572.293 22.908 572.893 23.508C573.493 24.084 574.345 24.372 575.449 24.372H578.869V26.82H575.845ZM565.981 9.612V7.56H578.869V9.612H565.981ZM584.086 26.604V0.324003H586.786V15.192L585.994 15.804C585.994 14.028 586.246 12.48 586.75 11.16C587.278 9.84 588.058 8.82 589.09 8.1C590.146 7.356 591.466 6.984 593.05 6.984H593.194C595.498 6.984 597.238 7.74 598.414 9.252C599.614 10.764 600.214 12.864 600.214 15.552V26.604H597.55V14.976C597.55 13.272 597.082 11.928 596.146 10.944C595.21 9.96 593.95 9.468 592.366 9.468C590.662 9.468 589.306 10.02 588.298 11.124C587.29 12.204 586.786 13.632 586.786 15.408V26.604H584.086ZM607.945 26.604V7.56H610.609V26.604H607.945ZM604.885 9.72V7.56H610.609V9.72H604.885ZM608.521 4.032C607.873 4.032 607.381 3.864 607.045 3.528C606.733 3.168 606.577 2.724 606.577 2.196C606.577 1.668 606.733 1.236 607.045 0.900002C607.381 0.540003 607.873 0.360003 608.521 0.360003C609.169 0.360003 609.649 0.540003 609.961 0.900002C610.273 1.236 610.429 1.668 610.429 2.196C610.429 2.724 610.273 3.168 609.961 3.528C609.649 3.864 609.169 4.032 608.521 4.032ZM617.695 26.604V7.56H619.855V15.552H619.423C619.423 13.776 619.687 12.252 620.215 10.98C620.743 9.708 621.535 8.724 622.591 8.028C623.647 7.332 624.979 6.984 626.587 6.984H626.695C629.095 6.984 630.883 7.74 632.059 9.252C633.235 10.74 633.823 12.84 633.823 15.552V26.604H631.159V14.976C631.159 13.32 630.703 11.988 629.791 10.98C628.879 9.972 627.607 9.468 625.975 9.468C624.295 9.468 622.939 9.996 621.907 11.052C620.899 12.084 620.395 13.452 620.395 15.156V26.604H617.695ZM647.819 34.056C646.931 34.056 646.031 34.008 645.119 33.912C644.231 33.84 643.379 33.744 642.563 33.624V31.32C643.427 31.44 644.327 31.536 645.263 31.608C646.223 31.704 647.123 31.752 647.963 31.752C649.787 31.752 651.239 31.512 652.319 31.032C653.399 30.552 654.167 29.784 654.623 28.728C655.103 27.696 655.343 26.328 655.343 24.624V20.808L656.351 18.144C656.303 19.968 655.919 21.54 655.199 22.86C654.479 24.156 653.507 25.152 652.283 25.848C651.059 26.544 649.667 26.892 648.107 26.892C646.739 26.892 645.491 26.628 644.363 26.1C643.259 25.572 642.311 24.852 641.519 23.94C640.727 23.004 640.115 21.948 639.683 20.772C639.251 19.596 639.035 18.36 639.035 17.064V16.56C639.035 15.288 639.251 14.076 639.683 12.924C640.115 11.748 640.727 10.716 641.519 9.828C642.311 8.916 643.271 8.208 644.399 7.704C645.551 7.176 646.823 6.912 648.215 6.912C649.895 6.912 651.359 7.284 652.607 8.028C653.855 8.772 654.827 9.804 655.523 11.124C656.243 12.444 656.627 13.992 656.675 15.768L655.811 15.3V7.56H657.935V24.516C657.935 26.796 657.599 28.632 656.927 30.024C656.255 31.416 655.175 32.436 653.687 33.084C652.223 33.732 650.267 34.056 647.819 34.056ZM648.575 24.408C649.871 24.408 651.023 24.132 652.031 23.58C653.063 23.004 653.879 22.2 654.479 21.168C655.079 20.136 655.379 18.936 655.379 17.568V15.804C655.379 14.484 655.067 13.332 654.443 12.348C653.843 11.364 653.039 10.596 652.031 10.044C651.023 9.492 649.871 9.216 648.575 9.216C647.183 9.216 645.971 9.552 644.939 10.224C643.907 10.896 643.115 11.808 642.563 12.96C642.011 14.088 641.735 15.372 641.735 16.812C641.735 18.276 642.011 19.584 642.563 20.736C643.139 21.888 643.943 22.788 644.975 23.436C646.007 24.084 647.207 24.408 648.575 24.408ZM664.159 26.604V23.04H667.543V26.604H664.159Z" fill="#404040"/>
<path d="M688.107 26.604V2.124H690.843V26.604H688.107ZM679.899 2.808V0.324003H699.051V2.808H679.899ZM703.547 26.604V0.324003H706.247V15.192L705.455 15.804C705.455 14.028 705.707 12.48 706.211 11.16C706.739 9.84 707.519 8.82 708.551 8.1C709.607 7.356 710.927 6.984 712.511 6.984H712.655C714.959 6.984 716.699 7.74 717.875 9.252C719.075 10.764 719.675 12.864 719.675 15.552V26.604H717.011V14.976C717.011 13.272 716.543 11.928 715.607 10.944C714.671 9.96 713.411 9.468 711.827 9.468C710.123 9.468 708.767 10.02 707.759 11.124C706.751 12.204 706.247 13.632 706.247 15.408V26.604H703.547ZM734.354 27.216C732.722 27.216 731.306 26.94 730.106 26.388C728.906 25.812 727.922 25.056 727.154 24.12C726.386 23.16 725.81 22.092 725.426 20.916C725.066 19.74 724.886 18.528 724.886 17.28V16.776C724.886 15.552 725.066 14.352 725.426 13.176C725.81 12 726.386 10.944 727.154 10.008C727.922 9.072 728.882 8.328 730.034 7.776C731.21 7.2 732.578 6.912 734.138 6.912C736.13 6.912 737.786 7.356 739.106 8.244C740.45 9.132 741.458 10.272 742.13 11.664C742.802 13.032 743.138 14.508 743.138 16.092V17.496H726.11V15.408H741.266L740.582 16.452C740.582 15.036 740.33 13.8 739.826 12.744C739.346 11.664 738.626 10.824 737.666 10.224C736.73 9.6 735.554 9.288 734.138 9.288C732.65 9.288 731.414 9.636 730.43 10.332C729.446 11.028 728.702 11.952 728.198 13.104C727.718 14.256 727.478 15.564 727.478 17.028C727.478 18.468 727.718 19.788 728.198 20.988C728.702 22.164 729.458 23.1 730.466 23.796C731.498 24.492 732.794 24.84 734.354 24.84C736.01 24.84 737.354 24.468 738.386 23.724C739.418 22.956 740.054 22.056 740.294 21.024H742.814C742.574 22.296 742.07 23.4 741.302 24.336C740.534 25.248 739.562 25.956 738.386 26.46C737.21 26.964 735.866 27.216 734.354 27.216ZM762.75 27.144C760.302 27.144 758.418 26.616 757.098 25.56C755.778 24.48 755.106 23.04 755.082 21.24H757.602C757.65 22.152 758.058 22.98 758.826 23.724C759.618 24.468 760.926 24.84 762.75 24.84C764.454 24.84 765.726 24.492 766.566 23.796C767.43 23.076 767.862 22.212 767.862 21.204C767.862 20.268 767.502 19.548 766.782 19.044C766.086 18.516 765.066 18.18 763.722 18.036L761.562 17.82C759.834 17.628 758.43 17.1 757.35 16.236C756.294 15.348 755.766 14.136 755.766 12.6C755.766 11.472 756.054 10.488 756.63 9.648C757.206 8.808 758.01 8.16 759.042 7.704C760.098 7.224 761.334 6.984 762.75 6.984C764.79 6.984 766.446 7.464 767.718 8.424C769.014 9.384 769.674 10.752 769.698 12.528H767.178C767.154 11.616 766.77 10.848 766.026 10.224C765.282 9.6 764.19 9.288 762.75 9.288C761.262 9.288 760.146 9.612 759.402 10.26C758.682 10.908 758.322 11.7 758.322 12.636C758.322 13.428 758.598 14.088 759.15 14.616C759.702 15.12 760.566 15.432 761.742 15.552L763.902 15.768C765.822 15.984 767.382 16.536 768.582 17.424C769.806 18.312 770.418 19.584 770.418 21.24C770.418 22.368 770.094 23.388 769.446 24.3C768.822 25.188 767.934 25.884 766.782 26.388C765.63 26.892 764.286 27.144 762.75 27.144ZM773.995 34.02V31.608H776.443C777.283 31.608 778.003 31.5 778.603 31.284C779.203 31.092 779.707 30.744 780.115 30.24C780.523 29.736 780.871 29.04 781.159 28.152L787.567 7.56H790.195L783.499 28.908C783.115 30.132 782.587 31.116 781.915 31.86C781.243 32.628 780.439 33.18 779.503 33.516C778.567 33.852 777.499 34.02 776.299 34.02H773.995ZM780.187 26.136V23.868H783.607V26.136H780.187ZM779.863 26.136L772.951 7.56H775.723L782.383 26.136H779.863ZM800.824 27.144C798.376 27.144 796.492 26.616 795.172 25.56C793.852 24.48 793.18 23.04 793.156 21.24H795.676C795.724 22.152 796.132 22.98 796.9 23.724C797.692 24.468 799 24.84 800.824 24.84C802.528 24.84 803.8 24.492 804.64 23.796C805.504 23.076 805.936 22.212 805.936 21.204C805.936 20.268 805.576 19.548 804.856 19.044C804.16 18.516 803.14 18.18 801.796 18.036L799.636 17.82C797.908 17.628 796.504 17.1 795.424 16.236C794.368 15.348 793.84 14.136 793.84 12.6C793.84 11.472 794.128 10.488 794.704 9.648C795.28 8.808 796.084 8.16 797.116 7.704C798.172 7.224 799.408 6.984 800.824 6.984C802.864 6.984 804.52 7.464 805.792 8.424C807.088 9.384 807.748 10.752 807.772 12.528H805.252C805.228 11.616 804.844 10.848 804.1 10.224C803.356 9.6 802.264 9.288 800.824 9.288C799.336 9.288 798.22 9.612 797.476 10.26C796.756 10.908 796.396 11.7 796.396 12.636C796.396 13.428 796.672 14.088 797.224 14.616C797.776 15.12 798.64 15.432 799.816 15.552L801.976 15.768C803.896 15.984 805.456 16.536 806.656 17.424C807.88 18.312 808.492 19.584 808.492 21.24C808.492 22.368 808.168 23.388 807.52 24.3C806.896 25.188 806.008 25.884 804.856 26.388C803.704 26.892 802.36 27.144 800.824 27.144ZM820.779 26.82C819.459 26.82 818.319 26.628 817.359 26.244C816.399 25.86 815.655 25.212 815.127 24.3C814.599 23.364 814.335 22.116 814.335 20.556V1.548H816.927V20.952C816.927 22.056 817.227 22.908 817.827 23.508C818.427 24.084 819.279 24.372 820.383 24.372H823.803V26.82H820.779ZM810.915 9.612V7.56H823.803V9.612H810.915ZM836.8 27.216C835.168 27.216 833.752 26.94 832.552 26.388C831.352 25.812 830.368 25.056 829.6 24.12C828.832 23.16 828.256 22.092 827.872 20.916C827.512 19.74 827.332 18.528 827.332 17.28V16.776C827.332 15.552 827.512 14.352 827.872 13.176C828.256 12 828.832 10.944 829.6 10.008C830.368 9.072 831.328 8.328 832.48 7.776C833.656 7.2 835.024 6.912 836.584 6.912C838.576 6.912 840.232 7.356 841.552 8.244C842.896 9.132 843.904 10.272 844.576 11.664C845.248 13.032 845.584 14.508 845.584 16.092V17.496H828.556V15.408H843.712L843.028 16.452C843.028 15.036 842.776 13.8 842.272 12.744C841.792 11.664 841.072 10.824 840.112 10.224C839.176 9.6 838 9.288 836.584 9.288C835.096 9.288 833.86 9.636 832.876 10.332C831.892 11.028 831.148 11.952 830.644 13.104C830.164 14.256 829.924 15.564 829.924 17.028C829.924 18.468 830.164 19.788 830.644 20.988C831.148 22.164 831.904 23.1 832.912 23.796C833.944 24.492 835.24 24.84 836.8 24.84C838.456 24.84 839.8 24.468 840.832 23.724C841.864 22.956 842.5 22.056 842.74 21.024H845.26C845.02 22.296 844.516 23.4 843.748 24.336C842.98 25.248 842.008 25.956 840.832 26.46C839.656 26.964 838.312 27.216 836.8 27.216ZM850.781 26.604V7.524H852.941V15.552H852.509C852.509 13.8 852.749 12.288 853.229 11.016C853.733 9.744 854.477 8.76 855.461 8.064C856.445 7.344 857.693 6.984 859.205 6.984H859.313C860.825 6.984 862.073 7.332 863.057 8.028C864.041 8.724 864.773 9.708 865.253 10.98C865.733 12.252 865.973 13.776 865.973 15.552H865.109C865.109 13.8 865.349 12.288 865.829 11.016C866.333 9.744 867.077 8.76 868.061 8.064C869.069 7.344 870.329 6.984 871.841 6.984H871.949C873.461 6.984 874.709 7.332 875.693 8.028C876.701 8.724 877.445 9.708 877.925 10.98C878.429 12.252 878.681 13.776 878.681 15.552V26.604H875.981V14.94C875.981 13.26 875.573 11.928 874.757 10.944C873.941 9.96 872.765 9.468 871.229 9.468C869.645 9.468 868.385 9.984 867.449 11.016C866.537 12.024 866.081 13.392 866.081 15.12V26.604H863.381V14.94C863.381 13.26 862.973 11.928 862.157 10.944C861.341 9.96 860.165 9.468 858.629 9.468C857.045 9.468 855.785 9.984 854.849 11.016C853.937 12.024 853.481 13.392 853.481 15.12V26.604H850.781ZM891.422 27.144C888.974 27.144 887.09 26.616 885.77 25.56C884.45 24.48 883.778 23.04 883.754 21.24H886.274C886.322 22.152 886.73 22.98 887.498 23.724C888.29 24.468 889.598 24.84 891.422 24.84C893.126 24.84 894.398 24.492 895.238 23.796C896.102 23.076 896.534 22.212 896.534 21.204C896.534 20.268 896.174 19.548 895.454 19.044C894.758 18.516 893.738 18.18 892.394 18.036L890.234 17.82C888.506 17.628 887.102 17.1 886.022 16.236C884.966 15.348 884.438 14.136 884.438 12.6C884.438 11.472 884.726 10.488 885.302 9.648C885.878 8.808 886.682 8.16 887.714 7.704C888.77 7.224 890.006 6.984 891.422 6.984C893.462 6.984 895.118 7.464 896.39 8.424C897.686 9.384 898.346 10.752 898.37 12.528H895.85C895.826 11.616 895.442 10.848 894.698 10.224C893.954 9.6 892.862 9.288 891.422 9.288C889.934 9.288 888.818 9.612 888.074 10.26C887.354 10.908 886.994 11.7 886.994 12.636C886.994 13.428 887.27 14.088 887.822 14.616C888.374 15.12 889.238 15.432 890.414 15.552L892.574 15.768C894.494 15.984 896.054 16.536 897.254 17.424C898.478 18.312 899.09 19.584 899.09 21.24C899.09 22.368 898.766 23.388 898.118 24.3C897.494 25.188 896.606 25.884 895.454 26.388C894.302 26.892 892.958 27.144 891.422 27.144ZM922.695 27.216C921.015 27.216 919.539 26.844 918.267 26.1C917.019 25.356 916.035 24.312 915.315 22.968C914.619 21.624 914.247 20.076 914.199 18.324H915.027V26.604H912.867V0.324003H915.567V13.464L914.523 15.876C914.571 13.956 914.955 12.336 915.675 11.016C916.419 9.672 917.403 8.652 918.627 7.956C919.875 7.26 921.291 6.912 922.875 6.912C924.267 6.912 925.527 7.176 926.655 7.704C927.783 8.232 928.743 8.952 929.535 9.864C930.351 10.776 930.963 11.832 931.371 13.032C931.803 14.208 932.019 15.456 932.019 16.776V17.28C932.019 18.576 931.803 19.824 931.371 21.024C930.939 22.2 930.315 23.256 929.499 24.192C928.707 25.128 927.735 25.872 926.583 26.424C925.431 26.952 924.135 27.216 922.695 27.216ZM922.407 24.84C923.847 24.84 925.083 24.492 926.115 23.796C927.147 23.1 927.939 22.164 928.491 20.988C929.043 19.812 929.319 18.492 929.319 17.028C929.319 15.54 929.031 14.22 928.455 13.068C927.903 11.892 927.099 10.968 926.043 10.296C925.011 9.624 923.799 9.288 922.407 9.288C921.111 9.288 919.935 9.576 918.879 10.152C917.823 10.728 916.983 11.544 916.359 12.6C915.759 13.632 915.459 14.856 915.459 16.272V18.036C915.459 19.38 915.759 20.568 916.359 21.6C916.983 22.608 917.823 23.4 918.879 23.976C919.935 24.552 921.111 24.84 922.407 24.84ZM937.476 26.604V7.56H939.636V15.516H939.42C939.42 12.732 940.032 10.68 941.256 9.36C942.48 8.016 944.4 7.344 947.016 7.344H947.628V9.792H946.512C944.448 9.792 942.876 10.332 941.796 11.412C940.716 12.468 940.176 14.028 940.176 16.092V26.604H937.476ZM953.004 26.604V7.56H955.668V26.604H953.004ZM949.944 9.72V7.56H955.668V9.72H949.944ZM953.58 4.032C952.932 4.032 952.44 3.864 952.104 3.528C951.792 3.168 951.636 2.724 951.636 2.196C951.636 1.668 951.792 1.236 952.104 0.900002C952.44 0.540003 952.932 0.360003 953.58 0.360003C954.228 0.360003 954.708 0.540003 955.02 0.900002C955.332 1.236 955.488 1.668 955.488 2.196C955.488 2.724 955.332 3.168 955.02 3.528C954.708 3.864 954.228 4.032 953.58 4.032ZM970.71 27.216C969.078 27.216 967.662 26.94 966.462 26.388C965.262 25.812 964.278 25.056 963.51 24.12C962.742 23.16 962.166 22.092 961.782 20.916C961.422 19.74 961.242 18.528 961.242 17.28V16.776C961.242 15.552 961.422 14.352 961.782 13.176C962.166 12 962.742 10.944 963.51 10.008C964.278 9.072 965.238 8.328 966.39 7.776C967.566 7.2 968.934 6.912 970.494 6.912C972.486 6.912 974.142 7.356 975.462 8.244C976.806 9.132 977.814 10.272 978.486 11.664C979.158 13.032 979.494 14.508 979.494 16.092V17.496H962.466V15.408H977.622L976.938 16.452C976.938 15.036 976.686 13.8 976.182 12.744C975.702 11.664 974.982 10.824 974.022 10.224C973.086 9.6 971.91 9.288 970.494 9.288C969.006 9.288 967.77 9.636 966.786 10.332C965.802 11.028 965.058 11.952 964.554 13.104C964.074 14.256 963.834 15.564 963.834 17.028C963.834 18.468 964.074 19.788 964.554 20.988C965.058 22.164 965.814 23.1 966.822 23.796C967.854 24.492 969.15 24.84 970.71 24.84C972.366 24.84 973.71 24.468 974.742 23.724C975.774 22.956 976.41 22.056 976.65 21.024H979.17C978.93 22.296 978.426 23.4 977.658 24.336C976.89 25.248 975.918 25.956 974.742 26.46C973.566 26.964 972.222 27.216 970.71 27.216ZM985.231 26.604V6.084C985.231 4.092 985.747 2.616 986.779 1.656C987.811 0.696003 989.359 0.216002 991.423 0.216002H993.835V2.52H990.919C989.911 2.52 989.143 2.784 988.615 3.312C988.087 3.84 987.823 4.584 987.823 5.544V26.604H985.231ZM982.459 9.792V7.704H994.231V9.792H982.459ZM142.052 71.82C140.732 71.82 139.592 71.628 138.632 71.244C137.672 70.86 136.928 70.212 136.4 69.3C135.872 68.364 135.608 67.116 135.608 65.556V46.548H138.2V65.952C138.2 67.056 138.5 67.908 139.1 68.508C139.7 69.084 140.552 69.372 141.656 69.372H145.076V71.82H142.052ZM132.188 54.612V52.56H145.076V54.612H132.188ZM158.073 72.216C156.441 72.216 155.025 71.94 153.825 71.388C152.625 70.812 151.641 70.056 150.873 69.12C150.105 68.16 149.529 67.092 149.145 65.916C148.785 64.74 148.605 63.528 148.605 62.28V61.776C148.605 60.552 148.785 59.352 149.145 58.176C149.529 57 150.105 55.944 150.873 55.008C151.641 54.072 152.601 53.328 153.753 52.776C154.929 52.2 156.297 51.912 157.857 51.912C159.849 51.912 161.505 52.356 162.825 53.244C164.169 54.132 165.177 55.272 165.849 56.664C166.521 58.032 166.857 59.508 166.857 61.092V62.496H149.829V60.408H164.985L164.301 61.452C164.301 60.036 164.049 58.8 163.545 57.744C163.065 56.664 162.345 55.824 161.385 55.224C160.449 54.6 159.273 54.288 157.857 54.288C156.369 54.288 155.133 54.636 154.149 55.332C153.165 56.028 152.421 56.952 151.917 58.104C151.437 59.256 151.197 60.564 151.197 62.028C151.197 63.468 151.437 64.788 151.917 65.988C152.421 67.164 153.177 68.1 154.185 68.796C155.217 69.492 156.513 69.84 158.073 69.84C159.729 69.84 161.073 69.468 162.105 68.724C163.137 67.956 163.773 67.056 164.013 66.024H166.533C166.293 67.296 165.789 68.4 165.021 69.336C164.253 70.248 163.281 70.956 162.105 71.46C160.929 71.964 159.585 72.216 158.073 72.216ZM172.235 71.604V45.324H174.935V71.604H172.235ZM169.463 47.52V45.324H174.935V47.52H169.463ZM182.113 71.604V45.324H184.813V71.604H182.113ZM179.341 47.52V45.324H184.813V47.52H179.341ZM197.824 72.144C195.376 72.144 193.492 71.616 192.172 70.56C190.852 69.48 190.18 68.04 190.156 66.24H192.676C192.724 67.152 193.132 67.98 193.9 68.724C194.692 69.468 196 69.84 197.824 69.84C199.528 69.84 200.8 69.492 201.64 68.796C202.504 68.076 202.936 67.212 202.936 66.204C202.936 65.268 202.576 64.548 201.856 64.044C201.16 63.516 200.14 63.18 198.796 63.036L196.636 62.82C194.908 62.628 193.504 62.1 192.424 61.236C191.368 60.348 190.84 59.136 190.84 57.6C190.84 56.472 191.128 55.488 191.704 54.648C192.28 53.808 193.084 53.16 194.116 52.704C195.172 52.224 196.408 51.984 197.824 51.984C199.864 51.984 201.52 52.464 202.792 53.424C204.088 54.384 204.748 55.752 204.772 57.528H202.252C202.228 56.616 201.844 55.848 201.1 55.224C200.356 54.6 199.264 54.288 197.824 54.288C196.336 54.288 195.22 54.612 194.476 55.26C193.756 55.908 193.396 56.7 193.396 57.636C193.396 58.428 193.672 59.088 194.224 59.616C194.776 60.12 195.64 60.432 196.816 60.552L198.976 60.768C200.896 60.984 202.456 61.536 203.656 62.424C204.88 63.312 205.492 64.584 205.492 66.24C205.492 67.368 205.168 68.388 204.52 69.3C203.896 70.188 203.008 70.884 201.856 71.388C200.704 71.892 199.36 72.144 197.824 72.144ZM225.857 72.144C223.577 72.144 221.837 71.412 220.637 69.948C219.437 68.46 218.837 66.396 218.837 63.756V52.524H221.501V64.296C221.501 65.952 221.933 67.272 222.797 68.256C223.685 69.216 224.909 69.696 226.469 69.696C228.101 69.696 229.397 69.18 230.357 68.148C231.341 67.116 231.833 65.736 231.833 64.008V52.524H234.533V71.604H232.373V63.648H232.805C232.805 65.424 232.553 66.948 232.049 68.22C231.545 69.468 230.789 70.44 229.781 71.136C228.773 71.808 227.501 72.144 225.965 72.144H225.857ZM247.606 72.144C245.158 72.144 243.274 71.616 241.954 70.56C240.634 69.48 239.962 68.04 239.938 66.24H242.458C242.506 67.152 242.914 67.98 243.682 68.724C244.474 69.468 245.782 69.84 247.606 69.84C249.31 69.84 250.582 69.492 251.422 68.796C252.286 68.076 252.718 67.212 252.718 66.204C252.718 65.268 252.358 64.548 251.638 64.044C250.942 63.516 249.922 63.18 248.578 63.036L246.418 62.82C244.69 62.628 243.286 62.1 242.206 61.236C241.15 60.348 240.622 59.136 240.622 57.6C240.622 56.472 240.91 55.488 241.486 54.648C242.062 53.808 242.866 53.16 243.898 52.704C244.954 52.224 246.19 51.984 247.606 51.984C249.646 51.984 251.302 52.464 252.574 53.424C253.87 54.384 254.53 55.752 254.554 57.528H252.034C252.01 56.616 251.626 55.848 250.882 55.224C250.138 54.6 249.046 54.288 247.606 54.288C246.118 54.288 245.002 54.612 244.258 55.26C243.538 55.908 243.178 56.7 243.178 57.636C243.178 58.428 243.454 59.088 244.006 59.616C244.558 60.12 245.422 60.432 246.598 60.552L248.758 60.768C250.678 60.984 252.238 61.536 253.438 62.424C254.662 63.312 255.274 64.584 255.274 66.24C255.274 67.368 254.95 68.388 254.302 69.3C253.678 70.188 252.79 70.884 251.638 71.388C250.486 71.892 249.142 72.144 247.606 72.144ZM278.879 72.216C277.199 72.216 275.723 71.844 274.451 71.1C273.203 70.356 272.219 69.312 271.499 67.968C270.803 66.624 270.431 65.076 270.383 63.324H271.211V71.604H269.051V45.324H271.751V58.464L270.707 60.876C270.755 58.956 271.139 57.336 271.859 56.016C272.603 54.672 273.587 53.652 274.811 52.956C276.059 52.26 277.475 51.912 279.059 51.912C280.451 51.912 281.711 52.176 282.839 52.704C283.967 53.232 284.927 53.952 285.719 54.864C286.535 55.776 287.147 56.832 287.555 58.032C287.987 59.208 288.203 60.456 288.203 61.776V62.28C288.203 63.576 287.987 64.824 287.555 66.024C287.123 67.2 286.499 68.256 285.683 69.192C284.891 70.128 283.919 70.872 282.767 71.424C281.615 71.952 280.319 72.216 278.879 72.216ZM278.591 69.84C280.031 69.84 281.267 69.492 282.299 68.796C283.331 68.1 284.123 67.164 284.675 65.988C285.227 64.812 285.503 63.492 285.503 62.028C285.503 60.54 285.215 59.22 284.639 58.068C284.087 56.892 283.283 55.968 282.227 55.296C281.195 54.624 279.983 54.288 278.591 54.288C277.295 54.288 276.119 54.576 275.063 55.152C274.007 55.728 273.167 56.544 272.543 57.6C271.943 58.632 271.643 59.856 271.643 61.272V63.036C271.643 64.38 271.943 65.568 272.543 66.6C273.167 67.608 274.007 68.4 275.063 68.976C276.119 69.552 277.295 69.84 278.591 69.84ZM302.192 72.216C300.56 72.216 299.12 71.94 297.872 71.388C296.648 70.812 295.604 70.056 294.74 69.12C293.9 68.16 293.252 67.092 292.796 65.916C292.364 64.74 292.148 63.54 292.148 62.316V61.812C292.148 60.588 292.376 59.388 292.832 58.212C293.288 57.012 293.948 55.944 294.812 55.008C295.676 54.072 296.72 53.328 297.944 52.776C299.192 52.2 300.608 51.912 302.192 51.912C303.8 51.912 305.216 52.2 306.44 52.776C307.688 53.328 308.744 54.072 309.608 55.008C310.472 55.944 311.12 57.012 311.552 58.212C312.008 59.388 312.236 60.588 312.236 61.812V62.316C312.236 63.54 312.02 64.74 311.588 65.916C311.156 67.092 310.508 68.16 309.644 69.12C308.804 70.056 307.76 70.812 306.512 71.388C305.264 71.94 303.824 72.216 302.192 72.216ZM302.192 69.804C303.776 69.804 305.108 69.456 306.188 68.76C307.292 68.04 308.132 67.104 308.708 65.952C309.284 64.776 309.572 63.48 309.572 62.064C309.572 60.624 309.272 59.328 308.672 58.176C308.096 57 307.256 56.076 306.152 55.404C305.048 54.708 303.728 54.36 302.192 54.36C300.68 54.36 299.372 54.708 298.268 55.404C297.164 56.076 296.312 57 295.712 58.176C295.136 59.328 294.848 60.624 294.848 62.064C294.848 63.48 295.136 64.776 295.712 65.952C296.288 67.104 297.116 68.04 298.196 68.76C299.3 69.456 300.632 69.804 302.192 69.804ZM324.654 71.82C323.334 71.82 322.194 71.628 321.234 71.244C320.274 70.86 319.53 70.212 319.002 69.3C318.474 68.364 318.21 67.116 318.21 65.556V46.548H320.802V65.952C320.802 67.056 321.102 67.908 321.702 68.508C322.302 69.084 323.154 69.372 324.258 69.372H327.678V71.82H324.654ZM314.79 54.612V52.56H327.678V54.612H314.79ZM332.894 71.604V45.324H335.594V60.192L334.802 60.804C334.802 59.028 335.054 57.48 335.558 56.16C336.086 54.84 336.866 53.82 337.898 53.1C338.954 52.356 340.274 51.984 341.858 51.984H342.002C344.306 51.984 346.046 52.74 347.222 54.252C348.422 55.764 349.022 57.864 349.022 60.552V71.604H346.358V59.976C346.358 58.272 345.89 56.928 344.954 55.944C344.018 54.96 342.758 54.468 341.174 54.468C339.47 54.468 338.114 55.02 337.106 56.124C336.098 57.204 335.594 58.632 335.594 60.408V71.604H332.894ZM369.476 71.604L373.544 53.172H377.324L382.04 71.604H379.7L374.984 53.28H375.848L371.744 71.604H369.476ZM367.928 71.604V69.408H371.204V71.604H367.928ZM367.28 71.604L361.772 52.56H364.364L369.8 71.604H367.28ZM380.312 71.604V69.408H383.516V71.604H380.312ZM381.716 71.604L386.468 52.56H388.952L384.092 71.604H381.716ZM393.926 71.604V45.324H396.626V60.192L395.834 60.804C395.834 59.028 396.086 57.48 396.59 56.16C397.118 54.84 397.898 53.82 398.93 53.1C399.986 52.356 401.306 51.984 402.89 51.984H403.034C405.338 51.984 407.078 52.74 408.254 54.252C409.454 55.764 410.054 57.864 410.054 60.552V71.604H407.39V59.976C407.39 58.272 406.922 56.928 405.986 55.944C405.05 54.96 403.79 54.468 402.206 54.468C400.502 54.468 399.146 55.02 398.138 56.124C397.13 57.204 396.626 58.632 396.626 60.408V71.604H393.926ZM424.733 72.216C423.101 72.216 421.685 71.94 420.485 71.388C419.285 70.812 418.301 70.056 417.533 69.12C416.765 68.16 416.189 67.092 415.805 65.916C415.445 64.74 415.265 63.528 415.265 62.28V61.776C415.265 60.552 415.445 59.352 415.805 58.176C416.189 57 416.765 55.944 417.533 55.008C418.301 54.072 419.261 53.328 420.413 52.776C421.589 52.2 422.957 51.912 424.517 51.912C426.509 51.912 428.165 52.356 429.485 53.244C430.829 54.132 431.837 55.272 432.509 56.664C433.181 58.032 433.517 59.508 433.517 61.092V62.496H416.489V60.408H431.645L430.961 61.452C430.961 60.036 430.709 58.8 430.205 57.744C429.725 56.664 429.005 55.824 428.045 55.224C427.109 54.6 425.933 54.288 424.517 54.288C423.029 54.288 421.793 54.636 420.809 55.332C419.825 56.028 419.081 56.952 418.577 58.104C418.097 59.256 417.857 60.564 417.857 62.028C417.857 63.468 418.097 64.788 418.577 65.988C419.081 67.164 419.837 68.1 420.845 68.796C421.877 69.492 423.173 69.84 424.733 69.84C426.389 69.84 427.733 69.468 428.765 68.724C429.797 67.956 430.433 67.056 430.673 66.024H433.193C432.953 67.296 432.449 68.4 431.681 69.336C430.913 70.248 429.941 70.956 428.765 71.46C427.589 71.964 426.245 72.216 424.733 72.216ZM445.627 71.82C444.307 71.82 443.167 71.628 442.207 71.244C441.247 70.86 440.503 70.212 439.975 69.3C439.447 68.364 439.183 67.116 439.183 65.556V46.548H441.775V65.952C441.775 67.056 442.075 67.908 442.675 68.508C443.275 69.084 444.127 69.372 445.231 69.372H448.651V71.82H445.627ZM435.763 54.612V52.56H448.651V54.612H435.763ZM453.867 71.604V45.324H456.567V60.192L455.775 60.804C455.775 59.028 456.027 57.48 456.531 56.16C457.059 54.84 457.839 53.82 458.871 53.1C459.927 52.356 461.247 51.984 462.831 51.984H462.975C465.279 51.984 467.019 52.74 468.195 54.252C469.395 55.764 469.995 57.864 469.995 60.552V71.604H467.331V59.976C467.331 58.272 466.863 56.928 465.927 55.944C464.991 54.96 463.731 54.468 462.147 54.468C460.443 54.468 459.087 55.02 458.079 56.124C457.071 57.204 456.567 58.632 456.567 60.408V71.604H453.867ZM484.675 72.216C483.043 72.216 481.627 71.94 480.427 71.388C479.227 70.812 478.243 70.056 477.475 69.12C476.707 68.16 476.131 67.092 475.747 65.916C475.387 64.74 475.207 63.528 475.207 62.28V61.776C475.207 60.552 475.387 59.352 475.747 58.176C476.131 57 476.707 55.944 477.475 55.008C478.243 54.072 479.203 53.328 480.355 52.776C481.531 52.2 482.899 51.912 484.459 51.912C486.451 51.912 488.107 52.356 489.427 53.244C490.771 54.132 491.779 55.272 492.451 56.664C493.123 58.032 493.459 59.508 493.459 61.092V62.496H476.431V60.408H491.587L490.903 61.452C490.903 60.036 490.651 58.8 490.147 57.744C489.667 56.664 488.947 55.824 487.987 55.224C487.051 54.6 485.875 54.288 484.459 54.288C482.971 54.288 481.735 54.636 480.751 55.332C479.767 56.028 479.023 56.952 478.519 58.104C478.039 59.256 477.799 60.564 477.799 62.028C477.799 63.468 478.039 64.788 478.519 65.988C479.023 67.164 479.779 68.1 480.787 68.796C481.819 69.492 483.115 69.84 484.675 69.84C486.331 69.84 487.675 69.468 488.707 68.724C489.739 67.956 490.375 67.056 490.615 66.024H493.135C492.895 67.296 492.391 68.4 491.623 69.336C490.855 70.248 489.883 70.956 488.707 71.46C487.531 71.964 486.187 72.216 484.675 72.216ZM498.656 71.604V52.56H500.816V60.516H500.6C500.6 57.732 501.212 55.68 502.436 54.36C503.66 53.016 505.58 52.344 508.196 52.344H508.808V54.792H507.692C505.628 54.792 504.056 55.332 502.976 56.412C501.896 57.468 501.356 59.028 501.356 61.092V71.604H498.656ZM528.49 71.82C527.17 71.82 526.03 71.628 525.07 71.244C524.11 70.86 523.366 70.212 522.838 69.3C522.31 68.364 522.046 67.116 522.046 65.556V46.548H524.638V65.952C524.638 67.056 524.938 67.908 525.538 68.508C526.138 69.084 526.99 69.372 528.094 69.372H531.514V71.82H528.49ZM518.626 54.612V52.56H531.514V54.612H518.626ZM536.73 71.604V45.324H539.43V60.192L538.638 60.804C538.638 59.028 538.89 57.48 539.394 56.16C539.922 54.84 540.702 53.82 541.734 53.1C542.79 52.356 544.11 51.984 545.694 51.984H545.838C548.142 51.984 549.882 52.74 551.058 54.252C552.258 55.764 552.858 57.864 552.858 60.552V71.604H550.194V59.976C550.194 58.272 549.726 56.928 548.79 55.944C547.854 54.96 546.594 54.468 545.01 54.468C543.306 54.468 541.95 55.02 540.942 56.124C539.934 57.204 539.43 58.632 539.43 60.408V71.604H536.73ZM560.59 71.604V52.56H563.254V71.604H560.59ZM557.53 54.72V52.56H563.254V54.72H557.53ZM561.166 49.032C560.518 49.032 560.026 48.864 559.69 48.528C559.378 48.168 559.222 47.724 559.222 47.196C559.222 46.668 559.378 46.236 559.69 45.9C560.026 45.54 560.518 45.36 561.166 45.36C561.814 45.36 562.294 45.54 562.606 45.9C562.918 46.236 563.074 46.668 563.074 47.196C563.074 47.724 562.918 48.168 562.606 48.528C562.294 48.864 561.814 49.032 561.166 49.032ZM576.352 72.144C573.904 72.144 572.02 71.616 570.7 70.56C569.38 69.48 568.708 68.04 568.684 66.24H571.204C571.252 67.152 571.66 67.98 572.428 68.724C573.22 69.468 574.528 69.84 576.352 69.84C578.056 69.84 579.328 69.492 580.168 68.796C581.032 68.076 581.464 67.212 581.464 66.204C581.464 65.268 581.104 64.548 580.384 64.044C579.688 63.516 578.668 63.18 577.324 63.036L575.164 62.82C573.436 62.628 572.032 62.1 570.952 61.236C569.896 60.348 569.368 59.136 569.368 57.6C569.368 56.472 569.656 55.488 570.232 54.648C570.808 53.808 571.612 53.16 572.644 52.704C573.7 52.224 574.936 51.984 576.352 51.984C578.392 51.984 580.048 52.464 581.32 53.424C582.616 54.384 583.276 55.752 583.3 57.528H580.78C580.756 56.616 580.372 55.848 579.628 55.224C578.884 54.6 577.792 54.288 576.352 54.288C574.864 54.288 573.748 54.612 573.004 55.26C572.284 55.908 571.924 56.7 571.924 57.636C571.924 58.428 572.2 59.088 572.752 59.616C573.304 60.12 574.168 60.432 575.344 60.552L577.504 60.768C579.424 60.984 580.984 61.536 582.184 62.424C583.408 63.312 584.02 64.584 584.02 66.24C584.02 67.368 583.696 68.388 583.048 69.3C582.424 70.188 581.536 70.884 580.384 71.388C579.232 71.892 577.888 72.144 576.352 72.144ZM598.805 71.604V52.56H601.469V71.604H598.805ZM595.745 54.72V52.56H601.469V54.72H595.745ZM599.381 49.032C598.733 49.032 598.241 48.864 597.905 48.528C597.593 48.168 597.437 47.724 597.437 47.196C597.437 46.668 597.593 46.236 597.905 45.9C598.241 45.54 598.733 45.36 599.381 45.36C600.029 45.36 600.509 45.54 600.821 45.9C601.133 46.236 601.289 46.668 601.289 47.196C601.289 47.724 601.133 48.168 600.821 48.528C600.509 48.864 600.029 49.032 599.381 49.032ZM614.566 72.144C612.118 72.144 610.235 71.616 608.915 70.56C607.595 69.48 606.923 68.04 606.899 66.24H609.419C609.467 67.152 609.875 67.98 610.643 68.724C611.435 69.468 612.743 69.84 614.566 69.84C616.271 69.84 617.543 69.492 618.383 68.796C619.247 68.076 619.679 67.212 619.679 66.204C619.679 65.268 619.319 64.548 618.599 64.044C617.903 63.516 616.883 63.18 615.539 63.036L613.379 62.82C611.651 62.628 610.247 62.1 609.167 61.236C608.111 60.348 607.583 59.136 607.583 57.6C607.583 56.472 607.871 55.488 608.447 54.648C609.023 53.808 609.827 53.16 610.859 52.704C611.915 52.224 613.151 51.984 614.566 51.984C616.607 51.984 618.263 52.464 619.535 53.424C620.831 54.384 621.491 55.752 621.515 57.528H618.995C618.971 56.616 618.587 55.848 617.843 55.224C617.099 54.6 616.007 54.288 614.566 54.288C613.079 54.288 611.963 54.612 611.219 55.26C610.499 55.908 610.139 56.7 610.139 57.636C610.139 58.428 610.415 59.088 610.967 59.616C611.519 60.12 612.383 60.432 613.559 60.552L615.719 60.768C617.639 60.984 619.199 61.536 620.399 62.424C621.623 63.312 622.235 64.584 622.235 66.24C622.235 67.368 621.911 68.388 621.263 69.3C620.639 70.188 619.751 70.884 618.599 71.388C617.447 71.892 616.103 72.144 614.566 72.144ZM642.924 71.82C641.604 71.82 640.464 71.628 639.504 71.244C638.544 70.86 637.8 70.212 637.272 69.3C636.744 68.364 636.48 67.116 636.48 65.556V46.548H639.072V65.952C639.072 67.056 639.372 67.908 639.972 68.508C640.572 69.084 641.424 69.372 642.528 69.372H645.948V71.82H642.924ZM633.06 54.612V52.56H645.948V54.612H633.06ZM651.164 71.604V45.324H653.864V60.192L653.072 60.804C653.072 59.028 653.324 57.48 653.828 56.16C654.356 54.84 655.136 53.82 656.168 53.1C657.224 52.356 658.544 51.984 660.128 51.984H660.272C662.576 51.984 664.316 52.74 665.492 54.252C666.692 55.764 667.292 57.864 667.292 60.552V71.604H664.628V59.976C664.628 58.272 664.16 56.928 663.224 55.944C662.288 54.96 661.028 54.468 659.444 54.468C657.74 54.468 656.384 55.02 655.376 56.124C654.368 57.204 653.864 58.632 653.864 60.408V71.604H651.164ZM681.971 72.216C680.339 72.216 678.923 71.94 677.723 71.388C676.523 70.812 675.539 70.056 674.771 69.12C674.003 68.16 673.427 67.092 673.043 65.916C672.683 64.74 672.503 63.528 672.503 62.28V61.776C672.503 60.552 672.683 59.352 673.043 58.176C673.427 57 674.003 55.944 674.771 55.008C675.539 54.072 676.499 53.328 677.651 52.776C678.827 52.2 680.195 51.912 681.755 51.912C683.747 51.912 685.403 52.356 686.723 53.244C688.067 54.132 689.075 55.272 689.747 56.664C690.419 58.032 690.755 59.508 690.755 61.092V62.496H673.727V60.408H688.883L688.199 61.452C688.199 60.036 687.947 58.8 687.443 57.744C686.963 56.664 686.243 55.824 685.283 55.224C684.347 54.6 683.171 54.288 681.755 54.288C680.267 54.288 679.031 54.636 678.047 55.332C677.063 56.028 676.319 56.952 675.815 58.104C675.335 59.256 675.095 60.564 675.095 62.028C675.095 63.468 675.335 64.788 675.815 65.988C676.319 67.164 677.075 68.1 678.083 68.796C679.115 69.492 680.411 69.84 681.971 69.84C683.627 69.84 684.971 69.468 686.003 68.724C687.035 67.956 687.671 67.056 687.911 66.024H690.431C690.191 67.296 689.687 68.4 688.919 69.336C688.151 70.248 687.179 70.956 686.003 71.46C684.827 71.964 683.483 72.216 681.971 72.216ZM704.355 71.604V52.56H706.515V60.516H706.299C706.299 57.732 706.911 55.68 708.135 54.36C709.359 53.016 711.279 52.344 713.895 52.344H714.507V54.792H713.391C711.327 54.792 709.755 55.332 708.675 56.412C707.595 57.468 707.055 59.028 707.055 61.092V71.604H704.355ZM719.883 71.604V52.56H722.547V71.604H719.883ZM716.823 54.72V52.56H722.547V54.72H716.823ZM720.459 49.032C719.811 49.032 719.319 48.864 718.983 48.528C718.671 48.168 718.515 47.724 718.515 47.196C718.515 46.668 718.671 46.236 718.983 45.9C719.319 45.54 719.811 45.36 720.459 45.36C721.107 45.36 721.587 45.54 721.899 45.9C722.211 46.236 722.367 46.668 722.367 47.196C722.367 47.724 722.211 48.168 721.899 48.528C721.587 48.864 721.107 49.032 720.459 49.032ZM736.905 79.056C736.017 79.056 735.117 79.008 734.205 78.912C733.317 78.84 732.465 78.744 731.649 78.624V76.32C732.513 76.44 733.413 76.536 734.349 76.608C735.309 76.704 736.209 76.752 737.049 76.752C738.873 76.752 740.325 76.512 741.405 76.032C742.485 75.552 743.253 74.784 743.709 73.728C744.189 72.696 744.429 71.328 744.429 69.624V65.808L745.437 63.144C745.389 64.968 745.005 66.54 744.285 67.86C743.565 69.156 742.593 70.152 741.369 70.848C740.145 71.544 738.753 71.892 737.193 71.892C735.825 71.892 734.577 71.628 733.449 71.1C732.345 70.572 731.397 69.852 730.605 68.94C729.813 68.004 729.201 66.948 728.769 65.772C728.337 64.596 728.121 63.36 728.121 62.064V61.56C728.121 60.288 728.337 59.076 728.769 57.924C729.201 56.748 729.813 55.716 730.605 54.828C731.397 53.916 732.357 53.208 733.485 52.704C734.637 52.176 735.909 51.912 737.301 51.912C738.981 51.912 740.445 52.284 741.693 53.028C742.941 53.772 743.913 54.804 744.609 56.124C745.329 57.444 745.713 58.992 745.761 60.768L744.897 60.3V52.56H747.021V69.516C747.021 71.796 746.685 73.632 746.013 75.024C745.341 76.416 744.261 77.436 742.773 78.084C741.309 78.732 739.353 79.056 736.905 79.056ZM737.661 69.408C738.957 69.408 740.109 69.132 741.117 68.58C742.149 68.004 742.965 67.2 743.565 66.168C744.165 65.136 744.465 63.936 744.465 62.568V60.804C744.465 59.484 744.153 58.332 743.529 57.348C742.929 56.364 742.125 55.596 741.117 55.044C740.109 54.492 738.957 54.216 737.661 54.216C736.269 54.216 735.057 54.552 734.025 55.224C732.993 55.896 732.201 56.808 731.649 57.96C731.097 59.088 730.821 60.372 730.821 61.812C730.821 63.276 731.097 64.584 731.649 65.736C732.225 66.888 733.029 67.788 734.061 68.436C735.093 69.084 736.293 69.408 737.661 69.408ZM753.785 71.604V45.324H756.485V60.192L755.693 60.804C755.693 59.028 755.945 57.48 756.449 56.16C756.977 54.84 757.757 53.82 758.789 53.1C759.845 52.356 761.165 51.984 762.749 51.984H762.893C765.197 51.984 766.937 52.74 768.113 54.252C769.313 55.764 769.913 57.864 769.913 60.552V71.604H767.249V59.976C767.249 58.272 766.781 56.928 765.845 55.944C764.909 54.96 763.649 54.468 762.065 54.468C760.361 54.468 759.005 55.02 757.997 56.124C756.989 57.204 756.485 58.632 756.485 60.408V71.604H753.785ZM783.549 71.82C782.229 71.82 781.089 71.628 780.129 71.244C779.169 70.86 778.425 70.212 777.897 69.3C777.369 68.364 777.105 67.116 777.105 65.556V46.548H779.697V65.952C779.697 67.056 779.997 67.908 780.597 68.508C781.197 69.084 782.049 69.372 783.153 69.372H786.573V71.82H783.549ZM773.685 54.612V52.56H786.573V54.612H773.685ZM800.731 71.604V50.868C800.731 48.876 801.247 47.4 802.279 46.44C803.311 45.48 804.859 45 806.923 45H809.119V47.304H806.419C805.411 47.304 804.643 47.568 804.115 48.096C803.587 48.624 803.323 49.368 803.323 50.328V71.604H800.731ZM797.959 54.648V52.56H809.011V54.648H797.959ZM813.979 71.604V52.56H816.679V71.604H813.979ZM811.027 54.72V52.56H816.679V54.72H811.027ZM814.555 49.032C813.907 49.032 813.427 48.864 813.115 48.528C812.803 48.168 812.647 47.724 812.647 47.196C812.647 46.668 812.803 46.236 813.115 45.9C813.427 45.54 813.907 45.36 814.555 45.36C815.203 45.36 815.683 45.54 815.995 45.9C816.307 46.236 816.463 46.668 816.463 47.196C816.463 47.724 816.307 48.168 815.995 48.528C815.683 48.864 815.203 49.032 814.555 49.032ZM830.658 71.82C829.338 71.82 828.198 71.628 827.238 71.244C826.278 70.86 825.534 70.212 825.006 69.3C824.478 68.364 824.214 67.116 824.214 65.556V46.548H826.806V65.952C826.806 67.056 827.106 67.908 827.706 68.508C828.306 69.084 829.158 69.372 830.262 69.372H833.682V71.82H830.658ZM820.794 54.612V52.56H833.682V54.612H820.794ZM838.358 71.604V68.04H841.742V71.604H838.358ZM848.216 54.756V45.324H850.556V54.756H848.216ZM853.652 54.756V45.324H855.992V54.756H853.652Z" fill="url(#paint0_radial_551_749)"/>
<defs>
<radialGradient id="paint0_radial_551_749" cx="0" cy="0" r="1" gradientUnits="userSpaceOnUse" gradientTransform="translate(495.586 36.604) rotate(90) scale(45 520)">
<stop stop-color="#5A69EA"/>
<stop offset="1" stop-color="#BF8BCA"/>
</radialGradient>
</defs>
</svg>
