<svg width="549" height="23" viewBox="0 0 549 23" fill="none" xmlns="http://www.w3.org/2000/svg">
<path d="M-0.000327945 17.52V1.90735e-05H1.82367V17.52H-0.000327945ZM1.34367 9.43202V7.77602L9.09567 7.75202V9.40802L1.34367 9.43202ZM1.34367 1.63202V1.90735e-05H9.55167V1.63202H1.34367ZM18.475 17.928C17.387 17.928 16.427 17.744 15.595 17.376C14.779 16.992 14.083 16.488 13.507 15.864C12.947 15.224 12.515 14.512 12.211 13.728C11.923 12.944 11.779 12.144 11.779 11.328V10.992C11.779 10.176 11.931 9.37602 12.235 8.59202C12.539 7.79202 12.979 7.08002 13.555 6.45602C14.131 5.83202 14.827 5.33602 15.643 4.96802C16.475 4.58402 17.419 4.39202 18.475 4.39202C19.547 4.39202 20.491 4.58402 21.307 4.96802C22.139 5.33602 22.843 5.83202 23.419 6.45602C23.995 7.08002 24.427 7.79202 24.715 8.59202C25.019 9.37602 25.171 10.176 25.171 10.992V11.328C25.171 12.144 25.027 12.944 24.739 13.728C24.451 14.512 24.019 15.224 23.443 15.864C22.883 16.488 22.187 16.992 21.355 17.376C20.523 17.744 19.563 17.928 18.475 17.928ZM18.475 16.32C19.531 16.32 20.419 16.088 21.139 15.624C21.875 15.144 22.435 14.52 22.819 13.752C23.203 12.968 23.395 12.104 23.395 11.16C23.395 10.2 23.195 9.33602 22.795 8.56802C22.411 7.78402 21.851 7.16802 21.115 6.72002C20.379 6.25602 19.499 6.02402 18.475 6.02402C17.467 6.02402 16.595 6.25602 15.859 6.72002C15.123 7.16802 14.555 7.78402 14.155 8.56802C13.771 9.33602 13.579 10.2 13.579 11.16C13.579 12.104 13.771 12.968 14.155 13.752C14.539 14.52 15.091 15.144 15.811 15.624C16.547 16.088 17.435 16.32 18.475 16.32ZM33.2337 17.88C31.7137 17.88 30.5537 17.392 29.7537 16.416C28.9537 15.424 28.5537 14.048 28.5537 12.288V4.80002H30.3297V12.648C30.3297 13.752 30.6177 14.632 31.1937 15.288C31.7857 15.928 32.6017 16.248 33.6417 16.248C34.7297 16.248 35.5937 15.904 36.2337 15.216C36.8897 14.528 37.2177 13.608 37.2177 12.456V4.80002H39.0177V17.52H37.5777V12.216H37.8657C37.8657 13.4 37.6977 14.416 37.3617 15.264C37.0257 16.096 36.5217 16.744 35.8497 17.208C35.1777 17.656 34.3297 17.88 33.3057 17.88H33.2337ZM43.7245 17.52V4.82402H45.1645V10.128H45.0205C45.0205 8.27202 45.4285 6.90402 46.2445 6.02402C47.0605 5.12802 48.3405 4.68002 50.0845 4.68002H50.4925V6.31202H49.7485C48.3725 6.31202 47.3245 6.67202 46.6045 7.39202C45.8845 8.09602 45.5245 9.13602 45.5245 10.512V17.52H43.7245ZM63.6137 17.664C62.7337 17.664 61.9737 17.536 61.3337 17.28C60.6937 17.024 60.1977 16.592 59.8457 15.984C59.4937 15.36 59.3177 14.528 59.3177 13.488V0.816019H61.0457V13.752C61.0457 14.488 61.2457 15.056 61.6457 15.456C62.0457 15.84 62.6137 16.032 63.3497 16.032H65.6297V17.664H63.6137ZM57.0377 6.19202V4.82402H65.6297V6.19202H57.0377ZM69.1073 17.52V1.90735e-05H70.9073V9.91202L70.3793 10.32C70.3793 9.13602 70.5473 8.10402 70.8833 7.22402C71.2353 6.34402 71.7553 5.66402 72.4433 5.18402C73.1473 4.68802 74.0273 4.44002 75.0833 4.44002H75.1793C76.7153 4.44002 77.8753 4.94402 78.6593 5.95202C79.4593 6.96002 79.8593 8.36002 79.8593 10.152V17.52H78.0833V9.76802C78.0833 8.63202 77.7713 7.73602 77.1473 7.08002C76.5233 6.42402 75.6833 6.09602 74.6273 6.09602C73.4913 6.09602 72.5873 6.46402 71.9153 7.20002C71.2433 7.92002 70.9073 8.87202 70.9073 10.056V17.52H69.1073ZM85.0137 17.52V4.82402H86.7897V17.52H85.0137ZM82.9737 6.26402V4.82402H86.7897V6.26402H82.9737ZM85.3977 2.47202C84.9657 2.47202 84.6377 2.36002 84.4137 2.13602C84.2057 1.89602 84.1017 1.60002 84.1017 1.24802C84.1017 0.896019 84.2057 0.608018 84.4137 0.384018C84.6377 0.144019 84.9657 0.0240188 85.3977 0.0240188C85.8297 0.0240188 86.1497 0.144019 86.3577 0.384018C86.5657 0.608018 86.6697 0.896019 86.6697 1.24802C86.6697 1.60002 86.5657 1.89602 86.3577 2.13602C86.1497 2.36002 85.8297 2.47202 85.3977 2.47202ZM91.5135 17.52V4.82402H92.9535V10.152H92.6655C92.6655 8.96802 92.8415 7.95202 93.1935 7.10402C93.5455 6.25602 94.0735 5.60002 94.7775 5.13602C95.4815 4.67202 96.3695 4.44002 97.4415 4.44002H97.5135C99.1135 4.44002 100.306 4.94402 101.09 5.95202C101.874 6.94402 102.266 8.34402 102.266 10.152V17.52H100.49V9.76802C100.49 8.66402 100.186 7.77602 99.5775 7.10402C98.9695 6.43202 98.1215 6.09602 97.0335 6.09602C95.9135 6.09602 95.0095 6.44802 94.3215 7.15202C93.6495 7.84002 93.3135 8.75202 93.3135 9.88802V17.52H91.5135ZM111.596 22.488C111.004 22.488 110.404 22.456 109.796 22.392C109.204 22.344 108.636 22.28 108.092 22.2V20.664C108.668 20.744 109.268 20.808 109.892 20.856C110.532 20.92 111.132 20.952 111.692 20.952C112.908 20.952 113.876 20.792 114.596 20.472C115.316 20.152 115.828 19.64 116.132 18.936C116.452 18.248 116.612 17.336 116.612 16.2V13.656L117.284 11.88C117.252 13.096 116.996 14.144 116.516 15.024C116.036 15.888 115.388 16.552 114.572 17.016C113.756 17.48 112.828 17.712 111.788 17.712C110.876 17.712 110.044 17.536 109.292 17.184C108.556 16.832 107.924 16.352 107.396 15.744C106.868 15.12 106.46 14.416 106.172 13.632C105.884 12.848 105.74 12.024 105.74 11.16V10.824C105.74 9.97602 105.884 9.16802 106.172 8.40002C106.46 7.61602 106.868 6.92802 107.396 6.33602C107.924 5.72802 108.564 5.25602 109.316 4.92002C110.084 4.56802 110.932 4.39202 111.86 4.39202C112.98 4.39202 113.956 4.64002 114.788 5.13602C115.62 5.63202 116.268 6.32002 116.732 7.20002C117.212 8.08002 117.468 9.11202 117.5 10.296L116.924 9.98402V4.82402H118.34V16.128C118.34 17.648 118.116 18.872 117.668 19.8C117.22 20.728 116.5 21.408 115.508 21.84C114.532 22.272 113.228 22.488 111.596 22.488ZM112.1 16.056C112.964 16.056 113.732 15.872 114.404 15.504C115.092 15.12 115.636 14.584 116.036 13.896C116.436 13.208 116.636 12.408 116.636 11.496V10.32C116.636 9.44002 116.428 8.67202 116.012 8.01602C115.612 7.36002 115.076 6.84802 114.404 6.48002C113.732 6.11202 112.964 5.92802 112.1 5.92802C111.172 5.92802 110.364 6.15202 109.676 6.60002C108.988 7.04802 108.46 7.65602 108.092 8.42402C107.724 9.17602 107.54 10.032 107.54 10.992C107.54 11.968 107.724 12.84 108.092 13.608C108.476 14.376 109.012 14.976 109.7 15.408C110.388 15.84 111.188 16.056 112.1 16.056ZM126.857 17.88C125.225 17.88 123.969 17.528 123.089 16.824C122.209 16.104 121.761 15.144 121.745 13.944H123.425C123.457 14.552 123.729 15.104 124.241 15.6C124.769 16.096 125.641 16.344 126.857 16.344C127.993 16.344 128.841 16.112 129.401 15.648C129.977 15.168 130.265 14.592 130.265 13.92C130.265 13.296 130.025 12.816 129.545 12.48C129.081 12.128 128.401 11.904 127.505 11.808L126.065 11.664C124.913 11.536 123.977 11.184 123.257 10.608C122.553 10.016 122.201 9.20802 122.201 8.18402C122.201 7.43202 122.393 6.77602 122.777 6.21602C123.161 5.65602 123.697 5.22402 124.385 4.92002C125.089 4.60002 125.913 4.44002 126.857 4.44002C128.217 4.44002 129.321 4.76002 130.169 5.40002C131.033 6.04002 131.473 6.95202 131.489 8.13602H129.809C129.793 7.52802 129.537 7.01602 129.041 6.60002C128.545 6.18402 127.817 5.97602 126.857 5.97602C125.865 5.97602 125.121 6.19202 124.625 6.62402C124.145 7.05602 123.905 7.58402 123.905 8.20802C123.905 8.73602 124.089 9.17602 124.457 9.52802C124.825 9.86402 125.401 10.072 126.185 10.152L127.625 10.296C128.905 10.44 129.945 10.808 130.745 11.4C131.561 11.992 131.969 12.84 131.969 13.944C131.969 14.696 131.753 15.376 131.321 15.984C130.905 16.576 130.313 17.04 129.545 17.376C128.777 17.712 127.881 17.88 126.857 17.88ZM144.706 17.52L147.418 5.23202H149.938L153.082 17.52H151.522L148.378 5.30402H148.954L146.218 17.52H144.706ZM143.674 17.52V16.056H145.858V17.52H143.674ZM143.242 17.52L139.57 4.82402H141.298L144.922 17.52H143.242ZM151.93 17.52V16.056H154.066V17.52H151.93ZM152.866 17.52L156.034 4.82402H157.69L154.45 17.52H152.866ZM166.099 17.928C165.011 17.928 164.067 17.744 163.267 17.376C162.467 16.992 161.811 16.488 161.299 15.864C160.787 15.224 160.403 14.512 160.147 13.728C159.907 12.944 159.787 12.136 159.787 11.304V10.968C159.787 10.152 159.907 9.35202 160.147 8.56802C160.403 7.78402 160.787 7.08002 161.299 6.45602C161.811 5.83202 162.451 5.33602 163.219 4.96802C164.003 4.58402 164.915 4.39202 165.955 4.39202C167.283 4.39202 168.387 4.68802 169.267 5.28002C170.163 5.87202 170.835 6.63202 171.283 7.56002C171.731 8.47202 171.955 9.45602 171.955 10.512V11.448H160.603V10.056H170.707L170.251 10.752C170.251 9.80802 170.083 8.98402 169.747 8.28002C169.427 7.56002 168.947 7.00002 168.307 6.60002C167.683 6.18402 166.899 5.97602 165.955 5.97602C164.963 5.97602 164.139 6.20802 163.483 6.67202C162.827 7.13602 162.331 7.75202 161.995 8.52002C161.675 9.28802 161.515 10.16 161.515 11.136C161.515 12.096 161.675 12.976 161.995 13.776C162.331 14.56 162.835 15.184 163.507 15.648C164.195 16.112 165.059 16.344 166.099 16.344C167.203 16.344 168.099 16.096 168.787 15.6C169.475 15.088 169.899 14.488 170.059 13.8H171.739C171.579 14.648 171.243 15.384 170.731 16.008C170.219 16.616 169.571 17.088 168.787 17.424C168.003 17.76 167.107 17.928 166.099 17.928ZM187.573 17.928C186.453 17.928 185.469 17.68 184.621 17.184C183.789 16.688 183.133 15.992 182.653 15.096C182.189 14.2 181.941 13.168 181.909 12H182.461V17.52H181.021V1.90735e-05H182.821V8.76002L182.125 10.368C182.157 9.08802 182.413 8.00802 182.893 7.12802C183.389 6.23202 184.045 5.55202 184.861 5.08802C185.693 4.62402 186.637 4.39202 187.693 4.39202C188.621 4.39202 189.461 4.56802 190.213 4.92002C190.965 5.27202 191.605 5.75202 192.133 6.36002C192.677 6.96802 193.085 7.67202 193.357 8.47202C193.645 9.25602 193.789 10.088 193.789 10.968V11.304C193.789 12.168 193.645 13 193.357 13.8C193.069 14.584 192.653 15.288 192.109 15.912C191.581 16.536 190.933 17.032 190.165 17.4C189.397 17.752 188.533 17.928 187.573 17.928ZM187.381 16.344C188.341 16.344 189.165 16.112 189.853 15.648C190.541 15.184 191.069 14.56 191.437 13.776C191.805 12.992 191.989 12.112 191.989 11.136C191.989 10.144 191.797 9.26402 191.413 8.49602C191.045 7.71202 190.509 7.09602 189.805 6.64802C189.117 6.20002 188.309 5.97602 187.381 5.97602C186.517 5.97602 185.733 6.16802 185.029 6.55202C184.325 6.93602 183.765 7.48002 183.349 8.18402C182.949 8.87202 182.749 9.68802 182.749 10.632V11.808C182.749 12.704 182.949 13.496 183.349 14.184C183.765 14.856 184.325 15.384 185.029 15.768C185.733 16.152 186.517 16.344 187.381 16.344ZM202.732 17.928C201.644 17.928 200.7 17.744 199.9 17.376C199.1 16.992 198.444 16.488 197.932 15.864C197.42 15.224 197.036 14.512 196.78 13.728C196.54 12.944 196.42 12.136 196.42 11.304V10.968C196.42 10.152 196.54 9.35202 196.78 8.56802C197.036 7.78402 197.42 7.08002 197.932 6.45602C198.444 5.83202 199.084 5.33602 199.852 4.96802C200.636 4.58402 201.548 4.39202 202.588 4.39202C203.916 4.39202 205.02 4.68802 205.9 5.28002C206.796 5.87202 207.468 6.63202 207.916 7.56002C208.364 8.47202 208.588 9.45602 208.588 10.512V11.448H197.236V10.056H207.34L206.884 10.752C206.884 9.80802 206.716 8.98402 206.38 8.28002C206.06 7.56002 205.58 7.00002 204.94 6.60002C204.316 6.18402 203.532 5.97602 202.588 5.97602C201.596 5.97602 200.772 6.20802 200.116 6.67202C199.46 7.13602 198.964 7.75202 198.628 8.52002C198.308 9.28802 198.148 10.16 198.148 11.136C198.148 12.096 198.308 12.976 198.628 13.776C198.964 14.56 199.468 15.184 200.14 15.648C200.828 16.112 201.692 16.344 202.732 16.344C203.836 16.344 204.732 16.096 205.42 15.6C206.108 15.088 206.532 14.488 206.692 13.8H208.372C208.212 14.648 207.876 15.384 207.364 16.008C206.852 16.616 206.204 17.088 205.42 17.424C204.636 17.76 203.74 17.928 202.732 17.928ZM212.173 17.52V1.90735e-05H213.973V17.52H212.173ZM210.325 1.46402V1.90735e-05H213.973V1.46402H210.325ZM219.311 17.52V4.82402H221.087V17.52H219.311ZM217.271 6.26402V4.82402H221.087V6.26402H217.271ZM219.695 2.47202C219.263 2.47202 218.935 2.36002 218.711 2.13602C218.503 1.89602 218.399 1.60002 218.399 1.24802C218.399 0.896019 218.503 0.608018 218.711 0.384018C218.935 0.144019 219.263 0.0240188 219.695 0.0240188C220.127 0.0240188 220.447 0.144019 220.655 0.384018C220.863 0.608018 220.967 0.896019 220.967 1.24802C220.967 1.60002 220.863 1.89602 220.655 2.13602C220.447 2.36002 220.127 2.47202 219.695 2.47202ZM231.114 17.928C230.026 17.928 229.082 17.744 228.282 17.376C227.482 16.992 226.826 16.488 226.314 15.864C225.802 15.224 225.418 14.512 225.162 13.728C224.922 12.944 224.802 12.136 224.802 11.304V10.968C224.802 10.152 224.922 9.35202 225.162 8.56802C225.418 7.78402 225.802 7.08002 226.314 6.45602C226.826 5.83202 227.466 5.33602 228.234 4.96802C229.018 4.58402 229.93 4.39202 230.97 4.39202C232.298 4.39202 233.402 4.68802 234.282 5.28002C235.178 5.87202 235.85 6.63202 236.298 7.56002C236.746 8.47202 236.97 9.45602 236.97 10.512V11.448H225.618V10.056H235.722L235.266 10.752C235.266 9.80802 235.098 8.98402 234.762 8.28002C234.442 7.56002 233.962 7.00002 233.322 6.60002C232.698 6.18402 231.914 5.97602 230.97 5.97602C229.978 5.97602 229.154 6.20802 228.498 6.67202C227.842 7.13602 227.346 7.75202 227.01 8.52002C226.69 9.28802 226.53 10.16 226.53 11.136C226.53 12.096 226.69 12.976 227.01 13.776C227.346 14.56 227.85 15.184 228.522 15.648C229.21 16.112 230.074 16.344 231.114 16.344C232.218 16.344 233.114 16.096 233.802 15.6C234.49 15.088 234.914 14.488 235.074 13.8H236.754C236.594 14.648 236.258 15.384 235.746 16.008C235.234 16.616 234.586 17.088 233.802 17.424C233.018 17.76 232.122 17.928 231.114 17.928ZM243.174 17.52L238.71 4.82402H240.558L244.974 17.52H243.174ZM243.654 17.52V16.056H245.934V17.52H243.654ZM244.638 17.52L248.502 4.82402H250.278L246.342 17.52H244.638ZM258.56 17.928C257.472 17.928 256.528 17.744 255.728 17.376C254.928 16.992 254.272 16.488 253.76 15.864C253.248 15.224 252.864 14.512 252.608 13.728C252.368 12.944 252.248 12.136 252.248 11.304V10.968C252.248 10.152 252.368 9.35202 252.608 8.56802C252.864 7.78402 253.248 7.08002 253.76 6.45602C254.272 5.83202 254.912 5.33602 255.68 4.96802C256.464 4.58402 257.376 4.39202 258.416 4.39202C259.744 4.39202 260.848 4.68802 261.728 5.28002C262.624 5.87202 263.296 6.63202 263.744 7.56002C264.192 8.47202 264.416 9.45602 264.416 10.512V11.448H253.064V10.056H263.168L262.712 10.752C262.712 9.80802 262.544 8.98402 262.208 8.28002C261.888 7.56002 261.408 7.00002 260.768 6.60002C260.144 6.18402 259.36 5.97602 258.416 5.97602C257.424 5.97602 256.6 6.20802 255.944 6.67202C255.288 7.13602 254.792 7.75202 254.456 8.52002C254.136 9.28802 253.976 10.16 253.976 11.136C253.976 12.096 254.136 12.976 254.456 13.776C254.792 14.56 255.296 15.184 255.968 15.648C256.656 16.112 257.52 16.344 258.56 16.344C259.664 16.344 260.56 16.096 261.248 15.6C261.936 15.088 262.36 14.488 262.52 13.8H264.2C264.04 14.648 263.704 15.384 263.192 16.008C262.68 16.616 262.032 17.088 261.248 17.424C260.464 17.76 259.568 17.928 258.56 17.928Z" fill="#717171"/>
<path d="M273.482 17.52V4.80002H274.922V10.152H274.634C274.634 8.98402 274.794 7.97602 275.114 7.12802C275.45 6.28002 275.946 5.62402 276.602 5.16002C277.258 4.68002 278.09 4.44002 279.098 4.44002H279.17C280.178 4.44002 281.01 4.67202 281.666 5.13602C282.322 5.60002 282.81 6.25602 283.13 7.10402C283.45 7.95202 283.61 8.96802 283.61 10.152H283.034C283.034 8.98402 283.194 7.97602 283.514 7.12802C283.85 6.28002 284.346 5.62402 285.002 5.16002C285.674 4.68002 286.514 4.44002 287.522 4.44002H287.594C288.602 4.44002 289.434 4.67202 290.09 5.13602C290.762 5.60002 291.258 6.25602 291.578 7.10402C291.914 7.95202 292.082 8.96802 292.082 10.152V17.52H290.282V9.74402C290.282 8.62402 290.01 7.73602 289.466 7.08002C288.922 6.42402 288.138 6.09602 287.114 6.09602C286.058 6.09602 285.218 6.44002 284.594 7.12802C283.986 7.80002 283.682 8.71202 283.682 9.86402V17.52H281.882V9.74402C281.882 8.62402 281.61 7.73602 281.066 7.08002C280.522 6.42402 279.738 6.09602 278.714 6.09602C277.658 6.09602 276.818 6.44002 276.194 7.12802C275.586 7.80002 275.282 8.71202 275.282 9.86402V17.52H273.482ZM302.256 17.928C301.168 17.928 300.208 17.744 299.376 17.376C298.56 16.992 297.864 16.488 297.288 15.864C296.728 15.224 296.296 14.512 295.992 13.728C295.704 12.944 295.56 12.144 295.56 11.328V10.992C295.56 10.176 295.712 9.37602 296.016 8.59202C296.32 7.79202 296.76 7.08002 297.336 6.45602C297.912 5.83202 298.608 5.33602 299.424 4.96802C300.256 4.58402 301.2 4.39202 302.256 4.39202C303.328 4.39202 304.272 4.58402 305.088 4.96802C305.92 5.33602 306.624 5.83202 307.2 6.45602C307.776 7.08002 308.208 7.79202 308.496 8.59202C308.8 9.37602 308.952 10.176 308.952 10.992V11.328C308.952 12.144 308.808 12.944 308.52 13.728C308.232 14.512 307.8 15.224 307.224 15.864C306.664 16.488 305.968 16.992 305.136 17.376C304.304 17.744 303.344 17.928 302.256 17.928ZM302.256 16.32C303.312 16.32 304.2 16.088 304.92 15.624C305.656 15.144 306.216 14.52 306.6 13.752C306.984 12.968 307.176 12.104 307.176 11.16C307.176 10.2 306.976 9.33602 306.576 8.56802C306.192 7.78402 305.632 7.16802 304.896 6.72002C304.16 6.25602 303.28 6.02402 302.256 6.02402C301.248 6.02402 300.376 6.25602 299.64 6.72002C298.904 7.16802 298.336 7.78402 297.936 8.56802C297.552 9.33602 297.36 10.2 297.36 11.16C297.36 12.104 297.552 12.968 297.936 13.752C298.32 14.52 298.872 15.144 299.592 15.624C300.328 16.088 301.216 16.32 302.256 16.32ZM316.631 17.88C314.999 17.88 313.743 17.528 312.863 16.824C311.983 16.104 311.535 15.144 311.519 13.944H313.199C313.231 14.552 313.503 15.104 314.015 15.6C314.543 16.096 315.415 16.344 316.631 16.344C317.767 16.344 318.615 16.112 319.175 15.648C319.751 15.168 320.039 14.592 320.039 13.92C320.039 13.296 319.799 12.816 319.319 12.48C318.855 12.128 318.175 11.904 317.279 11.808L315.839 11.664C314.687 11.536 313.751 11.184 313.031 10.608C312.327 10.016 311.975 9.20802 311.975 8.18402C311.975 7.43202 312.167 6.77602 312.551 6.21602C312.935 5.65602 313.471 5.22402 314.159 4.92002C314.863 4.60002 315.687 4.44002 316.631 4.44002C317.991 4.44002 319.095 4.76002 319.943 5.40002C320.807 6.04002 321.247 6.95202 321.263 8.13602H319.583C319.567 7.52802 319.311 7.01602 318.815 6.60002C318.319 6.18402 317.591 5.97602 316.631 5.97602C315.639 5.97602 314.895 6.19202 314.399 6.62402C313.919 7.05602 313.679 7.58402 313.679 8.20802C313.679 8.73602 313.863 9.17602 314.231 9.52802C314.599 9.86402 315.175 10.072 315.959 10.152L317.399 10.296C318.679 10.44 319.719 10.808 320.519 11.4C321.335 11.992 321.743 12.84 321.743 13.944C321.743 14.696 321.527 15.376 321.095 15.984C320.679 16.576 320.087 17.04 319.319 17.376C318.551 17.712 317.655 17.88 316.631 17.88ZM329.934 17.664C329.054 17.664 328.294 17.536 327.654 17.28C327.014 17.024 326.518 16.592 326.166 15.984C325.814 15.36 325.638 14.528 325.638 13.488V0.816019H327.366V13.752C327.366 14.488 327.566 15.056 327.966 15.456C328.366 15.84 328.934 16.032 329.67 16.032H331.95V17.664H329.934ZM323.358 6.19202V4.82402H331.95V6.19202H323.358ZM345.037 17.88C343.405 17.88 342.149 17.528 341.269 16.824C340.389 16.104 339.941 15.144 339.925 13.944H341.605C341.637 14.552 341.909 15.104 342.421 15.6C342.949 16.096 343.821 16.344 345.037 16.344C346.173 16.344 347.021 16.112 347.581 15.648C348.157 15.168 348.445 14.592 348.445 13.92C348.445 13.296 348.205 12.816 347.725 12.48C347.261 12.128 346.581 11.904 345.685 11.808L344.245 11.664C343.093 11.536 342.157 11.184 341.437 10.608C340.733 10.016 340.381 9.20802 340.381 8.18402C340.381 7.43202 340.573 6.77602 340.957 6.21602C341.341 5.65602 341.877 5.22402 342.565 4.92002C343.269 4.60002 344.093 4.44002 345.037 4.44002C346.397 4.44002 347.501 4.76002 348.349 5.40002C349.213 6.04002 349.653 6.95202 349.669 8.13602H347.989C347.973 7.52802 347.717 7.01602 347.221 6.60002C346.725 6.18402 345.997 5.97602 345.037 5.97602C344.045 5.97602 343.301 6.19202 342.805 6.62402C342.325 7.05602 342.085 7.58402 342.085 8.20802C342.085 8.73602 342.269 9.17602 342.637 9.52802C343.005 9.86402 343.581 10.072 344.365 10.152L345.805 10.296C347.085 10.44 348.125 10.808 348.925 11.4C349.741 11.992 350.149 12.84 350.149 13.944C350.149 14.696 349.933 15.376 349.501 15.984C349.085 16.576 348.493 17.04 347.725 17.376C346.957 17.712 346.061 17.88 345.037 17.88ZM358.34 17.664C357.46 17.664 356.7 17.536 356.06 17.28C355.42 17.024 354.924 16.592 354.572 15.984C354.22 15.36 354.044 14.528 354.044 13.488V0.816019H355.772V13.752C355.772 14.488 355.972 15.056 356.372 15.456C356.772 15.84 357.34 16.032 358.076 16.032H360.356V17.664H358.34ZM351.764 6.19202V4.82402H360.356V6.19202H351.764ZM368.226 17.88C366.706 17.88 365.546 17.392 364.746 16.416C363.946 15.424 363.546 14.048 363.546 12.288V4.80002H365.322V12.648C365.322 13.752 365.61 14.632 366.186 15.288C366.778 15.928 367.594 16.248 368.634 16.248C369.722 16.248 370.586 15.904 371.226 15.216C371.882 14.528 372.21 13.608 372.21 12.456V4.80002H374.01V17.52H372.57V12.216H372.858C372.858 13.4 372.69 14.416 372.354 15.264C372.018 16.096 371.514 16.744 370.842 17.208C370.17 17.656 369.322 17.88 368.298 17.88H368.226ZM383.925 17.928C382.997 17.928 382.149 17.76 381.381 17.424C380.629 17.072 379.973 16.592 379.413 15.984C378.869 15.36 378.445 14.656 378.141 13.872C377.853 13.072 377.709 12.224 377.709 11.328V10.992C377.709 10.128 377.853 9.30402 378.141 8.52002C378.429 7.72002 378.837 7.01602 379.365 6.40802C379.909 5.78402 380.557 5.29602 381.309 4.94402C382.077 4.57602 382.933 4.39202 383.877 4.39202C384.949 4.39202 385.893 4.62402 386.709 5.08802C387.525 5.55202 388.181 6.22402 388.677 7.10402C389.173 7.96802 389.437 9.03202 389.469 10.296L388.677 8.80802V1.90735e-05H390.477V17.52H389.037V11.88H389.613C389.581 13.208 389.301 14.328 388.773 15.24C388.261 16.136 387.581 16.808 386.733 17.256C385.901 17.704 384.965 17.928 383.925 17.928ZM384.165 16.344C385.029 16.344 385.805 16.152 386.493 15.768C387.197 15.384 387.749 14.84 388.149 14.136C388.549 13.416 388.749 12.592 388.749 11.664V10.512C388.749 9.61602 388.549 8.83202 388.149 8.16002C387.749 7.47202 387.197 6.93602 386.493 6.55202C385.805 6.16802 385.021 5.97602 384.141 5.97602C383.197 5.97602 382.373 6.20802 381.669 6.67202C380.981 7.12002 380.445 7.73602 380.061 8.52002C379.693 9.30402 379.509 10.184 379.509 11.16C379.509 12.168 379.701 13.064 380.085 13.848C380.469 14.632 381.013 15.248 381.717 15.696C382.421 16.128 383.237 16.344 384.165 16.344ZM395.795 17.52V4.82402H397.571V17.52H395.795ZM393.755 6.26402V4.82402H397.571V6.26402H393.755ZM396.179 2.47202C395.747 2.47202 395.419 2.36002 395.195 2.13602C394.987 1.89602 394.883 1.60002 394.883 1.24802C394.883 0.896019 394.987 0.608018 395.195 0.384018C395.419 0.144019 395.747 0.0240188 396.179 0.0240188C396.611 0.0240188 396.931 0.144019 397.139 0.384018C397.347 0.608018 397.451 0.896019 397.451 1.24802C397.451 1.60002 397.347 1.89602 397.139 2.13602C396.931 2.36002 396.611 2.47202 396.179 2.47202ZM407.983 17.928C406.895 17.928 405.935 17.744 405.103 17.376C404.287 16.992 403.591 16.488 403.015 15.864C402.455 15.224 402.023 14.512 401.719 13.728C401.431 12.944 401.287 12.144 401.287 11.328V10.992C401.287 10.176 401.439 9.37602 401.743 8.59202C402.047 7.79202 402.487 7.08002 403.063 6.45602C403.639 5.83202 404.335 5.33602 405.151 4.96802C405.983 4.58402 406.927 4.39202 407.983 4.39202C409.055 4.39202 409.999 4.58402 410.815 4.96802C411.647 5.33602 412.351 5.83202 412.927 6.45602C413.503 7.08002 413.935 7.79202 414.223 8.59202C414.527 9.37602 414.679 10.176 414.679 10.992V11.328C414.679 12.144 414.535 12.944 414.247 13.728C413.959 14.512 413.527 15.224 412.951 15.864C412.391 16.488 411.695 16.992 410.863 17.376C410.031 17.744 409.071 17.928 407.983 17.928ZM407.983 16.32C409.039 16.32 409.927 16.088 410.647 15.624C411.383 15.144 411.943 14.52 412.327 13.752C412.711 12.968 412.903 12.104 412.903 11.16C412.903 10.2 412.703 9.33602 412.303 8.56802C411.919 7.78402 411.359 7.16802 410.623 6.72002C409.887 6.25602 409.007 6.02402 407.983 6.02402C406.975 6.02402 406.103 6.25602 405.367 6.72002C404.631 7.16802 404.063 7.78402 403.663 8.56802C403.279 9.33602 403.087 10.2 403.087 11.16C403.087 12.104 403.279 12.968 403.663 13.752C404.047 14.52 404.599 15.144 405.319 15.624C406.055 16.088 406.943 16.32 407.983 16.32ZM422.357 17.88C420.725 17.88 419.469 17.528 418.589 16.824C417.709 16.104 417.261 15.144 417.245 13.944H418.925C418.957 14.552 419.229 15.104 419.741 15.6C420.269 16.096 421.141 16.344 422.357 16.344C423.493 16.344 424.341 16.112 424.901 15.648C425.477 15.168 425.765 14.592 425.765 13.92C425.765 13.296 425.525 12.816 425.045 12.48C424.581 12.128 423.901 11.904 423.005 11.808L421.565 11.664C420.413 11.536 419.477 11.184 418.757 10.608C418.053 10.016 417.701 9.20802 417.701 8.18402C417.701 7.43202 417.893 6.77602 418.277 6.21602C418.661 5.65602 419.197 5.22402 419.885 4.92002C420.589 4.60002 421.413 4.44002 422.357 4.44002C423.717 4.44002 424.821 4.76002 425.669 5.40002C426.533 6.04002 426.973 6.95202 426.989 8.13602H425.309C425.293 7.52802 425.037 7.01602 424.541 6.60002C424.045 6.18402 423.317 5.97602 422.357 5.97602C421.365 5.97602 420.621 6.19202 420.125 6.62402C419.645 7.05602 419.405 7.58402 419.405 8.20802C419.405 8.73602 419.589 9.17602 419.957 9.52802C420.325 9.86402 420.901 10.072 421.685 10.152L423.125 10.296C424.405 10.44 425.445 10.808 426.245 11.4C427.061 11.992 427.469 12.84 427.469 13.944C427.469 14.696 427.253 15.376 426.821 15.984C426.405 16.576 425.813 17.04 425.045 17.376C424.277 17.712 423.381 17.88 422.357 17.88ZM440.206 17.52L442.918 5.23202H445.438L448.582 17.52H447.022L443.878 5.30402H444.454L441.718 17.52H440.206ZM439.174 17.52V16.056H441.358V17.52H439.174ZM438.742 17.52L435.07 4.82402H436.798L440.422 17.52H438.742ZM447.43 17.52V16.056H449.566V17.52H447.43ZM448.366 17.52L451.534 4.82402H453.19L449.95 17.52H448.366ZM461.983 17.928C460.895 17.928 459.935 17.744 459.103 17.376C458.287 16.992 457.591 16.488 457.015 15.864C456.455 15.224 456.023 14.512 455.719 13.728C455.431 12.944 455.287 12.144 455.287 11.328V10.992C455.287 10.176 455.439 9.37602 455.743 8.59202C456.047 7.79202 456.487 7.08002 457.063 6.45602C457.639 5.83202 458.335 5.33602 459.151 4.96802C459.983 4.58402 460.927 4.39202 461.983 4.39202C463.055 4.39202 463.999 4.58402 464.815 4.96802C465.647 5.33602 466.351 5.83202 466.927 6.45602C467.503 7.08002 467.935 7.79202 468.223 8.59202C468.527 9.37602 468.679 10.176 468.679 10.992V11.328C468.679 12.144 468.535 12.944 468.247 13.728C467.959 14.512 467.527 15.224 466.951 15.864C466.391 16.488 465.695 16.992 464.863 17.376C464.031 17.744 463.071 17.928 461.983 17.928ZM461.983 16.32C463.039 16.32 463.927 16.088 464.647 15.624C465.383 15.144 465.943 14.52 466.327 13.752C466.711 12.968 466.903 12.104 466.903 11.16C466.903 10.2 466.703 9.33602 466.303 8.56802C465.919 7.78402 465.359 7.16802 464.623 6.72002C463.887 6.25602 463.007 6.02402 461.983 6.02402C460.975 6.02402 460.103 6.25602 459.367 6.72002C458.631 7.16802 458.063 7.78402 457.663 8.56802C457.279 9.33602 457.087 10.2 457.087 11.16C457.087 12.104 457.279 12.968 457.663 13.752C458.047 14.52 458.599 15.144 459.319 15.624C460.055 16.088 460.943 16.32 461.983 16.32ZM472.349 17.52V4.82402H473.789V10.152H473.501C473.501 8.96802 473.677 7.95202 474.029 7.10402C474.381 6.25602 474.909 5.60002 475.613 5.13602C476.317 4.67202 477.205 4.44002 478.277 4.44002H478.349C479.949 4.44002 481.141 4.94402 481.925 5.95202C482.709 6.94402 483.101 8.34402 483.101 10.152V17.52H481.325V9.76802C481.325 8.66402 481.021 7.77602 480.413 7.10402C479.805 6.43202 478.957 6.09602 477.869 6.09602C476.749 6.09602 475.845 6.44802 475.157 7.15202C474.485 7.84002 474.149 8.75202 474.149 9.88802V17.52H472.349ZM486.788 6.28802V1.90735e-05H488.348V6.28802H486.788ZM497.629 17.664C496.749 17.664 495.989 17.536 495.349 17.28C494.709 17.024 494.213 16.592 493.861 15.984C493.509 15.36 493.333 14.528 493.333 13.488V0.816019H495.061V13.752C495.061 14.488 495.261 15.056 495.661 15.456C496.061 15.84 496.629 16.032 497.365 16.032H499.645V17.664H497.629ZM491.053 6.19202V4.82402H499.645V6.19202H491.053ZM512.732 17.88C511.1 17.88 509.844 17.528 508.964 16.824C508.084 16.104 507.636 15.144 507.62 13.944H509.3C509.332 14.552 509.604 15.104 510.116 15.6C510.644 16.096 511.516 16.344 512.732 16.344C513.868 16.344 514.716 16.112 515.276 15.648C515.852 15.168 516.14 14.592 516.14 13.92C516.14 13.296 515.9 12.816 515.42 12.48C514.956 12.128 514.276 11.904 513.38 11.808L511.94 11.664C510.788 11.536 509.852 11.184 509.132 10.608C508.428 10.016 508.076 9.20802 508.076 8.18402C508.076 7.43202 508.268 6.77602 508.652 6.21602C509.036 5.65602 509.572 5.22402 510.26 4.92002C510.964 4.60002 511.788 4.44002 512.732 4.44002C514.092 4.44002 515.196 4.76002 516.044 5.40002C516.908 6.04002 517.348 6.95202 517.364 8.13602H515.684C515.668 7.52802 515.412 7.01602 514.916 6.60002C514.42 6.18402 513.692 5.97602 512.732 5.97602C511.74 5.97602 510.996 6.19202 510.5 6.62402C510.02 7.05602 509.78 7.58402 509.78 8.20802C509.78 8.73602 509.964 9.17602 510.332 9.52802C510.7 9.86402 511.276 10.072 512.06 10.152L513.5 10.296C514.78 10.44 515.82 10.808 516.62 11.4C517.436 11.992 517.844 12.84 517.844 13.944C517.844 14.696 517.628 15.376 517.196 15.984C516.78 16.576 516.188 17.04 515.42 17.376C514.652 17.712 513.756 17.88 512.732 17.88ZM529.156 17.52V13.704H528.868V9.19202C528.868 8.24802 528.62 7.52802 528.124 7.03202C527.628 6.52002 526.86 6.26402 525.82 6.26402C525.34 6.26402 524.852 6.27202 524.356 6.28802C523.876 6.30402 523.412 6.32802 522.964 6.36002C522.532 6.37602 522.148 6.40002 521.812 6.43202V4.84802C522.164 4.81602 522.524 4.78402 522.892 4.75202C523.26 4.72002 523.636 4.70402 524.02 4.70402C524.42 4.68802 524.804 4.68002 525.172 4.68002C526.468 4.68002 527.508 4.84002 528.292 5.16002C529.092 5.48002 529.676 5.98402 530.044 6.67202C530.412 7.34402 530.596 8.24002 530.596 9.36002V17.52H529.156ZM524.86 17.856C523.964 17.856 523.172 17.696 522.484 17.376C521.796 17.056 521.26 16.592 520.876 15.984C520.508 15.376 520.324 14.64 520.324 13.776C520.324 12.928 520.516 12.208 520.9 11.616C521.3 11.024 521.868 10.576 522.604 10.272C523.356 9.95202 524.26 9.79202 525.316 9.79202H529.036V11.16H525.196C524.188 11.16 523.412 11.408 522.868 11.904C522.34 12.384 522.076 13.016 522.076 13.8C522.076 14.6 522.356 15.24 522.916 15.72C523.476 16.184 524.236 16.416 525.196 16.416C525.788 16.416 526.356 16.312 526.9 16.104C527.444 15.88 527.9 15.512 528.268 15C528.636 14.472 528.836 13.752 528.868 12.84L529.396 13.584C529.332 14.528 529.108 15.32 528.724 15.96C528.34 16.584 527.82 17.056 527.164 17.376C526.508 17.696 525.74 17.856 524.86 17.856ZM533.94 22.464V20.856H535.572C536.132 20.856 536.612 20.784 537.012 20.64C537.412 20.512 537.748 20.28 538.02 19.944C538.292 19.608 538.524 19.144 538.716 18.552L542.988 4.82402H544.74L540.276 19.056C540.02 19.872 539.668 20.528 539.22 21.024C538.772 21.536 538.236 21.904 537.612 22.128C536.988 22.352 536.276 22.464 535.476 22.464H533.94ZM538.068 17.208V15.696H540.348V17.208H538.068ZM537.852 17.208L533.244 4.82402H535.092L539.532 17.208H537.852ZM546.591 17.52V15.144H548.847V17.52H546.591Z" fill="url(#paint0_radial_813_539)"/>
<defs>
<radialGradient id="paint0_radial_813_539" cx="0" cy="0" r="1" gradientUnits="userSpaceOnUse" gradientTransform="translate(274.264 9.52002) rotate(90) scale(15 277)">
<stop stop-color="#5A69EA"/>
<stop offset="1" stop-color="#BF8BCA"/>
</radialGradient>
</defs>
</svg>
