<svg width="163" height="19" viewBox="0 0 163 19" fill="none" xmlns="http://www.w3.org/2000/svg">
<path d="M12.0477 17.7358V0.215839H13.8717V17.7358H12.0477ZM-0.000327945 17.7358V0.215839H1.82367V17.7358H-0.000327945ZM1.41567 9.86384V8.23184H12.4557V9.86384H1.41567ZM24.6156 18.1438C23.5276 18.1438 22.5676 17.9598 21.7356 17.5918C20.9196 17.2078 20.2236 16.7038 19.6476 16.0798C19.0876 15.4398 18.6556 14.7278 18.3516 13.9438C18.0636 13.1598 17.9196 12.3598 17.9196 11.5438V11.2078C17.9196 10.3918 18.0716 9.59184 18.3756 8.80784C18.6796 8.00784 19.1196 7.29584 19.6956 6.67184C20.2716 6.04784 20.9676 5.55184 21.7836 5.18384C22.6156 4.79984 23.5596 4.60784 24.6156 4.60784C25.6876 4.60784 26.6316 4.79984 27.4476 5.18384C28.2796 5.55184 28.9836 6.04784 29.5596 6.67184C30.1356 7.29584 30.5676 8.00784 30.8556 8.80784C31.1596 9.59184 31.3116 10.3918 31.3116 11.2078V11.5438C31.3116 12.3598 31.1676 13.1598 30.8796 13.9438C30.5916 14.7278 30.1596 15.4398 29.5836 16.0798C29.0236 16.7038 28.3276 17.2078 27.4956 17.5918C26.6636 17.9598 25.7036 18.1438 24.6156 18.1438ZM24.6156 16.5358C25.6716 16.5358 26.5596 16.3038 27.2796 15.8398C28.0156 15.3598 28.5756 14.7358 28.9596 13.9678C29.3436 13.1838 29.5356 12.3198 29.5356 11.3758C29.5356 10.4158 29.3356 9.55184 28.9356 8.78384C28.5516 7.99984 27.9916 7.38384 27.2556 6.93584C26.5196 6.47184 25.6396 6.23984 24.6156 6.23984C23.6076 6.23984 22.7356 6.47184 21.9996 6.93584C21.2636 7.38384 20.6956 7.99984 20.2956 8.78384C19.9116 9.55184 19.7196 10.4158 19.7196 11.3758C19.7196 12.3198 19.9116 13.1838 20.2956 13.9678C20.6796 14.7358 21.2316 15.3598 21.9516 15.8398C22.6876 16.3038 23.5756 16.5358 24.6156 16.5358ZM38.3234 17.7358L41.0354 5.44784H43.5554L46.6994 17.7358H45.1394L41.9954 5.51984H42.5714L39.8354 17.7358H38.3234ZM37.2914 17.7358V16.2718H39.4754V17.7358H37.2914ZM36.8594 17.7358L33.1874 5.03984H34.9154L38.5394 17.7358H36.8594ZM45.5474 17.7358V16.2718H47.6834V17.7358H45.5474ZM46.4834 17.7358L49.6514 5.03984H51.3074L48.0674 17.7358H46.4834ZM63.7765 17.7358L66.4885 5.44784H69.0085L72.1525 17.7358H70.5925L67.4485 5.51984H68.0245L65.2885 17.7358H63.7765ZM62.7445 17.7358V16.2718H64.9285V17.7358H62.7445ZM62.3125 17.7358L58.6405 5.03984H60.3685L63.9925 17.7358H62.3125ZM71.0005 17.7358V16.2718H73.1365V17.7358H71.0005ZM71.9365 17.7358L75.1045 5.03984H76.7605L73.5205 17.7358H71.9365ZM85.1691 18.1438C84.0811 18.1438 83.1371 17.9598 82.3371 17.5918C81.5371 17.2078 80.8811 16.7038 80.3691 16.0798C79.8571 15.4398 79.4731 14.7278 79.2171 13.9438C78.9771 13.1598 78.8571 12.3518 78.8571 11.5198V11.1838C78.8571 10.3678 78.9771 9.56784 79.2171 8.78384C79.4731 7.99984 79.8571 7.29584 80.3691 6.67184C80.8811 6.04784 81.5211 5.55184 82.2891 5.18384C83.0731 4.79984 83.9851 4.60784 85.0251 4.60784C86.3531 4.60784 87.4571 4.90384 88.3371 5.49584C89.2331 6.08784 89.9051 6.84784 90.3531 7.77584C90.8011 8.68784 91.0251 9.67184 91.0251 10.7278V11.6638H79.6731V10.2718H89.7771L89.3211 10.9678C89.3211 10.0238 89.1531 9.19984 88.8171 8.49584C88.4971 7.77584 88.0171 7.21584 87.3771 6.81584C86.7531 6.39984 85.9691 6.19184 85.0251 6.19184C84.0331 6.19184 83.2091 6.42384 82.5531 6.88784C81.8971 7.35184 81.4011 7.96784 81.0651 8.73584C80.7451 9.50384 80.5851 10.3758 80.5851 11.3518C80.5851 12.3118 80.7451 13.1918 81.0651 13.9918C81.4011 14.7758 81.9051 15.3998 82.5771 15.8638C83.2651 16.3278 84.1291 16.5598 85.1691 16.5598C86.2731 16.5598 87.1691 16.3118 87.8571 15.8158C88.5451 15.3038 88.9691 14.7038 89.1291 14.0158H90.8091C90.6491 14.8638 90.3131 15.5998 89.8011 16.2238C89.2891 16.8318 88.6411 17.3038 87.8571 17.6398C87.0731 17.9758 86.1771 18.1438 85.1691 18.1438Z" fill="#404040"/>
<path d="M105.3 18.1438C104.372 18.1438 103.524 17.9758 102.756 17.6398C102.004 17.2878 101.348 16.8078 100.788 16.1998C100.244 15.5758 99.8197 14.8718 99.5157 14.0878C99.2277 13.2878 99.0837 12.4398 99.0837 11.5438V11.2078C99.0837 10.3438 99.2277 9.51984 99.5157 8.73584C99.8037 7.93584 100.212 7.23184 100.74 6.62384C101.284 5.99984 101.932 5.51184 102.684 5.15984C103.452 4.79184 104.308 4.60784 105.252 4.60784C106.324 4.60784 107.268 4.83984 108.084 5.30384C108.9 5.76784 109.556 6.43984 110.052 7.31984C110.548 8.18384 110.812 9.24784 110.844 10.5118L110.052 9.02384V0.215839H111.852V17.7358H110.412V12.0958H110.988C110.956 13.4238 110.676 14.5438 110.148 15.4558C109.636 16.3518 108.956 17.0238 108.108 17.4718C107.276 17.9198 106.34 18.1438 105.3 18.1438ZM105.54 16.5598C106.404 16.5598 107.18 16.3678 107.868 15.9838C108.572 15.5998 109.124 15.0558 109.524 14.3518C109.924 13.6318 110.124 12.8078 110.124 11.8798V10.7278C110.124 9.83184 109.924 9.04784 109.524 8.37584C109.124 7.68784 108.572 7.15184 107.868 6.76784C107.18 6.38384 106.396 6.19184 105.516 6.19184C104.572 6.19184 103.748 6.42384 103.044 6.88784C102.356 7.33584 101.82 7.95184 101.436 8.73584C101.068 9.51984 100.884 10.3998 100.884 11.3758C100.884 12.3838 101.076 13.2798 101.46 14.0638C101.844 14.8478 102.388 15.4638 103.092 15.9118C103.796 16.3438 104.612 16.5598 105.54 16.5598ZM117.17 17.7358V5.03984H118.946V17.7358H117.17ZM115.13 6.47984V5.03984H118.946V6.47984H115.13ZM117.554 2.68784C117.122 2.68784 116.794 2.57584 116.57 2.35184C116.362 2.11184 116.258 1.81584 116.258 1.46384C116.258 1.11184 116.362 0.823839 116.57 0.599839C116.794 0.359839 117.122 0.239839 117.554 0.239839C117.986 0.239839 118.306 0.359839 118.514 0.599839C118.722 0.823839 118.826 1.11184 118.826 1.46384C118.826 1.81584 118.722 2.11184 118.514 2.35184C118.306 2.57584 117.986 2.68784 117.554 2.68784ZM124.03 17.7358V3.91184C124.03 2.58384 124.374 1.59984 125.062 0.959838C125.75 0.319839 126.782 -0.000160694 128.158 -0.000160694H129.526V1.53584H127.822C127.15 1.53584 126.638 1.71184 126.286 2.06384C125.934 2.41584 125.758 2.91184 125.758 3.55184V17.7358H124.03ZM132.166 17.7358V4.05584C132.166 2.72784 132.51 1.74384 133.198 1.10384C133.886 0.463839 134.918 0.143839 136.294 0.143839H137.902V1.67984H135.958C135.286 1.67984 134.774 1.85584 134.422 2.20784C134.07 2.55984 133.894 3.05584 133.894 3.69584V17.7358H132.166ZM122.182 6.52784V5.13584H138.166V6.52784H122.182ZM145.989 18.1438C144.901 18.1438 143.957 17.9598 143.157 17.5918C142.357 17.2078 141.701 16.7038 141.189 16.0798C140.677 15.4398 140.293 14.7278 140.037 13.9438C139.797 13.1598 139.677 12.3518 139.677 11.5198V11.1838C139.677 10.3678 139.797 9.56784 140.037 8.78384C140.293 7.99984 140.677 7.29584 141.189 6.67184C141.701 6.04784 142.341 5.55184 143.109 5.18384C143.893 4.79984 144.805 4.60784 145.845 4.60784C147.173 4.60784 148.277 4.90384 149.157 5.49584C150.053 6.08784 150.725 6.84784 151.173 7.77584C151.621 8.68784 151.845 9.67184 151.845 10.7278V11.6638H140.493V10.2718H150.597L150.141 10.9678C150.141 10.0238 149.973 9.19984 149.637 8.49584C149.317 7.77584 148.837 7.21584 148.197 6.81584C147.573 6.39984 146.789 6.19184 145.845 6.19184C144.853 6.19184 144.029 6.42384 143.373 6.88784C142.717 7.35184 142.221 7.96784 141.885 8.73584C141.565 9.50384 141.405 10.3758 141.405 11.3518C141.405 12.3118 141.565 13.1918 141.885 13.9918C142.221 14.7758 142.725 15.3998 143.397 15.8638C144.085 16.3278 144.949 16.5598 145.989 16.5598C147.093 16.5598 147.989 16.3118 148.677 15.8158C149.365 15.3038 149.789 14.7038 149.949 14.0158H151.629C151.469 14.8638 151.133 15.5998 150.621 16.2238C150.109 16.8318 149.461 17.3038 148.677 17.6398C147.893 17.9758 146.997 18.1438 145.989 18.1438ZM155.31 17.7358V5.03984H156.75V10.3438H156.606C156.606 8.48784 157.014 7.11984 157.83 6.23984C158.646 5.34384 159.926 4.89584 161.67 4.89584H162.078V6.52784H161.334C159.958 6.52784 158.91 6.88784 158.19 7.60784C157.47 8.31184 157.11 9.35184 157.11 10.7278V17.7358H155.31Z" fill="url(#paint0_radial_813_485)"/>
<defs>
<radialGradient id="paint0_radial_813_485" cx="0" cy="0" r="1" gradientUnits="userSpaceOnUse" gradientTransform="translate(80.2637 9.73584) rotate(90) scale(15 83)">
<stop stop-color="#5A69EA"/>
<stop offset="1" stop-color="#BF8BCA"/>
</radialGradient>
</defs>
</svg>
