<svg width="163" height="19" viewBox="0 0 163 19" fill="none" xmlns="http://www.w3.org/2000/svg">
<path d="M12.0477 17.7361V0.216084H13.8717V17.7361H12.0477ZM-0.000327945 17.7361V0.216084H1.82367V17.7361H-0.000327945ZM1.41567 9.86408V8.23208H12.4557V9.86408H1.41567ZM24.6156 18.1441C23.5276 18.1441 22.5676 17.9601 21.7356 17.5921C20.9196 17.2081 20.2236 16.7041 19.6476 16.0801C19.0876 15.4401 18.6556 14.7281 18.3516 13.9441C18.0636 13.1601 17.9196 12.3601 17.9196 11.5441V11.2081C17.9196 10.3921 18.0716 9.59208 18.3756 8.80808C18.6796 8.00808 19.1196 7.29608 19.6956 6.67208C20.2716 6.04808 20.9676 5.55208 21.7836 5.18408C22.6156 4.80008 23.5596 4.60808 24.6156 4.60808C25.6876 4.60808 26.6316 4.80008 27.4476 5.18408C28.2796 5.55208 28.9836 6.04808 29.5596 6.67208C30.1356 7.29608 30.5676 8.00808 30.8556 8.80808C31.1596 9.59208 31.3116 10.3921 31.3116 11.2081V11.5441C31.3116 12.3601 31.1676 13.1601 30.8796 13.9441C30.5916 14.7281 30.1596 15.4401 29.5836 16.0801C29.0236 16.7041 28.3276 17.2081 27.4956 17.5921C26.6636 17.9601 25.7036 18.1441 24.6156 18.1441ZM24.6156 16.5361C25.6716 16.5361 26.5596 16.3041 27.2796 15.8401C28.0156 15.3601 28.5756 14.7361 28.9596 13.9681C29.3436 13.1841 29.5356 12.3201 29.5356 11.3761C29.5356 10.4161 29.3356 9.55208 28.9356 8.78408C28.5516 8.00008 27.9916 7.38408 27.2556 6.93608C26.5196 6.47208 25.6396 6.24008 24.6156 6.24008C23.6076 6.24008 22.7356 6.47208 21.9996 6.93608C21.2636 7.38408 20.6956 8.00008 20.2956 8.78408C19.9116 9.55208 19.7196 10.4161 19.7196 11.3761C19.7196 12.3201 19.9116 13.1841 20.2956 13.9681C20.6796 14.7361 21.2316 15.3601 21.9516 15.8401C22.6876 16.3041 23.5756 16.5361 24.6156 16.5361ZM38.3234 17.7361L41.0354 5.44808H43.5554L46.6994 17.7361H45.1394L41.9954 5.52008H42.5714L39.8354 17.7361H38.3234ZM37.2914 17.7361V16.2721H39.4754V17.7361H37.2914ZM36.8594 17.7361L33.1874 5.04008H34.9154L38.5394 17.7361H36.8594ZM45.5474 17.7361V16.2721H47.6834V17.7361H45.5474ZM46.4834 17.7361L49.6514 5.04008H51.3074L48.0674 17.7361H46.4834ZM63.7765 17.7361L66.4885 5.44808H69.0085L72.1525 17.7361H70.5925L67.4485 5.52008H68.0245L65.2885 17.7361H63.7765ZM62.7445 17.7361V16.2721H64.9285V17.7361H62.7445ZM62.3125 17.7361L58.6405 5.04008H60.3685L63.9925 17.7361H62.3125ZM71.0005 17.7361V16.2721H73.1365V17.7361H71.0005ZM71.9365 17.7361L75.1045 5.04008H76.7605L73.5205 17.7361H71.9365ZM85.1691 18.1441C84.0811 18.1441 83.1371 17.9601 82.3371 17.5921C81.5371 17.2081 80.8811 16.7041 80.3691 16.0801C79.8571 15.4401 79.4731 14.7281 79.2171 13.9441C78.9771 13.1601 78.8571 12.3521 78.8571 11.5201V11.1841C78.8571 10.3681 78.9771 9.56808 79.2171 8.78408C79.4731 8.00008 79.8571 7.29608 80.3691 6.67208C80.8811 6.04808 81.5211 5.55208 82.2891 5.18408C83.0731 4.80008 83.9851 4.60808 85.0251 4.60808C86.3531 4.60808 87.4571 4.90408 88.3371 5.49608C89.2331 6.08808 89.9051 6.84808 90.3531 7.77608C90.8011 8.68808 91.0251 9.67208 91.0251 10.7281V11.6641H79.6731V10.2721H89.7771L89.3211 10.9681C89.3211 10.0241 89.1531 9.20008 88.8171 8.49608C88.4971 7.77608 88.0171 7.21608 87.3771 6.81608C86.7531 6.40008 85.9691 6.19208 85.0251 6.19208C84.0331 6.19208 83.2091 6.42408 82.5531 6.88808C81.8971 7.35208 81.4011 7.96808 81.0651 8.73608C80.7451 9.50408 80.5851 10.3761 80.5851 11.3521C80.5851 12.3121 80.7451 13.1921 81.0651 13.9921C81.4011 14.7761 81.9051 15.4001 82.5771 15.8641C83.2651 16.3281 84.1291 16.5601 85.1691 16.5601C86.2731 16.5601 87.1691 16.3121 87.8571 15.8161C88.5451 15.3041 88.9691 14.7041 89.1291 14.0161H90.8091C90.6491 14.8641 90.3131 15.6001 89.8011 16.2241C89.2891 16.8321 88.6411 17.3041 87.8571 17.6401C87.0731 17.9761 86.1771 18.1441 85.1691 18.1441Z" fill="#404040"/>
<path d="M105.3 18.1441C104.372 18.1441 103.524 17.9761 102.756 17.6401C102.004 17.2881 101.348 16.8081 100.788 16.2001C100.244 15.5761 99.8197 14.8721 99.5157 14.0881C99.2277 13.2881 99.0837 12.4401 99.0837 11.5441V11.2081C99.0837 10.3441 99.2277 9.52008 99.5157 8.73608C99.8037 7.93608 100.212 7.23208 100.74 6.62408C101.284 6.00008 101.932 5.51208 102.684 5.16008C103.452 4.79208 104.308 4.60808 105.252 4.60808C106.324 4.60808 107.268 4.84008 108.084 5.30408C108.9 5.76808 109.556 6.44008 110.052 7.32008C110.548 8.18408 110.812 9.24808 110.844 10.5121L110.052 9.02408V0.216084H111.852V17.7361H110.412V12.0961H110.988C110.956 13.4241 110.676 14.5441 110.148 15.4561C109.636 16.3521 108.956 17.0241 108.108 17.4721C107.276 17.9201 106.34 18.1441 105.3 18.1441ZM105.54 16.5601C106.404 16.5601 107.18 16.3681 107.868 15.9841C108.572 15.6001 109.124 15.0561 109.524 14.3521C109.924 13.6321 110.124 12.8081 110.124 11.8801V10.7281C110.124 9.83208 109.924 9.04808 109.524 8.37608C109.124 7.68808 108.572 7.15208 107.868 6.76808C107.18 6.38408 106.396 6.19208 105.516 6.19208C104.572 6.19208 103.748 6.42408 103.044 6.88808C102.356 7.33608 101.82 7.95208 101.436 8.73608C101.068 9.52008 100.884 10.4001 100.884 11.3761C100.884 12.3841 101.076 13.2801 101.46 14.0641C101.844 14.8481 102.388 15.4641 103.092 15.9121C103.796 16.3441 104.612 16.5601 105.54 16.5601ZM117.17 17.7361V5.04008H118.946V17.7361H117.17ZM115.13 6.48008V5.04008H118.946V6.48008H115.13ZM117.554 2.68808C117.122 2.68808 116.794 2.57608 116.57 2.35208C116.362 2.11208 116.258 1.81608 116.258 1.46408C116.258 1.11208 116.362 0.824083 116.57 0.600083C116.794 0.360083 117.122 0.240083 117.554 0.240083C117.986 0.240083 118.306 0.360083 118.514 0.600083C118.722 0.824083 118.826 1.11208 118.826 1.46408C118.826 1.81608 118.722 2.11208 118.514 2.35208C118.306 2.57608 117.986 2.68808 117.554 2.68808ZM124.03 17.7361V3.91208C124.03 2.58408 124.374 1.60008 125.062 0.960083C125.75 0.320083 126.782 8.34465e-05 128.158 8.34465e-05H129.526V1.53608H127.822C127.15 1.53608 126.638 1.71208 126.286 2.06408C125.934 2.41608 125.758 2.91208 125.758 3.55208V17.7361H124.03ZM132.166 17.7361V4.05608C132.166 2.72808 132.51 1.74408 133.198 1.10408C133.886 0.464083 134.918 0.144083 136.294 0.144083H137.902V1.68008H135.958C135.286 1.68008 134.774 1.85608 134.422 2.20808C134.07 2.56008 133.894 3.05608 133.894 3.69608V17.7361H132.166ZM122.182 6.52808V5.13608H138.166V6.52808H122.182ZM145.989 18.1441C144.901 18.1441 143.957 17.9601 143.157 17.5921C142.357 17.2081 141.701 16.7041 141.189 16.0801C140.677 15.4401 140.293 14.7281 140.037 13.9441C139.797 13.1601 139.677 12.3521 139.677 11.5201V11.1841C139.677 10.3681 139.797 9.56808 140.037 8.78408C140.293 8.00008 140.677 7.29608 141.189 6.67208C141.701 6.04808 142.341 5.55208 143.109 5.18408C143.893 4.80008 144.805 4.60808 145.845 4.60808C147.173 4.60808 148.277 4.90408 149.157 5.49608C150.053 6.08808 150.725 6.84808 151.173 7.77608C151.621 8.68808 151.845 9.67208 151.845 10.7281V11.6641H140.493V10.2721H150.597L150.141 10.9681C150.141 10.0241 149.973 9.20008 149.637 8.49608C149.317 7.77608 148.837 7.21608 148.197 6.81608C147.573 6.40008 146.789 6.19208 145.845 6.19208C144.853 6.19208 144.029 6.42408 143.373 6.88808C142.717 7.35208 142.221 7.96808 141.885 8.73608C141.565 9.50408 141.405 10.3761 141.405 11.3521C141.405 12.3121 141.565 13.1921 141.885 13.9921C142.221 14.7761 142.725 15.4001 143.397 15.8641C144.085 16.3281 144.949 16.5601 145.989 16.5601C147.093 16.5601 147.989 16.3121 148.677 15.8161C149.365 15.3041 149.789 14.7041 149.949 14.0161H151.629C151.469 14.8641 151.133 15.6001 150.621 16.2241C150.109 16.8321 149.461 17.3041 148.677 17.6401C147.893 17.9761 146.997 18.1441 145.989 18.1441ZM155.31 17.7361V5.04008H156.75V10.3441H156.606C156.606 8.48808 157.014 7.12008 157.83 6.24008C158.646 5.34408 159.926 4.89608 161.67 4.89608H162.078V6.52808H161.334C159.958 6.52808 158.91 6.88808 158.19 7.60808C157.47 8.31208 157.11 9.35208 157.11 10.7281V17.7361H155.31Z" fill="url(#paint0_radial_813_485)"/>
<defs>
<radialGradient id="paint0_radial_813_485" cx="0" cy="0" r="1" gradientUnits="userSpaceOnUse" gradientTransform="translate(80.2637 9.73608) rotate(90) scale(15 83)">
<stop stop-color="#5A69EA"/>
<stop offset="1" stop-color="#BF8BCA"/>
</radialGradient>
</defs>
</svg>
