<svg width="851" height="72" viewBox="0 0 851 72" fill="none" xmlns="http://www.w3.org/2000/svg">
<path d="M0.000532866 27V0.818181H3.17099V12.4773H17.1312V0.818181H20.3017V27H17.1312V15.2898H3.17099V27H0.000532866ZM38.6149 18.9716V7.36364H41.6319V27H38.6149V23.6761H38.4103C37.9501 24.6733 37.2342 25.5213 36.2626 26.2202C35.291 26.9105 34.0637 27.2557 32.5808 27.2557C31.3535 27.2557 30.2626 26.9872 29.3081 26.4503C28.3535 25.9048 27.6035 25.0866 27.0581 23.9957C26.5126 22.8963 26.2399 21.5114 26.2399 19.8409V7.36364H29.2569V19.6364C29.2569 21.0682 29.6575 22.2102 30.4586 23.0625C31.2683 23.9148 32.2995 24.3409 33.5524 24.3409C34.3024 24.3409 35.0652 24.1491 35.8407 23.7656C36.6248 23.3821 37.2811 22.794 37.8095 22.0014C38.3464 21.2088 38.6149 20.1989 38.6149 18.9716ZM47.1578 27V7.36364H50.0726V10.4318H50.3283C50.7374 9.38352 51.3979 8.5696 52.3098 7.99006C53.2218 7.40199 54.3169 7.10795 55.5953 7.10795C56.8908 7.10795 57.9689 7.40199 58.8297 7.99006C59.699 8.5696 60.3766 9.38352 60.8624 10.4318H61.0669C61.5698 9.41761 62.324 8.61222 63.3297 8.01562C64.3354 7.41051 65.5414 7.10795 66.9476 7.10795C68.7033 7.10795 70.1394 7.65767 71.2559 8.7571C72.3723 9.84801 72.9306 11.5483 72.9306 13.858V27H69.9135V13.858C69.9135 12.4091 69.5172 11.3736 68.7246 10.7514C67.932 10.1293 66.9988 9.81818 65.9249 9.81818C64.5442 9.81818 63.4746 10.2358 62.7161 11.071C61.9576 11.8977 61.5783 12.946 61.5783 14.2159V27H58.5101V13.5511C58.5101 12.4347 58.1479 11.5355 57.4235 10.8537C56.699 10.1634 55.7658 9.81818 54.6238 9.81818C53.8397 9.81818 53.1067 10.027 52.4249 10.4446C51.7516 10.8622 51.2061 11.4418 50.7885 12.1832C50.3794 12.9162 50.1749 13.7642 50.1749 14.7273V27H47.1578ZM84.2253 27.4602C82.981 27.4602 81.8517 27.2259 80.8375 26.7571C79.8233 26.2798 79.0179 25.5938 78.4213 24.6989C77.8248 23.7955 77.5265 22.7045 77.5265 21.4261C77.5265 20.3011 77.748 19.3892 78.1912 18.6903C78.6344 17.983 79.2267 17.429 79.9682 17.0284C80.7097 16.6278 81.5279 16.3295 82.4228 16.1335C83.3262 15.929 84.2338 15.767 85.1458 15.6477C86.339 15.4943 87.3063 15.3793 88.0478 15.3026C88.7978 15.2173 89.3432 15.0767 89.6841 14.8807C90.0336 14.6847 90.2083 14.3437 90.2083 13.858V13.7557C90.2083 12.4943 89.8631 11.5142 89.1728 10.8153C88.4909 10.1165 87.4554 9.76705 86.0662 9.76705C84.6259 9.76705 83.4966 10.0824 82.6784 10.7131C81.8603 11.3437 81.285 12.017 80.9526 12.733L78.089 11.7102C78.6003 10.517 79.2821 9.58807 80.1344 8.9233C80.9952 8.25 81.9327 7.78125 82.9469 7.51705C83.9696 7.24432 84.9753 7.10795 85.964 7.10795C86.5946 7.10795 87.3191 7.18466 88.1373 7.33807C88.964 7.48295 89.7608 7.78551 90.5279 8.24574C91.3034 8.70597 91.9469 9.40057 92.4583 10.3295C92.9696 11.2585 93.2253 12.5028 93.2253 14.0625V27H90.2083V24.3409H90.0549C89.8503 24.767 89.5094 25.223 89.0321 25.7088C88.5549 26.1946 87.9199 26.608 87.1273 26.9489C86.3347 27.2898 85.3674 27.4602 84.2253 27.4602ZM84.6855 24.75C85.8787 24.75 86.8844 24.5156 87.7026 24.0469C88.5293 23.5781 89.1515 22.973 89.5691 22.2315C89.9952 21.4901 90.2083 20.7102 90.2083 19.892V17.1307C90.0804 17.2841 89.7992 17.4247 89.3645 17.5526C88.9384 17.6719 88.4441 17.7784 87.8816 17.8722C87.3276 17.9574 86.7864 18.0341 86.258 18.1023C85.7381 18.1619 85.3162 18.2131 84.9924 18.2557C84.2083 18.358 83.4753 18.5241 82.7935 18.7543C82.1202 18.9759 81.5748 19.3125 81.1571 19.7642C80.748 20.2074 80.5435 20.8125 80.5435 21.5795C80.5435 22.6278 80.9313 23.4205 81.7069 23.9574C82.4909 24.4858 83.4838 24.75 84.6855 24.75ZM101.749 15.1875V27H98.7321V7.36364H101.647V10.4318H101.903C102.363 9.43466 103.062 8.63352 103.999 8.02841C104.937 7.41477 106.147 7.10795 107.63 7.10795C108.959 7.10795 110.123 7.38068 111.12 7.92614C112.117 8.46307 112.893 9.28125 113.447 10.3807C114.001 11.4716 114.278 12.8523 114.278 14.5227V27H111.26V14.7273C111.26 13.1847 110.86 11.983 110.059 11.1222C109.258 10.2528 108.158 9.81818 106.76 9.81818C105.797 9.81818 104.937 10.027 104.178 10.4446C103.428 10.8622 102.836 11.4716 102.401 12.2727C101.966 13.0739 101.749 14.0455 101.749 15.1875ZM133.7 11.7614L130.99 12.5284C130.819 12.0767 130.568 11.6378 130.235 11.2116C129.911 10.777 129.468 10.419 128.906 10.1378C128.343 9.85653 127.623 9.71591 126.745 9.71591C125.544 9.71591 124.542 9.9929 123.741 10.5469C122.948 11.0923 122.552 11.7869 122.552 12.6307C122.552 13.3807 122.825 13.973 123.37 14.4077C123.916 14.8423 124.768 15.2045 125.927 15.4943L128.842 16.2102C130.597 16.6364 131.906 17.2884 132.767 18.1662C133.627 19.0355 134.058 20.1562 134.058 21.5284C134.058 22.6534 133.734 23.6591 133.086 24.5455C132.447 25.4318 131.552 26.1307 130.401 26.642C129.251 27.1534 127.913 27.4091 126.387 27.4091C124.384 27.4091 122.727 26.9744 121.414 26.1051C120.102 25.2358 119.271 23.9659 118.921 22.2955L121.785 21.5795C122.058 22.6364 122.573 23.429 123.332 23.9574C124.099 24.4858 125.1 24.75 126.336 24.75C127.742 24.75 128.859 24.4517 129.686 23.8551C130.521 23.25 130.938 22.5256 130.938 21.6818C130.938 21 130.7 20.429 130.222 19.9688C129.745 19.5 129.012 19.1506 128.024 18.9205L124.751 18.1534C122.953 17.7273 121.632 17.0668 120.788 16.1719C119.953 15.2685 119.535 14.1392 119.535 12.7841C119.535 11.6761 119.846 10.696 120.468 9.84375C121.099 8.99148 121.955 8.32244 123.038 7.83665C124.129 7.35085 125.365 7.10795 126.745 7.10795C128.688 7.10795 130.214 7.53409 131.322 8.38636C132.438 9.23864 133.231 10.3636 133.7 11.7614ZM154.503 27.4602C153.258 27.4602 152.129 27.2259 151.115 26.7571C150.101 26.2798 149.295 25.5938 148.699 24.6989C148.102 23.7955 147.804 22.7045 147.804 21.4261C147.804 20.3011 148.025 19.3892 148.469 18.6903C148.912 17.983 149.504 17.429 150.246 17.0284C150.987 16.6278 151.805 16.3295 152.7 16.1335C153.604 15.929 154.511 15.767 155.423 15.6477C156.616 15.4943 157.584 15.3793 158.325 15.3026C159.075 15.2173 159.621 15.0767 159.961 14.8807C160.311 14.6847 160.486 14.3437 160.486 13.858V13.7557C160.486 12.4943 160.14 11.5142 159.45 10.8153C158.768 10.1165 157.733 9.76705 156.344 9.76705C154.903 9.76705 153.774 10.0824 152.956 10.7131C152.138 11.3437 151.562 12.017 151.23 12.733L148.366 11.7102C148.878 10.517 149.559 9.58807 150.412 8.9233C151.273 8.25 152.21 7.78125 153.224 7.51705C154.247 7.24432 155.253 7.10795 156.241 7.10795C156.872 7.10795 157.596 7.18466 158.415 7.33807C159.241 7.48295 160.038 7.78551 160.805 8.24574C161.581 8.70597 162.224 9.40057 162.736 10.3295C163.247 11.2585 163.503 12.5028 163.503 14.0625V27H160.486V24.3409H160.332C160.128 24.767 159.787 25.223 159.309 25.7088C158.832 26.1946 158.197 26.608 157.405 26.9489C156.612 27.2898 155.645 27.4602 154.503 27.4602ZM154.963 24.75C156.156 24.75 157.162 24.5156 157.98 24.0469C158.807 23.5781 159.429 22.973 159.846 22.2315C160.273 21.4901 160.486 20.7102 160.486 19.892V17.1307C160.358 17.2841 160.077 17.4247 159.642 17.5526C159.216 17.6719 158.721 17.7784 158.159 17.8722C157.605 17.9574 157.064 18.0341 156.535 18.1023C156.015 18.1619 155.594 18.2131 155.27 18.2557C154.486 18.358 153.753 18.5241 153.071 18.7543C152.398 18.9759 151.852 19.3125 151.434 19.7642C151.025 20.2074 150.821 20.8125 150.821 21.5795C150.821 22.6278 151.209 23.4205 151.984 23.9574C152.768 24.4858 153.761 24.75 154.963 24.75ZM169.009 27V7.36364H171.924V10.3295H172.129C172.487 9.35795 173.134 8.5696 174.072 7.96449C175.009 7.35937 176.066 7.05682 177.242 7.05682C177.464 7.05682 177.741 7.06108 178.073 7.0696C178.406 7.07812 178.657 7.09091 178.828 7.10795V10.1761C178.725 10.1506 178.491 10.1122 178.124 10.0611C177.767 10.0014 177.387 9.97159 176.987 9.97159C176.032 9.97159 175.18 10.1719 174.43 10.5724C173.688 10.9645 173.1 11.5099 172.666 12.2088C172.24 12.8991 172.026 13.6875 172.026 14.5739V27H169.009ZM189.784 27.4091C187.943 27.4091 186.357 26.9744 185.028 26.1051C183.698 25.2358 182.676 24.0384 181.96 22.5128C181.244 20.9872 180.886 19.2443 180.886 17.2841C180.886 15.2898 181.252 13.5298 181.985 12.0043C182.727 10.4702 183.758 9.27273 185.079 8.41193C186.409 7.54261 187.96 7.10795 189.732 7.10795C191.113 7.10795 192.357 7.36364 193.465 7.875C194.573 8.38636 195.481 9.10227 196.188 10.0227C196.896 10.9432 197.335 12.017 197.505 13.2443H194.488C194.258 12.3494 193.747 11.5568 192.954 10.8665C192.17 10.1676 191.113 9.81818 189.784 9.81818C188.607 9.81818 187.576 10.125 186.69 10.7386C185.812 11.3437 185.126 12.2003 184.632 13.3082C184.146 14.4077 183.903 15.6989 183.903 17.1818C183.903 18.6989 184.142 20.0199 184.619 21.1449C185.105 22.2699 185.786 23.1435 186.664 23.7656C187.551 24.3878 188.59 24.6989 189.784 24.6989C190.568 24.6989 191.279 24.5625 191.919 24.2898C192.558 24.017 193.099 23.625 193.542 23.1136C193.985 22.6023 194.301 21.9886 194.488 21.2727H197.505C197.335 22.4318 196.913 23.4759 196.24 24.4048C195.575 25.3253 194.693 26.0582 193.593 26.6037C192.502 27.1406 191.232 27.4091 189.784 27.4091ZM204.933 15.1875V27H201.916V0.818181H204.933V10.4318H205.188C205.649 9.41761 206.339 8.61222 207.259 8.01562C208.188 7.41051 209.424 7.10795 210.967 7.10795C212.305 7.10795 213.477 7.37642 214.482 7.91335C215.488 8.44176 216.268 9.25568 216.822 10.3551C217.384 11.446 217.666 12.8352 217.666 14.5227V27H214.649V14.7273C214.649 13.1676 214.244 11.9616 213.434 11.1094C212.633 10.2486 211.521 9.81818 210.097 9.81818C209.109 9.81818 208.222 10.027 207.438 10.4446C206.663 10.8622 206.049 11.4716 205.597 12.2727C205.154 13.0739 204.933 14.0455 204.933 15.1875ZM223.185 27V7.36364H226.202V27H223.185ZM224.719 4.09091C224.131 4.09091 223.624 3.89062 223.198 3.49006C222.78 3.08949 222.572 2.60795 222.572 2.04545C222.572 1.48295 222.78 1.00142 223.198 0.600851C223.624 0.200284 224.131 0 224.719 0C225.307 0 225.81 0.200284 226.228 0.600851C226.654 1.00142 226.867 1.48295 226.867 2.04545C226.867 2.60795 226.654 3.08949 226.228 3.49006C225.81 3.89062 225.307 4.09091 224.719 4.09091ZM240.268 7.36364V9.92045H230.092V7.36364H240.268ZM233.058 2.65909H236.075V21.375C236.075 22.2273 236.198 22.8665 236.445 23.2926C236.701 23.7102 237.025 23.9915 237.417 24.1364C237.818 24.2727 238.24 24.3409 238.683 24.3409C239.015 24.3409 239.288 24.3239 239.501 24.2898C239.714 24.2472 239.884 24.2131 240.012 24.1875L240.626 26.8977C240.421 26.9744 240.136 27.0511 239.769 27.1278C239.403 27.2131 238.938 27.2557 238.376 27.2557C237.524 27.2557 236.688 27.0724 235.87 26.706C235.061 26.3395 234.387 25.7812 233.85 25.0312C233.322 24.2812 233.058 23.3352 233.058 22.1932V2.65909ZM252.828 27.4091C250.936 27.4091 249.304 26.9915 247.932 26.1562C246.568 25.3125 245.516 24.1364 244.774 22.6278C244.041 21.1108 243.675 19.3466 243.675 17.3352C243.675 15.3239 244.041 13.5511 244.774 12.017C245.516 10.4744 246.547 9.27273 247.868 8.41193C249.198 7.54261 250.749 7.10795 252.521 7.10795C253.544 7.10795 254.554 7.27841 255.551 7.61932C256.548 7.96023 257.456 8.5142 258.274 9.28125C259.093 10.0398 259.744 11.0455 260.23 12.2983C260.716 13.5511 260.959 15.0937 260.959 16.9261V18.2045H245.823V15.5966H257.891C257.891 14.4886 257.669 13.5 257.226 12.6307C256.791 11.7614 256.169 11.0753 255.36 10.5724C254.558 10.0696 253.612 9.81818 252.521 9.81818C251.32 9.81818 250.28 10.1165 249.402 10.7131C248.533 11.3011 247.864 12.0682 247.395 13.0142C246.926 13.9602 246.692 14.9744 246.692 16.0568V17.7955C246.692 19.2784 246.948 20.5355 247.459 21.5668C247.979 22.5895 248.699 23.3693 249.619 23.9062C250.54 24.4347 251.61 24.6989 252.828 24.6989C253.621 24.6989 254.337 24.5881 254.976 24.3665C255.624 24.1364 256.182 23.7955 256.651 23.3438C257.119 22.8835 257.482 22.3125 257.737 21.6307L260.652 22.4489C260.345 23.4375 259.83 24.3068 259.105 25.0568C258.381 25.7983 257.486 26.3778 256.421 26.7955C255.355 27.2045 254.158 27.4091 252.828 27.4091ZM273.526 27.4091C271.685 27.4091 270.1 26.9744 268.77 26.1051C267.441 25.2358 266.418 24.0384 265.702 22.5128C264.986 20.9872 264.628 19.2443 264.628 17.2841C264.628 15.2898 264.994 13.5298 265.727 12.0043C266.469 10.4702 267.5 9.27273 268.821 8.41193C270.151 7.54261 271.702 7.10795 273.475 7.10795C274.855 7.10795 276.1 7.36364 277.208 7.875C278.316 8.38636 279.223 9.10227 279.931 10.0227C280.638 10.9432 281.077 12.017 281.247 13.2443H278.23C278 12.3494 277.489 11.5568 276.696 10.8665C275.912 10.1676 274.855 9.81818 273.526 9.81818C272.35 9.81818 271.318 10.125 270.432 10.7386C269.554 11.3437 268.868 12.2003 268.374 13.3082C267.888 14.4077 267.645 15.6989 267.645 17.1818C267.645 18.6989 267.884 20.0199 268.361 21.1449C268.847 22.2699 269.529 23.1435 270.406 23.7656C271.293 24.3878 272.333 24.6989 273.526 24.6989C274.31 24.6989 275.021 24.5625 275.661 24.2898C276.3 24.017 276.841 23.625 277.284 23.1136C277.727 22.6023 278.043 21.9886 278.23 21.2727H281.247C281.077 22.4318 280.655 23.4759 279.982 24.4048C279.317 25.3253 278.435 26.0582 277.335 26.6037C276.244 27.1406 274.975 27.4091 273.526 27.4091ZM294.198 7.36364V9.92045H284.021V7.36364H294.198ZM286.987 2.65909H290.004V21.375C290.004 22.2273 290.128 22.8665 290.375 23.2926C290.631 23.7102 290.955 23.9915 291.347 24.1364C291.747 24.2727 292.169 24.3409 292.612 24.3409C292.945 24.3409 293.218 24.3239 293.431 24.2898C293.644 24.2472 293.814 24.2131 293.942 24.1875L294.556 26.8977C294.351 26.9744 294.066 27.0511 293.699 27.1278C293.333 27.2131 292.868 27.2557 292.306 27.2557C291.453 27.2557 290.618 27.0724 289.8 26.706C288.99 26.3395 288.317 25.7812 287.78 25.0312C287.252 24.2812 286.987 23.3352 286.987 22.1932V2.65909ZM300.935 27.2045C300.304 27.2045 299.763 26.9787 299.311 26.527C298.86 26.0753 298.634 25.5341 298.634 24.9034C298.634 24.2727 298.86 23.7315 299.311 23.2798C299.763 22.8281 300.304 22.6023 300.935 22.6023C301.566 22.6023 302.107 22.8281 302.558 23.2798C303.01 23.7315 303.236 24.2727 303.236 24.9034C303.236 25.321 303.129 25.7045 302.916 26.054C302.712 26.4034 302.435 26.6847 302.085 26.8977C301.744 27.1023 301.361 27.2045 300.935 27.2045ZM320.258 27H316.934L326.548 0.818181H329.82L339.434 27H336.11L328.286 4.96023H328.082L320.258 27ZM321.485 16.7727H334.883V19.5852H321.485V16.7727ZM346.683 0.818181V27H343.512V0.818181H346.683ZM370.988 27.4091C369.096 27.4091 367.464 26.9915 366.092 26.1562C364.729 25.3125 363.676 24.1364 362.934 22.6278C362.202 21.1108 361.835 19.3466 361.835 17.3352C361.835 15.3239 362.202 13.5511 362.934 12.017C363.676 10.4744 364.707 9.27273 366.028 8.41193C367.358 7.54261 368.909 7.10795 370.682 7.10795C371.704 7.10795 372.714 7.27841 373.711 7.61932C374.709 7.96023 375.616 8.5142 376.434 9.28125C377.253 10.0398 377.905 11.0455 378.39 12.2983C378.876 13.5511 379.119 15.0937 379.119 16.9261V18.2045H363.983V15.5966H376.051C376.051 14.4886 375.829 13.5 375.386 12.6307C374.952 11.7614 374.329 11.0753 373.52 10.5724C372.719 10.0696 371.773 9.81818 370.682 9.81818C369.48 9.81818 368.44 10.1165 367.562 10.7131C366.693 11.3011 366.024 12.0682 365.555 13.0142C365.086 13.9602 364.852 14.9744 364.852 16.0568V17.7955C364.852 19.2784 365.108 20.5355 365.619 21.5668C366.139 22.5895 366.859 23.3693 367.78 23.9062C368.7 24.4347 369.77 24.6989 370.988 24.6989C371.781 24.6989 372.497 24.5881 373.136 24.3665C373.784 24.1364 374.342 23.7955 374.811 23.3438C375.28 22.8835 375.642 22.3125 375.898 21.6307L378.812 22.4489C378.506 23.4375 377.99 24.3068 377.265 25.0568C376.541 25.7983 375.646 26.3778 374.581 26.7955C373.515 27.2045 372.318 27.4091 370.988 27.4091ZM385.431 7.36364L390.136 15.392L394.84 7.36364H398.318L391.977 17.1818L398.318 27H394.84L390.136 19.3807L385.431 27H381.954L388.193 17.1818L381.954 7.36364H385.431ZM410.047 27.4091C408.155 27.4091 406.523 26.9915 405.151 26.1562C403.787 25.3125 402.735 24.1364 401.993 22.6278C401.26 21.1108 400.894 19.3466 400.894 17.3352C400.894 15.3239 401.26 13.5511 401.993 12.017C402.735 10.4744 403.766 9.27273 405.087 8.41193C406.416 7.54261 407.968 7.10795 409.74 7.10795C410.763 7.10795 411.773 7.27841 412.77 7.61932C413.767 7.96023 414.675 8.5142 415.493 9.28125C416.311 10.0398 416.963 11.0455 417.449 12.2983C417.935 13.5511 418.178 15.0937 418.178 16.9261V18.2045H403.041V15.5966H415.11C415.11 14.4886 414.888 13.5 414.445 12.6307C414.01 11.7614 413.388 11.0753 412.578 10.5724C411.777 10.0696 410.831 9.81818 409.74 9.81818C408.539 9.81818 407.499 10.1165 406.621 10.7131C405.752 11.3011 405.083 12.0682 404.614 13.0142C404.145 13.9602 403.911 14.9744 403.911 16.0568V17.7955C403.911 19.2784 404.166 20.5355 404.678 21.5668C405.198 22.5895 405.918 23.3693 406.838 23.9062C407.759 24.4347 408.828 24.6989 410.047 24.6989C410.84 24.6989 411.556 24.5881 412.195 24.3665C412.843 24.1364 413.401 23.7955 413.869 23.3438C414.338 22.8835 414.7 22.3125 414.956 21.6307L417.871 22.4489C417.564 23.4375 417.048 24.3068 416.324 25.0568C415.6 25.7983 414.705 26.3778 413.639 26.7955C412.574 27.2045 411.377 27.4091 410.047 27.4091ZM430.744 27.4091C428.904 27.4091 427.318 26.9744 425.989 26.1051C424.659 25.2358 423.637 24.0384 422.921 22.5128C422.205 20.9872 421.847 19.2443 421.847 17.2841C421.847 15.2898 422.213 13.5298 422.946 12.0043C423.688 10.4702 424.719 9.27273 426.04 8.41193C427.369 7.54261 428.921 7.10795 430.693 7.10795C432.074 7.10795 433.318 7.36364 434.426 7.875C435.534 8.38636 436.442 9.10227 437.149 10.0227C437.857 10.9432 438.296 12.017 438.466 13.2443H435.449C435.219 12.3494 434.708 11.5568 433.915 10.8665C433.131 10.1676 432.074 9.81818 430.744 9.81818C429.568 9.81818 428.537 10.125 427.651 10.7386C426.773 11.3437 426.087 12.2003 425.593 13.3082C425.107 14.4077 424.864 15.6989 424.864 17.1818C424.864 18.6989 425.102 20.0199 425.58 21.1449C426.066 22.2699 426.747 23.1435 427.625 23.7656C428.512 24.3878 429.551 24.6989 430.744 24.6989C431.529 24.6989 432.24 24.5625 432.879 24.2898C433.519 24.017 434.06 23.625 434.503 23.1136C434.946 22.6023 435.262 21.9886 435.449 21.2727H438.466C438.296 22.4318 437.874 23.4759 437.2 24.4048C436.536 25.3253 435.654 26.0582 434.554 26.6037C433.463 27.1406 432.193 27.4091 430.744 27.4091ZM455.252 18.9716V7.36364H458.269V27H455.252V23.6761H455.047C454.587 24.6733 453.871 25.5213 452.899 26.2202C451.928 26.9105 450.7 27.2557 449.218 27.2557C447.99 27.2557 446.899 26.9872 445.945 26.4503C444.99 25.9048 444.24 25.0866 443.695 23.9957C443.149 22.8963 442.877 21.5114 442.877 19.8409V7.36364H445.894V19.6364C445.894 21.0682 446.294 22.2102 447.095 23.0625C447.905 23.9148 448.936 24.3409 450.189 24.3409C450.939 24.3409 451.702 24.1491 452.477 23.7656C453.262 23.3821 453.918 22.794 454.446 22.0014C454.983 21.2088 455.252 20.1989 455.252 18.9716ZM472.334 7.36364V9.92045H462.158V7.36364H472.334ZM465.124 2.65909H468.141V21.375C468.141 22.2273 468.265 22.8665 468.512 23.2926C468.768 23.7102 469.091 23.9915 469.483 24.1364C469.884 24.2727 470.306 24.3409 470.749 24.3409C471.081 24.3409 471.354 24.3239 471.567 24.2898C471.78 24.2472 471.951 24.2131 472.079 24.1875L472.692 26.8977C472.488 26.9744 472.202 27.0511 471.836 27.1278C471.469 27.2131 471.005 27.2557 470.442 27.2557C469.59 27.2557 468.755 27.0724 467.937 26.706C467.127 26.3395 466.454 25.7812 465.917 25.0312C465.388 24.2812 465.124 23.3352 465.124 22.1932V2.65909ZM484.895 27.4091C483.003 27.4091 481.371 26.9915 479.998 26.1562C478.635 25.3125 477.582 24.1364 476.841 22.6278C476.108 21.1108 475.741 19.3466 475.741 17.3352C475.741 15.3239 476.108 13.5511 476.841 12.017C477.582 10.4744 478.613 9.27273 479.934 8.41193C481.264 7.54261 482.815 7.10795 484.588 7.10795C485.611 7.10795 486.621 7.27841 487.618 7.61932C488.615 7.96023 489.523 8.5142 490.341 9.28125C491.159 10.0398 491.811 11.0455 492.297 12.2983C492.782 13.5511 493.025 15.0937 493.025 16.9261V18.2045H477.889V15.5966H489.957C489.957 14.4886 489.736 13.5 489.292 12.6307C488.858 11.7614 488.236 11.0753 487.426 10.5724C486.625 10.0696 485.679 9.81818 484.588 9.81818C483.386 9.81818 482.346 10.1165 481.469 10.7131C480.599 11.3011 479.93 12.0682 479.461 13.0142C478.993 13.9602 478.758 14.9744 478.758 16.0568V17.7955C478.758 19.2784 479.014 20.5355 479.525 21.5668C480.045 22.5895 480.765 23.3693 481.686 23.9062C482.606 24.4347 483.676 24.6989 484.895 24.6989C485.687 24.6989 486.403 24.5881 487.042 24.3665C487.69 24.1364 488.248 23.7955 488.717 23.3438C489.186 22.8835 489.548 22.3125 489.804 21.6307L492.719 22.4489C492.412 23.4375 491.896 24.3068 491.172 25.0568C490.447 25.7983 489.552 26.3778 488.487 26.7955C487.422 27.2045 486.224 27.4091 484.895 27.4091ZM511.524 11.7614L508.814 12.5284C508.643 12.0767 508.392 11.6378 508.059 11.2116C507.736 10.777 507.292 10.419 506.73 10.1378C506.167 9.85653 505.447 9.71591 504.569 9.71591C503.368 9.71591 502.366 9.9929 501.565 10.5469C500.773 11.0923 500.376 11.7869 500.376 12.6307C500.376 13.3807 500.649 13.973 501.194 14.4077C501.74 14.8423 502.592 15.2045 503.751 15.4943L506.666 16.2102C508.422 16.6364 509.73 17.2884 510.591 18.1662C511.452 19.0355 511.882 20.1562 511.882 21.5284C511.882 22.6534 511.558 23.6591 510.91 24.5455C510.271 25.4318 509.376 26.1307 508.226 26.642C507.075 27.1534 505.737 27.4091 504.211 27.4091C502.209 27.4091 500.551 26.9744 499.238 26.1051C497.926 25.2358 497.095 23.9659 496.746 22.2955L499.609 21.5795C499.882 22.6364 500.398 23.429 501.156 23.9574C501.923 24.4858 502.925 24.75 504.16 24.75C505.567 24.75 506.683 24.4517 507.51 23.8551C508.345 23.25 508.763 22.5256 508.763 21.6818C508.763 21 508.524 20.429 508.047 19.9688C507.569 19.5 506.836 19.1506 505.848 18.9205L502.575 18.1534C500.777 17.7273 499.456 17.0668 498.612 16.1719C497.777 15.2685 497.359 14.1392 497.359 12.7841C497.359 11.6761 497.67 10.696 498.292 9.84375C498.923 8.99148 499.78 8.32244 500.862 7.83665C501.953 7.35085 503.189 7.10795 504.569 7.10795C506.513 7.10795 508.038 7.53409 509.146 8.38636C510.263 9.23864 511.055 10.3636 511.524 11.7614ZM518.622 27.2045C517.992 27.2045 517.45 26.9787 516.999 26.527C516.547 26.0753 516.321 25.5341 516.321 24.9034C516.321 24.2727 516.547 23.7315 516.999 23.2798C517.45 22.8281 517.992 22.6023 518.622 22.6023C519.253 22.6023 519.794 22.8281 520.246 23.2798C520.698 23.7315 520.923 24.2727 520.923 24.9034C520.923 25.321 520.817 25.7045 520.604 26.054C520.399 26.4034 520.122 26.6847 519.773 26.8977C519.432 27.1023 519.048 27.2045 518.622 27.2045ZM544.951 27H536.872V0.818181H545.309C547.849 0.818181 550.022 1.34233 551.829 2.39062C553.636 3.4304 555.021 4.92614 555.984 6.87784C556.947 8.82102 557.428 11.1477 557.428 13.858C557.428 16.5852 556.943 18.9332 555.971 20.902C554.999 22.8622 553.585 24.3707 551.727 25.4276C549.869 26.4759 547.61 27 544.951 27ZM540.042 24.1875H544.747C546.911 24.1875 548.705 23.7699 550.129 22.9347C551.552 22.0994 552.613 20.9105 553.312 19.3679C554.011 17.8253 554.36 15.9886 554.36 13.858C554.36 11.7443 554.015 9.92472 553.325 8.39915C552.634 6.86506 551.603 5.68892 550.231 4.87074C548.859 4.04403 547.15 3.63068 545.105 3.63068H540.042V24.1875ZM568.116 27.4602C566.872 27.4602 565.742 27.2259 564.728 26.7571C563.714 26.2798 562.909 25.5938 562.312 24.6989C561.715 23.7955 561.417 22.7045 561.417 21.4261C561.417 20.3011 561.639 19.3892 562.082 18.6903C562.525 17.983 563.117 17.429 563.859 17.0284C564.6 16.6278 565.419 16.3295 566.313 16.1335C567.217 15.929 568.124 15.767 569.036 15.6477C570.23 15.4943 571.197 15.3793 571.938 15.3026C572.688 15.2173 573.234 15.0767 573.575 14.8807C573.924 14.6847 574.099 14.3437 574.099 13.858V13.7557C574.099 12.4943 573.754 11.5142 573.063 10.8153C572.382 10.1165 571.346 9.76705 569.957 9.76705C568.517 9.76705 567.387 10.0824 566.569 10.7131C565.751 11.3437 565.176 12.017 564.843 12.733L561.98 11.7102C562.491 10.517 563.173 9.58807 564.025 8.9233C564.886 8.25 565.823 7.78125 566.838 7.51705C567.86 7.24432 568.866 7.10795 569.855 7.10795C570.485 7.10795 571.21 7.18466 572.028 7.33807C572.855 7.48295 573.651 7.78551 574.419 8.24574C575.194 8.70597 575.838 9.40057 576.349 10.3295C576.86 11.2585 577.116 12.5028 577.116 14.0625V27H574.099V24.3409H573.945C573.741 24.767 573.4 25.223 572.923 25.7088C572.445 26.1946 571.811 26.608 571.018 26.9489C570.225 27.2898 569.258 27.4602 568.116 27.4602ZM568.576 24.75C569.769 24.75 570.775 24.5156 571.593 24.0469C572.42 23.5781 573.042 22.973 573.46 22.2315C573.886 21.4901 574.099 20.7102 574.099 19.892V17.1307C573.971 17.2841 573.69 17.4247 573.255 17.5526C572.829 17.6719 572.335 17.7784 571.772 17.8722C571.218 17.9574 570.677 18.0341 570.149 18.1023C569.629 18.1619 569.207 18.2131 568.883 18.2557C568.099 18.358 567.366 18.5241 566.684 18.7543C566.011 18.9759 565.465 19.3125 565.048 19.7642C564.639 20.2074 564.434 20.8125 564.434 21.5795C564.434 22.6278 564.822 23.4205 565.597 23.9574C566.382 24.4858 567.374 24.75 568.576 24.75ZM591.162 7.36364V9.92045H580.986V7.36364H591.162ZM583.952 2.65909H586.969V21.375C586.969 22.2273 587.093 22.8665 587.34 23.2926C587.596 23.7102 587.92 23.9915 588.312 24.1364C588.712 24.2727 589.134 24.3409 589.577 24.3409C589.91 24.3409 590.182 24.3239 590.395 24.2898C590.608 24.2472 590.779 24.2131 590.907 24.1875L591.52 26.8977C591.316 26.9744 591.03 27.0511 590.664 27.1278C590.297 27.2131 589.833 27.2557 589.27 27.2557C588.418 27.2557 587.583 27.0724 586.765 26.706C585.955 26.3395 585.282 25.7812 584.745 25.0312C584.216 24.2812 583.952 23.3352 583.952 22.1932V2.65909ZM601.479 27.4602C600.235 27.4602 599.106 27.2259 598.091 26.7571C597.077 26.2798 596.272 25.5938 595.675 24.6989C595.079 23.7955 594.78 22.7045 594.78 21.4261C594.78 20.3011 595.002 19.3892 595.445 18.6903C595.888 17.983 596.481 17.429 597.222 17.0284C597.964 16.6278 598.782 16.3295 599.677 16.1335C600.58 15.929 601.488 15.767 602.4 15.6477C603.593 15.4943 604.56 15.3793 605.302 15.3026C606.052 15.2173 606.597 15.0767 606.938 14.8807C607.287 14.6847 607.462 14.3437 607.462 13.858V13.7557C607.462 12.4943 607.117 11.5142 606.427 10.8153C605.745 10.1165 604.709 9.76705 603.32 9.76705C601.88 9.76705 600.751 10.0824 599.932 10.7131C599.114 11.3437 598.539 12.017 598.206 12.733L595.343 11.7102C595.854 10.517 596.536 9.58807 597.388 8.9233C598.249 8.25 599.187 7.78125 600.201 7.51705C601.224 7.24432 602.229 7.10795 603.218 7.10795C603.849 7.10795 604.573 7.18466 605.391 7.33807C606.218 7.48295 607.015 7.78551 607.782 8.24574C608.557 8.70597 609.201 9.40057 609.712 10.3295C610.224 11.2585 610.479 12.5028 610.479 14.0625V27H607.462V24.3409H607.309C607.104 24.767 606.763 25.223 606.286 25.7088C605.809 26.1946 605.174 26.608 604.381 26.9489C603.589 27.2898 602.621 27.4602 601.479 27.4602ZM601.939 24.75C603.133 24.75 604.138 24.5156 604.956 24.0469C605.783 23.5781 606.405 22.973 606.823 22.2315C607.249 21.4901 607.462 20.7102 607.462 19.892V17.1307C607.334 17.2841 607.053 17.4247 606.618 17.5526C606.192 17.6719 605.698 17.7784 605.135 17.8722C604.581 17.9574 604.04 18.0341 603.512 18.1023C602.992 18.1619 602.57 18.2131 602.246 18.2557C601.462 18.358 600.729 18.5241 600.047 18.7543C599.374 18.9759 598.829 19.3125 598.411 19.7642C598.002 20.2074 597.797 20.8125 597.797 21.5795C597.797 22.6278 598.185 23.4205 598.961 23.9574C599.745 24.4858 600.738 24.75 601.939 24.75ZM626.111 27V7.36364H629.026V10.4318H629.281C629.691 9.38352 630.351 8.5696 631.263 7.99006C632.175 7.40199 633.27 7.10795 634.548 7.10795C635.844 7.10795 636.922 7.40199 637.783 7.99006C638.652 8.5696 639.33 9.38352 639.816 10.4318H640.02C640.523 9.41761 641.277 8.61222 642.283 8.01562C643.289 7.41051 644.494 7.10795 645.901 7.10795C647.656 7.10795 649.093 7.65767 650.209 8.7571C651.325 9.84801 651.884 11.5483 651.884 13.858V27H648.867V13.858C648.867 12.4091 648.47 11.3736 647.678 10.7514C646.885 10.1293 645.952 9.81818 644.878 9.81818C643.497 9.81818 642.428 10.2358 641.669 11.071C640.911 11.8977 640.531 12.946 640.531 14.2159V27H637.463V13.5511C637.463 12.4347 637.101 11.5355 636.377 10.8537C635.652 10.1634 634.719 9.81818 633.577 9.81818C632.793 9.81818 632.06 10.027 631.378 10.4446C630.705 10.8622 630.159 11.4418 629.742 12.1832C629.333 12.9162 629.128 13.7642 629.128 14.7273V27H626.111ZM663.178 27.4602C661.934 27.4602 660.805 27.2259 659.791 26.7571C658.776 26.2798 657.971 25.5938 657.374 24.6989C656.778 23.7955 656.48 22.7045 656.48 21.4261C656.48 20.3011 656.701 19.3892 657.144 18.6903C657.588 17.983 658.18 17.429 658.921 17.0284C659.663 16.6278 660.481 16.3295 661.376 16.1335C662.279 15.929 663.187 15.767 664.099 15.6477C665.292 15.4943 666.259 15.3793 667.001 15.3026C667.751 15.2173 668.296 15.0767 668.637 14.8807C668.987 14.6847 669.161 14.3437 669.161 13.858V13.7557C669.161 12.4943 668.816 11.5142 668.126 10.8153C667.444 10.1165 666.409 9.76705 665.019 9.76705C663.579 9.76705 662.45 10.0824 661.632 10.7131C660.813 11.3437 660.238 12.017 659.906 12.733L657.042 11.7102C657.553 10.517 658.235 9.58807 659.088 8.9233C659.948 8.25 660.886 7.78125 661.9 7.51705C662.923 7.24432 663.928 7.10795 664.917 7.10795C665.548 7.10795 666.272 7.18466 667.09 7.33807C667.917 7.48295 668.714 7.78551 669.481 8.24574C670.257 8.70597 670.9 9.40057 671.411 10.3295C671.923 11.2585 672.178 12.5028 672.178 14.0625V27H669.161V24.3409H669.008C668.803 24.767 668.463 25.223 667.985 25.7088C667.508 26.1946 666.873 26.608 666.08 26.9489C665.288 27.2898 664.32 27.4602 663.178 27.4602ZM663.639 24.75C664.832 24.75 665.838 24.5156 666.656 24.0469C667.482 23.5781 668.105 22.973 668.522 22.2315C668.948 21.4901 669.161 20.7102 669.161 19.892V17.1307C669.034 17.2841 668.752 17.4247 668.318 17.5526C667.892 17.6719 667.397 17.7784 666.835 17.8722C666.281 17.9574 665.74 18.0341 665.211 18.1023C664.691 18.1619 664.269 18.2131 663.945 18.2557C663.161 18.358 662.428 18.5241 661.747 18.7543C661.073 18.9759 660.528 19.3125 660.11 19.7642C659.701 20.2074 659.497 20.8125 659.497 21.5795C659.497 22.6278 659.884 23.4205 660.66 23.9574C661.444 24.4858 662.437 24.75 663.639 24.75ZM680.498 19.8409L680.447 16.108H681.06L689.651 7.36364H693.384L684.231 16.6193H683.975L680.498 19.8409ZM677.685 27V0.818181H680.702V27H677.685ZM690.162 27L682.492 17.2841L684.64 15.1875L693.998 27H690.162ZM704.692 27.4091C702.8 27.4091 701.167 26.9915 699.795 26.1562C698.432 25.3125 697.379 24.1364 696.638 22.6278C695.905 21.1108 695.538 19.3466 695.538 17.3352C695.538 15.3239 695.905 13.5511 696.638 12.017C697.379 10.4744 698.41 9.27273 699.731 8.41193C701.061 7.54261 702.612 7.10795 704.385 7.10795C705.407 7.10795 706.417 7.27841 707.415 7.61932C708.412 7.96023 709.319 8.5142 710.138 9.28125C710.956 10.0398 711.608 11.0455 712.094 12.2983C712.579 13.5511 712.822 15.0937 712.822 16.9261V18.2045H697.686V15.5966H709.754C709.754 14.4886 709.532 13.5 709.089 12.6307C708.655 11.7614 708.032 11.0753 707.223 10.5724C706.422 10.0696 705.476 9.81818 704.385 9.81818C703.183 9.81818 702.143 10.1165 701.265 10.7131C700.396 11.3011 699.727 12.0682 699.258 13.0142C698.79 13.9602 698.555 14.9744 698.555 16.0568V17.7955C698.555 19.2784 698.811 20.5355 699.322 21.5668C699.842 22.5895 700.562 23.3693 701.483 23.9062C702.403 24.4347 703.473 24.6989 704.692 24.6989C705.484 24.6989 706.2 24.5881 706.839 24.3665C707.487 24.1364 708.045 23.7955 708.514 23.3438C708.983 22.8835 709.345 22.3125 709.601 21.6307L712.515 22.4489C712.209 23.4375 711.693 24.3068 710.969 25.0568C710.244 25.7983 709.349 26.3778 708.284 26.7955C707.219 27.2045 706.021 27.4091 704.692 27.4091ZM731.321 11.7614L728.611 12.5284C728.44 12.0767 728.189 11.6378 727.856 11.2116C727.532 10.777 727.089 10.419 726.527 10.1378C725.964 9.85653 725.244 9.71591 724.366 9.71591C723.165 9.71591 722.163 9.9929 721.362 10.5469C720.569 11.0923 720.173 11.7869 720.173 12.6307C720.173 13.3807 720.446 13.973 720.991 14.4077C721.537 14.8423 722.389 15.2045 723.548 15.4943L726.463 16.2102C728.219 16.6364 729.527 17.2884 730.388 18.1662C731.248 19.0355 731.679 20.1562 731.679 21.5284C731.679 22.6534 731.355 23.6591 730.707 24.5455C730.068 25.4318 729.173 26.1307 728.023 26.642C726.872 27.1534 725.534 27.4091 724.008 27.4091C722.006 27.4091 720.348 26.9744 719.035 26.1051C717.723 25.2358 716.892 23.9659 716.542 22.2955L719.406 21.5795C719.679 22.6364 720.194 23.429 720.953 23.9574C721.72 24.4858 722.721 24.75 723.957 24.75C725.363 24.75 726.48 24.4517 727.307 23.8551C728.142 23.25 728.559 22.5256 728.559 21.6818C728.559 21 728.321 20.429 727.844 19.9688C727.366 19.5 726.633 19.1506 725.645 18.9205L722.372 18.1534C720.574 17.7273 719.253 17.0668 718.409 16.1719C717.574 15.2685 717.156 14.1392 717.156 12.7841C717.156 11.6761 717.467 10.696 718.089 9.84375C718.72 8.99148 719.577 8.32244 720.659 7.83665C721.75 7.35085 722.986 7.10795 724.366 7.10795C726.309 7.10795 727.835 7.53409 728.943 8.38636C730.059 9.23864 730.852 10.3636 731.321 11.7614ZM746.345 27V7.36364H749.362V27H746.345ZM747.879 4.09091C747.291 4.09091 746.784 3.89062 746.358 3.49006C745.941 3.08949 745.732 2.60795 745.732 2.04545C745.732 1.48295 745.941 1.00142 746.358 0.600851C746.784 0.200284 747.291 0 747.879 0C748.468 0 748.97 0.200284 749.388 0.600851C749.814 1.00142 750.027 1.48295 750.027 2.04545C750.027 2.60795 749.814 3.08949 749.388 3.49006C748.97 3.89062 748.468 4.09091 747.879 4.09091ZM763.428 7.36364V9.92045H753.252V7.36364H763.428ZM756.218 2.65909H759.235V21.375C759.235 22.2273 759.358 22.8665 759.606 23.2926C759.861 23.7102 760.185 23.9915 760.577 24.1364C760.978 24.2727 761.4 24.3409 761.843 24.3409C762.175 24.3409 762.448 24.3239 762.661 24.2898C762.874 24.2472 763.045 24.2131 763.172 24.1875L763.786 26.8977C763.581 26.9744 763.296 27.0511 762.93 27.1278C762.563 27.2131 762.099 27.2557 761.536 27.2557C760.684 27.2557 759.849 27.0724 759.03 26.706C758.221 26.3395 757.547 25.7812 757.01 25.0312C756.482 24.2812 756.218 23.3352 756.218 22.1932V2.65909ZM786.631 7.36364V9.92045H776.455V7.36364H786.631ZM779.421 2.65909H782.438V21.375C782.438 22.2273 782.562 22.8665 782.809 23.2926C783.064 23.7102 783.388 23.9915 783.78 24.1364C784.181 24.2727 784.603 24.3409 785.046 24.3409C785.378 24.3409 785.651 24.3239 785.864 24.2898C786.077 24.2472 786.248 24.2131 786.376 24.1875L786.989 26.8977C786.785 26.9744 786.499 27.0511 786.133 27.1278C785.766 27.2131 785.302 27.2557 784.739 27.2557C783.887 27.2557 783.052 27.0724 782.233 26.706C781.424 26.3395 780.751 25.7812 780.214 25.0312C779.685 24.2812 779.421 23.3352 779.421 22.1932V2.65909ZM791.17 27V7.36364H794.084V10.3295H794.289C794.647 9.35795 795.295 8.5696 796.232 7.96449C797.17 7.35937 798.226 7.05682 799.403 7.05682C799.624 7.05682 799.901 7.06108 800.233 7.0696C800.566 7.07812 800.817 7.09091 800.988 7.10795V10.1761C800.885 10.1506 800.651 10.1122 800.285 10.0611C799.927 10.0014 799.547 9.97159 799.147 9.97159C798.192 9.97159 797.34 10.1719 796.59 10.5724C795.849 10.9645 795.26 11.5099 794.826 12.2088C794.4 12.8991 794.187 13.6875 794.187 14.5739V27H791.17ZM816.939 18.9716V7.36364H819.956V27H816.939V23.6761H816.735C816.274 24.6733 815.558 25.5213 814.587 26.2202C813.615 26.9105 812.388 27.2557 810.905 27.2557C809.678 27.2557 808.587 26.9872 807.632 26.4503C806.678 25.9048 805.928 25.0866 805.382 23.9957C804.837 22.8963 804.564 21.5114 804.564 19.8409V7.36364H807.581V19.6364C807.581 21.0682 807.982 22.2102 808.783 23.0625C809.593 23.9148 810.624 24.3409 811.877 24.3409C812.627 24.3409 813.389 24.1491 814.165 23.7656C814.949 23.3821 815.605 22.794 816.134 22.0014C816.671 21.2088 816.939 20.1989 816.939 18.9716ZM833.715 27.4091C831.823 27.4091 830.191 26.9915 828.819 26.1562C827.455 25.3125 826.403 24.1364 825.661 22.6278C824.928 21.1108 824.562 19.3466 824.562 17.3352C824.562 15.3239 824.928 13.5511 825.661 12.017C826.403 10.4744 827.434 9.27273 828.755 8.41193C830.084 7.54261 831.635 7.10795 833.408 7.10795C834.431 7.10795 835.441 7.27841 836.438 7.61932C837.435 7.96023 838.343 8.5142 839.161 9.28125C839.979 10.0398 840.631 11.0455 841.117 12.2983C841.603 13.5511 841.846 15.0937 841.846 16.9261V18.2045H826.709V15.5966H838.778C838.778 14.4886 838.556 13.5 838.113 12.6307C837.678 11.7614 837.056 11.0753 836.246 10.5724C835.445 10.0696 834.499 9.81818 833.408 9.81818C832.206 9.81818 831.167 10.1165 830.289 10.7131C829.42 11.3011 828.751 12.0682 828.282 13.0142C827.813 13.9602 827.579 14.9744 827.579 16.0568V17.7955C827.579 19.2784 827.834 20.5355 828.346 21.5668C828.866 22.5895 829.586 23.3693 830.506 23.9062C831.427 24.4347 832.496 24.6989 833.715 24.6989C834.508 24.6989 835.224 24.5881 835.863 24.3665C836.51 24.1364 837.069 23.7955 837.537 23.3438C838.006 22.8835 838.368 22.3125 838.624 21.6307L841.539 22.4489C841.232 23.4375 840.716 24.3068 839.992 25.0568C839.268 25.7983 838.373 26.3778 837.307 26.7955C836.242 27.2045 835.045 27.4091 833.715 27.4091ZM848.634 27.2045C848.003 27.2045 847.462 26.9787 847.01 26.527C846.559 26.0753 846.333 25.5341 846.333 24.9034C846.333 24.2727 846.559 23.7315 847.01 23.2798C847.462 22.8281 848.003 22.6023 848.634 22.6023C849.265 22.6023 849.806 22.8281 850.258 23.2798C850.709 23.7315 850.935 24.2727 850.935 24.9034C850.935 25.321 850.829 25.7045 850.616 26.054C850.411 26.4034 850.134 26.6847 849.785 26.8977C849.444 27.1023 849.06 27.2045 848.634 27.2045Z" fill="#404040"/>
<path d="M241.129 47.6307V44.8182H260.766V47.6307H252.533V71H249.362V47.6307H241.129ZM268.267 59.1875V71H265.25V44.8182H268.267V54.4318H268.522C268.983 53.4176 269.673 52.6122 270.593 52.0156C271.522 51.4105 272.758 51.108 274.301 51.108C275.639 51.108 276.811 51.3764 277.816 51.9134C278.822 52.4418 279.602 53.2557 280.156 54.3551C280.718 55.446 281 56.8352 281 58.5227V71H277.983V58.7273C277.983 57.1676 277.578 55.9616 276.768 55.1094C275.967 54.2486 274.855 53.8182 273.431 53.8182C272.443 53.8182 271.556 54.027 270.772 54.4446C269.997 54.8622 269.383 55.4716 268.931 56.2727C268.488 57.0739 268.267 58.0455 268.267 59.1875ZM292.298 71.4602C291.053 71.4602 289.924 71.2259 288.91 70.7571C287.896 70.2798 287.09 69.5938 286.494 68.6989C285.897 67.7955 285.599 66.7045 285.599 65.4261C285.599 64.3011 285.82 63.3892 286.263 62.6903C286.707 61.983 287.299 61.429 288.04 61.0284C288.782 60.6278 289.6 60.3295 290.495 60.1335C291.398 59.929 292.306 59.767 293.218 59.6477C294.411 59.4943 295.379 59.3793 296.12 59.3026C296.87 59.2173 297.415 59.0767 297.756 58.8807C298.106 58.6847 298.281 58.3437 298.281 57.858V57.7557C298.281 56.4943 297.935 55.5142 297.245 54.8153C296.563 54.1165 295.528 53.767 294.138 53.767C292.698 53.767 291.569 54.0824 290.751 54.7131C289.933 55.3437 289.357 56.017 289.025 56.733L286.161 55.7102C286.673 54.517 287.354 53.5881 288.207 52.9233C289.067 52.25 290.005 51.7812 291.019 51.517C292.042 51.2443 293.048 51.108 294.036 51.108C294.667 51.108 295.391 51.1847 296.21 51.3381C297.036 51.483 297.833 51.7855 298.6 52.2457C299.376 52.706 300.019 53.4006 300.531 54.3295C301.042 55.2585 301.298 56.5028 301.298 58.0625V71H298.281V68.3409H298.127C297.923 68.767 297.582 69.223 297.104 69.7088C296.627 70.1946 295.992 70.608 295.2 70.9489C294.407 71.2898 293.44 71.4602 292.298 71.4602ZM292.758 68.75C293.951 68.75 294.957 68.5156 295.775 68.0469C296.602 67.5781 297.224 66.973 297.641 66.2315C298.067 65.4901 298.281 64.7102 298.281 63.892V61.1307C298.153 61.2841 297.871 61.4247 297.437 61.5526C297.011 61.6719 296.516 61.7784 295.954 61.8722C295.4 61.9574 294.859 62.0341 294.33 62.1023C293.81 62.1619 293.388 62.2131 293.065 62.2557C292.281 62.358 291.548 62.5241 290.866 62.7543C290.192 62.9759 289.647 63.3125 289.229 63.7642C288.82 64.2074 288.616 64.8125 288.616 65.5795C288.616 66.6278 289.004 67.4205 289.779 67.9574C290.563 68.4858 291.556 68.75 292.758 68.75ZM315.344 51.3636V53.9205H305.168V51.3636H315.344ZM308.134 46.6591H311.151V65.375C311.151 66.2273 311.275 66.8665 311.522 67.2926C311.777 67.7102 312.101 67.9915 312.493 68.1364C312.894 68.2727 313.316 68.3409 313.759 68.3409C314.091 68.3409 314.364 68.3239 314.577 68.2898C314.79 68.2472 314.961 68.2131 315.088 68.1875L315.702 70.8977C315.498 70.9744 315.212 71.0511 314.846 71.1278C314.479 71.2131 314.015 71.2557 313.452 71.2557C312.6 71.2557 311.765 71.0724 310.946 70.706C310.137 70.3395 309.463 69.7812 308.926 69.0312C308.398 68.2812 308.134 67.3352 308.134 66.1932V46.6591ZM330.007 71V51.3636H333.025V71H330.007ZM331.542 48.0909C330.953 48.0909 330.446 47.8906 330.02 47.4901C329.603 47.0895 329.394 46.608 329.394 46.0455C329.394 45.483 329.603 45.0014 330.02 44.6009C330.446 44.2003 330.953 44 331.542 44C332.13 44 332.632 44.2003 333.05 44.6009C333.476 45.0014 333.689 45.483 333.689 46.0455C333.689 46.608 333.476 47.0895 333.05 47.4901C332.632 47.8906 332.13 48.0909 331.542 48.0909ZM352.46 55.7614L349.749 56.5284C349.579 56.0767 349.327 55.6378 348.995 55.2116C348.671 54.777 348.228 54.419 347.665 54.1378C347.103 53.8565 346.383 53.7159 345.505 53.7159C344.303 53.7159 343.302 53.9929 342.501 54.5469C341.708 55.0923 341.312 55.7869 341.312 56.6307C341.312 57.3807 341.585 57.973 342.13 58.4077C342.675 58.8423 343.528 59.2045 344.687 59.4943L347.602 60.2102C349.357 60.6364 350.665 61.2884 351.526 62.1662C352.387 63.0355 352.817 64.1562 352.817 65.5284C352.817 66.6534 352.494 67.6591 351.846 68.5455C351.207 69.4318 350.312 70.1307 349.161 70.642C348.011 71.1534 346.673 71.4091 345.147 71.4091C343.144 71.4091 341.487 70.9744 340.174 70.1051C338.862 69.2358 338.031 67.9659 337.681 66.2955L340.545 65.5795C340.817 66.6364 341.333 67.429 342.092 67.9574C342.859 68.4858 343.86 68.75 345.096 68.75C346.502 68.75 347.619 68.4517 348.445 67.8551C349.281 67.25 349.698 66.5256 349.698 65.6818C349.698 65 349.46 64.429 348.982 63.9688C348.505 63.5 347.772 63.1506 346.783 62.9205L343.511 62.1534C341.712 61.7273 340.391 61.0668 339.548 60.1719C338.712 59.2685 338.295 58.1392 338.295 56.7841C338.295 55.6761 338.606 54.696 339.228 53.8438C339.859 52.9915 340.715 52.3224 341.798 51.8366C342.888 51.3509 344.124 51.108 345.505 51.108C347.448 51.108 348.974 51.5341 350.082 52.3864C351.198 53.2386 351.991 54.3636 352.46 55.7614ZM371.933 71L365.95 51.3636H369.12L373.365 66.3977H373.569L377.762 51.3636H380.984L385.126 66.3466H385.331L389.575 51.3636H392.745L386.762 71H383.797L379.501 55.9148H379.194L374.899 71H371.933ZM399.751 59.1875V71H396.734V44.8182H399.751V54.4318H400.007C400.467 53.4176 401.157 52.6122 402.078 52.0156C403.007 51.4105 404.243 51.108 405.785 51.108C407.123 51.108 408.295 51.3764 409.301 51.9134C410.306 52.4418 411.086 53.2557 411.64 54.3551C412.203 55.446 412.484 56.8352 412.484 58.5227V71H409.467V58.7273C409.467 57.1676 409.062 55.9616 408.252 55.1094C407.451 54.2486 406.339 53.8182 404.916 53.8182C403.927 53.8182 403.041 54.027 402.257 54.4446C401.481 54.8622 400.868 55.4716 400.416 56.2727C399.973 57.0739 399.751 58.0455 399.751 59.1875ZM423.782 71.4602C422.538 71.4602 421.408 71.2259 420.394 70.7571C419.38 70.2798 418.575 69.5938 417.978 68.6989C417.381 67.7955 417.083 66.7045 417.083 65.4261C417.083 64.3011 417.305 63.3892 417.748 62.6903C418.191 61.983 418.783 61.429 419.525 61.0284C420.266 60.6278 421.085 60.3295 421.979 60.1335C422.883 59.929 423.79 59.767 424.702 59.6477C425.896 59.4943 426.863 59.3793 427.604 59.3026C428.354 59.2173 428.9 59.0767 429.241 58.8807C429.59 58.6847 429.765 58.3437 429.765 57.858V57.7557C429.765 56.4943 429.42 55.5142 428.729 54.8153C428.048 54.1165 427.012 53.767 425.623 53.767C424.183 53.767 423.053 54.0824 422.235 54.7131C421.417 55.3437 420.842 56.017 420.509 56.733L417.646 55.7102C418.157 54.517 418.839 53.5881 419.691 52.9233C420.552 52.25 421.489 51.7812 422.504 51.517C423.526 51.2443 424.532 51.108 425.521 51.108C426.151 51.108 426.876 51.1847 427.694 51.3381C428.521 51.483 429.317 51.7855 430.085 52.2457C430.86 52.706 431.504 53.4006 432.015 54.3295C432.526 55.2585 432.782 56.5028 432.782 58.0625V71H429.765V68.3409H429.612C429.407 68.767 429.066 69.223 428.589 69.7088C428.112 70.1946 427.477 70.608 426.684 70.9489C425.891 71.2898 424.924 71.4602 423.782 71.4602ZM424.242 68.75C425.435 68.75 426.441 68.5156 427.259 68.0469C428.086 67.5781 428.708 66.973 429.126 66.2315C429.552 65.4901 429.765 64.7102 429.765 63.892V61.1307C429.637 61.2841 429.356 61.4247 428.921 61.5526C428.495 61.6719 428.001 61.7784 427.438 61.8722C426.884 61.9574 426.343 62.0341 425.815 62.1023C425.295 62.1619 424.873 62.2131 424.549 62.2557C423.765 62.358 423.032 62.5241 422.35 62.7543C421.677 62.9759 421.131 63.3125 420.714 63.7642C420.305 64.2074 420.1 64.8125 420.1 65.5795C420.1 66.6278 420.488 67.4205 421.263 67.9574C422.048 68.4858 423.04 68.75 424.242 68.75ZM446.828 51.3636V53.9205H436.652V51.3636H446.828ZM439.618 46.6591H442.635V65.375C442.635 66.2273 442.759 66.8665 443.006 67.2926C443.262 67.7102 443.586 67.9915 443.978 68.1364C444.378 68.2727 444.8 68.3409 445.243 68.3409C445.576 68.3409 445.848 68.3239 446.061 68.2898C446.275 68.2472 446.445 68.2131 446.573 68.1875L447.186 70.8977C446.982 70.9744 446.696 71.0511 446.33 71.1278C445.963 71.2131 445.499 71.2557 444.936 71.2557C444.084 71.2557 443.249 71.0724 442.431 70.706C441.621 70.3395 440.948 69.7812 440.411 69.0312C439.882 68.2812 439.618 67.3352 439.618 66.1932V46.6591ZM465.941 71L459.958 51.3636H463.128L467.373 66.3977H467.577L471.77 51.3636H474.992L479.134 66.3466H479.338L483.583 51.3636H486.753L480.77 71H477.804L473.509 55.9148H473.202L468.907 71H465.941ZM498.307 71.4091C496.415 71.4091 494.783 70.9915 493.411 70.1562C492.047 69.3125 490.994 68.1364 490.253 66.6278C489.52 65.1108 489.153 63.3466 489.153 61.3352C489.153 59.3239 489.52 57.5511 490.253 56.017C490.994 54.4744 492.026 53.2727 493.347 52.4119C494.676 51.5426 496.227 51.108 498 51.108C499.023 51.108 500.033 51.2784 501.03 51.6193C502.027 51.9602 502.935 52.5142 503.753 53.2812C504.571 54.0398 505.223 55.0455 505.709 56.2983C506.195 57.5511 506.438 59.0937 506.438 60.9261V62.2045H491.301V59.5966H503.369C503.369 58.4886 503.148 57.5 502.705 56.6307C502.27 55.7614 501.648 55.0753 500.838 54.5724C500.037 54.0696 499.091 53.8182 498 53.8182C496.798 53.8182 495.759 54.1165 494.881 54.7131C494.011 55.3011 493.342 56.0682 492.874 57.0142C492.405 57.9602 492.17 58.9744 492.17 60.0568V61.7955C492.17 63.2784 492.426 64.5355 492.938 65.5668C493.457 66.5895 494.178 67.3693 495.098 67.9062C496.018 68.4347 497.088 68.6989 498.307 68.6989C499.099 68.6989 499.815 68.5881 500.455 68.3665C501.102 68.1364 501.661 67.7955 502.129 67.3438C502.598 66.8835 502.96 66.3125 503.216 65.6307L506.131 66.4489C505.824 67.4375 505.308 68.3068 504.584 69.0568C503.859 69.7983 502.964 70.3778 501.899 70.7955C500.834 71.2045 499.636 71.4091 498.307 71.4091ZM521.561 71V44.8182H524.578V54.483H524.834C525.055 54.142 525.362 53.7074 525.754 53.179C526.155 52.642 526.726 52.1648 527.467 51.7472C528.217 51.321 529.232 51.108 530.51 51.108C532.163 51.108 533.621 51.5213 534.882 52.348C536.143 53.1747 537.128 54.3466 537.835 55.8636C538.543 57.3807 538.896 59.1705 538.896 61.233C538.896 63.3125 538.543 65.1151 537.835 66.6406C537.128 68.1577 536.148 69.3338 534.895 70.169C533.642 70.9957 532.197 71.4091 530.561 71.4091C529.3 71.4091 528.29 71.2003 527.531 70.7827C526.773 70.3565 526.189 69.875 525.78 69.3381C525.371 68.7926 525.055 68.3409 524.834 67.983H524.476V71H521.561ZM524.527 61.1818C524.527 62.6648 524.744 63.973 525.179 65.1065C525.614 66.2315 526.249 67.1136 527.084 67.7528C527.919 68.3835 528.942 68.6989 530.152 68.6989C531.413 68.6989 532.466 68.3665 533.31 67.7017C534.162 67.0284 534.801 66.125 535.227 64.9915C535.662 63.8494 535.879 62.5795 535.879 61.1818C535.879 59.8011 535.666 58.5568 535.24 57.4489C534.822 56.3324 534.188 55.4503 533.335 54.8026C532.491 54.1463 531.43 53.8182 530.152 53.8182C528.925 53.8182 527.893 54.1293 527.058 54.7514C526.223 55.3651 525.592 56.2259 525.166 57.3338C524.74 58.4332 524.527 59.7159 524.527 61.1818ZM555.886 62.9716V51.3636H558.903V71H555.886V67.6761H555.682C555.222 68.6733 554.506 69.5213 553.534 70.2202C552.563 70.9105 551.335 71.2557 549.852 71.2557C548.625 71.2557 547.534 70.9872 546.58 70.4503C545.625 69.9048 544.875 69.0866 544.33 67.9957C543.784 66.8963 543.511 65.5114 543.511 63.8409V51.3636H546.528V63.6364C546.528 65.0682 546.929 66.2102 547.73 67.0625C548.54 67.9148 549.571 68.3409 550.824 68.3409C551.574 68.3409 552.337 68.1491 553.112 67.7656C553.896 67.3821 554.553 66.794 555.081 66.0014C555.618 65.2088 555.886 64.1989 555.886 62.9716ZM564.429 71V51.3636H567.446V71H564.429ZM565.963 48.0909C565.375 48.0909 564.868 47.8906 564.442 47.4901C564.025 47.0895 563.816 46.608 563.816 46.0455C563.816 45.483 564.025 45.0014 564.442 44.6009C564.868 44.2003 565.375 44 565.963 44C566.551 44 567.054 44.2003 567.472 44.6009C567.898 45.0014 568.111 45.483 568.111 46.0455C568.111 46.608 567.898 47.0895 567.472 47.4901C567.054 47.8906 566.551 48.0909 565.963 48.0909ZM575.989 44.8182V71H572.972V44.8182H575.989ZM588.93 71.4091C587.294 71.4091 585.849 70.9957 584.596 70.169C583.343 69.3338 582.363 68.1577 581.656 66.6406C580.949 65.1151 580.595 63.3125 580.595 61.233C580.595 59.1705 580.949 57.3807 581.656 55.8636C582.363 54.3466 583.348 53.1747 584.609 52.348C585.87 51.5213 587.328 51.108 588.981 51.108C590.26 51.108 591.27 51.321 592.011 51.7472C592.761 52.1648 593.332 52.642 593.724 53.179C594.125 53.7074 594.436 54.142 594.657 54.483H594.913V44.8182H597.93V71H595.015V67.983H594.657C594.436 68.3409 594.12 68.7926 593.711 69.3381C593.302 69.875 592.718 70.3565 591.96 70.7827C591.201 71.2003 590.191 71.4091 588.93 71.4091ZM589.339 68.6989C590.549 68.6989 591.572 68.3835 592.407 67.7528C593.243 67.1136 593.877 66.2315 594.312 65.1065C594.747 63.973 594.964 62.6648 594.964 61.1818C594.964 59.7159 594.751 58.4332 594.325 57.3338C593.899 56.2259 593.268 55.3651 592.433 54.7514C591.598 54.1293 590.566 53.8182 589.339 53.8182C588.061 53.8182 586.995 54.1463 586.143 54.8026C585.299 55.4503 584.664 56.3324 584.238 57.4489C583.821 58.5568 583.612 59.8011 583.612 61.1818C583.612 62.5795 583.825 63.8494 584.251 64.9915C584.686 66.125 585.325 67.0284 586.169 67.7017C587.021 68.3665 588.078 68.6989 589.339 68.6989ZM606.074 71.2045C605.443 71.2045 604.902 70.9787 604.45 70.527C603.998 70.0753 603.772 69.5341 603.772 68.9034C603.772 68.2727 603.998 67.7315 604.45 67.2798C604.902 66.8281 605.443 66.6023 606.074 66.6023C606.704 66.6023 607.245 66.8281 607.697 67.2798C608.149 67.7315 608.375 68.2727 608.375 68.9034C608.375 69.321 608.268 69.7045 608.055 70.054C607.85 70.4034 607.574 70.6847 607.224 70.8977C606.883 71.1023 606.5 71.2045 606.074 71.2045Z" fill="url(#paint0_radial_581_1424)"/>
<defs>
<radialGradient id="paint0_radial_581_1424" cx="0" cy="0" r="1" gradientUnits="userSpaceOnUse" gradientTransform="translate(425.209 36) rotate(90) scale(44 440)">
<stop stop-color="#5A69EA"/>
<stop offset="1" stop-color="#BF8BCA"/>
</radialGradient>
</defs>
</svg>
