<svg width="157" height="37" viewBox="0 0 157 37" fill="none" xmlns="http://www.w3.org/2000/svg">
<path d="M13.5849 36.7679C10.6409 36.7679 8.16086 36.3039 6.14486 35.3759C4.12886 34.4159 2.59286 33.1039 1.53686 31.4399C0.51286 29.7439 0.000859618 27.8399 0.000859618 25.7279H3.64886C3.64886 27.0719 3.96886 28.3359 4.60886 29.5199C5.28086 30.6719 6.33686 31.6159 7.77686 32.3519C9.24886 33.0559 11.1849 33.4079 13.5849 33.4079C15.7929 33.4079 17.6169 33.0879 19.0569 32.4479C20.5289 31.8079 21.6169 30.9439 22.3209 29.8559C23.0569 28.7679 23.4249 27.5519 23.4249 26.2079C23.4249 24.5119 22.7529 23.1039 21.4089 21.9839C20.0969 20.8319 18.1129 20.1439 15.4569 19.9199L11.4249 19.5359C8.41686 19.2799 6.01686 18.3519 4.22486 16.7519C2.46486 15.1199 1.58486 12.9759 1.58486 10.3199C1.58486 8.3039 2.06486 6.5279 3.02486 4.9919C3.98486 3.4559 5.34486 2.2399 7.10486 1.3439C8.89686 0.447904 11.0409 -9.63211e-05 13.5369 -9.63211e-05C16.0649 -9.63211e-05 18.2249 0.463903 20.0169 1.3919C21.8409 2.2879 23.2329 3.5359 24.1929 5.1359C25.1529 6.7359 25.6329 8.5919 25.6329 10.7039H21.9849C21.9849 9.4239 21.6969 8.2239 21.1209 7.1039C20.5449 5.9839 19.6329 5.0879 18.3849 4.4159C17.1369 3.7119 15.5209 3.3599 13.5369 3.3599C11.6489 3.3599 10.0809 3.6799 8.83286 4.3199C7.61686 4.9599 6.70486 5.8079 6.09686 6.8639C5.52086 7.9199 5.23286 9.0719 5.23286 10.3199C5.23286 11.8879 5.79286 13.2159 6.91286 14.3039C8.03286 15.3919 9.64886 16.0159 11.7609 16.1759L15.7929 16.5599C18.1609 16.7519 20.1769 17.2799 21.8409 18.1439C23.5369 18.9759 24.8329 20.0799 25.7289 21.4559C26.6249 22.7999 27.0729 24.3839 27.0729 26.2079C27.0729 28.2559 26.5129 30.0799 25.3929 31.6799C24.3049 33.2799 22.7529 34.5279 20.7369 35.4239C18.7209 36.3199 16.3369 36.7679 13.5849 36.7679ZM44.2216 36.2399C42.4616 36.2399 40.9416 35.9839 39.6616 35.4719C38.3816 34.9599 37.3896 34.0959 36.6856 32.8799C35.9816 31.6319 35.6296 29.9679 35.6296 27.8879V2.5439H39.0856V28.4159C39.0856 29.8879 39.4856 31.0239 40.2856 31.8239C41.0856 32.5919 42.2216 32.9759 43.6936 32.9759H48.2536V36.2399H44.2216ZM31.0696 13.2959V10.5599H48.2536V13.2959H31.0696ZM63.9927 36.6719C60.9527 36.6719 58.6327 35.6959 57.0327 33.7439C55.4327 31.7599 54.6327 29.0079 54.6327 25.4879V10.5119H58.1847V26.2079C58.1847 28.4159 58.7607 30.1759 59.9127 31.4879C61.0967 32.7679 62.7287 33.4079 64.8087 33.4079C66.9847 33.4079 68.7127 32.7199 69.9927 31.3439C71.3047 29.9679 71.9607 28.1279 71.9607 25.8239V10.5119H75.5607V35.9519H72.6807V25.3439H73.2567C73.2567 27.7119 72.9207 29.7439 72.2487 31.4399C71.5767 33.1039 70.5687 34.3999 69.2247 35.3279C67.8807 36.2239 66.1847 36.6719 64.1367 36.6719H63.9927ZM95.3904 36.7679C93.5344 36.7679 91.8384 36.4319 90.3024 35.7599C88.7984 35.0559 87.4864 34.0959 86.3664 32.8799C85.2784 31.6319 84.4304 30.2239 83.8224 28.6559C83.2464 27.0559 82.9584 25.3599 82.9584 23.5679V22.8959C82.9584 21.1679 83.2464 19.5199 83.8224 17.9519C84.3984 16.3519 85.2144 14.9439 86.2704 13.7279C87.3584 12.4799 88.6544 11.5039 90.1584 10.7999C91.6944 10.0639 93.4064 9.6959 95.2944 9.6959C97.4384 9.6959 99.3264 10.1599 100.958 11.0879C102.59 12.0159 103.902 13.3599 104.894 15.1199C105.886 16.8479 106.414 18.9759 106.478 21.5039L104.894 18.5279V0.911903H108.494V35.9519H105.614V24.6719H106.766C106.702 27.3279 106.142 29.5679 105.086 31.3919C104.062 33.1839 102.702 34.5279 101.006 35.4239C99.3424 36.3199 97.4704 36.7679 95.3904 36.7679ZM95.8704 33.5999C97.5984 33.5999 99.1504 33.2159 100.526 32.4479C101.934 31.6799 103.038 30.5919 103.838 29.1839C104.638 27.7439 105.038 26.0959 105.038 24.2399V21.9359C105.038 20.1439 104.638 18.5759 103.838 17.2319C103.038 15.8559 101.934 14.7839 100.526 14.0159C99.1504 13.2479 97.5824 12.8639 95.8224 12.8639C93.9344 12.8639 92.2864 13.3279 90.8784 14.2559C89.5024 15.1519 88.4304 16.3839 87.6624 17.9519C86.9264 19.5199 86.5584 21.2799 86.5584 23.2319C86.5584 25.2479 86.9424 27.0399 87.7104 28.6079C88.4784 30.1759 89.5664 31.4079 90.9744 32.3039C92.3824 33.1679 94.0144 33.5999 95.8704 33.5999ZM119.131 35.9519V10.5599H122.683V35.9519H119.131ZM115.051 13.4399V10.5599H122.683V13.4399H115.051ZM119.899 5.8559C119.035 5.8559 118.379 5.6319 117.931 5.1839C117.515 4.7039 117.307 4.1119 117.307 3.4079C117.307 2.7039 117.515 2.1279 117.931 1.6799C118.379 1.1999 119.035 0.959903 119.899 0.959903C120.763 0.959903 121.403 1.1999 121.819 1.6799C122.235 2.1279 122.443 2.7039 122.443 3.4079C122.443 4.1119 122.235 4.7039 121.819 5.1839C121.403 5.6319 120.763 5.8559 119.899 5.8559ZM143.507 36.7679C141.331 36.7679 139.411 36.3999 137.747 35.6639C136.115 34.8959 134.723 33.8879 133.571 32.6399C132.451 31.3599 131.587 29.9359 130.979 28.3679C130.403 26.7999 130.115 25.1999 130.115 23.5679V22.8959C130.115 21.2639 130.419 19.6639 131.027 18.0959C131.635 16.4959 132.515 15.0719 133.667 13.8239C134.819 12.5759 136.211 11.5839 137.843 10.8479C139.507 10.0799 141.395 9.6959 143.507 9.6959C145.651 9.6959 147.539 10.0799 149.171 10.8479C150.835 11.5839 152.243 12.5759 153.395 13.8239C154.547 15.0719 155.411 16.4959 155.987 18.0959C156.595 19.6639 156.899 21.2639 156.899 22.8959V23.5679C156.899 25.1999 156.611 26.7999 156.035 28.3679C155.459 29.9359 154.595 31.3599 153.443 32.6399C152.323 33.8879 150.931 34.8959 149.267 35.6639C147.603 36.3999 145.683 36.7679 143.507 36.7679ZM143.507 33.5519C145.619 33.5519 147.395 33.0879 148.835 32.1599C150.307 31.1999 151.427 29.9519 152.195 28.4159C152.963 26.8479 153.347 25.1199 153.347 23.2319C153.347 21.3119 152.947 19.5839 152.147 18.0479C151.379 16.4799 150.259 15.2479 148.787 14.3519C147.315 13.4239 145.555 12.9599 143.507 12.9599C141.491 12.9599 139.747 13.4239 138.275 14.3519C136.803 15.2479 135.667 16.4799 134.867 18.0479C134.099 19.5839 133.715 21.3119 133.715 23.2319C133.715 25.1199 134.099 26.8479 134.867 28.4159C135.635 29.9519 136.739 31.1999 138.179 32.1599C139.651 33.0879 141.427 33.5519 143.507 33.5519Z" fill="#0D0D0D"/>
</svg>
