<svg width="321" height="38" viewBox="0 0 321 38" fill="none" xmlns="http://www.w3.org/2000/svg">
<path d="M-0.000177443 5.38632V1.63632H26.1816V5.38632H15.2044V36.5454H10.9771V5.38632H-0.000177443ZM36.1831 20.7954V36.5454H32.1603V1.63632H36.1831V14.4545H36.524C37.1376 13.1022 38.0581 12.0284 39.2853 11.2329C40.524 10.4261 42.1717 10.0227 44.2285 10.0227C46.0126 10.0227 47.5751 10.3806 48.916 11.0965C50.2569 11.8011 51.2967 12.8863 52.0353 14.3522C52.7853 15.8068 53.1603 17.659 53.1603 19.909V36.5454H49.1376V20.1818C49.1376 18.1022 48.5978 16.4943 47.5183 15.3579C46.4501 14.2102 44.9672 13.6363 43.0694 13.6363C41.7512 13.6363 40.5694 13.9147 39.524 14.4715C38.4899 15.0284 37.6717 15.8409 37.0694 16.909C36.4785 17.9772 36.1831 19.2727 36.1831 20.7954ZM71.497 37.0909C68.9743 37.0909 66.7981 36.534 64.9686 35.4204C63.1504 34.2954 61.747 32.7272 60.7583 30.7159C59.7811 28.6931 59.2924 26.3409 59.2924 23.659C59.2924 20.9772 59.7811 18.6136 60.7583 16.5681C61.747 14.5113 63.122 12.909 64.8833 11.7613C66.6561 10.6022 68.7243 10.0227 71.0879 10.0227C72.4515 10.0227 73.7981 10.25 75.1277 10.7045C76.4572 11.159 77.6674 11.8977 78.7583 12.9204C79.8493 13.9318 80.7186 15.2727 81.3663 16.9431C82.014 18.6136 82.3379 20.6704 82.3379 23.1136V24.8181H62.1561V21.3409H78.247C78.247 19.8636 77.9515 18.5454 77.3606 17.3863C76.7811 16.2272 75.9515 15.3125 74.872 14.642C73.8038 13.9715 72.5424 13.6363 71.0879 13.6363C69.4856 13.6363 68.0993 14.034 66.9288 14.8295C65.7697 15.6136 64.8777 16.6363 64.2527 17.8977C63.6277 19.159 63.3152 20.5113 63.3152 21.9545V24.2727C63.3152 26.25 63.6561 27.9261 64.3379 29.3011C65.0311 30.6647 65.9913 31.7045 67.2186 32.4204C68.4458 33.125 69.872 33.4772 71.497 33.4772C72.5538 33.4772 73.5083 33.3295 74.3606 33.034C75.2243 32.7272 75.9686 32.2727 76.5936 31.6704C77.2186 31.0568 77.7015 30.2954 78.0424 29.3863L81.9288 30.4772C81.5197 31.7954 80.8322 32.9545 79.8663 33.9545C78.9004 34.9431 77.7072 35.7159 76.2868 36.2727C74.8663 36.8181 73.2697 37.0909 71.497 37.0909Z" fill="#0D0D0D"/>
<path d="M102.503 1.63632H107.548L119.412 30.6136H119.821L131.684 1.63632H136.73V36.5454H132.775V10.0227H132.434L121.525 36.5454H117.707L106.798 10.0227H106.457V36.5454H102.503V1.63632ZM152.365 37.159C150.706 37.159 149.2 36.8465 147.848 36.2215C146.496 35.5852 145.422 34.6704 144.626 33.4772C143.831 32.2727 143.433 30.8181 143.433 29.1136C143.433 27.6136 143.729 26.3977 144.319 25.4659C144.91 24.5227 145.7 23.784 146.689 23.25C147.677 22.7159 148.768 22.3181 149.961 22.0568C151.166 21.784 152.376 21.5681 153.592 21.409C155.183 21.2045 156.473 21.0511 157.461 20.9488C158.461 20.8352 159.189 20.6477 159.643 20.3863C160.109 20.125 160.342 19.6704 160.342 19.0227V18.8863C160.342 17.2045 159.882 15.8977 158.961 14.9659C158.052 14.034 156.672 13.5681 154.819 13.5681C152.899 13.5681 151.393 13.9886 150.302 14.8295C149.211 15.6704 148.444 16.5681 148.001 17.5227L144.183 16.159C144.865 14.5681 145.774 13.3295 146.91 12.4431C148.058 11.5454 149.308 10.9204 150.66 10.5681C152.024 10.2045 153.365 10.0227 154.683 10.0227C155.524 10.0227 156.49 10.125 157.581 10.3295C158.683 10.5227 159.746 10.9261 160.768 11.5397C161.802 12.1534 162.66 13.0795 163.342 14.3181C164.024 15.5568 164.365 17.2159 164.365 19.2954V36.5454H160.342V33H160.138C159.865 33.5681 159.41 34.1761 158.774 34.8238C158.138 35.4715 157.291 36.0227 156.234 36.4772C155.177 36.9318 153.888 37.159 152.365 37.159ZM152.979 33.5454C154.569 33.5454 155.91 33.2329 157.001 32.6079C158.104 31.9829 158.933 31.1761 159.49 30.1875C160.058 29.1988 160.342 28.159 160.342 27.0681V23.3863C160.172 23.5909 159.797 23.7784 159.217 23.9488C158.649 24.1079 157.99 24.25 157.24 24.375C156.501 24.4886 155.78 24.5909 155.075 24.6818C154.382 24.7613 153.819 24.8295 153.388 24.8863C152.342 25.0227 151.365 25.2443 150.456 25.5511C149.558 25.8465 148.831 26.2954 148.274 26.8977C147.729 27.4886 147.456 28.2954 147.456 29.3181C147.456 30.7159 147.973 31.7727 149.007 32.4886C150.052 33.1931 151.376 33.5454 152.979 33.5454ZM175.73 20.7954V36.5454H171.707V10.3636H175.594V14.4545H175.934C176.548 13.125 177.48 12.0568 178.73 11.25C179.98 10.4318 181.594 10.0227 183.571 10.0227C185.344 10.0227 186.895 10.3863 188.224 11.1136C189.554 11.8295 190.588 12.9204 191.327 14.3863C192.065 15.8409 192.434 17.6818 192.434 19.909V36.5454H188.412V20.1818C188.412 18.125 187.878 16.5227 186.809 15.375C185.741 14.2159 184.275 13.6363 182.412 13.6363C181.128 13.6363 179.98 13.9147 178.969 14.4715C177.969 15.0284 177.179 15.8409 176.599 16.909C176.02 17.9772 175.73 19.2727 175.73 20.7954ZM199.785 36.5454V10.3636H203.808V36.5454H199.785ZM201.831 5.99996C201.047 5.99996 200.371 5.73291 199.802 5.19882C199.246 4.66473 198.967 4.02268 198.967 3.27268C198.967 2.52268 199.246 1.88064 199.802 1.34655C200.371 0.812455 201.047 0.54541 201.831 0.54541C202.615 0.54541 203.285 0.812455 203.842 1.34655C204.41 1.88064 204.694 2.52268 204.694 3.27268C204.694 4.02268 204.41 4.66473 203.842 5.19882C203.285 5.73291 202.615 5.99996 201.831 5.99996ZM222.835 10.3636V13.7727H208.721V10.3636H222.835ZM212.949 36.5454V6.74996C212.949 5.24995 213.301 3.99995 214.006 2.99995C214.71 1.99995 215.625 1.24995 216.75 0.749953C217.875 0.249953 219.062 -4.673e-05 220.312 -4.673e-05C221.301 -4.673e-05 222.108 0.0794992 222.733 0.238591C223.358 0.397681 223.824 0.545408 224.131 0.681772L222.971 4.15905C222.767 4.09086 222.483 4.00564 222.119 3.90336C221.767 3.80109 221.301 3.74995 220.721 3.74995C219.392 3.74995 218.432 4.08518 217.841 4.75564C217.261 5.42609 216.971 6.40905 216.971 7.7045V36.5454H212.949ZM238.372 37.0909C235.849 37.0909 233.673 36.534 231.844 35.4204C230.025 34.2954 228.622 32.7272 227.633 30.7159C226.656 28.6931 226.167 26.3409 226.167 23.659C226.167 20.9772 226.656 18.6136 227.633 16.5681C228.622 14.5113 229.997 12.909 231.758 11.7613C233.531 10.6022 235.599 10.0227 237.963 10.0227C239.327 10.0227 240.673 10.25 242.003 10.7045C243.332 11.159 244.542 11.8977 245.633 12.9204C246.724 13.9318 247.594 15.2727 248.241 16.9431C248.889 18.6136 249.213 20.6704 249.213 23.1136V24.8181H229.031V21.3409H245.122C245.122 19.8636 244.827 18.5454 244.236 17.3863C243.656 16.2272 242.827 15.3125 241.747 14.642C240.679 13.9715 239.417 13.6363 237.963 13.6363C236.361 13.6363 234.974 14.034 233.804 14.8295C232.645 15.6136 231.753 16.6363 231.128 17.8977C230.503 19.159 230.19 20.5113 230.19 21.9545V24.2727C230.19 26.25 230.531 27.9261 231.213 29.3011C231.906 30.6647 232.866 31.7045 234.094 32.4204C235.321 33.125 236.747 33.4772 238.372 33.4772C239.429 33.4772 240.383 33.3295 241.236 33.034C242.099 32.7272 242.844 32.2727 243.469 31.6704C244.094 31.0568 244.577 30.2954 244.917 29.3863L248.804 30.4772C248.395 31.7954 247.707 32.9545 246.741 33.9545C245.775 34.9431 244.582 35.7159 243.162 36.2727C241.741 36.8181 240.145 37.0909 238.372 37.0909ZM273.878 16.2272L270.264 17.25C270.037 16.6477 269.702 16.0625 269.258 15.4943C268.827 14.9147 268.236 14.4375 267.486 14.0625C266.736 13.6875 265.775 13.5 264.605 13.5C263.003 13.5 261.667 13.8693 260.599 14.6079C259.542 15.3352 259.014 16.2613 259.014 17.3863C259.014 18.3863 259.378 19.1761 260.105 19.7556C260.832 20.3352 261.969 20.8181 263.514 21.2045L267.4 22.159C269.741 22.7272 271.486 23.5965 272.633 24.767C273.781 25.9261 274.355 27.4204 274.355 29.25C274.355 30.75 273.923 32.0909 273.059 33.2727C272.207 34.4545 271.014 35.3863 269.48 36.0681C267.946 36.75 266.162 37.0909 264.128 37.0909C261.457 37.0909 259.247 36.5113 257.497 35.3522C255.747 34.1931 254.639 32.5 254.173 30.2727L257.991 29.3181C258.355 30.7272 259.042 31.784 260.054 32.4886C261.077 33.1931 262.412 33.5454 264.059 33.5454C265.934 33.5454 267.423 33.1477 268.525 32.3522C269.639 31.5454 270.196 30.5795 270.196 29.4545C270.196 28.5454 269.878 27.784 269.241 27.1704C268.605 26.5454 267.628 26.0795 266.309 25.7727L261.946 24.75C259.548 24.1818 257.787 23.3011 256.662 22.1079C255.548 20.9034 254.991 19.3977 254.991 17.5909C254.991 16.1136 255.406 14.8068 256.236 13.6704C257.077 12.534 258.219 11.642 259.662 10.9943C261.116 10.3465 262.764 10.0227 264.605 10.0227C267.196 10.0227 269.23 10.5909 270.707 11.7272C272.196 12.8636 273.253 14.3636 273.878 16.2272ZM291.797 10.3636V13.7727H278.229V10.3636H291.797ZM282.183 4.09086H286.206V29.0454C286.206 30.1818 286.371 31.034 286.7 31.6022C287.041 32.159 287.473 32.534 287.996 32.7272C288.53 32.909 289.092 33 289.683 33C290.126 33 290.49 32.9772 290.774 32.9318C291.058 32.875 291.285 32.8295 291.456 32.7954L292.274 36.409C292.001 36.5113 291.621 36.6136 291.132 36.7159C290.643 36.8295 290.024 36.8863 289.274 36.8863C288.138 36.8863 287.024 36.642 285.933 36.1534C284.854 35.6647 283.956 34.9204 283.24 33.9204C282.535 32.9204 282.183 31.659 282.183 30.1363V4.09086ZM308.203 37.0909C305.839 37.0909 303.765 36.5284 301.981 35.4034C300.209 34.2784 298.822 32.7045 297.822 30.6818C296.834 28.659 296.339 26.2954 296.339 23.5909C296.339 20.8636 296.834 18.4829 297.822 16.4488C298.822 14.4147 300.209 12.8352 301.981 11.7102C303.765 10.5852 305.839 10.0227 308.203 10.0227C310.567 10.0227 312.635 10.5852 314.407 11.7102C316.192 12.8352 317.578 14.4147 318.567 16.4488C319.567 18.4829 320.067 20.8636 320.067 23.5909C320.067 26.2954 319.567 28.659 318.567 30.6818C317.578 32.7045 316.192 34.2784 314.407 35.4034C312.635 36.5284 310.567 37.0909 308.203 37.0909ZM308.203 33.4772C309.998 33.4772 311.476 33.017 312.635 32.0965C313.794 31.1761 314.652 29.9659 315.209 28.4659C315.765 26.9659 316.044 25.3409 316.044 23.5909C316.044 21.8409 315.765 20.2102 315.209 18.6988C314.652 17.1875 313.794 15.9659 312.635 15.034C311.476 14.1022 309.998 13.6363 308.203 13.6363C306.407 13.6363 304.93 14.1022 303.771 15.034C302.612 15.9659 301.754 17.1875 301.197 18.6988C300.64 20.2102 300.362 21.8409 300.362 23.5909C300.362 25.3409 300.64 26.9659 301.197 28.4659C301.754 29.9659 302.612 31.1761 303.771 32.0965C304.93 33.017 306.407 33.4772 308.203 33.4772Z" fill="url(#paint0_radial_581_1384)"/>
<defs>
<radialGradient id="paint0_radial_581_1384" cx="0" cy="0" r="1" gradientUnits="userSpaceOnUse" gradientTransform="translate(160.182 19.5454) rotate(90) scale(29 162.5)">
<stop stop-color="#5A69EA"/>
<stop offset="1" stop-color="#BF8BCA"/>
</radialGradient>
</defs>
</svg>
