<svg width="335" height="119" viewBox="0 0 335 119" fill="none" xmlns="http://www.w3.org/2000/svg">
<path d="M77.6673 17.52L72.8193 1.90735e-05H74.6913L79.0833 16.344L78.2433 15.864H80.5713L79.6593 16.344L83.2353 0.768019H84.9633L81.0273 17.52H77.6673ZM88.2033 17.52L83.8833 0.768019H85.6593L89.6433 16.344L88.7553 15.864H91.1313L90.2193 16.344L94.1793 1.90735e-05H96.0033L91.5633 17.52H88.2033ZM103.917 17.928C102.829 17.928 101.885 17.744 101.085 17.376C100.285 16.992 99.6292 16.488 99.1172 15.864C98.6052 15.224 98.2212 14.512 97.9652 13.728C97.7252 12.944 97.6052 12.136 97.6052 11.304V10.968C97.6052 10.152 97.7252 9.35202 97.9652 8.56802C98.2212 7.78402 98.6052 7.08002 99.1172 6.45602C99.6292 5.83202 100.269 5.33602 101.037 4.96802C101.821 4.58402 102.733 4.39202 103.773 4.39202C105.101 4.39202 106.205 4.68802 107.085 5.28002C107.981 5.87202 108.653 6.63202 109.101 7.56002C109.549 8.47202 109.773 9.45602 109.773 10.512V11.448H98.4212V10.056H108.525L108.069 10.752C108.069 9.80802 107.901 8.98402 107.565 8.28002C107.245 7.56002 106.765 7.00002 106.125 6.60002C105.501 6.18402 104.717 5.97602 103.773 5.97602C102.781 5.97602 101.957 6.20802 101.301 6.67202C100.645 7.13602 100.149 7.75202 99.8132 8.52002C99.4932 9.28802 99.3332 10.16 99.3332 11.136C99.3332 12.096 99.4932 12.976 99.8132 13.776C100.149 14.56 100.653 15.184 101.325 15.648C102.013 16.112 102.877 16.344 103.917 16.344C105.021 16.344 105.917 16.096 106.605 15.6C107.293 15.088 107.717 14.488 107.877 13.8H109.557C109.397 14.648 109.061 15.384 108.549 16.008C108.037 16.616 107.389 17.088 106.605 17.424C105.821 17.76 104.925 17.928 103.917 17.928ZM126.568 17.52V13.704H126.28V9.19202C126.28 8.24802 126.032 7.52802 125.536 7.03202C125.04 6.52002 124.272 6.26402 123.232 6.26402C122.752 6.26402 122.264 6.27202 121.768 6.28802C121.288 6.30402 120.824 6.32802 120.376 6.36002C119.944 6.37602 119.56 6.40002 119.224 6.43202V4.84802C119.576 4.81602 119.936 4.78402 120.304 4.75202C120.672 4.72002 121.048 4.70402 121.432 4.70402C121.832 4.68802 122.216 4.68002 122.584 4.68002C123.88 4.68002 124.92 4.84002 125.704 5.16002C126.504 5.48002 127.088 5.98402 127.456 6.67202C127.824 7.34402 128.008 8.24002 128.008 9.36002V17.52H126.568ZM122.272 17.856C121.376 17.856 120.584 17.696 119.896 17.376C119.208 17.056 118.672 16.592 118.288 15.984C117.92 15.376 117.736 14.64 117.736 13.776C117.736 12.928 117.928 12.208 118.312 11.616C118.712 11.024 119.28 10.576 120.016 10.272C120.768 9.95202 121.672 9.79202 122.728 9.79202H126.448V11.16H122.608C121.6 11.16 120.824 11.408 120.28 11.904C119.752 12.384 119.488 13.016 119.488 13.8C119.488 14.6 119.768 15.24 120.328 15.72C120.888 16.184 121.648 16.416 122.608 16.416C123.2 16.416 123.768 16.312 124.312 16.104C124.856 15.88 125.312 15.512 125.68 15C126.048 14.472 126.248 13.752 126.28 12.84L126.808 13.584C126.744 14.528 126.52 15.32 126.136 15.96C125.752 16.584 125.232 17.056 124.576 17.376C123.92 17.696 123.152 17.856 122.272 17.856ZM132.504 17.52V4.82402H133.944V10.128H133.8C133.8 8.27202 134.208 6.90402 135.024 6.02402C135.84 5.12802 137.12 4.68002 138.864 4.68002H139.272V6.31202H138.528C137.152 6.31202 136.104 6.67202 135.384 7.39202C134.664 8.09602 134.304 9.13602 134.304 10.512V17.52H132.504ZM147.323 17.928C146.235 17.928 145.291 17.744 144.491 17.376C143.691 16.992 143.035 16.488 142.523 15.864C142.011 15.224 141.627 14.512 141.371 13.728C141.131 12.944 141.011 12.136 141.011 11.304V10.968C141.011 10.152 141.131 9.35202 141.371 8.56802C141.627 7.78402 142.011 7.08002 142.523 6.45602C143.035 5.83202 143.675 5.33602 144.443 4.96802C145.227 4.58402 146.139 4.39202 147.179 4.39202C148.507 4.39202 149.611 4.68802 150.491 5.28002C151.387 5.87202 152.059 6.63202 152.507 7.56002C152.955 8.47202 153.179 9.45602 153.179 10.512V11.448H141.827V10.056H151.931L151.475 10.752C151.475 9.80802 151.307 8.98402 150.971 8.28002C150.651 7.56002 150.171 7.00002 149.531 6.60002C148.907 6.18402 148.123 5.97602 147.179 5.97602C146.187 5.97602 145.363 6.20802 144.707 6.67202C144.051 7.13602 143.555 7.75202 143.219 8.52002C142.899 9.28802 142.739 10.16 142.739 11.136C142.739 12.096 142.899 12.976 143.219 13.776C143.555 14.56 144.059 15.184 144.731 15.648C145.419 16.112 146.283 16.344 147.323 16.344C148.427 16.344 149.323 16.096 150.011 15.6C150.699 15.088 151.123 14.488 151.283 13.8H152.963C152.803 14.648 152.467 15.384 151.955 16.008C151.443 16.616 150.795 17.088 150.011 17.424C149.227 17.76 148.331 17.928 147.323 17.928ZM162.246 17.52V4.82402H163.686V10.152H163.398C163.398 8.96802 163.574 7.95202 163.926 7.10402C164.278 6.25602 164.806 5.60002 165.51 5.13602C166.214 4.67202 167.102 4.44002 168.174 4.44002H168.246C169.846 4.44002 171.038 4.94402 171.822 5.95202C172.606 6.94402 172.998 8.34402 172.998 10.152V17.52H171.222V9.76802C171.222 8.66402 170.918 7.77602 170.31 7.10402C169.702 6.43202 168.854 6.09602 167.766 6.09602C166.646 6.09602 165.742 6.44802 165.054 7.15202C164.382 7.84002 164.046 8.75202 164.046 9.88802V17.52H162.246ZM183.168 17.928C182.08 17.928 181.12 17.744 180.288 17.376C179.472 16.992 178.776 16.488 178.2 15.864C177.64 15.224 177.208 14.512 176.904 13.728C176.616 12.944 176.472 12.144 176.472 11.328V10.992C176.472 10.176 176.624 9.37602 176.928 8.59202C177.232 7.79202 177.672 7.08002 178.248 6.45602C178.824 5.83202 179.52 5.33602 180.336 4.96802C181.168 4.58402 182.112 4.39202 183.168 4.39202C184.24 4.39202 185.184 4.58402 186 4.96802C186.832 5.33602 187.536 5.83202 188.112 6.45602C188.688 7.08002 189.12 7.79202 189.408 8.59202C189.712 9.37602 189.864 10.176 189.864 10.992V11.328C189.864 12.144 189.72 12.944 189.432 13.728C189.144 14.512 188.712 15.224 188.136 15.864C187.576 16.488 186.88 16.992 186.048 17.376C185.216 17.744 184.256 17.928 183.168 17.928ZM183.168 16.32C184.224 16.32 185.112 16.088 185.832 15.624C186.568 15.144 187.128 14.52 187.512 13.752C187.896 12.968 188.088 12.104 188.088 11.16C188.088 10.2 187.888 9.33602 187.488 8.56802C187.104 7.78402 186.544 7.16802 185.808 6.72002C185.072 6.25602 184.192 6.02402 183.168 6.02402C182.16 6.02402 181.288 6.25602 180.552 6.72002C179.816 7.16802 179.248 7.78402 178.848 8.56802C178.464 9.33602 178.272 10.2 178.272 11.16C178.272 12.104 178.464 12.968 178.848 13.752C179.232 14.52 179.784 15.144 180.504 15.624C181.24 16.088 182.128 16.32 183.168 16.32ZM198.143 17.664C197.263 17.664 196.503 17.536 195.863 17.28C195.223 17.024 194.727 16.592 194.375 15.984C194.023 15.36 193.847 14.528 193.847 13.488V0.816019H195.575V13.752C195.575 14.488 195.775 15.056 196.175 15.456C196.575 15.84 197.143 16.032 197.879 16.032H200.159V17.664H198.143ZM191.567 6.19202V4.82402H200.159V6.19202H191.567ZM216.966 17.52V13.704H216.678V9.19202C216.678 8.24802 216.43 7.52802 215.934 7.03202C215.438 6.52002 214.67 6.26402 213.63 6.26402C213.15 6.26402 212.662 6.27202 212.166 6.28802C211.686 6.30402 211.222 6.32802 210.774 6.36002C210.342 6.37602 209.958 6.40002 209.622 6.43202V4.84802C209.974 4.81602 210.334 4.78402 210.702 4.75202C211.07 4.72002 211.446 4.70402 211.83 4.70402C212.23 4.68802 212.614 4.68002 212.982 4.68002C214.278 4.68002 215.318 4.84002 216.102 5.16002C216.902 5.48002 217.486 5.98402 217.854 6.67202C218.222 7.34402 218.406 8.24002 218.406 9.36002V17.52H216.966ZM212.67 17.856C211.774 17.856 210.982 17.696 210.294 17.376C209.606 17.056 209.07 16.592 208.686 15.984C208.318 15.376 208.134 14.64 208.134 13.776C208.134 12.928 208.326 12.208 208.71 11.616C209.11 11.024 209.678 10.576 210.414 10.272C211.166 9.95202 212.07 9.79202 213.126 9.79202H216.846V11.16H213.006C211.998 11.16 211.222 11.408 210.678 11.904C210.15 12.384 209.886 13.016 209.886 13.8C209.886 14.6 210.166 15.24 210.726 15.72C211.286 16.184 212.046 16.416 213.006 16.416C213.598 16.416 214.166 16.312 214.71 16.104C215.254 15.88 215.71 15.512 216.078 15C216.446 14.472 216.646 13.752 216.678 12.84L217.206 13.584C217.142 14.528 216.918 15.32 216.534 15.96C216.15 16.584 215.63 17.056 214.974 17.376C214.318 17.696 213.55 17.856 212.67 17.856ZM222.902 17.52V4.82402H224.342V10.152H224.054C224.054 8.96802 224.23 7.95202 224.582 7.10402C224.934 6.25602 225.462 5.60002 226.166 5.13602C226.87 4.67202 227.758 4.44002 228.83 4.44002H228.902C230.502 4.44002 231.694 4.94402 232.478 5.95202C233.262 6.94402 233.654 8.34402 233.654 10.152V17.52H231.878V9.76802C231.878 8.66402 231.574 7.77602 230.966 7.10402C230.358 6.43202 229.51 6.09602 228.422 6.09602C227.302 6.09602 226.398 6.44802 225.71 7.15202C225.038 7.84002 224.702 8.75202 224.702 9.88802V17.52H222.902ZM251.466 17.52V13.704H251.178V9.19202C251.178 8.24802 250.93 7.52802 250.434 7.03202C249.938 6.52002 249.17 6.26402 248.13 6.26402C247.65 6.26402 247.162 6.27202 246.666 6.28802C246.186 6.30402 245.722 6.32802 245.274 6.36002C244.842 6.37602 244.458 6.40002 244.122 6.43202V4.84802C244.474 4.81602 244.834 4.78402 245.202 4.75202C245.57 4.72002 245.946 4.70402 246.33 4.70402C246.73 4.68802 247.114 4.68002 247.482 4.68002C248.778 4.68002 249.818 4.84002 250.602 5.16002C251.402 5.48002 251.986 5.98402 252.354 6.67202C252.722 7.34402 252.906 8.24002 252.906 9.36002V17.52H251.466ZM247.17 17.856C246.274 17.856 245.482 17.696 244.794 17.376C244.106 17.056 243.57 16.592 243.186 15.984C242.818 15.376 242.634 14.64 242.634 13.776C242.634 12.928 242.826 12.208 243.21 11.616C243.61 11.024 244.178 10.576 244.914 10.272C245.666 9.95202 246.57 9.79202 247.626 9.79202H251.346V11.16H247.506C246.498 11.16 245.722 11.408 245.178 11.904C244.65 12.384 244.386 13.016 244.386 13.8C244.386 14.6 244.666 15.24 245.226 15.72C245.786 16.184 246.546 16.416 247.506 16.416C248.098 16.416 248.666 16.312 249.21 16.104C249.754 15.88 250.21 15.512 250.578 15C250.946 14.472 251.146 13.752 251.178 12.84L251.706 13.584C251.642 14.528 251.418 15.32 251.034 15.96C250.65 16.584 250.13 17.056 249.474 17.376C248.818 17.696 248.05 17.856 247.17 17.856ZM262.25 22.488C261.658 22.488 261.058 22.456 260.45 22.392C259.858 22.344 259.29 22.28 258.746 22.2V20.664C259.322 20.744 259.922 20.808 260.546 20.856C261.186 20.92 261.786 20.952 262.346 20.952C263.562 20.952 264.53 20.792 265.25 20.472C265.97 20.152 266.482 19.64 266.786 18.936C267.106 18.248 267.266 17.336 267.266 16.2V13.656L267.938 11.88C267.906 13.096 267.65 14.144 267.17 15.024C266.69 15.888 266.042 16.552 265.226 17.016C264.41 17.48 263.482 17.712 262.442 17.712C261.53 17.712 260.698 17.536 259.946 17.184C259.21 16.832 258.578 16.352 258.05 15.744C257.522 15.12 257.114 14.416 256.826 13.632C256.538 12.848 256.394 12.024 256.394 11.16V10.824C256.394 9.97602 256.538 9.16802 256.826 8.40002C257.114 7.61602 257.522 6.92802 258.05 6.33602C258.578 5.72802 259.218 5.25602 259.97 4.92002C260.738 4.56802 261.586 4.39202 262.514 4.39202C263.634 4.39202 264.61 4.64002 265.442 5.13602C266.274 5.63202 266.922 6.32002 267.386 7.20002C267.866 8.08002 268.122 9.11202 268.154 10.296L267.578 9.98402V4.82402H268.994V16.128C268.994 17.648 268.77 18.872 268.322 19.8C267.874 20.728 267.154 21.408 266.162 21.84C265.186 22.272 263.882 22.488 262.25 22.488ZM262.754 16.056C263.618 16.056 264.386 15.872 265.058 15.504C265.746 15.12 266.29 14.584 266.69 13.896C267.09 13.208 267.29 12.408 267.29 11.496V10.32C267.29 9.44002 267.082 8.67202 266.666 8.01602C266.266 7.36002 265.73 6.84802 265.058 6.48002C264.386 6.11202 263.618 5.92802 262.754 5.92802C261.826 5.92802 261.018 6.15202 260.33 6.60002C259.642 7.04802 259.114 7.65602 258.746 8.42402C258.378 9.17602 258.194 10.032 258.194 10.992C258.194 11.968 258.378 12.84 258.746 13.608C259.13 14.376 259.666 14.976 260.354 15.408C261.042 15.84 261.842 16.056 262.754 16.056ZM278.808 17.928C277.72 17.928 276.776 17.744 275.976 17.376C275.176 16.992 274.52 16.488 274.008 15.864C273.496 15.224 273.112 14.512 272.856 13.728C272.616 12.944 272.496 12.136 272.496 11.304V10.968C272.496 10.152 272.616 9.35202 272.856 8.56802C273.112 7.78402 273.496 7.08002 274.008 6.45602C274.52 5.83202 275.16 5.33602 275.928 4.96802C276.712 4.58402 277.624 4.39202 278.664 4.39202C279.992 4.39202 281.096 4.68802 281.976 5.28002C282.872 5.87202 283.544 6.63202 283.992 7.56002C284.44 8.47202 284.664 9.45602 284.664 10.512V11.448H273.312V10.056H283.416L282.96 10.752C282.96 9.80802 282.792 8.98402 282.456 8.28002C282.136 7.56002 281.656 7.00002 281.016 6.60002C280.392 6.18402 279.608 5.97602 278.664 5.97602C277.672 5.97602 276.848 6.20802 276.192 6.67202C275.536 7.13602 275.04 7.75202 274.704 8.52002C274.384 9.28802 274.224 10.16 274.224 11.136C274.224 12.096 274.384 12.976 274.704 13.776C275.04 14.56 275.544 15.184 276.216 15.648C276.904 16.112 277.768 16.344 278.808 16.344C279.912 16.344 280.808 16.096 281.496 15.6C282.184 15.088 282.608 14.488 282.768 13.8H284.448C284.288 14.648 283.952 15.384 283.44 16.008C282.928 16.616 282.28 17.088 281.496 17.424C280.712 17.76 279.816 17.928 278.808 17.928ZM288.129 17.52V4.82402H289.569V10.152H289.281C289.281 8.96802 289.457 7.95202 289.809 7.10402C290.161 6.25602 290.689 5.60002 291.393 5.13602C292.097 4.67202 292.985 4.44002 294.057 4.44002H294.129C295.729 4.44002 296.921 4.94402 297.705 5.95202C298.489 6.94402 298.881 8.34402 298.881 10.152V17.52H297.105V9.76802C297.105 8.66402 296.801 7.77602 296.193 7.10402C295.585 6.43202 294.737 6.09602 293.649 6.09602C292.529 6.09602 291.625 6.44802 290.937 7.15202C290.265 7.84002 289.929 8.75202 289.929 9.88802V17.52H288.129ZM308.715 17.928C307.643 17.928 306.707 17.744 305.907 17.376C305.123 16.992 304.467 16.48 303.939 15.84C303.411 15.184 303.011 14.464 302.739 13.68C302.483 12.896 302.355 12.104 302.355 11.304V10.968C302.355 10.152 302.483 9.36002 302.739 8.59202C303.011 7.80802 303.411 7.10402 303.939 6.48002C304.467 5.84002 305.123 5.33602 305.907 4.96802C306.707 4.58402 307.627 4.39202 308.667 4.39202C309.723 4.39202 310.659 4.58402 311.475 4.96802C312.307 5.35202 312.979 5.89602 313.491 6.60002C314.003 7.30402 314.307 8.13602 314.403 9.09602H312.675C312.531 8.21602 312.115 7.48802 311.427 6.91202C310.755 6.32002 309.835 6.02402 308.667 6.02402C307.659 6.02402 306.819 6.25602 306.147 6.72002C305.491 7.16802 304.995 7.78402 304.659 8.56802C304.323 9.33602 304.155 10.192 304.155 11.136C304.155 12.064 304.323 12.928 304.659 13.728C304.995 14.512 305.499 15.144 306.171 15.624C306.843 16.088 307.691 16.32 308.715 16.32C309.499 16.32 310.179 16.184 310.755 15.912C311.347 15.624 311.819 15.24 312.171 14.76C312.539 14.28 312.755 13.752 312.819 13.176H314.547C314.483 14.136 314.179 14.976 313.635 15.696C313.107 16.4 312.419 16.952 311.571 17.352C310.723 17.736 309.771 17.928 308.715 17.928ZM316.72 22.464V20.856H318.352C318.912 20.856 319.392 20.784 319.792 20.64C320.192 20.512 320.528 20.28 320.8 19.944C321.072 19.608 321.304 19.144 321.496 18.552L325.768 4.82402H327.52L323.056 19.056C322.8 19.872 322.448 20.528 322 21.024C321.552 21.536 321.016 21.904 320.392 22.128C319.768 22.352 319.056 22.464 318.256 22.464H316.72ZM320.848 17.208V15.696H323.128V17.208H320.848ZM320.632 17.208L316.024 4.82402H317.872L322.312 17.208H320.632ZM329.37 17.52V15.144H331.626V17.52H329.37ZM4.84703 65.52L-0.000968754 48H1.87103L6.26303 64.344L5.42303 63.864H7.75103L6.83903 64.344L10.415 48.768H12.143L8.20703 65.52H4.84703ZM15.383 65.52L11.063 48.768H12.839L16.823 64.344L15.935 63.864H18.311L17.399 64.344L21.359 48H23.183L18.743 65.52H15.383ZM31.0968 65.928C30.0088 65.928 29.0648 65.744 28.2648 65.376C27.4648 64.992 26.8088 64.488 26.2968 63.864C25.7848 63.224 25.4008 62.512 25.1448 61.728C24.9048 60.944 24.7848 60.136 24.7848 59.304V58.968C24.7848 58.152 24.9048 57.352 25.1448 56.568C25.4008 55.784 25.7848 55.08 26.2968 54.456C26.8088 53.832 27.4488 53.336 28.2168 52.968C29.0008 52.584 29.9128 52.392 30.9528 52.392C32.2808 52.392 33.3848 52.688 34.2648 53.28C35.1608 53.872 35.8328 54.632 36.2808 55.56C36.7288 56.472 36.9528 57.456 36.9528 58.512V59.448H25.6008V58.056H35.7048L35.2488 58.752C35.2488 57.808 35.0808 56.984 34.7448 56.28C34.4248 55.56 33.9448 55 33.3048 54.6C32.6808 54.184 31.8968 53.976 30.9528 53.976C29.9608 53.976 29.1368 54.208 28.4808 54.672C27.8248 55.136 27.3288 55.752 26.9928 56.52C26.6728 57.288 26.5128 58.16 26.5128 59.136C26.5128 60.096 26.6728 60.976 26.9928 61.776C27.3288 62.56 27.8328 63.184 28.5048 63.648C29.1928 64.112 30.0568 64.344 31.0968 64.344C32.2008 64.344 33.0968 64.096 33.7848 63.6C34.4728 63.088 34.8968 62.488 35.0568 61.8H36.7368C36.5768 62.648 36.2408 63.384 35.7288 64.008C35.2168 64.616 34.5688 65.088 33.7848 65.424C33.0008 65.76 32.1048 65.928 31.0968 65.928ZM53.7474 65.52V61.704H53.4594V57.192C53.4594 56.248 53.2114 55.528 52.7154 55.032C52.2194 54.52 51.4514 54.264 50.4114 54.264C49.9314 54.264 49.4434 54.272 48.9474 54.288C48.4674 54.304 48.0034 54.328 47.5554 54.36C47.1234 54.376 46.7394 54.4 46.4034 54.432V52.848C46.7554 52.816 47.1154 52.784 47.4834 52.752C47.8514 52.72 48.2274 52.704 48.6114 52.704C49.0114 52.688 49.3954 52.68 49.7634 52.68C51.0594 52.68 52.0994 52.84 52.8834 53.16C53.6834 53.48 54.2674 53.984 54.6354 54.672C55.0034 55.344 55.1874 56.24 55.1874 57.36V65.52H53.7474ZM49.4514 65.856C48.5554 65.856 47.7634 65.696 47.0754 65.376C46.3874 65.056 45.8514 64.592 45.4674 63.984C45.0994 63.376 44.9154 62.64 44.9154 61.776C44.9154 60.928 45.1074 60.208 45.4914 59.616C45.8914 59.024 46.4594 58.576 47.1954 58.272C47.9474 57.952 48.8514 57.792 49.9074 57.792H53.6274V59.16H49.7874C48.7794 59.16 48.0034 59.408 47.4594 59.904C46.9314 60.384 46.6674 61.016 46.6674 61.8C46.6674 62.6 46.9474 63.24 47.5074 63.72C48.0674 64.184 48.8274 64.416 49.7874 64.416C50.3794 64.416 50.9474 64.312 51.4914 64.104C52.0354 63.88 52.4914 63.512 52.8594 63C53.2274 62.472 53.4274 61.752 53.4594 60.84L53.9874 61.584C53.9234 62.528 53.6994 63.32 53.3154 63.96C52.9314 64.584 52.4114 65.056 51.7554 65.376C51.0994 65.696 50.3314 65.856 49.4514 65.856ZM59.6835 65.52V52.824H61.1235V58.128H60.9795C60.9795 56.272 61.3875 54.904 62.2035 54.024C63.0195 53.128 64.2995 52.68 66.0435 52.68H66.4515V54.312H65.7075C64.3315 54.312 63.2835 54.672 62.5635 55.392C61.8435 56.096 61.4835 57.136 61.4835 58.512V65.52H59.6835ZM74.5031 65.928C73.4151 65.928 72.4711 65.744 71.6711 65.376C70.8711 64.992 70.2151 64.488 69.7031 63.864C69.1911 63.224 68.8071 62.512 68.5511 61.728C68.3111 60.944 68.1911 60.136 68.1911 59.304V58.968C68.1911 58.152 68.3111 57.352 68.5511 56.568C68.8071 55.784 69.1911 55.08 69.7031 54.456C70.2151 53.832 70.8551 53.336 71.6231 52.968C72.4071 52.584 73.3191 52.392 74.3591 52.392C75.6871 52.392 76.7911 52.688 77.6711 53.28C78.5671 53.872 79.2391 54.632 79.6871 55.56C80.1351 56.472 80.3591 57.456 80.3591 58.512V59.448H69.0071V58.056H79.1111L78.6551 58.752C78.6551 57.808 78.4871 56.984 78.1511 56.28C77.8311 55.56 77.3511 55 76.7111 54.6C76.0871 54.184 75.3031 53.976 74.3591 53.976C73.3671 53.976 72.5431 54.208 71.8871 54.672C71.2311 55.136 70.7351 55.752 70.3991 56.52C70.0791 57.288 69.9191 58.16 69.9191 59.136C69.9191 60.096 70.0791 60.976 70.3991 61.776C70.7351 62.56 71.2391 63.184 71.9111 63.648C72.5991 64.112 73.4631 64.344 74.5031 64.344C75.6071 64.344 76.5031 64.096 77.1911 63.6C77.8791 63.088 78.3031 62.488 78.4631 61.8H80.1431C79.9831 62.648 79.6471 63.384 79.1351 64.008C78.6231 64.616 77.9751 65.088 77.1911 65.424C76.4071 65.76 75.5111 65.928 74.5031 65.928ZM89.4257 65.52V52.824H90.8657V58.152H90.5777C90.5777 56.968 90.7537 55.952 91.1057 55.104C91.4577 54.256 91.9857 53.6 92.6897 53.136C93.3937 52.672 94.2817 52.44 95.3537 52.44H95.4257C97.0257 52.44 98.2177 52.944 99.0017 53.952C99.7857 54.944 100.178 56.344 100.178 58.152V65.52H98.4017V57.768C98.4017 56.664 98.0977 55.776 97.4897 55.104C96.8817 54.432 96.0337 54.096 94.9457 54.096C93.8257 54.096 92.9217 54.448 92.2337 55.152C91.5617 55.84 91.2257 56.752 91.2257 57.888V65.52H89.4257ZM110.348 65.928C109.26 65.928 108.3 65.744 107.468 65.376C106.652 64.992 105.956 64.488 105.38 63.864C104.82 63.224 104.388 62.512 104.084 61.728C103.796 60.944 103.652 60.144 103.652 59.328V58.992C103.652 58.176 103.804 57.376 104.108 56.592C104.412 55.792 104.852 55.08 105.428 54.456C106.004 53.832 106.7 53.336 107.516 52.968C108.348 52.584 109.292 52.392 110.348 52.392C111.42 52.392 112.364 52.584 113.18 52.968C114.012 53.336 114.716 53.832 115.292 54.456C115.868 55.08 116.3 55.792 116.588 56.592C116.892 57.376 117.044 58.176 117.044 58.992V59.328C117.044 60.144 116.9 60.944 116.612 61.728C116.324 62.512 115.892 63.224 115.316 63.864C114.756 64.488 114.06 64.992 113.228 65.376C112.396 65.744 111.436 65.928 110.348 65.928ZM110.348 64.32C111.404 64.32 112.292 64.088 113.012 63.624C113.748 63.144 114.308 62.52 114.692 61.752C115.076 60.968 115.268 60.104 115.268 59.16C115.268 58.2 115.068 57.336 114.668 56.568C114.284 55.784 113.724 55.168 112.988 54.72C112.252 54.256 111.372 54.024 110.348 54.024C109.34 54.024 108.468 54.256 107.732 54.72C106.996 55.168 106.428 55.784 106.028 56.568C105.644 57.336 105.452 58.2 105.452 59.16C105.452 60.104 105.644 60.968 106.028 61.752C106.412 62.52 106.964 63.144 107.684 63.624C108.42 64.088 109.308 64.32 110.348 64.32ZM125.323 65.664C124.443 65.664 123.683 65.536 123.043 65.28C122.403 65.024 121.907 64.592 121.555 63.984C121.203 63.36 121.027 62.528 121.027 61.488V48.816H122.755V61.752C122.755 62.488 122.955 63.056 123.355 63.456C123.755 63.84 124.323 64.032 125.059 64.032H127.339V65.664H125.323ZM118.747 54.192V52.824H127.339V54.192H118.747ZM144.146 65.52V61.704H143.858V57.192C143.858 56.248 143.61 55.528 143.114 55.032C142.618 54.52 141.85 54.264 140.81 54.264C140.33 54.264 139.842 54.272 139.346 54.288C138.866 54.304 138.402 54.328 137.954 54.36C137.522 54.376 137.138 54.4 136.802 54.432V52.848C137.154 52.816 137.514 52.784 137.882 52.752C138.25 52.72 138.626 52.704 139.01 52.704C139.41 52.688 139.794 52.68 140.162 52.68C141.458 52.68 142.498 52.84 143.282 53.16C144.082 53.48 144.666 53.984 145.034 54.672C145.402 55.344 145.586 56.24 145.586 57.36V65.52H144.146ZM139.85 65.856C138.954 65.856 138.162 65.696 137.474 65.376C136.786 65.056 136.25 64.592 135.866 63.984C135.498 63.376 135.314 62.64 135.314 61.776C135.314 60.928 135.506 60.208 135.89 59.616C136.29 59.024 136.858 58.576 137.594 58.272C138.346 57.952 139.25 57.792 140.306 57.792H144.026V59.16H140.186C139.178 59.16 138.402 59.408 137.858 59.904C137.33 60.384 137.066 61.016 137.066 61.8C137.066 62.6 137.346 63.24 137.906 63.72C138.466 64.184 139.226 64.416 140.186 64.416C140.778 64.416 141.346 64.312 141.89 64.104C142.434 63.88 142.89 63.512 143.258 63C143.626 62.472 143.826 61.752 143.858 60.84L144.386 61.584C144.322 62.528 144.098 63.32 143.714 63.96C143.33 64.584 142.81 65.056 142.154 65.376C141.498 65.696 140.73 65.856 139.85 65.856ZM161.707 65.928C160.235 65.928 158.995 65.696 157.987 65.232C156.979 64.752 156.211 64.096 155.683 63.264C155.171 62.416 154.915 61.464 154.915 60.408H156.739C156.739 61.08 156.899 61.712 157.219 62.304C157.555 62.88 158.083 63.352 158.803 63.72C159.539 64.072 160.507 64.248 161.707 64.248C162.811 64.248 163.723 64.088 164.443 63.768C165.179 63.448 165.723 63.016 166.075 62.472C166.443 61.928 166.627 61.32 166.627 60.648C166.627 59.8 166.291 59.096 165.619 58.536C164.963 57.96 163.971 57.616 162.643 57.504L160.627 57.312C159.123 57.184 157.923 56.72 157.027 55.92C156.147 55.104 155.707 54.032 155.707 52.704C155.707 51.696 155.947 50.808 156.427 50.04C156.907 49.272 157.587 48.664 158.467 48.216C159.363 47.768 160.435 47.544 161.683 47.544C162.947 47.544 164.027 47.776 164.923 48.24C165.835 48.688 166.531 49.312 167.011 50.112C167.491 50.912 167.731 51.84 167.731 52.896H165.907C165.907 52.256 165.763 51.656 165.475 51.096C165.187 50.536 164.731 50.088 164.107 49.752C163.483 49.4 162.675 49.224 161.683 49.224C160.739 49.224 159.955 49.384 159.331 49.704C158.723 50.024 158.267 50.448 157.963 50.976C157.675 51.504 157.531 52.08 157.531 52.704C157.531 53.488 157.811 54.152 158.371 54.696C158.931 55.24 159.739 55.552 160.795 55.632L162.811 55.824C163.995 55.92 165.003 56.184 165.835 56.616C166.683 57.032 167.331 57.584 167.779 58.272C168.227 58.944 168.451 59.736 168.451 60.648C168.451 61.672 168.171 62.584 167.611 63.384C167.067 64.184 166.291 64.808 165.283 65.256C164.275 65.704 163.083 65.928 161.707 65.928ZM180.146 65.52V61.704H179.858V57.192C179.858 56.248 179.61 55.528 179.114 55.032C178.618 54.52 177.85 54.264 176.81 54.264C176.33 54.264 175.842 54.272 175.346 54.288C174.866 54.304 174.402 54.328 173.954 54.36C173.522 54.376 173.138 54.4 172.802 54.432V52.848C173.154 52.816 173.514 52.784 173.882 52.752C174.25 52.72 174.626 52.704 175.01 52.704C175.41 52.688 175.794 52.68 176.162 52.68C177.458 52.68 178.498 52.84 179.282 53.16C180.082 53.48 180.666 53.984 181.034 54.672C181.402 55.344 181.586 56.24 181.586 57.36V65.52H180.146ZM175.85 65.856C174.954 65.856 174.162 65.696 173.474 65.376C172.786 65.056 172.25 64.592 171.866 63.984C171.498 63.376 171.314 62.64 171.314 61.776C171.314 60.928 171.506 60.208 171.89 59.616C172.29 59.024 172.858 58.576 173.594 58.272C174.346 57.952 175.25 57.792 176.306 57.792H180.026V59.16H176.186C175.178 59.16 174.402 59.408 173.858 59.904C173.33 60.384 173.066 61.016 173.066 61.8C173.066 62.6 173.346 63.24 173.906 63.72C174.466 64.184 175.226 64.416 176.186 64.416C176.778 64.416 177.346 64.312 177.89 64.104C178.434 63.88 178.89 63.512 179.258 63C179.626 62.472 179.826 61.752 179.858 60.84L180.386 61.584C180.322 62.528 180.098 63.32 179.714 63.96C179.33 64.584 178.81 65.056 178.154 65.376C177.498 65.696 176.73 65.856 175.85 65.856ZM193.81 65.52V61.704H193.522V57.192C193.522 56.248 193.274 55.528 192.778 55.032C192.282 54.52 191.514 54.264 190.474 54.264C189.994 54.264 189.506 54.272 189.01 54.288C188.53 54.304 188.066 54.328 187.618 54.36C187.186 54.376 186.802 54.4 186.466 54.432V52.848C186.818 52.816 187.178 52.784 187.546 52.752C187.914 52.72 188.29 52.704 188.674 52.704C189.074 52.688 189.458 52.68 189.826 52.68C191.122 52.68 192.162 52.84 192.946 53.16C193.746 53.48 194.33 53.984 194.698 54.672C195.066 55.344 195.25 56.24 195.25 57.36V65.52H193.81ZM189.514 65.856C188.618 65.856 187.826 65.696 187.138 65.376C186.45 65.056 185.914 64.592 185.53 63.984C185.162 63.376 184.978 62.64 184.978 61.776C184.978 60.928 185.17 60.208 185.554 59.616C185.954 59.024 186.522 58.576 187.258 58.272C188.01 57.952 188.914 57.792 189.97 57.792H193.69V59.16H189.85C188.842 59.16 188.066 59.408 187.522 59.904C186.994 60.384 186.73 61.016 186.73 61.8C186.73 62.6 187.01 63.24 187.57 63.72C188.13 64.184 188.89 64.416 189.85 64.416C190.442 64.416 191.01 64.312 191.554 64.104C192.098 63.88 192.554 63.512 192.922 63C193.29 62.472 193.49 61.752 193.522 60.84L194.05 61.584C193.986 62.528 193.762 63.32 193.378 63.96C192.994 64.584 192.474 65.056 191.818 65.376C191.162 65.696 190.394 65.856 189.514 65.856ZM205.77 65.928C204.298 65.928 203.058 65.696 202.05 65.232C201.042 64.752 200.274 64.096 199.746 63.264C199.234 62.416 198.978 61.464 198.978 60.408H200.802C200.802 61.08 200.962 61.712 201.282 62.304C201.618 62.88 202.146 63.352 202.866 63.72C203.602 64.072 204.57 64.248 205.77 64.248C206.874 64.248 207.786 64.088 208.506 63.768C209.242 63.448 209.786 63.016 210.138 62.472C210.506 61.928 210.69 61.32 210.69 60.648C210.69 59.8 210.354 59.096 209.682 58.536C209.026 57.96 208.034 57.616 206.706 57.504L204.69 57.312C203.186 57.184 201.986 56.72 201.09 55.92C200.21 55.104 199.77 54.032 199.77 52.704C199.77 51.696 200.01 50.808 200.49 50.04C200.97 49.272 201.65 48.664 202.53 48.216C203.426 47.768 204.498 47.544 205.746 47.544C207.01 47.544 208.09 47.776 208.986 48.24C209.898 48.688 210.594 49.312 211.074 50.112C211.554 50.912 211.794 51.84 211.794 52.896H209.97C209.97 52.256 209.826 51.656 209.538 51.096C209.25 50.536 208.794 50.088 208.17 49.752C207.546 49.4 206.738 49.224 205.746 49.224C204.802 49.224 204.018 49.384 203.394 49.704C202.786 50.024 202.33 50.448 202.026 50.976C201.738 51.504 201.594 52.08 201.594 52.704C201.594 53.488 201.874 54.152 202.434 54.696C202.994 55.24 203.802 55.552 204.858 55.632L206.874 55.824C208.058 55.92 209.066 56.184 209.898 56.616C210.746 57.032 211.394 57.584 211.842 58.272C212.29 58.944 212.514 59.736 212.514 60.648C212.514 61.672 212.234 62.584 211.674 63.384C211.13 64.184 210.354 64.808 209.346 65.256C208.338 65.704 207.146 65.928 205.77 65.928ZM227.434 65.928C226.362 65.928 225.426 65.744 224.626 65.376C223.842 64.992 223.186 64.48 222.658 63.84C222.13 63.184 221.73 62.464 221.458 61.68C221.202 60.896 221.074 60.104 221.074 59.304V58.968C221.074 58.152 221.202 57.36 221.458 56.592C221.73 55.808 222.13 55.104 222.658 54.48C223.186 53.84 223.842 53.336 224.626 52.968C225.426 52.584 226.346 52.392 227.386 52.392C228.442 52.392 229.378 52.584 230.194 52.968C231.026 53.352 231.698 53.896 232.21 54.6C232.722 55.304 233.026 56.136 233.122 57.096H231.394C231.25 56.216 230.834 55.488 230.146 54.912C229.474 54.32 228.554 54.024 227.386 54.024C226.378 54.024 225.538 54.256 224.866 54.72C224.21 55.168 223.714 55.784 223.378 56.568C223.042 57.336 222.874 58.192 222.874 59.136C222.874 60.064 223.042 60.928 223.378 61.728C223.714 62.512 224.218 63.144 224.89 63.624C225.562 64.088 226.41 64.32 227.434 64.32C228.218 64.32 228.898 64.184 229.474 63.912C230.066 63.624 230.538 63.24 230.89 62.76C231.258 62.28 231.474 61.752 231.538 61.176H233.266C233.202 62.136 232.898 62.976 232.354 63.696C231.826 64.4 231.138 64.952 230.29 65.352C229.442 65.736 228.49 65.928 227.434 65.928ZM242.254 65.928C241.166 65.928 240.206 65.744 239.374 65.376C238.558 64.992 237.862 64.488 237.286 63.864C236.726 63.224 236.294 62.512 235.99 61.728C235.702 60.944 235.558 60.144 235.558 59.328V58.992C235.558 58.176 235.71 57.376 236.014 56.592C236.318 55.792 236.758 55.08 237.334 54.456C237.91 53.832 238.606 53.336 239.422 52.968C240.254 52.584 241.198 52.392 242.254 52.392C243.326 52.392 244.27 52.584 245.086 52.968C245.918 53.336 246.622 53.832 247.198 54.456C247.774 55.08 248.206 55.792 248.494 56.592C248.798 57.376 248.95 58.176 248.95 58.992V59.328C248.95 60.144 248.806 60.944 248.518 61.728C248.23 62.512 247.798 63.224 247.222 63.864C246.662 64.488 245.966 64.992 245.134 65.376C244.302 65.744 243.342 65.928 242.254 65.928ZM242.254 64.32C243.31 64.32 244.198 64.088 244.918 63.624C245.654 63.144 246.214 62.52 246.598 61.752C246.982 60.968 247.174 60.104 247.174 59.16C247.174 58.2 246.974 57.336 246.574 56.568C246.19 55.784 245.63 55.168 244.894 54.72C244.158 54.256 243.278 54.024 242.254 54.024C241.246 54.024 240.374 54.256 239.638 54.72C238.902 55.168 238.334 55.784 237.934 56.568C237.55 57.336 237.358 58.2 237.358 59.16C237.358 60.104 237.55 60.968 237.934 61.752C238.318 62.52 238.87 63.144 239.59 63.624C240.326 64.088 241.214 64.32 242.254 64.32ZM252.621 65.52V52.8H254.061V58.152H253.773C253.773 56.984 253.933 55.976 254.253 55.128C254.589 54.28 255.085 53.624 255.741 53.16C256.397 52.68 257.229 52.44 258.237 52.44H258.309C259.317 52.44 260.149 52.672 260.805 53.136C261.461 53.6 261.949 54.256 262.269 55.104C262.589 55.952 262.749 56.968 262.749 58.152H262.173C262.173 56.984 262.333 55.976 262.653 55.128C262.989 54.28 263.485 53.624 264.141 53.16C264.813 52.68 265.653 52.44 266.661 52.44H266.733C267.741 52.44 268.573 52.672 269.229 53.136C269.901 53.6 270.397 54.256 270.717 55.104C271.053 55.952 271.221 56.968 271.221 58.152V65.52H269.421V57.744C269.421 56.624 269.149 55.736 268.605 55.08C268.061 54.424 267.277 54.096 266.253 54.096C265.197 54.096 264.357 54.44 263.733 55.128C263.125 55.8 262.821 56.712 262.821 57.864V65.52H261.021V57.744C261.021 56.624 260.749 55.736 260.205 55.08C259.661 54.424 258.877 54.096 257.853 54.096C256.797 54.096 255.957 54.44 255.333 55.128C254.725 55.8 254.421 56.712 254.421 57.864V65.52H252.621ZM275.707 70.32V52.824H277.147V58.272L276.715 58.32C276.779 57.04 277.051 55.96 277.531 55.08C278.027 54.2 278.691 53.536 279.523 53.088C280.371 52.624 281.315 52.392 282.355 52.392C283.283 52.392 284.123 52.576 284.875 52.944C285.643 53.296 286.291 53.784 286.819 54.408C287.363 55.016 287.771 55.72 288.043 56.52C288.331 57.304 288.475 58.128 288.475 58.992V59.328C288.475 60.192 288.331 61.024 288.043 61.824C287.755 62.608 287.339 63.312 286.795 63.936C286.267 64.544 285.619 65.032 284.851 65.4C284.099 65.752 283.251 65.928 282.307 65.928C281.299 65.928 280.371 65.704 279.523 65.256C278.691 64.792 278.011 64.112 277.483 63.216C276.971 62.32 276.691 61.216 276.643 59.904L277.507 61.704V70.32H275.707ZM282.067 64.344C283.027 64.344 283.851 64.12 284.539 63.672C285.227 63.208 285.755 62.584 286.123 61.8C286.491 61 286.675 60.12 286.675 59.16C286.675 58.168 286.483 57.288 286.099 56.52C285.731 55.736 285.203 55.12 284.515 54.672C283.827 54.208 283.011 53.976 282.067 53.976C281.203 53.976 280.419 54.168 279.715 54.552C279.011 54.936 278.451 55.48 278.035 56.184C277.635 56.872 277.435 57.688 277.435 58.632V59.808C277.435 60.704 277.635 61.496 278.035 62.184C278.451 62.856 279.011 63.384 279.715 63.768C280.419 64.152 281.203 64.344 282.067 64.344ZM299.841 65.52V61.704H299.553V57.192C299.553 56.248 299.305 55.528 298.809 55.032C298.313 54.52 297.545 54.264 296.505 54.264C296.025 54.264 295.537 54.272 295.041 54.288C294.561 54.304 294.097 54.328 293.649 54.36C293.217 54.376 292.833 54.4 292.497 54.432V52.848C292.849 52.816 293.209 52.784 293.577 52.752C293.945 52.72 294.321 52.704 294.705 52.704C295.105 52.688 295.489 52.68 295.857 52.68C297.153 52.68 298.193 52.84 298.977 53.16C299.777 53.48 300.361 53.984 300.729 54.672C301.097 55.344 301.281 56.24 301.281 57.36V65.52H299.841ZM295.545 65.856C294.649 65.856 293.857 65.696 293.169 65.376C292.481 65.056 291.945 64.592 291.561 63.984C291.193 63.376 291.009 62.64 291.009 61.776C291.009 60.928 291.201 60.208 291.585 59.616C291.985 59.024 292.553 58.576 293.289 58.272C294.041 57.952 294.945 57.792 296.001 57.792H299.721V59.16H295.881C294.873 59.16 294.097 59.408 293.553 59.904C293.025 60.384 292.761 61.016 292.761 61.8C292.761 62.6 293.041 63.24 293.601 63.72C294.161 64.184 294.921 64.416 295.881 64.416C296.473 64.416 297.041 64.312 297.585 64.104C298.129 63.88 298.585 63.512 298.953 63C299.321 62.472 299.521 61.752 299.553 60.84L300.081 61.584C300.017 62.528 299.793 63.32 299.409 63.96C299.025 64.584 298.505 65.056 297.849 65.376C297.193 65.696 296.425 65.856 295.545 65.856ZM305.777 65.52V52.824H307.217V58.152H306.929C306.929 56.968 307.105 55.952 307.457 55.104C307.809 54.256 308.337 53.6 309.041 53.136C309.745 52.672 310.633 52.44 311.705 52.44H311.777C313.377 52.44 314.569 52.944 315.353 53.952C316.137 54.944 316.529 56.344 316.529 58.152V65.52H314.753V57.768C314.753 56.664 314.449 55.776 313.841 55.104C313.233 54.432 312.385 54.096 311.297 54.096C310.177 54.096 309.273 54.448 308.585 55.152C307.913 55.84 307.577 56.752 307.577 57.888V65.52H305.777ZM319.79 70.464V68.856H321.422C321.982 68.856 322.462 68.784 322.862 68.64C323.262 68.512 323.598 68.28 323.87 67.944C324.142 67.608 324.374 67.144 324.566 66.552L328.838 52.824H330.59L326.126 67.056C325.87 67.872 325.518 68.528 325.07 69.024C324.622 69.536 324.086 69.904 323.462 70.128C322.838 70.352 322.126 70.464 321.326 70.464H319.79ZM323.918 65.208V63.696H326.198V65.208H323.918ZM323.702 65.208L319.094 52.824H320.942L325.382 65.208H323.702ZM332.441 65.52V63.144H334.697V65.52H332.441Z" fill="#404040"/>
<path d="M4.84703 113.52L-0.000968754 96H1.87103L6.26303 112.344L5.42303 111.864H7.75103L6.83903 112.344L10.415 96.768H12.143L8.20703 113.52H4.84703ZM15.383 113.52L11.063 96.768H12.839L16.823 112.344L15.935 111.864H18.311L17.399 112.344L21.359 96H23.183L18.743 113.52H15.383ZM31.0968 113.928C30.0088 113.928 29.0648 113.744 28.2648 113.376C27.4648 112.992 26.8088 112.488 26.2968 111.864C25.7848 111.224 25.4008 110.512 25.1448 109.728C24.9048 108.944 24.7848 108.136 24.7848 107.304V106.968C24.7848 106.152 24.9048 105.352 25.1448 104.568C25.4008 103.784 25.7848 103.08 26.2968 102.456C26.8088 101.832 27.4488 101.336 28.2168 100.968C29.0008 100.584 29.9128 100.392 30.9528 100.392C32.2808 100.392 33.3848 100.688 34.2648 101.28C35.1608 101.872 35.8328 102.632 36.2808 103.56C36.7288 104.472 36.9528 105.456 36.9528 106.512V107.448H25.6008V106.056H35.7048L35.2488 106.752C35.2488 105.808 35.0808 104.984 34.7448 104.28C34.4248 103.56 33.9448 103 33.3048 102.6C32.6808 102.184 31.8968 101.976 30.9528 101.976C29.9608 101.976 29.1368 102.208 28.4808 102.672C27.8248 103.136 27.3288 103.752 26.9928 104.52C26.6728 105.288 26.5128 106.16 26.5128 107.136C26.5128 108.096 26.6728 108.976 26.9928 109.776C27.3288 110.56 27.8328 111.184 28.5048 111.648C29.1928 112.112 30.0568 112.344 31.0968 112.344C32.2008 112.344 33.0968 112.096 33.7848 111.6C34.4728 111.088 34.8968 110.488 35.0568 109.8H36.7368C36.5768 110.648 36.2408 111.384 35.7288 112.008C35.2168 112.616 34.5688 113.088 33.7848 113.424C33.0008 113.76 32.1048 113.928 31.0968 113.928ZM53.7474 113.52V109.704H53.4594V105.192C53.4594 104.248 53.2114 103.528 52.7154 103.032C52.2194 102.52 51.4514 102.264 50.4114 102.264C49.9314 102.264 49.4434 102.272 48.9474 102.288C48.4674 102.304 48.0034 102.328 47.5554 102.36C47.1234 102.376 46.7394 102.4 46.4034 102.432V100.848C46.7554 100.816 47.1154 100.784 47.4834 100.752C47.8514 100.72 48.2274 100.704 48.6114 100.704C49.0114 100.688 49.3954 100.68 49.7634 100.68C51.0594 100.68 52.0994 100.84 52.8834 101.16C53.6834 101.48 54.2674 101.984 54.6354 102.672C55.0034 103.344 55.1874 104.24 55.1874 105.36V113.52H53.7474ZM49.4514 113.856C48.5554 113.856 47.7634 113.696 47.0754 113.376C46.3874 113.056 45.8514 112.592 45.4674 111.984C45.0994 111.376 44.9154 110.64 44.9154 109.776C44.9154 108.928 45.1074 108.208 45.4914 107.616C45.8914 107.024 46.4594 106.576 47.1954 106.272C47.9474 105.952 48.8514 105.792 49.9074 105.792H53.6274V107.16H49.7874C48.7794 107.16 48.0034 107.408 47.4594 107.904C46.9314 108.384 46.6674 109.016 46.6674 109.8C46.6674 110.6 46.9474 111.24 47.5074 111.72C48.0674 112.184 48.8274 112.416 49.7874 112.416C50.3794 112.416 50.9474 112.312 51.4914 112.104C52.0354 111.88 52.4914 111.512 52.8594 111C53.2274 110.472 53.4274 109.752 53.4594 108.84L53.9874 109.584C53.9234 110.528 53.6994 111.32 53.3154 111.96C52.9314 112.584 52.4114 113.056 51.7554 113.376C51.0994 113.696 50.3314 113.856 49.4514 113.856ZM59.6835 113.52V100.824H61.1235V106.128H60.9795C60.9795 104.272 61.3875 102.904 62.2035 102.024C63.0195 101.128 64.2995 100.68 66.0435 100.68H66.4515V102.312H65.7075C64.3315 102.312 63.2835 102.672 62.5635 103.392C61.8435 104.096 61.4835 105.136 61.4835 106.512V113.52H59.6835ZM74.5031 113.928C73.4151 113.928 72.4711 113.744 71.6711 113.376C70.8711 112.992 70.2151 112.488 69.7031 111.864C69.1911 111.224 68.8071 110.512 68.5511 109.728C68.3111 108.944 68.1911 108.136 68.1911 107.304V106.968C68.1911 106.152 68.3111 105.352 68.5511 104.568C68.8071 103.784 69.1911 103.08 69.7031 102.456C70.2151 101.832 70.8551 101.336 71.6231 100.968C72.4071 100.584 73.3191 100.392 74.3591 100.392C75.6871 100.392 76.7911 100.688 77.6711 101.28C78.5671 101.872 79.2391 102.632 79.6871 103.56C80.1351 104.472 80.3591 105.456 80.3591 106.512V107.448H69.0071V106.056H79.1111L78.6551 106.752C78.6551 105.808 78.4871 104.984 78.1511 104.28C77.8311 103.56 77.3511 103 76.7111 102.6C76.0871 102.184 75.3031 101.976 74.3591 101.976C73.3671 101.976 72.5431 102.208 71.8871 102.672C71.2311 103.136 70.7351 103.752 70.3991 104.52C70.0791 105.288 69.9191 106.16 69.9191 107.136C69.9191 108.096 70.0791 108.976 70.3991 109.776C70.7351 110.56 71.2391 111.184 71.9111 111.648C72.5991 112.112 73.4631 112.344 74.5031 112.344C75.6071 112.344 76.5031 112.096 77.1911 111.6C77.8791 111.088 78.3031 110.488 78.4631 109.8H80.1431C79.9831 110.648 79.6471 111.384 79.1351 112.008C78.6231 112.616 77.9751 113.088 77.1911 113.424C76.4071 113.76 75.5111 113.928 74.5031 113.928ZM97.1537 113.52V109.704H96.8657V105.192C96.8657 104.248 96.6177 103.528 96.1217 103.032C95.6257 102.52 94.8577 102.264 93.8177 102.264C93.3377 102.264 92.8497 102.272 92.3537 102.288C91.8737 102.304 91.4097 102.328 90.9617 102.36C90.5297 102.376 90.1457 102.4 89.8097 102.432V100.848C90.1617 100.816 90.5217 100.784 90.8897 100.752C91.2577 100.72 91.6337 100.704 92.0177 100.704C92.4177 100.688 92.8017 100.68 93.1697 100.68C94.4657 100.68 95.5057 100.84 96.2897 101.16C97.0897 101.48 97.6737 101.984 98.0417 102.672C98.4097 103.344 98.5937 104.24 98.5937 105.36V113.52H97.1537ZM92.8577 113.856C91.9617 113.856 91.1697 113.696 90.4817 113.376C89.7937 113.056 89.2577 112.592 88.8737 111.984C88.5057 111.376 88.3217 110.64 88.3217 109.776C88.3217 108.928 88.5137 108.208 88.8977 107.616C89.2977 107.024 89.8657 106.576 90.6017 106.272C91.3537 105.952 92.2577 105.792 93.3137 105.792H97.0337V107.16H93.1937C92.1857 107.16 91.4097 107.408 90.8657 107.904C90.3377 108.384 90.0737 109.016 90.0737 109.8C90.0737 110.6 90.3537 111.24 90.9137 111.72C91.4737 112.184 92.2337 112.416 93.1937 112.416C93.7857 112.416 94.3537 112.312 94.8977 112.104C95.4417 111.88 95.8977 111.512 96.2657 111C96.6337 110.472 96.8337 109.752 96.8657 108.84L97.3937 109.584C97.3297 110.528 97.1057 111.32 96.7217 111.96C96.3377 112.584 95.8177 113.056 95.1617 113.376C94.5057 113.696 93.7377 113.856 92.8577 113.856ZM112.699 113.88C111.067 113.88 109.811 113.528 108.931 112.824C108.051 112.104 107.603 111.144 107.587 109.944H109.267C109.299 110.552 109.571 111.104 110.083 111.6C110.611 112.096 111.483 112.344 112.699 112.344C113.835 112.344 114.683 112.112 115.243 111.648C115.819 111.168 116.107 110.592 116.107 109.92C116.107 109.296 115.867 108.816 115.387 108.48C114.923 108.128 114.243 107.904 113.347 107.808L111.907 107.664C110.755 107.536 109.819 107.184 109.099 106.608C108.395 106.016 108.043 105.208 108.043 104.184C108.043 103.432 108.235 102.776 108.619 102.216C109.003 101.656 109.539 101.224 110.227 100.92C110.931 100.6 111.755 100.44 112.699 100.44C114.059 100.44 115.163 100.76 116.011 101.4C116.875 102.04 117.315 102.952 117.331 104.136H115.651C115.635 103.528 115.379 103.016 114.883 102.6C114.387 102.184 113.659 101.976 112.699 101.976C111.707 101.976 110.963 102.192 110.467 102.624C109.987 103.056 109.747 103.584 109.747 104.208C109.747 104.736 109.931 105.176 110.299 105.528C110.667 105.864 111.243 106.072 112.027 106.152L113.467 106.296C114.747 106.44 115.787 106.808 116.587 107.4C117.403 107.992 117.811 108.84 117.811 109.944C117.811 110.696 117.595 111.376 117.163 111.984C116.747 112.576 116.155 113.04 115.387 113.376C114.619 113.712 113.723 113.88 112.699 113.88ZM120.196 118.464V116.856H121.828C122.388 116.856 122.868 116.784 123.268 116.64C123.668 116.512 124.004 116.28 124.276 115.944C124.548 115.608 124.78 115.144 124.972 114.552L129.244 100.824H130.996L126.532 115.056C126.276 115.872 125.924 116.528 125.476 117.024C125.028 117.536 124.492 117.904 123.868 118.128C123.244 118.352 122.532 118.464 121.732 118.464H120.196ZM124.324 113.208V111.696H126.604V113.208H124.324ZM124.108 113.208L119.5 100.824H121.348L125.788 113.208H124.108ZM138.082 113.88C136.45 113.88 135.194 113.528 134.314 112.824C133.434 112.104 132.986 111.144 132.97 109.944H134.65C134.682 110.552 134.954 111.104 135.466 111.6C135.994 112.096 136.866 112.344 138.082 112.344C139.218 112.344 140.066 112.112 140.626 111.648C141.202 111.168 141.49 110.592 141.49 109.92C141.49 109.296 141.25 108.816 140.77 108.48C140.306 108.128 139.626 107.904 138.73 107.808L137.29 107.664C136.138 107.536 135.202 107.184 134.482 106.608C133.778 106.016 133.426 105.208 133.426 104.184C133.426 103.432 133.618 102.776 134.002 102.216C134.386 101.656 134.922 101.224 135.61 100.92C136.314 100.6 137.138 100.44 138.082 100.44C139.442 100.44 140.546 100.76 141.394 101.4C142.258 102.04 142.698 102.952 142.714 104.136H141.034C141.018 103.528 140.762 103.016 140.266 102.6C139.77 102.184 139.042 101.976 138.082 101.976C137.09 101.976 136.346 102.192 135.85 102.624C135.37 103.056 135.13 103.584 135.13 104.208C135.13 104.736 135.314 105.176 135.682 105.528C136.05 105.864 136.626 106.072 137.41 106.152L138.85 106.296C140.13 106.44 141.17 106.808 141.97 107.4C142.786 107.992 143.194 108.84 143.194 109.944C143.194 110.696 142.978 111.376 142.546 111.984C142.13 112.576 141.538 113.04 140.77 113.376C140.002 113.712 139.106 113.88 138.082 113.88ZM151.385 113.664C150.505 113.664 149.745 113.536 149.105 113.28C148.465 113.024 147.969 112.592 147.617 111.984C147.265 111.36 147.089 110.528 147.089 109.488V96.816H148.817V109.752C148.817 110.488 149.017 111.056 149.417 111.456C149.817 111.84 150.385 112.032 151.121 112.032H153.401V113.664H151.385ZM144.809 102.192V100.824H153.401V102.192H144.809ZM162.066 113.928C160.978 113.928 160.034 113.744 159.234 113.376C158.434 112.992 157.778 112.488 157.266 111.864C156.754 111.224 156.37 110.512 156.114 109.728C155.874 108.944 155.754 108.136 155.754 107.304V106.968C155.754 106.152 155.874 105.352 156.114 104.568C156.37 103.784 156.754 103.08 157.266 102.456C157.778 101.832 158.418 101.336 159.186 100.968C159.97 100.584 160.882 100.392 161.922 100.392C163.25 100.392 164.354 100.688 165.234 101.28C166.13 101.872 166.802 102.632 167.25 103.56C167.698 104.472 167.922 105.456 167.922 106.512V107.448H156.57V106.056H166.674L166.218 106.752C166.218 105.808 166.05 104.984 165.714 104.28C165.394 103.56 164.914 103 164.274 102.6C163.65 102.184 162.866 101.976 161.922 101.976C160.93 101.976 160.106 102.208 159.45 102.672C158.794 103.136 158.298 103.752 157.962 104.52C157.642 105.288 157.482 106.16 157.482 107.136C157.482 108.096 157.642 108.976 157.962 109.776C158.298 110.56 158.802 111.184 159.474 111.648C160.162 112.112 161.026 112.344 162.066 112.344C163.17 112.344 164.066 112.096 164.754 111.6C165.442 111.088 165.866 110.488 166.026 109.8H167.706C167.546 110.648 167.21 111.384 166.698 112.008C166.186 112.616 165.538 113.088 164.754 113.424C163.97 113.76 163.074 113.928 162.066 113.928ZM171.387 113.52V100.8H172.827V106.152H172.539C172.539 104.984 172.699 103.976 173.019 103.128C173.355 102.28 173.851 101.624 174.507 101.16C175.163 100.68 175.995 100.44 177.003 100.44H177.075C178.083 100.44 178.915 100.672 179.571 101.136C180.227 101.6 180.715 102.256 181.035 103.104C181.355 103.952 181.515 104.968 181.515 106.152H180.939C180.939 104.984 181.099 103.976 181.419 103.128C181.755 102.28 182.251 101.624 182.907 101.16C183.579 100.68 184.419 100.44 185.427 100.44H185.499C186.507 100.44 187.339 100.672 187.995 101.136C188.667 101.6 189.163 102.256 189.483 103.104C189.819 103.952 189.987 104.968 189.987 106.152V113.52H188.187V105.744C188.187 104.624 187.915 103.736 187.371 103.08C186.827 102.424 186.043 102.096 185.019 102.096C183.963 102.096 183.123 102.44 182.499 103.128C181.891 103.8 181.587 104.712 181.587 105.864V113.52H179.787V105.744C179.787 104.624 179.515 103.736 178.971 103.08C178.427 102.424 177.643 102.096 176.619 102.096C175.563 102.096 174.723 102.44 174.099 103.128C173.491 103.8 173.187 104.712 173.187 105.864V113.52H171.387ZM198.481 113.88C196.849 113.88 195.593 113.528 194.713 112.824C193.833 112.104 193.385 111.144 193.369 109.944H195.049C195.081 110.552 195.353 111.104 195.865 111.6C196.393 112.096 197.265 112.344 198.481 112.344C199.617 112.344 200.465 112.112 201.025 111.648C201.601 111.168 201.889 110.592 201.889 109.92C201.889 109.296 201.649 108.816 201.169 108.48C200.705 108.128 200.025 107.904 199.129 107.808L197.689 107.664C196.537 107.536 195.601 107.184 194.881 106.608C194.177 106.016 193.825 105.208 193.825 104.184C193.825 103.432 194.017 102.776 194.401 102.216C194.785 101.656 195.321 101.224 196.009 100.92C196.713 100.6 197.537 100.44 198.481 100.44C199.841 100.44 200.945 100.76 201.793 101.4C202.657 102.04 203.097 102.952 203.113 104.136H201.433C201.417 103.528 201.161 103.016 200.665 102.6C200.169 102.184 199.441 101.976 198.481 101.976C197.489 101.976 196.745 102.192 196.249 102.624C195.769 103.056 195.529 103.584 195.529 104.208C195.529 104.736 195.713 105.176 196.081 105.528C196.449 105.864 197.025 106.072 197.809 106.152L199.249 106.296C200.529 106.44 201.569 106.808 202.369 107.4C203.185 107.992 203.593 108.84 203.593 109.944C203.593 110.696 203.377 111.376 202.945 111.984C202.529 112.576 201.937 113.04 201.169 113.376C200.401 113.712 199.505 113.88 198.481 113.88ZM216.785 113.88C215.153 113.88 213.897 113.528 213.017 112.824C212.137 112.104 211.689 111.144 211.673 109.944H213.353C213.385 110.552 213.657 111.104 214.169 111.6C214.697 112.096 215.569 112.344 216.785 112.344C217.921 112.344 218.769 112.112 219.329 111.648C219.905 111.168 220.193 110.592 220.193 109.92C220.193 109.296 219.953 108.816 219.473 108.48C219.009 108.128 218.329 107.904 217.433 107.808L215.993 107.664C214.841 107.536 213.905 107.184 213.185 106.608C212.481 106.016 212.129 105.208 212.129 104.184C212.129 103.432 212.321 102.776 212.705 102.216C213.089 101.656 213.625 101.224 214.313 100.92C215.017 100.6 215.841 100.44 216.785 100.44C218.145 100.44 219.249 100.76 220.097 101.4C220.961 102.04 221.401 102.952 221.417 104.136H219.737C219.721 103.528 219.465 103.016 218.969 102.6C218.473 102.184 217.745 101.976 216.785 101.976C215.793 101.976 215.049 102.192 214.553 102.624C214.073 103.056 213.833 103.584 213.833 104.208C213.833 104.736 214.017 105.176 214.385 105.528C214.753 105.864 215.329 106.072 216.113 106.152L217.553 106.296C218.833 106.44 219.873 106.808 220.673 107.4C221.489 107.992 221.897 108.84 221.897 109.944C221.897 110.696 221.681 111.376 221.249 111.984C220.833 112.576 220.241 113.04 219.473 113.376C218.705 113.712 217.809 113.88 216.785 113.88ZM230.088 113.664C229.208 113.664 228.448 113.536 227.808 113.28C227.168 113.024 226.672 112.592 226.32 111.984C225.968 111.36 225.792 110.528 225.792 109.488V96.816H227.52V109.752C227.52 110.488 227.72 111.056 228.12 111.456C228.52 111.84 229.088 112.032 229.824 112.032H232.104V113.664H230.088ZM223.512 102.192V100.824H232.104V102.192H223.512ZM239.974 113.88C238.454 113.88 237.294 113.392 236.494 112.416C235.694 111.424 235.294 110.048 235.294 108.288V100.8H237.07V108.648C237.07 109.752 237.358 110.632 237.934 111.288C238.526 111.928 239.342 112.248 240.382 112.248C241.47 112.248 242.334 111.904 242.974 111.216C243.63 110.528 243.958 109.608 243.958 108.456V100.8H245.758V113.52H244.318V108.216H244.606C244.606 109.4 244.438 110.416 244.102 111.264C243.766 112.096 243.262 112.744 242.59 113.208C241.918 113.656 241.07 113.88 240.046 113.88H239.974ZM255.673 113.928C254.745 113.928 253.897 113.76 253.129 113.424C252.377 113.072 251.721 112.592 251.161 111.984C250.617 111.36 250.193 110.656 249.889 109.872C249.601 109.072 249.457 108.224 249.457 107.328V106.992C249.457 106.128 249.601 105.304 249.889 104.52C250.177 103.72 250.585 103.016 251.113 102.408C251.657 101.784 252.305 101.296 253.057 100.944C253.825 100.576 254.681 100.392 255.625 100.392C256.697 100.392 257.641 100.624 258.457 101.088C259.273 101.552 259.929 102.224 260.425 103.104C260.921 103.968 261.185 105.032 261.217 106.296L260.425 104.808V96H262.225V113.52H260.785V107.88H261.361C261.329 109.208 261.049 110.328 260.521 111.24C260.009 112.136 259.329 112.808 258.481 113.256C257.649 113.704 256.713 113.928 255.673 113.928ZM255.913 112.344C256.777 112.344 257.553 112.152 258.241 111.768C258.945 111.384 259.497 110.84 259.897 110.136C260.297 109.416 260.497 108.592 260.497 107.664V106.512C260.497 105.616 260.297 104.832 259.897 104.16C259.497 103.472 258.945 102.936 258.241 102.552C257.553 102.168 256.769 101.976 255.889 101.976C254.945 101.976 254.121 102.208 253.417 102.672C252.729 103.12 252.193 103.736 251.809 104.52C251.441 105.304 251.257 106.184 251.257 107.16C251.257 108.168 251.449 109.064 251.833 109.848C252.217 110.632 252.761 111.248 253.465 111.696C254.169 112.128 254.985 112.344 255.913 112.344ZM267.543 113.52V100.824H269.319V113.52H267.543ZM265.503 102.264V100.824H269.319V102.264H265.503ZM267.927 98.472C267.495 98.472 267.167 98.36 266.943 98.136C266.735 97.896 266.631 97.6 266.631 97.248C266.631 96.896 266.735 96.608 266.943 96.384C267.167 96.144 267.495 96.024 267.927 96.024C268.359 96.024 268.679 96.144 268.887 96.384C269.095 96.608 269.199 96.896 269.199 97.248C269.199 97.6 269.095 97.896 268.887 98.136C268.679 98.36 268.359 98.472 267.927 98.472ZM279.731 113.928C278.643 113.928 277.683 113.744 276.851 113.376C276.035 112.992 275.339 112.488 274.763 111.864C274.203 111.224 273.771 110.512 273.467 109.728C273.179 108.944 273.035 108.144 273.035 107.328V106.992C273.035 106.176 273.187 105.376 273.491 104.592C273.795 103.792 274.235 103.08 274.811 102.456C275.387 101.832 276.083 101.336 276.899 100.968C277.731 100.584 278.675 100.392 279.731 100.392C280.803 100.392 281.747 100.584 282.563 100.968C283.395 101.336 284.099 101.832 284.675 102.456C285.251 103.08 285.683 103.792 285.971 104.592C286.275 105.376 286.427 106.176 286.427 106.992V107.328C286.427 108.144 286.283 108.944 285.995 109.728C285.707 110.512 285.275 111.224 284.699 111.864C284.139 112.488 283.443 112.992 282.611 113.376C281.779 113.744 280.819 113.928 279.731 113.928ZM279.731 112.32C280.787 112.32 281.675 112.088 282.395 111.624C283.131 111.144 283.691 110.52 284.075 109.752C284.459 108.968 284.651 108.104 284.651 107.16C284.651 106.2 284.451 105.336 284.051 104.568C283.667 103.784 283.107 103.168 282.371 102.72C281.635 102.256 280.755 102.024 279.731 102.024C278.723 102.024 277.851 102.256 277.115 102.72C276.379 103.168 275.811 103.784 275.411 104.568C275.027 105.336 274.835 106.2 274.835 107.16C274.835 108.104 275.027 108.968 275.411 109.752C275.795 110.52 276.347 111.144 277.067 111.624C277.803 112.088 278.691 112.32 279.731 112.32ZM289.363 113.52V111.144H291.619V113.52H289.363Z" fill="url(#paint0_radial_813_453)"/>
<defs>
<radialGradient id="paint0_radial_813_453" cx="0" cy="0" r="1" gradientUnits="userSpaceOnUse" gradientTransform="translate(168.207 57.52) rotate(90) scale(72 169)">
<stop stop-color="#5A69EA"/>
<stop offset="1" stop-color="#BF8BCA"/>
</radialGradient>
</defs>
</svg>
