<svg width="220" height="23" viewBox="0 0 220 23" fill="none" xmlns="http://www.w3.org/2000/svg">
<path d="M4.84703 17.52L-0.000968754 1.90735e-05H1.87103L6.26303 16.344L5.42303 15.864H7.75103L6.83903 16.344L10.415 0.768019H12.143L8.20703 17.52H4.84703ZM15.383 17.52L11.063 0.768019H12.839L16.823 16.344L15.935 15.864H18.311L17.399 16.344L21.359 1.90735e-05H23.183L18.743 17.52H15.383ZM26.3085 17.52V1.90735e-05H28.1085V9.91202L27.5805 10.32C27.5805 9.13602 27.7485 8.10402 28.0845 7.22402C28.4365 6.34402 28.9565 5.66402 29.6445 5.18402C30.3485 4.68802 31.2285 4.44002 32.2845 4.44002H32.3805C33.9165 4.44002 35.0765 4.94402 35.8605 5.95202C36.6605 6.96002 37.0605 8.36002 37.0605 10.152V17.52H35.2845V9.76802C35.2845 8.63202 34.9725 7.73602 34.3485 7.08002C33.7245 6.42402 32.8845 6.09602 31.8285 6.09602C30.6925 6.09602 29.7885 6.46402 29.1165 7.20002C28.4445 7.92002 28.1085 8.87202 28.1085 10.056V17.52H26.3085ZM49.2708 17.52V13.704H48.9828V9.19202C48.9828 8.24802 48.7348 7.52802 48.2388 7.03202C47.7428 6.52002 46.9748 6.26402 45.9348 6.26402C45.4548 6.26402 44.9668 6.27202 44.4708 6.28802C43.9908 6.30402 43.5268 6.32802 43.0788 6.36002C42.6468 6.37602 42.2628 6.40002 41.9268 6.43202V4.84802C42.2788 4.81602 42.6388 4.78402 43.0068 4.75202C43.3748 4.72002 43.7508 4.70402 44.1348 4.70402C44.5348 4.68802 44.9188 4.68002 45.2868 4.68002C46.5828 4.68002 47.6228 4.84002 48.4068 5.16002C49.2068 5.48002 49.7908 5.98402 50.1588 6.67202C50.5268 7.34402 50.7108 8.24002 50.7108 9.36002V17.52H49.2708ZM44.9748 17.856C44.0788 17.856 43.2868 17.696 42.5988 17.376C41.9108 17.056 41.3748 16.592 40.9908 15.984C40.6228 15.376 40.4388 14.64 40.4388 13.776C40.4388 12.928 40.6308 12.208 41.0148 11.616C41.4148 11.024 41.9828 10.576 42.7188 10.272C43.4708 9.95202 44.3748 9.79202 45.4308 9.79202H49.1508V11.16H45.3108C44.3028 11.16 43.5268 11.408 42.9828 11.904C42.4548 12.384 42.1908 13.016 42.1908 13.8C42.1908 14.6 42.4708 15.24 43.0308 15.72C43.5908 16.184 44.3508 16.416 45.3108 16.416C45.9028 16.416 46.4708 16.312 47.0148 16.104C47.5588 15.88 48.0148 15.512 48.3828 15C48.7508 14.472 48.9508 13.752 48.9828 12.84L49.5108 13.584C49.4468 14.528 49.2228 15.32 48.8388 15.96C48.4548 16.584 47.9348 17.056 47.2788 17.376C46.6228 17.696 45.8548 17.856 44.9748 17.856ZM59.8149 17.664C58.9349 17.664 58.1749 17.536 57.5349 17.28C56.8949 17.024 56.3989 16.592 56.0469 15.984C55.6949 15.36 55.5189 14.528 55.5189 13.488V0.816019H57.2469V13.752C57.2469 14.488 57.4469 15.056 57.8469 15.456C58.2469 15.84 58.8149 16.032 59.5509 16.032H61.8309V17.664H59.8149ZM53.2389 6.19202V4.82402H61.8309V6.19202H53.2389ZM74.918 17.88C73.286 17.88 72.03 17.528 71.15 16.824C70.27 16.104 69.822 15.144 69.806 13.944H71.486C71.518 14.552 71.79 15.104 72.302 15.6C72.83 16.096 73.702 16.344 74.918 16.344C76.054 16.344 76.902 16.112 77.462 15.648C78.038 15.168 78.326 14.592 78.326 13.92C78.326 13.296 78.086 12.816 77.606 12.48C77.142 12.128 76.462 11.904 75.566 11.808L74.126 11.664C72.974 11.536 72.038 11.184 71.318 10.608C70.614 10.016 70.262 9.20802 70.262 8.18402C70.262 7.43202 70.454 6.77602 70.838 6.21602C71.222 5.65602 71.758 5.22402 72.446 4.92002C73.15 4.60002 73.974 4.44002 74.918 4.44002C76.278 4.44002 77.382 4.76002 78.23 5.40002C79.094 6.04002 79.534 6.95202 79.55 8.13602H77.87C77.854 7.52802 77.598 7.01602 77.102 6.60002C76.606 6.18402 75.878 5.97602 74.918 5.97602C73.926 5.97602 73.182 6.19202 72.686 6.62402C72.206 7.05602 71.966 7.58402 71.966 8.20802C71.966 8.73602 72.15 9.17602 72.518 9.52802C72.886 9.86402 73.462 10.072 74.246 10.152L75.686 10.296C76.966 10.44 78.006 10.808 78.806 11.4C79.622 11.992 80.03 12.84 80.03 13.944C80.03 14.696 79.814 15.376 79.382 15.984C78.966 16.576 78.374 17.04 77.606 17.376C76.838 17.712 75.942 17.88 74.918 17.88ZM88.9172 17.928C87.8292 17.928 86.8852 17.744 86.0852 17.376C85.2852 16.992 84.6292 16.488 84.1172 15.864C83.6052 15.224 83.2212 14.512 82.9652 13.728C82.7252 12.944 82.6052 12.136 82.6052 11.304V10.968C82.6052 10.152 82.7252 9.35202 82.9652 8.56802C83.2212 7.78402 83.6052 7.08002 84.1172 6.45602C84.6292 5.83202 85.2692 5.33602 86.0372 4.96802C86.8212 4.58402 87.7332 4.39202 88.7732 4.39202C90.1012 4.39202 91.2052 4.68802 92.0852 5.28002C92.9812 5.87202 93.6532 6.63202 94.1012 7.56002C94.5492 8.47202 94.7732 9.45602 94.7732 10.512V11.448H83.4212V10.056H93.5252L93.0692 10.752C93.0692 9.80802 92.9012 8.98402 92.5652 8.28002C92.2452 7.56002 91.7652 7.00002 91.1252 6.60002C90.5012 6.18402 89.7172 5.97602 88.7732 5.97602C87.7812 5.97602 86.9572 6.20802 86.3012 6.67202C85.6452 7.13602 85.1492 7.75202 84.8132 8.52002C84.4932 9.28802 84.3332 10.16 84.3332 11.136C84.3332 12.096 84.4932 12.976 84.8132 13.776C85.1492 14.56 85.6532 15.184 86.3252 15.648C87.0132 16.112 87.8772 16.344 88.9172 16.344C90.0212 16.344 90.9172 16.096 91.6052 15.6C92.2932 15.088 92.7172 14.488 92.8772 13.8H94.5572C94.3972 14.648 94.0612 15.384 93.5492 16.008C93.0372 16.616 92.3892 17.088 91.6052 17.424C90.8212 17.76 89.9252 17.928 88.9172 17.928ZM102.846 17.664C101.966 17.664 101.206 17.536 100.566 17.28C99.9262 17.024 99.4302 16.592 99.0782 15.984C98.7262 15.36 98.5502 14.528 98.5502 13.488V0.816019H100.278V13.752C100.278 14.488 100.478 15.056 100.878 15.456C101.278 15.84 101.846 16.032 102.582 16.032H104.862V17.664H102.846ZM96.2702 6.19202V4.82402H104.862V6.19202H96.2702ZM112.254 17.88C110.622 17.88 109.366 17.528 108.486 16.824C107.606 16.104 107.158 15.144 107.142 13.944H108.822C108.854 14.552 109.126 15.104 109.638 15.6C110.166 16.096 111.038 16.344 112.254 16.344C113.39 16.344 114.238 16.112 114.798 15.648C115.374 15.168 115.662 14.592 115.662 13.92C115.662 13.296 115.422 12.816 114.942 12.48C114.478 12.128 113.798 11.904 112.902 11.808L111.462 11.664C110.31 11.536 109.374 11.184 108.654 10.608C107.95 10.016 107.598 9.20802 107.598 8.18402C107.598 7.43202 107.79 6.77602 108.174 6.21602C108.558 5.65602 109.094 5.22402 109.782 4.92002C110.486 4.60002 111.31 4.44002 112.254 4.44002C113.614 4.44002 114.718 4.76002 115.566 5.40002C116.43 6.04002 116.87 6.95202 116.886 8.13602H115.206C115.19 7.52802 114.934 7.01602 114.438 6.60002C113.942 6.18402 113.214 5.97602 112.254 5.97602C111.262 5.97602 110.518 6.19202 110.022 6.62402C109.542 7.05602 109.302 7.58402 109.302 8.20802C109.302 8.73602 109.486 9.17602 109.854 9.52802C110.222 9.86402 110.798 10.072 111.582 10.152L113.022 10.296C114.302 10.44 115.342 10.808 116.142 11.4C116.958 11.992 117.366 12.84 117.366 13.944C117.366 14.696 117.15 15.376 116.718 15.984C116.302 16.576 115.71 17.04 114.942 17.376C114.174 17.712 113.278 17.88 112.254 17.88ZM130.943 17.88C129.423 17.88 128.263 17.392 127.463 16.416C126.663 15.424 126.263 14.048 126.263 12.288V4.80002H128.039V12.648C128.039 13.752 128.327 14.632 128.903 15.288C129.495 15.928 130.311 16.248 131.351 16.248C132.439 16.248 133.303 15.904 133.943 15.216C134.599 14.528 134.927 13.608 134.927 12.456V4.80002H136.727V17.52H135.287V12.216H135.575C135.575 13.4 135.407 14.416 135.071 15.264C134.735 16.096 134.231 16.744 133.559 17.208C132.887 17.656 132.039 17.88 131.015 17.88H130.943ZM145.441 17.88C143.809 17.88 142.553 17.528 141.673 16.824C140.793 16.104 140.345 15.144 140.329 13.944H142.009C142.041 14.552 142.313 15.104 142.825 15.6C143.353 16.096 144.225 16.344 145.441 16.344C146.577 16.344 147.425 16.112 147.985 15.648C148.561 15.168 148.849 14.592 148.849 13.92C148.849 13.296 148.609 12.816 148.129 12.48C147.665 12.128 146.985 11.904 146.089 11.808L144.649 11.664C143.497 11.536 142.561 11.184 141.841 10.608C141.137 10.016 140.785 9.20802 140.785 8.18402C140.785 7.43202 140.977 6.77602 141.361 6.21602C141.745 5.65602 142.281 5.22402 142.969 4.92002C143.673 4.60002 144.497 4.44002 145.441 4.44002C146.801 4.44002 147.905 4.76002 148.753 5.40002C149.617 6.04002 150.057 6.95202 150.073 8.13602H148.393C148.377 7.52802 148.121 7.01602 147.625 6.60002C147.129 6.18402 146.401 5.97602 145.441 5.97602C144.449 5.97602 143.705 6.19202 143.209 6.62402C142.729 7.05602 142.489 7.58402 142.489 8.20802C142.489 8.73602 142.673 9.17602 143.041 9.52802C143.409 9.86402 143.985 10.072 144.769 10.152L146.209 10.296C147.489 10.44 148.529 10.808 149.329 11.4C150.145 11.992 150.553 12.84 150.553 13.944C150.553 14.696 150.337 15.376 149.905 15.984C149.489 16.576 148.897 17.04 148.129 17.376C147.361 17.712 146.465 17.88 145.441 17.88Z" fill="#717171"/>
<path d="M167.466 17.52V13.704H167.178V9.19202C167.178 8.24802 166.93 7.52802 166.434 7.03202C165.938 6.52002 165.17 6.26402 164.13 6.26402C163.65 6.26402 163.162 6.27202 162.666 6.28802C162.186 6.30402 161.722 6.32802 161.274 6.36002C160.842 6.37602 160.458 6.40002 160.122 6.43202V4.84802C160.474 4.81602 160.834 4.78402 161.202 4.75202C161.57 4.72002 161.946 4.70402 162.33 4.70402C162.73 4.68802 163.114 4.68002 163.482 4.68002C164.778 4.68002 165.818 4.84002 166.602 5.16002C167.402 5.48002 167.986 5.98402 168.354 6.67202C168.722 7.34402 168.906 8.24002 168.906 9.36002V17.52H167.466ZM163.17 17.856C162.274 17.856 161.482 17.696 160.794 17.376C160.106 17.056 159.57 16.592 159.186 15.984C158.818 15.376 158.634 14.64 158.634 13.776C158.634 12.928 158.826 12.208 159.21 11.616C159.61 11.024 160.178 10.576 160.914 10.272C161.666 9.95202 162.57 9.79202 163.626 9.79202H167.346V11.16H163.506C162.498 11.16 161.722 11.408 161.178 11.904C160.65 12.384 160.386 13.016 160.386 13.8C160.386 14.6 160.666 15.24 161.226 15.72C161.786 16.184 162.546 16.416 163.506 16.416C164.098 16.416 164.666 16.312 165.21 16.104C165.754 15.88 166.21 15.512 166.578 15C166.946 14.472 167.146 13.752 167.178 12.84L167.706 13.584C167.642 14.528 167.418 15.32 167.034 15.96C166.65 16.584 166.13 17.056 165.474 17.376C164.818 17.696 164.05 17.856 163.17 17.856ZM173.402 22.32V4.82402H174.842V10.272L174.41 10.32C174.474 9.04002 174.746 7.96002 175.226 7.08002C175.722 6.20002 176.386 5.53602 177.218 5.08802C178.066 4.62402 179.01 4.39202 180.05 4.39202C180.978 4.39202 181.818 4.57602 182.57 4.94402C183.338 5.29602 183.986 5.78402 184.514 6.40802C185.058 7.01602 185.466 7.72002 185.738 8.52002C186.026 9.30402 186.17 10.128 186.17 10.992V11.328C186.17 12.192 186.026 13.024 185.738 13.824C185.45 14.608 185.034 15.312 184.49 15.936C183.962 16.544 183.314 17.032 182.546 17.4C181.794 17.752 180.946 17.928 180.002 17.928C178.994 17.928 178.066 17.704 177.218 17.256C176.386 16.792 175.706 16.112 175.178 15.216C174.666 14.32 174.386 13.216 174.338 11.904L175.202 13.704V22.32H173.402ZM179.762 16.344C180.722 16.344 181.546 16.12 182.234 15.672C182.922 15.208 183.45 14.584 183.818 13.8C184.186 13 184.37 12.12 184.37 11.16C184.37 10.168 184.178 9.28802 183.794 8.52002C183.426 7.73602 182.898 7.12002 182.21 6.67202C181.522 6.20802 180.706 5.97602 179.762 5.97602C178.898 5.97602 178.114 6.16802 177.41 6.55202C176.706 6.93602 176.146 7.48002 175.73 8.18402C175.33 8.87202 175.13 9.68802 175.13 10.632V11.808C175.13 12.704 175.33 13.496 175.73 14.184C176.146 14.856 176.706 15.384 177.41 15.768C178.114 16.152 178.898 16.344 179.762 16.344ZM197.536 17.52V13.704H197.248V9.19202C197.248 8.24802 197 7.52802 196.504 7.03202C196.008 6.52002 195.24 6.26402 194.2 6.26402C193.72 6.26402 193.232 6.27202 192.736 6.28802C192.256 6.30402 191.792 6.32802 191.344 6.36002C190.912 6.37602 190.528 6.40002 190.192 6.43202V4.84802C190.544 4.81602 190.904 4.78402 191.272 4.75202C191.64 4.72002 192.016 4.70402 192.4 4.70402C192.8 4.68802 193.184 4.68002 193.552 4.68002C194.848 4.68002 195.888 4.84002 196.672 5.16002C197.472 5.48002 198.056 5.98402 198.424 6.67202C198.792 7.34402 198.976 8.24002 198.976 9.36002V17.52H197.536ZM193.24 17.856C192.344 17.856 191.552 17.696 190.864 17.376C190.176 17.056 189.64 16.592 189.256 15.984C188.888 15.376 188.704 14.64 188.704 13.776C188.704 12.928 188.896 12.208 189.28 11.616C189.68 11.024 190.248 10.576 190.984 10.272C191.736 9.95202 192.64 9.79202 193.696 9.79202H197.416V11.16H193.576C192.568 11.16 191.792 11.408 191.248 11.904C190.72 12.384 190.456 13.016 190.456 13.8C190.456 14.6 190.736 15.24 191.296 15.72C191.856 16.184 192.616 16.416 193.576 16.416C194.168 16.416 194.736 16.312 195.28 16.104C195.824 15.88 196.28 15.512 196.648 15C197.016 14.472 197.216 13.752 197.248 12.84L197.776 13.584C197.712 14.528 197.488 15.32 197.104 15.96C196.72 16.584 196.2 17.056 195.544 17.376C194.888 17.696 194.12 17.856 193.24 17.856ZM203.473 17.52V4.82402H204.913V10.128H204.769C204.769 8.27202 205.177 6.90402 205.993 6.02402C206.809 5.12802 208.089 4.68002 209.833 4.68002H210.241V6.31202H209.497C208.121 6.31202 207.073 6.67202 206.353 7.39202C205.633 8.09602 205.273 9.13602 205.273 10.512V17.52H203.473ZM217.995 17.664C217.115 17.664 216.355 17.536 215.715 17.28C215.075 17.024 214.579 16.592 214.227 15.984C213.875 15.36 213.699 14.528 213.699 13.488V0.816019H215.427V13.752C215.427 14.488 215.627 15.056 216.027 15.456C216.427 15.84 216.995 16.032 217.731 16.032H220.011V17.664H217.995ZM211.419 6.19202V4.82402H220.011V6.19202H211.419Z" fill="url(#paint0_radial_813_469)"/>
<defs>
<radialGradient id="paint0_radial_813_469" cx="0" cy="0" r="1" gradientUnits="userSpaceOnUse" gradientTransform="translate(110.207 9.52002) rotate(90) scale(15 111)">
<stop stop-color="#5A69EA"/>
<stop offset="1" stop-color="#BF8BCA"/>
</radialGradient>
</defs>
</svg>
