<svg width="540" height="46" viewBox="0 0 540 46" fill="none" xmlns="http://www.w3.org/2000/svg">
<path d="M9.69602 35.9521L1.56164e-05 0.912148H3.74402L12.528 33.6001L10.848 32.6401H15.504L13.68 33.6001L20.832 2.44815H24.288L16.416 35.9521H9.69602ZM30.768 35.9521L22.128 2.44815H25.68L33.648 33.6001L31.872 32.6401H36.624L34.8 33.6001L42.72 0.912148H46.368L37.488 35.9521H30.768ZM52.6189 35.9521V0.912148H56.2189V20.7361L55.1629 21.5521C55.1629 19.1841 55.4989 17.1201 56.1709 15.3601C56.8749 13.6001 57.9149 12.2401 59.2909 11.2801C60.6989 10.2881 62.4589 9.79215 64.5709 9.79215H64.7629C67.8349 9.79215 70.1549 10.8001 71.7229 12.8161C73.3229 14.8321 74.1229 17.6321 74.1229 21.2161V35.9521H70.5709V20.4481C70.5709 18.1761 69.9469 16.3841 68.6989 15.0721C67.4509 13.7601 65.7709 13.1041 63.6589 13.1041C61.3869 13.1041 59.5789 13.8401 58.2349 15.3121C56.8909 16.7521 56.2189 18.6561 56.2189 21.0241V35.9521H52.6189ZM98.5436 35.9521V28.3201H97.9676V19.2961C97.9676 17.4081 97.4716 15.9681 96.4796 14.9761C95.4876 13.9521 93.9516 13.4401 91.8716 13.4401C90.9116 13.4401 89.9356 13.4561 88.9436 13.4881C87.9836 13.5201 87.0556 13.5681 86.1596 13.6321C85.2956 13.6641 84.5276 13.7121 83.8556 13.7761V10.6081C84.5596 10.5441 85.2796 10.4801 86.0156 10.4161C86.7516 10.3521 87.5036 10.3201 88.2716 10.3201C89.0716 10.2881 89.8396 10.2721 90.5756 10.2721C93.1676 10.2721 95.2476 10.5921 96.8156 11.2321C98.4156 11.8721 99.5836 12.8801 100.32 14.2561C101.056 15.6001 101.424 17.3921 101.424 19.6321V35.9521H98.5436ZM89.9516 36.6241C88.1596 36.6241 86.5756 36.3041 85.1996 35.6641C83.8236 35.0241 82.7516 34.0961 81.9836 32.8801C81.2476 31.6641 80.8796 30.1921 80.8796 28.4641C80.8796 26.7681 81.2636 25.3281 82.0316 24.1441C82.8316 22.9601 83.9676 22.0641 85.4396 21.4561C86.9436 20.8161 88.7516 20.4961 90.8636 20.4961H98.3036V23.2321H90.6236C88.6076 23.2321 87.0556 23.7281 85.9676 24.7201C84.9116 25.6801 84.3836 26.9441 84.3836 28.5121C84.3836 30.1121 84.9436 31.3921 86.0636 32.3521C87.1836 33.2801 88.7036 33.7441 90.6236 33.7441C91.8076 33.7441 92.9436 33.5361 94.0316 33.1201C95.1196 32.6721 96.0316 31.9361 96.7676 30.9121C97.5036 29.8561 97.9036 28.4161 97.9676 26.5921L99.0236 28.0801C98.8956 29.9681 98.4476 31.5521 97.6796 32.8321C96.9116 34.0801 95.8716 35.0241 94.5596 35.6641C93.2476 36.3041 91.7116 36.6241 89.9516 36.6241ZM119.632 36.2401C117.872 36.2401 116.352 35.9841 115.072 35.4721C113.792 34.9601 112.8 34.0961 112.096 32.8801C111.392 31.6321 111.04 29.9681 111.04 27.8881V2.54415H114.496V28.4161C114.496 29.8881 114.896 31.0241 115.696 31.8241C116.496 32.5921 117.632 32.9761 119.104 32.9761H123.664V36.2401H119.632ZM106.48 13.2961V10.5601H123.664V13.2961H106.48ZM143.166 35.9521V10.5601H146.718V35.9521H143.166ZM139.086 13.4401V10.5601H146.718V13.4401H139.086ZM143.934 5.85615C143.07 5.85615 142.414 5.63215 141.966 5.18415C141.55 4.70415 141.342 4.11215 141.342 3.40815C141.342 2.70415 141.55 2.12815 141.966 1.68015C142.414 1.20015 143.07 0.960147 143.934 0.960147C144.798 0.960147 145.438 1.20015 145.854 1.68015C146.27 2.12815 146.478 2.70415 146.478 3.40815C146.478 4.11215 146.27 4.70415 145.854 5.18415C145.438 5.63215 144.798 5.85615 143.934 5.85615ZM164.182 36.6721C160.918 36.6721 158.406 35.9681 156.646 34.5601C154.886 33.1201 153.99 31.2001 153.958 28.8001H157.318C157.382 30.0161 157.926 31.1201 158.95 32.1121C160.006 33.1041 161.75 33.6001 164.182 33.6001C166.454 33.6001 168.15 33.1361 169.27 32.2081C170.422 31.2481 170.998 30.0961 170.998 28.7521C170.998 27.5041 170.518 26.5441 169.558 25.8721C168.63 25.1681 167.27 24.7201 165.478 24.5281L162.598 24.2401C160.294 23.9841 158.422 23.2801 156.982 22.1281C155.574 20.9441 154.87 19.3281 154.87 17.2801C154.87 15.7761 155.254 14.4641 156.022 13.3441C156.79 12.2241 157.862 11.3601 159.238 10.7521C160.646 10.1121 162.294 9.79215 164.182 9.79215C166.902 9.79215 169.11 10.4321 170.806 11.7121C172.534 12.9921 173.414 14.8161 173.446 17.1841H170.086C170.054 15.9681 169.542 14.9441 168.55 14.1121C167.558 13.2801 166.102 12.8641 164.182 12.8641C162.198 12.8641 160.71 13.2961 159.718 14.1601C158.758 15.0241 158.278 16.0801 158.278 17.3281C158.278 18.3841 158.646 19.2641 159.382 19.9681C160.118 20.6401 161.27 21.0561 162.838 21.2161L165.718 21.5041C168.278 21.7921 170.358 22.5281 171.958 23.7121C173.59 24.8961 174.406 26.5921 174.406 28.8001C174.406 30.3041 173.974 31.6641 173.11 32.8801C172.278 34.0641 171.094 34.9921 169.558 35.6641C168.022 36.3361 166.23 36.6721 164.182 36.6721Z" fill="#0D0D0D"/>
<path d="M204.823 36.7681C201.879 36.7681 199.399 36.3041 197.383 35.3761C195.367 34.4161 193.831 33.1041 192.775 31.4401C191.751 29.7441 191.239 27.8401 191.239 25.7281H194.887C194.887 27.0721 195.207 28.3361 195.847 29.5201C196.519 30.6721 197.575 31.6161 199.015 32.3521C200.487 33.0561 202.423 33.4081 204.823 33.4081C207.031 33.4081 208.855 33.0881 210.295 32.4481C211.767 31.8081 212.855 30.9441 213.559 29.8561C214.295 28.7681 214.663 27.5521 214.663 26.2081C214.663 24.5121 213.991 23.1041 212.647 21.9841C211.335 20.8321 209.351 20.1441 206.695 19.9201L202.663 19.5361C199.655 19.2801 197.255 18.3521 195.463 16.7521C193.703 15.1201 192.823 12.9761 192.823 10.3201C192.823 8.30415 193.303 6.52815 194.263 4.99215C195.223 3.45615 196.583 2.24015 198.343 1.34415C200.135 0.448148 202.279 0.00014782 204.775 0.00014782C207.303 0.00014782 209.463 0.464148 211.255 1.39215C213.079 2.28815 214.471 3.53615 215.431 5.13615C216.391 6.73615 216.871 8.59215 216.871 10.7041H213.223C213.223 9.42415 212.935 8.22415 212.359 7.10415C211.783 5.98415 210.871 5.08815 209.623 4.41615C208.375 3.71215 206.759 3.36015 204.775 3.36015C202.887 3.36015 201.319 3.68015 200.071 4.32015C198.855 4.96015 197.943 5.80815 197.335 6.86415C196.759 7.92015 196.471 9.07215 196.471 10.3201C196.471 11.8881 197.031 13.2161 198.151 14.3041C199.271 15.3921 200.887 16.0161 202.999 16.1761L207.031 16.5601C209.399 16.7521 211.415 17.2801 213.079 18.1441C214.775 18.9761 216.071 20.0801 216.967 21.4561C217.863 22.8001 218.311 24.3841 218.311 26.2081C218.311 28.2561 217.751 30.0801 216.631 31.6801C215.543 33.2801 213.991 34.5281 211.975 35.4241C209.959 36.3201 207.575 36.7681 204.823 36.7681ZM223.988 45.8401V42.6241H227.252C228.372 42.6241 229.332 42.4801 230.132 42.1921C230.932 41.9361 231.604 41.4721 232.148 40.8001C232.692 40.1281 233.156 39.2001 233.54 38.0161L242.084 10.5601H245.588L236.66 39.0241C236.148 40.6561 235.444 41.9681 234.548 42.9601C233.652 43.9841 232.58 44.7201 231.332 45.1681C230.084 45.6161 228.66 45.8401 227.06 45.8401H223.988ZM232.244 35.3281V32.3041H236.804V35.3281H232.244ZM231.812 35.3281L222.596 10.5601H226.292L235.172 35.3281H231.812ZM259.76 36.6721C256.496 36.6721 253.984 35.9681 252.224 34.5601C250.464 33.1201 249.568 31.2001 249.536 28.8001H252.896C252.96 30.0161 253.504 31.1201 254.528 32.1121C255.584 33.1041 257.328 33.6001 259.76 33.6001C262.032 33.6001 263.728 33.1361 264.848 32.2081C266 31.2481 266.576 30.0961 266.576 28.7521C266.576 27.5041 266.096 26.5441 265.136 25.8721C264.208 25.1681 262.848 24.7201 261.056 24.5281L258.176 24.2401C255.872 23.9841 254 23.2801 252.56 22.1281C251.152 20.9441 250.448 19.3281 250.448 17.2801C250.448 15.7761 250.832 14.4641 251.6 13.3441C252.368 12.2241 253.44 11.3601 254.816 10.7521C256.224 10.1121 257.872 9.79215 259.76 9.79215C262.48 9.79215 264.688 10.4321 266.384 11.7121C268.112 12.9921 268.992 14.8161 269.024 17.1841H265.664C265.632 15.9681 265.12 14.9441 264.128 14.1121C263.136 13.2801 261.68 12.8641 259.76 12.8641C257.776 12.8641 256.288 13.2961 255.296 14.1601C254.336 15.0241 253.856 16.0801 253.856 17.3281C253.856 18.3841 254.224 19.2641 254.96 19.9681C255.696 20.6401 256.848 21.0561 258.416 21.2161L261.296 21.5041C263.856 21.7921 265.936 22.5281 267.536 23.7121C269.168 24.8961 269.984 26.5921 269.984 28.8001C269.984 30.3041 269.552 31.6641 268.688 32.8801C267.856 34.0641 266.672 34.9921 265.136 35.6641C263.6 36.3361 261.808 36.6721 259.76 36.6721ZM286.366 36.2401C284.606 36.2401 283.086 35.9841 281.806 35.4721C280.526 34.9601 279.534 34.0961 278.83 32.8801C278.126 31.6321 277.774 29.9681 277.774 27.8881V2.54415H281.23V28.4161C281.23 29.8881 281.63 31.0241 282.43 31.8241C283.23 32.5921 284.366 32.9761 285.838 32.9761H290.398V36.2401H286.366ZM273.214 13.2961V10.5601H290.398V13.2961H273.214ZM307.727 36.7681C305.551 36.7681 303.663 36.4001 302.063 35.6641C300.463 34.8961 299.151 33.8881 298.127 32.6401C297.103 31.3601 296.335 29.9361 295.823 28.3681C295.343 26.8001 295.103 25.1841 295.103 23.5201V22.8481C295.103 21.2161 295.343 19.6161 295.823 18.0481C296.335 16.4801 297.103 15.0721 298.127 13.8241C299.151 12.5761 300.431 11.5841 301.967 10.8481C303.535 10.0801 305.359 9.69615 307.439 9.69615C310.095 9.69615 312.303 10.2881 314.063 11.4721C315.855 12.6561 317.199 14.1761 318.095 16.0321C318.991 17.8561 319.439 19.8241 319.439 21.9361V23.8081H296.735V21.0241H316.943L316.031 22.4161C316.031 20.5281 315.695 18.8801 315.023 17.4721C314.383 16.0321 313.423 14.9121 312.143 14.1121C310.895 13.2801 309.327 12.8641 307.439 12.8641C305.455 12.8641 303.807 13.3281 302.495 14.2561C301.183 15.1841 300.191 16.4161 299.519 17.9521C298.879 19.4881 298.559 21.2321 298.559 23.1841C298.559 25.1041 298.879 26.8641 299.519 28.4641C300.191 30.0321 301.199 31.2801 302.543 32.2081C303.919 33.1361 305.647 33.6001 307.727 33.6001C309.935 33.6001 311.727 33.1041 313.103 32.1121C314.479 31.0881 315.327 29.8881 315.647 28.5121H319.007C318.687 30.2081 318.015 31.6801 316.991 32.9281C315.967 34.1441 314.671 35.0881 313.103 35.7601C311.535 36.4321 309.743 36.7681 307.727 36.7681ZM326.369 35.9521V10.5121H329.249V21.2161H328.673C328.673 18.8801 328.993 16.8641 329.633 15.1681C330.305 13.4721 331.297 12.1601 332.609 11.2321C333.921 10.2721 335.585 9.79215 337.601 9.79215H337.745C339.761 9.79215 341.425 10.2561 342.737 11.1841C344.049 12.1121 345.025 13.4241 345.665 15.1201C346.305 16.8161 346.625 18.8481 346.625 21.2161H345.473C345.473 18.8801 345.793 16.8641 346.433 15.1681C347.105 13.4721 348.097 12.1601 349.409 11.2321C350.753 10.2721 352.433 9.79215 354.449 9.79215H354.593C356.609 9.79215 358.273 10.2561 359.585 11.1841C360.929 12.1121 361.921 13.4241 362.561 15.1201C363.233 16.8161 363.569 18.8481 363.569 21.2161V35.9521H359.969V20.4001C359.969 18.1601 359.425 16.3841 358.337 15.0721C357.249 13.7601 355.681 13.1041 353.633 13.1041C351.521 13.1041 349.841 13.7921 348.593 15.1681C347.377 16.5121 346.769 18.3361 346.769 20.6401V35.9521H343.169V20.4001C343.169 18.1601 342.625 16.3841 341.537 15.0721C340.449 13.7601 338.881 13.1041 336.833 13.1041C334.721 13.1041 333.041 13.7921 331.793 15.1681C330.577 16.5121 329.969 18.3361 329.969 20.6401V35.9521H326.369ZM395.792 36.7681C392.848 36.7681 390.368 36.3041 388.352 35.3761C386.336 34.4161 384.8 33.1041 383.744 31.4401C382.72 29.7441 382.208 27.8401 382.208 25.7281H385.856C385.856 27.0721 386.176 28.3361 386.816 29.5201C387.488 30.6721 388.544 31.6161 389.984 32.3521C391.456 33.0561 393.392 33.4081 395.792 33.4081C398 33.4081 399.824 33.0881 401.264 32.4481C402.736 31.8081 403.824 30.9441 404.528 29.8561C405.264 28.7681 405.632 27.5521 405.632 26.2081C405.632 24.5121 404.96 23.1041 403.616 21.9841C402.304 20.8321 400.32 20.1441 397.664 19.9201L393.632 19.5361C390.624 19.2801 388.224 18.3521 386.432 16.7521C384.672 15.1201 383.792 12.9761 383.792 10.3201C383.792 8.30415 384.272 6.52815 385.232 4.99215C386.192 3.45615 387.552 2.24015 389.312 1.34415C391.104 0.448148 393.248 0.00014782 395.744 0.00014782C398.272 0.00014782 400.432 0.464148 402.224 1.39215C404.048 2.28815 405.44 3.53615 406.4 5.13615C407.36 6.73615 407.84 8.59215 407.84 10.7041H404.192C404.192 9.42415 403.904 8.22415 403.328 7.10415C402.752 5.98415 401.84 5.08815 400.592 4.41615C399.344 3.71215 397.728 3.36015 395.744 3.36015C393.856 3.36015 392.288 3.68015 391.04 4.32015C389.824 4.96015 388.912 5.80815 388.304 6.86415C387.728 7.92015 387.44 9.07215 387.44 10.3201C387.44 11.8881 388 13.2161 389.12 14.3041C390.24 15.3921 391.856 16.0161 393.968 16.1761L398 16.5601C400.368 16.7521 402.384 17.2801 404.048 18.1441C405.744 18.9761 407.04 20.0801 407.936 21.4561C408.832 22.8001 409.28 24.3841 409.28 26.2081C409.28 28.2561 408.72 30.0801 407.6 31.6801C406.512 33.2801 404.96 34.5281 402.944 35.4241C400.928 36.3201 398.544 36.7681 395.792 36.7681ZM426.429 36.2401C424.669 36.2401 423.149 35.9841 421.869 35.4721C420.589 34.9601 419.597 34.0961 418.893 32.8801C418.189 31.6321 417.837 29.9681 417.837 27.8881V2.54415H421.293V28.4161C421.293 29.8881 421.693 31.0241 422.493 31.8241C423.293 32.5921 424.429 32.9761 425.901 32.9761H430.461V36.2401H426.429ZM413.277 13.2961V10.5601H430.461V13.2961H413.277ZM446.2 36.6721C443.16 36.6721 440.84 35.6961 439.24 33.7441C437.64 31.7601 436.84 29.0081 436.84 25.4881V10.5121H440.392V26.2081C440.392 28.4161 440.968 30.1761 442.12 31.4881C443.304 32.7681 444.936 33.4081 447.016 33.4081C449.192 33.4081 450.92 32.7201 452.2 31.3441C453.512 29.9681 454.168 28.1281 454.168 25.8241V10.5121H457.768V35.9521H454.888V25.3441H455.464C455.464 27.7121 455.128 29.7441 454.456 31.4401C453.784 33.1041 452.776 34.4001 451.432 35.3281C450.088 36.2241 448.392 36.6721 446.344 36.6721H446.2ZM477.597 36.7681C475.741 36.7681 474.045 36.4321 472.509 35.7601C471.005 35.0561 469.693 34.0961 468.573 32.8801C467.485 31.6321 466.637 30.2241 466.029 28.6561C465.453 27.0561 465.165 25.3601 465.165 23.5681V22.8961C465.165 21.1681 465.453 19.5201 466.029 17.9521C466.605 16.3521 467.421 14.9441 468.477 13.7281C469.565 12.4801 470.861 11.5041 472.365 10.8001C473.901 10.0641 475.613 9.69615 477.501 9.69615C479.645 9.69615 481.533 10.1601 483.165 11.0881C484.797 12.0161 486.109 13.3601 487.101 15.1201C488.093 16.8481 488.621 18.9761 488.685 21.5041L487.101 18.5281V0.912148H490.701V35.9521H487.821V24.6721H488.973C488.909 27.3281 488.349 29.5681 487.293 31.3921C486.269 33.1841 484.909 34.5281 483.213 35.4241C481.549 36.3201 479.677 36.7681 477.597 36.7681ZM478.077 33.6001C479.805 33.6001 481.357 33.2161 482.733 32.4481C484.141 31.6801 485.245 30.5921 486.045 29.1841C486.845 27.7441 487.245 26.0961 487.245 24.2401V21.9361C487.245 20.1441 486.845 18.5761 486.045 17.2321C485.245 15.8561 484.141 14.7841 482.733 14.0161C481.357 13.2481 479.789 12.8641 478.029 12.8641C476.141 12.8641 474.493 13.3281 473.085 14.2561C471.709 15.1521 470.637 16.3841 469.869 17.9521C469.133 19.5201 468.765 21.2801 468.765 23.2321C468.765 25.2481 469.149 27.0401 469.917 28.6081C470.685 30.1761 471.773 31.4081 473.181 32.3041C474.589 33.1681 476.221 33.6001 478.077 33.6001ZM501.338 35.9521V10.5601H504.89V35.9521H501.338ZM497.258 13.4401V10.5601H504.89V13.4401H497.258ZM502.106 5.85615C501.242 5.85615 500.586 5.63215 500.138 5.18415C499.722 4.70415 499.514 4.11215 499.514 3.40815C499.514 2.70415 499.722 2.12815 500.138 1.68015C500.586 1.20015 501.242 0.960147 502.106 0.960147C502.97 0.960147 503.61 1.20015 504.026 1.68015C504.442 2.12815 504.65 2.70415 504.65 3.40815C504.65 4.11215 504.442 4.70415 504.026 5.18415C503.61 5.63215 502.97 5.85615 502.106 5.85615ZM525.714 36.7681C523.538 36.7681 521.618 36.4001 519.954 35.6641C518.322 34.8961 516.93 33.8881 515.778 32.6401C514.658 31.3601 513.794 29.9361 513.186 28.3681C512.61 26.8001 512.322 25.2001 512.322 23.5681V22.8961C512.322 21.2641 512.626 19.6641 513.234 18.0961C513.842 16.4961 514.722 15.0721 515.874 13.8241C517.026 12.5761 518.418 11.5841 520.05 10.8481C521.714 10.0801 523.602 9.69615 525.714 9.69615C527.858 9.69615 529.746 10.0801 531.378 10.8481C533.042 11.5841 534.45 12.5761 535.602 13.8241C536.754 15.0721 537.618 16.4961 538.194 18.0961C538.802 19.6641 539.106 21.2641 539.106 22.8961V23.5681C539.106 25.2001 538.818 26.8001 538.242 28.3681C537.666 29.9361 536.802 31.3601 535.65 32.6401C534.53 33.8881 533.138 34.8961 531.474 35.6641C529.81 36.4001 527.89 36.7681 525.714 36.7681ZM525.714 33.5521C527.826 33.5521 529.602 33.0881 531.042 32.1601C532.514 31.2001 533.634 29.9521 534.402 28.4161C535.17 26.8481 535.554 25.1201 535.554 23.2321C535.554 21.3121 535.154 19.5841 534.354 18.0481C533.586 16.4801 532.466 15.2481 530.994 14.3521C529.522 13.4241 527.762 12.9601 525.714 12.9601C523.698 12.9601 521.954 13.4241 520.482 14.3521C519.01 15.2481 517.874 16.4801 517.074 18.0481C516.306 19.5841 515.922 21.3121 515.922 23.2321C515.922 25.1201 516.306 26.8481 517.074 28.4161C517.842 29.9521 518.946 31.2001 520.386 32.1601C521.858 33.0881 523.634 33.5521 525.714 33.5521Z" fill="url(#paint0_radial_581_1382)"/>
<defs>
<radialGradient id="paint0_radial_581_1382" cx="0" cy="0" r="1" gradientUnits="userSpaceOnUse" gradientTransform="translate(367.916 19.9521) rotate(90) scale(30 369.5)">
<stop stop-color="#5A69EA"/>
<stop offset="1" stop-color="#BF8BCA"/>
</radialGradient>
</defs>
</svg>
