<svg width="370" height="23" viewBox="0 0 370 23" fill="none" xmlns="http://www.w3.org/2000/svg">
<path d="M4.84703 17.52L-0.000968754 1.90735e-05H1.87103L6.26303 16.344L5.42303 15.864H7.75103L6.83903 16.344L10.415 0.768019H12.143L8.20703 17.52H4.84703ZM15.383 17.52L11.063 0.768019H12.839L16.823 16.344L15.935 15.864H18.311L17.399 16.344L21.359 1.90735e-05H23.183L18.743 17.52H15.383ZM26.3085 17.52V1.90735e-05H28.1085V9.91202L27.5805 10.32C27.5805 9.13602 27.7485 8.10402 28.0845 7.22402C28.4365 6.34402 28.9565 5.66402 29.6445 5.18402C30.3485 4.68802 31.2285 4.44002 32.2845 4.44002H32.3805C33.9165 4.44002 35.0765 4.94402 35.8605 5.95202C36.6605 6.96002 37.0605 8.36002 37.0605 10.152V17.52H35.2845V9.76802C35.2845 8.63202 34.9725 7.73602 34.3485 7.08002C33.7245 6.42402 32.8845 6.09602 31.8285 6.09602C30.6925 6.09602 29.7885 6.46402 29.1165 7.20002C28.4445 7.92002 28.1085 8.87202 28.1085 10.056V17.52H26.3085ZM46.8468 17.928C45.7588 17.928 44.8148 17.744 44.0148 17.376C43.2148 16.992 42.5588 16.488 42.0468 15.864C41.5348 15.224 41.1508 14.512 40.8948 13.728C40.6548 12.944 40.5348 12.136 40.5348 11.304V10.968C40.5348 10.152 40.6548 9.35202 40.8948 8.56802C41.1508 7.78402 41.5348 7.08002 42.0468 6.45602C42.5588 5.83202 43.1988 5.33602 43.9668 4.96802C44.7508 4.58402 45.6628 4.39202 46.7028 4.39202C48.0308 4.39202 49.1348 4.68802 50.0148 5.28002C50.9108 5.87202 51.5828 6.63202 52.0308 7.56002C52.4788 8.47202 52.7028 9.45602 52.7028 10.512V11.448H41.3508V10.056H51.4548L50.9988 10.752C50.9988 9.80802 50.8308 8.98402 50.4948 8.28002C50.1748 7.56002 49.6948 7.00002 49.0548 6.60002C48.4308 6.18402 47.6468 5.97602 46.7028 5.97602C45.7108 5.97602 44.8868 6.20802 44.2308 6.67202C43.5748 7.13602 43.0788 7.75202 42.7428 8.52002C42.4228 9.28802 42.2628 10.16 42.2628 11.136C42.2628 12.096 42.4228 12.976 42.7428 13.776C43.0788 14.56 43.5828 15.184 44.2548 15.648C44.9428 16.112 45.8068 16.344 46.8468 16.344C47.9508 16.344 48.8468 16.096 49.5348 15.6C50.2228 15.088 50.6468 14.488 50.8068 13.8H52.4868C52.3268 14.648 51.9908 15.384 51.4788 16.008C50.9668 16.616 50.3188 17.088 49.5348 17.424C48.7508 17.76 47.8548 17.928 46.8468 17.928ZM56.1678 17.52V4.82402H57.6078V10.128H57.4638C57.4638 8.27202 57.8718 6.90402 58.6878 6.02402C59.5038 5.12802 60.7838 4.68002 62.5278 4.68002H62.9358V6.31202H62.1918C60.8158 6.31202 59.7678 6.67202 59.0478 7.39202C58.3278 8.09602 57.9678 9.13602 57.9678 10.512V17.52H56.1678ZM70.9875 17.928C69.8995 17.928 68.9555 17.744 68.1555 17.376C67.3555 16.992 66.6995 16.488 66.1875 15.864C65.6755 15.224 65.2915 14.512 65.0355 13.728C64.7955 12.944 64.6755 12.136 64.6755 11.304V10.968C64.6755 10.152 64.7955 9.35202 65.0355 8.56802C65.2915 7.78402 65.6755 7.08002 66.1875 6.45602C66.6995 5.83202 67.3395 5.33602 68.1075 4.96802C68.8915 4.58402 69.8035 4.39202 70.8435 4.39202C72.1715 4.39202 73.2755 4.68802 74.1555 5.28002C75.0515 5.87202 75.7235 6.63202 76.1715 7.56002C76.6195 8.47202 76.8435 9.45602 76.8435 10.512V11.448H65.4915V10.056H75.5955L75.1395 10.752C75.1395 9.80802 74.9715 8.98402 74.6355 8.28002C74.3155 7.56002 73.8355 7.00002 73.1955 6.60002C72.5715 6.18402 71.7875 5.97602 70.8435 5.97602C69.8515 5.97602 69.0275 6.20802 68.3715 6.67202C67.7155 7.13602 67.2195 7.75202 66.8835 8.52002C66.5635 9.28802 66.4035 10.16 66.4035 11.136C66.4035 12.096 66.5635 12.976 66.8835 13.776C67.2195 14.56 67.7235 15.184 68.3955 15.648C69.0835 16.112 69.9475 16.344 70.9875 16.344C72.0915 16.344 72.9875 16.096 73.6755 15.6C74.3635 15.088 74.7875 14.488 74.9475 13.8H76.6275C76.4675 14.648 76.1315 15.384 75.6195 16.008C75.1075 16.616 74.4595 17.088 73.6755 17.424C72.8915 17.76 71.9955 17.928 70.9875 17.928ZM93.638 17.52V13.704H93.35V9.19202C93.35 8.24802 93.102 7.52802 92.606 7.03202C92.11 6.52002 91.342 6.26402 90.302 6.26402C89.822 6.26402 89.334 6.27202 88.838 6.28802C88.358 6.30402 87.894 6.32802 87.446 6.36002C87.014 6.37602 86.63 6.40002 86.294 6.43202V4.84802C86.646 4.81602 87.006 4.78402 87.374 4.75202C87.742 4.72002 88.118 4.70402 88.502 4.70402C88.902 4.68802 89.286 4.68002 89.654 4.68002C90.95 4.68002 91.99 4.84002 92.774 5.16002C93.574 5.48002 94.158 5.98402 94.526 6.67202C94.894 7.34402 95.078 8.24002 95.078 9.36002V17.52H93.638ZM89.342 17.856C88.446 17.856 87.654 17.696 86.966 17.376C86.278 17.056 85.742 16.592 85.358 15.984C84.99 15.376 84.806 14.64 84.806 13.776C84.806 12.928 84.998 12.208 85.382 11.616C85.782 11.024 86.35 10.576 87.086 10.272C87.838 9.95202 88.742 9.79202 89.798 9.79202H93.518V11.16H89.678C88.67 11.16 87.894 11.408 87.35 11.904C86.822 12.384 86.558 13.016 86.558 13.8C86.558 14.6 86.838 15.24 87.398 15.72C87.958 16.184 88.718 16.416 89.678 16.416C90.27 16.416 90.838 16.312 91.382 16.104C91.926 15.88 92.382 15.512 92.75 15C93.118 14.472 93.318 13.752 93.35 12.84L93.878 13.584C93.814 14.528 93.59 15.32 93.206 15.96C92.822 16.584 92.302 17.056 91.646 17.376C90.99 17.696 90.222 17.856 89.342 17.856ZM104.422 22.488C103.83 22.488 103.23 22.456 102.622 22.392C102.03 22.344 101.462 22.28 100.918 22.2V20.664C101.494 20.744 102.094 20.808 102.718 20.856C103.358 20.92 103.958 20.952 104.518 20.952C105.734 20.952 106.702 20.792 107.422 20.472C108.142 20.152 108.654 19.64 108.958 18.936C109.278 18.248 109.438 17.336 109.438 16.2V13.656L110.11 11.88C110.078 13.096 109.822 14.144 109.342 15.024C108.862 15.888 108.214 16.552 107.398 17.016C106.582 17.48 105.654 17.712 104.614 17.712C103.702 17.712 102.87 17.536 102.118 17.184C101.382 16.832 100.75 16.352 100.222 15.744C99.6941 15.12 99.2861 14.416 98.9981 13.632C98.7101 12.848 98.5661 12.024 98.5661 11.16V10.824C98.5661 9.97602 98.7101 9.16802 98.9981 8.40002C99.2861 7.61602 99.6941 6.92802 100.222 6.33602C100.75 5.72802 101.39 5.25602 102.142 4.92002C102.91 4.56802 103.758 4.39202 104.686 4.39202C105.806 4.39202 106.782 4.64002 107.614 5.13602C108.446 5.63202 109.094 6.32002 109.558 7.20002C110.038 8.08002 110.294 9.11202 110.326 10.296L109.75 9.98402V4.82402H111.166V16.128C111.166 17.648 110.942 18.872 110.494 19.8C110.046 20.728 109.326 21.408 108.334 21.84C107.358 22.272 106.054 22.488 104.422 22.488ZM104.926 16.056C105.79 16.056 106.558 15.872 107.23 15.504C107.918 15.12 108.462 14.584 108.862 13.896C109.262 13.208 109.462 12.408 109.462 11.496V10.32C109.462 9.44002 109.254 8.67202 108.838 8.01602C108.438 7.36002 107.902 6.84802 107.23 6.48002C106.558 6.11202 105.79 5.92802 104.926 5.92802C103.998 5.92802 103.19 6.15202 102.502 6.60002C101.814 7.04802 101.286 7.65602 100.918 8.42402C100.55 9.17602 100.366 10.032 100.366 10.992C100.366 11.968 100.55 12.84 100.918 13.608C101.302 14.376 101.838 14.976 102.526 15.408C103.214 15.84 104.014 16.056 104.926 16.056ZM120.98 17.928C119.892 17.928 118.948 17.744 118.148 17.376C117.348 16.992 116.692 16.488 116.18 15.864C115.668 15.224 115.284 14.512 115.028 13.728C114.788 12.944 114.668 12.136 114.668 11.304V10.968C114.668 10.152 114.788 9.35202 115.028 8.56802C115.284 7.78402 115.668 7.08002 116.18 6.45602C116.692 5.83202 117.332 5.33602 118.1 4.96802C118.884 4.58402 119.796 4.39202 120.836 4.39202C122.164 4.39202 123.268 4.68802 124.148 5.28002C125.044 5.87202 125.716 6.63202 126.164 7.56002C126.612 8.47202 126.836 9.45602 126.836 10.512V11.448H115.484V10.056H125.588L125.132 10.752C125.132 9.80802 124.964 8.98402 124.628 8.28002C124.308 7.56002 123.828 7.00002 123.188 6.60002C122.564 6.18402 121.78 5.97602 120.836 5.97602C119.844 5.97602 119.02 6.20802 118.364 6.67202C117.708 7.13602 117.212 7.75202 116.876 8.52002C116.556 9.28802 116.396 10.16 116.396 11.136C116.396 12.096 116.556 12.976 116.876 13.776C117.212 14.56 117.716 15.184 118.388 15.648C119.076 16.112 119.94 16.344 120.98 16.344C122.084 16.344 122.98 16.096 123.668 15.6C124.356 15.088 124.78 14.488 124.94 13.8H126.62C126.46 14.648 126.124 15.384 125.612 16.008C125.1 16.616 124.452 17.088 123.668 17.424C122.884 17.76 121.988 17.928 120.98 17.928ZM130.301 17.52V4.82402H131.741V10.152H131.453C131.453 8.96802 131.629 7.95202 131.981 7.10402C132.333 6.25602 132.861 5.60002 133.565 5.13602C134.269 4.67202 135.157 4.44002 136.229 4.44002H136.301C137.901 4.44002 139.093 4.94402 139.877 5.95202C140.661 6.94402 141.053 8.34402 141.053 10.152V17.52H139.277V9.76802C139.277 8.66402 138.973 7.77602 138.365 7.10402C137.757 6.43202 136.909 6.09602 135.821 6.09602C134.701 6.09602 133.797 6.44802 133.109 7.15202C132.437 7.84002 132.101 8.75202 132.101 9.88802V17.52H130.301ZM150.887 17.928C149.815 17.928 148.879 17.744 148.079 17.376C147.295 16.992 146.639 16.48 146.111 15.84C145.583 15.184 145.183 14.464 144.911 13.68C144.655 12.896 144.527 12.104 144.527 11.304V10.968C144.527 10.152 144.655 9.36002 144.911 8.59202C145.183 7.80802 145.583 7.10402 146.111 6.48002C146.639 5.84002 147.295 5.33602 148.079 4.96802C148.879 4.58402 149.799 4.39202 150.839 4.39202C151.895 4.39202 152.831 4.58402 153.647 4.96802C154.479 5.35202 155.151 5.89602 155.663 6.60002C156.175 7.30402 156.479 8.13602 156.575 9.09602H154.847C154.703 8.21602 154.287 7.48802 153.599 6.91202C152.927 6.32002 152.007 6.02402 150.839 6.02402C149.831 6.02402 148.991 6.25602 148.319 6.72002C147.663 7.16802 147.167 7.78402 146.831 8.56802C146.495 9.33602 146.327 10.192 146.327 11.136C146.327 12.064 146.495 12.928 146.831 13.728C147.167 14.512 147.671 15.144 148.343 15.624C149.015 16.088 149.863 16.32 150.887 16.32C151.671 16.32 152.351 16.184 152.927 15.912C153.519 15.624 153.991 15.24 154.343 14.76C154.711 14.28 154.927 13.752 154.991 13.176H156.719C156.655 14.136 156.351 14.976 155.807 15.696C155.279 16.4 154.591 16.952 153.743 17.352C152.895 17.736 151.943 17.928 150.887 17.928ZM160.691 17.52V4.82402H162.467V17.52H160.691ZM158.651 6.26402V4.82402H162.467V6.26402H158.651ZM161.075 2.47202C160.643 2.47202 160.315 2.36002 160.091 2.13602C159.883 1.89602 159.779 1.60002 159.779 1.24802C159.779 0.896019 159.883 0.608018 160.091 0.384018C160.315 0.144019 160.643 0.0240188 161.075 0.0240188C161.507 0.0240188 161.827 0.144019 162.035 0.384018C162.243 0.608018 162.347 0.896019 162.347 1.24802C162.347 1.60002 162.243 1.89602 162.035 2.13602C161.827 2.36002 161.507 2.47202 161.075 2.47202ZM172.495 17.928C171.407 17.928 170.463 17.744 169.663 17.376C168.863 16.992 168.207 16.488 167.695 15.864C167.183 15.224 166.799 14.512 166.543 13.728C166.303 12.944 166.183 12.136 166.183 11.304V10.968C166.183 10.152 166.303 9.35202 166.543 8.56802C166.799 7.78402 167.183 7.08002 167.695 6.45602C168.207 5.83202 168.847 5.33602 169.615 4.96802C170.399 4.58402 171.311 4.39202 172.351 4.39202C173.679 4.39202 174.783 4.68802 175.663 5.28002C176.559 5.87202 177.231 6.63202 177.679 7.56002C178.127 8.47202 178.351 9.45602 178.351 10.512V11.448H166.999V10.056H177.103L176.647 10.752C176.647 9.80802 176.479 8.98402 176.143 8.28002C175.823 7.56002 175.343 7.00002 174.703 6.60002C174.079 6.18402 173.295 5.97602 172.351 5.97602C171.359 5.97602 170.535 6.20802 169.879 6.67202C169.223 7.13602 168.727 7.75202 168.391 8.52002C168.071 9.28802 167.911 10.16 167.911 11.136C167.911 12.096 168.071 12.976 168.391 13.776C168.727 14.56 169.231 15.184 169.903 15.648C170.591 16.112 171.455 16.344 172.495 16.344C173.599 16.344 174.495 16.096 175.183 15.6C175.871 15.088 176.295 14.488 176.455 13.8H178.135C177.975 14.648 177.639 15.384 177.127 16.008C176.615 16.616 175.967 17.088 175.183 17.424C174.399 17.76 173.503 17.928 172.495 17.928ZM185.824 17.88C184.192 17.88 182.936 17.528 182.056 16.824C181.176 16.104 180.728 15.144 180.712 13.944H182.392C182.424 14.552 182.696 15.104 183.208 15.6C183.736 16.096 184.608 16.344 185.824 16.344C186.96 16.344 187.808 16.112 188.368 15.648C188.944 15.168 189.232 14.592 189.232 13.92C189.232 13.296 188.992 12.816 188.512 12.48C188.048 12.128 187.368 11.904 186.472 11.808L185.032 11.664C183.88 11.536 182.944 11.184 182.224 10.608C181.52 10.016 181.168 9.20802 181.168 8.18402C181.168 7.43202 181.36 6.77602 181.744 6.21602C182.128 5.65602 182.664 5.22402 183.352 4.92002C184.056 4.60002 184.88 4.44002 185.824 4.44002C187.184 4.44002 188.288 4.76002 189.136 5.40002C190 6.04002 190.44 6.95202 190.456 8.13602H188.776C188.76 7.52802 188.504 7.01602 188.008 6.60002C187.512 6.18402 186.784 5.97602 185.824 5.97602C184.832 5.97602 184.088 6.19202 183.592 6.62402C183.112 7.05602 182.872 7.58402 182.872 8.20802C182.872 8.73602 183.056 9.17602 183.424 9.52802C183.792 9.86402 184.368 10.072 185.152 10.152L186.592 10.296C187.872 10.44 188.912 10.808 189.712 11.4C190.528 11.992 190.936 12.84 190.936 13.944C190.936 14.696 190.72 15.376 190.288 15.984C189.872 16.576 189.28 17.04 188.512 17.376C187.744 17.712 186.848 17.88 185.824 17.88ZM205.425 17.928C204.337 17.928 203.393 17.744 202.593 17.376C201.793 16.992 201.137 16.488 200.625 15.864C200.113 15.224 199.729 14.512 199.473 13.728C199.233 12.944 199.113 12.136 199.113 11.304V10.968C199.113 10.152 199.233 9.35202 199.473 8.56802C199.729 7.78402 200.113 7.08002 200.625 6.45602C201.137 5.83202 201.777 5.33602 202.545 4.96802C203.329 4.58402 204.241 4.39202 205.281 4.39202C206.609 4.39202 207.713 4.68802 208.593 5.28002C209.489 5.87202 210.161 6.63202 210.609 7.56002C211.057 8.47202 211.281 9.45602 211.281 10.512V11.448H199.929V10.056H210.033L209.577 10.752C209.577 9.80802 209.409 8.98402 209.073 8.28002C208.753 7.56002 208.273 7.00002 207.633 6.60002C207.009 6.18402 206.225 5.97602 205.281 5.97602C204.289 5.97602 203.465 6.20802 202.809 6.67202C202.153 7.13602 201.657 7.75202 201.321 8.52002C201.001 9.28802 200.841 10.16 200.841 11.136C200.841 12.096 201.001 12.976 201.321 13.776C201.657 14.56 202.161 15.184 202.833 15.648C203.521 16.112 204.385 16.344 205.425 16.344C206.529 16.344 207.425 16.096 208.113 15.6C208.801 15.088 209.225 14.488 209.385 13.8H211.065C210.905 14.648 210.569 15.384 210.057 16.008C209.545 16.616 208.897 17.088 208.113 17.424C207.329 17.76 206.433 17.928 205.425 17.928ZM214.746 17.52V4.82402H216.186V10.152H215.898C215.898 8.96802 216.074 7.95202 216.426 7.10402C216.778 6.25602 217.306 5.60002 218.01 5.13602C218.714 4.67202 219.602 4.44002 220.674 4.44002H220.746C222.346 4.44002 223.538 4.94402 224.322 5.95202C225.106 6.94402 225.498 8.34402 225.498 10.152V17.52H223.722V9.76802C223.722 8.66402 223.418 7.77602 222.81 7.10402C222.202 6.43202 221.354 6.09602 220.266 6.09602C219.146 6.09602 218.242 6.44802 217.554 7.15202C216.882 7.84002 216.546 8.75202 216.546 9.88802V17.52H214.746ZM235.188 17.928C234.26 17.928 233.412 17.76 232.644 17.424C231.892 17.072 231.236 16.592 230.676 15.984C230.132 15.36 229.708 14.656 229.404 13.872C229.116 13.072 228.972 12.224 228.972 11.328V10.992C228.972 10.128 229.116 9.30402 229.404 8.52002C229.692 7.72002 230.1 7.01602 230.628 6.40802C231.172 5.78402 231.82 5.29602 232.572 4.94402C233.34 4.57602 234.196 4.39202 235.14 4.39202C236.212 4.39202 237.156 4.62402 237.972 5.08802C238.788 5.55202 239.444 6.22402 239.94 7.10402C240.436 7.96802 240.7 9.03202 240.732 10.296L239.94 8.80802V1.90735e-05H241.74V17.52H240.3V11.88H240.876C240.844 13.208 240.564 14.328 240.036 15.24C239.524 16.136 238.844 16.808 237.996 17.256C237.164 17.704 236.228 17.928 235.188 17.928ZM235.428 16.344C236.292 16.344 237.068 16.152 237.756 15.768C238.46 15.384 239.012 14.84 239.412 14.136C239.812 13.416 240.012 12.592 240.012 11.664V10.512C240.012 9.61602 239.812 8.83202 239.412 8.16002C239.012 7.47202 238.46 6.93602 237.756 6.55202C237.068 6.16802 236.284 5.97602 235.404 5.97602C234.46 5.97602 233.636 6.20802 232.932 6.67202C232.244 7.12002 231.708 7.73602 231.324 8.52002C230.956 9.30402 230.772 10.184 230.772 11.16C230.772 12.168 230.964 13.064 231.348 13.848C231.732 14.632 232.276 15.248 232.98 15.696C233.684 16.128 234.5 16.344 235.428 16.344ZM246.363 21.192L244.899 20.664L246.987 14.88L248.499 15.432L246.363 21.192Z" fill="#717171"/>
<path d="M261.728 17.52L264.44 5.23202H266.96L270.104 17.52H268.544L265.4 5.30402H265.976L263.24 17.52H261.728ZM260.696 17.52V16.056H262.88V17.52H260.696ZM260.264 17.52L256.592 4.82402H258.32L261.944 17.52H260.264ZM268.952 17.52V16.056H271.088V17.52H268.952ZM269.888 17.52L273.056 4.82402H274.712L271.472 17.52H269.888ZM283.12 17.928C282.032 17.928 281.088 17.744 280.288 17.376C279.488 16.992 278.832 16.488 278.32 15.864C277.808 15.224 277.424 14.512 277.168 13.728C276.928 12.944 276.808 12.136 276.808 11.304V10.968C276.808 10.152 276.928 9.35202 277.168 8.56802C277.424 7.78402 277.808 7.08002 278.32 6.45602C278.832 5.83202 279.472 5.33602 280.24 4.96802C281.024 4.58402 281.936 4.39202 282.976 4.39202C284.304 4.39202 285.408 4.68802 286.288 5.28002C287.184 5.87202 287.856 6.63202 288.304 7.56002C288.752 8.47202 288.976 9.45602 288.976 10.512V11.448H277.624V10.056H287.728L287.272 10.752C287.272 9.80802 287.104 8.98402 286.768 8.28002C286.448 7.56002 285.968 7.00002 285.328 6.60002C284.704 6.18402 283.92 5.97602 282.976 5.97602C281.984 5.97602 281.16 6.20802 280.504 6.67202C279.848 7.13602 279.352 7.75202 279.016 8.52002C278.696 9.28802 278.536 10.16 278.536 11.136C278.536 12.096 278.696 12.976 279.016 13.776C279.352 14.56 279.856 15.184 280.528 15.648C281.216 16.112 282.08 16.344 283.12 16.344C284.224 16.344 285.12 16.096 285.808 15.6C286.496 15.088 286.92 14.488 287.08 13.8H288.76C288.6 14.648 288.264 15.384 287.752 16.008C287.24 16.616 286.592 17.088 285.808 17.424C285.024 17.76 284.128 17.928 283.12 17.928ZM304.595 17.928C303.475 17.928 302.491 17.68 301.643 17.184C300.811 16.688 300.155 15.992 299.675 15.096C299.211 14.2 298.963 13.168 298.931 12H299.483V17.52H298.043V1.90735e-05H299.843V8.76002L299.147 10.368C299.179 9.08802 299.435 8.00802 299.915 7.12802C300.411 6.23202 301.067 5.55202 301.883 5.08802C302.715 4.62402 303.659 4.39202 304.715 4.39202C305.643 4.39202 306.483 4.56802 307.235 4.92002C307.987 5.27202 308.627 5.75202 309.155 6.36002C309.699 6.96802 310.107 7.67202 310.379 8.47202C310.667 9.25602 310.811 10.088 310.811 10.968V11.304C310.811 12.168 310.667 13 310.379 13.8C310.091 14.584 309.675 15.288 309.131 15.912C308.603 16.536 307.955 17.032 307.187 17.4C306.419 17.752 305.555 17.928 304.595 17.928ZM304.403 16.344C305.363 16.344 306.187 16.112 306.875 15.648C307.563 15.184 308.091 14.56 308.459 13.776C308.827 12.992 309.011 12.112 309.011 11.136C309.011 10.144 308.819 9.26402 308.435 8.49602C308.067 7.71202 307.531 7.09602 306.827 6.64802C306.139 6.20002 305.331 5.97602 304.403 5.97602C303.539 5.97602 302.755 6.16802 302.051 6.55202C301.347 6.93602 300.787 7.48002 300.371 8.18402C299.971 8.87202 299.771 9.68802 299.771 10.632V11.808C299.771 12.704 299.971 13.496 300.371 14.184C300.787 14.856 301.347 15.384 302.051 15.768C302.755 16.152 303.539 16.344 304.403 16.344ZM319.753 17.928C318.665 17.928 317.721 17.744 316.921 17.376C316.121 16.992 315.465 16.488 314.953 15.864C314.441 15.224 314.057 14.512 313.801 13.728C313.561 12.944 313.441 12.136 313.441 11.304V10.968C313.441 10.152 313.561 9.35202 313.801 8.56802C314.057 7.78402 314.441 7.08002 314.953 6.45602C315.465 5.83202 316.105 5.33602 316.873 4.96802C317.657 4.58402 318.569 4.39202 319.609 4.39202C320.937 4.39202 322.041 4.68802 322.921 5.28002C323.817 5.87202 324.489 6.63202 324.937 7.56002C325.385 8.47202 325.609 9.45602 325.609 10.512V11.448H314.257V10.056H324.361L323.905 10.752C323.905 9.80802 323.737 8.98402 323.401 8.28002C323.081 7.56002 322.601 7.00002 321.961 6.60002C321.337 6.18402 320.553 5.97602 319.609 5.97602C318.617 5.97602 317.793 6.20802 317.137 6.67202C316.481 7.13602 315.985 7.75202 315.649 8.52002C315.329 9.28802 315.169 10.16 315.169 11.136C315.169 12.096 315.329 12.976 315.649 13.776C315.985 14.56 316.489 15.184 317.161 15.648C317.849 16.112 318.713 16.344 319.753 16.344C320.857 16.344 321.753 16.096 322.441 15.6C323.129 15.088 323.553 14.488 323.713 13.8H325.393C325.233 14.648 324.897 15.384 324.385 16.008C323.873 16.616 323.225 17.088 322.441 17.424C321.657 17.76 320.761 17.928 319.753 17.928ZM333.922 22.488C333.33 22.488 332.73 22.456 332.122 22.392C331.53 22.344 330.962 22.28 330.418 22.2V20.664C330.994 20.744 331.594 20.808 332.218 20.856C332.858 20.92 333.458 20.952 334.018 20.952C335.234 20.952 336.202 20.792 336.922 20.472C337.642 20.152 338.154 19.64 338.458 18.936C338.778 18.248 338.938 17.336 338.938 16.2V13.656L339.61 11.88C339.578 13.096 339.322 14.144 338.842 15.024C338.362 15.888 337.714 16.552 336.898 17.016C336.082 17.48 335.154 17.712 334.114 17.712C333.202 17.712 332.37 17.536 331.618 17.184C330.882 16.832 330.25 16.352 329.722 15.744C329.194 15.12 328.786 14.416 328.498 13.632C328.21 12.848 328.066 12.024 328.066 11.16V10.824C328.066 9.97602 328.21 9.16802 328.498 8.40002C328.786 7.61602 329.194 6.92802 329.722 6.33602C330.25 5.72802 330.89 5.25602 331.642 4.92002C332.41 4.56802 333.258 4.39202 334.186 4.39202C335.306 4.39202 336.282 4.64002 337.114 5.13602C337.946 5.63202 338.594 6.32002 339.058 7.20002C339.538 8.08002 339.794 9.11202 339.826 10.296L339.25 9.98402V4.82402H340.666V16.128C340.666 17.648 340.442 18.872 339.994 19.8C339.546 20.728 338.826 21.408 337.834 21.84C336.858 22.272 335.554 22.488 333.922 22.488ZM334.426 16.056C335.29 16.056 336.058 15.872 336.73 15.504C337.418 15.12 337.962 14.584 338.362 13.896C338.762 13.208 338.962 12.408 338.962 11.496V10.32C338.962 9.44002 338.754 8.67202 338.338 8.01602C337.938 7.36002 337.402 6.84802 336.73 6.48002C336.058 6.11202 335.29 5.92802 334.426 5.92802C333.498 5.92802 332.69 6.15202 332.002 6.60002C331.314 7.04802 330.786 7.65602 330.418 8.42402C330.05 9.17602 329.866 10.032 329.866 10.992C329.866 11.968 330.05 12.84 330.418 13.608C330.802 14.376 331.338 14.976 332.026 15.408C332.714 15.84 333.514 16.056 334.426 16.056ZM345.848 17.52V4.82402H347.624V17.52H345.848ZM343.808 6.26402V4.82402H347.624V6.26402H343.808ZM346.232 2.47202C345.8 2.47202 345.472 2.36002 345.248 2.13602C345.04 1.89602 344.936 1.60002 344.936 1.24802C344.936 0.896019 345.04 0.608018 345.248 0.384018C345.472 0.144019 345.8 0.0240188 346.232 0.0240188C346.664 0.0240188 346.984 0.144019 347.192 0.384018C347.4 0.608018 347.504 0.896019 347.504 1.24802C347.504 1.60002 347.4 1.89602 347.192 2.13602C346.984 2.36002 346.664 2.47202 346.232 2.47202ZM352.348 17.52V4.82402H353.788V10.152H353.5C353.5 8.96802 353.676 7.95202 354.028 7.10402C354.38 6.25602 354.908 5.60002 355.612 5.13602C356.316 4.67202 357.204 4.44002 358.276 4.44002H358.348C359.948 4.44002 361.14 4.94402 361.924 5.95202C362.708 6.94402 363.1 8.34402 363.1 10.152V17.52H361.324V9.76802C361.324 8.66402 361.02 7.77602 360.412 7.10402C359.804 6.43202 358.956 6.09602 357.868 6.09602C356.748 6.09602 355.844 6.44802 355.156 7.15202C354.484 7.84002 354.148 8.75202 354.148 9.88802V17.52H352.348ZM367.222 17.52V15.144H369.478V17.52H367.222Z" fill="url(#paint0_radial_581_1383)"/>
<defs>
<radialGradient id="paint0_radial_581_1383" cx="0" cy="0" r="1" gradientUnits="userSpaceOnUse" gradientTransform="translate(185.707 9.52002) rotate(90) scale(15 186.5)">
<stop stop-color="#5A69EA"/>
<stop offset="1" stop-color="#BF8BCA"/>
</radialGradient>
</defs>
</svg>
