<svg width="184" height="54" viewBox="0 0 184 54" fill="none" xmlns="http://www.w3.org/2000/svg">
<g filter="url(#filter0_ddddii_1085_1970)">
<rect x="9" y="9" width="164" height="38" rx="15" fill="url(#paint0_linear_1085_1970)"/>
<path d="M25.596 33V22.738H26.66V33H25.596ZM31.938 33L28.452 28.478H29.698L33.24 33H31.938ZM26.226 29.122V28.17H28.97C29.474 28.17 29.894 28.072 30.23 27.876C30.566 27.68 30.818 27.414 30.986 27.078C31.154 26.742 31.238 26.3593 31.238 25.93C31.238 25.5007 31.154 25.118 30.986 24.782C30.818 24.446 30.566 24.18 30.23 23.984C29.894 23.7787 29.474 23.676 28.97 23.676H26.226V22.738H28.788C29.544 22.738 30.1833 22.8593 30.706 23.102C31.238 23.3353 31.6393 23.6853 31.91 24.152C32.19 24.6093 32.33 25.1693 32.33 25.832V26.028C32.33 26.6907 32.19 27.2553 31.91 27.722C31.63 28.1793 31.2287 28.5293 30.706 28.772C30.1833 29.0053 29.544 29.122 28.788 29.122H26.226ZM37.9266 33.238C37.2919 33.238 36.7413 33.1307 36.2746 32.916C35.8079 32.692 35.4253 32.398 35.1266 32.034C34.8279 31.6607 34.6039 31.2453 34.4546 30.788C34.3146 30.3307 34.2446 29.8593 34.2446 29.374V29.178C34.2446 28.702 34.3146 28.2353 34.4546 27.778C34.6039 27.3207 34.8279 26.91 35.1266 26.546C35.4253 26.182 35.7986 25.8927 36.2466 25.678C36.7039 25.454 37.2359 25.342 37.8426 25.342C38.6173 25.342 39.2613 25.5147 39.7746 25.86C40.2973 26.2053 40.6893 26.6487 40.9506 27.19C41.2119 27.722 41.3426 28.296 41.3426 28.912V29.458H34.7206V28.646H40.6146L40.3486 29.052C40.3486 28.5013 40.2506 28.0207 40.0546 27.61C39.8679 27.19 39.5879 26.8633 39.2146 26.63C38.8506 26.3873 38.3933 26.266 37.8426 26.266C37.2639 26.266 36.7833 26.4013 36.4006 26.672C36.0179 26.9427 35.7286 27.302 35.5326 27.75C35.3459 28.198 35.2526 28.7067 35.2526 29.276C35.2526 29.836 35.3459 30.3493 35.5326 30.816C35.7286 31.2733 36.0226 31.6373 36.4146 31.908C36.8159 32.1787 37.3199 32.314 37.9266 32.314C38.5706 32.314 39.0933 32.1693 39.4946 31.88C39.8959 31.5813 40.1433 31.2313 40.2366 30.83H41.2166C41.1233 31.3247 40.9273 31.754 40.6286 32.118C40.3299 32.4727 39.9519 32.748 39.4946 32.944C39.0373 33.14 38.5146 33.238 37.9266 33.238ZM46.4859 33.238C45.8605 33.238 45.3145 33.1307 44.8479 32.916C44.3905 32.692 44.0079 32.3933 43.6999 32.02C43.3919 31.6373 43.1585 31.2173 42.9999 30.76C42.8505 30.3027 42.7759 29.8407 42.7759 29.374V29.178C42.7759 28.702 42.8505 28.24 42.9999 27.792C43.1585 27.3347 43.3919 26.924 43.6999 26.56C44.0079 26.1867 44.3905 25.8927 44.8479 25.678C45.3145 25.454 45.8512 25.342 46.4579 25.342C47.0739 25.342 47.6199 25.454 48.0959 25.678C48.5812 25.902 48.9732 26.2193 49.2719 26.63C49.5705 27.0407 49.7479 27.526 49.8039 28.086H48.7959C48.7119 27.5727 48.4692 27.148 48.0679 26.812C47.6759 26.4667 47.1392 26.294 46.4579 26.294C45.8699 26.294 45.3799 26.4293 44.9879 26.7C44.6052 26.9613 44.3159 27.3207 44.1199 27.778C43.9239 28.226 43.8259 28.7253 43.8259 29.276C43.8259 29.8173 43.9239 30.3213 44.1199 30.788C44.3159 31.2453 44.6099 31.614 45.0019 31.894C45.3939 32.1647 45.8885 32.3 46.4859 32.3C46.9432 32.3 47.3399 32.2207 47.6759 32.062C48.0212 31.894 48.2965 31.67 48.5019 31.39C48.7165 31.11 48.8425 30.802 48.8799 30.466H49.8879C49.8505 31.026 49.6732 31.516 49.3559 31.936C49.0479 32.3467 48.6465 32.6687 48.1519 32.902C47.6572 33.126 47.1019 33.238 46.4859 33.238ZM54.9071 33.238C54.2724 33.238 53.7217 33.1307 53.2551 32.916C52.7884 32.692 52.4057 32.398 52.1071 32.034C51.8084 31.6607 51.5844 31.2453 51.4351 30.788C51.2951 30.3307 51.2251 29.8593 51.2251 29.374V29.178C51.2251 28.702 51.2951 28.2353 51.4351 27.778C51.5844 27.3207 51.8084 26.91 52.1071 26.546C52.4057 26.182 52.7791 25.8927 53.2271 25.678C53.6844 25.454 54.2164 25.342 54.8231 25.342C55.5977 25.342 56.2417 25.5147 56.7551 25.86C57.2777 26.2053 57.6697 26.6487 57.9311 27.19C58.1924 27.722 58.3231 28.296 58.3231 28.912V29.458H51.7011V28.646H57.5951L57.3291 29.052C57.3291 28.5013 57.2311 28.0207 57.0351 27.61C56.8484 27.19 56.5684 26.8633 56.1951 26.63C55.8311 26.3873 55.3737 26.266 54.8231 26.266C54.2444 26.266 53.7637 26.4013 53.3811 26.672C52.9984 26.9427 52.7091 27.302 52.5131 27.75C52.3264 28.198 52.2331 28.7067 52.2331 29.276C52.2331 29.836 52.3264 30.3493 52.5131 30.816C52.7091 31.2733 53.0031 31.6373 53.3951 31.908C53.7964 32.1787 54.3004 32.314 54.9071 32.314C55.5511 32.314 56.0737 32.1693 56.4751 31.88C56.8764 31.5813 57.1237 31.2313 57.2171 30.83H58.1971C58.1037 31.3247 57.9077 31.754 57.6091 32.118C57.3104 32.4727 56.9324 32.748 56.4751 32.944C56.0177 33.14 55.4951 33.238 54.9071 33.238ZM60.3443 33V25.594H61.1843V28.702H61.0163C61.0163 28.0113 61.119 27.4187 61.3243 26.924C61.5297 26.4293 61.8377 26.0467 62.2483 25.776C62.659 25.5053 63.177 25.37 63.8023 25.37H63.8443C64.7777 25.37 65.473 25.664 65.9303 26.252C66.3877 26.8307 66.6163 27.6473 66.6163 28.702V33H65.5803V28.478C65.5803 27.834 65.403 27.316 65.0483 26.924C64.6937 26.532 64.199 26.336 63.5643 26.336C62.911 26.336 62.3837 26.5413 61.9823 26.952C61.5903 27.3533 61.3943 27.8853 61.3943 28.548V33H60.3443ZM71.919 33.084C71.4057 33.084 70.9624 33.0093 70.589 32.86C70.2157 32.7107 69.9264 32.4587 69.721 32.104C69.5157 31.74 69.413 31.2547 69.413 30.648V23.256H70.421V30.802C70.421 31.2313 70.5377 31.5627 70.771 31.796C71.0044 32.02 71.3357 32.132 71.765 32.132H73.095V33.084H71.919ZM68.083 26.392V25.594H73.095V26.392H68.083ZM75.1936 33V22.78H76.2436V33H75.1936ZM74.1156 23.634V22.78H76.2436V23.634H74.1156ZM78.3074 35.884V34.946H79.2594C79.5861 34.946 79.8661 34.904 80.0994 34.82C80.3328 34.7453 80.5288 34.61 80.6874 34.414C80.8461 34.218 80.9814 33.9473 81.0934 33.602L83.5854 25.594H84.6074L82.0034 33.896C81.8541 34.372 81.6488 34.7547 81.3874 35.044C81.1261 35.3427 80.8134 35.5573 80.4494 35.688C80.0854 35.8187 79.6701 35.884 79.2034 35.884H78.3074ZM80.7154 32.818V31.936H82.0454V32.818H80.7154ZM80.5894 32.818L77.9014 25.594H78.9794L81.5694 32.818H80.5894ZM93.9255 33.238C92.9922 33.238 92.2175 33.0607 91.6015 32.706C90.9855 32.3513 90.5235 31.8567 90.2155 31.222C89.9075 30.578 89.7535 29.8407 89.7535 29.01V22.78H90.8175V29.136C90.8175 29.7613 90.9295 30.3073 91.1535 30.774C91.3868 31.2407 91.7322 31.6047 92.1895 31.866C92.6562 32.1273 93.2348 32.258 93.9255 32.258C94.6068 32.258 95.1762 32.132 95.6335 31.88C96.0908 31.6187 96.4362 31.2547 96.6695 30.788C96.9028 30.312 97.0195 29.7613 97.0195 29.136V22.78H98.0835V29.01C98.0835 29.8407 97.9295 30.578 97.6215 31.222C97.3135 31.8567 96.8515 32.3513 96.2355 32.706C95.6288 33.0607 94.8588 33.238 93.9255 33.238ZM100.84 35.8V25.594H101.68V28.772L101.428 28.8C101.466 28.0533 101.624 27.4233 101.904 26.91C102.194 26.3967 102.581 26.0093 103.066 25.748C103.561 25.4773 104.112 25.342 104.718 25.342C105.26 25.342 105.75 25.4493 106.188 25.664C106.636 25.8693 107.014 26.154 107.322 26.518C107.64 26.8727 107.878 27.2833 108.036 27.75C108.204 28.2073 108.288 28.688 108.288 29.192V29.388C108.288 29.892 108.204 30.3773 108.036 30.844C107.868 31.3013 107.626 31.712 107.308 32.076C107 32.4307 106.622 32.7153 106.174 32.93C105.736 33.1353 105.241 33.238 104.69 33.238C104.102 33.238 103.561 33.1073 103.066 32.846C102.581 32.5753 102.184 32.1787 101.876 31.656C101.578 31.1333 101.414 30.4893 101.386 29.724L101.89 30.774V35.8H100.84ZM104.55 32.314C105.11 32.314 105.591 32.1833 105.992 31.922C106.394 31.6513 106.702 31.2873 106.916 30.83C107.131 30.3633 107.238 29.85 107.238 29.29C107.238 28.7113 107.126 28.198 106.902 27.75C106.688 27.2927 106.38 26.9333 105.978 26.672C105.577 26.4013 105.101 26.266 104.55 26.266C104.046 26.266 103.589 26.378 103.178 26.602C102.768 26.826 102.441 27.1433 102.198 27.554C101.965 27.9553 101.848 28.4313 101.848 28.982V29.668C101.848 30.1907 101.965 30.6527 102.198 31.054C102.441 31.446 102.768 31.754 103.178 31.978C103.589 32.202 104.046 32.314 104.55 32.314ZM110.481 33V22.78H111.531V33H110.481ZM109.403 23.634V22.78H111.531V23.634H109.403ZM117.571 33.238C116.936 33.238 116.376 33.1307 115.891 32.916C115.415 32.692 115.009 32.398 114.673 32.034C114.346 31.6607 114.094 31.2453 113.917 30.788C113.749 30.3307 113.665 29.864 113.665 29.388V29.192C113.665 28.716 113.753 28.2493 113.931 27.792C114.108 27.3253 114.365 26.91 114.701 26.546C115.037 26.182 115.443 25.8927 115.919 25.678C116.404 25.454 116.955 25.342 117.571 25.342C118.196 25.342 118.747 25.454 119.223 25.678C119.708 25.8927 120.119 26.182 120.455 26.546C120.791 26.91 121.043 27.3253 121.211 27.792C121.388 28.2493 121.477 28.716 121.477 29.192V29.388C121.477 29.864 121.393 30.3307 121.225 30.788C121.057 31.2453 120.805 31.6607 120.469 32.034C120.142 32.398 119.736 32.692 119.251 32.916C118.765 33.1307 118.205 33.238 117.571 33.238ZM117.571 32.3C118.187 32.3 118.705 32.1647 119.125 31.894C119.554 31.614 119.881 31.25 120.105 30.802C120.329 30.3447 120.441 29.8407 120.441 29.29C120.441 28.73 120.324 28.226 120.091 27.778C119.867 27.3207 119.54 26.9613 119.111 26.7C118.681 26.4293 118.168 26.294 117.571 26.294C116.983 26.294 116.474 26.4293 116.045 26.7C115.615 26.9613 115.284 27.3207 115.051 27.778C114.827 28.226 114.715 28.73 114.715 29.29C114.715 29.8407 114.827 30.3447 115.051 30.802C115.275 31.25 115.597 31.614 116.017 31.894C116.446 32.1647 116.964 32.3 117.571 32.3ZM128.126 33V30.774H127.958V28.142C127.958 27.5913 127.813 27.1713 127.524 26.882C127.234 26.5833 126.786 26.434 126.18 26.434C125.9 26.434 125.615 26.4387 125.326 26.448C125.046 26.4573 124.775 26.4713 124.514 26.49C124.262 26.4993 124.038 26.5133 123.842 26.532V25.608C124.047 25.5893 124.257 25.5707 124.472 25.552C124.686 25.5333 124.906 25.524 125.13 25.524C125.363 25.5147 125.587 25.51 125.802 25.51C126.558 25.51 127.164 25.6033 127.622 25.79C128.088 25.9767 128.429 26.2707 128.644 26.672C128.858 27.064 128.966 27.5867 128.966 28.24V33H128.126ZM125.62 33.196C125.097 33.196 124.635 33.1027 124.234 32.916C123.832 32.7293 123.52 32.4587 123.296 32.104C123.081 31.7493 122.974 31.32 122.974 30.816C122.974 30.3213 123.086 29.9013 123.31 29.556C123.543 29.2107 123.874 28.9493 124.304 28.772C124.742 28.5853 125.27 28.492 125.886 28.492H128.056V29.29H125.816C125.228 29.29 124.775 29.4347 124.458 29.724C124.15 30.004 123.996 30.3727 123.996 30.83C123.996 31.2967 124.159 31.67 124.486 31.95C124.812 32.2207 125.256 32.356 125.816 32.356C126.161 32.356 126.492 32.2953 126.81 32.174C127.127 32.0433 127.393 31.8287 127.608 31.53C127.822 31.222 127.939 30.802 127.958 30.27L128.266 30.704C128.228 31.2547 128.098 31.7167 127.874 32.09C127.65 32.454 127.346 32.7293 126.964 32.916C126.581 33.1027 126.133 33.196 125.62 33.196ZM134.626 33.238C134.085 33.238 133.59 33.14 133.142 32.944C132.704 32.7387 132.321 32.4587 131.994 32.104C131.677 31.74 131.43 31.3293 131.252 30.872C131.084 30.4053 131 29.9107 131 29.388V29.192C131 28.688 131.084 28.2073 131.252 27.75C131.42 27.2833 131.658 26.8727 131.966 26.518C132.284 26.154 132.662 25.8693 133.1 25.664C133.548 25.4493 134.048 25.342 134.598 25.342C135.224 25.342 135.774 25.4773 136.25 25.748C136.726 26.0187 137.109 26.4107 137.398 26.924C137.688 27.428 137.842 28.0487 137.86 28.786L137.398 27.918V22.78H138.448V33H137.608V29.71H137.944C137.926 30.4847 137.762 31.138 137.454 31.67C137.156 32.1927 136.759 32.5847 136.264 32.846C135.779 33.1073 135.233 33.238 134.626 33.238ZM134.766 32.314C135.27 32.314 135.723 32.202 136.124 31.978C136.535 31.754 136.857 31.4367 137.09 31.026C137.324 30.606 137.44 30.1253 137.44 29.584V28.912C137.44 28.3893 137.324 27.932 137.09 27.54C136.857 27.1387 136.535 26.826 136.124 26.602C135.723 26.378 135.266 26.266 134.752 26.266C134.202 26.266 133.721 26.4013 133.31 26.672C132.909 26.9333 132.596 27.2927 132.372 27.75C132.158 28.2073 132.05 28.7207 132.05 29.29C132.05 29.878 132.162 30.4007 132.386 30.858C132.61 31.3153 132.928 31.6747 133.338 31.936C133.749 32.188 134.225 32.314 134.766 32.314ZM144.253 33.238C143.618 33.238 143.067 33.1307 142.601 32.916C142.134 32.692 141.751 32.398 141.453 32.034C141.154 31.6607 140.93 31.2453 140.781 30.788C140.641 30.3307 140.571 29.8593 140.571 29.374V29.178C140.571 28.702 140.641 28.2353 140.781 27.778C140.93 27.3207 141.154 26.91 141.453 26.546C141.751 26.182 142.125 25.8927 142.573 25.678C143.03 25.454 143.562 25.342 144.169 25.342C144.943 25.342 145.587 25.5147 146.101 25.86C146.623 26.2053 147.015 26.6487 147.277 27.19C147.538 27.722 147.669 28.296 147.669 28.912V29.458H141.047V28.646H146.941L146.675 29.052C146.675 28.5013 146.577 28.0207 146.381 27.61C146.194 27.19 145.914 26.8633 145.541 26.63C145.177 26.3873 144.719 26.266 144.169 26.266C143.59 26.266 143.109 26.4013 142.727 26.672C142.344 26.9427 142.055 27.302 141.859 27.75C141.672 28.198 141.579 28.7067 141.579 29.276C141.579 29.836 141.672 30.3493 141.859 30.816C142.055 31.2733 142.349 31.6373 142.741 31.908C143.142 32.1787 143.646 32.314 144.253 32.314C144.897 32.314 145.419 32.1693 145.821 31.88C146.222 31.5813 146.469 31.2313 146.563 30.83H147.543C147.449 31.3247 147.253 31.754 146.955 32.118C146.656 32.4727 146.278 32.748 145.821 32.944C145.363 33.14 144.841 33.238 144.253 33.238ZM152.728 33.238C152.187 33.238 151.692 33.14 151.244 32.944C150.805 32.7387 150.423 32.4587 150.096 32.104C149.779 31.74 149.531 31.3293 149.354 30.872C149.186 30.4053 149.102 29.9107 149.102 29.388V29.192C149.102 28.688 149.186 28.2073 149.354 27.75C149.522 27.2833 149.76 26.8727 150.068 26.518C150.385 26.154 150.763 25.8693 151.202 25.664C151.65 25.4493 152.149 25.342 152.7 25.342C153.325 25.342 153.876 25.4773 154.352 25.748C154.828 26.0187 155.211 26.4107 155.5 26.924C155.789 27.428 155.943 28.0487 155.962 28.786L155.5 27.918V22.78H156.55V33H155.71V29.71H156.046C156.027 30.4847 155.864 31.138 155.556 31.67C155.257 32.1927 154.861 32.5847 154.366 32.846C153.881 33.1073 153.335 33.238 152.728 33.238ZM152.868 32.314C153.372 32.314 153.825 32.202 154.226 31.978C154.637 31.754 154.959 31.4367 155.192 31.026C155.425 30.606 155.542 30.1253 155.542 29.584V28.912C155.542 28.3893 155.425 27.932 155.192 27.54C154.959 27.1387 154.637 26.826 154.226 26.602C153.825 26.378 153.367 26.266 152.854 26.266C152.303 26.266 151.823 26.4013 151.412 26.672C151.011 26.9333 150.698 27.2927 150.474 27.75C150.259 28.2073 150.152 28.7207 150.152 29.29C150.152 29.878 150.264 30.4007 150.488 30.858C150.712 31.3153 151.029 31.6747 151.44 31.936C151.851 32.188 152.327 32.314 152.868 32.314Z" fill="#717171"/>
</g>
<defs>
<filter id="filter0_ddddii_1085_1970" x="0" y="0" width="184" height="58" filterUnits="userSpaceOnUse" color-interpolation-filters="sRGB">
<feFlood flood-opacity="0" result="BackgroundImageFix"/>
<feColorMatrix in="SourceAlpha" type="matrix" values="0 0 0 0 0 0 0 0 0 0 0 0 0 0 0 0 0 0 127 0" result="hardAlpha"/>
<feOffset dx="3" dy="3"/>
<feGaussianBlur stdDeviation="4"/>
<feColorMatrix type="matrix" values="0 0 0 0 0.788235 0 0 0 0 0.788235 0 0 0 0 0.788235 0 0 0 0.9 0"/>
<feBlend mode="normal" in2="BackgroundImageFix" result="effect1_dropShadow_1085_1970"/>
<feColorMatrix in="SourceAlpha" type="matrix" values="0 0 0 0 0 0 0 0 0 0 0 0 0 0 0 0 0 0 127 0" result="hardAlpha"/>
<feOffset dx="-3" dy="-3"/>
<feGaussianBlur stdDeviation="3"/>
<feColorMatrix type="matrix" values="0 0 0 0 1 0 0 0 0 1 0 0 0 0 1 0 0 0 0.9 0"/>
<feBlend mode="normal" in2="effect1_dropShadow_1085_1970" result="effect2_dropShadow_1085_1970"/>
<feColorMatrix in="SourceAlpha" type="matrix" values="0 0 0 0 0 0 0 0 0 0 0 0 0 0 0 0 0 0 127 0" result="hardAlpha"/>
<feOffset dx="3" dy="-3"/>
<feGaussianBlur stdDeviation="3"/>
<feColorMatrix type="matrix" values="0 0 0 0 0.788235 0 0 0 0 0.788235 0 0 0 0 0.788235 0 0 0 0.2 0"/>
<feBlend mode="normal" in2="effect2_dropShadow_1085_1970" result="effect3_dropShadow_1085_1970"/>
<feColorMatrix in="SourceAlpha" type="matrix" values="0 0 0 0 0 0 0 0 0 0 0 0 0 0 0 0 0 0 127 0" result="hardAlpha"/>
<feOffset dx="-3" dy="3"/>
<feGaussianBlur stdDeviation="3"/>
<feColorMatrix type="matrix" values="0 0 0 0 0.788235 0 0 0 0 0.788235 0 0 0 0 0.788235 0 0 0 0.2 0"/>
<feBlend mode="normal" in2="effect3_dropShadow_1085_1970" result="effect4_dropShadow_1085_1970"/>
<feBlend mode="normal" in="SourceGraphic" in2="effect4_dropShadow_1085_1970" result="shape"/>
<feColorMatrix in="SourceAlpha" type="matrix" values="0 0 0 0 0 0 0 0 0 0 0 0 0 0 0 0 0 0 127 0" result="hardAlpha"/>
<feOffset dx="-1" dy="-1"/>
<feGaussianBlur stdDeviation="1"/>
<feComposite in2="hardAlpha" operator="arithmetic" k2="-1" k3="1"/>
<feColorMatrix type="matrix" values="0 0 0 0 0.788235 0 0 0 0 0.788235 0 0 0 0 0.788235 0 0 0 0.5 0"/>
<feBlend mode="normal" in2="shape" result="effect5_innerShadow_1085_1970"/>
<feColorMatrix in="SourceAlpha" type="matrix" values="0 0 0 0 0 0 0 0 0 0 0 0 0 0 0 0 0 0 127 0" result="hardAlpha"/>
<feOffset dx="1" dy="1"/>
<feGaussianBlur stdDeviation="1"/>
<feComposite in2="hardAlpha" operator="arithmetic" k2="-1" k3="1"/>
<feColorMatrix type="matrix" values="0 0 0 0 1 0 0 0 0 1 0 0 0 0 1 0 0 0 0.3 0"/>
<feBlend mode="normal" in2="effect5_innerShadow_1085_1970" result="effect6_innerShadow_1085_1970"/>
</filter>
<linearGradient id="paint0_linear_1085_1970" x1="9" y1="9" x2="25.7125" y2="81.1276" gradientUnits="userSpaceOnUse">
<stop offset="1" stop-color="#F8F8F8"/>
<stop stop-color="#E0E0E0"/>
</linearGradient>
</defs>
</svg>
