<svg width="271" height="88" viewBox="0 0 271 88" fill="none" xmlns="http://www.w3.org/2000/svg">
<g filter="url(#filter0_ddddii_1085_2011)">
<rect x="15" y="15" width="238" height="55" rx="27.5" fill="url(#paint0_linear_1085_2011)"/>
</g>
<path d="M43.524 47.221C42.7267 47.221 42.055 47.0953 41.509 46.844C40.963 46.584 40.547 46.2287 40.261 45.778C39.9837 45.3187 39.845 44.803 39.845 44.231H40.833C40.833 44.595 40.9197 44.9373 41.093 45.258C41.275 45.57 41.561 45.8257 41.951 46.025C42.3497 46.2157 42.874 46.311 43.524 46.311C44.122 46.311 44.616 46.2243 45.006 46.051C45.4047 45.8777 45.6993 45.6437 45.89 45.349C46.0893 45.0543 46.189 44.725 46.189 44.361C46.189 43.9017 46.007 43.5203 45.643 43.217C45.2877 42.905 44.7503 42.7187 44.031 42.658L42.939 42.554C42.1243 42.4847 41.4743 42.2333 40.989 41.8C40.5123 41.358 40.274 40.7773 40.274 40.058C40.274 39.512 40.404 39.031 40.664 38.615C40.924 38.199 41.2923 37.8697 41.769 37.627C42.2543 37.3843 42.835 37.263 43.511 37.263C44.1957 37.263 44.7807 37.3887 45.266 37.64C45.76 37.8827 46.137 38.2207 46.397 38.654C46.657 39.0873 46.787 39.59 46.787 40.162H45.799C45.799 39.8153 45.721 39.4903 45.565 39.187C45.409 38.8837 45.162 38.641 44.824 38.459C44.486 38.2683 44.0483 38.173 43.511 38.173C42.9997 38.173 42.575 38.2597 42.237 38.433C41.9077 38.6063 41.6607 38.836 41.496 39.122C41.34 39.408 41.262 39.72 41.262 40.058C41.262 40.4827 41.4137 40.8423 41.717 41.137C42.0203 41.4317 42.458 41.6007 43.03 41.644L44.122 41.748C44.7633 41.8 45.3093 41.943 45.76 42.177C46.2193 42.4023 46.5703 42.7013 46.813 43.074C47.0557 43.438 47.177 43.867 47.177 44.361C47.177 44.9157 47.0253 45.4097 46.722 45.843C46.4273 46.2763 46.007 46.6143 45.461 46.857C44.915 47.0997 44.2693 47.221 43.524 47.221ZM52.1985 47.221C51.6091 47.221 51.0978 47.1213 50.6645 46.922C50.2311 46.714 49.8758 46.441 49.5985 46.103C49.3211 45.7563 49.1131 45.3707 48.9745 44.946C48.8445 44.5213 48.7795 44.0837 48.7795 43.633V43.451C48.7795 43.009 48.8445 42.5757 48.9745 42.151C49.1131 41.7263 49.3211 41.345 49.5985 41.007C49.8758 40.669 50.2225 40.4003 50.6385 40.201C51.0631 39.993 51.5571 39.889 52.1205 39.889C52.8398 39.889 53.4378 40.0493 53.9145 40.37C54.3998 40.6907 54.7638 41.1023 55.0065 41.605C55.2491 42.099 55.3705 42.632 55.3705 43.204V43.711H49.2215V42.957H54.6945L54.4475 43.334C54.4475 42.8227 54.3565 42.3763 54.1745 41.995C54.0011 41.605 53.7411 41.3017 53.3945 41.085C53.0565 40.8597 52.6318 40.747 52.1205 40.747C51.5831 40.747 51.1368 40.8727 50.7815 41.124C50.4261 41.3753 50.1575 41.709 49.9755 42.125C49.8021 42.541 49.7155 43.0133 49.7155 43.542C49.7155 44.062 49.8021 44.5387 49.9755 44.972C50.1575 45.3967 50.4305 45.7347 50.7945 45.986C51.1671 46.2373 51.6351 46.363 52.1985 46.363C52.7965 46.363 53.2818 46.2287 53.6545 45.96C54.0271 45.6827 54.2568 45.3577 54.3435 44.985H55.2535C55.1668 45.4443 54.9848 45.843 54.7075 46.181C54.4301 46.5103 54.0791 46.766 53.6545 46.948C53.2298 47.13 52.7445 47.221 52.1985 47.221ZM61.4333 47V44.933H61.2773V42.489C61.2773 41.9777 61.143 41.5877 60.8743 41.319C60.6057 41.0417 60.1897 40.903 59.6263 40.903C59.3663 40.903 59.102 40.9073 58.8333 40.916C58.5733 40.9247 58.322 40.9377 58.0793 40.955C57.8453 40.9637 57.6373 40.9767 57.4553 40.994V40.136C57.646 40.1187 57.841 40.1013 58.0403 40.084C58.2397 40.0667 58.4433 40.058 58.6513 40.058C58.868 40.0493 59.076 40.045 59.2753 40.045C59.9773 40.045 60.5407 40.1317 60.9653 40.305C61.3987 40.4783 61.715 40.7513 61.9143 41.124C62.1137 41.488 62.2133 41.9733 62.2133 42.58V47H61.4333ZM59.1063 47.182C58.621 47.182 58.192 47.0953 57.8193 46.922C57.4467 46.7487 57.1563 46.4973 56.9483 46.168C56.749 45.8387 56.6493 45.44 56.6493 44.972C56.6493 44.5127 56.7533 44.1227 56.9613 43.802C57.178 43.4813 57.4857 43.2387 57.8843 43.074C58.2917 42.9007 58.7813 42.814 59.3533 42.814H61.3683V43.555H59.2883C58.7423 43.555 58.322 43.6893 58.0273 43.958C57.7413 44.218 57.5983 44.5603 57.5983 44.985C57.5983 45.4183 57.75 45.765 58.0533 46.025C58.3567 46.2763 58.7683 46.402 59.2883 46.402C59.609 46.402 59.9167 46.3457 60.2113 46.233C60.506 46.1117 60.753 45.9123 60.9523 45.635C61.1517 45.349 61.26 44.959 61.2773 44.465L61.5633 44.868C61.5287 45.3793 61.4073 45.8083 61.1993 46.155C60.9913 46.493 60.7097 46.7487 60.3543 46.922C59.999 47.0953 59.583 47.182 59.1063 47.182ZM64.6487 47V40.123H65.4287V42.996H65.3507C65.3507 41.9907 65.5717 41.2497 66.0137 40.773C66.4557 40.2877 67.149 40.045 68.0937 40.045H68.3147V40.929H67.9117C67.1664 40.929 66.5987 41.124 66.2087 41.514C65.8187 41.8953 65.6237 42.4587 65.6237 43.204V47H64.6487ZM72.702 47.221C72.1213 47.221 71.6143 47.1213 71.181 46.922C70.7563 46.714 70.401 46.4367 70.115 46.09C69.829 45.7347 69.6123 45.3447 69.465 44.92C69.3263 44.4953 69.257 44.0663 69.257 43.633V43.451C69.257 43.009 69.3263 42.58 69.465 42.164C69.6123 41.7393 69.829 41.358 70.115 41.02C70.401 40.6733 70.7563 40.4003 71.181 40.201C71.6143 39.993 72.1127 39.889 72.676 39.889C73.248 39.889 73.755 39.993 74.197 40.201C74.6477 40.409 75.0117 40.7037 75.289 41.085C75.5663 41.4663 75.731 41.917 75.783 42.437H74.847C74.769 41.9603 74.5437 41.566 74.171 41.254C73.807 40.9333 73.3087 40.773 72.676 40.773C72.13 40.773 71.675 40.8987 71.311 41.15C70.9557 41.3927 70.687 41.7263 70.505 42.151C70.323 42.567 70.232 43.0307 70.232 43.542C70.232 44.0447 70.323 44.5127 70.505 44.946C70.687 45.3707 70.96 45.713 71.324 45.973C71.688 46.2243 72.1473 46.35 72.702 46.35C73.1267 46.35 73.495 46.2763 73.807 46.129C74.1277 45.973 74.3833 45.765 74.574 45.505C74.7733 45.245 74.8903 44.959 74.925 44.647H75.861C75.8263 45.167 75.6617 45.622 75.367 46.012C75.081 46.3933 74.7083 46.6923 74.249 46.909C73.7897 47.117 73.274 47.221 72.702 47.221ZM77.6487 47V37.51H78.6237V42.879L78.3377 43.1C78.3377 42.4587 78.4287 41.8997 78.6107 41.423C78.8014 40.9463 79.083 40.578 79.4557 40.318C79.837 40.0493 80.3137 39.915 80.8857 39.915H80.9377C81.7697 39.915 82.398 40.188 82.8227 40.734C83.256 41.28 83.4727 42.0383 83.4727 43.009V47H82.5107V42.801C82.5107 42.1857 82.3417 41.7003 82.0037 41.345C81.6657 40.9897 81.2107 40.812 80.6387 40.812C80.0234 40.812 79.5337 41.0113 79.1697 41.41C78.8057 41.8 78.6237 42.3157 78.6237 42.957V47H77.6487Z" fill="url(#paint1_radial_1085_2011)"/>
<g filter="url(#filter1_ddddii_1085_2011)">
<circle cx="222" cy="42" r="20" fill="#ECECEC"/>
</g>
<path d="M228 48L225.1 45.1M226.667 41.3333C226.667 44.2789 224.279 46.6667 221.333 46.6667C218.388 46.6667 216 44.2789 216 41.3333C216 38.3878 218.388 36 221.333 36C224.279 36 226.667 38.3878 226.667 41.3333Z" stroke="#717171" stroke-width="1.6" stroke-linecap="round" stroke-linejoin="round"/>
<defs>
<filter id="filter0_ddddii_1085_2011" x="0" y="0" width="271" height="88" filterUnits="userSpaceOnUse" color-interpolation-filters="sRGB">
<feFlood flood-opacity="0" result="BackgroundImageFix"/>
<feColorMatrix in="SourceAlpha" type="matrix" values="0 0 0 0 0 0 0 0 0 0 0 0 0 0 0 0 0 0 127 0" result="hardAlpha"/>
<feOffset dx="5" dy="5"/>
<feGaussianBlur stdDeviation="6.5"/>
<feColorMatrix type="matrix" values="0 0 0 0 0.788235 0 0 0 0 0.788235 0 0 0 0 0.788235 0 0 0 0.9 0"/>
<feBlend mode="normal" in2="BackgroundImageFix" result="effect1_dropShadow_1085_2011"/>
<feColorMatrix in="SourceAlpha" type="matrix" values="0 0 0 0 0 0 0 0 0 0 0 0 0 0 0 0 0 0 127 0" result="hardAlpha"/>
<feOffset dx="-5" dy="-5"/>
<feGaussianBlur stdDeviation="5"/>
<feColorMatrix type="matrix" values="0 0 0 0 1 0 0 0 0 1 0 0 0 0 1 0 0 0 0.9 0"/>
<feBlend mode="normal" in2="effect1_dropShadow_1085_2011" result="effect2_dropShadow_1085_2011"/>
<feColorMatrix in="SourceAlpha" type="matrix" values="0 0 0 0 0 0 0 0 0 0 0 0 0 0 0 0 0 0 127 0" result="hardAlpha"/>
<feOffset dx="5" dy="-5"/>
<feGaussianBlur stdDeviation="5"/>
<feColorMatrix type="matrix" values="0 0 0 0 0.788235 0 0 0 0 0.788235 0 0 0 0 0.788235 0 0 0 0.2 0"/>
<feBlend mode="normal" in2="effect2_dropShadow_1085_2011" result="effect3_dropShadow_1085_2011"/>
<feColorMatrix in="SourceAlpha" type="matrix" values="0 0 0 0 0 0 0 0 0 0 0 0 0 0 0 0 0 0 127 0" result="hardAlpha"/>
<feOffset dx="-5" dy="5"/>
<feGaussianBlur stdDeviation="5"/>
<feColorMatrix type="matrix" values="0 0 0 0 0.788235 0 0 0 0 0.788235 0 0 0 0 0.788235 0 0 0 0.2 0"/>
<feBlend mode="normal" in2="effect3_dropShadow_1085_2011" result="effect4_dropShadow_1085_2011"/>
<feBlend mode="normal" in="SourceGraphic" in2="effect4_dropShadow_1085_2011" result="shape"/>
<feColorMatrix in="SourceAlpha" type="matrix" values="0 0 0 0 0 0 0 0 0 0 0 0 0 0 0 0 0 0 127 0" result="hardAlpha"/>
<feOffset dx="-1" dy="-1"/>
<feGaussianBlur stdDeviation="1"/>
<feComposite in2="hardAlpha" operator="arithmetic" k2="-1" k3="1"/>
<feColorMatrix type="matrix" values="0 0 0 0 0.788235 0 0 0 0 0.788235 0 0 0 0 0.788235 0 0 0 0.5 0"/>
<feBlend mode="normal" in2="shape" result="effect5_innerShadow_1085_2011"/>
<feColorMatrix in="SourceAlpha" type="matrix" values="0 0 0 0 0 0 0 0 0 0 0 0 0 0 0 0 0 0 127 0" result="hardAlpha"/>
<feOffset dx="1" dy="1"/>
<feGaussianBlur stdDeviation="1"/>
<feComposite in2="hardAlpha" operator="arithmetic" k2="-1" k3="1"/>
<feColorMatrix type="matrix" values="0 0 0 0 1 0 0 0 0 1 0 0 0 0 1 0 0 0 0.3 0"/>
<feBlend mode="normal" in2="effect5_innerShadow_1085_2011" result="effect6_innerShadow_1085_2011"/>
</filter>
<filter id="filter1_ddddii_1085_2011" x="190" y="10" width="66" height="66" filterUnits="userSpaceOnUse" color-interpolation-filters="sRGB">
<feFlood flood-opacity="0" result="BackgroundImageFix"/>
<feColorMatrix in="SourceAlpha" type="matrix" values="0 0 0 0 0 0 0 0 0 0 0 0 0 0 0 0 0 0 127 0" result="hardAlpha"/>
<feOffset dx="4" dy="4"/>
<feGaussianBlur stdDeviation="5"/>
<feColorMatrix type="matrix" values="0 0 0 0 0.745098 0 0 0 0 0.745098 0 0 0 0 0.745098 0 0 0 0.9 0"/>
<feBlend mode="normal" in2="BackgroundImageFix" result="effect1_dropShadow_1085_2011"/>
<feColorMatrix in="SourceAlpha" type="matrix" values="0 0 0 0 0 0 0 0 0 0 0 0 0 0 0 0 0 0 127 0" result="hardAlpha"/>
<feOffset dx="-4" dy="-4"/>
<feGaussianBlur stdDeviation="4"/>
<feColorMatrix type="matrix" values="0 0 0 0 1 0 0 0 0 1 0 0 0 0 1 0 0 0 0.9 0"/>
<feBlend mode="normal" in2="effect1_dropShadow_1085_2011" result="effect2_dropShadow_1085_2011"/>
<feColorMatrix in="SourceAlpha" type="matrix" values="0 0 0 0 0 0 0 0 0 0 0 0 0 0 0 0 0 0 127 0" result="hardAlpha"/>
<feOffset dx="4" dy="-4"/>
<feGaussianBlur stdDeviation="4"/>
<feColorMatrix type="matrix" values="0 0 0 0 0.745098 0 0 0 0 0.745098 0 0 0 0 0.745098 0 0 0 0.2 0"/>
<feBlend mode="normal" in2="effect2_dropShadow_1085_2011" result="effect3_dropShadow_1085_2011"/>
<feColorMatrix in="SourceAlpha" type="matrix" values="0 0 0 0 0 0 0 0 0 0 0 0 0 0 0 0 0 0 127 0" result="hardAlpha"/>
<feOffset dx="-4" dy="4"/>
<feGaussianBlur stdDeviation="4"/>
<feColorMatrix type="matrix" values="0 0 0 0 0.745098 0 0 0 0 0.745098 0 0 0 0 0.745098 0 0 0 0.2 0"/>
<feBlend mode="normal" in2="effect3_dropShadow_1085_2011" result="effect4_dropShadow_1085_2011"/>
<feBlend mode="normal" in="SourceGraphic" in2="effect4_dropShadow_1085_2011" result="shape"/>
<feColorMatrix in="SourceAlpha" type="matrix" values="0 0 0 0 0 0 0 0 0 0 0 0 0 0 0 0 0 0 127 0" result="hardAlpha"/>
<feOffset dx="-1" dy="-1"/>
<feGaussianBlur stdDeviation="1"/>
<feComposite in2="hardAlpha" operator="arithmetic" k2="-1" k3="1"/>
<feColorMatrix type="matrix" values="0 0 0 0 0.745098 0 0 0 0 0.745098 0 0 0 0 0.745098 0 0 0 0.5 0"/>
<feBlend mode="normal" in2="shape" result="effect5_innerShadow_1085_2011"/>
<feColorMatrix in="SourceAlpha" type="matrix" values="0 0 0 0 0 0 0 0 0 0 0 0 0 0 0 0 0 0 127 0" result="hardAlpha"/>
<feOffset dx="1" dy="1"/>
<feGaussianBlur stdDeviation="1"/>
<feComposite in2="hardAlpha" operator="arithmetic" k2="-1" k3="1"/>
<feColorMatrix type="matrix" values="0 0 0 0 1 0 0 0 0 1 0 0 0 0 1 0 0 0 0.3 0"/>
<feBlend mode="normal" in2="effect5_innerShadow_1085_2011" result="effect6_innerShadow_1085_2011"/>
</filter>
<linearGradient id="paint0_linear_1085_2011" x1="15" y1="15" x2="39.1315" y2="119.423" gradientUnits="userSpaceOnUse">
<stop offset="1" stop-color="#F8F8F8"/>
<stop stop-color="#E0E0E0"/>
</linearGradient>
<radialGradient id="paint1_radial_1085_2011" cx="0" cy="0" r="1" gradientUnits="userSpaceOnUse" gradientTransform="translate(62 43) rotate(90) scale(8 23)">
<stop stop-color="#5A69EA"/>
<stop offset="1" stop-color="#BF8BCA"/>
</radialGradient>
</defs>
</svg>
