<svg width="144" height="10" viewBox="0 0 144 10" fill="none" xmlns="http://www.w3.org/2000/svg">
<path d="M4.36758 9.19204C3.58358 9.19204 2.91158 9.05604 2.35158 8.78404C1.79958 8.50404 1.34758 8.14004 0.995578 7.69204C0.651578 7.24404 0.399578 6.76004 0.239578 6.24004C0.0795782 5.71204 -0.000421822 5.20004 -0.000421822 4.70404V4.47604C-0.000421822 3.94004 0.0795782 3.40804 0.239578 2.88004C0.407578 2.34404 0.663578 1.86004 1.00758 1.42804C1.35958 0.996037 1.80758 0.652037 2.35158 0.396037C2.89558 0.132037 3.53958 3.69549e-05 4.28358 3.69549e-05C5.03558 3.69549e-05 5.68358 0.132037 6.22758 0.396037C6.77958 0.660037 7.21958 1.03204 7.54758 1.51204C7.87558 1.98404 8.07558 2.54404 8.14758 3.19204H7.22358C7.15958 2.67204 6.99158 2.24004 6.71958 1.89604C6.44758 1.54404 6.09958 1.28004 5.67558 1.10404C5.25958 0.928037 4.79558 0.840037 4.28358 0.840037C3.73158 0.840037 3.24358 0.940037 2.81958 1.14004C2.40358 1.33204 2.05558 1.60404 1.77558 1.95604C1.49558 2.30004 1.28358 2.70004 1.13958 3.15604C0.995578 3.60404 0.923578 4.08404 0.923578 4.59604C0.923578 5.08404 0.991578 5.55204 1.12758 6.00004C1.27158 6.44804 1.48758 6.85204 1.77558 7.21204C2.06358 7.56404 2.42358 7.84404 2.85558 8.05204C3.28758 8.25204 3.79158 8.35204 4.36758 8.35204C5.16758 8.35204 5.83958 8.15204 6.38358 7.75204C6.92758 7.34404 7.26358 6.76004 7.39158 6.00004H8.31558C8.22758 6.60004 8.01958 7.14404 7.69158 7.63204C7.36358 8.11204 6.91958 8.49204 6.35958 8.77204C5.80758 9.05204 5.14358 9.19204 4.36758 9.19204ZM12.8029 9.19204C12.2589 9.19204 11.7789 9.10004 11.3629 8.91604C10.9549 8.72404 10.6069 8.47204 10.3189 8.16004C10.0389 7.84004 9.82292 7.48404 9.67092 7.09204C9.52692 6.70004 9.45492 6.30004 9.45492 5.89204V5.72404C9.45492 5.31604 9.53092 4.91604 9.68292 4.52404C9.83492 4.12404 10.0549 3.76804 10.3429 3.45604C10.6309 3.14404 10.9789 2.89604 11.3869 2.71204C11.8029 2.52004 12.2749 2.42404 12.8029 2.42404C13.3389 2.42404 13.8109 2.52004 14.2189 2.71204C14.6349 2.89604 14.9869 3.14404 15.2749 3.45604C15.5629 3.76804 15.7789 4.12404 15.9229 4.52404C16.0749 4.91604 16.1509 5.31604 16.1509 5.72404V5.89204C16.1509 6.30004 16.0789 6.70004 15.9349 7.09204C15.7909 7.48404 15.5749 7.84004 15.2869 8.16004C15.0069 8.47204 14.6589 8.72404 14.2429 8.91604C13.8269 9.10004 13.3469 9.19204 12.8029 9.19204ZM12.8029 8.38804C13.3309 8.38804 13.7749 8.27204 14.1349 8.04004C14.5029 7.80004 14.7829 7.48804 14.9749 7.10404C15.1669 6.71204 15.2629 6.28004 15.2629 5.80804C15.2629 5.32804 15.1629 4.89604 14.9629 4.51204C14.7709 4.12004 14.4909 3.81204 14.1229 3.58804C13.7549 3.35604 13.3149 3.24004 12.8029 3.24004C12.2989 3.24004 11.8629 3.35604 11.4949 3.58804C11.1269 3.81204 10.8429 4.12004 10.6429 4.51204C10.4509 4.89604 10.3549 5.32804 10.3549 5.80804C10.3549 6.28004 10.4509 6.71204 10.6429 7.10404C10.8349 7.48804 11.1109 7.80004 11.4709 8.04004C11.8389 8.27204 12.2829 8.38804 12.8029 8.38804ZM17.9863 8.98804V2.64004H18.7063V5.29204H18.6343C18.6343 4.36404 18.8383 3.68004 19.2463 3.24004C19.6543 2.79204 20.2943 2.56804 21.1663 2.56804H21.3703V3.38404H20.9983C20.3103 3.38404 19.7863 3.56404 19.4263 3.92404C19.0663 4.27604 18.8863 4.79604 18.8863 5.48404V8.98804H17.9863ZM25.3961 9.19204C24.8521 9.19204 24.3801 9.10004 23.9801 8.91604C23.5801 8.72404 23.2521 8.47204 22.9961 8.16004C22.7401 7.84004 22.5481 7.48404 22.4201 7.09204C22.3001 6.70004 22.2401 6.29604 22.2401 5.88004V5.71204C22.2401 5.30404 22.3001 4.90404 22.4201 4.51204C22.5481 4.12004 22.7401 3.76804 22.9961 3.45604C23.2521 3.14404 23.5721 2.89604 23.9561 2.71204C24.3481 2.52004 24.8041 2.42404 25.3241 2.42404C25.9881 2.42404 26.5401 2.57204 26.9801 2.86804C27.4281 3.16404 27.7641 3.54404 27.9881 4.00804C28.2121 4.46404 28.3241 4.95604 28.3241 5.48404V5.95204H22.6481V5.25604H27.7001L27.4721 5.60404C27.4721 5.13204 27.3881 4.72004 27.2201 4.36804C27.0601 4.00804 26.8201 3.72804 26.5001 3.52804C26.1881 3.32004 25.7961 3.21604 25.3241 3.21604C24.8281 3.21604 24.4161 3.33204 24.0881 3.56404C23.7601 3.79604 23.5121 4.10404 23.3441 4.48804C23.1841 4.87204 23.1041 5.30804 23.1041 5.79604C23.1041 6.27604 23.1841 6.71604 23.3441 7.11604C23.5121 7.50804 23.7641 7.82004 24.1001 8.05204C24.4441 8.28404 24.8761 8.40004 25.3961 8.40004C25.9481 8.40004 26.3961 8.27604 26.7401 8.02804C27.0841 7.77204 27.2961 7.47204 27.3761 7.12804H28.2161C28.1361 7.55204 27.9681 7.92004 27.7121 8.23204C27.4561 8.53604 27.1321 8.77204 26.7401 8.94004C26.3481 9.10804 25.9001 9.19204 25.3961 9.19204Z" fill="#0D0D0D"/>
<path d="M32.0894 8.98804L35.3174 0.228037H36.9494L40.2854 8.98804H39.3494L36.2414 0.804037L36.7334 1.05604H35.4734L35.9894 0.804037L33.0014 8.98804H32.0894ZM33.8174 6.20404L34.1174 5.37604H38.1854L38.4974 6.20404H33.8174ZM41.8456 8.98804V2.64004H42.5656V5.29204H42.4936C42.4936 4.36404 42.6976 3.68004 43.1056 3.24004C43.5136 2.79204 44.1536 2.56804 45.0256 2.56804H45.2296V3.38404H44.8576C44.1696 3.38404 43.6456 3.56404 43.2856 3.92404C42.9256 4.27604 42.7456 4.79604 42.7456 5.48404V8.98804H41.8456ZM49.2795 9.19204C48.7435 9.19204 48.2755 9.10004 47.8755 8.91604C47.4835 8.72404 47.1555 8.46804 46.8915 8.14804C46.6275 7.82004 46.4275 7.46004 46.2915 7.06804C46.1635 6.67604 46.0995 6.28004 46.0995 5.88004V5.71204C46.0995 5.30404 46.1635 4.90804 46.2915 4.52404C46.4275 4.13204 46.6275 3.78004 46.8915 3.46804C47.1555 3.14804 47.4835 2.89604 47.8755 2.71204C48.2755 2.52004 48.7355 2.42404 49.2555 2.42404C49.7835 2.42404 50.2515 2.52004 50.6595 2.71204C51.0755 2.90404 51.4115 3.17604 51.6675 3.52804C51.9235 3.88004 52.0755 4.29604 52.1235 4.77604H51.2595C51.1875 4.33604 50.9795 3.97204 50.6355 3.68404C50.2995 3.38804 49.8395 3.24004 49.2555 3.24004C48.7515 3.24004 48.3315 3.35604 47.9955 3.58804C47.6675 3.81204 47.4195 4.12004 47.2515 4.51204C47.0835 4.89604 46.9995 5.32404 46.9995 5.79604C46.9995 6.26004 47.0835 6.69204 47.2515 7.09204C47.4195 7.48404 47.6715 7.80004 48.0075 8.04004C48.3435 8.27204 48.7675 8.38804 49.2795 8.38804C49.6715 8.38804 50.0115 8.32004 50.2995 8.18404C50.5955 8.04004 50.8315 7.84804 51.0075 7.60804C51.1915 7.36804 51.2995 7.10404 51.3315 6.81604H52.1955C52.1635 7.29604 52.0115 7.71604 51.7395 8.07604C51.4755 8.42804 51.1315 8.70404 50.7075 8.90404C50.2835 9.09604 49.8075 9.19204 49.2795 9.19204ZM53.8456 8.98804V0.228037H54.7456V5.18404L54.4816 5.38804C54.4816 4.79604 54.5656 4.28004 54.7336 3.84004C54.9096 3.40004 55.1696 3.06004 55.5136 2.82004C55.8656 2.57204 56.3056 2.44804 56.8336 2.44804H56.8816C57.6496 2.44804 58.2296 2.70004 58.6216 3.20404C59.0216 3.70804 59.2216 4.40804 59.2216 5.30404V8.98804H58.3336V5.11204C58.3336 4.54404 58.1776 4.09604 57.8656 3.76804C57.5536 3.44004 57.1336 3.27604 56.6056 3.27604C56.0376 3.27604 55.5856 3.46004 55.2496 3.82804C54.9136 4.18804 54.7456 4.66404 54.7456 5.25604V8.98804H53.8456ZM61.7988 8.98804V2.64004H62.6868V8.98804H61.7988ZM60.7788 3.36004V2.64004H62.6868V3.36004H60.7788ZM61.9908 1.46404C61.7748 1.46404 61.6108 1.40804 61.4988 1.29604C61.3948 1.17604 61.3428 1.02804 61.3428 0.852037C61.3428 0.676037 61.3948 0.532037 61.4988 0.420037C61.6108 0.300037 61.7748 0.240037 61.9908 0.240037C62.2068 0.240037 62.3668 0.300037 62.4708 0.420037C62.5748 0.532037 62.6268 0.676037 62.6268 0.852037C62.6268 1.02804 62.5748 1.17604 62.4708 1.29604C62.3668 1.40804 62.2068 1.46404 61.9908 1.46404ZM67.3528 9.06004C66.9128 9.06004 66.5328 8.99604 66.2128 8.86804C65.8928 8.74004 65.6448 8.52404 65.4688 8.22004C65.2928 7.90804 65.2048 7.49204 65.2048 6.97204V0.636037H66.0688V7.10404C66.0688 7.47204 66.1688 7.75604 66.3688 7.95604C66.5688 8.14804 66.8528 8.24404 67.2208 8.24404H68.3608V9.06004H67.3528ZM64.0648 3.32404V2.64004H68.3608V3.32404H64.0648ZM72.693 9.19204C72.149 9.19204 71.677 9.10004 71.277 8.91604C70.877 8.72404 70.549 8.47204 70.293 8.16004C70.037 7.84004 69.845 7.48404 69.717 7.09204C69.597 6.70004 69.537 6.29604 69.537 5.88004V5.71204C69.537 5.30404 69.597 4.90404 69.717 4.51204C69.845 4.12004 70.037 3.76804 70.293 3.45604C70.549 3.14404 70.869 2.89604 71.253 2.71204C71.645 2.52004 72.101 2.42404 72.621 2.42404C73.285 2.42404 73.837 2.57204 74.277 2.86804C74.725 3.16404 75.061 3.54404 75.285 4.00804C75.509 4.46404 75.621 4.95604 75.621 5.48404V5.95204H69.945V5.25604H74.997L74.769 5.60404C74.769 5.13204 74.685 4.72004 74.517 4.36804C74.357 4.00804 74.117 3.72804 73.797 3.52804C73.485 3.32004 73.093 3.21604 72.621 3.21604C72.125 3.21604 71.713 3.33204 71.385 3.56404C71.057 3.79604 70.809 4.10404 70.641 4.48804C70.481 4.87204 70.401 5.30804 70.401 5.79604C70.401 6.27604 70.481 6.71604 70.641 7.11604C70.809 7.50804 71.061 7.82004 71.397 8.05204C71.741 8.28404 72.173 8.40004 72.693 8.40004C73.245 8.40004 73.693 8.27604 74.037 8.02804C74.381 7.77204 74.593 7.47204 74.673 7.12804H75.513C75.433 7.55204 75.265 7.92004 75.009 8.23204C74.753 8.53604 74.429 8.77204 74.037 8.94004C73.645 9.10804 73.197 9.19204 72.693 9.19204ZM80.0295 9.19204C79.4935 9.19204 79.0255 9.10004 78.6255 8.91604C78.2335 8.72404 77.9055 8.46804 77.6415 8.14804C77.3775 7.82004 77.1775 7.46004 77.0415 7.06804C76.9135 6.67604 76.8495 6.28004 76.8495 5.88004V5.71204C76.8495 5.30404 76.9135 4.90804 77.0415 4.52404C77.1775 4.13204 77.3775 3.78004 77.6415 3.46804C77.9055 3.14804 78.2335 2.89604 78.6255 2.71204C79.0255 2.52004 79.4855 2.42404 80.0055 2.42404C80.5335 2.42404 81.0015 2.52004 81.4095 2.71204C81.8255 2.90404 82.1615 3.17604 82.4175 3.52804C82.6735 3.88004 82.8255 4.29604 82.8735 4.77604H82.0095C81.9375 4.33604 81.7295 3.97204 81.3855 3.68404C81.0495 3.38804 80.5895 3.24004 80.0055 3.24004C79.5015 3.24004 79.0815 3.35604 78.7455 3.58804C78.4175 3.81204 78.1695 4.12004 78.0015 4.51204C77.8335 4.89604 77.7495 5.32404 77.7495 5.79604C77.7495 6.26004 77.8335 6.69204 78.0015 7.09204C78.1695 7.48404 78.4215 7.80004 78.7575 8.04004C79.0935 8.27204 79.5175 8.38804 80.0295 8.38804C80.4215 8.38804 80.7615 8.32004 81.0495 8.18404C81.3455 8.04004 81.5815 7.84804 81.7575 7.60804C81.9415 7.36804 82.0495 7.10404 82.0815 6.81604H82.9455C82.9135 7.29604 82.7615 7.71604 82.4895 8.07604C82.2255 8.42804 81.8815 8.70404 81.4575 8.90404C81.0335 9.09604 80.5575 9.19204 80.0295 9.19204ZM86.8996 9.06004C86.4596 9.06004 86.0796 8.99604 85.7596 8.86804C85.4396 8.74004 85.1916 8.52404 85.0156 8.22004C84.8396 7.90804 84.7516 7.49204 84.7516 6.97204V0.636037H85.6156V7.10404C85.6156 7.47204 85.7156 7.75604 85.9156 7.95604C86.1156 8.14804 86.3996 8.24404 86.7676 8.24404H87.9076V9.06004H86.8996ZM83.6116 3.32404V2.64004H87.9076V3.32404H83.6116ZM91.8424 9.16804C91.0824 9.16804 90.5024 8.92404 90.1024 8.43604C89.7024 7.94004 89.5024 7.25204 89.5024 6.37204V2.62804H90.3904V6.55204C90.3904 7.10404 90.5344 7.54404 90.8224 7.87204C91.1184 8.19204 91.5264 8.35204 92.0464 8.35204C92.5904 8.35204 93.0224 8.18004 93.3424 7.83604C93.6704 7.49204 93.8344 7.03204 93.8344 6.45604V2.62804H94.7344V8.98804H94.0144V6.33604H94.1584C94.1584 6.92804 94.0744 7.43604 93.9064 7.86004C93.7384 8.27604 93.4864 8.60004 93.1504 8.83204C92.8144 9.05604 92.3904 9.16804 91.8784 9.16804H91.8424ZM97.0878 8.98804V2.64004H97.8078V5.29204H97.7358C97.7358 4.36404 97.9398 3.68004 98.3478 3.24004C98.7558 2.79204 99.3958 2.56804 100.268 2.56804H100.472V3.38404H100.1C99.4118 3.38404 98.8878 3.56404 98.5278 3.92404C98.1678 4.27604 97.9878 4.79604 97.9878 5.48404V8.98804H97.0878ZM104.498 9.19204C103.954 9.19204 103.482 9.10004 103.082 8.91604C102.682 8.72404 102.354 8.47204 102.098 8.16004C101.842 7.84004 101.65 7.48404 101.522 7.09204C101.402 6.70004 101.342 6.29604 101.342 5.88004V5.71204C101.342 5.30404 101.402 4.90404 101.522 4.51204C101.65 4.12004 101.842 3.76804 102.098 3.45604C102.354 3.14404 102.674 2.89604 103.058 2.71204C103.45 2.52004 103.906 2.42404 104.426 2.42404C105.09 2.42404 105.642 2.57204 106.082 2.86804C106.53 3.16404 106.866 3.54404 107.09 4.00804C107.314 4.46404 107.426 4.95604 107.426 5.48404V5.95204H101.75V5.25604H106.802L106.574 5.60404C106.574 5.13204 106.49 4.72004 106.322 4.36804C106.162 4.00804 105.922 3.72804 105.602 3.52804C105.29 3.32004 104.898 3.21604 104.426 3.21604C103.93 3.21604 103.518 3.33204 103.19 3.56404C102.862 3.79604 102.614 4.10404 102.446 4.48804C102.286 4.87204 102.206 5.30804 102.206 5.79604C102.206 6.27604 102.286 6.71604 102.446 7.11604C102.614 7.50804 102.866 7.82004 103.202 8.05204C103.546 8.28404 103.978 8.40004 104.498 8.40004C105.05 8.40004 105.498 8.27604 105.842 8.02804C106.186 7.77204 106.398 7.47204 106.478 7.12804H107.318C107.238 7.55204 107.07 7.92004 106.814 8.23204C106.558 8.53604 106.234 8.77204 105.842 8.94004C105.45 9.10804 105.002 9.19204 104.498 9.19204ZM112.163 8.98804V0.228037H113.687L118.487 8.16004H118.871L118.631 8.35204V0.228037H119.507V8.98804H117.971L113.171 1.05604H112.787L113.027 0.864037V8.98804H112.163ZM124.881 9.19204C124.337 9.19204 123.857 9.10004 123.441 8.91604C123.033 8.72404 122.685 8.47204 122.397 8.16004C122.117 7.84004 121.901 7.48404 121.749 7.09204C121.605 6.70004 121.533 6.30004 121.533 5.89204V5.72404C121.533 5.31604 121.609 4.91604 121.761 4.52404C121.913 4.12404 122.133 3.76804 122.421 3.45604C122.709 3.14404 123.057 2.89604 123.465 2.71204C123.881 2.52004 124.353 2.42404 124.881 2.42404C125.417 2.42404 125.889 2.52004 126.297 2.71204C126.713 2.89604 127.065 3.14404 127.353 3.45604C127.641 3.76804 127.857 4.12404 128.001 4.52404C128.153 4.91604 128.229 5.31604 128.229 5.72404V5.89204C128.229 6.30004 128.157 6.70004 128.013 7.09204C127.869 7.48404 127.653 7.84004 127.365 8.16004C127.085 8.47204 126.737 8.72404 126.321 8.91604C125.905 9.10004 125.425 9.19204 124.881 9.19204ZM124.881 8.38804C125.409 8.38804 125.853 8.27204 126.213 8.04004C126.581 7.80004 126.861 7.48804 127.053 7.10404C127.245 6.71204 127.341 6.28004 127.341 5.80804C127.341 5.32804 127.241 4.89604 127.041 4.51204C126.849 4.12004 126.569 3.81204 126.201 3.58804C125.833 3.35604 125.393 3.24004 124.881 3.24004C124.377 3.24004 123.941 3.35604 123.573 3.58804C123.205 3.81204 122.921 4.12004 122.721 4.51204C122.529 4.89604 122.433 5.32804 122.433 5.80804C122.433 6.28004 122.529 6.71204 122.721 7.10404C122.913 7.48804 123.189 7.80004 123.549 8.04004C123.917 8.27204 124.361 8.38804 124.881 8.38804ZM132.668 9.19204C132.204 9.19204 131.78 9.10804 131.396 8.94004C131.02 8.76404 130.692 8.52404 130.412 8.22004C130.14 7.90804 129.928 7.55604 129.776 7.16404C129.632 6.76404 129.56 6.34004 129.56 5.89204V5.72404C129.56 5.29204 129.632 4.88004 129.776 4.48804C129.92 4.08804 130.124 3.73604 130.388 3.43204C130.66 3.12004 130.984 2.87604 131.36 2.70004C131.744 2.51604 132.172 2.42404 132.644 2.42404C133.18 2.42404 133.652 2.54004 134.06 2.77204C134.468 3.00404 134.796 3.34004 135.044 3.78004C135.292 4.21204 135.424 4.74404 135.44 5.37604L135.044 4.63204V0.228037H135.944V8.98804H135.224V6.16804H135.512C135.496 6.83204 135.356 7.39204 135.092 7.84804C134.836 8.29604 134.496 8.63204 134.072 8.85604C133.656 9.08004 133.188 9.19204 132.668 9.19204ZM132.788 8.40004C133.22 8.40004 133.608 8.30404 133.952 8.11204C134.304 7.92004 134.58 7.64804 134.78 7.29604C134.98 6.93604 135.08 6.52404 135.08 6.06004V5.48404C135.08 5.03604 134.98 4.64404 134.78 4.30804C134.58 3.96404 134.304 3.69604 133.952 3.50404C133.608 3.31204 133.216 3.21604 132.776 3.21604C132.304 3.21604 131.892 3.33204 131.54 3.56404C131.196 3.78804 130.928 4.09604 130.736 4.48804C130.552 4.88004 130.46 5.32004 130.46 5.80804C130.46 6.31204 130.556 6.76004 130.748 7.15204C130.94 7.54404 131.212 7.85204 131.564 8.07604C131.916 8.29204 132.324 8.40004 132.788 8.40004ZM140.92 9.19204C140.376 9.19204 139.904 9.10004 139.504 8.91604C139.104 8.72404 138.776 8.47204 138.52 8.16004C138.264 7.84004 138.072 7.48404 137.944 7.09204C137.824 6.70004 137.764 6.29604 137.764 5.88004V5.71204C137.764 5.30404 137.824 4.90404 137.944 4.51204C138.072 4.12004 138.264 3.76804 138.52 3.45604C138.776 3.14404 139.096 2.89604 139.48 2.71204C139.872 2.52004 140.328 2.42404 140.848 2.42404C141.512 2.42404 142.064 2.57204 142.504 2.86804C142.952 3.16404 143.288 3.54404 143.512 4.00804C143.736 4.46404 143.848 4.95604 143.848 5.48404V5.95204H138.172V5.25604H143.224L142.996 5.60404C142.996 5.13204 142.912 4.72004 142.744 4.36804C142.584 4.00804 142.344 3.72804 142.024 3.52804C141.712 3.32004 141.32 3.21604 140.848 3.21604C140.352 3.21604 139.94 3.33204 139.612 3.56404C139.284 3.79604 139.036 4.10404 138.868 4.48804C138.708 4.87204 138.628 5.30804 138.628 5.79604C138.628 6.27604 138.708 6.71604 138.868 7.11604C139.036 7.50804 139.288 7.82004 139.624 8.05204C139.968 8.28404 140.4 8.40004 140.92 8.40004C141.472 8.40004 141.92 8.27604 142.264 8.02804C142.608 7.77204 142.82 7.47204 142.9 7.12804H143.74C143.66 7.55204 143.492 7.92004 143.236 8.23204C142.98 8.53604 142.656 8.77204 142.264 8.94004C141.872 9.10804 141.424 9.19204 140.92 9.19204Z" fill="url(#paint0_radial_1184_1333)"/>
<defs>
<radialGradient id="paint0_radial_1184_1333" cx="0" cy="0" r="1" gradientUnits="userSpaceOnUse" gradientTransform="translate(70.4414 4.48804) rotate(90) scale(7.5 74)">
<stop stop-color="#5A69EA"/>
<stop offset="1" stop-color="#BF8BCA"/>
</radialGradient>
</defs>
</svg>
