<svg width="49" height="19" viewBox="0 0 49 19" fill="none" xmlns="http://www.w3.org/2000/svg">
<path d="M3.708 12.5V5.565H4.6485L6.8335 10.3625H7.0045L9.18 5.565H10.1395V12.5H9.4175V6.3725L9.4745 6.382L7.3655 11.037H6.4155L4.297 6.382L4.373 6.3725V12.5H3.708ZM14.3981 12.6615C13.9674 12.6615 13.5874 12.5887 13.2581 12.443C12.9351 12.291 12.6596 12.0915 12.4316 11.8445C12.2099 11.5912 12.0389 11.3093 11.9186 10.999C11.8046 10.6887 11.7476 10.372 11.7476 10.049V9.916C11.7476 9.593 11.8078 9.27633 11.9281 8.966C12.0484 8.64933 12.2226 8.3675 12.4506 8.1205C12.6786 7.8735 12.9541 7.67717 13.2771 7.5315C13.6064 7.3795 13.9801 7.3035 14.3981 7.3035C14.8224 7.3035 15.1961 7.3795 15.5191 7.5315C15.8484 7.67717 16.1271 7.8735 16.3551 8.1205C16.5831 8.3675 16.7541 8.64933 16.8681 8.966C16.9884 9.27633 17.0486 9.593 17.0486 9.916V10.049C17.0486 10.372 16.9916 10.6887 16.8776 10.999C16.7636 11.3093 16.5926 11.5912 16.3646 11.8445C16.1429 12.0915 15.8674 12.291 15.5381 12.443C15.2088 12.5887 14.8288 12.6615 14.3981 12.6615ZM14.3981 12.025C14.8161 12.025 15.1676 11.9332 15.4526 11.7495C15.7439 11.5595 15.9656 11.3125 16.1176 11.0085C16.2696 10.6982 16.3456 10.3562 16.3456 9.9825C16.3456 9.6025 16.2664 9.2605 16.1081 8.9565C15.9561 8.64617 15.7344 8.40233 15.4431 8.225C15.1518 8.04133 14.8034 7.9495 14.3981 7.9495C13.9991 7.9495 13.6539 8.04133 13.3626 8.225C13.0713 8.40233 12.8464 8.64617 12.6881 8.9565C12.5361 9.2605 12.4601 9.6025 12.4601 9.9825C12.4601 10.3562 12.5361 10.6982 12.6881 11.0085C12.8401 11.3125 13.0586 11.5595 13.3436 11.7495C13.6349 11.9332 13.9864 12.025 14.3981 12.025ZM20.5631 12.6615C20.1957 12.6615 19.8601 12.595 19.5561 12.462C19.2584 12.3227 18.9987 12.1327 18.7771 11.892C18.5617 11.645 18.3939 11.3663 18.2736 11.056C18.1596 10.7393 18.1026 10.4037 18.1026 10.049V9.916C18.1026 9.574 18.1596 9.24783 18.2736 8.9375C18.3876 8.62083 18.5491 8.34217 18.7581 8.1015C18.9734 7.8545 19.2299 7.66133 19.5276 7.522C19.8316 7.37633 20.1704 7.3035 20.5441 7.3035C20.9684 7.3035 21.3421 7.39533 21.6651 7.579C21.9881 7.76267 22.2477 8.02867 22.4441 8.377C22.6404 8.719 22.7449 9.14017 22.7576 9.6405L22.4441 9.0515V5.565H23.1566V12.5H22.5866V10.2675H22.8146C22.8019 10.7932 22.6911 11.2365 22.4821 11.5975C22.2794 11.9522 22.0102 12.2182 21.6746 12.3955C21.3452 12.5728 20.9747 12.6615 20.5631 12.6615ZM20.6581 12.0345C21.0001 12.0345 21.3072 11.9585 21.5796 11.8065C21.8582 11.6545 22.0767 11.4392 22.2351 11.1605C22.3934 10.8755 22.4726 10.5493 22.4726 10.182V9.726C22.4726 9.37133 22.3934 9.061 22.2351 8.795C22.0767 8.52267 21.8582 8.3105 21.5796 8.1585C21.3072 8.0065 20.9969 7.9305 20.6486 7.9305C20.2749 7.9305 19.9487 8.02233 19.6701 8.206C19.3977 8.38333 19.1856 8.62717 19.0336 8.9375C18.8879 9.24783 18.8151 9.59617 18.8151 9.9825C18.8151 10.3815 18.8911 10.7362 19.0431 11.0465C19.1951 11.3568 19.4104 11.6007 19.6891 11.778C19.9677 11.949 20.2907 12.0345 20.6581 12.0345ZM27.0952 12.6615C26.6646 12.6615 26.2909 12.5887 25.9742 12.443C25.6576 12.291 25.3979 12.0915 25.1952 11.8445C24.9926 11.5912 24.8406 11.3093 24.7392 10.999C24.6442 10.6887 24.5967 10.3688 24.5967 10.0395V9.9065C24.5967 9.5835 24.6442 9.26683 24.7392 8.9565C24.8406 8.64617 24.9926 8.3675 25.1952 8.1205C25.3979 7.8735 25.6512 7.67717 25.9552 7.5315C26.2656 7.3795 26.6266 7.3035 27.0382 7.3035C27.5639 7.3035 28.0009 7.42067 28.3492 7.655C28.7039 7.88933 28.9699 8.19017 29.1472 8.5575C29.3246 8.9185 29.4132 9.308 29.4132 9.726V10.0965H24.9197V9.5455H28.9192L28.7387 9.821C28.7387 9.44733 28.6722 9.12117 28.5392 8.8425C28.4126 8.5575 28.2226 8.33583 27.9692 8.1775C27.7222 8.01283 27.4119 7.9305 27.0382 7.9305C26.6456 7.9305 26.3194 8.02233 26.0597 8.206C25.8001 8.38967 25.6037 8.6335 25.4707 8.9375C25.3441 9.2415 25.2807 9.58667 25.2807 9.973C25.2807 10.353 25.3441 10.7013 25.4707 11.018C25.6037 11.3283 25.8032 11.5753 26.0692 11.759C26.3416 11.9427 26.6836 12.0345 27.0952 12.0345C27.5322 12.0345 27.8869 11.9363 28.1592 11.74C28.4316 11.5373 28.5994 11.2998 28.6627 11.0275H29.3277C29.2644 11.3632 29.1314 11.6545 28.9287 11.9015C28.7261 12.1422 28.4696 12.329 28.1592 12.462C27.8489 12.595 27.4942 12.6615 27.0952 12.6615Z" fill="#404040"/>
<path d="M38.9375 8.3125L41.3125 10.6875L43.6875 8.3125" stroke="#404040" stroke-width="0.95" stroke-linecap="round" stroke-linejoin="round"/>
</svg>
