<svg width="98" height="29" viewBox="0 0 98 29" fill="none" xmlns="http://www.w3.org/2000/svg">
<rect x="0.25" y="0.25" width="97.5" height="28.5" rx="4.75" fill="#ECECEC"/>
<rect x="0.25" y="0.25" width="97.5" height="28.5" rx="4.75" stroke="#717171" stroke-width="0.5"/>
<path d="M10.5946 18L13.2846 10.7H14.6446L17.4246 18H16.6446L14.0546 11.18L14.4646 11.39H13.4146L13.8446 11.18L11.3546 18H10.5946ZM12.0346 15.68L12.2846 14.99H15.6746L15.9346 15.68H12.0346ZM21.4549 18.17C20.9882 18.17 20.5782 18.0667 20.2249 17.86C19.8782 17.6533 19.6049 17.3633 19.4049 16.99C19.2115 16.6167 19.1082 16.1867 19.0949 15.7H19.3249V18H18.7249V10.7H19.4749V14.35L19.1849 15.02C19.1982 14.4867 19.3049 14.0367 19.5049 13.67C19.7115 13.2967 19.9849 13.0133 20.3249 12.82C20.6715 12.6267 21.0649 12.53 21.5049 12.53C21.8915 12.53 22.2415 12.6033 22.5549 12.75C22.8682 12.8967 23.1349 13.0967 23.3549 13.35C23.5815 13.6033 23.7515 13.8967 23.8649 14.23C23.9849 14.5567 24.0449 14.9033 24.0449 15.27V15.41C24.0449 15.77 23.9849 16.1167 23.8649 16.45C23.7449 16.7767 23.5715 17.07 23.3449 17.33C23.1249 17.59 22.8549 17.7967 22.5349 17.95C22.2149 18.0967 21.8549 18.17 21.4549 18.17ZM21.3749 17.51C21.7749 17.51 22.1182 17.4133 22.4049 17.22C22.6915 17.0267 22.9115 16.7667 23.0649 16.44C23.2182 16.1133 23.2949 15.7467 23.2949 15.34C23.2949 14.9267 23.2149 14.56 23.0549 14.24C22.9015 13.9133 22.6782 13.6567 22.3849 13.47C22.0982 13.2833 21.7615 13.19 21.3749 13.19C21.0149 13.19 20.6882 13.27 20.3949 13.43C20.1015 13.59 19.8682 13.8167 19.6949 14.11C19.5282 14.3967 19.4449 14.7367 19.4449 15.13V15.62C19.4449 15.9933 19.5282 16.3233 19.6949 16.61C19.8682 16.89 20.1015 17.11 20.3949 17.27C20.6882 17.43 21.0149 17.51 21.3749 17.51ZM27.9308 18.17C27.4775 18.17 27.0775 18.0933 26.7308 17.94C26.3908 17.78 26.1008 17.57 25.8608 17.31C25.6275 17.0433 25.4475 16.7467 25.3208 16.42C25.2008 16.0933 25.1408 15.76 25.1408 15.42V15.28C25.1408 14.94 25.2042 14.6067 25.3308 14.28C25.4575 13.9467 25.6408 13.65 25.8808 13.39C26.1208 13.13 26.4108 12.9233 26.7508 12.77C27.0975 12.61 27.4908 12.53 27.9308 12.53C28.3775 12.53 28.7708 12.61 29.1108 12.77C29.4575 12.9233 29.7508 13.13 29.9908 13.39C30.2308 13.65 30.4108 13.9467 30.5308 14.28C30.6575 14.6067 30.7208 14.94 30.7208 15.28V15.42C30.7208 15.76 30.6608 16.0933 30.5408 16.42C30.4208 16.7467 30.2408 17.0433 30.0008 17.31C29.7675 17.57 29.4775 17.78 29.1308 17.94C28.7842 18.0933 28.3842 18.17 27.9308 18.17ZM27.9308 17.5C28.3708 17.5 28.7408 17.4033 29.0408 17.21C29.3475 17.01 29.5808 16.75 29.7408 16.43C29.9008 16.1033 29.9808 15.7433 29.9808 15.35C29.9808 14.95 29.8975 14.59 29.7308 14.27C29.5708 13.9433 29.3375 13.6867 29.0308 13.5C28.7242 13.3067 28.3575 13.21 27.9308 13.21C27.5108 13.21 27.1475 13.3067 26.8408 13.5C26.5342 13.6867 26.2975 13.9433 26.1308 14.27C25.9708 14.59 25.8908 14.95 25.8908 15.35C25.8908 15.7433 25.9708 16.1033 26.1308 16.43C26.2908 16.75 26.5208 17.01 26.8208 17.21C27.1275 17.4033 27.4975 17.5 27.9308 17.5ZM34.0803 18.15C33.4469 18.15 32.9636 17.9467 32.6303 17.54C32.2969 17.1267 32.1303 16.5533 32.1303 15.82V12.7H32.8703V15.97C32.8703 16.43 32.9903 16.7967 33.2303 17.07C33.4769 17.3367 33.8169 17.47 34.2503 17.47C34.7036 17.47 35.0636 17.3267 35.3303 17.04C35.6036 16.7533 35.7403 16.37 35.7403 15.89V12.7H36.4903V18H35.8903V15.79H36.0103C36.0103 16.2833 35.9403 16.7067 35.8003 17.06C35.6603 17.4067 35.4503 17.6767 35.1703 17.87C34.8903 18.0567 34.5369 18.15 34.1103 18.15H34.0803ZM40.3714 18.06C40.0048 18.06 39.6881 18.0067 39.4214 17.9C39.1548 17.7933 38.9481 17.6133 38.8014 17.36C38.6548 17.1 38.5814 16.7533 38.5814 16.32V11.04H39.3014V16.43C39.3014 16.7367 39.3848 16.9733 39.5514 17.14C39.7181 17.3 39.9548 17.38 40.2614 17.38H41.2114V18.06H40.3714ZM37.6314 13.28V12.71H41.2114V13.28H37.6314ZM44.3544 18L47.0444 10.7H48.4044L51.1844 18H50.4044L47.8144 11.18L48.2244 11.39H47.1744L47.6044 11.18L45.1144 18H44.3544ZM45.7944 15.68L46.0444 14.99H49.4344L49.6944 15.68H45.7944ZM54.6458 18.17C54.1925 18.17 53.7992 18.0933 53.4658 17.94C53.1325 17.78 52.8592 17.57 52.6458 17.31C52.4325 17.0433 52.2725 16.7467 52.1658 16.42C52.0658 16.0933 52.0158 15.7567 52.0158 15.41V15.27C52.0158 14.93 52.0658 14.5967 52.1658 14.27C52.2725 13.9433 52.4325 13.65 52.6458 13.39C52.8592 13.13 53.1258 12.9233 53.4458 12.77C53.7725 12.61 54.1525 12.53 54.5858 12.53C55.1392 12.53 55.5992 12.6533 55.9658 12.9C56.3392 13.1467 56.6192 13.4633 56.8058 13.85C56.9925 14.23 57.0858 14.64 57.0858 15.08V15.47H52.3558V14.89H56.5658L56.3758 15.18C56.3758 14.7867 56.3058 14.4433 56.1658 14.15C56.0325 13.85 55.8325 13.6167 55.5658 13.45C55.3058 13.2767 54.9792 13.19 54.5858 13.19C54.1725 13.19 53.8292 13.2867 53.5558 13.48C53.2825 13.6733 53.0758 13.93 52.9358 14.25C52.8025 14.57 52.7358 14.9333 52.7358 15.34C52.7358 15.74 52.8025 16.1067 52.9358 16.44C53.0758 16.7667 53.2858 17.0267 53.5658 17.22C53.8525 17.4133 54.2125 17.51 54.6458 17.51C55.1058 17.51 55.4792 17.4067 55.7658 17.2C56.0525 16.9867 56.2292 16.7367 56.2958 16.45H56.9958C56.9292 16.8033 56.7892 17.11 56.5758 17.37C56.3625 17.6233 56.0925 17.82 55.7658 17.96C55.4392 18.1 55.0658 18.17 54.6458 18.17ZM60.7396 18.17C60.2862 18.17 59.8929 18.0933 59.5596 17.94C59.2262 17.78 58.9529 17.57 58.7396 17.31C58.5262 17.0433 58.3662 16.7467 58.2596 16.42C58.1596 16.0933 58.1096 15.7567 58.1096 15.41V15.27C58.1096 14.93 58.1596 14.5967 58.2596 14.27C58.3662 13.9433 58.5262 13.65 58.7396 13.39C58.9529 13.13 59.2196 12.9233 59.5396 12.77C59.8662 12.61 60.2462 12.53 60.6796 12.53C61.2329 12.53 61.6929 12.6533 62.0596 12.9C62.4329 13.1467 62.7129 13.4633 62.8996 13.85C63.0862 14.23 63.1796 14.64 63.1796 15.08V15.47H58.4496V14.89H62.6596L62.4696 15.18C62.4696 14.7867 62.3996 14.4433 62.2596 14.15C62.1262 13.85 61.9262 13.6167 61.6596 13.45C61.3996 13.2767 61.0729 13.19 60.6796 13.19C60.2662 13.19 59.9229 13.2867 59.6496 13.48C59.3762 13.6733 59.1696 13.93 59.0296 14.25C58.8962 14.57 58.8296 14.9333 58.8296 15.34C58.8296 15.74 58.8962 16.1067 59.0296 16.44C59.1696 16.7667 59.3796 17.0267 59.6596 17.22C59.9462 17.4133 60.3062 17.51 60.7396 17.51C61.1996 17.51 61.5729 17.4067 61.8596 17.2C62.1462 16.9867 62.3229 16.7367 62.3896 16.45H63.0896C63.0229 16.8033 62.8829 17.11 62.6696 17.37C62.4562 17.6233 62.1862 17.82 61.8596 17.96C61.5329 18.1 61.1596 18.17 60.7396 18.17ZM66.5433 18.06C66.1767 18.06 65.86 18.0067 65.5933 17.9C65.3267 17.7933 65.12 17.6133 64.9733 17.36C64.8267 17.1 64.7533 16.7533 64.7533 16.32V11.04H65.4733V16.43C65.4733 16.7367 65.5567 16.9733 65.7233 17.14C65.89 17.3 66.1267 17.38 66.4333 17.38H67.3833V18.06H66.5433ZM63.8033 13.28V12.71H67.3833V13.28H63.8033ZM68.8323 18V10.7H69.5823V14.83L69.3623 15C69.3623 14.5067 69.4323 14.0767 69.5723 13.71C69.719 13.3433 69.9356 13.06 70.2223 12.86C70.5156 12.6533 70.8823 12.55 71.3223 12.55H71.3623C72.0023 12.55 72.4856 12.76 72.8123 13.18C73.1456 13.6 73.3123 14.1833 73.3123 14.93V18H72.5723V14.77C72.5723 14.2967 72.4423 13.9233 72.1823 13.65C71.9223 13.3767 71.5723 13.24 71.1323 13.24C70.659 13.24 70.2823 13.3933 70.0023 13.7C69.7223 14 69.5823 14.3967 69.5823 14.89V18H68.8323ZM77.55 18.17C77.0966 18.17 76.6966 18.0933 76.35 17.94C76.01 17.78 75.72 17.57 75.48 17.31C75.2466 17.0433 75.0666 16.7467 74.94 16.42C74.82 16.0933 74.76 15.76 74.76 15.42V15.28C74.76 14.94 74.8233 14.6067 74.95 14.28C75.0766 13.9467 75.26 13.65 75.5 13.39C75.74 13.13 76.03 12.9233 76.37 12.77C76.7166 12.61 77.11 12.53 77.55 12.53C77.9966 12.53 78.39 12.61 78.73 12.77C79.0766 12.9233 79.37 13.13 79.61 13.39C79.85 13.65 80.03 13.9467 80.15 14.28C80.2766 14.6067 80.34 14.94 80.34 15.28V15.42C80.34 15.76 80.28 16.0933 80.16 16.42C80.04 16.7467 79.86 17.0433 79.62 17.31C79.3866 17.57 79.0966 17.78 78.75 17.94C78.4033 18.0933 78.0033 18.17 77.55 18.17ZM77.55 17.5C77.99 17.5 78.36 17.4033 78.66 17.21C78.9666 17.01 79.2 16.75 79.36 16.43C79.52 16.1033 79.6 15.7433 79.6 15.35C79.6 14.95 79.5166 14.59 79.35 14.27C79.19 13.9433 78.9566 13.6867 78.65 13.5C78.3433 13.3067 77.9766 13.21 77.55 13.21C77.13 13.21 76.7666 13.3067 76.46 13.5C76.1533 13.6867 75.9166 13.9433 75.75 14.27C75.59 14.59 75.51 14.95 75.51 15.35C75.51 15.7433 75.59 16.1033 75.75 16.43C75.91 16.75 76.14 17.01 76.44 17.21C76.7466 17.4033 77.1166 17.5 77.55 17.5ZM84.0394 18.17C83.6527 18.17 83.2994 18.1 82.9794 17.96C82.6661 17.8133 82.3927 17.6133 82.1594 17.36C81.9327 17.1 81.7561 16.8067 81.6294 16.48C81.5094 16.1467 81.4494 15.7933 81.4494 15.42V15.28C81.4494 14.92 81.5094 14.5767 81.6294 14.25C81.7494 13.9167 81.9194 13.6233 82.1394 13.37C82.3661 13.11 82.6361 12.9067 82.9494 12.76C83.2694 12.6067 83.6261 12.53 84.0194 12.53C84.4661 12.53 84.8594 12.6267 85.1994 12.82C85.5394 13.0133 85.8127 13.2933 86.0194 13.66C86.2261 14.02 86.3361 14.4633 86.3494 14.99L86.0194 14.37V10.7H86.7694V18H86.1694V15.65H86.4094C86.3961 16.2033 86.2794 16.67 86.0594 17.05C85.8461 17.4233 85.5627 17.7033 85.2094 17.89C84.8627 18.0767 84.4727 18.17 84.0394 18.17ZM84.1394 17.51C84.4994 17.51 84.8227 17.43 85.1094 17.27C85.4027 17.11 85.6327 16.8833 85.7994 16.59C85.9661 16.29 86.0494 15.9467 86.0494 15.56V15.08C86.0494 14.7067 85.9661 14.38 85.7994 14.1C85.6327 13.8133 85.4027 13.59 85.1094 13.43C84.8227 13.27 84.4961 13.19 84.1294 13.19C83.7361 13.19 83.3927 13.2867 83.0994 13.48C82.8127 13.6667 82.5894 13.9233 82.4294 14.25C82.2761 14.5767 82.1994 14.9433 82.1994 15.35C82.1994 15.77 82.2794 16.1433 82.4394 16.47C82.5994 16.7967 82.8261 17.0533 83.1194 17.24C83.4127 17.42 83.7527 17.51 84.1394 17.51Z" fill="#404040"/>
</svg>
