<svg width="244" height="29" viewBox="0 0 244 29" fill="none" xmlns="http://www.w3.org/2000/svg">
<rect x="0.25" y="0.25" width="243.5" height="28.5" rx="4.75" fill="#ECECEC"/>
<rect x="0.25" y="0.25" width="243.5" height="28.5" rx="4.75" stroke="#717171" stroke-width="0.5"/>
<path d="M13.6908 18L11.6708 10.7H12.4508L14.2808 17.51L13.9308 17.31H14.9008L14.5208 17.51L16.0108 11.02H16.7308L15.0908 18H13.6908ZM18.0808 18L16.2808 11.02H17.0208L18.6808 17.51L18.3108 17.31H19.3008L18.9208 17.51L20.5708 10.7H21.3308L19.4808 18H18.0808ZM22.6331 18V10.7H23.3831V14.83L23.1631 15C23.1631 14.5067 23.2331 14.0767 23.3731 13.71C23.5198 13.3433 23.7364 13.06 24.0231 12.86C24.3164 12.6533 24.6831 12.55 25.1231 12.55H25.1631C25.8031 12.55 26.2864 12.76 26.6131 13.18C26.9464 13.6 27.1131 14.1833 27.1131 14.93V18H26.3731V14.77C26.3731 14.2967 26.2431 13.9233 25.9831 13.65C25.7231 13.3767 25.3731 13.24 24.9331 13.24C24.4598 13.24 24.0831 13.3933 23.8031 13.7C23.5231 14 23.3831 14.3967 23.3831 14.89V18H22.6331ZM32.2007 18V16.41H32.0807V14.53C32.0807 14.1367 31.9774 13.8367 31.7707 13.63C31.5641 13.4167 31.2441 13.31 30.8107 13.31C30.6107 13.31 30.4074 13.3133 30.2007 13.32C30.0007 13.3267 29.8074 13.3367 29.6207 13.35C29.4407 13.3567 29.2807 13.3667 29.1407 13.38V12.72C29.2874 12.7067 29.4374 12.6933 29.5907 12.68C29.7441 12.6667 29.9007 12.66 30.0607 12.66C30.2274 12.6533 30.3874 12.65 30.5407 12.65C31.0807 12.65 31.5141 12.7167 31.8407 12.85C32.1741 12.9833 32.4174 13.1933 32.5707 13.48C32.7241 13.76 32.8007 14.1333 32.8007 14.6V18H32.2007ZM30.4107 18.14C30.0374 18.14 29.7074 18.0733 29.4207 17.94C29.1341 17.8067 28.9107 17.6133 28.7507 17.36C28.5974 17.1067 28.5207 16.8 28.5207 16.44C28.5207 16.0867 28.6007 15.7867 28.7607 15.54C28.9274 15.2933 29.1641 15.1067 29.4707 14.98C29.7841 14.8467 30.1607 14.78 30.6007 14.78H32.1507V15.35H30.5507C30.1307 15.35 29.8074 15.4533 29.5807 15.66C29.3607 15.86 29.2507 16.1233 29.2507 16.45C29.2507 16.7833 29.3674 17.05 29.6007 17.25C29.8341 17.4433 30.1507 17.54 30.5507 17.54C30.7974 17.54 31.0341 17.4967 31.2607 17.41C31.4874 17.3167 31.6774 17.1633 31.8307 16.95C31.9841 16.73 32.0674 16.43 32.0807 16.05L32.3007 16.36C32.2741 16.7533 32.1807 17.0833 32.0207 17.35C31.8607 17.61 31.6441 17.8067 31.3707 17.94C31.0974 18.0733 30.7774 18.14 30.4107 18.14ZM36.5941 18.06C36.2274 18.06 35.9108 18.0067 35.6441 17.9C35.3774 17.7933 35.1708 17.6133 35.0241 17.36C34.8774 17.1 34.8041 16.7533 34.8041 16.32V11.04H35.5241V16.43C35.5241 16.7367 35.6074 16.9733 35.7741 17.14C35.9408 17.3 36.1774 17.38 36.4841 17.38H37.4341V18.06H36.5941ZM33.8541 13.28V12.71H37.4341V13.28H33.8541ZM41.2171 18V10.7H41.9671V14.83L41.7471 15C41.7471 14.5067 41.8171 14.0767 41.9571 13.71C42.1037 13.3433 42.3204 13.06 42.6071 12.86C42.9004 12.6533 43.2671 12.55 43.7071 12.55H43.7471C44.3871 12.55 44.8704 12.76 45.1971 13.18C45.5304 13.6 45.6971 14.1833 45.6971 14.93V18H44.9571V14.77C44.9571 14.2967 44.8271 13.9233 44.5671 13.65C44.3071 13.3767 43.9571 13.24 43.5171 13.24C43.0437 13.24 42.6671 13.3933 42.3871 13.7C42.1071 14 41.9671 14.3967 41.9671 14.89V18H41.2171ZM50.7847 18V16.41H50.6647V14.53C50.6647 14.1367 50.5614 13.8367 50.3547 13.63C50.1481 13.4167 49.8281 13.31 49.3947 13.31C49.1947 13.31 48.9914 13.3133 48.7847 13.32C48.5847 13.3267 48.3914 13.3367 48.2047 13.35C48.0247 13.3567 47.8647 13.3667 47.7247 13.38V12.72C47.8714 12.7067 48.0214 12.6933 48.1747 12.68C48.3281 12.6667 48.4847 12.66 48.6447 12.66C48.8114 12.6533 48.9714 12.65 49.1247 12.65C49.6647 12.65 50.0981 12.7167 50.4247 12.85C50.7581 12.9833 51.0014 13.1933 51.1547 13.48C51.3081 13.76 51.3847 14.1333 51.3847 14.6V18H50.7847ZM48.9947 18.14C48.6214 18.14 48.2914 18.0733 48.0047 17.94C47.7181 17.8067 47.4947 17.6133 47.3347 17.36C47.1814 17.1067 47.1047 16.8 47.1047 16.44C47.1047 16.0867 47.1847 15.7867 47.3447 15.54C47.5114 15.2933 47.7481 15.1067 48.0547 14.98C48.3681 14.8467 48.7447 14.78 49.1847 14.78H50.7347V15.35H49.1347C48.7147 15.35 48.3914 15.4533 48.1647 15.66C47.9447 15.86 47.8347 16.1233 47.8347 16.45C47.8347 16.7833 47.9514 17.05 48.1847 17.25C48.4181 17.4433 48.7347 17.54 49.1347 17.54C49.3814 17.54 49.6181 17.4967 49.8447 17.41C50.0714 17.3167 50.2614 17.1633 50.4147 16.95C50.5681 16.73 50.6514 16.43 50.6647 16.05L50.8847 16.36C50.8581 16.7533 50.7647 17.0833 50.6047 17.35C50.4447 17.61 50.2281 17.8067 49.9547 17.94C49.6814 18.0733 49.3614 18.14 48.9947 18.14ZM53.2581 20V12.71H53.8581V14.98L53.6781 15C53.7048 14.4667 53.8181 14.0167 54.0181 13.65C54.2248 13.2833 54.5014 13.0067 54.8481 12.82C55.2014 12.6267 55.5948 12.53 56.0281 12.53C56.4148 12.53 56.7648 12.6067 57.0781 12.76C57.3981 12.9067 57.6681 13.11 57.8881 13.37C58.1148 13.6233 58.2848 13.9167 58.3981 14.25C58.5181 14.5767 58.5781 14.92 58.5781 15.28V15.42C58.5781 15.78 58.5181 16.1267 58.3981 16.46C58.2781 16.7867 58.1048 17.08 57.8781 17.34C57.6581 17.5933 57.3881 17.7967 57.0681 17.95C56.7548 18.0967 56.4014 18.17 56.0081 18.17C55.5881 18.17 55.2014 18.0767 54.8481 17.89C54.5014 17.6967 54.2181 17.4133 53.9981 17.04C53.7848 16.6667 53.6681 16.2067 53.6481 15.66L54.0081 16.41V20H53.2581ZM55.9081 17.51C56.3081 17.51 56.6514 17.4167 56.9381 17.23C57.2248 17.0367 57.4448 16.7767 57.5981 16.45C57.7514 16.1167 57.8281 15.75 57.8281 15.35C57.8281 14.9367 57.7481 14.57 57.5881 14.25C57.4348 13.9233 57.2148 13.6667 56.9281 13.48C56.6414 13.2867 56.3014 13.19 55.9081 13.19C55.5481 13.19 55.2214 13.27 54.9281 13.43C54.6348 13.59 54.4014 13.8167 54.2281 14.11C54.0614 14.3967 53.9781 14.7367 53.9781 15.13V15.62C53.9781 15.9933 54.0614 16.3233 54.2281 16.61C54.4014 16.89 54.6348 17.11 54.9281 17.27C55.2214 17.43 55.5481 17.51 55.9081 17.51ZM60.094 20V12.71H60.694V14.98L60.514 15C60.5407 14.4667 60.654 14.0167 60.854 13.65C61.0607 13.2833 61.3374 13.0067 61.684 12.82C62.0374 12.6267 62.4307 12.53 62.864 12.53C63.2507 12.53 63.6007 12.6067 63.914 12.76C64.234 12.9067 64.504 13.11 64.724 13.37C64.9507 13.6233 65.1207 13.9167 65.234 14.25C65.354 14.5767 65.414 14.92 65.414 15.28V15.42C65.414 15.78 65.354 16.1267 65.234 16.46C65.114 16.7867 64.9407 17.08 64.714 17.34C64.494 17.5933 64.224 17.7967 63.904 17.95C63.5907 18.0967 63.2374 18.17 62.844 18.17C62.424 18.17 62.0374 18.0767 61.684 17.89C61.3374 17.6967 61.054 17.4133 60.834 17.04C60.6207 16.6667 60.504 16.2067 60.484 15.66L60.844 16.41V20H60.094ZM62.744 17.51C63.144 17.51 63.4874 17.4167 63.774 17.23C64.0607 17.0367 64.2807 16.7767 64.434 16.45C64.5874 16.1167 64.664 15.75 64.664 15.35C64.664 14.9367 64.584 14.57 64.424 14.25C64.2707 13.9233 64.0507 13.6667 63.764 13.48C63.4774 13.2867 63.1374 13.19 62.744 13.19C62.384 13.19 62.0574 13.27 61.764 13.43C61.4707 13.59 61.2374 13.8167 61.064 14.11C60.8974 14.3967 60.814 14.7367 60.814 15.13V15.62C60.814 15.9933 60.8974 16.3233 61.064 16.61C61.2374 16.89 61.4707 17.11 61.764 17.27C62.0574 17.43 62.384 17.51 62.744 17.51ZM69.14 18.17C68.6866 18.17 68.2933 18.0933 67.96 17.94C67.6266 17.78 67.3533 17.57 67.14 17.31C66.9266 17.0433 66.7666 16.7467 66.66 16.42C66.56 16.0933 66.51 15.7567 66.51 15.41V15.27C66.51 14.93 66.56 14.5967 66.66 14.27C66.7666 13.9433 66.9266 13.65 67.14 13.39C67.3533 13.13 67.62 12.9233 67.94 12.77C68.2666 12.61 68.6466 12.53 69.08 12.53C69.6333 12.53 70.0933 12.6533 70.46 12.9C70.8333 13.1467 71.1133 13.4633 71.3 13.85C71.4866 14.23 71.58 14.64 71.58 15.08V15.47H66.85V14.89H71.06L70.87 15.18C70.87 14.7867 70.8 14.4433 70.66 14.15C70.5266 13.85 70.3266 13.6167 70.06 13.45C69.8 13.2767 69.4733 13.19 69.08 13.19C68.6666 13.19 68.3233 13.2867 68.05 13.48C67.7766 13.6733 67.57 13.93 67.43 14.25C67.2966 14.57 67.23 14.9333 67.23 15.34C67.23 15.74 67.2966 16.1067 67.43 16.44C67.57 16.7667 67.78 17.0267 68.06 17.22C68.3466 17.4133 68.7066 17.51 69.14 17.51C69.6 17.51 69.9733 17.4067 70.26 17.2C70.5466 16.9867 70.7233 16.7367 70.79 16.45H71.49C71.4233 16.8033 71.2833 17.11 71.07 17.37C70.8566 17.6233 70.5866 17.82 70.26 17.96C69.9333 18.1 69.56 18.17 69.14 18.17ZM73.0237 18V12.71H73.6237V14.93H73.5037C73.5037 14.4367 73.577 14.0133 73.7237 13.66C73.8704 13.3067 74.0904 13.0333 74.3837 12.84C74.677 12.6467 75.047 12.55 75.4937 12.55H75.5237C76.1904 12.55 76.687 12.76 77.0137 13.18C77.3404 13.5933 77.5037 14.1767 77.5037 14.93V18H76.7637V14.77C76.7637 14.31 76.637 13.94 76.3837 13.66C76.1304 13.38 75.777 13.24 75.3237 13.24C74.857 13.24 74.4804 13.3867 74.1937 13.68C73.9137 13.9667 73.7737 14.3467 73.7737 14.82V18H73.0237ZM81.0414 18.15C80.3614 18.15 79.838 18.0033 79.4714 17.71C79.1047 17.41 78.918 17.01 78.9114 16.51H79.6114C79.6247 16.7633 79.738 16.9933 79.9514 17.2C80.1714 17.4067 80.5347 17.51 81.0414 17.51C81.5147 17.51 81.868 17.4133 82.1014 17.22C82.3414 17.02 82.4614 16.78 82.4614 16.5C82.4614 16.24 82.3614 16.04 82.1614 15.9C81.968 15.7533 81.6847 15.66 81.3114 15.62L80.7114 15.56C80.2314 15.5067 79.8414 15.36 79.5414 15.12C79.248 14.8733 79.1014 14.5367 79.1014 14.11C79.1014 13.7967 79.1814 13.5233 79.3414 13.29C79.5014 13.0567 79.7247 12.8767 80.0114 12.75C80.3047 12.6167 80.648 12.55 81.0414 12.55C81.608 12.55 82.068 12.6833 82.4214 12.95C82.7814 13.2167 82.9647 13.5967 82.9714 14.09H82.2714C82.2647 13.8367 82.158 13.6233 81.9514 13.45C81.7447 13.2767 81.4414 13.19 81.0414 13.19C80.628 13.19 80.318 13.28 80.1114 13.46C79.9114 13.64 79.8114 13.86 79.8114 14.12C79.8114 14.34 79.888 14.5233 80.0414 14.67C80.1947 14.81 80.4347 14.8967 80.7614 14.93L81.3614 14.99C81.8947 15.05 82.328 15.2033 82.6614 15.45C83.0014 15.6967 83.1714 16.05 83.1714 16.51C83.1714 16.8233 83.0814 17.1067 82.9014 17.36C82.728 17.6067 82.4814 17.8 82.1614 17.94C81.8414 18.08 81.468 18.15 81.0414 18.15ZM87.2783 18V12.71H88.0183V18H87.2783ZM86.4283 13.31V12.71H88.0183V13.31H86.4283ZM87.4383 11.73C87.2583 11.73 87.1217 11.6833 87.0283 11.59C86.9417 11.49 86.8983 11.3667 86.8983 11.22C86.8983 11.0733 86.9417 10.9533 87.0283 10.86C87.1217 10.76 87.2583 10.71 87.4383 10.71C87.6183 10.71 87.7517 10.76 87.8383 10.86C87.925 10.9533 87.9683 11.0733 87.9683 11.22C87.9683 11.3667 87.925 11.49 87.8383 11.59C87.7517 11.6833 87.6183 11.73 87.4383 11.73ZM90.1366 18V12.3C90.1366 11.7467 90.2799 11.3367 90.5666 11.07C90.8533 10.8033 91.2833 10.67 91.8566 10.67H92.5266V11.31H91.7166C91.4366 11.31 91.2233 11.3833 91.0766 11.53C90.9299 11.6767 90.8566 11.8833 90.8566 12.15V18H90.1366ZM89.3666 13.33V12.75H92.6366V13.33H89.3666ZM96.0706 18V12.7H96.6706V14.93H96.5506C96.5506 14.4433 96.6173 14.0233 96.7506 13.67C96.8906 13.3167 97.0973 13.0433 97.3706 12.85C97.6439 12.65 97.9906 12.55 98.4106 12.55H98.4406C98.8606 12.55 99.2073 12.6467 99.4806 12.84C99.7539 13.0333 99.9573 13.3067 100.091 13.66C100.224 14.0133 100.291 14.4367 100.291 14.93H100.051C100.051 14.4433 100.117 14.0233 100.251 13.67C100.391 13.3167 100.597 13.0433 100.871 12.85C101.151 12.65 101.501 12.55 101.921 12.55H101.951C102.371 12.55 102.717 12.6467 102.991 12.84C103.271 13.0333 103.477 13.3067 103.611 13.66C103.751 14.0133 103.821 14.4367 103.821 14.93V18H103.071V14.76C103.071 14.2933 102.957 13.9233 102.731 13.65C102.504 13.3767 102.177 13.24 101.751 13.24C101.311 13.24 100.961 13.3833 100.701 13.67C100.447 13.95 100.321 14.33 100.321 14.81V18H99.5706V14.76C99.5706 14.2933 99.4573 13.9233 99.2306 13.65C99.0039 13.3767 98.6773 13.24 98.2506 13.24C97.8106 13.24 97.4606 13.3833 97.2006 13.67C96.9473 13.95 96.8206 14.33 96.8206 14.81V18H96.0706ZM105.181 20.06V19.39H105.861C106.094 19.39 106.294 19.36 106.461 19.3C106.627 19.2467 106.767 19.15 106.881 19.01C106.994 18.87 107.091 18.6767 107.171 18.43L108.951 12.71H109.681L107.821 18.64C107.714 18.98 107.567 19.2533 107.381 19.46C107.194 19.6733 106.971 19.8267 106.711 19.92C106.451 20.0133 106.154 20.06 105.821 20.06H105.181ZM106.901 17.87V17.24H107.851V17.87H106.901ZM106.811 17.87L104.891 12.71H105.661L107.511 17.87H106.811ZM113.326 20V12.71H113.926V14.98L113.746 15C113.773 14.4667 113.886 14.0167 114.086 13.65C114.293 13.2833 114.57 13.0067 114.916 12.82C115.27 12.6267 115.663 12.53 116.096 12.53C116.483 12.53 116.833 12.6067 117.146 12.76C117.466 12.9067 117.736 13.11 117.956 13.37C118.183 13.6233 118.353 13.9167 118.466 14.25C118.586 14.5767 118.646 14.92 118.646 15.28V15.42C118.646 15.78 118.586 16.1267 118.466 16.46C118.346 16.7867 118.173 17.08 117.946 17.34C117.726 17.5933 117.456 17.7967 117.136 17.95C116.823 18.0967 116.47 18.17 116.076 18.17C115.656 18.17 115.27 18.0767 114.916 17.89C114.57 17.6967 114.286 17.4133 114.066 17.04C113.853 16.6667 113.736 16.2067 113.716 15.66L114.076 16.41V20H113.326ZM115.976 17.51C116.376 17.51 116.72 17.4167 117.006 17.23C117.293 17.0367 117.513 16.7767 117.666 16.45C117.82 16.1167 117.896 15.75 117.896 15.35C117.896 14.9367 117.816 14.57 117.656 14.25C117.503 13.9233 117.283 13.6667 116.996 13.48C116.71 13.2867 116.37 13.19 115.976 13.19C115.616 13.19 115.29 13.27 114.996 13.43C114.703 13.59 114.47 13.8167 114.296 14.11C114.13 14.3967 114.046 14.7367 114.046 15.13V15.62C114.046 15.9933 114.13 16.3233 114.296 16.61C114.47 16.89 114.703 17.11 114.996 17.27C115.29 17.43 115.616 17.51 115.976 17.51ZM120.162 18V12.71H120.762V14.92H120.702C120.702 14.1467 120.872 13.5767 121.212 13.21C121.552 12.8367 122.086 12.65 122.812 12.65H122.982V13.33H122.672C122.099 13.33 121.662 13.48 121.362 13.78C121.062 14.0733 120.912 14.5067 120.912 15.08V18H120.162ZM126.497 18.17C126.044 18.17 125.644 18.0933 125.297 17.94C124.957 17.78 124.667 17.57 124.427 17.31C124.194 17.0433 124.014 16.7467 123.887 16.42C123.767 16.0933 123.707 15.76 123.707 15.42V15.28C123.707 14.94 123.771 14.6067 123.897 14.28C124.024 13.9467 124.207 13.65 124.447 13.39C124.687 13.13 124.977 12.9233 125.317 12.77C125.664 12.61 126.057 12.53 126.497 12.53C126.944 12.53 127.337 12.61 127.677 12.77C128.024 12.9233 128.317 13.13 128.557 13.39C128.797 13.65 128.977 13.9467 129.097 14.28C129.224 14.6067 129.287 14.94 129.287 15.28V15.42C129.287 15.76 129.227 16.0933 129.107 16.42C128.987 16.7467 128.807 17.0433 128.567 17.31C128.334 17.57 128.044 17.78 127.697 17.94C127.351 18.0933 126.951 18.17 126.497 18.17ZM126.497 17.5C126.937 17.5 127.307 17.4033 127.607 17.21C127.914 17.01 128.147 16.75 128.307 16.43C128.467 16.1033 128.547 15.7433 128.547 15.35C128.547 14.95 128.464 14.59 128.297 14.27C128.137 13.9433 127.904 13.6867 127.597 13.5C127.291 13.3067 126.924 13.21 126.497 13.21C126.077 13.21 125.714 13.3067 125.407 13.5C125.101 13.6867 124.864 13.9433 124.697 14.27C124.537 14.59 124.457 14.95 124.457 15.35C124.457 15.7433 124.537 16.1033 124.697 16.43C124.857 16.75 125.087 17.01 125.387 17.21C125.694 17.4033 126.064 17.5 126.497 17.5ZM129.817 20.03V19.36H130.417C130.677 19.36 130.873 19.2833 131.007 19.13C131.147 18.9833 131.217 18.77 131.217 18.49V12.71H131.937V18.35C131.937 18.7633 131.88 19.0933 131.767 19.34C131.66 19.5867 131.487 19.7633 131.247 19.87C131.007 19.9767 130.687 20.03 130.287 20.03H129.817ZM130.357 13.31V12.71H131.937V13.31H130.357ZM131.357 11.64C131.177 11.64 131.04 11.5933 130.947 11.5C130.86 11.4 130.817 11.2767 130.817 11.13C130.817 10.9833 130.86 10.8633 130.947 10.77C131.04 10.67 131.177 10.62 131.357 10.62C131.537 10.62 131.67 10.67 131.757 10.77C131.843 10.8633 131.887 10.9833 131.887 11.13C131.887 11.2767 131.843 11.4 131.757 11.5C131.67 11.5933 131.537 11.64 131.357 11.64ZM136.093 18.17C135.64 18.17 135.246 18.0933 134.913 17.94C134.58 17.78 134.306 17.57 134.093 17.31C133.88 17.0433 133.72 16.7467 133.613 16.42C133.513 16.0933 133.463 15.7567 133.463 15.41V15.27C133.463 14.93 133.513 14.5967 133.613 14.27C133.72 13.9433 133.88 13.65 134.093 13.39C134.306 13.13 134.573 12.9233 134.893 12.77C135.22 12.61 135.6 12.53 136.033 12.53C136.586 12.53 137.046 12.6533 137.413 12.9C137.786 13.1467 138.066 13.4633 138.253 13.85C138.44 14.23 138.533 14.64 138.533 15.08V15.47H133.803V14.89H138.013L137.823 15.18C137.823 14.7867 137.753 14.4433 137.613 14.15C137.48 13.85 137.28 13.6167 137.013 13.45C136.753 13.2767 136.426 13.19 136.033 13.19C135.62 13.19 135.276 13.2867 135.003 13.48C134.73 13.6733 134.523 13.93 134.383 14.25C134.25 14.57 134.183 14.9333 134.183 15.34C134.183 15.74 134.25 16.1067 134.383 16.44C134.523 16.7667 134.733 17.0267 135.013 17.22C135.3 17.4133 135.66 17.51 136.093 17.51C136.553 17.51 136.926 17.4067 137.213 17.2C137.5 16.9867 137.676 16.7367 137.743 16.45H138.443C138.376 16.8033 138.236 17.11 138.023 17.37C137.81 17.6233 137.54 17.82 137.213 17.96C136.886 18.1 136.513 18.17 136.093 18.17ZM142.207 18.17C141.76 18.17 141.37 18.0933 141.037 17.94C140.71 17.78 140.437 17.5667 140.217 17.3C139.997 17.0267 139.83 16.7267 139.717 16.4C139.61 16.0733 139.557 15.7433 139.557 15.41V15.27C139.557 14.93 139.61 14.6 139.717 14.28C139.83 13.9533 139.997 13.66 140.217 13.4C140.437 13.1333 140.71 12.9233 141.037 12.77C141.37 12.61 141.754 12.53 142.187 12.53C142.627 12.53 143.017 12.61 143.357 12.77C143.704 12.93 143.984 13.1567 144.197 13.45C144.41 13.7433 144.537 14.09 144.577 14.49H143.857C143.797 14.1233 143.624 13.82 143.337 13.58C143.057 13.3333 142.674 13.21 142.187 13.21C141.767 13.21 141.417 13.3067 141.137 13.5C140.864 13.6867 140.657 13.9433 140.517 14.27C140.377 14.59 140.307 14.9467 140.307 15.34C140.307 15.7267 140.377 16.0867 140.517 16.42C140.657 16.7467 140.867 17.01 141.147 17.21C141.427 17.4033 141.78 17.5 142.207 17.5C142.534 17.5 142.817 17.4433 143.057 17.33C143.304 17.21 143.5 17.05 143.647 16.85C143.8 16.65 143.89 16.43 143.917 16.19H144.637C144.61 16.59 144.484 16.94 144.257 17.24C144.037 17.5333 143.75 17.7633 143.397 17.93C143.044 18.09 142.647 18.17 142.207 18.17ZM147.932 18.06C147.565 18.06 147.249 18.0067 146.982 17.9C146.715 17.7933 146.509 17.6133 146.362 17.36C146.215 17.1 146.142 16.7533 146.142 16.32V11.04H146.862V16.43C146.862 16.7367 146.945 16.9733 147.112 17.14C147.279 17.3 147.515 17.38 147.822 17.38H148.772V18.06H147.932ZM145.192 13.28V12.71H148.772V13.28H145.192ZM154.225 18.15C153.545 18.15 153.022 18.0033 152.655 17.71C152.288 17.41 152.102 17.01 152.095 16.51H152.795C152.808 16.7633 152.922 16.9933 153.135 17.2C153.355 17.4067 153.718 17.51 154.225 17.51C154.698 17.51 155.052 17.4133 155.285 17.22C155.525 17.02 155.645 16.78 155.645 16.5C155.645 16.24 155.545 16.04 155.345 15.9C155.152 15.7533 154.868 15.66 154.495 15.62L153.895 15.56C153.415 15.5067 153.025 15.36 152.725 15.12C152.432 14.8733 152.285 14.5367 152.285 14.11C152.285 13.7967 152.365 13.5233 152.525 13.29C152.685 13.0567 152.908 12.8767 153.195 12.75C153.488 12.6167 153.832 12.55 154.225 12.55C154.792 12.55 155.252 12.6833 155.605 12.95C155.965 13.2167 156.148 13.5967 156.155 14.09H155.455C155.448 13.8367 155.342 13.6233 155.135 13.45C154.928 13.2767 154.625 13.19 154.225 13.19C153.812 13.19 153.502 13.28 153.295 13.46C153.095 13.64 152.995 13.86 152.995 14.12C152.995 14.34 153.072 14.5233 153.225 14.67C153.378 14.81 153.618 14.8967 153.945 14.93L154.545 14.99C155.078 15.05 155.512 15.2033 155.845 15.45C156.185 15.6967 156.355 16.05 156.355 16.51C156.355 16.8233 156.265 17.1067 156.085 17.36C155.912 17.6067 155.665 17.8 155.345 17.94C155.025 18.08 154.652 18.15 154.225 18.15ZM160.078 18.17C159.631 18.17 159.241 18.0933 158.908 17.94C158.581 17.78 158.308 17.5667 158.088 17.3C157.868 17.0267 157.701 16.7267 157.588 16.4C157.481 16.0733 157.428 15.7433 157.428 15.41V15.27C157.428 14.93 157.481 14.6 157.588 14.28C157.701 13.9533 157.868 13.66 158.088 13.4C158.308 13.1333 158.581 12.9233 158.908 12.77C159.241 12.61 159.625 12.53 160.058 12.53C160.498 12.53 160.888 12.61 161.228 12.77C161.575 12.93 161.855 13.1567 162.068 13.45C162.281 13.7433 162.408 14.09 162.448 14.49H161.728C161.668 14.1233 161.495 13.82 161.208 13.58C160.928 13.3333 160.545 13.21 160.058 13.21C159.638 13.21 159.288 13.3067 159.008 13.5C158.735 13.6867 158.528 13.9433 158.388 14.27C158.248 14.59 158.178 14.9467 158.178 15.34C158.178 15.7267 158.248 16.0867 158.388 16.42C158.528 16.7467 158.738 17.01 159.018 17.21C159.298 17.4033 159.651 17.5 160.078 17.5C160.405 17.5 160.688 17.4433 160.928 17.33C161.175 17.21 161.371 17.05 161.518 16.85C161.671 16.65 161.761 16.43 161.788 16.19H162.508C162.481 16.59 162.355 16.94 162.128 17.24C161.908 17.5333 161.621 17.7633 161.268 17.93C160.915 18.09 160.518 18.17 160.078 18.17ZM166.253 18.17C165.8 18.17 165.4 18.0933 165.053 17.94C164.713 17.78 164.423 17.57 164.183 17.31C163.95 17.0433 163.77 16.7467 163.643 16.42C163.523 16.0933 163.463 15.76 163.463 15.42V15.28C163.463 14.94 163.526 14.6067 163.653 14.28C163.78 13.9467 163.963 13.65 164.203 13.39C164.443 13.13 164.733 12.9233 165.073 12.77C165.42 12.61 165.813 12.53 166.253 12.53C166.7 12.53 167.093 12.61 167.433 12.77C167.78 12.9233 168.073 13.13 168.313 13.39C168.553 13.65 168.733 13.9467 168.853 14.28C168.98 14.6067 169.043 14.94 169.043 15.28V15.42C169.043 15.76 168.983 16.0933 168.863 16.42C168.743 16.7467 168.563 17.0433 168.323 17.31C168.09 17.57 167.8 17.78 167.453 17.94C167.106 18.0933 166.706 18.17 166.253 18.17ZM166.253 17.5C166.693 17.5 167.063 17.4033 167.363 17.21C167.67 17.01 167.903 16.75 168.063 16.43C168.223 16.1033 168.303 15.7433 168.303 15.35C168.303 14.95 168.22 14.59 168.053 14.27C167.893 13.9433 167.66 13.6867 167.353 13.5C167.046 13.3067 166.68 13.21 166.253 13.21C165.833 13.21 165.47 13.3067 165.163 13.5C164.856 13.6867 164.62 13.9433 164.453 14.27C164.293 14.59 164.213 14.95 164.213 15.35C164.213 15.7433 164.293 16.1033 164.453 16.43C164.613 16.75 164.843 17.01 165.143 17.21C165.45 17.4033 165.82 17.5 166.253 17.5ZM170.573 20V12.71H171.173V14.98L170.993 15C171.019 14.4667 171.133 14.0167 171.333 13.65C171.539 13.2833 171.816 13.0067 172.163 12.82C172.516 12.6267 172.909 12.53 173.343 12.53C173.729 12.53 174.079 12.6067 174.393 12.76C174.713 12.9067 174.983 13.11 175.203 13.37C175.429 13.6233 175.599 13.9167 175.713 14.25C175.833 14.5767 175.893 14.92 175.893 15.28V15.42C175.893 15.78 175.833 16.1267 175.713 16.46C175.593 16.7867 175.419 17.08 175.193 17.34C174.973 17.5933 174.703 17.7967 174.383 17.95C174.069 18.0967 173.716 18.17 173.323 18.17C172.903 18.17 172.516 18.0767 172.163 17.89C171.816 17.6967 171.533 17.4133 171.313 17.04C171.099 16.6667 170.983 16.2067 170.963 15.66L171.323 16.41V20H170.573ZM173.223 17.51C173.623 17.51 173.966 17.4167 174.253 17.23C174.539 17.0367 174.759 16.7767 174.913 16.45C175.066 16.1167 175.143 15.75 175.143 15.35C175.143 14.9367 175.063 14.57 174.903 14.25C174.749 13.9233 174.529 13.6667 174.243 13.48C173.956 13.2867 173.616 13.19 173.223 13.19C172.863 13.19 172.536 13.27 172.243 13.43C171.949 13.59 171.716 13.8167 171.543 14.11C171.376 14.3967 171.293 14.7367 171.293 15.13V15.62C171.293 15.9933 171.376 16.3233 171.543 16.61C171.716 16.89 171.949 17.11 172.243 17.27C172.536 17.43 172.863 17.51 173.223 17.51ZM179.618 18.17C179.165 18.17 178.772 18.0933 178.438 17.94C178.105 17.78 177.832 17.57 177.618 17.31C177.405 17.0433 177.245 16.7467 177.138 16.42C177.038 16.0933 176.988 15.7567 176.988 15.41V15.27C176.988 14.93 177.038 14.5967 177.138 14.27C177.245 13.9433 177.405 13.65 177.618 13.39C177.832 13.13 178.098 12.9233 178.418 12.77C178.745 12.61 179.125 12.53 179.558 12.53C180.112 12.53 180.572 12.6533 180.938 12.9C181.312 13.1467 181.592 13.4633 181.778 13.85C181.965 14.23 182.058 14.64 182.058 15.08V15.47H177.328V14.89H181.538L181.348 15.18C181.348 14.7867 181.278 14.4433 181.138 14.15C181.005 13.85 180.805 13.6167 180.538 13.45C180.278 13.2767 179.952 13.19 179.558 13.19C179.145 13.19 178.802 13.2867 178.528 13.48C178.255 13.6733 178.048 13.93 177.908 14.25C177.775 14.57 177.708 14.9333 177.708 15.34C177.708 15.74 177.775 16.1067 177.908 16.44C178.048 16.7667 178.258 17.0267 178.538 17.22C178.825 17.4133 179.185 17.51 179.618 17.51C180.078 17.51 180.452 17.4067 180.738 17.2C181.025 16.9867 181.202 16.7367 181.268 16.45H181.968C181.902 16.8033 181.762 17.11 181.548 17.37C181.335 17.6233 181.065 17.82 180.738 17.96C180.412 18.1 180.038 18.17 179.618 18.17ZM188.066 18.17C187.62 18.17 187.23 18.0933 186.896 17.94C186.57 17.78 186.296 17.5667 186.076 17.3C185.856 17.0267 185.69 16.7267 185.576 16.4C185.47 16.0733 185.416 15.7433 185.416 15.41V15.27C185.416 14.93 185.47 14.6 185.576 14.28C185.69 13.9533 185.856 13.66 186.076 13.4C186.296 13.1333 186.57 12.9233 186.896 12.77C187.23 12.61 187.613 12.53 188.046 12.53C188.486 12.53 188.876 12.61 189.216 12.77C189.563 12.93 189.843 13.1567 190.056 13.45C190.27 13.7433 190.396 14.09 190.436 14.49H189.716C189.656 14.1233 189.483 13.82 189.196 13.58C188.916 13.3333 188.533 13.21 188.046 13.21C187.626 13.21 187.276 13.3067 186.996 13.5C186.723 13.6867 186.516 13.9433 186.376 14.27C186.236 14.59 186.166 14.9467 186.166 15.34C186.166 15.7267 186.236 16.0867 186.376 16.42C186.516 16.7467 186.726 17.01 187.006 17.21C187.286 17.4033 187.64 17.5 188.066 17.5C188.393 17.5 188.676 17.4433 188.916 17.33C189.163 17.21 189.36 17.05 189.506 16.85C189.66 16.65 189.75 16.43 189.776 16.19H190.496C190.47 16.59 190.343 16.94 190.116 17.24C189.896 17.5333 189.61 17.7633 189.256 17.93C188.903 18.09 188.506 18.17 188.066 18.17ZM191.871 18V10.7H192.621V14.83L192.401 15C192.401 14.5067 192.471 14.0767 192.611 13.71C192.758 13.3433 192.975 13.06 193.261 12.86C193.555 12.6533 193.921 12.55 194.361 12.55H194.401C195.041 12.55 195.525 12.76 195.851 13.18C196.185 13.6 196.351 14.1833 196.351 14.93V18H195.611V14.77C195.611 14.2967 195.481 13.9233 195.221 13.65C194.961 13.3767 194.611 13.24 194.171 13.24C193.698 13.24 193.321 13.3933 193.041 13.7C192.761 14 192.621 14.3967 192.621 14.89V18H191.871ZM201.439 18V16.41H201.319V14.53C201.319 14.1367 201.216 13.8367 201.009 13.63C200.802 13.4167 200.482 13.31 200.049 13.31C199.849 13.31 199.646 13.3133 199.439 13.32C199.239 13.3267 199.046 13.3367 198.859 13.35C198.679 13.3567 198.519 13.3667 198.379 13.38V12.72C198.526 12.7067 198.676 12.6933 198.829 12.68C198.982 12.6667 199.139 12.66 199.299 12.66C199.466 12.6533 199.626 12.65 199.779 12.65C200.319 12.65 200.752 12.7167 201.079 12.85C201.412 12.9833 201.656 13.1933 201.809 13.48C201.962 13.76 202.039 14.1333 202.039 14.6V18H201.439ZM199.649 18.14C199.276 18.14 198.946 18.0733 198.659 17.94C198.372 17.8067 198.149 17.6133 197.989 17.36C197.836 17.1067 197.759 16.8 197.759 16.44C197.759 16.0867 197.839 15.7867 197.999 15.54C198.166 15.2933 198.402 15.1067 198.709 14.98C199.022 14.8467 199.399 14.78 199.839 14.78H201.389V15.35H199.789C199.369 15.35 199.046 15.4533 198.819 15.66C198.599 15.86 198.489 16.1233 198.489 16.45C198.489 16.7833 198.606 17.05 198.839 17.25C199.072 17.4433 199.389 17.54 199.789 17.54C200.036 17.54 200.272 17.4967 200.499 17.41C200.726 17.3167 200.916 17.1633 201.069 16.95C201.222 16.73 201.306 16.43 201.319 16.05L201.539 16.36C201.512 16.7533 201.419 17.0833 201.259 17.35C201.099 17.61 200.882 17.8067 200.609 17.94C200.336 18.0733 200.016 18.14 199.649 18.14ZM203.912 18V12.71H204.512V14.93H204.392C204.392 14.4367 204.466 14.0133 204.612 13.66C204.759 13.3067 204.979 13.0333 205.272 12.84C205.566 12.6467 205.936 12.55 206.382 12.55H206.412C207.079 12.55 207.576 12.76 207.902 13.18C208.229 13.5933 208.392 14.1767 208.392 14.93V18H207.652V14.77C207.652 14.31 207.526 13.94 207.272 13.66C207.019 13.38 206.666 13.24 206.212 13.24C205.746 13.24 205.369 13.3867 205.082 13.68C204.802 13.9667 204.662 14.3467 204.662 14.82V18H203.912ZM212.28 20.07C212.033 20.07 211.783 20.0567 211.53 20.03C211.283 20.01 211.047 19.9833 210.82 19.95V19.31C211.06 19.3433 211.31 19.37 211.57 19.39C211.837 19.4167 212.087 19.43 212.32 19.43C212.827 19.43 213.23 19.3633 213.53 19.23C213.83 19.0967 214.043 18.8833 214.17 18.59C214.303 18.3033 214.37 17.9233 214.37 17.45V16.39L214.65 15.65C214.637 16.1567 214.53 16.5933 214.33 16.96C214.13 17.32 213.86 17.5967 213.52 17.79C213.18 17.9833 212.793 18.08 212.36 18.08C211.98 18.08 211.633 18.0067 211.32 17.86C211.013 17.7133 210.75 17.5133 210.53 17.26C210.31 17 210.14 16.7067 210.02 16.38C209.9 16.0533 209.84 15.71 209.84 15.35V15.21C209.84 14.8567 209.9 14.52 210.02 14.2C210.14 13.8733 210.31 13.5867 210.53 13.34C210.75 13.0867 211.017 12.89 211.33 12.75C211.65 12.6033 212.003 12.53 212.39 12.53C212.857 12.53 213.263 12.6333 213.61 12.84C213.957 13.0467 214.227 13.3333 214.42 13.7C214.62 14.0667 214.727 14.4967 214.74 14.99L214.5 14.86V12.71H215.09V17.42C215.09 18.0533 214.997 18.5633 214.81 18.95C214.623 19.3367 214.323 19.62 213.91 19.8C213.503 19.98 212.96 20.07 212.28 20.07ZM212.49 17.39C212.85 17.39 213.17 17.3133 213.45 17.16C213.737 17 213.963 16.7767 214.13 16.49C214.297 16.2033 214.38 15.87 214.38 15.49V15C214.38 14.6333 214.293 14.3133 214.12 14.04C213.953 13.7667 213.73 13.5533 213.45 13.4C213.17 13.2467 212.85 13.17 212.49 13.17C212.103 13.17 211.767 13.2633 211.48 13.45C211.193 13.6367 210.973 13.89 210.82 14.21C210.667 14.5233 210.59 14.88 210.59 15.28C210.59 15.6867 210.667 16.05 210.82 16.37C210.98 16.69 211.203 16.94 211.49 17.12C211.777 17.3 212.11 17.39 212.49 17.39ZM219.179 18.17C218.726 18.17 218.332 18.0933 217.999 17.94C217.666 17.78 217.392 17.57 217.179 17.31C216.966 17.0433 216.806 16.7467 216.699 16.42C216.599 16.0933 216.549 15.7567 216.549 15.41V15.27C216.549 14.93 216.599 14.5967 216.699 14.27C216.806 13.9433 216.966 13.65 217.179 13.39C217.392 13.13 217.659 12.9233 217.979 12.77C218.306 12.61 218.686 12.53 219.119 12.53C219.672 12.53 220.132 12.6533 220.499 12.9C220.872 13.1467 221.152 13.4633 221.339 13.85C221.526 14.23 221.619 14.64 221.619 15.08V15.47H216.889V14.89H221.099L220.909 15.18C220.909 14.7867 220.839 14.4433 220.699 14.15C220.566 13.85 220.366 13.6167 220.099 13.45C219.839 13.2767 219.512 13.19 219.119 13.19C218.706 13.19 218.362 13.2867 218.089 13.48C217.816 13.6733 217.609 13.93 217.469 14.25C217.336 14.57 217.269 14.9333 217.269 15.34C217.269 15.74 217.336 16.1067 217.469 16.44C217.609 16.7667 217.819 17.0267 218.099 17.22C218.386 17.4133 218.746 17.51 219.179 17.51C219.639 17.51 220.012 17.4067 220.299 17.2C220.586 16.9867 220.762 16.7367 220.829 16.45H221.529C221.462 16.8033 221.322 17.11 221.109 17.37C220.896 17.6233 220.626 17.82 220.299 17.96C219.972 18.1 219.599 18.17 219.179 18.17ZM224.733 18.15C224.053 18.15 223.529 18.0033 223.163 17.71C222.796 17.41 222.609 17.01 222.603 16.51H223.303C223.316 16.7633 223.429 16.9933 223.643 17.2C223.863 17.4067 224.226 17.51 224.733 17.51C225.206 17.51 225.559 17.4133 225.793 17.22C226.033 17.02 226.153 16.78 226.153 16.5C226.153 16.24 226.053 16.04 225.853 15.9C225.659 15.7533 225.376 15.66 225.003 15.62L224.403 15.56C223.923 15.5067 223.533 15.36 223.233 15.12C222.939 14.8733 222.793 14.5367 222.793 14.11C222.793 13.7967 222.873 13.5233 223.033 13.29C223.193 13.0567 223.416 12.8767 223.703 12.75C223.996 12.6167 224.339 12.55 224.733 12.55C225.299 12.55 225.759 12.6833 226.113 12.95C226.473 13.2167 226.656 13.5967 226.663 14.09H225.963C225.956 13.8367 225.849 13.6233 225.643 13.45C225.436 13.2767 225.133 13.19 224.733 13.19C224.319 13.19 224.009 13.28 223.803 13.46C223.603 13.64 223.503 13.86 223.503 14.12C223.503 14.34 223.579 14.5233 223.733 14.67C223.886 14.81 224.126 14.8967 224.453 14.93L225.053 14.99C225.586 15.05 226.019 15.2033 226.353 15.45C226.693 15.6967 226.863 16.05 226.863 16.51C226.863 16.8233 226.773 17.1067 226.593 17.36C226.419 17.6067 226.173 17.8 225.853 17.94C225.533 18.08 225.159 18.15 224.733 18.15ZM229.271 15.98V14.13H229.851C230.357 14.13 230.741 13.99 231.001 13.71C231.261 13.4233 231.391 13.07 231.391 12.65C231.391 12.3433 231.327 12.08 231.201 11.86C231.074 11.64 230.897 11.47 230.671 11.35C230.451 11.23 230.197 11.17 229.911 11.17C229.591 11.17 229.311 11.2367 229.071 11.37C228.837 11.5033 228.654 11.69 228.521 11.93C228.394 12.17 228.331 12.4467 228.331 12.76H227.611C227.611 12.3533 227.697 11.98 227.871 11.64C228.051 11.3 228.311 11.0267 228.651 10.82C228.997 10.6133 229.417 10.51 229.911 10.51C230.357 10.51 230.744 10.6067 231.071 10.8C231.404 10.9867 231.661 11.2367 231.841 11.55C232.021 11.8633 232.111 12.21 232.111 12.59V12.7C232.111 13.0733 232.024 13.4167 231.851 13.73C231.677 14.0433 231.417 14.2933 231.071 14.48C230.724 14.6667 230.294 14.76 229.781 14.76L230.031 14.39L230.021 15.98H229.271ZM229.181 18V17.01H230.111V18H229.181Z" fill="#404040"/>
</svg>
