<svg width="676" height="112" viewBox="0 0 676 112" fill="none" xmlns="http://www.w3.org/2000/svg">
<g filter="url(#filter0_ddddii_890_256)">
<path d="M44.231 82.728C37.831 82.728 32.359 81.608 27.815 79.368C23.335 77.128 19.719 74.216 16.967 70.632C14.215 67.048 12.199 63.176 10.919 59.016C9.63905 54.792 8.99905 50.728 8.99905 46.824V44.712C8.99905 40.488 9.63905 36.264 10.919 32.04C12.263 27.816 14.311 23.976 17.063 20.52C19.815 17.064 23.399 14.28 27.815 12.168C32.231 10.056 37.511 8.99999 43.655 8.99999C49.9271 8.99999 55.3031 10.088 59.7831 12.264C64.2631 14.44 67.8151 17.48 70.4391 21.384C73.0631 25.288 74.6631 29.896 75.2391 35.208H65.639C65.127 31.24 63.847 27.976 61.799 25.416C59.751 22.792 57.159 20.84 54.0231 19.56C50.951 18.28 47.495 17.64 43.655 17.64C39.495 17.64 35.847 18.376 32.711 19.848C29.575 21.256 26.951 23.272 24.839 25.896C22.791 28.456 21.223 31.432 20.135 34.824C19.111 38.216 18.599 41.896 18.599 45.864C18.599 49.64 19.111 53.224 20.135 56.616C21.223 60.008 22.823 63.016 24.935 65.64C27.111 68.264 29.799 70.344 32.999 71.88C36.199 73.352 39.943 74.088 44.231 74.088C50.247 74.088 55.303 72.584 59.399 69.576C63.4951 66.568 65.9911 62.216 66.8871 56.52H76.4871C75.847 61.32 74.215 65.704 71.591 69.672C69.031 73.64 65.4471 76.808 60.839 79.176C56.295 81.544 50.759 82.728 44.231 82.728ZM112.384 82.728C107.904 82.728 103.968 81.96 100.576 80.424C97.1835 78.888 94.3035 76.872 91.9355 74.376C89.6315 71.816 87.8715 68.968 86.6555 65.832C85.5035 62.696 84.9275 59.496 84.9275 56.232V54.504C84.9275 51.24 85.5355 48.04 86.7515 44.904C87.9675 41.704 89.7595 38.856 92.1275 36.36C94.4955 33.8 97.3755 31.784 100.768 30.312C104.16 28.776 108.032 28.008 112.384 28.008C116.736 28.008 120.608 28.776 124 30.312C127.392 31.784 130.272 33.8 132.64 36.36C135.008 38.856 136.8 41.704 138.016 44.904C139.232 48.04 139.84 51.24 139.84 54.504V56.232C139.84 59.496 139.232 62.696 138.016 65.832C136.864 68.968 135.104 71.816 132.736 74.376C130.432 76.872 127.584 78.888 124.192 80.424C120.8 81.96 116.864 82.728 112.384 82.728ZM112.384 74.472C116.224 74.472 119.488 73.64 122.176 71.976C124.928 70.248 127.008 67.944 128.416 65.064C129.888 62.184 130.624 58.952 130.624 55.368C130.624 51.72 129.888 48.456 128.416 45.576C126.944 42.696 124.832 40.424 122.08 38.76C119.392 37.096 116.16 36.264 112.384 36.264C108.672 36.264 105.44 37.096 102.688 38.76C99.9355 40.424 97.8235 42.696 96.3515 45.576C94.8795 48.456 94.1435 51.72 94.1435 55.368C94.1435 58.952 94.8475 62.184 96.2555 65.064C97.7275 67.944 99.8075 70.248 102.496 71.976C105.248 73.64 108.544 74.472 112.384 74.472ZM153.643 81V29.736H160.939V51.72H159.787C159.787 46.728 160.427 42.504 161.707 39.048C163.051 35.528 165.035 32.84 167.659 30.984C170.283 29.128 173.611 28.2 177.643 28.2H178.027C182.059 28.2 185.387 29.128 188.011 30.984C190.699 32.84 192.683 35.528 193.963 39.048C195.243 42.504 195.883 46.728 195.883 51.72H193.195C193.195 46.728 193.867 42.504 195.211 39.048C196.555 35.528 198.539 32.84 201.163 30.984C203.851 29.128 207.211 28.2 211.243 28.2H211.627C215.659 28.2 219.019 29.128 221.707 30.984C224.395 32.84 226.379 35.528 227.659 39.048C229.003 42.504 229.675 46.728 229.675 51.72V81H220.459V49.704C220.459 45.544 219.435 42.344 217.387 40.104C215.339 37.8 212.491 36.648 208.843 36.648C205.067 36.648 202.027 37.864 199.723 40.296C197.419 42.664 196.267 45.992 196.267 50.28V81H187.051V49.704C187.051 45.544 186.027 42.344 183.979 40.104C181.931 37.8 179.083 36.648 175.435 36.648C171.659 36.648 168.619 37.864 166.315 40.296C164.011 42.664 162.859 45.992 162.859 50.28V81H153.643ZM249.045 81V29.736H258.261V81H249.045ZM241.173 37.032V29.736H258.261V37.032H241.173ZM251.637 21.48C249.589 21.48 248.053 20.936 247.029 19.848C246.069 18.76 245.589 17.384 245.589 15.72C245.589 14.056 246.069 12.68 247.029 11.592C248.053 10.504 249.589 9.96 251.637 9.96C253.685 9.96 255.189 10.504 256.149 11.592C257.173 12.68 257.685 14.056 257.685 15.72C257.685 17.384 257.173 18.76 256.149 19.848C255.189 20.936 253.685 21.48 251.637 21.48ZM276.08 81V29.736H283.376V51.72H282.224C282.224 46.664 282.896 42.408 284.24 38.952C285.648 35.432 287.76 32.776 290.576 30.984C293.392 29.128 296.944 28.2 301.232 28.2H301.616C308.08 28.2 312.848 30.216 315.92 34.248C319.056 38.28 320.624 44.104 320.624 51.72V81H311.408V49.8C311.408 45.832 310.288 42.664 308.048 40.296C305.808 37.864 302.736 36.648 298.832 36.648C294.8 36.648 291.536 37.896 289.04 40.392C286.544 42.888 285.296 46.216 285.296 50.376V81H276.08ZM356.878 100.968C354.51 100.968 352.11 100.872 349.678 100.68C347.31 100.488 345.038 100.232 342.862 99.912V92.136C345.166 92.456 347.566 92.712 350.062 92.904C352.622 93.16 355.022 93.288 357.262 93.288C361.934 93.288 365.646 92.648 368.398 91.368C371.214 90.152 373.23 88.2 374.446 85.512C375.726 82.888 376.366 79.496 376.366 75.336V65.544L379.438 58.248C379.246 63.432 378.158 67.752 376.174 71.208C374.19 74.6 371.598 77.16 368.398 78.888C365.262 80.552 361.774 81.384 357.934 81.384C354.35 81.384 351.054 80.712 348.046 79.368C345.102 77.96 342.542 76.04 340.366 73.608C338.254 71.176 336.59 68.392 335.374 65.256C334.222 62.056 333.646 58.696 333.646 55.176V53.448C333.646 49.864 334.254 46.536 335.47 43.464C336.686 40.328 338.382 37.608 340.558 35.304C342.734 33 345.326 31.208 348.334 29.928C351.406 28.648 354.766 28.008 358.414 28.008C362.702 28.008 366.478 28.936 369.742 30.792C373.006 32.584 375.566 35.24 377.422 38.76C379.342 42.216 380.398 46.472 380.59 51.528L377.902 51.624V29.736H385.198V74.952C385.198 81.096 384.238 86.056 382.318 89.832C380.462 93.672 377.454 96.488 373.294 98.28C369.198 100.072 363.726 100.968 356.878 100.968ZM359.662 72.936C362.734 72.936 365.518 72.264 368.014 70.92C370.574 69.576 372.59 67.656 374.062 65.16C375.598 62.6 376.366 59.56 376.366 56.04V51.624C376.366 48.168 375.566 45.256 373.966 42.888C372.43 40.52 370.414 38.728 367.918 37.512C365.422 36.296 362.702 35.688 359.758 35.688C356.43 35.688 353.486 36.456 350.926 37.992C348.366 39.528 346.382 41.704 344.974 44.52C343.566 47.272 342.862 50.536 342.862 54.312C342.862 58.088 343.566 61.384 344.974 64.2C346.446 67.016 348.43 69.192 350.926 70.728C353.486 72.2 356.398 72.936 359.662 72.936ZM448.207 82.728C442.383 82.728 437.423 81.768 433.327 79.848C429.231 77.928 426.095 75.272 423.919 71.88C421.743 68.488 420.655 64.648 420.655 60.36H430.063C430.063 62.472 430.607 64.584 431.695 66.696C432.847 68.808 434.735 70.568 437.359 71.976C440.047 73.384 443.663 74.088 448.207 74.088C452.431 74.088 455.887 73.48 458.575 72.264C461.263 70.984 463.247 69.352 464.527 67.368C465.807 65.32 466.447 63.112 466.447 60.744C466.447 57.864 465.199 55.496 462.703 53.64C460.207 51.72 456.559 50.536 451.759 50.088L443.983 49.416C437.775 48.904 432.815 46.984 429.103 43.656C425.391 40.328 423.535 35.944 423.535 30.504C423.535 26.216 424.559 22.472 426.607 19.272C428.719 16.072 431.631 13.576 435.343 11.784C439.055 9.928 443.375 8.99999 448.303 8.99999C453.167 8.99999 457.455 9.89599 461.167 11.688C464.879 13.48 467.759 16.008 469.807 19.272C471.919 22.472 472.975 26.312 472.975 30.792H463.567C463.567 28.552 463.023 26.44 461.935 24.456C460.911 22.472 459.279 20.84 457.039 19.56C454.799 18.28 451.887 17.64 448.303 17.64C444.847 17.64 441.967 18.248 439.663 19.464C437.423 20.68 435.727 22.28 434.575 24.264C433.487 26.184 432.943 28.264 432.943 30.504C432.943 33.064 433.935 35.336 435.919 37.32C437.903 39.304 440.847 40.456 444.751 40.776L452.527 41.448C457.327 41.832 461.455 42.856 464.911 44.52C468.431 46.12 471.119 48.296 472.975 51.048C474.895 53.736 475.855 56.968 475.855 60.744C475.855 65.032 474.703 68.84 472.399 72.168C470.095 75.496 466.863 78.088 462.703 79.944C458.543 81.8 453.711 82.728 448.207 82.728ZM513.915 82.728C509.435 82.728 505.499 81.96 502.107 80.424C498.715 78.888 495.835 76.872 493.467 74.376C491.163 71.816 489.403 68.968 488.187 65.832C487.035 62.696 486.459 59.496 486.459 56.232V54.504C486.459 51.24 487.067 48.04 488.283 44.904C489.499 41.704 491.291 38.856 493.659 36.36C496.027 33.8 498.907 31.784 502.299 30.312C505.691 28.776 509.563 28.008 513.915 28.008C518.267 28.008 522.139 28.776 525.531 30.312C528.923 31.784 531.803 33.8 534.171 36.36C536.539 38.856 538.331 41.704 539.547 44.904C540.763 48.04 541.371 51.24 541.371 54.504V56.232C541.371 59.496 540.763 62.696 539.547 65.832C538.395 68.968 536.635 71.816 534.267 74.376C531.963 76.872 529.115 78.888 525.723 80.424C522.331 81.96 518.395 82.728 513.915 82.728ZM513.915 74.472C517.755 74.472 521.019 73.64 523.707 71.976C526.459 70.248 528.539 67.944 529.947 65.064C531.419 62.184 532.155 58.952 532.155 55.368C532.155 51.72 531.419 48.456 529.947 45.576C528.475 42.696 526.363 40.424 523.611 38.76C520.923 37.096 517.691 36.264 513.915 36.264C510.203 36.264 506.971 37.096 504.219 38.76C501.467 40.424 499.355 42.696 497.883 45.576C496.411 48.456 495.675 51.72 495.675 55.368C495.675 58.952 496.379 62.184 497.787 65.064C499.259 67.944 501.339 70.248 504.027 71.976C506.779 73.64 510.075 74.472 513.915 74.472ZM578.79 82.728C574.31 82.728 570.374 81.96 566.982 80.424C563.59 78.888 560.71 76.872 558.342 74.376C556.038 71.816 554.278 68.968 553.062 65.832C551.91 62.696 551.334 59.496 551.334 56.232V54.504C551.334 51.24 551.942 48.04 553.158 44.904C554.374 41.704 556.166 38.856 558.534 36.36C560.902 33.8 563.782 31.784 567.174 30.312C570.566 28.776 574.438 28.008 578.79 28.008C583.142 28.008 587.014 28.776 590.406 30.312C593.798 31.784 596.678 33.8 599.046 36.36C601.414 38.856 603.206 41.704 604.422 44.904C605.638 48.04 606.246 51.24 606.246 54.504V56.232C606.246 59.496 605.638 62.696 604.422 65.832C603.27 68.968 601.51 71.816 599.142 74.376C596.838 76.872 593.99 78.888 590.598 80.424C587.206 81.96 583.27 82.728 578.79 82.728ZM578.79 74.472C582.63 74.472 585.894 73.64 588.582 71.976C591.334 70.248 593.414 67.944 594.822 65.064C596.294 62.184 597.03 58.952 597.03 55.368C597.03 51.72 596.294 48.456 594.822 45.576C593.35 42.696 591.238 40.424 588.486 38.76C585.798 37.096 582.566 36.264 578.79 36.264C575.078 36.264 571.846 37.096 569.094 38.76C566.342 40.424 564.23 42.696 562.758 45.576C561.286 48.456 560.55 51.72 560.55 55.368C560.55 58.952 561.254 62.184 562.662 65.064C564.134 67.944 566.214 70.248 568.902 71.976C571.654 73.64 574.95 74.472 578.79 74.472ZM620.049 81V29.736H627.345V51.72H626.193C626.193 46.664 626.865 42.408 628.209 38.952C629.617 35.432 631.729 32.776 634.545 30.984C637.361 29.128 640.913 28.2 645.201 28.2H645.585C652.049 28.2 656.817 30.216 659.889 34.248C663.025 38.28 664.593 44.104 664.593 51.72V81H655.377V49.8C655.377 45.832 654.257 42.664 652.017 40.296C649.777 37.864 646.705 36.648 642.801 36.648C638.769 36.648 635.505 37.896 633.009 40.392C630.513 42.888 629.265 46.216 629.265 50.376V81H620.049Z" fill="url(#paint0_linear_890_256)"/>
</g>
<defs>
<filter id="filter0_ddddii_890_256" x="0" y="0" width="675.594" height="111.968" filterUnits="userSpaceOnUse" color-interpolation-filters="sRGB">
<feFlood flood-opacity="0" result="BackgroundImageFix"/>
<feColorMatrix in="SourceAlpha" type="matrix" values="0 0 0 0 0 0 0 0 0 0 0 0 0 0 0 0 0 0 127 0" result="hardAlpha"/>
<feOffset dx="3" dy="3"/>
<feGaussianBlur stdDeviation="4"/>
<feColorMatrix type="matrix" values="0 0 0 0 0.654902 0 0 0 0 0.654902 0 0 0 0 0.654902 0 0 0 0.9 0"/>
<feBlend mode="normal" in2="BackgroundImageFix" result="effect1_dropShadow_890_256"/>
<feColorMatrix in="SourceAlpha" type="matrix" values="0 0 0 0 0 0 0 0 0 0 0 0 0 0 0 0 0 0 127 0" result="hardAlpha"/>
<feOffset dx="-3" dy="-3"/>
<feGaussianBlur stdDeviation="3"/>
<feColorMatrix type="matrix" values="0 0 0 0 1 0 0 0 0 1 0 0 0 0 1 0 0 0 0.9 0"/>
<feBlend mode="normal" in2="effect1_dropShadow_890_256" result="effect2_dropShadow_890_256"/>
<feColorMatrix in="SourceAlpha" type="matrix" values="0 0 0 0 0 0 0 0 0 0 0 0 0 0 0 0 0 0 127 0" result="hardAlpha"/>
<feOffset dx="3" dy="-3"/>
<feGaussianBlur stdDeviation="3"/>
<feColorMatrix type="matrix" values="0 0 0 0 0.654902 0 0 0 0 0.654902 0 0 0 0 0.654902 0 0 0 0.2 0"/>
<feBlend mode="normal" in2="effect2_dropShadow_890_256" result="effect3_dropShadow_890_256"/>
<feColorMatrix in="SourceAlpha" type="matrix" values="0 0 0 0 0 0 0 0 0 0 0 0 0 0 0 0 0 0 127 0" result="hardAlpha"/>
<feOffset dx="-3" dy="3"/>
<feGaussianBlur stdDeviation="3"/>
<feColorMatrix type="matrix" values="0 0 0 0 0.654902 0 0 0 0 0.654902 0 0 0 0 0.654902 0 0 0 0.2 0"/>
<feBlend mode="normal" in2="effect3_dropShadow_890_256" result="effect4_dropShadow_890_256"/>
<feBlend mode="normal" in="SourceGraphic" in2="effect4_dropShadow_890_256" result="shape"/>
<feColorMatrix in="SourceAlpha" type="matrix" values="0 0 0 0 0 0 0 0 0 0 0 0 0 0 0 0 0 0 127 0" result="hardAlpha"/>
<feOffset dx="-1" dy="-1"/>
<feGaussianBlur stdDeviation="1"/>
<feComposite in2="hardAlpha" operator="arithmetic" k2="-1" k3="1"/>
<feColorMatrix type="matrix" values="0 0 0 0 0.654902 0 0 0 0 0.654902 0 0 0 0 0.654902 0 0 0 0.5 0"/>
<feBlend mode="normal" in2="shape" result="effect5_innerShadow_890_256"/>
<feColorMatrix in="SourceAlpha" type="matrix" values="0 0 0 0 0 0 0 0 0 0 0 0 0 0 0 0 0 0 127 0" result="hardAlpha"/>
<feOffset dx="1" dy="1"/>
<feGaussianBlur stdDeviation="1"/>
<feComposite in2="hardAlpha" operator="arithmetic" k2="-1" k3="1"/>
<feColorMatrix type="matrix" values="0 0 0 0 1 0 0 0 0 1 0 0 0 0 1 0 0 0 0.3 0"/>
<feBlend mode="normal" in2="effect5_innerShadow_890_256" result="effect6_innerShadow_890_256"/>
</filter>
<linearGradient id="paint0_linear_890_256" x1="3.62305" y1="-12" x2="46.0064" y2="222.334" gradientUnits="userSpaceOnUse">
<stop offset="1" stop-color="#EAEAEA"/>
<stop stop-color="#D4D4D4"/>
</linearGradient>
</defs>
</svg>
