<svg width="590" height="95" viewBox="0 0 590 95" fill="none" xmlns="http://www.w3.org/2000/svg">
<path d="M8.16 33.184V29.968H16.32C18.208 29.968 19.744 29.616 20.928 28.912C22.112 28.176 22.992 27.216 23.568 26.032C24.144 24.816 24.432 23.472 24.432 22C24.432 20.496 24.144 19.152 23.568 17.968C22.992 16.752 22.112 15.792 20.928 15.088C19.744 14.384 18.208 14.032 16.32 14.032H8.16V10.816H15.696C18.512 10.816 20.832 11.28 22.656 12.208C24.512 13.136 25.888 14.416 26.784 16.048C27.712 17.68 28.176 19.552 28.176 21.664V22.336C28.176 24.416 27.712 26.288 26.784 27.952C25.888 29.584 24.512 30.864 22.656 31.792C20.832 32.72 18.512 33.184 15.696 33.184H8.16ZM5.472 46V10.816H9.12V46H5.472ZM34.9841 46V20.608H37.8641V31.216H37.5761C37.5761 27.504 38.3921 24.768 40.0241 23.008C41.6561 21.216 44.2161 20.32 47.7041 20.32H48.5201V23.584H47.0321C44.2801 23.584 42.1841 24.304 40.7441 25.744C39.3041 27.152 38.5841 29.232 38.5841 31.984V46H34.9841ZM65.3914 46.816C63.2154 46.816 61.2954 46.448 59.6314 45.712C57.9994 44.944 56.6074 43.936 55.4554 42.688C54.3354 41.408 53.4714 39.984 52.8634 38.416C52.2874 36.848 51.9994 35.248 51.9994 33.616V32.944C51.9994 31.312 52.3034 29.712 52.9114 28.144C53.5194 26.544 54.3994 25.12 55.5514 23.872C56.7034 22.624 58.0954 21.632 59.7274 20.896C61.3914 20.128 63.2794 19.744 65.3914 19.744C67.5354 19.744 69.4234 20.128 71.0554 20.896C72.7194 21.632 74.1274 22.624 75.2794 23.872C76.4314 25.12 77.2954 26.544 77.8714 28.144C78.4794 29.712 78.7834 31.312 78.7834 32.944V33.616C78.7834 35.248 78.4954 36.848 77.9194 38.416C77.3434 39.984 76.4794 41.408 75.3274 42.688C74.2074 43.936 72.8154 44.944 71.1514 45.712C69.4874 46.448 67.5674 46.816 65.3914 46.816ZM65.3914 43.6C67.5034 43.6 69.2794 43.136 70.7194 42.208C72.1914 41.248 73.3114 40 74.0794 38.464C74.8474 36.896 75.2314 35.168 75.2314 33.28C75.2314 31.36 74.8314 29.632 74.0314 28.096C73.2634 26.528 72.1434 25.296 70.6714 24.4C69.1994 23.472 67.4394 23.008 65.3914 23.008C63.3754 23.008 61.6314 23.472 60.1594 24.4C58.6874 25.296 57.5514 26.528 56.7514 28.096C55.9834 29.632 55.5994 31.36 55.5994 33.28C55.5994 35.168 55.9834 36.896 56.7514 38.464C57.5194 40 58.6234 41.248 60.0634 42.208C61.5354 43.136 63.3114 43.6 65.3914 43.6ZM86.1248 55.6V20.608H89.0048V31.504L88.1408 31.6C88.2688 29.04 88.8128 26.88 89.7728 25.12C90.7648 23.36 92.0928 22.032 93.7568 21.136C95.4528 20.208 97.3408 19.744 99.4208 19.744C101.277 19.744 102.957 20.112 104.461 20.848C105.997 21.552 107.293 22.528 108.349 23.776C109.437 24.992 110.253 26.4 110.797 28C111.373 29.568 111.661 31.216 111.661 32.944V33.616C111.661 35.344 111.373 37.008 110.797 38.608C110.221 40.176 109.389 41.584 108.301 42.832C107.245 44.048 105.949 45.024 104.413 45.76C102.909 46.464 101.213 46.816 99.3248 46.816C97.3088 46.816 95.4528 46.368 93.7568 45.472C92.0928 44.544 90.7328 43.184 89.6768 41.392C88.6528 39.6 88.0928 37.392 87.9968 34.768L89.7248 38.368V55.6H86.1248ZM98.8448 43.648C100.765 43.648 102.413 43.2 103.789 42.304C105.165 41.376 106.221 40.128 106.957 38.56C107.693 36.96 108.061 35.2 108.061 33.28C108.061 31.296 107.677 29.536 106.909 28C106.173 26.432 105.117 25.2 103.741 24.304C102.365 23.376 100.733 22.912 98.8448 22.912C97.1168 22.912 95.5488 23.296 94.1407 24.064C92.7328 24.832 91.6128 25.92 90.7808 27.328C89.9808 28.704 89.5808 30.336 89.5808 32.224V34.576C89.5808 36.368 89.9808 37.952 90.7808 39.328C91.6128 40.672 92.7328 41.728 94.1407 42.496C95.5488 43.264 97.1168 43.648 98.8448 43.648ZM118.937 46V20.608H121.817V31.216H121.529C121.529 27.504 122.345 24.768 123.977 23.008C125.609 21.216 128.169 20.32 131.657 20.32H132.473V23.584H130.985C128.233 23.584 126.137 24.304 124.697 25.744C123.257 27.152 122.537 29.232 122.537 31.984V46H118.937ZM139.641 46V20.608H143.193V46H139.641ZM135.561 23.488V20.608H143.193V23.488H135.561ZM140.409 15.904C139.545 15.904 138.889 15.68 138.441 15.232C138.025 14.752 137.817 14.16 137.817 13.456C137.817 12.752 138.025 12.176 138.441 11.728C138.889 11.248 139.545 11.008 140.409 11.008C141.273 11.008 141.913 11.248 142.329 11.728C142.745 12.176 142.953 12.752 142.953 13.456C142.953 14.16 142.745 14.752 142.329 15.232C141.913 15.68 141.273 15.904 140.409 15.904ZM163.248 46.816C161.072 46.816 159.184 46.448 157.584 45.712C155.984 44.944 154.672 43.936 153.648 42.688C152.624 41.408 151.856 39.984 151.344 38.416C150.864 36.848 150.624 35.232 150.624 33.568V32.896C150.624 31.264 150.864 29.664 151.344 28.096C151.856 26.528 152.624 25.12 153.648 23.872C154.672 22.624 155.952 21.632 157.488 20.896C159.056 20.128 160.88 19.744 162.96 19.744C165.616 19.744 167.824 20.336 169.584 21.52C171.376 22.704 172.72 24.224 173.616 26.08C174.512 27.904 174.96 29.872 174.96 31.984V33.856H152.256V31.072H172.464L171.552 32.464C171.552 30.576 171.216 28.928 170.544 27.52C169.904 26.08 168.944 24.96 167.664 24.16C166.416 23.328 164.848 22.912 162.96 22.912C160.976 22.912 159.328 23.376 158.016 24.304C156.704 25.232 155.712 26.464 155.04 28C154.4 29.536 154.08 31.28 154.08 33.232C154.08 35.152 154.4 36.912 155.04 38.512C155.712 40.08 156.72 41.328 158.064 42.256C159.44 43.184 161.168 43.648 163.248 43.648C165.456 43.648 167.248 43.152 168.624 42.16C170 41.136 170.848 39.936 171.168 38.56H174.528C174.208 40.256 173.536 41.728 172.512 42.976C171.488 44.192 170.192 45.136 168.624 45.808C167.056 46.48 165.264 46.816 163.248 46.816ZM191.106 46.288C189.346 46.288 187.826 46.032 186.546 45.52C185.266 45.008 184.274 44.144 183.57 42.928C182.866 41.68 182.514 40.016 182.514 37.936V12.592H185.97V38.464C185.97 39.936 186.37 41.072 187.17 41.872C187.97 42.64 189.106 43.024 190.578 43.024H195.138V46.288H191.106ZM177.954 23.344V20.608H195.138V23.344H177.954ZM217.456 46V38.368H216.88V29.344C216.88 27.456 216.384 26.016 215.392 25.024C214.4 24 212.864 23.488 210.784 23.488C209.824 23.488 208.848 23.504 207.856 23.536C206.896 23.568 205.968 23.616 205.072 23.68C204.208 23.712 203.44 23.76 202.768 23.824V20.656C203.472 20.592 204.192 20.528 204.928 20.464C205.664 20.4 206.416 20.368 207.184 20.368C207.984 20.336 208.752 20.32 209.488 20.32C212.08 20.32 214.16 20.64 215.728 21.28C217.328 21.92 218.496 22.928 219.232 24.304C219.968 25.648 220.336 27.44 220.336 29.68V46H217.456ZM208.864 46.672C207.072 46.672 205.488 46.352 204.112 45.712C202.736 45.072 201.664 44.144 200.896 42.928C200.16 41.712 199.792 40.24 199.792 38.512C199.792 36.816 200.176 35.376 200.944 34.192C201.744 33.008 202.88 32.112 204.352 31.504C205.856 30.864 207.664 30.544 209.776 30.544H217.216V33.28H209.536C207.52 33.28 205.968 33.776 204.88 34.768C203.824 35.728 203.296 36.992 203.296 38.56C203.296 40.16 203.856 41.44 204.976 42.4C206.096 43.328 207.616 43.792 209.536 43.792C210.72 43.792 211.856 43.584 212.944 43.168C214.032 42.72 214.944 41.984 215.68 40.96C216.416 39.904 216.816 38.464 216.88 36.64L217.936 38.128C217.808 40.016 217.36 41.6 216.592 42.88C215.824 44.128 214.784 45.072 213.472 45.712C212.16 46.352 210.624 46.672 208.864 46.672ZM229.328 46V20.608H232.208V31.216H231.92C231.92 27.504 232.736 24.768 234.368 23.008C236 21.216 238.56 20.32 242.048 20.32H242.864V23.584H241.376C238.624 23.584 236.528 24.304 235.088 25.744C233.648 27.152 232.928 29.232 232.928 31.984V46H229.328ZM247.275 55.888V52.672H250.539C251.659 52.672 252.619 52.528 253.419 52.24C254.219 51.984 254.891 51.52 255.435 50.848C255.979 50.176 256.443 49.248 256.827 48.064L265.371 20.608H268.875L259.947 49.072C259.435 50.704 258.731 52.016 257.835 53.008C256.939 54.032 255.867 54.768 254.619 55.216C253.371 55.664 251.947 55.888 250.347 55.888H247.275ZM255.531 45.376V42.352H260.091V45.376H255.531ZM255.099 45.376L245.883 20.608H249.579L258.459 45.376H255.099Z" fill="#0D0D0D"/>
<path d="M294.007 46V13.36H297.655V46H294.007ZM283.063 14.272V10.96H308.599V14.272H283.063ZM323.016 46.816C320.84 46.816 318.92 46.448 317.256 45.712C315.624 44.944 314.232 43.936 313.08 42.688C311.96 41.408 311.096 39.984 310.488 38.416C309.912 36.848 309.624 35.248 309.624 33.616V32.944C309.624 31.312 309.928 29.712 310.536 28.144C311.144 26.544 312.024 25.12 313.176 23.872C314.328 22.624 315.72 21.632 317.352 20.896C319.016 20.128 320.904 19.744 323.016 19.744C325.16 19.744 327.048 20.128 328.68 20.896C330.344 21.632 331.752 22.624 332.904 23.872C334.056 25.12 334.92 26.544 335.496 28.144C336.104 29.712 336.408 31.312 336.408 32.944V33.616C336.408 35.248 336.12 36.848 335.544 38.416C334.968 39.984 334.104 41.408 332.952 42.688C331.832 43.936 330.44 44.944 328.776 45.712C327.112 46.448 325.192 46.816 323.016 46.816ZM323.016 43.6C325.128 43.6 326.904 43.136 328.344 42.208C329.816 41.248 330.936 40 331.704 38.464C332.472 36.896 332.856 35.168 332.856 33.28C332.856 31.36 332.456 29.632 331.656 28.096C330.888 26.528 329.768 25.296 328.296 24.4C326.824 23.472 325.064 23.008 323.016 23.008C321 23.008 319.256 23.472 317.784 24.4C316.312 25.296 315.176 26.528 314.376 28.096C313.608 29.632 313.224 31.36 313.224 33.28C313.224 35.168 313.608 36.896 314.376 38.464C315.144 40 316.248 41.248 317.688 42.208C319.16 43.136 320.936 43.6 323.016 43.6ZM355.126 46.816C352.95 46.816 351.03 46.448 349.366 45.712C347.734 44.944 346.342 43.936 345.19 42.688C344.07 41.408 343.206 39.984 342.598 38.416C342.022 36.848 341.734 35.248 341.734 33.616V32.944C341.734 31.312 342.038 29.712 342.646 28.144C343.254 26.544 344.134 25.12 345.286 23.872C346.438 22.624 347.83 21.632 349.462 20.896C351.126 20.128 353.014 19.744 355.126 19.744C357.27 19.744 359.158 20.128 360.79 20.896C362.454 21.632 363.862 22.624 365.014 23.872C366.166 25.12 367.03 26.544 367.606 28.144C368.214 29.712 368.518 31.312 368.518 32.944V33.616C368.518 35.248 368.23 36.848 367.654 38.416C367.078 39.984 366.214 41.408 365.062 42.688C363.942 43.936 362.55 44.944 360.886 45.712C359.222 46.448 357.302 46.816 355.126 46.816ZM355.126 43.6C357.238 43.6 359.014 43.136 360.454 42.208C361.926 41.248 363.046 40 363.814 38.464C364.582 36.896 364.966 35.168 364.966 33.28C364.966 31.36 364.566 29.632 363.766 28.096C362.998 26.528 361.878 25.296 360.406 24.4C358.934 23.472 357.174 23.008 355.126 23.008C353.11 23.008 351.366 23.472 349.894 24.4C348.422 25.296 347.286 26.528 346.486 28.096C345.718 29.632 345.334 31.36 345.334 33.28C345.334 35.168 345.718 36.896 346.486 38.464C347.254 40 348.358 41.248 349.798 42.208C351.27 43.136 353.046 43.6 355.126 43.6ZM376.099 46V10.96H379.699V46H376.099ZM372.403 13.888V10.96H379.699V13.888H372.403ZM397.047 46.72C393.783 46.72 391.271 46.016 389.511 44.608C387.751 43.168 386.855 41.248 386.823 38.848H390.183C390.247 40.064 390.791 41.168 391.815 42.16C392.871 43.152 394.615 43.648 397.047 43.648C399.319 43.648 401.015 43.184 402.135 42.256C403.287 41.296 403.863 40.144 403.863 38.8C403.863 37.552 403.383 36.592 402.423 35.92C401.495 35.216 400.135 34.768 398.343 34.576L395.463 34.288C393.159 34.032 391.287 33.328 389.847 32.176C388.439 30.992 387.735 29.376 387.735 27.328C387.735 25.824 388.119 24.512 388.887 23.392C389.655 22.272 390.727 21.408 392.103 20.8C393.511 20.16 395.159 19.84 397.047 19.84C399.767 19.84 401.975 20.48 403.671 21.76C405.399 23.04 406.279 24.864 406.311 27.232H402.951C402.919 26.016 402.407 24.992 401.415 24.16C400.423 23.328 398.967 22.912 397.047 22.912C395.063 22.912 393.575 23.344 392.583 24.208C391.623 25.072 391.143 26.128 391.143 27.376C391.143 28.432 391.511 29.312 392.247 30.016C392.983 30.688 394.135 31.104 395.703 31.264L398.583 31.552C401.143 31.84 403.223 32.576 404.823 33.76C406.455 34.944 407.271 36.64 407.271 38.848C407.271 40.352 406.839 41.712 405.975 42.928C405.143 44.112 403.959 45.04 402.423 45.712C400.887 46.384 399.095 46.72 397.047 46.72Z" fill="url(#paint0_radial_1323_1383)"/>
<path d="M8.448 88.408C6.96 88.408 5.72 88.176 4.728 87.712C3.736 87.232 2.992 86.584 2.496 85.768C2 84.936 1.752 84 1.752 82.96H3.048C3.048 83.76 3.232 84.48 3.6 85.12C3.984 85.76 4.576 86.272 5.376 86.656C6.176 87.024 7.2 87.208 8.448 87.208C9.616 87.208 10.592 87.04 11.376 86.704C12.16 86.368 12.744 85.912 13.128 85.336C13.528 84.744 13.728 84.064 13.728 83.296C13.728 82.352 13.376 81.552 12.672 80.896C11.968 80.224 10.896 79.816 9.456 79.672L7.368 79.504C5.912 79.376 4.76 78.912 3.912 78.112C3.064 77.312 2.64 76.264 2.64 74.968C2.64 74.04 2.856 73.208 3.288 72.472C3.72 71.72 4.368 71.128 5.232 70.696C6.096 70.248 7.16 70.024 8.424 70.024C9.704 70.024 10.784 70.264 11.664 70.744C12.544 71.208 13.208 71.84 13.656 72.64C14.12 73.424 14.352 74.312 14.352 75.304H13.056C13.056 74.584 12.896 73.92 12.576 73.312C12.256 72.688 11.752 72.184 11.064 71.8C10.392 71.416 9.512 71.224 8.424 71.224C7.368 71.224 6.512 71.4 5.856 71.752C5.2 72.088 4.712 72.544 4.392 73.12C4.088 73.68 3.936 74.296 3.936 74.968C3.936 75.928 4.24 76.696 4.848 77.272C5.472 77.848 6.36 78.192 7.512 78.304L9.6 78.472C10.768 78.568 11.752 78.84 12.552 79.288C13.368 79.72 13.984 80.28 14.4 80.968C14.816 81.656 15.024 82.432 15.024 83.296C15.024 84.272 14.768 85.152 14.256 85.936C13.744 86.704 13 87.312 12.024 87.76C11.048 88.192 9.856 88.408 8.448 88.408ZM24.8424 88.408C23.7864 88.408 22.8504 88.216 22.0344 87.832C21.2184 87.448 20.5304 86.944 19.9704 86.32C19.4264 85.696 19.0104 85 18.7224 84.232C18.4504 83.448 18.3144 82.648 18.3144 81.832V81.592C18.3144 80.76 18.4584 79.952 18.7464 79.168C19.0344 78.384 19.4584 77.68 20.0184 77.056C20.5784 76.432 21.2584 75.936 22.0584 75.568C22.8744 75.2 23.8024 75.016 24.8424 75.016C25.8664 75.016 26.7784 75.2 27.5784 75.568C28.3944 75.936 29.0824 76.432 29.6424 77.056C30.2024 77.68 30.6264 78.384 30.9144 79.168C31.2184 79.952 31.3704 80.76 31.3704 81.592V81.832C31.3704 82.648 31.2264 83.448 30.9384 84.232C30.6504 85 30.2264 85.696 29.6664 86.32C29.1224 86.944 28.4424 87.448 27.6264 87.832C26.8264 88.216 25.8984 88.408 24.8424 88.408ZM24.8424 87.232C25.9624 87.232 26.9064 86.976 27.6744 86.464C28.4584 85.952 29.0504 85.28 29.4504 84.448C29.8664 83.6 30.0744 82.688 30.0744 81.712C30.0744 80.704 29.8664 79.784 29.4504 78.952C29.0344 78.104 28.4344 77.432 27.6504 76.936C26.8824 76.424 25.9464 76.168 24.8424 76.168C23.7544 76.168 22.8104 76.424 22.0104 76.936C21.2264 77.432 20.6264 78.104 20.2104 78.952C19.7944 79.784 19.5864 80.704 19.5864 81.712C19.5864 82.688 19.7864 83.6 20.1864 84.448C20.6024 85.28 21.2024 85.952 21.9864 86.464C22.7704 86.976 23.7224 87.232 24.8424 87.232ZM35.5976 88V74.104C35.5976 72.856 35.9096 71.936 36.5336 71.344C37.1736 70.752 38.1336 70.456 39.4136 70.456H41.0696V71.56H39.1256C38.3896 71.56 37.8216 71.76 37.4216 72.16C37.0376 72.544 36.8456 73.088 36.8456 73.792V88H35.5976ZM33.6536 76.504V75.496H41.3336V76.504H33.6536ZM48.5314 88.12C47.7474 88.12 47.0594 88.008 46.4674 87.784C45.8754 87.544 45.4194 87.144 45.0994 86.584C44.7794 86.024 44.6194 85.272 44.6194 84.328V71.296H45.8674V84.544C45.8674 85.312 46.0754 85.912 46.4914 86.344C46.9234 86.76 47.5154 86.968 48.2674 86.968H50.6194V88.12H48.5314ZM42.2194 76.432V75.4H50.6194V76.432H42.2194ZM57.6512 88L60.5312 75.832H62.4512L65.6912 88H64.5152L61.2752 75.904H61.6592L58.7792 88H57.6512ZM56.7872 88V86.92H58.5152V88H56.7872ZM56.4752 88L52.7072 75.4H53.9792L57.6752 88H56.4752ZM64.8752 88V86.92H66.4832V88H64.8752ZM65.6672 88L68.9552 75.4H70.1552L66.8432 88H65.6672ZM81.2854 88V84.232H81.0454V79.6C81.0454 78.592 80.7814 77.816 80.2534 77.272C79.7254 76.712 78.8534 76.432 77.6374 76.432C77.2054 76.432 76.7654 76.448 76.3174 76.48C75.8694 76.496 75.4454 76.52 75.0454 76.552C74.6454 76.568 74.2854 76.6 73.9654 76.648V75.496C74.2854 75.448 74.6214 75.408 74.9734 75.376C75.3414 75.344 75.7094 75.32 76.0774 75.304C76.4454 75.288 76.7974 75.28 77.1334 75.28C78.3974 75.28 79.4054 75.448 80.1574 75.784C80.9094 76.104 81.4534 76.6 81.7894 77.272C82.1254 77.928 82.2934 78.768 82.2934 79.792V88H81.2854ZM76.8934 88.336C76.0454 88.336 75.2854 88.184 74.6134 87.88C73.9414 87.576 73.4054 87.128 73.0054 86.536C72.6214 85.944 72.4294 85.224 72.4294 84.376C72.4294 83.56 72.6134 82.864 72.9814 82.288C73.3654 81.712 73.9094 81.272 74.6134 80.968C75.3334 80.664 76.1974 80.512 77.2054 80.512H81.1654V81.544H77.0854C75.9974 81.544 75.1574 81.808 74.5654 82.336C73.9894 82.848 73.7014 83.528 73.7014 84.376C73.7014 85.272 74.0134 85.984 74.6374 86.512C75.2614 87.024 76.0774 87.28 77.0854 87.28C77.7094 87.28 78.3174 87.16 78.9094 86.92C79.5014 86.68 79.9974 86.28 80.3974 85.72C80.7974 85.144 81.0134 84.376 81.0454 83.416L81.5254 83.968C81.4774 84.944 81.2374 85.76 80.8054 86.416C80.3894 87.056 79.8454 87.536 79.1734 87.856C78.5014 88.176 77.7414 88.336 76.8934 88.336ZM87.0579 88V75.4H88.0659V80.728H87.8739C87.8739 78.904 88.2819 77.544 89.0979 76.648C89.9139 75.752 91.2339 75.304 93.0579 75.304H93.4899V76.456H92.8179C91.3299 76.456 90.2099 76.84 89.4579 77.608C88.7059 78.36 88.3299 79.472 88.3299 80.944V88H87.0579ZM101.569 88.408C100.497 88.408 99.5689 88.224 98.7849 87.856C98.0009 87.472 97.3609 86.968 96.8649 86.344C96.3689 85.704 95.9929 84.992 95.7369 84.208C95.4969 83.408 95.3769 82.6 95.3769 81.784V81.544C95.3769 80.712 95.4969 79.912 95.7369 79.144C95.9929 78.376 96.3689 77.68 96.8649 77.056C97.3769 76.416 98.0089 75.92 98.7609 75.568C99.5289 75.2 100.417 75.016 101.425 75.016C102.705 75.016 103.777 75.304 104.641 75.88C105.521 76.44 106.185 77.176 106.633 78.088C107.081 79 107.305 79.96 107.305 80.968V81.832H95.9769V80.776H106.465L106.081 81.256C106.081 80.28 105.897 79.408 105.529 78.64C105.177 77.872 104.649 77.272 103.945 76.84C103.257 76.392 102.417 76.168 101.425 76.168C100.353 76.168 99.4569 76.416 98.7369 76.912C98.0169 77.408 97.4729 78.072 97.1049 78.904C96.7529 79.736 96.5769 80.656 96.5769 81.664C96.5769 82.672 96.7529 83.6 97.1049 84.448C97.4729 85.28 98.0249 85.96 98.7609 86.488C99.4969 87 100.433 87.256 101.569 87.256C102.785 87.256 103.761 86.976 104.497 86.416C105.249 85.856 105.705 85.184 105.865 84.4H107.113C106.937 85.184 106.601 85.88 106.105 86.488C105.609 87.096 104.977 87.568 104.209 87.904C103.457 88.24 102.577 88.408 101.569 88.408Z" fill="#717171"/>
<path d="M117.162 88V70.48H118.77L124.626 83.032H125.106L130.962 70.48H132.642V88H131.346V71.968L131.49 71.992L125.778 84.232H123.906L118.194 71.992L118.362 71.968V88H117.162ZM143.507 88.408C142.451 88.408 141.515 88.216 140.699 87.832C139.883 87.448 139.195 86.944 138.635 86.32C138.091 85.696 137.675 85 137.387 84.232C137.115 83.448 136.979 82.648 136.979 81.832V81.592C136.979 80.76 137.123 79.952 137.411 79.168C137.699 78.384 138.123 77.68 138.683 77.056C139.243 76.432 139.923 75.936 140.723 75.568C141.539 75.2 142.467 75.016 143.507 75.016C144.531 75.016 145.443 75.2 146.243 75.568C147.059 75.936 147.747 76.432 148.307 77.056C148.867 77.68 149.291 78.384 149.579 79.168C149.883 79.952 150.035 80.76 150.035 81.592V81.832C150.035 82.648 149.891 83.448 149.603 84.232C149.315 85 148.891 85.696 148.331 86.32C147.787 86.944 147.107 87.448 146.291 87.832C145.491 88.216 144.563 88.408 143.507 88.408ZM143.507 87.232C144.627 87.232 145.571 86.976 146.339 86.464C147.123 85.952 147.715 85.28 148.115 84.448C148.531 83.6 148.739 82.688 148.739 81.712C148.739 80.704 148.531 79.784 148.115 78.952C147.699 78.104 147.099 77.432 146.315 76.936C145.547 76.424 144.611 76.168 143.507 76.168C142.419 76.168 141.475 76.424 140.675 76.936C139.891 77.432 139.291 78.104 138.875 78.952C138.459 79.784 138.251 80.704 138.251 81.712C138.251 82.688 138.451 83.6 138.851 84.448C139.267 85.28 139.867 85.952 140.651 86.464C141.435 86.976 142.387 87.232 143.507 87.232ZM158.966 88.408C158.022 88.408 157.166 88.232 156.398 87.88C155.646 87.512 155.006 87.024 154.478 86.416C153.95 85.792 153.542 85.088 153.254 84.304C152.982 83.52 152.846 82.696 152.846 81.832V81.592C152.846 80.76 152.982 79.96 153.254 79.192C153.526 78.408 153.918 77.704 154.43 77.08C154.958 76.44 155.598 75.936 156.35 75.568C157.102 75.2 157.966 75.016 158.942 75.016C160.078 75.016 161.062 75.272 161.894 75.784C162.742 76.296 163.398 77 163.862 77.896C164.342 78.776 164.598 79.784 164.63 80.92L163.982 79.504V70.48H165.254V88H164.246V82.408H164.726C164.694 83.608 164.43 84.664 163.934 85.576C163.438 86.472 162.758 87.168 161.894 87.664C161.046 88.16 160.07 88.408 158.966 88.408ZM159.086 87.256C160.062 87.256 160.918 87.04 161.654 86.608C162.406 86.176 162.99 85.592 163.406 84.856C163.838 84.104 164.054 83.248 164.054 82.288V81.04C164.054 80.128 163.838 79.304 163.406 78.568C162.99 77.832 162.406 77.248 161.654 76.816C160.918 76.384 160.062 76.168 159.086 76.168C158.03 76.168 157.134 76.424 156.398 76.936C155.662 77.448 155.094 78.128 154.694 78.976C154.31 79.808 154.118 80.72 154.118 81.712C154.118 82.736 154.318 83.672 154.718 84.52C155.118 85.352 155.686 86.016 156.422 86.512C157.174 87.008 158.062 87.256 159.086 87.256ZM174.487 88.36C172.967 88.36 171.815 87.872 171.031 86.896C170.247 85.92 169.855 84.6 169.855 82.936V75.4H171.151V83.224C171.151 84.392 171.455 85.344 172.063 86.08C172.687 86.8 173.583 87.16 174.751 87.16C175.935 87.16 176.871 86.784 177.559 86.032C178.263 85.28 178.615 84.296 178.615 83.08V75.4H179.887V88H178.879V82.912H179.167C179.167 83.984 178.991 84.936 178.639 85.768C178.303 86.584 177.799 87.224 177.127 87.688C176.455 88.136 175.599 88.36 174.559 88.36H174.487ZM184.958 88V70.48H186.23V88H184.958ZM183.062 71.56V70.48H186.23V71.56H183.062ZM196.303 88.408C195.231 88.408 194.303 88.224 193.519 87.856C192.735 87.472 192.095 86.968 191.599 86.344C191.103 85.704 190.727 84.992 190.471 84.208C190.231 83.408 190.111 82.6 190.111 81.784V81.544C190.111 80.712 190.231 79.912 190.471 79.144C190.727 78.376 191.103 77.68 191.599 77.056C192.111 76.416 192.743 75.92 193.495 75.568C194.263 75.2 195.151 75.016 196.159 75.016C197.439 75.016 198.511 75.304 199.375 75.88C200.255 76.44 200.919 77.176 201.367 78.088C201.815 79 202.039 79.96 202.039 80.968V81.832H190.711V80.776H201.199L200.815 81.256C200.815 80.28 200.631 79.408 200.263 78.64C199.911 77.872 199.383 77.272 198.679 76.84C197.991 76.392 197.151 76.168 196.159 76.168C195.087 76.168 194.191 76.416 193.471 76.912C192.751 77.408 192.207 78.072 191.839 78.904C191.487 79.736 191.311 80.656 191.311 81.664C191.311 82.672 191.487 83.6 191.839 84.448C192.207 85.28 192.759 85.96 193.495 86.488C194.231 87 195.167 87.256 196.303 87.256C197.519 87.256 198.495 86.976 199.231 86.416C199.983 85.856 200.439 85.184 200.599 84.4H201.847C201.671 85.184 201.335 85.88 200.839 86.488C200.343 87.096 199.711 87.568 198.943 87.904C198.191 88.24 197.311 88.408 196.303 88.408ZM209.467 88.36C207.899 88.36 206.691 88 205.843 87.28C205.011 86.56 204.587 85.64 204.571 84.52H205.819C205.819 85.24 206.099 85.872 206.659 86.416C207.235 86.944 208.171 87.208 209.467 87.208C210.731 87.208 211.659 86.944 212.251 86.416C212.843 85.872 213.139 85.232 213.139 84.496C213.139 83.776 212.867 83.224 212.323 82.84C211.795 82.456 211.075 82.216 210.163 82.12L208.675 81.952C207.571 81.824 206.691 81.48 206.035 80.92C205.395 80.36 205.075 79.6 205.075 78.64C205.075 77.952 205.251 77.336 205.603 76.792C205.955 76.248 206.459 75.816 207.115 75.496C207.787 75.176 208.571 75.016 209.467 75.016C210.779 75.016 211.835 75.336 212.635 75.976C213.451 76.616 213.867 77.488 213.883 78.592H212.635C212.651 77.904 212.379 77.328 211.819 76.864C211.275 76.4 210.491 76.168 209.467 76.168C208.395 76.168 207.595 76.416 207.067 76.912C206.555 77.408 206.299 77.992 206.299 78.664C206.299 79.224 206.499 79.704 206.899 80.104C207.315 80.504 207.939 80.752 208.771 80.848L210.259 81.016C211.443 81.128 212.419 81.472 213.187 82.048C213.971 82.624 214.363 83.448 214.363 84.52C214.363 85.24 214.163 85.888 213.763 86.464C213.379 87.04 212.827 87.504 212.107 87.856C211.387 88.192 210.507 88.36 209.467 88.36ZM234.587 88L227.027 79.984C226.355 79.264 225.819 78.632 225.419 78.088C225.019 77.528 224.723 76.984 224.531 76.456C224.355 75.928 224.267 75.352 224.267 74.728C224.267 73.8 224.451 73.016 224.819 72.376C225.187 71.72 225.763 71.224 226.547 70.888C227.331 70.536 228.339 70.36 229.571 70.36C230.147 70.36 230.755 70.384 231.395 70.432C232.035 70.464 232.659 70.52 233.267 70.6V71.752C232.851 71.688 232.411 71.64 231.947 71.608C231.483 71.576 231.027 71.552 230.579 71.536C230.131 71.52 229.715 71.512 229.331 71.512C228.003 71.512 227.035 71.792 226.427 72.352C225.819 72.896 225.515 73.696 225.515 74.752C225.515 75.568 225.699 76.304 226.067 76.96C226.435 77.616 227.019 78.368 227.819 79.216L236.147 88H234.587ZM228.203 88.408C227.163 88.408 226.203 88.2 225.323 87.784C224.459 87.352 223.771 86.76 223.259 86.008C222.747 85.24 222.491 84.368 222.491 83.392V83.128C222.491 81.992 222.811 80.976 223.451 80.08C224.107 79.184 224.907 78.48 225.851 77.968L226.499 78.928C225.651 79.36 224.979 79.96 224.483 80.728C223.987 81.48 223.739 82.328 223.739 83.272C223.739 84.136 223.947 84.864 224.363 85.456C224.795 86.048 225.355 86.496 226.043 86.8C226.731 87.104 227.451 87.256 228.203 87.256C229.483 87.256 230.547 86.896 231.395 86.176C232.243 85.44 232.875 84.392 233.291 83.032C233.723 81.656 233.939 80.016 233.939 78.112H235.115C235.115 79.664 234.971 81.072 234.683 82.336C234.395 83.6 233.963 84.688 233.387 85.6C232.827 86.496 232.115 87.192 231.251 87.688C230.387 88.168 229.371 88.408 228.203 88.408ZM230.771 78.304V77.248H236.651V78.304H230.771ZM246.117 88V70.48H247.413V88H246.117ZM252.855 88V75.4H253.863V80.56H253.575C253.575 79.456 253.751 78.496 254.103 77.68C254.471 76.848 255.007 76.208 255.711 75.76C256.431 75.296 257.319 75.064 258.375 75.064H258.447C260.031 75.064 261.223 75.56 262.023 76.552C262.823 77.528 263.223 78.864 263.223 80.56V88H261.927V80.272C261.927 79.072 261.599 78.104 260.943 77.368C260.303 76.616 259.375 76.24 258.159 76.24C256.927 76.24 255.943 76.624 255.207 77.392C254.487 78.144 254.127 79.144 254.127 80.392V88H252.855ZM272.195 88.12C271.411 88.12 270.723 88.008 270.131 87.784C269.539 87.544 269.083 87.144 268.763 86.584C268.443 86.024 268.283 85.272 268.283 84.328V71.296H269.531V84.544C269.531 85.312 269.739 85.912 270.155 86.344C270.587 86.76 271.179 86.968 271.931 86.968H274.283V88.12H272.195ZM265.883 76.432V75.4H274.283V76.432H265.883ZM283.022 88.408C281.95 88.408 281.022 88.224 280.238 87.856C279.454 87.472 278.814 86.968 278.318 86.344C277.822 85.704 277.446 84.992 277.19 84.208C276.95 83.408 276.83 82.6 276.83 81.784V81.544C276.83 80.712 276.95 79.912 277.19 79.144C277.446 78.376 277.822 77.68 278.318 77.056C278.83 76.416 279.462 75.92 280.214 75.568C280.982 75.2 281.87 75.016 282.878 75.016C284.158 75.016 285.23 75.304 286.094 75.88C286.974 76.44 287.638 77.176 288.086 78.088C288.534 79 288.758 79.96 288.758 80.968V81.832H277.43V80.776H287.918L287.534 81.256C287.534 80.28 287.35 79.408 286.982 78.64C286.63 77.872 286.102 77.272 285.398 76.84C284.71 76.392 283.87 76.168 282.878 76.168C281.806 76.168 280.91 76.416 280.19 76.912C279.47 77.408 278.926 78.072 278.558 78.904C278.206 79.736 278.03 80.656 278.03 81.664C278.03 82.672 278.206 83.6 278.558 84.448C278.926 85.28 279.478 85.96 280.214 86.488C280.95 87 281.886 87.256 283.022 87.256C284.238 87.256 285.214 86.976 285.95 86.416C286.702 85.856 287.158 85.184 287.318 84.4H288.566C288.39 85.184 288.054 85.88 287.558 86.488C287.062 87.096 286.43 87.568 285.662 87.904C284.91 88.24 284.03 88.408 283.022 88.408ZM297.217 92.92C296.657 92.92 296.073 92.896 295.465 92.848C294.857 92.8 294.273 92.728 293.713 92.632V91.504C294.289 91.6 294.889 91.672 295.513 91.72C296.153 91.784 296.753 91.816 297.313 91.816C298.593 91.816 299.601 91.648 300.337 91.312C301.073 90.992 301.601 90.456 301.921 89.704C302.241 88.968 302.401 87.984 302.401 86.752V84.16L302.977 82.408C302.961 83.56 302.713 84.576 302.233 85.456C301.769 86.336 301.121 87.032 300.289 87.544C299.457 88.04 298.481 88.288 297.361 88.288C296.417 88.288 295.569 88.112 294.817 87.76C294.081 87.392 293.457 86.904 292.945 86.296C292.433 85.672 292.041 84.968 291.769 84.184C291.497 83.384 291.361 82.568 291.361 81.736V81.496C291.361 80.68 291.497 79.888 291.769 79.12C292.041 78.336 292.433 77.64 292.945 77.032C293.457 76.408 294.089 75.92 294.841 75.568C295.593 75.2 296.449 75.016 297.409 75.016C298.577 75.016 299.585 75.28 300.433 75.808C301.281 76.336 301.929 77.048 302.377 77.944C302.841 78.84 303.081 79.832 303.097 80.92L302.617 80.272V75.4H303.649V86.752C303.649 88.256 303.441 89.456 303.025 90.352C302.609 91.264 301.929 91.92 300.985 92.32C300.041 92.72 298.785 92.92 297.217 92.92ZM297.529 87.112C298.489 87.112 299.337 86.904 300.073 86.488C300.809 86.056 301.385 85.472 301.801 84.736C302.217 83.984 302.425 83.136 302.425 82.192V80.968C302.425 80.056 302.217 79.24 301.801 78.52C301.401 77.784 300.833 77.2 300.097 76.768C299.361 76.336 298.513 76.12 297.553 76.12C296.497 76.12 295.601 76.376 294.865 76.888C294.145 77.4 293.593 78.072 293.209 78.904C292.825 79.736 292.633 80.64 292.633 81.616C292.633 82.624 292.833 83.552 293.233 84.4C293.633 85.232 294.193 85.896 294.913 86.392C295.649 86.872 296.521 87.112 297.529 87.112ZM308.449 88V75.4H309.457V80.728H309.265C309.265 78.904 309.673 77.544 310.489 76.648C311.305 75.752 312.625 75.304 314.449 75.304H314.881V76.456H314.209C312.721 76.456 311.601 76.84 310.849 77.608C310.097 78.36 309.721 79.472 309.721 80.944V88H308.449ZM325.645 88V84.232H325.405V79.6C325.405 78.592 325.141 77.816 324.613 77.272C324.085 76.712 323.213 76.432 321.997 76.432C321.565 76.432 321.125 76.448 320.677 76.48C320.229 76.496 319.805 76.52 319.405 76.552C319.005 76.568 318.645 76.6 318.325 76.648V75.496C318.645 75.448 318.981 75.408 319.333 75.376C319.701 75.344 320.069 75.32 320.437 75.304C320.805 75.288 321.157 75.28 321.493 75.28C322.757 75.28 323.765 75.448 324.517 75.784C325.269 76.104 325.813 76.6 326.149 77.272C326.485 77.928 326.653 78.768 326.653 79.792V88H325.645ZM321.253 88.336C320.405 88.336 319.645 88.184 318.973 87.88C318.301 87.576 317.765 87.128 317.365 86.536C316.981 85.944 316.789 85.224 316.789 84.376C316.789 83.56 316.973 82.864 317.341 82.288C317.725 81.712 318.269 81.272 318.973 80.968C319.693 80.664 320.557 80.512 321.565 80.512H325.525V81.544H321.445C320.357 81.544 319.517 81.808 318.925 82.336C318.349 82.848 318.061 83.528 318.061 84.376C318.061 85.272 318.373 85.984 318.997 86.512C319.621 87.024 320.437 87.28 321.445 87.28C322.069 87.28 322.677 87.16 323.269 86.92C323.861 86.68 324.357 86.28 324.757 85.72C325.157 85.144 325.373 84.376 325.405 83.416L325.885 83.968C325.837 84.944 325.597 85.76 325.165 86.416C324.749 87.056 324.205 87.536 323.533 87.856C322.861 88.176 322.101 88.336 321.253 88.336ZM335.617 88.12C334.833 88.12 334.145 88.008 333.553 87.784C332.961 87.544 332.505 87.144 332.185 86.584C331.865 86.024 331.705 85.272 331.705 84.328V71.296H332.953V84.544C332.953 85.312 333.161 85.912 333.577 86.344C334.009 86.76 334.601 86.968 335.353 86.968H337.705V88.12H335.617ZM329.305 76.432V75.4H337.705V76.432H329.305ZM342.097 88V75.4H343.393V88H342.097ZM340.009 76.504V75.4H343.393V76.504H340.009ZM342.217 72.76C341.881 72.76 341.625 72.672 341.449 72.496C341.273 72.304 341.185 72.064 341.185 71.776C341.185 71.472 341.273 71.224 341.449 71.032C341.625 70.84 341.889 70.744 342.241 70.744C342.577 70.744 342.833 70.84 343.009 71.032C343.185 71.224 343.273 71.472 343.273 71.776C343.273 72.064 343.185 72.304 343.009 72.496C342.849 72.672 342.585 72.76 342.217 72.76ZM353.835 88.408C352.779 88.408 351.843 88.216 351.027 87.832C350.211 87.448 349.523 86.944 348.963 86.32C348.419 85.696 348.003 85 347.715 84.232C347.443 83.448 347.307 82.648 347.307 81.832V81.592C347.307 80.76 347.451 79.952 347.739 79.168C348.027 78.384 348.451 77.68 349.011 77.056C349.571 76.432 350.251 75.936 351.051 75.568C351.867 75.2 352.795 75.016 353.835 75.016C354.859 75.016 355.771 75.2 356.571 75.568C357.387 75.936 358.075 76.432 358.635 77.056C359.195 77.68 359.619 78.384 359.907 79.168C360.211 79.952 360.363 80.76 360.363 81.592V81.832C360.363 82.648 360.219 83.448 359.931 84.232C359.643 85 359.219 85.696 358.659 86.32C358.115 86.944 357.435 87.448 356.619 87.832C355.819 88.216 354.891 88.408 353.835 88.408ZM353.835 87.232C354.955 87.232 355.899 86.976 356.667 86.464C357.451 85.952 358.043 85.28 358.443 84.448C358.859 83.6 359.067 82.688 359.067 81.712C359.067 80.704 358.859 79.784 358.443 78.952C358.027 78.104 357.427 77.432 356.643 76.936C355.875 76.424 354.939 76.168 353.835 76.168C352.747 76.168 351.803 76.424 351.003 76.936C350.219 77.432 349.619 78.104 349.203 78.952C348.787 79.784 348.579 80.704 348.579 81.712C348.579 82.688 348.779 83.6 349.179 84.448C349.595 85.28 350.195 85.952 350.979 86.464C351.763 86.976 352.715 87.232 353.835 87.232ZM364.23 88V75.4H365.238V80.56H364.95C364.95 79.456 365.126 78.496 365.478 77.68C365.846 76.848 366.382 76.208 367.086 75.76C367.806 75.296 368.694 75.064 369.75 75.064H369.822C371.406 75.064 372.598 75.56 373.398 76.552C374.198 77.528 374.598 78.864 374.598 80.56V88H373.302V80.272C373.302 79.072 372.974 78.104 372.318 77.368C371.678 76.616 370.75 76.24 369.534 76.24C368.302 76.24 367.318 76.624 366.582 77.392C365.862 78.144 365.502 79.144 365.502 80.392V88H364.23ZM383.138 88.36C381.57 88.36 380.362 88 379.514 87.28C378.682 86.56 378.258 85.64 378.242 84.52H379.49C379.49 85.24 379.77 85.872 380.33 86.416C380.906 86.944 381.842 87.208 383.138 87.208C384.402 87.208 385.33 86.944 385.922 86.416C386.514 85.872 386.81 85.232 386.81 84.496C386.81 83.776 386.538 83.224 385.994 82.84C385.466 82.456 384.746 82.216 383.834 82.12L382.346 81.952C381.242 81.824 380.362 81.48 379.706 80.92C379.066 80.36 378.746 79.6 378.746 78.64C378.746 77.952 378.922 77.336 379.274 76.792C379.626 76.248 380.13 75.816 380.786 75.496C381.458 75.176 382.242 75.016 383.138 75.016C384.45 75.016 385.506 75.336 386.306 75.976C387.122 76.616 387.538 77.488 387.554 78.592H386.306C386.322 77.904 386.05 77.328 385.49 76.864C384.946 76.4 384.162 76.168 383.138 76.168C382.066 76.168 381.266 76.416 380.738 76.912C380.226 77.408 379.97 77.992 379.97 78.664C379.97 79.224 380.17 79.704 380.57 80.104C380.986 80.504 381.61 80.752 382.442 80.848L383.93 81.016C385.114 81.128 386.09 81.472 386.858 82.048C387.642 82.624 388.034 83.448 388.034 84.52C388.034 85.24 387.834 85.888 387.434 86.464C387.05 87.04 386.498 87.504 385.778 87.856C385.058 88.192 384.178 88.36 383.138 88.36Z" fill="url(#paint1_radial_1323_1383)"/>
<defs>
<radialGradient id="paint0_radial_1323_1383" cx="0" cy="0" r="1" gradientUnits="userSpaceOnUse" gradientTransform="translate(295 30) rotate(90) scale(30 295)">
<stop stop-color="#5A69EA"/>
<stop offset="1" stop-color="#BF8BCA"/>
</radialGradient>
<radialGradient id="paint1_radial_1323_1383" cx="0" cy="0" r="1" gradientUnits="userSpaceOnUse" gradientTransform="translate(295 80) rotate(90) scale(15 295)">
<stop stop-color="#5A69EA"/>
<stop offset="1" stop-color="#BF8BCA"/>
</radialGradient>
</defs>
</svg>
