<svg width="542" height="95" viewBox="0 0 542 95" fill="none" xmlns="http://www.w3.org/2000/svg">
<path d="M27.264 56.032C25.632 56.032 24.208 55.776 22.992 55.264C21.808 54.752 20.896 53.92 20.256 52.768C19.616 51.648 19.296 50.128 19.296 48.208V44.368H22.656V48.736C22.656 50.016 23.008 51.008 23.712 51.712C24.416 52.416 25.408 52.768 26.688 52.768H32.64V56.032H27.264ZM20.832 46.816C17.792 46.816 15.152 46.272 12.912 45.184C10.672 44.096 8.816 42.656 7.344 40.864C5.872 39.072 4.768 37.12 4.032 35.008C3.296 32.896 2.928 30.832 2.928 28.816V27.952C2.928 25.808 3.296 23.68 4.032 21.568C4.8 19.424 5.936 17.488 7.44 15.76C8.944 14.032 10.816 12.656 13.056 11.632C15.296 10.576 17.888 10.048 20.832 10.048C23.808 10.048 26.4 10.576 28.608 11.632C30.848 12.656 32.72 14.032 34.224 15.76C35.728 17.488 36.848 19.424 37.584 21.568C38.352 23.68 38.736 25.808 38.736 27.952V28.864C38.736 30.88 38.368 32.944 37.632 35.056C36.928 37.136 35.824 39.072 34.32 40.864C32.848 42.656 30.992 44.096 28.752 45.184C26.512 46.272 23.872 46.816 20.832 46.816ZM20.832 43.456C23.072 43.456 25.072 43.056 26.832 42.256C28.592 41.424 30.08 40.304 31.296 38.896C32.512 37.456 33.44 35.84 34.08 34.048C34.72 32.256 35.04 30.384 35.04 28.432C35.04 26.384 34.72 24.464 34.08 22.672C33.44 20.88 32.496 19.296 31.248 17.92C30.032 16.512 28.544 15.408 26.784 14.608C25.024 13.808 23.04 13.408 20.832 13.408C18.656 13.408 16.688 13.808 14.928 14.608C13.168 15.408 11.664 16.512 10.416 17.92C9.2 19.296 8.256 20.88 7.584 22.672C6.944 24.464 6.624 26.384 6.624 28.432C6.624 30.384 6.944 32.256 7.584 34.048C8.224 35.84 9.152 37.456 10.368 38.896C11.584 40.304 13.072 41.424 14.832 42.256C16.624 43.056 18.624 43.456 20.832 43.456ZM55.065 46.72C52.025 46.72 49.705 45.744 48.105 43.792C46.505 41.808 45.705 39.056 45.705 35.536V20.56H49.257V36.256C49.257 38.464 49.833 40.224 50.985 41.536C52.169 42.816 53.801 43.456 55.881 43.456C58.057 43.456 59.785 42.768 61.065 41.392C62.377 40.016 63.033 38.176 63.033 35.872V20.56H66.633V46H63.753V35.392H64.329C64.329 37.76 63.993 39.792 63.321 41.488C62.649 43.152 61.641 44.448 60.297 45.376C58.953 46.272 57.257 46.72 55.209 46.72H55.065ZM77.3906 46V20.608H80.9426V46H77.3906ZM73.3106 23.488V20.608H80.9426V23.488H73.3106ZM78.1586 15.904C77.2946 15.904 76.6386 15.68 76.1906 15.232C75.7746 14.752 75.5666 14.16 75.5666 13.456C75.5666 12.752 75.7746 12.176 76.1906 11.728C76.6386 11.248 77.2946 11.008 78.1586 11.008C79.0226 11.008 79.6626 11.248 80.0786 11.728C80.4946 12.176 80.7026 12.752 80.7026 13.456C80.7026 14.16 80.4946 14.752 80.0786 15.232C79.6626 15.68 79.0226 15.904 78.1586 15.904ZM101.094 46.816C98.9504 46.816 97.0784 46.448 95.4784 45.712C93.9104 44.944 92.5984 43.92 91.5424 42.64C90.4864 41.328 89.6864 39.888 89.1424 38.32C88.6304 36.752 88.3744 35.168 88.3744 33.568V32.896C88.3744 31.264 88.6304 29.68 89.1424 28.144C89.6864 26.576 90.4864 25.168 91.5424 23.92C92.5984 22.64 93.9104 21.632 95.4784 20.896C97.0784 20.128 98.9184 19.744 100.998 19.744C103.11 19.744 104.982 20.128 106.614 20.896C108.278 21.664 109.622 22.752 110.646 24.16C111.67 25.568 112.278 27.232 112.47 29.152H109.014C108.726 27.392 107.894 25.936 106.518 24.784C105.174 23.6 103.334 23.008 100.998 23.008C98.9824 23.008 97.3024 23.472 95.9584 24.4C94.6464 25.296 93.6544 26.528 92.9824 28.096C92.3104 29.632 91.9744 31.344 91.9744 33.232C91.9744 35.088 92.3104 36.816 92.9824 38.416C93.6544 39.984 94.6624 41.248 96.0064 42.208C97.3504 43.136 99.0464 43.6 101.094 43.6C102.662 43.6 104.022 43.328 105.174 42.784C106.358 42.208 107.302 41.44 108.006 40.48C108.742 39.52 109.174 38.464 109.302 37.312H112.758C112.63 39.232 112.022 40.912 110.934 42.352C109.878 43.76 108.502 44.864 106.806 45.664C105.11 46.432 103.206 46.816 101.094 46.816ZM136.639 46L126.415 34.096H122.287L134.335 20.608H138.175L127.375 32.656L127.615 30.688L140.863 46H136.639ZM119.359 46V10.96H122.959V46H119.359Z" fill="#0D0D0D"/>
<path d="M157.722 46V10.96H161.37V46H157.722ZM160.41 46V42.688H176.874V46H160.41ZM184.125 46V20.608H187.677V46H184.125ZM180.045 23.488V20.608H187.677V23.488H180.045ZM184.893 15.904C184.029 15.904 183.373 15.68 182.925 15.232C182.509 14.752 182.301 14.16 182.301 13.456C182.301 12.752 182.509 12.176 182.925 11.728C183.373 11.248 184.029 11.008 184.893 11.008C185.757 11.008 186.397 11.248 186.813 11.728C187.229 12.176 187.437 12.752 187.437 13.456C187.437 14.16 187.229 14.752 186.813 15.232C186.397 15.68 185.757 15.904 184.893 15.904ZM205.141 46.72C201.877 46.72 199.365 46.016 197.605 44.608C195.845 43.168 194.949 41.248 194.917 38.848H198.277C198.341 40.064 198.885 41.168 199.909 42.16C200.965 43.152 202.709 43.648 205.141 43.648C207.413 43.648 209.109 43.184 210.229 42.256C211.381 41.296 211.957 40.144 211.957 38.8C211.957 37.552 211.477 36.592 210.517 35.92C209.589 35.216 208.229 34.768 206.437 34.576L203.557 34.288C201.253 34.032 199.381 33.328 197.941 32.176C196.533 30.992 195.829 29.376 195.829 27.328C195.829 25.824 196.213 24.512 196.981 23.392C197.749 22.272 198.821 21.408 200.197 20.8C201.605 20.16 203.253 19.84 205.141 19.84C207.861 19.84 210.069 20.48 211.765 21.76C213.493 23.04 214.373 24.864 214.405 27.232H211.045C211.013 26.016 210.501 24.992 209.509 24.16C208.517 23.328 207.061 22.912 205.141 22.912C203.157 22.912 201.669 23.344 200.677 24.208C199.717 25.072 199.237 26.128 199.237 27.376C199.237 28.432 199.605 29.312 200.341 30.016C201.077 30.688 202.229 31.104 203.797 31.264L206.677 31.552C209.237 31.84 211.317 32.576 212.917 33.76C214.549 34.944 215.365 36.64 215.365 38.848C215.365 40.352 214.933 41.712 214.069 42.928C213.237 44.112 212.053 45.04 210.517 45.712C208.981 46.384 207.189 46.72 205.141 46.72ZM231.747 46.288C229.987 46.288 228.467 46.032 227.187 45.52C225.907 45.008 224.915 44.144 224.211 42.928C223.507 41.68 223.155 40.016 223.155 37.936V12.592H226.611V38.464C226.611 39.936 227.011 41.072 227.811 41.872C228.611 42.64 229.747 43.024 231.219 43.024H235.779V46.288H231.747ZM218.595 23.344V20.608H235.779V23.344H218.595Z" fill="url(#paint0_radial_1323_1384)"/>
<path d="M10.464 88.408C8.992 88.408 7.696 88.144 6.576 87.616C5.472 87.072 4.544 86.36 3.792 85.48C3.056 84.584 2.496 83.608 2.112 82.552C1.744 81.496 1.56 80.44 1.56 79.384V79C1.56 77.896 1.752 76.816 2.136 75.76C2.536 74.704 3.112 73.744 3.864 72.88C4.632 72 5.56 71.304 6.648 70.792C7.752 70.28 9.024 70.024 10.464 70.024C11.888 70.024 13.144 70.28 14.232 70.792C15.336 71.304 16.264 72 17.016 72.88C17.784 73.744 18.36 74.704 18.744 75.76C19.128 76.816 19.32 77.896 19.32 79V79.384C19.32 80.44 19.128 81.496 18.744 82.552C18.376 83.608 17.824 84.584 17.088 85.48C16.352 86.36 15.432 87.072 14.328 87.616C13.224 88.144 11.936 88.408 10.464 88.408ZM10.464 87.208C11.664 87.208 12.728 86.984 13.656 86.536C14.6 86.088 15.392 85.488 16.032 84.736C16.688 83.968 17.176 83.112 17.496 82.168C17.832 81.208 18 80.224 18 79.216C18 78.16 17.824 77.152 17.472 76.192C17.136 75.232 16.64 74.384 15.984 73.648C15.344 72.896 14.552 72.304 13.608 71.872C12.68 71.44 11.632 71.224 10.464 71.224C9.28 71.224 8.216 71.44 7.272 71.872C6.344 72.304 5.552 72.896 4.896 73.648C4.24 74.384 3.736 75.232 3.384 76.192C3.048 77.152 2.88 78.16 2.88 79.216C2.88 80.224 3.048 81.208 3.384 82.168C3.72 83.112 4.208 83.968 4.848 84.736C5.504 85.488 6.296 86.088 7.224 86.536C8.168 86.984 9.248 87.208 10.464 87.208ZM23.3548 92.8V75.4H24.3628V80.776L23.9788 80.944C23.9948 79.76 24.2428 78.728 24.7228 77.848C25.2188 76.952 25.8908 76.256 26.7388 75.76C27.5868 75.264 28.5708 75.016 29.6908 75.016C30.6508 75.016 31.5068 75.2 32.2588 75.568C33.0108 75.92 33.6428 76.408 34.1548 77.032C34.6828 77.64 35.0828 78.336 35.3548 79.12C35.6268 79.904 35.7628 80.728 35.7628 81.592V81.832C35.7628 82.648 35.6268 83.448 35.3548 84.232C35.0828 85 34.6828 85.704 34.1548 86.344C33.6428 86.968 33.0108 87.472 32.2588 87.856C31.5068 88.224 30.6508 88.408 29.6908 88.408C28.5708 88.408 27.5788 88.152 26.7148 87.64C25.8668 87.128 25.2028 86.424 24.7228 85.528C24.2428 84.616 23.9868 83.584 23.9548 82.432L24.6268 84.112V92.8H23.3548ZM29.5228 87.256C30.5788 87.256 31.4748 87 32.2108 86.488C32.9628 85.96 33.5308 85.28 33.9148 84.448C34.2988 83.6 34.4908 82.688 34.4908 81.712C34.4908 80.688 34.2908 79.76 33.8908 78.928C33.5068 78.08 32.9388 77.408 32.1868 76.912C31.4508 76.416 30.5628 76.168 29.5228 76.168C28.5628 76.168 27.7068 76.384 26.9548 76.816C26.2188 77.232 25.6348 77.816 25.2028 78.568C24.7708 79.304 24.5548 80.152 24.5548 81.112V82.336C24.5548 83.248 24.7628 84.08 25.1788 84.832C25.6108 85.568 26.1948 86.16 26.9308 86.608C27.6828 87.04 28.5468 87.256 29.5228 87.256ZM44.7799 88.408C43.7079 88.408 42.7799 88.224 41.9959 87.856C41.2119 87.472 40.5719 86.968 40.0759 86.344C39.5799 85.704 39.2039 84.992 38.9479 84.208C38.7079 83.408 38.5879 82.6 38.5879 81.784V81.544C38.5879 80.712 38.7079 79.912 38.9479 79.144C39.2039 78.376 39.5799 77.68 40.0759 77.056C40.5879 76.416 41.2199 75.92 41.9719 75.568C42.7399 75.2 43.6279 75.016 44.6359 75.016C45.9159 75.016 46.9879 75.304 47.8519 75.88C48.7319 76.44 49.3959 77.176 49.8439 78.088C50.2919 79 50.5159 79.96 50.5159 80.968V81.832H39.1879V80.776H49.6759L49.2919 81.256C49.2919 80.28 49.1079 79.408 48.7399 78.64C48.3879 77.872 47.8599 77.272 47.1559 76.84C46.4679 76.392 45.6279 76.168 44.6359 76.168C43.5639 76.168 42.6679 76.416 41.9479 76.912C41.2279 77.408 40.6839 78.072 40.3159 78.904C39.9639 79.736 39.7879 80.656 39.7879 81.664C39.7879 82.672 39.9639 83.6 40.3159 84.448C40.6839 85.28 41.2359 85.96 41.9719 86.488C42.7079 87 43.6439 87.256 44.7799 87.256C45.9959 87.256 46.9719 86.976 47.7079 86.416C48.4599 85.856 48.9159 85.184 49.0759 84.4H50.3239C50.1479 85.184 49.8119 85.88 49.3159 86.488C48.8199 87.096 48.1879 87.568 47.4199 87.904C46.6679 88.24 45.7879 88.408 44.7799 88.408ZM54.1751 88V75.4H55.1831V80.728H54.9911C54.9911 78.904 55.3991 77.544 56.2151 76.648C57.0311 75.752 58.3511 75.304 60.1751 75.304H60.6071V76.456H59.9351C58.4471 76.456 57.3271 76.84 56.5751 77.608C55.8231 78.36 55.4471 79.472 55.4471 80.944V88H54.1751ZM71.3713 88V84.232H71.1313V79.6C71.1313 78.592 70.8673 77.816 70.3393 77.272C69.8113 76.712 68.9393 76.432 67.7233 76.432C67.2913 76.432 66.8513 76.448 66.4033 76.48C65.9553 76.496 65.5313 76.52 65.1313 76.552C64.7313 76.568 64.3713 76.6 64.0513 76.648V75.496C64.3713 75.448 64.7073 75.408 65.0593 75.376C65.4273 75.344 65.7953 75.32 66.1633 75.304C66.5313 75.288 66.8833 75.28 67.2193 75.28C68.4833 75.28 69.4913 75.448 70.2433 75.784C70.9953 76.104 71.5393 76.6 71.8753 77.272C72.2113 77.928 72.3793 78.768 72.3793 79.792V88H71.3713ZM66.9793 88.336C66.1313 88.336 65.3713 88.184 64.6993 87.88C64.0273 87.576 63.4913 87.128 63.0913 86.536C62.7073 85.944 62.5153 85.224 62.5153 84.376C62.5153 83.56 62.6993 82.864 63.0673 82.288C63.4513 81.712 63.9953 81.272 64.6993 80.968C65.4193 80.664 66.2833 80.512 67.2913 80.512H71.2513V81.544H67.1713C66.0833 81.544 65.2433 81.808 64.6513 82.336C64.0753 82.848 63.7873 83.528 63.7873 84.376C63.7873 85.272 64.0993 85.984 64.7233 86.512C65.3473 87.024 66.1633 87.28 67.1713 87.28C67.7953 87.28 68.4033 87.16 68.9953 86.92C69.5873 86.68 70.0833 86.28 70.4833 85.72C70.8833 85.144 71.0993 84.376 71.1313 83.416L71.6113 83.968C71.5633 84.944 71.3233 85.76 70.8913 86.416C70.4753 87.056 69.9313 87.536 69.2593 87.856C68.5873 88.176 67.8273 88.336 66.9793 88.336ZM81.3439 88.12C80.5599 88.12 79.8719 88.008 79.2799 87.784C78.6879 87.544 78.2319 87.144 77.9119 86.584C77.5919 86.024 77.4319 85.272 77.4319 84.328V71.296H78.6799V84.544C78.6799 85.312 78.8879 85.912 79.3039 86.344C79.7359 86.76 80.3279 86.968 81.0799 86.968H83.4319V88.12H81.3439ZM75.0319 76.432V75.4H83.4319V76.432H75.0319ZM87.8237 88V75.4H89.1197V88H87.8237ZM85.7357 76.504V75.4H89.1197V76.504H85.7357ZM87.9437 72.76C87.6077 72.76 87.3517 72.672 87.1757 72.496C86.9997 72.304 86.9117 72.064 86.9117 71.776C86.9117 71.472 86.9997 71.224 87.1757 71.032C87.3517 70.84 87.6157 70.744 87.9677 70.744C88.3037 70.744 88.5597 70.84 88.7357 71.032C88.9117 71.224 88.9997 71.472 88.9997 71.776C88.9997 72.064 88.9117 72.304 88.7357 72.496C88.5757 72.672 88.3117 72.76 87.9437 72.76ZM99.5612 88.408C98.5052 88.408 97.5692 88.216 96.7532 87.832C95.9372 87.448 95.2492 86.944 94.6892 86.32C94.1452 85.696 93.7292 85 93.4412 84.232C93.1692 83.448 93.0332 82.648 93.0332 81.832V81.592C93.0332 80.76 93.1772 79.952 93.4652 79.168C93.7532 78.384 94.1772 77.68 94.7372 77.056C95.2972 76.432 95.9772 75.936 96.7772 75.568C97.5932 75.2 98.5212 75.016 99.5612 75.016C100.585 75.016 101.497 75.2 102.297 75.568C103.113 75.936 103.801 76.432 104.361 77.056C104.921 77.68 105.345 78.384 105.633 79.168C105.937 79.952 106.089 80.76 106.089 81.592V81.832C106.089 82.648 105.945 83.448 105.657 84.232C105.369 85 104.945 85.696 104.385 86.32C103.841 86.944 103.161 87.448 102.345 87.832C101.545 88.216 100.617 88.408 99.5612 88.408ZM99.5612 87.232C100.681 87.232 101.625 86.976 102.393 86.464C103.177 85.952 103.769 85.28 104.169 84.448C104.585 83.6 104.793 82.688 104.793 81.712C104.793 80.704 104.585 79.784 104.169 78.952C103.753 78.104 103.153 77.432 102.369 76.936C101.601 76.424 100.665 76.168 99.5612 76.168C98.4732 76.168 97.5292 76.424 96.7292 76.936C95.9452 77.432 95.3452 78.104 94.9292 78.952C94.5132 79.784 94.3052 80.704 94.3052 81.712C94.3052 82.688 94.5052 83.6 94.9052 84.448C95.3212 85.28 95.9212 85.952 96.7052 86.464C97.4892 86.976 98.4412 87.232 99.5612 87.232ZM109.956 88V75.4H110.964V80.56H110.676C110.676 79.456 110.852 78.496 111.204 77.68C111.572 76.848 112.108 76.208 112.812 75.76C113.532 75.296 114.42 75.064 115.476 75.064H115.548C117.132 75.064 118.324 75.56 119.124 76.552C119.924 77.528 120.324 78.864 120.324 80.56V88H119.028V80.272C119.028 79.072 118.7 78.104 118.044 77.368C117.404 76.616 116.476 76.24 115.26 76.24C114.028 76.24 113.044 76.624 112.308 77.392C111.588 78.144 111.228 79.144 111.228 80.392V88H109.956ZM132.801 88V84.232H132.561V79.6C132.561 78.592 132.297 77.816 131.769 77.272C131.241 76.712 130.369 76.432 129.153 76.432C128.721 76.432 128.281 76.448 127.833 76.48C127.385 76.496 126.961 76.52 126.561 76.552C126.161 76.568 125.801 76.6 125.481 76.648V75.496C125.801 75.448 126.137 75.408 126.489 75.376C126.857 75.344 127.225 75.32 127.593 75.304C127.961 75.288 128.313 75.28 128.649 75.28C129.913 75.28 130.921 75.448 131.673 75.784C132.425 76.104 132.969 76.6 133.305 77.272C133.641 77.928 133.809 78.768 133.809 79.792V88H132.801ZM128.409 88.336C127.561 88.336 126.801 88.184 126.129 87.88C125.457 87.576 124.921 87.128 124.521 86.536C124.137 85.944 123.945 85.224 123.945 84.376C123.945 83.56 124.129 82.864 124.497 82.288C124.881 81.712 125.425 81.272 126.129 80.968C126.849 80.664 127.713 80.512 128.721 80.512H132.681V81.544H128.601C127.513 81.544 126.673 81.808 126.081 82.336C125.505 82.848 125.217 83.528 125.217 84.376C125.217 85.272 125.529 85.984 126.153 86.512C126.777 87.024 127.593 87.28 128.601 87.28C129.225 87.28 129.833 87.16 130.425 86.92C131.017 86.68 131.513 86.28 131.913 85.72C132.313 85.144 132.529 84.376 132.561 83.416L133.041 83.968C132.993 84.944 132.753 85.76 132.321 86.416C131.905 87.056 131.361 87.536 130.689 87.856C130.017 88.176 129.257 88.336 128.409 88.336ZM138.646 88V70.48H139.918V88H138.646ZM136.75 71.56V70.48H139.918V71.56H136.75ZM150.957 88V74.104C150.957 72.856 151.269 71.936 151.893 71.344C152.533 70.752 153.493 70.456 154.773 70.456H156.429V71.56H154.485C153.749 71.56 153.181 71.76 152.781 72.16C152.397 72.544 152.205 73.088 152.205 73.792V88H150.957ZM149.013 76.504V75.496H156.693V76.504H149.013ZM159.316 88V75.4H160.324V80.728H160.132C160.132 78.904 160.54 77.544 161.356 76.648C162.172 75.752 163.492 75.304 165.316 75.304H165.748V76.456H165.076C163.588 76.456 162.468 76.84 161.716 77.608C160.964 78.36 160.588 79.472 160.588 80.944V88H159.316ZM169.527 88V75.4H170.823V88H169.527ZM167.439 76.504V75.4H170.823V76.504H167.439ZM169.647 72.76C169.311 72.76 169.055 72.672 168.879 72.496C168.703 72.304 168.615 72.064 168.615 71.776C168.615 71.472 168.703 71.224 168.879 71.032C169.055 70.84 169.319 70.744 169.671 70.744C170.007 70.744 170.263 70.84 170.439 71.032C170.615 71.224 170.703 71.472 170.703 71.776C170.703 72.064 170.615 72.304 170.439 72.496C170.279 72.672 170.015 72.76 169.647 72.76ZM180.952 88.408C179.912 88.408 179 88.216 178.216 87.832C177.448 87.448 176.8 86.936 176.272 86.296C175.76 85.656 175.376 84.944 175.12 84.16C174.864 83.376 174.736 82.584 174.736 81.784V81.544C174.736 80.728 174.864 79.928 175.12 79.144C175.376 78.36 175.76 77.664 176.272 77.056C176.8 76.432 177.448 75.936 178.216 75.568C179 75.2 179.912 75.016 180.952 75.016C181.96 75.016 182.856 75.2 183.64 75.568C184.44 75.936 185.088 76.456 185.584 77.128C186.096 77.784 186.416 78.576 186.544 79.504H185.296C185.152 78.544 184.704 77.752 183.952 77.128C183.2 76.488 182.2 76.168 180.952 76.168C179.848 76.168 178.928 76.416 178.192 76.912C177.456 77.408 176.904 78.072 176.536 78.904C176.184 79.736 176.008 80.656 176.008 81.664C176.008 82.64 176.192 83.552 176.56 84.4C176.928 85.248 177.48 85.936 178.216 86.464C178.952 86.976 179.864 87.232 180.952 87.232C181.8 87.232 182.544 87.08 183.184 86.776C183.84 86.456 184.368 86.04 184.768 85.528C185.168 85 185.408 84.424 185.488 83.8H186.736C186.624 84.728 186.304 85.536 185.776 86.224C185.248 86.896 184.568 87.432 183.736 87.832C182.904 88.216 181.976 88.408 180.952 88.408ZM194.43 88.12C193.646 88.12 192.958 88.008 192.366 87.784C191.774 87.544 191.318 87.144 190.998 86.584C190.678 86.024 190.518 85.272 190.518 84.328V71.296H191.766V84.544C191.766 85.312 191.974 85.912 192.39 86.344C192.822 86.76 193.414 86.968 194.166 86.968H196.518V88.12H194.43ZM188.118 76.432V75.4H196.518V76.432H188.118ZM200.91 88V75.4H202.206V88H200.91ZM198.822 76.504V75.4H202.206V76.504H198.822ZM201.03 72.76C200.694 72.76 200.438 72.672 200.262 72.496C200.086 72.304 199.998 72.064 199.998 71.776C199.998 71.472 200.086 71.224 200.262 71.032C200.438 70.84 200.702 70.744 201.054 70.744C201.39 70.744 201.646 70.84 201.822 71.032C201.998 71.224 202.086 71.472 202.086 71.776C202.086 72.064 201.998 72.304 201.822 72.496C201.662 72.672 201.398 72.76 201.03 72.76ZM212.647 88.408C211.591 88.408 210.655 88.216 209.839 87.832C209.023 87.448 208.335 86.944 207.775 86.32C207.231 85.696 206.815 85 206.527 84.232C206.255 83.448 206.119 82.648 206.119 81.832V81.592C206.119 80.76 206.263 79.952 206.551 79.168C206.839 78.384 207.263 77.68 207.823 77.056C208.383 76.432 209.063 75.936 209.863 75.568C210.679 75.2 211.607 75.016 212.647 75.016C213.671 75.016 214.583 75.2 215.383 75.568C216.199 75.936 216.887 76.432 217.447 77.056C218.007 77.68 218.431 78.384 218.719 79.168C219.023 79.952 219.175 80.76 219.175 81.592V81.832C219.175 82.648 219.031 83.448 218.743 84.232C218.455 85 218.031 85.696 217.471 86.32C216.927 86.944 216.247 87.448 215.431 87.832C214.631 88.216 213.703 88.408 212.647 88.408ZM212.647 87.232C213.767 87.232 214.711 86.976 215.479 86.464C216.263 85.952 216.855 85.28 217.255 84.448C217.671 83.6 217.879 82.688 217.879 81.712C217.879 80.704 217.671 79.784 217.255 78.952C216.839 78.104 216.239 77.432 215.455 76.936C214.687 76.424 213.751 76.168 212.647 76.168C211.559 76.168 210.615 76.424 209.815 76.936C209.031 77.432 208.431 78.104 208.015 78.952C207.599 79.784 207.391 80.704 207.391 81.712C207.391 82.688 207.591 83.6 207.991 84.448C208.407 85.28 209.007 85.952 209.791 86.464C210.575 86.976 211.527 87.232 212.647 87.232ZM223.042 88V75.4H224.05V80.56H223.762C223.762 79.456 223.938 78.496 224.29 77.68C224.658 76.848 225.194 76.208 225.898 75.76C226.618 75.296 227.506 75.064 228.562 75.064H228.634C230.218 75.064 231.41 75.56 232.21 76.552C233.01 77.528 233.41 78.864 233.41 80.56V88H232.114V80.272C232.114 79.072 231.786 78.104 231.13 77.368C230.49 76.616 229.562 76.24 228.346 76.24C227.114 76.24 226.13 76.624 225.394 77.392C224.674 78.144 224.314 79.144 224.314 80.392V88H223.042ZM248.125 88.12C247.341 88.12 246.653 88.008 246.061 87.784C245.469 87.544 245.013 87.144 244.693 86.584C244.373 86.024 244.213 85.272 244.213 84.328V71.296H245.461V84.544C245.461 85.312 245.669 85.912 246.085 86.344C246.517 86.76 247.109 86.968 247.861 86.968H250.213V88.12H248.125ZM241.813 76.432V75.4H250.213V76.432H241.813ZM253.933 88V70.48H255.205V79.84L254.749 80.656C254.749 79.552 254.917 78.584 255.253 77.752C255.605 76.904 256.133 76.248 256.837 75.784C257.541 75.304 258.429 75.064 259.501 75.064H259.549C261.117 75.064 262.301 75.56 263.101 76.552C263.901 77.528 264.301 78.864 264.301 80.56V88H263.005V80.272C263.005 79.056 262.677 78.08 262.021 77.344C261.365 76.608 260.437 76.24 259.237 76.24C258.005 76.24 257.021 76.632 256.285 77.416C255.565 78.184 255.205 79.192 255.205 80.44V88H253.933ZM276.778 88V84.232H276.538V79.6C276.538 78.592 276.274 77.816 275.746 77.272C275.218 76.712 274.346 76.432 273.13 76.432C272.698 76.432 272.258 76.448 271.81 76.48C271.362 76.496 270.938 76.52 270.538 76.552C270.138 76.568 269.778 76.6 269.458 76.648V75.496C269.778 75.448 270.114 75.408 270.466 75.376C270.834 75.344 271.202 75.32 271.57 75.304C271.938 75.288 272.29 75.28 272.626 75.28C273.89 75.28 274.898 75.448 275.65 75.784C276.402 76.104 276.946 76.6 277.282 77.272C277.618 77.928 277.786 78.768 277.786 79.792V88H276.778ZM272.386 88.336C271.538 88.336 270.778 88.184 270.106 87.88C269.434 87.576 268.898 87.128 268.498 86.536C268.114 85.944 267.922 85.224 267.922 84.376C267.922 83.56 268.106 82.864 268.474 82.288C268.858 81.712 269.402 81.272 270.106 80.968C270.826 80.664 271.69 80.512 272.698 80.512H276.658V81.544H272.578C271.49 81.544 270.65 81.808 270.058 82.336C269.482 82.848 269.194 83.528 269.194 84.376C269.194 85.272 269.506 85.984 270.13 86.512C270.754 87.024 271.57 87.28 272.578 87.28C273.202 87.28 273.81 87.16 274.402 86.92C274.994 86.68 275.49 86.28 275.89 85.72C276.29 85.144 276.506 84.376 276.538 83.416L277.018 83.968C276.97 84.944 276.73 85.76 276.298 86.416C275.882 87.056 275.338 87.536 274.666 87.856C273.994 88.176 273.234 88.336 272.386 88.336ZM286.75 88.12C285.966 88.12 285.278 88.008 284.686 87.784C284.094 87.544 283.638 87.144 283.318 86.584C282.998 86.024 282.838 85.272 282.838 84.328V71.296H284.086V84.544C284.086 85.312 284.294 85.912 284.71 86.344C285.142 86.76 285.734 86.968 286.486 86.968H288.838V88.12H286.75ZM280.438 76.432V75.4H288.838V76.432H280.438Z" fill="#717171"/>
<path d="M296.884 92.896V91.72H298.324C298.884 91.72 299.372 91.648 299.788 91.504C300.204 91.376 300.564 91.136 300.868 90.784C301.188 90.432 301.452 89.928 301.66 89.272L306.148 75.4H307.42L302.74 89.68C302.484 90.464 302.14 91.088 301.708 91.552C301.292 92.032 300.788 92.376 300.196 92.584C299.62 92.792 298.964 92.896 298.228 92.896H296.884ZM301.252 87.688V86.56H303.028V87.688H301.252ZM301.012 87.688L296.428 75.4H297.724L302.26 87.688H301.012ZM316.077 88.408C315.021 88.408 314.085 88.216 313.269 87.832C312.453 87.448 311.765 86.944 311.205 86.32C310.661 85.696 310.245 85 309.957 84.232C309.685 83.448 309.549 82.648 309.549 81.832V81.592C309.549 80.76 309.693 79.952 309.981 79.168C310.269 78.384 310.693 77.68 311.253 77.056C311.813 76.432 312.493 75.936 313.293 75.568C314.109 75.2 315.037 75.016 316.077 75.016C317.101 75.016 318.013 75.2 318.813 75.568C319.629 75.936 320.317 76.432 320.877 77.056C321.437 77.68 321.861 78.384 322.149 79.168C322.453 79.952 322.605 80.76 322.605 81.592V81.832C322.605 82.648 322.461 83.448 322.173 84.232C321.885 85 321.461 85.696 320.901 86.32C320.357 86.944 319.677 87.448 318.861 87.832C318.061 88.216 317.133 88.408 316.077 88.408ZM316.077 87.232C317.197 87.232 318.141 86.976 318.909 86.464C319.693 85.952 320.285 85.28 320.685 84.448C321.101 83.6 321.309 82.688 321.309 81.712C321.309 80.704 321.101 79.784 320.685 78.952C320.269 78.104 319.669 77.432 318.885 76.936C318.117 76.424 317.181 76.168 316.077 76.168C314.989 76.168 314.045 76.424 313.245 76.936C312.461 77.432 311.861 78.104 311.445 78.952C311.029 79.784 310.821 80.704 310.821 81.712C310.821 82.688 311.021 83.6 311.421 84.448C311.837 85.28 312.437 85.952 313.221 86.464C314.005 86.976 314.957 87.232 316.077 87.232ZM330.768 88.36C329.248 88.36 328.096 87.872 327.312 86.896C326.528 85.92 326.136 84.6 326.136 82.936V75.4H327.432V83.224C327.432 84.392 327.736 85.344 328.344 86.08C328.968 86.8 329.864 87.16 331.032 87.16C332.216 87.16 333.152 86.784 333.84 86.032C334.544 85.28 334.896 84.296 334.896 83.08V75.4H336.168V88H335.16V82.912H335.448C335.448 83.984 335.272 84.936 334.92 85.768C334.584 86.584 334.08 87.224 333.408 87.688C332.736 88.136 331.88 88.36 330.84 88.36H330.768ZM350.222 88L353.102 75.832H355.022L358.262 88H357.086L353.846 75.904H354.23L351.35 88H350.222ZM349.358 88V86.92H351.086V88H349.358ZM349.046 88L345.278 75.4H346.55L350.246 88H349.046ZM357.446 88V86.92H359.054V88H357.446ZM358.238 88L361.526 75.4H362.726L359.414 88H358.238ZM371.483 88.408C370.427 88.408 369.491 88.216 368.675 87.832C367.859 87.448 367.171 86.944 366.611 86.32C366.067 85.696 365.651 85 365.363 84.232C365.091 83.448 364.955 82.648 364.955 81.832V81.592C364.955 80.76 365.099 79.952 365.387 79.168C365.675 78.384 366.099 77.68 366.659 77.056C367.219 76.432 367.899 75.936 368.699 75.568C369.515 75.2 370.443 75.016 371.483 75.016C372.507 75.016 373.419 75.2 374.219 75.568C375.035 75.936 375.723 76.432 376.283 77.056C376.843 77.68 377.267 78.384 377.555 79.168C377.859 79.952 378.011 80.76 378.011 81.592V81.832C378.011 82.648 377.867 83.448 377.579 84.232C377.291 85 376.867 85.696 376.307 86.32C375.763 86.944 375.083 87.448 374.267 87.832C373.467 88.216 372.539 88.408 371.483 88.408ZM371.483 87.232C372.603 87.232 373.547 86.976 374.315 86.464C375.099 85.952 375.691 85.28 376.091 84.448C376.507 83.6 376.715 82.688 376.715 81.712C376.715 80.704 376.507 79.784 376.091 78.952C375.675 78.104 375.075 77.432 374.291 76.936C373.523 76.424 372.587 76.168 371.483 76.168C370.395 76.168 369.451 76.424 368.651 76.936C367.867 77.432 367.267 78.104 366.851 78.952C366.435 79.784 366.227 80.704 366.227 81.712C366.227 82.688 366.427 83.6 366.827 84.448C367.243 85.28 367.843 85.952 368.627 86.464C369.411 86.976 370.363 87.232 371.483 87.232ZM381.878 88V75.4H382.886V80.56H382.598C382.598 79.456 382.774 78.496 383.126 77.68C383.494 76.848 384.03 76.208 384.734 75.76C385.454 75.296 386.342 75.064 387.398 75.064H387.47C389.054 75.064 390.246 75.56 391.046 76.552C391.846 77.528 392.246 78.864 392.246 80.56V88H390.95V80.272C390.95 79.072 390.622 78.104 389.966 77.368C389.326 76.616 388.398 76.24 387.182 76.24C385.95 76.24 384.966 76.624 384.23 77.392C383.51 78.144 383.15 79.144 383.15 80.392V88H381.878ZM396.271 76.576V70.48H397.399V76.576H396.271ZM406.61 88.12C405.826 88.12 405.138 88.008 404.546 87.784C403.954 87.544 403.498 87.144 403.178 86.584C402.858 86.024 402.698 85.272 402.698 84.328V71.296H403.946V84.544C403.946 85.312 404.154 85.912 404.57 86.344C405.002 86.76 405.594 86.968 406.346 86.968H408.698V88.12H406.61ZM400.298 76.432V75.4H408.698V76.432H400.298ZM418.52 88V74.104C418.52 72.856 418.832 71.936 419.456 71.344C420.096 70.752 421.056 70.456 422.336 70.456H423.992V71.56H422.048C421.312 71.56 420.744 71.76 420.344 72.16C419.96 72.544 419.768 73.088 419.768 73.792V88H418.52ZM416.576 76.504V75.496H424.256V76.504H416.576ZM434.653 88V84.232H434.413V79.6C434.413 78.592 434.149 77.816 433.621 77.272C433.093 76.712 432.221 76.432 431.005 76.432C430.573 76.432 430.133 76.448 429.685 76.48C429.237 76.496 428.813 76.52 428.413 76.552C428.013 76.568 427.653 76.6 427.333 76.648V75.496C427.653 75.448 427.989 75.408 428.341 75.376C428.709 75.344 429.077 75.32 429.445 75.304C429.813 75.288 430.165 75.28 430.501 75.28C431.765 75.28 432.773 75.448 433.525 75.784C434.277 76.104 434.821 76.6 435.157 77.272C435.493 77.928 435.661 78.768 435.661 79.792V88H434.653ZM430.261 88.336C429.413 88.336 428.653 88.184 427.981 87.88C427.309 87.576 426.773 87.128 426.373 86.536C425.989 85.944 425.797 85.224 425.797 84.376C425.797 83.56 425.981 82.864 426.349 82.288C426.733 81.712 427.277 81.272 427.981 80.968C428.701 80.664 429.565 80.512 430.573 80.512H434.533V81.544H430.453C429.365 81.544 428.525 81.808 427.933 82.336C427.357 82.848 427.069 83.528 427.069 84.376C427.069 85.272 427.381 85.984 428.005 86.512C428.629 87.024 429.445 87.28 430.453 87.28C431.077 87.28 431.685 87.16 432.277 86.92C432.869 86.68 433.365 86.28 433.765 85.72C434.165 85.144 434.381 84.376 434.413 83.416L434.893 83.968C434.845 84.944 434.605 85.76 434.173 86.416C433.757 87.056 433.213 87.536 432.541 87.856C431.869 88.176 431.109 88.336 430.261 88.336ZM445.585 88.408C444.545 88.408 443.633 88.216 442.849 87.832C442.081 87.448 441.433 86.936 440.905 86.296C440.393 85.656 440.009 84.944 439.753 84.16C439.497 83.376 439.369 82.584 439.369 81.784V81.544C439.369 80.728 439.497 79.928 439.753 79.144C440.009 78.36 440.393 77.664 440.905 77.056C441.433 76.432 442.081 75.936 442.849 75.568C443.633 75.2 444.545 75.016 445.585 75.016C446.593 75.016 447.489 75.2 448.273 75.568C449.073 75.936 449.721 76.456 450.217 77.128C450.729 77.784 451.049 78.576 451.177 79.504H449.929C449.785 78.544 449.337 77.752 448.585 77.128C447.833 76.488 446.833 76.168 445.585 76.168C444.481 76.168 443.561 76.416 442.825 76.912C442.089 77.408 441.537 78.072 441.169 78.904C440.817 79.736 440.641 80.656 440.641 81.664C440.641 82.64 440.825 83.552 441.193 84.4C441.561 85.248 442.113 85.936 442.849 86.464C443.585 86.976 444.497 87.232 445.585 87.232C446.433 87.232 447.177 87.08 447.817 86.776C448.473 86.456 449.001 86.04 449.401 85.528C449.801 85 450.041 84.424 450.121 83.8H451.369C451.257 84.728 450.937 85.536 450.409 86.224C449.881 86.896 449.201 87.432 448.369 87.832C447.537 88.216 446.609 88.408 445.585 88.408ZM459.999 88.408C458.927 88.408 457.999 88.224 457.215 87.856C456.431 87.472 455.791 86.968 455.295 86.344C454.799 85.704 454.423 84.992 454.167 84.208C453.927 83.408 453.807 82.6 453.807 81.784V81.544C453.807 80.712 453.927 79.912 454.167 79.144C454.423 78.376 454.799 77.68 455.295 77.056C455.807 76.416 456.439 75.92 457.191 75.568C457.959 75.2 458.847 75.016 459.855 75.016C461.135 75.016 462.207 75.304 463.071 75.88C463.951 76.44 464.615 77.176 465.063 78.088C465.511 79 465.735 79.96 465.735 80.968V81.832H454.407V80.776H464.895L464.511 81.256C464.511 80.28 464.327 79.408 463.959 78.64C463.607 77.872 463.079 77.272 462.375 76.84C461.687 76.392 460.847 76.168 459.855 76.168C458.783 76.168 457.887 76.416 457.167 76.912C456.447 77.408 455.903 78.072 455.535 78.904C455.183 79.736 455.007 80.656 455.007 81.664C455.007 82.672 455.183 83.6 455.535 84.448C455.903 85.28 456.455 85.96 457.191 86.488C457.927 87 458.863 87.256 459.999 87.256C461.215 87.256 462.191 86.976 462.927 86.416C463.679 85.856 464.135 85.184 464.295 84.4H465.543C465.367 85.184 465.031 85.88 464.535 86.488C464.039 87.096 463.407 87.568 462.639 87.904C461.887 88.24 461.007 88.408 459.999 88.408ZM482.84 88V84.232H482.6V79.6C482.6 78.592 482.336 77.816 481.808 77.272C481.28 76.712 480.408 76.432 479.192 76.432C478.76 76.432 478.32 76.448 477.872 76.48C477.424 76.496 477 76.52 476.6 76.552C476.2 76.568 475.84 76.6 475.52 76.648V75.496C475.84 75.448 476.176 75.408 476.528 75.376C476.896 75.344 477.264 75.32 477.632 75.304C478 75.288 478.352 75.28 478.688 75.28C479.952 75.28 480.96 75.448 481.712 75.784C482.464 76.104 483.008 76.6 483.344 77.272C483.68 77.928 483.848 78.768 483.848 79.792V88H482.84ZM478.448 88.336C477.6 88.336 476.84 88.184 476.168 87.88C475.496 87.576 474.96 87.128 474.56 86.536C474.176 85.944 473.984 85.224 473.984 84.376C473.984 83.56 474.168 82.864 474.536 82.288C474.92 81.712 475.464 81.272 476.168 80.968C476.888 80.664 477.752 80.512 478.76 80.512H482.72V81.544H478.64C477.552 81.544 476.712 81.808 476.12 82.336C475.544 82.848 475.256 83.528 475.256 84.376C475.256 85.272 475.568 85.984 476.192 86.512C476.816 87.024 477.632 87.28 478.64 87.28C479.264 87.28 479.872 87.16 480.464 86.92C481.056 86.68 481.552 86.28 481.952 85.72C482.352 85.144 482.568 84.376 482.6 83.416L483.08 83.968C483.032 84.944 482.792 85.76 482.36 86.416C481.944 87.056 481.4 87.536 480.728 87.856C480.056 88.176 479.296 88.336 478.448 88.336ZM493.413 92.92C492.853 92.92 492.269 92.896 491.661 92.848C491.053 92.8 490.469 92.728 489.909 92.632V91.504C490.485 91.6 491.085 91.672 491.709 91.72C492.349 91.784 492.949 91.816 493.509 91.816C494.789 91.816 495.797 91.648 496.533 91.312C497.269 90.992 497.797 90.456 498.117 89.704C498.437 88.968 498.597 87.984 498.597 86.752V84.16L499.173 82.408C499.157 83.56 498.909 84.576 498.429 85.456C497.965 86.336 497.317 87.032 496.485 87.544C495.653 88.04 494.677 88.288 493.557 88.288C492.613 88.288 491.765 88.112 491.013 87.76C490.277 87.392 489.653 86.904 489.141 86.296C488.629 85.672 488.237 84.968 487.965 84.184C487.693 83.384 487.557 82.568 487.557 81.736V81.496C487.557 80.68 487.693 79.888 487.965 79.12C488.237 78.336 488.629 77.64 489.141 77.032C489.653 76.408 490.285 75.92 491.037 75.568C491.789 75.2 492.645 75.016 493.605 75.016C494.773 75.016 495.781 75.28 496.629 75.808C497.477 76.336 498.125 77.048 498.573 77.944C499.037 78.84 499.277 79.832 499.293 80.92L498.813 80.272V75.4H499.845V86.752C499.845 88.256 499.637 89.456 499.221 90.352C498.805 91.264 498.125 91.92 497.181 92.32C496.237 92.72 494.981 92.92 493.413 92.92ZM493.725 87.112C494.685 87.112 495.533 86.904 496.269 86.488C497.005 86.056 497.581 85.472 497.997 84.736C498.413 83.984 498.621 83.136 498.621 82.192V80.968C498.621 80.056 498.413 79.24 497.997 78.52C497.597 77.784 497.029 77.2 496.293 76.768C495.557 76.336 494.709 76.12 493.749 76.12C492.693 76.12 491.797 76.376 491.061 76.888C490.341 77.4 489.789 78.072 489.405 78.904C489.021 79.736 488.829 80.64 488.829 81.616C488.829 82.624 489.029 83.552 489.429 84.4C489.829 85.232 490.389 85.896 491.109 86.392C491.845 86.872 492.717 87.112 493.725 87.112ZM512.348 88V84.232H512.108V79.6C512.108 78.592 511.844 77.816 511.316 77.272C510.788 76.712 509.916 76.432 508.7 76.432C508.268 76.432 507.828 76.448 507.38 76.48C506.932 76.496 506.508 76.52 506.108 76.552C505.708 76.568 505.348 76.6 505.028 76.648V75.496C505.348 75.448 505.684 75.408 506.036 75.376C506.404 75.344 506.772 75.32 507.14 75.304C507.508 75.288 507.86 75.28 508.196 75.28C509.46 75.28 510.468 75.448 511.22 75.784C511.972 76.104 512.516 76.6 512.852 77.272C513.188 77.928 513.356 78.768 513.356 79.792V88H512.348ZM507.956 88.336C507.108 88.336 506.348 88.184 505.676 87.88C505.004 87.576 504.468 87.128 504.068 86.536C503.684 85.944 503.492 85.224 503.492 84.376C503.492 83.56 503.676 82.864 504.044 82.288C504.428 81.712 504.972 81.272 505.676 80.968C506.396 80.664 507.26 80.512 508.268 80.512H512.228V81.544H508.148C507.06 81.544 506.22 81.808 505.628 82.336C505.052 82.848 504.764 83.528 504.764 84.376C504.764 85.272 505.076 85.984 505.7 86.512C506.324 87.024 507.14 87.28 508.148 87.28C508.772 87.28 509.38 87.16 509.972 86.92C510.564 86.68 511.06 86.28 511.46 85.72C511.86 85.144 512.076 84.376 512.108 83.416L512.588 83.968C512.54 84.944 512.3 85.76 511.868 86.416C511.452 87.056 510.908 87.536 510.236 87.856C509.564 88.176 508.804 88.336 507.956 88.336ZM518.792 88V75.4H520.088V88H518.792ZM516.704 76.504V75.4H520.088V76.504H516.704ZM518.912 72.76C518.576 72.76 518.32 72.672 518.144 72.496C517.968 72.304 517.88 72.064 517.88 71.776C517.88 71.472 517.968 71.224 518.144 71.032C518.32 70.84 518.584 70.744 518.936 70.744C519.272 70.744 519.528 70.84 519.704 71.032C519.88 71.224 519.968 71.472 519.968 71.776C519.968 72.064 519.88 72.304 519.704 72.496C519.544 72.672 519.28 72.76 518.912 72.76ZM525.058 88V75.4H526.066V80.56H525.778C525.778 79.456 525.954 78.496 526.306 77.68C526.674 76.848 527.21 76.208 527.914 75.76C528.634 75.296 529.522 75.064 530.578 75.064H530.65C532.234 75.064 533.426 75.56 534.226 76.552C535.026 77.528 535.426 78.864 535.426 80.56V88H534.13V80.272C534.13 79.072 533.802 78.104 533.146 77.368C532.506 76.616 531.578 76.24 530.362 76.24C529.13 76.24 528.146 76.624 527.41 77.392C526.69 78.144 526.33 79.144 526.33 80.392V88H525.058ZM539.935 88V86.152H541.615V88H539.935Z" fill="url(#paint1_radial_1323_1384)"/>
<defs>
<radialGradient id="paint0_radial_1323_1384" cx="0" cy="0" r="1" gradientUnits="userSpaceOnUse" gradientTransform="translate(268 30) rotate(90) scale(30 268)">
<stop stop-color="#5A69EA"/>
<stop offset="1" stop-color="#BF8BCA"/>
</radialGradient>
<radialGradient id="paint1_radial_1323_1384" cx="0" cy="0" r="1" gradientUnits="userSpaceOnUse" gradientTransform="translate(275.5 80) rotate(90) scale(15 275.5)">
<stop stop-color="#5A69EA"/>
<stop offset="1" stop-color="#BF8BCA"/>
</radialGradient>
</defs>
</svg>
