<svg width="81" height="16" viewBox="0 0 81 16" fill="none" xmlns="http://www.w3.org/2000/svg">
<path d="M8.11144 15.3279C7.56744 15.3279 7.09277 15.2426 6.68744 15.0719C6.29277 14.9012 5.98877 14.6239 5.77544 14.2399C5.5621 13.8666 5.45544 13.3599 5.45544 12.7199V11.4399H6.57544V12.8959C6.57544 13.3226 6.69277 13.6532 6.92744 13.8879C7.1621 14.1226 7.49277 14.2399 7.91944 14.2399H9.90344V15.3279H8.11144ZM5.96744 12.2559C4.9541 12.2559 4.0741 12.0746 3.32744 11.7119C2.58077 11.3492 1.9621 10.8692 1.47144 10.2719C0.980771 9.67455 0.612771 9.02389 0.367438 8.31989C0.122104 7.61589 -0.000562429 6.92789 -0.000562429 6.25589V5.96789C-0.000562429 5.25322 0.122104 4.54389 0.367438 3.83989C0.623438 3.12522 1.0021 2.47989 1.50344 1.90389C2.00477 1.32789 2.62877 0.86922 3.37544 0.527886C4.1221 0.175886 4.9861 -0.000113487 5.96744 -0.000113487C6.95944 -0.000113487 7.82344 0.175886 8.55944 0.527886C9.3061 0.86922 9.9301 1.32789 10.4314 1.90389C10.9328 2.47989 11.3061 3.12522 11.5514 3.83989C11.8074 4.54389 11.9354 5.25322 11.9354 5.96789V6.27189C11.9354 6.94389 11.8128 7.63189 11.5674 8.33589C11.3328 9.02922 10.9648 9.67455 10.4634 10.2719C9.97277 10.8692 9.3541 11.3492 8.60744 11.7119C7.86077 12.0746 6.98077 12.2559 5.96744 12.2559ZM5.96744 11.1359C6.7141 11.1359 7.38077 11.0026 7.96744 10.7359C8.5541 10.4586 9.0501 10.0852 9.45544 9.61589C9.86077 9.13589 10.1701 8.59722 10.3834 7.99989C10.5968 7.40255 10.7034 6.77855 10.7034 6.12789C10.7034 5.44522 10.5968 4.80522 10.3834 4.20789C10.1701 3.61055 9.85544 3.08255 9.43944 2.62389C9.0341 2.15455 8.5381 1.78655 7.95144 1.51989C7.36477 1.25322 6.70344 1.11989 5.96744 1.11989C5.2421 1.11989 4.5861 1.25322 3.99944 1.51989C3.41277 1.78655 2.91144 2.15455 2.49544 2.62389C2.0901 3.08255 1.77544 3.61055 1.55144 4.20789C1.3381 4.80522 1.23144 5.44522 1.23144 6.12789C1.23144 6.77855 1.3381 7.40255 1.55144 7.99989C1.76477 8.59722 2.0741 9.13589 2.47944 9.61589C2.88477 10.0852 3.38077 10.4586 3.96744 10.7359C4.56477 11.0026 5.23144 11.1359 5.96744 11.1359ZM17.3784 12.2239C16.3651 12.2239 15.5918 11.8986 15.0584 11.2479C14.5251 10.5866 14.2584 9.66922 14.2584 8.49589V3.50389H15.4424V8.73589C15.4424 9.47189 15.6344 10.0586 16.0184 10.4959C16.4131 10.9226 16.9571 11.1359 17.6504 11.1359C18.3758 11.1359 18.9518 10.9066 19.3784 10.4479C19.8158 9.98922 20.0344 9.37589 20.0344 8.60789V3.50389H21.2344V11.9839H20.2744V8.44789H20.4664C20.4664 9.23722 20.3544 9.91455 20.1304 10.4799C19.9064 11.0346 19.5704 11.4666 19.1224 11.7759C18.6744 12.0746 18.1091 12.2239 17.4264 12.2239H17.3784ZM24.8203 11.9839V3.51989H26.0043V11.9839H24.8203ZM23.4603 4.47989V3.51989H26.0043V4.47989H23.4603ZM25.0763 1.95189C24.7883 1.95189 24.5696 1.87722 24.4203 1.72789C24.2816 1.56789 24.2123 1.37055 24.2123 1.13589C24.2123 0.901219 24.2816 0.709219 24.4203 0.559886C24.5696 0.399886 24.7883 0.319886 25.0763 0.319886C25.3643 0.319886 25.5776 0.399886 25.7163 0.559886C25.855 0.709219 25.9243 0.901219 25.9243 1.13589C25.9243 1.37055 25.855 1.56789 25.7163 1.72789C25.5776 1.87722 25.3643 1.95189 25.0763 1.95189ZM32.7216 12.2559C32.0069 12.2559 31.3829 12.1332 30.8496 11.8879C30.3269 11.6319 29.8896 11.2906 29.5376 10.8639C29.1856 10.4266 28.9189 9.94655 28.7376 9.42389C28.5669 8.90122 28.4816 8.37322 28.4816 7.83989V7.61589C28.4816 7.07189 28.5669 6.54389 28.7376 6.03189C28.9189 5.50922 29.1856 5.03989 29.5376 4.62389C29.8896 4.19722 30.3269 3.86122 30.8496 3.61589C31.3829 3.35989 31.9962 3.23189 32.6896 3.23189C33.3936 3.23189 34.0176 3.35989 34.5616 3.61589C35.1162 3.87189 35.5642 4.23455 35.9056 4.70389C36.2469 5.17322 36.4496 5.72789 36.5136 6.36789H35.3616C35.2656 5.78122 34.9882 5.29589 34.5296 4.91189C34.0816 4.51722 33.4682 4.31989 32.6896 4.31989C32.0176 4.31989 31.4576 4.47455 31.0096 4.78389C30.5722 5.08255 30.2416 5.49322 30.0176 6.01589C29.7936 6.52789 29.6816 7.09855 29.6816 7.72789C29.6816 8.34655 29.7936 8.92255 30.0176 9.45589C30.2416 9.97855 30.5776 10.3999 31.0256 10.7199C31.4736 11.0292 32.0389 11.1839 32.7216 11.1839C33.2442 11.1839 33.6976 11.0932 34.0816 10.9119C34.4762 10.7199 34.7909 10.4639 35.0256 10.1439C35.2709 9.82389 35.4149 9.47189 35.4576 9.08789H36.6096C36.5669 9.72789 36.3642 10.2879 36.0016 10.7679C35.6496 11.2372 35.1909 11.6052 34.6256 11.8719C34.0602 12.1279 33.4256 12.2559 32.7216 12.2559ZM44.5698 11.9839L41.1618 8.01589H39.7858L43.8018 3.51989H45.0818L41.4818 7.53589L41.5618 6.87989L45.9778 11.9839H44.5698ZM38.8098 11.9839V0.303886H40.0098V11.9839H38.8098ZM51.5974 11.9839V0.303886H53.1814L56.8614 8.38389H57.1494L60.8134 0.303886H62.4294V11.9839H61.2134V1.66389L61.3094 1.67989L57.7574 9.51989H56.1574L52.5894 1.67989L52.7174 1.66389V11.9839H51.5974ZM70.9618 11.9839V9.43989H70.7698V6.43189C70.7698 5.80255 70.6045 5.32255 70.2738 4.99189C69.9431 4.65055 69.4311 4.47989 68.7378 4.47989C68.4178 4.47989 68.0925 4.48522 67.7618 4.49589C67.4418 4.50655 67.1325 4.52255 66.8338 4.54389C66.5458 4.55455 66.2898 4.57055 66.0658 4.59189V3.53589C66.3005 3.51455 66.5405 3.49322 66.7858 3.47189C67.0311 3.45055 67.2818 3.43989 67.5378 3.43989C67.8045 3.42922 68.0605 3.42389 68.3058 3.42389C69.1698 3.42389 69.8631 3.53055 70.3858 3.74389C70.9191 3.95722 71.3085 4.29322 71.5538 4.75189C71.7991 5.19989 71.9218 5.79722 71.9218 6.54389V11.9839H70.9618ZM68.0978 12.2079C67.5005 12.2079 66.9725 12.1012 66.5138 11.8879C66.0551 11.6746 65.6978 11.3652 65.4418 10.9599C65.1965 10.5546 65.0738 10.0639 65.0738 9.48789C65.0738 8.92255 65.2018 8.44255 65.4578 8.04789C65.7245 7.65322 66.1031 7.35455 66.5938 7.15189C67.0951 6.93855 67.6978 6.83189 68.4018 6.83189H70.8818V7.74389H68.3218C67.6498 7.74389 67.1325 7.90922 66.7698 8.23989C66.4178 8.55989 66.2418 8.98122 66.2418 9.50389C66.2418 10.0372 66.4285 10.4639 66.8018 10.7839C67.1751 11.0932 67.6818 11.2479 68.3218 11.2479C68.7165 11.2479 69.0951 11.1786 69.4578 11.0399C69.8205 10.8906 70.1245 10.6452 70.3698 10.3039C70.6151 9.95189 70.7485 9.47189 70.7698 8.86389L71.1218 9.35989C71.0791 9.98922 70.9298 10.5172 70.6738 10.9439C70.4178 11.3599 70.0711 11.6746 69.6338 11.8879C69.1965 12.1012 68.6845 12.2079 68.0978 12.2079ZM75.3672 11.9839V3.51989H76.5512V11.9839H75.3672ZM74.0072 4.47989V3.51989H76.5512V4.47989H74.0072ZM75.6232 1.95189C75.3352 1.95189 75.1165 1.87722 74.9672 1.72789C74.8285 1.56789 74.7592 1.37055 74.7592 1.13589C74.7592 0.901219 74.8285 0.709219 74.9672 0.559886C75.1165 0.399886 75.3352 0.319886 75.6232 0.319886C75.9112 0.319886 76.1245 0.399886 76.2632 0.559886C76.4019 0.709219 76.4712 0.901219 76.4712 1.13589C76.4712 1.37055 76.4019 1.56789 76.2632 1.72789C76.1245 1.87722 75.9112 1.95189 75.6232 1.95189ZM79.7804 11.9839V0.303886H80.9804V11.9839H79.7804ZM78.5484 1.27989V0.303886H80.9804V1.27989H78.5484Z" fill="#404040"/>
</svg>
