<svg width="50" height="16" viewBox="0 0 50 16" fill="none" xmlns="http://www.w3.org/2000/svg">
<path d="M5.65922 15.32C4.43255 15.32 3.39922 15.1266 2.55922 14.74C1.71922 14.34 1.07922 13.7933 0.639219 13.1C0.212552 12.3933 -0.000781149 11.6 -0.000781149 10.72H1.51922C1.51922 11.28 1.65255 11.8066 1.91922 12.3C2.19922 12.78 2.63922 13.1733 3.23922 13.48C3.85255 13.7733 4.65922 13.92 5.65922 13.92C6.57922 13.92 7.33922 13.7866 7.93922 13.52C8.55255 13.2533 9.00589 12.8933 9.29922 12.44C9.60589 11.9866 9.75922 11.48 9.75922 10.92C9.75922 10.2133 9.47922 9.62665 8.91922 9.15998C8.37255 8.67998 7.54589 8.39331 6.43922 8.29998L4.75922 8.13998C3.50589 8.03331 2.50589 7.64665 1.75922 6.97998C1.02589 6.29998 0.659219 5.40665 0.659219 4.29998C0.659219 3.45998 0.859219 2.71998 1.25922 2.07998C1.65922 1.43998 2.22589 0.933313 2.95922 0.55998C3.70589 0.186647 4.59922 -1.97887e-05 5.63922 -1.97887e-05C6.69255 -1.97887e-05 7.59255 0.193313 8.33922 0.57998C9.09922 0.953313 9.67922 1.47331 10.0792 2.13998C10.4792 2.80665 10.6792 3.57998 10.6792 4.45998H9.15922C9.15922 3.92665 9.03922 3.42665 8.79922 2.95998C8.55922 2.49331 8.17922 2.11998 7.65922 1.83998C7.13922 1.54665 6.46589 1.39998 5.63922 1.39998C4.85255 1.39998 4.19922 1.53331 3.67922 1.79998C3.17255 2.06665 2.79255 2.41998 2.53922 2.85998C2.29922 3.29998 2.17922 3.77998 2.17922 4.29998C2.17922 4.95331 2.41255 5.50665 2.87922 5.95998C3.34589 6.41331 4.01922 6.67331 4.89922 6.73998L6.57922 6.89998C7.56589 6.97998 8.40589 7.19998 9.09922 7.55998C9.80589 7.90665 10.3459 8.36665 10.7192 8.93998C11.0926 9.49998 11.2792 10.16 11.2792 10.92C11.2792 11.7733 11.0459 12.5333 10.5792 13.2C10.1259 13.8666 9.47922 14.3866 8.63922 14.76C7.79922 15.1333 6.80589 15.32 5.65922 15.32ZM19.0045 15.32C18.0979 15.32 17.3112 15.1666 16.6445 14.86C15.9779 14.54 15.4312 14.12 15.0045 13.6C14.5779 13.0666 14.2579 12.4733 14.0445 11.82C13.8445 11.1666 13.7445 10.4933 13.7445 9.79998V9.51998C13.7445 8.83998 13.8445 8.17331 14.0445 7.51998C14.2579 6.86665 14.5779 6.27998 15.0045 5.75998C15.4312 5.23998 15.9645 4.82665 16.6045 4.51998C17.2579 4.19998 18.0179 4.03998 18.8845 4.03998C19.9912 4.03998 20.9112 4.28665 21.6445 4.77998C22.3912 5.27331 22.9512 5.90665 23.3245 6.67998C23.6979 7.43998 23.8845 8.25998 23.8845 9.13998V9.91998H14.4245V8.75998H22.8445L22.4645 9.33998C22.4645 8.55331 22.3245 7.86665 22.0445 7.27998C21.7779 6.67998 21.3779 6.21331 20.8445 5.87998C20.3245 5.53331 19.6712 5.35998 18.8845 5.35998C18.0579 5.35998 17.3712 5.55331 16.8245 5.93998C16.2779 6.32665 15.8645 6.83998 15.5845 7.47998C15.3179 8.11998 15.1845 8.84665 15.1845 9.65998C15.1845 10.46 15.3179 11.1933 15.5845 11.86C15.8645 12.5133 16.2845 13.0333 16.8445 13.42C17.4179 13.8066 18.1379 14 19.0045 14C19.9245 14 20.6712 13.7933 21.2445 13.38C21.8179 12.9533 22.1712 12.4533 22.3045 11.88H23.7045C23.5712 12.5866 23.2912 13.2 22.8645 13.72C22.4379 14.2266 21.8979 14.62 21.2445 14.9C20.5912 15.18 19.8445 15.32 19.0045 15.32ZM26.772 14.98V4.39998H27.972V8.83998H27.732C27.732 7.85331 27.8787 7.00665 28.172 6.29998C28.4654 5.59331 28.9054 5.04665 29.492 4.65998C30.0787 4.27331 30.8187 4.07998 31.712 4.07998H31.772C33.1054 4.07998 34.0987 4.49998 34.752 5.33998C35.4054 6.16665 35.732 7.33331 35.732 8.83998V14.98H34.252V8.51998C34.252 7.59998 33.9987 6.85998 33.492 6.29998C32.9854 5.73998 32.2787 5.45998 31.372 5.45998C30.4387 5.45998 29.6854 5.75331 29.112 6.33998C28.552 6.91331 28.272 7.67331 28.272 8.61998V14.98H26.772ZM43.8073 15.32C43.034 15.32 42.3273 15.18 41.6873 14.9C41.0607 14.6066 40.514 14.2066 40.0473 13.7C39.594 13.18 39.2407 12.5933 38.9873 11.94C38.7473 11.2733 38.6273 10.5666 38.6273 9.81998V9.53998C38.6273 8.81998 38.7473 8.13331 38.9873 7.47998C39.2273 6.81331 39.5673 6.22665 40.0073 5.71998C40.4607 5.19998 41.0007 4.79331 41.6273 4.49998C42.2673 4.19331 42.9807 4.03998 43.7673 4.03998C44.6607 4.03998 45.4473 4.23331 46.1273 4.61998C46.8073 5.00665 47.354 5.56665 47.7673 6.29998C48.1807 7.01998 48.4007 7.90665 48.4273 8.95998L47.7673 7.71998V0.37998H49.2673V14.98H48.0673V10.28H48.5473C48.5207 11.3866 48.2873 12.32 47.8473 13.08C47.4207 13.8266 46.854 14.3866 46.1473 14.76C45.454 15.1333 44.674 15.32 43.8073 15.32ZM44.0073 14C44.7273 14 45.374 13.84 45.9473 13.52C46.534 13.2 46.994 12.7466 47.3273 12.16C47.6607 11.56 47.8273 10.8733 47.8273 10.1V9.13998C47.8273 8.39331 47.6607 7.73998 47.3273 7.17998C46.994 6.60665 46.534 6.15998 45.9473 5.83998C45.374 5.51998 44.7207 5.35998 43.9873 5.35998C43.2007 5.35998 42.514 5.55331 41.9273 5.93998C41.354 6.31331 40.9073 6.82665 40.5873 7.47998C40.2807 8.13331 40.1273 8.86665 40.1273 9.67998C40.1273 10.52 40.2873 11.2666 40.6073 11.92C40.9273 12.5733 41.3807 13.0866 41.9673 13.46C42.554 13.82 43.234 14 44.0073 14Z" fill="#404040"/>
</svg>
