<svg width="240" height="124" viewBox="0 0 240 124" fill="none" xmlns="http://www.w3.org/2000/svg">
<path d="M1.76309 26.28V2.86102e-05H5.14709L20.5551 24.516H21.7071L20.9871 25.02V2.86102e-05H22.8951V26.28H19.4751L4.06709 1.76403H2.91509L3.63509 1.26003V26.28H1.76309ZM39.2051 26.892C37.6211 26.892 36.2171 26.604 34.9931 26.028C33.7691 25.452 32.7371 24.696 31.8971 23.76C31.0811 22.824 30.4571 21.78 30.0251 20.628C29.6171 19.452 29.4131 18.252 29.4131 17.028V16.668C29.4131 15.42 29.6291 14.208 30.0611 13.032C30.4931 11.856 31.1291 10.8 31.9691 9.86403C32.8091 8.92803 33.8291 8.18403 35.0291 7.63203C36.2531 7.08003 37.6451 6.80403 39.2051 6.80403C40.7411 6.80403 42.1091 7.08003 43.3091 7.63203C44.5331 8.18403 45.5651 8.92803 46.4051 9.86403C47.2451 10.8 47.8811 11.856 48.3131 13.032C48.7691 14.208 48.9971 15.42 48.9971 16.668V17.028C48.9971 18.252 48.7811 19.452 48.3491 20.628C47.9171 21.78 47.2811 22.824 46.4411 23.76C45.6251 24.696 44.6051 25.452 43.3811 26.028C42.1811 26.604 40.7891 26.892 39.2051 26.892ZM39.2051 25.128C40.8851 25.128 42.3011 24.744 43.4531 23.976C44.6291 23.208 45.5171 22.2 46.1171 20.952C46.7411 19.68 47.0531 18.312 47.0531 16.848C47.0531 15.336 46.7411 13.956 46.1171 12.708C45.4931 11.436 44.5931 10.428 43.4171 9.68403C42.2651 8.91603 40.8611 8.53203 39.2051 8.53203C37.5731 8.53203 36.1571 8.91603 34.9571 9.68403C33.7811 10.428 32.8811 11.436 32.2571 12.708C31.6331 13.956 31.3211 15.336 31.3211 16.848C31.3211 18.312 31.6211 19.68 32.2211 20.952C32.8451 22.2 33.7451 23.208 34.9211 23.976C36.0971 24.744 37.5251 25.128 39.2051 25.128ZM61.0978 26.46C59.9218 26.46 58.8898 26.292 58.0018 25.956C57.1138 25.596 56.4298 24.996 55.9498 24.156C55.4698 23.316 55.2298 22.188 55.2298 20.772V1.22403H57.1018V21.096C57.1018 22.248 57.4138 23.148 58.0378 23.796C58.6858 24.42 59.5738 24.732 60.7018 24.732H64.2298V26.46H61.0978ZM51.6298 8.92803V7.38003H64.2298V8.92803H51.6298ZM89.9788 26.28V20.628H89.6188V13.68C89.6188 12.168 89.2228 11.004 88.4308 10.188C87.6388 9.34803 86.3308 8.92803 84.5068 8.92803C83.8588 8.92803 83.1988 8.95203 82.5268 9.00003C81.8548 9.02403 81.2188 9.06003 80.6188 9.10803C80.0188 9.13203 79.4788 9.18003 78.9988 9.25203V7.52403C79.4788 7.45203 79.9828 7.39203 80.5108 7.34403C81.0628 7.29603 81.6148 7.26003 82.1668 7.23603C82.7188 7.21203 83.2468 7.20003 83.7508 7.20003C85.6468 7.20003 87.1588 7.45203 88.2868 7.95603C89.4148 8.43603 90.2308 9.18003 90.7348 10.188C91.2388 11.172 91.4908 12.432 91.4908 13.968V26.28H89.9788ZM83.3908 26.784C82.1188 26.784 80.9788 26.556 79.9708 26.1C78.9628 25.644 78.1588 24.972 77.5588 24.084C76.9828 23.196 76.6948 22.116 76.6948 20.844C76.6948 19.62 76.9708 18.576 77.5228 17.712C78.0988 16.848 78.9148 16.188 79.9708 15.732C81.0508 15.276 82.3468 15.048 83.8588 15.048H89.7988V16.596H83.6788C82.0468 16.596 80.7868 16.992 79.8988 17.784C79.0348 18.552 78.6028 19.572 78.6028 20.844C78.6028 22.188 79.0708 23.256 80.0068 24.048C80.9428 24.816 82.1668 25.2 83.6788 25.2C84.6148 25.2 85.5268 25.02 86.4148 24.66C87.3028 24.3 88.0468 23.7 88.6468 22.86C89.2468 21.996 89.5708 20.844 89.6188 19.404L90.3388 20.232C90.2668 21.696 89.9068 22.92 89.2588 23.904C88.6348 24.864 87.8188 25.584 86.8108 26.064C85.8028 26.544 84.6628 26.784 83.3908 26.784ZM98.6377 33.48V7.38003H100.15V15.444L99.5737 15.696C99.5977 13.92 99.9697 12.372 100.69 11.052C101.434 9.70803 102.442 8.66403 103.714 7.92003C104.986 7.17603 106.462 6.80403 108.142 6.80403C109.582 6.80403 110.866 7.08003 111.994 7.63203C113.122 8.16003 114.07 8.89203 114.838 9.82803C115.63 10.74 116.23 11.784 116.638 12.96C117.046 14.136 117.25 15.372 117.25 16.668V17.028C117.25 18.252 117.046 19.452 116.638 20.628C116.23 21.78 115.63 22.836 114.838 23.796C114.07 24.732 113.122 25.488 111.994 26.064C110.866 26.616 109.582 26.892 108.142 26.892C106.462 26.892 104.974 26.508 103.678 25.74C102.406 24.972 101.41 23.916 100.69 22.572C99.9697 21.204 99.5857 19.656 99.5377 17.928L100.546 20.448V33.48H98.6377ZM107.89 25.164C109.474 25.164 110.818 24.78 111.922 24.012C113.05 23.22 113.902 22.2 114.478 20.952C115.054 19.68 115.342 18.312 115.342 16.848C115.342 15.312 115.042 13.92 114.442 12.672C113.866 11.4 113.014 10.392 111.886 9.64803C110.782 8.90403 109.45 8.53203 107.89 8.53203C106.45 8.53203 105.166 8.85603 104.038 9.50403C102.934 10.128 102.058 11.004 101.41 12.132C100.762 13.236 100.438 14.508 100.438 15.948V17.784C100.438 19.152 100.75 20.4 101.374 21.528C102.022 22.632 102.898 23.52 104.002 24.192C105.13 24.84 106.426 25.164 107.89 25.164ZM123.071 33.48V7.38003H124.583V15.444L124.007 15.696C124.031 13.92 124.403 12.372 125.123 11.052C125.867 9.70803 126.875 8.66403 128.147 7.92003C129.419 7.17603 130.895 6.80403 132.575 6.80403C134.015 6.80403 135.299 7.08003 136.427 7.63203C137.555 8.16003 138.503 8.89203 139.271 9.82803C140.063 10.74 140.663 11.784 141.071 12.96C141.479 14.136 141.683 15.372 141.683 16.668V17.028C141.683 18.252 141.479 19.452 141.071 20.628C140.663 21.78 140.063 22.836 139.271 23.796C138.503 24.732 137.555 25.488 136.427 26.064C135.299 26.616 134.015 26.892 132.575 26.892C130.895 26.892 129.407 26.508 128.111 25.74C126.839 24.972 125.843 23.916 125.123 22.572C124.403 21.204 124.019 19.656 123.971 17.928L124.979 20.448V33.48H123.071ZM132.323 25.164C133.907 25.164 135.251 24.78 136.355 24.012C137.483 23.22 138.335 22.2 138.911 20.952C139.487 19.68 139.775 18.312 139.775 16.848C139.775 15.312 139.475 13.92 138.875 12.672C138.299 11.4 137.447 10.392 136.319 9.64803C135.215 8.90403 133.883 8.53203 132.323 8.53203C130.883 8.53203 129.599 8.85603 128.471 9.50403C127.367 10.128 126.491 11.004 125.843 12.132C125.195 13.236 124.871 14.508 124.871 15.948V17.784C124.871 19.152 125.183 20.4 125.807 21.528C126.455 22.632 127.331 23.52 128.435 24.192C129.563 24.84 130.859 25.164 132.323 25.164ZM153.157 26.82C150.805 26.82 148.993 26.28 147.721 25.2C146.473 24.12 145.837 22.74 145.813 21.06H147.685C147.685 22.14 148.105 23.088 148.945 23.904C149.809 24.696 151.213 25.092 153.157 25.092C155.053 25.092 156.445 24.696 157.333 23.904C158.221 23.088 158.665 22.128 158.665 21.024C158.665 19.944 158.257 19.116 157.441 18.54C156.649 17.964 155.569 17.604 154.201 17.46L151.969 17.208C150.313 17.016 148.993 16.5 148.009 15.66C147.049 14.82 146.569 13.68 146.569 12.24C146.569 11.208 146.833 10.284 147.361 9.46803C147.889 8.65203 148.645 8.00403 149.629 7.52403C150.637 7.04403 151.813 6.80403 153.157 6.80403C155.125 6.80403 156.709 7.28403 157.909 8.24403C159.133 9.20403 159.757 10.512 159.781 12.168H157.909C157.933 11.136 157.525 10.272 156.685 9.57603C155.869 8.88003 154.693 8.53203 153.157 8.53203C151.549 8.53203 150.349 8.90403 149.557 9.64803C148.789 10.392 148.405 11.268 148.405 12.276C148.405 13.116 148.705 13.836 149.305 14.436C149.929 15.036 150.865 15.408 152.113 15.552L154.345 15.804C156.121 15.972 157.585 16.488 158.737 17.352C159.913 18.216 160.501 19.452 160.501 21.06C160.501 22.14 160.201 23.112 159.601 23.976C159.025 24.84 158.197 25.536 157.117 26.064C156.037 26.568 154.717 26.82 153.157 26.82ZM165.601 26.28V23.508H168.121V26.28H165.601ZM1.76309 71.28V45H5.14709L20.5551 69.516H21.7071L20.9871 70.02V45H22.8951V71.28H19.4751L4.06709 46.764H2.91509L3.63509 46.26V71.28H1.76309ZM39.2051 71.892C37.6211 71.892 36.2171 71.604 34.9931 71.028C33.7691 70.452 32.7371 69.696 31.8971 68.76C31.0811 67.824 30.4571 66.78 30.0251 65.628C29.6171 64.452 29.4131 63.252 29.4131 62.028V61.668C29.4131 60.42 29.6291 59.208 30.0611 58.032C30.4931 56.856 31.1291 55.8 31.9691 54.864C32.8091 53.928 33.8291 53.184 35.0291 52.632C36.2531 52.08 37.6451 51.804 39.2051 51.804C40.7411 51.804 42.1091 52.08 43.3091 52.632C44.5331 53.184 45.5651 53.928 46.4051 54.864C47.2451 55.8 47.8811 56.856 48.3131 58.032C48.7691 59.208 48.9971 60.42 48.9971 61.668V62.028C48.9971 63.252 48.7811 64.452 48.3491 65.628C47.9171 66.78 47.2811 67.824 46.4411 68.76C45.6251 69.696 44.6051 70.452 43.3811 71.028C42.1811 71.604 40.7891 71.892 39.2051 71.892ZM39.2051 70.128C40.8851 70.128 42.3011 69.744 43.4531 68.976C44.6291 68.208 45.5171 67.2 46.1171 65.952C46.7411 64.68 47.0531 63.312 47.0531 61.848C47.0531 60.336 46.7411 58.956 46.1171 57.708C45.4931 56.436 44.5931 55.428 43.4171 54.684C42.2651 53.916 40.8611 53.532 39.2051 53.532C37.5731 53.532 36.1571 53.916 34.9571 54.684C33.7811 55.428 32.8811 56.436 32.2571 57.708C31.6331 58.956 31.3211 60.336 31.3211 61.848C31.3211 63.312 31.6211 64.68 32.2211 65.952C32.8451 67.2 33.7451 68.208 34.9211 68.976C36.0971 69.744 37.5251 70.128 39.2051 70.128ZM61.0978 71.46C59.9218 71.46 58.8898 71.292 58.0018 70.956C57.1138 70.596 56.4298 69.996 55.9498 69.156C55.4698 68.316 55.2298 67.188 55.2298 65.772V46.224H57.1018V66.096C57.1018 67.248 57.4138 68.148 58.0378 68.796C58.6858 69.42 59.5738 69.732 60.7018 69.732H64.2298V71.46H61.0978ZM51.6298 53.928V52.38H64.2298V53.928H51.6298ZM83.3908 71.28L87.7108 53.028H90.5908L95.4508 71.28H93.6868L88.8268 53.136H89.4028L85.0828 71.28H83.3908ZM82.0948 71.28V69.66H84.6868V71.28H82.0948ZM81.6268 71.28L75.9748 52.38H77.8828L83.4268 71.28H81.6268ZM94.2268 71.28V69.66H96.6388V71.28H94.2268ZM95.4148 71.28L100.347 52.38H102.147L97.1788 71.28H95.4148ZM114.779 71.892C113.171 71.892 111.779 71.616 110.603 71.064C109.427 70.488 108.467 69.732 107.723 68.796C106.979 67.836 106.415 66.768 106.031 65.592C105.671 64.392 105.491 63.18 105.491 61.956V61.596C105.491 60.348 105.671 59.148 106.031 57.996C106.415 56.844 106.979 55.8 107.723 54.864C108.491 53.904 109.439 53.16 110.567 52.632C111.719 52.08 113.051 51.804 114.563 51.804C116.483 51.804 118.091 52.236 119.387 53.1C120.707 53.94 121.703 55.044 122.375 56.412C123.047 57.78 123.383 59.22 123.383 60.732V62.028H106.391V60.444H122.123L121.547 61.164C121.547 59.7 121.271 58.392 120.719 57.24C120.191 56.088 119.399 55.188 118.343 54.54C117.311 53.868 116.051 53.532 114.563 53.532C112.955 53.532 111.611 53.904 110.531 54.648C109.451 55.392 108.635 56.388 108.083 57.636C107.555 58.884 107.291 60.264 107.291 61.776C107.291 63.288 107.555 64.68 108.083 65.952C108.635 67.2 109.463 68.22 110.567 69.012C111.671 69.78 113.075 70.164 114.779 70.164C116.603 70.164 118.067 69.744 119.171 68.904C120.299 68.064 120.983 67.056 121.223 65.88H123.095C122.831 67.056 122.327 68.1 121.583 69.012C120.839 69.924 119.891 70.632 118.739 71.136C117.611 71.64 116.291 71.892 114.779 71.892ZM138.304 71.892C136.576 71.892 135.064 71.496 133.768 70.704C132.496 69.888 131.5 68.808 130.78 67.464C130.084 66.12 129.724 64.632 129.7 63H130.384V71.28H128.872V45H130.78V58.464L129.88 60.732C129.928 58.932 130.3 57.372 130.996 56.052C131.716 54.708 132.712 53.664 133.984 52.92C135.256 52.176 136.732 51.804 138.412 51.804C139.828 51.804 141.1 52.08 142.228 52.632C143.356 53.16 144.304 53.892 145.072 54.828C145.864 55.74 146.464 56.784 146.872 57.96C147.28 59.112 147.484 60.336 147.484 61.632V61.992C147.484 63.24 147.28 64.452 146.872 65.628C146.488 66.78 145.9 67.836 145.108 68.796C144.316 69.732 143.344 70.488 142.192 71.064C141.064 71.616 139.768 71.892 138.304 71.892ZM138.124 70.164C139.708 70.164 141.052 69.78 142.156 69.012C143.284 68.22 144.136 67.188 144.712 65.916C145.288 64.644 145.576 63.276 145.576 61.812C145.576 60.276 145.276 58.884 144.676 57.636C144.076 56.364 143.224 55.368 142.12 54.648C141.016 53.904 139.684 53.532 138.124 53.532C136.684 53.532 135.4 53.856 134.272 54.504C133.168 55.128 132.292 56.004 131.644 57.132C130.996 58.236 130.672 59.508 130.672 60.948V62.784C130.672 64.152 130.984 65.4 131.608 66.528C132.256 67.632 133.132 68.52 134.236 69.192C135.364 69.84 136.66 70.164 138.124 70.164ZM158.958 71.82C156.606 71.82 154.794 71.28 153.522 70.2C152.274 69.12 151.638 67.74 151.614 66.06H153.486C153.486 67.14 153.906 68.088 154.746 68.904C155.61 69.696 157.014 70.092 158.958 70.092C160.854 70.092 162.246 69.696 163.134 68.904C164.022 68.088 164.466 67.128 164.466 66.024C164.466 64.944 164.058 64.116 163.242 63.54C162.45 62.964 161.37 62.604 160.002 62.46L157.77 62.208C156.114 62.016 154.794 61.5 153.81 60.66C152.85 59.82 152.37 58.68 152.37 57.24C152.37 56.208 152.634 55.284 153.162 54.468C153.69 53.652 154.446 53.004 155.43 52.524C156.438 52.044 157.614 51.804 158.958 51.804C160.926 51.804 162.51 52.284 163.71 53.244C164.934 54.204 165.558 55.512 165.582 57.168H163.71C163.734 56.136 163.326 55.272 162.486 54.576C161.67 53.88 160.494 53.532 158.958 53.532C157.35 53.532 156.15 53.904 155.358 54.648C154.59 55.392 154.206 56.268 154.206 57.276C154.206 58.116 154.506 58.836 155.106 59.436C155.73 60.036 156.666 60.408 157.914 60.552L160.146 60.804C161.922 60.972 163.386 61.488 164.538 62.352C165.714 63.216 166.302 64.452 166.302 66.06C166.302 67.14 166.002 68.112 165.402 68.976C164.826 69.84 163.998 70.536 162.918 71.064C161.838 71.568 160.518 71.82 158.958 71.82ZM173.157 71.28V52.38H175.101V71.28H173.157ZM170.025 54.036V52.38H175.101V54.036H170.025ZM173.337 48.42C172.833 48.42 172.449 48.288 172.185 48.024C171.921 47.736 171.789 47.376 171.789 46.944C171.789 46.488 171.921 46.116 172.185 45.828C172.449 45.54 172.845 45.396 173.373 45.396C173.877 45.396 174.261 45.54 174.525 45.828C174.789 46.116 174.921 46.488 174.921 46.944C174.921 47.376 174.789 47.736 174.525 48.024C174.285 48.288 173.889 48.42 173.337 48.42ZM188.856 71.46C187.68 71.46 186.648 71.292 185.76 70.956C184.872 70.596 184.188 69.996 183.708 69.156C183.228 68.316 182.988 67.188 182.988 65.772V46.224H184.86V66.096C184.86 67.248 185.172 68.148 185.796 68.796C186.444 69.42 187.332 69.732 188.46 69.732H191.988V71.46H188.856ZM179.388 53.928V52.38H191.988V53.928H179.388ZM205.096 71.892C203.488 71.892 202.096 71.616 200.92 71.064C199.744 70.488 198.784 69.732 198.04 68.796C197.296 67.836 196.732 66.768 196.348 65.592C195.988 64.392 195.808 63.18 195.808 61.956V61.596C195.808 60.348 195.988 59.148 196.348 57.996C196.732 56.844 197.296 55.8 198.04 54.864C198.808 53.904 199.756 53.16 200.884 52.632C202.036 52.08 203.368 51.804 204.88 51.804C206.8 51.804 208.408 52.236 209.704 53.1C211.024 53.94 212.02 55.044 212.692 56.412C213.364 57.78 213.7 59.22 213.7 60.732V62.028H196.708V60.444H212.44L211.864 61.164C211.864 59.7 211.588 58.392 211.036 57.24C210.508 56.088 209.716 55.188 208.66 54.54C207.628 53.868 206.368 53.532 204.88 53.532C203.272 53.532 201.928 53.904 200.848 54.648C199.768 55.392 198.952 56.388 198.4 57.636C197.872 58.884 197.608 60.264 197.608 61.776C197.608 63.288 197.872 64.68 198.4 65.952C198.952 67.2 199.78 68.22 200.884 69.012C201.988 69.78 203.392 70.164 205.096 70.164C206.92 70.164 208.384 69.744 209.488 68.904C210.616 68.064 211.3 67.056 211.54 65.88H213.412C213.148 67.056 212.644 68.1 211.9 69.012C211.156 69.924 210.208 70.632 209.056 71.136C207.928 71.64 206.608 71.892 205.096 71.892ZM224.84 71.82C222.488 71.82 220.676 71.28 219.404 70.2C218.156 69.12 217.52 67.74 217.496 66.06H219.368C219.368 67.14 219.788 68.088 220.628 68.904C221.492 69.696 222.896 70.092 224.84 70.092C226.736 70.092 228.128 69.696 229.016 68.904C229.904 68.088 230.348 67.128 230.348 66.024C230.348 64.944 229.94 64.116 229.124 63.54C228.332 62.964 227.252 62.604 225.884 62.46L223.652 62.208C221.996 62.016 220.676 61.5 219.692 60.66C218.732 59.82 218.252 58.68 218.252 57.24C218.252 56.208 218.516 55.284 219.044 54.468C219.572 53.652 220.328 53.004 221.312 52.524C222.32 52.044 223.496 51.804 224.84 51.804C226.808 51.804 228.392 52.284 229.592 53.244C230.816 54.204 231.44 55.512 231.464 57.168H229.592C229.616 56.136 229.208 55.272 228.368 54.576C227.552 53.88 226.376 53.532 224.84 53.532C223.232 53.532 222.032 53.904 221.24 54.648C220.472 55.392 220.088 56.268 220.088 57.276C220.088 58.116 220.388 58.836 220.988 59.436C221.612 60.036 222.548 60.408 223.796 60.552L226.028 60.804C227.804 60.972 229.268 61.488 230.42 62.352C231.596 63.216 232.184 64.452 232.184 66.06C232.184 67.14 231.884 68.112 231.284 68.976C230.708 69.84 229.88 70.536 228.8 71.064C227.72 71.568 226.4 71.82 224.84 71.82ZM237.285 71.28V68.508H239.805V71.28H237.285Z" fill="#404040"/>
<path d="M10.0431 116.892C7.81109 116.892 5.95109 116.544 4.46309 115.848C2.97509 115.128 1.85909 114.156 1.11509 112.932C0.371094 111.684 -0.00090602 110.28 -0.00090602 108.72H1.94309C1.94309 109.92 2.21909 111 2.77109 111.96C3.34709 112.92 4.23509 113.688 5.43509 114.264C6.63509 114.816 8.17109 115.092 10.0431 115.092C11.7951 115.092 13.2591 114.84 14.4351 114.336C15.6111 113.832 16.4871 113.148 17.0631 112.284C17.6631 111.396 17.9631 110.376 17.9631 109.224C17.9631 107.808 17.4351 106.608 16.3791 105.624C15.3231 104.616 13.7151 104.004 11.5551 103.788L8.42309 103.536C6.23909 103.344 4.51109 102.648 3.23909 101.448C1.96709 100.248 1.33109 98.676 1.33109 96.732C1.33109 95.34 1.65509 94.092 2.30309 92.988C2.95109 91.86 3.92309 90.972 5.21909 90.324C6.51509 89.652 8.11109 89.316 10.0071 89.316C11.9271 89.316 13.5471 89.676 14.8671 90.396C16.1871 91.092 17.1831 92.04 17.8551 93.24C18.5511 94.416 18.8991 95.748 18.8991 97.236H16.9551C16.9551 96.156 16.7151 95.16 16.2351 94.248C15.7551 93.312 14.9991 92.556 13.9671 91.98C12.9591 91.404 11.6391 91.116 10.0071 91.116C8.42309 91.116 7.13909 91.38 6.15509 91.908C5.17109 92.412 4.43909 93.096 3.95909 93.96C3.50309 94.8 3.27509 95.724 3.27509 96.732C3.27509 98.172 3.73109 99.324 4.64309 100.188C5.57909 101.052 6.91109 101.568 8.63909 101.736L11.7711 101.988C13.5231 102.132 14.9991 102.54 16.1991 103.212C17.4231 103.86 18.3471 104.7 18.9711 105.732C19.5951 106.764 19.9071 107.928 19.9071 109.224C19.9071 110.688 19.5231 112.008 18.7551 113.184C17.9871 114.336 16.8711 115.248 15.4071 115.92C13.9431 116.568 12.1551 116.892 10.0431 116.892ZM24.3028 123.624V121.86H26.4628C27.3028 121.86 28.0348 121.752 28.6588 121.536C29.2828 121.344 29.8228 120.984 30.2788 120.456C30.7588 119.928 31.1548 119.172 31.4668 118.188L38.1988 97.38H40.1068L33.0868 118.8C32.7028 119.976 32.1868 120.912 31.5388 121.608C30.9148 122.328 30.1588 122.844 29.2708 123.156C28.4068 123.468 27.4228 123.624 26.3188 123.624H24.3028ZM30.8548 115.812V114.12H33.5188V115.812H30.8548ZM30.4948 115.812L23.6188 97.38H25.5628L32.3668 115.812H30.4948ZM50.7467 116.82C48.3947 116.82 46.5827 116.28 45.3107 115.2C44.0627 114.12 43.4267 112.74 43.4027 111.06H45.2747C45.2747 112.14 45.6947 113.088 46.5347 113.904C47.3987 114.696 48.8027 115.092 50.7467 115.092C52.6427 115.092 54.0347 114.696 54.9227 113.904C55.8107 113.088 56.2547 112.128 56.2547 111.024C56.2547 109.944 55.8467 109.116 55.0307 108.54C54.2387 107.964 53.1587 107.604 51.7907 107.46L49.5587 107.208C47.9027 107.016 46.5827 106.5 45.5987 105.66C44.6387 104.82 44.1587 103.68 44.1587 102.24C44.1587 101.208 44.4227 100.284 44.9507 99.468C45.4787 98.652 46.2347 98.004 47.2187 97.524C48.2267 97.044 49.4027 96.804 50.7467 96.804C52.7147 96.804 54.2987 97.284 55.4987 98.244C56.7227 99.204 57.3467 100.512 57.3707 102.168H55.4987C55.5227 101.136 55.1147 100.272 54.2747 99.576C53.4587 98.88 52.2827 98.532 50.7467 98.532C49.1387 98.532 47.9387 98.904 47.1467 99.648C46.3787 100.392 45.9947 101.268 45.9947 102.276C45.9947 103.116 46.2947 103.836 46.8947 104.436C47.5187 105.036 48.4547 105.408 49.7027 105.552L51.9347 105.804C53.7107 105.972 55.1747 106.488 56.3267 107.352C57.5027 108.216 58.0907 109.452 58.0907 111.06C58.0907 112.14 57.7907 113.112 57.1907 113.976C56.6147 114.84 55.7867 115.536 54.7067 116.064C53.6267 116.568 52.3067 116.82 50.7467 116.82ZM70.2385 116.46C69.0625 116.46 68.0305 116.292 67.1425 115.956C66.2545 115.596 65.5705 114.996 65.0905 114.156C64.6105 113.316 64.3705 112.188 64.3705 110.772V91.224H66.2425V111.096C66.2425 112.248 66.5545 113.148 67.1785 113.796C67.8265 114.42 68.7145 114.732 69.8425 114.732H73.3705V116.46H70.2385ZM60.7705 98.928V97.38H73.3705V98.928H60.7705ZM86.4784 116.892C84.8704 116.892 83.4784 116.616 82.3024 116.064C81.1264 115.488 80.1664 114.732 79.4224 113.796C78.6784 112.836 78.1144 111.768 77.7304 110.592C77.3704 109.392 77.1904 108.18 77.1904 106.956V106.596C77.1904 105.348 77.3704 104.148 77.7304 102.996C78.1144 101.844 78.6784 100.8 79.4224 99.864C80.1904 98.904 81.1384 98.16 82.2664 97.632C83.4184 97.08 84.7504 96.804 86.2624 96.804C88.1824 96.804 89.7904 97.236 91.0864 98.1C92.4064 98.94 93.4024 100.044 94.0744 101.412C94.7464 102.78 95.0824 104.22 95.0824 105.732V107.028H78.0904V105.444H93.8224L93.2464 106.164C93.2464 104.7 92.9704 103.392 92.4184 102.24C91.8904 101.088 91.0984 100.188 90.0424 99.54C89.0104 98.868 87.7504 98.532 86.2624 98.532C84.6544 98.532 83.3104 98.904 82.2304 99.648C81.1504 100.392 80.3344 101.388 79.7824 102.636C79.2544 103.884 78.9904 105.264 78.9904 106.776C78.9904 108.288 79.2544 109.68 79.7824 110.952C80.3344 112.2 81.1624 113.22 82.2664 114.012C83.3704 114.78 84.7744 115.164 86.4784 115.164C88.3024 115.164 89.7664 114.744 90.8704 113.904C91.9984 113.064 92.6824 112.056 92.9224 110.88H94.7944C94.5304 112.056 94.0264 113.1 93.2824 114.012C92.5384 114.924 91.5904 115.632 90.4384 116.136C89.3104 116.64 87.9904 116.892 86.4784 116.892ZM100.571 116.28V97.38H102.083V105.12H101.651C101.651 103.488 101.891 102.06 102.371 100.836C102.875 99.588 103.619 98.616 104.603 97.92C105.587 97.224 106.835 96.876 108.347 96.876H108.455C109.943 96.876 111.179 97.224 112.163 97.92C113.147 98.592 113.867 99.552 114.323 100.8C114.803 102.024 115.043 103.464 115.043 105.12H114.323C114.323 103.488 114.563 102.06 115.043 100.836C115.547 99.588 116.291 98.616 117.275 97.92C118.283 97.224 119.543 96.876 121.055 96.876H121.163C122.651 96.876 123.887 97.224 124.871 97.92C125.879 98.592 126.623 99.552 127.103 100.8C127.583 102.024 127.823 103.464 127.823 105.12V116.28H125.915V104.688C125.915 102.888 125.471 101.436 124.583 100.332C123.719 99.204 122.435 98.64 120.731 98.64C119.003 98.64 117.635 99.216 116.627 100.368C115.643 101.52 115.151 103.02 115.151 104.868V116.28H113.243V104.688C113.243 102.888 112.799 101.436 111.911 100.332C111.047 99.204 109.763 98.64 108.059 98.64C106.331 98.64 104.963 99.216 103.955 100.368C102.971 101.52 102.479 103.02 102.479 104.868V116.28H100.571ZM140.641 116.82C138.289 116.82 136.477 116.28 135.205 115.2C133.957 114.12 133.321 112.74 133.297 111.06H135.169C135.169 112.14 135.589 113.088 136.429 113.904C137.293 114.696 138.697 115.092 140.641 115.092C142.537 115.092 143.929 114.696 144.817 113.904C145.705 113.088 146.149 112.128 146.149 111.024C146.149 109.944 145.741 109.116 144.925 108.54C144.133 107.964 143.053 107.604 141.685 107.46L139.453 107.208C137.797 107.016 136.477 106.5 135.493 105.66C134.533 104.82 134.053 103.68 134.053 102.24C134.053 101.208 134.317 100.284 134.845 99.468C135.373 98.652 136.129 98.004 137.113 97.524C138.121 97.044 139.297 96.804 140.641 96.804C142.609 96.804 144.193 97.284 145.393 98.244C146.617 99.204 147.241 100.512 147.265 102.168H145.393C145.417 101.136 145.009 100.272 144.169 99.576C143.353 98.88 142.177 98.532 140.641 98.532C139.033 98.532 137.833 98.904 137.041 99.648C136.273 100.392 135.889 101.268 135.889 102.276C135.889 103.116 136.189 103.836 136.789 104.436C137.413 105.036 138.349 105.408 139.597 105.552L141.829 105.804C143.605 105.972 145.069 106.488 146.221 107.352C147.397 108.216 147.985 109.452 147.985 111.06C147.985 112.14 147.685 113.112 147.085 113.976C146.509 114.84 145.681 115.536 144.601 116.064C143.521 116.568 142.201 116.82 140.641 116.82ZM153.085 116.28V113.508H155.605V116.28H153.085Z" fill="url(#paint0_radial_920_426)"/>
<defs>
<radialGradient id="paint0_radial_920_426" cx="0" cy="0" r="1" gradientUnits="userSpaceOnUse" gradientTransform="translate(175.371 58.78) rotate(90) scale(67.5 178)">
<stop stop-color="#5A69EA"/>
<stop offset="1" stop-color="#BF8BCA"/>
</radialGradient>
</defs>
</svg>
