<svg width="173" height="46" viewBox="0 0 173 46" fill="none" xmlns="http://www.w3.org/2000/svg">
<path d="M13.5849 36.768C10.6409 36.768 8.16086 36.304 6.14486 35.376C4.12886 34.416 2.59286 33.104 1.53686 31.44C0.51286 29.744 0.000859618 27.84 0.000859618 25.728H3.64886C3.64886 27.072 3.96886 28.336 4.60886 29.52C5.28086 30.672 6.33686 31.616 7.77686 32.352C9.24886 33.056 11.1849 33.408 13.5849 33.408C15.7929 33.408 17.6169 33.088 19.0569 32.448C20.5289 31.808 21.6169 30.944 22.3209 29.856C23.0569 28.768 23.4249 27.552 23.4249 26.208C23.4249 24.512 22.7529 23.104 21.4089 21.984C20.0969 20.832 18.1129 20.144 15.4569 19.92L11.4249 19.536C8.41686 19.28 6.01686 18.352 4.22486 16.752C2.46486 15.12 1.58486 12.976 1.58486 10.32C1.58486 8.30403 2.06486 6.52803 3.02486 4.99202C3.98486 3.45603 5.34486 2.24003 7.10486 1.34403C8.89686 0.448026 11.0409 2.57492e-05 13.5369 2.57492e-05C16.0649 2.57492e-05 18.2249 0.464025 20.0169 1.39202C21.8409 2.28802 23.2329 3.53603 24.1929 5.13603C25.1529 6.73603 25.6329 8.59203 25.6329 10.704H21.9849C21.9849 9.42402 21.6969 8.22402 21.1209 7.10403C20.5449 5.98403 19.6329 5.08803 18.3849 4.41603C17.1369 3.71203 15.5209 3.36003 13.5369 3.36003C11.6489 3.36003 10.0809 3.68003 8.83286 4.32002C7.61686 4.96002 6.70486 5.80802 6.09686 6.86403C5.52086 7.92003 5.23286 9.07203 5.23286 10.32C5.23286 11.888 5.79286 13.216 6.91286 14.304C8.03286 15.392 9.64886 16.016 11.7609 16.176L15.7929 16.56C18.1609 16.752 20.1769 17.28 21.8409 18.144C23.5369 18.976 24.8329 20.08 25.7289 21.456C26.6249 22.8 27.0729 24.384 27.0729 26.208C27.0729 28.256 26.5129 30.08 25.3929 31.68C24.3049 33.28 22.7529 34.528 20.7369 35.424C18.7209 36.32 16.3369 36.768 13.5849 36.768ZM32.7496 45.84V42.624H36.0136C37.1336 42.624 38.0936 42.48 38.8936 42.192C39.6936 41.936 40.3656 41.472 40.9096 40.8C41.4536 40.128 41.9176 39.2 42.3016 38.016L50.8456 10.56H54.3496L45.4216 39.024C44.9096 40.656 44.2056 41.968 43.3096 42.96C42.4136 43.984 41.3416 44.72 40.0936 45.168C38.8456 45.616 37.4216 45.84 35.8216 45.84H32.7496ZM41.0056 35.328V32.304H45.5656V35.328H41.0056ZM40.5736 35.328L31.3576 10.56H35.0536L43.9336 35.328H40.5736ZM68.5216 36.672C65.2576 36.672 62.7456 35.968 60.9856 34.56C59.2256 33.12 58.3296 31.2 58.2976 28.8H61.6576C61.7216 30.016 62.2656 31.12 63.2896 32.112C64.3456 33.104 66.0896 33.6 68.5216 33.6C70.7936 33.6 72.4896 33.136 73.6096 32.208C74.7616 31.248 75.3376 30.096 75.3376 28.752C75.3376 27.504 74.8576 26.544 73.8976 25.872C72.9696 25.168 71.6096 24.72 69.8176 24.528L66.9376 24.24C64.6336 23.984 62.7616 23.28 61.3216 22.128C59.9136 20.944 59.2096 19.328 59.2096 17.28C59.2096 15.776 59.5936 14.464 60.3616 13.344C61.1296 12.224 62.2016 11.36 63.5776 10.752C64.9856 10.112 66.6336 9.79203 68.5216 9.79203C71.2416 9.79203 73.4496 10.432 75.1456 11.712C76.8736 12.992 77.7536 14.816 77.7856 17.184H74.4256C74.3936 15.968 73.8816 14.944 72.8896 14.112C71.8976 13.28 70.4416 12.864 68.5216 12.864C66.5376 12.864 65.0496 13.296 64.0576 14.16C63.0976 15.024 62.6176 16.08 62.6176 17.328C62.6176 18.384 62.9856 19.264 63.7216 19.968C64.4576 20.64 65.6096 21.056 67.1776 21.216L70.0576 21.504C72.6176 21.792 74.6976 22.528 76.2976 23.712C77.9296 24.896 78.7456 26.592 78.7456 28.8C78.7456 30.304 78.3136 31.664 77.4496 32.88C76.6176 34.064 75.4336 34.992 73.8976 35.664C72.3616 36.336 70.5696 36.672 68.5216 36.672ZM95.1279 36.24C93.3679 36.24 91.8479 35.984 90.5679 35.472C89.2879 34.96 88.2959 34.096 87.5919 32.88C86.8879 31.632 86.5359 29.968 86.5359 27.888V2.54402H89.9919V28.416C89.9919 29.888 90.3919 31.024 91.1919 31.824C91.9919 32.592 93.1279 32.976 94.5999 32.976H99.1599V36.24H95.1279ZM81.9759 13.296V10.56H99.1599V13.296H81.9759ZM116.489 36.768C114.313 36.768 112.425 36.4 110.825 35.664C109.225 34.896 107.913 33.888 106.889 32.64C105.865 31.36 105.097 29.936 104.585 28.368C104.105 26.8 103.865 25.184 103.865 23.52V22.848C103.865 21.216 104.105 19.616 104.585 18.048C105.097 16.48 105.865 15.072 106.889 13.824C107.913 12.576 109.193 11.584 110.729 10.848C112.297 10.08 114.121 9.69602 116.201 9.69602C118.857 9.69602 121.065 10.288 122.825 11.472C124.617 12.656 125.961 14.176 126.857 16.032C127.753 17.856 128.201 19.824 128.201 21.936V23.808H105.497V21.024H125.705L124.793 22.416C124.793 20.528 124.457 18.88 123.785 17.472C123.145 16.032 122.185 14.912 120.905 14.112C119.657 13.28 118.089 12.864 116.201 12.864C114.217 12.864 112.569 13.328 111.257 14.256C109.945 15.184 108.953 16.416 108.281 17.952C107.641 19.488 107.321 21.232 107.321 23.184C107.321 25.104 107.641 26.864 108.281 28.464C108.953 30.032 109.961 31.28 111.305 32.208C112.681 33.136 114.409 33.6 116.489 33.6C118.697 33.6 120.489 33.104 121.865 32.112C123.241 31.088 124.089 29.888 124.409 28.512H127.769C127.449 30.208 126.777 31.68 125.753 32.928C124.729 34.144 123.433 35.088 121.865 35.76C120.297 36.432 118.505 36.768 116.489 36.768ZM135.131 35.952V10.512H138.011V21.216H137.435C137.435 18.88 137.755 16.864 138.395 15.168C139.067 13.472 140.059 12.16 141.371 11.232C142.683 10.272 144.347 9.79203 146.363 9.79203H146.507C148.523 9.79203 150.187 10.256 151.499 11.184C152.811 12.112 153.787 13.424 154.427 15.12C155.067 16.816 155.387 18.848 155.387 21.216H154.235C154.235 18.88 154.555 16.864 155.195 15.168C155.867 13.472 156.859 12.16 158.171 11.232C159.515 10.272 161.195 9.79203 163.211 9.79203H163.355C165.371 9.79203 167.035 10.256 168.347 11.184C169.691 12.112 170.683 13.424 171.323 15.12C171.995 16.816 172.331 18.848 172.331 21.216V35.952H168.731V20.4C168.731 18.16 168.187 16.384 167.099 15.072C166.011 13.76 164.443 13.104 162.395 13.104C160.283 13.104 158.603 13.792 157.355 15.168C156.139 16.512 155.531 18.336 155.531 20.64V35.952H151.931V20.4C151.931 18.16 151.387 16.384 150.299 15.072C149.211 13.76 147.643 13.104 145.595 13.104C143.483 13.104 141.803 13.792 140.555 15.168C139.339 16.512 138.731 18.336 138.731 20.64V35.952H135.131Z" fill="#0D0D0D"/>
</svg>
