<svg width="325" height="49" viewBox="0 0 325 49" fill="none" xmlns="http://www.w3.org/2000/svg">
<path d="M4.94333 17.688L-0.000671864 0.167988H1.31933L5.95133 16.872L5.39933 16.512H7.19933L6.64733 16.872L10.4873 0.959988H11.7113L7.63133 17.688H4.94333ZM15.4793 17.688L11.0393 0.959988H12.2873L16.5113 16.872L15.9113 16.512H17.7833L17.1833 16.872L21.4553 0.167988H22.7513L18.1913 17.688H15.4793ZM26.1224 17.688V0.167988H27.3944V9.52799L26.9384 10.344C26.9384 9.23999 27.1064 8.27199 27.4424 7.43999C27.7944 6.59199 28.3224 5.93599 29.0264 5.47199C29.7304 4.99199 30.6184 4.75199 31.6904 4.75199H31.7384C33.3064 4.75199 34.4904 5.24799 35.2904 6.23999C36.0904 7.21599 36.4904 8.55199 36.4904 10.248V17.688H35.1944V9.95999C35.1944 8.74399 34.8664 7.76799 34.2104 7.03199C33.5544 6.29599 32.6264 5.92799 31.4264 5.92799C30.1944 5.92799 29.2104 6.31999 28.4744 7.10399C27.7544 7.87199 27.3944 8.87999 27.3944 10.128V17.688H26.1224ZM48.967 17.688V13.92H48.727V9.28799C48.727 8.27999 48.463 7.50399 47.935 6.95999C47.407 6.39999 46.535 6.11999 45.319 6.11999C44.887 6.11999 44.447 6.13599 43.999 6.16799C43.551 6.18399 43.127 6.20799 42.727 6.23999C42.327 6.25599 41.967 6.28799 41.647 6.33599V5.18399C41.967 5.13599 42.303 5.09599 42.655 5.06399C43.023 5.03199 43.391 5.00799 43.759 4.99199C44.127 4.97599 44.479 4.96799 44.815 4.96799C46.079 4.96799 47.087 5.13599 47.839 5.47199C48.591 5.79199 49.135 6.28799 49.471 6.95999C49.807 7.61599 49.975 8.45599 49.975 9.47999V17.688H48.967ZM44.575 18.024C43.727 18.024 42.967 17.872 42.295 17.568C41.623 17.264 41.087 16.816 40.687 16.224C40.303 15.632 40.111 14.912 40.111 14.064C40.111 13.248 40.295 12.552 40.663 11.976C41.047 11.4 41.591 10.96 42.295 10.656C43.015 10.352 43.879 10.2 44.887 10.2H48.847V11.232H44.767C43.679 11.232 42.839 11.496 42.247 12.024C41.671 12.536 41.383 13.216 41.383 14.064C41.383 14.96 41.695 15.672 42.319 16.2C42.943 16.712 43.759 16.968 44.767 16.968C45.391 16.968 45.999 16.848 46.591 16.608C47.183 16.368 47.679 15.968 48.079 15.408C48.479 14.832 48.695 14.064 48.727 13.104L49.207 13.656C49.159 14.632 48.919 15.448 48.487 16.104C48.071 16.744 47.527 17.224 46.855 17.544C46.183 17.864 45.423 18.024 44.575 18.024ZM58.9396 17.808C58.1556 17.808 57.4676 17.696 56.8756 17.472C56.2836 17.232 55.8276 16.832 55.5076 16.272C55.1876 15.712 55.0276 14.96 55.0276 14.016V0.983987H56.2756V14.232C56.2756 15 56.4836 15.6 56.8996 16.032C57.3316 16.448 57.9236 16.656 58.6756 16.656H61.0276V17.808H58.9396ZM52.6276 6.11999V5.08799H61.0276V6.11999H52.6276ZM73.8016 17.688L76.6816 5.51999H78.6016L81.8416 17.688H80.6656L77.4256 5.59199H77.8096L74.9296 17.688H73.8016ZM72.9376 17.688V16.608H74.6656V17.688H72.9376ZM72.6256 17.688L68.8576 5.08799H70.1296L73.8256 17.688H72.6256ZM81.0256 17.688V16.608H82.6336V17.688H81.0256ZM81.8176 17.688L85.1056 5.08799H86.3056L82.9936 17.688H81.8176ZM94.7271 18.096C93.6551 18.096 92.7271 17.912 91.9431 17.544C91.1591 17.16 90.5191 16.656 90.0231 16.032C89.5271 15.392 89.1511 14.68 88.8951 13.896C88.6551 13.096 88.5351 12.288 88.5351 11.472V11.232C88.5351 10.4 88.6551 9.59999 88.8951 8.83199C89.1511 8.06399 89.5271 7.36799 90.0231 6.74399C90.5351 6.10399 91.1671 5.60799 91.9191 5.25599C92.6871 4.88799 93.5751 4.70399 94.5831 4.70399C95.8631 4.70399 96.9351 4.99199 97.7991 5.56799C98.6791 6.12799 99.3431 6.86399 99.7911 7.77599C100.239 8.68799 100.463 9.64799 100.463 10.656V11.52H89.1351V10.464H99.6231L99.2391 10.944C99.2391 9.96799 99.0551 9.09599 98.6871 8.32799C98.3351 7.55999 97.8071 6.95999 97.1031 6.52799C96.4151 6.07999 95.5751 5.85599 94.5831 5.85599C93.5111 5.85599 92.6151 6.10399 91.8951 6.59999C91.1751 7.09599 90.6311 7.75999 90.2631 8.59199C89.9111 9.42399 89.7351 10.344 89.7351 11.352C89.7351 12.36 89.9111 13.288 90.2631 14.136C90.6311 14.968 91.1831 15.648 91.9191 16.176C92.6551 16.688 93.5911 16.944 94.7271 16.944C95.9431 16.944 96.9191 16.664 97.6551 16.104C98.4071 15.544 98.8631 14.872 99.0231 14.088H100.271C100.095 14.872 99.7591 15.568 99.2631 16.176C98.7671 16.784 98.1351 17.256 97.3671 17.592C96.6151 17.928 95.7351 18.096 94.7271 18.096ZM116.153 18.096C115.001 18.096 113.993 17.832 113.129 17.304C112.281 16.76 111.617 16.04 111.137 15.144C110.673 14.248 110.433 13.256 110.417 12.168H110.873V17.688H109.865V0.167988H111.137V9.14399L110.537 10.656C110.569 9.45599 110.817 8.41599 111.281 7.53599C111.761 6.63999 112.425 5.94399 113.273 5.44799C114.121 4.95199 115.105 4.70399 116.225 4.70399C117.169 4.70399 118.017 4.88799 118.769 5.25599C119.521 5.60799 120.153 6.09599 120.665 6.71999C121.193 7.32799 121.593 8.02399 121.865 8.80799C122.137 9.57599 122.273 10.392 122.273 11.256V11.496C122.273 12.328 122.137 13.136 121.865 13.92C121.609 14.688 121.217 15.392 120.689 16.032C120.161 16.656 119.513 17.16 118.745 17.544C117.993 17.912 117.129 18.096 116.153 18.096ZM116.033 16.944C117.089 16.944 117.985 16.688 118.721 16.176C119.473 15.648 120.041 14.96 120.425 14.112C120.809 13.264 121.001 12.352 121.001 11.376C121.001 10.352 120.801 9.42399 120.401 8.59199C120.001 7.74399 119.433 7.07999 118.697 6.59999C117.961 6.10399 117.073 5.85599 116.033 5.85599C115.073 5.85599 114.217 6.07199 113.465 6.50399C112.729 6.91999 112.145 7.50399 111.713 8.25599C111.281 8.99199 111.065 9.83999 111.065 10.8V12.024C111.065 12.936 111.273 13.768 111.689 14.52C112.121 15.256 112.705 15.848 113.441 16.296C114.193 16.728 115.057 16.944 116.033 16.944ZM130.45 18.048C128.93 18.048 127.778 17.56 126.994 16.584C126.21 15.608 125.818 14.288 125.818 12.624V5.08799H127.114V12.912C127.114 14.08 127.418 15.032 128.026 15.768C128.65 16.488 129.546 16.848 130.714 16.848C131.898 16.848 132.834 16.472 133.522 15.72C134.226 14.968 134.578 13.984 134.578 12.768V5.08799H135.85V17.688H134.842V12.6H135.13C135.13 13.672 134.954 14.624 134.602 15.456C134.266 16.272 133.762 16.912 133.09 17.376C132.418 17.824 131.562 18.048 130.522 18.048H130.45ZM141.521 17.688V5.08799H142.817V17.688H141.521ZM139.433 6.19199V5.08799H142.817V6.19199H139.433ZM141.641 2.44799C141.305 2.44799 141.049 2.35999 140.873 2.18399C140.697 1.99199 140.609 1.75199 140.609 1.46399C140.609 1.15999 140.697 0.911987 140.873 0.719988C141.049 0.527987 141.313 0.431987 141.665 0.431987C142.001 0.431987 142.257 0.527987 142.433 0.719988C142.609 0.911987 142.697 1.15999 142.697 1.46399C142.697 1.75199 142.609 1.99199 142.433 2.18399C142.273 2.35999 142.009 2.44799 141.641 2.44799ZM147.858 17.688V0.167988H149.13V17.688H147.858ZM145.962 1.24799V0.167988H149.13V1.24799H145.962ZM159.132 18.096C158.188 18.096 157.332 17.92 156.564 17.568C155.812 17.2 155.172 16.712 154.644 16.104C154.116 15.48 153.708 14.776 153.42 13.992C153.148 13.208 153.012 12.384 153.012 11.52V11.28C153.012 10.448 153.148 9.64799 153.42 8.87999C153.692 8.09599 154.084 7.39199 154.596 6.76799C155.124 6.12799 155.764 5.62399 156.516 5.25599C157.268 4.88799 158.132 4.70399 159.108 4.70399C160.244 4.70399 161.228 4.95999 162.06 5.47199C162.908 5.98399 163.564 6.68799 164.028 7.58399C164.508 8.46399 164.764 9.47199 164.796 10.608L164.148 9.19199V0.167988H165.42V17.688H164.412V12.096H164.892C164.86 13.296 164.596 14.352 164.1 15.264C163.604 16.16 162.924 16.856 162.06 17.352C161.212 17.848 160.236 18.096 159.132 18.096ZM159.252 16.944C160.228 16.944 161.084 16.728 161.82 16.296C162.572 15.864 163.156 15.28 163.572 14.544C164.004 13.792 164.22 12.936 164.22 11.976V10.728C164.22 9.81599 164.004 8.99199 163.572 8.25599C163.156 7.51999 162.572 6.93599 161.82 6.50399C161.084 6.07199 160.228 5.85599 159.252 5.85599C158.196 5.85599 157.3 6.11199 156.564 6.62399C155.828 7.13599 155.26 7.81599 154.86 8.66399C154.476 9.49599 154.284 10.408 154.284 11.4C154.284 12.424 154.484 13.36 154.884 14.208C155.284 15.04 155.852 15.704 156.588 16.2C157.34 16.696 158.228 16.944 159.252 16.944ZM176.771 17.688V5.08799H178.067V17.688H176.771ZM174.683 6.19199V5.08799H178.067V6.19199H174.683ZM176.891 2.44799C176.555 2.44799 176.299 2.35999 176.123 2.18399C175.947 1.99199 175.859 1.75199 175.859 1.46399C175.859 1.15999 175.947 0.911987 176.123 0.719988C176.299 0.527987 176.563 0.431987 176.915 0.431987C177.251 0.431987 177.507 0.527987 177.683 0.719988C177.859 0.911987 177.947 1.15999 177.947 1.46399C177.947 1.75199 177.859 1.99199 177.683 2.18399C177.523 2.35999 177.259 2.44799 176.891 2.44799ZM186.804 18.048C185.236 18.048 184.028 17.688 183.18 16.968C182.348 16.248 181.924 15.328 181.908 14.208H183.156C183.156 14.928 183.436 15.56 183.996 16.104C184.572 16.632 185.508 16.896 186.804 16.896C188.068 16.896 188.996 16.632 189.588 16.104C190.18 15.56 190.476 14.92 190.476 14.184C190.476 13.464 190.204 12.912 189.66 12.528C189.132 12.144 188.412 11.904 187.5 11.808L186.012 11.64C184.908 11.512 184.028 11.168 183.372 10.608C182.732 10.048 182.412 9.28799 182.412 8.32799C182.412 7.63999 182.588 7.02399 182.94 6.47999C183.292 5.93599 183.796 5.50399 184.452 5.18399C185.124 4.86399 185.908 4.70399 186.804 4.70399C188.116 4.70399 189.172 5.02399 189.972 5.66399C190.788 6.30399 191.204 7.17599 191.22 8.27999H189.972C189.988 7.59199 189.716 7.01599 189.156 6.55199C188.612 6.08799 187.828 5.85599 186.804 5.85599C185.732 5.85599 184.932 6.10399 184.404 6.59999C183.892 7.09599 183.636 7.67999 183.636 8.35199C183.636 8.91199 183.836 9.39199 184.236 9.79199C184.652 10.192 185.276 10.44 186.108 10.536L187.596 10.704C188.78 10.816 189.756 11.16 190.524 11.736C191.308 12.312 191.7 13.136 191.7 14.208C191.7 14.928 191.5 15.576 191.1 16.152C190.716 16.728 190.164 17.192 189.444 17.544C188.724 17.88 187.844 18.048 186.804 18.048ZM206.405 18.096C205.461 18.096 204.605 17.92 203.837 17.568C203.085 17.2 202.445 16.712 201.917 16.104C201.389 15.48 200.981 14.776 200.693 13.992C200.421 13.208 200.285 12.384 200.285 11.52V11.28C200.285 10.448 200.421 9.64799 200.693 8.87999C200.965 8.09599 201.357 7.39199 201.869 6.76799C202.397 6.12799 203.037 5.62399 203.789 5.25599C204.541 4.88799 205.405 4.70399 206.381 4.70399C207.517 4.70399 208.501 4.95999 209.333 5.47199C210.181 5.98399 210.837 6.68799 211.301 7.58399C211.781 8.46399 212.037 9.47199 212.069 10.608L211.421 9.19199V0.167988H212.693V17.688H211.685V12.096H212.165C212.133 13.296 211.869 14.352 211.373 15.264C210.877 16.16 210.197 16.856 209.333 17.352C208.485 17.848 207.509 18.096 206.405 18.096ZM206.525 16.944C207.501 16.944 208.357 16.728 209.093 16.296C209.845 15.864 210.429 15.28 210.845 14.544C211.277 13.792 211.493 12.936 211.493 11.976V10.728C211.493 9.81599 211.277 8.99199 210.845 8.25599C210.429 7.51999 209.845 6.93599 209.093 6.50399C208.357 6.07199 207.501 5.85599 206.525 5.85599C205.469 5.85599 204.573 6.11199 203.837 6.62399C203.101 7.13599 202.533 7.81599 202.133 8.66399C201.749 9.49599 201.557 10.408 201.557 11.4C201.557 12.424 201.757 13.36 202.157 14.208C202.557 15.04 203.125 15.704 203.861 16.2C204.613 16.696 205.501 16.944 206.525 16.944ZM222.766 18.096C221.694 18.096 220.766 17.912 219.982 17.544C219.198 17.16 218.558 16.656 218.062 16.032C217.566 15.392 217.19 14.68 216.934 13.896C216.694 13.096 216.574 12.288 216.574 11.472V11.232C216.574 10.4 216.694 9.59999 216.934 8.83199C217.19 8.06399 217.566 7.36799 218.062 6.74399C218.574 6.10399 219.206 5.60799 219.958 5.25599C220.726 4.88799 221.614 4.70399 222.622 4.70399C223.902 4.70399 224.974 4.99199 225.838 5.56799C226.718 6.12799 227.382 6.86399 227.83 7.77599C228.278 8.68799 228.502 9.64799 228.502 10.656V11.52H217.174V10.464H227.662L227.278 10.944C227.278 9.96799 227.094 9.09599 226.726 8.32799C226.374 7.55999 225.846 6.95999 225.142 6.52799C224.454 6.07999 223.614 5.85599 222.622 5.85599C221.55 5.85599 220.654 6.10399 219.934 6.59999C219.214 7.09599 218.67 7.75999 218.302 8.59199C217.95 9.42399 217.774 10.344 217.774 11.352C217.774 12.36 217.95 13.288 218.302 14.136C218.67 14.968 219.222 15.648 219.958 16.176C220.694 16.688 221.63 16.944 222.766 16.944C223.982 16.944 224.958 16.664 225.694 16.104C226.446 15.544 226.902 14.872 227.062 14.088H228.31C228.134 14.872 227.798 15.568 227.302 16.176C226.806 16.784 226.174 17.256 225.406 17.592C224.654 17.928 223.774 18.096 222.766 18.096ZM232.521 17.688V3.64799C232.521 2.39999 232.833 1.47999 233.457 0.887987C234.097 0.295987 235.057 -1.28746e-05 236.337 -1.28746e-05H237.801V1.10399H236.049C235.313 1.10399 234.745 1.30399 234.345 1.70399C233.961 2.08799 233.769 2.63199 233.769 3.33599V17.688H232.521ZM230.577 6.14399V5.13599H237.921V6.14399H230.577ZM241.377 17.688V5.08799H242.649V17.688H241.377ZM239.313 6.19199V5.08799H242.649V6.19199H239.313ZM241.497 2.44799C241.161 2.44799 240.897 2.35999 240.705 2.18399C240.529 1.99199 240.441 1.75199 240.441 1.46399C240.441 1.15999 240.529 0.911987 240.705 0.719988C240.897 0.527987 241.161 0.431987 241.497 0.431987C241.849 0.431987 242.113 0.527987 242.289 0.719988C242.465 0.911987 242.553 1.15999 242.553 1.46399C242.553 1.75199 242.465 1.99199 242.289 2.18399C242.113 2.35999 241.849 2.44799 241.497 2.44799ZM247.63 17.688V5.08799H248.638V10.248H248.35C248.35 9.14399 248.526 8.18399 248.878 7.36799C249.246 6.53599 249.782 5.89599 250.486 5.44799C251.206 4.98399 252.094 4.75199 253.15 4.75199H253.222C254.806 4.75199 255.998 5.24799 256.798 6.23999C257.598 7.21599 257.998 8.55199 257.998 10.248V17.688H256.702V9.95999C256.702 8.75999 256.374 7.79199 255.718 7.05599C255.078 6.30399 254.15 5.92799 252.934 5.92799C251.702 5.92799 250.718 6.31199 249.982 7.07999C249.262 7.83199 248.902 8.83199 248.902 10.08V17.688H247.63ZM267.907 18.096C266.835 18.096 265.907 17.912 265.123 17.544C264.339 17.16 263.699 16.656 263.203 16.032C262.707 15.392 262.331 14.68 262.075 13.896C261.835 13.096 261.715 12.288 261.715 11.472V11.232C261.715 10.4 261.835 9.59999 262.075 8.83199C262.331 8.06399 262.707 7.36799 263.203 6.74399C263.715 6.10399 264.347 5.60799 265.099 5.25599C265.867 4.88799 266.755 4.70399 267.763 4.70399C269.043 4.70399 270.115 4.99199 270.979 5.56799C271.859 6.12799 272.523 6.86399 272.971 7.77599C273.419 8.68799 273.643 9.64799 273.643 10.656V11.52H262.315V10.464H272.803L272.419 10.944C272.419 9.96799 272.235 9.09599 271.867 8.32799C271.515 7.55999 270.987 6.95999 270.283 6.52799C269.595 6.07999 268.755 5.85599 267.763 5.85599C266.691 5.85599 265.795 6.10399 265.075 6.59999C264.355 7.09599 263.811 7.75999 263.443 8.59199C263.091 9.42399 262.915 10.344 262.915 11.352C262.915 12.36 263.091 13.288 263.443 14.136C263.811 14.968 264.363 15.648 265.099 16.176C265.835 16.688 266.771 16.944 267.907 16.944C269.123 16.944 270.099 16.664 270.835 16.104C271.587 15.544 272.043 14.872 272.203 14.088H273.451C273.275 14.872 272.939 15.568 272.443 16.176C271.947 16.784 271.315 17.256 270.547 17.592C269.795 17.928 268.915 18.096 267.907 18.096ZM282.366 18.096C281.422 18.096 280.566 17.92 279.798 17.568C279.046 17.2 278.406 16.712 277.878 16.104C277.35 15.48 276.942 14.776 276.654 13.992C276.382 13.208 276.246 12.384 276.246 11.52V11.28C276.246 10.448 276.382 9.64799 276.654 8.87999C276.926 8.09599 277.318 7.39199 277.83 6.76799C278.358 6.12799 278.998 5.62399 279.75 5.25599C280.502 4.88799 281.366 4.70399 282.342 4.70399C283.478 4.70399 284.462 4.95999 285.294 5.47199C286.142 5.98399 286.798 6.68799 287.262 7.58399C287.742 8.46399 287.998 9.47199 288.03 10.608L287.382 9.19199V0.167988H288.654V17.688H287.646V12.096H288.126C288.094 13.296 287.83 14.352 287.334 15.264C286.838 16.16 286.158 16.856 285.294 17.352C284.446 17.848 283.47 18.096 282.366 18.096ZM282.486 16.944C283.462 16.944 284.318 16.728 285.054 16.296C285.806 15.864 286.39 15.28 286.806 14.544C287.238 13.792 287.454 12.936 287.454 11.976V10.728C287.454 9.81599 287.238 8.99199 286.806 8.25599C286.39 7.51999 285.806 6.93599 285.054 6.50399C284.318 6.07199 283.462 5.85599 282.486 5.85599C281.43 5.85599 280.534 6.11199 279.798 6.62399C279.062 7.13599 278.494 7.81599 278.094 8.66399C277.71 9.49599 277.518 10.408 277.518 11.4C277.518 12.424 277.718 13.36 278.118 14.208C278.518 15.04 279.086 15.704 279.822 16.2C280.574 16.696 281.462 16.944 282.486 16.944ZM305.621 18.096C304.469 18.096 303.461 17.832 302.597 17.304C301.749 16.76 301.085 16.04 300.605 15.144C300.141 14.248 299.901 13.256 299.885 12.168H300.341V17.688H299.333V0.167988H300.605V9.14399L300.005 10.656C300.037 9.45599 300.285 8.41599 300.749 7.53599C301.229 6.63999 301.893 5.94399 302.741 5.44799C303.589 4.95199 304.573 4.70399 305.693 4.70399C306.637 4.70399 307.485 4.88799 308.237 5.25599C308.989 5.60799 309.621 6.09599 310.133 6.71999C310.661 7.32799 311.061 8.02399 311.333 8.80799C311.605 9.57599 311.741 10.392 311.741 11.256V11.496C311.741 12.328 311.605 13.136 311.333 13.92C311.077 14.688 310.685 15.392 310.157 16.032C309.629 16.656 308.981 17.16 308.213 17.544C307.461 17.912 306.597 18.096 305.621 18.096ZM305.501 16.944C306.557 16.944 307.453 16.688 308.189 16.176C308.941 15.648 309.509 14.96 309.893 14.112C310.277 13.264 310.469 12.352 310.469 11.376C310.469 10.352 310.269 9.42399 309.869 8.59199C309.469 7.74399 308.901 7.07999 308.165 6.59999C307.429 6.10399 306.541 5.85599 305.501 5.85599C304.541 5.85599 303.685 6.07199 302.933 6.50399C302.197 6.91999 301.613 7.50399 301.181 8.25599C300.749 8.99199 300.533 9.83999 300.533 10.8V12.024C300.533 12.936 300.741 13.768 301.157 14.52C301.589 15.256 302.173 15.848 302.909 16.296C303.661 16.728 304.525 16.944 305.501 16.944ZM313.995 22.584V21.408H315.435C315.995 21.408 316.483 21.336 316.899 21.192C317.315 21.064 317.675 20.824 317.979 20.472C318.299 20.12 318.563 19.616 318.771 18.96L323.259 5.08799H324.531L319.851 19.368C319.595 20.152 319.251 20.776 318.819 21.24C318.403 21.72 317.899 22.064 317.307 22.272C316.731 22.48 316.075 22.584 315.339 22.584H313.995ZM318.363 17.376V16.248H320.139V17.376H318.363ZM318.123 17.376L313.539 5.08799H314.835L319.371 17.376H318.123ZM2.25533 47.688V35.088H3.55133V47.688H2.25533ZM0.167328 36.192V35.088H3.55133V36.192H0.167328ZM2.37533 32.448C2.03933 32.448 1.78333 32.36 1.60733 32.184C1.43133 31.992 1.34333 31.752 1.34333 31.464C1.34333 31.16 1.43133 30.912 1.60733 30.72C1.78333 30.528 2.04733 30.432 2.39933 30.432C2.73533 30.432 2.99133 30.528 3.16733 30.72C3.34333 30.912 3.43133 31.16 3.43133 31.464C3.43133 31.752 3.34333 31.992 3.16733 32.184C3.00733 32.36 2.74333 32.448 2.37533 32.448ZM12.7208 47.808C11.9368 47.808 11.2488 47.696 10.6568 47.472C10.0648 47.232 9.60883 46.832 9.28883 46.272C8.96883 45.712 8.80883 44.96 8.80883 44.016V30.984H10.0568V44.232C10.0568 45 10.2648 45.6 10.6808 46.032C11.1128 46.448 11.7048 46.656 12.4568 46.656H14.8088V47.808H12.7208ZM6.40883 36.12V35.088H14.8088V36.12H6.40883ZM22.2029 48.048C20.6349 48.048 19.4269 47.688 18.5789 46.968C17.7469 46.248 17.3229 45.328 17.3069 44.208H18.5549C18.5549 44.928 18.8349 45.56 19.3949 46.104C19.9709 46.632 20.9069 46.896 22.2029 46.896C23.4669 46.896 24.3949 46.632 24.9869 46.104C25.5789 45.56 25.8749 44.92 25.8749 44.184C25.8749 43.464 25.6029 42.912 25.0589 42.528C24.5309 42.144 23.8109 41.904 22.8989 41.808L21.4109 41.64C20.3069 41.512 19.4269 41.168 18.7709 40.608C18.1309 40.048 17.8109 39.288 17.8109 38.328C17.8109 37.64 17.9869 37.024 18.3389 36.48C18.6909 35.936 19.1949 35.504 19.8509 35.184C20.5229 34.864 21.3069 34.704 22.2029 34.704C23.5149 34.704 24.5709 35.024 25.3709 35.664C26.1869 36.304 26.6029 37.176 26.6189 38.28H25.3709C25.3869 37.592 25.1149 37.016 24.5549 36.552C24.0109 36.088 23.2269 35.856 22.2029 35.856C21.1309 35.856 20.3309 36.104 19.8029 36.6C19.2909 37.096 19.0349 37.68 19.0349 38.352C19.0349 38.912 19.2349 39.392 19.6349 39.792C20.0509 40.192 20.6749 40.44 21.5069 40.536L22.9949 40.704C24.1789 40.816 25.1549 41.16 25.9229 41.736C26.7069 42.312 27.0989 43.136 27.0989 44.208C27.0989 44.928 26.8989 45.576 26.4989 46.152C26.1149 46.728 25.5629 47.192 24.8429 47.544C24.1229 47.88 23.2429 48.048 22.2029 48.048Z" fill="#717171"/>
<path d="M44.4436 47.688V43.92H44.2036V39.288C44.2036 38.28 43.9396 37.504 43.4116 36.96C42.8836 36.4 42.0116 36.12 40.7956 36.12C40.3636 36.12 39.9236 36.136 39.4756 36.168C39.0276 36.184 38.6036 36.208 38.2036 36.24C37.8036 36.256 37.4436 36.288 37.1236 36.336V35.184C37.4436 35.136 37.7796 35.096 38.1316 35.064C38.4996 35.032 38.8676 35.008 39.2356 34.992C39.6036 34.976 39.9556 34.968 40.2916 34.968C41.5556 34.968 42.5636 35.136 43.3156 35.472C44.0676 35.792 44.6116 36.288 44.9476 36.96C45.2836 37.616 45.4516 38.456 45.4516 39.48V47.688H44.4436ZM40.0516 48.024C39.2036 48.024 38.4436 47.872 37.7716 47.568C37.0996 47.264 36.5636 46.816 36.1636 46.224C35.7796 45.632 35.5876 44.912 35.5876 44.064C35.5876 43.248 35.7716 42.552 36.1396 41.976C36.5236 41.4 37.0676 40.96 37.7716 40.656C38.4916 40.352 39.3556 40.2 40.3636 40.2H44.3236V41.232H40.2436C39.1556 41.232 38.3156 41.496 37.7236 42.024C37.1476 42.536 36.8596 43.216 36.8596 44.064C36.8596 44.96 37.1716 45.672 37.7956 46.2C38.4196 46.712 39.2356 46.968 40.2436 46.968C40.8676 46.968 41.4756 46.848 42.0676 46.608C42.6596 46.368 43.1556 45.968 43.5556 45.408C43.9556 44.832 44.1716 44.064 44.2036 43.104L44.6836 43.656C44.6356 44.632 44.3956 45.448 43.9636 46.104C43.5476 46.744 43.0036 47.224 42.3316 47.544C41.6596 47.864 40.8996 48.024 40.0516 48.024ZM50.2161 47.688V35.088H51.2241V40.416H51.0321C51.0321 38.592 51.4401 37.232 52.2561 36.336C53.0721 35.44 54.3921 34.992 56.2161 34.992H56.6481V36.144H55.9761C54.4881 36.144 53.3681 36.528 52.6161 37.296C51.8641 38.048 51.4881 39.16 51.4881 40.632V47.688H50.2161ZM64.7511 48.096C63.7111 48.096 62.7991 47.904 62.0151 47.52C61.2471 47.136 60.5991 46.624 60.0711 45.984C59.5591 45.344 59.1751 44.632 58.9191 43.848C58.6631 43.064 58.5351 42.272 58.5351 41.472V41.232C58.5351 40.416 58.6631 39.616 58.9191 38.832C59.1751 38.048 59.5591 37.352 60.0711 36.744C60.5991 36.12 61.2471 35.624 62.0151 35.256C62.7991 34.888 63.7111 34.704 64.7511 34.704C65.7591 34.704 66.6551 34.888 67.4391 35.256C68.2391 35.624 68.8871 36.144 69.3831 36.816C69.8951 37.472 70.2151 38.264 70.3431 39.192H69.0951C68.9511 38.232 68.5031 37.44 67.7511 36.816C66.9991 36.176 65.9991 35.856 64.7511 35.856C63.6471 35.856 62.7271 36.104 61.9911 36.6C61.2551 37.096 60.7031 37.76 60.3351 38.592C59.9831 39.424 59.8071 40.344 59.8071 41.352C59.8071 42.328 59.9911 43.24 60.3591 44.088C60.7271 44.936 61.2791 45.624 62.0151 46.152C62.7511 46.664 63.6631 46.92 64.7511 46.92C65.5991 46.92 66.3431 46.768 66.9831 46.464C67.6391 46.144 68.1671 45.728 68.5671 45.216C68.9671 44.688 69.2071 44.112 69.2871 43.488H70.5351C70.4231 44.416 70.1031 45.224 69.5751 45.912C69.0471 46.584 68.3671 47.12 67.5351 47.52C66.7031 47.904 65.7751 48.096 64.7511 48.096ZM74.0286 47.688V30.168H75.3006V39.528L74.8446 40.344C74.8446 39.24 75.0126 38.272 75.3486 37.44C75.7006 36.592 76.2286 35.936 76.9326 35.472C77.6366 34.992 78.5246 34.752 79.5966 34.752H79.6446C81.2126 34.752 82.3966 35.248 83.1966 36.24C83.9966 37.216 84.3966 38.552 84.3966 40.248V47.688H83.1006V39.96C83.1006 38.744 82.7726 37.768 82.1166 37.032C81.4606 36.296 80.5326 35.928 79.3326 35.928C78.1006 35.928 77.1166 36.32 76.3806 37.104C75.6606 37.872 75.3006 38.88 75.3006 40.128V47.688H74.0286ZM89.8413 47.688V35.088H91.1373V47.688H89.8413ZM87.7533 36.192V35.088H91.1373V36.192H87.7533ZM89.9613 32.448C89.6253 32.448 89.3693 32.36 89.1933 32.184C89.0173 31.992 88.9293 31.752 88.9293 31.464C88.9293 31.16 89.0173 30.912 89.1933 30.72C89.3693 30.528 89.6333 30.432 89.9853 30.432C90.3213 30.432 90.5773 30.528 90.7533 30.72C90.9293 30.912 91.0173 31.16 91.0173 31.464C91.0173 31.752 90.9293 31.992 90.7533 32.184C90.5933 32.36 90.3293 32.448 89.9613 32.448ZM100.307 47.808C99.5228 47.808 98.8348 47.696 98.2428 47.472C97.6508 47.232 97.1948 46.832 96.8748 46.272C96.5548 45.712 96.3948 44.96 96.3948 44.016V30.984H97.6428V44.232C97.6428 45 97.8508 45.6 98.2668 46.032C98.6988 46.448 99.2908 46.656 100.043 46.656H102.395V47.808H100.307ZM93.9948 36.12V35.088H102.395V36.12H93.9948ZM111.133 48.096C110.061 48.096 109.133 47.912 108.349 47.544C107.565 47.16 106.925 46.656 106.429 46.032C105.933 45.392 105.557 44.68 105.301 43.896C105.061 43.096 104.941 42.288 104.941 41.472V41.232C104.941 40.4 105.061 39.6 105.301 38.832C105.557 38.064 105.933 37.368 106.429 36.744C106.941 36.104 107.573 35.608 108.325 35.256C109.093 34.888 109.981 34.704 110.989 34.704C112.269 34.704 113.341 34.992 114.205 35.568C115.085 36.128 115.749 36.864 116.197 37.776C116.645 38.688 116.869 39.648 116.869 40.656V41.52H105.541V40.464H116.029L115.645 40.944C115.645 39.968 115.461 39.096 115.093 38.328C114.741 37.56 114.213 36.96 113.509 36.528C112.821 36.08 111.981 35.856 110.989 35.856C109.917 35.856 109.021 36.104 108.301 36.6C107.581 37.096 107.037 37.76 106.669 38.592C106.317 39.424 106.141 40.344 106.141 41.352C106.141 42.36 106.317 43.288 106.669 44.136C107.037 44.968 107.589 45.648 108.325 46.176C109.061 46.688 109.997 46.944 111.133 46.944C112.349 46.944 113.325 46.664 114.061 46.104C114.813 45.544 115.269 44.872 115.429 44.088H116.677C116.501 44.872 116.165 45.568 115.669 46.176C115.173 46.784 114.541 47.256 113.773 47.592C113.021 47.928 112.141 48.096 111.133 48.096ZM125.689 48.096C124.649 48.096 123.737 47.904 122.953 47.52C122.185 47.136 121.537 46.624 121.009 45.984C120.497 45.344 120.113 44.632 119.857 43.848C119.601 43.064 119.473 42.272 119.473 41.472V41.232C119.473 40.416 119.601 39.616 119.857 38.832C120.113 38.048 120.497 37.352 121.009 36.744C121.537 36.12 122.185 35.624 122.953 35.256C123.737 34.888 124.649 34.704 125.689 34.704C126.697 34.704 127.593 34.888 128.377 35.256C129.177 35.624 129.825 36.144 130.321 36.816C130.833 37.472 131.153 38.264 131.281 39.192H130.033C129.889 38.232 129.441 37.44 128.689 36.816C127.937 36.176 126.937 35.856 125.689 35.856C124.585 35.856 123.665 36.104 122.929 36.6C122.193 37.096 121.641 37.76 121.273 38.592C120.921 39.424 120.745 40.344 120.745 41.352C120.745 42.328 120.929 43.24 121.297 44.088C121.665 44.936 122.217 45.624 122.953 46.152C123.689 46.664 124.601 46.92 125.689 46.92C126.537 46.92 127.281 46.768 127.921 46.464C128.577 46.144 129.105 45.728 129.505 45.216C129.905 44.688 130.145 44.112 130.225 43.488H131.473C131.361 44.416 131.041 45.224 130.513 45.912C129.985 46.584 129.305 47.12 128.473 47.52C127.641 47.904 126.713 48.096 125.689 48.096ZM139.166 47.808C138.382 47.808 137.694 47.696 137.102 47.472C136.51 47.232 136.054 46.832 135.734 46.272C135.414 45.712 135.254 44.96 135.254 44.016V30.984H136.502V44.232C136.502 45 136.71 45.6 137.126 46.032C137.558 46.448 138.15 46.656 138.902 46.656H141.254V47.808H139.166ZM132.854 36.12V35.088H141.254V36.12H132.854ZM149.27 48.048C147.75 48.048 146.598 47.56 145.814 46.584C145.03 45.608 144.638 44.288 144.638 42.624V35.088H145.934V42.912C145.934 44.08 146.238 45.032 146.846 45.768C147.47 46.488 148.366 46.848 149.534 46.848C150.718 46.848 151.654 46.472 152.342 45.72C153.046 44.968 153.398 43.984 153.398 42.768V35.088H154.67V47.688H153.662V42.6H153.95C153.95 43.672 153.774 44.624 153.422 45.456C153.086 46.272 152.582 46.912 151.91 47.376C151.238 47.824 150.382 48.048 149.342 48.048H149.27ZM159.669 47.688V35.088H160.677V40.416H160.485C160.485 38.592 160.893 37.232 161.709 36.336C162.525 35.44 163.845 34.992 165.669 34.992H166.101V36.144H165.429C163.941 36.144 162.821 36.528 162.069 37.296C161.317 38.048 160.941 39.16 160.941 40.632V47.688H159.669ZM174.18 48.096C173.108 48.096 172.18 47.912 171.396 47.544C170.612 47.16 169.972 46.656 169.476 46.032C168.98 45.392 168.604 44.68 168.348 43.896C168.108 43.096 167.988 42.288 167.988 41.472V41.232C167.988 40.4 168.108 39.6 168.348 38.832C168.604 38.064 168.98 37.368 169.476 36.744C169.988 36.104 170.62 35.608 171.372 35.256C172.14 34.888 173.028 34.704 174.036 34.704C175.316 34.704 176.388 34.992 177.252 35.568C178.132 36.128 178.796 36.864 179.244 37.776C179.692 38.688 179.916 39.648 179.916 40.656V41.52H168.588V40.464H179.076L178.692 40.944C178.692 39.968 178.508 39.096 178.14 38.328C177.788 37.56 177.26 36.96 176.556 36.528C175.868 36.08 175.028 35.856 174.036 35.856C172.964 35.856 172.068 36.104 171.348 36.6C170.628 37.096 170.084 37.76 169.716 38.592C169.364 39.424 169.188 40.344 169.188 41.352C169.188 42.36 169.364 43.288 169.716 44.136C170.084 44.968 170.636 45.648 171.372 46.176C172.108 46.688 173.044 46.944 174.18 46.944C175.396 46.944 176.372 46.664 177.108 46.104C177.86 45.544 178.316 44.872 178.476 44.088H179.724C179.548 44.872 179.212 45.568 178.716 46.176C178.22 46.784 177.588 47.256 176.82 47.592C176.068 47.928 175.188 48.096 174.18 48.096Z" fill="url(#paint0_radial_920_423)"/>
<defs>
<radialGradient id="paint0_radial_920_423" cx="0" cy="0" r="1" gradientUnits="userSpaceOnUse" gradientTransform="translate(177.111 24.688) rotate(90) scale(30 178)">
<stop stop-color="#5A69EA"/>
<stop offset="1" stop-color="#BF8BCA"/>
</radialGradient>
</defs>
</svg>
