<svg width="27" height="12" viewBox="0 0 27 12" fill="none" xmlns="http://www.w3.org/2000/svg">
<path d="M6.02481 8.76001V9.53674e-06H6.93681V8.76001H6.02481ZM0.00081259 8.76001V9.53674e-06H0.912813V8.76001H0.00081259ZM0.708813 4.82401V4.00801H6.22881V4.82401H0.708813ZM12.1168 8.96401C11.5728 8.96401 11.1008 8.87201 10.7008 8.68801C10.3008 8.49601 9.97278 8.24401 9.71678 7.93201C9.46078 7.61201 9.26878 7.25601 9.14078 6.86401C9.02078 6.47201 8.96078 6.06801 8.96078 5.65201V5.48401C8.96078 5.07601 9.02078 4.67601 9.14078 4.28401C9.26878 3.89201 9.46078 3.54001 9.71678 3.22801C9.97278 2.91601 10.2928 2.66801 10.6768 2.48401C11.0688 2.29201 11.5248 2.19601 12.0448 2.19601C12.7088 2.19601 13.2608 2.34401 13.7008 2.64001C14.1488 2.93601 14.4848 3.31601 14.7088 3.78001C14.9328 4.23601 15.0448 4.72801 15.0448 5.25601V5.72401H9.36878V5.02801H14.4208L14.1928 5.37601C14.1928 4.90401 14.1088 4.49201 13.9408 4.14001C13.7808 3.78001 13.5408 3.50001 13.2208 3.30001C12.9088 3.09201 12.5168 2.98801 12.0448 2.98801C11.5488 2.98801 11.1368 3.10401 10.8088 3.33601C10.4808 3.56801 10.2328 3.87601 10.0648 4.26001C9.90478 4.64401 9.82478 5.08001 9.82478 5.56801C9.82478 6.04801 9.90478 6.48801 10.0648 6.88801C10.2328 7.28001 10.4848 7.59201 10.8208 7.82401C11.1648 8.05601 11.5968 8.17201 12.1168 8.17201C12.6688 8.17201 13.1168 8.04801 13.4608 7.80001C13.8048 7.54401 14.0168 7.24401 14.0968 6.90001H14.9368C14.8568 7.32401 14.6888 7.69201 14.4328 8.00401C14.1768 8.30801 13.8528 8.54401 13.4608 8.71201C13.0688 8.88001 12.6208 8.96401 12.1168 8.96401ZM16.1664 11.232V10.428H16.9824C17.2624 10.428 17.5024 10.392 17.7024 10.32C17.9024 10.256 18.0704 10.14 18.2064 9.97201C18.3424 9.80401 18.4584 9.57201 18.5544 9.27601L20.6904 2.41201H21.5664L19.3344 9.52801C19.2064 9.93601 19.0304 10.264 18.8064 10.512C18.5824 10.768 18.3144 10.952 18.0024 11.064C17.6904 11.176 17.3344 11.232 16.9344 11.232H16.1664ZM18.2304 8.60401V7.84801H19.3704V8.60401H18.2304ZM18.1224 8.60401L15.8184 2.41201H16.7424L18.9624 8.60401H18.1224ZM22.4918 8.76001V7.57201H23.6198V8.76001H22.4918ZM25.5856 8.76001V7.57201H26.7136V8.76001H25.5856Z" fill="#717171"/>
</svg>
