<svg width="127" height="12" viewBox="0 0 127 12" fill="none" xmlns="http://www.w3.org/2000/svg">
<path d="M0.348047 11.46V10.656H1.16405C1.44405 10.656 1.68405 10.62 1.88405 10.548C2.08405 10.484 2.25205 10.368 2.38805 10.2C2.52405 10.032 2.64005 9.80004 2.73605 9.50404L4.87205 2.64004H5.74805L3.51605 9.75604C3.38805 10.164 3.21205 10.492 2.98805 10.74C2.76405 10.996 2.49605 11.18 2.18405 11.292C1.87205 11.404 1.51605 11.46 1.11605 11.46H0.348047ZM2.41205 8.83204V8.07604H3.55205V8.83204H2.41205ZM2.30405 8.83204L4.6894e-05 2.64004H0.924047L3.14405 8.83204H2.30405ZM10.0607 9.19204C9.51673 9.19204 9.03673 9.10004 8.62073 8.91604C8.21273 8.72404 7.86473 8.47204 7.57673 8.16004C7.29673 7.84004 7.08073 7.48404 6.92873 7.09204C6.78473 6.70004 6.71273 6.30004 6.71273 5.89204V5.72404C6.71273 5.31604 6.78873 4.91604 6.94073 4.52404C7.09273 4.12404 7.31273 3.76804 7.60073 3.45604C7.88873 3.14404 8.23673 2.89604 8.64473 2.71204C9.06073 2.52004 9.53273 2.42404 10.0607 2.42404C10.5967 2.42404 11.0687 2.52004 11.4767 2.71204C11.8927 2.89604 12.2447 3.14404 12.5327 3.45604C12.8207 3.76804 13.0367 4.12404 13.1807 4.52404C13.3327 4.91604 13.4087 5.31604 13.4087 5.72404V5.89204C13.4087 6.30004 13.3367 6.70004 13.1927 7.09204C13.0487 7.48404 12.8327 7.84004 12.5447 8.16004C12.2647 8.47204 11.9167 8.72404 11.5007 8.91604C11.0847 9.10004 10.6047 9.19204 10.0607 9.19204ZM10.0607 8.38804C10.5887 8.38804 11.0327 8.27204 11.3927 8.04004C11.7607 7.80004 12.0407 7.48804 12.2327 7.10404C12.4247 6.71204 12.5207 6.28004 12.5207 5.80804C12.5207 5.32804 12.4207 4.89604 12.2207 4.51204C12.0287 4.12004 11.7487 3.81204 11.3807 3.58804C11.0127 3.35604 10.5727 3.24004 10.0607 3.24004C9.55673 3.24004 9.12073 3.35604 8.75273 3.58804C8.38473 3.81204 8.10073 4.12004 7.90073 4.51204C7.70873 4.89604 7.61273 5.32804 7.61273 5.80804C7.61273 6.28004 7.70873 6.71204 7.90073 7.10404C8.09273 7.48804 8.36873 7.80004 8.72873 8.04004C9.09673 8.27204 9.54073 8.38804 10.0607 8.38804ZM17.4401 9.16804C16.6801 9.16804 16.1001 8.92404 15.7001 8.43604C15.3001 7.94004 15.1001 7.25204 15.1001 6.37204V2.62804H15.9881V6.55204C15.9881 7.10404 16.1321 7.54404 16.4201 7.87204C16.7161 8.19204 17.1241 8.35204 17.6441 8.35204C18.1881 8.35204 18.6201 8.18004 18.9401 7.83604C19.2681 7.49204 19.4321 7.03204 19.4321 6.45604V2.62804H20.3321V8.98804H19.6121V6.33604H19.7561C19.7561 6.92804 19.6721 7.43604 19.5041 7.86004C19.3361 8.27604 19.0841 8.60004 18.7481 8.83204C18.4121 9.05604 17.9881 9.16804 17.4761 9.16804H17.4401ZM22.6855 8.98804V2.64004H23.4055V5.29204H23.3335C23.3335 4.36404 23.5375 3.68004 23.9455 3.24004C24.3535 2.79204 24.9935 2.56804 25.8655 2.56804H26.0695V3.38404H25.6975C25.0095 3.38404 24.4855 3.56404 24.1255 3.92404C23.7655 4.27604 23.5855 4.79604 23.5855 5.48404V8.98804H22.6855ZM27.5253 8.98804V2.62804H28.2453V5.30404H28.1013C28.1013 4.72004 28.1813 4.21604 28.3413 3.79204C28.5093 3.36804 28.7573 3.04004 29.0853 2.80804C29.4133 2.56804 29.8293 2.44804 30.3333 2.44804H30.3693C30.8733 2.44804 31.2893 2.56404 31.6173 2.79604C31.9453 3.02804 32.1893 3.35604 32.3493 3.78004C32.5093 4.20404 32.5893 4.71204 32.5893 5.30404H32.3013C32.3013 4.72004 32.3813 4.21604 32.5413 3.79204C32.7093 3.36804 32.9573 3.04004 33.2853 2.80804C33.6213 2.56804 34.0413 2.44804 34.5453 2.44804H34.5813C35.0853 2.44804 35.5013 2.56404 35.8293 2.79604C36.1653 3.02804 36.4133 3.35604 36.5733 3.78004C36.7413 4.20404 36.8253 4.71204 36.8253 5.30404V8.98804H35.9253V5.10004C35.9253 4.54004 35.7893 4.09604 35.5173 3.76804C35.2453 3.44004 34.8533 3.27604 34.3413 3.27604C33.8133 3.27604 33.3933 3.44804 33.0813 3.79204C32.7773 4.12804 32.6253 4.58404 32.6253 5.16004V8.98804H31.7253V5.10004C31.7253 4.54004 31.5893 4.09604 31.3173 3.76804C31.0453 3.44004 30.6533 3.27604 30.1413 3.27604C29.6133 3.27604 29.1933 3.44804 28.8813 3.79204C28.5773 4.12804 28.4253 4.58404 28.4253 5.16004V8.98804H27.5253ZM42.9323 8.98804V7.08004H42.7883V4.82404C42.7883 4.35204 42.6643 3.99204 42.4163 3.74404C42.1683 3.48804 41.7843 3.36004 41.2643 3.36004C41.0243 3.36004 40.7803 3.36404 40.5323 3.37204C40.2923 3.38004 40.0603 3.39204 39.8363 3.40804C39.6203 3.41604 39.4283 3.42804 39.2603 3.44404V2.65204C39.4363 2.63604 39.6163 2.62004 39.8003 2.60404C39.9843 2.58804 40.1723 2.58004 40.3643 2.58004C40.5643 2.57204 40.7563 2.56804 40.9403 2.56804C41.5883 2.56804 42.1083 2.64804 42.5003 2.80804C42.9003 2.96804 43.1923 3.22004 43.3763 3.56404C43.5603 3.90004 43.6523 4.34804 43.6523 4.90804V8.98804H42.9323ZM40.7843 9.15604C40.3363 9.15604 39.9403 9.07604 39.5963 8.91604C39.2523 8.75604 38.9843 8.52404 38.7923 8.22004C38.6083 7.91604 38.5163 7.54804 38.5163 7.11604C38.5163 6.69204 38.6123 6.33204 38.8043 6.03604C39.0043 5.74004 39.2883 5.51604 39.6563 5.36404C40.0323 5.20404 40.4843 5.12404 41.0123 5.12404H42.8723V5.80804H40.9523C40.4483 5.80804 40.0603 5.93204 39.7883 6.18004C39.5243 6.42004 39.3923 6.73604 39.3923 7.12804C39.3923 7.52804 39.5323 7.84804 39.8123 8.08804C40.0923 8.32004 40.4723 8.43604 40.9523 8.43604C41.2483 8.43604 41.5323 8.38404 41.8043 8.28004C42.0763 8.16804 42.3043 7.98404 42.4883 7.72804C42.6723 7.46404 42.7723 7.10404 42.7883 6.64804L43.0523 7.02004C43.0203 7.49204 42.9083 7.88804 42.7163 8.20804C42.5243 8.52004 42.2643 8.75604 41.9363 8.91604C41.6083 9.07604 41.2243 9.15604 40.7843 9.15604ZM46.2363 8.98804V2.64004H47.1243V8.98804H46.2363ZM45.2163 3.36004V2.64004H47.1243V3.36004H45.2163ZM46.4283 1.46404C46.2123 1.46404 46.0483 1.40804 45.9363 1.29604C45.8323 1.17604 45.7803 1.02804 45.7803 0.852037C45.7803 0.676037 45.8323 0.532037 45.9363 0.420037C46.0483 0.300037 46.2123 0.240037 46.4283 0.240037C46.6443 0.240037 46.8043 0.300037 46.9083 0.420037C47.0123 0.532037 47.0643 0.676037 47.0643 0.852037C47.0643 1.02804 47.0123 1.17604 46.9083 1.29604C46.8043 1.40804 46.6443 1.46404 46.4283 1.46404ZM49.5463 8.98804V0.228037H50.4463V8.98804H49.5463ZM48.6223 0.960037V0.228037H50.4463V0.960037H48.6223ZM58.3832 11.88C57.5192 11.88 56.7272 11.736 56.0072 11.448C55.2872 11.168 54.6632 10.764 54.1352 10.236C53.6152 9.71604 53.2112 9.09604 52.9232 8.37604C52.6352 7.64804 52.4912 6.84404 52.4912 5.96404C52.4912 5.10804 52.6312 4.31604 52.9112 3.58804C53.1992 2.86004 53.6072 2.22804 54.1352 1.69204C54.6632 1.15604 55.2912 0.740037 56.0192 0.444037C56.7552 0.148037 57.5632 3.69549e-05 58.4432 3.69549e-05C59.2432 3.69549e-05 59.9912 0.116037 60.6872 0.348037C61.3912 0.580037 62.0072 0.920037 62.5352 1.36804C63.0712 1.81604 63.4872 2.36804 63.7832 3.02404C64.0872 3.68004 64.2392 4.43204 64.2392 5.28004C64.2392 5.98404 64.1352 6.60804 63.9272 7.15204C63.7192 7.68804 63.4312 8.10804 63.0632 8.41204C62.7032 8.71604 62.2832 8.86804 61.8032 8.86804C61.4752 8.86804 61.1792 8.79604 60.9152 8.65204C60.6592 8.50804 60.4552 8.29604 60.3032 8.01604C60.1512 7.72804 60.0752 7.38404 60.0752 6.98404V6.24004H60.3752C60.3512 6.81604 60.2272 7.29204 60.0032 7.66804C59.7872 8.04404 59.5032 8.32404 59.1512 8.50804C58.7992 8.69204 58.4152 8.78404 57.9992 8.78404C57.5112 8.78404 57.0752 8.66404 56.6912 8.42404C56.3072 8.18404 56.0032 7.85604 55.7792 7.44004C55.5632 7.02404 55.4552 6.55604 55.4552 6.03604V5.86804C55.4552 5.34004 55.5672 4.87604 55.7912 4.47604C56.0232 4.06804 56.3312 3.75204 56.7152 3.52804C57.1072 3.29604 57.5472 3.18004 58.0352 3.18004C58.4752 3.18004 58.8712 3.27604 59.2232 3.46804C59.5752 3.65204 59.8592 3.92404 60.0752 4.28404C60.2992 4.64404 60.4232 5.08404 60.4472 5.60404H60.0992V3.31204H60.8192V6.97204C60.8192 7.25204 60.8632 7.48004 60.9512 7.65604C61.0472 7.82404 61.1712 7.94404 61.3232 8.01604C61.4752 8.08804 61.6312 8.12404 61.7912 8.12404C62.0952 8.12404 62.3672 8.01204 62.6072 7.78804C62.8552 7.55604 63.0512 7.23204 63.1952 6.81604C63.3472 6.39204 63.4232 5.89204 63.4232 5.31604C63.4232 4.56404 63.2952 3.90404 63.0392 3.33604C62.7832 2.76804 62.4232 2.29604 61.9592 1.92004C61.5032 1.53604 60.9752 1.24804 60.3752 1.05604C59.7752 0.856037 59.1352 0.756037 58.4552 0.756037C57.6792 0.756037 56.9752 0.888036 56.3432 1.15204C55.7112 1.40804 55.1672 1.77204 54.7112 2.24404C54.2552 2.70804 53.9072 3.26004 53.6672 3.90004C53.4272 4.53204 53.3072 5.22404 53.3072 5.97604C53.3072 7.00004 53.5192 7.89604 53.9432 8.66404C54.3672 9.43204 54.9592 10.028 55.7192 10.452C56.4872 10.884 57.3752 11.1 58.3832 11.1C58.6392 11.1 58.8792 11.084 59.1032 11.052C59.3272 11.028 59.5472 10.992 59.7632 10.944V11.724C59.5472 11.772 59.3272 11.808 59.1032 11.832C58.8792 11.864 58.6392 11.88 58.3832 11.88ZM58.1312 8.06404C58.4752 8.06404 58.7912 7.98804 59.0792 7.83604C59.3672 7.67604 59.5952 7.44404 59.7632 7.14004C59.9392 6.83604 60.0272 6.46404 60.0272 6.02404V5.77204C60.0272 5.35604 59.9352 5.01204 59.7512 4.74004C59.5752 4.46004 59.3432 4.25204 59.0552 4.11604C58.7672 3.97204 58.4592 3.90004 58.1312 3.90004C57.7712 3.90004 57.4512 3.98404 57.1712 4.15204C56.8912 4.32004 56.6712 4.55604 56.5112 4.86004C56.3592 5.16404 56.2832 5.52804 56.2832 5.95204C56.2832 6.36804 56.3632 6.73604 56.5232 7.05604C56.6832 7.37604 56.8992 7.62404 57.1712 7.80004C57.4512 7.97604 57.7712 8.06404 58.1312 8.06404ZM68.6446 11.472C68.3486 11.472 68.0486 11.456 67.7446 11.424C67.4486 11.4 67.1646 11.368 66.8926 11.328V10.56C67.1806 10.6 67.4806 10.632 67.7926 10.656C68.1126 10.688 68.4126 10.704 68.6926 10.704C69.3006 10.704 69.7846 10.624 70.1446 10.464C70.5046 10.304 70.7606 10.048 70.9126 9.69604C71.0726 9.35204 71.1526 8.89604 71.1526 8.32804V7.05604L71.4886 6.16804C71.4726 6.77604 71.3446 7.30004 71.1046 7.74004C70.8646 8.17204 70.5406 8.50404 70.1326 8.73604C69.7246 8.96804 69.2606 9.08404 68.7406 9.08404C68.2846 9.08404 67.8686 8.99604 67.4926 8.82004C67.1246 8.64404 66.8086 8.40404 66.5446 8.10004C66.2806 7.78804 66.0766 7.43604 65.9326 7.04404C65.7886 6.65204 65.7166 6.24004 65.7166 5.80804V5.64004C65.7166 5.21604 65.7886 4.81204 65.9326 4.42804C66.0766 4.03604 66.2806 3.69204 66.5446 3.39604C66.8086 3.09204 67.1286 2.85604 67.5046 2.68804C67.8886 2.51204 68.3126 2.42404 68.7766 2.42404C69.3366 2.42404 69.8246 2.54804 70.2406 2.79604C70.6566 3.04404 70.9806 3.38804 71.2126 3.82804C71.4526 4.26804 71.5806 4.78404 71.5966 5.37604L71.3086 5.22004V2.64004H72.0166V8.29204C72.0166 9.05204 71.9046 9.66404 71.6806 10.128C71.4566 10.592 71.0966 10.932 70.6006 11.148C70.1126 11.364 69.4606 11.472 68.6446 11.472ZM68.8966 8.25604C69.3286 8.25604 69.7126 8.16404 70.0486 7.98004C70.3926 7.78804 70.6646 7.52004 70.8646 7.17604C71.0646 6.83204 71.1646 6.43204 71.1646 5.97604V5.38804C71.1646 4.94804 71.0606 4.56404 70.8526 4.23604C70.6526 3.90804 70.3846 3.65204 70.0486 3.46804C69.7126 3.28404 69.3286 3.19204 68.8966 3.19204C68.4326 3.19204 68.0286 3.30404 67.6846 3.52804C67.3406 3.75204 67.0766 4.05604 66.8926 4.44004C66.7086 4.81604 66.6166 5.24404 66.6166 5.72404C66.6166 6.21204 66.7086 6.64804 66.8926 7.03204C67.0846 7.41604 67.3526 7.71604 67.6966 7.93204C68.0406 8.14804 68.4406 8.25604 68.8966 8.25604ZM74.2714 8.98804V2.62804H74.9914V5.30404H74.8474C74.8474 4.72004 74.9274 4.21604 75.0874 3.79204C75.2554 3.36804 75.5034 3.04004 75.8314 2.80804C76.1594 2.56804 76.5754 2.44804 77.0794 2.44804H77.1154C77.6194 2.44804 78.0354 2.56404 78.3634 2.79604C78.6914 3.02804 78.9354 3.35604 79.0954 3.78004C79.2554 4.20404 79.3354 4.71204 79.3354 5.30404H79.0474C79.0474 4.72004 79.1274 4.21604 79.2874 3.79204C79.4554 3.36804 79.7034 3.04004 80.0314 2.80804C80.3674 2.56804 80.7874 2.44804 81.2914 2.44804H81.3274C81.8314 2.44804 82.2474 2.56404 82.5754 2.79604C82.9114 3.02804 83.1594 3.35604 83.3194 3.78004C83.4874 4.20404 83.5714 4.71204 83.5714 5.30404V8.98804H82.6714V5.10004C82.6714 4.54004 82.5354 4.09604 82.2634 3.76804C81.9914 3.44004 81.5994 3.27604 81.0874 3.27604C80.5594 3.27604 80.1394 3.44804 79.8274 3.79204C79.5234 4.12804 79.3714 4.58404 79.3714 5.16004V8.98804H78.4714V5.10004C78.4714 4.54004 78.3354 4.09604 78.0634 3.76804C77.7914 3.44004 77.3994 3.27604 76.8874 3.27604C76.3594 3.27604 75.9394 3.44804 75.6274 3.79204C75.3234 4.12804 75.1714 4.58404 75.1714 5.16004V8.98804H74.2714ZM89.6784 8.98804V7.08004H89.5344V4.82404C89.5344 4.35204 89.4104 3.99204 89.1624 3.74404C88.9144 3.48804 88.5304 3.36004 88.0104 3.36004C87.7704 3.36004 87.5264 3.36404 87.2784 3.37204C87.0384 3.38004 86.8064 3.39204 86.5824 3.40804C86.3664 3.41604 86.1744 3.42804 86.0064 3.44404V2.65204C86.1824 2.63604 86.3624 2.62004 86.5464 2.60404C86.7304 2.58804 86.9184 2.58004 87.1104 2.58004C87.3104 2.57204 87.5024 2.56804 87.6864 2.56804C88.3344 2.56804 88.8544 2.64804 89.2464 2.80804C89.6464 2.96804 89.9384 3.22004 90.1224 3.56404C90.3064 3.90004 90.3984 4.34804 90.3984 4.90804V8.98804H89.6784ZM87.5304 9.15604C87.0824 9.15604 86.6864 9.07604 86.3424 8.91604C85.9984 8.75604 85.7304 8.52404 85.5384 8.22004C85.3544 7.91604 85.2624 7.54804 85.2624 7.11604C85.2624 6.69204 85.3584 6.33204 85.5504 6.03604C85.7504 5.74004 86.0344 5.51604 86.4024 5.36404C86.7784 5.20404 87.2304 5.12404 87.7584 5.12404H89.6184V5.80804H87.6984C87.1944 5.80804 86.8064 5.93204 86.5344 6.18004C86.2704 6.42004 86.1384 6.73604 86.1384 7.12804C86.1384 7.52804 86.2784 7.84804 86.5584 8.08804C86.8384 8.32004 87.2184 8.43604 87.6984 8.43604C87.9944 8.43604 88.2784 8.38404 88.5504 8.28004C88.8224 8.16804 89.0504 7.98404 89.2344 7.72804C89.4184 7.46404 89.5184 7.10404 89.5344 6.64804L89.7984 7.02004C89.7664 7.49204 89.6544 7.88804 89.4624 8.20804C89.2704 8.52004 89.0104 8.75604 88.6824 8.91604C88.3544 9.07604 87.9704 9.15604 87.5304 9.15604ZM92.9824 8.98804V2.64004H93.8704V8.98804H92.9824ZM91.9624 3.36004V2.64004H93.8704V3.36004H91.9624ZM93.1744 1.46404C92.9584 1.46404 92.7944 1.40804 92.6824 1.29604C92.5784 1.17604 92.5264 1.02804 92.5264 0.852037C92.5264 0.676037 92.5784 0.532037 92.6824 0.420037C92.7944 0.300037 92.9584 0.240037 93.1744 0.240037C93.3904 0.240037 93.5504 0.300037 93.6544 0.420037C93.7584 0.532037 93.8104 0.676037 93.8104 0.852037C93.8104 1.02804 93.7584 1.17604 93.6544 1.29604C93.5504 1.40804 93.3904 1.46404 93.1744 1.46404ZM96.2924 8.98804V0.228037H97.1924V8.98804H96.2924ZM95.3684 0.960037V0.228037H97.1924V0.960037H95.3684ZM99.3453 8.98804V7.80004H100.473V8.98804H99.3453ZM105.108 9.19204C104.572 9.19204 104.104 9.10004 103.704 8.91604C103.312 8.72404 102.984 8.46804 102.72 8.14804C102.456 7.82004 102.256 7.46004 102.12 7.06804C101.992 6.67604 101.928 6.28004 101.928 5.88004V5.71204C101.928 5.30404 101.992 4.90804 102.12 4.52404C102.256 4.13204 102.456 3.78004 102.72 3.46804C102.984 3.14804 103.312 2.89604 103.704 2.71204C104.104 2.52004 104.564 2.42404 105.084 2.42404C105.612 2.42404 106.08 2.52004 106.488 2.71204C106.904 2.90404 107.24 3.17604 107.496 3.52804C107.752 3.88004 107.904 4.29604 107.952 4.77604H107.088C107.016 4.33604 106.808 3.97204 106.464 3.68404C106.128 3.38804 105.668 3.24004 105.084 3.24004C104.58 3.24004 104.16 3.35604 103.824 3.58804C103.496 3.81204 103.248 4.12004 103.08 4.51204C102.912 4.89604 102.828 5.32404 102.828 5.79604C102.828 6.26004 102.912 6.69204 103.08 7.09204C103.248 7.48404 103.5 7.80004 103.836 8.04004C104.172 8.27204 104.596 8.38804 105.108 8.38804C105.5 8.38804 105.84 8.32004 106.128 8.18404C106.424 8.04004 106.66 7.84804 106.836 7.60804C107.02 7.36804 107.128 7.10404 107.16 6.81604H108.024C107.992 7.29604 107.84 7.71604 107.568 8.07604C107.304 8.42804 106.96 8.70404 106.536 8.90404C106.112 9.09604 105.636 9.19204 105.108 9.19204ZM112.518 9.19204C111.974 9.19204 111.494 9.10004 111.078 8.91604C110.67 8.72404 110.322 8.47204 110.034 8.16004C109.754 7.84004 109.538 7.48404 109.386 7.09204C109.242 6.70004 109.17 6.30004 109.17 5.89204V5.72404C109.17 5.31604 109.246 4.91604 109.398 4.52404C109.55 4.12404 109.77 3.76804 110.058 3.45604C110.346 3.14404 110.694 2.89604 111.102 2.71204C111.518 2.52004 111.99 2.42404 112.518 2.42404C113.054 2.42404 113.526 2.52004 113.934 2.71204C114.35 2.89604 114.702 3.14404 114.99 3.45604C115.278 3.76804 115.494 4.12404 115.638 4.52404C115.79 4.91604 115.866 5.31604 115.866 5.72404V5.89204C115.866 6.30004 115.794 6.70004 115.65 7.09204C115.506 7.48404 115.29 7.84004 115.002 8.16004C114.722 8.47204 114.374 8.72404 113.958 8.91604C113.542 9.10004 113.062 9.19204 112.518 9.19204ZM112.518 8.38804C113.046 8.38804 113.49 8.27204 113.85 8.04004C114.218 7.80004 114.498 7.48804 114.69 7.10404C114.882 6.71204 114.978 6.28004 114.978 5.80804C114.978 5.32804 114.878 4.89604 114.678 4.51204C114.486 4.12004 114.206 3.81204 113.838 3.58804C113.47 3.35604 113.03 3.24004 112.518 3.24004C112.014 3.24004 111.578 3.35604 111.21 3.58804C110.842 3.81204 110.558 4.12004 110.358 4.51204C110.166 4.89604 110.07 5.32804 110.07 5.80804C110.07 6.28004 110.166 6.71204 110.358 7.10404C110.55 7.48804 110.826 7.80004 111.186 8.04004C111.554 8.27204 111.998 8.38804 112.518 8.38804ZM117.701 8.98804V2.62804H118.421V5.30404H118.277C118.277 4.72004 118.357 4.21604 118.517 3.79204C118.685 3.36804 118.933 3.04004 119.261 2.80804C119.589 2.56804 120.005 2.44804 120.509 2.44804H120.545C121.049 2.44804 121.465 2.56404 121.793 2.79604C122.121 3.02804 122.365 3.35604 122.525 3.78004C122.685 4.20404 122.765 4.71204 122.765 5.30404H122.477C122.477 4.72004 122.557 4.21604 122.717 3.79204C122.885 3.36804 123.133 3.04004 123.461 2.80804C123.797 2.56804 124.217 2.44804 124.721 2.44804H124.757C125.261 2.44804 125.677 2.56404 126.005 2.79604C126.341 3.02804 126.589 3.35604 126.749 3.78004C126.917 4.20404 127.001 4.71204 127.001 5.30404V8.98804H126.101V5.10004C126.101 4.54004 125.965 4.09604 125.693 3.76804C125.421 3.44004 125.029 3.27604 124.517 3.27604C123.989 3.27604 123.569 3.44804 123.257 3.79204C122.953 4.12804 122.801 4.58404 122.801 5.16004V8.98804H121.901V5.10004C121.901 4.54004 121.765 4.09604 121.493 3.76804C121.221 3.44004 120.829 3.27604 120.317 3.27604C119.789 3.27604 119.369 3.44804 119.057 3.79204C118.753 4.12804 118.601 4.58404 118.601 5.16004V8.98804H117.701Z" fill="#717171"/>
</svg>
