<svg width="84" height="47" viewBox="0 0 84 47" fill="none" xmlns="http://www.w3.org/2000/svg">
<g filter="url(#filter0_ddiiii_1057_885)">
<rect x="3" y="3" width="78" height="41" rx="10" fill="#ECECEC"/>
<rect x="3.5" y="3.5" width="77" height="40" rx="9.5" stroke="url(#paint0_radial_1057_885)"/>
<path d="M17.44 30V15.34H18.52V30H17.44ZM26.56 30L21.4 23.6H22.7L27.88 30H26.56ZM18.02 24.22V23.24H21.94C22.78 23.24 23.4533 23.0867 23.96 22.78C24.48 22.4733 24.86 22.06 25.1 21.54C25.3533 21.0067 25.48 20.42 25.48 19.78C25.48 19.14 25.3533 18.56 25.1 18.04C24.86 17.5067 24.48 17.0867 23.96 16.78C23.4533 16.4733 22.78 16.32 21.94 16.32H18.02V15.34H21.8C22.8667 15.34 23.7533 15.5267 24.46 15.9C25.1667 16.26 25.6933 16.7667 26.04 17.42C26.3867 18.06 26.56 18.8067 26.56 19.66V19.9C26.56 20.7533 26.3867 21.5067 26.04 22.16C25.6933 22.8 25.1667 23.3067 24.46 23.68C23.7533 24.04 22.8667 24.22 21.8 24.22H18.02ZM34.058 30.3C32.7913 30.3 31.8313 29.8933 31.178 29.08C30.5246 28.2667 30.198 27.1667 30.198 25.78V19.5H31.278V26.02C31.278 26.9933 31.5313 27.7867 32.038 28.4C32.558 29 33.3046 29.3 34.278 29.3C35.2646 29.3 36.0446 28.9867 36.618 28.36C37.2046 27.7333 37.498 26.9133 37.498 25.9V19.5H38.558V30H37.718V25.76H37.958C37.958 26.6533 37.8113 27.4467 37.518 28.14C37.238 28.82 36.818 29.3533 36.258 29.74C35.698 30.1133 34.9846 30.3 34.118 30.3H34.058ZM42.7841 30V15.4H43.8441V30H42.7841ZM41.2041 16.3V15.4H43.8441V16.3H41.2041ZM52.2384 30.34C51.3451 30.34 50.5718 30.1867 49.9184 29.88C49.2651 29.56 48.7318 29.14 48.3184 28.62C47.9051 28.0867 47.5918 27.4933 47.3784 26.84C47.1784 26.1733 47.0784 25.5 47.0784 24.82V24.62C47.0784 23.9267 47.1784 23.26 47.3784 22.62C47.5918 21.98 47.9051 21.4 48.3184 20.88C48.7451 20.3467 49.2718 19.9333 49.8984 19.64C50.5384 19.3333 51.2784 19.18 52.1184 19.18C53.1851 19.18 54.0784 19.42 54.7984 19.9C55.5318 20.3667 56.0851 20.98 56.4584 21.74C56.8318 22.5 57.0184 23.3 57.0184 24.14V24.86H47.5784V23.98H56.3184L55.9984 24.38C55.9984 23.5667 55.8451 22.84 55.5384 22.2C55.2451 21.56 54.8051 21.06 54.2184 20.7C53.6451 20.3267 52.9451 20.14 52.1184 20.14C51.2251 20.14 50.4784 20.3467 49.8784 20.76C49.2784 21.1733 48.8251 21.7267 48.5184 22.42C48.2251 23.1133 48.0784 23.88 48.0784 24.72C48.0784 25.56 48.2251 26.3333 48.5184 27.04C48.8251 27.7333 49.2851 28.3 49.8984 28.74C50.5118 29.1667 51.2918 29.38 52.2384 29.38C53.2518 29.38 54.0651 29.1467 54.6784 28.68C55.3051 28.2133 55.6851 27.6533 55.8184 27H56.8584C56.7118 27.6533 56.4318 28.2333 56.0184 28.74C55.6051 29.2467 55.0784 29.64 54.4384 29.92C53.8118 30.2 53.0784 30.34 52.2384 30.34ZM63.2078 30.3C61.9011 30.3 60.8945 30 60.1878 29.4C59.4945 28.8 59.1411 28.0333 59.1278 27.1H60.1678C60.1678 27.7 60.4011 28.2267 60.8678 28.68C61.3478 29.12 62.1278 29.34 63.2078 29.34C64.2611 29.34 65.0345 29.12 65.5278 28.68C66.0211 28.2267 66.2678 27.6933 66.2678 27.08C66.2678 26.48 66.0411 26.02 65.5878 25.7C65.1478 25.38 64.5478 25.18 63.7878 25.1L62.5478 24.96C61.6278 24.8533 60.8945 24.5667 60.3478 24.1C59.8145 23.6333 59.5478 23 59.5478 22.2C59.5478 21.6267 59.6945 21.1133 59.9878 20.66C60.2811 20.2067 60.7011 19.8467 61.2478 19.58C61.8078 19.3133 62.4611 19.18 63.2078 19.18C64.3011 19.18 65.1811 19.4467 65.8478 19.98C66.5278 20.5133 66.8745 21.24 66.8878 22.16H65.8478C65.8611 21.5867 65.6345 21.1067 65.1678 20.72C64.7145 20.3333 64.0611 20.14 63.2078 20.14C62.3145 20.14 61.6478 20.3467 61.2078 20.76C60.7811 21.1733 60.5678 21.66 60.5678 22.22C60.5678 22.6867 60.7345 23.0867 61.0678 23.42C61.4145 23.7533 61.9345 23.96 62.6278 24.04L63.8678 24.18C64.8545 24.2733 65.6678 24.56 66.3078 25.04C66.9611 25.52 67.2878 26.2067 67.2878 27.1C67.2878 27.7 67.1211 28.24 66.7878 28.72C66.4678 29.2 66.0078 29.5867 65.4078 29.88C64.8078 30.16 64.0745 30.3 63.2078 30.3Z" fill="#717171"/>
</g>
<defs>
<filter id="filter0_ddiiii_1057_885" x="0" y="0" width="84" height="47" filterUnits="userSpaceOnUse" color-interpolation-filters="sRGB">
<feFlood flood-opacity="0" result="BackgroundImageFix"/>
<feColorMatrix in="SourceAlpha" type="matrix" values="0 0 0 0 0 0 0 0 0 0 0 0 0 0 0 0 0 0 127 0" result="hardAlpha"/>
<feOffset dx="-1" dy="-1"/>
<feGaussianBlur stdDeviation="1"/>
<feColorMatrix type="matrix" values="0 0 0 0 0.788235 0 0 0 0 0.788235 0 0 0 0 0.788235 0 0 0 0.5 0"/>
<feBlend mode="normal" in2="BackgroundImageFix" result="effect1_dropShadow_1057_885"/>
<feColorMatrix in="SourceAlpha" type="matrix" values="0 0 0 0 0 0 0 0 0 0 0 0 0 0 0 0 0 0 127 0" result="hardAlpha"/>
<feOffset dx="1" dy="1"/>
<feGaussianBlur stdDeviation="1"/>
<feColorMatrix type="matrix" values="0 0 0 0 1 0 0 0 0 1 0 0 0 0 1 0 0 0 0.3 0"/>
<feBlend mode="normal" in2="effect1_dropShadow_1057_885" result="effect2_dropShadow_1057_885"/>
<feBlend mode="normal" in="SourceGraphic" in2="effect2_dropShadow_1057_885" result="shape"/>
<feColorMatrix in="SourceAlpha" type="matrix" values="0 0 0 0 0 0 0 0 0 0 0 0 0 0 0 0 0 0 127 0" result="hardAlpha"/>
<feOffset dx="1" dy="1"/>
<feGaussianBlur stdDeviation="1.5"/>
<feComposite in2="hardAlpha" operator="arithmetic" k2="-1" k3="1"/>
<feColorMatrix type="matrix" values="0 0 0 0 0.788235 0 0 0 0 0.788235 0 0 0 0 0.788235 0 0 0 0.9 0"/>
<feBlend mode="normal" in2="shape" result="effect3_innerShadow_1057_885"/>
<feColorMatrix in="SourceAlpha" type="matrix" values="0 0 0 0 0 0 0 0 0 0 0 0 0 0 0 0 0 0 127 0" result="hardAlpha"/>
<feOffset dx="-1" dy="-1"/>
<feGaussianBlur stdDeviation="1"/>
<feComposite in2="hardAlpha" operator="arithmetic" k2="-1" k3="1"/>
<feColorMatrix type="matrix" values="0 0 0 0 1 0 0 0 0 1 0 0 0 0 1 0 0 0 0.9 0"/>
<feBlend mode="normal" in2="effect3_innerShadow_1057_885" result="effect4_innerShadow_1057_885"/>
<feColorMatrix in="SourceAlpha" type="matrix" values="0 0 0 0 0 0 0 0 0 0 0 0 0 0 0 0 0 0 127 0" result="hardAlpha"/>
<feOffset dx="1" dy="-1"/>
<feGaussianBlur stdDeviation="1"/>
<feComposite in2="hardAlpha" operator="arithmetic" k2="-1" k3="1"/>
<feColorMatrix type="matrix" values="0 0 0 0 0.788235 0 0 0 0 0.788235 0 0 0 0 0.788235 0 0 0 0.2 0"/>
<feBlend mode="normal" in2="effect4_innerShadow_1057_885" result="effect5_innerShadow_1057_885"/>
<feColorMatrix in="SourceAlpha" type="matrix" values="0 0 0 0 0 0 0 0 0 0 0 0 0 0 0 0 0 0 127 0" result="hardAlpha"/>
<feOffset dx="-1" dy="1"/>
<feGaussianBlur stdDeviation="1"/>
<feComposite in2="hardAlpha" operator="arithmetic" k2="-1" k3="1"/>
<feColorMatrix type="matrix" values="0 0 0 0 0.788235 0 0 0 0 0.788235 0 0 0 0 0.788235 0 0 0 0.2 0"/>
<feBlend mode="normal" in2="effect5_innerShadow_1057_885" result="effect6_innerShadow_1057_885"/>
</filter>
<radialGradient id="paint0_radial_1057_885" cx="0" cy="0" r="1" gradientUnits="userSpaceOnUse" gradientTransform="translate(42 23.5) rotate(90) scale(20.5 39)">
<stop stop-color="#5A69EA"/>
<stop offset="1" stop-color="#BF8BCA"/>
</radialGradient>
</defs>
</svg>
