<svg width="165" height="21" viewBox="0 0 165 21" fill="none" xmlns="http://www.w3.org/2000/svg">
<path d="M0.00017187 20.4399L7.53217 -5.91278e-05H11.3402L19.1242 20.4399H16.9402L9.68817 1.34394L10.8362 1.93194H7.89617L9.10017 1.34394L2.12817 20.4399H0.00017187ZM4.03217 13.9439L4.73217 12.0119H14.2242L14.9522 13.9439H4.03217ZM27.7521 20.8599C25.9788 20.8599 24.6254 20.2906 23.6921 19.1519C22.7588 17.9946 22.2921 16.3893 22.2921 14.3359V5.59994H24.3641V14.7559C24.3641 16.0439 24.7001 17.0706 25.3721 17.8359C26.0628 18.5826 27.0148 18.9559 28.2281 18.9559C29.4974 18.9559 30.5054 18.5546 31.2521 17.7519C32.0174 16.9493 32.4001 15.8759 32.4001 14.5319V5.59994H34.5001V20.4399H32.8201V14.2519H33.1561C33.1561 15.6333 32.9601 16.8186 32.5681 17.8079C32.1761 18.7786 31.5881 19.5346 30.8041 20.0759C30.0201 20.5986 29.0308 20.8599 27.8361 20.8599H27.7521ZM45.3674 20.6079C44.3407 20.6079 43.4541 20.4586 42.7074 20.1599C41.9607 19.8613 41.3821 19.3573 40.9714 18.6479C40.5607 17.9199 40.3554 16.9493 40.3554 15.7359V0.95194H42.3714V16.0439C42.3714 16.9026 42.6047 17.5653 43.0714 18.0319C43.5381 18.4799 44.2007 18.7039 45.0594 18.7039H47.7194V20.6079H45.3674ZM37.6954 7.22394V5.62794H47.7194V7.22394H37.6954ZM58.2758 20.9159C57.0065 20.9159 55.8865 20.7013 54.9158 20.2719C53.9638 19.8239 53.1518 19.2359 52.4798 18.5079C51.8265 17.7613 51.3225 16.9306 50.9678 16.0159C50.6318 15.1013 50.4638 14.1679 50.4638 13.2159V12.8239C50.4638 11.8719 50.6412 10.9386 50.9958 10.0239C51.3505 9.09061 51.8638 8.25994 52.5358 7.53194C53.2078 6.80394 54.0198 6.22527 54.9718 5.79594C55.9425 5.34794 57.0438 5.12394 58.2758 5.12394C59.5265 5.12394 60.6278 5.34794 61.5798 5.79594C62.5505 6.22527 63.3718 6.80394 64.0438 7.53194C64.7158 8.25994 65.2198 9.09061 65.5558 10.0239C65.9105 10.9386 66.0878 11.8719 66.0878 12.8239V13.2159C66.0878 14.1679 65.9198 15.1013 65.5838 16.0159C65.2478 16.9306 64.7438 17.7613 64.0718 18.5079C63.4185 19.2359 62.6065 19.8239 61.6358 20.2719C60.6652 20.7013 59.5452 20.9159 58.2758 20.9159ZM58.2758 19.0399C59.5078 19.0399 60.5438 18.7693 61.3838 18.2279C62.2425 17.6679 62.8958 16.9399 63.3438 16.0439C63.7918 15.1293 64.0158 14.1213 64.0158 13.0199C64.0158 11.8999 63.7825 10.8919 63.3158 9.99594C62.8678 9.08127 62.2145 8.36261 61.3558 7.83994C60.4972 7.29861 59.4705 7.02794 58.2758 7.02794C57.0998 7.02794 56.0825 7.29861 55.2238 7.83994C54.3652 8.36261 53.7025 9.08127 53.2358 9.99594C52.7878 10.8919 52.5638 11.8999 52.5638 13.0199C52.5638 14.1213 52.7878 15.1293 53.2358 16.0439C53.6838 16.9399 54.3278 17.6679 55.1678 18.2279C56.0265 18.7693 57.0625 19.0399 58.2758 19.0399ZM70.3703 20.4399V5.59994H72.0503V11.8439H71.7143C71.7143 10.4813 71.901 9.30527 72.2743 8.31594C72.6663 7.32661 73.245 6.56127 74.0103 6.01994C74.7756 5.45994 75.7463 5.17994 76.9223 5.17994H77.0063C78.1823 5.17994 79.153 5.45061 79.9183 5.99194C80.6836 6.53327 81.253 7.29861 81.6263 8.28794C81.9996 9.27727 82.1863 10.4626 82.1863 11.8439H81.5143C81.5143 10.4813 81.701 9.30527 82.0743 8.31594C82.4663 7.32661 83.045 6.56127 83.8103 6.01994C84.5943 5.45994 85.5743 5.17994 86.7503 5.17994H86.8343C88.0103 5.17994 88.981 5.45061 89.7463 5.99194C90.5303 6.53327 91.109 7.29861 91.4823 8.28794C91.8743 9.27727 92.0703 10.4626 92.0703 11.8439V20.4399H89.9703V11.3679C89.9703 10.0613 89.653 9.02527 89.0183 8.25994C88.3836 7.49461 87.469 7.11194 86.2743 7.11194C85.0423 7.11194 84.0623 7.51327 83.3343 8.31594C82.625 9.09994 82.2703 10.1639 82.2703 11.5079V20.4399H80.1703V11.3679C80.1703 10.0613 79.853 9.02527 79.2183 8.25994C78.5836 7.49461 77.669 7.11194 76.4743 7.11194C75.2423 7.11194 74.2623 7.51327 73.5343 8.31594C72.825 9.09994 72.4703 10.1639 72.4703 11.5079V20.4399H70.3703ZM106.32 20.4399V15.9879H105.984V10.7239C105.984 9.62261 105.695 8.78261 105.116 8.20394C104.537 7.60661 103.641 7.30794 102.428 7.30794C101.868 7.30794 101.299 7.31727 100.72 7.33594C100.16 7.35461 99.6186 7.38261 99.0959 7.41994C98.5919 7.43861 98.1439 7.46661 97.7519 7.50394V5.65594C98.1626 5.61861 98.5826 5.58127 99.0119 5.54394C99.4412 5.50661 99.8799 5.48794 100.328 5.48794C100.795 5.46927 101.243 5.45994 101.672 5.45994C103.184 5.45994 104.397 5.64661 105.312 6.01994C106.245 6.39327 106.927 6.98127 107.356 7.78394C107.785 8.56794 108 9.61327 108 10.9199V20.4399H106.32ZM101.308 20.8319C100.263 20.8319 99.3386 20.6453 98.5359 20.2719C97.7332 19.8986 97.1079 19.3573 96.6599 18.6479C96.2306 17.9386 96.0159 17.0799 96.0159 16.0719C96.0159 15.0826 96.2399 14.2426 96.6879 13.5519C97.1546 12.8613 97.8172 12.3386 98.6759 11.9839C99.5532 11.6106 100.608 11.4239 101.84 11.4239H106.18V13.0199H101.7C100.524 13.0199 99.6186 13.3093 98.9839 13.8879C98.3679 14.4479 98.0599 15.1853 98.0599 16.0999C98.0599 17.0333 98.3866 17.7799 99.0399 18.3399C99.6932 18.8813 100.58 19.1519 101.7 19.1519C102.391 19.1519 103.053 19.0306 103.688 18.7879C104.323 18.5266 104.855 18.0973 105.284 17.4999C105.713 16.8839 105.947 16.0439 105.984 14.9799L106.6 15.8479C106.525 16.9493 106.264 17.8733 105.816 18.6199C105.368 19.3479 104.761 19.8986 103.996 20.2719C103.231 20.6453 102.335 20.8319 101.308 20.8319ZM118.621 20.6079C117.595 20.6079 116.708 20.4586 115.961 20.1599C115.215 19.8613 114.636 19.3573 114.225 18.6479C113.815 17.9199 113.609 16.9493 113.609 15.7359V0.95194H115.625V16.0439C115.625 16.9026 115.859 17.5653 116.325 18.0319C116.792 18.4799 117.455 18.7039 118.313 18.7039H120.973V20.6079H118.621ZM110.949 7.22394V5.62794H120.973V7.22394H110.949ZM125.814 20.4399V5.62794H127.886V20.4399H125.814ZM123.434 7.30794V5.62794H127.886V7.30794H123.434ZM126.262 2.88394C125.758 2.88394 125.376 2.75327 125.114 2.49194C124.872 2.21194 124.75 1.86661 124.75 1.45594C124.75 1.04527 124.872 0.709273 125.114 0.44794C125.376 0.16794 125.758 0.0279405 126.262 0.0279405C126.766 0.0279405 127.14 0.16794 127.382 0.44794C127.625 0.709273 127.746 1.04527 127.746 1.45594C127.746 1.86661 127.625 2.21194 127.382 2.49194C127.14 2.75327 126.766 2.88394 126.262 2.88394ZM140.034 20.9159C138.764 20.9159 137.644 20.7013 136.674 20.2719C135.722 19.8239 134.91 19.2359 134.238 18.5079C133.584 17.7613 133.08 16.9306 132.726 16.0159C132.39 15.1013 132.222 14.1679 132.222 13.2159V12.8239C132.222 11.8719 132.399 10.9386 132.754 10.0239C133.108 9.09061 133.622 8.25994 134.294 7.53194C134.966 6.80394 135.778 6.22527 136.73 5.79594C137.7 5.34794 138.802 5.12394 140.034 5.12394C141.284 5.12394 142.386 5.34794 143.338 5.79594C144.308 6.22527 145.13 6.80394 145.802 7.53194C146.474 8.25994 146.978 9.09061 147.314 10.0239C147.668 10.9386 147.846 11.8719 147.846 12.8239V13.2159C147.846 14.1679 147.678 15.1013 147.342 16.0159C147.006 16.9306 146.502 17.7613 145.83 18.5079C145.176 19.2359 144.364 19.8239 143.394 20.2719C142.423 20.7013 141.303 20.9159 140.034 20.9159ZM140.034 19.0399C141.266 19.0399 142.302 18.7693 143.142 18.2279C144 17.6679 144.654 16.9399 145.102 16.0439C145.55 15.1293 145.774 14.1213 145.774 13.0199C145.774 11.8999 145.54 10.8919 145.074 9.99594C144.626 9.08127 143.972 8.36261 143.114 7.83994C142.255 7.29861 141.228 7.02794 140.034 7.02794C138.858 7.02794 137.84 7.29861 136.982 7.83994C136.123 8.36261 135.46 9.08127 134.994 9.99594C134.546 10.8919 134.322 11.8999 134.322 13.0199C134.322 14.1213 134.546 15.1293 134.994 16.0439C135.442 16.9399 136.086 17.6679 136.926 18.2279C137.784 18.7693 138.82 19.0399 140.034 19.0399ZM152.128 20.4399V5.62794H153.808V11.8439H153.472C153.472 10.4626 153.677 9.27727 154.088 8.28794C154.499 7.29861 155.115 6.53327 155.936 5.99194C156.757 5.45061 157.793 5.17994 159.044 5.17994H159.128C160.995 5.17994 162.385 5.76794 163.3 6.94394C164.215 8.10127 164.672 9.73461 164.672 11.8439V20.4399H162.6V11.3959C162.6 10.1079 162.245 9.07194 161.536 8.28794C160.827 7.50394 159.837 7.11194 158.568 7.11194C157.261 7.11194 156.207 7.52261 155.404 8.34394C154.62 9.14661 154.228 10.2106 154.228 11.5359V20.4399H152.128Z" fill="#404040"/>
</svg>
