<svg width="557" height="53" viewBox="0 0 557 53" fill="none" xmlns="http://www.w3.org/2000/svg">
<path d="M2.35198 17.76V16.56H7.53598C8.83198 16.56 9.95198 16.352 10.896 15.936C11.856 15.52 12.648 14.952 13.272 14.232C13.896 13.512 14.36 12.696 14.664 11.784C14.984 10.856 15.144 9.89599 15.144 8.90399C15.144 7.86399 14.984 6.88799 14.664 5.97599C14.36 5.06399 13.888 4.25599 13.248 3.55199C12.608 2.84799 11.816 2.29599 10.872 1.89599C9.92798 1.49599 8.81598 1.29599 7.53598 1.29599H2.35198V0.0959873H7.39198C8.94398 0.0959873 10.288 0.343987 11.424 0.839988C12.56 1.31999 13.496 1.96799 14.232 2.78399C14.984 3.59999 15.544 4.51999 15.912 5.54399C16.28 6.56799 16.464 7.62399 16.464 8.71199V9.09599C16.464 10.136 16.288 11.176 15.936 12.216C15.584 13.24 15.032 14.168 14.28 15C13.544 15.832 12.608 16.504 11.472 17.016C10.336 17.512 8.97598 17.76 7.39198 17.76H2.35198ZM1.51198 17.76V0.0959873H2.80798V17.76H1.51198ZM25.3873 18.096C24.3153 18.096 23.3873 17.912 22.6033 17.544C21.8193 17.16 21.1793 16.656 20.6833 16.032C20.1873 15.392 19.8113 14.68 19.5553 13.896C19.3153 13.096 19.1953 12.288 19.1953 11.472V11.232C19.1953 10.4 19.3153 9.59999 19.5553 8.83199C19.8113 8.06399 20.1873 7.36799 20.6833 6.74399C21.1953 6.10399 21.8273 5.60799 22.5793 5.25599C23.3473 4.88799 24.2353 4.70399 25.2433 4.70399C26.5233 4.70399 27.5953 4.99199 28.4593 5.56799C29.3393 6.12799 30.0033 6.86399 30.4513 7.77599C30.8993 8.68799 31.1233 9.64799 31.1233 10.656V11.52H19.7953V10.464H30.2833L29.8993 10.944C29.8993 9.96799 29.7153 9.09599 29.3473 8.32799C28.9953 7.55999 28.4673 6.95999 27.7633 6.52799C27.0753 6.07999 26.2353 5.85599 25.2433 5.85599C24.1713 5.85599 23.2753 6.10399 22.5553 6.59999C21.8353 7.09599 21.2913 7.75999 20.9233 8.59199C20.5713 9.42399 20.3953 10.344 20.3953 11.352C20.3953 12.36 20.5713 13.288 20.9233 14.136C21.2913 14.968 21.8433 15.648 22.5793 16.176C23.3153 16.688 24.2513 16.944 25.3873 16.944C26.6033 16.944 27.5793 16.664 28.3153 16.104C29.0673 15.544 29.5233 14.872 29.6833 14.088H30.9313C30.7553 14.872 30.4193 15.568 29.9233 16.176C29.4273 16.784 28.7953 17.256 28.0273 17.592C27.2753 17.928 26.3953 18.096 25.3873 18.096ZM35.1425 17.688V3.64799C35.1425 2.39999 35.4545 1.47999 36.0785 0.887987C36.7185 0.295987 37.6785 -1.28746e-05 38.9585 -1.28746e-05H40.4225V1.10399H38.6705C37.9345 1.10399 37.3665 1.30399 36.9665 1.70399C36.5825 2.08799 36.3905 2.63199 36.3905 3.33599V17.688H35.1425ZM33.1985 6.14399V5.13599H40.5425V6.14399H33.1985ZM43.9985 17.688V5.08799H45.2705V17.688H43.9985ZM41.9345 6.19199V5.08799H45.2705V6.19199H41.9345ZM44.1185 2.44799C43.7825 2.44799 43.5185 2.35999 43.3265 2.18399C43.1505 1.99199 43.0625 1.75199 43.0625 1.46399C43.0625 1.15999 43.1505 0.911987 43.3265 0.719988C43.5185 0.527987 43.7825 0.431987 44.1185 0.431987C44.4705 0.431987 44.7345 0.527987 44.9105 0.719988C45.0865 0.911987 45.1745 1.15999 45.1745 1.46399C45.1745 1.75199 45.0865 1.99199 44.9105 2.18399C44.7345 2.35999 44.4705 2.44799 44.1185 2.44799ZM50.2513 17.688V5.08799H51.2593V10.248H50.9713C50.9713 9.14399 51.1473 8.18399 51.4993 7.36799C51.8673 6.53599 52.4033 5.89599 53.1073 5.44799C53.8273 4.98399 54.7153 4.75199 55.7713 4.75199H55.8433C57.4273 4.75199 58.6193 5.24799 59.4193 6.23999C60.2193 7.21599 60.6193 8.55199 60.6193 10.248V17.688H59.3233V9.95999C59.3233 8.75999 58.9953 7.79199 58.3393 7.05599C57.6993 6.30399 56.7713 5.92799 55.5553 5.92799C54.3233 5.92799 53.3393 6.31199 52.6033 7.07999C51.8833 7.83199 51.5233 8.83199 51.5233 10.08V17.688H50.2513ZM66.0639 17.688V5.08799H67.3599V17.688H66.0639ZM63.9759 6.19199V5.08799H67.3599V6.19199H63.9759ZM66.1839 2.44799C65.8479 2.44799 65.5919 2.35999 65.4159 2.18399C65.2399 1.99199 65.1519 1.75199 65.1519 1.46399C65.1519 1.15999 65.2399 0.911987 65.4159 0.719988C65.5919 0.527987 65.8559 0.431987 66.2079 0.431987C66.5439 0.431987 66.7999 0.527987 66.9759 0.719988C67.1519 0.911987 67.2399 1.15999 67.2399 1.46399C67.2399 1.75199 67.1519 1.99199 66.9759 2.18399C66.8159 2.35999 66.5519 2.44799 66.1839 2.44799ZM72.3294 17.688V5.08799H73.3374V10.248H73.0494C73.0494 9.14399 73.2254 8.18399 73.5774 7.36799C73.9454 6.53599 74.4814 5.89599 75.1854 5.44799C75.9054 4.98399 76.7934 4.75199 77.8494 4.75199H77.9214C79.5054 4.75199 80.6974 5.24799 81.4974 6.23999C82.2974 7.21599 82.6974 8.55199 82.6974 10.248V17.688H81.4014V9.95999C81.4014 8.75999 81.0734 7.79199 80.4174 7.05599C79.7774 6.30399 78.8494 5.92799 77.6334 5.92799C76.4014 5.92799 75.4174 6.31199 74.6814 7.07999C73.9614 7.83199 73.6014 8.83199 73.6014 10.08V17.688H72.3294ZM92.27 22.608C91.71 22.608 91.126 22.584 90.518 22.536C89.91 22.488 89.326 22.416 88.766 22.32V21.192C89.342 21.288 89.942 21.36 90.566 21.408C91.206 21.472 91.806 21.504 92.366 21.504C93.646 21.504 94.654 21.336 95.39 21C96.126 20.68 96.654 20.144 96.974 19.392C97.294 18.656 97.454 17.672 97.454 16.44V13.848L98.03 12.096C98.014 13.248 97.766 14.264 97.286 15.144C96.822 16.024 96.174 16.72 95.342 17.232C94.51 17.728 93.534 17.976 92.414 17.976C91.47 17.976 90.622 17.8 89.87 17.448C89.134 17.08 88.51 16.592 87.998 15.984C87.486 15.36 87.094 14.656 86.822 13.872C86.55 13.072 86.414 12.256 86.414 11.424V11.184C86.414 10.368 86.55 9.57599 86.822 8.80799C87.094 8.02399 87.486 7.32799 87.998 6.71999C88.51 6.09599 89.142 5.60799 89.894 5.25599C90.646 4.88799 91.502 4.70399 92.462 4.70399C93.63 4.70399 94.638 4.96799 95.486 5.49599C96.334 6.02399 96.982 6.73599 97.43 7.63199C97.894 8.52799 98.134 9.51999 98.15 10.608L97.67 9.95999V5.08799H98.702V16.44C98.702 17.944 98.494 19.144 98.078 20.04C97.662 20.952 96.982 21.608 96.038 22.008C95.094 22.408 93.838 22.608 92.27 22.608ZM92.582 16.8C93.542 16.8 94.39 16.592 95.126 16.176C95.862 15.744 96.438 15.16 96.854 14.424C97.27 13.672 97.478 12.824 97.478 11.88V10.656C97.478 9.74399 97.27 8.92799 96.854 8.20799C96.454 7.47199 95.886 6.88799 95.15 6.45599C94.414 6.02399 93.566 5.80799 92.606 5.80799C91.55 5.80799 90.654 6.06399 89.918 6.57599C89.198 7.08799 88.646 7.75999 88.262 8.59199C87.878 9.42399 87.686 10.328 87.686 11.304C87.686 12.312 87.886 13.24 88.286 14.088C88.686 14.92 89.246 15.584 89.966 16.08C90.702 16.56 91.574 16.8 92.582 16.8ZM366.299 17.688V13.92H366.059V9.28799C366.059 8.27999 365.795 7.50399 365.267 6.95999C364.739 6.39999 363.867 6.11999 362.651 6.11999C362.219 6.11999 361.779 6.13599 361.331 6.16799C360.883 6.18399 360.459 6.20799 360.059 6.23999C359.659 6.25599 359.299 6.28799 358.979 6.33599V5.18399C359.299 5.13599 359.635 5.09599 359.987 5.06399C360.355 5.03199 360.723 5.00799 361.091 4.99199C361.459 4.97599 361.811 4.96799 362.147 4.96799C363.411 4.96799 364.419 5.13599 365.171 5.47199C365.923 5.79199 366.467 6.28799 366.803 6.95999C367.139 7.61599 367.307 8.45599 367.307 9.47999V17.688H366.299ZM361.907 18.024C361.059 18.024 360.299 17.872 359.627 17.568C358.955 17.264 358.419 16.816 358.019 16.224C357.635 15.632 357.443 14.912 357.443 14.064C357.443 13.248 357.627 12.552 357.995 11.976C358.379 11.4 358.923 10.96 359.627 10.656C360.347 10.352 361.211 10.2 362.219 10.2H366.179V11.232H362.099C361.011 11.232 360.171 11.496 359.579 12.024C359.003 12.536 358.715 13.216 358.715 14.064C358.715 14.96 359.027 15.672 359.651 16.2C360.275 16.712 361.091 16.968 362.099 16.968C362.723 16.968 363.331 16.848 363.923 16.608C364.515 16.368 365.011 15.968 365.411 15.408C365.811 14.832 366.027 14.064 366.059 13.104L366.539 13.656C366.491 14.632 366.251 15.448 365.819 16.104C365.403 16.744 364.859 17.224 364.187 17.544C363.515 17.864 362.755 18.024 361.907 18.024ZM377.232 18.096C376.192 18.096 375.28 17.904 374.496 17.52C373.728 17.136 373.08 16.624 372.552 15.984C372.04 15.344 371.656 14.632 371.4 13.848C371.144 13.064 371.016 12.272 371.016 11.472V11.232C371.016 10.416 371.144 9.61599 371.4 8.83199C371.656 8.04799 372.04 7.35199 372.552 6.74399C373.08 6.11999 373.728 5.62399 374.496 5.25599C375.28 4.88799 376.192 4.70399 377.232 4.70399C378.24 4.70399 379.136 4.88799 379.92 5.25599C380.72 5.62399 381.368 6.14399 381.864 6.81599C382.376 7.47199 382.696 8.26399 382.824 9.19199H381.576C381.432 8.23199 380.984 7.43999 380.232 6.81599C379.48 6.17599 378.48 5.85599 377.232 5.85599C376.128 5.85599 375.208 6.10399 374.472 6.59999C373.736 7.09599 373.184 7.75999 372.816 8.59199C372.464 9.42399 372.288 10.344 372.288 11.352C372.288 12.328 372.472 13.24 372.84 14.088C373.208 14.936 373.76 15.624 374.496 16.152C375.232 16.664 376.144 16.92 377.232 16.92C378.08 16.92 378.824 16.768 379.464 16.464C380.12 16.144 380.648 15.728 381.048 15.216C381.448 14.688 381.688 14.112 381.768 13.488H383.016C382.904 14.416 382.584 15.224 382.056 15.912C381.528 16.584 380.848 17.12 380.016 17.52C379.184 17.904 378.256 18.096 377.232 18.096ZM386.509 17.688V5.08799H387.517V10.416H387.325C387.325 8.59199 387.733 7.23199 388.549 6.33599C389.365 5.43999 390.685 4.99199 392.509 4.99199H392.941V6.14399H392.269C390.781 6.14399 389.661 6.52799 388.909 7.29599C388.157 8.04799 387.781 9.15999 387.781 10.632V17.688H386.509ZM401.356 18.096C400.3 18.096 399.364 17.904 398.548 17.52C397.732 17.136 397.044 16.632 396.484 16.008C395.94 15.384 395.524 14.688 395.236 13.92C394.964 13.136 394.828 12.336 394.828 11.52V11.28C394.828 10.448 394.972 9.63999 395.26 8.85599C395.548 8.07199 395.972 7.36799 396.532 6.74399C397.092 6.11999 397.772 5.62399 398.572 5.25599C399.388 4.88799 400.316 4.70399 401.356 4.70399C402.38 4.70399 403.292 4.88799 404.092 5.25599C404.908 5.62399 405.596 6.11999 406.156 6.74399C406.716 7.36799 407.14 8.07199 407.428 8.85599C407.732 9.63999 407.884 10.448 407.884 11.28V11.52C407.884 12.336 407.74 13.136 407.452 13.92C407.164 14.688 406.74 15.384 406.18 16.008C405.636 16.632 404.956 17.136 404.14 17.52C403.34 17.904 402.412 18.096 401.356 18.096ZM401.356 16.92C402.476 16.92 403.42 16.664 404.188 16.152C404.972 15.64 405.564 14.968 405.964 14.136C406.38 13.288 406.588 12.376 406.588 11.4C406.588 10.392 406.38 9.47199 405.964 8.63999C405.548 7.79199 404.948 7.11999 404.164 6.62399C403.396 6.11199 402.46 5.85599 401.356 5.85599C400.268 5.85599 399.324 6.11199 398.524 6.62399C397.74 7.11999 397.14 7.79199 396.724 8.63999C396.308 9.47199 396.1 10.392 396.1 11.4C396.1 12.376 396.3 13.288 396.7 14.136C397.116 14.968 397.716 15.64 398.5 16.152C399.284 16.664 400.236 16.92 401.356 16.92ZM415.519 18.048C413.951 18.048 412.743 17.688 411.895 16.968C411.063 16.248 410.639 15.328 410.623 14.208H411.871C411.871 14.928 412.151 15.56 412.711 16.104C413.287 16.632 414.223 16.896 415.519 16.896C416.783 16.896 417.711 16.632 418.303 16.104C418.895 15.56 419.191 14.92 419.191 14.184C419.191 13.464 418.919 12.912 418.375 12.528C417.847 12.144 417.127 11.904 416.215 11.808L414.727 11.64C413.623 11.512 412.743 11.168 412.087 10.608C411.447 10.048 411.127 9.28799 411.127 8.32799C411.127 7.63999 411.303 7.02399 411.655 6.47999C412.007 5.93599 412.511 5.50399 413.167 5.18399C413.839 4.86399 414.623 4.70399 415.519 4.70399C416.831 4.70399 417.887 5.02399 418.687 5.66399C419.503 6.30399 419.919 7.17599 419.935 8.27999H418.687C418.703 7.59199 418.431 7.01599 417.871 6.55199C417.327 6.08799 416.543 5.85599 415.519 5.85599C414.447 5.85599 413.647 6.10399 413.119 6.59999C412.607 7.09599 412.351 7.67999 412.351 8.35199C412.351 8.91199 412.551 9.39199 412.951 9.79199C413.367 10.192 413.991 10.44 414.823 10.536L416.311 10.704C417.495 10.816 418.471 11.16 419.239 11.736C420.023 12.312 420.415 13.136 420.415 14.208C420.415 14.928 420.215 15.576 419.815 16.152C419.431 16.728 418.879 17.192 418.159 17.544C417.439 17.88 416.559 18.048 415.519 18.048ZM428.082 18.048C426.514 18.048 425.306 17.688 424.458 16.968C423.626 16.248 423.202 15.328 423.186 14.208H424.434C424.434 14.928 424.714 15.56 425.274 16.104C425.85 16.632 426.786 16.896 428.082 16.896C429.346 16.896 430.274 16.632 430.866 16.104C431.458 15.56 431.754 14.92 431.754 14.184C431.754 13.464 431.482 12.912 430.938 12.528C430.41 12.144 429.69 11.904 428.778 11.808L427.29 11.64C426.186 11.512 425.306 11.168 424.65 10.608C424.01 10.048 423.69 9.28799 423.69 8.32799C423.69 7.63999 423.866 7.02399 424.218 6.47999C424.57 5.93599 425.074 5.50399 425.73 5.18399C426.402 4.86399 427.186 4.70399 428.082 4.70399C429.394 4.70399 430.45 5.02399 431.25 5.66399C432.066 6.30399 432.482 7.17599 432.498 8.27999H431.25C431.266 7.59199 430.994 7.01599 430.434 6.55199C429.89 6.08799 429.106 5.85599 428.082 5.85599C427.01 5.85599 426.21 6.10399 425.682 6.59999C425.17 7.09599 424.914 7.67999 424.914 8.35199C424.914 8.91199 425.114 9.39199 425.514 9.79199C425.93 10.192 426.554 10.44 427.386 10.536L428.874 10.704C430.058 10.816 431.034 11.16 431.802 11.736C432.586 12.312 432.978 13.136 432.978 14.208C432.978 14.928 432.778 15.576 432.378 16.152C431.994 16.728 431.442 17.192 430.722 17.544C430.002 17.88 429.122 18.048 428.082 18.048ZM442.978 17.688V3.64799C442.978 2.39999 443.29 1.47999 443.914 0.887987C444.554 0.295987 445.514 -1.28746e-05 446.794 -1.28746e-05H448.258V1.10399H446.506C445.77 1.10399 445.202 1.30399 444.802 1.70399C444.418 2.08799 444.226 2.63199 444.226 3.33599V17.688H442.978ZM441.034 6.14399V5.13599H448.378V6.14399H441.034ZM451.834 17.688V5.08799H453.106V17.688H451.834ZM449.77 6.19199V5.08799H453.106V6.19199H449.77ZM451.954 2.44799C451.618 2.44799 451.354 2.35999 451.162 2.18399C450.986 1.99199 450.898 1.75199 450.898 1.46399C450.898 1.15999 450.986 0.911987 451.162 0.719988C451.354 0.527987 451.618 0.431987 451.954 0.431987C452.306 0.431987 452.57 0.527987 452.746 0.719988C452.922 0.911987 453.01 1.15999 453.01 1.46399C453.01 1.75199 452.922 1.99199 452.746 2.18399C452.57 2.35999 452.306 2.44799 451.954 2.44799ZM458.087 17.688V5.08799H459.095V10.248H458.807C458.807 9.14399 458.983 8.18399 459.335 7.36799C459.703 6.53599 460.239 5.89599 460.943 5.44799C461.663 4.98399 462.551 4.75199 463.607 4.75199H463.679C465.263 4.75199 466.455 5.24799 467.255 6.23999C468.055 7.21599 468.455 8.55199 468.455 10.248V17.688H467.159V9.95999C467.159 8.75999 466.831 7.79199 466.175 7.05599C465.535 6.30399 464.607 5.92799 463.391 5.92799C462.159 5.92799 461.175 6.31199 460.439 7.07999C459.719 7.83199 459.359 8.83199 459.359 10.08V17.688H458.087ZM480.932 17.688V13.92H480.692V9.28799C480.692 8.27999 480.428 7.50399 479.9 6.95999C479.372 6.39999 478.5 6.11999 477.284 6.11999C476.852 6.11999 476.412 6.13599 475.964 6.16799C475.516 6.18399 475.092 6.20799 474.692 6.23999C474.292 6.25599 473.932 6.28799 473.612 6.33599V5.18399C473.932 5.13599 474.268 5.09599 474.62 5.06399C474.988 5.03199 475.356 5.00799 475.724 4.99199C476.092 4.97599 476.444 4.96799 476.78 4.96799C478.044 4.96799 479.052 5.13599 479.804 5.47199C480.556 5.79199 481.1 6.28799 481.436 6.95999C481.772 7.61599 481.94 8.45599 481.94 9.47999V17.688H480.932ZM476.54 18.024C475.692 18.024 474.932 17.872 474.26 17.568C473.588 17.264 473.052 16.816 472.652 16.224C472.268 15.632 472.076 14.912 472.076 14.064C472.076 13.248 472.26 12.552 472.628 11.976C473.012 11.4 473.556 10.96 474.26 10.656C474.98 10.352 475.844 10.2 476.852 10.2H480.812V11.232H476.732C475.644 11.232 474.804 11.496 474.212 12.024C473.636 12.536 473.348 13.216 473.348 14.064C473.348 14.96 473.66 15.672 474.284 16.2C474.908 16.712 475.724 16.968 476.732 16.968C477.356 16.968 477.964 16.848 478.556 16.608C479.148 16.368 479.644 15.968 480.044 15.408C480.444 14.832 480.66 14.064 480.692 13.104L481.172 13.656C481.124 14.632 480.884 15.448 480.452 16.104C480.036 16.744 479.492 17.224 478.82 17.544C478.148 17.864 477.388 18.024 476.54 18.024ZM486.704 17.688V5.08799H487.712V10.248H487.424C487.424 9.14399 487.6 8.18399 487.952 7.36799C488.32 6.53599 488.856 5.89599 489.56 5.44799C490.28 4.98399 491.168 4.75199 492.224 4.75199H492.296C493.88 4.75199 495.072 5.24799 495.872 6.23999C496.672 7.21599 497.072 8.55199 497.072 10.248V17.688H495.776V9.95999C495.776 8.75999 495.448 7.79199 494.792 7.05599C494.152 6.30399 493.224 5.92799 492.008 5.92799C490.776 5.92799 489.792 6.31199 489.056 7.07999C488.336 7.83199 487.976 8.83199 487.976 10.08V17.688H486.704ZM507.005 18.096C505.965 18.096 505.053 17.904 504.269 17.52C503.501 17.136 502.853 16.624 502.325 15.984C501.813 15.344 501.429 14.632 501.173 13.848C500.917 13.064 500.789 12.272 500.789 11.472V11.232C500.789 10.416 500.917 9.61599 501.173 8.83199C501.429 8.04799 501.813 7.35199 502.325 6.74399C502.853 6.11999 503.501 5.62399 504.269 5.25599C505.053 4.88799 505.965 4.70399 507.005 4.70399C508.013 4.70399 508.909 4.88799 509.693 5.25599C510.493 5.62399 511.141 6.14399 511.637 6.81599C512.149 7.47199 512.469 8.26399 512.597 9.19199H511.349C511.205 8.23199 510.757 7.43999 510.005 6.81599C509.253 6.17599 508.253 5.85599 507.005 5.85599C505.901 5.85599 504.981 6.10399 504.245 6.59999C503.509 7.09599 502.957 7.75999 502.589 8.59199C502.237 9.42399 502.061 10.344 502.061 11.352C502.061 12.328 502.245 13.24 502.613 14.088C502.981 14.936 503.533 15.624 504.269 16.152C505.005 16.664 505.917 16.92 507.005 16.92C507.853 16.92 508.597 16.768 509.237 16.464C509.893 16.144 510.421 15.728 510.821 15.216C511.221 14.688 511.461 14.112 511.541 13.488H512.789C512.677 14.416 512.357 15.224 511.829 15.912C511.301 16.584 510.621 17.12 509.789 17.52C508.957 17.904 508.029 18.096 507.005 18.096ZM516.955 17.688V5.08799H518.251V17.688H516.955ZM514.867 6.19199V5.08799H518.251V6.19199H514.867ZM517.075 2.44799C516.739 2.44799 516.483 2.35999 516.307 2.18399C516.131 1.99199 516.043 1.75199 516.043 1.46399C516.043 1.15999 516.131 0.911987 516.307 0.719988C516.483 0.527987 516.747 0.431987 517.099 0.431987C517.435 0.431987 517.691 0.527987 517.867 0.719988C518.043 0.911987 518.131 1.15999 518.131 1.46399C518.131 1.75199 518.043 1.99199 517.867 2.18399C517.707 2.35999 517.443 2.44799 517.075 2.44799ZM523.22 17.688V5.08799H524.228V10.248H523.94C523.94 9.14399 524.116 8.18399 524.468 7.36799C524.836 6.53599 525.372 5.89599 526.076 5.44799C526.796 4.98399 527.684 4.75199 528.74 4.75199H528.812C530.396 4.75199 531.588 5.24799 532.388 6.23999C533.188 7.21599 533.588 8.55199 533.588 10.248V17.688H532.292V9.95999C532.292 8.75999 531.964 7.79199 531.308 7.05599C530.668 6.30399 529.74 5.92799 528.524 5.92799C527.292 5.92799 526.308 6.31199 525.572 7.07999C524.852 7.83199 524.492 8.83199 524.492 10.08V17.688H523.22ZM543.161 22.608C542.601 22.608 542.017 22.584 541.409 22.536C540.801 22.488 540.217 22.416 539.657 22.32V21.192C540.233 21.288 540.833 21.36 541.457 21.408C542.097 21.472 542.697 21.504 543.257 21.504C544.537 21.504 545.545 21.336 546.281 21C547.017 20.68 547.545 20.144 547.865 19.392C548.185 18.656 548.345 17.672 548.345 16.44V13.848L548.921 12.096C548.905 13.248 548.657 14.264 548.177 15.144C547.713 16.024 547.065 16.72 546.233 17.232C545.401 17.728 544.425 17.976 543.305 17.976C542.361 17.976 541.513 17.8 540.761 17.448C540.025 17.08 539.401 16.592 538.889 15.984C538.377 15.36 537.985 14.656 537.713 13.872C537.441 13.072 537.305 12.256 537.305 11.424V11.184C537.305 10.368 537.441 9.57599 537.713 8.80799C537.985 8.02399 538.377 7.32799 538.889 6.71999C539.401 6.09599 540.033 5.60799 540.785 5.25599C541.537 4.88799 542.393 4.70399 543.353 4.70399C544.521 4.70399 545.529 4.96799 546.377 5.49599C547.225 6.02399 547.873 6.73599 548.321 7.63199C548.785 8.52799 549.025 9.51999 549.041 10.608L548.561 9.95999V5.08799H549.593V16.44C549.593 17.944 549.385 19.144 548.969 20.04C548.553 20.952 547.873 21.608 546.929 22.008C545.985 22.408 544.729 22.608 543.161 22.608ZM543.473 16.8C544.433 16.8 545.281 16.592 546.017 16.176C546.753 15.744 547.329 15.16 547.745 14.424C548.161 13.672 548.369 12.824 548.369 11.88V10.656C548.369 9.74399 548.161 8.92799 547.745 8.20799C547.345 7.47199 546.777 6.88799 546.041 6.45599C545.305 6.02399 544.457 5.80799 543.497 5.80799C542.441 5.80799 541.545 6.06399 540.809 6.57599C540.089 7.08799 539.537 7.75999 539.153 8.59199C538.769 9.42399 538.577 10.328 538.577 11.304C538.577 12.312 538.777 13.24 539.177 14.088C539.577 14.92 540.137 15.584 540.857 16.08C541.593 16.56 542.465 16.8 543.473 16.8ZM554.032 21.288L553 20.88L554.944 15.528L556.024 15.936L554.032 21.288ZM6.21598 48.096C5.17598 48.096 4.26398 47.904 3.47998 47.52C2.71198 47.136 2.06398 46.624 1.53598 45.984C1.02398 45.344 0.639984 44.632 0.383984 43.848C0.127984 43.064 -1.5527e-05 42.272 -1.5527e-05 41.472V41.232C-1.5527e-05 40.416 0.127984 39.616 0.383984 38.832C0.639984 38.048 1.02398 37.352 1.53598 36.744C2.06398 36.12 2.71198 35.624 3.47998 35.256C4.26398 34.888 5.17598 34.704 6.21598 34.704C7.22398 34.704 8.11998 34.888 8.90398 35.256C9.70398 35.624 10.352 36.144 10.848 36.816C11.36 37.472 11.68 38.264 11.808 39.192H10.56C10.416 38.232 9.96798 37.44 9.21598 36.816C8.46398 36.176 7.46398 35.856 6.21598 35.856C5.11198 35.856 4.19198 36.104 3.45598 36.6C2.71998 37.096 2.16798 37.76 1.79998 38.592C1.44798 39.424 1.27198 40.344 1.27198 41.352C1.27198 42.328 1.45598 43.24 1.82398 44.088C2.19198 44.936 2.74398 45.624 3.47998 46.152C4.21598 46.664 5.12798 46.92 6.21598 46.92C7.06398 46.92 7.80798 46.768 8.44798 46.464C9.10398 46.144 9.63198 45.728 10.032 45.216C10.432 44.688 10.672 44.112 10.752 43.488H12C11.888 44.416 11.568 45.224 11.04 45.912C10.512 46.584 9.83198 47.12 8.99998 47.52C8.16798 47.904 7.23998 48.096 6.21598 48.096ZM20.6295 48.096C19.5575 48.096 18.6295 47.912 17.8455 47.544C17.0615 47.16 16.4215 46.656 15.9255 46.032C15.4295 45.392 15.0535 44.68 14.7975 43.896C14.5575 43.096 14.4375 42.288 14.4375 41.472V41.232C14.4375 40.4 14.5575 39.6 14.7975 38.832C15.0535 38.064 15.4295 37.368 15.9255 36.744C16.4375 36.104 17.0695 35.608 17.8215 35.256C18.5895 34.888 19.4775 34.704 20.4855 34.704C21.7655 34.704 22.8375 34.992 23.7015 35.568C24.5815 36.128 25.2455 36.864 25.6935 37.776C26.1415 38.688 26.3655 39.648 26.3655 40.656V41.52H15.0375V40.464H25.5255L25.1415 40.944C25.1415 39.968 24.9575 39.096 24.5895 38.328C24.2375 37.56 23.7095 36.96 23.0055 36.528C22.3175 36.08 21.4775 35.856 20.4855 35.856C19.4135 35.856 18.5175 36.104 17.7975 36.6C17.0775 37.096 16.5335 37.76 16.1655 38.592C15.8135 39.424 15.6375 40.344 15.6375 41.352C15.6375 42.36 15.8135 43.288 16.1655 44.136C16.5335 44.968 17.0855 45.648 17.8215 46.176C18.5575 46.688 19.4935 46.944 20.6295 46.944C21.8455 46.944 22.8215 46.664 23.5575 46.104C24.3095 45.544 24.7655 44.872 24.9255 44.088H26.1735C25.9975 44.872 25.6615 45.568 25.1655 46.176C24.6695 46.784 24.0375 47.256 23.2695 47.592C22.5175 47.928 21.6375 48.096 20.6295 48.096ZM30.0247 47.688V35.088H31.0327V40.248H30.7447C30.7447 39.144 30.9207 38.184 31.2727 37.368C31.6407 36.536 32.1767 35.896 32.8807 35.448C33.6007 34.984 34.4887 34.752 35.5447 34.752H35.6167C37.2007 34.752 38.3927 35.248 39.1927 36.24C39.9927 37.216 40.3927 38.552 40.3927 40.248V47.688H39.0967V39.96C39.0967 38.76 38.7687 37.792 38.1127 37.056C37.4727 36.304 36.5447 35.928 35.3287 35.928C34.0967 35.928 33.1127 36.312 32.3767 37.08C31.6567 37.832 31.2967 38.832 31.2967 40.08V47.688H30.0247ZM49.3654 47.808C48.5814 47.808 47.8934 47.696 47.3014 47.472C46.7094 47.232 46.2534 46.832 45.9334 46.272C45.6134 45.712 45.4534 44.96 45.4534 44.016V30.984H46.7014V44.232C46.7014 45 46.9094 45.6 47.3254 46.032C47.7574 46.448 48.3494 46.656 49.1014 46.656H51.4534V47.808H49.3654ZM43.0534 36.12V35.088H51.4534V36.12H43.0534ZM55.1732 47.688V35.088H56.1812V40.416H55.9892C55.9892 38.592 56.3972 37.232 57.2132 36.336C58.0292 35.44 59.3492 34.992 61.1732 34.992H61.6052V36.144H60.9332C59.4452 36.144 58.3252 36.528 57.5732 37.296C56.8212 38.048 56.4452 39.16 56.4452 40.632V47.688H55.1732ZM72.3694 47.688V43.92H72.1294V39.288C72.1294 38.28 71.8654 37.504 71.3374 36.96C70.8094 36.4 69.9374 36.12 68.7214 36.12C68.2894 36.12 67.8494 36.136 67.4014 36.168C66.9534 36.184 66.5294 36.208 66.1294 36.24C65.7294 36.256 65.3694 36.288 65.0494 36.336V35.184C65.3694 35.136 65.7054 35.096 66.0574 35.064C66.4254 35.032 66.7934 35.008 67.1614 34.992C67.5294 34.976 67.8814 34.968 68.2174 34.968C69.4814 34.968 70.4894 35.136 71.2414 35.472C71.9934 35.792 72.5374 36.288 72.8734 36.96C73.2094 37.616 73.3774 38.456 73.3774 39.48V47.688H72.3694ZM67.9774 48.024C67.1294 48.024 66.3694 47.872 65.6974 47.568C65.0254 47.264 64.4894 46.816 64.0894 46.224C63.7054 45.632 63.5134 44.912 63.5134 44.064C63.5134 43.248 63.6974 42.552 64.0654 41.976C64.4494 41.4 64.9934 40.96 65.6974 40.656C66.4174 40.352 67.2814 40.2 68.2894 40.2H72.2494V41.232H68.1694C67.0814 41.232 66.2414 41.496 65.6494 42.024C65.0734 42.536 64.7854 43.216 64.7854 44.064C64.7854 44.96 65.0974 45.672 65.7214 46.2C66.3454 46.712 67.1614 46.968 68.1694 46.968C68.7934 46.968 69.4014 46.848 69.9934 46.608C70.5854 46.368 71.0814 45.968 71.4814 45.408C71.8814 44.832 72.0974 44.064 72.1294 43.104L72.6094 43.656C72.5614 44.632 72.3214 45.448 71.8894 46.104C71.4734 46.744 70.9294 47.224 70.2574 47.544C69.5854 47.864 68.8254 48.024 67.9774 48.024ZM78.2139 47.688V30.168H79.4859V47.688H78.2139ZM76.3179 31.248V30.168H79.4859V31.248H76.3179ZM85.0952 47.688V35.088H86.3912V47.688H85.0952ZM83.0072 36.192V35.088H86.3912V36.192H83.0072ZM85.2152 32.448C84.8792 32.448 84.6232 32.36 84.4472 32.184C84.2712 31.992 84.1832 31.752 84.1832 31.464C84.1832 31.16 84.2712 30.912 84.4472 30.72C84.6232 30.528 84.8872 30.432 85.2392 30.432C85.5752 30.432 85.8312 30.528 86.0072 30.72C86.1832 30.912 86.2712 31.16 86.2712 31.464C86.2712 31.752 86.1832 31.992 86.0072 32.184C85.8472 32.36 85.5832 32.448 85.2152 32.448ZM90.3527 47.688V46.056L98.1527 36.096L98.0087 36.504L97.7207 36.048L97.9367 36.144H90.3047V35.088H99.0887V36.72L91.3127 46.704L91.4567 46.296L91.7687 46.776L91.5287 46.632H99.4727V47.688H90.3527ZM107.958 48.096C106.886 48.096 105.958 47.912 105.174 47.544C104.39 47.16 103.75 46.656 103.254 46.032C102.758 45.392 102.382 44.68 102.126 43.896C101.886 43.096 101.766 42.288 101.766 41.472V41.232C101.766 40.4 101.886 39.6 102.126 38.832C102.382 38.064 102.758 37.368 103.254 36.744C103.766 36.104 104.398 35.608 105.15 35.256C105.918 34.888 106.806 34.704 107.814 34.704C109.094 34.704 110.166 34.992 111.03 35.568C111.91 36.128 112.574 36.864 113.022 37.776C113.47 38.688 113.694 39.648 113.694 40.656V41.52H102.366V40.464H112.854L112.47 40.944C112.47 39.968 112.286 39.096 111.918 38.328C111.566 37.56 111.038 36.96 110.334 36.528C109.646 36.08 108.806 35.856 107.814 35.856C106.742 35.856 105.846 36.104 105.126 36.6C104.406 37.096 103.862 37.76 103.494 38.592C103.142 39.424 102.966 40.344 102.966 41.352C102.966 42.36 103.142 43.288 103.494 44.136C103.862 44.968 104.414 45.648 105.15 46.176C105.886 46.688 106.822 46.944 107.958 46.944C109.174 46.944 110.15 46.664 110.886 46.104C111.638 45.544 112.094 44.872 112.254 44.088H113.502C113.326 44.872 112.99 45.568 112.494 46.176C111.998 46.784 111.366 47.256 110.598 47.592C109.846 47.928 108.966 48.096 107.958 48.096ZM122.417 48.096C121.473 48.096 120.617 47.92 119.849 47.568C119.097 47.2 118.457 46.712 117.929 46.104C117.401 45.48 116.993 44.776 116.705 43.992C116.433 43.208 116.297 42.384 116.297 41.52V41.28C116.297 40.448 116.433 39.648 116.705 38.88C116.977 38.096 117.369 37.392 117.881 36.768C118.409 36.128 119.049 35.624 119.801 35.256C120.553 34.888 121.417 34.704 122.393 34.704C123.529 34.704 124.513 34.96 125.345 35.472C126.193 35.984 126.849 36.688 127.313 37.584C127.793 38.464 128.049 39.472 128.081 40.608L127.433 39.192V30.168H128.705V47.688H127.697V42.096H128.177C128.145 43.296 127.881 44.352 127.385 45.264C126.889 46.16 126.209 46.856 125.345 47.352C124.497 47.848 123.521 48.096 122.417 48.096ZM122.537 46.944C123.513 46.944 124.369 46.728 125.105 46.296C125.857 45.864 126.441 45.28 126.857 44.544C127.289 43.792 127.505 42.936 127.505 41.976V40.728C127.505 39.816 127.289 38.992 126.857 38.256C126.441 37.52 125.857 36.936 125.105 36.504C124.369 36.072 123.513 35.856 122.537 35.856C121.481 35.856 120.585 36.112 119.849 36.624C119.113 37.136 118.545 37.816 118.145 38.664C117.761 39.496 117.569 40.408 117.569 41.4C117.569 42.424 117.769 43.36 118.169 44.208C118.569 45.04 119.137 45.704 119.873 46.2C120.625 46.696 121.513 46.944 122.537 46.944ZM143.68 48.048C142.16 48.048 141.008 47.56 140.224 46.584C139.44 45.608 139.048 44.288 139.048 42.624V35.088H140.344V42.912C140.344 44.08 140.648 45.032 141.256 45.768C141.88 46.488 142.776 46.848 143.944 46.848C145.128 46.848 146.064 46.472 146.752 45.72C147.456 44.968 147.808 43.984 147.808 42.768V35.088H149.08V47.688H148.072V42.6H148.36C148.36 43.672 148.184 44.624 147.832 45.456C147.496 46.272 146.992 46.912 146.32 47.376C145.648 47.824 144.792 48.048 143.752 48.048H143.68ZM154.079 52.488V35.088H155.087V40.464L154.703 40.632C154.719 39.448 154.967 38.416 155.447 37.536C155.943 36.64 156.615 35.944 157.463 35.448C158.311 34.952 159.295 34.704 160.415 34.704C161.375 34.704 162.231 34.888 162.983 35.256C163.735 35.608 164.367 36.096 164.879 36.72C165.407 37.328 165.807 38.024 166.079 38.808C166.351 39.592 166.487 40.416 166.487 41.28V41.52C166.487 42.336 166.351 43.136 166.079 43.92C165.807 44.688 165.407 45.392 164.879 46.032C164.367 46.656 163.735 47.16 162.983 47.544C162.231 47.912 161.375 48.096 160.415 48.096C159.295 48.096 158.303 47.84 157.439 47.328C156.591 46.816 155.927 46.112 155.447 45.216C154.967 44.304 154.711 43.272 154.679 42.12L155.351 43.8V52.488H154.079ZM160.247 46.944C161.303 46.944 162.199 46.688 162.935 46.176C163.687 45.648 164.255 44.968 164.639 44.136C165.023 43.288 165.215 42.376 165.215 41.4C165.215 40.376 165.015 39.448 164.615 38.616C164.231 37.768 163.663 37.096 162.911 36.6C162.175 36.104 161.287 35.856 160.247 35.856C159.287 35.856 158.431 36.072 157.679 36.504C156.943 36.92 156.359 37.504 155.927 38.256C155.495 38.992 155.279 39.84 155.279 40.8V42.024C155.279 42.936 155.487 43.768 155.903 44.52C156.335 45.256 156.919 45.848 157.655 46.296C158.407 46.728 159.271 46.944 160.247 46.944ZM175.432 48.096C174.488 48.096 173.632 47.92 172.864 47.568C172.112 47.2 171.472 46.712 170.944 46.104C170.416 45.48 170.008 44.776 169.72 43.992C169.448 43.208 169.312 42.384 169.312 41.52V41.28C169.312 40.448 169.448 39.648 169.72 38.88C169.992 38.096 170.384 37.392 170.896 36.768C171.424 36.128 172.064 35.624 172.816 35.256C173.568 34.888 174.432 34.704 175.408 34.704C176.544 34.704 177.528 34.96 178.36 35.472C179.208 35.984 179.864 36.688 180.328 37.584C180.808 38.464 181.064 39.472 181.096 40.608L180.448 39.192V30.168H181.72V47.688H180.712V42.096H181.192C181.16 43.296 180.896 44.352 180.4 45.264C179.904 46.16 179.224 46.856 178.36 47.352C177.512 47.848 176.536 48.096 175.432 48.096ZM175.552 46.944C176.528 46.944 177.384 46.728 178.12 46.296C178.872 45.864 179.456 45.28 179.872 44.544C180.304 43.792 180.52 42.936 180.52 41.976V40.728C180.52 39.816 180.304 38.992 179.872 38.256C179.456 37.52 178.872 36.936 178.12 36.504C177.384 36.072 176.528 35.856 175.552 35.856C174.496 35.856 173.6 36.112 172.864 36.624C172.128 37.136 171.56 37.816 171.16 38.664C170.776 39.496 170.584 40.408 170.584 41.4C170.584 42.424 170.784 43.36 171.184 44.208C171.584 45.04 172.152 45.704 172.888 46.2C173.64 46.696 174.528 46.944 175.552 46.944ZM194.362 47.688V43.92H194.122V39.288C194.122 38.28 193.858 37.504 193.33 36.96C192.802 36.4 191.93 36.12 190.714 36.12C190.282 36.12 189.842 36.136 189.394 36.168C188.946 36.184 188.522 36.208 188.122 36.24C187.722 36.256 187.362 36.288 187.042 36.336V35.184C187.362 35.136 187.698 35.096 188.05 35.064C188.418 35.032 188.786 35.008 189.154 34.992C189.522 34.976 189.874 34.968 190.21 34.968C191.474 34.968 192.482 35.136 193.234 35.472C193.986 35.792 194.53 36.288 194.866 36.96C195.202 37.616 195.37 38.456 195.37 39.48V47.688H194.362ZM189.97 48.024C189.122 48.024 188.362 47.872 187.69 47.568C187.018 47.264 186.482 46.816 186.082 46.224C185.698 45.632 185.506 44.912 185.506 44.064C185.506 43.248 185.69 42.552 186.058 41.976C186.442 41.4 186.986 40.96 187.69 40.656C188.41 40.352 189.274 40.2 190.282 40.2H194.242V41.232H190.162C189.074 41.232 188.234 41.496 187.642 42.024C187.066 42.536 186.778 43.216 186.778 44.064C186.778 44.96 187.09 45.672 187.714 46.2C188.338 46.712 189.154 46.968 190.162 46.968C190.786 46.968 191.394 46.848 191.986 46.608C192.578 46.368 193.074 45.968 193.474 45.408C193.874 44.832 194.09 44.064 194.122 43.104L194.602 43.656C194.554 44.632 194.314 45.448 193.882 46.104C193.466 46.744 192.922 47.224 192.25 47.544C191.578 47.864 190.818 48.024 189.97 48.024ZM204.334 47.808C203.55 47.808 202.862 47.696 202.27 47.472C201.678 47.232 201.222 46.832 200.902 46.272C200.582 45.712 200.422 44.96 200.422 44.016V30.984H201.67V44.232C201.67 45 201.878 45.6 202.294 46.032C202.726 46.448 203.318 46.656 204.07 46.656H206.422V47.808H204.334ZM198.022 36.12V35.088H206.422V36.12H198.022ZM215.161 48.096C214.089 48.096 213.161 47.912 212.377 47.544C211.593 47.16 210.953 46.656 210.457 46.032C209.961 45.392 209.585 44.68 209.329 43.896C209.089 43.096 208.969 42.288 208.969 41.472V41.232C208.969 40.4 209.089 39.6 209.329 38.832C209.585 38.064 209.961 37.368 210.457 36.744C210.969 36.104 211.601 35.608 212.353 35.256C213.121 34.888 214.009 34.704 215.017 34.704C216.297 34.704 217.369 34.992 218.233 35.568C219.113 36.128 219.777 36.864 220.225 37.776C220.673 38.688 220.897 39.648 220.897 40.656V41.52H209.569V40.464H220.057L219.673 40.944C219.673 39.968 219.489 39.096 219.121 38.328C218.769 37.56 218.241 36.96 217.537 36.528C216.849 36.08 216.009 35.856 215.017 35.856C213.945 35.856 213.049 36.104 212.329 36.6C211.609 37.096 211.065 37.76 210.697 38.592C210.345 39.424 210.169 40.344 210.169 41.352C210.169 42.36 210.345 43.288 210.697 44.136C211.065 44.968 211.617 45.648 212.353 46.176C213.089 46.688 214.025 46.944 215.161 46.944C216.377 46.944 217.353 46.664 218.089 46.104C218.841 45.544 219.297 44.872 219.457 44.088H220.705C220.529 44.872 220.193 45.568 219.697 46.176C219.201 46.784 218.569 47.256 217.801 47.592C217.049 47.928 216.169 48.096 215.161 48.096ZM228.324 48.048C226.756 48.048 225.548 47.688 224.7 46.968C223.868 46.248 223.444 45.328 223.428 44.208H224.676C224.676 44.928 224.956 45.56 225.516 46.104C226.092 46.632 227.028 46.896 228.324 46.896C229.588 46.896 230.516 46.632 231.108 46.104C231.7 45.56 231.996 44.92 231.996 44.184C231.996 43.464 231.724 42.912 231.18 42.528C230.652 42.144 229.932 41.904 229.02 41.808L227.532 41.64C226.428 41.512 225.548 41.168 224.892 40.608C224.252 40.048 223.932 39.288 223.932 38.328C223.932 37.64 224.108 37.024 224.46 36.48C224.812 35.936 225.316 35.504 225.972 35.184C226.644 34.864 227.428 34.704 228.324 34.704C229.636 34.704 230.692 35.024 231.492 35.664C232.308 36.304 232.724 37.176 232.74 38.28H231.492C231.508 37.592 231.236 37.016 230.676 36.552C230.132 36.088 229.348 35.856 228.324 35.856C227.252 35.856 226.452 36.104 225.924 36.6C225.412 37.096 225.156 37.68 225.156 38.352C225.156 38.912 225.356 39.392 225.756 39.792C226.172 40.192 226.796 40.44 227.628 40.536L229.116 40.704C230.3 40.816 231.276 41.16 232.044 41.736C232.828 42.312 233.22 43.136 233.22 44.208C233.22 44.928 233.02 45.576 232.62 46.152C232.236 46.728 231.684 47.192 230.964 47.544C230.244 47.88 229.364 48.048 228.324 48.048ZM236.524 51.288L235.492 50.88L237.436 45.528L238.516 45.936L236.524 51.288ZM256.424 47.688V43.92H256.184V39.288C256.184 38.28 255.92 37.504 255.392 36.96C254.864 36.4 253.992 36.12 252.776 36.12C252.344 36.12 251.904 36.136 251.456 36.168C251.008 36.184 250.584 36.208 250.184 36.24C249.784 36.256 249.424 36.288 249.104 36.336V35.184C249.424 35.136 249.76 35.096 250.112 35.064C250.48 35.032 250.848 35.008 251.216 34.992C251.584 34.976 251.936 34.968 252.272 34.968C253.536 34.968 254.544 35.136 255.296 35.472C256.048 35.792 256.592 36.288 256.928 36.96C257.264 37.616 257.432 38.456 257.432 39.48V47.688H256.424ZM252.032 48.024C251.184 48.024 250.424 47.872 249.752 47.568C249.08 47.264 248.544 46.816 248.144 46.224C247.76 45.632 247.568 44.912 247.568 44.064C247.568 43.248 247.752 42.552 248.12 41.976C248.504 41.4 249.048 40.96 249.752 40.656C250.472 40.352 251.336 40.2 252.344 40.2H256.304V41.232H252.224C251.136 41.232 250.296 41.496 249.704 42.024C249.128 42.536 248.84 43.216 248.84 44.064C248.84 44.96 249.152 45.672 249.776 46.2C250.4 46.712 251.216 46.968 252.224 46.968C252.848 46.968 253.456 46.848 254.048 46.608C254.64 46.368 255.136 45.968 255.536 45.408C255.936 44.832 256.152 44.064 256.184 43.104L256.664 43.656C256.616 44.632 256.376 45.448 255.944 46.104C255.528 46.744 254.984 47.224 254.312 47.544C253.64 47.864 252.88 48.024 252.032 48.024ZM262.197 47.688V35.088H263.205V40.248H262.917C262.917 39.144 263.093 38.184 263.445 37.368C263.813 36.536 264.349 35.896 265.053 35.448C265.773 34.984 266.661 34.752 267.717 34.752H267.789C269.373 34.752 270.565 35.248 271.365 36.24C272.165 37.216 272.565 38.552 272.565 40.248V47.688H271.269V39.96C271.269 38.76 270.941 37.792 270.285 37.056C269.645 36.304 268.717 35.928 267.501 35.928C266.269 35.928 265.285 36.312 264.549 37.08C263.829 37.832 263.469 38.832 263.469 40.08V47.688H262.197ZM282.401 48.096C281.457 48.096 280.601 47.92 279.833 47.568C279.081 47.2 278.441 46.712 277.913 46.104C277.385 45.48 276.977 44.776 276.689 43.992C276.417 43.208 276.281 42.384 276.281 41.52V41.28C276.281 40.448 276.417 39.648 276.689 38.88C276.961 38.096 277.353 37.392 277.865 36.768C278.393 36.128 279.033 35.624 279.785 35.256C280.537 34.888 281.401 34.704 282.377 34.704C283.513 34.704 284.497 34.96 285.329 35.472C286.177 35.984 286.833 36.688 287.297 37.584C287.777 38.464 288.033 39.472 288.065 40.608L287.417 39.192V30.168H288.689V47.688H287.681V42.096H288.161C288.129 43.296 287.865 44.352 287.369 45.264C286.873 46.16 286.193 46.856 285.329 47.352C284.481 47.848 283.505 48.096 282.401 48.096ZM282.521 46.944C283.497 46.944 284.353 46.728 285.089 46.296C285.841 45.864 286.425 45.28 286.841 44.544C287.273 43.792 287.489 42.936 287.489 41.976V40.728C287.489 39.816 287.273 38.992 286.841 38.256C286.425 37.52 285.841 36.936 285.089 36.504C284.353 36.072 283.497 35.856 282.521 35.856C281.465 35.856 280.569 36.112 279.833 36.624C279.097 37.136 278.529 37.816 278.129 38.664C277.745 39.496 277.553 40.408 277.553 41.4C277.553 42.424 277.753 43.36 278.153 44.208C278.553 45.04 279.121 45.704 279.857 46.2C280.609 46.696 281.497 46.944 282.521 46.944ZM299.44 47.688V30.168H300.712V47.688H299.44ZM297.544 31.248V30.168H300.712V31.248H297.544ZM311.122 48.096C310.066 48.096 309.13 47.904 308.314 47.52C307.498 47.136 306.81 46.632 306.25 46.008C305.706 45.384 305.29 44.688 305.002 43.92C304.73 43.136 304.594 42.336 304.594 41.52V41.28C304.594 40.448 304.738 39.64 305.026 38.856C305.314 38.072 305.738 37.368 306.298 36.744C306.858 36.12 307.538 35.624 308.338 35.256C309.154 34.888 310.082 34.704 311.122 34.704C312.146 34.704 313.058 34.888 313.858 35.256C314.674 35.624 315.362 36.12 315.922 36.744C316.482 37.368 316.906 38.072 317.194 38.856C317.498 39.64 317.65 40.448 317.65 41.28V41.52C317.65 42.336 317.506 43.136 317.218 43.92C316.93 44.688 316.506 45.384 315.946 46.008C315.402 46.632 314.722 47.136 313.906 47.52C313.106 47.904 312.178 48.096 311.122 48.096ZM311.122 46.92C312.242 46.92 313.186 46.664 313.954 46.152C314.738 45.64 315.33 44.968 315.73 44.136C316.146 43.288 316.354 42.376 316.354 41.4C316.354 40.392 316.146 39.472 315.73 38.64C315.314 37.792 314.714 37.12 313.93 36.624C313.162 36.112 312.226 35.856 311.122 35.856C310.034 35.856 309.09 36.112 308.29 36.624C307.506 37.12 306.906 37.792 306.49 38.64C306.074 39.472 305.866 40.392 305.866 41.4C305.866 42.376 306.066 43.288 306.466 44.136C306.882 44.968 307.482 45.64 308.266 46.152C309.05 46.664 310.002 46.92 311.122 46.92ZM326.677 48.096C325.637 48.096 324.725 47.904 323.941 47.52C323.173 47.136 322.525 46.624 321.997 45.984C321.485 45.344 321.101 44.632 320.845 43.848C320.589 43.064 320.461 42.272 320.461 41.472V41.232C320.461 40.416 320.589 39.616 320.845 38.832C321.101 38.048 321.485 37.352 321.997 36.744C322.525 36.12 323.173 35.624 323.941 35.256C324.725 34.888 325.637 34.704 326.677 34.704C327.685 34.704 328.581 34.888 329.365 35.256C330.165 35.624 330.813 36.144 331.309 36.816C331.821 37.472 332.141 38.264 332.269 39.192H331.021C330.877 38.232 330.429 37.44 329.677 36.816C328.925 36.176 327.925 35.856 326.677 35.856C325.573 35.856 324.653 36.104 323.917 36.6C323.181 37.096 322.629 37.76 322.261 38.592C321.909 39.424 321.733 40.344 321.733 41.352C321.733 42.328 321.917 43.24 322.285 44.088C322.653 44.936 323.205 45.624 323.941 46.152C324.677 46.664 325.589 46.92 326.677 46.92C327.525 46.92 328.269 46.768 328.909 46.464C329.565 46.144 330.093 45.728 330.493 45.216C330.893 44.688 331.133 44.112 331.213 43.488H332.461C332.349 44.416 332.029 45.224 331.501 45.912C330.973 46.584 330.293 47.12 329.461 47.52C328.629 47.904 327.701 48.096 326.677 48.096ZM344.378 47.688L339.002 41.76H336.986L343.13 35.088H344.57L339.098 41.016L339.122 40.224L345.914 47.688H344.378ZM335.954 47.688V30.168H337.226V47.688H335.954ZM353.512 48.096C352.44 48.096 351.512 47.912 350.728 47.544C349.944 47.16 349.304 46.656 348.808 46.032C348.312 45.392 347.936 44.68 347.68 43.896C347.44 43.096 347.32 42.288 347.32 41.472V41.232C347.32 40.4 347.44 39.6 347.68 38.832C347.936 38.064 348.312 37.368 348.808 36.744C349.32 36.104 349.952 35.608 350.704 35.256C351.472 34.888 352.36 34.704 353.368 34.704C354.648 34.704 355.72 34.992 356.584 35.568C357.464 36.128 358.128 36.864 358.576 37.776C359.024 38.688 359.248 39.648 359.248 40.656V41.52H347.92V40.464H358.408L358.024 40.944C358.024 39.968 357.84 39.096 357.472 38.328C357.12 37.56 356.592 36.96 355.888 36.528C355.2 36.08 354.36 35.856 353.368 35.856C352.296 35.856 351.4 36.104 350.68 36.6C349.96 37.096 349.416 37.76 349.048 38.592C348.696 39.424 348.52 40.344 348.52 41.352C348.52 42.36 348.696 43.288 349.048 44.136C349.416 44.968 349.968 45.648 350.704 46.176C351.44 46.688 352.376 46.944 353.512 46.944C354.728 46.944 355.704 46.664 356.44 46.104C357.192 45.544 357.648 44.872 357.808 44.088H359.056C358.88 44.872 358.544 45.568 358.048 46.176C357.552 46.784 356.92 47.256 356.152 47.592C355.4 47.928 354.52 48.096 353.512 48.096ZM367.972 48.096C367.028 48.096 366.172 47.92 365.404 47.568C364.652 47.2 364.012 46.712 363.484 46.104C362.956 45.48 362.548 44.776 362.26 43.992C361.988 43.208 361.852 42.384 361.852 41.52V41.28C361.852 40.448 361.988 39.648 362.26 38.88C362.532 38.096 362.924 37.392 363.436 36.768C363.964 36.128 364.604 35.624 365.356 35.256C366.108 34.888 366.972 34.704 367.948 34.704C369.084 34.704 370.068 34.96 370.9 35.472C371.748 35.984 372.404 36.688 372.868 37.584C373.348 38.464 373.604 39.472 373.636 40.608L372.988 39.192V30.168H374.26V47.688H373.252V42.096H373.732C373.7 43.296 373.436 44.352 372.94 45.264C372.444 46.16 371.764 46.856 370.9 47.352C370.052 47.848 369.076 48.096 367.972 48.096ZM368.092 46.944C369.068 46.944 369.924 46.728 370.66 46.296C371.412 45.864 371.996 45.28 372.412 44.544C372.844 43.792 373.06 42.936 373.06 41.976V40.728C373.06 39.816 372.844 38.992 372.412 38.256C371.996 37.52 371.412 36.936 370.66 36.504C369.924 36.072 369.068 35.856 368.092 35.856C367.036 35.856 366.14 36.112 365.404 36.624C364.668 37.136 364.1 37.816 363.7 38.664C363.316 39.496 363.124 40.408 363.124 41.4C363.124 42.424 363.324 43.36 363.724 44.208C364.124 45.04 364.692 45.704 365.428 46.2C366.18 46.696 367.068 46.944 368.092 46.944ZM389.139 47.808C388.355 47.808 387.667 47.696 387.075 47.472C386.483 47.232 386.027 46.832 385.707 46.272C385.387 45.712 385.227 44.96 385.227 44.016V30.984H386.475V44.232C386.475 45 386.683 45.6 387.099 46.032C387.531 46.448 388.123 46.656 388.875 46.656H391.227V47.808H389.139ZM382.827 36.12V35.088H391.227V36.12H382.827ZM395.619 47.688V35.088H396.915V47.688H395.619ZM393.531 36.192V35.088H396.915V36.192H393.531ZM395.739 32.448C395.403 32.448 395.147 32.36 394.971 32.184C394.795 31.992 394.707 31.752 394.707 31.464C394.707 31.16 394.795 30.912 394.971 30.72C395.147 30.528 395.411 30.432 395.763 30.432C396.099 30.432 396.355 30.528 396.531 30.72C396.707 30.912 396.795 31.16 396.795 31.464C396.795 31.752 396.707 31.992 396.531 32.184C396.371 32.36 396.107 32.448 395.739 32.448ZM401.884 47.688V35.088H402.892V40.248H402.604C402.604 39.16 402.764 38.208 403.084 37.392C403.42 36.56 403.916 35.912 404.572 35.448C405.228 34.984 406.06 34.752 407.068 34.752H407.14C408.132 34.752 408.956 34.984 409.612 35.448C410.268 35.896 410.748 36.536 411.052 37.368C411.372 38.184 411.532 39.144 411.532 40.248H411.052C411.052 39.16 411.212 38.208 411.532 37.392C411.868 36.56 412.364 35.912 413.02 35.448C413.692 34.984 414.532 34.752 415.54 34.752H415.612C416.604 34.752 417.428 34.984 418.084 35.448C418.756 35.896 419.252 36.536 419.572 37.368C419.892 38.184 420.052 39.144 420.052 40.248V47.688H418.78V39.96C418.78 38.76 418.484 37.792 417.892 37.056C417.316 36.304 416.46 35.928 415.324 35.928C414.172 35.928 413.26 36.312 412.588 37.08C411.932 37.848 411.604 38.848 411.604 40.08V47.688H410.332V39.96C410.332 38.76 410.036 37.792 409.444 37.056C408.868 36.304 408.012 35.928 406.876 35.928C405.724 35.928 404.812 36.312 404.14 37.08C403.484 37.848 403.156 38.848 403.156 40.08V47.688H401.884ZM429.965 48.096C428.893 48.096 427.965 47.912 427.181 47.544C426.397 47.16 425.757 46.656 425.261 46.032C424.765 45.392 424.389 44.68 424.133 43.896C423.893 43.096 423.773 42.288 423.773 41.472V41.232C423.773 40.4 423.893 39.6 424.133 38.832C424.389 38.064 424.765 37.368 425.261 36.744C425.773 36.104 426.405 35.608 427.157 35.256C427.925 34.888 428.813 34.704 429.821 34.704C431.101 34.704 432.173 34.992 433.037 35.568C433.917 36.128 434.581 36.864 435.029 37.776C435.477 38.688 435.701 39.648 435.701 40.656V41.52H424.373V40.464H434.861L434.477 40.944C434.477 39.968 434.293 39.096 433.925 38.328C433.573 37.56 433.045 36.96 432.341 36.528C431.653 36.08 430.813 35.856 429.821 35.856C428.749 35.856 427.853 36.104 427.133 36.6C426.413 37.096 425.869 37.76 425.501 38.592C425.149 39.424 424.973 40.344 424.973 41.352C424.973 42.36 425.149 43.288 425.501 44.136C425.869 44.968 426.421 45.648 427.157 46.176C427.893 46.688 428.829 46.944 429.965 46.944C431.181 46.944 432.157 46.664 432.893 46.104C433.645 45.544 434.101 44.872 434.261 44.088H435.509C435.333 44.872 434.997 45.568 434.501 46.176C434.005 46.784 433.373 47.256 432.605 47.592C431.853 47.928 430.973 48.096 429.965 48.096ZM439.433 47.688V30.168H440.705V47.688H439.433ZM437.537 31.248V30.168H440.705V31.248H437.537ZM446.314 47.688V35.088H447.61V47.688H446.314ZM444.226 36.192V35.088H447.61V36.192H444.226ZM446.434 32.448C446.098 32.448 445.842 32.36 445.666 32.184C445.49 31.992 445.402 31.752 445.402 31.464C445.402 31.16 445.49 30.912 445.666 30.72C445.842 30.528 446.106 30.432 446.458 30.432C446.794 30.432 447.05 30.528 447.226 30.72C447.402 30.912 447.49 31.16 447.49 31.464C447.49 31.752 447.402 31.992 447.226 32.184C447.066 32.36 446.802 32.448 446.434 32.448ZM452.579 47.688V35.088H453.587V40.248H453.299C453.299 39.144 453.475 38.184 453.827 37.368C454.195 36.536 454.731 35.896 455.435 35.448C456.155 34.984 457.043 34.752 458.099 34.752H458.171C459.755 34.752 460.947 35.248 461.747 36.24C462.547 37.216 462.947 38.552 462.947 40.248V47.688H461.651V39.96C461.651 38.76 461.323 37.792 460.667 37.056C460.027 36.304 459.099 35.928 457.883 35.928C456.651 35.928 455.667 36.312 454.931 37.08C454.211 37.832 453.851 38.832 453.851 40.08V47.688H452.579ZM472.856 48.096C471.784 48.096 470.856 47.912 470.072 47.544C469.288 47.16 468.648 46.656 468.152 46.032C467.656 45.392 467.28 44.68 467.024 43.896C466.784 43.096 466.664 42.288 466.664 41.472V41.232C466.664 40.4 466.784 39.6 467.024 38.832C467.28 38.064 467.656 37.368 468.152 36.744C468.664 36.104 469.296 35.608 470.048 35.256C470.816 34.888 471.704 34.704 472.712 34.704C473.992 34.704 475.064 34.992 475.928 35.568C476.808 36.128 477.472 36.864 477.92 37.776C478.368 38.688 478.592 39.648 478.592 40.656V41.52H467.264V40.464H477.752L477.368 40.944C477.368 39.968 477.184 39.096 476.816 38.328C476.464 37.56 475.936 36.96 475.232 36.528C474.544 36.08 473.704 35.856 472.712 35.856C471.64 35.856 470.744 36.104 470.024 36.6C469.304 37.096 468.76 37.76 468.392 38.592C468.04 39.424 467.864 40.344 467.864 41.352C467.864 42.36 468.04 43.288 468.392 44.136C468.76 44.968 469.312 45.648 470.048 46.176C470.784 46.688 471.72 46.944 472.856 46.944C474.072 46.944 475.048 46.664 475.784 46.104C476.536 45.544 476.992 44.872 477.152 44.088H478.4C478.224 44.872 477.888 45.568 477.392 46.176C476.896 46.784 476.264 47.256 475.496 47.592C474.744 47.928 473.864 48.096 472.856 48.096ZM486.019 48.048C484.451 48.048 483.243 47.688 482.395 46.968C481.563 46.248 481.139 45.328 481.123 44.208H482.371C482.371 44.928 482.651 45.56 483.211 46.104C483.787 46.632 484.723 46.896 486.019 46.896C487.283 46.896 488.211 46.632 488.803 46.104C489.395 45.56 489.691 44.92 489.691 44.184C489.691 43.464 489.419 42.912 488.875 42.528C488.347 42.144 487.627 41.904 486.715 41.808L485.227 41.64C484.123 41.512 483.243 41.168 482.587 40.608C481.947 40.048 481.627 39.288 481.627 38.328C481.627 37.64 481.803 37.024 482.155 36.48C482.507 35.936 483.011 35.504 483.667 35.184C484.339 34.864 485.123 34.704 486.019 34.704C487.331 34.704 488.387 35.024 489.187 35.664C490.003 36.304 490.419 37.176 490.435 38.28H489.187C489.203 37.592 488.931 37.016 488.371 36.552C487.827 36.088 487.043 35.856 486.019 35.856C484.947 35.856 484.147 36.104 483.619 36.6C483.107 37.096 482.851 37.68 482.851 38.352C482.851 38.912 483.051 39.392 483.451 39.792C483.867 40.192 484.491 40.44 485.323 40.536L486.811 40.704C487.995 40.816 488.971 41.16 489.739 41.736C490.523 42.312 490.915 43.136 490.915 44.208C490.915 44.928 490.715 45.576 490.315 46.152C489.931 46.728 489.379 47.192 488.659 47.544C487.939 47.88 487.059 48.048 486.019 48.048ZM494.315 47.688V45.84H495.995V47.688H494.315Z" fill="#717171"/>
<path d="M109.243 17.688V5.08799H110.251V10.248H109.963C109.963 9.15999 110.123 8.20799 110.443 7.39199C110.779 6.55999 111.275 5.91199 111.931 5.44799C112.587 4.98399 113.419 4.75199 114.427 4.75199H114.499C115.491 4.75199 116.315 4.98399 116.971 5.44799C117.627 5.89599 118.107 6.53599 118.411 7.36799C118.731 8.18399 118.891 9.14399 118.891 10.248H118.411C118.411 9.15999 118.571 8.20799 118.891 7.39199C119.227 6.55999 119.723 5.91199 120.379 5.44799C121.051 4.98399 121.891 4.75199 122.899 4.75199H122.971C123.963 4.75199 124.787 4.98399 125.443 5.44799C126.115 5.89599 126.611 6.53599 126.931 7.36799C127.251 8.18399 127.411 9.14399 127.411 10.248V17.688H126.139V9.95999C126.139 8.75999 125.843 7.79199 125.251 7.05599C124.675 6.30399 123.819 5.92799 122.683 5.92799C121.531 5.92799 120.619 6.31199 119.947 7.07999C119.291 7.84799 118.963 8.84799 118.963 10.08V17.688H117.691V9.95999C117.691 8.75999 117.395 7.79199 116.803 7.05599C116.227 6.30399 115.371 5.92799 114.235 5.92799C113.083 5.92799 112.171 6.31199 111.499 7.07999C110.843 7.84799 110.515 8.84799 110.515 10.08V17.688H109.243ZM136.485 18.048C134.965 18.048 133.813 17.56 133.029 16.584C132.245 15.608 131.853 14.288 131.853 12.624V5.08799H133.149V12.912C133.149 14.08 133.453 15.032 134.061 15.768C134.685 16.488 135.581 16.848 136.749 16.848C137.933 16.848 138.869 16.472 139.557 15.72C140.261 14.968 140.613 13.984 140.613 12.768V5.08799H141.885V17.688H140.877V12.6H141.165C141.165 13.672 140.989 14.624 140.637 15.456C140.301 16.272 139.797 16.912 139.125 17.376C138.453 17.824 137.597 18.048 136.557 18.048H136.485ZM151.084 17.808C150.3 17.808 149.612 17.696 149.02 17.472C148.428 17.232 147.972 16.832 147.652 16.272C147.332 15.712 147.172 14.96 147.172 14.016V0.983987H148.42V14.232C148.42 15 148.628 15.6 149.044 16.032C149.476 16.448 150.068 16.656 150.82 16.656H153.172V17.808H151.084ZM144.772 6.11999V5.08799H153.172V6.11999H144.772ZM161.188 18.048C159.668 18.048 158.516 17.56 157.732 16.584C156.948 15.608 156.556 14.288 156.556 12.624V5.08799H157.852V12.912C157.852 14.08 158.156 15.032 158.764 15.768C159.388 16.488 160.284 16.848 161.452 16.848C162.636 16.848 163.572 16.472 164.26 15.72C164.964 14.968 165.316 13.984 165.316 12.768V5.08799H166.588V17.688H165.58V12.6H165.868C165.868 13.672 165.692 14.624 165.34 15.456C165.004 16.272 164.5 16.912 163.828 17.376C163.156 17.824 162.3 18.048 161.26 18.048H161.188ZM179.291 17.688V13.92H179.051V9.28799C179.051 8.27999 178.787 7.50399 178.259 6.95999C177.731 6.39999 176.859 6.11999 175.643 6.11999C175.211 6.11999 174.771 6.13599 174.323 6.16799C173.875 6.18399 173.451 6.20799 173.051 6.23999C172.651 6.25599 172.291 6.28799 171.971 6.33599V5.18399C172.291 5.13599 172.627 5.09599 172.979 5.06399C173.347 5.03199 173.715 5.00799 174.083 4.99199C174.451 4.97599 174.803 4.96799 175.139 4.96799C176.403 4.96799 177.411 5.13599 178.163 5.47199C178.915 5.79199 179.459 6.28799 179.795 6.95999C180.131 7.61599 180.299 8.45599 180.299 9.47999V17.688H179.291ZM174.899 18.024C174.051 18.024 173.291 17.872 172.619 17.568C171.947 17.264 171.411 16.816 171.011 16.224C170.627 15.632 170.435 14.912 170.435 14.064C170.435 13.248 170.619 12.552 170.987 11.976C171.371 11.4 171.915 10.96 172.619 10.656C173.339 10.352 174.203 10.2 175.211 10.2H179.171V11.232H175.091C174.003 11.232 173.163 11.496 172.571 12.024C171.995 12.536 171.707 13.216 171.707 14.064C171.707 14.96 172.019 15.672 172.643 16.2C173.267 16.712 174.083 16.968 175.091 16.968C175.715 16.968 176.323 16.848 176.915 16.608C177.507 16.368 178.003 15.968 178.403 15.408C178.803 14.832 179.019 14.064 179.051 13.104L179.531 13.656C179.483 14.632 179.243 15.448 178.811 16.104C178.395 16.744 177.851 17.224 177.179 17.544C176.507 17.864 175.747 18.024 174.899 18.024ZM185.136 17.688V0.167988H186.408V17.688H185.136ZM183.24 1.24799V0.167988H186.408V1.24799H183.24ZM202.247 18.096C201.207 18.096 200.295 17.904 199.511 17.52C198.743 17.136 198.095 16.624 197.567 15.984C197.055 15.344 196.671 14.632 196.415 13.848C196.159 13.064 196.031 12.272 196.031 11.472V11.232C196.031 10.416 196.159 9.61599 196.415 8.83199C196.671 8.04799 197.055 7.35199 197.567 6.74399C198.095 6.11999 198.743 5.62399 199.511 5.25599C200.295 4.88799 201.207 4.70399 202.247 4.70399C203.255 4.70399 204.151 4.88799 204.935 5.25599C205.735 5.62399 206.383 6.14399 206.879 6.81599C207.391 7.47199 207.711 8.26399 207.839 9.19199H206.591C206.447 8.23199 205.999 7.43999 205.247 6.81599C204.495 6.17599 203.495 5.85599 202.247 5.85599C201.143 5.85599 200.223 6.10399 199.487 6.59999C198.751 7.09599 198.199 7.75999 197.831 8.59199C197.479 9.42399 197.303 10.344 197.303 11.352C197.303 12.328 197.487 13.24 197.855 14.088C198.223 14.936 198.775 15.624 199.511 16.152C200.247 16.664 201.159 16.92 202.247 16.92C203.095 16.92 203.839 16.768 204.479 16.464C205.135 16.144 205.663 15.728 206.063 15.216C206.463 14.688 206.703 14.112 206.783 13.488H208.031C207.919 14.416 207.599 15.224 207.071 15.912C206.543 16.584 205.863 17.12 205.031 17.52C204.199 17.904 203.271 18.096 202.247 18.096ZM216.997 18.096C215.941 18.096 215.005 17.904 214.189 17.52C213.373 17.136 212.685 16.632 212.125 16.008C211.581 15.384 211.165 14.688 210.877 13.92C210.605 13.136 210.469 12.336 210.469 11.52V11.28C210.469 10.448 210.613 9.63999 210.901 8.85599C211.189 8.07199 211.613 7.36799 212.173 6.74399C212.733 6.11999 213.413 5.62399 214.213 5.25599C215.029 4.88799 215.957 4.70399 216.997 4.70399C218.021 4.70399 218.933 4.88799 219.733 5.25599C220.549 5.62399 221.237 6.11999 221.797 6.74399C222.357 7.36799 222.781 8.07199 223.069 8.85599C223.373 9.63999 223.525 10.448 223.525 11.28V11.52C223.525 12.336 223.381 13.136 223.093 13.92C222.805 14.688 222.381 15.384 221.821 16.008C221.277 16.632 220.597 17.136 219.781 17.52C218.981 17.904 218.053 18.096 216.997 18.096ZM216.997 16.92C218.117 16.92 219.061 16.664 219.829 16.152C220.613 15.64 221.205 14.968 221.605 14.136C222.021 13.288 222.229 12.376 222.229 11.4C222.229 10.392 222.021 9.47199 221.605 8.63999C221.189 7.79199 220.589 7.11999 219.805 6.62399C219.037 6.11199 218.101 5.85599 216.997 5.85599C215.909 5.85599 214.965 6.11199 214.165 6.62399C213.381 7.11999 212.781 7.79199 212.365 8.63999C211.949 9.47199 211.741 10.392 211.741 11.4C211.741 12.376 211.941 13.288 212.341 14.136C212.757 14.968 213.357 15.64 214.141 16.152C214.925 16.664 215.877 16.92 216.997 16.92ZM227.392 17.688V5.08799H228.4V10.248H228.112C228.112 9.15999 228.272 8.20799 228.592 7.39199C228.928 6.55999 229.424 5.91199 230.08 5.44799C230.736 4.98399 231.568 4.75199 232.576 4.75199H232.648C233.64 4.75199 234.464 4.98399 235.12 5.44799C235.776 5.89599 236.256 6.53599 236.56 7.36799C236.88 8.18399 237.04 9.14399 237.04 10.248H236.56C236.56 9.15999 236.72 8.20799 237.04 7.39199C237.376 6.55999 237.872 5.91199 238.528 5.44799C239.2 4.98399 240.04 4.75199 241.048 4.75199H241.12C242.112 4.75199 242.936 4.98399 243.592 5.44799C244.264 5.89599 244.76 6.53599 245.08 7.36799C245.4 8.18399 245.56 9.14399 245.56 10.248V17.688H244.288V9.95999C244.288 8.75999 243.992 7.79199 243.4 7.05599C242.824 6.30399 241.968 5.92799 240.832 5.92799C239.68 5.92799 238.768 6.31199 238.096 7.07999C237.44 7.84799 237.112 8.84799 237.112 10.08V17.688H235.84V9.95999C235.84 8.75999 235.544 7.79199 234.952 7.05599C234.376 6.30399 233.52 5.92799 232.384 5.92799C231.232 5.92799 230.32 6.31199 229.648 7.07999C228.992 7.84799 228.664 8.84799 228.664 10.08V17.688H227.392ZM250.337 17.688V5.08799H251.345V10.248H251.057C251.057 9.15999 251.217 8.20799 251.537 7.39199C251.873 6.55999 252.369 5.91199 253.025 5.44799C253.681 4.98399 254.513 4.75199 255.521 4.75199H255.593C256.585 4.75199 257.409 4.98399 258.065 5.44799C258.721 5.89599 259.201 6.53599 259.505 7.36799C259.825 8.18399 259.985 9.14399 259.985 10.248H259.505C259.505 9.15999 259.665 8.20799 259.985 7.39199C260.321 6.55999 260.817 5.91199 261.473 5.44799C262.145 4.98399 262.985 4.75199 263.993 4.75199H264.065C265.057 4.75199 265.881 4.98399 266.537 5.44799C267.209 5.89599 267.705 6.53599 268.025 7.36799C268.345 8.18399 268.505 9.14399 268.505 10.248V17.688H267.233V9.95999C267.233 8.75999 266.937 7.79199 266.345 7.05599C265.769 6.30399 264.913 5.92799 263.777 5.92799C262.625 5.92799 261.713 6.31199 261.041 7.07999C260.385 7.84799 260.057 8.84799 260.057 10.08V17.688H258.785V9.95999C258.785 8.75999 258.489 7.79199 257.897 7.05599C257.321 6.30399 256.465 5.92799 255.329 5.92799C254.177 5.92799 253.265 6.31199 252.593 7.07999C251.937 7.84799 251.609 8.84799 251.609 10.08V17.688H250.337ZM273.955 17.688V5.08799H275.251V17.688H273.955ZM271.867 6.19199V5.08799H275.251V6.19199H271.867ZM274.075 2.44799C273.739 2.44799 273.483 2.35999 273.307 2.18399C273.131 1.99199 273.043 1.75199 273.043 1.46399C273.043 1.15999 273.131 0.911987 273.307 0.719988C273.483 0.527987 273.747 0.431987 274.099 0.431987C274.435 0.431987 274.691 0.527987 274.867 0.719988C275.043 0.911987 275.131 1.15999 275.131 1.46399C275.131 1.75199 275.043 1.99199 274.867 2.18399C274.707 2.35999 274.443 2.44799 274.075 2.44799ZM284.42 17.808C283.636 17.808 282.948 17.696 282.356 17.472C281.764 17.232 281.308 16.832 280.988 16.272C280.668 15.712 280.508 14.96 280.508 14.016V0.983987H281.756V14.232C281.756 15 281.964 15.6 282.38 16.032C282.812 16.448 283.404 16.656 284.156 16.656H286.508V17.808H284.42ZM278.108 6.11999V5.08799H286.508V6.11999H278.108ZM290.228 17.688V5.08799H291.236V10.248H290.948C290.948 9.15999 291.108 8.20799 291.428 7.39199C291.764 6.55999 292.26 5.91199 292.916 5.44799C293.572 4.98399 294.404 4.75199 295.412 4.75199H295.484C296.476 4.75199 297.3 4.98399 297.956 5.44799C298.612 5.89599 299.092 6.53599 299.396 7.36799C299.716 8.18399 299.876 9.14399 299.876 10.248H299.396C299.396 9.15999 299.556 8.20799 299.876 7.39199C300.212 6.55999 300.708 5.91199 301.364 5.44799C302.036 4.98399 302.876 4.75199 303.884 4.75199H303.956C304.948 4.75199 305.772 4.98399 306.428 5.44799C307.1 5.89599 307.596 6.53599 307.916 7.36799C308.236 8.18399 308.396 9.14399 308.396 10.248V17.688H307.124V9.95999C307.124 8.75999 306.828 7.79199 306.236 7.05599C305.66 6.30399 304.804 5.92799 303.668 5.92799C302.516 5.92799 301.604 6.31199 300.932 7.07999C300.276 7.84799 299.948 8.84799 299.948 10.08V17.688H298.676V9.95999C298.676 8.75999 298.38 7.79199 297.788 7.05599C297.212 6.30399 296.356 5.92799 295.22 5.92799C294.068 5.92799 293.156 6.31199 292.484 7.07999C291.828 7.84799 291.5 8.84799 291.5 10.08V17.688H290.228ZM318.309 18.096C317.237 18.096 316.309 17.912 315.525 17.544C314.741 17.16 314.101 16.656 313.605 16.032C313.109 15.392 312.733 14.68 312.477 13.896C312.237 13.096 312.117 12.288 312.117 11.472V11.232C312.117 10.4 312.237 9.59999 312.477 8.83199C312.733 8.06399 313.109 7.36799 313.605 6.74399C314.117 6.10399 314.749 5.60799 315.501 5.25599C316.269 4.88799 317.157 4.70399 318.165 4.70399C319.445 4.70399 320.517 4.99199 321.381 5.56799C322.261 6.12799 322.925 6.86399 323.373 7.77599C323.821 8.68799 324.045 9.64799 324.045 10.656V11.52H312.717V10.464H323.205L322.821 10.944C322.821 9.96799 322.637 9.09599 322.269 8.32799C321.917 7.55999 321.389 6.95999 320.685 6.52799C319.997 6.07999 319.157 5.85599 318.165 5.85599C317.093 5.85599 316.197 6.10399 315.477 6.59999C314.757 7.09599 314.213 7.75999 313.845 8.59199C313.493 9.42399 313.317 10.344 313.317 11.352C313.317 12.36 313.493 13.288 313.845 14.136C314.213 14.968 314.765 15.648 315.501 16.176C316.237 16.688 317.173 16.944 318.309 16.944C319.525 16.944 320.501 16.664 321.237 16.104C321.989 15.544 322.445 14.872 322.605 14.088H323.853C323.677 14.872 323.341 15.568 322.845 16.176C322.349 16.784 321.717 17.256 320.949 17.592C320.197 17.928 319.317 18.096 318.309 18.096ZM327.704 17.688V5.08799H328.712V10.248H328.424C328.424 9.14399 328.6 8.18399 328.952 7.36799C329.32 6.53599 329.856 5.89599 330.56 5.44799C331.28 4.98399 332.168 4.75199 333.224 4.75199H333.296C334.88 4.75199 336.072 5.24799 336.872 6.23999C337.672 7.21599 338.072 8.55199 338.072 10.248V17.688H336.776V9.95999C336.776 8.75999 336.448 7.79199 335.792 7.05599C335.152 6.30399 334.224 5.92799 333.008 5.92799C331.776 5.92799 330.792 6.31199 330.056 7.07999C329.336 7.83199 328.976 8.83199 328.976 10.08V17.688H327.704ZM347.045 17.808C346.261 17.808 345.573 17.696 344.981 17.472C344.389 17.232 343.933 16.832 343.613 16.272C343.293 15.712 343.133 14.96 343.133 14.016V0.983987H344.381V14.232C344.381 15 344.589 15.6 345.005 16.032C345.437 16.448 346.029 16.656 346.781 16.656H349.133V17.808H347.045ZM340.733 6.11999V5.08799H349.133V6.11999H340.733Z" fill="url(#paint0_radial_1051_853)"/>
<defs>
<radialGradient id="paint0_radial_1051_853" cx="0" cy="0" r="1" gradientUnits="userSpaceOnUse" gradientTransform="translate(299.584 24.688) rotate(90) scale(30 301)">
<stop stop-color="#5A69EA"/>
<stop offset="1" stop-color="#BF8BCA"/>
</radialGradient>
</defs>
</svg>
