<svg width="91" height="47" viewBox="0 0 91 47" fill="none" xmlns="http://www.w3.org/2000/svg">
<g filter="url(#filter0_ddiiii_1057_884)">
<rect x="3" y="3" width="85" height="41" rx="10" fill="#ECECEC"/>
<rect x="3.5" y="3.5" width="84" height="40" rx="9.5" stroke="url(#paint0_radial_1057_884)"/>
<path d="M20.28 30V16.04H21.36V30H20.28ZM15.6 16.38V15.4H26.04V16.38H15.6ZM31.7892 30.34C30.8959 30.34 30.1226 30.1867 29.4692 29.88C28.8159 29.56 28.2826 29.14 27.8692 28.62C27.4559 28.0867 27.1426 27.4933 26.9292 26.84C26.7292 26.1733 26.6292 25.5 26.6292 24.82V24.62C26.6292 23.9267 26.7292 23.26 26.9292 22.62C27.1426 21.98 27.4559 21.4 27.8692 20.88C28.2959 20.3467 28.8226 19.9333 29.4492 19.64C30.0892 19.3333 30.8292 19.18 31.6692 19.18C32.7359 19.18 33.6292 19.42 34.3492 19.9C35.0826 20.3667 35.6359 20.98 36.0092 21.74C36.3826 22.5 36.5692 23.3 36.5692 24.14V24.86H27.1292V23.98H35.8692L35.5492 24.38C35.5492 23.5667 35.3959 22.84 35.0892 22.2C34.7959 21.56 34.3559 21.06 33.7692 20.7C33.1959 20.3267 32.4959 20.14 31.6692 20.14C30.7759 20.14 30.0292 20.3467 29.4292 20.76C28.8292 21.1733 28.3759 21.7267 28.0692 22.42C27.7759 23.1133 27.6292 23.88 27.6292 24.72C27.6292 25.56 27.7759 26.3333 28.0692 27.04C28.3759 27.7333 28.8359 28.3 29.4492 28.74C30.0626 29.1667 30.8426 29.38 31.7892 29.38C32.8026 29.38 33.6159 29.1467 34.2292 28.68C34.8559 28.2133 35.2359 27.6533 35.3692 27H36.4092C36.2626 27.6533 35.9826 28.2333 35.5692 28.74C35.1559 29.2467 34.6292 29.64 33.9892 29.92C33.3626 30.2 32.6292 30.34 31.7892 30.34ZM39.6186 30V19.5H40.4586V23.94H40.2986C40.2986 22.42 40.6386 21.2867 41.3186 20.54C41.9986 19.7933 43.0986 19.42 44.6186 19.42H44.9786V20.38H44.4186C43.1786 20.38 42.2453 20.7 41.6186 21.34C40.9919 21.9667 40.6786 22.8933 40.6786 24.12V30H39.6186ZM47.5678 30V19.5H48.4078V23.8H48.1678C48.1678 22.8933 48.3011 22.1 48.5678 21.42C48.8478 20.7267 49.2611 20.1867 49.8078 19.8C50.3545 19.4133 51.0478 19.22 51.8878 19.22H51.9478C52.7745 19.22 53.4611 19.4133 54.0078 19.8C54.5545 20.1733 54.9545 20.7067 55.2078 21.4C55.4745 22.08 55.6078 22.88 55.6078 23.8H55.2078C55.2078 22.8933 55.3411 22.1 55.6078 21.42C55.8878 20.7267 56.3011 20.1867 56.8478 19.8C57.4078 19.4133 58.1078 19.22 58.9478 19.22H59.0078C59.8345 19.22 60.5211 19.4133 61.0678 19.8C61.6278 20.1733 62.0411 20.7067 62.3078 21.4C62.5745 22.08 62.7078 22.88 62.7078 23.8V30H61.6478V23.56C61.6478 22.56 61.4011 21.7533 60.9078 21.14C60.4278 20.5133 59.7145 20.2 58.7678 20.2C57.8078 20.2 57.0478 20.52 56.4878 21.16C55.9411 21.8 55.6678 22.6333 55.6678 23.66V30H54.6078V23.56C54.6078 22.56 54.3611 21.7533 53.8678 21.14C53.3878 20.5133 52.6745 20.2 51.7278 20.2C50.7678 20.2 50.0078 20.52 49.4478 21.16C48.9011 21.8 48.6278 22.6333 48.6278 23.66V30H47.5678ZM69.8289 30.3C68.5222 30.3 67.5156 30 66.8089 29.4C66.1156 28.8 65.7622 28.0333 65.7489 27.1H66.7889C66.7889 27.7 67.0222 28.2267 67.4889 28.68C67.9689 29.12 68.7489 29.34 69.8289 29.34C70.8822 29.34 71.6556 29.12 72.1489 28.68C72.6422 28.2267 72.8889 27.6933 72.8889 27.08C72.8889 26.48 72.6622 26.02 72.2089 25.7C71.7689 25.38 71.1689 25.18 70.4089 25.1L69.1689 24.96C68.2489 24.8533 67.5156 24.5667 66.9689 24.1C66.4356 23.6333 66.1689 23 66.1689 22.2C66.1689 21.6267 66.3156 21.1133 66.6089 20.66C66.9022 20.2067 67.3222 19.8467 67.8689 19.58C68.4289 19.3133 69.0822 19.18 69.8289 19.18C70.9222 19.18 71.8022 19.4467 72.4689 19.98C73.1489 20.5133 73.4956 21.24 73.5089 22.16H72.4689C72.4822 21.5867 72.2556 21.1067 71.7889 20.72C71.3356 20.3333 70.6822 20.14 69.8289 20.14C68.9356 20.14 68.2689 20.3467 67.8289 20.76C67.4022 21.1733 67.1889 21.66 67.1889 22.22C67.1889 22.6867 67.3556 23.0867 67.6889 23.42C68.0356 23.7533 68.5556 23.96 69.2489 24.04L70.4889 24.18C71.4756 24.2733 72.2889 24.56 72.9289 25.04C73.5822 25.52 73.9089 26.2067 73.9089 27.1C73.9089 27.7 73.7422 28.24 73.4089 28.72C73.0889 29.2 72.6289 29.5867 72.0289 29.88C71.4289 30.16 70.6956 30.3 69.8289 30.3Z" fill="#717171"/>
</g>
<defs>
<filter id="filter0_ddiiii_1057_884" x="0" y="0" width="91" height="47" filterUnits="userSpaceOnUse" color-interpolation-filters="sRGB">
<feFlood flood-opacity="0" result="BackgroundImageFix"/>
<feColorMatrix in="SourceAlpha" type="matrix" values="0 0 0 0 0 0 0 0 0 0 0 0 0 0 0 0 0 0 127 0" result="hardAlpha"/>
<feOffset dx="-1" dy="-1"/>
<feGaussianBlur stdDeviation="1"/>
<feColorMatrix type="matrix" values="0 0 0 0 0.788235 0 0 0 0 0.788235 0 0 0 0 0.788235 0 0 0 0.5 0"/>
<feBlend mode="normal" in2="BackgroundImageFix" result="effect1_dropShadow_1057_884"/>
<feColorMatrix in="SourceAlpha" type="matrix" values="0 0 0 0 0 0 0 0 0 0 0 0 0 0 0 0 0 0 127 0" result="hardAlpha"/>
<feOffset dx="1" dy="1"/>
<feGaussianBlur stdDeviation="1"/>
<feColorMatrix type="matrix" values="0 0 0 0 1 0 0 0 0 1 0 0 0 0 1 0 0 0 0.3 0"/>
<feBlend mode="normal" in2="effect1_dropShadow_1057_884" result="effect2_dropShadow_1057_884"/>
<feBlend mode="normal" in="SourceGraphic" in2="effect2_dropShadow_1057_884" result="shape"/>
<feColorMatrix in="SourceAlpha" type="matrix" values="0 0 0 0 0 0 0 0 0 0 0 0 0 0 0 0 0 0 127 0" result="hardAlpha"/>
<feOffset dx="1" dy="1"/>
<feGaussianBlur stdDeviation="1.5"/>
<feComposite in2="hardAlpha" operator="arithmetic" k2="-1" k3="1"/>
<feColorMatrix type="matrix" values="0 0 0 0 0.788235 0 0 0 0 0.788235 0 0 0 0 0.788235 0 0 0 0.9 0"/>
<feBlend mode="normal" in2="shape" result="effect3_innerShadow_1057_884"/>
<feColorMatrix in="SourceAlpha" type="matrix" values="0 0 0 0 0 0 0 0 0 0 0 0 0 0 0 0 0 0 127 0" result="hardAlpha"/>
<feOffset dx="-1" dy="-1"/>
<feGaussianBlur stdDeviation="1"/>
<feComposite in2="hardAlpha" operator="arithmetic" k2="-1" k3="1"/>
<feColorMatrix type="matrix" values="0 0 0 0 1 0 0 0 0 1 0 0 0 0 1 0 0 0 0.9 0"/>
<feBlend mode="normal" in2="effect3_innerShadow_1057_884" result="effect4_innerShadow_1057_884"/>
<feColorMatrix in="SourceAlpha" type="matrix" values="0 0 0 0 0 0 0 0 0 0 0 0 0 0 0 0 0 0 127 0" result="hardAlpha"/>
<feOffset dx="1" dy="-1"/>
<feGaussianBlur stdDeviation="1"/>
<feComposite in2="hardAlpha" operator="arithmetic" k2="-1" k3="1"/>
<feColorMatrix type="matrix" values="0 0 0 0 0.788235 0 0 0 0 0.788235 0 0 0 0 0.788235 0 0 0 0.2 0"/>
<feBlend mode="normal" in2="effect4_innerShadow_1057_884" result="effect5_innerShadow_1057_884"/>
<feColorMatrix in="SourceAlpha" type="matrix" values="0 0 0 0 0 0 0 0 0 0 0 0 0 0 0 0 0 0 127 0" result="hardAlpha"/>
<feOffset dx="-1" dy="1"/>
<feGaussianBlur stdDeviation="1"/>
<feComposite in2="hardAlpha" operator="arithmetic" k2="-1" k3="1"/>
<feColorMatrix type="matrix" values="0 0 0 0 0.788235 0 0 0 0 0.788235 0 0 0 0 0.788235 0 0 0 0.2 0"/>
<feBlend mode="normal" in2="effect5_innerShadow_1057_884" result="effect6_innerShadow_1057_884"/>
</filter>
<radialGradient id="paint0_radial_1057_884" cx="0" cy="0" r="1" gradientUnits="userSpaceOnUse" gradientTransform="translate(45.5 23.5) rotate(90) scale(20.5 42.5)">
<stop stop-color="#5A69EA"/>
<stop offset="1" stop-color="#BF8BCA"/>
</radialGradient>
</defs>
</svg>
