<svg width="390" height="106" viewBox="0 0 390 106" fill="none" xmlns="http://www.w3.org/2000/svg">
<path d="M10.9443 35.376V2.73598H14.5923V35.376H10.9443ZM0.000250041 3.64798V0.335976H25.5363V3.64798H0.000250041ZM39.1859 36.192C37.0099 36.192 35.1219 35.824 33.5219 35.088C31.9219 34.32 30.6099 33.312 29.5859 32.064C28.5619 30.784 27.7939 29.36 27.2819 27.792C26.8019 26.224 26.5619 24.608 26.5619 22.944V22.272C26.5619 20.64 26.8019 19.04 27.2819 17.472C27.7939 15.904 28.5619 14.496 29.5859 13.248C30.6099 12 31.8899 11.008 33.4259 10.272C34.9939 9.50397 36.8179 9.11997 38.8979 9.11997C41.5539 9.11997 43.7619 9.71197 45.5219 10.896C47.3139 12.08 48.6579 13.6 49.5539 15.456C50.4499 17.28 50.8979 19.248 50.8979 21.36V23.232H28.1939V20.448H48.4019L47.4899 21.84C47.4899 19.952 47.1539 18.304 46.4819 16.896C45.8419 15.456 44.8819 14.336 43.6019 13.536C42.3539 12.704 40.7859 12.288 38.8979 12.288C36.9139 12.288 35.2659 12.752 33.9539 13.68C32.6419 14.608 31.6499 15.84 30.9779 17.376C30.3379 18.912 30.0179 20.656 30.0179 22.608C30.0179 24.528 30.3379 26.288 30.9779 27.888C31.6499 29.456 32.6579 30.704 34.0019 31.632C35.3779 32.56 37.1059 33.024 39.1859 33.024C41.3939 33.024 43.1859 32.528 44.5619 31.536C45.9379 30.512 46.7859 29.312 47.1059 27.936H50.4659C50.1459 29.632 49.4739 31.104 48.4499 32.352C47.4259 33.568 46.1299 34.512 44.5619 35.184C42.9939 35.856 41.2019 36.192 39.1859 36.192ZM57.8279 35.376V9.98397H60.7079V20.592H60.4199C60.4199 16.88 61.2359 14.144 62.8679 12.384C64.4999 10.592 67.0599 9.69598 70.5479 9.69598H71.3639V12.96H69.8759C67.1239 12.96 65.0279 13.68 63.5879 15.12C62.1479 16.528 61.4279 18.608 61.4279 21.36V35.376H57.8279ZM77.1873 35.376V9.93598H80.0673V20.64H79.4913C79.4913 18.304 79.8113 16.288 80.4513 14.592C81.1233 12.896 82.1153 11.584 83.4273 10.656C84.7393 9.69598 86.4033 9.21598 88.4193 9.21598H88.5633C90.5793 9.21598 92.2433 9.67998 93.5553 10.608C94.8673 11.536 95.8433 12.848 96.4833 14.544C97.1233 16.24 97.4433 18.272 97.4433 20.64H96.2913C96.2913 18.304 96.6113 16.288 97.2513 14.592C97.9233 12.896 98.9153 11.584 100.227 10.656C101.571 9.69598 103.251 9.21598 105.267 9.21598H105.411C107.427 9.21598 109.091 9.67998 110.403 10.608C111.747 11.536 112.739 12.848 113.379 14.544C114.051 16.24 114.387 18.272 114.387 20.64V35.376H110.787V19.824C110.787 17.584 110.243 15.808 109.155 14.496C108.067 13.184 106.499 12.528 104.451 12.528C102.339 12.528 100.659 13.216 99.4113 14.592C98.1953 15.936 97.5873 17.76 97.5873 20.064V35.376H93.9873V19.824C93.9873 17.584 93.4433 15.808 92.3553 14.496C91.2673 13.184 89.6993 12.528 87.6513 12.528C85.5393 12.528 83.8593 13.216 82.6113 14.592C81.3953 15.936 80.7873 17.76 80.7873 20.064V35.376H77.1873ZM131.375 36.096C128.111 36.096 125.599 35.392 123.839 33.984C122.079 32.544 121.183 30.624 121.151 28.224H124.511C124.575 29.44 125.119 30.544 126.143 31.536C127.199 32.528 128.943 33.024 131.375 33.024C133.647 33.024 135.343 32.56 136.463 31.632C137.615 30.672 138.191 29.52 138.191 28.176C138.191 26.928 137.711 25.968 136.751 25.296C135.823 24.592 134.463 24.144 132.671 23.952L129.791 23.664C127.487 23.408 125.615 22.704 124.175 21.552C122.767 20.368 122.063 18.752 122.063 16.704C122.063 15.2 122.447 13.888 123.215 12.768C123.983 11.648 125.055 10.784 126.431 10.176C127.839 9.53598 129.487 9.21598 131.375 9.21598C134.095 9.21598 136.303 9.85598 137.999 11.136C139.727 12.416 140.607 14.24 140.639 16.608H137.279C137.247 15.392 136.735 14.368 135.743 13.536C134.751 12.704 133.295 12.288 131.375 12.288C129.391 12.288 127.903 12.72 126.911 13.584C125.951 14.448 125.471 15.504 125.471 16.752C125.471 17.808 125.839 18.688 126.575 19.392C127.311 20.064 128.463 20.48 130.031 20.64L132.911 20.928C135.471 21.216 137.551 21.952 139.151 23.136C140.783 24.32 141.599 26.016 141.599 28.224C141.599 29.728 141.167 31.088 140.303 32.304C139.471 33.488 138.287 34.416 136.751 35.088C135.215 35.76 133.423 36.096 131.375 36.096ZM181.281 35.376L166.449 19.632C165.073 18.128 163.969 16.816 163.137 15.696C162.337 14.576 161.761 13.504 161.409 12.48C161.057 11.424 160.881 10.288 160.881 9.07197C160.881 7.08798 161.249 5.42398 161.985 4.07998C162.753 2.73598 163.953 1.72798 165.585 1.05597C167.217 0.351974 169.329 -2.57492e-05 171.921 -2.57492e-05C173.041 -2.57492e-05 174.241 0.0479746 175.521 0.143975C176.801 0.239976 178.001 0.351975 179.121 0.479974V3.64798C178.417 3.58397 177.569 3.51997 176.577 3.45598C175.617 3.35997 174.657 3.29597 173.697 3.26398C172.769 3.19998 171.953 3.16798 171.249 3.16798C168.753 3.16798 166.977 3.67998 165.921 4.70397C164.865 5.72797 164.337 7.19997 164.337 9.11997C164.337 10.656 164.689 12.048 165.393 13.296C166.097 14.512 167.201 15.92 168.705 17.52L185.505 35.376H181.281ZM168.945 36.192C166.641 36.192 164.593 35.76 162.801 34.896C161.009 34 159.601 32.784 158.577 31.248C157.553 29.68 157.041 27.904 157.041 25.92V25.344C157.041 23.04 157.681 21.008 158.961 19.248C160.273 17.456 161.889 16.032 163.809 14.976L165.633 17.52C164.097 18.288 162.849 19.408 161.889 20.88C160.961 22.32 160.497 23.904 160.497 25.632C160.497 27.264 160.881 28.64 161.648 29.76C162.449 30.848 163.489 31.68 164.769 32.256C166.049 32.832 167.441 33.12 168.945 33.12C171.345 33.12 173.377 32.448 175.041 31.104C176.705 29.728 177.969 27.744 178.833 25.152C179.697 22.528 180.129 19.328 180.129 15.552H183.345C183.345 18.72 183.041 21.584 182.432 24.144C181.825 26.672 180.913 28.832 179.697 30.624C178.481 32.416 176.961 33.792 175.137 34.752C173.345 35.712 171.281 36.192 168.945 36.192ZM174.177 16.08V13.2H186.321V16.08H174.177ZM204.378 35.376V0.191975H208.026V35.376H204.378ZM226.122 35.376L214.17 19.872H218.442L230.586 35.376H226.122ZM206.538 22.08V18.816H215.946C217.674 18.816 219.114 18.48 220.266 17.808C221.418 17.136 222.282 16.224 222.858 15.072C223.434 13.92 223.722 12.608 223.722 11.136C223.722 9.66398 223.434 8.35198 222.858 7.19998C222.282 6.04798 221.418 5.13597 220.266 4.46397C219.114 3.75998 217.674 3.40798 215.946 3.40798H206.538V0.191975H215.322C217.914 0.191975 220.106 0.607975 221.898 1.43998C223.722 2.23997 225.098 3.43997 226.026 5.03998C226.986 6.60798 227.466 8.52798 227.466 10.8V11.472C227.466 13.744 226.986 15.68 226.026 17.28C225.066 18.848 223.69 20.048 221.898 20.88C220.106 21.68 217.914 22.08 215.322 22.08H206.538ZM245.112 36.096C242.072 36.096 239.752 35.12 238.152 33.168C236.552 31.184 235.752 28.432 235.752 24.912V9.93598H239.304V25.632C239.304 27.84 239.88 29.6 241.032 30.912C242.216 32.192 243.848 32.832 245.928 32.832C248.104 32.832 249.832 32.144 251.112 30.768C252.424 29.392 253.08 27.552 253.08 25.248V9.93598H256.68V35.376H253.8V24.768H254.376C254.376 27.136 254.04 29.168 253.368 30.864C252.696 32.528 251.688 33.824 250.344 34.752C249 35.648 247.304 36.096 245.256 36.096H245.112ZM266.334 35.376V0.335976H269.934V35.376H266.334ZM262.638 3.26398V0.335976H269.934V3.26398H262.638ZM289.873 36.192C287.697 36.192 285.809 35.824 284.209 35.088C282.609 34.32 281.297 33.312 280.273 32.064C279.249 30.784 278.481 29.36 277.969 27.792C277.489 26.224 277.249 24.608 277.249 22.944V22.272C277.249 20.64 277.489 19.04 277.969 17.472C278.481 15.904 279.249 14.496 280.273 13.248C281.297 12 282.577 11.008 284.113 10.272C285.681 9.50397 287.505 9.11997 289.585 9.11997C292.241 9.11997 294.449 9.71197 296.209 10.896C298.001 12.08 299.345 13.6 300.241 15.456C301.137 17.28 301.585 19.248 301.585 21.36V23.232H278.881V20.448H299.089L298.177 21.84C298.177 19.952 297.841 18.304 297.169 16.896C296.529 15.456 295.569 14.336 294.289 13.536C293.041 12.704 291.473 12.288 289.585 12.288C287.601 12.288 285.953 12.752 284.641 13.68C283.329 14.608 282.337 15.84 281.665 17.376C281.025 18.912 280.705 20.656 280.705 22.608C280.705 24.528 281.025 26.288 281.665 27.888C282.337 29.456 283.345 30.704 284.689 31.632C286.065 32.56 287.793 33.024 289.873 33.024C292.081 33.024 293.873 32.528 295.249 31.536C296.625 30.512 297.473 29.312 297.793 27.936H301.153C300.833 29.632 300.161 31.104 299.137 32.352C298.113 33.568 296.817 34.512 295.249 35.184C293.681 35.856 291.889 36.192 289.873 36.192ZM316.531 36.096C313.267 36.096 310.755 35.392 308.995 33.984C307.235 32.544 306.339 30.624 306.307 28.224H309.667C309.731 29.44 310.275 30.544 311.299 31.536C312.355 32.528 314.099 33.024 316.531 33.024C318.803 33.024 320.499 32.56 321.619 31.632C322.771 30.672 323.347 29.52 323.347 28.176C323.347 26.928 322.867 25.968 321.907 25.296C320.979 24.592 319.619 24.144 317.827 23.952L314.947 23.664C312.643 23.408 310.771 22.704 309.331 21.552C307.923 20.368 307.219 18.752 307.219 16.704C307.219 15.2 307.603 13.888 308.371 12.768C309.139 11.648 310.211 10.784 311.587 10.176C312.995 9.53598 314.643 9.21598 316.531 9.21598C319.251 9.21598 321.459 9.85598 323.155 11.136C324.883 12.416 325.763 14.24 325.795 16.608H322.435C322.403 15.392 321.891 14.368 320.899 13.536C319.907 12.704 318.451 12.288 316.531 12.288C314.547 12.288 313.059 12.72 312.067 13.584C311.107 14.448 310.627 15.504 310.627 16.752C310.627 17.808 310.995 18.688 311.731 19.392C312.467 20.064 313.619 20.48 315.187 20.64L318.067 20.928C320.627 21.216 322.707 21.952 324.307 23.136C325.939 24.32 326.755 26.016 326.755 28.224C326.755 29.728 326.323 31.088 325.459 32.304C324.627 33.488 323.443 34.416 321.907 35.088C320.371 35.76 318.579 36.096 316.531 36.096Z" fill="#0D0D0D"/>
<path d="M356.501 36.192C354.325 36.192 352.405 35.824 350.741 35.088C349.109 34.32 347.717 33.312 346.565 32.064C345.445 30.784 344.581 29.36 343.973 27.792C343.397 26.224 343.109 24.624 343.109 22.992V22.32C343.109 20.688 343.413 19.088 344.021 17.52C344.629 15.92 345.509 14.496 346.661 13.248C347.813 12 349.205 11.008 350.837 10.272C352.501 9.50397 354.389 9.11997 356.501 9.11997C358.645 9.11997 360.533 9.50397 362.165 10.272C363.829 11.008 365.237 12 366.389 13.248C367.541 14.496 368.405 15.92 368.981 17.52C369.589 19.088 369.893 20.688 369.893 22.32V22.992C369.893 24.624 369.605 26.224 369.029 27.792C368.453 29.36 367.589 30.784 366.437 32.064C365.317 33.312 363.925 34.32 362.261 35.088C360.597 35.824 358.677 36.192 356.501 36.192ZM356.501 32.976C358.613 32.976 360.389 32.512 361.829 31.584C363.301 30.624 364.421 29.376 365.189 27.84C365.957 26.272 366.341 24.544 366.341 22.656C366.341 20.736 365.941 19.008 365.141 17.472C364.373 15.904 363.253 14.672 361.781 13.776C360.309 12.848 358.549 12.384 356.501 12.384C354.485 12.384 352.741 12.848 351.269 13.776C349.797 14.672 348.661 15.904 347.861 17.472C347.093 19.008 346.709 20.736 346.709 22.656C346.709 24.544 347.093 26.272 347.861 27.84C348.629 29.376 349.733 30.624 351.173 31.584C352.645 32.512 354.421 32.976 356.501 32.976ZM377.954 35.376V8.01597C377.954 5.35997 378.642 3.39197 380.018 2.11198C381.394 0.831975 383.458 0.191975 386.21 0.191975H389.426V3.26398H385.538C384.194 3.26398 383.17 3.61598 382.466 4.31998C381.762 5.02398 381.41 6.01598 381.41 7.29597V35.376H377.954ZM374.258 12.96V10.176H389.954V12.96H374.258ZM4.12825 95.376V60.336H7.77625V95.376H4.12825ZM6.91225 95.376V92.064H24.4323V95.376H6.91225ZM6.91225 79.2V75.936H22.8003V79.2H6.91225ZM6.91225 63.648V60.336H23.9043V63.648H6.91225ZM32.2341 95.376V69.984H35.1141V80.64H34.5381C34.5381 78.272 34.8901 76.24 35.5941 74.544C36.2981 72.848 37.3541 71.536 38.7621 70.608C40.1701 69.68 41.9461 69.216 44.0901 69.216H44.2341C47.4341 69.216 49.8181 70.224 51.3861 72.24C52.9541 74.224 53.7381 77.024 53.7381 80.64V95.376H50.1861V79.872C50.1861 77.664 49.5781 75.888 48.3621 74.544C47.1461 73.2 45.4501 72.528 43.2741 72.528C41.0341 72.528 39.2261 73.232 37.8501 74.64C36.5061 76.016 35.8341 77.84 35.8341 80.112V95.376H32.2341ZM72.3989 105.312C71.2149 105.312 70.0149 105.248 68.7989 105.12C67.6149 105.024 66.4789 104.896 65.3909 104.736V101.664C66.5429 101.824 67.7429 101.952 68.9909 102.048C70.2709 102.176 71.4709 102.24 72.5909 102.24C75.0229 102.24 76.9589 101.92 78.3989 101.28C79.8389 100.64 80.8629 99.616 81.4709 98.208C82.1109 96.832 82.4309 95.008 82.4309 92.736V87.648L83.7749 84.096C83.7109 86.528 83.1989 88.624 82.2389 90.384C81.2789 92.112 79.9829 93.44 78.3509 94.368C76.7189 95.296 74.8629 95.76 72.7829 95.76C70.9589 95.76 69.2949 95.408 67.7909 94.704C66.3189 94 65.0549 93.04 63.9989 91.824C62.9429 90.576 62.1269 89.168 61.5509 87.6C60.9749 86.032 60.6869 84.384 60.6869 82.656V81.984C60.6869 80.288 60.9749 78.672 61.5509 77.136C62.1269 75.568 62.9429 74.192 63.9989 73.008C65.0549 71.792 66.3349 70.848 67.8389 70.176C69.3749 69.472 71.0709 69.12 72.9269 69.12C75.1669 69.12 77.1189 69.616 78.7829 70.608C80.4469 71.6 81.7429 72.976 82.6709 74.736C83.6309 76.496 84.1429 78.56 84.2069 80.928L83.0549 80.304V69.984H85.8869V92.592C85.8869 95.632 85.4389 98.08 84.5429 99.936C83.6469 101.792 82.2069 103.152 80.2229 104.016C78.2709 104.88 75.6629 105.312 72.3989 105.312ZM73.4069 92.448C75.1349 92.448 76.6709 92.08 78.0149 91.344C79.3909 90.576 80.4789 89.504 81.2789 88.128C82.0789 86.752 82.4789 85.152 82.4789 83.328V80.976C82.4789 79.216 82.0629 77.68 81.2309 76.368C80.4309 75.056 79.3589 74.032 78.0149 73.296C76.6709 72.56 75.1349 72.192 73.4069 72.192C71.5509 72.192 69.9349 72.64 68.5589 73.536C67.1829 74.432 66.1269 75.648 65.3909 77.184C64.6549 78.688 64.2869 80.4 64.2869 82.32C64.2869 84.272 64.6549 86.016 65.3909 87.552C66.1589 89.088 67.2309 90.288 68.6069 91.152C69.9829 92.016 71.5829 92.448 73.4069 92.448ZM110.362 95.376V87.744H109.786V78.72C109.786 76.832 109.29 75.392 108.298 74.4C107.306 73.376 105.77 72.864 103.69 72.864C102.73 72.864 101.754 72.88 100.762 72.912C99.802 72.944 98.874 72.992 97.978 73.056C97.114 73.088 96.346 73.136 95.674 73.2V70.032C96.378 69.968 97.098 69.904 97.834 69.84C98.57 69.776 99.322 69.744 100.09 69.744C100.89 69.712 101.658 69.696 102.394 69.696C104.986 69.696 107.066 70.016 108.634 70.656C110.234 71.296 111.402 72.304 112.138 73.68C112.874 75.024 113.242 76.816 113.242 79.056V95.376H110.362ZM101.77 96.048C99.978 96.048 98.394 95.728 97.018 95.088C95.642 94.448 94.57 93.52 93.802 92.304C93.066 91.088 92.698 89.616 92.698 87.888C92.698 86.192 93.082 84.752 93.85 83.568C94.65 82.384 95.786 81.488 97.258 80.88C98.762 80.24 100.57 79.92 102.682 79.92H110.122V82.656H102.442C100.426 82.656 98.874 83.152 97.786 84.144C96.73 85.104 96.202 86.368 96.202 87.936C96.202 89.536 96.762 90.816 97.882 91.776C99.002 92.704 100.522 93.168 102.442 93.168C103.626 93.168 104.762 92.96 105.85 92.544C106.938 92.096 107.85 91.36 108.586 90.336C109.322 89.28 109.722 87.84 109.786 86.016L110.842 87.504C110.714 89.392 110.266 90.976 109.498 92.256C108.73 93.504 107.69 94.448 106.378 95.088C105.066 95.728 103.53 96.048 101.77 96.048ZM131.93 105.312C130.746 105.312 129.546 105.248 128.33 105.12C127.146 105.024 126.01 104.896 124.922 104.736V101.664C126.074 101.824 127.274 101.952 128.522 102.048C129.802 102.176 131.002 102.24 132.122 102.24C134.554 102.24 136.49 101.92 137.93 101.28C139.37 100.64 140.394 99.616 141.002 98.208C141.642 96.832 141.962 95.008 141.962 92.736V87.648L143.306 84.096C143.242 86.528 142.73 88.624 141.77 90.384C140.81 92.112 139.514 93.44 137.882 94.368C136.25 95.296 134.394 95.76 132.314 95.76C130.49 95.76 128.826 95.408 127.322 94.704C125.85 94 124.586 93.04 123.53 91.824C122.474 90.576 121.658 89.168 121.082 87.6C120.506 86.032 120.218 84.384 120.218 82.656V81.984C120.218 80.288 120.506 78.672 121.082 77.136C121.658 75.568 122.474 74.192 123.53 73.008C124.586 71.792 125.866 70.848 127.37 70.176C128.906 69.472 130.602 69.12 132.458 69.12C134.698 69.12 136.65 69.616 138.314 70.608C139.978 71.6 141.274 72.976 142.202 74.736C143.162 76.496 143.674 78.56 143.738 80.928L142.586 80.304V69.984H145.418V92.592C145.418 95.632 144.97 98.08 144.074 99.936C143.178 101.792 141.738 103.152 139.754 104.016C137.802 104.88 135.194 105.312 131.93 105.312ZM132.938 92.448C134.666 92.448 136.202 92.08 137.546 91.344C138.922 90.576 140.01 89.504 140.81 88.128C141.61 86.752 142.01 85.152 142.01 83.328V80.976C142.01 79.216 141.594 77.68 140.762 76.368C139.962 75.056 138.89 74.032 137.546 73.296C136.202 72.56 134.666 72.192 132.938 72.192C131.082 72.192 129.466 72.64 128.09 73.536C126.714 74.432 125.658 75.648 124.922 77.184C124.186 78.688 123.818 80.4 123.818 82.32C123.818 84.272 124.186 86.016 124.922 87.552C125.69 89.088 126.762 90.288 128.138 91.152C129.514 92.016 131.114 92.448 132.938 92.448ZM165.045 96.192C162.869 96.192 160.981 95.824 159.381 95.088C157.781 94.32 156.469 93.312 155.445 92.064C154.421 90.784 153.653 89.36 153.141 87.792C152.661 86.224 152.421 84.608 152.421 82.944V82.272C152.421 80.64 152.661 79.04 153.141 77.472C153.653 75.904 154.421 74.496 155.445 73.248C156.469 72 157.749 71.008 159.285 70.272C160.853 69.504 162.677 69.12 164.757 69.12C167.413 69.12 169.621 69.712 171.381 70.896C173.173 72.08 174.517 73.6 175.413 75.456C176.309 77.28 176.757 79.248 176.757 81.36V83.232H154.053V80.448H174.261L173.349 81.84C173.349 79.952 173.013 78.304 172.341 76.896C171.701 75.456 170.741 74.336 169.461 73.536C168.213 72.704 166.645 72.288 164.757 72.288C162.773 72.288 161.125 72.752 159.813 73.68C158.501 74.608 157.509 75.84 156.837 77.376C156.197 78.912 155.877 80.656 155.877 82.608C155.877 84.528 156.197 86.288 156.837 87.888C157.509 89.456 158.517 90.704 159.861 91.632C161.237 92.56 162.965 93.024 165.045 93.024C167.253 93.024 169.045 92.528 170.421 91.536C171.797 90.512 172.645 89.312 172.965 87.936H176.325C176.005 89.632 175.333 91.104 174.309 92.352C173.285 93.568 171.989 94.512 170.421 95.184C168.853 95.856 167.061 96.192 165.045 96.192ZM183.687 95.376V69.936H186.567V80.64H185.991C185.991 78.304 186.311 76.288 186.951 74.592C187.623 72.896 188.615 71.584 189.927 70.656C191.239 69.696 192.903 69.216 194.919 69.216H195.063C197.079 69.216 198.743 69.68 200.055 70.608C201.367 71.536 202.343 72.848 202.983 74.544C203.623 76.24 203.943 78.272 203.943 80.64H202.791C202.791 78.304 203.111 76.288 203.751 74.592C204.423 72.896 205.415 71.584 206.727 70.656C208.071 69.696 209.751 69.216 211.767 69.216H211.911C213.927 69.216 215.591 69.68 216.903 70.608C218.247 71.536 219.239 72.848 219.879 74.544C220.551 76.24 220.887 78.272 220.887 80.64V95.376H217.287V79.824C217.287 77.584 216.743 75.808 215.655 74.496C214.567 73.184 212.999 72.528 210.951 72.528C208.839 72.528 207.159 73.216 205.911 74.592C204.695 75.936 204.087 77.76 204.087 80.064V95.376H200.487V79.824C200.487 77.584 199.943 75.808 198.855 74.496C197.767 73.184 196.199 72.528 194.151 72.528C192.039 72.528 190.359 73.216 189.111 74.592C187.895 75.936 187.287 77.76 187.287 80.064V95.376H183.687ZM240.467 96.192C238.291 96.192 236.403 95.824 234.803 95.088C233.203 94.32 231.891 93.312 230.867 92.064C229.843 90.784 229.075 89.36 228.563 87.792C228.083 86.224 227.843 84.608 227.843 82.944V82.272C227.843 80.64 228.083 79.04 228.563 77.472C229.075 75.904 229.843 74.496 230.867 73.248C231.891 72 233.171 71.008 234.707 70.272C236.275 69.504 238.099 69.12 240.179 69.12C242.835 69.12 245.043 69.712 246.803 70.896C248.595 72.08 249.939 73.6 250.835 75.456C251.731 77.28 252.179 79.248 252.179 81.36V83.232H229.475V80.448H249.683L248.771 81.84C248.771 79.952 248.435 78.304 247.763 76.896C247.123 75.456 246.163 74.336 244.883 73.536C243.635 72.704 242.067 72.288 240.179 72.288C238.195 72.288 236.547 72.752 235.235 73.68C233.923 74.608 232.931 75.84 232.259 77.376C231.619 78.912 231.299 80.656 231.299 82.608C231.299 84.528 231.619 86.288 232.259 87.888C232.931 89.456 233.939 90.704 235.283 91.632C236.659 92.56 238.387 93.024 240.467 93.024C242.675 93.024 244.467 92.528 245.843 91.536C247.219 90.512 248.067 89.312 248.387 87.936H251.747C251.427 89.632 250.755 91.104 249.731 92.352C248.707 93.568 247.411 94.512 245.843 95.184C244.275 95.856 242.483 96.192 240.467 96.192ZM259.109 95.376V69.984H261.989V80.64H261.413C261.413 78.272 261.765 76.24 262.469 74.544C263.173 72.848 264.229 71.536 265.637 70.608C267.045 69.68 268.821 69.216 270.965 69.216H271.109C274.309 69.216 276.693 70.224 278.261 72.24C279.829 74.224 280.613 77.024 280.613 80.64V95.376H277.061V79.872C277.061 77.664 276.453 75.888 275.237 74.544C274.021 73.2 272.325 72.528 270.149 72.528C267.909 72.528 266.101 73.232 264.725 74.64C263.381 76.016 262.709 77.84 262.709 80.112V95.376H259.109ZM298.794 95.664C297.034 95.664 295.514 95.408 294.234 94.896C292.954 94.384 291.962 93.52 291.258 92.304C290.554 91.056 290.202 89.392 290.202 87.312V61.968H293.658V87.84C293.658 89.312 294.058 90.448 294.858 91.248C295.658 92.016 296.794 92.4 298.266 92.4H302.826V95.664H298.794ZM285.642 72.72V69.984H302.826V72.72H285.642Z" fill="url(#paint0_radial_1051_834)"/>
<defs>
<radialGradient id="paint0_radial_1051_834" cx="0" cy="0" r="1" gradientUnits="userSpaceOnUse" gradientTransform="translate(261.656 49.376) rotate(90) scale(60 263)">
<stop stop-color="#5A69EA"/>
<stop offset="1" stop-color="#BF8BCA"/>
</radialGradient>
</defs>
</svg>
