<svg width="111" height="38" viewBox="0 0 111 38" fill="none" xmlns="http://www.w3.org/2000/svg">
<rect width="111" height="38" rx="10" fill="#ECECEC"/>
<path d="M17.968 24V14.326L18.43 14.69H15.644V13.78H19.018V24H17.968ZM25.9762 24.238C25.2576 24.238 24.6416 24.112 24.1282 23.86C23.6149 23.608 23.1949 23.258 22.8682 22.81C22.5416 22.3527 22.2989 21.8207 22.1402 21.214C21.9909 20.598 21.9162 19.9353 21.9162 19.226V18.568C21.9162 17.5693 22.0609 16.692 22.3502 15.936C22.6489 15.18 23.0969 14.5873 23.6942 14.158C24.3009 13.7287 25.0616 13.514 25.9762 13.514C26.8909 13.514 27.6469 13.7287 28.2442 14.158C28.8416 14.5873 29.2849 15.18 29.5742 15.936C29.8729 16.692 30.0222 17.5693 30.0222 18.568V19.226C30.0222 19.9353 29.9429 20.598 29.7842 21.214C29.6349 21.8207 29.3969 22.3527 29.0702 22.81C28.7436 23.258 28.3236 23.608 27.8102 23.86C27.2969 24.112 26.6856 24.238 25.9762 24.238ZM25.9762 23.286C26.9842 23.286 27.7309 22.9313 28.2162 22.222C28.7109 21.5127 28.9582 20.4067 28.9582 18.904C28.9582 17.336 28.7062 16.2067 28.2022 15.516C27.7076 14.816 26.9656 14.466 25.9762 14.466C24.9776 14.466 24.2262 14.816 23.7222 15.516C23.2276 16.2067 22.9802 17.3267 22.9802 18.876C22.9802 20.388 23.2229 21.5033 23.7082 22.222C24.2029 22.9313 24.9589 23.286 25.9762 23.286ZM35.7447 24V16.58H36.5847V19.702H36.4167C36.4167 19.0207 36.5101 18.4327 36.6967 17.938C36.8927 17.4433 37.1821 17.0607 37.5647 16.79C37.9474 16.51 38.4327 16.37 39.0207 16.37H39.0627C39.6507 16.37 40.1361 16.5053 40.5187 16.776C40.9014 17.0467 41.1861 17.4293 41.3727 17.924C41.5594 18.4187 41.6527 19.0113 41.6527 19.702H41.3167C41.3167 19.0207 41.4101 18.4327 41.5967 17.938C41.7927 17.4433 42.0821 17.0607 42.4647 16.79C42.8567 16.51 43.3467 16.37 43.9347 16.37H43.9767C44.5647 16.37 45.0501 16.5053 45.4327 16.776C45.8247 17.0467 46.1141 17.4293 46.3007 17.924C46.4967 18.4187 46.5947 19.0113 46.5947 19.702V24H45.5447V19.464C45.5447 18.8107 45.3861 18.2927 45.0687 17.91C44.7514 17.5273 44.2941 17.336 43.6967 17.336C43.0807 17.336 42.5907 17.5367 42.2267 17.938C41.8721 18.33 41.6947 18.862 41.6947 19.534V24H40.6447V19.464C40.6447 18.8107 40.4861 18.2927 40.1687 17.91C39.8514 17.5273 39.3941 17.336 38.7967 17.336C38.1807 17.336 37.6907 17.5367 37.3267 17.938C36.9721 18.33 36.7947 18.862 36.7947 19.534V24H35.7447ZM49.6035 24V16.594H50.6395V24H49.6035ZM48.4135 17.434V16.594H50.6395V17.434H48.4135ZM49.8275 15.222C49.5755 15.222 49.3842 15.1567 49.2535 15.026C49.1322 14.886 49.0715 14.7133 49.0715 14.508C49.0715 14.3027 49.1322 14.1347 49.2535 14.004C49.3842 13.864 49.5755 13.794 49.8275 13.794C50.0795 13.794 50.2662 13.864 50.3875 14.004C50.5088 14.1347 50.5695 14.3027 50.5695 14.508C50.5695 14.7133 50.5088 14.886 50.3875 15.026C50.2662 15.1567 50.0795 15.222 49.8275 15.222ZM53.3951 24V16.594H54.2351V19.702H54.0671C54.0671 19.0113 54.1698 18.4187 54.3751 17.924C54.5804 17.4293 54.8884 17.0467 55.2991 16.776C55.7098 16.5053 56.2278 16.37 56.8531 16.37H56.8951C57.8284 16.37 58.5238 16.664 58.9811 17.252C59.4384 17.8307 59.6671 18.6473 59.6671 19.702V24H58.6311V19.478C58.6311 18.834 58.4538 18.316 58.0991 17.924C57.7444 17.532 57.2498 17.336 56.6151 17.336C55.9618 17.336 55.4344 17.5413 55.0331 17.952C54.6411 18.3533 54.4451 18.8853 54.4451 19.548V24H53.3951ZM65.5494 24V16.594H66.3894V19.688H66.3054C66.3054 18.6053 66.5434 17.8073 67.0194 17.294C67.4954 16.7713 68.2421 16.51 69.2594 16.51H69.4974V17.462H69.0634C68.2607 17.462 67.6494 17.672 67.2294 18.092C66.8094 18.5027 66.5994 19.1093 66.5994 19.912V24H65.5494ZM74.1942 24.238C73.5595 24.238 73.0089 24.1307 72.5422 23.916C72.0755 23.692 71.6929 23.398 71.3942 23.034C71.0955 22.6607 70.8715 22.2453 70.7222 21.788C70.5822 21.3307 70.5122 20.8593 70.5122 20.374V20.178C70.5122 19.702 70.5822 19.2353 70.7222 18.778C70.8715 18.3207 71.0955 17.91 71.3942 17.546C71.6929 17.182 72.0662 16.8927 72.5142 16.678C72.9715 16.454 73.5035 16.342 74.1102 16.342C74.8849 16.342 75.5289 16.5147 76.0422 16.86C76.5649 17.2053 76.9569 17.6487 77.2182 18.19C77.4795 18.722 77.6102 19.296 77.6102 19.912V20.458H70.9882V19.646H76.8822L76.6162 20.052C76.6162 19.5013 76.5182 19.0207 76.3222 18.61C76.1355 18.19 75.8555 17.8633 75.4822 17.63C75.1182 17.3873 74.6609 17.266 74.1102 17.266C73.5315 17.266 73.0509 17.4013 72.6682 17.672C72.2855 17.9427 71.9962 18.302 71.8002 18.75C71.6135 19.198 71.5202 19.7067 71.5202 20.276C71.5202 20.836 71.6135 21.3493 71.8002 21.816C71.9962 22.2733 72.2902 22.6373 72.6822 22.908C73.0835 23.1787 73.5875 23.314 74.1942 23.314C74.8382 23.314 75.3609 23.1693 75.7622 22.88C76.1635 22.5813 76.4109 22.2313 76.5042 21.83H77.4842C77.3909 22.3247 77.1949 22.754 76.8962 23.118C76.5975 23.4727 76.2195 23.748 75.7622 23.944C75.3049 24.14 74.7822 24.238 74.1942 24.238ZM84.1394 24V21.774H83.9714V19.142C83.9714 18.5913 83.8268 18.1713 83.5374 17.882C83.2481 17.5833 82.8001 17.434 82.1934 17.434C81.9134 17.434 81.6288 17.4387 81.3394 17.448C81.0594 17.4573 80.7888 17.4713 80.5274 17.49C80.2754 17.4993 80.0514 17.5133 79.8554 17.532V16.608C80.0608 16.5893 80.2708 16.5707 80.4854 16.552C80.7001 16.5333 80.9194 16.524 81.1434 16.524C81.3768 16.5147 81.6008 16.51 81.8154 16.51C82.5714 16.51 83.1781 16.6033 83.6354 16.79C84.1021 16.9767 84.4428 17.2707 84.6574 17.672C84.8721 18.064 84.9794 18.5867 84.9794 19.24V24H84.1394ZM81.6334 24.196C81.1108 24.196 80.6488 24.1027 80.2474 23.916C79.8461 23.7293 79.5334 23.4587 79.3094 23.104C79.0948 22.7493 78.9874 22.32 78.9874 21.816C78.9874 21.3213 79.0994 20.9013 79.3234 20.556C79.5568 20.2107 79.8881 19.9493 80.3174 19.772C80.7561 19.5853 81.2834 19.492 81.8994 19.492H84.0694V20.29H81.8294C81.2414 20.29 80.7888 20.4347 80.4714 20.724C80.1634 21.004 80.0094 21.3727 80.0094 21.83C80.0094 22.2967 80.1728 22.67 80.4994 22.95C80.8261 23.2207 81.2694 23.356 81.8294 23.356C82.1748 23.356 82.5061 23.2953 82.8234 23.174C83.1408 23.0433 83.4068 22.8287 83.6214 22.53C83.8361 22.222 83.9528 21.802 83.9714 21.27L84.2794 21.704C84.2421 22.2547 84.1114 22.7167 83.8874 23.09C83.6634 23.454 83.3601 23.7293 82.9774 23.916C82.5948 24.1027 82.1468 24.196 81.6334 24.196ZM90.6401 24.238C90.0988 24.238 89.6041 24.14 89.1561 23.944C88.7175 23.7387 88.3348 23.4587 88.0081 23.104C87.6908 22.74 87.4435 22.3293 87.2661 21.872C87.0981 21.4053 87.0141 20.9107 87.0141 20.388V20.192C87.0141 19.688 87.0981 19.2073 87.2661 18.75C87.4341 18.2833 87.6721 17.8727 87.9801 17.518C88.2975 17.154 88.6755 16.8693 89.1141 16.664C89.5621 16.4493 90.0615 16.342 90.6121 16.342C91.2375 16.342 91.7881 16.4773 92.2641 16.748C92.7401 17.0187 93.1228 17.4107 93.4121 17.924C93.7015 18.428 93.8555 19.0487 93.8741 19.786L93.4121 18.918V13.78H94.4621V24H93.6221V20.71H93.9581C93.9395 21.4847 93.7761 22.138 93.4681 22.67C93.1695 23.1927 92.7728 23.5847 92.2781 23.846C91.7928 24.1073 91.2468 24.238 90.6401 24.238ZM90.7801 23.314C91.2841 23.314 91.7368 23.202 92.1381 22.978C92.5488 22.754 92.8708 22.4367 93.1041 22.026C93.3375 21.606 93.4541 21.1253 93.4541 20.584V19.912C93.4541 19.3893 93.3375 18.932 93.1041 18.54C92.8708 18.1387 92.5488 17.826 92.1381 17.602C91.7368 17.378 91.2795 17.266 90.7661 17.266C90.2155 17.266 89.7348 17.4013 89.3241 17.672C88.9228 17.9333 88.6101 18.2927 88.3861 18.75C88.1715 19.2073 88.0641 19.7207 88.0641 20.29C88.0641 20.878 88.1761 21.4007 88.4001 21.858C88.6241 22.3153 88.9415 22.6747 89.3521 22.936C89.7628 23.188 90.2388 23.314 90.7801 23.314Z" fill="#717171"/>
</svg>
