<svg width="103" height="38" viewBox="0 0 103 38" fill="none" xmlns="http://www.w3.org/2000/svg">
<rect width="103" height="38" rx="10" fill="#ECECEC"/>
<path d="M17.114 24L21.426 14.83L21.342 14.69H15.742V13.78H22.364V15.082L18.206 24H17.114ZM15.742 16.398V13.78H16.638V16.398H15.742ZM27.5416 24V16.58H28.3816V19.702H28.2136C28.2136 19.0207 28.3069 18.4327 28.4936 17.938C28.6896 17.4433 28.9789 17.0607 29.3616 16.79C29.7443 16.51 30.2296 16.37 30.8176 16.37H30.8596C31.4476 16.37 31.9329 16.5053 32.3156 16.776C32.6983 17.0467 32.9829 17.4293 33.1696 17.924C33.3563 18.4187 33.4496 19.0113 33.4496 19.702H33.1136C33.1136 19.0207 33.2069 18.4327 33.3936 17.938C33.5896 17.4433 33.8789 17.0607 34.2616 16.79C34.6536 16.51 35.1436 16.37 35.7316 16.37H35.7736C36.3616 16.37 36.8469 16.5053 37.2296 16.776C37.6216 17.0467 37.9109 17.4293 38.0976 17.924C38.2936 18.4187 38.3916 19.0113 38.3916 19.702V24H37.3416V19.464C37.3416 18.8107 37.1829 18.2927 36.8656 17.91C36.5483 17.5273 36.0909 17.336 35.4936 17.336C34.8776 17.336 34.3876 17.5367 34.0236 17.938C33.6689 18.33 33.4916 18.862 33.4916 19.534V24H32.4416V19.464C32.4416 18.8107 32.2829 18.2927 31.9656 17.91C31.6483 17.5273 31.1909 17.336 30.5936 17.336C29.9776 17.336 29.4876 17.5367 29.1236 17.938C28.7689 18.33 28.5916 18.862 28.5916 19.534V24H27.5416ZM41.4004 24V16.594H42.4364V24H41.4004ZM40.2104 17.434V16.594H42.4364V17.434H40.2104ZM41.6244 15.222C41.3724 15.222 41.1811 15.1567 41.0504 15.026C40.9291 14.886 40.8684 14.7133 40.8684 14.508C40.8684 14.3027 40.9291 14.1347 41.0504 14.004C41.1811 13.864 41.3724 13.794 41.6244 13.794C41.8764 13.794 42.0631 13.864 42.1844 14.004C42.3057 14.1347 42.3664 14.3027 42.3664 14.508C42.3664 14.7133 42.3057 14.886 42.1844 15.026C42.0631 15.1567 41.8764 15.222 41.6244 15.222ZM45.192 24V16.594H46.032V19.702H45.864C45.864 19.0113 45.9667 18.4187 46.172 17.924C46.3773 17.4293 46.6853 17.0467 47.096 16.776C47.5067 16.5053 48.0247 16.37 48.65 16.37H48.692C49.6253 16.37 50.3207 16.664 50.778 17.252C51.2353 17.8307 51.464 18.6473 51.464 19.702V24H50.428V19.478C50.428 18.834 50.2507 18.316 49.896 17.924C49.5413 17.532 49.0467 17.336 48.412 17.336C47.7587 17.336 47.2313 17.5413 46.83 17.952C46.438 18.3533 46.242 18.8853 46.242 19.548V24H45.192ZM57.3463 24V16.594H58.1863V19.688H58.1023C58.1023 18.6053 58.3403 17.8073 58.8163 17.294C59.2923 16.7713 60.0389 16.51 61.0563 16.51H61.2943V17.462H60.8603C60.0576 17.462 59.4463 17.672 59.0263 18.092C58.6063 18.5027 58.3963 19.1093 58.3963 19.912V24H57.3463ZM65.9911 24.238C65.3564 24.238 64.8057 24.1307 64.3391 23.916C63.8724 23.692 63.4897 23.398 63.1911 23.034C62.8924 22.6607 62.6684 22.2453 62.5191 21.788C62.3791 21.3307 62.3091 20.8593 62.3091 20.374V20.178C62.3091 19.702 62.3791 19.2353 62.5191 18.778C62.6684 18.3207 62.8924 17.91 63.1911 17.546C63.4897 17.182 63.8631 16.8927 64.3111 16.678C64.7684 16.454 65.3004 16.342 65.9071 16.342C66.6817 16.342 67.3257 16.5147 67.8391 16.86C68.3617 17.2053 68.7537 17.6487 69.0151 18.19C69.2764 18.722 69.4071 19.296 69.4071 19.912V20.458H62.7851V19.646H68.6791L68.4131 20.052C68.4131 19.5013 68.3151 19.0207 68.1191 18.61C67.9324 18.19 67.6524 17.8633 67.2791 17.63C66.9151 17.3873 66.4577 17.266 65.9071 17.266C65.3284 17.266 64.8477 17.4013 64.4651 17.672C64.0824 17.9427 63.7931 18.302 63.5971 18.75C63.4104 19.198 63.3171 19.7067 63.3171 20.276C63.3171 20.836 63.4104 21.3493 63.5971 21.816C63.7931 22.2733 64.0871 22.6373 64.4791 22.908C64.8804 23.1787 65.3844 23.314 65.9911 23.314C66.6351 23.314 67.1577 23.1693 67.5591 22.88C67.9604 22.5813 68.2077 22.2313 68.3011 21.83H69.2811C69.1877 22.3247 68.9917 22.754 68.6931 23.118C68.3944 23.4727 68.0164 23.748 67.5591 23.944C67.1017 24.14 66.5791 24.238 65.9911 24.238ZM75.9363 24V21.774H75.7683V19.142C75.7683 18.5913 75.6236 18.1713 75.3343 17.882C75.045 17.5833 74.597 17.434 73.9903 17.434C73.7103 17.434 73.4256 17.4387 73.1363 17.448C72.8563 17.4573 72.5856 17.4713 72.3243 17.49C72.0723 17.4993 71.8483 17.5133 71.6523 17.532V16.608C71.8576 16.5893 72.0676 16.5707 72.2823 16.552C72.497 16.5333 72.7163 16.524 72.9403 16.524C73.1736 16.5147 73.3976 16.51 73.6123 16.51C74.3683 16.51 74.975 16.6033 75.4323 16.79C75.899 16.9767 76.2396 17.2707 76.4543 17.672C76.669 18.064 76.7763 18.5867 76.7763 19.24V24H75.9363ZM73.4303 24.196C72.9076 24.196 72.4456 24.1027 72.0443 23.916C71.643 23.7293 71.3303 23.4587 71.1063 23.104C70.8916 22.7493 70.7843 22.32 70.7843 21.816C70.7843 21.3213 70.8963 20.9013 71.1203 20.556C71.3536 20.2107 71.685 19.9493 72.1143 19.772C72.553 19.5853 73.0803 19.492 73.6963 19.492H75.8663V20.29H73.6263C73.0383 20.29 72.5856 20.4347 72.2683 20.724C71.9603 21.004 71.8063 21.3727 71.8063 21.83C71.8063 22.2967 71.9696 22.67 72.2963 22.95C72.623 23.2207 73.0663 23.356 73.6263 23.356C73.9716 23.356 74.303 23.2953 74.6203 23.174C74.9376 23.0433 75.2036 22.8287 75.4183 22.53C75.633 22.222 75.7496 21.802 75.7683 21.27L76.0763 21.704C76.039 22.2547 75.9083 22.7167 75.6843 23.09C75.4603 23.454 75.157 23.7293 74.7743 23.916C74.3916 24.1027 73.9436 24.196 73.4303 24.196ZM82.437 24.238C81.8957 24.238 81.401 24.14 80.953 23.944C80.5143 23.7387 80.1317 23.4587 79.805 23.104C79.4877 22.74 79.2403 22.3293 79.063 21.872C78.895 21.4053 78.811 20.9107 78.811 20.388V20.192C78.811 19.688 78.895 19.2073 79.063 18.75C79.231 18.2833 79.469 17.8727 79.777 17.518C80.0943 17.154 80.4723 16.8693 80.911 16.664C81.359 16.4493 81.8583 16.342 82.409 16.342C83.0343 16.342 83.585 16.4773 84.061 16.748C84.537 17.0187 84.9197 17.4107 85.209 17.924C85.4983 18.428 85.6523 19.0487 85.671 19.786L85.209 18.918V13.78H86.259V24H85.419V20.71H85.755C85.7363 21.4847 85.573 22.138 85.265 22.67C84.9663 23.1927 84.5697 23.5847 84.075 23.846C83.5897 24.1073 83.0437 24.238 82.437 24.238ZM82.577 23.314C83.081 23.314 83.5337 23.202 83.935 22.978C84.3457 22.754 84.6677 22.4367 84.901 22.026C85.1343 21.606 85.251 21.1253 85.251 20.584V19.912C85.251 19.3893 85.1343 18.932 84.901 18.54C84.6677 18.1387 84.3457 17.826 83.935 17.602C83.5337 17.378 83.0763 17.266 82.563 17.266C82.0123 17.266 81.5317 17.4013 81.121 17.672C80.7197 17.9333 80.407 18.2927 80.183 18.75C79.9683 19.2073 79.861 19.7207 79.861 20.29C79.861 20.878 79.973 21.4007 80.197 21.858C80.421 22.3153 80.7383 22.6747 81.149 22.936C81.5597 23.188 82.0357 23.314 82.577 23.314Z" fill="#717171"/>
</svg>
