<svg width="110" height="38" viewBox="0 0 110 38" fill="none" xmlns="http://www.w3.org/2000/svg">
<rect width="110" height="38" rx="10" fill="#DFDFDF"/>
<path d="M17.968 24V14.326L18.43 14.69H15.644V13.78H19.018V24H17.968ZM25.2202 24.238C24.4922 24.238 23.8529 24.1073 23.3022 23.846C22.7516 23.5753 22.3222 23.2113 22.0142 22.754C21.7156 22.2967 21.5662 21.774 21.5662 21.186C21.5662 20.7473 21.6549 20.3553 21.8322 20.01C22.0189 19.6553 22.2616 19.3613 22.5602 19.128C22.8589 18.8853 23.1856 18.708 23.5402 18.596V18.456C23.2509 18.344 22.9849 18.19 22.7422 17.994C22.4996 17.7887 22.2989 17.5413 22.1402 17.252C21.9909 16.9627 21.9162 16.622 21.9162 16.23C21.9162 15.67 22.0609 15.1893 22.3502 14.788C22.6489 14.3867 23.0456 14.0787 23.5402 13.864C24.0442 13.64 24.6042 13.528 25.2202 13.528C25.8549 13.528 26.4196 13.64 26.9142 13.864C27.4089 14.0787 27.8009 14.3867 28.0902 14.788C28.3796 15.1893 28.5242 15.67 28.5242 16.23C28.5242 16.622 28.4496 16.9627 28.3002 17.252C28.1602 17.5413 27.9642 17.7887 27.7122 17.994C27.4696 18.19 27.2036 18.344 26.9142 18.456V18.596C27.2782 18.708 27.6096 18.8853 27.9082 19.128C28.2069 19.3707 28.4449 19.6647 28.6222 20.01C28.7996 20.3553 28.8882 20.7473 28.8882 21.186C28.8882 21.774 28.7342 22.2967 28.4262 22.754C28.1276 23.2113 27.7029 23.5753 27.1522 23.846C26.6109 24.1073 25.9669 24.238 25.2202 24.238ZM25.2202 23.342C25.7802 23.342 26.2562 23.2487 26.6482 23.062C27.0402 22.8753 27.3389 22.6187 27.5442 22.292C27.7589 21.956 27.8662 21.5733 27.8662 21.144C27.8662 20.7147 27.7636 20.3367 27.5582 20.01C27.3529 19.6833 27.0542 19.4267 26.6622 19.24C26.2702 19.0533 25.7896 18.96 25.2202 18.96C24.6696 18.96 24.1982 19.0533 23.8062 19.24C23.4142 19.4267 23.1156 19.6833 22.9102 20.01C22.7049 20.3367 22.6022 20.7147 22.6022 21.144C22.6022 21.5733 22.7049 21.956 22.9102 22.292C23.1156 22.6187 23.4142 22.8753 23.8062 23.062C24.1982 23.2487 24.6696 23.342 25.2202 23.342ZM25.2202 18.12C25.9109 18.12 26.4616 17.966 26.8722 17.658C27.2922 17.3407 27.5022 16.8787 27.5022 16.272C27.5022 15.6653 27.2922 15.208 26.8722 14.9C26.4616 14.592 25.9109 14.438 25.2202 14.438C24.5389 14.438 23.9882 14.592 23.5682 14.9C23.1576 15.208 22.9522 15.6653 22.9522 16.272C22.9522 16.8787 23.1622 17.3407 23.5822 17.658C24.0022 17.966 24.5482 18.12 25.2202 18.12ZM34.2545 24V16.58H35.0945V19.702H34.9265C34.9265 19.0207 35.0198 18.4327 35.2065 17.938C35.4025 17.4433 35.6918 17.0607 36.0745 16.79C36.4572 16.51 36.9425 16.37 37.5305 16.37H37.5725C38.1605 16.37 38.6458 16.5053 39.0285 16.776C39.4112 17.0467 39.6958 17.4293 39.8825 17.924C40.0692 18.4187 40.1625 19.0113 40.1625 19.702H39.8265C39.8265 19.0207 39.9198 18.4327 40.1065 17.938C40.3025 17.4433 40.5918 17.0607 40.9745 16.79C41.3665 16.51 41.8565 16.37 42.4445 16.37H42.4865C43.0745 16.37 43.5598 16.5053 43.9425 16.776C44.3345 17.0467 44.6238 17.4293 44.8105 17.924C45.0065 18.4187 45.1045 19.0113 45.1045 19.702V24H44.0545V19.464C44.0545 18.8107 43.8958 18.2927 43.5785 17.91C43.2612 17.5273 42.8038 17.336 42.2065 17.336C41.5905 17.336 41.1005 17.5367 40.7365 17.938C40.3818 18.33 40.2045 18.862 40.2045 19.534V24H39.1545V19.464C39.1545 18.8107 38.9958 18.2927 38.6785 17.91C38.3612 17.5273 37.9038 17.336 37.3065 17.336C36.6905 17.336 36.2005 17.5367 35.8365 17.938C35.4818 18.33 35.3045 18.862 35.3045 19.534V24H34.2545ZM48.1133 24V16.594H49.1493V24H48.1133ZM46.9233 17.434V16.594H49.1493V17.434H46.9233ZM48.3373 15.222C48.0853 15.222 47.8939 15.1567 47.7633 15.026C47.6419 14.886 47.5813 14.7133 47.5813 14.508C47.5813 14.3027 47.6419 14.1347 47.7633 14.004C47.8939 13.864 48.0853 13.794 48.3373 13.794C48.5893 13.794 48.7759 13.864 48.8973 14.004C49.0186 14.1347 49.0793 14.3027 49.0793 14.508C49.0793 14.7133 49.0186 14.886 48.8973 15.026C48.7759 15.1567 48.5893 15.222 48.3373 15.222ZM51.9049 24V16.594H52.7449V19.702H52.5769C52.5769 19.0113 52.6795 18.4187 52.8849 17.924C53.0902 17.4293 53.3982 17.0467 53.8089 16.776C54.2195 16.5053 54.7375 16.37 55.3629 16.37H55.4049C56.3382 16.37 57.0335 16.664 57.4909 17.252C57.9482 17.8307 58.1769 18.6473 58.1769 19.702V24H57.1409V19.478C57.1409 18.834 56.9635 18.316 56.6089 17.924C56.2542 17.532 55.7595 17.336 55.1249 17.336C54.4715 17.336 53.9442 17.5413 53.5429 17.952C53.1509 18.3533 52.9549 18.8853 52.9549 19.548V24H51.9049ZM64.0592 24V16.594H64.8992V19.688H64.8152C64.8152 18.6053 65.0532 17.8073 65.5292 17.294C66.0052 16.7713 66.7518 16.51 67.7692 16.51H68.0072V17.462H67.5732C66.7705 17.462 66.1592 17.672 65.7392 18.092C65.3192 18.5027 65.1092 19.1093 65.1092 19.912V24H64.0592ZM72.704 24.238C72.0693 24.238 71.5186 24.1307 71.052 23.916C70.5853 23.692 70.2026 23.398 69.904 23.034C69.6053 22.6607 69.3813 22.2453 69.232 21.788C69.092 21.3307 69.022 20.8593 69.022 20.374V20.178C69.022 19.702 69.092 19.2353 69.232 18.778C69.3813 18.3207 69.6053 17.91 69.904 17.546C70.2026 17.182 70.576 16.8927 71.024 16.678C71.4813 16.454 72.0133 16.342 72.62 16.342C73.3946 16.342 74.0386 16.5147 74.552 16.86C75.0746 17.2053 75.4666 17.6487 75.728 18.19C75.9893 18.722 76.12 19.296 76.12 19.912V20.458H69.498V19.646H75.392L75.126 20.052C75.126 19.5013 75.028 19.0207 74.832 18.61C74.6453 18.19 74.3653 17.8633 73.992 17.63C73.628 17.3873 73.1706 17.266 72.62 17.266C72.0413 17.266 71.5606 17.4013 71.178 17.672C70.7953 17.9427 70.506 18.302 70.31 18.75C70.1233 19.198 70.03 19.7067 70.03 20.276C70.03 20.836 70.1233 21.3493 70.31 21.816C70.506 22.2733 70.8 22.6373 71.192 22.908C71.5933 23.1787 72.0973 23.314 72.704 23.314C73.348 23.314 73.8706 23.1693 74.272 22.88C74.6733 22.5813 74.9206 22.2313 75.014 21.83H75.994C75.9006 22.3247 75.7046 22.754 75.406 23.118C75.1073 23.4727 74.7293 23.748 74.272 23.944C73.8146 24.14 73.292 24.238 72.704 24.238ZM82.6492 24V21.774H82.4812V19.142C82.4812 18.5913 82.3365 18.1713 82.0472 17.882C81.7579 17.5833 81.3099 17.434 80.7032 17.434C80.4232 17.434 80.1385 17.4387 79.8492 17.448C79.5692 17.4573 79.2985 17.4713 79.0372 17.49C78.7852 17.4993 78.5612 17.5133 78.3652 17.532V16.608C78.5705 16.5893 78.7805 16.5707 78.9952 16.552C79.2099 16.5333 79.4292 16.524 79.6532 16.524C79.8865 16.5147 80.1105 16.51 80.3252 16.51C81.0812 16.51 81.6879 16.6033 82.1452 16.79C82.6119 16.9767 82.9525 17.2707 83.1672 17.672C83.3819 18.064 83.4892 18.5867 83.4892 19.24V24H82.6492ZM80.1432 24.196C79.6205 24.196 79.1585 24.1027 78.7572 23.916C78.3559 23.7293 78.0432 23.4587 77.8192 23.104C77.6045 22.7493 77.4972 22.32 77.4972 21.816C77.4972 21.3213 77.6092 20.9013 77.8332 20.556C78.0665 20.2107 78.3979 19.9493 78.8272 19.772C79.2659 19.5853 79.7932 19.492 80.4092 19.492H82.5792V20.29H80.3392C79.7512 20.29 79.2985 20.4347 78.9812 20.724C78.6732 21.004 78.5192 21.3727 78.5192 21.83C78.5192 22.2967 78.6825 22.67 79.0092 22.95C79.3359 23.2207 79.7792 23.356 80.3392 23.356C80.6845 23.356 81.0159 23.2953 81.3332 23.174C81.6505 23.0433 81.9165 22.8287 82.1312 22.53C82.3459 22.222 82.4625 21.802 82.4812 21.27L82.7892 21.704C82.7519 22.2547 82.6212 22.7167 82.3972 23.09C82.1732 23.454 81.8699 23.7293 81.4872 23.916C81.1045 24.1027 80.6565 24.196 80.1432 24.196ZM89.1499 24.238C88.6086 24.238 88.1139 24.14 87.6659 23.944C87.2272 23.7387 86.8446 23.4587 86.5179 23.104C86.2006 22.74 85.9532 22.3293 85.7759 21.872C85.6079 21.4053 85.5239 20.9107 85.5239 20.388V20.192C85.5239 19.688 85.6079 19.2073 85.7759 18.75C85.9439 18.2833 86.1819 17.8727 86.4899 17.518C86.8072 17.154 87.1852 16.8693 87.6239 16.664C88.0719 16.4493 88.5712 16.342 89.1219 16.342C89.7472 16.342 90.2979 16.4773 90.7739 16.748C91.2499 17.0187 91.6326 17.4107 91.9219 17.924C92.2112 18.428 92.3652 19.0487 92.3839 19.786L91.9219 18.918V13.78H92.9719V24H92.1319V20.71H92.4679C92.4492 21.4847 92.2859 22.138 91.9779 22.67C91.6792 23.1927 91.2826 23.5847 90.7879 23.846C90.3026 24.1073 89.7566 24.238 89.1499 24.238ZM89.2899 23.314C89.7939 23.314 90.2466 23.202 90.6479 22.978C91.0586 22.754 91.3806 22.4367 91.6139 22.026C91.8472 21.606 91.9639 21.1253 91.9639 20.584V19.912C91.9639 19.3893 91.8472 18.932 91.6139 18.54C91.3806 18.1387 91.0586 17.826 90.6479 17.602C90.2466 17.378 89.7892 17.266 89.2759 17.266C88.7252 17.266 88.2446 17.4013 87.8339 17.672C87.4326 17.9333 87.1199 18.2927 86.8959 18.75C86.6812 19.2073 86.5739 19.7207 86.5739 20.29C86.5739 20.878 86.6859 21.4007 86.9099 21.858C87.1339 22.3153 87.4512 22.6747 87.8619 22.936C88.2726 23.188 88.7486 23.314 89.2899 23.314Z" fill="#717171"/>
</svg>
