<svg width="130" height="39" viewBox="0 0 130 39" fill="none" xmlns="http://www.w3.org/2000/svg">
<rect width="129.253" height="39" rx="10" fill="#ECECEC"/>
<path d="M16.71 25V14.005H17.85V25H16.71ZM23.505 25L19.77 20.155H21.105L24.9 25H23.505ZM17.385 20.845V19.825H20.325C20.865 19.825 21.315 19.72 21.675 19.51C22.035 19.3 22.305 19.015 22.485 18.655C22.665 18.295 22.755 17.885 22.755 17.425C22.755 16.965 22.665 16.555 22.485 16.195C22.305 15.835 22.035 15.55 21.675 15.34C21.315 15.12 20.865 15.01 20.325 15.01H17.385V14.005H20.13C20.94 14.005 21.625 14.135 22.185 14.395C22.755 14.645 23.185 15.02 23.475 15.52C23.775 16.01 23.925 16.61 23.925 17.32V17.53C23.925 18.24 23.775 18.845 23.475 19.345C23.175 19.835 22.745 20.21 22.185 20.47C21.625 20.72 20.94 20.845 20.13 20.845H17.385ZM29.9214 25.255C29.2414 25.255 28.6514 25.14 28.1514 24.91C27.6514 24.67 27.2414 24.355 26.9214 23.965C26.6014 23.565 26.3614 23.12 26.2014 22.63C26.0514 22.14 25.9764 21.635 25.9764 21.115V20.905C25.9764 20.395 26.0514 19.895 26.2014 19.405C26.3614 18.915 26.6014 18.475 26.9214 18.085C27.2414 17.695 27.6414 17.385 28.1214 17.155C28.6114 16.915 29.1814 16.795 29.8314 16.795C30.6614 16.795 31.3514 16.98 31.9014 17.35C32.4614 17.72 32.8814 18.195 33.1614 18.775C33.4414 19.345 33.5814 19.96 33.5814 20.62V21.205H26.4864V20.335H32.8014L32.5164 20.77C32.5164 20.18 32.4114 19.665 32.2014 19.225C32.0014 18.775 31.7014 18.425 31.3014 18.175C30.9114 17.915 30.4214 17.785 29.8314 17.785C29.2114 17.785 28.6964 17.93 28.2864 18.22C27.8764 18.51 27.5664 18.895 27.3564 19.375C27.1564 19.855 27.0564 20.4 27.0564 21.01C27.0564 21.61 27.1564 22.16 27.3564 22.66C27.5664 23.15 27.8814 23.54 28.3014 23.83C28.7314 24.12 29.2714 24.265 29.9214 24.265C30.6114 24.265 31.1714 24.11 31.6014 23.8C32.0314 23.48 32.2964 23.105 32.3964 22.675H33.4464C33.3464 23.205 33.1364 23.665 32.8164 24.055C32.4964 24.435 32.0914 24.73 31.6014 24.94C31.1114 25.15 30.5514 25.255 29.9214 25.255ZM40.577 25V22.615H40.397V19.795C40.397 19.205 40.242 18.755 39.932 18.445C39.622 18.125 39.142 17.965 38.492 17.965C38.192 17.965 37.887 17.97 37.577 17.98C37.277 17.99 36.987 18.005 36.707 18.025C36.437 18.035 36.197 18.05 35.987 18.07V17.08C36.207 17.06 36.432 17.04 36.662 17.02C36.892 17 37.127 16.99 37.367 16.99C37.617 16.98 37.857 16.975 38.087 16.975C38.897 16.975 39.547 17.075 40.037 17.275C40.537 17.475 40.902 17.79 41.132 18.22C41.362 18.64 41.477 19.2 41.477 19.9V25H40.577ZM37.892 25.21C37.332 25.21 36.837 25.11 36.407 24.91C35.977 24.71 35.642 24.42 35.402 24.04C35.172 23.66 35.057 23.2 35.057 22.66C35.057 22.13 35.177 21.68 35.417 21.31C35.667 20.94 36.022 20.66 36.482 20.47C36.952 20.27 37.517 20.17 38.177 20.17H40.502V21.025H38.102C37.472 21.025 36.987 21.18 36.647 21.49C36.317 21.79 36.152 22.185 36.152 22.675C36.152 23.175 36.327 23.575 36.677 23.875C37.027 24.165 37.502 24.31 38.102 24.31C38.472 24.31 38.827 24.245 39.167 24.115C39.507 23.975 39.792 23.745 40.022 23.425C40.252 23.095 40.377 22.645 40.397 22.075L40.727 22.54C40.687 23.13 40.547 23.625 40.307 24.025C40.067 24.415 39.742 24.71 39.332 24.91C38.922 25.11 38.442 25.21 37.892 25.21ZM47.542 25.255C46.962 25.255 46.432 25.15 45.952 24.94C45.482 24.72 45.072 24.42 44.722 24.04C44.382 23.65 44.117 23.21 43.927 22.72C43.747 22.22 43.657 21.69 43.657 21.13V20.92C43.657 20.38 43.747 19.865 43.927 19.375C44.107 18.875 44.362 18.435 44.692 18.055C45.032 17.665 45.437 17.36 45.907 17.14C46.387 16.91 46.922 16.795 47.512 16.795C48.182 16.795 48.772 16.94 49.282 17.23C49.792 17.52 50.202 17.94 50.512 18.49C50.822 19.03 50.987 19.695 51.007 20.485L50.512 19.555V14.05H51.637V25H50.737V21.475H51.097C51.077 22.305 50.902 23.005 50.572 23.575C50.252 24.135 49.827 24.555 49.297 24.835C48.777 25.115 48.192 25.255 47.542 25.255ZM47.692 24.265C48.232 24.265 48.717 24.145 49.147 23.905C49.587 23.665 49.932 23.325 50.182 22.885C50.432 22.435 50.557 21.92 50.557 21.34V20.62C50.557 20.06 50.432 19.57 50.182 19.15C49.932 18.72 49.587 18.385 49.147 18.145C48.717 17.905 48.227 17.785 47.677 17.785C47.087 17.785 46.572 17.93 46.132 18.22C45.702 18.5 45.367 18.885 45.127 19.375C44.897 19.865 44.782 20.415 44.782 21.025C44.782 21.655 44.902 22.215 45.142 22.705C45.382 23.195 45.722 23.58 46.162 23.86C46.602 24.13 47.112 24.265 47.692 24.265ZM61.3569 25.255C60.6769 25.255 60.0869 25.14 59.5869 24.91C59.0869 24.67 58.6769 24.355 58.3569 23.965C58.0369 23.565 57.7969 23.12 57.6369 22.63C57.4869 22.14 57.4119 21.635 57.4119 21.115V20.905C57.4119 20.395 57.4869 19.895 57.6369 19.405C57.7969 18.915 58.0369 18.475 58.3569 18.085C58.6769 17.695 59.0769 17.385 59.5569 17.155C60.0469 16.915 60.6169 16.795 61.2669 16.795C62.0969 16.795 62.7869 16.98 63.3369 17.35C63.8969 17.72 64.3169 18.195 64.5969 18.775C64.8769 19.345 65.0169 19.96 65.0169 20.62V21.205H57.9219V20.335H64.2369L63.9519 20.77C63.9519 20.18 63.8469 19.665 63.6369 19.225C63.4369 18.775 63.1369 18.425 62.7369 18.175C62.3469 17.915 61.8569 17.785 61.2669 17.785C60.6469 17.785 60.1319 17.93 59.7219 18.22C59.3119 18.51 59.0019 18.895 58.7919 19.375C58.5919 19.855 58.4919 20.4 58.4919 21.01C58.4919 21.61 58.5919 22.16 58.7919 22.66C59.0019 23.15 59.3169 23.54 59.7369 23.83C60.1669 24.12 60.7069 24.265 61.3569 24.265C62.0469 24.265 62.6069 24.11 63.0369 23.8C63.4669 23.48 63.7319 23.105 63.8319 22.675H64.8819C64.7819 23.205 64.5719 23.665 64.2519 24.055C63.9319 24.435 63.5269 24.73 63.0369 24.94C62.5469 25.15 61.9869 25.255 61.3569 25.255ZM69.6875 25.225C68.6675 25.225 67.8825 25.005 67.3325 24.565C66.7825 24.115 66.5025 23.515 66.4925 22.765H67.5425C67.5625 23.145 67.7325 23.49 68.0525 23.8C68.3825 24.11 68.9275 24.265 69.6875 24.265C70.3975 24.265 70.9275 24.12 71.2775 23.83C71.6375 23.53 71.8175 23.17 71.8175 22.75C71.8175 22.36 71.6675 22.06 71.3675 21.85C71.0775 21.63 70.6525 21.49 70.0925 21.43L69.1925 21.34C68.4725 21.26 67.8875 21.04 67.4375 20.68C66.9975 20.31 66.7775 19.805 66.7775 19.165C66.7775 18.695 66.8975 18.285 67.1375 17.935C67.3775 17.585 67.7125 17.315 68.1425 17.125C68.5825 16.925 69.0975 16.825 69.6875 16.825C70.5375 16.825 71.2275 17.025 71.7575 17.425C72.2975 17.825 72.5725 18.395 72.5825 19.135H71.5325C71.5225 18.755 71.3625 18.435 71.0525 18.175C70.7425 17.915 70.2875 17.785 69.6875 17.785C69.0675 17.785 68.6025 17.92 68.2925 18.19C67.9925 18.46 67.8425 18.79 67.8425 19.18C67.8425 19.51 67.9575 19.785 68.1875 20.005C68.4175 20.215 68.7775 20.345 69.2675 20.395L70.1675 20.485C70.9675 20.575 71.6175 20.805 72.1175 21.175C72.6275 21.545 72.8825 22.075 72.8825 22.765C72.8825 23.235 72.7475 23.66 72.4775 24.04C72.2175 24.41 71.8475 24.7 71.3675 24.91C70.8875 25.12 70.3275 25.225 69.6875 25.225ZM77.627 25.225C76.607 25.225 75.822 25.005 75.272 24.565C74.722 24.115 74.442 23.515 74.432 22.765H75.482C75.502 23.145 75.672 23.49 75.992 23.8C76.322 24.11 76.867 24.265 77.627 24.265C78.337 24.265 78.867 24.12 79.217 23.83C79.577 23.53 79.757 23.17 79.757 22.75C79.757 22.36 79.607 22.06 79.307 21.85C79.017 21.63 78.592 21.49 78.032 21.43L77.132 21.34C76.412 21.26 75.827 21.04 75.377 20.68C74.937 20.31 74.717 19.805 74.717 19.165C74.717 18.695 74.837 18.285 75.077 17.935C75.317 17.585 75.652 17.315 76.082 17.125C76.522 16.925 77.037 16.825 77.627 16.825C78.477 16.825 79.167 17.025 79.697 17.425C80.237 17.825 80.512 18.395 80.522 19.135H79.472C79.462 18.755 79.302 18.435 78.992 18.175C78.682 17.915 78.227 17.785 77.627 17.785C77.007 17.785 76.542 17.92 76.232 18.19C75.932 18.46 75.782 18.79 75.782 19.18C75.782 19.51 75.897 19.785 76.127 20.005C76.357 20.215 76.717 20.345 77.207 20.395L78.107 20.485C78.907 20.575 79.557 20.805 80.057 21.175C80.567 21.545 80.822 22.075 80.822 22.765C80.822 23.235 80.687 23.66 80.417 24.04C80.157 24.41 79.787 24.7 79.307 24.91C78.827 25.12 78.267 25.225 77.627 25.225ZM87.8914 25V22.615H87.7114V19.795C87.7114 19.205 87.5564 18.755 87.2464 18.445C86.9364 18.125 86.4564 17.965 85.8064 17.965C85.5064 17.965 85.2014 17.97 84.8914 17.98C84.5914 17.99 84.3014 18.005 84.0214 18.025C83.7514 18.035 83.5114 18.05 83.3014 18.07V17.08C83.5214 17.06 83.7464 17.04 83.9764 17.02C84.2064 17 84.4414 16.99 84.6814 16.99C84.9314 16.98 85.1714 16.975 85.4014 16.975C86.2114 16.975 86.8614 17.075 87.3514 17.275C87.8514 17.475 88.2164 17.79 88.4464 18.22C88.6764 18.64 88.7914 19.2 88.7914 19.9V25H87.8914ZM85.2064 25.21C84.6464 25.21 84.1514 25.11 83.7214 24.91C83.2914 24.71 82.9564 24.42 82.7164 24.04C82.4864 23.66 82.3714 23.2 82.3714 22.66C82.3714 22.13 82.4914 21.68 82.7314 21.31C82.9814 20.94 83.3364 20.66 83.7964 20.47C84.2664 20.27 84.8314 20.17 85.4914 20.17H87.8164V21.025H85.4164C84.7864 21.025 84.3014 21.18 83.9614 21.49C83.6314 21.79 83.4664 22.185 83.4664 22.675C83.4664 23.175 83.6414 23.575 83.9914 23.875C84.3414 24.165 84.8164 24.31 85.4164 24.31C85.7864 24.31 86.1414 24.245 86.4814 24.115C86.8214 23.975 87.1064 23.745 87.3364 23.425C87.5664 23.095 87.6914 22.645 87.7114 22.075L88.0414 22.54C88.0014 23.13 87.8614 23.625 87.6214 24.025C87.3814 24.415 87.0564 24.71 86.6464 24.91C86.2364 25.11 85.7564 25.21 85.2064 25.21ZM90.8818 28.09V27.085H91.9018C92.2518 27.085 92.5518 27.04 92.8018 26.95C93.0518 26.87 93.2618 26.725 93.4318 26.515C93.6018 26.305 93.7468 26.015 93.8668 25.645L96.5368 17.065H97.6318L94.8418 25.96C94.6818 26.47 94.4618 26.88 94.1818 27.19C93.9018 27.51 93.5668 27.74 93.1768 27.88C92.7868 28.02 92.3418 28.09 91.8418 28.09H90.8818ZM93.4618 24.805V23.86H94.8868V24.805H93.4618ZM93.3268 24.805L90.4468 17.065H91.6018L94.3768 24.805H93.3268Z" fill="#717171"/>
<path d="M114.251 19.5082C114.251 19.6835 114.19 19.8533 114.078 19.9882L110.328 24.4882C110.201 24.6414 110.018 24.7377 109.82 24.756C109.622 24.7743 109.424 24.713 109.271 24.5857C109.118 24.4584 109.021 24.2755 109.003 24.0772C108.985 23.8788 109.046 23.6814 109.173 23.5282L112.533 19.5082L109.293 15.4882C109.231 15.4115 109.185 15.3232 109.157 15.2285C109.128 15.1337 109.119 15.0344 109.13 14.9361C109.14 14.8378 109.17 14.7426 109.217 14.6558C109.265 14.5691 109.329 14.4926 109.406 14.4307C109.483 14.362 109.574 14.31 109.672 14.2779C109.77 14.2458 109.874 14.2343 109.976 14.2442C110.079 14.2541 110.179 14.285 110.269 14.3352C110.359 14.3854 110.438 14.4536 110.501 14.5357L114.123 19.0357C114.218 19.1745 114.262 19.3409 114.251 19.5082Z" fill="#4B5563"/>
</svg>
