<svg width="305" height="304" viewBox="0 0 305 304" fill="none" xmlns="http://www.w3.org/2000/svg">
<circle cx="152.501" cy="152.5" r="98.9913" stroke="#717171" stroke-width="2.67544"/>
<circle cx="152.501" cy="152.5" r="68.2237" stroke="#717171" stroke-width="2.67544"/>
<circle cx="151.831" cy="151.831" r="34.1119" fill="#B2CEFE" fill-opacity="0.5"/>
<line y1="151.162" x2="52.1711" y2="151.162" stroke="#717171" stroke-width="2.67544"/>
<line x1="252.828" y1="151.162" x2="304.999" y2="151.162" stroke="#717171" stroke-width="2.67544"/>
<line x1="153.836" y1="303.662" x2="153.836" y2="251.491" stroke="#717171" stroke-width="2.67544"/>
<line x1="151.16" y1="52.1711" x2="151.16" y2="5.72205e-05" stroke="#717171" stroke-width="2.67544"/>
<path d="M120.769 161.11V141.579H123.417L129.571 155.09H130.053L136.179 141.579H138.881V161.11H136.848V143.853L137.009 143.88L131.069 156.99H128.394L122.428 143.88L122.642 143.853V161.11H120.769ZM153.149 161.11V156.856H152.828V151.826C152.828 150.774 152.551 149.971 151.998 149.418C151.446 148.847 150.589 148.562 149.43 148.562C148.895 148.562 148.351 148.571 147.798 148.589C147.263 148.607 146.746 148.633 146.246 148.669C145.765 148.687 145.337 148.714 144.962 148.749V146.984C145.354 146.948 145.756 146.912 146.166 146.877C146.576 146.841 146.995 146.823 147.423 146.823C147.869 146.805 148.297 146.796 148.708 146.796C150.152 146.796 151.312 146.975 152.186 147.331C153.078 147.688 153.729 148.25 154.139 149.017C154.549 149.766 154.754 150.765 154.754 152.013V161.11H153.149ZM148.36 161.484C147.361 161.484 146.478 161.306 145.711 160.949C144.944 160.593 144.347 160.075 143.919 159.398C143.508 158.72 143.303 157.899 143.303 156.936C143.303 155.991 143.517 155.188 143.945 154.528C144.391 153.868 145.024 153.369 145.845 153.03C146.683 152.673 147.691 152.495 148.868 152.495H153.015V154.02H148.734C147.611 154.02 146.746 154.296 146.139 154.849C145.551 155.384 145.256 156.089 145.256 156.963C145.256 157.855 145.568 158.568 146.193 159.103C146.817 159.621 147.664 159.879 148.734 159.879C149.394 159.879 150.028 159.763 150.634 159.531C151.24 159.282 151.749 158.871 152.159 158.301C152.569 157.712 152.792 156.909 152.828 155.893L153.416 156.722C153.345 157.774 153.095 158.657 152.667 159.371C152.239 160.066 151.66 160.593 150.928 160.949C150.197 161.306 149.341 161.484 148.36 161.484ZM164.234 161.511C162.415 161.511 161.015 161.119 160.034 160.334C159.053 159.531 158.553 158.461 158.536 157.123H160.408C160.444 157.801 160.747 158.417 161.318 158.97C161.907 159.522 162.879 159.799 164.234 159.799C165.501 159.799 166.446 159.54 167.07 159.023C167.712 158.488 168.033 157.846 168.033 157.097C168.033 156.401 167.766 155.866 167.231 155.491C166.713 155.099 165.955 154.849 164.957 154.742L163.351 154.582C162.067 154.439 161.024 154.047 160.221 153.405C159.436 152.745 159.044 151.844 159.044 150.702C159.044 149.864 159.258 149.133 159.686 148.509C160.114 147.884 160.712 147.403 161.479 147.064C162.263 146.707 163.182 146.529 164.234 146.529C165.75 146.529 166.981 146.885 167.926 147.599C168.889 148.312 169.38 149.329 169.398 150.649H167.525C167.507 149.971 167.222 149.4 166.669 148.937C166.116 148.473 165.304 148.241 164.234 148.241C163.128 148.241 162.299 148.482 161.746 148.963C161.211 149.445 160.943 150.034 160.943 150.729C160.943 151.318 161.149 151.808 161.559 152.201C161.969 152.575 162.611 152.807 163.485 152.896L165.09 153.057C166.517 153.217 167.677 153.628 168.568 154.287C169.478 154.947 169.933 155.893 169.933 157.123C169.933 157.962 169.692 158.72 169.211 159.398C168.747 160.058 168.087 160.575 167.231 160.949C166.375 161.324 165.376 161.511 164.234 161.511ZM178.395 161.511C176.576 161.511 175.176 161.119 174.195 160.334C173.214 159.531 172.714 158.461 172.697 157.123H174.569C174.605 157.801 174.908 158.417 175.479 158.97C176.068 159.522 177.04 159.799 178.395 159.799C179.662 159.799 180.607 159.54 181.231 159.023C181.873 158.488 182.194 157.846 182.194 157.097C182.194 156.401 181.927 155.866 181.392 155.491C180.874 155.099 180.116 154.849 179.118 154.742L177.512 154.582C176.228 154.439 175.185 154.047 174.382 153.405C173.597 152.745 173.205 151.844 173.205 150.702C173.205 149.864 173.419 149.133 173.847 148.509C174.275 147.884 174.873 147.403 175.64 147.064C176.424 146.707 177.343 146.529 178.395 146.529C179.911 146.529 181.142 146.885 182.087 147.599C183.051 148.312 183.541 149.329 183.559 150.649H181.686C181.668 149.971 181.383 149.4 180.83 148.937C180.277 148.473 179.465 148.241 178.395 148.241C177.289 148.241 176.46 148.482 175.907 148.963C175.372 149.445 175.104 150.034 175.104 150.729C175.104 151.318 175.31 151.808 175.72 152.201C176.13 152.575 176.772 152.807 177.646 152.896L179.251 153.057C180.678 153.217 181.838 153.628 182.729 154.287C183.639 154.947 184.094 155.893 184.094 157.123C184.094 157.962 183.853 158.72 183.372 159.398C182.908 160.058 182.248 160.575 181.392 160.949C180.536 161.324 179.537 161.511 178.395 161.511Z" fill="#404040"/>
</svg>
