<svg width="103" height="12" viewBox="0 0 103 12" fill="none" xmlns="http://www.w3.org/2000/svg">
<path d="M0.560828 11.776V10.976H4.01683C4.88083 10.976 5.6275 10.8374 6.25683 10.56C6.89683 10.2827 7.42483 9.90403 7.84083 9.42403C8.25683 8.94403 8.56616 8.40003 8.76883 7.79203C8.98216 7.17336 9.08883 6.53336 9.08883 5.87203C9.08883 5.17869 8.98216 4.52803 8.76883 3.92003C8.56616 3.31203 8.2515 2.77336 7.82483 2.30403C7.39816 1.83469 6.87016 1.46669 6.24083 1.20003C5.6115 0.93336 4.87016 0.800027 4.01683 0.800027H0.560828V2.67029e-05H3.92083C4.9555 2.67029e-05 5.8515 0.16536 6.60883 0.496027C7.36616 0.816027 7.99016 1.24803 8.48083 1.79203C8.98216 2.33603 9.3555 2.94936 9.60083 3.63203C9.84616 4.31469 9.96883 5.01869 9.96883 5.74403V6.00003C9.96883 6.69336 9.8515 7.38669 9.61683 8.08003C9.38216 8.76269 9.01416 9.38136 8.51283 9.93603C8.02216 10.4907 7.39816 10.9387 6.64083 11.28C5.8835 11.6107 4.97683 11.776 3.92083 11.776H0.560828ZM0.000828266 11.776V2.67029e-05H0.864828V11.776H0.000828266ZM17.6297 11.728V9.21603H17.4697V6.12803C17.4697 5.45603 17.2937 4.93869 16.9417 4.57603C16.5897 4.20269 16.0084 4.01603 15.1977 4.01603C14.9097 4.01603 14.6164 4.02669 14.3177 4.04803C14.019 4.05869 13.7364 4.07469 13.4697 4.09603C13.203 4.10669 12.963 4.12803 12.7497 4.16003V3.39203C12.963 3.36003 13.187 3.33336 13.4217 3.31203C13.667 3.29069 13.9124 3.27469 14.1577 3.26403C14.403 3.25336 14.6377 3.24803 14.8617 3.24803C15.7044 3.24803 16.3764 3.36003 16.8777 3.58403C17.379 3.79736 17.7417 4.12803 17.9657 4.57603C18.1897 5.01336 18.3017 5.57336 18.3017 6.25603V11.728H17.6297ZM14.7017 11.952C14.1364 11.952 13.6297 11.8507 13.1817 11.648C12.7337 11.4454 12.3764 11.1467 12.1097 10.752C11.8537 10.3574 11.7257 9.87736 11.7257 9.31203C11.7257 8.76803 11.8484 8.30403 12.0937 7.92003C12.3497 7.53603 12.7124 7.24269 13.1817 7.04003C13.6617 6.83736 14.2377 6.73603 14.9097 6.73603H17.5497V7.42403H14.8297C14.1044 7.42403 13.5444 7.60003 13.1497 7.95203C12.7657 8.29336 12.5737 8.74669 12.5737 9.31203C12.5737 9.90936 12.7817 10.384 13.1977 10.736C13.6137 11.0774 14.1577 11.248 14.8297 11.248C15.2457 11.248 15.651 11.168 16.0457 11.008C16.4404 10.848 16.771 10.5814 17.0377 10.208C17.3044 9.82403 17.4484 9.31203 17.4697 8.67203L17.7897 9.04003C17.7577 9.69069 17.5977 10.2347 17.3097 10.672C17.0324 11.0987 16.6697 11.4187 16.2217 11.632C15.7737 11.8454 15.267 11.952 14.7017 11.952ZM24.2781 11.808C23.7554 11.808 23.2967 11.7334 22.9021 11.584C22.5074 11.424 22.2034 11.1574 21.9901 10.784C21.7767 10.4107 21.6701 9.90936 21.6701 9.28003V0.592027H22.5021V9.42403C22.5021 9.93603 22.6407 10.336 22.9181 10.624C23.2061 10.9014 23.6007 11.04 24.1021 11.04H25.6701V11.808H24.2781ZM20.0701 4.01603V3.32803H25.6701V4.01603H20.0701ZM33.2547 11.728V9.21603H33.0947V6.12803C33.0947 5.45603 32.9187 4.93869 32.5667 4.57603C32.2147 4.20269 31.6334 4.01603 30.8227 4.01603C30.5347 4.01603 30.2414 4.02669 29.9427 4.04803C29.644 4.05869 29.3614 4.07469 29.0947 4.09603C28.828 4.10669 28.588 4.12803 28.3747 4.16003V3.39203C28.588 3.36003 28.812 3.33336 29.0467 3.31203C29.292 3.29069 29.5374 3.27469 29.7827 3.26403C30.028 3.25336 30.2627 3.24803 30.4867 3.24803C31.3294 3.24803 32.0014 3.36003 32.5027 3.58403C33.004 3.79736 33.3667 4.12803 33.5907 4.57603C33.8147 5.01336 33.9267 5.57336 33.9267 6.25603V11.728H33.2547ZM30.3267 11.952C29.7614 11.952 29.2547 11.8507 28.8067 11.648C28.3587 11.4454 28.0014 11.1467 27.7347 10.752C27.4787 10.3574 27.3507 9.87736 27.3507 9.31203C27.3507 8.76803 27.4734 8.30403 27.7187 7.92003C27.9747 7.53603 28.3374 7.24269 28.8067 7.04003C29.2867 6.83736 29.8627 6.73603 30.5347 6.73603H33.1747V7.42403H30.4547C29.7294 7.42403 29.1694 7.60003 28.7747 7.95203C28.3907 8.29336 28.1987 8.74669 28.1987 9.31203C28.1987 9.90936 28.4067 10.384 28.8227 10.736C29.2387 11.0774 29.7827 11.248 30.4547 11.248C30.8707 11.248 31.276 11.168 31.6707 11.008C32.0654 10.848 32.396 10.5814 32.6627 10.208C32.9294 9.82403 33.0734 9.31203 33.0947 8.67203L33.4147 9.04003C33.3827 9.69069 33.2227 10.2347 32.9347 10.672C32.6574 11.0987 32.2947 11.4187 31.8467 11.632C31.3987 11.8454 30.892 11.952 30.3267 11.952ZM47.8153 11.728L43.5273 0.048027H44.4233L48.5033 11.232L47.9593 10.944H49.4473L48.8713 11.232L52.7273 0.048027H53.5913L49.5433 11.728H47.8153ZM58.8761 12C58.1721 12 57.5481 11.872 57.0041 11.616C56.4601 11.36 56.0014 11.024 55.6281 10.608C55.2654 10.192 54.9881 9.72803 54.7961 9.21603C54.6147 8.69336 54.5241 8.16003 54.5241 7.61603V7.45603C54.5241 6.90136 54.6201 6.36269 54.8121 5.84003C55.0041 5.31736 55.2867 4.84803 55.6601 4.43203C56.0334 4.01603 56.4867 3.68536 57.0201 3.44003C57.5641 3.19469 58.1827 3.07203 58.8761 3.07203C59.5587 3.07203 60.1667 3.19469 60.7001 3.44003C61.2441 3.68536 61.7027 4.01603 62.0761 4.43203C62.4494 4.84803 62.7321 5.31736 62.9241 5.84003C63.1267 6.36269 63.2281 6.90136 63.2281 7.45603V7.61603C63.2281 8.16003 63.1321 8.69336 62.9401 9.21603C62.7481 9.72803 62.4654 10.192 62.0921 10.608C61.7294 11.024 61.2761 11.36 60.7321 11.616C60.1987 11.872 59.5801 12 58.8761 12ZM58.8761 11.216C59.6227 11.216 60.2521 11.0454 60.7641 10.704C61.2867 10.3627 61.6814 9.91469 61.9481 9.36003C62.2254 8.79469 62.3641 8.18669 62.3641 7.53603C62.3641 6.86403 62.2254 6.25069 61.9481 5.69603C61.6707 5.13069 61.2707 4.68269 60.7481 4.35203C60.2361 4.01069 59.6121 3.84003 58.8761 3.84003C58.1507 3.84003 57.5214 4.01069 56.9881 4.35203C56.4654 4.68269 56.0654 5.13069 55.7881 5.69603C55.5107 6.25069 55.3721 6.86403 55.3721 7.53603C55.3721 8.18669 55.5054 8.79469 55.7721 9.36003C56.0494 9.91469 56.4494 10.3627 56.9721 10.704C57.4947 11.0454 58.1294 11.216 58.8761 11.216ZM65.8542 11.728V0.048027H66.7022V11.728H65.8542ZM64.5902 0.768026V0.048027H66.7022V0.768026H64.5902ZM72.8577 11.968C71.8444 11.968 71.0764 11.6427 70.5537 10.992C70.031 10.3414 69.7697 9.46136 69.7697 8.35203V3.32803H70.6337V8.54403C70.6337 9.32269 70.8364 9.95736 71.2417 10.448C71.6577 10.928 72.255 11.168 73.0337 11.168C73.823 11.168 74.447 10.9174 74.9057 10.416C75.375 9.91469 75.6097 9.25869 75.6097 8.44803V3.32803H76.4577V11.728H75.7857V8.33603H75.9777C75.9777 9.05069 75.8604 9.68536 75.6257 10.24C75.4017 10.784 75.0657 11.2107 74.6177 11.52C74.1697 11.8187 73.599 11.968 72.9057 11.968H72.8577ZM79.7906 11.728V3.32803H80.4626V6.76803H80.2706C80.2706 6.04269 80.3772 5.40803 80.5906 4.86403C80.8146 4.30936 81.1452 3.87736 81.5826 3.56803C82.0199 3.25869 82.5746 3.10403 83.2466 3.10403H83.2946C83.9559 3.10403 84.5052 3.25869 84.9426 3.56803C85.3799 3.86669 85.6999 4.29336 85.9026 4.84803C86.1159 5.39203 86.2226 6.03203 86.2226 6.76803H85.9026C85.9026 6.04269 86.0092 5.40803 86.2226 4.86403C86.4466 4.30936 86.7772 3.87736 87.2146 3.56803C87.6626 3.25869 88.2226 3.10403 88.8946 3.10403H88.9426C89.6039 3.10403 90.1532 3.25869 90.5906 3.56803C91.0386 3.86669 91.3692 4.29336 91.5826 4.84803C91.7959 5.39203 91.9026 6.03203 91.9026 6.76803V11.728H91.0546V6.57603C91.0546 5.77603 90.8572 5.13069 90.4626 4.64003C90.0786 4.13869 89.5079 3.88803 88.7506 3.88803C87.9826 3.88803 87.3746 4.14403 86.9266 4.65603C86.4892 5.16803 86.2706 5.83469 86.2706 6.65603V11.728H85.4226V6.57603C85.4226 5.77603 85.2252 5.13069 84.8306 4.64003C84.4466 4.13869 83.8759 3.88803 83.1186 3.88803C82.3506 3.88803 81.7426 4.14403 81.2946 4.65603C80.8572 5.16803 80.6386 5.83469 80.6386 6.65603V11.728H79.7906ZM98.5115 12C97.7968 12 97.1781 11.8774 96.6555 11.632C96.1328 11.376 95.7061 11.04 95.3755 10.624C95.0448 10.1974 94.7941 9.72269 94.6235 9.20003C94.4635 8.66669 94.3835 8.12803 94.3835 7.58403V7.42403C94.3835 6.86936 94.4635 6.33603 94.6235 5.82403C94.7941 5.31203 95.0448 4.84803 95.3755 4.43203C95.7168 4.00536 96.1381 3.67469 96.6395 3.44003C97.1515 3.19469 97.7435 3.07203 98.4155 3.07203C99.2688 3.07203 99.9835 3.26403 100.559 3.64803C101.146 4.02136 101.589 4.51203 101.887 5.12003C102.186 5.72803 102.335 6.36803 102.335 7.04003V7.61603H94.7835V6.91203H101.775L101.519 7.23203C101.519 6.58136 101.397 6.00003 101.151 5.48803C100.917 4.97603 100.565 4.57603 100.095 4.28803C99.6368 3.98936 99.0768 3.84003 98.4155 3.84003C97.7008 3.84003 97.1035 4.00536 96.6235 4.33603C96.1435 4.66669 95.7808 5.10936 95.5355 5.66403C95.3008 6.21869 95.1835 6.83203 95.1835 7.50403C95.1835 8.17603 95.3008 8.79469 95.5355 9.36003C95.7808 9.91469 96.1488 10.368 96.6395 10.72C97.1301 11.0614 97.7541 11.232 98.5115 11.232C99.3221 11.232 99.9728 11.0454 100.463 10.672C100.965 10.2987 101.269 9.85069 101.375 9.32803H102.207C102.09 9.85069 101.866 10.3147 101.535 10.72C101.205 11.1254 100.783 11.44 100.271 11.664C99.7701 11.888 99.1835 12 98.5115 12Z" fill="#404040"/>
</svg>
