<svg width="210" height="44" viewBox="0 0 210 44" fill="none" xmlns="http://www.w3.org/2000/svg">
<g filter="url(#filter0_ddiiii_1008_1027)">
<rect x="3" y="3" width="95" height="38" rx="10" fill="#DFDFDF"/>
<path d="M19.596 27V16.738H20.66V27H19.596ZM25.938 27L22.452 22.478H23.698L27.24 27H25.938ZM20.226 23.122V22.17H22.97C23.474 22.17 23.894 22.072 24.23 21.876C24.566 21.68 24.818 21.414 24.986 21.078C25.154 20.742 25.238 20.3593 25.238 19.93C25.238 19.5007 25.154 19.118 24.986 18.782C24.818 18.446 24.566 18.18 24.23 17.984C23.894 17.7787 23.474 17.676 22.97 17.676H20.226V16.738H22.788C23.544 16.738 24.1833 16.8593 24.706 17.102C25.238 17.3353 25.6393 17.6853 25.91 18.152C26.19 18.6093 26.33 19.1693 26.33 19.832V20.028C26.33 20.6907 26.19 21.2553 25.91 21.722C25.63 22.1793 25.2287 22.5293 24.706 22.772C24.1833 23.0053 23.544 23.122 22.788 23.122H20.226ZM31.9266 27.238C31.2919 27.238 30.7413 27.1307 30.2746 26.916C29.8079 26.692 29.4253 26.398 29.1266 26.034C28.8279 25.6607 28.6039 25.2453 28.4546 24.788C28.3146 24.3307 28.2446 23.8593 28.2446 23.374V23.178C28.2446 22.702 28.3146 22.2353 28.4546 21.778C28.6039 21.3207 28.8279 20.91 29.1266 20.546C29.4253 20.182 29.7986 19.8927 30.2466 19.678C30.7039 19.454 31.2359 19.342 31.8426 19.342C32.6173 19.342 33.2613 19.5147 33.7746 19.86C34.2973 20.2053 34.6893 20.6487 34.9506 21.19C35.2119 21.722 35.3426 22.296 35.3426 22.912V23.458H28.7206V22.646H34.6146L34.3486 23.052C34.3486 22.5013 34.2506 22.0207 34.0546 21.61C33.8679 21.19 33.5879 20.8633 33.2146 20.63C32.8506 20.3873 32.3933 20.266 31.8426 20.266C31.2639 20.266 30.7833 20.4013 30.4006 20.672C30.0179 20.9427 29.7286 21.302 29.5326 21.75C29.3459 22.198 29.2526 22.7067 29.2526 23.276C29.2526 23.836 29.3459 24.3493 29.5326 24.816C29.7286 25.2733 30.0226 25.6373 30.4146 25.908C30.8159 26.1787 31.3199 26.314 31.9266 26.314C32.5706 26.314 33.0933 26.1693 33.4946 25.88C33.8959 25.5813 34.1433 25.2313 34.2366 24.83H35.2166C35.1233 25.3247 34.9273 25.754 34.6286 26.118C34.3299 26.4727 33.9519 26.748 33.4946 26.944C33.0373 27.14 32.5146 27.238 31.9266 27.238ZM39.7019 27.21C38.7499 27.21 38.0172 27.0047 37.5039 26.594C36.9905 26.174 36.7292 25.614 36.7199 24.914H37.6999C37.7185 25.2687 37.8772 25.5907 38.1759 25.88C38.4839 26.1693 38.9925 26.314 39.7019 26.314C40.3645 26.314 40.8592 26.1787 41.1859 25.908C41.5219 25.628 41.6899 25.292 41.6899 24.9C41.6899 24.536 41.5499 24.256 41.2699 24.06C40.9992 23.8547 40.6025 23.724 40.0799 23.668L39.2399 23.584C38.5679 23.5093 38.0219 23.304 37.6019 22.968C37.1912 22.6227 36.9859 22.1513 36.9859 21.554C36.9859 21.1153 37.0979 20.7327 37.3219 20.406C37.5459 20.0793 37.8585 19.8273 38.2599 19.65C38.6705 19.4633 39.1512 19.37 39.7019 19.37C40.4952 19.37 41.1392 19.5567 41.6339 19.93C42.1379 20.3033 42.3945 20.8353 42.4039 21.526H41.4239C41.4145 21.1713 41.2652 20.8727 40.9759 20.63C40.6865 20.3873 40.2619 20.266 39.7019 20.266C39.1232 20.266 38.6892 20.392 38.3999 20.644C38.1199 20.896 37.9799 21.204 37.9799 21.568C37.9799 21.876 38.0872 22.1327 38.3019 22.338C38.5165 22.534 38.8525 22.6553 39.3099 22.702L40.1499 22.786C40.8965 22.87 41.5032 23.0847 41.9699 23.43C42.4459 23.7753 42.6839 24.27 42.6839 24.914C42.6839 25.3527 42.5579 25.7493 42.3059 26.104C42.0632 26.4493 41.7179 26.72 41.2699 26.916C40.8219 27.112 40.2992 27.21 39.7019 27.21ZM47.868 27.238C47.2333 27.238 46.6827 27.1307 46.216 26.916C45.7493 26.692 45.3667 26.398 45.068 26.034C44.7693 25.6607 44.5453 25.2453 44.396 24.788C44.256 24.3307 44.186 23.8593 44.186 23.374V23.178C44.186 22.702 44.256 22.2353 44.396 21.778C44.5453 21.3207 44.7693 20.91 45.068 20.546C45.3667 20.182 45.74 19.8927 46.188 19.678C46.6453 19.454 47.1773 19.342 47.784 19.342C48.5587 19.342 49.2027 19.5147 49.716 19.86C50.2387 20.2053 50.6307 20.6487 50.892 21.19C51.1533 21.722 51.284 22.296 51.284 22.912V23.458H44.662V22.646H50.556L50.29 23.052C50.29 22.5013 50.192 22.0207 49.996 21.61C49.8093 21.19 49.5293 20.8633 49.156 20.63C48.792 20.3873 48.3347 20.266 47.784 20.266C47.2053 20.266 46.7247 20.4013 46.342 20.672C45.9593 20.9427 45.67 21.302 45.474 21.75C45.2873 22.198 45.194 22.7067 45.194 23.276C45.194 23.836 45.2873 24.3493 45.474 24.816C45.67 25.2733 45.964 25.6373 46.356 25.908C46.7573 26.1787 47.2613 26.314 47.868 26.314C48.512 26.314 49.0347 26.1693 49.436 25.88C49.8373 25.5813 50.0847 25.2313 50.178 24.83H51.158C51.0647 25.3247 50.8687 25.754 50.57 26.118C50.2713 26.4727 49.8933 26.748 49.436 26.944C48.9787 27.14 48.456 27.238 47.868 27.238ZM57.8133 27V24.774H57.6453V22.142C57.6453 21.5913 57.5006 21.1713 57.2113 20.882C56.9219 20.5833 56.4739 20.434 55.8673 20.434C55.5873 20.434 55.3026 20.4387 55.0133 20.448C54.7333 20.4573 54.4626 20.4713 54.2013 20.49C53.9493 20.4993 53.7253 20.5133 53.5293 20.532V19.608C53.7346 19.5893 53.9446 19.5707 54.1593 19.552C54.3739 19.5333 54.5933 19.524 54.8173 19.524C55.0506 19.5147 55.2746 19.51 55.4893 19.51C56.2453 19.51 56.8519 19.6033 57.3093 19.79C57.7759 19.9767 58.1166 20.2707 58.3313 20.672C58.5459 21.064 58.6533 21.5867 58.6533 22.24V27H57.8133ZM55.3073 27.196C54.7846 27.196 54.3226 27.1027 53.9213 26.916C53.5199 26.7293 53.2073 26.4587 52.9833 26.104C52.7686 25.7493 52.6613 25.32 52.6613 24.816C52.6613 24.3213 52.7733 23.9013 52.9973 23.556C53.2306 23.2107 53.5619 22.9493 53.9913 22.772C54.4299 22.5853 54.9573 22.492 55.5733 22.492H57.7433V23.29H55.5033C54.9153 23.29 54.4626 23.4347 54.1453 23.724C53.8373 24.004 53.6833 24.3727 53.6833 24.83C53.6833 25.2967 53.8466 25.67 54.1733 25.95C54.4999 26.2207 54.9433 26.356 55.5033 26.356C55.8486 26.356 56.1799 26.2953 56.4973 26.174C56.8146 26.0433 57.0806 25.8287 57.2953 25.53C57.5099 25.222 57.6266 24.802 57.6453 24.27L57.9533 24.704C57.9159 25.2547 57.7853 25.7167 57.5613 26.09C57.3373 26.454 57.0339 26.7293 56.6513 26.916C56.2686 27.1027 55.8206 27.196 55.3073 27.196ZM61.276 27V19.594H62.116V22.688H62.032C62.032 21.6053 62.27 20.8073 62.746 20.294C63.222 19.7713 63.9686 19.51 64.986 19.51H65.224V20.462H64.79C63.9873 20.462 63.376 20.672 62.956 21.092C62.536 21.5027 62.326 22.1093 62.326 22.912V27H61.276ZM69.9488 27.238C69.3234 27.238 68.7774 27.1307 68.3108 26.916C67.8534 26.692 67.4708 26.3933 67.1628 26.02C66.8548 25.6373 66.6214 25.2173 66.4628 24.76C66.3134 24.3027 66.2388 23.8407 66.2388 23.374V23.178C66.2388 22.702 66.3134 22.24 66.4628 21.792C66.6214 21.3347 66.8548 20.924 67.1628 20.56C67.4708 20.1867 67.8534 19.8927 68.3108 19.678C68.7774 19.454 69.3141 19.342 69.9208 19.342C70.5368 19.342 71.0828 19.454 71.5588 19.678C72.0441 19.902 72.4361 20.2193 72.7348 20.63C73.0334 21.0407 73.2108 21.526 73.2668 22.086H72.2588C72.1748 21.5727 71.9321 21.148 71.5308 20.812C71.1388 20.4667 70.6021 20.294 69.9208 20.294C69.3328 20.294 68.8428 20.4293 68.4508 20.7C68.0681 20.9613 67.7788 21.3207 67.5828 21.778C67.3868 22.226 67.2888 22.7253 67.2888 23.276C67.2888 23.8173 67.3868 24.3213 67.5828 24.788C67.7788 25.2453 68.0728 25.614 68.4648 25.894C68.8568 26.1647 69.3514 26.3 69.9488 26.3C70.4061 26.3 70.8028 26.2207 71.1388 26.062C71.4841 25.894 71.7594 25.67 71.9648 25.39C72.1794 25.11 72.3054 24.802 72.3428 24.466H73.3508C73.3134 25.026 73.1361 25.516 72.8188 25.936C72.5108 26.3467 72.1094 26.6687 71.6148 26.902C71.1201 27.126 70.5648 27.238 69.9488 27.238ZM75.276 27V16.78H76.326V22.562L76.018 22.8C76.018 22.1093 76.116 21.5073 76.312 20.994C76.5173 20.4807 76.8206 20.084 77.222 19.804C77.6326 19.5147 78.146 19.37 78.762 19.37H78.818C79.714 19.37 80.3906 19.664 80.848 20.252C81.3146 20.84 81.548 21.6567 81.548 22.702V27H80.512V22.478C80.512 21.8153 80.33 21.2927 79.966 20.91C79.602 20.5273 79.112 20.336 78.496 20.336C77.8333 20.336 77.306 20.5507 76.914 20.98C76.522 21.4 76.326 21.9553 76.326 22.646V27H75.276Z" fill="#34C759"/>
</g>
<rect x="106" y="3" width="104" height="38" rx="10" fill="#DFDFDF"/>
<path d="M121.462 27L125.228 16.78H127.132L131.024 27H129.932L126.306 17.452L126.88 17.746H125.41L126.012 17.452L122.526 27H121.462ZM123.478 23.752L123.828 22.786H128.574L128.938 23.752H123.478ZM132.844 29.8V19.594H133.684V22.772L133.432 22.8C133.47 22.0533 133.628 21.4233 133.908 20.91C134.198 20.3967 134.585 20.0093 135.07 19.748C135.565 19.4773 136.116 19.342 136.722 19.342C137.264 19.342 137.754 19.4493 138.192 19.664C138.64 19.8693 139.018 20.154 139.326 20.518C139.644 20.8727 139.882 21.2833 140.04 21.75C140.208 22.2073 140.292 22.688 140.292 23.192V23.388C140.292 23.892 140.208 24.3773 140.04 24.844C139.872 25.3013 139.63 25.712 139.312 26.076C139.004 26.4307 138.626 26.7153 138.178 26.93C137.74 27.1353 137.245 27.238 136.694 27.238C136.106 27.238 135.565 27.1073 135.07 26.846C134.585 26.5753 134.188 26.1787 133.88 25.656C133.582 25.1333 133.418 24.4893 133.39 23.724L133.894 24.774V29.8H132.844ZM136.554 26.314C137.114 26.314 137.595 26.1833 137.996 25.922C138.398 25.6513 138.706 25.2873 138.92 24.83C139.135 24.3633 139.242 23.85 139.242 23.29C139.242 22.7113 139.13 22.198 138.906 21.75C138.692 21.2927 138.384 20.9333 137.982 20.672C137.581 20.4013 137.105 20.266 136.554 20.266C136.05 20.266 135.593 20.378 135.182 20.602C134.772 20.826 134.445 21.1433 134.202 21.554C133.969 21.9553 133.852 22.4313 133.852 22.982V23.668C133.852 24.1907 133.969 24.6527 134.202 25.054C134.445 25.446 134.772 25.754 135.182 25.978C135.593 26.202 136.05 26.314 136.554 26.314ZM142.415 27V19.594H143.255V22.688H143.171C143.171 21.6053 143.409 20.8073 143.885 20.294C144.361 19.7713 145.107 19.51 146.125 19.51H146.363V20.462H145.929C145.126 20.462 144.515 20.672 144.095 21.092C143.675 21.5027 143.465 22.1093 143.465 22.912V27H142.415ZM148.453 27V19.594H149.489V27H148.453ZM147.263 20.434V19.594H149.489V20.434H147.263ZM148.677 18.222C148.425 18.222 148.234 18.1567 148.103 18.026C147.982 17.886 147.921 17.7133 147.921 17.508C147.921 17.3027 147.982 17.1347 148.103 17.004C148.234 16.864 148.425 16.794 148.677 16.794C148.929 16.794 149.116 16.864 149.237 17.004C149.358 17.1347 149.419 17.3027 149.419 17.508C149.419 17.7133 149.358 17.886 149.237 18.026C149.116 18.1567 148.929 18.222 148.677 18.222ZM152.315 27V16.78H153.365V27H152.315ZM151.237 17.634V16.78H153.365V17.634H151.237ZM159.13 27V25.446C159.13 25.0447 159.186 24.704 159.298 24.424C159.41 24.144 159.606 23.8873 159.886 23.654C160.166 23.4207 160.549 23.1967 161.034 22.982L163.036 22.044C163.521 21.82 163.909 21.526 164.198 21.162C164.487 20.798 164.632 20.322 164.632 19.734C164.632 19.0153 164.427 18.4553 164.016 18.054C163.615 17.6433 163.059 17.438 162.35 17.438C161.65 17.438 161.09 17.6433 160.67 18.054C160.259 18.4553 160.054 19.0153 160.054 19.734H159.032C159.032 19.1273 159.158 18.5813 159.41 18.096C159.662 17.6107 160.035 17.228 160.53 16.948C161.025 16.6587 161.631 16.514 162.35 16.514C163.078 16.514 163.685 16.6587 164.17 16.948C164.655 17.228 165.024 17.606 165.276 18.082C165.528 18.5487 165.654 19.0667 165.654 19.636V19.832C165.654 20.56 165.444 21.1713 165.024 21.666C164.613 22.1513 164.072 22.5527 163.4 22.87L161.384 23.808C160.908 24.0227 160.586 24.2467 160.418 24.48C160.259 24.704 160.18 24.9933 160.18 25.348V26.594L159.872 26.09H165.822V27H159.13ZM171.748 27.238C171.029 27.238 170.413 27.112 169.9 26.86C169.386 26.608 168.966 26.258 168.64 25.81C168.313 25.3527 168.07 24.8207 167.912 24.214C167.762 23.598 167.688 22.9353 167.688 22.226V21.568C167.688 20.5693 167.832 19.692 168.122 18.936C168.42 18.18 168.868 17.5873 169.466 17.158C170.072 16.7287 170.833 16.514 171.748 16.514C172.662 16.514 173.418 16.7287 174.016 17.158C174.613 17.5873 175.056 18.18 175.346 18.936C175.644 19.692 175.794 20.5693 175.794 21.568V22.226C175.794 22.9353 175.714 23.598 175.556 24.214C175.406 24.8207 175.168 25.3527 174.842 25.81C174.515 26.258 174.095 26.608 173.582 26.86C173.068 27.112 172.457 27.238 171.748 27.238ZM171.748 26.286C172.756 26.286 173.502 25.9313 173.988 25.222C174.482 24.5127 174.73 23.4067 174.73 21.904C174.73 20.336 174.478 19.2067 173.974 18.516C173.479 17.816 172.737 17.466 171.748 17.466C170.749 17.466 169.998 17.816 169.494 18.516C168.999 19.2067 168.752 20.3267 168.752 21.876C168.752 23.388 168.994 24.5033 169.48 25.222C169.974 25.9313 170.73 26.286 171.748 26.286ZM178.025 27V25.446C178.025 25.0447 178.081 24.704 178.193 24.424C178.305 24.144 178.501 23.8873 178.781 23.654C179.061 23.4207 179.443 23.1967 179.929 22.982L181.931 22.044C182.416 21.82 182.803 21.526 183.093 21.162C183.382 20.798 183.527 20.322 183.527 19.734C183.527 19.0153 183.321 18.4553 182.911 18.054C182.509 17.6433 181.954 17.438 181.245 17.438C180.545 17.438 179.985 17.6433 179.565 18.054C179.154 18.4553 178.949 19.0153 178.949 19.734H177.927C177.927 19.1273 178.053 18.5813 178.305 18.096C178.557 17.6107 178.93 17.228 179.425 16.948C179.919 16.6587 180.526 16.514 181.245 16.514C181.973 16.514 182.579 16.6587 183.065 16.948C183.55 17.228 183.919 17.606 184.171 18.082C184.423 18.5487 184.549 19.0667 184.549 19.636V19.832C184.549 20.56 184.339 21.1713 183.919 21.666C183.508 22.1513 182.967 22.5527 182.295 22.87L180.279 23.808C179.803 24.0227 179.481 24.2467 179.313 24.48C179.154 24.704 179.075 24.9933 179.075 25.348V26.594L178.767 26.09H184.717V27H178.025ZM190.32 27.266C189.639 27.266 189.06 27.1493 188.584 26.916C188.108 26.6733 187.721 26.3373 187.422 25.908C187.133 25.4787 186.918 24.97 186.778 24.382C186.638 23.7847 186.568 23.136 186.568 22.436V21.848C186.568 20.1867 186.956 18.9173 187.73 18.04C188.505 17.1533 189.662 16.71 191.202 16.71C191.52 16.71 191.804 16.7193 192.056 16.738C192.308 16.7567 192.579 16.7847 192.868 16.822V17.732C192.579 17.6853 192.299 17.6527 192.028 17.634C191.758 17.6153 191.464 17.606 191.146 17.606C190.269 17.606 189.564 17.7787 189.032 18.124C188.5 18.46 188.113 18.95 187.87 19.594C187.637 20.238 187.52 21.0173 187.52 21.932V22.926L187.24 23.752C187.25 23.0427 187.385 22.4407 187.646 21.946C187.917 21.4513 188.295 21.0733 188.78 20.812C189.266 20.5507 189.835 20.42 190.488 20.42C191.216 20.42 191.832 20.5693 192.336 20.868C192.84 21.1667 193.218 21.5727 193.47 22.086C193.732 22.5993 193.862 23.1733 193.862 23.808C193.862 24.452 193.727 25.0353 193.456 25.558C193.195 26.0807 192.803 26.496 192.28 26.804C191.758 27.112 191.104 27.266 190.32 27.266ZM190.32 26.342C190.88 26.342 191.347 26.23 191.72 26.006C192.103 25.782 192.388 25.4787 192.574 25.096C192.761 24.7133 192.854 24.284 192.854 23.808C192.854 23.332 192.761 22.9073 192.574 22.534C192.397 22.1513 192.122 21.8527 191.748 21.638C191.384 21.414 190.932 21.302 190.39 21.302C189.858 21.302 189.392 21.4047 188.99 21.61C188.598 21.8153 188.29 22.1093 188.066 22.492C187.852 22.8653 187.744 23.3087 187.744 23.822C187.744 24.2607 187.838 24.6713 188.024 25.054C188.211 25.4367 188.496 25.7493 188.878 25.992C189.261 26.2253 189.742 26.342 190.32 26.342Z" fill="#717171"/>
<defs>
<filter id="filter0_ddiiii_1008_1027" x="0" y="0" width="101" height="44" filterUnits="userSpaceOnUse" color-interpolation-filters="sRGB">
<feFlood flood-opacity="0" result="BackgroundImageFix"/>
<feColorMatrix in="SourceAlpha" type="matrix" values="0 0 0 0 0 0 0 0 0 0 0 0 0 0 0 0 0 0 127 0" result="hardAlpha"/>
<feOffset dx="-1" dy="-1"/>
<feGaussianBlur stdDeviation="1"/>
<feColorMatrix type="matrix" values="0 0 0 0 0.788235 0 0 0 0 0.788235 0 0 0 0 0.788235 0 0 0 0.5 0"/>
<feBlend mode="normal" in2="BackgroundImageFix" result="effect1_dropShadow_1008_1027"/>
<feColorMatrix in="SourceAlpha" type="matrix" values="0 0 0 0 0 0 0 0 0 0 0 0 0 0 0 0 0 0 127 0" result="hardAlpha"/>
<feOffset dx="1" dy="1"/>
<feGaussianBlur stdDeviation="1"/>
<feColorMatrix type="matrix" values="0 0 0 0 0.960784 0 0 0 0 0.960784 0 0 0 0 0.960784 0 0 0 0.3 0"/>
<feBlend mode="normal" in2="effect1_dropShadow_1008_1027" result="effect2_dropShadow_1008_1027"/>
<feBlend mode="normal" in="SourceGraphic" in2="effect2_dropShadow_1008_1027" result="shape"/>
<feColorMatrix in="SourceAlpha" type="matrix" values="0 0 0 0 0 0 0 0 0 0 0 0 0 0 0 0 0 0 127 0" result="hardAlpha"/>
<feOffset dx="1" dy="1"/>
<feGaussianBlur stdDeviation="1.5"/>
<feComposite in2="hardAlpha" operator="arithmetic" k2="-1" k3="1"/>
<feColorMatrix type="matrix" values="0 0 0 0 0.788235 0 0 0 0 0.788235 0 0 0 0 0.788235 0 0 0 0.9 0"/>
<feBlend mode="normal" in2="shape" result="effect3_innerShadow_1008_1027"/>
<feColorMatrix in="SourceAlpha" type="matrix" values="0 0 0 0 0 0 0 0 0 0 0 0 0 0 0 0 0 0 127 0" result="hardAlpha"/>
<feOffset dx="-1" dy="-1"/>
<feGaussianBlur stdDeviation="1"/>
<feComposite in2="hardAlpha" operator="arithmetic" k2="-1" k3="1"/>
<feColorMatrix type="matrix" values="0 0 0 0 0.960784 0 0 0 0 0.960784 0 0 0 0 0.960784 0 0 0 0.9 0"/>
<feBlend mode="normal" in2="effect3_innerShadow_1008_1027" result="effect4_innerShadow_1008_1027"/>
<feColorMatrix in="SourceAlpha" type="matrix" values="0 0 0 0 0 0 0 0 0 0 0 0 0 0 0 0 0 0 127 0" result="hardAlpha"/>
<feOffset dx="1" dy="-1"/>
<feGaussianBlur stdDeviation="1"/>
<feComposite in2="hardAlpha" operator="arithmetic" k2="-1" k3="1"/>
<feColorMatrix type="matrix" values="0 0 0 0 0.788235 0 0 0 0 0.788235 0 0 0 0 0.788235 0 0 0 0.2 0"/>
<feBlend mode="normal" in2="effect4_innerShadow_1008_1027" result="effect5_innerShadow_1008_1027"/>
<feColorMatrix in="SourceAlpha" type="matrix" values="0 0 0 0 0 0 0 0 0 0 0 0 0 0 0 0 0 0 127 0" result="hardAlpha"/>
<feOffset dx="-1" dy="1"/>
<feGaussianBlur stdDeviation="1"/>
<feComposite in2="hardAlpha" operator="arithmetic" k2="-1" k3="1"/>
<feColorMatrix type="matrix" values="0 0 0 0 0.788235 0 0 0 0 0.788235 0 0 0 0 0.788235 0 0 0 0.2 0"/>
<feBlend mode="normal" in2="effect5_innerShadow_1008_1027" result="effect6_innerShadow_1008_1027"/>
</filter>
</defs>
</svg>
