<svg width="238" height="44" viewBox="0 0 238 44" fill="none" xmlns="http://www.w3.org/2000/svg">
<g filter="url(#filter0_ddiiii_1008_1071)">
<rect x="3" y="3" width="83" height="38" rx="10" fill="#DFDFDF"/>
<path d="M22.872 27.238C22.0133 27.238 21.29 27.1027 20.702 26.832C20.114 26.552 19.666 26.1693 19.358 25.684C19.0593 25.1893 18.91 24.634 18.91 24.018H19.974C19.974 24.41 20.0673 24.7787 20.254 25.124C20.45 25.46 20.758 25.7353 21.178 25.95C21.6073 26.1553 22.172 26.258 22.872 26.258C23.516 26.258 24.048 26.1647 24.468 25.978C24.8973 25.7913 25.2147 25.5393 25.42 25.222C25.6347 24.9047 25.742 24.55 25.742 24.158C25.742 23.6633 25.546 23.2527 25.154 22.926C24.7713 22.59 24.1927 22.3893 23.418 22.324L22.242 22.212C21.3647 22.1373 20.6647 21.8667 20.142 21.4C19.6287 20.924 19.372 20.2987 19.372 19.524C19.372 18.936 19.512 18.418 19.792 17.97C20.072 17.522 20.4687 17.1673 20.982 16.906C21.5047 16.6447 22.13 16.514 22.858 16.514C23.5953 16.514 24.2253 16.6493 24.748 16.92C25.28 17.1813 25.686 17.5453 25.966 18.012C26.246 18.4787 26.386 19.02 26.386 19.636H25.322C25.322 19.2627 25.238 18.9127 25.07 18.586C24.902 18.2593 24.636 17.998 24.272 17.802C23.908 17.5967 23.4367 17.494 22.858 17.494C22.3073 17.494 21.85 17.5873 21.486 17.774C21.1313 17.9607 20.8653 18.208 20.688 18.516C20.52 18.824 20.436 19.16 20.436 19.524C20.436 19.9813 20.5993 20.3687 20.926 20.686C21.2527 21.0033 21.724 21.1853 22.34 21.232L23.516 21.344C24.2067 21.4 24.7947 21.554 25.28 21.806C25.7747 22.0487 26.1527 22.3707 26.414 22.772C26.6753 23.164 26.806 23.626 26.806 24.158C26.806 24.7553 26.6427 25.2873 26.316 25.754C25.9987 26.2207 25.546 26.5847 24.958 26.846C24.37 27.1073 23.6747 27.238 22.872 27.238ZM28.4617 29.884V28.946H29.4137C29.7404 28.946 30.0204 28.904 30.2537 28.82C30.4871 28.7453 30.6831 28.61 30.8417 28.414C31.0004 28.218 31.1357 27.9473 31.2477 27.602L33.7397 19.594H34.7617L32.1577 27.896C32.0084 28.372 31.8031 28.7547 31.5417 29.044C31.2804 29.3427 30.9677 29.5573 30.6037 29.688C30.2397 29.8187 29.8244 29.884 29.3577 29.884H28.4617ZM30.8697 26.818V25.936H32.1997V26.818H30.8697ZM30.7437 26.818L28.0557 19.594H29.1337L31.7237 26.818H30.7437ZM38.8952 27.21C37.9432 27.21 37.2106 27.0047 36.6972 26.594C36.1839 26.174 35.9226 25.614 35.9132 24.914H36.8932C36.9119 25.2687 37.0706 25.5907 37.3692 25.88C37.6772 26.1693 38.1859 26.314 38.8952 26.314C39.5579 26.314 40.0526 26.1787 40.3792 25.908C40.7152 25.628 40.8832 25.292 40.8832 24.9C40.8832 24.536 40.7432 24.256 40.4632 24.06C40.1926 23.8547 39.7959 23.724 39.2732 23.668L38.4332 23.584C37.7612 23.5093 37.2152 23.304 36.7952 22.968C36.3846 22.6227 36.1792 22.1513 36.1792 21.554C36.1792 21.1153 36.2912 20.7327 36.5152 20.406C36.7392 20.0793 37.0519 19.8273 37.4532 19.65C37.8639 19.4633 38.3446 19.37 38.8952 19.37C39.6886 19.37 40.3326 19.5567 40.8272 19.93C41.3312 20.3033 41.5879 20.8353 41.5972 21.526H40.6172C40.6079 21.1713 40.4586 20.8727 40.1692 20.63C39.8799 20.3873 39.4552 20.266 38.8952 20.266C38.3166 20.266 37.8826 20.392 37.5932 20.644C37.3132 20.896 37.1732 21.204 37.1732 21.568C37.1732 21.876 37.2806 22.1327 37.4952 22.338C37.7099 22.534 38.0459 22.6553 38.5032 22.702L39.3432 22.786C40.0899 22.87 40.6966 23.0847 41.1632 23.43C41.6392 23.7753 41.8772 24.27 41.8772 24.914C41.8772 25.3527 41.7512 25.7493 41.4992 26.104C41.2566 26.4493 40.9112 26.72 40.4632 26.916C40.0152 27.112 39.4926 27.21 38.8952 27.21ZM46.6554 27.084C46.142 27.084 45.6987 27.0093 45.3254 26.86C44.952 26.7107 44.6627 26.4587 44.4574 26.104C44.252 25.74 44.1494 25.2547 44.1494 24.648V17.256H45.1574V24.802C45.1574 25.2313 45.274 25.5627 45.5074 25.796C45.7407 26.02 46.072 26.132 46.5014 26.132H47.8314V27.084H46.6554ZM42.8194 20.392V19.594H47.8314V20.392H42.8194ZM52.8856 27.238C52.2509 27.238 51.7003 27.1307 51.2336 26.916C50.7669 26.692 50.3843 26.398 50.0856 26.034C49.7869 25.6607 49.5629 25.2453 49.4136 24.788C49.2736 24.3307 49.2036 23.8593 49.2036 23.374V23.178C49.2036 22.702 49.2736 22.2353 49.4136 21.778C49.5629 21.3207 49.7869 20.91 50.0856 20.546C50.3843 20.182 50.7576 19.8927 51.2056 19.678C51.6629 19.454 52.1949 19.342 52.8016 19.342C53.5763 19.342 54.2203 19.5147 54.7336 19.86C55.2563 20.2053 55.6483 20.6487 55.9096 21.19C56.1709 21.722 56.3016 22.296 56.3016 22.912V23.458H49.6796V22.646H55.5736L55.3076 23.052C55.3076 22.5013 55.2096 22.0207 55.0136 21.61C54.8269 21.19 54.5469 20.8633 54.1736 20.63C53.8096 20.3873 53.3523 20.266 52.8016 20.266C52.2229 20.266 51.7423 20.4013 51.3596 20.672C50.9769 20.9427 50.6876 21.302 50.4916 21.75C50.3049 22.198 50.2116 22.7067 50.2116 23.276C50.2116 23.836 50.3049 24.3493 50.4916 24.816C50.6876 25.2733 50.9816 25.6373 51.3736 25.908C51.7749 26.1787 52.2789 26.314 52.8856 26.314C53.5296 26.314 54.0523 26.1693 54.4536 25.88C54.8549 25.5813 55.1023 25.2313 55.1956 24.83H56.1756C56.0823 25.3247 55.8863 25.754 55.5876 26.118C55.2889 26.4727 54.9109 26.748 54.4536 26.944C53.9963 27.14 53.4736 27.238 52.8856 27.238ZM58.3228 27V19.58H59.1628V22.702H58.9948C58.9948 22.0207 59.0882 21.4327 59.2748 20.938C59.4708 20.4433 59.7602 20.0607 60.1428 19.79C60.5255 19.51 61.0108 19.37 61.5988 19.37H61.6408C62.2288 19.37 62.7142 19.5053 63.0968 19.776C63.4795 20.0467 63.7642 20.4293 63.9508 20.924C64.1375 21.4187 64.2308 22.0113 64.2308 22.702H63.8948C63.8948 22.0207 63.9882 21.4327 64.1748 20.938C64.3708 20.4433 64.6602 20.0607 65.0428 19.79C65.4348 19.51 65.9248 19.37 66.5128 19.37H66.5548C67.1428 19.37 67.6282 19.5053 68.0108 19.776C68.4028 20.0467 68.6922 20.4293 68.8788 20.924C69.0748 21.4187 69.1728 22.0113 69.1728 22.702V27H68.1228V22.464C68.1228 21.8107 67.9642 21.2927 67.6468 20.91C67.3295 20.5273 66.8722 20.336 66.2748 20.336C65.6588 20.336 65.1688 20.5367 64.8048 20.938C64.4502 21.33 64.2728 21.862 64.2728 22.534V27H63.2228V22.464C63.2228 21.8107 63.0642 21.2927 62.7468 20.91C62.4295 20.5273 61.9722 20.336 61.3748 20.336C60.7588 20.336 60.2688 20.5367 59.9048 20.938C59.5502 21.33 59.3728 21.862 59.3728 22.534V27H58.3228Z" fill="#6155F5"/>
</g>
<rect x="94" y="3" width="144" height="38" rx="10" fill="#DFDFDF"/>
<path d="M111.38 27.056V26.076H114.166C114.857 26.076 115.459 25.964 115.972 25.74C116.495 25.516 116.933 25.2127 117.288 24.83C117.643 24.438 117.909 23.99 118.086 23.486C118.263 22.982 118.352 22.4453 118.352 21.876C118.352 21.288 118.259 20.742 118.072 20.238C117.895 19.734 117.629 19.2907 117.274 18.908C116.919 18.5253 116.481 18.2313 115.958 18.026C115.445 17.8207 114.847 17.718 114.166 17.718H111.38V16.738H114.054C114.969 16.738 115.762 16.878 116.434 17.158C117.106 17.438 117.666 17.8207 118.114 18.306C118.562 18.782 118.893 19.3187 119.108 19.916C119.323 20.5133 119.43 21.12 119.43 21.736V22.002C119.43 22.6087 119.323 23.2107 119.108 23.808C118.893 24.4053 118.567 24.9513 118.128 25.446C117.689 25.9313 117.129 26.3233 116.448 26.622C115.776 26.9113 114.978 27.056 114.054 27.056H111.38ZM110.596 27.056V16.738H111.66V27.056H110.596ZM124.581 27.238C123.946 27.238 123.396 27.1307 122.929 26.916C122.462 26.692 122.08 26.398 121.781 26.034C121.482 25.6607 121.258 25.2453 121.109 24.788C120.969 24.3307 120.899 23.8593 120.899 23.374V23.178C120.899 22.702 120.969 22.2353 121.109 21.778C121.258 21.3207 121.482 20.91 121.781 20.546C122.08 20.182 122.453 19.8927 122.901 19.678C123.358 19.454 123.89 19.342 124.497 19.342C125.272 19.342 125.916 19.5147 126.429 19.86C126.952 20.2053 127.344 20.6487 127.605 21.19C127.866 21.722 127.997 22.296 127.997 22.912V23.458H121.375V22.646H127.269L127.003 23.052C127.003 22.5013 126.905 22.0207 126.709 21.61C126.522 21.19 126.242 20.8633 125.869 20.63C125.505 20.3873 125.048 20.266 124.497 20.266C123.918 20.266 123.438 20.4013 123.055 20.672C122.672 20.9427 122.383 21.302 122.187 21.75C122 22.198 121.907 22.7067 121.907 23.276C121.907 23.836 122 24.3493 122.187 24.816C122.383 25.2733 122.677 25.6373 123.069 25.908C123.47 26.1787 123.974 26.314 124.581 26.314C125.225 26.314 125.748 26.1693 126.149 25.88C126.55 25.5813 126.798 25.2313 126.891 24.83H127.871C127.778 25.3247 127.582 25.754 127.283 26.118C126.984 26.4727 126.606 26.748 126.149 26.944C125.692 27.14 125.169 27.238 124.581 27.238ZM133.14 27.238C132.515 27.238 131.969 27.1307 131.502 26.916C131.045 26.692 130.662 26.3933 130.354 26.02C130.046 25.6373 129.813 25.2173 129.654 24.76C129.505 24.3027 129.43 23.8407 129.43 23.374V23.178C129.43 22.702 129.505 22.24 129.654 21.792C129.813 21.3347 130.046 20.924 130.354 20.56C130.662 20.1867 131.045 19.8927 131.502 19.678C131.969 19.454 132.505 19.342 133.112 19.342C133.728 19.342 134.274 19.454 134.75 19.678C135.235 19.902 135.627 20.2193 135.926 20.63C136.225 21.0407 136.402 21.526 136.458 22.086H135.45C135.366 21.5727 135.123 21.148 134.722 20.812C134.33 20.4667 133.793 20.294 133.112 20.294C132.524 20.294 132.034 20.4293 131.642 20.7C131.259 20.9613 130.97 21.3207 130.774 21.778C130.578 22.226 130.48 22.7253 130.48 23.276C130.48 23.8173 130.578 24.3213 130.774 24.788C130.97 25.2453 131.264 25.614 131.656 25.894C132.048 26.1647 132.543 26.3 133.14 26.3C133.597 26.3 133.994 26.2207 134.33 26.062C134.675 25.894 134.951 25.67 135.156 25.39C135.371 25.11 135.497 24.802 135.534 24.466H136.542C136.505 25.026 136.327 25.516 136.01 25.936C135.702 26.3467 135.301 26.6687 134.806 26.902C134.311 27.126 133.756 27.238 133.14 27.238ZM141.561 27.238C140.927 27.238 140.376 27.1307 139.909 26.916C139.443 26.692 139.06 26.398 138.761 26.034C138.463 25.6607 138.239 25.2453 138.089 24.788C137.949 24.3307 137.879 23.8593 137.879 23.374V23.178C137.879 22.702 137.949 22.2353 138.089 21.778C138.239 21.3207 138.463 20.91 138.761 20.546C139.06 20.182 139.433 19.8927 139.881 19.678C140.339 19.454 140.871 19.342 141.477 19.342C142.252 19.342 142.896 19.5147 143.409 19.86C143.932 20.2053 144.324 20.6487 144.585 21.19C144.847 21.722 144.977 22.296 144.977 22.912V23.458H138.355V22.646H144.249L143.983 23.052C143.983 22.5013 143.885 22.0207 143.689 21.61C143.503 21.19 143.223 20.8633 142.849 20.63C142.485 20.3873 142.028 20.266 141.477 20.266C140.899 20.266 140.418 20.4013 140.035 20.672C139.653 20.9427 139.363 21.302 139.167 21.75C138.981 22.198 138.887 22.7067 138.887 23.276C138.887 23.836 138.981 24.3493 139.167 24.816C139.363 25.2733 139.657 25.6373 140.049 25.908C140.451 26.1787 140.955 26.314 141.561 26.314C142.205 26.314 142.728 26.1693 143.129 25.88C143.531 25.5813 143.778 25.2313 143.871 24.83H144.851C144.758 25.3247 144.562 25.754 144.263 26.118C143.965 26.4727 143.587 26.748 143.129 26.944C142.672 27.14 142.149 27.238 141.561 27.238ZM146.999 27V19.58H147.839V22.702H147.671C147.671 22.0207 147.764 21.4327 147.951 20.938C148.147 20.4433 148.436 20.0607 148.819 19.79C149.201 19.51 149.687 19.37 150.275 19.37H150.317C150.905 19.37 151.39 19.5053 151.773 19.776C152.155 20.0467 152.44 20.4293 152.627 20.924C152.813 21.4187 152.907 22.0113 152.907 22.702H152.571C152.571 22.0207 152.664 21.4327 152.851 20.938C153.047 20.4433 153.336 20.0607 153.719 19.79C154.111 19.51 154.601 19.37 155.189 19.37H155.231C155.819 19.37 156.304 19.5053 156.687 19.776C157.079 20.0467 157.368 20.4293 157.555 20.924C157.751 21.4187 157.849 22.0113 157.849 22.702V27H156.799V22.464C156.799 21.8107 156.64 21.2927 156.323 20.91C156.005 20.5273 155.548 20.336 154.951 20.336C154.335 20.336 153.845 20.5367 153.481 20.938C153.126 21.33 152.949 21.862 152.949 22.534V27H151.899V22.464C151.899 21.8107 151.74 21.2927 151.423 20.91C151.105 20.5273 150.648 20.336 150.051 20.336C149.435 20.336 148.945 20.5367 148.581 20.938C148.226 21.33 148.049 21.862 148.049 22.534V27H146.999ZM164.287 27.238C163.634 27.238 163.06 27.0933 162.565 26.804C162.08 26.5147 161.697 26.1087 161.417 25.586C161.147 25.0633 161.002 24.4613 160.983 23.78H161.305V27H160.465V16.78H161.515V21.89L161.109 22.828C161.128 22.0813 161.277 21.4513 161.557 20.938C161.847 20.4153 162.229 20.0187 162.705 19.748C163.191 19.4773 163.741 19.342 164.357 19.342C164.899 19.342 165.389 19.4447 165.827 19.65C166.266 19.8553 166.639 20.1353 166.947 20.49C167.265 20.8447 167.503 21.2553 167.661 21.722C167.829 22.1793 167.913 22.6647 167.913 23.178V23.374C167.913 23.878 167.829 24.3633 167.661 24.83C167.493 25.2873 167.251 25.698 166.933 26.062C166.625 26.426 166.247 26.7153 165.799 26.93C165.351 27.1353 164.847 27.238 164.287 27.238ZM164.175 26.314C164.735 26.314 165.216 26.1787 165.617 25.908C166.019 25.6373 166.327 25.2733 166.541 24.816C166.756 24.3587 166.863 23.8453 166.863 23.276C166.863 22.6973 166.751 22.184 166.527 21.736C166.313 21.2787 166 20.9193 165.589 20.658C165.188 20.3967 164.717 20.266 164.175 20.266C163.671 20.266 163.214 20.378 162.803 20.602C162.393 20.826 162.066 21.1433 161.823 21.554C161.59 21.9553 161.473 22.4313 161.473 22.982V23.668C161.473 24.1907 161.59 24.6527 161.823 25.054C162.066 25.446 162.393 25.754 162.803 25.978C163.214 26.202 163.671 26.314 164.175 26.314ZM173.13 27.238C172.495 27.238 171.944 27.1307 171.478 26.916C171.011 26.692 170.628 26.398 170.33 26.034C170.031 25.6607 169.807 25.2453 169.658 24.788C169.518 24.3307 169.448 23.8593 169.448 23.374V23.178C169.448 22.702 169.518 22.2353 169.658 21.778C169.807 21.3207 170.031 20.91 170.33 20.546C170.628 20.182 171.002 19.8927 171.45 19.678C171.907 19.454 172.439 19.342 173.046 19.342C173.82 19.342 174.464 19.5147 174.978 19.86C175.5 20.2053 175.892 20.6487 176.154 21.19C176.415 21.722 176.546 22.296 176.546 22.912V23.458H169.924V22.646H175.818L175.552 23.052C175.552 22.5013 175.454 22.0207 175.258 21.61C175.071 21.19 174.791 20.8633 174.418 20.63C174.054 20.3873 173.596 20.266 173.046 20.266C172.467 20.266 171.986 20.4013 171.604 20.672C171.221 20.9427 170.932 21.302 170.736 21.75C170.549 22.198 170.456 22.7067 170.456 23.276C170.456 23.836 170.549 24.3493 170.736 24.816C170.932 25.2733 171.226 25.6373 171.618 25.908C172.019 26.1787 172.523 26.314 173.13 26.314C173.774 26.314 174.296 26.1693 174.698 25.88C175.099 25.5813 175.346 25.2313 175.44 24.83H176.42C176.326 25.3247 176.13 25.754 175.832 26.118C175.533 26.4727 175.155 26.748 174.698 26.944C174.24 27.14 173.718 27.238 173.13 27.238ZM178.567 27V19.594H179.407V22.688H179.323C179.323 21.6053 179.561 20.8073 180.037 20.294C180.513 19.7713 181.26 19.51 182.277 19.51H182.515V20.462H182.081C181.278 20.462 180.667 20.672 180.247 21.092C179.827 21.5027 179.617 22.1093 179.617 22.912V27H178.567ZM187.257 27V25.446C187.257 25.0447 187.313 24.704 187.425 24.424C187.537 24.144 187.733 23.8873 188.013 23.654C188.293 23.4207 188.676 23.1967 189.161 22.982L191.163 22.044C191.648 21.82 192.036 21.526 192.325 21.162C192.614 20.798 192.759 20.322 192.759 19.734C192.759 19.0153 192.554 18.4553 192.143 18.054C191.742 17.6433 191.186 17.438 190.477 17.438C189.777 17.438 189.217 17.6433 188.797 18.054C188.386 18.4553 188.181 19.0153 188.181 19.734H187.159C187.159 19.1273 187.285 18.5813 187.537 18.096C187.789 17.6107 188.162 17.228 188.657 16.948C189.152 16.6587 189.758 16.514 190.477 16.514C191.205 16.514 191.812 16.6587 192.297 16.948C192.782 17.228 193.151 17.606 193.403 18.082C193.655 18.5487 193.781 19.0667 193.781 19.636V19.832C193.781 20.56 193.571 21.1713 193.151 21.666C192.74 22.1513 192.199 22.5527 191.527 22.87L189.511 23.808C189.035 24.0227 188.713 24.2467 188.545 24.48C188.386 24.704 188.307 24.9933 188.307 25.348V26.594L187.999 26.09H193.949V27H187.257ZM199.875 27.238C199.156 27.238 198.54 27.112 198.027 26.86C197.513 26.608 197.093 26.258 196.767 25.81C196.44 25.3527 196.197 24.8207 196.039 24.214C195.889 23.598 195.815 22.9353 195.815 22.226V21.568C195.815 20.5693 195.959 19.692 196.249 18.936C196.547 18.18 196.995 17.5873 197.593 17.158C198.199 16.7287 198.96 16.514 199.875 16.514C200.789 16.514 201.545 16.7287 202.143 17.158C202.74 17.5873 203.183 18.18 203.473 18.936C203.771 19.692 203.921 20.5693 203.921 21.568V22.226C203.921 22.9353 203.841 23.598 203.683 24.214C203.533 24.8207 203.295 25.3527 202.969 25.81C202.642 26.258 202.222 26.608 201.709 26.86C201.195 27.112 200.584 27.238 199.875 27.238ZM199.875 26.286C200.883 26.286 201.629 25.9313 202.115 25.222C202.609 24.5127 202.857 23.4067 202.857 21.904C202.857 20.336 202.605 19.2067 202.101 18.516C201.606 17.816 200.864 17.466 199.875 17.466C198.876 17.466 198.125 17.816 197.621 18.516C197.126 19.2067 196.879 20.3267 196.879 21.876C196.879 23.388 197.121 24.5033 197.607 25.222C198.101 25.9313 198.857 26.286 199.875 26.286ZM206.152 27V25.446C206.152 25.0447 206.208 24.704 206.32 24.424C206.432 24.144 206.628 23.8873 206.908 23.654C207.188 23.4207 207.57 23.1967 208.056 22.982L210.058 22.044C210.543 21.82 210.93 21.526 211.22 21.162C211.509 20.798 211.654 20.322 211.654 19.734C211.654 19.0153 211.448 18.4553 211.038 18.054C210.636 17.6433 210.081 17.438 209.372 17.438C208.672 17.438 208.112 17.6433 207.692 18.054C207.281 18.4553 207.076 19.0153 207.076 19.734H206.054C206.054 19.1273 206.18 18.5813 206.432 18.096C206.684 17.6107 207.057 17.228 207.552 16.948C208.046 16.6587 208.653 16.514 209.372 16.514C210.1 16.514 210.706 16.6587 211.192 16.948C211.677 17.228 212.046 17.606 212.298 18.082C212.55 18.5487 212.676 19.0667 212.676 19.636V19.832C212.676 20.56 212.466 21.1713 212.046 21.666C211.635 22.1513 211.094 22.5527 210.422 22.87L208.406 23.808C207.93 24.0227 207.608 24.2467 207.44 24.48C207.281 24.704 207.202 24.9933 207.202 25.348V26.594L206.894 26.09H212.844V27H206.152ZM217.999 27.238C217.225 27.238 216.576 27.084 216.053 26.776C215.531 26.4587 215.134 26.0433 214.863 25.53C214.593 25.0167 214.457 24.466 214.457 23.878H215.479C215.479 24.3447 215.577 24.76 215.773 25.124C215.979 25.488 216.268 25.7773 216.641 25.992C217.015 26.2067 217.467 26.314 217.999 26.314C218.531 26.314 218.984 26.2113 219.357 26.006C219.731 25.7913 220.015 25.502 220.211 25.138C220.417 24.7647 220.519 24.3447 220.519 23.878C220.519 23.4207 220.421 23.0053 220.225 22.632C220.029 22.2587 219.74 21.9647 219.357 21.75C218.984 21.526 218.531 21.414 217.999 21.414C217.626 21.414 217.257 21.4793 216.893 21.61C216.529 21.7313 216.226 21.9133 215.983 22.156H215.017L215.549 16.78H220.631V17.69H216.123L216.417 17.326L215.997 21.526L215.675 21.456C215.965 21.1667 216.305 20.938 216.697 20.77C217.089 20.602 217.537 20.518 218.041 20.518C218.807 20.518 219.451 20.6767 219.973 20.994C220.496 21.3113 220.888 21.722 221.149 22.226C221.42 22.7207 221.555 23.2433 221.555 23.794V23.976C221.555 24.5267 221.42 25.054 221.149 25.558C220.879 26.0527 220.477 26.4587 219.945 26.776C219.423 27.084 218.774 27.238 217.999 27.238Z" fill="#717171"/>
<defs>
<filter id="filter0_ddiiii_1008_1071" x="0" y="0" width="89" height="44" filterUnits="userSpaceOnUse" color-interpolation-filters="sRGB">
<feFlood flood-opacity="0" result="BackgroundImageFix"/>
<feColorMatrix in="SourceAlpha" type="matrix" values="0 0 0 0 0 0 0 0 0 0 0 0 0 0 0 0 0 0 127 0" result="hardAlpha"/>
<feOffset dx="-1" dy="-1"/>
<feGaussianBlur stdDeviation="1"/>
<feColorMatrix type="matrix" values="0 0 0 0 0.788235 0 0 0 0 0.788235 0 0 0 0 0.788235 0 0 0 0.5 0"/>
<feBlend mode="normal" in2="BackgroundImageFix" result="effect1_dropShadow_1008_1071"/>
<feColorMatrix in="SourceAlpha" type="matrix" values="0 0 0 0 0 0 0 0 0 0 0 0 0 0 0 0 0 0 127 0" result="hardAlpha"/>
<feOffset dx="1" dy="1"/>
<feGaussianBlur stdDeviation="1"/>
<feColorMatrix type="matrix" values="0 0 0 0 0.960784 0 0 0 0 0.960784 0 0 0 0 0.960784 0 0 0 0.3 0"/>
<feBlend mode="normal" in2="effect1_dropShadow_1008_1071" result="effect2_dropShadow_1008_1071"/>
<feBlend mode="normal" in="SourceGraphic" in2="effect2_dropShadow_1008_1071" result="shape"/>
<feColorMatrix in="SourceAlpha" type="matrix" values="0 0 0 0 0 0 0 0 0 0 0 0 0 0 0 0 0 0 127 0" result="hardAlpha"/>
<feOffset dx="1" dy="1"/>
<feGaussianBlur stdDeviation="1.5"/>
<feComposite in2="hardAlpha" operator="arithmetic" k2="-1" k3="1"/>
<feColorMatrix type="matrix" values="0 0 0 0 0.788235 0 0 0 0 0.788235 0 0 0 0 0.788235 0 0 0 0.9 0"/>
<feBlend mode="normal" in2="shape" result="effect3_innerShadow_1008_1071"/>
<feColorMatrix in="SourceAlpha" type="matrix" values="0 0 0 0 0 0 0 0 0 0 0 0 0 0 0 0 0 0 127 0" result="hardAlpha"/>
<feOffset dx="-1" dy="-1"/>
<feGaussianBlur stdDeviation="1"/>
<feComposite in2="hardAlpha" operator="arithmetic" k2="-1" k3="1"/>
<feColorMatrix type="matrix" values="0 0 0 0 0.960784 0 0 0 0 0.960784 0 0 0 0 0.960784 0 0 0 0.9 0"/>
<feBlend mode="normal" in2="effect3_innerShadow_1008_1071" result="effect4_innerShadow_1008_1071"/>
<feColorMatrix in="SourceAlpha" type="matrix" values="0 0 0 0 0 0 0 0 0 0 0 0 0 0 0 0 0 0 127 0" result="hardAlpha"/>
<feOffset dx="1" dy="-1"/>
<feGaussianBlur stdDeviation="1"/>
<feComposite in2="hardAlpha" operator="arithmetic" k2="-1" k3="1"/>
<feColorMatrix type="matrix" values="0 0 0 0 0.788235 0 0 0 0 0.788235 0 0 0 0 0.788235 0 0 0 0.2 0"/>
<feBlend mode="normal" in2="effect4_innerShadow_1008_1071" result="effect5_innerShadow_1008_1071"/>
<feColorMatrix in="SourceAlpha" type="matrix" values="0 0 0 0 0 0 0 0 0 0 0 0 0 0 0 0 0 0 127 0" result="hardAlpha"/>
<feOffset dx="-1" dy="1"/>
<feGaussianBlur stdDeviation="1"/>
<feComposite in2="hardAlpha" operator="arithmetic" k2="-1" k3="1"/>
<feColorMatrix type="matrix" values="0 0 0 0 0.788235 0 0 0 0 0.788235 0 0 0 0 0.788235 0 0 0 0.2 0"/>
<feBlend mode="normal" in2="effect5_innerShadow_1008_1071" result="effect6_innerShadow_1008_1071"/>
</filter>
</defs>
</svg>
