<svg width="1440" height="248" viewBox="0 0 1440 248" fill="none" xmlns="http://www.w3.org/2000/svg">
<rect width="1440" height="248" rx="50" fill="#ECECEC"/>
<g filter="url(#filter0_ddiiii_648_200)">
<rect x="1271" y="169" width="66" height="24" rx="10" fill="#ECECEC"/>
</g>
<g filter="url(#filter1_ddiiii_648_200)">
<rect x="1275.59" y="172.927" width="54.6951" height="15.8537" rx="7.92683" fill="#B2CEFE"/>
</g>
<g filter="url(#filter2_ddddii_648_200)">
<rect x="1307.29" y="165" width="30" height="30" rx="15" fill="url(#paint0_linear_648_200)"/>
</g>
<g filter="url(#filter3_ddiiii_648_200)">
<rect x="1311.04" y="168.75" width="22.5" height="22.5" rx="11.25" fill="#ECECEC"/>
</g>
<g clip-path="url(#clip0_648_200)">
<g filter="url(#filter4_ddiiii_648_200)">
<rect x="439" y="197" width="49" height="38" rx="15" fill="#ECECEC"/>
<path d="M454.462 221L458.228 210.78H460.132L464.024 221H462.932L459.306 211.452L459.88 211.746H458.41L459.012 211.452L455.526 221H454.462ZM456.478 217.752L456.828 216.786H461.574L461.938 217.752H456.478ZM465.846 221V210.78H466.896V221H465.846ZM464.768 211.634V210.78H466.896V211.634H464.768ZM469.688 221V210.78H470.738V221H469.688ZM468.61 211.634V210.78H470.738V211.634H468.61Z" fill="url(#paint1_radial_648_200)"/>
</g>
<g filter="url(#filter5_ddddii_648_200)">
<rect x="505" y="197" width="164" height="38" rx="15" fill="url(#paint2_linear_648_200)"/>
<path d="M521.596 221V210.738H522.66V221H521.596ZM527.938 221L524.452 216.478H525.698L529.24 221H527.938ZM522.226 217.122V216.17H524.97C525.474 216.17 525.894 216.072 526.23 215.876C526.566 215.68 526.818 215.414 526.986 215.078C527.154 214.742 527.238 214.359 527.238 213.93C527.238 213.501 527.154 213.118 526.986 212.782C526.818 212.446 526.566 212.18 526.23 211.984C525.894 211.779 525.474 211.676 524.97 211.676H522.226V210.738H524.788C525.544 210.738 526.183 210.859 526.706 211.102C527.238 211.335 527.639 211.685 527.91 212.152C528.19 212.609 528.33 213.169 528.33 213.832V214.028C528.33 214.691 528.19 215.255 527.91 215.722C527.63 216.179 527.229 216.529 526.706 216.772C526.183 217.005 525.544 217.122 524.788 217.122H522.226ZM533.927 221.238C533.292 221.238 532.741 221.131 532.275 220.916C531.808 220.692 531.425 220.398 531.127 220.034C530.828 219.661 530.604 219.245 530.455 218.788C530.315 218.331 530.245 217.859 530.245 217.374V217.178C530.245 216.702 530.315 216.235 530.455 215.778C530.604 215.321 530.828 214.91 531.127 214.546C531.425 214.182 531.799 213.893 532.247 213.678C532.704 213.454 533.236 213.342 533.843 213.342C534.617 213.342 535.261 213.515 535.775 213.86C536.297 214.205 536.689 214.649 536.951 215.19C537.212 215.722 537.343 216.296 537.343 216.912V217.458H530.721V216.646H536.615L536.349 217.052C536.349 216.501 536.251 216.021 536.055 215.61C535.868 215.19 535.588 214.863 535.215 214.63C534.851 214.387 534.393 214.266 533.843 214.266C533.264 214.266 532.783 214.401 532.401 214.672C532.018 214.943 531.729 215.302 531.533 215.75C531.346 216.198 531.253 216.707 531.253 217.276C531.253 217.836 531.346 218.349 531.533 218.816C531.729 219.273 532.023 219.637 532.415 219.908C532.816 220.179 533.32 220.314 533.927 220.314C534.571 220.314 535.093 220.169 535.495 219.88C535.896 219.581 536.143 219.231 536.237 218.83H537.217C537.123 219.325 536.927 219.754 536.629 220.118C536.33 220.473 535.952 220.748 535.495 220.944C535.037 221.14 534.515 221.238 533.927 221.238ZM542.486 221.238C541.861 221.238 541.315 221.131 540.848 220.916C540.391 220.692 540.008 220.393 539.7 220.02C539.392 219.637 539.159 219.217 539 218.76C538.851 218.303 538.776 217.841 538.776 217.374V217.178C538.776 216.702 538.851 216.24 539 215.792C539.159 215.335 539.392 214.924 539.7 214.56C540.008 214.187 540.391 213.893 540.848 213.678C541.315 213.454 541.851 213.342 542.458 213.342C543.074 213.342 543.62 213.454 544.096 213.678C544.581 213.902 544.973 214.219 545.272 214.63C545.571 215.041 545.748 215.526 545.804 216.086H544.796C544.712 215.573 544.469 215.148 544.068 214.812C543.676 214.467 543.139 214.294 542.458 214.294C541.87 214.294 541.38 214.429 540.988 214.7C540.605 214.961 540.316 215.321 540.12 215.778C539.924 216.226 539.826 216.725 539.826 217.276C539.826 217.817 539.924 218.321 540.12 218.788C540.316 219.245 540.61 219.614 541.002 219.894C541.394 220.165 541.889 220.3 542.486 220.3C542.943 220.3 543.34 220.221 543.676 220.062C544.021 219.894 544.297 219.67 544.502 219.39C544.717 219.11 544.843 218.802 544.88 218.466H545.888C545.851 219.026 545.673 219.516 545.356 219.936C545.048 220.347 544.647 220.669 544.152 220.902C543.657 221.126 543.102 221.238 542.486 221.238ZM550.907 221.238C550.272 221.238 549.722 221.131 549.255 220.916C548.788 220.692 548.406 220.398 548.107 220.034C547.808 219.661 547.584 219.245 547.435 218.788C547.295 218.331 547.225 217.859 547.225 217.374V217.178C547.225 216.702 547.295 216.235 547.435 215.778C547.584 215.321 547.808 214.91 548.107 214.546C548.406 214.182 548.779 213.893 549.227 213.678C549.684 213.454 550.216 213.342 550.823 213.342C551.598 213.342 552.242 213.515 552.755 213.86C553.278 214.205 553.67 214.649 553.931 215.19C554.192 215.722 554.323 216.296 554.323 216.912V217.458H547.701V216.646H553.595L553.329 217.052C553.329 216.501 553.231 216.021 553.035 215.61C552.848 215.19 552.568 214.863 552.195 214.63C551.831 214.387 551.374 214.266 550.823 214.266C550.244 214.266 549.764 214.401 549.381 214.672C548.998 214.943 548.709 215.302 548.513 215.75C548.326 216.198 548.233 216.707 548.233 217.276C548.233 217.836 548.326 218.349 548.513 218.816C548.709 219.273 549.003 219.637 549.395 219.908C549.796 220.179 550.3 220.314 550.907 220.314C551.551 220.314 552.074 220.169 552.475 219.88C552.876 219.581 553.124 219.231 553.217 218.83H554.197C554.104 219.325 553.908 219.754 553.609 220.118C553.31 220.473 552.932 220.748 552.475 220.944C552.018 221.14 551.495 221.238 550.907 221.238ZM556.344 221V213.594H557.184V216.702H557.016C557.016 216.011 557.119 215.419 557.324 214.924C557.53 214.429 557.838 214.047 558.248 213.776C558.659 213.505 559.177 213.37 559.802 213.37H559.844C560.778 213.37 561.473 213.664 561.93 214.252C562.388 214.831 562.616 215.647 562.616 216.702V221H561.58V216.478C561.58 215.834 561.403 215.316 561.048 214.924C560.694 214.532 560.199 214.336 559.564 214.336C558.911 214.336 558.384 214.541 557.982 214.952C557.59 215.353 557.394 215.885 557.394 216.548V221H556.344ZM567.919 221.084C567.406 221.084 566.962 221.009 566.589 220.86C566.216 220.711 565.926 220.459 565.721 220.104C565.516 219.74 565.413 219.255 565.413 218.648V211.256H566.421V218.802C566.421 219.231 566.538 219.563 566.771 219.796C567.004 220.02 567.336 220.132 567.765 220.132H569.095V221.084H567.919ZM564.083 214.392V213.594H569.095V214.392H564.083ZM571.194 221V210.78H572.244V221H571.194ZM570.116 211.634V210.78H572.244V211.634H570.116ZM574.307 223.884V222.946H575.259C575.586 222.946 575.866 222.904 576.099 222.82C576.333 222.745 576.529 222.61 576.687 222.414C576.846 222.218 576.981 221.947 577.093 221.602L579.585 213.594H580.607L578.003 221.896C577.854 222.372 577.649 222.755 577.387 223.044C577.126 223.343 576.813 223.557 576.449 223.688C576.085 223.819 575.67 223.884 575.203 223.884H574.307ZM576.715 220.818V219.936H578.045V220.818H576.715ZM576.589 220.818L573.901 213.594H574.979L577.569 220.818H576.589ZM589.926 221.238C588.992 221.238 588.218 221.061 587.602 220.706C586.986 220.351 586.524 219.857 586.216 219.222C585.908 218.578 585.754 217.841 585.754 217.01V210.78H586.818V217.136C586.818 217.761 586.93 218.307 587.154 218.774C587.387 219.241 587.732 219.605 588.19 219.866C588.656 220.127 589.235 220.258 589.926 220.258C590.607 220.258 591.176 220.132 591.634 219.88C592.091 219.619 592.436 219.255 592.67 218.788C592.903 218.312 593.02 217.761 593.02 217.136V210.78H594.084V217.01C594.084 217.841 593.93 218.578 593.622 219.222C593.314 219.857 592.852 220.351 592.236 220.706C591.629 221.061 590.859 221.238 589.926 221.238ZM596.84 223.8V213.594H597.68V216.772L597.428 216.8C597.466 216.053 597.624 215.423 597.904 214.91C598.194 214.397 598.581 214.009 599.066 213.748C599.561 213.477 600.112 213.342 600.718 213.342C601.26 213.342 601.75 213.449 602.188 213.664C602.636 213.869 603.014 214.154 603.322 214.518C603.64 214.873 603.878 215.283 604.036 215.75C604.204 216.207 604.288 216.688 604.288 217.192V217.388C604.288 217.892 604.204 218.377 604.036 218.844C603.868 219.301 603.626 219.712 603.308 220.076C603 220.431 602.622 220.715 602.174 220.93C601.736 221.135 601.241 221.238 600.69 221.238C600.102 221.238 599.561 221.107 599.066 220.846C598.581 220.575 598.184 220.179 597.876 219.656C597.578 219.133 597.414 218.489 597.386 217.724L597.89 218.774V223.8H596.84ZM600.55 220.314C601.11 220.314 601.591 220.183 601.992 219.922C602.394 219.651 602.702 219.287 602.916 218.83C603.131 218.363 603.238 217.85 603.238 217.29C603.238 216.711 603.126 216.198 602.902 215.75C602.688 215.293 602.38 214.933 601.978 214.672C601.577 214.401 601.101 214.266 600.55 214.266C600.046 214.266 599.589 214.378 599.178 214.602C598.768 214.826 598.441 215.143 598.198 215.554C597.965 215.955 597.848 216.431 597.848 216.982V217.668C597.848 218.191 597.965 218.653 598.198 219.054C598.441 219.446 598.768 219.754 599.178 219.978C599.589 220.202 600.046 220.314 600.55 220.314ZM606.481 221V210.78H607.531V221H606.481ZM605.403 211.634V210.78H607.531V211.634H605.403ZM613.571 221.238C612.936 221.238 612.376 221.131 611.891 220.916C611.415 220.692 611.009 220.398 610.673 220.034C610.346 219.661 610.094 219.245 609.917 218.788C609.749 218.331 609.665 217.864 609.665 217.388V217.192C609.665 216.716 609.753 216.249 609.931 215.792C610.108 215.325 610.365 214.91 610.701 214.546C611.037 214.182 611.443 213.893 611.919 213.678C612.404 213.454 612.955 213.342 613.571 213.342C614.196 213.342 614.747 213.454 615.223 213.678C615.708 213.893 616.119 214.182 616.455 214.546C616.791 214.91 617.043 215.325 617.211 215.792C617.388 216.249 617.477 216.716 617.477 217.192V217.388C617.477 217.864 617.393 218.331 617.225 218.788C617.057 219.245 616.805 219.661 616.469 220.034C616.142 220.398 615.736 220.692 615.251 220.916C614.765 221.131 614.205 221.238 613.571 221.238ZM613.571 220.3C614.187 220.3 614.705 220.165 615.125 219.894C615.554 219.614 615.881 219.25 616.105 218.802C616.329 218.345 616.441 217.841 616.441 217.29C616.441 216.73 616.324 216.226 616.091 215.778C615.867 215.321 615.54 214.961 615.111 214.7C614.681 214.429 614.168 214.294 613.571 214.294C612.983 214.294 612.474 214.429 612.045 214.7C611.615 214.961 611.284 215.321 611.051 215.778C610.827 216.226 610.715 216.73 610.715 217.29C610.715 217.841 610.827 218.345 611.051 218.802C611.275 219.25 611.597 219.614 612.017 219.894C612.446 220.165 612.964 220.3 613.571 220.3ZM624.126 221V218.774H623.958V216.142C623.958 215.591 623.813 215.171 623.524 214.882C623.234 214.583 622.786 214.434 622.18 214.434C621.9 214.434 621.615 214.439 621.326 214.448C621.046 214.457 620.775 214.471 620.514 214.49C620.262 214.499 620.038 214.513 619.842 214.532V213.608C620.047 213.589 620.257 213.571 620.472 213.552C620.686 213.533 620.906 213.524 621.13 213.524C621.363 213.515 621.587 213.51 621.802 213.51C622.558 213.51 623.164 213.603 623.622 213.79C624.088 213.977 624.429 214.271 624.644 214.672C624.858 215.064 624.966 215.587 624.966 216.24V221H624.126ZM621.62 221.196C621.097 221.196 620.635 221.103 620.234 220.916C619.832 220.729 619.52 220.459 619.296 220.104C619.081 219.749 618.974 219.32 618.974 218.816C618.974 218.321 619.086 217.901 619.31 217.556C619.543 217.211 619.874 216.949 620.304 216.772C620.742 216.585 621.27 216.492 621.886 216.492H624.056V217.29H621.816C621.228 217.29 620.775 217.435 620.458 217.724C620.15 218.004 619.996 218.373 619.996 218.83C619.996 219.297 620.159 219.67 620.486 219.95C620.812 220.221 621.256 220.356 621.816 220.356C622.161 220.356 622.492 220.295 622.81 220.174C623.127 220.043 623.393 219.829 623.608 219.53C623.822 219.222 623.939 218.802 623.958 218.27L624.266 218.704C624.228 219.255 624.098 219.717 623.874 220.09C623.65 220.454 623.346 220.729 622.964 220.916C622.581 221.103 622.133 221.196 621.62 221.196ZM630.626 221.238C630.085 221.238 629.59 221.14 629.142 220.944C628.704 220.739 628.321 220.459 627.994 220.104C627.677 219.74 627.43 219.329 627.252 218.872C627.084 218.405 627 217.911 627 217.388V217.192C627 216.688 627.084 216.207 627.252 215.75C627.42 215.283 627.658 214.873 627.966 214.518C628.284 214.154 628.662 213.869 629.1 213.664C629.548 213.449 630.048 213.342 630.598 213.342C631.224 213.342 631.774 213.477 632.25 213.748C632.726 214.019 633.109 214.411 633.398 214.924C633.688 215.428 633.842 216.049 633.86 216.786L633.398 215.918V210.78H634.448V221H633.608V217.71H633.944C633.926 218.485 633.762 219.138 633.454 219.67C633.156 220.193 632.759 220.585 632.264 220.846C631.779 221.107 631.233 221.238 630.626 221.238ZM630.766 220.314C631.27 220.314 631.723 220.202 632.124 219.978C632.535 219.754 632.857 219.437 633.09 219.026C633.324 218.606 633.44 218.125 633.44 217.584V216.912C633.44 216.389 633.324 215.932 633.09 215.54C632.857 215.139 632.535 214.826 632.124 214.602C631.723 214.378 631.266 214.266 630.752 214.266C630.202 214.266 629.721 214.401 629.31 214.672C628.909 214.933 628.596 215.293 628.372 215.75C628.158 216.207 628.05 216.721 628.05 217.29C628.05 217.878 628.162 218.401 628.386 218.858C628.61 219.315 628.928 219.675 629.338 219.936C629.749 220.188 630.225 220.314 630.766 220.314ZM640.253 221.238C639.618 221.238 639.067 221.131 638.601 220.916C638.134 220.692 637.751 220.398 637.453 220.034C637.154 219.661 636.93 219.245 636.781 218.788C636.641 218.331 636.571 217.859 636.571 217.374V217.178C636.571 216.702 636.641 216.235 636.781 215.778C636.93 215.321 637.154 214.91 637.453 214.546C637.751 214.182 638.125 213.893 638.573 213.678C639.03 213.454 639.562 213.342 640.169 213.342C640.943 213.342 641.587 213.515 642.101 213.86C642.623 214.205 643.015 214.649 643.277 215.19C643.538 215.722 643.669 216.296 643.669 216.912V217.458H637.047V216.646H642.941L642.675 217.052C642.675 216.501 642.577 216.021 642.381 215.61C642.194 215.19 641.914 214.863 641.541 214.63C641.177 214.387 640.719 214.266 640.169 214.266C639.59 214.266 639.109 214.401 638.727 214.672C638.344 214.943 638.055 215.302 637.859 215.75C637.672 216.198 637.579 216.707 637.579 217.276C637.579 217.836 637.672 218.349 637.859 218.816C638.055 219.273 638.349 219.637 638.741 219.908C639.142 220.179 639.646 220.314 640.253 220.314C640.897 220.314 641.419 220.169 641.821 219.88C642.222 219.581 642.469 219.231 642.563 218.83H643.543C643.449 219.325 643.253 219.754 642.955 220.118C642.656 220.473 642.278 220.748 641.821 220.944C641.363 221.14 640.841 221.238 640.253 221.238ZM648.728 221.238C648.187 221.238 647.692 221.14 647.244 220.944C646.805 220.739 646.423 220.459 646.096 220.104C645.779 219.74 645.531 219.329 645.354 218.872C645.186 218.405 645.102 217.911 645.102 217.388V217.192C645.102 216.688 645.186 216.207 645.354 215.75C645.522 215.283 645.76 214.873 646.068 214.518C646.385 214.154 646.763 213.869 647.202 213.664C647.65 213.449 648.149 213.342 648.7 213.342C649.325 213.342 649.876 213.477 650.352 213.748C650.828 214.019 651.211 214.411 651.5 214.924C651.789 215.428 651.943 216.049 651.962 216.786L651.5 215.918V210.78H652.55V221H651.71V217.71H652.046C652.027 218.485 651.864 219.138 651.556 219.67C651.257 220.193 650.861 220.585 650.366 220.846C649.881 221.107 649.335 221.238 648.728 221.238ZM648.868 220.314C649.372 220.314 649.825 220.202 650.226 219.978C650.637 219.754 650.959 219.437 651.192 219.026C651.425 218.606 651.542 218.125 651.542 217.584V216.912C651.542 216.389 651.425 215.932 651.192 215.54C650.959 215.139 650.637 214.826 650.226 214.602C649.825 214.378 649.367 214.266 648.854 214.266C648.303 214.266 647.823 214.401 647.412 214.672C647.011 214.933 646.698 215.293 646.474 215.75C646.259 216.207 646.152 216.721 646.152 217.29C646.152 217.878 646.264 218.401 646.488 218.858C646.712 219.315 647.029 219.675 647.44 219.936C647.851 220.188 648.327 220.314 648.868 220.314Z" fill="#717171"/>
</g>
<g filter="url(#filter6_ddddii_648_200)">
<rect x="686" y="197" width="82" height="38" rx="15" fill="url(#paint3_linear_648_200)"/>
<path d="M709.624 221V210.78H710.688V221H709.624ZM702.596 221V210.78H703.66V221H702.596ZM703.422 216.408V215.456H709.862V216.408H703.422ZM714.029 221V213.594H715.065V221H714.029ZM712.839 214.434V213.594H715.065V214.434H712.839ZM714.253 212.222C714.001 212.222 713.81 212.157 713.679 212.026C713.558 211.886 713.497 211.713 713.497 211.508C713.497 211.303 713.558 211.135 713.679 211.004C713.81 210.864 714.001 210.794 714.253 210.794C714.505 210.794 714.692 210.864 714.813 211.004C714.935 211.135 714.995 211.303 714.995 211.508C714.995 211.713 714.935 211.886 714.813 212.026C714.692 212.157 714.505 212.222 714.253 212.222ZM720.159 221.21C719.207 221.21 718.474 221.005 717.961 220.594C717.448 220.174 717.186 219.614 717.177 218.914H718.157C718.176 219.269 718.334 219.591 718.633 219.88C718.941 220.169 719.45 220.314 720.159 220.314C720.822 220.314 721.316 220.179 721.643 219.908C721.979 219.628 722.147 219.292 722.147 218.9C722.147 218.536 722.007 218.256 721.727 218.06C721.456 217.855 721.06 217.724 720.537 217.668L719.697 217.584C719.025 217.509 718.479 217.304 718.059 216.968C717.648 216.623 717.443 216.151 717.443 215.554C717.443 215.115 717.555 214.733 717.779 214.406C718.003 214.079 718.316 213.827 718.717 213.65C719.128 213.463 719.608 213.37 720.159 213.37C720.952 213.37 721.596 213.557 722.091 213.93C722.595 214.303 722.852 214.835 722.861 215.526H721.881C721.872 215.171 721.722 214.873 721.433 214.63C721.144 214.387 720.719 214.266 720.159 214.266C719.58 214.266 719.146 214.392 718.857 214.644C718.577 214.896 718.437 215.204 718.437 215.568C718.437 215.876 718.544 216.133 718.759 216.338C718.974 216.534 719.31 216.655 719.767 216.702L720.607 216.786C721.354 216.87 721.96 217.085 722.427 217.43C722.903 217.775 723.141 218.27 723.141 218.914C723.141 219.353 723.015 219.749 722.763 220.104C722.52 220.449 722.175 220.72 721.727 220.916C721.279 221.112 720.756 221.21 720.159 221.21ZM727.919 221.084C727.406 221.084 726.962 221.009 726.589 220.86C726.216 220.711 725.926 220.459 725.721 220.104C725.516 219.74 725.413 219.255 725.413 218.648V211.256H726.421V218.802C726.421 219.231 726.538 219.563 726.771 219.796C727.004 220.02 727.336 220.132 727.765 220.132H729.095V221.084H727.919ZM724.083 214.392V213.594H729.095V214.392H724.083ZM734.373 221.238C733.739 221.238 733.179 221.131 732.693 220.916C732.217 220.692 731.811 220.398 731.475 220.034C731.149 219.661 730.897 219.245 730.719 218.788C730.551 218.331 730.467 217.864 730.467 217.388V217.192C730.467 216.716 730.556 216.249 730.733 215.792C730.911 215.325 731.167 214.91 731.503 214.546C731.839 214.182 732.245 213.893 732.721 213.678C733.207 213.454 733.757 213.342 734.373 213.342C734.999 213.342 735.549 213.454 736.025 213.678C736.511 213.893 736.921 214.182 737.257 214.546C737.593 214.91 737.845 215.325 738.013 215.792C738.191 216.249 738.279 216.716 738.279 217.192V217.388C738.279 217.864 738.195 218.331 738.027 218.788C737.859 219.245 737.607 219.661 737.271 220.034C736.945 220.398 736.539 220.692 736.053 220.916C735.568 221.131 735.008 221.238 734.373 221.238ZM734.373 220.3C734.989 220.3 735.507 220.165 735.927 219.894C736.357 219.614 736.683 219.25 736.907 218.802C737.131 218.345 737.243 217.841 737.243 217.29C737.243 216.73 737.127 216.226 736.893 215.778C736.669 215.321 736.343 214.961 735.913 214.7C735.484 214.429 734.971 214.294 734.373 214.294C733.785 214.294 733.277 214.429 732.847 214.7C732.418 214.961 732.087 215.321 731.853 215.778C731.629 216.226 731.517 216.73 731.517 217.29C731.517 217.841 731.629 218.345 731.853 218.802C732.077 219.25 732.399 219.614 732.819 219.894C733.249 220.165 733.767 220.3 734.373 220.3ZM740.421 221V213.594H741.261V216.688H741.177C741.177 215.605 741.415 214.807 741.891 214.294C742.367 213.771 743.113 213.51 744.131 213.51H744.369V214.462H743.935C743.132 214.462 742.521 214.672 742.101 215.092C741.681 215.503 741.471 216.109 741.471 216.912V221H740.421ZM745.655 223.884V222.946H746.607C746.934 222.946 747.214 222.904 747.447 222.82C747.68 222.745 747.876 222.61 748.035 222.414C748.194 222.218 748.329 221.947 748.441 221.602L750.933 213.594H751.955L749.351 221.896C749.202 222.372 748.996 222.755 748.735 223.044C748.474 223.343 748.161 223.557 747.797 223.688C747.433 223.819 747.018 223.884 746.551 223.884H745.655ZM748.063 220.818V219.936H749.393V220.818H748.063ZM747.937 220.818L745.249 213.594H746.327L748.917 220.818H747.937Z" fill="#717171"/>
</g>
<g filter="url(#filter7_ddddii_648_200)">
<rect x="785" y="197" width="168" height="38" rx="15" fill="url(#paint4_linear_648_200)"/>
<path d="M802.394 221.042V220.104H805.39C805.997 220.104 806.468 219.931 806.804 219.586C807.149 219.231 807.322 218.765 807.322 218.186C807.322 217.617 807.154 217.159 806.818 216.814C806.482 216.459 806.006 216.282 805.39 216.282H802.394V215.582H805.236C805.852 215.582 806.398 215.671 806.874 215.848C807.35 216.016 807.723 216.287 807.994 216.66C808.265 217.033 808.4 217.523 808.4 218.13V218.298C808.4 218.849 808.283 219.334 808.05 219.754C807.817 220.165 807.467 220.482 807 220.706C806.533 220.93 805.945 221.042 805.236 221.042H802.394ZM801.596 221.042V210.738H802.66V221.042H801.596ZM802.394 216.086V215.386H805.012C805.656 215.386 806.132 215.213 806.44 214.868C806.748 214.513 806.902 214.07 806.902 213.538C806.902 212.987 806.748 212.539 806.44 212.194C806.132 211.849 805.656 211.676 805.012 211.676H802.394V210.738H804.83C805.885 210.738 806.673 210.976 807.196 211.452C807.719 211.928 807.98 212.586 807.98 213.426V213.594C807.98 214.182 807.849 214.663 807.588 215.036C807.327 215.4 806.958 215.666 806.482 215.834C806.015 216.002 805.465 216.086 804.83 216.086H802.394ZM810.12 223.884V222.946H811.072C811.399 222.946 811.679 222.904 811.912 222.82C812.145 222.745 812.341 222.61 812.5 222.414C812.659 222.218 812.794 221.947 812.906 221.602L815.398 213.594H816.42L813.816 221.896C813.667 222.372 813.461 222.755 813.2 223.044C812.939 223.343 812.626 223.557 812.262 223.688C811.898 223.819 811.483 223.884 811.016 223.884H810.12ZM812.528 220.818V219.936H813.858V220.818H812.528ZM812.402 220.818L809.714 213.594H810.792L813.382 220.818H812.402ZM825.038 221.238C824.179 221.238 823.456 221.103 822.868 220.832C822.28 220.552 821.832 220.169 821.524 219.684C821.225 219.189 821.076 218.634 821.076 218.018H822.14C822.14 218.41 822.233 218.779 822.42 219.124C822.616 219.46 822.924 219.735 823.344 219.95C823.773 220.155 824.338 220.258 825.038 220.258C825.682 220.258 826.214 220.165 826.634 219.978C827.063 219.791 827.381 219.539 827.586 219.222C827.801 218.905 827.908 218.55 827.908 218.158C827.908 217.663 827.712 217.253 827.32 216.926C826.937 216.59 826.359 216.389 825.584 216.324L824.408 216.212C823.531 216.137 822.831 215.867 822.308 215.4C821.795 214.924 821.538 214.299 821.538 213.524C821.538 212.936 821.678 212.418 821.958 211.97C822.238 211.522 822.635 211.167 823.148 210.906C823.671 210.645 824.296 210.514 825.024 210.514C825.761 210.514 826.391 210.649 826.914 210.92C827.446 211.181 827.852 211.545 828.132 212.012C828.412 212.479 828.552 213.02 828.552 213.636H827.488C827.488 213.263 827.404 212.913 827.236 212.586C827.068 212.259 826.802 211.998 826.438 211.802C826.074 211.597 825.603 211.494 825.024 211.494C824.473 211.494 824.016 211.587 823.652 211.774C823.297 211.961 823.031 212.208 822.854 212.516C822.686 212.824 822.602 213.16 822.602 213.524C822.602 213.981 822.765 214.369 823.092 214.686C823.419 215.003 823.89 215.185 824.506 215.232L825.682 215.344C826.373 215.4 826.961 215.554 827.446 215.806C827.941 216.049 828.319 216.371 828.58 216.772C828.841 217.164 828.972 217.626 828.972 218.158C828.972 218.755 828.809 219.287 828.482 219.754C828.165 220.221 827.712 220.585 827.124 220.846C826.536 221.107 825.841 221.238 825.038 221.238ZM835.794 221V218.774H835.626V216.142C835.626 215.591 835.481 215.171 835.192 214.882C834.902 214.583 834.454 214.434 833.848 214.434C833.568 214.434 833.283 214.439 832.994 214.448C832.714 214.457 832.443 214.471 832.182 214.49C831.93 214.499 831.706 214.513 831.51 214.532V213.608C831.715 213.589 831.925 213.571 832.14 213.552C832.354 213.533 832.574 213.524 832.798 213.524C833.031 213.515 833.255 213.51 833.47 213.51C834.226 213.51 834.832 213.603 835.29 213.79C835.756 213.977 836.097 214.271 836.312 214.672C836.526 215.064 836.634 215.587 836.634 216.24V221H835.794ZM833.288 221.196C832.765 221.196 832.303 221.103 831.902 220.916C831.5 220.729 831.188 220.459 830.964 220.104C830.749 219.749 830.642 219.32 830.642 218.816C830.642 218.321 830.754 217.901 830.978 217.556C831.211 217.211 831.542 216.949 831.972 216.772C832.41 216.585 832.938 216.492 833.554 216.492H835.724V217.29H833.484C832.896 217.29 832.443 217.435 832.126 217.724C831.818 218.004 831.664 218.373 831.664 218.83C831.664 219.297 831.827 219.67 832.154 219.95C832.48 220.221 832.924 220.356 833.484 220.356C833.829 220.356 834.16 220.295 834.478 220.174C834.795 220.043 835.061 219.829 835.276 219.53C835.49 219.222 835.607 218.802 835.626 218.27L835.934 218.704C835.896 219.255 835.766 219.717 835.542 220.09C835.318 220.454 835.014 220.729 834.632 220.916C834.249 221.103 833.801 221.196 833.288 221.196ZM842.294 221.238C841.753 221.238 841.258 221.14 840.81 220.944C840.372 220.739 839.989 220.459 839.662 220.104C839.345 219.74 839.098 219.329 838.92 218.872C838.752 218.405 838.668 217.911 838.668 217.388V217.192C838.668 216.688 838.752 216.207 838.92 215.75C839.088 215.283 839.326 214.873 839.634 214.518C839.952 214.154 840.33 213.869 840.768 213.664C841.216 213.449 841.716 213.342 842.266 213.342C842.892 213.342 843.442 213.477 843.918 213.748C844.394 214.019 844.777 214.411 845.066 214.924C845.356 215.428 845.51 216.049 845.528 216.786L845.066 215.918V210.78H846.116V221H845.276V217.71H845.612C845.594 218.485 845.43 219.138 845.122 219.67C844.824 220.193 844.427 220.585 843.932 220.846C843.447 221.107 842.901 221.238 842.294 221.238ZM842.434 220.314C842.938 220.314 843.391 220.202 843.792 219.978C844.203 219.754 844.525 219.437 844.758 219.026C844.992 218.606 845.108 218.125 845.108 217.584V216.912C845.108 216.389 844.992 215.932 844.758 215.54C844.525 215.139 844.203 214.826 843.792 214.602C843.391 214.378 842.934 214.266 842.42 214.266C841.87 214.266 841.389 214.401 840.978 214.672C840.577 214.933 840.264 215.293 840.04 215.75C839.826 216.207 839.718 216.721 839.718 217.29C839.718 217.878 839.83 218.401 840.054 218.858C840.278 219.315 840.596 219.675 841.006 219.936C841.417 220.188 841.893 220.314 842.434 220.314ZM849.219 221V213.594H850.255V221H849.219ZM848.029 214.434V213.594H850.255V214.434H848.029ZM849.443 212.222C849.191 212.222 848.999 212.157 848.869 212.026C848.747 211.886 848.687 211.713 848.687 211.508C848.687 211.303 848.747 211.135 848.869 211.004C848.999 210.864 849.191 210.794 849.443 210.794C849.695 210.794 849.881 210.864 850.003 211.004C850.124 211.135 850.185 211.303 850.185 211.508C850.185 211.713 850.124 211.886 850.003 212.026C849.881 212.157 849.695 212.222 849.443 212.222ZM856.048 221.238C855.507 221.238 855.012 221.14 854.564 220.944C854.126 220.739 853.743 220.459 853.416 220.104C853.099 219.74 852.852 219.329 852.674 218.872C852.506 218.405 852.422 217.911 852.422 217.388V217.192C852.422 216.688 852.506 216.207 852.674 215.75C852.842 215.283 853.08 214.873 853.388 214.518C853.706 214.154 854.084 213.869 854.522 213.664C854.97 213.449 855.47 213.342 856.02 213.342C856.646 213.342 857.196 213.477 857.672 213.748C858.148 214.019 858.531 214.411 858.82 214.924C859.11 215.428 859.264 216.049 859.282 216.786L858.82 215.918V210.78H859.87V221H859.03V217.71H859.366C859.348 218.485 859.184 219.138 858.876 219.67C858.578 220.193 858.181 220.585 857.686 220.846C857.201 221.107 856.655 221.238 856.048 221.238ZM856.188 220.314C856.692 220.314 857.145 220.202 857.546 219.978C857.957 219.754 858.279 219.437 858.512 219.026C858.746 218.606 858.862 218.125 858.862 217.584V216.912C858.862 216.389 858.746 215.932 858.512 215.54C858.279 215.139 857.957 214.826 857.546 214.602C857.145 214.378 856.688 214.266 856.174 214.266C855.624 214.266 855.143 214.401 854.732 214.672C854.331 214.933 854.018 215.293 853.794 215.75C853.58 216.207 853.472 216.721 853.472 217.29C853.472 217.878 853.584 218.401 853.808 218.858C854.032 219.315 854.35 219.675 854.76 219.936C855.171 220.188 855.647 220.314 856.188 220.314ZM870.152 221.042V220.104H873.148C873.754 220.104 874.226 219.931 874.562 219.586C874.907 219.231 875.08 218.765 875.08 218.186C875.08 217.617 874.912 217.159 874.576 216.814C874.24 216.459 873.764 216.282 873.148 216.282H870.152V215.582H872.994C873.61 215.582 874.156 215.671 874.632 215.848C875.108 216.016 875.481 216.287 875.752 216.66C876.022 217.033 876.158 217.523 876.158 218.13V218.298C876.158 218.849 876.041 219.334 875.808 219.754C875.574 220.165 875.224 220.482 874.758 220.706C874.291 220.93 873.703 221.042 872.994 221.042H870.152ZM869.354 221.042V210.738H870.418V221.042H869.354ZM870.152 216.086V215.386H872.77C873.414 215.386 873.89 215.213 874.198 214.868C874.506 214.513 874.66 214.07 874.66 213.538C874.66 212.987 874.506 212.539 874.198 212.194C873.89 211.849 873.414 211.676 872.77 211.676H870.152V210.738H872.588C873.642 210.738 874.431 210.976 874.954 211.452C875.476 211.928 875.738 212.586 875.738 213.426V213.594C875.738 214.182 875.607 214.663 875.346 215.036C875.084 215.4 874.716 215.666 874.24 215.834C873.773 216.002 873.222 216.086 872.588 216.086H870.152ZM878.928 221V213.594H879.964V221H878.928ZM877.738 214.434V213.594H879.964V214.434H877.738ZM879.152 212.222C878.9 212.222 878.708 212.157 878.578 212.026C878.456 211.886 878.396 211.713 878.396 211.508C878.396 211.303 878.456 211.135 878.578 211.004C878.708 210.864 878.9 210.794 879.152 210.794C879.404 210.794 879.59 210.864 879.712 211.004C879.833 211.135 879.894 211.303 879.894 211.508C879.894 211.713 879.833 211.886 879.712 212.026C879.59 212.157 879.404 212.222 879.152 212.222ZM882.719 221V213.594H883.559V216.702H883.391C883.391 216.011 883.494 215.419 883.699 214.924C883.905 214.429 884.213 214.047 884.623 213.776C885.034 213.505 885.552 213.37 886.177 213.37H886.219C887.153 213.37 887.848 213.664 888.305 214.252C888.763 214.831 888.991 215.647 888.991 216.702V221H887.955V216.478C887.955 215.834 887.778 215.316 887.423 214.924C887.069 214.532 886.574 214.336 885.939 214.336C885.286 214.336 884.759 214.541 884.357 214.952C883.965 215.353 883.769 215.885 883.769 216.548V221H882.719ZM902.14 221V210.78H903.204V221H902.14ZM895.112 221V210.78H896.176V221H895.112ZM895.938 216.408V215.456H902.378V216.408H895.938ZM910.661 221V218.774H910.493V216.142C910.493 215.591 910.348 215.171 910.059 214.882C909.77 214.583 909.322 214.434 908.715 214.434C908.435 214.434 908.15 214.439 907.861 214.448C907.581 214.457 907.31 214.471 907.049 214.49C906.797 214.499 906.573 214.513 906.377 214.532V213.608C906.582 213.589 906.792 213.571 907.007 213.552C907.222 213.533 907.441 213.524 907.665 213.524C907.898 213.515 908.122 213.51 908.337 213.51C909.093 213.51 909.7 213.603 910.157 213.79C910.624 213.977 910.964 214.271 911.179 214.672C911.394 215.064 911.501 215.587 911.501 216.24V221H910.661ZM908.155 221.196C907.632 221.196 907.17 221.103 906.769 220.916C906.368 220.729 906.055 220.459 905.831 220.104C905.616 219.749 905.509 219.32 905.509 218.816C905.509 218.321 905.621 217.901 905.845 217.556C906.078 217.211 906.41 216.949 906.839 216.772C907.278 216.585 907.805 216.492 908.421 216.492H910.591V217.29H908.351C907.763 217.29 907.31 217.435 906.993 217.724C906.685 218.004 906.531 218.373 906.531 218.83C906.531 219.297 906.694 219.67 907.021 219.95C907.348 220.221 907.791 220.356 908.351 220.356C908.696 220.356 909.028 220.295 909.345 220.174C909.662 220.043 909.928 219.829 910.143 219.53C910.358 219.222 910.474 218.802 910.493 218.27L910.801 218.704C910.764 219.255 910.633 219.717 910.409 220.09C910.185 220.454 909.882 220.729 909.499 220.916C909.116 221.103 908.668 221.196 908.155 221.196ZM916.462 221.21C915.51 221.21 914.777 221.005 914.264 220.594C913.75 220.174 913.489 219.614 913.48 218.914H914.46C914.478 219.269 914.637 219.591 914.936 219.88C915.244 220.169 915.752 220.314 916.462 220.314C917.124 220.314 917.619 220.179 917.946 219.908C918.282 219.628 918.45 219.292 918.45 218.9C918.45 218.536 918.31 218.256 918.03 218.06C917.759 217.855 917.362 217.724 916.84 217.668L916 217.584C915.328 217.509 914.782 217.304 914.362 216.968C913.951 216.623 913.746 216.151 913.746 215.554C913.746 215.115 913.858 214.733 914.082 214.406C914.306 214.079 914.618 213.827 915.02 213.65C915.43 213.463 915.911 213.37 916.462 213.37C917.255 213.37 917.899 213.557 918.394 213.93C918.898 214.303 919.154 214.835 919.164 215.526H918.184C918.174 215.171 918.025 214.873 917.736 214.63C917.446 214.387 917.022 214.266 916.462 214.266C915.883 214.266 915.449 214.392 915.16 214.644C914.88 214.896 914.74 215.204 914.74 215.568C914.74 215.876 914.847 216.133 915.062 216.338C915.276 216.534 915.612 216.655 916.07 216.702L916.91 216.786C917.656 216.87 918.263 217.085 918.73 217.43C919.206 217.775 919.444 218.27 919.444 218.914C919.444 219.353 919.318 219.749 919.066 220.104C918.823 220.449 918.478 220.72 918.03 220.916C917.582 221.112 917.059 221.21 916.462 221.21ZM926.042 221V218.774H925.874V216.142C925.874 215.591 925.729 215.171 925.44 214.882C925.15 214.583 924.702 214.434 924.096 214.434C923.816 214.434 923.531 214.439 923.242 214.448C922.962 214.457 922.691 214.471 922.43 214.49C922.178 214.499 921.954 214.513 921.758 214.532V213.608C921.963 213.589 922.173 213.571 922.388 213.552C922.602 213.533 922.822 213.524 923.046 213.524C923.279 213.515 923.503 213.51 923.718 213.51C924.474 213.51 925.08 213.603 925.538 213.79C926.004 213.977 926.345 214.271 926.56 214.672C926.774 215.064 926.882 215.587 926.882 216.24V221H926.042ZM923.536 221.196C923.013 221.196 922.551 221.103 922.15 220.916C921.748 220.729 921.436 220.459 921.212 220.104C920.997 219.749 920.89 219.32 920.89 218.816C920.89 218.321 921.002 217.901 921.226 217.556C921.459 217.211 921.79 216.949 922.22 216.772C922.658 216.585 923.186 216.492 923.802 216.492H925.972V217.29H923.732C923.144 217.29 922.691 217.435 922.374 217.724C922.066 218.004 921.912 218.373 921.912 218.83C921.912 219.297 922.075 219.67 922.402 219.95C922.728 220.221 923.172 220.356 923.732 220.356C924.077 220.356 924.408 220.295 924.726 220.174C925.043 220.043 925.309 219.829 925.524 219.53C925.738 219.222 925.855 218.802 925.874 218.27L926.182 218.704C926.144 219.255 926.014 219.717 925.79 220.09C925.566 220.454 925.262 220.729 924.88 220.916C924.497 221.103 924.049 221.196 923.536 221.196ZM929.504 221V213.594H930.344V216.702H930.176C930.176 216.011 930.279 215.419 930.484 214.924C930.69 214.429 930.998 214.047 931.408 213.776C931.819 213.505 932.337 213.37 932.962 213.37H933.004C933.938 213.37 934.633 213.664 935.09 214.252C935.548 214.831 935.776 215.647 935.776 216.702V221H934.74V216.478C934.74 215.834 934.563 215.316 934.208 214.924C933.854 214.532 933.359 214.336 932.724 214.336C932.071 214.336 931.544 214.541 931.142 214.952C930.75 215.353 930.554 215.885 930.554 216.548V221H929.504Z" fill="#717171"/>
</g>
<g filter="url(#filter8_ddddii_648_200)">
<rect x="970" y="197" width="181" height="38" rx="15" fill="url(#paint5_linear_648_200)"/>
<path d="M986.596 221V210.78H987.66V221H986.596ZM987.408 221V220.034H992.518V221H987.408ZM987.408 216.282V215.33H992.042V216.282H987.408ZM987.408 211.746V210.78H992.364V211.746H987.408ZM994.253 217.556V216.66H999.167V217.556H994.253ZM1006.07 221.238C1005.16 221.238 1004.37 221.079 1003.72 220.762C1003.08 220.435 1002.55 220.011 1002.14 219.488C1001.74 218.965 1001.44 218.401 1001.26 217.794C1001.07 217.178 1000.98 216.581 1000.98 216.002V215.736C1000.98 215.111 1001.07 214.49 1001.26 213.874C1001.45 213.249 1001.75 212.684 1002.15 212.18C1002.56 211.676 1003.08 211.275 1003.72 210.976C1004.35 210.668 1005.11 210.514 1005.97 210.514C1006.85 210.514 1007.61 210.668 1008.24 210.976C1008.89 211.284 1009.4 211.718 1009.78 212.278C1010.16 212.829 1010.4 213.482 1010.48 214.238H1009.4C1009.33 213.631 1009.13 213.127 1008.82 212.726C1008.5 212.315 1008.09 212.007 1007.6 211.802C1007.11 211.597 1006.57 211.494 1005.97 211.494C1005.33 211.494 1004.76 211.611 1004.27 211.844C1003.78 212.068 1003.37 212.385 1003.05 212.796C1002.72 213.197 1002.47 213.664 1002.31 214.196C1002.14 214.719 1002.05 215.279 1002.05 215.876C1002.05 216.445 1002.13 216.991 1002.29 217.514C1002.46 218.037 1002.71 218.508 1003.05 218.928C1003.38 219.339 1003.8 219.665 1004.31 219.908C1004.81 220.141 1005.4 220.258 1006.07 220.258C1007 220.258 1007.79 220.025 1008.42 219.558C1009.06 219.082 1009.45 218.401 1009.6 217.514H1010.68C1010.57 218.214 1010.33 218.849 1009.95 219.418C1009.57 219.978 1009.05 220.421 1008.4 220.748C1007.75 221.075 1006.98 221.238 1006.07 221.238ZM1015.91 221.238C1015.28 221.238 1014.72 221.131 1014.23 220.916C1013.76 220.692 1013.35 220.398 1013.01 220.034C1012.69 219.661 1012.44 219.245 1012.26 218.788C1012.09 218.331 1012.01 217.864 1012.01 217.388V217.192C1012.01 216.716 1012.09 216.249 1012.27 215.792C1012.45 215.325 1012.71 214.91 1013.04 214.546C1013.38 214.182 1013.78 213.893 1014.26 213.678C1014.75 213.454 1015.3 213.342 1015.91 213.342C1016.54 213.342 1017.09 213.454 1017.56 213.678C1018.05 213.893 1018.46 214.182 1018.8 214.546C1019.13 214.91 1019.38 215.325 1019.55 215.792C1019.73 216.249 1019.82 216.716 1019.82 217.192V217.388C1019.82 217.864 1019.73 218.331 1019.57 218.788C1019.4 219.245 1019.15 219.661 1018.81 220.034C1018.48 220.398 1018.08 220.692 1017.59 220.916C1017.11 221.131 1016.55 221.238 1015.91 221.238ZM1015.91 220.3C1016.53 220.3 1017.05 220.165 1017.47 219.894C1017.9 219.614 1018.22 219.25 1018.45 218.802C1018.67 218.345 1018.78 217.841 1018.78 217.29C1018.78 216.73 1018.67 216.226 1018.43 215.778C1018.21 215.321 1017.88 214.961 1017.45 214.7C1017.02 214.429 1016.51 214.294 1015.91 214.294C1015.32 214.294 1014.82 214.429 1014.39 214.7C1013.96 214.961 1013.63 215.321 1013.39 215.778C1013.17 216.226 1013.06 216.73 1013.06 217.29C1013.06 217.841 1013.17 218.345 1013.39 218.802C1013.62 219.25 1013.94 219.614 1014.36 219.894C1014.79 220.165 1015.31 220.3 1015.91 220.3ZM1021.96 221V213.58H1022.8V216.702H1022.63C1022.63 216.021 1022.72 215.433 1022.91 214.938C1023.11 214.443 1023.4 214.061 1023.78 213.79C1024.16 213.51 1024.65 213.37 1025.24 213.37H1025.28C1025.87 213.37 1026.35 213.505 1026.73 213.776C1027.12 214.047 1027.4 214.429 1027.59 214.924C1027.77 215.419 1027.87 216.011 1027.87 216.702H1027.53C1027.53 216.021 1027.62 215.433 1027.81 214.938C1028.01 214.443 1028.3 214.061 1028.68 213.79C1029.07 213.51 1029.56 213.37 1030.15 213.37H1030.19C1030.78 213.37 1031.26 213.505 1031.65 213.776C1032.04 214.047 1032.33 214.429 1032.52 214.924C1032.71 215.419 1032.81 216.011 1032.81 216.702V221H1031.76V216.464C1031.76 215.811 1031.6 215.293 1031.28 214.91C1030.97 214.527 1030.51 214.336 1029.91 214.336C1029.3 214.336 1028.81 214.537 1028.44 214.938C1028.09 215.33 1027.91 215.862 1027.91 216.534V221H1026.86V216.464C1026.86 215.811 1026.7 215.293 1026.38 214.91C1026.07 214.527 1025.61 214.336 1025.01 214.336C1024.4 214.336 1023.91 214.537 1023.54 214.938C1023.19 215.33 1023.01 215.862 1023.01 216.534V221H1021.96ZM1035.43 221V213.58H1036.27V216.702H1036.1C1036.1 216.021 1036.19 215.433 1036.38 214.938C1036.57 214.443 1036.86 214.061 1037.25 213.79C1037.63 213.51 1038.11 213.37 1038.7 213.37H1038.74C1039.33 213.37 1039.82 213.505 1040.2 213.776C1040.58 214.047 1040.87 214.429 1041.05 214.924C1041.24 215.419 1041.33 216.011 1041.33 216.702H1041C1041 216.021 1041.09 215.433 1041.28 214.938C1041.47 214.443 1041.76 214.061 1042.15 213.79C1042.54 213.51 1043.03 213.37 1043.62 213.37H1043.66C1044.25 213.37 1044.73 213.505 1045.11 213.776C1045.51 214.047 1045.8 214.429 1045.98 214.924C1046.18 215.419 1046.28 216.011 1046.28 216.702V221H1045.23V216.464C1045.23 215.811 1045.07 215.293 1044.75 214.91C1044.43 214.527 1043.98 214.336 1043.38 214.336C1042.76 214.336 1042.27 214.537 1041.91 214.938C1041.55 215.33 1041.38 215.862 1041.38 216.534V221H1040.33V216.464C1040.33 215.811 1040.17 215.293 1039.85 214.91C1039.53 214.527 1039.08 214.336 1038.48 214.336C1037.86 214.336 1037.37 214.537 1037.01 214.938C1036.65 215.33 1036.48 215.862 1036.48 216.534V221H1035.43ZM1051.99 221.238C1051.35 221.238 1050.8 221.131 1050.34 220.916C1049.87 220.692 1049.49 220.398 1049.19 220.034C1048.89 219.661 1048.66 219.245 1048.52 218.788C1048.38 218.331 1048.31 217.859 1048.31 217.374V217.178C1048.31 216.702 1048.38 216.235 1048.52 215.778C1048.66 215.321 1048.89 214.91 1049.19 214.546C1049.49 214.182 1049.86 213.893 1050.31 213.678C1050.76 213.454 1051.3 213.342 1051.9 213.342C1052.68 213.342 1053.32 213.515 1053.84 213.86C1054.36 214.205 1054.75 214.649 1055.01 215.19C1055.27 215.722 1055.4 216.296 1055.4 216.912V217.458H1048.78V216.646H1054.68L1054.41 217.052C1054.41 216.501 1054.31 216.021 1054.12 215.61C1053.93 215.19 1053.65 214.863 1053.28 214.63C1052.91 214.387 1052.45 214.266 1051.9 214.266C1051.32 214.266 1050.84 214.401 1050.46 214.672C1050.08 214.943 1049.79 215.302 1049.59 215.75C1049.41 216.198 1049.31 216.707 1049.31 217.276C1049.31 217.836 1049.41 218.349 1049.59 218.816C1049.79 219.273 1050.08 219.637 1050.48 219.908C1050.88 220.179 1051.38 220.314 1051.99 220.314C1052.63 220.314 1053.15 220.169 1053.56 219.88C1053.96 219.581 1054.2 219.231 1054.3 218.83H1055.28C1055.18 219.325 1054.99 219.754 1054.69 220.118C1054.39 220.473 1054.01 220.748 1053.56 220.944C1053.1 221.14 1052.58 221.238 1051.99 221.238ZM1057.42 221V213.594H1058.26V216.688H1058.18C1058.18 215.605 1058.42 214.807 1058.89 214.294C1059.37 213.771 1060.12 213.51 1061.13 213.51H1061.37V214.462H1060.94C1060.14 214.462 1059.52 214.672 1059.1 215.092C1058.68 215.503 1058.47 216.109 1058.47 216.912V221H1057.42ZM1066.1 221.238C1065.47 221.238 1064.93 221.131 1064.46 220.916C1064 220.692 1063.62 220.393 1063.31 220.02C1063 219.637 1062.77 219.217 1062.61 218.76C1062.46 218.303 1062.39 217.841 1062.39 217.374V217.178C1062.39 216.702 1062.46 216.24 1062.61 215.792C1062.77 215.335 1063 214.924 1063.31 214.56C1063.62 214.187 1064 213.893 1064.46 213.678C1064.93 213.454 1065.46 213.342 1066.07 213.342C1066.69 213.342 1067.23 213.454 1067.71 213.678C1068.19 213.902 1068.58 214.219 1068.88 214.63C1069.18 215.041 1069.36 215.526 1069.42 216.086H1068.41C1068.32 215.573 1068.08 215.148 1067.68 214.812C1067.29 214.467 1066.75 214.294 1066.07 214.294C1065.48 214.294 1064.99 214.429 1064.6 214.7C1064.22 214.961 1063.93 215.321 1063.73 215.778C1063.54 216.226 1063.44 216.725 1063.44 217.276C1063.44 217.817 1063.54 218.321 1063.73 218.788C1063.93 219.245 1064.22 219.614 1064.61 219.894C1065.01 220.165 1065.5 220.3 1066.1 220.3C1066.55 220.3 1066.95 220.221 1067.29 220.062C1067.63 219.894 1067.91 219.67 1068.11 219.39C1068.33 219.11 1068.45 218.802 1068.49 218.466H1069.5C1069.46 219.026 1069.28 219.516 1068.97 219.936C1068.66 220.347 1068.26 220.669 1067.76 220.902C1067.27 221.126 1066.71 221.238 1066.1 221.238ZM1074.52 221.238C1073.88 221.238 1073.33 221.131 1072.87 220.916C1072.4 220.692 1072.02 220.398 1071.72 220.034C1071.42 219.661 1071.2 219.245 1071.05 218.788C1070.91 218.331 1070.84 217.859 1070.84 217.374V217.178C1070.84 216.702 1070.91 216.235 1071.05 215.778C1071.2 215.321 1071.42 214.91 1071.72 214.546C1072.02 214.182 1072.39 213.893 1072.84 213.678C1073.3 213.454 1073.83 213.342 1074.43 213.342C1075.21 213.342 1075.85 213.515 1076.37 213.86C1076.89 214.205 1077.28 214.649 1077.54 215.19C1077.8 215.722 1077.93 216.296 1077.93 216.912V217.458H1071.31V216.646H1077.21L1076.94 217.052C1076.94 216.501 1076.84 216.021 1076.65 215.61C1076.46 215.19 1076.18 214.863 1075.81 214.63C1075.44 214.387 1074.99 214.266 1074.43 214.266C1073.86 214.266 1073.38 214.401 1072.99 214.672C1072.61 214.943 1072.32 215.302 1072.12 215.75C1071.94 216.198 1071.84 216.707 1071.84 217.276C1071.84 217.836 1071.94 218.349 1072.12 218.816C1072.32 219.273 1072.61 219.637 1073.01 219.908C1073.41 220.179 1073.91 220.314 1074.52 220.314C1075.16 220.314 1075.69 220.169 1076.09 219.88C1076.49 219.581 1076.74 219.231 1076.83 218.83H1077.81C1077.72 219.325 1077.52 219.754 1077.22 220.118C1076.92 220.473 1076.54 220.748 1076.09 220.944C1075.63 221.14 1075.11 221.238 1074.52 221.238ZM1083.46 221V210.738H1084.53V221H1083.46ZM1089.8 221L1086.32 216.478H1087.56L1091.11 221H1089.8ZM1084.09 217.122V216.17H1086.84C1087.34 216.17 1087.76 216.072 1088.1 215.876C1088.43 215.68 1088.68 215.414 1088.85 215.078C1089.02 214.742 1089.1 214.359 1089.1 213.93C1089.1 213.501 1089.02 213.118 1088.85 212.782C1088.68 212.446 1088.43 212.18 1088.1 211.984C1087.76 211.779 1087.34 211.676 1086.84 211.676H1084.09V210.738H1086.65C1087.41 210.738 1088.05 210.859 1088.57 211.102C1089.1 211.335 1089.5 211.685 1089.78 212.152C1090.06 212.609 1090.2 213.169 1090.2 213.832V214.028C1090.2 214.691 1090.06 215.255 1089.78 215.722C1089.5 216.179 1089.09 216.529 1088.57 216.772C1088.05 217.005 1087.41 217.122 1086.65 217.122H1084.09ZM1095.79 221.238C1095.16 221.238 1094.61 221.131 1094.14 220.916C1093.67 220.692 1093.29 220.398 1092.99 220.034C1092.69 219.661 1092.47 219.245 1092.32 218.788C1092.18 218.331 1092.11 217.859 1092.11 217.374V217.178C1092.11 216.702 1092.18 216.235 1092.32 215.778C1092.47 215.321 1092.69 214.91 1092.99 214.546C1093.29 214.182 1093.66 213.893 1094.11 213.678C1094.57 213.454 1095.1 213.342 1095.71 213.342C1096.48 213.342 1097.13 213.515 1097.64 213.86C1098.16 214.205 1098.55 214.649 1098.82 215.19C1099.08 215.722 1099.21 216.296 1099.21 216.912V217.458H1092.59V216.646H1098.48L1098.21 217.052C1098.21 216.501 1098.12 216.021 1097.92 215.61C1097.73 215.19 1097.45 214.863 1097.08 214.63C1096.72 214.387 1096.26 214.266 1095.71 214.266C1095.13 214.266 1094.65 214.401 1094.27 214.672C1093.88 214.943 1093.59 215.302 1093.4 215.75C1093.21 216.198 1093.12 216.707 1093.12 217.276C1093.12 217.836 1093.21 218.349 1093.4 218.816C1093.59 219.273 1093.89 219.637 1094.28 219.908C1094.68 220.179 1095.19 220.314 1095.79 220.314C1096.44 220.314 1096.96 220.169 1097.36 219.88C1097.76 219.581 1098.01 219.231 1098.1 218.83H1099.08C1098.99 219.325 1098.79 219.754 1098.49 220.118C1098.2 220.473 1097.82 220.748 1097.36 220.944C1096.9 221.14 1096.38 221.238 1095.79 221.238ZM1101.3 221V210.78H1102.35V221H1101.3ZM1100.22 211.634V210.78H1102.35V211.634H1100.22ZM1109.58 221V218.774H1109.41V216.142C1109.41 215.591 1109.27 215.171 1108.98 214.882C1108.69 214.583 1108.24 214.434 1107.63 214.434C1107.35 214.434 1107.07 214.439 1106.78 214.448C1106.5 214.457 1106.23 214.471 1105.97 214.49C1105.71 214.499 1105.49 214.513 1105.29 214.532V213.608C1105.5 213.589 1105.71 213.571 1105.92 213.552C1106.14 213.533 1106.36 213.524 1106.58 213.524C1106.82 213.515 1107.04 213.51 1107.25 213.51C1108.01 213.51 1108.62 213.603 1109.07 213.79C1109.54 213.977 1109.88 214.271 1110.1 214.672C1110.31 215.064 1110.42 215.587 1110.42 216.24V221H1109.58ZM1107.07 221.196C1106.55 221.196 1106.09 221.103 1105.69 220.916C1105.29 220.729 1104.97 220.459 1104.75 220.104C1104.53 219.749 1104.43 219.32 1104.43 218.816C1104.43 218.321 1104.54 217.901 1104.76 217.556C1105 217.211 1105.33 216.949 1105.76 216.772C1106.2 216.585 1106.72 216.492 1107.34 216.492H1109.51V217.29H1107.27C1106.68 217.29 1106.23 217.435 1105.91 217.724C1105.6 218.004 1105.45 218.373 1105.45 218.83C1105.45 219.297 1105.61 219.67 1105.94 219.95C1106.27 220.221 1106.71 220.356 1107.27 220.356C1107.61 220.356 1107.95 220.295 1108.26 220.174C1108.58 220.043 1108.85 219.829 1109.06 219.53C1109.28 219.222 1109.39 218.802 1109.41 218.27L1109.72 218.704C1109.68 219.255 1109.55 219.717 1109.33 220.09C1109.1 220.454 1108.8 220.729 1108.42 220.916C1108.03 221.103 1107.59 221.196 1107.07 221.196ZM1115.73 221.084C1115.22 221.084 1114.77 221.009 1114.4 220.86C1114.03 220.711 1113.74 220.459 1113.53 220.104C1113.33 219.74 1113.22 219.255 1113.22 218.648V211.256H1114.23V218.802C1114.23 219.231 1114.35 219.563 1114.58 219.796C1114.81 220.02 1115.15 220.132 1115.58 220.132H1116.91V221.084H1115.73ZM1111.89 214.392V213.594H1116.91V214.392H1111.89ZM1121.96 221.238C1121.33 221.238 1120.77 221.131 1120.31 220.916C1119.84 220.692 1119.46 220.398 1119.16 220.034C1118.86 219.661 1118.64 219.245 1118.49 218.788C1118.35 218.331 1118.28 217.859 1118.28 217.374V217.178C1118.28 216.702 1118.35 216.235 1118.49 215.778C1118.64 215.321 1118.86 214.91 1119.16 214.546C1119.46 214.182 1119.83 213.893 1120.28 213.678C1120.74 213.454 1121.27 213.342 1121.88 213.342C1122.65 213.342 1123.29 213.515 1123.81 213.86C1124.33 214.205 1124.72 214.649 1124.98 215.19C1125.25 215.722 1125.38 216.296 1125.38 216.912V217.458H1118.75V216.646H1124.65L1124.38 217.052C1124.38 216.501 1124.28 216.021 1124.09 215.61C1123.9 215.19 1123.62 214.863 1123.25 214.63C1122.88 214.387 1122.43 214.266 1121.88 214.266C1121.3 214.266 1120.82 214.401 1120.43 214.672C1120.05 214.943 1119.76 215.302 1119.57 215.75C1119.38 216.198 1119.29 216.707 1119.29 217.276C1119.29 217.836 1119.38 218.349 1119.57 218.816C1119.76 219.273 1120.06 219.637 1120.45 219.908C1120.85 220.179 1121.35 220.314 1121.96 220.314C1122.6 220.314 1123.13 220.169 1123.53 219.88C1123.93 219.581 1124.18 219.231 1124.27 218.83H1125.25C1125.16 219.325 1124.96 219.754 1124.66 220.118C1124.36 220.473 1123.99 220.748 1123.53 220.944C1123.07 221.14 1122.55 221.238 1121.96 221.238ZM1130.44 221.238C1129.89 221.238 1129.4 221.14 1128.95 220.944C1128.51 220.739 1128.13 220.459 1127.8 220.104C1127.49 219.74 1127.24 219.329 1127.06 218.872C1126.89 218.405 1126.81 217.911 1126.81 217.388V217.192C1126.81 216.688 1126.89 216.207 1127.06 215.75C1127.23 215.283 1127.47 214.873 1127.78 214.518C1128.09 214.154 1128.47 213.869 1128.91 213.664C1129.36 213.449 1129.86 213.342 1130.41 213.342C1131.03 213.342 1131.58 213.477 1132.06 213.748C1132.54 214.019 1132.92 214.411 1133.21 214.924C1133.5 215.428 1133.65 216.049 1133.67 216.786L1133.21 215.918V210.78H1134.26V221H1133.42V217.71H1133.75C1133.73 218.485 1133.57 219.138 1133.26 219.67C1132.96 220.193 1132.57 220.585 1132.07 220.846C1131.59 221.107 1131.04 221.238 1130.44 221.238ZM1130.58 220.314C1131.08 220.314 1131.53 220.202 1131.93 219.978C1132.34 219.754 1132.67 219.437 1132.9 219.026C1133.13 218.606 1133.25 218.125 1133.25 217.584V216.912C1133.25 216.389 1133.13 215.932 1132.9 215.54C1132.67 215.139 1132.34 214.826 1131.93 214.602C1131.53 214.378 1131.07 214.266 1130.56 214.266C1130.01 214.266 1129.53 214.401 1129.12 214.672C1128.72 214.933 1128.41 215.293 1128.18 215.75C1127.97 216.207 1127.86 216.721 1127.86 217.29C1127.86 217.878 1127.97 218.401 1128.2 218.858C1128.42 219.315 1128.74 219.675 1129.15 219.936C1129.56 220.188 1130.03 220.314 1130.58 220.314Z" fill="#717171"/>
</g>
<g filter="url(#filter9_ddddii_648_200)">
<rect x="1168" y="197" width="124" height="38" rx="15" fill="url(#paint6_linear_648_200)"/>
<path d="M1184.6 221V210.78H1185.66V221H1184.6ZM1185.38 216.282V215.316L1189.9 215.302V216.268L1185.38 216.282ZM1185.38 211.732V210.78H1190.17V211.732H1185.38ZM1191.79 217.556V216.66H1196.7V217.556H1191.79ZM1203.61 221.238C1202.69 221.238 1201.91 221.079 1201.25 220.762C1200.61 220.435 1200.08 220.011 1199.67 219.488C1199.27 218.965 1198.98 218.401 1198.79 217.794C1198.6 217.178 1198.51 216.581 1198.51 216.002V215.736C1198.51 215.111 1198.6 214.49 1198.79 213.874C1198.99 213.249 1199.28 212.684 1199.69 212.18C1200.1 211.676 1200.62 211.275 1201.25 210.976C1201.89 210.668 1202.64 210.514 1203.51 210.514C1204.39 210.514 1205.14 210.668 1205.78 210.976C1206.42 211.284 1206.93 211.718 1207.32 212.278C1207.7 212.829 1207.93 213.482 1208.02 214.238H1206.94C1206.86 213.631 1206.67 213.127 1206.35 212.726C1206.03 212.315 1205.63 212.007 1205.13 211.802C1204.65 211.597 1204.11 211.494 1203.51 211.494C1202.86 211.494 1202.29 211.611 1201.8 211.844C1201.31 212.068 1200.91 212.385 1200.58 212.796C1200.26 213.197 1200.01 213.664 1199.84 214.196C1199.67 214.719 1199.59 215.279 1199.59 215.876C1199.59 216.445 1199.67 216.991 1199.83 217.514C1199.99 218.037 1200.25 218.508 1200.58 218.928C1200.92 219.339 1201.34 219.665 1201.84 219.908C1202.35 220.141 1202.93 220.258 1203.61 220.258C1204.54 220.258 1205.32 220.025 1205.96 219.558C1206.59 219.082 1206.98 218.401 1207.13 217.514H1208.21C1208.11 218.214 1207.87 218.849 1207.48 219.418C1207.1 219.978 1206.58 220.421 1205.93 220.748C1205.29 221.075 1204.51 221.238 1203.61 221.238ZM1213.45 221.238C1212.81 221.238 1212.25 221.131 1211.77 220.916C1211.29 220.692 1210.89 220.398 1210.55 220.034C1210.22 219.661 1209.97 219.245 1209.79 218.788C1209.63 218.331 1209.54 217.864 1209.54 217.388V217.192C1209.54 216.716 1209.63 216.249 1209.81 215.792C1209.98 215.325 1210.24 214.91 1210.58 214.546C1210.91 214.182 1211.32 213.893 1211.8 213.678C1212.28 213.454 1212.83 213.342 1213.45 213.342C1214.07 213.342 1214.62 213.454 1215.1 213.678C1215.58 213.893 1216 214.182 1216.33 214.546C1216.67 214.91 1216.92 215.325 1217.09 215.792C1217.26 216.249 1217.35 216.716 1217.35 217.192V217.388C1217.35 217.864 1217.27 218.331 1217.1 218.788C1216.93 219.245 1216.68 219.661 1216.35 220.034C1216.02 220.398 1215.61 220.692 1215.13 220.916C1214.64 221.131 1214.08 221.238 1213.45 221.238ZM1213.45 220.3C1214.06 220.3 1214.58 220.165 1215 219.894C1215.43 219.614 1215.76 219.25 1215.98 218.802C1216.21 218.345 1216.32 217.841 1216.32 217.29C1216.32 216.73 1216.2 216.226 1215.97 215.778C1215.74 215.321 1215.42 214.961 1214.99 214.7C1214.56 214.429 1214.04 214.294 1213.45 214.294C1212.86 214.294 1212.35 214.429 1211.92 214.7C1211.49 214.961 1211.16 215.321 1210.93 215.778C1210.7 216.226 1210.59 216.73 1210.59 217.29C1210.59 217.841 1210.7 218.345 1210.93 218.802C1211.15 219.25 1211.47 219.614 1211.89 219.894C1212.32 220.165 1212.84 220.3 1213.45 220.3ZM1219.49 221V213.58H1220.33V216.702H1220.17C1220.17 216.021 1220.26 215.433 1220.45 214.938C1220.64 214.443 1220.93 214.061 1221.31 213.79C1221.7 213.51 1222.18 213.37 1222.77 213.37H1222.81C1223.4 213.37 1223.89 213.505 1224.27 213.776C1224.65 214.047 1224.94 214.429 1225.12 214.924C1225.31 215.419 1225.4 216.011 1225.4 216.702H1225.07C1225.07 216.021 1225.16 215.433 1225.35 214.938C1225.54 214.443 1225.83 214.061 1226.21 213.79C1226.61 213.51 1227.1 213.37 1227.68 213.37H1227.73C1228.31 213.37 1228.8 213.505 1229.18 213.776C1229.57 214.047 1229.86 214.429 1230.05 214.924C1230.25 215.419 1230.34 216.011 1230.34 216.702V221H1229.29V216.464C1229.29 215.811 1229.14 215.293 1228.82 214.91C1228.5 214.527 1228.04 214.336 1227.45 214.336C1226.83 214.336 1226.34 214.537 1225.98 214.938C1225.62 215.33 1225.44 215.862 1225.44 216.534V221H1224.39V216.464C1224.39 215.811 1224.24 215.293 1223.92 214.91C1223.6 214.527 1223.14 214.336 1222.55 214.336C1221.93 214.336 1221.44 214.537 1221.08 214.938C1220.72 215.33 1220.54 215.862 1220.54 216.534V221H1219.49ZM1232.96 221V213.58H1233.8V216.702H1233.63C1233.63 216.021 1233.73 215.433 1233.91 214.938C1234.11 214.443 1234.4 214.061 1234.78 213.79C1235.16 213.51 1235.65 213.37 1236.24 213.37H1236.28C1236.87 213.37 1237.35 213.505 1237.74 213.776C1238.12 214.047 1238.4 214.429 1238.59 214.924C1238.78 215.419 1238.87 216.011 1238.87 216.702H1238.53C1238.53 216.021 1238.63 215.433 1238.81 214.938C1239.01 214.443 1239.3 214.061 1239.68 213.79C1240.07 213.51 1240.56 213.37 1241.15 213.37H1241.19C1241.78 213.37 1242.27 213.505 1242.65 213.776C1243.04 214.047 1243.33 214.429 1243.52 214.924C1243.71 215.419 1243.81 216.011 1243.81 216.702V221H1242.76V216.464C1242.76 215.811 1242.6 215.293 1242.29 214.91C1241.97 214.527 1241.51 214.336 1240.91 214.336C1240.3 214.336 1239.81 214.537 1239.44 214.938C1239.09 215.33 1238.91 215.862 1238.91 216.534V221H1237.86V216.464C1237.86 215.811 1237.7 215.293 1237.39 214.91C1237.07 214.527 1236.61 214.336 1236.01 214.336C1235.4 214.336 1234.91 214.537 1234.54 214.938C1234.19 215.33 1234.01 215.862 1234.01 216.534V221H1232.96ZM1249.52 221.238C1248.89 221.238 1248.34 221.131 1247.87 220.916C1247.4 220.692 1247.02 220.398 1246.72 220.034C1246.42 219.661 1246.2 219.245 1246.05 218.788C1245.91 218.331 1245.84 217.859 1245.84 217.374V217.178C1245.84 216.702 1245.91 216.235 1246.05 215.778C1246.2 215.321 1246.42 214.91 1246.72 214.546C1247.02 214.182 1247.39 213.893 1247.84 213.678C1248.3 213.454 1248.83 213.342 1249.44 213.342C1250.21 213.342 1250.86 213.515 1251.37 213.86C1251.89 214.205 1252.28 214.649 1252.55 215.19C1252.81 215.722 1252.94 216.296 1252.94 216.912V217.458H1246.32V216.646H1252.21L1251.94 217.052C1251.94 216.501 1251.85 216.021 1251.65 215.61C1251.46 215.19 1251.18 214.863 1250.81 214.63C1250.45 214.387 1249.99 214.266 1249.44 214.266C1248.86 214.266 1248.38 214.401 1248 214.672C1247.61 214.943 1247.32 215.302 1247.13 215.75C1246.94 216.198 1246.85 216.707 1246.85 217.276C1246.85 217.836 1246.94 218.349 1247.13 218.816C1247.32 219.273 1247.62 219.637 1248.01 219.908C1248.41 220.179 1248.92 220.314 1249.52 220.314C1250.17 220.314 1250.69 220.169 1251.09 219.88C1251.49 219.581 1251.74 219.231 1251.83 218.83H1252.81C1252.72 219.325 1252.52 219.754 1252.22 220.118C1251.93 220.473 1251.55 220.748 1251.09 220.944C1250.63 221.14 1250.11 221.238 1249.52 221.238ZM1254.96 221V213.594H1255.8V216.688H1255.72C1255.72 215.605 1255.95 214.807 1256.43 214.294C1256.91 213.771 1257.65 213.51 1258.67 213.51H1258.91V214.462H1258.47C1257.67 214.462 1257.06 214.672 1256.64 215.092C1256.22 215.503 1256.01 216.109 1256.01 216.912V221H1254.96ZM1263.63 221.238C1263.01 221.238 1262.46 221.131 1261.99 220.916C1261.54 220.692 1261.15 220.393 1260.85 220.02C1260.54 219.637 1260.31 219.217 1260.15 218.76C1260 218.303 1259.92 217.841 1259.92 217.374V217.178C1259.92 216.702 1260 216.24 1260.15 215.792C1260.31 215.335 1260.54 214.924 1260.85 214.56C1261.15 214.187 1261.54 213.893 1261.99 213.678C1262.46 213.454 1263 213.342 1263.6 213.342C1264.22 213.342 1264.77 213.454 1265.24 213.678C1265.73 213.902 1266.12 214.219 1266.42 214.63C1266.72 215.041 1266.89 215.526 1266.95 216.086H1265.94C1265.86 215.573 1265.62 215.148 1265.21 214.812C1264.82 214.467 1264.29 214.294 1263.6 214.294C1263.02 214.294 1262.53 214.429 1262.13 214.7C1261.75 214.961 1261.46 215.321 1261.27 215.778C1261.07 216.226 1260.97 216.725 1260.97 217.276C1260.97 217.817 1261.07 218.321 1261.27 218.788C1261.46 219.245 1261.76 219.614 1262.15 219.894C1262.54 220.165 1263.04 220.3 1263.63 220.3C1264.09 220.3 1264.49 220.221 1264.82 220.062C1265.17 219.894 1265.44 219.67 1265.65 219.39C1265.86 219.11 1265.99 218.802 1266.03 218.466H1267.03C1267 219.026 1266.82 219.516 1266.5 219.936C1266.19 220.347 1265.79 220.669 1265.3 220.902C1264.8 221.126 1264.25 221.238 1263.63 221.238ZM1272.05 221.238C1271.42 221.238 1270.87 221.131 1270.4 220.916C1269.93 220.692 1269.55 220.398 1269.25 220.034C1268.95 219.661 1268.73 219.245 1268.58 218.788C1268.44 218.331 1268.37 217.859 1268.37 217.374V217.178C1268.37 216.702 1268.44 216.235 1268.58 215.778C1268.73 215.321 1268.95 214.91 1269.25 214.546C1269.55 214.182 1269.93 213.893 1270.37 213.678C1270.83 213.454 1271.36 213.342 1271.97 213.342C1272.74 213.342 1273.39 213.515 1273.9 213.86C1274.42 214.205 1274.82 214.649 1275.08 215.19C1275.34 215.722 1275.47 216.296 1275.47 216.912V217.458H1268.85V216.646H1274.74L1274.48 217.052C1274.48 216.501 1274.38 216.021 1274.18 215.61C1273.99 215.19 1273.71 214.863 1273.34 214.63C1272.98 214.387 1272.52 214.266 1271.97 214.266C1271.39 214.266 1270.91 214.401 1270.53 214.672C1270.14 214.943 1269.86 215.302 1269.66 215.75C1269.47 216.198 1269.38 216.707 1269.38 217.276C1269.38 217.836 1269.47 218.349 1269.66 218.816C1269.86 219.273 1270.15 219.637 1270.54 219.908C1270.94 220.179 1271.45 220.314 1272.05 220.314C1272.7 220.314 1273.22 220.169 1273.62 219.88C1274.02 219.581 1274.27 219.231 1274.36 218.83H1275.34C1275.25 219.325 1275.05 219.754 1274.76 220.118C1274.46 220.473 1274.08 220.748 1273.62 220.944C1273.16 221.14 1272.64 221.238 1272.05 221.238Z" fill="#717171"/>
</g>
</g>
<g filter="url(#filter10_ddddii_648_200)">
<circle cx="1236.5" cy="215.5" r="17.5" fill="url(#paint7_linear_648_200)"/>
</g>
<path d="M1241 216C1241 216.234 1240.92 216.46 1240.77 216.64L1235.77 222.64C1235.6 222.844 1235.36 222.973 1235.09 222.997C1234.83 223.021 1234.56 222.94 1234.36 222.77C1234.16 222.6 1234.03 222.356 1234 222.092C1233.98 221.827 1234.06 221.564 1234.23 221.36L1238.71 216L1234.39 210.64C1234.31 210.538 1234.24 210.42 1234.21 210.294C1234.17 210.167 1234.16 210.035 1234.17 209.904C1234.19 209.773 1234.22 209.646 1234.29 209.53C1234.35 209.415 1234.44 209.312 1234.54 209.23C1234.64 209.138 1234.76 209.069 1234.89 209.026C1235.02 208.983 1235.16 208.968 1235.3 208.981C1235.44 208.994 1235.57 209.036 1235.69 209.103C1235.81 209.169 1235.92 209.261 1236 209.37L1240.83 215.37C1240.95 215.555 1241.01 215.777 1241 216Z" fill="#404040"/>
<defs>
<filter id="filter0_ddiiii_648_200" x="1268" y="166" width="72" height="30" filterUnits="userSpaceOnUse" color-interpolation-filters="sRGB">
<feFlood flood-opacity="0" result="BackgroundImageFix"/>
<feColorMatrix in="SourceAlpha" type="matrix" values="0 0 0 0 0 0 0 0 0 0 0 0 0 0 0 0 0 0 127 0" result="hardAlpha"/>
<feOffset dx="-1" dy="-1"/>
<feGaussianBlur stdDeviation="1"/>
<feColorMatrix type="matrix" values="0 0 0 0 0.611765 0 0 0 0 0.611765 0 0 0 0 0.611765 0 0 0 0.5 0"/>
<feBlend mode="normal" in2="BackgroundImageFix" result="effect1_dropShadow_648_200"/>
<feColorMatrix in="SourceAlpha" type="matrix" values="0 0 0 0 0 0 0 0 0 0 0 0 0 0 0 0 0 0 127 0" result="hardAlpha"/>
<feOffset dx="1" dy="1"/>
<feGaussianBlur stdDeviation="1"/>
<feColorMatrix type="matrix" values="0 0 0 0 1 0 0 0 0 1 0 0 0 0 1 0 0 0 0.3 0"/>
<feBlend mode="normal" in2="effect1_dropShadow_648_200" result="effect2_dropShadow_648_200"/>
<feBlend mode="normal" in="SourceGraphic" in2="effect2_dropShadow_648_200" result="shape"/>
<feColorMatrix in="SourceAlpha" type="matrix" values="0 0 0 0 0 0 0 0 0 0 0 0 0 0 0 0 0 0 127 0" result="hardAlpha"/>
<feOffset dx="1" dy="1"/>
<feGaussianBlur stdDeviation="1.5"/>
<feComposite in2="hardAlpha" operator="arithmetic" k2="-1" k3="1"/>
<feColorMatrix type="matrix" values="0 0 0 0 0.611765 0 0 0 0 0.611765 0 0 0 0 0.611765 0 0 0 0.9 0"/>
<feBlend mode="normal" in2="shape" result="effect3_innerShadow_648_200"/>
<feColorMatrix in="SourceAlpha" type="matrix" values="0 0 0 0 0 0 0 0 0 0 0 0 0 0 0 0 0 0 127 0" result="hardAlpha"/>
<feOffset dx="-1" dy="-1"/>
<feGaussianBlur stdDeviation="1"/>
<feComposite in2="hardAlpha" operator="arithmetic" k2="-1" k3="1"/>
<feColorMatrix type="matrix" values="0 0 0 0 1 0 0 0 0 1 0 0 0 0 1 0 0 0 0.9 0"/>
<feBlend mode="normal" in2="effect3_innerShadow_648_200" result="effect4_innerShadow_648_200"/>
<feColorMatrix in="SourceAlpha" type="matrix" values="0 0 0 0 0 0 0 0 0 0 0 0 0 0 0 0 0 0 127 0" result="hardAlpha"/>
<feOffset dx="1" dy="-1"/>
<feGaussianBlur stdDeviation="1"/>
<feComposite in2="hardAlpha" operator="arithmetic" k2="-1" k3="1"/>
<feColorMatrix type="matrix" values="0 0 0 0 0.611765 0 0 0 0 0.611765 0 0 0 0 0.611765 0 0 0 0.2 0"/>
<feBlend mode="normal" in2="effect4_innerShadow_648_200" result="effect5_innerShadow_648_200"/>
<feColorMatrix in="SourceAlpha" type="matrix" values="0 0 0 0 0 0 0 0 0 0 0 0 0 0 0 0 0 0 127 0" result="hardAlpha"/>
<feOffset dx="-1" dy="1"/>
<feGaussianBlur stdDeviation="1"/>
<feComposite in2="hardAlpha" operator="arithmetic" k2="-1" k3="1"/>
<feColorMatrix type="matrix" values="0 0 0 0 0.611765 0 0 0 0 0.611765 0 0 0 0 0.611765 0 0 0 0.2 0"/>
<feBlend mode="normal" in2="effect5_innerShadow_648_200" result="effect6_innerShadow_648_200"/>
</filter>
<filter id="filter1_ddiiii_648_200" x="1272.59" y="169.927" width="60.6953" height="21.8536" filterUnits="userSpaceOnUse" color-interpolation-filters="sRGB">
<feFlood flood-opacity="0" result="BackgroundImageFix"/>
<feColorMatrix in="SourceAlpha" type="matrix" values="0 0 0 0 0 0 0 0 0 0 0 0 0 0 0 0 0 0 127 0" result="hardAlpha"/>
<feOffset dx="-1" dy="-1"/>
<feGaussianBlur stdDeviation="1"/>
<feColorMatrix type="matrix" values="0 0 0 0 0.537255 0 0 0 0 0.623529 0 0 0 0 0.768627 0 0 0 0.5 0"/>
<feBlend mode="normal" in2="BackgroundImageFix" result="effect1_dropShadow_648_200"/>
<feColorMatrix in="SourceAlpha" type="matrix" values="0 0 0 0 0 0 0 0 0 0 0 0 0 0 0 0 0 0 127 0" result="hardAlpha"/>
<feOffset dx="1" dy="1"/>
<feGaussianBlur stdDeviation="1"/>
<feColorMatrix type="matrix" values="0 0 0 0 0.858824 0 0 0 0 0.992157 0 0 0 0 1 0 0 0 0.3 0"/>
<feBlend mode="normal" in2="effect1_dropShadow_648_200" result="effect2_dropShadow_648_200"/>
<feBlend mode="normal" in="SourceGraphic" in2="effect2_dropShadow_648_200" result="shape"/>
<feColorMatrix in="SourceAlpha" type="matrix" values="0 0 0 0 0 0 0 0 0 0 0 0 0 0 0 0 0 0 127 0" result="hardAlpha"/>
<feOffset dx="3" dy="3"/>
<feGaussianBlur stdDeviation="4"/>
<feComposite in2="hardAlpha" operator="arithmetic" k2="-1" k3="1"/>
<feColorMatrix type="matrix" values="0 0 0 0 0.537255 0 0 0 0 0.623529 0 0 0 0 0.768627 0 0 0 0.9 0"/>
<feBlend mode="normal" in2="shape" result="effect3_innerShadow_648_200"/>
<feColorMatrix in="SourceAlpha" type="matrix" values="0 0 0 0 0 0 0 0 0 0 0 0 0 0 0 0 0 0 127 0" result="hardAlpha"/>
<feOffset dx="-3" dy="-3"/>
<feGaussianBlur stdDeviation="3"/>
<feComposite in2="hardAlpha" operator="arithmetic" k2="-1" k3="1"/>
<feColorMatrix type="matrix" values="0 0 0 0 0.858824 0 0 0 0 0.992157 0 0 0 0 1 0 0 0 0.9 0"/>
<feBlend mode="normal" in2="effect3_innerShadow_648_200" result="effect4_innerShadow_648_200"/>
<feColorMatrix in="SourceAlpha" type="matrix" values="0 0 0 0 0 0 0 0 0 0 0 0 0 0 0 0 0 0 127 0" result="hardAlpha"/>
<feOffset dx="3" dy="-3"/>
<feGaussianBlur stdDeviation="3"/>
<feComposite in2="hardAlpha" operator="arithmetic" k2="-1" k3="1"/>
<feColorMatrix type="matrix" values="0 0 0 0 0.537255 0 0 0 0 0.623529 0 0 0 0 0.768627 0 0 0 0.2 0"/>
<feBlend mode="normal" in2="effect4_innerShadow_648_200" result="effect5_innerShadow_648_200"/>
<feColorMatrix in="SourceAlpha" type="matrix" values="0 0 0 0 0 0 0 0 0 0 0 0 0 0 0 0 0 0 127 0" result="hardAlpha"/>
<feOffset dx="-3" dy="3"/>
<feGaussianBlur stdDeviation="3"/>
<feComposite in2="hardAlpha" operator="arithmetic" k2="-1" k3="1"/>
<feColorMatrix type="matrix" values="0 0 0 0 0.537255 0 0 0 0 0.623529 0 0 0 0 0.768627 0 0 0 0.2 0"/>
<feBlend mode="normal" in2="effect5_innerShadow_648_200" result="effect6_innerShadow_648_200"/>
</filter>
<filter id="filter2_ddddii_648_200" x="1304.29" y="162" width="37" height="37" filterUnits="userSpaceOnUse" color-interpolation-filters="sRGB">
<feFlood flood-opacity="0" result="BackgroundImageFix"/>
<feColorMatrix in="SourceAlpha" type="matrix" values="0 0 0 0 0 0 0 0 0 0 0 0 0 0 0 0 0 0 127 0" result="hardAlpha"/>
<feOffset dx="1" dy="1"/>
<feGaussianBlur stdDeviation="1.5"/>
<feColorMatrix type="matrix" values="0 0 0 0 0.52549 0 0 0 0 0.52549 0 0 0 0 0.52549 0 0 0 0.9 0"/>
<feBlend mode="normal" in2="BackgroundImageFix" result="effect1_dropShadow_648_200"/>
<feColorMatrix in="SourceAlpha" type="matrix" values="0 0 0 0 0 0 0 0 0 0 0 0 0 0 0 0 0 0 127 0" result="hardAlpha"/>
<feOffset dx="-1" dy="-1"/>
<feGaussianBlur stdDeviation="1"/>
<feColorMatrix type="matrix" values="0 0 0 0 1 0 0 0 0 1 0 0 0 0 1 0 0 0 0.9 0"/>
<feBlend mode="normal" in2="effect1_dropShadow_648_200" result="effect2_dropShadow_648_200"/>
<feColorMatrix in="SourceAlpha" type="matrix" values="0 0 0 0 0 0 0 0 0 0 0 0 0 0 0 0 0 0 127 0" result="hardAlpha"/>
<feOffset dx="1" dy="-1"/>
<feGaussianBlur stdDeviation="1"/>
<feColorMatrix type="matrix" values="0 0 0 0 0.52549 0 0 0 0 0.52549 0 0 0 0 0.52549 0 0 0 0.2 0"/>
<feBlend mode="normal" in2="effect2_dropShadow_648_200" result="effect3_dropShadow_648_200"/>
<feColorMatrix in="SourceAlpha" type="matrix" values="0 0 0 0 0 0 0 0 0 0 0 0 0 0 0 0 0 0 127 0" result="hardAlpha"/>
<feOffset dx="-1" dy="1"/>
<feGaussianBlur stdDeviation="1"/>
<feColorMatrix type="matrix" values="0 0 0 0 0.52549 0 0 0 0 0.52549 0 0 0 0 0.52549 0 0 0 0.2 0"/>
<feBlend mode="normal" in2="effect3_dropShadow_648_200" result="effect4_dropShadow_648_200"/>
<feBlend mode="normal" in="SourceGraphic" in2="effect4_dropShadow_648_200" result="shape"/>
<feColorMatrix in="SourceAlpha" type="matrix" values="0 0 0 0 0 0 0 0 0 0 0 0 0 0 0 0 0 0 127 0" result="hardAlpha"/>
<feOffset dx="-1" dy="-1"/>
<feGaussianBlur stdDeviation="1"/>
<feComposite in2="hardAlpha" operator="arithmetic" k2="-1" k3="1"/>
<feColorMatrix type="matrix" values="0 0 0 0 0.52549 0 0 0 0 0.52549 0 0 0 0 0.52549 0 0 0 0.5 0"/>
<feBlend mode="normal" in2="shape" result="effect5_innerShadow_648_200"/>
<feColorMatrix in="SourceAlpha" type="matrix" values="0 0 0 0 0 0 0 0 0 0 0 0 0 0 0 0 0 0 127 0" result="hardAlpha"/>
<feOffset dx="1" dy="1"/>
<feGaussianBlur stdDeviation="1"/>
<feComposite in2="hardAlpha" operator="arithmetic" k2="-1" k3="1"/>
<feColorMatrix type="matrix" values="0 0 0 0 1 0 0 0 0 1 0 0 0 0 1 0 0 0 0.3 0"/>
<feBlend mode="normal" in2="effect5_innerShadow_648_200" result="effect6_innerShadow_648_200"/>
</filter>
<filter id="filter3_ddiiii_648_200" x="1308.04" y="165.75" width="28.5" height="28.5" filterUnits="userSpaceOnUse" color-interpolation-filters="sRGB">
<feFlood flood-opacity="0" result="BackgroundImageFix"/>
<feColorMatrix in="SourceAlpha" type="matrix" values="0 0 0 0 0 0 0 0 0 0 0 0 0 0 0 0 0 0 127 0" result="hardAlpha"/>
<feOffset dx="-1" dy="-1"/>
<feGaussianBlur stdDeviation="1"/>
<feColorMatrix type="matrix" values="0 0 0 0 0.654902 0 0 0 0 0.654902 0 0 0 0 0.654902 0 0 0 0.5 0"/>
<feBlend mode="normal" in2="BackgroundImageFix" result="effect1_dropShadow_648_200"/>
<feColorMatrix in="SourceAlpha" type="matrix" values="0 0 0 0 0 0 0 0 0 0 0 0 0 0 0 0 0 0 127 0" result="hardAlpha"/>
<feOffset dx="1" dy="1"/>
<feGaussianBlur stdDeviation="1"/>
<feColorMatrix type="matrix" values="0 0 0 0 1 0 0 0 0 1 0 0 0 0 1 0 0 0 0.3 0"/>
<feBlend mode="normal" in2="effect1_dropShadow_648_200" result="effect2_dropShadow_648_200"/>
<feBlend mode="normal" in="SourceGraphic" in2="effect2_dropShadow_648_200" result="shape"/>
<feColorMatrix in="SourceAlpha" type="matrix" values="0 0 0 0 0 0 0 0 0 0 0 0 0 0 0 0 0 0 127 0" result="hardAlpha"/>
<feOffset dx="1" dy="1"/>
<feGaussianBlur stdDeviation="1.5"/>
<feComposite in2="hardAlpha" operator="arithmetic" k2="-1" k3="1"/>
<feColorMatrix type="matrix" values="0 0 0 0 0.654902 0 0 0 0 0.654902 0 0 0 0 0.654902 0 0 0 0.9 0"/>
<feBlend mode="normal" in2="shape" result="effect3_innerShadow_648_200"/>
<feColorMatrix in="SourceAlpha" type="matrix" values="0 0 0 0 0 0 0 0 0 0 0 0 0 0 0 0 0 0 127 0" result="hardAlpha"/>
<feOffset dx="-1" dy="-1"/>
<feGaussianBlur stdDeviation="1"/>
<feComposite in2="hardAlpha" operator="arithmetic" k2="-1" k3="1"/>
<feColorMatrix type="matrix" values="0 0 0 0 1 0 0 0 0 1 0 0 0 0 1 0 0 0 0.9 0"/>
<feBlend mode="normal" in2="effect3_innerShadow_648_200" result="effect4_innerShadow_648_200"/>
<feColorMatrix in="SourceAlpha" type="matrix" values="0 0 0 0 0 0 0 0 0 0 0 0 0 0 0 0 0 0 127 0" result="hardAlpha"/>
<feOffset dx="1" dy="-1"/>
<feGaussianBlur stdDeviation="1"/>
<feComposite in2="hardAlpha" operator="arithmetic" k2="-1" k3="1"/>
<feColorMatrix type="matrix" values="0 0 0 0 0.654902 0 0 0 0 0.654902 0 0 0 0 0.654902 0 0 0 0.2 0"/>
<feBlend mode="normal" in2="effect4_innerShadow_648_200" result="effect5_innerShadow_648_200"/>
<feColorMatrix in="SourceAlpha" type="matrix" values="0 0 0 0 0 0 0 0 0 0 0 0 0 0 0 0 0 0 127 0" result="hardAlpha"/>
<feOffset dx="-1" dy="1"/>
<feGaussianBlur stdDeviation="1"/>
<feComposite in2="hardAlpha" operator="arithmetic" k2="-1" k3="1"/>
<feColorMatrix type="matrix" values="0 0 0 0 0.654902 0 0 0 0 0.654902 0 0 0 0 0.654902 0 0 0 0.2 0"/>
<feBlend mode="normal" in2="effect5_innerShadow_648_200" result="effect6_innerShadow_648_200"/>
</filter>
<filter id="filter4_ddiiii_648_200" x="436" y="194" width="55" height="44" filterUnits="userSpaceOnUse" color-interpolation-filters="sRGB">
<feFlood flood-opacity="0" result="BackgroundImageFix"/>
<feColorMatrix in="SourceAlpha" type="matrix" values="0 0 0 0 0 0 0 0 0 0 0 0 0 0 0 0 0 0 127 0" result="hardAlpha"/>
<feOffset dx="-1" dy="-1"/>
<feGaussianBlur stdDeviation="1"/>
<feColorMatrix type="matrix" values="0 0 0 0 0.745098 0 0 0 0 0.745098 0 0 0 0 0.745098 0 0 0 0.5 0"/>
<feBlend mode="normal" in2="BackgroundImageFix" result="effect1_dropShadow_648_200"/>
<feColorMatrix in="SourceAlpha" type="matrix" values="0 0 0 0 0 0 0 0 0 0 0 0 0 0 0 0 0 0 127 0" result="hardAlpha"/>
<feOffset dx="1" dy="1"/>
<feGaussianBlur stdDeviation="1"/>
<feColorMatrix type="matrix" values="0 0 0 0 1 0 0 0 0 1 0 0 0 0 1 0 0 0 0.3 0"/>
<feBlend mode="normal" in2="effect1_dropShadow_648_200" result="effect2_dropShadow_648_200"/>
<feBlend mode="normal" in="SourceGraphic" in2="effect2_dropShadow_648_200" result="shape"/>
<feColorMatrix in="SourceAlpha" type="matrix" values="0 0 0 0 0 0 0 0 0 0 0 0 0 0 0 0 0 0 127 0" result="hardAlpha"/>
<feOffset dx="3" dy="3"/>
<feGaussianBlur stdDeviation="4"/>
<feComposite in2="hardAlpha" operator="arithmetic" k2="-1" k3="1"/>
<feColorMatrix type="matrix" values="0 0 0 0 0.745098 0 0 0 0 0.745098 0 0 0 0 0.745098 0 0 0 0.9 0"/>
<feBlend mode="normal" in2="shape" result="effect3_innerShadow_648_200"/>
<feColorMatrix in="SourceAlpha" type="matrix" values="0 0 0 0 0 0 0 0 0 0 0 0 0 0 0 0 0 0 127 0" result="hardAlpha"/>
<feOffset dx="-3" dy="-3"/>
<feGaussianBlur stdDeviation="3"/>
<feComposite in2="hardAlpha" operator="arithmetic" k2="-1" k3="1"/>
<feColorMatrix type="matrix" values="0 0 0 0 1 0 0 0 0 1 0 0 0 0 1 0 0 0 0.9 0"/>
<feBlend mode="normal" in2="effect3_innerShadow_648_200" result="effect4_innerShadow_648_200"/>
<feColorMatrix in="SourceAlpha" type="matrix" values="0 0 0 0 0 0 0 0 0 0 0 0 0 0 0 0 0 0 127 0" result="hardAlpha"/>
<feOffset dx="3" dy="-3"/>
<feGaussianBlur stdDeviation="3"/>
<feComposite in2="hardAlpha" operator="arithmetic" k2="-1" k3="1"/>
<feColorMatrix type="matrix" values="0 0 0 0 0.745098 0 0 0 0 0.745098 0 0 0 0 0.745098 0 0 0 0.2 0"/>
<feBlend mode="normal" in2="effect4_innerShadow_648_200" result="effect5_innerShadow_648_200"/>
<feColorMatrix in="SourceAlpha" type="matrix" values="0 0 0 0 0 0 0 0 0 0 0 0 0 0 0 0 0 0 127 0" result="hardAlpha"/>
<feOffset dx="-3" dy="3"/>
<feGaussianBlur stdDeviation="3"/>
<feComposite in2="hardAlpha" operator="arithmetic" k2="-1" k3="1"/>
<feColorMatrix type="matrix" values="0 0 0 0 0.745098 0 0 0 0 0.745098 0 0 0 0 0.745098 0 0 0 0.2 0"/>
<feBlend mode="normal" in2="effect5_innerShadow_648_200" result="effect6_innerShadow_648_200"/>
</filter>
<filter id="filter5_ddddii_648_200" x="496" y="188" width="184" height="58" filterUnits="userSpaceOnUse" color-interpolation-filters="sRGB">
<feFlood flood-opacity="0" result="BackgroundImageFix"/>
<feColorMatrix in="SourceAlpha" type="matrix" values="0 0 0 0 0 0 0 0 0 0 0 0 0 0 0 0 0 0 127 0" result="hardAlpha"/>
<feOffset dx="3" dy="3"/>
<feGaussianBlur stdDeviation="4"/>
<feColorMatrix type="matrix" values="0 0 0 0 0.745098 0 0 0 0 0.745098 0 0 0 0 0.745098 0 0 0 0.9 0"/>
<feBlend mode="normal" in2="BackgroundImageFix" result="effect1_dropShadow_648_200"/>
<feColorMatrix in="SourceAlpha" type="matrix" values="0 0 0 0 0 0 0 0 0 0 0 0 0 0 0 0 0 0 127 0" result="hardAlpha"/>
<feOffset dx="-3" dy="-3"/>
<feGaussianBlur stdDeviation="3"/>
<feColorMatrix type="matrix" values="0 0 0 0 1 0 0 0 0 1 0 0 0 0 1 0 0 0 0.9 0"/>
<feBlend mode="normal" in2="effect1_dropShadow_648_200" result="effect2_dropShadow_648_200"/>
<feColorMatrix in="SourceAlpha" type="matrix" values="0 0 0 0 0 0 0 0 0 0 0 0 0 0 0 0 0 0 127 0" result="hardAlpha"/>
<feOffset dx="3" dy="-3"/>
<feGaussianBlur stdDeviation="3"/>
<feColorMatrix type="matrix" values="0 0 0 0 0.745098 0 0 0 0 0.745098 0 0 0 0 0.745098 0 0 0 0.2 0"/>
<feBlend mode="normal" in2="effect2_dropShadow_648_200" result="effect3_dropShadow_648_200"/>
<feColorMatrix in="SourceAlpha" type="matrix" values="0 0 0 0 0 0 0 0 0 0 0 0 0 0 0 0 0 0 127 0" result="hardAlpha"/>
<feOffset dx="-3" dy="3"/>
<feGaussianBlur stdDeviation="3"/>
<feColorMatrix type="matrix" values="0 0 0 0 0.745098 0 0 0 0 0.745098 0 0 0 0 0.745098 0 0 0 0.2 0"/>
<feBlend mode="normal" in2="effect3_dropShadow_648_200" result="effect4_dropShadow_648_200"/>
<feBlend mode="normal" in="SourceGraphic" in2="effect4_dropShadow_648_200" result="shape"/>
<feColorMatrix in="SourceAlpha" type="matrix" values="0 0 0 0 0 0 0 0 0 0 0 0 0 0 0 0 0 0 127 0" result="hardAlpha"/>
<feOffset dx="-1" dy="-1"/>
<feGaussianBlur stdDeviation="1"/>
<feComposite in2="hardAlpha" operator="arithmetic" k2="-1" k3="1"/>
<feColorMatrix type="matrix" values="0 0 0 0 0.745098 0 0 0 0 0.745098 0 0 0 0 0.745098 0 0 0 0.5 0"/>
<feBlend mode="normal" in2="shape" result="effect5_innerShadow_648_200"/>
<feColorMatrix in="SourceAlpha" type="matrix" values="0 0 0 0 0 0 0 0 0 0 0 0 0 0 0 0 0 0 127 0" result="hardAlpha"/>
<feOffset dx="1" dy="1"/>
<feGaussianBlur stdDeviation="1"/>
<feComposite in2="hardAlpha" operator="arithmetic" k2="-1" k3="1"/>
<feColorMatrix type="matrix" values="0 0 0 0 1 0 0 0 0 1 0 0 0 0 1 0 0 0 0.3 0"/>
<feBlend mode="normal" in2="effect5_innerShadow_648_200" result="effect6_innerShadow_648_200"/>
</filter>
<filter id="filter6_ddddii_648_200" x="677" y="188" width="102" height="58" filterUnits="userSpaceOnUse" color-interpolation-filters="sRGB">
<feFlood flood-opacity="0" result="BackgroundImageFix"/>
<feColorMatrix in="SourceAlpha" type="matrix" values="0 0 0 0 0 0 0 0 0 0 0 0 0 0 0 0 0 0 127 0" result="hardAlpha"/>
<feOffset dx="3" dy="3"/>
<feGaussianBlur stdDeviation="4"/>
<feColorMatrix type="matrix" values="0 0 0 0 0.745098 0 0 0 0 0.745098 0 0 0 0 0.745098 0 0 0 0.9 0"/>
<feBlend mode="normal" in2="BackgroundImageFix" result="effect1_dropShadow_648_200"/>
<feColorMatrix in="SourceAlpha" type="matrix" values="0 0 0 0 0 0 0 0 0 0 0 0 0 0 0 0 0 0 127 0" result="hardAlpha"/>
<feOffset dx="-3" dy="-3"/>
<feGaussianBlur stdDeviation="3"/>
<feColorMatrix type="matrix" values="0 0 0 0 1 0 0 0 0 1 0 0 0 0 1 0 0 0 0.9 0"/>
<feBlend mode="normal" in2="effect1_dropShadow_648_200" result="effect2_dropShadow_648_200"/>
<feColorMatrix in="SourceAlpha" type="matrix" values="0 0 0 0 0 0 0 0 0 0 0 0 0 0 0 0 0 0 127 0" result="hardAlpha"/>
<feOffset dx="3" dy="-3"/>
<feGaussianBlur stdDeviation="3"/>
<feColorMatrix type="matrix" values="0 0 0 0 0.745098 0 0 0 0 0.745098 0 0 0 0 0.745098 0 0 0 0.2 0"/>
<feBlend mode="normal" in2="effect2_dropShadow_648_200" result="effect3_dropShadow_648_200"/>
<feColorMatrix in="SourceAlpha" type="matrix" values="0 0 0 0 0 0 0 0 0 0 0 0 0 0 0 0 0 0 127 0" result="hardAlpha"/>
<feOffset dx="-3" dy="3"/>
<feGaussianBlur stdDeviation="3"/>
<feColorMatrix type="matrix" values="0 0 0 0 0.745098 0 0 0 0 0.745098 0 0 0 0 0.745098 0 0 0 0.2 0"/>
<feBlend mode="normal" in2="effect3_dropShadow_648_200" result="effect4_dropShadow_648_200"/>
<feBlend mode="normal" in="SourceGraphic" in2="effect4_dropShadow_648_200" result="shape"/>
<feColorMatrix in="SourceAlpha" type="matrix" values="0 0 0 0 0 0 0 0 0 0 0 0 0 0 0 0 0 0 127 0" result="hardAlpha"/>
<feOffset dx="-1" dy="-1"/>
<feGaussianBlur stdDeviation="1"/>
<feComposite in2="hardAlpha" operator="arithmetic" k2="-1" k3="1"/>
<feColorMatrix type="matrix" values="0 0 0 0 0.745098 0 0 0 0 0.745098 0 0 0 0 0.745098 0 0 0 0.5 0"/>
<feBlend mode="normal" in2="shape" result="effect5_innerShadow_648_200"/>
<feColorMatrix in="SourceAlpha" type="matrix" values="0 0 0 0 0 0 0 0 0 0 0 0 0 0 0 0 0 0 127 0" result="hardAlpha"/>
<feOffset dx="1" dy="1"/>
<feGaussianBlur stdDeviation="1"/>
<feComposite in2="hardAlpha" operator="arithmetic" k2="-1" k3="1"/>
<feColorMatrix type="matrix" values="0 0 0 0 1 0 0 0 0 1 0 0 0 0 1 0 0 0 0.3 0"/>
<feBlend mode="normal" in2="effect5_innerShadow_648_200" result="effect6_innerShadow_648_200"/>
</filter>
<filter id="filter7_ddddii_648_200" x="776" y="188" width="188" height="58" filterUnits="userSpaceOnUse" color-interpolation-filters="sRGB">
<feFlood flood-opacity="0" result="BackgroundImageFix"/>
<feColorMatrix in="SourceAlpha" type="matrix" values="0 0 0 0 0 0 0 0 0 0 0 0 0 0 0 0 0 0 127 0" result="hardAlpha"/>
<feOffset dx="3" dy="3"/>
<feGaussianBlur stdDeviation="4"/>
<feColorMatrix type="matrix" values="0 0 0 0 0.745098 0 0 0 0 0.745098 0 0 0 0 0.745098 0 0 0 0.9 0"/>
<feBlend mode="normal" in2="BackgroundImageFix" result="effect1_dropShadow_648_200"/>
<feColorMatrix in="SourceAlpha" type="matrix" values="0 0 0 0 0 0 0 0 0 0 0 0 0 0 0 0 0 0 127 0" result="hardAlpha"/>
<feOffset dx="-3" dy="-3"/>
<feGaussianBlur stdDeviation="3"/>
<feColorMatrix type="matrix" values="0 0 0 0 1 0 0 0 0 1 0 0 0 0 1 0 0 0 0.9 0"/>
<feBlend mode="normal" in2="effect1_dropShadow_648_200" result="effect2_dropShadow_648_200"/>
<feColorMatrix in="SourceAlpha" type="matrix" values="0 0 0 0 0 0 0 0 0 0 0 0 0 0 0 0 0 0 127 0" result="hardAlpha"/>
<feOffset dx="3" dy="-3"/>
<feGaussianBlur stdDeviation="3"/>
<feColorMatrix type="matrix" values="0 0 0 0 0.745098 0 0 0 0 0.745098 0 0 0 0 0.745098 0 0 0 0.2 0"/>
<feBlend mode="normal" in2="effect2_dropShadow_648_200" result="effect3_dropShadow_648_200"/>
<feColorMatrix in="SourceAlpha" type="matrix" values="0 0 0 0 0 0 0 0 0 0 0 0 0 0 0 0 0 0 127 0" result="hardAlpha"/>
<feOffset dx="-3" dy="3"/>
<feGaussianBlur stdDeviation="3"/>
<feColorMatrix type="matrix" values="0 0 0 0 0.745098 0 0 0 0 0.745098 0 0 0 0 0.745098 0 0 0 0.2 0"/>
<feBlend mode="normal" in2="effect3_dropShadow_648_200" result="effect4_dropShadow_648_200"/>
<feBlend mode="normal" in="SourceGraphic" in2="effect4_dropShadow_648_200" result="shape"/>
<feColorMatrix in="SourceAlpha" type="matrix" values="0 0 0 0 0 0 0 0 0 0 0 0 0 0 0 0 0 0 127 0" result="hardAlpha"/>
<feOffset dx="-1" dy="-1"/>
<feGaussianBlur stdDeviation="1"/>
<feComposite in2="hardAlpha" operator="arithmetic" k2="-1" k3="1"/>
<feColorMatrix type="matrix" values="0 0 0 0 0.745098 0 0 0 0 0.745098 0 0 0 0 0.745098 0 0 0 0.5 0"/>
<feBlend mode="normal" in2="shape" result="effect5_innerShadow_648_200"/>
<feColorMatrix in="SourceAlpha" type="matrix" values="0 0 0 0 0 0 0 0 0 0 0 0 0 0 0 0 0 0 127 0" result="hardAlpha"/>
<feOffset dx="1" dy="1"/>
<feGaussianBlur stdDeviation="1"/>
<feComposite in2="hardAlpha" operator="arithmetic" k2="-1" k3="1"/>
<feColorMatrix type="matrix" values="0 0 0 0 1 0 0 0 0 1 0 0 0 0 1 0 0 0 0.3 0"/>
<feBlend mode="normal" in2="effect5_innerShadow_648_200" result="effect6_innerShadow_648_200"/>
</filter>
<filter id="filter8_ddddii_648_200" x="961" y="188" width="201" height="58" filterUnits="userSpaceOnUse" color-interpolation-filters="sRGB">
<feFlood flood-opacity="0" result="BackgroundImageFix"/>
<feColorMatrix in="SourceAlpha" type="matrix" values="0 0 0 0 0 0 0 0 0 0 0 0 0 0 0 0 0 0 127 0" result="hardAlpha"/>
<feOffset dx="3" dy="3"/>
<feGaussianBlur stdDeviation="4"/>
<feColorMatrix type="matrix" values="0 0 0 0 0.745098 0 0 0 0 0.745098 0 0 0 0 0.745098 0 0 0 0.9 0"/>
<feBlend mode="normal" in2="BackgroundImageFix" result="effect1_dropShadow_648_200"/>
<feColorMatrix in="SourceAlpha" type="matrix" values="0 0 0 0 0 0 0 0 0 0 0 0 0 0 0 0 0 0 127 0" result="hardAlpha"/>
<feOffset dx="-3" dy="-3"/>
<feGaussianBlur stdDeviation="3"/>
<feColorMatrix type="matrix" values="0 0 0 0 1 0 0 0 0 1 0 0 0 0 1 0 0 0 0.9 0"/>
<feBlend mode="normal" in2="effect1_dropShadow_648_200" result="effect2_dropShadow_648_200"/>
<feColorMatrix in="SourceAlpha" type="matrix" values="0 0 0 0 0 0 0 0 0 0 0 0 0 0 0 0 0 0 127 0" result="hardAlpha"/>
<feOffset dx="3" dy="-3"/>
<feGaussianBlur stdDeviation="3"/>
<feColorMatrix type="matrix" values="0 0 0 0 0.745098 0 0 0 0 0.745098 0 0 0 0 0.745098 0 0 0 0.2 0"/>
<feBlend mode="normal" in2="effect2_dropShadow_648_200" result="effect3_dropShadow_648_200"/>
<feColorMatrix in="SourceAlpha" type="matrix" values="0 0 0 0 0 0 0 0 0 0 0 0 0 0 0 0 0 0 127 0" result="hardAlpha"/>
<feOffset dx="-3" dy="3"/>
<feGaussianBlur stdDeviation="3"/>
<feColorMatrix type="matrix" values="0 0 0 0 0.745098 0 0 0 0 0.745098 0 0 0 0 0.745098 0 0 0 0.2 0"/>
<feBlend mode="normal" in2="effect3_dropShadow_648_200" result="effect4_dropShadow_648_200"/>
<feBlend mode="normal" in="SourceGraphic" in2="effect4_dropShadow_648_200" result="shape"/>
<feColorMatrix in="SourceAlpha" type="matrix" values="0 0 0 0 0 0 0 0 0 0 0 0 0 0 0 0 0 0 127 0" result="hardAlpha"/>
<feOffset dx="-1" dy="-1"/>
<feGaussianBlur stdDeviation="1"/>
<feComposite in2="hardAlpha" operator="arithmetic" k2="-1" k3="1"/>
<feColorMatrix type="matrix" values="0 0 0 0 0.745098 0 0 0 0 0.745098 0 0 0 0 0.745098 0 0 0 0.5 0"/>
<feBlend mode="normal" in2="shape" result="effect5_innerShadow_648_200"/>
<feColorMatrix in="SourceAlpha" type="matrix" values="0 0 0 0 0 0 0 0 0 0 0 0 0 0 0 0 0 0 127 0" result="hardAlpha"/>
<feOffset dx="1" dy="1"/>
<feGaussianBlur stdDeviation="1"/>
<feComposite in2="hardAlpha" operator="arithmetic" k2="-1" k3="1"/>
<feColorMatrix type="matrix" values="0 0 0 0 1 0 0 0 0 1 0 0 0 0 1 0 0 0 0.3 0"/>
<feBlend mode="normal" in2="effect5_innerShadow_648_200" result="effect6_innerShadow_648_200"/>
</filter>
<filter id="filter9_ddddii_648_200" x="1159" y="188" width="144" height="58" filterUnits="userSpaceOnUse" color-interpolation-filters="sRGB">
<feFlood flood-opacity="0" result="BackgroundImageFix"/>
<feColorMatrix in="SourceAlpha" type="matrix" values="0 0 0 0 0 0 0 0 0 0 0 0 0 0 0 0 0 0 127 0" result="hardAlpha"/>
<feOffset dx="3" dy="3"/>
<feGaussianBlur stdDeviation="4"/>
<feColorMatrix type="matrix" values="0 0 0 0 0.745098 0 0 0 0 0.745098 0 0 0 0 0.745098 0 0 0 0.9 0"/>
<feBlend mode="normal" in2="BackgroundImageFix" result="effect1_dropShadow_648_200"/>
<feColorMatrix in="SourceAlpha" type="matrix" values="0 0 0 0 0 0 0 0 0 0 0 0 0 0 0 0 0 0 127 0" result="hardAlpha"/>
<feOffset dx="-3" dy="-3"/>
<feGaussianBlur stdDeviation="3"/>
<feColorMatrix type="matrix" values="0 0 0 0 1 0 0 0 0 1 0 0 0 0 1 0 0 0 0.9 0"/>
<feBlend mode="normal" in2="effect1_dropShadow_648_200" result="effect2_dropShadow_648_200"/>
<feColorMatrix in="SourceAlpha" type="matrix" values="0 0 0 0 0 0 0 0 0 0 0 0 0 0 0 0 0 0 127 0" result="hardAlpha"/>
<feOffset dx="3" dy="-3"/>
<feGaussianBlur stdDeviation="3"/>
<feColorMatrix type="matrix" values="0 0 0 0 0.745098 0 0 0 0 0.745098 0 0 0 0 0.745098 0 0 0 0.2 0"/>
<feBlend mode="normal" in2="effect2_dropShadow_648_200" result="effect3_dropShadow_648_200"/>
<feColorMatrix in="SourceAlpha" type="matrix" values="0 0 0 0 0 0 0 0 0 0 0 0 0 0 0 0 0 0 127 0" result="hardAlpha"/>
<feOffset dx="-3" dy="3"/>
<feGaussianBlur stdDeviation="3"/>
<feColorMatrix type="matrix" values="0 0 0 0 0.745098 0 0 0 0 0.745098 0 0 0 0 0.745098 0 0 0 0.2 0"/>
<feBlend mode="normal" in2="effect3_dropShadow_648_200" result="effect4_dropShadow_648_200"/>
<feBlend mode="normal" in="SourceGraphic" in2="effect4_dropShadow_648_200" result="shape"/>
<feColorMatrix in="SourceAlpha" type="matrix" values="0 0 0 0 0 0 0 0 0 0 0 0 0 0 0 0 0 0 127 0" result="hardAlpha"/>
<feOffset dx="-1" dy="-1"/>
<feGaussianBlur stdDeviation="1"/>
<feComposite in2="hardAlpha" operator="arithmetic" k2="-1" k3="1"/>
<feColorMatrix type="matrix" values="0 0 0 0 0.745098 0 0 0 0 0.745098 0 0 0 0 0.745098 0 0 0 0.5 0"/>
<feBlend mode="normal" in2="shape" result="effect5_innerShadow_648_200"/>
<feColorMatrix in="SourceAlpha" type="matrix" values="0 0 0 0 0 0 0 0 0 0 0 0 0 0 0 0 0 0 127 0" result="hardAlpha"/>
<feOffset dx="1" dy="1"/>
<feGaussianBlur stdDeviation="1"/>
<feComposite in2="hardAlpha" operator="arithmetic" k2="-1" k3="1"/>
<feColorMatrix type="matrix" values="0 0 0 0 1 0 0 0 0 1 0 0 0 0 1 0 0 0 0.3 0"/>
<feBlend mode="normal" in2="effect5_innerShadow_648_200" result="effect6_innerShadow_648_200"/>
</filter>
<filter id="filter10_ddddii_648_200" x="1207" y="186" width="61" height="61" filterUnits="userSpaceOnUse" color-interpolation-filters="sRGB">
<feFlood flood-opacity="0" result="BackgroundImageFix"/>
<feColorMatrix in="SourceAlpha" type="matrix" values="0 0 0 0 0 0 0 0 0 0 0 0 0 0 0 0 0 0 127 0" result="hardAlpha"/>
<feOffset dx="4" dy="4"/>
<feGaussianBlur stdDeviation="5"/>
<feColorMatrix type="matrix" values="0 0 0 0 0.745098 0 0 0 0 0.745098 0 0 0 0 0.745098 0 0 0 0.9 0"/>
<feBlend mode="normal" in2="BackgroundImageFix" result="effect1_dropShadow_648_200"/>
<feColorMatrix in="SourceAlpha" type="matrix" values="0 0 0 0 0 0 0 0 0 0 0 0 0 0 0 0 0 0 127 0" result="hardAlpha"/>
<feOffset dx="-4" dy="-4"/>
<feGaussianBlur stdDeviation="4"/>
<feColorMatrix type="matrix" values="0 0 0 0 1 0 0 0 0 1 0 0 0 0 1 0 0 0 0.9 0"/>
<feBlend mode="normal" in2="effect1_dropShadow_648_200" result="effect2_dropShadow_648_200"/>
<feColorMatrix in="SourceAlpha" type="matrix" values="0 0 0 0 0 0 0 0 0 0 0 0 0 0 0 0 0 0 127 0" result="hardAlpha"/>
<feOffset dx="4" dy="-4"/>
<feGaussianBlur stdDeviation="4"/>
<feColorMatrix type="matrix" values="0 0 0 0 0.745098 0 0 0 0 0.745098 0 0 0 0 0.745098 0 0 0 0.2 0"/>
<feBlend mode="normal" in2="effect2_dropShadow_648_200" result="effect3_dropShadow_648_200"/>
<feColorMatrix in="SourceAlpha" type="matrix" values="0 0 0 0 0 0 0 0 0 0 0 0 0 0 0 0 0 0 127 0" result="hardAlpha"/>
<feOffset dx="-4" dy="4"/>
<feGaussianBlur stdDeviation="4"/>
<feColorMatrix type="matrix" values="0 0 0 0 0.745098 0 0 0 0 0.745098 0 0 0 0 0.745098 0 0 0 0.2 0"/>
<feBlend mode="normal" in2="effect3_dropShadow_648_200" result="effect4_dropShadow_648_200"/>
<feBlend mode="normal" in="SourceGraphic" in2="effect4_dropShadow_648_200" result="shape"/>
<feColorMatrix in="SourceAlpha" type="matrix" values="0 0 0 0 0 0 0 0 0 0 0 0 0 0 0 0 0 0 127 0" result="hardAlpha"/>
<feOffset dx="-1" dy="-1"/>
<feGaussianBlur stdDeviation="1"/>
<feComposite in2="hardAlpha" operator="arithmetic" k2="-1" k3="1"/>
<feColorMatrix type="matrix" values="0 0 0 0 0.745098 0 0 0 0 0.745098 0 0 0 0 0.745098 0 0 0 0.5 0"/>
<feBlend mode="normal" in2="shape" result="effect5_innerShadow_648_200"/>
<feColorMatrix in="SourceAlpha" type="matrix" values="0 0 0 0 0 0 0 0 0 0 0 0 0 0 0 0 0 0 127 0" result="hardAlpha"/>
<feOffset dx="1" dy="1"/>
<feGaussianBlur stdDeviation="1"/>
<feComposite in2="hardAlpha" operator="arithmetic" k2="-1" k3="1"/>
<feColorMatrix type="matrix" values="0 0 0 0 1 0 0 0 0 1 0 0 0 0 1 0 0 0 0.3 0"/>
<feBlend mode="normal" in2="effect5_innerShadow_648_200" result="effect6_innerShadow_648_200"/>
</filter>
<linearGradient id="paint0_linear_648_200" x1="1307.29" y1="165" x2="1337.29" y2="195" gradientUnits="userSpaceOnUse">
<stop offset="1" stop-color="#EAEAEA"/>
<stop stop-color="#D4D4D4"/>
</linearGradient>
<radialGradient id="paint1_radial_648_200" cx="0" cy="0" r="1" gradientUnits="userSpaceOnUse" gradientTransform="translate(463.5 216) rotate(90) scale(9 9.5)">
<stop stop-color="#5A69EA"/>
<stop offset="1" stop-color="#BF8BCA"/>
</radialGradient>
<linearGradient id="paint2_linear_648_200" x1="505" y1="197" x2="521.712" y2="269.128" gradientUnits="userSpaceOnUse">
<stop offset="1" stop-color="#EAEAEA"/>
<stop stop-color="#D4D4D4"/>
</linearGradient>
<linearGradient id="paint3_linear_648_200" x1="686" y1="197" x2="714.993" y2="259.564" gradientUnits="userSpaceOnUse">
<stop offset="1" stop-color="#EAEAEA"/>
<stop stop-color="#D4D4D4"/>
</linearGradient>
<linearGradient id="paint4_linear_648_200" x1="785" y1="197" x2="801.354" y2="269.301" gradientUnits="userSpaceOnUse">
<stop offset="1" stop-color="#EAEAEA"/>
<stop stop-color="#D4D4D4"/>
</linearGradient>
<linearGradient id="paint5_linear_648_200" x1="970" y1="197" x2="985.282" y2="269.792" gradientUnits="userSpaceOnUse">
<stop offset="1" stop-color="#EAEAEA"/>
<stop stop-color="#D4D4D4"/>
</linearGradient>
<linearGradient id="paint6_linear_648_200" x1="1168" y1="197" x2="1189.29" y2="266.475" gradientUnits="userSpaceOnUse">
<stop offset="1" stop-color="#EAEAEA"/>
<stop stop-color="#D4D4D4"/>
</linearGradient>
<linearGradient id="paint7_linear_648_200" x1="1219" y1="198" x2="1254" y2="233" gradientUnits="userSpaceOnUse">
<stop offset="1" stop-color="#EAEAEA"/>
<stop stop-color="#D4D4D4"/>
</linearGradient>
<clipPath id="clip0_648_200">
<rect width="763" height="60" fill="white" transform="translate(439 186)"/>
</clipPath>
</defs>
</svg>
