<svg width="1440" height="85" viewBox="0 0 1440 85" fill="none" xmlns="http://www.w3.org/2000/svg">
<mask id="path-1-inside-1_1008_1004" fill="white">
<path d="M-1 0H1441V85H-1V0Z"/>
</mask>
<path d="M-1 0V0.5H1441V0V-0.5H-1V0ZM1441 85V84.5H-1V85V85.5H1441V85Z" fill="#717171" mask="url(#path-1-inside-1_1008_1004)"/>
<path d="M75.44 49.5V34.9H76.52V49.5H75.44ZM76.14 42.54V41.54L82.8 41.52V42.5L76.14 42.54ZM76.14 35.88V34.9L83.2 34.88V35.88H76.14ZM86.6356 49.5V39H87.7156V49.5H86.6356ZM84.8956 39.92V39H87.7156V39.92H84.8956ZM86.7356 36.8C86.4556 36.8 86.2423 36.7267 86.0956 36.58C85.949 36.42 85.8756 36.22 85.8756 35.98C85.8756 35.7267 85.949 35.52 86.0956 35.36C86.2423 35.2 86.4623 35.12 86.7556 35.12C87.0356 35.12 87.249 35.2 87.3956 35.36C87.5423 35.52 87.6156 35.7267 87.6156 35.98C87.6156 36.22 87.5423 36.42 87.3956 36.58C87.2623 36.7267 87.0423 36.8 86.7356 36.8ZM91.9169 49.5V34.9H92.9769V49.5H91.9169ZM90.3369 35.8V34.9H92.9769V35.8H90.3369ZM100.591 49.6C99.9379 49.6 99.3646 49.5067 98.8713 49.32C98.3779 49.12 97.9979 48.7867 97.7313 48.32C97.4646 47.8533 97.3313 47.2267 97.3313 46.44V35.58H98.3713V46.62C98.3713 47.26 98.5446 47.76 98.8913 48.12C99.2513 48.4667 99.7446 48.64 100.371 48.64H102.331V49.6H100.591ZM95.3313 39.86V39H102.331V39.86H95.3313ZM109.613 49.84C108.72 49.84 107.947 49.6867 107.293 49.38C106.64 49.06 106.107 48.64 105.693 48.12C105.28 47.5867 104.967 46.9933 104.753 46.34C104.553 45.6733 104.453 45 104.453 44.32V44.12C104.453 43.4267 104.553 42.76 104.753 42.12C104.967 41.48 105.28 40.9 105.693 40.38C106.12 39.8467 106.647 39.4333 107.273 39.14C107.913 38.8333 108.653 38.68 109.493 38.68C110.56 38.68 111.453 38.92 112.173 39.4C112.907 39.8667 113.46 40.48 113.833 41.24C114.207 42 114.393 42.8 114.393 43.64V44.36H104.953V43.48H113.693L113.373 43.88C113.373 43.0667 113.22 42.34 112.913 41.7C112.62 41.06 112.18 40.56 111.593 40.2C111.02 39.8267 110.32 39.64 109.493 39.64C108.6 39.64 107.853 39.8467 107.253 40.26C106.653 40.6733 106.2 41.2267 105.893 41.92C105.6 42.6133 105.453 43.38 105.453 44.22C105.453 45.06 105.6 45.8333 105.893 46.54C106.2 47.2333 106.66 47.8 107.273 48.24C107.887 48.6667 108.667 48.88 109.613 48.88C110.627 48.88 111.44 48.6467 112.053 48.18C112.68 47.7133 113.06 47.1533 113.193 46.5H114.233C114.087 47.1533 113.807 47.7333 113.393 48.24C112.98 48.7467 112.453 49.14 111.813 49.42C111.187 49.7 110.453 49.84 109.613 49.84ZM117.443 49.5V39H118.283V43.44H118.123C118.123 41.92 118.463 40.7867 119.143 40.04C119.823 39.2933 120.923 38.92 122.443 38.92H122.803V39.88H122.243C121.003 39.88 120.069 40.2 119.443 40.84C118.816 41.4667 118.503 42.3933 118.503 43.62V49.5H117.443Z" fill="#404040"/>
<g clip-path="url(#clip0_1008_1004)">
<g filter="url(#filter0_ddiiii_1008_1004)">
<rect x="163" y="23.5" width="49" height="38" rx="15" fill="#ECECEC"/>
<path d="M178.462 47.5L182.228 37.28H184.132L188.024 47.5H186.932L183.306 37.952L183.88 38.246H182.41L183.012 37.952L179.526 47.5H178.462ZM180.478 44.252L180.828 43.286H185.574L185.938 44.252H180.478ZM189.846 47.5V37.28H190.896V47.5H189.846ZM188.768 38.134V37.28H190.896V38.134H188.768ZM193.688 47.5V37.28H194.738V47.5H193.688ZM192.61 38.134V37.28H194.738V38.134H192.61Z" fill="url(#paint0_radial_1008_1004)"/>
</g>
<g filter="url(#filter1_ddddii_1008_1004)">
<rect x="229" y="23.5" width="90" height="38" rx="15" fill="url(#paint1_linear_1008_1004)"/>
<path d="M248.872 47.738C248.013 47.738 247.29 47.6027 246.702 47.332C246.114 47.052 245.666 46.6693 245.358 46.184C245.059 45.6893 244.91 45.134 244.91 44.518H245.974C245.974 44.91 246.067 45.2787 246.254 45.624C246.45 45.96 246.758 46.2353 247.178 46.45C247.607 46.6553 248.172 46.758 248.872 46.758C249.516 46.758 250.048 46.6647 250.468 46.478C250.897 46.2913 251.215 46.0393 251.42 45.722C251.635 45.4047 251.742 45.05 251.742 44.658C251.742 44.1633 251.546 43.7527 251.154 43.426C250.771 43.09 250.193 42.8893 249.418 42.824L248.242 42.712C247.365 42.6373 246.665 42.3667 246.142 41.9C245.629 41.424 245.372 40.7987 245.372 40.024C245.372 39.436 245.512 38.918 245.792 38.47C246.072 38.022 246.469 37.6673 246.982 37.406C247.505 37.1447 248.13 37.014 248.858 37.014C249.595 37.014 250.225 37.1493 250.748 37.42C251.28 37.6813 251.686 38.0453 251.966 38.512C252.246 38.9787 252.386 39.52 252.386 40.136H251.322C251.322 39.7627 251.238 39.4127 251.07 39.086C250.902 38.7593 250.636 38.498 250.272 38.302C249.908 38.0967 249.437 37.994 248.858 37.994C248.307 37.994 247.85 38.0873 247.486 38.274C247.131 38.4607 246.865 38.708 246.688 39.016C246.52 39.324 246.436 39.66 246.436 40.024C246.436 40.4813 246.599 40.8687 246.926 41.186C247.253 41.5033 247.724 41.6853 248.34 41.732L249.516 41.844C250.207 41.9 250.795 42.054 251.28 42.306C251.775 42.5487 252.153 42.8707 252.414 43.272C252.675 43.664 252.806 44.126 252.806 44.658C252.806 45.2553 252.643 45.7873 252.316 46.254C251.999 46.7207 251.546 47.0847 250.958 47.346C250.37 47.6073 249.675 47.738 248.872 47.738ZM254.462 50.384V49.446H255.414C255.74 49.446 256.02 49.404 256.254 49.32C256.487 49.2453 256.683 49.11 256.842 48.914C257 48.718 257.136 48.4473 257.248 48.102L259.74 40.094H260.762L258.158 48.396C258.008 48.872 257.803 49.2547 257.542 49.544C257.28 49.8427 256.968 50.0573 256.604 50.188C256.24 50.3187 255.824 50.384 255.358 50.384H254.462ZM256.87 47.318V46.436H258.2V47.318H256.87ZM256.744 47.318L254.056 40.094H255.134L257.724 47.318H256.744ZM264.895 47.71C263.943 47.71 263.211 47.5047 262.697 47.094C262.184 46.674 261.923 46.114 261.913 45.414H262.893C262.912 45.7687 263.071 46.0907 263.369 46.38C263.677 46.6693 264.186 46.814 264.895 46.814C265.558 46.814 266.053 46.6787 266.379 46.408C266.715 46.128 266.883 45.792 266.883 45.4C266.883 45.036 266.743 44.756 266.463 44.56C266.193 44.3547 265.796 44.224 265.273 44.168L264.433 44.084C263.761 44.0093 263.215 43.804 262.795 43.468C262.385 43.1227 262.179 42.6513 262.179 42.054C262.179 41.6153 262.291 41.2327 262.515 40.906C262.739 40.5793 263.052 40.3273 263.453 40.15C263.864 39.9633 264.345 39.87 264.895 39.87C265.689 39.87 266.333 40.0567 266.827 40.43C267.331 40.8033 267.588 41.3353 267.597 42.026H266.617C266.608 41.6713 266.459 41.3727 266.169 41.13C265.88 40.8873 265.455 40.766 264.895 40.766C264.317 40.766 263.883 40.892 263.593 41.144C263.313 41.396 263.173 41.704 263.173 42.068C263.173 42.376 263.281 42.6327 263.495 42.838C263.71 43.034 264.046 43.1553 264.503 43.202L265.343 43.286C266.09 43.37 266.697 43.5847 267.163 43.93C267.639 44.2753 267.877 44.77 267.877 45.414C267.877 45.8527 267.751 46.2493 267.499 46.604C267.257 46.9493 266.911 47.22 266.463 47.416C266.015 47.612 265.493 47.71 264.895 47.71ZM272.655 47.584C272.142 47.584 271.699 47.5093 271.325 47.36C270.952 47.2107 270.663 46.9587 270.457 46.604C270.252 46.24 270.149 45.7547 270.149 45.148V37.756H271.157V45.302C271.157 45.7313 271.274 46.0627 271.507 46.296C271.741 46.52 272.072 46.632 272.501 46.632H273.831V47.584H272.655ZM268.819 40.892V40.094H273.831V40.892H268.819ZM278.886 47.738C278.251 47.738 277.7 47.6307 277.234 47.416C276.767 47.192 276.384 46.898 276.086 46.534C275.787 46.1607 275.563 45.7453 275.414 45.288C275.274 44.8307 275.204 44.3593 275.204 43.874V43.678C275.204 43.202 275.274 42.7353 275.414 42.278C275.563 41.8207 275.787 41.41 276.086 41.046C276.384 40.682 276.758 40.3927 277.206 40.178C277.663 39.954 278.195 39.842 278.802 39.842C279.576 39.842 280.22 40.0147 280.734 40.36C281.256 40.7053 281.648 41.1487 281.91 41.69C282.171 42.222 282.302 42.796 282.302 43.412V43.958H275.68V43.146H281.574L281.308 43.552C281.308 43.0013 281.21 42.5207 281.014 42.11C280.827 41.69 280.547 41.3633 280.174 41.13C279.81 40.8873 279.352 40.766 278.802 40.766C278.223 40.766 277.742 40.9013 277.36 41.172C276.977 41.4427 276.688 41.802 276.492 42.25C276.305 42.698 276.212 43.2067 276.212 43.776C276.212 44.336 276.305 44.8493 276.492 45.316C276.688 45.7733 276.982 46.1373 277.374 46.408C277.775 46.6787 278.279 46.814 278.886 46.814C279.53 46.814 280.052 46.6693 280.454 46.38C280.855 46.0813 281.102 45.7313 281.196 45.33H282.176C282.082 45.8247 281.886 46.254 281.588 46.618C281.289 46.9727 280.911 47.248 280.454 47.444C279.996 47.64 279.474 47.738 278.886 47.738ZM284.323 47.5V40.08H285.163V43.202H284.995C284.995 42.5207 285.088 41.9327 285.275 41.438C285.471 40.9433 285.76 40.5607 286.143 40.29C286.526 40.01 287.011 39.87 287.599 39.87H287.641C288.229 39.87 288.714 40.0053 289.097 40.276C289.48 40.5467 289.764 40.9293 289.951 41.424C290.138 41.9187 290.231 42.5113 290.231 43.202H289.895C289.895 42.5207 289.988 41.9327 290.175 41.438C290.371 40.9433 290.66 40.5607 291.043 40.29C291.435 40.01 291.925 39.87 292.513 39.87H292.555C293.143 39.87 293.628 40.0053 294.011 40.276C294.403 40.5467 294.692 40.9293 294.879 41.424C295.075 41.9187 295.173 42.5113 295.173 43.202V47.5H294.123V42.964C294.123 42.3107 293.964 41.7927 293.647 41.41C293.33 41.0273 292.872 40.836 292.275 40.836C291.659 40.836 291.169 41.0367 290.805 41.438C290.45 41.83 290.273 42.362 290.273 43.034V47.5H289.223V42.964C289.223 42.3107 289.064 41.7927 288.747 41.41C288.43 41.0273 287.972 40.836 287.375 40.836C286.759 40.836 286.269 41.0367 285.905 41.438C285.55 41.83 285.373 42.362 285.373 43.034V47.5H284.323ZM300.128 47.71C299.176 47.71 298.443 47.5047 297.93 47.094C297.416 46.674 297.155 46.114 297.146 45.414H298.126C298.144 45.7687 298.303 46.0907 298.602 46.38C298.91 46.6693 299.418 46.814 300.128 46.814C300.79 46.814 301.285 46.6787 301.612 46.408C301.948 46.128 302.116 45.792 302.116 45.4C302.116 45.036 301.976 44.756 301.696 44.56C301.425 44.3547 301.028 44.224 300.506 44.168L299.666 44.084C298.994 44.0093 298.448 43.804 298.028 43.468C297.617 43.1227 297.412 42.6513 297.412 42.054C297.412 41.6153 297.524 41.2327 297.748 40.906C297.972 40.5793 298.284 40.3273 298.686 40.15C299.096 39.9633 299.577 39.87 300.128 39.87C300.921 39.87 301.565 40.0567 302.06 40.43C302.564 40.8033 302.82 41.3353 302.83 42.026H301.85C301.84 41.6713 301.691 41.3727 301.402 41.13C301.112 40.8873 300.688 40.766 300.128 40.766C299.549 40.766 299.115 40.892 298.826 41.144C298.546 41.396 298.406 41.704 298.406 42.068C298.406 42.376 298.513 42.6327 298.728 42.838C298.942 43.034 299.278 43.1553 299.736 43.202L300.576 43.286C301.322 43.37 301.929 43.5847 302.396 43.93C302.872 44.2753 303.11 44.77 303.11 45.414C303.11 45.8527 302.984 46.2493 302.732 46.604C302.489 46.9493 302.144 47.22 301.696 47.416C301.248 47.612 300.725 47.71 300.128 47.71Z" fill="#717171"/>
</g>
<g filter="url(#filter2_ddddii_1008_1004)">
<rect x="336" y="23.5" width="144" height="38" rx="15" fill="url(#paint2_linear_1008_1004)"/>
<path d="M351.462 47.5L355.228 37.28H357.132L361.024 47.5H359.932L356.306 37.952L356.88 38.246H355.41L356.012 37.952L352.526 47.5H351.462ZM353.478 44.252L353.828 43.286H358.574L358.938 44.252H353.478ZM363.236 47.5V40.094H364.272V47.5H363.236ZM362.046 40.934V40.094H364.272V40.934H362.046ZM363.46 38.722C363.208 38.722 363.017 38.6567 362.886 38.526C362.765 38.386 362.704 38.2133 362.704 38.008C362.704 37.8027 362.765 37.6347 362.886 37.504C363.017 37.364 363.208 37.294 363.46 37.294C363.712 37.294 363.899 37.364 364.02 37.504C364.142 37.6347 364.202 37.8027 364.202 38.008C364.202 38.2133 364.142 38.386 364.02 38.526C363.899 38.6567 363.712 38.722 363.46 38.722ZM372.592 45.946V39.408H373.516V45.946H372.592ZM369.96 43.104V42.264H376.148V43.104H369.96ZM380.898 47.5L384.664 37.28H386.568L390.46 47.5H389.368L385.742 37.952L386.316 38.246H384.846L385.448 37.952L381.962 47.5H380.898ZM382.914 44.252L383.264 43.286H388.01L388.374 44.252H382.914ZM394.774 47.71C393.887 47.71 393.21 47.4253 392.744 46.856C392.277 46.2773 392.044 45.4747 392.044 44.448V40.08H393.08V44.658C393.08 45.302 393.248 45.8153 393.584 46.198C393.929 46.5713 394.405 46.758 395.012 46.758C395.646 46.758 396.15 46.5573 396.524 46.156C396.906 45.7547 397.098 45.218 397.098 44.546V40.08H398.148V47.5H397.308V44.406H397.476C397.476 45.0967 397.378 45.6893 397.182 46.184C396.986 46.6693 396.692 47.0473 396.3 47.318C395.908 47.5793 395.413 47.71 394.816 47.71H394.774ZM403.581 47.584C403.068 47.584 402.624 47.5093 402.251 47.36C401.878 47.2107 401.588 46.9587 401.383 46.604C401.178 46.24 401.075 45.7547 401.075 45.148V37.756H402.083V45.302C402.083 45.7313 402.2 46.0627 402.433 46.296C402.666 46.52 402.998 46.632 403.427 46.632H404.757V47.584H403.581ZM399.745 40.892V40.094H404.757V40.892H399.745ZM410.035 47.738C409.401 47.738 408.841 47.6307 408.355 47.416C407.879 47.192 407.473 46.898 407.137 46.534C406.811 46.1607 406.559 45.7453 406.381 45.288C406.213 44.8307 406.129 44.364 406.129 43.888V43.692C406.129 43.216 406.218 42.7493 406.395 42.292C406.573 41.8253 406.829 41.41 407.165 41.046C407.501 40.682 407.907 40.3927 408.383 40.178C408.869 39.954 409.419 39.842 410.035 39.842C410.661 39.842 411.211 39.954 411.687 40.178C412.173 40.3927 412.583 40.682 412.919 41.046C413.255 41.41 413.507 41.8253 413.675 42.292C413.853 42.7493 413.941 43.216 413.941 43.692V43.888C413.941 44.364 413.857 44.8307 413.689 45.288C413.521 45.7453 413.269 46.1607 412.933 46.534C412.607 46.898 412.201 47.192 411.715 47.416C411.23 47.6307 410.67 47.738 410.035 47.738ZM410.035 46.8C410.651 46.8 411.169 46.6647 411.589 46.394C412.019 46.114 412.345 45.75 412.569 45.302C412.793 44.8447 412.905 44.3407 412.905 43.79C412.905 43.23 412.789 42.726 412.555 42.278C412.331 41.8207 412.005 41.4613 411.575 41.2C411.146 40.9293 410.633 40.794 410.035 40.794C409.447 40.794 408.939 40.9293 408.509 41.2C408.08 41.4613 407.749 41.8207 407.515 42.278C407.291 42.726 407.179 43.23 407.179 43.79C407.179 44.3407 407.291 44.8447 407.515 45.302C407.739 45.75 408.061 46.114 408.481 46.394C408.911 46.6647 409.429 46.8 410.035 46.8ZM416.083 47.5V40.08H416.923V43.202H416.755C416.755 42.5207 416.848 41.9327 417.035 41.438C417.231 40.9433 417.52 40.5607 417.903 40.29C418.285 40.01 418.771 39.87 419.359 39.87H419.401C419.989 39.87 420.474 40.0053 420.857 40.276C421.239 40.5467 421.524 40.9293 421.711 41.424C421.897 41.9187 421.991 42.5113 421.991 43.202H421.655C421.655 42.5207 421.748 41.9327 421.935 41.438C422.131 40.9433 422.42 40.5607 422.803 40.29C423.195 40.01 423.685 39.87 424.273 39.87H424.315C424.903 39.87 425.388 40.0053 425.771 40.276C426.163 40.5467 426.452 40.9293 426.639 41.424C426.835 41.9187 426.933 42.5113 426.933 43.202V47.5H425.883V42.964C425.883 42.3107 425.724 41.7927 425.407 41.41C425.089 41.0273 424.632 40.836 424.035 40.836C423.419 40.836 422.929 41.0367 422.565 41.438C422.21 41.83 422.033 42.362 422.033 43.034V47.5H420.983V42.964C420.983 42.3107 420.824 41.7927 420.507 41.41C420.189 41.0273 419.732 40.836 419.135 40.836C418.519 40.836 418.029 41.0367 417.665 41.438C417.31 41.83 417.133 42.362 417.133 43.034V47.5H416.083ZM434.057 47.5V45.274H433.889V42.642C433.889 42.0913 433.745 41.6713 433.455 41.382C433.166 41.0833 432.718 40.934 432.111 40.934C431.831 40.934 431.547 40.9387 431.257 40.948C430.977 40.9573 430.707 40.9713 430.445 40.99C430.193 40.9993 429.969 41.0133 429.773 41.032V40.108C429.979 40.0893 430.189 40.0707 430.403 40.052C430.618 40.0333 430.837 40.024 431.061 40.024C431.295 40.0147 431.519 40.01 431.733 40.01C432.489 40.01 433.096 40.1033 433.553 40.29C434.02 40.4767 434.361 40.7707 434.575 41.172C434.79 41.564 434.897 42.0867 434.897 42.74V47.5H434.057ZM431.551 47.696C431.029 47.696 430.567 47.6027 430.165 47.416C429.764 47.2293 429.451 46.9587 429.227 46.604C429.013 46.2493 428.905 45.82 428.905 45.316C428.905 44.8213 429.017 44.4013 429.241 44.056C429.475 43.7107 429.806 43.4493 430.235 43.272C430.674 43.0853 431.201 42.992 431.817 42.992H433.987V43.79H431.747C431.159 43.79 430.707 43.9347 430.389 44.224C430.081 44.504 429.927 44.8727 429.927 45.33C429.927 45.7967 430.091 46.17 430.417 46.45C430.744 46.7207 431.187 46.856 431.747 46.856C432.093 46.856 432.424 46.7953 432.741 46.674C433.059 46.5433 433.325 46.3287 433.539 46.03C433.754 45.722 433.871 45.302 433.889 44.77L434.197 45.204C434.16 45.7547 434.029 46.2167 433.805 46.59C433.581 46.954 433.278 47.2293 432.895 47.416C432.513 47.6027 432.065 47.696 431.551 47.696ZM440.208 47.584C439.695 47.584 439.251 47.5093 438.878 47.36C438.505 47.2107 438.215 46.9587 438.01 46.604C437.805 46.24 437.702 45.7547 437.702 45.148V37.756H438.71V45.302C438.71 45.7313 438.827 46.0627 439.06 46.296C439.293 46.52 439.625 46.632 440.054 46.632H441.384V47.584H440.208ZM436.372 40.892V40.094H441.384V40.892H436.372ZM443.805 47.5V40.094H444.841V47.5H443.805ZM442.615 40.934V40.094H444.841V40.934H442.615ZM444.029 38.722C443.777 38.722 443.585 38.6567 443.455 38.526C443.333 38.386 443.273 38.2133 443.273 38.008C443.273 37.8027 443.333 37.6347 443.455 37.504C443.585 37.364 443.777 37.294 444.029 37.294C444.281 37.294 444.467 37.364 444.589 37.504C444.71 37.6347 444.771 37.8027 444.771 38.008C444.771 38.2133 444.71 38.386 444.589 38.526C444.467 38.6567 444.281 38.722 444.029 38.722ZM450.914 47.738C450.28 47.738 449.72 47.6307 449.234 47.416C448.758 47.192 448.352 46.898 448.016 46.534C447.69 46.1607 447.438 45.7453 447.26 45.288C447.092 44.8307 447.008 44.364 447.008 43.888V43.692C447.008 43.216 447.097 42.7493 447.274 42.292C447.452 41.8253 447.708 41.41 448.044 41.046C448.38 40.682 448.786 40.3927 449.262 40.178C449.748 39.954 450.298 39.842 450.914 39.842C451.54 39.842 452.09 39.954 452.566 40.178C453.052 40.3927 453.462 40.682 453.798 41.046C454.134 41.41 454.386 41.8253 454.554 42.292C454.732 42.7493 454.82 43.216 454.82 43.692V43.888C454.82 44.364 454.736 44.8307 454.568 45.288C454.4 45.7453 454.148 46.1607 453.812 46.534C453.486 46.898 453.08 47.192 452.594 47.416C452.109 47.6307 451.549 47.738 450.914 47.738ZM450.914 46.8C451.53 46.8 452.048 46.6647 452.468 46.394C452.898 46.114 453.224 45.75 453.448 45.302C453.672 44.8447 453.784 44.3407 453.784 43.79C453.784 43.23 453.668 42.726 453.434 42.278C453.21 41.8207 452.884 41.4613 452.454 41.2C452.025 40.9293 451.512 40.794 450.914 40.794C450.326 40.794 449.818 40.9293 449.388 41.2C448.959 41.4613 448.628 41.8207 448.394 42.278C448.17 42.726 448.058 43.23 448.058 43.79C448.058 44.3407 448.17 44.8447 448.394 45.302C448.618 45.75 448.94 46.114 449.36 46.394C449.79 46.6647 450.308 46.8 450.914 46.8ZM456.962 47.5V40.094H457.802V43.202H457.634C457.634 42.5113 457.736 41.9187 457.942 41.424C458.147 40.9293 458.455 40.5467 458.866 40.276C459.276 40.0053 459.794 39.87 460.42 39.87H460.462C461.395 39.87 462.09 40.164 462.548 40.752C463.005 41.3307 463.234 42.1473 463.234 43.202V47.5H462.198V42.978C462.198 42.334 462.02 41.816 461.666 41.424C461.311 41.032 460.816 40.836 460.182 40.836C459.528 40.836 459.001 41.0413 458.6 41.452C458.208 41.8533 458.012 42.3853 458.012 43.048V47.5H456.962Z" fill="#717171"/>
</g>
<g filter="url(#filter3_ddddii_1008_1004)">
<rect x="497" y="23.5" width="95" height="38" rx="15" fill="url(#paint3_linear_1008_1004)"/>
<path d="M513.596 47.5V37.238H514.66V47.5H513.596ZM519.938 47.5L516.452 42.978H517.698L521.24 47.5H519.938ZM514.226 43.622V42.67H516.97C517.474 42.67 517.894 42.572 518.23 42.376C518.566 42.18 518.818 41.914 518.986 41.578C519.154 41.242 519.238 40.8593 519.238 40.43C519.238 40.0007 519.154 39.618 518.986 39.282C518.818 38.946 518.566 38.68 518.23 38.484C517.894 38.2787 517.474 38.176 516.97 38.176H514.226V37.238H516.788C517.544 37.238 518.183 37.3593 518.706 37.602C519.238 37.8353 519.639 38.1853 519.91 38.652C520.19 39.1093 520.33 39.6693 520.33 40.332V40.528C520.33 41.1907 520.19 41.7553 519.91 42.222C519.63 42.6793 519.229 43.0293 518.706 43.272C518.183 43.5053 517.544 43.622 516.788 43.622H514.226ZM525.927 47.738C525.292 47.738 524.741 47.6307 524.275 47.416C523.808 47.192 523.425 46.898 523.127 46.534C522.828 46.1607 522.604 45.7453 522.455 45.288C522.315 44.8307 522.245 44.3593 522.245 43.874V43.678C522.245 43.202 522.315 42.7353 522.455 42.278C522.604 41.8207 522.828 41.41 523.127 41.046C523.425 40.682 523.799 40.3927 524.247 40.178C524.704 39.954 525.236 39.842 525.843 39.842C526.617 39.842 527.261 40.0147 527.775 40.36C528.297 40.7053 528.689 41.1487 528.951 41.69C529.212 42.222 529.343 42.796 529.343 43.412V43.958H522.721V43.146H528.615L528.349 43.552C528.349 43.0013 528.251 42.5207 528.055 42.11C527.868 41.69 527.588 41.3633 527.215 41.13C526.851 40.8873 526.393 40.766 525.843 40.766C525.264 40.766 524.783 40.9013 524.401 41.172C524.018 41.4427 523.729 41.802 523.533 42.25C523.346 42.698 523.253 43.2067 523.253 43.776C523.253 44.336 523.346 44.8493 523.533 45.316C523.729 45.7733 524.023 46.1373 524.415 46.408C524.816 46.6787 525.32 46.814 525.927 46.814C526.571 46.814 527.093 46.6693 527.495 46.38C527.896 46.0813 528.143 45.7313 528.237 45.33H529.217C529.123 45.8247 528.927 46.254 528.629 46.618C528.33 46.9727 527.952 47.248 527.495 47.444C527.037 47.64 526.515 47.738 525.927 47.738ZM533.702 47.71C532.75 47.71 532.017 47.5047 531.504 47.094C530.991 46.674 530.729 46.114 530.72 45.414H531.7C531.719 45.7687 531.877 46.0907 532.176 46.38C532.484 46.6693 532.993 46.814 533.702 46.814C534.365 46.814 534.859 46.6787 535.186 46.408C535.522 46.128 535.69 45.792 535.69 45.4C535.69 45.036 535.55 44.756 535.27 44.56C534.999 44.3547 534.603 44.224 534.08 44.168L533.24 44.084C532.568 44.0093 532.022 43.804 531.602 43.468C531.191 43.1227 530.986 42.6513 530.986 42.054C530.986 41.6153 531.098 41.2327 531.322 40.906C531.546 40.5793 531.859 40.3273 532.26 40.15C532.671 39.9633 533.151 39.87 533.702 39.87C534.495 39.87 535.139 40.0567 535.634 40.43C536.138 40.8033 536.395 41.3353 536.404 42.026H535.424C535.415 41.6713 535.265 41.3727 534.976 41.13C534.687 40.8873 534.262 40.766 533.702 40.766C533.123 40.766 532.689 40.892 532.4 41.144C532.12 41.396 531.98 41.704 531.98 42.068C531.98 42.376 532.087 42.6327 532.302 42.838C532.517 43.034 532.853 43.1553 533.31 43.202L534.15 43.286C534.897 43.37 535.503 43.5847 535.97 43.93C536.446 44.2753 536.684 44.77 536.684 45.414C536.684 45.8527 536.558 46.2493 536.306 46.604C536.063 46.9493 535.718 47.22 535.27 47.416C534.822 47.612 534.299 47.71 533.702 47.71ZM541.868 47.738C541.233 47.738 540.683 47.6307 540.216 47.416C539.749 47.192 539.367 46.898 539.068 46.534C538.769 46.1607 538.545 45.7453 538.396 45.288C538.256 44.8307 538.186 44.3593 538.186 43.874V43.678C538.186 43.202 538.256 42.7353 538.396 42.278C538.545 41.8207 538.769 41.41 539.068 41.046C539.367 40.682 539.74 40.3927 540.188 40.178C540.645 39.954 541.177 39.842 541.784 39.842C542.559 39.842 543.203 40.0147 543.716 40.36C544.239 40.7053 544.631 41.1487 544.892 41.69C545.153 42.222 545.284 42.796 545.284 43.412V43.958H538.662V43.146H544.556L544.29 43.552C544.29 43.0013 544.192 42.5207 543.996 42.11C543.809 41.69 543.529 41.3633 543.156 41.13C542.792 40.8873 542.335 40.766 541.784 40.766C541.205 40.766 540.725 40.9013 540.342 41.172C539.959 41.4427 539.67 41.802 539.474 42.25C539.287 42.698 539.194 43.2067 539.194 43.776C539.194 44.336 539.287 44.8493 539.474 45.316C539.67 45.7733 539.964 46.1373 540.356 46.408C540.757 46.6787 541.261 46.814 541.868 46.814C542.512 46.814 543.035 46.6693 543.436 46.38C543.837 46.0813 544.085 45.7313 544.178 45.33H545.158C545.065 45.8247 544.869 46.254 544.57 46.618C544.271 46.9727 543.893 47.248 543.436 47.444C542.979 47.64 542.456 47.738 541.868 47.738ZM551.813 47.5V45.274H551.645V42.642C551.645 42.0913 551.501 41.6713 551.211 41.382C550.922 41.0833 550.474 40.934 549.867 40.934C549.587 40.934 549.303 40.9387 549.013 40.948C548.733 40.9573 548.463 40.9713 548.201 40.99C547.949 40.9993 547.725 41.0133 547.529 41.032V40.108C547.735 40.0893 547.945 40.0707 548.159 40.052C548.374 40.0333 548.593 40.024 548.817 40.024C549.051 40.0147 549.275 40.01 549.489 40.01C550.245 40.01 550.852 40.1033 551.309 40.29C551.776 40.4767 552.117 40.7707 552.331 41.172C552.546 41.564 552.653 42.0867 552.653 42.74V47.5H551.813ZM549.307 47.696C548.785 47.696 548.323 47.6027 547.921 47.416C547.52 47.2293 547.207 46.9587 546.983 46.604C546.769 46.2493 546.661 45.82 546.661 45.316C546.661 44.8213 546.773 44.4013 546.997 44.056C547.231 43.7107 547.562 43.4493 547.991 43.272C548.43 43.0853 548.957 42.992 549.573 42.992H551.743V43.79H549.503C548.915 43.79 548.463 43.9347 548.145 44.224C547.837 44.504 547.683 44.8727 547.683 45.33C547.683 45.7967 547.847 46.17 548.173 46.45C548.5 46.7207 548.943 46.856 549.503 46.856C549.849 46.856 550.18 46.7953 550.497 46.674C550.815 46.5433 551.081 46.3287 551.295 46.03C551.51 45.722 551.627 45.302 551.645 44.77L551.953 45.204C551.916 45.7547 551.785 46.2167 551.561 46.59C551.337 46.954 551.034 47.2293 550.651 47.416C550.269 47.6027 549.821 47.696 549.307 47.696ZM555.276 47.5V40.094H556.116V43.188H556.032C556.032 42.1053 556.27 41.3073 556.746 40.794C557.222 40.2713 557.969 40.01 558.986 40.01H559.224V40.962H558.79C557.987 40.962 557.376 41.172 556.956 41.592C556.536 42.0027 556.326 42.6093 556.326 43.412V47.5H555.276ZM563.949 47.738C563.323 47.738 562.777 47.6307 562.311 47.416C561.853 47.192 561.471 46.8933 561.163 46.52C560.855 46.1373 560.621 45.7173 560.463 45.26C560.313 44.8027 560.239 44.3407 560.239 43.874V43.678C560.239 43.202 560.313 42.74 560.463 42.292C560.621 41.8347 560.855 41.424 561.163 41.06C561.471 40.6867 561.853 40.3927 562.311 40.178C562.777 39.954 563.314 39.842 563.921 39.842C564.537 39.842 565.083 39.954 565.559 40.178C566.044 40.402 566.436 40.7193 566.735 41.13C567.033 41.5407 567.211 42.026 567.267 42.586H566.259C566.175 42.0727 565.932 41.648 565.531 41.312C565.139 40.9667 564.602 40.794 563.921 40.794C563.333 40.794 562.843 40.9293 562.451 41.2C562.068 41.4613 561.779 41.8207 561.583 42.278C561.387 42.726 561.289 43.2253 561.289 43.776C561.289 44.3173 561.387 44.8213 561.583 45.288C561.779 45.7453 562.073 46.114 562.465 46.394C562.857 46.6647 563.351 46.8 563.949 46.8C564.406 46.8 564.803 46.7207 565.139 46.562C565.484 46.394 565.759 46.17 565.965 45.89C566.179 45.61 566.305 45.302 566.343 44.966H567.351C567.313 45.526 567.136 46.016 566.819 46.436C566.511 46.8467 566.109 47.1687 565.615 47.402C565.12 47.626 564.565 47.738 563.949 47.738ZM569.276 47.5V37.28H570.326V43.062L570.018 43.3C570.018 42.6093 570.116 42.0073 570.312 41.494C570.517 40.9807 570.821 40.584 571.222 40.304C571.633 40.0147 572.146 39.87 572.762 39.87H572.818C573.714 39.87 574.391 40.164 574.848 40.752C575.315 41.34 575.548 42.1567 575.548 43.202V47.5H574.512V42.978C574.512 42.3153 574.33 41.7927 573.966 41.41C573.602 41.0273 573.112 40.836 572.496 40.836C571.833 40.836 571.306 41.0507 570.914 41.48C570.522 41.9 570.326 42.4553 570.326 43.146V47.5H569.276Z" fill="#717171"/>
</g>
<g filter="url(#filter4_ddddii_1008_1004)">
<rect x="609" y="23.5" width="123" height="38" rx="15" fill="url(#paint4_linear_1008_1004)"/>
<path d="M629.95 47.738C629.035 47.738 628.251 47.5793 627.598 47.262C626.954 46.9353 626.427 46.5107 626.016 45.988C625.615 45.4653 625.321 44.9007 625.134 44.294C624.947 43.678 624.854 43.0807 624.854 42.502V42.236C624.854 41.6107 624.947 40.99 625.134 40.374C625.33 39.7487 625.629 39.184 626.03 38.68C626.441 38.176 626.963 37.7747 627.598 37.476C628.233 37.168 628.984 37.014 629.852 37.014C630.729 37.014 631.485 37.168 632.12 37.476C632.764 37.784 633.277 38.218 633.66 38.778C634.043 39.3287 634.276 39.982 634.36 40.738H633.282C633.207 40.1313 633.011 39.6273 632.694 39.226C632.377 38.8153 631.971 38.5073 631.476 38.302C630.991 38.0967 630.449 37.994 629.852 37.994C629.208 37.994 628.639 38.1107 628.144 38.344C627.659 38.568 627.253 38.8853 626.926 39.296C626.599 39.6973 626.352 40.164 626.184 40.696C626.016 41.2187 625.932 41.7787 625.932 42.376C625.932 42.9453 626.011 43.4913 626.17 44.014C626.338 44.5367 626.59 45.008 626.926 45.428C627.262 45.8387 627.682 46.1653 628.186 46.408C628.69 46.6413 629.278 46.758 629.95 46.758C630.883 46.758 631.667 46.5247 632.302 46.058C632.937 45.582 633.329 44.9007 633.478 44.014H634.556C634.453 44.714 634.211 45.3487 633.828 45.918C633.445 46.478 632.927 46.9213 632.274 47.248C631.63 47.5747 630.855 47.738 629.95 47.738ZM640.981 47.5V45.274H640.813V42.642C640.813 42.0913 640.669 41.6713 640.379 41.382C640.09 41.0833 639.642 40.934 639.035 40.934C638.755 40.934 638.471 40.9387 638.181 40.948C637.901 40.9573 637.631 40.9713 637.369 40.99C637.117 40.9993 636.893 41.0133 636.697 41.032V40.108C636.903 40.0893 637.113 40.0707 637.327 40.052C637.542 40.0333 637.761 40.024 637.985 40.024C638.219 40.0147 638.443 40.01 638.657 40.01C639.413 40.01 640.02 40.1033 640.477 40.29C640.944 40.4767 641.285 40.7707 641.499 41.172C641.714 41.564 641.821 42.0867 641.821 42.74V47.5H640.981ZM638.475 47.696C637.953 47.696 637.491 47.6027 637.089 47.416C636.688 47.2293 636.375 46.9587 636.151 46.604C635.937 46.2493 635.829 45.82 635.829 45.316C635.829 44.8213 635.941 44.4013 636.165 44.056C636.399 43.7107 636.73 43.4493 637.159 43.272C637.598 43.0853 638.125 42.992 638.741 42.992H640.911V43.79H638.671C638.083 43.79 637.631 43.9347 637.313 44.224C637.005 44.504 636.851 44.8727 636.851 45.33C636.851 45.7967 637.015 46.17 637.341 46.45C637.668 46.7207 638.111 46.856 638.671 46.856C639.017 46.856 639.348 46.7953 639.665 46.674C639.983 46.5433 640.249 46.3287 640.463 46.03C640.678 45.722 640.795 45.302 640.813 44.77L641.121 45.204C641.084 45.7547 640.953 46.2167 640.729 46.59C640.505 46.954 640.202 47.2293 639.819 47.416C639.437 47.6027 638.989 47.696 638.475 47.696ZM646.782 47.71C645.83 47.71 645.097 47.5047 644.584 47.094C644.071 46.674 643.809 46.114 643.8 45.414H644.78C644.799 45.7687 644.957 46.0907 645.256 46.38C645.564 46.6693 646.073 46.814 646.782 46.814C647.445 46.814 647.939 46.6787 648.266 46.408C648.602 46.128 648.77 45.792 648.77 45.4C648.77 45.036 648.63 44.756 648.35 44.56C648.079 44.3547 647.683 44.224 647.16 44.168L646.32 44.084C645.648 44.0093 645.102 43.804 644.682 43.468C644.271 43.1227 644.066 42.6513 644.066 42.054C644.066 41.6153 644.178 41.2327 644.402 40.906C644.626 40.5793 644.939 40.3273 645.34 40.15C645.751 39.9633 646.231 39.87 646.782 39.87C647.575 39.87 648.219 40.0567 648.714 40.43C649.218 40.8033 649.475 41.3353 649.484 42.026H648.504C648.495 41.6713 648.345 41.3727 648.056 41.13C647.767 40.8873 647.342 40.766 646.782 40.766C646.203 40.766 645.769 40.892 645.48 41.144C645.2 41.396 645.06 41.704 645.06 42.068C645.06 42.376 645.167 42.6327 645.382 42.838C645.597 43.034 645.933 43.1553 646.39 43.202L647.23 43.286C647.977 43.37 648.583 43.5847 649.05 43.93C649.526 44.2753 649.764 44.77 649.764 45.414C649.764 45.8527 649.638 46.2493 649.386 46.604C649.143 46.9493 648.798 47.22 648.35 47.416C647.902 47.612 647.379 47.71 646.782 47.71ZM654.948 47.738C654.313 47.738 653.763 47.6307 653.296 47.416C652.829 47.192 652.447 46.898 652.148 46.534C651.849 46.1607 651.625 45.7453 651.476 45.288C651.336 44.8307 651.266 44.3593 651.266 43.874V43.678C651.266 43.202 651.336 42.7353 651.476 42.278C651.625 41.8207 651.849 41.41 652.148 41.046C652.447 40.682 652.82 40.3927 653.268 40.178C653.725 39.954 654.257 39.842 654.864 39.842C655.639 39.842 656.283 40.0147 656.796 40.36C657.319 40.7053 657.711 41.1487 657.972 41.69C658.233 42.222 658.364 42.796 658.364 43.412V43.958H651.742V43.146H657.636L657.37 43.552C657.37 43.0013 657.272 42.5207 657.076 42.11C656.889 41.69 656.609 41.3633 656.236 41.13C655.872 40.8873 655.415 40.766 654.864 40.766C654.285 40.766 653.805 40.9013 653.422 41.172C653.039 41.4427 652.75 41.802 652.554 42.25C652.367 42.698 652.274 43.2067 652.274 43.776C652.274 44.336 652.367 44.8493 652.554 45.316C652.75 45.7733 653.044 46.1373 653.436 46.408C653.837 46.6787 654.341 46.814 654.948 46.814C655.592 46.814 656.115 46.6693 656.516 46.38C656.917 46.0813 657.165 45.7313 657.258 45.33H658.238C658.145 45.8247 657.949 46.254 657.65 46.618C657.351 46.9727 656.973 47.248 656.516 47.444C656.059 47.64 655.536 47.738 654.948 47.738ZM667.167 47.738C666.308 47.738 665.585 47.6027 664.997 47.332C664.409 47.052 663.961 46.6693 663.653 46.184C663.354 45.6893 663.205 45.134 663.205 44.518H664.269C664.269 44.91 664.362 45.2787 664.549 45.624C664.745 45.96 665.053 46.2353 665.473 46.45C665.902 46.6553 666.467 46.758 667.167 46.758C667.811 46.758 668.343 46.6647 668.763 46.478C669.192 46.2913 669.51 46.0393 669.715 45.722C669.93 45.4047 670.037 45.05 670.037 44.658C670.037 44.1633 669.841 43.7527 669.449 43.426C669.066 43.09 668.488 42.8893 667.713 42.824L666.537 42.712C665.66 42.6373 664.96 42.3667 664.437 41.9C663.924 41.424 663.667 40.7987 663.667 40.024C663.667 39.436 663.807 38.918 664.087 38.47C664.367 38.022 664.764 37.6673 665.277 37.406C665.8 37.1447 666.425 37.014 667.153 37.014C667.89 37.014 668.52 37.1493 669.043 37.42C669.575 37.6813 669.981 38.0453 670.261 38.512C670.541 38.9787 670.681 39.52 670.681 40.136H669.617C669.617 39.7627 669.533 39.4127 669.365 39.086C669.197 38.7593 668.931 38.498 668.567 38.302C668.203 38.0967 667.732 37.994 667.153 37.994C666.602 37.994 666.145 38.0873 665.781 38.274C665.426 38.4607 665.16 38.708 664.983 39.016C664.815 39.324 664.731 39.66 664.731 40.024C664.731 40.4813 664.894 40.8687 665.221 41.186C665.548 41.5033 666.019 41.6853 666.635 41.732L667.811 41.844C668.502 41.9 669.09 42.054 669.575 42.306C670.07 42.5487 670.448 42.8707 670.709 43.272C670.97 43.664 671.101 44.126 671.101 44.658C671.101 45.2553 670.938 45.7873 670.611 46.254C670.294 46.7207 669.841 47.0847 669.253 47.346C668.665 47.6073 667.97 47.738 667.167 47.738ZM676.103 47.584C675.589 47.584 675.146 47.5093 674.773 47.36C674.399 47.2107 674.11 46.9587 673.905 46.604C673.699 46.24 673.597 45.7547 673.597 45.148V37.756H674.605V45.302C674.605 45.7313 674.721 46.0627 674.955 46.296C675.188 46.52 675.519 46.632 675.949 46.632H677.279V47.584H676.103ZM672.267 40.892V40.094H677.279V40.892H672.267ZM681.869 47.71C680.983 47.71 680.306 47.4253 679.839 46.856C679.373 46.2773 679.139 45.4747 679.139 44.448V40.08H680.175V44.658C680.175 45.302 680.343 45.8153 680.679 46.198C681.025 46.5713 681.501 46.758 682.107 46.758C682.742 46.758 683.246 46.5573 683.619 46.156C684.002 45.7547 684.193 45.218 684.193 44.546V40.08H685.243V47.5H684.403V44.406H684.571C684.571 45.0967 684.473 45.6893 684.277 46.184C684.081 46.6693 683.787 47.0473 683.395 47.318C683.003 47.5793 682.509 47.71 681.911 47.71H681.869ZM691.027 47.738C690.486 47.738 689.991 47.64 689.543 47.444C689.104 47.2387 688.722 46.9587 688.395 46.604C688.078 46.24 687.83 45.8293 687.653 45.372C687.485 44.9053 687.401 44.4107 687.401 43.888V43.692C687.401 43.188 687.485 42.7073 687.653 42.25C687.821 41.7833 688.059 41.3727 688.367 41.018C688.684 40.654 689.062 40.3693 689.501 40.164C689.949 39.9493 690.448 39.842 690.999 39.842C691.624 39.842 692.175 39.9773 692.651 40.248C693.127 40.5187 693.51 40.9107 693.799 41.424C694.088 41.928 694.242 42.5487 694.261 43.286L693.799 42.418V37.28H694.849V47.5H694.009V44.21H694.345C694.326 44.9847 694.163 45.638 693.855 46.17C693.556 46.6927 693.16 47.0847 692.665 47.346C692.18 47.6073 691.634 47.738 691.027 47.738ZM691.167 46.814C691.671 46.814 692.124 46.702 692.525 46.478C692.936 46.254 693.258 45.9367 693.491 45.526C693.724 45.106 693.841 44.6253 693.841 44.084V43.412C693.841 42.8893 693.724 42.432 693.491 42.04C693.258 41.6387 692.936 41.326 692.525 41.102C692.124 40.878 691.666 40.766 691.153 40.766C690.602 40.766 690.122 40.9013 689.711 41.172C689.31 41.4333 688.997 41.7927 688.773 42.25C688.558 42.7073 688.451 43.2207 688.451 43.79C688.451 44.378 688.563 44.9007 688.787 45.358C689.011 45.8153 689.328 46.1747 689.739 46.436C690.15 46.688 690.626 46.814 691.167 46.814ZM697.951 47.5V40.094H698.987V47.5H697.951ZM696.761 40.934V40.094H698.987V40.934H696.761ZM698.175 38.722C697.923 38.722 697.732 38.6567 697.601 38.526C697.48 38.386 697.419 38.2133 697.419 38.008C697.419 37.8027 697.48 37.6347 697.601 37.504C697.732 37.364 697.923 37.294 698.175 37.294C698.427 37.294 698.614 37.364 698.735 37.504C698.857 37.6347 698.917 37.8027 698.917 38.008C698.917 38.2133 698.857 38.386 698.735 38.526C698.614 38.6567 698.427 38.722 698.175 38.722ZM704.837 47.738C704.202 47.738 703.651 47.6307 703.185 47.416C702.718 47.192 702.335 46.898 702.037 46.534C701.738 46.1607 701.514 45.7453 701.365 45.288C701.225 44.8307 701.155 44.3593 701.155 43.874V43.678C701.155 43.202 701.225 42.7353 701.365 42.278C701.514 41.8207 701.738 41.41 702.037 41.046C702.335 40.682 702.709 40.3927 703.157 40.178C703.614 39.954 704.146 39.842 704.753 39.842C705.527 39.842 706.171 40.0147 706.685 40.36C707.207 40.7053 707.599 41.1487 707.861 41.69C708.122 42.222 708.253 42.796 708.253 43.412V43.958H701.631V43.146H707.525L707.259 43.552C707.259 43.0013 707.161 42.5207 706.965 42.11C706.778 41.69 706.498 41.3633 706.125 41.13C705.761 40.8873 705.303 40.766 704.753 40.766C704.174 40.766 703.693 40.9013 703.311 41.172C702.928 41.4427 702.639 41.802 702.443 42.25C702.256 42.698 702.163 43.2067 702.163 43.776C702.163 44.336 702.256 44.8493 702.443 45.316C702.639 45.7733 702.933 46.1373 703.325 46.408C703.726 46.6787 704.23 46.814 704.837 46.814C705.481 46.814 706.003 46.6693 706.405 46.38C706.806 46.0813 707.053 45.7313 707.147 45.33H708.127C708.033 45.8247 707.837 46.254 707.539 46.618C707.24 46.9727 706.862 47.248 706.405 47.444C705.947 47.64 705.425 47.738 704.837 47.738ZM712.612 47.71C711.66 47.71 710.927 47.5047 710.414 47.094C709.901 46.674 709.639 46.114 709.63 45.414H710.61C710.629 45.7687 710.787 46.0907 711.086 46.38C711.394 46.6693 711.903 46.814 712.612 46.814C713.275 46.814 713.769 46.6787 714.096 46.408C714.432 46.128 714.6 45.792 714.6 45.4C714.6 45.036 714.46 44.756 714.18 44.56C713.909 44.3547 713.513 44.224 712.99 44.168L712.15 44.084C711.478 44.0093 710.932 43.804 710.512 43.468C710.101 43.1227 709.896 42.6513 709.896 42.054C709.896 41.6153 710.008 41.2327 710.232 40.906C710.456 40.5793 710.769 40.3273 711.17 40.15C711.581 39.9633 712.061 39.87 712.612 39.87C713.405 39.87 714.049 40.0567 714.544 40.43C715.048 40.8033 715.305 41.3353 715.314 42.026H714.334C714.325 41.6713 714.175 41.3727 713.886 41.13C713.597 40.8873 713.172 40.766 712.612 40.766C712.033 40.766 711.599 40.892 711.31 41.144C711.03 41.396 710.89 41.704 710.89 42.068C710.89 42.376 710.997 42.6327 711.212 42.838C711.427 43.034 711.763 43.1553 712.22 43.202L713.06 43.286C713.807 43.37 714.413 43.5847 714.88 43.93C715.356 44.2753 715.594 44.77 715.594 45.414C715.594 45.8527 715.468 46.2493 715.216 46.604C714.973 46.9493 714.628 47.22 714.18 47.416C713.732 47.612 713.209 47.71 712.612 47.71Z" fill="#717171"/>
</g>
<g filter="url(#filter5_ddddii_1008_1004)">
<rect x="749" y="23.5" width="114" height="38" rx="15" fill="url(#paint5_linear_1008_1004)"/>
<path d="M765.596 47.5V37.28H766.66V47.5H765.596ZM766.38 42.782V41.816L770.902 41.802V42.768L766.38 42.782ZM766.38 38.232V37.28H771.168V38.232H766.38ZM773.069 47.5V40.094H773.909V43.188H773.825C773.825 42.1053 774.063 41.3073 774.539 40.794C775.015 40.2713 775.762 40.01 776.779 40.01H777.017V40.962H776.583C775.78 40.962 775.169 41.172 774.749 41.592C774.329 42.0027 774.119 42.6093 774.119 43.412V47.5H773.069ZM783.196 47.5V45.274H783.028V42.642C783.028 42.0913 782.883 41.6713 782.594 41.382C782.305 41.0833 781.857 40.934 781.25 40.934C780.97 40.934 780.685 40.9387 780.396 40.948C780.116 40.9573 779.845 40.9713 779.584 40.99C779.332 40.9993 779.108 41.0133 778.912 41.032V40.108C779.117 40.0893 779.327 40.0707 779.542 40.052C779.757 40.0333 779.976 40.024 780.2 40.024C780.433 40.0147 780.657 40.01 780.872 40.01C781.628 40.01 782.235 40.1033 782.692 40.29C783.159 40.4767 783.499 40.7707 783.714 41.172C783.929 41.564 784.036 42.0867 784.036 42.74V47.5H783.196ZM780.69 47.696C780.167 47.696 779.705 47.6027 779.304 47.416C778.903 47.2293 778.59 46.9587 778.366 46.604C778.151 46.2493 778.044 45.82 778.044 45.316C778.044 44.8213 778.156 44.4013 778.38 44.056C778.613 43.7107 778.945 43.4493 779.374 43.272C779.813 43.0853 780.34 42.992 780.956 42.992H783.126V43.79H780.886C780.298 43.79 779.845 43.9347 779.528 44.224C779.22 44.504 779.066 44.8727 779.066 45.33C779.066 45.7967 779.229 46.17 779.556 46.45C779.883 46.7207 780.326 46.856 780.886 46.856C781.231 46.856 781.563 46.7953 781.88 46.674C782.197 46.5433 782.463 46.3287 782.678 46.03C782.893 45.722 783.009 45.302 783.028 44.77L783.336 45.204C783.299 45.7547 783.168 46.2167 782.944 46.59C782.72 46.954 782.417 47.2293 782.034 47.416C781.651 47.6027 781.203 47.696 780.69 47.696ZM786.659 47.5V40.08H787.499V43.202H787.331C787.331 42.5207 787.424 41.9327 787.611 41.438C787.807 40.9433 788.096 40.5607 788.479 40.29C788.861 40.01 789.347 39.87 789.935 39.87H789.977C790.565 39.87 791.05 40.0053 791.433 40.276C791.815 40.5467 792.1 40.9293 792.287 41.424C792.473 41.9187 792.567 42.5113 792.567 43.202H792.231C792.231 42.5207 792.324 41.9327 792.511 41.438C792.707 40.9433 792.996 40.5607 793.379 40.29C793.771 40.01 794.261 39.87 794.849 39.87H794.891C795.479 39.87 795.964 40.0053 796.347 40.276C796.739 40.5467 797.028 40.9293 797.215 41.424C797.411 41.9187 797.509 42.5113 797.509 43.202V47.5H796.459V42.964C796.459 42.3107 796.3 41.7927 795.983 41.41C795.665 41.0273 795.208 40.836 794.611 40.836C793.995 40.836 793.505 41.0367 793.141 41.438C792.786 41.83 792.609 42.362 792.609 43.034V47.5H791.559V42.964C791.559 42.3107 791.4 41.7927 791.083 41.41C790.765 41.0273 790.308 40.836 789.711 40.836C789.095 40.836 788.605 41.0367 788.241 41.438C787.886 41.83 787.709 42.362 787.709 43.034V47.5H786.659ZM803.22 47.738C802.585 47.738 802.034 47.6307 801.568 47.416C801.101 47.192 800.718 46.898 800.42 46.534C800.121 46.1607 799.897 45.7453 799.748 45.288C799.608 44.8307 799.538 44.3593 799.538 43.874V43.678C799.538 43.202 799.608 42.7353 799.748 42.278C799.897 41.8207 800.121 41.41 800.42 41.046C800.718 40.682 801.092 40.3927 801.54 40.178C801.997 39.954 802.529 39.842 803.136 39.842C803.91 39.842 804.554 40.0147 805.068 40.36C805.59 40.7053 805.982 41.1487 806.244 41.69C806.505 42.222 806.636 42.796 806.636 43.412V43.958H800.014V43.146H805.908L805.642 43.552C805.642 43.0013 805.544 42.5207 805.348 42.11C805.161 41.69 804.881 41.3633 804.508 41.13C804.144 40.8873 803.686 40.766 803.136 40.766C802.557 40.766 802.076 40.9013 801.694 41.172C801.311 41.4427 801.022 41.802 800.826 42.25C800.639 42.698 800.546 43.2067 800.546 43.776C800.546 44.336 800.639 44.8493 800.826 45.316C801.022 45.7733 801.316 46.1373 801.708 46.408C802.109 46.6787 802.613 46.814 803.22 46.814C803.864 46.814 804.386 46.6693 804.788 46.38C805.189 46.0813 805.436 45.7313 805.53 45.33H806.51C806.416 45.8247 806.22 46.254 805.922 46.618C805.623 46.9727 805.245 47.248 804.788 47.444C804.33 47.64 803.808 47.738 803.22 47.738ZM813.856 47.5L811.028 37.28H812.12L814.682 46.814L814.192 46.534H815.55L815.018 46.814L817.104 37.728H818.112L815.816 47.5H813.856ZM820.002 47.5L817.482 37.728H818.518L820.842 46.814L820.324 46.534H821.71L821.178 46.814L823.488 37.28H824.552L821.962 47.5H820.002ZM829.393 47.738C828.758 47.738 828.198 47.6307 827.713 47.416C827.237 47.192 826.831 46.898 826.495 46.534C826.168 46.1607 825.916 45.7453 825.739 45.288C825.571 44.8307 825.487 44.364 825.487 43.888V43.692C825.487 43.216 825.575 42.7493 825.753 42.292C825.93 41.8253 826.187 41.41 826.523 41.046C826.859 40.682 827.265 40.3927 827.741 40.178C828.226 39.954 828.777 39.842 829.393 39.842C830.018 39.842 830.569 39.954 831.045 40.178C831.53 40.3927 831.941 40.682 832.277 41.046C832.613 41.41 832.865 41.8253 833.033 42.292C833.21 42.7493 833.299 43.216 833.299 43.692V43.888C833.299 44.364 833.215 44.8307 833.047 45.288C832.879 45.7453 832.627 46.1607 832.291 46.534C831.964 46.898 831.558 47.192 831.073 47.416C830.587 47.6307 830.027 47.738 829.393 47.738ZM829.393 46.8C830.009 46.8 830.527 46.6647 830.947 46.394C831.376 46.114 831.703 45.75 831.927 45.302C832.151 44.8447 832.263 44.3407 832.263 43.79C832.263 43.23 832.146 42.726 831.913 42.278C831.689 41.8207 831.362 41.4613 830.933 41.2C830.503 40.9293 829.99 40.794 829.393 40.794C828.805 40.794 828.296 40.9293 827.867 41.2C827.437 41.4613 827.106 41.8207 826.873 42.278C826.649 42.726 826.537 43.23 826.537 43.79C826.537 44.3407 826.649 44.8447 826.873 45.302C827.097 45.75 827.419 46.114 827.839 46.394C828.268 46.6647 828.786 46.8 829.393 46.8ZM835.44 47.5V40.094H836.28V43.188H836.196C836.196 42.1053 836.434 41.3073 836.91 40.794C837.386 40.2713 838.133 40.01 839.15 40.01H839.388V40.962H838.954C838.151 40.962 837.54 41.172 837.12 41.592C836.7 42.0027 836.49 42.6093 836.49 43.412V47.5H835.44ZM846.127 47.5L843.145 44.028H841.941L845.455 40.094H846.575L843.425 43.608L843.495 43.034L847.359 47.5H846.127ZM841.087 47.5V37.28H842.137V47.5H841.087Z" fill="#717171"/>
</g>
<g filter="url(#filter6_ddddii_1008_1004)">
<rect x="880" y="23.5" width="139" height="38" rx="15" fill="url(#paint6_linear_1008_1004)"/>
<path d="M898.584 47.5V37.98H899.648V47.5H898.584ZM895.392 38.246V37.28H902.84V38.246H895.392ZM904.588 47.5V37.28H905.638V43.062L905.33 43.3C905.33 42.6093 905.428 42.0073 905.624 41.494C905.83 40.9807 906.133 40.584 906.534 40.304C906.945 40.0147 907.458 39.87 908.074 39.87H908.13C909.026 39.87 909.703 40.164 910.16 40.752C910.627 41.34 910.86 42.1567 910.86 43.202V47.5H909.824V42.978C909.824 42.3153 909.642 41.7927 909.278 41.41C908.914 41.0273 908.424 40.836 907.808 40.836C907.146 40.836 906.618 41.0507 906.226 41.48C905.834 41.9 905.638 42.4553 905.638 43.146V47.5H904.588ZM916.793 47.738C916.159 47.738 915.599 47.6307 915.113 47.416C914.637 47.192 914.231 46.898 913.895 46.534C913.569 46.1607 913.317 45.7453 913.139 45.288C912.971 44.8307 912.887 44.364 912.887 43.888V43.692C912.887 43.216 912.976 42.7493 913.153 42.292C913.331 41.8253 913.587 41.41 913.923 41.046C914.259 40.682 914.665 40.3927 915.141 40.178C915.627 39.954 916.177 39.842 916.793 39.842C917.419 39.842 917.969 39.954 918.445 40.178C918.931 40.3927 919.341 40.682 919.677 41.046C920.013 41.41 920.265 41.8253 920.433 42.292C920.611 42.7493 920.699 43.216 920.699 43.692V43.888C920.699 44.364 920.615 44.8307 920.447 45.288C920.279 45.7453 920.027 46.1607 919.691 46.534C919.365 46.898 918.959 47.192 918.473 47.416C917.988 47.6307 917.428 47.738 916.793 47.738ZM916.793 46.8C917.409 46.8 917.927 46.6647 918.347 46.394C918.777 46.114 919.103 45.75 919.327 45.302C919.551 44.8447 919.663 44.3407 919.663 43.79C919.663 43.23 919.547 42.726 919.313 42.278C919.089 41.8207 918.763 41.4613 918.333 41.2C917.904 40.9293 917.391 40.794 916.793 40.794C916.205 40.794 915.697 40.9293 915.267 41.2C914.838 41.4613 914.507 41.8207 914.273 42.278C914.049 42.726 913.937 43.23 913.937 43.79C913.937 44.3407 914.049 44.8447 914.273 45.302C914.497 45.75 914.819 46.114 915.239 46.394C915.669 46.6647 916.187 46.8 916.793 46.8ZM925.402 47.71C924.516 47.71 923.839 47.4253 923.372 46.856C922.906 46.2773 922.672 45.4747 922.672 44.448V40.08H923.708V44.658C923.708 45.302 923.876 45.8153 924.212 46.198C924.558 46.5713 925.034 46.758 925.64 46.758C926.275 46.758 926.779 46.5573 927.152 46.156C927.535 45.7547 927.726 45.218 927.726 44.546V40.08H928.776V47.5H927.936V44.406H928.104C928.104 45.0967 928.006 45.6893 927.81 46.184C927.614 46.6693 927.32 47.0473 926.928 47.318C926.536 47.5793 926.042 47.71 925.444 47.71H925.402ZM934.35 50.398C934.005 50.398 933.655 50.3793 933.3 50.342C932.955 50.314 932.623 50.2767 932.306 50.23V49.334C932.642 49.3807 932.992 49.418 933.356 49.446C933.729 49.4833 934.079 49.502 934.406 49.502C935.115 49.502 935.68 49.4087 936.1 49.222C936.52 49.0353 936.819 48.7367 936.996 48.326C937.183 47.9247 937.276 47.3927 937.276 46.73V45.246L937.668 44.21C937.649 44.9193 937.5 45.5307 937.22 46.044C936.94 46.548 936.562 46.9353 936.086 47.206C935.61 47.4767 935.069 47.612 934.462 47.612C933.93 47.612 933.445 47.5093 933.006 47.304C932.577 47.0987 932.208 46.8187 931.9 46.464C931.592 46.1 931.354 45.6893 931.186 45.232C931.018 44.7747 930.934 44.294 930.934 43.79V43.594C930.934 43.0993 931.018 42.628 931.186 42.18C931.354 41.7227 931.592 41.3213 931.9 40.976C932.208 40.6213 932.581 40.346 933.02 40.15C933.468 39.9447 933.963 39.842 934.504 39.842C935.157 39.842 935.727 39.9867 936.212 40.276C936.697 40.5653 937.075 40.9667 937.346 41.48C937.626 41.9933 937.775 42.5953 937.794 43.286L937.458 43.104V40.094H938.284V46.688C938.284 47.5747 938.153 48.2887 937.892 48.83C937.631 49.3713 937.211 49.768 936.632 50.02C936.063 50.272 935.302 50.398 934.35 50.398ZM934.644 46.646C935.148 46.646 935.596 46.5387 935.988 46.324C936.389 46.1 936.707 45.7873 936.94 45.386C937.173 44.9847 937.29 44.518 937.29 43.986V43.3C937.29 42.7867 937.169 42.3387 936.926 41.956C936.693 41.5733 936.38 41.2747 935.988 41.06C935.596 40.8453 935.148 40.738 934.644 40.738C934.103 40.738 933.631 40.8687 933.23 41.13C932.829 41.3913 932.521 41.746 932.306 42.194C932.091 42.6327 931.984 43.132 931.984 43.692C931.984 44.2613 932.091 44.77 932.306 45.218C932.53 45.666 932.843 46.016 933.244 46.268C933.645 46.52 934.112 46.646 934.644 46.646ZM940.915 47.5V37.28H941.965V43.062L941.657 43.3C941.657 42.6093 941.755 42.0073 941.951 41.494C942.156 40.9807 942.459 40.584 942.861 40.304C943.271 40.0147 943.785 39.87 944.401 39.87H944.457C945.353 39.87 946.029 40.164 946.487 40.752C946.953 41.34 947.187 42.1567 947.187 43.202V47.5H946.151V42.978C946.151 42.3153 945.969 41.7927 945.605 41.41C945.241 41.0273 944.751 40.836 944.135 40.836C943.472 40.836 942.945 41.0507 942.553 41.48C942.161 41.9 941.965 42.4553 941.965 43.146V47.5H940.915ZM952.489 47.584C951.976 47.584 951.533 47.5093 951.159 47.36C950.786 47.2107 950.497 46.9587 950.291 46.604C950.086 46.24 949.983 45.7547 949.983 45.148V37.756H950.991V45.302C950.991 45.7313 951.108 46.0627 951.341 46.296C951.575 46.52 951.906 46.632 952.335 46.632H953.665V47.584H952.489ZM948.653 40.892V40.094H953.665V40.892H948.653ZM959.2 47.5V37.28H960.264V47.5H959.2ZM960.012 47.5V46.534H965.122V47.5H960.012ZM960.012 42.782V41.83H964.646V42.782H960.012ZM960.012 38.246V37.28H964.968V38.246H960.012ZM969.585 47.71C968.633 47.71 967.9 47.5047 967.387 47.094C966.873 46.674 966.612 46.114 966.603 45.414H967.583C967.601 45.7687 967.76 46.0907 968.059 46.38C968.367 46.6693 968.875 46.814 969.585 46.814C970.247 46.814 970.742 46.6787 971.069 46.408C971.405 46.128 971.573 45.792 971.573 45.4C971.573 45.036 971.433 44.756 971.153 44.56C970.882 44.3547 970.485 44.224 969.963 44.168L969.123 44.084C968.451 44.0093 967.905 43.804 967.485 43.468C967.074 43.1227 966.869 42.6513 966.869 42.054C966.869 41.6153 966.981 41.2327 967.205 40.906C967.429 40.5793 967.741 40.3273 968.143 40.15C968.553 39.9633 969.034 39.87 969.585 39.87C970.378 39.87 971.022 40.0567 971.517 40.43C972.021 40.8033 972.277 41.3353 972.287 42.026H971.307C971.297 41.6713 971.148 41.3727 970.859 41.13C970.569 40.8873 970.145 40.766 969.585 40.766C969.006 40.766 968.572 40.892 968.283 41.144C968.003 41.396 967.863 41.704 967.863 42.068C967.863 42.376 967.97 42.6327 968.185 42.838C968.399 43.034 968.735 43.1553 969.193 43.202L970.033 43.286C970.779 43.37 971.386 43.5847 971.853 43.93C972.329 44.2753 972.567 44.77 972.567 45.414C972.567 45.8527 972.441 46.2493 972.189 46.604C971.946 46.9493 971.601 47.22 971.153 47.416C970.705 47.612 970.182 47.71 969.585 47.71ZM976.995 47.71C976.043 47.71 975.31 47.5047 974.797 47.094C974.283 46.674 974.022 46.114 974.013 45.414H974.993C975.011 45.7687 975.17 46.0907 975.469 46.38C975.777 46.6693 976.285 46.814 976.995 46.814C977.657 46.814 978.152 46.6787 978.479 46.408C978.815 46.128 978.983 45.792 978.983 45.4C978.983 45.036 978.843 44.756 978.563 44.56C978.292 44.3547 977.895 44.224 977.373 44.168L976.533 44.084C975.861 44.0093 975.315 43.804 974.895 43.468C974.484 43.1227 974.279 42.6513 974.279 42.054C974.279 41.6153 974.391 41.2327 974.615 40.906C974.839 40.5793 975.151 40.3273 975.553 40.15C975.963 39.9633 976.444 39.87 976.995 39.87C977.788 39.87 978.432 40.0567 978.927 40.43C979.431 40.8033 979.687 41.3353 979.697 42.026H978.717C978.707 41.6713 978.558 41.3727 978.269 41.13C977.979 40.8873 977.555 40.766 976.995 40.766C976.416 40.766 975.982 40.892 975.693 41.144C975.413 41.396 975.273 41.704 975.273 42.068C975.273 42.376 975.38 42.6327 975.595 42.838C975.809 43.034 976.145 43.1553 976.603 43.202L977.443 43.286C978.189 43.37 978.796 43.5847 979.263 43.93C979.739 44.2753 979.977 44.77 979.977 45.414C979.977 45.8527 979.851 46.2493 979.599 46.604C979.356 46.9493 979.011 47.22 978.563 47.416C978.115 47.612 977.592 47.71 976.995 47.71ZM986.575 47.5V45.274H986.407V42.642C986.407 42.0913 986.262 41.6713 985.973 41.382C985.684 41.0833 985.236 40.934 984.629 40.934C984.349 40.934 984.064 40.9387 983.775 40.948C983.495 40.9573 983.224 40.9713 982.963 40.99C982.711 40.9993 982.487 41.0133 982.291 41.032V40.108C982.496 40.0893 982.706 40.0707 982.921 40.052C983.136 40.0333 983.355 40.024 983.579 40.024C983.812 40.0147 984.036 40.01 984.251 40.01C985.007 40.01 985.614 40.1033 986.071 40.29C986.538 40.4767 986.878 40.7707 987.093 41.172C987.308 41.564 987.415 42.0867 987.415 42.74V47.5H986.575ZM984.069 47.696C983.546 47.696 983.084 47.6027 982.683 47.416C982.282 47.2293 981.969 46.9587 981.745 46.604C981.53 46.2493 981.423 45.82 981.423 45.316C981.423 44.8213 981.535 44.4013 981.759 44.056C981.992 43.7107 982.324 43.4493 982.753 43.272C983.192 43.0853 983.719 42.992 984.335 42.992H986.505V43.79H984.265C983.677 43.79 983.224 43.9347 982.907 44.224C982.599 44.504 982.445 44.8727 982.445 45.33C982.445 45.7967 982.608 46.17 982.935 46.45C983.262 46.7207 983.705 46.856 984.265 46.856C984.61 46.856 984.942 46.7953 985.259 46.674C985.576 46.5433 985.842 46.3287 986.057 46.03C986.272 45.722 986.388 45.302 986.407 44.77L986.715 45.204C986.678 45.7547 986.547 46.2167 986.323 46.59C986.099 46.954 985.796 47.2293 985.413 47.416C985.03 47.6027 984.582 47.696 984.069 47.696ZM989.366 50.384V49.446H990.318C990.645 49.446 990.925 49.404 991.158 49.32C991.391 49.2453 991.587 49.11 991.746 48.914C991.905 48.718 992.04 48.4473 992.152 48.102L994.644 40.094H995.666L993.062 48.396C992.913 48.872 992.707 49.2547 992.446 49.544C992.185 49.8427 991.872 50.0573 991.508 50.188C991.144 50.3187 990.729 50.384 990.262 50.384H989.366ZM991.774 47.318V46.436H993.104V47.318H991.774ZM991.648 47.318L988.96 40.094H990.038L992.628 47.318H991.648ZM999.8 47.71C998.848 47.71 998.115 47.5047 997.602 47.094C997.088 46.674 996.827 46.114 996.818 45.414H997.798C997.816 45.7687 997.975 46.0907 998.274 46.38C998.582 46.6693 999.09 46.814 999.8 46.814C1000.46 46.814 1000.96 46.6787 1001.28 46.408C1001.62 46.128 1001.79 45.792 1001.79 45.4C1001.79 45.036 1001.65 44.756 1001.37 44.56C1001.1 44.3547 1000.7 44.224 1000.18 44.168L999.338 44.084C998.666 44.0093 998.12 43.804 997.7 43.468C997.289 43.1227 997.084 42.6513 997.084 42.054C997.084 41.6153 997.196 41.2327 997.42 40.906C997.644 40.5793 997.956 40.3273 998.358 40.15C998.768 39.9633 999.249 39.87 999.8 39.87C1000.59 39.87 1001.24 40.0567 1001.73 40.43C1002.24 40.8033 1002.49 41.3353 1002.5 42.026H1001.52C1001.51 41.6713 1001.36 41.3727 1001.07 41.13C1000.78 40.8873 1000.36 40.766 999.8 40.766C999.221 40.766 998.787 40.892 998.498 41.144C998.218 41.396 998.078 41.704 998.078 42.068C998.078 42.376 998.185 42.6327 998.4 42.838C998.614 43.034 998.95 43.1553 999.408 43.202L1000.25 43.286C1000.99 43.37 1001.6 43.5847 1002.07 43.93C1002.54 44.2753 1002.78 44.77 1002.78 45.414C1002.78 45.8527 1002.66 46.2493 1002.4 46.604C1002.16 46.9493 1001.82 47.22 1001.37 47.416C1000.92 47.612 1000.4 47.71 999.8 47.71Z" fill="#717171"/>
</g>
</g>
<g filter="url(#filter7_ddddii_1008_1004)">
<circle cx="998.5" cy="42.5" r="17.5" fill="#ECECEC"/>
</g>
<path d="M1003 43C1003 43.2336 1002.92 43.4601 1002.77 43.64L997.769 49.64C997.6 49.8442 997.356 49.9726 997.091 49.997C996.827 50.0214 996.564 49.9397 996.359 49.77C996.155 49.6002 996.027 49.3563 996.002 49.0919C995.978 48.8275 996.06 48.5642 996.229 48.36L1000.71 43L996.389 37.64C996.306 37.5377 996.244 37.42 996.207 37.2936C996.169 37.1673 996.157 37.0348 996.171 36.9038C996.185 36.7728 996.225 36.6458 996.288 36.5301C996.351 36.4145 996.437 36.3125 996.539 36.23C996.642 36.1384 996.763 36.069 996.894 36.0262C997.024 35.9834 997.163 35.9681 997.3 35.9813C997.437 35.9944 997.57 36.0357 997.69 36.1026C997.811 36.1695 997.916 36.2605 997.999 36.37L1002.83 42.37C1002.95 42.5551 1003.01 42.7769 1003 43Z" fill="#404040"/>
<g filter="url(#filter8_ddiiii_1008_1004)">
<rect x="1045" y="19" width="321" height="48" rx="24" fill="#ECECEC"/>
</g>
<g filter="url(#filter9_ddddii_1008_1004)">
<circle cx="1338.5" cy="43.5" r="17.5" fill="#ECECEC"/>
</g>
<path d="M1344 49L1341.1 46.1M1342.67 42.3333C1342.67 45.2789 1340.28 47.6667 1337.33 47.6667C1334.39 47.6667 1332 45.2789 1332 42.3333C1332 39.3878 1334.39 37 1337.33 37C1340.28 37 1342.67 39.3878 1342.67 42.3333Z" stroke="#717171" stroke-width="1.6" stroke-linecap="round" stroke-linejoin="round"/>
<path d="M1073.52 49.221C1072.73 49.221 1072.06 49.0953 1071.51 48.844C1070.96 48.584 1070.55 48.2287 1070.26 47.778C1069.98 47.3187 1069.85 46.803 1069.85 46.231H1070.83C1070.83 46.595 1070.92 46.9373 1071.09 47.258C1071.28 47.57 1071.56 47.8257 1071.95 48.025C1072.35 48.2157 1072.87 48.311 1073.52 48.311C1074.12 48.311 1074.62 48.2243 1075.01 48.051C1075.4 47.8777 1075.7 47.6437 1075.89 47.349C1076.09 47.0543 1076.19 46.725 1076.19 46.361C1076.19 45.9017 1076.01 45.5203 1075.64 45.217C1075.29 44.905 1074.75 44.7187 1074.03 44.658L1072.94 44.554C1072.12 44.4847 1071.47 44.2333 1070.99 43.8C1070.51 43.358 1070.27 42.7773 1070.27 42.058C1070.27 41.512 1070.4 41.031 1070.66 40.615C1070.92 40.199 1071.29 39.8697 1071.77 39.627C1072.25 39.3843 1072.84 39.263 1073.51 39.263C1074.2 39.263 1074.78 39.3887 1075.27 39.64C1075.76 39.8827 1076.14 40.2207 1076.4 40.654C1076.66 41.0873 1076.79 41.59 1076.79 42.162H1075.8C1075.8 41.8153 1075.72 41.4903 1075.56 41.187C1075.41 40.8837 1075.16 40.641 1074.82 40.459C1074.49 40.2683 1074.05 40.173 1073.51 40.173C1073 40.173 1072.58 40.2597 1072.24 40.433C1071.91 40.6063 1071.66 40.836 1071.5 41.122C1071.34 41.408 1071.26 41.72 1071.26 42.058C1071.26 42.4827 1071.41 42.8423 1071.72 43.137C1072.02 43.4317 1072.46 43.6007 1073.03 43.644L1074.12 43.748C1074.76 43.8 1075.31 43.943 1075.76 44.177C1076.22 44.4023 1076.57 44.7013 1076.81 45.074C1077.06 45.438 1077.18 45.867 1077.18 46.361C1077.18 46.9157 1077.03 47.4097 1076.72 47.843C1076.43 48.2763 1076.01 48.6143 1075.46 48.857C1074.92 49.0997 1074.27 49.221 1073.52 49.221ZM1082.2 49.221C1081.61 49.221 1081.1 49.1213 1080.66 48.922C1080.23 48.714 1079.88 48.441 1079.6 48.103C1079.32 47.7563 1079.11 47.3707 1078.97 46.946C1078.84 46.5213 1078.78 46.0837 1078.78 45.633V45.451C1078.78 45.009 1078.84 44.5757 1078.97 44.151C1079.11 43.7263 1079.32 43.345 1079.6 43.007C1079.88 42.669 1080.22 42.4003 1080.64 42.201C1081.06 41.993 1081.56 41.889 1082.12 41.889C1082.84 41.889 1083.44 42.0493 1083.91 42.37C1084.4 42.6907 1084.76 43.1023 1085.01 43.605C1085.25 44.099 1085.37 44.632 1085.37 45.204V45.711H1079.22V44.957H1084.69L1084.45 45.334C1084.45 44.8227 1084.36 44.3763 1084.17 43.995C1084 43.605 1083.74 43.3017 1083.39 43.085C1083.06 42.8597 1082.63 42.747 1082.12 42.747C1081.58 42.747 1081.14 42.8727 1080.78 43.124C1080.43 43.3753 1080.16 43.709 1079.98 44.125C1079.8 44.541 1079.72 45.0133 1079.72 45.542C1079.72 46.062 1079.8 46.5387 1079.98 46.972C1080.16 47.3967 1080.43 47.7347 1080.79 47.986C1081.17 48.2373 1081.64 48.363 1082.2 48.363C1082.8 48.363 1083.28 48.2287 1083.65 47.96C1084.03 47.6827 1084.26 47.3577 1084.34 46.985H1085.25C1085.17 47.4443 1084.98 47.843 1084.71 48.181C1084.43 48.5103 1084.08 48.766 1083.65 48.948C1083.23 49.13 1082.74 49.221 1082.2 49.221ZM1091.43 49V46.933H1091.28V44.489C1091.28 43.9777 1091.14 43.5877 1090.87 43.319C1090.61 43.0417 1090.19 42.903 1089.63 42.903C1089.37 42.903 1089.1 42.9073 1088.83 42.916C1088.57 42.9247 1088.32 42.9377 1088.08 42.955C1087.85 42.9637 1087.64 42.9767 1087.46 42.994V42.136C1087.65 42.1187 1087.84 42.1013 1088.04 42.084C1088.24 42.0667 1088.44 42.058 1088.65 42.058C1088.87 42.0493 1089.08 42.045 1089.28 42.045C1089.98 42.045 1090.54 42.1317 1090.97 42.305C1091.4 42.4783 1091.71 42.7513 1091.91 43.124C1092.11 43.488 1092.21 43.9733 1092.21 44.58V49H1091.43ZM1089.11 49.182C1088.62 49.182 1088.19 49.0953 1087.82 48.922C1087.45 48.7487 1087.16 48.4973 1086.95 48.168C1086.75 47.8387 1086.65 47.44 1086.65 46.972C1086.65 46.5127 1086.75 46.1227 1086.96 45.802C1087.18 45.4813 1087.49 45.2387 1087.88 45.074C1088.29 44.9007 1088.78 44.814 1089.35 44.814H1091.37V45.555H1089.29C1088.74 45.555 1088.32 45.6893 1088.03 45.958C1087.74 46.218 1087.6 46.5603 1087.6 46.985C1087.6 47.4183 1087.75 47.765 1088.05 48.025C1088.36 48.2763 1088.77 48.402 1089.29 48.402C1089.61 48.402 1089.92 48.3457 1090.21 48.233C1090.51 48.1117 1090.75 47.9123 1090.95 47.635C1091.15 47.349 1091.26 46.959 1091.28 46.465L1091.56 46.868C1091.53 47.3793 1091.41 47.8083 1091.2 48.155C1090.99 48.493 1090.71 48.7487 1090.35 48.922C1090 49.0953 1089.58 49.182 1089.11 49.182ZM1094.65 49V42.123H1095.43V44.996H1095.35C1095.35 43.9907 1095.57 43.2497 1096.01 42.773C1096.46 42.2877 1097.15 42.045 1098.09 42.045H1098.31V42.929H1097.91C1097.17 42.929 1096.6 43.124 1096.21 43.514C1095.82 43.8953 1095.62 44.4587 1095.62 45.204V49H1094.65ZM1102.7 49.221C1102.12 49.221 1101.61 49.1213 1101.18 48.922C1100.76 48.714 1100.4 48.4367 1100.11 48.09C1099.83 47.7347 1099.61 47.3447 1099.46 46.92C1099.33 46.4953 1099.26 46.0663 1099.26 45.633V45.451C1099.26 45.009 1099.33 44.58 1099.46 44.164C1099.61 43.7393 1099.83 43.358 1100.11 43.02C1100.4 42.6733 1100.76 42.4003 1101.18 42.201C1101.61 41.993 1102.11 41.889 1102.68 41.889C1103.25 41.889 1103.75 41.993 1104.2 42.201C1104.65 42.409 1105.01 42.7037 1105.29 43.085C1105.57 43.4663 1105.73 43.917 1105.78 44.437H1104.85C1104.77 43.9603 1104.54 43.566 1104.17 43.254C1103.81 42.9333 1103.31 42.773 1102.68 42.773C1102.13 42.773 1101.67 42.8987 1101.31 43.15C1100.96 43.3927 1100.69 43.7263 1100.5 44.151C1100.32 44.567 1100.23 45.0307 1100.23 45.542C1100.23 46.0447 1100.32 46.5127 1100.5 46.946C1100.69 47.3707 1100.96 47.713 1101.32 47.973C1101.69 48.2243 1102.15 48.35 1102.7 48.35C1103.13 48.35 1103.49 48.2763 1103.81 48.129C1104.13 47.973 1104.38 47.765 1104.57 47.505C1104.77 47.245 1104.89 46.959 1104.92 46.647H1105.86C1105.83 47.167 1105.66 47.622 1105.37 48.012C1105.08 48.3933 1104.71 48.6923 1104.25 48.909C1103.79 49.117 1103.27 49.221 1102.7 49.221ZM1107.65 49V39.51H1108.62V44.879L1108.34 45.1C1108.34 44.4587 1108.43 43.8997 1108.61 43.423C1108.8 42.9463 1109.08 42.578 1109.46 42.318C1109.84 42.0493 1110.31 41.915 1110.89 41.915H1110.94C1111.77 41.915 1112.4 42.188 1112.82 42.734C1113.26 43.28 1113.47 44.0383 1113.47 45.009V49H1112.51V44.801C1112.51 44.1857 1112.34 43.7003 1112 43.345C1111.67 42.9897 1111.21 42.812 1110.64 42.812C1110.02 42.812 1109.53 43.0113 1109.17 43.41C1108.81 43.8 1108.62 44.3157 1108.62 44.957V49H1107.65ZM1119.16 49V39.51H1120.14V49H1119.16ZM1119.88 44.619V43.722L1124.08 43.709V44.606L1119.88 44.619ZM1119.88 40.394V39.51H1124.33V40.394H1119.88ZM1126.46 49V42.123H1127.42V49H1126.46ZM1125.35 42.903V42.123H1127.42V42.903H1125.35ZM1126.67 40.849C1126.43 40.849 1126.26 40.7883 1126.13 40.667C1126.02 40.537 1125.96 40.3767 1125.96 40.186C1125.96 39.9953 1126.02 39.8393 1126.13 39.718C1126.26 39.588 1126.43 39.523 1126.67 39.523C1126.9 39.523 1127.07 39.588 1127.19 39.718C1127.3 39.8393 1127.36 39.9953 1127.36 40.186C1127.36 40.3767 1127.3 40.537 1127.19 40.667C1127.07 40.7883 1126.9 40.849 1126.67 40.849ZM1130.04 49V39.51H1131.02V49H1130.04ZM1129.04 40.303V39.51H1131.02V40.303H1129.04ZM1136.04 49.078C1135.57 49.078 1135.15 49.0087 1134.81 48.87C1134.46 48.7313 1134.19 48.4973 1134 48.168C1133.81 47.83 1133.72 47.3793 1133.72 46.816V39.952H1134.65V46.959C1134.65 47.3577 1134.76 47.6653 1134.98 47.882C1135.19 48.09 1135.5 48.194 1135.9 48.194H1137.14V49.078H1136.04ZM1132.48 42.864V42.123H1137.14V42.864H1132.48ZM1141.83 49.221C1141.24 49.221 1140.73 49.1213 1140.29 48.922C1139.86 48.714 1139.51 48.441 1139.23 48.103C1138.95 47.7563 1138.74 47.3707 1138.6 46.946C1138.47 46.5213 1138.41 46.0837 1138.41 45.633V45.451C1138.41 45.009 1138.47 44.5757 1138.6 44.151C1138.74 43.7263 1138.95 43.345 1139.23 43.007C1139.51 42.669 1139.85 42.4003 1140.27 42.201C1140.69 41.993 1141.19 41.889 1141.75 41.889C1142.47 41.889 1143.07 42.0493 1143.54 42.37C1144.03 42.6907 1144.39 43.1023 1144.64 43.605C1144.88 44.099 1145 44.632 1145 45.204V45.711H1138.85V44.957H1144.32L1144.08 45.334C1144.08 44.8227 1143.99 44.3763 1143.8 43.995C1143.63 43.605 1143.37 43.3017 1143.02 43.085C1142.69 42.8597 1142.26 42.747 1141.75 42.747C1141.21 42.747 1140.77 42.8727 1140.41 43.124C1140.06 43.3753 1139.79 43.709 1139.61 44.125C1139.43 44.541 1139.35 45.0133 1139.35 45.542C1139.35 46.062 1139.43 46.5387 1139.61 46.972C1139.79 47.3967 1140.06 47.7347 1140.42 47.986C1140.8 48.2373 1141.27 48.363 1141.83 48.363C1142.43 48.363 1142.91 48.2287 1143.28 47.96C1143.66 47.6827 1143.89 47.3577 1143.97 46.985H1144.88C1144.8 47.4443 1144.61 47.843 1144.34 48.181C1144.06 48.5103 1143.71 48.766 1143.28 48.948C1142.86 49.13 1142.37 49.221 1141.83 49.221ZM1146.88 49V42.123H1147.66V44.996H1147.58C1147.58 43.9907 1147.8 43.2497 1148.24 42.773C1148.68 42.2877 1149.38 42.045 1150.32 42.045H1150.54V42.929H1150.14C1149.39 42.929 1148.83 43.124 1148.44 43.514C1148.05 43.8953 1147.85 44.4587 1147.85 45.204V49H1146.88ZM1154.29 49.195C1153.41 49.195 1152.73 49.0043 1152.25 48.623C1151.77 48.233 1151.53 47.713 1151.52 47.063H1152.43C1152.45 47.3923 1152.6 47.6913 1152.87 47.96C1153.16 48.2287 1153.63 48.363 1154.29 48.363C1154.91 48.363 1155.37 48.2373 1155.67 47.986C1155.98 47.726 1156.14 47.414 1156.14 47.05C1156.14 46.712 1156.01 46.452 1155.75 46.27C1155.5 46.0793 1155.13 45.958 1154.64 45.906L1153.86 45.828C1153.24 45.7587 1152.73 45.568 1152.34 45.256C1151.96 44.9353 1151.77 44.4977 1151.77 43.943C1151.77 43.5357 1151.87 43.1803 1152.08 42.877C1152.29 42.5737 1152.58 42.3397 1152.95 42.175C1153.33 42.0017 1153.78 41.915 1154.29 41.915C1155.03 41.915 1155.63 42.0883 1156.09 42.435C1156.55 42.7817 1156.79 43.2757 1156.8 43.917H1155.89C1155.88 43.5877 1155.74 43.3103 1155.47 43.085C1155.21 42.8597 1154.81 42.747 1154.29 42.747C1153.75 42.747 1153.35 42.864 1153.08 43.098C1152.82 43.332 1152.69 43.618 1152.69 43.956C1152.69 44.242 1152.79 44.4803 1152.99 44.671C1153.19 44.853 1153.5 44.9657 1153.93 45.009L1154.71 45.087C1155.4 45.165 1155.96 45.3643 1156.4 45.685C1156.84 46.0057 1157.06 46.465 1157.06 47.063C1157.06 47.4703 1156.94 47.8387 1156.71 48.168C1156.48 48.4887 1156.16 48.74 1155.75 48.922C1155.33 49.104 1154.85 49.195 1154.29 49.195Z" fill="url(#paint7_radial_1008_1004)"/>
<defs>
<filter id="filter0_ddiiii_1008_1004" x="160" y="20.5" width="55" height="44" filterUnits="userSpaceOnUse" color-interpolation-filters="sRGB">
<feFlood flood-opacity="0" result="BackgroundImageFix"/>
<feColorMatrix in="SourceAlpha" type="matrix" values="0 0 0 0 0 0 0 0 0 0 0 0 0 0 0 0 0 0 127 0" result="hardAlpha"/>
<feOffset dx="-1" dy="-1"/>
<feGaussianBlur stdDeviation="1"/>
<feColorMatrix type="matrix" values="0 0 0 0 0.745098 0 0 0 0 0.745098 0 0 0 0 0.745098 0 0 0 0.5 0"/>
<feBlend mode="normal" in2="BackgroundImageFix" result="effect1_dropShadow_1008_1004"/>
<feColorMatrix in="SourceAlpha" type="matrix" values="0 0 0 0 0 0 0 0 0 0 0 0 0 0 0 0 0 0 127 0" result="hardAlpha"/>
<feOffset dx="1" dy="1"/>
<feGaussianBlur stdDeviation="1"/>
<feColorMatrix type="matrix" values="0 0 0 0 1 0 0 0 0 1 0 0 0 0 1 0 0 0 0.3 0"/>
<feBlend mode="normal" in2="effect1_dropShadow_1008_1004" result="effect2_dropShadow_1008_1004"/>
<feBlend mode="normal" in="SourceGraphic" in2="effect2_dropShadow_1008_1004" result="shape"/>
<feColorMatrix in="SourceAlpha" type="matrix" values="0 0 0 0 0 0 0 0 0 0 0 0 0 0 0 0 0 0 127 0" result="hardAlpha"/>
<feOffset dx="3" dy="3"/>
<feGaussianBlur stdDeviation="4"/>
<feComposite in2="hardAlpha" operator="arithmetic" k2="-1" k3="1"/>
<feColorMatrix type="matrix" values="0 0 0 0 0.745098 0 0 0 0 0.745098 0 0 0 0 0.745098 0 0 0 0.9 0"/>
<feBlend mode="normal" in2="shape" result="effect3_innerShadow_1008_1004"/>
<feColorMatrix in="SourceAlpha" type="matrix" values="0 0 0 0 0 0 0 0 0 0 0 0 0 0 0 0 0 0 127 0" result="hardAlpha"/>
<feOffset dx="-3" dy="-3"/>
<feGaussianBlur stdDeviation="3"/>
<feComposite in2="hardAlpha" operator="arithmetic" k2="-1" k3="1"/>
<feColorMatrix type="matrix" values="0 0 0 0 1 0 0 0 0 1 0 0 0 0 1 0 0 0 0.9 0"/>
<feBlend mode="normal" in2="effect3_innerShadow_1008_1004" result="effect4_innerShadow_1008_1004"/>
<feColorMatrix in="SourceAlpha" type="matrix" values="0 0 0 0 0 0 0 0 0 0 0 0 0 0 0 0 0 0 127 0" result="hardAlpha"/>
<feOffset dx="3" dy="-3"/>
<feGaussianBlur stdDeviation="3"/>
<feComposite in2="hardAlpha" operator="arithmetic" k2="-1" k3="1"/>
<feColorMatrix type="matrix" values="0 0 0 0 0.745098 0 0 0 0 0.745098 0 0 0 0 0.745098 0 0 0 0.2 0"/>
<feBlend mode="normal" in2="effect4_innerShadow_1008_1004" result="effect5_innerShadow_1008_1004"/>
<feColorMatrix in="SourceAlpha" type="matrix" values="0 0 0 0 0 0 0 0 0 0 0 0 0 0 0 0 0 0 127 0" result="hardAlpha"/>
<feOffset dx="-3" dy="3"/>
<feGaussianBlur stdDeviation="3"/>
<feComposite in2="hardAlpha" operator="arithmetic" k2="-1" k3="1"/>
<feColorMatrix type="matrix" values="0 0 0 0 0.745098 0 0 0 0 0.745098 0 0 0 0 0.745098 0 0 0 0.2 0"/>
<feBlend mode="normal" in2="effect5_innerShadow_1008_1004" result="effect6_innerShadow_1008_1004"/>
</filter>
<filter id="filter1_ddddii_1008_1004" x="220" y="14.5" width="110" height="58" filterUnits="userSpaceOnUse" color-interpolation-filters="sRGB">
<feFlood flood-opacity="0" result="BackgroundImageFix"/>
<feColorMatrix in="SourceAlpha" type="matrix" values="0 0 0 0 0 0 0 0 0 0 0 0 0 0 0 0 0 0 127 0" result="hardAlpha"/>
<feOffset dx="3" dy="3"/>
<feGaussianBlur stdDeviation="4"/>
<feColorMatrix type="matrix" values="0 0 0 0 0.788235 0 0 0 0 0.788235 0 0 0 0 0.788235 0 0 0 0.9 0"/>
<feBlend mode="normal" in2="BackgroundImageFix" result="effect1_dropShadow_1008_1004"/>
<feColorMatrix in="SourceAlpha" type="matrix" values="0 0 0 0 0 0 0 0 0 0 0 0 0 0 0 0 0 0 127 0" result="hardAlpha"/>
<feOffset dx="-3" dy="-3"/>
<feGaussianBlur stdDeviation="3"/>
<feColorMatrix type="matrix" values="0 0 0 0 1 0 0 0 0 1 0 0 0 0 1 0 0 0 0.9 0"/>
<feBlend mode="normal" in2="effect1_dropShadow_1008_1004" result="effect2_dropShadow_1008_1004"/>
<feColorMatrix in="SourceAlpha" type="matrix" values="0 0 0 0 0 0 0 0 0 0 0 0 0 0 0 0 0 0 127 0" result="hardAlpha"/>
<feOffset dx="3" dy="-3"/>
<feGaussianBlur stdDeviation="3"/>
<feColorMatrix type="matrix" values="0 0 0 0 0.788235 0 0 0 0 0.788235 0 0 0 0 0.788235 0 0 0 0.2 0"/>
<feBlend mode="normal" in2="effect2_dropShadow_1008_1004" result="effect3_dropShadow_1008_1004"/>
<feColorMatrix in="SourceAlpha" type="matrix" values="0 0 0 0 0 0 0 0 0 0 0 0 0 0 0 0 0 0 127 0" result="hardAlpha"/>
<feOffset dx="-3" dy="3"/>
<feGaussianBlur stdDeviation="3"/>
<feColorMatrix type="matrix" values="0 0 0 0 0.788235 0 0 0 0 0.788235 0 0 0 0 0.788235 0 0 0 0.2 0"/>
<feBlend mode="normal" in2="effect3_dropShadow_1008_1004" result="effect4_dropShadow_1008_1004"/>
<feBlend mode="normal" in="SourceGraphic" in2="effect4_dropShadow_1008_1004" result="shape"/>
<feColorMatrix in="SourceAlpha" type="matrix" values="0 0 0 0 0 0 0 0 0 0 0 0 0 0 0 0 0 0 127 0" result="hardAlpha"/>
<feOffset dx="-1" dy="-1"/>
<feGaussianBlur stdDeviation="1"/>
<feComposite in2="hardAlpha" operator="arithmetic" k2="-1" k3="1"/>
<feColorMatrix type="matrix" values="0 0 0 0 0.788235 0 0 0 0 0.788235 0 0 0 0 0.788235 0 0 0 0.5 0"/>
<feBlend mode="normal" in2="shape" result="effect5_innerShadow_1008_1004"/>
<feColorMatrix in="SourceAlpha" type="matrix" values="0 0 0 0 0 0 0 0 0 0 0 0 0 0 0 0 0 0 127 0" result="hardAlpha"/>
<feOffset dx="1" dy="1"/>
<feGaussianBlur stdDeviation="1"/>
<feComposite in2="hardAlpha" operator="arithmetic" k2="-1" k3="1"/>
<feColorMatrix type="matrix" values="0 0 0 0 1 0 0 0 0 1 0 0 0 0 1 0 0 0 0.3 0"/>
<feBlend mode="normal" in2="effect5_innerShadow_1008_1004" result="effect6_innerShadow_1008_1004"/>
</filter>
<filter id="filter2_ddddii_1008_1004" x="327" y="14.5" width="164" height="58" filterUnits="userSpaceOnUse" color-interpolation-filters="sRGB">
<feFlood flood-opacity="0" result="BackgroundImageFix"/>
<feColorMatrix in="SourceAlpha" type="matrix" values="0 0 0 0 0 0 0 0 0 0 0 0 0 0 0 0 0 0 127 0" result="hardAlpha"/>
<feOffset dx="3" dy="3"/>
<feGaussianBlur stdDeviation="4"/>
<feColorMatrix type="matrix" values="0 0 0 0 0.788235 0 0 0 0 0.788235 0 0 0 0 0.788235 0 0 0 0.9 0"/>
<feBlend mode="normal" in2="BackgroundImageFix" result="effect1_dropShadow_1008_1004"/>
<feColorMatrix in="SourceAlpha" type="matrix" values="0 0 0 0 0 0 0 0 0 0 0 0 0 0 0 0 0 0 127 0" result="hardAlpha"/>
<feOffset dx="-3" dy="-3"/>
<feGaussianBlur stdDeviation="3"/>
<feColorMatrix type="matrix" values="0 0 0 0 1 0 0 0 0 1 0 0 0 0 1 0 0 0 0.9 0"/>
<feBlend mode="normal" in2="effect1_dropShadow_1008_1004" result="effect2_dropShadow_1008_1004"/>
<feColorMatrix in="SourceAlpha" type="matrix" values="0 0 0 0 0 0 0 0 0 0 0 0 0 0 0 0 0 0 127 0" result="hardAlpha"/>
<feOffset dx="3" dy="-3"/>
<feGaussianBlur stdDeviation="3"/>
<feColorMatrix type="matrix" values="0 0 0 0 0.788235 0 0 0 0 0.788235 0 0 0 0 0.788235 0 0 0 0.2 0"/>
<feBlend mode="normal" in2="effect2_dropShadow_1008_1004" result="effect3_dropShadow_1008_1004"/>
<feColorMatrix in="SourceAlpha" type="matrix" values="0 0 0 0 0 0 0 0 0 0 0 0 0 0 0 0 0 0 127 0" result="hardAlpha"/>
<feOffset dx="-3" dy="3"/>
<feGaussianBlur stdDeviation="3"/>
<feColorMatrix type="matrix" values="0 0 0 0 0.788235 0 0 0 0 0.788235 0 0 0 0 0.788235 0 0 0 0.2 0"/>
<feBlend mode="normal" in2="effect3_dropShadow_1008_1004" result="effect4_dropShadow_1008_1004"/>
<feBlend mode="normal" in="SourceGraphic" in2="effect4_dropShadow_1008_1004" result="shape"/>
<feColorMatrix in="SourceAlpha" type="matrix" values="0 0 0 0 0 0 0 0 0 0 0 0 0 0 0 0 0 0 127 0" result="hardAlpha"/>
<feOffset dx="-1" dy="-1"/>
<feGaussianBlur stdDeviation="1"/>
<feComposite in2="hardAlpha" operator="arithmetic" k2="-1" k3="1"/>
<feColorMatrix type="matrix" values="0 0 0 0 0.788235 0 0 0 0 0.788235 0 0 0 0 0.788235 0 0 0 0.5 0"/>
<feBlend mode="normal" in2="shape" result="effect5_innerShadow_1008_1004"/>
<feColorMatrix in="SourceAlpha" type="matrix" values="0 0 0 0 0 0 0 0 0 0 0 0 0 0 0 0 0 0 127 0" result="hardAlpha"/>
<feOffset dx="1" dy="1"/>
<feGaussianBlur stdDeviation="1"/>
<feComposite in2="hardAlpha" operator="arithmetic" k2="-1" k3="1"/>
<feColorMatrix type="matrix" values="0 0 0 0 1 0 0 0 0 1 0 0 0 0 1 0 0 0 0.3 0"/>
<feBlend mode="normal" in2="effect5_innerShadow_1008_1004" result="effect6_innerShadow_1008_1004"/>
</filter>
<filter id="filter3_ddddii_1008_1004" x="488" y="14.5" width="115" height="58" filterUnits="userSpaceOnUse" color-interpolation-filters="sRGB">
<feFlood flood-opacity="0" result="BackgroundImageFix"/>
<feColorMatrix in="SourceAlpha" type="matrix" values="0 0 0 0 0 0 0 0 0 0 0 0 0 0 0 0 0 0 127 0" result="hardAlpha"/>
<feOffset dx="3" dy="3"/>
<feGaussianBlur stdDeviation="4"/>
<feColorMatrix type="matrix" values="0 0 0 0 0.788235 0 0 0 0 0.788235 0 0 0 0 0.788235 0 0 0 0.9 0"/>
<feBlend mode="normal" in2="BackgroundImageFix" result="effect1_dropShadow_1008_1004"/>
<feColorMatrix in="SourceAlpha" type="matrix" values="0 0 0 0 0 0 0 0 0 0 0 0 0 0 0 0 0 0 127 0" result="hardAlpha"/>
<feOffset dx="-3" dy="-3"/>
<feGaussianBlur stdDeviation="3"/>
<feColorMatrix type="matrix" values="0 0 0 0 1 0 0 0 0 1 0 0 0 0 1 0 0 0 0.9 0"/>
<feBlend mode="normal" in2="effect1_dropShadow_1008_1004" result="effect2_dropShadow_1008_1004"/>
<feColorMatrix in="SourceAlpha" type="matrix" values="0 0 0 0 0 0 0 0 0 0 0 0 0 0 0 0 0 0 127 0" result="hardAlpha"/>
<feOffset dx="3" dy="-3"/>
<feGaussianBlur stdDeviation="3"/>
<feColorMatrix type="matrix" values="0 0 0 0 0.788235 0 0 0 0 0.788235 0 0 0 0 0.788235 0 0 0 0.2 0"/>
<feBlend mode="normal" in2="effect2_dropShadow_1008_1004" result="effect3_dropShadow_1008_1004"/>
<feColorMatrix in="SourceAlpha" type="matrix" values="0 0 0 0 0 0 0 0 0 0 0 0 0 0 0 0 0 0 127 0" result="hardAlpha"/>
<feOffset dx="-3" dy="3"/>
<feGaussianBlur stdDeviation="3"/>
<feColorMatrix type="matrix" values="0 0 0 0 0.788235 0 0 0 0 0.788235 0 0 0 0 0.788235 0 0 0 0.2 0"/>
<feBlend mode="normal" in2="effect3_dropShadow_1008_1004" result="effect4_dropShadow_1008_1004"/>
<feBlend mode="normal" in="SourceGraphic" in2="effect4_dropShadow_1008_1004" result="shape"/>
<feColorMatrix in="SourceAlpha" type="matrix" values="0 0 0 0 0 0 0 0 0 0 0 0 0 0 0 0 0 0 127 0" result="hardAlpha"/>
<feOffset dx="-1" dy="-1"/>
<feGaussianBlur stdDeviation="1"/>
<feComposite in2="hardAlpha" operator="arithmetic" k2="-1" k3="1"/>
<feColorMatrix type="matrix" values="0 0 0 0 0.788235 0 0 0 0 0.788235 0 0 0 0 0.788235 0 0 0 0.5 0"/>
<feBlend mode="normal" in2="shape" result="effect5_innerShadow_1008_1004"/>
<feColorMatrix in="SourceAlpha" type="matrix" values="0 0 0 0 0 0 0 0 0 0 0 0 0 0 0 0 0 0 127 0" result="hardAlpha"/>
<feOffset dx="1" dy="1"/>
<feGaussianBlur stdDeviation="1"/>
<feComposite in2="hardAlpha" operator="arithmetic" k2="-1" k3="1"/>
<feColorMatrix type="matrix" values="0 0 0 0 1 0 0 0 0 1 0 0 0 0 1 0 0 0 0.3 0"/>
<feBlend mode="normal" in2="effect5_innerShadow_1008_1004" result="effect6_innerShadow_1008_1004"/>
</filter>
<filter id="filter4_ddddii_1008_1004" x="600" y="14.5" width="143" height="58" filterUnits="userSpaceOnUse" color-interpolation-filters="sRGB">
<feFlood flood-opacity="0" result="BackgroundImageFix"/>
<feColorMatrix in="SourceAlpha" type="matrix" values="0 0 0 0 0 0 0 0 0 0 0 0 0 0 0 0 0 0 127 0" result="hardAlpha"/>
<feOffset dx="3" dy="3"/>
<feGaussianBlur stdDeviation="4"/>
<feColorMatrix type="matrix" values="0 0 0 0 0.788235 0 0 0 0 0.788235 0 0 0 0 0.788235 0 0 0 0.9 0"/>
<feBlend mode="normal" in2="BackgroundImageFix" result="effect1_dropShadow_1008_1004"/>
<feColorMatrix in="SourceAlpha" type="matrix" values="0 0 0 0 0 0 0 0 0 0 0 0 0 0 0 0 0 0 127 0" result="hardAlpha"/>
<feOffset dx="-3" dy="-3"/>
<feGaussianBlur stdDeviation="3"/>
<feColorMatrix type="matrix" values="0 0 0 0 1 0 0 0 0 1 0 0 0 0 1 0 0 0 0.9 0"/>
<feBlend mode="normal" in2="effect1_dropShadow_1008_1004" result="effect2_dropShadow_1008_1004"/>
<feColorMatrix in="SourceAlpha" type="matrix" values="0 0 0 0 0 0 0 0 0 0 0 0 0 0 0 0 0 0 127 0" result="hardAlpha"/>
<feOffset dx="3" dy="-3"/>
<feGaussianBlur stdDeviation="3"/>
<feColorMatrix type="matrix" values="0 0 0 0 0.788235 0 0 0 0 0.788235 0 0 0 0 0.788235 0 0 0 0.2 0"/>
<feBlend mode="normal" in2="effect2_dropShadow_1008_1004" result="effect3_dropShadow_1008_1004"/>
<feColorMatrix in="SourceAlpha" type="matrix" values="0 0 0 0 0 0 0 0 0 0 0 0 0 0 0 0 0 0 127 0" result="hardAlpha"/>
<feOffset dx="-3" dy="3"/>
<feGaussianBlur stdDeviation="3"/>
<feColorMatrix type="matrix" values="0 0 0 0 0.788235 0 0 0 0 0.788235 0 0 0 0 0.788235 0 0 0 0.2 0"/>
<feBlend mode="normal" in2="effect3_dropShadow_1008_1004" result="effect4_dropShadow_1008_1004"/>
<feBlend mode="normal" in="SourceGraphic" in2="effect4_dropShadow_1008_1004" result="shape"/>
<feColorMatrix in="SourceAlpha" type="matrix" values="0 0 0 0 0 0 0 0 0 0 0 0 0 0 0 0 0 0 127 0" result="hardAlpha"/>
<feOffset dx="-1" dy="-1"/>
<feGaussianBlur stdDeviation="1"/>
<feComposite in2="hardAlpha" operator="arithmetic" k2="-1" k3="1"/>
<feColorMatrix type="matrix" values="0 0 0 0 0.788235 0 0 0 0 0.788235 0 0 0 0 0.788235 0 0 0 0.5 0"/>
<feBlend mode="normal" in2="shape" result="effect5_innerShadow_1008_1004"/>
<feColorMatrix in="SourceAlpha" type="matrix" values="0 0 0 0 0 0 0 0 0 0 0 0 0 0 0 0 0 0 127 0" result="hardAlpha"/>
<feOffset dx="1" dy="1"/>
<feGaussianBlur stdDeviation="1"/>
<feComposite in2="hardAlpha" operator="arithmetic" k2="-1" k3="1"/>
<feColorMatrix type="matrix" values="0 0 0 0 1 0 0 0 0 1 0 0 0 0 1 0 0 0 0.3 0"/>
<feBlend mode="normal" in2="effect5_innerShadow_1008_1004" result="effect6_innerShadow_1008_1004"/>
</filter>
<filter id="filter5_ddddii_1008_1004" x="740" y="14.5" width="134" height="58" filterUnits="userSpaceOnUse" color-interpolation-filters="sRGB">
<feFlood flood-opacity="0" result="BackgroundImageFix"/>
<feColorMatrix in="SourceAlpha" type="matrix" values="0 0 0 0 0 0 0 0 0 0 0 0 0 0 0 0 0 0 127 0" result="hardAlpha"/>
<feOffset dx="3" dy="3"/>
<feGaussianBlur stdDeviation="4"/>
<feColorMatrix type="matrix" values="0 0 0 0 0.788235 0 0 0 0 0.788235 0 0 0 0 0.788235 0 0 0 0.9 0"/>
<feBlend mode="normal" in2="BackgroundImageFix" result="effect1_dropShadow_1008_1004"/>
<feColorMatrix in="SourceAlpha" type="matrix" values="0 0 0 0 0 0 0 0 0 0 0 0 0 0 0 0 0 0 127 0" result="hardAlpha"/>
<feOffset dx="-3" dy="-3"/>
<feGaussianBlur stdDeviation="3"/>
<feColorMatrix type="matrix" values="0 0 0 0 1 0 0 0 0 1 0 0 0 0 1 0 0 0 0.9 0"/>
<feBlend mode="normal" in2="effect1_dropShadow_1008_1004" result="effect2_dropShadow_1008_1004"/>
<feColorMatrix in="SourceAlpha" type="matrix" values="0 0 0 0 0 0 0 0 0 0 0 0 0 0 0 0 0 0 127 0" result="hardAlpha"/>
<feOffset dx="3" dy="-3"/>
<feGaussianBlur stdDeviation="3"/>
<feColorMatrix type="matrix" values="0 0 0 0 0.788235 0 0 0 0 0.788235 0 0 0 0 0.788235 0 0 0 0.2 0"/>
<feBlend mode="normal" in2="effect2_dropShadow_1008_1004" result="effect3_dropShadow_1008_1004"/>
<feColorMatrix in="SourceAlpha" type="matrix" values="0 0 0 0 0 0 0 0 0 0 0 0 0 0 0 0 0 0 127 0" result="hardAlpha"/>
<feOffset dx="-3" dy="3"/>
<feGaussianBlur stdDeviation="3"/>
<feColorMatrix type="matrix" values="0 0 0 0 0.788235 0 0 0 0 0.788235 0 0 0 0 0.788235 0 0 0 0.2 0"/>
<feBlend mode="normal" in2="effect3_dropShadow_1008_1004" result="effect4_dropShadow_1008_1004"/>
<feBlend mode="normal" in="SourceGraphic" in2="effect4_dropShadow_1008_1004" result="shape"/>
<feColorMatrix in="SourceAlpha" type="matrix" values="0 0 0 0 0 0 0 0 0 0 0 0 0 0 0 0 0 0 127 0" result="hardAlpha"/>
<feOffset dx="-1" dy="-1"/>
<feGaussianBlur stdDeviation="1"/>
<feComposite in2="hardAlpha" operator="arithmetic" k2="-1" k3="1"/>
<feColorMatrix type="matrix" values="0 0 0 0 0.788235 0 0 0 0 0.788235 0 0 0 0 0.788235 0 0 0 0.5 0"/>
<feBlend mode="normal" in2="shape" result="effect5_innerShadow_1008_1004"/>
<feColorMatrix in="SourceAlpha" type="matrix" values="0 0 0 0 0 0 0 0 0 0 0 0 0 0 0 0 0 0 127 0" result="hardAlpha"/>
<feOffset dx="1" dy="1"/>
<feGaussianBlur stdDeviation="1"/>
<feComposite in2="hardAlpha" operator="arithmetic" k2="-1" k3="1"/>
<feColorMatrix type="matrix" values="0 0 0 0 1 0 0 0 0 1 0 0 0 0 1 0 0 0 0.3 0"/>
<feBlend mode="normal" in2="effect5_innerShadow_1008_1004" result="effect6_innerShadow_1008_1004"/>
</filter>
<filter id="filter6_ddddii_1008_1004" x="871" y="14.5" width="159" height="58" filterUnits="userSpaceOnUse" color-interpolation-filters="sRGB">
<feFlood flood-opacity="0" result="BackgroundImageFix"/>
<feColorMatrix in="SourceAlpha" type="matrix" values="0 0 0 0 0 0 0 0 0 0 0 0 0 0 0 0 0 0 127 0" result="hardAlpha"/>
<feOffset dx="3" dy="3"/>
<feGaussianBlur stdDeviation="4"/>
<feColorMatrix type="matrix" values="0 0 0 0 0.788235 0 0 0 0 0.788235 0 0 0 0 0.788235 0 0 0 0.9 0"/>
<feBlend mode="normal" in2="BackgroundImageFix" result="effect1_dropShadow_1008_1004"/>
<feColorMatrix in="SourceAlpha" type="matrix" values="0 0 0 0 0 0 0 0 0 0 0 0 0 0 0 0 0 0 127 0" result="hardAlpha"/>
<feOffset dx="-3" dy="-3"/>
<feGaussianBlur stdDeviation="3"/>
<feColorMatrix type="matrix" values="0 0 0 0 1 0 0 0 0 1 0 0 0 0 1 0 0 0 0.9 0"/>
<feBlend mode="normal" in2="effect1_dropShadow_1008_1004" result="effect2_dropShadow_1008_1004"/>
<feColorMatrix in="SourceAlpha" type="matrix" values="0 0 0 0 0 0 0 0 0 0 0 0 0 0 0 0 0 0 127 0" result="hardAlpha"/>
<feOffset dx="3" dy="-3"/>
<feGaussianBlur stdDeviation="3"/>
<feColorMatrix type="matrix" values="0 0 0 0 0.788235 0 0 0 0 0.788235 0 0 0 0 0.788235 0 0 0 0.2 0"/>
<feBlend mode="normal" in2="effect2_dropShadow_1008_1004" result="effect3_dropShadow_1008_1004"/>
<feColorMatrix in="SourceAlpha" type="matrix" values="0 0 0 0 0 0 0 0 0 0 0 0 0 0 0 0 0 0 127 0" result="hardAlpha"/>
<feOffset dx="-3" dy="3"/>
<feGaussianBlur stdDeviation="3"/>
<feColorMatrix type="matrix" values="0 0 0 0 0.788235 0 0 0 0 0.788235 0 0 0 0 0.788235 0 0 0 0.2 0"/>
<feBlend mode="normal" in2="effect3_dropShadow_1008_1004" result="effect4_dropShadow_1008_1004"/>
<feBlend mode="normal" in="SourceGraphic" in2="effect4_dropShadow_1008_1004" result="shape"/>
<feColorMatrix in="SourceAlpha" type="matrix" values="0 0 0 0 0 0 0 0 0 0 0 0 0 0 0 0 0 0 127 0" result="hardAlpha"/>
<feOffset dx="-1" dy="-1"/>
<feGaussianBlur stdDeviation="1"/>
<feComposite in2="hardAlpha" operator="arithmetic" k2="-1" k3="1"/>
<feColorMatrix type="matrix" values="0 0 0 0 0.788235 0 0 0 0 0.788235 0 0 0 0 0.788235 0 0 0 0.5 0"/>
<feBlend mode="normal" in2="shape" result="effect5_innerShadow_1008_1004"/>
<feColorMatrix in="SourceAlpha" type="matrix" values="0 0 0 0 0 0 0 0 0 0 0 0 0 0 0 0 0 0 127 0" result="hardAlpha"/>
<feOffset dx="1" dy="1"/>
<feGaussianBlur stdDeviation="1"/>
<feComposite in2="hardAlpha" operator="arithmetic" k2="-1" k3="1"/>
<feColorMatrix type="matrix" values="0 0 0 0 1 0 0 0 0 1 0 0 0 0 1 0 0 0 0.3 0"/>
<feBlend mode="normal" in2="effect5_innerShadow_1008_1004" result="effect6_innerShadow_1008_1004"/>
</filter>
<filter id="filter7_ddddii_1008_1004" x="969" y="13" width="61" height="61" filterUnits="userSpaceOnUse" color-interpolation-filters="sRGB">
<feFlood flood-opacity="0" result="BackgroundImageFix"/>
<feColorMatrix in="SourceAlpha" type="matrix" values="0 0 0 0 0 0 0 0 0 0 0 0 0 0 0 0 0 0 127 0" result="hardAlpha"/>
<feOffset dx="4" dy="4"/>
<feGaussianBlur stdDeviation="5"/>
<feColorMatrix type="matrix" values="0 0 0 0 0.745098 0 0 0 0 0.745098 0 0 0 0 0.745098 0 0 0 0.9 0"/>
<feBlend mode="normal" in2="BackgroundImageFix" result="effect1_dropShadow_1008_1004"/>
<feColorMatrix in="SourceAlpha" type="matrix" values="0 0 0 0 0 0 0 0 0 0 0 0 0 0 0 0 0 0 127 0" result="hardAlpha"/>
<feOffset dx="-4" dy="-4"/>
<feGaussianBlur stdDeviation="4"/>
<feColorMatrix type="matrix" values="0 0 0 0 1 0 0 0 0 1 0 0 0 0 1 0 0 0 0.9 0"/>
<feBlend mode="normal" in2="effect1_dropShadow_1008_1004" result="effect2_dropShadow_1008_1004"/>
<feColorMatrix in="SourceAlpha" type="matrix" values="0 0 0 0 0 0 0 0 0 0 0 0 0 0 0 0 0 0 127 0" result="hardAlpha"/>
<feOffset dx="4" dy="-4"/>
<feGaussianBlur stdDeviation="4"/>
<feColorMatrix type="matrix" values="0 0 0 0 0.745098 0 0 0 0 0.745098 0 0 0 0 0.745098 0 0 0 0.2 0"/>
<feBlend mode="normal" in2="effect2_dropShadow_1008_1004" result="effect3_dropShadow_1008_1004"/>
<feColorMatrix in="SourceAlpha" type="matrix" values="0 0 0 0 0 0 0 0 0 0 0 0 0 0 0 0 0 0 127 0" result="hardAlpha"/>
<feOffset dx="-4" dy="4"/>
<feGaussianBlur stdDeviation="4"/>
<feColorMatrix type="matrix" values="0 0 0 0 0.745098 0 0 0 0 0.745098 0 0 0 0 0.745098 0 0 0 0.2 0"/>
<feBlend mode="normal" in2="effect3_dropShadow_1008_1004" result="effect4_dropShadow_1008_1004"/>
<feBlend mode="normal" in="SourceGraphic" in2="effect4_dropShadow_1008_1004" result="shape"/>
<feColorMatrix in="SourceAlpha" type="matrix" values="0 0 0 0 0 0 0 0 0 0 0 0 0 0 0 0 0 0 127 0" result="hardAlpha"/>
<feOffset dx="-1" dy="-1"/>
<feGaussianBlur stdDeviation="1"/>
<feComposite in2="hardAlpha" operator="arithmetic" k2="-1" k3="1"/>
<feColorMatrix type="matrix" values="0 0 0 0 0.745098 0 0 0 0 0.745098 0 0 0 0 0.745098 0 0 0 0.5 0"/>
<feBlend mode="normal" in2="shape" result="effect5_innerShadow_1008_1004"/>
<feColorMatrix in="SourceAlpha" type="matrix" values="0 0 0 0 0 0 0 0 0 0 0 0 0 0 0 0 0 0 127 0" result="hardAlpha"/>
<feOffset dx="1" dy="1"/>
<feGaussianBlur stdDeviation="1"/>
<feComposite in2="hardAlpha" operator="arithmetic" k2="-1" k3="1"/>
<feColorMatrix type="matrix" values="0 0 0 0 1 0 0 0 0 1 0 0 0 0 1 0 0 0 0.3 0"/>
<feBlend mode="normal" in2="effect5_innerShadow_1008_1004" result="effect6_innerShadow_1008_1004"/>
</filter>
<filter id="filter8_ddiiii_1008_1004" x="1042" y="16" width="327" height="54" filterUnits="userSpaceOnUse" color-interpolation-filters="sRGB">
<feFlood flood-opacity="0" result="BackgroundImageFix"/>
<feColorMatrix in="SourceAlpha" type="matrix" values="0 0 0 0 0 0 0 0 0 0 0 0 0 0 0 0 0 0 127 0" result="hardAlpha"/>
<feOffset dx="-1" dy="-1"/>
<feGaussianBlur stdDeviation="1"/>
<feColorMatrix type="matrix" values="0 0 0 0 0.745098 0 0 0 0 0.745098 0 0 0 0 0.745098 0 0 0 0.5 0"/>
<feBlend mode="normal" in2="BackgroundImageFix" result="effect1_dropShadow_1008_1004"/>
<feColorMatrix in="SourceAlpha" type="matrix" values="0 0 0 0 0 0 0 0 0 0 0 0 0 0 0 0 0 0 127 0" result="hardAlpha"/>
<feOffset dx="1" dy="1"/>
<feGaussianBlur stdDeviation="1"/>
<feColorMatrix type="matrix" values="0 0 0 0 1 0 0 0 0 1 0 0 0 0 1 0 0 0 0.3 0"/>
<feBlend mode="normal" in2="effect1_dropShadow_1008_1004" result="effect2_dropShadow_1008_1004"/>
<feBlend mode="normal" in="SourceGraphic" in2="effect2_dropShadow_1008_1004" result="shape"/>
<feColorMatrix in="SourceAlpha" type="matrix" values="0 0 0 0 0 0 0 0 0 0 0 0 0 0 0 0 0 0 127 0" result="hardAlpha"/>
<feOffset dx="3" dy="3"/>
<feGaussianBlur stdDeviation="4"/>
<feComposite in2="hardAlpha" operator="arithmetic" k2="-1" k3="1"/>
<feColorMatrix type="matrix" values="0 0 0 0 0.745098 0 0 0 0 0.745098 0 0 0 0 0.745098 0 0 0 0.9 0"/>
<feBlend mode="normal" in2="shape" result="effect3_innerShadow_1008_1004"/>
<feColorMatrix in="SourceAlpha" type="matrix" values="0 0 0 0 0 0 0 0 0 0 0 0 0 0 0 0 0 0 127 0" result="hardAlpha"/>
<feOffset dx="-3" dy="-3"/>
<feGaussianBlur stdDeviation="3"/>
<feComposite in2="hardAlpha" operator="arithmetic" k2="-1" k3="1"/>
<feColorMatrix type="matrix" values="0 0 0 0 1 0 0 0 0 1 0 0 0 0 1 0 0 0 0.9 0"/>
<feBlend mode="normal" in2="effect3_innerShadow_1008_1004" result="effect4_innerShadow_1008_1004"/>
<feColorMatrix in="SourceAlpha" type="matrix" values="0 0 0 0 0 0 0 0 0 0 0 0 0 0 0 0 0 0 127 0" result="hardAlpha"/>
<feOffset dx="3" dy="-3"/>
<feGaussianBlur stdDeviation="3"/>
<feComposite in2="hardAlpha" operator="arithmetic" k2="-1" k3="1"/>
<feColorMatrix type="matrix" values="0 0 0 0 0.745098 0 0 0 0 0.745098 0 0 0 0 0.745098 0 0 0 0.2 0"/>
<feBlend mode="normal" in2="effect4_innerShadow_1008_1004" result="effect5_innerShadow_1008_1004"/>
<feColorMatrix in="SourceAlpha" type="matrix" values="0 0 0 0 0 0 0 0 0 0 0 0 0 0 0 0 0 0 127 0" result="hardAlpha"/>
<feOffset dx="-3" dy="3"/>
<feGaussianBlur stdDeviation="3"/>
<feComposite in2="hardAlpha" operator="arithmetic" k2="-1" k3="1"/>
<feColorMatrix type="matrix" values="0 0 0 0 0.745098 0 0 0 0 0.745098 0 0 0 0 0.745098 0 0 0 0.2 0"/>
<feBlend mode="normal" in2="effect5_innerShadow_1008_1004" result="effect6_innerShadow_1008_1004"/>
</filter>
<filter id="filter9_ddddii_1008_1004" x="1309" y="14" width="61" height="61" filterUnits="userSpaceOnUse" color-interpolation-filters="sRGB">
<feFlood flood-opacity="0" result="BackgroundImageFix"/>
<feColorMatrix in="SourceAlpha" type="matrix" values="0 0 0 0 0 0 0 0 0 0 0 0 0 0 0 0 0 0 127 0" result="hardAlpha"/>
<feOffset dx="4" dy="4"/>
<feGaussianBlur stdDeviation="5"/>
<feColorMatrix type="matrix" values="0 0 0 0 0.745098 0 0 0 0 0.745098 0 0 0 0 0.745098 0 0 0 0.9 0"/>
<feBlend mode="normal" in2="BackgroundImageFix" result="effect1_dropShadow_1008_1004"/>
<feColorMatrix in="SourceAlpha" type="matrix" values="0 0 0 0 0 0 0 0 0 0 0 0 0 0 0 0 0 0 127 0" result="hardAlpha"/>
<feOffset dx="-4" dy="-4"/>
<feGaussianBlur stdDeviation="4"/>
<feColorMatrix type="matrix" values="0 0 0 0 1 0 0 0 0 1 0 0 0 0 1 0 0 0 0.9 0"/>
<feBlend mode="normal" in2="effect1_dropShadow_1008_1004" result="effect2_dropShadow_1008_1004"/>
<feColorMatrix in="SourceAlpha" type="matrix" values="0 0 0 0 0 0 0 0 0 0 0 0 0 0 0 0 0 0 127 0" result="hardAlpha"/>
<feOffset dx="4" dy="-4"/>
<feGaussianBlur stdDeviation="4"/>
<feColorMatrix type="matrix" values="0 0 0 0 0.745098 0 0 0 0 0.745098 0 0 0 0 0.745098 0 0 0 0.2 0"/>
<feBlend mode="normal" in2="effect2_dropShadow_1008_1004" result="effect3_dropShadow_1008_1004"/>
<feColorMatrix in="SourceAlpha" type="matrix" values="0 0 0 0 0 0 0 0 0 0 0 0 0 0 0 0 0 0 127 0" result="hardAlpha"/>
<feOffset dx="-4" dy="4"/>
<feGaussianBlur stdDeviation="4"/>
<feColorMatrix type="matrix" values="0 0 0 0 0.745098 0 0 0 0 0.745098 0 0 0 0 0.745098 0 0 0 0.2 0"/>
<feBlend mode="normal" in2="effect3_dropShadow_1008_1004" result="effect4_dropShadow_1008_1004"/>
<feBlend mode="normal" in="SourceGraphic" in2="effect4_dropShadow_1008_1004" result="shape"/>
<feColorMatrix in="SourceAlpha" type="matrix" values="0 0 0 0 0 0 0 0 0 0 0 0 0 0 0 0 0 0 127 0" result="hardAlpha"/>
<feOffset dx="-1" dy="-1"/>
<feGaussianBlur stdDeviation="1"/>
<feComposite in2="hardAlpha" operator="arithmetic" k2="-1" k3="1"/>
<feColorMatrix type="matrix" values="0 0 0 0 0.745098 0 0 0 0 0.745098 0 0 0 0 0.745098 0 0 0 0.5 0"/>
<feBlend mode="normal" in2="shape" result="effect5_innerShadow_1008_1004"/>
<feColorMatrix in="SourceAlpha" type="matrix" values="0 0 0 0 0 0 0 0 0 0 0 0 0 0 0 0 0 0 127 0" result="hardAlpha"/>
<feOffset dx="1" dy="1"/>
<feGaussianBlur stdDeviation="1"/>
<feComposite in2="hardAlpha" operator="arithmetic" k2="-1" k3="1"/>
<feColorMatrix type="matrix" values="0 0 0 0 1 0 0 0 0 1 0 0 0 0 1 0 0 0 0.3 0"/>
<feBlend mode="normal" in2="effect5_innerShadow_1008_1004" result="effect6_innerShadow_1008_1004"/>
</filter>
<radialGradient id="paint0_radial_1008_1004" cx="0" cy="0" r="1" gradientUnits="userSpaceOnUse" gradientTransform="translate(187.5 42.5) rotate(90) scale(9 9.5)">
<stop stop-color="#5A69EA"/>
<stop offset="1" stop-color="#BF8BCA"/>
</radialGradient>
<linearGradient id="paint1_linear_1008_1004" x1="229" y1="23.5" x2="256.234" y2="88.0013" gradientUnits="userSpaceOnUse">
<stop offset="1" stop-color="#F8F8F8"/>
<stop stop-color="#E0E0E0"/>
</linearGradient>
<linearGradient id="paint2_linear_1008_1004" x1="336" y1="23.5" x2="354.75" y2="94.5521" gradientUnits="userSpaceOnUse">
<stop offset="1" stop-color="#F8F8F8"/>
<stop stop-color="#E0E0E0"/>
</linearGradient>
<linearGradient id="paint3_linear_1008_1004" x1="497" y1="23.5" x2="523.207" y2="89.0172" gradientUnits="userSpaceOnUse">
<stop offset="1" stop-color="#F8F8F8"/>
<stop stop-color="#E0E0E0"/>
</linearGradient>
<linearGradient id="paint4_linear_1008_1004" x1="609" y1="23.5" x2="630.434" y2="92.8781" gradientUnits="userSpaceOnUse">
<stop offset="1" stop-color="#F8F8F8"/>
<stop stop-color="#E0E0E0"/>
</linearGradient>
<linearGradient id="paint5_linear_1008_1004" x1="749" y1="23.5" x2="771.8" y2="91.9" gradientUnits="userSpaceOnUse">
<stop offset="1" stop-color="#F8F8F8"/>
<stop stop-color="#E0E0E0"/>
</linearGradient>
<linearGradient id="paint6_linear_1008_1004" x1="880" y1="23.5" x2="899.332" y2="94.215" gradientUnits="userSpaceOnUse">
<stop offset="1" stop-color="#F8F8F8"/>
<stop stop-color="#E0E0E0"/>
</linearGradient>
<radialGradient id="paint7_radial_1008_1004" cx="0" cy="0" r="1" gradientUnits="userSpaceOnUse" gradientTransform="translate(1113.5 45) rotate(90) scale(8 44.5)">
<stop stop-color="#5A69EA"/>
<stop offset="1" stop-color="#BF8BCA"/>
</radialGradient>
<clipPath id="clip0_1008_1004">
<rect width="803" height="60" fill="white" transform="translate(163 12.5)"/>
</clipPath>
</defs>
</svg>
