<svg width="237" height="90" viewBox="0 0 237 90" fill="none" xmlns="http://www.w3.org/2000/svg">
<path d="M5.472 46V10.816H9.12V46H5.472ZM27.216 46L15.264 30.496H19.536L31.68 46H27.216ZM7.632 32.704V29.44H17.04C18.768 29.44 20.208 29.104 21.36 28.432C22.512 27.76 23.376 26.848 23.952 25.696C24.528 24.544 24.816 23.232 24.816 21.76C24.816 20.288 24.528 18.976 23.952 17.824C23.376 16.672 22.512 15.76 21.36 15.088C20.208 14.384 18.768 14.032 17.04 14.032H7.632V10.816H16.416C19.008 10.816 21.2 11.232 22.992 12.064C24.816 12.864 26.192 14.064 27.12 15.664C28.08 17.232 28.56 19.152 28.56 21.424V22.096C28.56 24.368 28.08 26.304 27.12 27.904C26.16 29.472 24.784 30.672 22.992 31.504C21.2 32.304 19.008 32.704 16.416 32.704H7.632ZM47.7484 46.816C45.5724 46.816 43.6844 46.448 42.0844 45.712C40.4844 44.944 39.1724 43.936 38.1484 42.688C37.1244 41.408 36.3564 39.984 35.8444 38.416C35.3644 36.848 35.1244 35.232 35.1244 33.568V32.896C35.1244 31.264 35.3644 29.664 35.8444 28.096C36.3564 26.528 37.1244 25.12 38.1484 23.872C39.1724 22.624 40.4524 21.632 41.9884 20.896C43.5564 20.128 45.3804 19.744 47.4604 19.744C50.1164 19.744 52.3244 20.336 54.0844 21.52C55.8764 22.704 57.2204 24.224 58.1164 26.08C59.0124 27.904 59.4604 29.872 59.4604 31.984V33.856H36.7564V31.072H56.9644L56.0524 32.464C56.0524 30.576 55.7164 28.928 55.0444 27.52C54.4044 26.08 53.4444 24.96 52.1644 24.16C50.9164 23.328 49.3484 22.912 47.4604 22.912C45.4764 22.912 43.8284 23.376 42.5164 24.304C41.2044 25.232 40.2124 26.464 39.5404 28C38.9004 29.536 38.5804 31.28 38.5804 33.232C38.5804 35.152 38.9004 36.912 39.5404 38.512C40.2124 40.08 41.2204 41.328 42.5644 42.256C43.9404 43.184 45.6684 43.648 47.7484 43.648C49.9564 43.648 51.7484 43.152 53.1244 42.16C54.5004 41.136 55.3484 39.936 55.6684 38.56H59.0284C58.7084 40.256 58.0364 41.728 57.0124 42.976C55.9884 44.192 54.6924 45.136 53.1244 45.808C51.5564 46.48 49.7644 46.816 47.7484 46.816Z" fill="#0D0D0D"/>
<path d="M74.4064 46.72C71.1424 46.72 68.6304 46.016 66.8704 44.608C65.1104 43.168 64.2144 41.248 64.1824 38.848H67.5424C67.6064 40.064 68.1504 41.168 69.1744 42.16C70.2304 43.152 71.9744 43.648 74.4064 43.648C76.6784 43.648 78.3744 43.184 79.4944 42.256C80.6464 41.296 81.2224 40.144 81.2224 38.8C81.2224 37.552 80.7424 36.592 79.7824 35.92C78.8544 35.216 77.4944 34.768 75.7024 34.576L72.8224 34.288C70.5184 34.032 68.6464 33.328 67.2064 32.176C65.7984 30.992 65.0944 29.376 65.0944 27.328C65.0944 25.824 65.4784 24.512 66.2464 23.392C67.0144 22.272 68.0864 21.408 69.4624 20.8C70.8704 20.16 72.5184 19.84 74.4064 19.84C77.1264 19.84 79.3344 20.48 81.0304 21.76C82.7584 23.04 83.6384 24.864 83.6704 27.232H80.3104C80.2784 26.016 79.7664 24.992 78.7744 24.16C77.7824 23.328 76.3264 22.912 74.4064 22.912C72.4224 22.912 70.9344 23.344 69.9424 24.208C68.9824 25.072 68.5024 26.128 68.5024 27.376C68.5024 28.432 68.8704 29.312 69.6064 30.016C70.3424 30.688 71.4944 31.104 73.0624 31.264L75.9424 31.552C78.5024 31.84 80.5824 32.576 82.1824 33.76C83.8144 34.944 84.6304 36.64 84.6304 38.848C84.6304 40.352 84.1984 41.712 83.3344 42.928C82.5024 44.112 81.3184 45.04 79.7824 45.712C78.2464 46.384 76.4544 46.72 74.4064 46.72ZM102.405 46.816C100.229 46.816 98.3406 46.448 96.7406 45.712C95.1406 44.944 93.8286 43.936 92.8046 42.688C91.7806 41.408 91.0126 39.984 90.5006 38.416C90.0206 36.848 89.7806 35.232 89.7806 33.568V32.896C89.7806 31.264 90.0206 29.664 90.5006 28.096C91.0126 26.528 91.7806 25.12 92.8046 23.872C93.8286 22.624 95.1086 21.632 96.6446 20.896C98.2126 20.128 100.037 19.744 102.117 19.744C104.773 19.744 106.981 20.336 108.741 21.52C110.533 22.704 111.877 24.224 112.773 26.08C113.669 27.904 114.117 29.872 114.117 31.984V33.856H91.4126V31.072H111.621L110.709 32.464C110.709 30.576 110.373 28.928 109.701 27.52C109.061 26.08 108.101 24.96 106.821 24.16C105.573 23.328 104.005 22.912 102.117 22.912C100.133 22.912 98.4846 23.376 97.1726 24.304C95.8606 25.232 94.8686 26.464 94.1966 28C93.5566 29.536 93.2366 31.28 93.2366 33.232C93.2366 35.152 93.5566 36.912 94.1966 38.512C94.8686 40.08 95.8766 41.328 97.2206 42.256C98.5966 43.184 100.325 43.648 102.405 43.648C104.613 43.648 106.405 43.152 107.781 42.16C109.157 41.136 110.005 39.936 110.325 38.56H113.685C113.365 40.256 112.693 41.728 111.669 42.976C110.645 44.192 109.349 45.136 107.781 45.808C106.213 46.48 104.421 46.816 102.405 46.816ZM136.503 46V38.368H135.927V29.344C135.927 27.456 135.431 26.016 134.439 25.024C133.447 24 131.911 23.488 129.831 23.488C128.871 23.488 127.895 23.504 126.903 23.536C125.943 23.568 125.015 23.616 124.119 23.68C123.255 23.712 122.487 23.76 121.815 23.824V20.656C122.519 20.592 123.239 20.528 123.975 20.464C124.711 20.4 125.463 20.368 126.231 20.368C127.031 20.336 127.799 20.32 128.535 20.32C131.127 20.32 133.207 20.64 134.775 21.28C136.375 21.92 137.543 22.928 138.279 24.304C139.015 25.648 139.383 27.44 139.383 29.68V46H136.503ZM127.911 46.672C126.119 46.672 124.535 46.352 123.159 45.712C121.783 45.072 120.711 44.144 119.943 42.928C119.207 41.712 118.839 40.24 118.839 38.512C118.839 36.816 119.223 35.376 119.991 34.192C120.791 33.008 121.927 32.112 123.399 31.504C124.903 30.864 126.711 30.544 128.823 30.544H136.263V33.28H128.583C126.567 33.28 125.015 33.776 123.927 34.768C122.871 35.728 122.343 36.992 122.343 38.56C122.343 40.16 122.903 41.44 124.023 42.4C125.143 43.328 126.663 43.792 128.583 43.792C129.767 43.792 130.903 43.584 131.991 43.168C133.079 42.72 133.991 41.984 134.727 40.96C135.463 39.904 135.863 38.464 135.927 36.64L136.983 38.128C136.855 40.016 136.407 41.6 135.639 42.88C134.871 44.128 133.831 45.072 132.519 45.712C131.207 46.352 129.671 46.672 127.911 46.672ZM148.375 46V20.608H151.255V31.216H150.967C150.967 27.504 151.783 24.768 153.415 23.008C155.047 21.216 157.607 20.32 161.095 20.32H161.911V23.584H160.423C157.671 23.584 155.575 24.304 154.135 25.744C152.695 27.152 151.975 29.232 151.975 31.984V46H148.375ZM178.11 46.816C175.966 46.816 174.094 46.448 172.494 45.712C170.926 44.944 169.614 43.92 168.558 42.64C167.502 41.328 166.702 39.888 166.158 38.32C165.646 36.752 165.39 35.168 165.39 33.568V32.896C165.39 31.264 165.646 29.68 166.158 28.144C166.702 26.576 167.502 25.168 168.558 23.92C169.614 22.64 170.926 21.632 172.494 20.896C174.094 20.128 175.934 19.744 178.014 19.744C180.126 19.744 181.998 20.128 183.63 20.896C185.294 21.664 186.638 22.752 187.662 24.16C188.686 25.568 189.294 27.232 189.486 29.152H186.03C185.742 27.392 184.91 25.936 183.534 24.784C182.19 23.6 180.35 23.008 178.014 23.008C175.998 23.008 174.318 23.472 172.974 24.4C171.662 25.296 170.67 26.528 169.998 28.096C169.326 29.632 168.99 31.344 168.99 33.232C168.99 35.088 169.326 36.816 169.998 38.416C170.67 39.984 171.678 41.248 173.022 42.208C174.366 43.136 176.062 43.6 178.11 43.6C179.678 43.6 181.038 43.328 182.19 42.784C183.374 42.208 184.318 41.44 185.022 40.48C185.758 39.52 186.19 38.464 186.318 37.312H189.774C189.646 39.232 189.038 40.912 187.95 42.352C186.894 43.76 185.518 44.864 183.822 45.664C182.126 46.432 180.222 46.816 178.11 46.816ZM196.375 46V10.96H199.975V30.784L198.919 31.6C198.919 29.232 199.255 27.168 199.927 25.408C200.631 23.648 201.671 22.288 203.047 21.328C204.455 20.336 206.215 19.84 208.327 19.84H208.519C211.591 19.84 213.911 20.848 215.479 22.864C217.079 24.88 217.879 27.68 217.879 31.264V46H214.327V30.496C214.327 28.224 213.703 26.432 212.455 25.12C211.207 23.808 209.527 23.152 207.415 23.152C205.143 23.152 203.335 23.888 201.991 25.36C200.647 26.8 199.975 28.704 199.975 31.072V46H196.375Z" fill="url(#paint0_radial_1008_1059)"/>
<path d="M4.7 84L0.66 69.4H2.22L5.88 83.02L5.18 82.62H7.12L6.36 83.02L9.34 70.04H10.78L7.5 84H4.7ZM13.48 84L9.88 70.04H11.36L14.68 83.02L13.94 82.62H15.92L15.16 83.02L18.46 69.4H19.98L16.28 84H13.48ZM26.5748 84.34C25.6682 84.34 24.8815 84.1867 24.2148 83.88C23.5482 83.56 23.0015 83.14 22.5748 82.62C22.1482 82.0867 21.8282 81.4933 21.6148 80.84C21.4148 80.1867 21.3148 79.5133 21.3148 78.82V78.54C21.3148 77.86 21.4148 77.1933 21.6148 76.54C21.8282 75.8867 22.1482 75.3 22.5748 74.78C23.0015 74.26 23.5348 73.8467 24.1748 73.54C24.8282 73.22 25.5882 73.06 26.4548 73.06C27.5615 73.06 28.4815 73.3067 29.2148 73.8C29.9615 74.2933 30.5215 74.9267 30.8948 75.7C31.2682 76.46 31.4548 77.28 31.4548 78.16V78.94H21.9948V77.78H30.4148L30.0348 78.36C30.0348 77.5733 29.8948 76.8867 29.6148 76.3C29.3482 75.7 28.9482 75.2333 28.4148 74.9C27.8948 74.5533 27.2415 74.38 26.4548 74.38C25.6282 74.38 24.9415 74.5733 24.3948 74.96C23.8482 75.3467 23.4348 75.86 23.1548 76.5C22.8882 77.14 22.7548 77.8667 22.7548 78.68C22.7548 79.48 22.8882 80.2133 23.1548 80.88C23.4348 81.5333 23.8548 82.0533 24.4148 82.44C24.9882 82.8267 25.7082 83.02 26.5748 83.02C27.4948 83.02 28.2415 82.8133 28.8148 82.4C29.3882 81.9733 29.7415 81.4733 29.8748 80.9H31.2748C31.1415 81.6067 30.8615 82.22 30.4348 82.74C30.0082 83.2467 29.4682 83.64 28.8148 83.92C28.1615 84.2 27.4148 84.34 26.5748 84.34ZM42.8503 84.12C42.117 84.12 41.4836 84.0133 40.9503 83.8C40.417 83.5867 40.0036 83.2267 39.7103 82.72C39.417 82.2 39.2703 81.5067 39.2703 80.64V70.08H40.7103V80.86C40.7103 81.4733 40.877 81.9467 41.2103 82.28C41.5436 82.6 42.017 82.76 42.6303 82.76H44.5303V84.12H42.8503ZM37.3703 74.56V73.42H44.5303V74.56H37.3703ZM47.4283 84V69.4H48.9283V77.66L48.4883 78C48.4883 77.0133 48.6283 76.1533 48.9083 75.42C49.2016 74.6867 49.6349 74.12 50.2083 73.72C50.7949 73.3067 51.5283 73.1 52.4083 73.1H52.4883C53.7683 73.1 54.7349 73.52 55.3883 74.36C56.0549 75.2 56.3883 76.3667 56.3883 77.86V84H54.9083V77.54C54.9083 76.5933 54.6483 75.8467 54.1283 75.3C53.6083 74.7533 52.9083 74.48 52.0283 74.48C51.0816 74.48 50.3283 74.7867 49.7683 75.4C49.2083 76 48.9283 76.7933 48.9283 77.78V84H47.4283ZM60.6836 84V73.42H62.1636V84H60.6836ZM58.9836 74.62V73.42H62.1636V74.62H58.9836ZM61.0036 71.46C60.6436 71.46 60.3703 71.3667 60.1836 71.18C60.0103 70.98 59.9236 70.7333 59.9236 70.44C59.9236 70.1467 60.0103 69.9067 60.1836 69.72C60.3703 69.52 60.6436 69.42 61.0036 69.42C61.3636 69.42 61.6303 69.52 61.8036 69.72C61.9769 69.9067 62.0636 70.1467 62.0636 70.44C62.0636 70.7333 61.9769 70.98 61.8036 71.18C61.6303 71.3667 61.3636 71.46 61.0036 71.46ZM66.1002 84V73.42H67.3002V77.86H67.0602C67.0602 76.8733 67.2068 76.0267 67.5002 75.32C67.7935 74.6133 68.2335 74.0667 68.8202 73.68C69.4068 73.2933 70.1468 73.1 71.0402 73.1H71.1002C72.4335 73.1 73.4268 73.52 74.0802 74.36C74.7335 75.1867 75.0602 76.3533 75.0602 77.86V84H73.5802V77.54C73.5802 76.62 73.3268 75.88 72.8202 75.32C72.3135 74.76 71.6068 74.48 70.7002 74.48C69.7668 74.48 69.0135 74.7733 68.4402 75.36C67.8802 75.9333 67.6002 76.6933 67.6002 77.64V84H66.1002ZM85.9955 84L81.7355 79.04H80.0155L85.0355 73.42H86.6355L82.1355 78.44L82.2355 77.62L87.7555 84H85.9955ZM78.7955 84V69.4H80.2955V84H78.7955ZM99.9 84.34C98.9667 84.34 98.1467 84.1333 97.44 83.72C96.7467 83.3067 96.2 82.7267 95.8 81.98C95.4133 81.2333 95.2067 80.3733 95.18 79.4H95.64V84H94.44V69.4H95.94V76.7L95.36 78.04C95.3867 76.9733 95.6 76.0733 96 75.34C96.4133 74.5933 96.96 74.0267 97.64 73.64C98.3333 73.2533 99.12 73.06 100 73.06C100.773 73.06 101.473 73.2067 102.1 73.5C102.727 73.7933 103.26 74.1933 103.7 74.7C104.153 75.2067 104.493 75.7933 104.72 76.46C104.96 77.1133 105.08 77.8067 105.08 78.54V78.82C105.08 79.54 104.96 80.2333 104.72 80.9C104.48 81.5533 104.133 82.14 103.68 82.66C103.24 83.18 102.7 83.5933 102.06 83.9C101.42 84.1933 100.7 84.34 99.9 84.34ZM99.74 83.02C100.54 83.02 101.227 82.8267 101.8 82.44C102.373 82.0533 102.813 81.5333 103.12 80.88C103.427 80.2267 103.58 79.4933 103.58 78.68C103.58 77.8533 103.42 77.12 103.1 76.48C102.793 75.8267 102.347 75.3133 101.76 74.94C101.187 74.5667 100.513 74.38 99.74 74.38C99.02 74.38 98.3667 74.54 97.78 74.86C97.1933 75.18 96.7267 75.6333 96.38 76.22C96.0467 76.7933 95.88 77.4733 95.88 78.26V79.24C95.88 79.9867 96.0467 80.6467 96.38 81.22C96.7267 81.78 97.1933 82.22 97.78 82.54C98.3667 82.86 99.02 83.02 99.74 83.02ZM112.532 84.34C111.625 84.34 110.839 84.1867 110.172 83.88C109.505 83.56 108.959 83.14 108.532 82.62C108.105 82.0867 107.785 81.4933 107.572 80.84C107.372 80.1867 107.272 79.5133 107.272 78.82V78.54C107.272 77.86 107.372 77.1933 107.572 76.54C107.785 75.8867 108.105 75.3 108.532 74.78C108.959 74.26 109.492 73.8467 110.132 73.54C110.785 73.22 111.545 73.06 112.412 73.06C113.519 73.06 114.439 73.3067 115.172 73.8C115.919 74.2933 116.479 74.9267 116.852 75.7C117.225 76.46 117.412 77.28 117.412 78.16V78.94H107.952V77.78H116.372L115.992 78.36C115.992 77.5733 115.852 76.8867 115.572 76.3C115.305 75.7 114.905 75.2333 114.372 74.9C113.852 74.5533 113.199 74.38 112.412 74.38C111.585 74.38 110.899 74.5733 110.352 74.96C109.805 75.3467 109.392 75.86 109.112 76.5C108.845 77.14 108.712 77.8667 108.712 78.68C108.712 79.48 108.845 80.2133 109.112 80.88C109.392 81.5333 109.812 82.0533 110.372 82.44C110.945 82.8267 111.665 83.02 112.532 83.02C113.452 83.02 114.199 82.8133 114.772 82.4C115.345 81.9733 115.699 81.4733 115.832 80.9H117.232C117.099 81.6067 116.819 82.22 116.392 82.74C115.965 83.2467 115.425 83.64 114.772 83.92C114.119 84.2 113.372 84.34 112.532 84.34ZM120.599 84V72.6C120.599 71.4933 120.886 70.6733 121.459 70.14C122.033 69.6067 122.893 69.34 124.039 69.34H125.379V70.62H123.759C123.199 70.62 122.773 70.7667 122.479 71.06C122.186 71.3533 122.039 71.7667 122.039 72.3V84H120.599ZM119.059 74.66V73.5H125.599V74.66H119.059ZM132.442 84.34C131.535 84.34 130.735 84.1867 130.042 83.88C129.362 83.56 128.782 83.14 128.302 82.62C127.835 82.0867 127.475 81.4933 127.222 80.84C126.982 80.1867 126.862 79.52 126.862 78.84V78.56C126.862 77.88 126.988 77.2133 127.242 76.56C127.495 75.8933 127.862 75.3 128.342 74.78C128.822 74.26 129.402 73.8467 130.082 73.54C130.775 73.22 131.562 73.06 132.442 73.06C133.335 73.06 134.122 73.22 134.802 73.54C135.495 73.8467 136.082 74.26 136.562 74.78C137.042 75.3 137.402 75.8933 137.642 76.56C137.895 77.2133 138.022 77.88 138.022 78.56V78.84C138.022 79.52 137.902 80.1867 137.662 80.84C137.422 81.4933 137.062 82.0867 136.582 82.62C136.115 83.14 135.535 83.56 134.842 83.88C134.148 84.1867 133.348 84.34 132.442 84.34ZM132.442 83C133.322 83 134.062 82.8067 134.662 82.42C135.275 82.02 135.742 81.5 136.062 80.86C136.382 80.2067 136.542 79.4867 136.542 78.7C136.542 77.9 136.375 77.18 136.042 76.54C135.722 75.8867 135.255 75.3733 134.642 75C134.028 74.6133 133.295 74.42 132.442 74.42C131.602 74.42 130.875 74.6133 130.262 75C129.648 75.3733 129.175 75.8867 128.842 76.54C128.522 77.18 128.362 77.9 128.362 78.7C128.362 79.4867 128.522 80.2067 128.842 80.86C129.162 81.5 129.622 82.02 130.222 82.42C130.835 82.8067 131.575 83 132.442 83ZM141.081 84V73.42H142.281V77.84H142.161C142.161 76.2933 142.501 75.1533 143.181 74.42C143.861 73.6733 144.927 73.3 146.381 73.3H146.721V74.66H146.101C144.954 74.66 144.081 74.96 143.481 75.56C142.881 76.1467 142.581 77.0133 142.581 78.16V84H141.081ZM153.43 84.34C152.524 84.34 151.737 84.1867 151.07 83.88C150.404 83.56 149.857 83.14 149.43 82.62C149.004 82.0867 148.684 81.4933 148.47 80.84C148.27 80.1867 148.17 79.5133 148.17 78.82V78.54C148.17 77.86 148.27 77.1933 148.47 76.54C148.684 75.8867 149.004 75.3 149.43 74.78C149.857 74.26 150.39 73.8467 151.03 73.54C151.684 73.22 152.444 73.06 153.31 73.06C154.417 73.06 155.337 73.3067 156.07 73.8C156.817 74.2933 157.377 74.9267 157.75 75.7C158.124 76.46 158.31 77.28 158.31 78.16V78.94H148.85V77.78H157.27L156.89 78.36C156.89 77.5733 156.75 76.8867 156.47 76.3C156.204 75.7 155.804 75.2333 155.27 74.9C154.75 74.5533 154.097 74.38 153.31 74.38C152.484 74.38 151.797 74.5733 151.25 74.96C150.704 75.3467 150.29 75.86 150.01 76.5C149.744 77.14 149.61 77.8667 149.61 78.68C149.61 79.48 149.744 80.2133 150.01 80.88C150.29 81.5333 150.71 82.0533 151.27 82.44C151.844 82.8267 152.564 83.02 153.43 83.02C154.35 83.02 155.097 82.8133 155.67 82.4C156.244 81.9733 156.597 81.4733 156.73 80.9H158.13C157.997 81.6067 157.717 82.22 157.29 82.74C156.864 83.2467 156.324 83.64 155.67 83.92C155.017 84.2 154.27 84.34 153.43 84.34ZM168.826 84L171.086 73.76H173.186L175.806 84H174.506L171.886 73.82H172.366L170.086 84H168.826ZM167.966 84V82.78H169.786V84H167.966ZM167.606 84L164.546 73.42H165.986L169.006 84H167.606ZM174.846 84V82.78H176.626V84H174.846ZM175.626 84L178.266 73.42H179.646L176.946 84H175.626ZM186.653 84.34C185.746 84.34 184.96 84.1867 184.293 83.88C183.626 83.56 183.08 83.14 182.653 82.62C182.226 82.0867 181.906 81.4933 181.693 80.84C181.493 80.1867 181.393 79.5133 181.393 78.82V78.54C181.393 77.86 181.493 77.1933 181.693 76.54C181.906 75.8867 182.226 75.3 182.653 74.78C183.08 74.26 183.613 73.8467 184.253 73.54C184.906 73.22 185.666 73.06 186.533 73.06C187.64 73.06 188.56 73.3067 189.293 73.8C190.04 74.2933 190.6 74.9267 190.973 75.7C191.346 76.46 191.533 77.28 191.533 78.16V78.94H182.073V77.78H190.493L190.113 78.36C190.113 77.5733 189.973 76.8867 189.693 76.3C189.426 75.7 189.026 75.2333 188.493 74.9C187.973 74.5533 187.32 74.38 186.533 74.38C185.706 74.38 185.02 74.5733 184.473 74.96C183.926 75.3467 183.513 75.86 183.233 76.5C182.966 77.14 182.833 77.8667 182.833 78.68C182.833 79.48 182.966 80.2133 183.233 80.88C183.513 81.5333 183.933 82.0533 184.493 82.44C185.066 82.8267 185.786 83.02 186.653 83.02C187.573 83.02 188.32 82.8133 188.893 82.4C189.466 81.9733 189.82 81.4733 189.953 80.9H191.353C191.22 81.6067 190.94 82.22 190.513 82.74C190.086 83.2467 189.546 83.64 188.893 83.92C188.24 84.2 187.493 84.34 186.653 84.34ZM202.428 84.3C201.068 84.3 200.022 84.0067 199.288 83.42C198.555 82.82 198.182 82.02 198.168 81.02H199.568C199.595 81.5267 199.822 81.9867 200.248 82.4C200.688 82.8133 201.415 83.02 202.428 83.02C203.375 83.02 204.082 82.8267 204.548 82.44C205.028 82.04 205.268 81.56 205.268 81C205.268 80.48 205.068 80.08 204.668 79.8C204.282 79.5067 203.715 79.32 202.968 79.24L201.768 79.12C200.808 79.0133 200.028 78.72 199.428 78.24C198.842 77.7467 198.548 77.0733 198.548 76.22C198.548 75.5933 198.708 75.0467 199.028 74.58C199.348 74.1133 199.795 73.7533 200.368 73.5C200.955 73.2333 201.642 73.1 202.428 73.1C203.562 73.1 204.482 73.3667 205.188 73.9C205.908 74.4333 206.275 75.1933 206.288 76.18H204.888C204.875 75.6733 204.662 75.2467 204.248 74.9C203.835 74.5533 203.228 74.38 202.428 74.38C201.602 74.38 200.982 74.56 200.568 74.92C200.168 75.28 199.968 75.72 199.968 76.24C199.968 76.68 200.122 77.0467 200.428 77.34C200.735 77.62 201.215 77.7933 201.868 77.86L203.068 77.98C204.135 78.1 205.002 78.4067 205.668 78.9C206.348 79.3933 206.688 80.1 206.688 81.02C206.688 81.6467 206.508 82.2133 206.148 82.72C205.802 83.2133 205.308 83.6 204.668 83.88C204.028 84.16 203.282 84.3 202.428 84.3ZM214.094 84.34C213.188 84.34 212.401 84.1867 211.734 83.88C211.068 83.56 210.521 83.14 210.094 82.62C209.668 82.0867 209.348 81.4933 209.134 80.84C208.934 80.1867 208.834 79.5133 208.834 78.82V78.54C208.834 77.86 208.934 77.1933 209.134 76.54C209.348 75.8867 209.668 75.3 210.094 74.78C210.521 74.26 211.054 73.8467 211.694 73.54C212.348 73.22 213.108 73.06 213.974 73.06C215.081 73.06 216.001 73.3067 216.734 73.8C217.481 74.2933 218.041 74.9267 218.414 75.7C218.788 76.46 218.974 77.28 218.974 78.16V78.94H209.514V77.78H217.934L217.554 78.36C217.554 77.5733 217.414 76.8867 217.134 76.3C216.868 75.7 216.468 75.2333 215.934 74.9C215.414 74.5533 214.761 74.38 213.974 74.38C213.148 74.38 212.461 74.5733 211.914 74.96C211.368 75.3467 210.954 75.86 210.674 76.5C210.408 77.14 210.274 77.8667 210.274 78.68C210.274 79.48 210.408 80.2133 210.674 80.88C210.954 81.5333 211.374 82.0533 211.934 82.44C212.508 82.8267 213.228 83.02 214.094 83.02C215.014 83.02 215.761 82.8133 216.334 82.4C216.908 81.9733 217.261 81.4733 217.394 80.9H218.794C218.661 81.6067 218.381 82.22 217.954 82.74C217.528 83.2467 216.988 83.64 216.334 83.92C215.681 84.2 214.934 84.34 214.094 84.34ZM221.962 84V69.4H223.462V84H221.962ZM220.422 70.62V69.4H223.462V70.62H220.422ZM227.45 84V69.4H228.95V84H227.45ZM225.91 70.62V69.4H228.95V70.62H225.91ZM232.538 84V82.02H234.418V84H232.538Z" fill="#717171"/>
<defs>
<radialGradient id="paint0_radial_1008_1059" cx="0" cy="0" r="1" gradientUnits="userSpaceOnUse" gradientTransform="translate(118.5 30) rotate(90) scale(30 118.5)">
<stop stop-color="#5A69EA"/>
<stop offset="1" stop-color="#BF8BCA"/>
</radialGradient>
</defs>
</svg>
