<svg width="253" height="44" viewBox="0 0 253 44" fill="none" xmlns="http://www.w3.org/2000/svg">
<g filter="url(#filter0_ddiiii_1008_1076)">
<rect x="3" y="3" width="110" height="38" rx="10" fill="#DFDFDF"/>
<path d="M23.95 27.238C23.0353 27.238 22.2513 27.0793 21.598 26.762C20.954 26.4353 20.4267 26.0107 20.016 25.488C19.6147 24.9653 19.3207 24.4007 19.134 23.794C18.9473 23.178 18.854 22.5807 18.854 22.002V21.736C18.854 21.1107 18.9473 20.49 19.134 19.874C19.33 19.2487 19.6287 18.684 20.03 18.18C20.4407 17.676 20.9633 17.2747 21.598 16.976C22.2327 16.668 22.984 16.514 23.852 16.514C24.7293 16.514 25.4853 16.668 26.12 16.976C26.764 17.284 27.2773 17.718 27.66 18.278C28.0427 18.8287 28.276 19.482 28.36 20.238H27.282C27.2073 19.6313 27.0113 19.1273 26.694 18.726C26.3767 18.3153 25.9707 18.0073 25.476 17.802C24.9907 17.5967 24.4493 17.494 23.852 17.494C23.208 17.494 22.6387 17.6107 22.144 17.844C21.6587 18.068 21.2527 18.3853 20.926 18.796C20.5993 19.1973 20.352 19.664 20.184 20.196C20.016 20.7187 19.932 21.2787 19.932 21.876C19.932 22.4453 20.0113 22.9913 20.17 23.514C20.338 24.0367 20.59 24.508 20.926 24.928C21.262 25.3387 21.682 25.6653 22.186 25.908C22.69 26.1413 23.278 26.258 23.95 26.258C24.8833 26.258 25.6673 26.0247 26.302 25.558C26.9367 25.082 27.3287 24.4007 27.478 23.514H28.556C28.4533 24.214 28.2107 24.8487 27.828 25.418C27.4453 25.978 26.9273 26.4213 26.274 26.748C25.63 27.0747 24.8553 27.238 23.95 27.238ZM34.9812 27V24.774H34.8132V22.142C34.8132 21.5913 34.6686 21.1713 34.3792 20.882C34.0899 20.5833 33.6419 20.434 33.0352 20.434C32.7552 20.434 32.4706 20.4387 32.1812 20.448C31.9012 20.4573 31.6306 20.4713 31.3692 20.49C31.1172 20.4993 30.8932 20.5133 30.6972 20.532V19.608C30.9026 19.5893 31.1126 19.5707 31.3272 19.552C31.5419 19.5333 31.7612 19.524 31.9852 19.524C32.2186 19.5147 32.4426 19.51 32.6572 19.51C33.4132 19.51 34.0199 19.6033 34.4772 19.79C34.9439 19.9767 35.2846 20.2707 35.4992 20.672C35.7139 21.064 35.8212 21.5867 35.8212 22.24V27H34.9812ZM32.4752 27.196C31.9526 27.196 31.4906 27.1027 31.0892 26.916C30.6879 26.7293 30.3752 26.4587 30.1512 26.104C29.9366 25.7493 29.8292 25.32 29.8292 24.816C29.8292 24.3213 29.9412 23.9013 30.1652 23.556C30.3986 23.2107 30.7299 22.9493 31.1592 22.772C31.5979 22.5853 32.1252 22.492 32.7412 22.492H34.9112V23.29H32.6712C32.0832 23.29 31.6306 23.4347 31.3132 23.724C31.0052 24.004 30.8512 24.3727 30.8512 24.83C30.8512 25.2967 31.0146 25.67 31.3412 25.95C31.6679 26.2207 32.1112 26.356 32.6712 26.356C33.0166 26.356 33.3479 26.2953 33.6652 26.174C33.9826 26.0433 34.2486 25.8287 34.4632 25.53C34.6779 25.222 34.7946 24.802 34.8132 24.27L35.1212 24.704C35.0839 25.2547 34.9532 25.7167 34.7292 26.09C34.5052 26.454 34.2019 26.7293 33.8192 26.916C33.4366 27.1027 32.9886 27.196 32.4752 27.196ZM40.7819 27.21C39.8299 27.21 39.0973 27.0047 38.5839 26.594C38.0706 26.174 37.8093 25.614 37.7999 24.914H38.7799C38.7986 25.2687 38.9573 25.5907 39.2559 25.88C39.5639 26.1693 40.0726 26.314 40.7819 26.314C41.4446 26.314 41.9393 26.1787 42.2659 25.908C42.6019 25.628 42.7699 25.292 42.7699 24.9C42.7699 24.536 42.6299 24.256 42.3499 24.06C42.0793 23.8547 41.6826 23.724 41.1599 23.668L40.3199 23.584C39.6479 23.5093 39.1019 23.304 38.6819 22.968C38.2713 22.6227 38.0659 22.1513 38.0659 21.554C38.0659 21.1153 38.1779 20.7327 38.4019 20.406C38.6259 20.0793 38.9386 19.8273 39.3399 19.65C39.7506 19.4633 40.2313 19.37 40.7819 19.37C41.5753 19.37 42.2193 19.5567 42.7139 19.93C43.2179 20.3033 43.4746 20.8353 43.4839 21.526H42.5039C42.4946 21.1713 42.3453 20.8727 42.0559 20.63C41.7666 20.3873 41.3419 20.266 40.7819 20.266C40.2033 20.266 39.7693 20.392 39.4799 20.644C39.1999 20.896 39.0599 21.204 39.0599 21.568C39.0599 21.876 39.1673 22.1327 39.3819 22.338C39.5966 22.534 39.9326 22.6553 40.3899 22.702L41.2299 22.786C41.9766 22.87 42.5833 23.0847 43.0499 23.43C43.5259 23.7753 43.7639 24.27 43.7639 24.914C43.7639 25.3527 43.6379 25.7493 43.3859 26.104C43.1433 26.4493 42.7979 26.72 42.3499 26.916C41.9019 27.112 41.3793 27.21 40.7819 27.21ZM48.9481 27.238C48.3134 27.238 47.7628 27.1307 47.2961 26.916C46.8294 26.692 46.4468 26.398 46.1481 26.034C45.8494 25.6607 45.6254 25.2453 45.4761 24.788C45.3361 24.3307 45.2661 23.8593 45.2661 23.374V23.178C45.2661 22.702 45.3361 22.2353 45.4761 21.778C45.6254 21.3207 45.8494 20.91 46.1481 20.546C46.4468 20.182 46.8201 19.8927 47.2681 19.678C47.7254 19.454 48.2574 19.342 48.8641 19.342C49.6388 19.342 50.2828 19.5147 50.7961 19.86C51.3188 20.2053 51.7108 20.6487 51.9721 21.19C52.2334 21.722 52.3641 22.296 52.3641 22.912V23.458H45.7421V22.646H51.6361L51.3701 23.052C51.3701 22.5013 51.2721 22.0207 51.0761 21.61C50.8894 21.19 50.6094 20.8633 50.2361 20.63C49.8721 20.3873 49.4148 20.266 48.8641 20.266C48.2854 20.266 47.8048 20.4013 47.4221 20.672C47.0394 20.9427 46.7501 21.302 46.5541 21.75C46.3674 22.198 46.2741 22.7067 46.2741 23.276C46.2741 23.836 46.3674 24.3493 46.5541 24.816C46.7501 25.2733 47.0441 25.6373 47.4361 25.908C47.8374 26.1787 48.3414 26.314 48.9481 26.314C49.5921 26.314 50.1148 26.1693 50.5161 25.88C50.9174 25.5813 51.1648 25.2313 51.2581 24.83H52.2381C52.1448 25.3247 51.9488 25.754 51.6501 26.118C51.3514 26.4727 50.9734 26.748 50.5161 26.944C50.0588 27.14 49.5361 27.238 48.9481 27.238ZM61.1669 27.238C60.3083 27.238 59.5849 27.1027 58.9969 26.832C58.4089 26.552 57.9609 26.1693 57.6529 25.684C57.3543 25.1893 57.2049 24.634 57.2049 24.018H58.2689C58.2689 24.41 58.3623 24.7787 58.5489 25.124C58.7449 25.46 59.0529 25.7353 59.4729 25.95C59.9023 26.1553 60.4669 26.258 61.1669 26.258C61.8109 26.258 62.3429 26.1647 62.7629 25.978C63.1923 25.7913 63.5096 25.5393 63.7149 25.222C63.9296 24.9047 64.0369 24.55 64.0369 24.158C64.0369 23.6633 63.8409 23.2527 63.4489 22.926C63.0663 22.59 62.4876 22.3893 61.7129 22.324L60.5369 22.212C59.6596 22.1373 58.9596 21.8667 58.4369 21.4C57.9236 20.924 57.6669 20.2987 57.6669 19.524C57.6669 18.936 57.8069 18.418 58.0869 17.97C58.3669 17.522 58.7636 17.1673 59.2769 16.906C59.7996 16.6447 60.4249 16.514 61.1529 16.514C61.8903 16.514 62.5203 16.6493 63.0429 16.92C63.5749 17.1813 63.9809 17.5453 64.2609 18.012C64.5409 18.4787 64.6809 19.02 64.6809 19.636H63.6169C63.6169 19.2627 63.5329 18.9127 63.3649 18.586C63.1969 18.2593 62.9309 17.998 62.5669 17.802C62.2029 17.5967 61.7316 17.494 61.1529 17.494C60.6023 17.494 60.1449 17.5873 59.7809 17.774C59.4263 17.9607 59.1603 18.208 58.9829 18.516C58.8149 18.824 58.7309 19.16 58.7309 19.524C58.7309 19.9813 58.8943 20.3687 59.2209 20.686C59.5476 21.0033 60.0189 21.1853 60.6349 21.232L61.8109 21.344C62.5016 21.4 63.0896 21.554 63.5749 21.806C64.0696 22.0487 64.4476 22.3707 64.7089 22.772C64.9703 23.164 65.1009 23.626 65.1009 24.158C65.1009 24.7553 64.9376 25.2873 64.6109 25.754C64.2936 26.2207 63.8409 26.5847 63.2529 26.846C62.6649 27.1073 61.9696 27.238 61.1669 27.238ZM70.1026 27.084C69.5893 27.084 69.146 27.0093 68.7726 26.86C68.3993 26.7107 68.11 26.4587 67.9046 26.104C67.6993 25.74 67.5966 25.2547 67.5966 24.648V17.256H68.6046V24.802C68.6046 25.2313 68.7213 25.5627 68.9546 25.796C69.188 26.02 69.5193 26.132 69.9486 26.132H71.2786V27.084H70.1026ZM66.2666 20.392V19.594H71.2786V20.392H66.2666ZM75.8692 27.21C74.9826 27.21 74.3059 26.9253 73.8392 26.356C73.3726 25.7773 73.1392 24.9747 73.1392 23.948V19.58H74.1752V24.158C74.1752 24.802 74.3432 25.3153 74.6792 25.698C75.0246 26.0713 75.5006 26.258 76.1072 26.258C76.7419 26.258 77.2459 26.0573 77.6192 25.656C78.0019 25.2547 78.1932 24.718 78.1932 24.046V19.58H79.2432V27H78.4032V23.906H78.5712C78.5712 24.5967 78.4732 25.1893 78.2772 25.684C78.0812 26.1693 77.7872 26.5473 77.3952 26.818C77.0032 27.0793 76.5086 27.21 75.9112 27.21H75.8692ZM85.0269 27.238C84.4855 27.238 83.9909 27.14 83.5429 26.944C83.1042 26.7387 82.7215 26.4587 82.3949 26.104C82.0775 25.74 81.8302 25.3293 81.6529 24.872C81.4849 24.4053 81.4009 23.9107 81.4009 23.388V23.192C81.4009 22.688 81.4849 22.2073 81.6529 21.75C81.8209 21.2833 82.0589 20.8727 82.3669 20.518C82.6842 20.154 83.0622 19.8693 83.5009 19.664C83.9489 19.4493 84.4482 19.342 84.9989 19.342C85.6242 19.342 86.1749 19.4773 86.6509 19.748C87.1269 20.0187 87.5095 20.4107 87.7989 20.924C88.0882 21.428 88.2422 22.0487 88.2609 22.786L87.7989 21.918V16.78H88.8489V27H88.0089V23.71H88.3449C88.3262 24.4847 88.1629 25.138 87.8549 25.67C87.5562 26.1927 87.1595 26.5847 86.6649 26.846C86.1795 27.1073 85.6335 27.238 85.0269 27.238ZM85.1669 26.314C85.6709 26.314 86.1235 26.202 86.5249 25.978C86.9355 25.754 87.2575 25.4367 87.4909 25.026C87.7242 24.606 87.8409 24.1253 87.8409 23.584V22.912C87.8409 22.3893 87.7242 21.932 87.4909 21.54C87.2575 21.1387 86.9355 20.826 86.5249 20.602C86.1235 20.378 85.6662 20.266 85.1529 20.266C84.6022 20.266 84.1215 20.4013 83.7109 20.672C83.3095 20.9333 82.9969 21.2927 82.7729 21.75C82.5582 22.2073 82.4509 22.7207 82.4509 23.29C82.4509 23.878 82.5629 24.4007 82.7869 24.858C83.0109 25.3153 83.3282 25.6747 83.7389 25.936C84.1495 26.188 84.6255 26.314 85.1669 26.314ZM90.9012 29.884V28.946H91.8532C92.1798 28.946 92.4598 28.904 92.6932 28.82C92.9265 28.7453 93.1225 28.61 93.2812 28.414C93.4398 28.218 93.5752 27.9473 93.6872 27.602L96.1792 19.594H97.2012L94.5972 27.896C94.4478 28.372 94.2425 28.7547 93.9812 29.044C93.7198 29.3427 93.4072 29.5573 93.0432 29.688C92.6792 29.8187 92.2638 29.884 91.7972 29.884H90.9012ZM93.3092 26.818V25.936H94.6392V26.818H93.3092ZM93.1832 26.818L90.4952 19.594H91.5732L94.1632 26.818H93.1832Z" fill="#AC7F5E"/>
</g>
<rect x="121" y="3" width="132" height="38" rx="10" fill="#DFDFDF"/>
<path d="M137.596 27V16.78H138.66V27H137.596ZM138.38 22.282V21.316L142.902 21.302V22.268L138.38 22.282ZM138.38 17.732V16.78H143.168V17.732H138.38ZM148.149 27.238C147.515 27.238 146.964 27.1307 146.497 26.916C146.031 26.692 145.648 26.398 145.349 26.034C145.051 25.6607 144.827 25.2453 144.677 24.788C144.537 24.3307 144.467 23.8593 144.467 23.374V23.178C144.467 22.702 144.537 22.2353 144.677 21.778C144.827 21.3207 145.051 20.91 145.349 20.546C145.648 20.182 146.021 19.8927 146.469 19.678C146.927 19.454 147.459 19.342 148.065 19.342C148.84 19.342 149.484 19.5147 149.997 19.86C150.52 20.2053 150.912 20.6487 151.173 21.19C151.435 21.722 151.565 22.296 151.565 22.912V23.458H144.943V22.646H150.837L150.571 23.052C150.571 22.5013 150.473 22.0207 150.277 21.61C150.091 21.19 149.811 20.8633 149.437 20.63C149.073 20.3873 148.616 20.266 148.065 20.266C147.487 20.266 147.006 20.4013 146.623 20.672C146.241 20.9427 145.951 21.302 145.755 21.75C145.569 22.198 145.475 22.7067 145.475 23.276C145.475 23.836 145.569 24.3493 145.755 24.816C145.951 25.2733 146.245 25.6373 146.637 25.908C147.039 26.1787 147.543 26.314 148.149 26.314C148.793 26.314 149.316 26.1693 149.717 25.88C150.119 25.5813 150.366 25.2313 150.459 24.83H151.439C151.346 25.3247 151.15 25.754 150.851 26.118C150.553 26.4727 150.175 26.748 149.717 26.944C149.26 27.14 148.737 27.238 148.149 27.238ZM157.409 27.238C156.755 27.238 156.181 27.0933 155.687 26.804C155.201 26.5147 154.819 26.1087 154.539 25.586C154.268 25.0633 154.123 24.4613 154.105 23.78H154.427V27H153.587V16.78H154.637V21.89L154.231 22.828C154.249 22.0813 154.399 21.4513 154.679 20.938C154.968 20.4153 155.351 20.0187 155.827 19.748C156.312 19.4773 156.863 19.342 157.479 19.342C158.02 19.342 158.51 19.4447 158.949 19.65C159.387 19.8553 159.761 20.1353 160.069 20.49C160.386 20.8447 160.624 21.2553 160.783 21.722C160.951 22.1793 161.035 22.6647 161.035 23.178V23.374C161.035 23.878 160.951 24.3633 160.783 24.83C160.615 25.2873 160.372 25.698 160.055 26.062C159.747 26.426 159.369 26.7153 158.921 26.93C158.473 27.1353 157.969 27.238 157.409 27.238ZM157.297 26.314C157.857 26.314 158.337 26.1787 158.739 25.908C159.14 25.6373 159.448 25.2733 159.663 24.816C159.877 24.3587 159.985 23.8453 159.985 23.276C159.985 22.6973 159.873 22.184 159.649 21.736C159.434 21.2787 159.121 20.9193 158.711 20.658C158.309 20.3967 157.838 20.266 157.297 20.266C156.793 20.266 156.335 20.378 155.925 20.602C155.514 20.826 155.187 21.1433 154.945 21.554C154.711 21.9553 154.595 22.4313 154.595 22.982V23.668C154.595 24.1907 154.711 24.6527 154.945 25.054C155.187 25.446 155.514 25.754 155.925 25.978C156.335 26.202 156.793 26.314 157.297 26.314ZM163.157 27V19.594H163.997V22.688H163.913C163.913 21.6053 164.151 20.8073 164.627 20.294C165.103 19.7713 165.849 19.51 166.867 19.51H167.105V20.462H166.671C165.868 20.462 165.257 20.672 164.837 21.092C164.417 21.5027 164.207 22.1093 164.207 22.912V27H163.157ZM171.365 27.21C170.479 27.21 169.802 26.9253 169.335 26.356C168.869 25.7773 168.635 24.9747 168.635 23.948V19.58H169.671V24.158C169.671 24.802 169.839 25.3153 170.175 25.698C170.521 26.0713 170.997 26.258 171.603 26.258C172.238 26.258 172.742 26.0573 173.115 25.656C173.498 25.2547 173.689 24.718 173.689 24.046V19.58H174.739V27H173.899V23.906H174.067C174.067 24.5967 173.969 25.1893 173.773 25.684C173.577 26.1693 173.283 26.5473 172.891 26.818C172.499 27.0793 172.005 27.21 171.407 27.21H171.365ZM181.993 27V24.774H181.825V22.142C181.825 21.5913 181.68 21.1713 181.391 20.882C181.102 20.5833 180.654 20.434 180.047 20.434C179.767 20.434 179.482 20.4387 179.193 20.448C178.913 20.4573 178.642 20.4713 178.381 20.49C178.129 20.4993 177.905 20.5133 177.709 20.532V19.608C177.914 19.5893 178.124 19.5707 178.339 19.552C178.554 19.5333 178.773 19.524 178.997 19.524C179.23 19.5147 179.454 19.51 179.669 19.51C180.425 19.51 181.032 19.6033 181.489 19.79C181.956 19.9767 182.296 20.2707 182.511 20.672C182.726 21.064 182.833 21.5867 182.833 22.24V27H181.993ZM179.487 27.196C178.964 27.196 178.502 27.1027 178.101 26.916C177.7 26.7293 177.387 26.4587 177.163 26.104C176.948 25.7493 176.841 25.32 176.841 24.816C176.841 24.3213 176.953 23.9013 177.177 23.556C177.41 23.2107 177.742 22.9493 178.171 22.772C178.61 22.5853 179.137 22.492 179.753 22.492H181.923V23.29H179.683C179.095 23.29 178.642 23.4347 178.325 23.724C178.017 24.004 177.863 24.3727 177.863 24.83C177.863 25.2967 178.026 25.67 178.353 25.95C178.68 26.2207 179.123 26.356 179.683 26.356C180.028 26.356 180.36 26.2953 180.677 26.174C180.994 26.0433 181.26 25.8287 181.475 25.53C181.69 25.222 181.806 24.802 181.825 24.27L182.133 24.704C182.096 25.2547 181.965 25.7167 181.741 26.09C181.517 26.454 181.214 26.7293 180.831 26.916C180.448 27.1027 180 27.196 179.487 27.196ZM185.456 27V19.594H186.296V22.688H186.212C186.212 21.6053 186.45 20.8073 186.926 20.294C187.402 19.7713 188.148 19.51 189.166 19.51H189.404V20.462H188.97C188.167 20.462 187.556 20.672 187.136 21.092C186.716 21.5027 186.506 22.1093 186.506 22.912V27H185.456ZM190.69 29.884V28.946H191.642C191.969 28.946 192.249 28.904 192.482 28.82C192.716 28.7453 192.912 28.61 193.07 28.414C193.229 28.218 193.364 27.9473 193.476 27.602L195.968 19.594H196.99L194.386 27.896C194.237 28.372 194.032 28.7547 193.77 29.044C193.509 29.3427 193.196 29.5573 192.832 29.688C192.468 29.8187 192.053 29.884 191.586 29.884H190.69ZM193.098 26.818V25.936H194.428V26.818H193.098ZM192.972 26.818L190.284 19.594H191.362L193.952 26.818H192.972ZM201.87 27V25.446C201.87 25.0447 201.926 24.704 202.038 24.424C202.15 24.144 202.346 23.8873 202.626 23.654C202.906 23.4207 203.289 23.1967 203.774 22.982L205.776 22.044C206.262 21.82 206.649 21.526 206.938 21.162C207.228 20.798 207.372 20.322 207.372 19.734C207.372 19.0153 207.167 18.4553 206.756 18.054C206.355 17.6433 205.8 17.438 205.09 17.438C204.39 17.438 203.83 17.6433 203.41 18.054C203 18.4553 202.794 19.0153 202.794 19.734H201.772C201.772 19.1273 201.898 18.5813 202.15 18.096C202.402 17.6107 202.776 17.228 203.27 16.948C203.765 16.6587 204.372 16.514 205.09 16.514C205.818 16.514 206.425 16.6587 206.91 16.948C207.396 17.228 207.764 17.606 208.016 18.082C208.268 18.5487 208.394 19.0667 208.394 19.636V19.832C208.394 20.56 208.184 21.1713 207.764 21.666C207.354 22.1513 206.812 22.5527 206.14 22.87L204.124 23.808C203.648 24.0227 203.326 24.2467 203.158 24.48C203 24.704 202.92 24.9933 202.92 25.348V26.594L202.612 26.09H208.562V27H201.87ZM214.488 27.238C213.769 27.238 213.153 27.112 212.64 26.86C212.127 26.608 211.707 26.258 211.38 25.81C211.053 25.3527 210.811 24.8207 210.652 24.214C210.503 23.598 210.428 22.9353 210.428 22.226V21.568C210.428 20.5693 210.573 19.692 210.862 18.936C211.161 18.18 211.609 17.5873 212.206 17.158C212.813 16.7287 213.573 16.514 214.488 16.514C215.403 16.514 216.159 16.7287 216.756 17.158C217.353 17.5873 217.797 18.18 218.086 18.936C218.385 19.692 218.534 20.5693 218.534 21.568V22.226C218.534 22.9353 218.455 23.598 218.296 24.214C218.147 24.8207 217.909 25.3527 217.582 25.81C217.255 26.258 216.835 26.608 216.322 26.86C215.809 27.112 215.197 27.238 214.488 27.238ZM214.488 26.286C215.496 26.286 216.243 25.9313 216.728 25.222C217.223 24.5127 217.47 23.4067 217.47 21.904C217.47 20.336 217.218 19.2067 216.714 18.516C216.219 17.816 215.477 17.466 214.488 17.466C213.489 17.466 212.738 17.816 212.234 18.516C211.739 19.2067 211.492 20.3267 211.492 21.876C211.492 23.388 211.735 24.5033 212.22 25.222C212.715 25.9313 213.471 26.286 214.488 26.286ZM220.765 27V25.446C220.765 25.0447 220.821 24.704 220.933 24.424C221.045 24.144 221.241 23.8873 221.521 23.654C221.801 23.4207 222.184 23.1967 222.669 22.982L224.671 22.044C225.156 21.82 225.544 21.526 225.833 21.162C226.122 20.798 226.267 20.322 226.267 19.734C226.267 19.0153 226.062 18.4553 225.651 18.054C225.25 17.6433 224.694 17.438 223.985 17.438C223.285 17.438 222.725 17.6433 222.305 18.054C221.894 18.4553 221.689 19.0153 221.689 19.734H220.667C220.667 19.1273 220.793 18.5813 221.045 18.096C221.297 17.6107 221.67 17.228 222.165 16.948C222.66 16.6587 223.266 16.514 223.985 16.514C224.713 16.514 225.32 16.6587 225.805 16.948C226.29 17.228 226.659 17.606 226.911 18.082C227.163 18.5487 227.289 19.0667 227.289 19.636V19.832C227.289 20.56 227.079 21.1713 226.659 21.666C226.248 22.1513 225.707 22.5527 225.035 22.87L223.019 23.808C222.543 24.0227 222.221 24.2467 222.053 24.48C221.894 24.704 221.815 24.9933 221.815 25.348V26.594L221.507 26.09H227.457V27H220.765ZM233.06 27.266C232.379 27.266 231.8 27.1493 231.324 26.916C230.848 26.6733 230.461 26.3373 230.162 25.908C229.873 25.4787 229.658 24.97 229.518 24.382C229.378 23.7847 229.308 23.136 229.308 22.436V21.848C229.308 20.1867 229.696 18.9173 230.47 18.04C231.245 17.1533 232.402 16.71 233.942 16.71C234.26 16.71 234.544 16.7193 234.796 16.738C235.048 16.7567 235.319 16.7847 235.608 16.822V17.732C235.319 17.6853 235.039 17.6527 234.768 17.634C234.498 17.6153 234.204 17.606 233.886 17.606C233.009 17.606 232.304 17.7787 231.772 18.124C231.24 18.46 230.853 18.95 230.61 19.594C230.377 20.238 230.26 21.0173 230.26 21.932V22.926L229.98 23.752C229.99 23.0427 230.125 22.4407 230.386 21.946C230.657 21.4513 231.035 21.0733 231.52 20.812C232.006 20.5507 232.575 20.42 233.228 20.42C233.956 20.42 234.572 20.5693 235.076 20.868C235.58 21.1667 235.958 21.5727 236.21 22.086C236.472 22.5993 236.602 23.1733 236.602 23.808C236.602 24.452 236.467 25.0353 236.196 25.558C235.935 26.0807 235.543 26.496 235.02 26.804C234.498 27.112 233.844 27.266 233.06 27.266ZM233.06 26.342C233.62 26.342 234.087 26.23 234.46 26.006C234.843 25.782 235.128 25.4787 235.314 25.096C235.501 24.7133 235.594 24.284 235.594 23.808C235.594 23.332 235.501 22.9073 235.314 22.534C235.137 22.1513 234.862 21.8527 234.488 21.638C234.124 21.414 233.672 21.302 233.13 21.302C232.598 21.302 232.132 21.4047 231.73 21.61C231.338 21.8153 231.03 22.1093 230.806 22.492C230.592 22.8653 230.484 23.3087 230.484 23.822C230.484 24.2607 230.578 24.6713 230.764 25.054C230.951 25.4367 231.236 25.7493 231.618 25.992C232.001 26.2253 232.482 26.342 233.06 26.342Z" fill="#717171"/>
<defs>
<filter id="filter0_ddiiii_1008_1076" x="0" y="0" width="116" height="44" filterUnits="userSpaceOnUse" color-interpolation-filters="sRGB">
<feFlood flood-opacity="0" result="BackgroundImageFix"/>
<feColorMatrix in="SourceAlpha" type="matrix" values="0 0 0 0 0 0 0 0 0 0 0 0 0 0 0 0 0 0 127 0" result="hardAlpha"/>
<feOffset dx="-1" dy="-1"/>
<feGaussianBlur stdDeviation="1"/>
<feColorMatrix type="matrix" values="0 0 0 0 0.788235 0 0 0 0 0.788235 0 0 0 0 0.788235 0 0 0 0.5 0"/>
<feBlend mode="normal" in2="BackgroundImageFix" result="effect1_dropShadow_1008_1076"/>
<feColorMatrix in="SourceAlpha" type="matrix" values="0 0 0 0 0 0 0 0 0 0 0 0 0 0 0 0 0 0 127 0" result="hardAlpha"/>
<feOffset dx="1" dy="1"/>
<feGaussianBlur stdDeviation="1"/>
<feColorMatrix type="matrix" values="0 0 0 0 0.960784 0 0 0 0 0.960784 0 0 0 0 0.960784 0 0 0 0.3 0"/>
<feBlend mode="normal" in2="effect1_dropShadow_1008_1076" result="effect2_dropShadow_1008_1076"/>
<feBlend mode="normal" in="SourceGraphic" in2="effect2_dropShadow_1008_1076" result="shape"/>
<feColorMatrix in="SourceAlpha" type="matrix" values="0 0 0 0 0 0 0 0 0 0 0 0 0 0 0 0 0 0 127 0" result="hardAlpha"/>
<feOffset dx="1" dy="1"/>
<feGaussianBlur stdDeviation="1.5"/>
<feComposite in2="hardAlpha" operator="arithmetic" k2="-1" k3="1"/>
<feColorMatrix type="matrix" values="0 0 0 0 0.788235 0 0 0 0 0.788235 0 0 0 0 0.788235 0 0 0 0.9 0"/>
<feBlend mode="normal" in2="shape" result="effect3_innerShadow_1008_1076"/>
<feColorMatrix in="SourceAlpha" type="matrix" values="0 0 0 0 0 0 0 0 0 0 0 0 0 0 0 0 0 0 127 0" result="hardAlpha"/>
<feOffset dx="-1" dy="-1"/>
<feGaussianBlur stdDeviation="1"/>
<feComposite in2="hardAlpha" operator="arithmetic" k2="-1" k3="1"/>
<feColorMatrix type="matrix" values="0 0 0 0 0.960784 0 0 0 0 0.960784 0 0 0 0 0.960784 0 0 0 0.9 0"/>
<feBlend mode="normal" in2="effect3_innerShadow_1008_1076" result="effect4_innerShadow_1008_1076"/>
<feColorMatrix in="SourceAlpha" type="matrix" values="0 0 0 0 0 0 0 0 0 0 0 0 0 0 0 0 0 0 127 0" result="hardAlpha"/>
<feOffset dx="1" dy="-1"/>
<feGaussianBlur stdDeviation="1"/>
<feComposite in2="hardAlpha" operator="arithmetic" k2="-1" k3="1"/>
<feColorMatrix type="matrix" values="0 0 0 0 0.788235 0 0 0 0 0.788235 0 0 0 0 0.788235 0 0 0 0.2 0"/>
<feBlend mode="normal" in2="effect4_innerShadow_1008_1076" result="effect5_innerShadow_1008_1076"/>
<feColorMatrix in="SourceAlpha" type="matrix" values="0 0 0 0 0 0 0 0 0 0 0 0 0 0 0 0 0 0 127 0" result="hardAlpha"/>
<feOffset dx="-1" dy="1"/>
<feGaussianBlur stdDeviation="1"/>
<feComposite in2="hardAlpha" operator="arithmetic" k2="-1" k3="1"/>
<feColorMatrix type="matrix" values="0 0 0 0 0.788235 0 0 0 0 0.788235 0 0 0 0 0.788235 0 0 0 0.2 0"/>
<feBlend mode="normal" in2="effect5_innerShadow_1008_1076" result="effect6_innerShadow_1008_1076"/>
</filter>
</defs>
</svg>
