<svg width="451" height="300" viewBox="0 0 451 300" fill="none" xmlns="http://www.w3.org/2000/svg">
<path d="M0.223379 298.862C-0.00665308 299.015 -0.0692839 299.325 0.0834895 299.555C0.236263 299.785 0.546588 299.848 0.776621 299.695L0.5 299.279L0.223379 298.862ZM0.5 299.279L0.776621 299.695L4.08544 297.498L3.80882 297.081L3.5322 296.665L0.223379 298.862L0.5 299.279ZM10.4265 292.686L10.7031 293.103L17.3207 288.708L17.0441 288.291L16.7675 287.875L10.1499 292.27L10.4265 292.686ZM23.6618 283.896L23.9384 284.313L30.556 279.918L30.2794 279.501L30.0028 279.085L23.3851 283.48L23.6618 283.896ZM36.8971 275.106L37.1737 275.523L43.7913 271.128L43.5147 270.711L43.2381 270.295L36.6204 274.69L36.8971 275.106ZM50.1324 266.316L50.409 266.733L57.0266 262.338L56.75 261.921L56.4734 261.505L49.8557 265.9L50.1324 266.316ZM63.3676 257.526L63.6443 257.942L70.2619 253.547L69.9853 253.131L69.7087 252.714L63.091 257.109L63.3676 257.526ZM76.6029 248.736L76.8796 249.152L83.4972 244.757L83.2206 244.341L82.944 243.924L76.3263 248.319L76.6029 248.736ZM89.8382 239.946L90.1149 240.362L96.7325 235.967L96.4559 235.551L96.1793 235.134L89.5616 239.529L89.8382 239.946ZM103.074 231.156L103.35 231.572L109.968 227.177L109.691 226.761L109.415 226.344L102.797 230.739L103.074 231.156ZM116.309 222.366L116.585 222.782L123.203 218.387L122.926 217.971L122.65 217.554L116.032 221.949L116.309 222.366ZM129.544 213.576L129.821 213.992L136.438 209.597L136.162 209.181L135.885 208.764L129.267 213.159L129.544 213.576ZM142.779 204.786L143.056 205.202L149.674 200.807L149.397 200.391L149.12 199.974L142.503 204.369L142.779 204.786ZM156.015 195.996L156.291 196.412L162.909 192.017L162.632 191.6L162.356 191.184L155.738 195.579L156.015 195.996ZM169.25 187.205L169.527 187.622L176.144 183.227L175.868 182.81L175.591 182.394L168.973 186.789L169.25 187.205ZM182.485 178.415L182.762 178.832L189.38 174.437L189.103 174.02L188.826 173.604L182.209 177.999L182.485 178.415ZM195.721 169.625L195.997 170.042L202.615 165.647L202.338 165.23L202.062 164.814L195.444 169.209L195.721 169.625ZM208.956 160.835L209.232 161.252L215.85 156.857L215.574 156.44L215.297 156.024L208.679 160.419L208.956 160.835ZM222.191 152.045L222.468 152.462L229.085 148.067L228.809 147.65L228.532 147.234L221.915 151.629L222.191 152.045ZM235.427 143.255L235.703 143.672L242.321 139.277L242.044 138.86L241.768 138.444L235.15 142.839L235.427 143.255ZM248.662 134.465L248.938 134.882L255.556 130.487L255.279 130.07L255.003 129.653L248.385 134.049L248.662 134.465ZM261.897 125.675L262.174 126.091L268.791 121.696L268.515 121.28L268.238 120.863L261.62 125.258L261.897 125.675ZM275.132 116.885L275.409 117.301L282.027 112.906L281.75 112.49L281.473 112.073L274.856 116.468L275.132 116.885ZM288.368 108.095L288.644 108.511L295.262 104.116L294.985 103.7L294.709 103.283L288.091 107.678L288.368 108.095ZM301.603 99.3048L301.88 99.7213L308.497 95.3262L308.221 94.9097L307.944 94.4932L301.326 98.8883L301.603 99.3048ZM314.838 90.5147L315.115 90.9312L321.733 86.5362L321.456 86.1197L321.179 85.7032L314.562 90.0982L314.838 90.5147ZM328.074 81.7246L328.35 82.1411L334.968 77.7461L334.691 77.3296L334.415 76.9131L327.797 81.3081L328.074 81.7246ZM341.309 72.9346L341.585 73.3511L348.203 68.956L347.926 68.5395L347.65 68.123L341.032 72.5181L341.309 72.9346ZM354.544 64.1445L354.821 64.561L361.438 60.166L361.162 59.7494L360.885 59.3329L354.267 63.728L354.544 64.1445ZM367.779 55.3544L368.056 55.7709L374.674 51.3759L374.397 50.9594L374.12 50.5429L367.503 54.9379L367.779 55.3544ZM381.015 46.5644L381.291 46.9809L387.909 42.5858L387.632 42.1693L387.356 41.7528L380.738 46.1479L381.015 46.5644ZM394.25 37.7743L394.527 38.1908L401.144 33.7958L400.868 33.3793L400.591 32.9628L393.973 37.3578L394.25 37.7743ZM407.485 28.9842L407.762 29.4007L414.38 25.0057L414.103 24.5892L413.826 24.1727L407.209 28.5677L407.485 28.9842ZM420.721 20.1942L420.997 20.6107L427.615 16.2156L427.338 15.7991L427.062 15.3826L420.444 19.7777L420.721 20.1942ZM433.956 11.4041L434.232 11.8206L440.85 7.42557L440.574 7.00906L440.297 6.59255L433.679 10.9876L433.956 11.4041ZM447.191 2.61403L447.468 3.03054L450.777 0.833005L450.5 0.416494L450.223 -1.63834e-05L446.915 2.19752L447.191 2.61403Z" fill="#717171" fill-opacity="0.5"/>
</svg>
