<svg width="1" height="218" viewBox="0 0 1 218" fill="none" xmlns="http://www.w3.org/2000/svg">
<path d="M0 217C0 217.276 0.223858 217.5 0.5 217.5C0.776142 217.5 1 217.276 1 217H0.5H0ZM0.5 217H1L1 213.125H0.5H0L0 217H0.5ZM0.5 205.375H1L1 197.625H0.5H0L0 205.375H0.5ZM0.5 189.875H1L1 182.125H0.5H0L0 189.875H0.5ZM0.5 174.375H1L1 166.625H0.5H0L0 174.375H0.5ZM0.5 158.875H1L1 151.125H0.5H0L0 158.875H0.5ZM0.5 143.375H1L1 135.625H0.5H0L0 143.375H0.5ZM0.5 127.875H1L1 120.125H0.5H0L0 127.875H0.5ZM0.5 112.375H1L1 104.625H0.5H0L0 112.375H0.5ZM0.5 96.875H1L1 89.125H0.5H0L0 96.875H0.5ZM0.5 81.375H1L1 73.625H0.5H0L0 81.375H0.5ZM0.5 65.875H1L1 58.125H0.5H0L0 65.875H0.5ZM0.5 50.375H1L1 42.625H0.5H0L0 50.375H0.5ZM0.5 34.875H1L1 27.125H0.5H0L0 34.875H0.5ZM0.5 19.375H1L1 11.625H0.5H0L0 19.375H0.5ZM0.5 3.87502H1L1 1.52588e-05H0.5H0L0 3.87502H0.5Z" fill="#717171" fill-opacity="0.5"/>
</svg>
