<svg width="701" height="535" viewBox="0 0 701 535" fill="none" xmlns="http://www.w3.org/2000/svg">
<g filter="url(#filter0_ddiiii_1528_1156)">
<rect x="3" y="3" width="695" height="529" rx="20" fill="#DFDFDF"/>
<rect x="3.25" y="3.25" width="694.5" height="528.5" rx="19.75" stroke="#717171" stroke-width="0.5"/>
</g>
<path d="M101.512 430.048V429.248H104.968C105.832 429.248 106.579 429.109 107.208 428.832C107.848 428.555 108.376 428.176 108.792 427.696C109.208 427.216 109.517 426.672 109.72 426.064C109.933 425.445 110.04 424.805 110.04 424.144C110.04 423.451 109.933 422.8 109.72 422.192C109.517 421.584 109.203 421.045 108.776 420.576C108.349 420.107 107.821 419.739 107.192 419.472C106.563 419.205 105.821 419.072 104.968 419.072H101.512V418.272H104.872C105.907 418.272 106.803 418.437 107.56 418.768C108.317 419.088 108.941 419.52 109.432 420.064C109.933 420.608 110.307 421.221 110.552 421.904C110.797 422.587 110.92 423.291 110.92 424.016V424.272C110.92 424.965 110.803 425.659 110.568 426.352C110.333 427.035 109.965 427.653 109.464 428.208C108.973 428.763 108.349 429.211 107.592 429.552C106.835 429.883 105.928 430.048 104.872 430.048H101.512ZM100.952 430.048V418.272H101.816V430.048H100.952ZM118.581 430V427.488H118.421V424.4C118.421 423.728 118.245 423.211 117.893 422.848C117.541 422.475 116.96 422.288 116.149 422.288C115.861 422.288 115.568 422.299 115.269 422.32C114.97 422.331 114.688 422.347 114.421 422.368C114.154 422.379 113.914 422.4 113.701 422.432V421.664C113.914 421.632 114.138 421.605 114.373 421.584C114.618 421.563 114.864 421.547 115.109 421.536C115.354 421.525 115.589 421.52 115.813 421.52C116.656 421.52 117.328 421.632 117.829 421.856C118.33 422.069 118.693 422.4 118.917 422.848C119.141 423.285 119.253 423.845 119.253 424.528V430H118.581ZM115.653 430.224C115.088 430.224 114.581 430.123 114.133 429.92C113.685 429.717 113.328 429.419 113.061 429.024C112.805 428.629 112.677 428.149 112.677 427.584C112.677 427.04 112.8 426.576 113.045 426.192C113.301 425.808 113.664 425.515 114.133 425.312C114.613 425.109 115.189 425.008 115.861 425.008H118.501V425.696H115.781C115.056 425.696 114.496 425.872 114.101 426.224C113.717 426.565 113.525 427.019 113.525 427.584C113.525 428.181 113.733 428.656 114.149 429.008C114.565 429.349 115.109 429.52 115.781 429.52C116.197 429.52 116.602 429.44 116.997 429.28C117.392 429.12 117.722 428.853 117.989 428.48C118.256 428.096 118.4 427.584 118.421 426.944L118.741 427.312C118.709 427.963 118.549 428.507 118.261 428.944C117.984 429.371 117.621 429.691 117.173 429.904C116.725 430.117 116.218 430.224 115.653 430.224ZM125.229 430.08C124.707 430.08 124.248 430.005 123.853 429.856C123.459 429.696 123.155 429.429 122.941 429.056C122.728 428.683 122.621 428.181 122.621 427.552V418.864H123.453V427.696C123.453 428.208 123.592 428.608 123.869 428.896C124.157 429.173 124.552 429.312 125.053 429.312H126.621V430.08H125.229ZM121.021 422.288V421.6H126.621V422.288H121.021ZM134.206 430V427.488H134.046V424.4C134.046 423.728 133.87 423.211 133.518 422.848C133.166 422.475 132.585 422.288 131.774 422.288C131.486 422.288 131.193 422.299 130.894 422.32C130.595 422.331 130.313 422.347 130.046 422.368C129.779 422.379 129.539 422.4 129.326 422.432V421.664C129.539 421.632 129.763 421.605 129.998 421.584C130.243 421.563 130.489 421.547 130.734 421.536C130.979 421.525 131.214 421.52 131.438 421.52C132.281 421.52 132.953 421.632 133.454 421.856C133.955 422.069 134.318 422.4 134.542 422.848C134.766 423.285 134.878 423.845 134.878 424.528V430H134.206ZM131.278 430.224C130.713 430.224 130.206 430.123 129.758 429.92C129.31 429.717 128.953 429.419 128.686 429.024C128.43 428.629 128.302 428.149 128.302 427.584C128.302 427.04 128.425 426.576 128.67 426.192C128.926 425.808 129.289 425.515 129.758 425.312C130.238 425.109 130.814 425.008 131.486 425.008H134.126V425.696H131.406C130.681 425.696 130.121 425.872 129.726 426.224C129.342 426.565 129.15 427.019 129.15 427.584C129.15 428.181 129.358 428.656 129.774 429.008C130.19 429.349 130.734 429.52 131.406 429.52C131.822 429.52 132.227 429.44 132.622 429.28C133.017 429.12 133.347 428.853 133.614 428.48C133.881 428.096 134.025 427.584 134.046 426.944L134.366 427.312C134.334 427.963 134.174 428.507 133.886 428.944C133.609 429.371 133.246 429.691 132.798 429.904C132.35 430.117 131.843 430.224 131.278 430.224ZM103.704 455L99.416 443.32H100.312L104.392 454.504L103.848 454.216H105.336L104.76 454.504L108.616 443.32H109.48L105.432 455H103.704ZM114.765 455.272C114.061 455.272 113.437 455.144 112.893 454.888C112.349 454.632 111.89 454.296 111.517 453.88C111.154 453.464 110.877 453 110.685 452.488C110.503 451.965 110.413 451.432 110.413 450.888V450.728C110.413 450.173 110.509 449.635 110.701 449.112C110.893 448.589 111.175 448.12 111.549 447.704C111.922 447.288 112.375 446.957 112.909 446.712C113.453 446.467 114.071 446.344 114.765 446.344C115.447 446.344 116.055 446.467 116.589 446.712C117.133 446.957 117.591 447.288 117.965 447.704C118.338 448.12 118.621 448.589 118.813 449.112C119.015 449.635 119.117 450.173 119.117 450.728V450.888C119.117 451.432 119.021 451.965 118.829 452.488C118.637 453 118.354 453.464 117.981 453.88C117.618 454.296 117.165 454.632 116.621 454.888C116.087 455.144 115.469 455.272 114.765 455.272ZM114.765 454.488C115.511 454.488 116.141 454.317 116.653 453.976C117.175 453.635 117.57 453.187 117.837 452.632C118.114 452.067 118.253 451.459 118.253 450.808C118.253 450.136 118.114 449.523 117.837 448.968C117.559 448.403 117.159 447.955 116.637 447.624C116.125 447.283 115.501 447.112 114.765 447.112C114.039 447.112 113.41 447.283 112.877 447.624C112.354 447.955 111.954 448.403 111.677 448.968C111.399 449.523 111.261 450.136 111.261 450.808C111.261 451.459 111.394 452.067 111.661 452.632C111.938 453.187 112.338 453.635 112.861 453.976C113.383 454.317 114.018 454.488 114.765 454.488ZM121.743 455V443.32H122.591V455H121.743ZM120.479 444.04V443.32H122.591V444.04H120.479ZM128.746 455.24C127.733 455.24 126.965 454.915 126.442 454.264C125.92 453.613 125.658 452.733 125.658 451.624V446.6H126.522V451.816C126.522 452.595 126.725 453.229 127.13 453.72C127.546 454.2 128.144 454.44 128.922 454.44C129.712 454.44 130.336 454.189 130.794 453.688C131.264 453.187 131.498 452.531 131.498 451.72V446.6H132.346V455H131.674V451.608H131.866C131.866 452.323 131.749 452.957 131.514 453.512C131.29 454.056 130.954 454.483 130.506 454.792C130.058 455.091 129.488 455.24 128.794 455.24H128.746ZM135.679 455V446.6H136.351V450.04H136.159C136.159 449.315 136.266 448.68 136.479 448.136C136.703 447.581 137.034 447.149 137.471 446.84C137.909 446.531 138.463 446.376 139.135 446.376H139.183C139.845 446.376 140.394 446.531 140.831 446.84C141.269 447.139 141.589 447.565 141.791 448.12C142.005 448.664 142.111 449.304 142.111 450.04H141.791C141.791 449.315 141.898 448.68 142.111 448.136C142.335 447.581 142.666 447.149 143.103 446.84C143.551 446.531 144.111 446.376 144.783 446.376H144.831C145.493 446.376 146.042 446.531 146.479 446.84C146.927 447.139 147.258 447.565 147.471 448.12C147.685 448.664 147.791 449.304 147.791 450.04V455H146.943V449.848C146.943 449.048 146.746 448.403 146.351 447.912C145.967 447.411 145.397 447.16 144.639 447.16C143.871 447.16 143.263 447.416 142.815 447.928C142.378 448.44 142.159 449.107 142.159 449.928V455H141.311V449.848C141.311 449.048 141.114 448.403 140.719 447.912C140.335 447.411 139.765 447.16 139.007 447.16C138.239 447.16 137.631 447.416 137.183 447.928C136.746 448.44 136.527 449.107 136.527 449.928V455H135.679ZM154.4 455.272C153.685 455.272 153.067 455.149 152.544 454.904C152.021 454.648 151.595 454.312 151.264 453.896C150.933 453.469 150.683 452.995 150.512 452.472C150.352 451.939 150.272 451.4 150.272 450.856V450.696C150.272 450.141 150.352 449.608 150.512 449.096C150.683 448.584 150.933 448.12 151.264 447.704C151.605 447.277 152.027 446.947 152.528 446.712C153.04 446.467 153.632 446.344 154.304 446.344C155.157 446.344 155.872 446.536 156.448 446.92C157.035 447.293 157.477 447.784 157.776 448.392C158.075 449 158.224 449.64 158.224 450.312V450.888H150.672V450.184H157.664L157.408 450.504C157.408 449.853 157.285 449.272 157.04 448.76C156.805 448.248 156.453 447.848 155.984 447.56C155.525 447.261 154.965 447.112 154.304 447.112C153.589 447.112 152.992 447.277 152.512 447.608C152.032 447.939 151.669 448.381 151.424 448.936C151.189 449.491 151.072 450.104 151.072 450.776C151.072 451.448 151.189 452.067 151.424 452.632C151.669 453.187 152.037 453.64 152.528 453.992C153.019 454.333 153.643 454.504 154.4 454.504C155.211 454.504 155.861 454.317 156.352 453.944C156.853 453.571 157.157 453.123 157.264 452.6H158.096C157.979 453.123 157.755 453.587 157.424 453.992C157.093 454.397 156.672 454.712 156.16 454.936C155.659 455.16 155.072 455.272 154.4 455.272Z" fill="#404040"/>
<path d="M206.512 167.536V166.752H209.328C210.032 166.752 210.597 166.624 211.024 166.368C211.451 166.112 211.765 165.771 211.968 165.344C212.171 164.907 212.272 164.427 212.272 163.904C212.272 163.381 212.171 162.907 211.968 162.48C211.765 162.043 211.451 161.696 211.024 161.44C210.597 161.184 210.032 161.056 209.328 161.056H206.512V160.272H209.216C210.123 160.272 210.864 160.432 211.44 160.752C212.016 161.061 212.443 161.483 212.72 162.016C212.997 162.549 213.136 163.147 213.136 163.808V164C213.136 164.651 212.997 165.248 212.72 165.792C212.443 166.325 212.016 166.752 211.44 167.072C210.864 167.381 210.123 167.536 209.216 167.536H206.512ZM205.952 172V160.272H206.816V172H205.952ZM218.822 172.272C218.107 172.272 217.489 172.149 216.966 171.904C216.443 171.648 216.017 171.312 215.686 170.896C215.355 170.469 215.105 169.995 214.934 169.472C214.774 168.939 214.694 168.4 214.694 167.856V167.696C214.694 167.141 214.774 166.608 214.934 166.096C215.105 165.584 215.355 165.12 215.686 164.704C216.027 164.277 216.449 163.947 216.95 163.712C217.462 163.467 218.054 163.344 218.726 163.344C219.579 163.344 220.294 163.536 220.87 163.92C221.457 164.293 221.899 164.784 222.198 165.392C222.497 166 222.646 166.64 222.646 167.312V167.888H215.094V167.184H222.086L221.83 167.504C221.83 166.853 221.707 166.272 221.462 165.76C221.227 165.248 220.875 164.848 220.406 164.56C219.947 164.261 219.387 164.112 218.726 164.112C218.011 164.112 217.414 164.277 216.934 164.608C216.454 164.939 216.091 165.381 215.846 165.936C215.611 166.491 215.494 167.104 215.494 167.776C215.494 168.448 215.611 169.067 215.846 169.632C216.091 170.187 216.459 170.64 216.95 170.992C217.441 171.333 218.065 171.504 218.822 171.504C219.633 171.504 220.283 171.317 220.774 170.944C221.275 170.571 221.579 170.123 221.686 169.6H222.518C222.401 170.123 222.177 170.587 221.846 170.992C221.515 171.397 221.094 171.712 220.582 171.936C220.081 172.16 219.494 172.272 218.822 172.272ZM230.222 172V169.488H230.062V166.4C230.062 165.728 229.886 165.211 229.534 164.848C229.182 164.475 228.6 164.288 227.79 164.288C227.502 164.288 227.208 164.299 226.91 164.32C226.611 164.331 226.328 164.347 226.062 164.368C225.795 164.379 225.555 164.4 225.342 164.432V163.664C225.555 163.632 225.779 163.605 226.014 163.584C226.259 163.563 226.504 163.547 226.75 163.536C226.995 163.525 227.23 163.52 227.454 163.52C228.296 163.52 228.968 163.632 229.47 163.856C229.971 164.069 230.334 164.4 230.558 164.848C230.782 165.285 230.894 165.845 230.894 166.528V172H230.222ZM227.294 172.224C226.728 172.224 226.222 172.123 225.774 171.92C225.326 171.717 224.968 171.419 224.702 171.024C224.446 170.629 224.318 170.149 224.318 169.584C224.318 169.04 224.44 168.576 224.686 168.192C224.942 167.808 225.304 167.515 225.774 167.312C226.254 167.109 226.83 167.008 227.502 167.008H230.142V167.696H227.422C226.696 167.696 226.136 167.872 225.742 168.224C225.358 168.565 225.166 169.019 225.166 169.584C225.166 170.181 225.374 170.656 225.789 171.008C226.206 171.349 226.75 171.52 227.422 171.52C227.838 171.52 228.243 171.44 228.638 171.28C229.032 171.12 229.363 170.853 229.63 170.48C229.896 170.096 230.04 169.584 230.062 168.944L230.382 169.312C230.35 169.963 230.19 170.507 229.902 170.944C229.624 171.371 229.262 171.691 228.814 171.904C228.366 172.117 227.859 172.224 227.294 172.224ZM239.686 172L236.102 168.048H234.758L238.854 163.6H239.814L236.166 167.552L236.182 167.024L240.71 172H239.686ZM234.07 172V160.32H234.918V172H234.07ZM210.832 197.272C209.819 197.272 208.944 197.091 208.208 196.728C207.472 196.355 206.869 195.875 206.4 195.288C205.941 194.691 205.6 194.04 205.376 193.336C205.152 192.621 205.04 191.928 205.04 191.256V191.016C205.04 190.291 205.152 189.576 205.376 188.872C205.611 188.157 205.957 187.512 206.416 186.936C206.885 186.349 207.477 185.885 208.192 185.544C208.907 185.192 209.749 185.016 210.72 185.016C211.669 185.016 212.501 185.192 213.216 185.544C213.941 185.885 214.523 186.371 214.96 187C215.397 187.619 215.664 188.344 215.76 189.176H214.88C214.784 188.451 214.544 187.837 214.16 187.336C213.776 186.835 213.285 186.456 212.688 186.2C212.101 185.944 211.445 185.816 210.72 185.816C209.931 185.816 209.237 185.96 208.64 186.248C208.043 186.525 207.541 186.915 207.136 187.416C206.731 187.907 206.427 188.472 206.224 189.112C206.021 189.752 205.92 190.429 205.92 191.144C205.92 191.805 206.021 192.456 206.224 193.096C206.427 193.736 206.731 194.307 207.136 194.808C207.541 195.309 208.048 195.715 208.656 196.024C209.275 196.323 210 196.472 210.832 196.472C211.963 196.472 212.912 196.184 213.68 195.608C214.459 195.021 214.933 194.189 215.104 193.112H215.984C215.867 193.923 215.584 194.643 215.136 195.272C214.699 195.891 214.117 196.381 213.392 196.744C212.667 197.096 211.813 197.272 210.832 197.272ZM218.384 197V185.32H219.232V197H218.384ZM217.12 186.04V185.32H219.232V186.04H217.12ZM227.659 197V194.488H227.499V191.4C227.499 190.728 227.323 190.211 226.971 189.848C226.619 189.475 226.038 189.288 225.227 189.288C224.939 189.288 224.646 189.299 224.347 189.32C224.048 189.331 223.766 189.347 223.499 189.368C223.232 189.379 222.992 189.4 222.779 189.432V188.664C222.992 188.632 223.216 188.605 223.451 188.584C223.696 188.563 223.942 188.547 224.187 188.536C224.432 188.525 224.667 188.52 224.891 188.52C225.734 188.52 226.406 188.632 226.907 188.856C227.408 189.069 227.771 189.4 227.995 189.848C228.219 190.285 228.331 190.845 228.331 191.528V197H227.659ZM224.731 197.224C224.166 197.224 223.659 197.123 223.211 196.92C222.763 196.717 222.406 196.419 222.139 196.024C221.883 195.629 221.755 195.149 221.755 194.584C221.755 194.04 221.878 193.576 222.123 193.192C222.379 192.808 222.742 192.515 223.211 192.312C223.691 192.109 224.267 192.008 224.939 192.008H227.579V192.696H224.859C224.134 192.696 223.574 192.872 223.179 193.224C222.795 193.565 222.603 194.019 222.603 194.584C222.603 195.181 222.811 195.656 223.227 196.008C223.643 196.349 224.187 196.52 224.859 196.52C225.275 196.52 225.68 196.44 226.075 196.28C226.47 196.12 226.8 195.853 227.067 195.48C227.334 195.096 227.478 194.584 227.499 193.944L227.819 194.312C227.787 194.963 227.627 195.507 227.339 195.944C227.062 196.371 226.699 196.691 226.251 196.904C225.803 197.117 225.296 197.224 224.731 197.224ZM231.507 197V188.6H232.179V192.152H232.051C232.051 190.936 232.323 190.029 232.867 189.432C233.411 188.835 234.291 188.536 235.507 188.536H235.795V189.304H235.347C234.355 189.304 233.609 189.56 233.107 190.072C232.606 190.573 232.355 191.315 232.355 192.296V197H231.507ZM238.315 197V188.6H239.179V197H238.315ZM236.923 189.336V188.6H239.179V189.336H236.923ZM238.395 186.84C238.171 186.84 238 186.781 237.883 186.664C237.765 186.536 237.707 186.376 237.707 186.184C237.707 185.981 237.765 185.816 237.883 185.688C238 185.56 238.176 185.496 238.411 185.496C238.635 185.496 238.805 185.56 238.923 185.688C239.04 185.816 239.099 185.981 239.099 186.184C239.099 186.376 239.04 186.536 238.923 186.664C238.816 186.781 238.64 186.84 238.395 186.84ZM245.292 197.08C244.769 197.08 244.31 197.005 243.916 196.856C243.521 196.696 243.217 196.429 243.004 196.056C242.79 195.683 242.684 195.181 242.684 194.552V185.864H243.516V194.696C243.516 195.208 243.654 195.608 243.932 195.896C244.22 196.173 244.614 196.312 245.116 196.312H246.684V197.08H245.292ZM241.084 189.288V188.6H246.684V189.288H241.084ZM248.22 200.264V199.48H249.18C249.553 199.48 249.878 199.432 250.156 199.336C250.433 199.251 250.673 199.091 250.876 198.856C251.089 198.621 251.265 198.285 251.404 197.848L254.396 188.6H255.244L252.124 198.12C251.953 198.643 251.724 199.059 251.436 199.368C251.158 199.688 250.822 199.917 250.428 200.056C250.044 200.195 249.606 200.264 249.116 200.264H248.22ZM251.132 196.792V196.04H252.316V196.792H251.132ZM250.972 196.792L247.916 188.6H248.78L251.804 196.792H250.972Z" fill="#404040"/>
<path d="M523.952 240V228.32H525.456L532.304 239.216H532.816L532.496 239.44V228.32H533.344V240H531.824L524.976 229.104H524.464L524.784 228.88V240H523.952ZM540.593 240.272C539.889 240.272 539.265 240.144 538.721 239.888C538.177 239.632 537.718 239.296 537.345 238.88C536.982 238.464 536.705 238 536.513 237.488C536.332 236.965 536.241 236.432 536.241 235.888V235.728C536.241 235.173 536.337 234.635 536.529 234.112C536.721 233.589 537.004 233.12 537.377 232.704C537.75 232.288 538.204 231.957 538.737 231.712C539.281 231.467 539.9 231.344 540.593 231.344C541.276 231.344 541.884 231.467 542.417 231.712C542.961 231.957 543.42 232.288 543.793 232.704C544.166 233.12 544.449 233.589 544.641 234.112C544.844 234.635 544.945 235.173 544.945 235.728V235.888C544.945 236.432 544.849 236.965 544.657 237.488C544.465 238 544.182 238.464 543.809 238.88C543.446 239.296 542.993 239.632 542.449 239.888C541.916 240.144 541.297 240.272 540.593 240.272ZM540.593 239.488C541.34 239.488 541.969 239.317 542.481 238.976C543.004 238.635 543.398 238.187 543.665 237.632C543.942 237.067 544.081 236.459 544.081 235.808C544.081 235.136 543.942 234.523 543.665 233.968C543.388 233.403 542.988 232.955 542.465 232.624C541.953 232.283 541.329 232.112 540.593 232.112C539.868 232.112 539.238 232.283 538.705 232.624C538.182 232.955 537.782 233.403 537.505 233.968C537.228 234.523 537.089 235.136 537.089 235.808C537.089 236.459 537.222 237.067 537.489 237.632C537.766 238.187 538.166 238.635 538.689 238.976C539.212 239.317 539.846 239.488 540.593 239.488ZM547.971 240V231.6H548.835V240H547.971ZM546.579 232.336V231.6H548.835V232.336H546.579ZM548.051 229.84C547.827 229.84 547.656 229.781 547.539 229.664C547.422 229.536 547.363 229.376 547.363 229.184C547.363 228.981 547.422 228.816 547.539 228.688C547.656 228.56 547.832 228.496 548.067 228.496C548.291 228.496 548.462 228.56 548.579 228.688C548.696 228.816 548.755 228.981 548.755 229.184C548.755 229.376 548.696 229.536 548.579 229.664C548.472 229.781 548.296 229.84 548.051 229.84ZM554.66 240.24C553.615 240.24 552.809 240 552.244 239.52C551.689 239.04 551.407 238.427 551.396 237.68H552.228C552.228 238.16 552.415 238.581 552.788 238.944C553.172 239.296 553.796 239.472 554.66 239.472C555.503 239.472 556.121 239.296 556.516 238.944C556.911 238.581 557.108 238.155 557.108 237.664C557.108 237.184 556.927 236.816 556.564 236.56C556.212 236.304 555.732 236.144 555.124 236.08L554.132 235.968C553.396 235.883 552.809 235.653 552.372 235.28C551.945 234.907 551.732 234.4 551.732 233.76C551.732 233.301 551.849 232.891 552.084 232.528C552.319 232.165 552.655 231.877 553.092 231.664C553.54 231.451 554.063 231.344 554.66 231.344C555.535 231.344 556.239 231.557 556.772 231.984C557.316 232.411 557.593 232.992 557.604 233.728H556.772C556.783 233.269 556.601 232.885 556.228 232.576C555.865 232.267 555.343 232.112 554.66 232.112C553.945 232.112 553.412 232.277 553.06 232.608C552.719 232.939 552.548 233.328 552.548 233.776C552.548 234.149 552.681 234.469 552.948 234.736C553.225 235.003 553.641 235.168 554.196 235.232L555.188 235.344C555.977 235.419 556.628 235.648 557.14 236.032C557.663 236.416 557.924 236.965 557.924 237.68C557.924 238.16 557.791 238.592 557.524 238.976C557.268 239.36 556.9 239.669 556.42 239.904C555.94 240.128 555.353 240.24 554.66 240.24ZM563.947 240.272C563.232 240.272 562.614 240.149 562.091 239.904C561.568 239.648 561.142 239.312 560.811 238.896C560.48 238.469 560.23 237.995 560.059 237.472C559.899 236.939 559.819 236.4 559.819 235.856V235.696C559.819 235.141 559.899 234.608 560.059 234.096C560.23 233.584 560.48 233.12 560.811 232.704C561.152 232.277 561.574 231.947 562.075 231.712C562.587 231.467 563.179 231.344 563.851 231.344C564.704 231.344 565.419 231.536 565.995 231.92C566.582 232.293 567.024 232.784 567.323 233.392C567.622 234 567.771 234.64 567.771 235.312V235.888H560.219V235.184H567.211L566.955 235.504C566.955 234.853 566.832 234.272 566.587 233.76C566.352 233.248 566 232.848 565.531 232.56C565.072 232.261 564.512 232.112 563.851 232.112C563.136 232.112 562.539 232.277 562.059 232.608C561.579 232.939 561.216 233.381 560.971 233.936C560.736 234.491 560.619 235.104 560.619 235.776C560.619 236.448 560.736 237.067 560.971 237.632C561.216 238.187 561.584 238.64 562.075 238.992C562.566 239.333 563.19 239.504 563.947 239.504C564.758 239.504 565.408 239.317 565.899 238.944C566.4 238.571 566.704 238.123 566.811 237.6H567.643C567.526 238.123 567.302 238.587 566.971 238.992C566.64 239.397 566.219 239.712 565.707 239.936C565.206 240.16 564.619 240.272 563.947 240.272ZM523.952 265V253.32H524.816V265H523.952ZM524.512 259.432V258.632L529.84 258.616V259.4L524.512 259.432ZM524.512 254.104V253.32L530.16 253.304V254.104H524.512ZM532.727 265V253.32H533.575V265H532.727ZM531.463 254.04V253.32H533.575V254.04H531.463ZM540.515 265.272C539.811 265.272 539.187 265.144 538.643 264.888C538.099 264.632 537.64 264.296 537.267 263.88C536.904 263.464 536.627 263 536.435 262.488C536.253 261.965 536.163 261.432 536.163 260.888V260.728C536.163 260.173 536.259 259.635 536.451 259.112C536.643 258.589 536.925 258.12 537.299 257.704C537.672 257.288 538.125 256.957 538.659 256.712C539.203 256.467 539.821 256.344 540.515 256.344C541.197 256.344 541.805 256.467 542.339 256.712C542.883 256.957 543.341 257.288 543.715 257.704C544.088 258.12 544.371 258.589 544.563 259.112C544.765 259.635 544.867 260.173 544.867 260.728V260.888C544.867 261.432 544.771 261.965 544.579 262.488C544.387 263 544.104 263.464 543.731 263.88C543.368 264.296 542.915 264.632 542.371 264.888C541.837 265.144 541.219 265.272 540.515 265.272ZM540.515 264.488C541.261 264.488 541.891 264.317 542.403 263.976C542.925 263.635 543.32 263.187 543.587 262.632C543.864 262.067 544.003 261.459 544.003 260.808C544.003 260.136 543.864 259.523 543.587 258.968C543.309 258.403 542.909 257.955 542.387 257.624C541.875 257.283 541.251 257.112 540.515 257.112C539.789 257.112 539.16 257.283 538.627 257.624C538.104 257.955 537.704 258.403 537.427 258.968C537.149 259.523 537.011 260.136 537.011 260.808C537.011 261.459 537.144 262.067 537.411 262.632C537.688 263.187 538.088 263.635 538.611 263.976C539.133 264.317 539.768 264.488 540.515 264.488ZM551.093 265.272C550.389 265.272 549.765 265.144 549.221 264.888C548.677 264.632 548.218 264.296 547.845 263.88C547.482 263.464 547.205 263 547.013 262.488C546.832 261.965 546.741 261.432 546.741 260.888V260.728C546.741 260.173 546.837 259.635 547.029 259.112C547.221 258.589 547.504 258.12 547.877 257.704C548.25 257.288 548.704 256.957 549.237 256.712C549.781 256.467 550.4 256.344 551.093 256.344C551.776 256.344 552.384 256.467 552.917 256.712C553.461 256.957 553.92 257.288 554.293 257.704C554.666 258.12 554.949 258.589 555.141 259.112C555.344 259.635 555.445 260.173 555.445 260.728V260.888C555.445 261.432 555.349 261.965 555.157 262.488C554.965 263 554.682 263.464 554.309 263.88C553.946 264.296 553.493 264.632 552.949 264.888C552.416 265.144 551.797 265.272 551.093 265.272ZM551.093 264.488C551.84 264.488 552.469 264.317 552.981 263.976C553.504 263.635 553.898 263.187 554.165 262.632C554.442 262.067 554.581 261.459 554.581 260.808C554.581 260.136 554.442 259.523 554.165 258.968C553.888 258.403 553.488 257.955 552.965 257.624C552.453 257.283 551.829 257.112 551.093 257.112C550.368 257.112 549.738 257.283 549.205 257.624C548.682 257.955 548.282 258.403 548.005 258.968C547.728 259.523 547.589 260.136 547.589 260.808C547.589 261.459 547.722 262.067 547.989 262.632C548.266 263.187 548.666 263.635 549.189 263.976C549.712 264.317 550.346 264.488 551.093 264.488ZM558.023 265V256.6H558.695V260.152H558.567C558.567 258.936 558.839 258.029 559.383 257.432C559.927 256.835 560.807 256.536 562.023 256.536H562.311V257.304H561.863C560.871 257.304 560.124 257.56 559.623 258.072C559.122 258.573 558.871 259.315 558.871 260.296V265H558.023Z" fill="#404040"/>
<line x1="100.5" y1="391.5" x2="579.5" y2="391.5" stroke="#717171" stroke-opacity="0.6" stroke-linecap="round"/>
<line x1="99.5" y1="391.5" x2="99.5" y2="116.5" stroke="#717171" stroke-opacity="0.6" stroke-linecap="round"/>
<path d="M98.741 392.445C98.5117 392.598 98.4487 392.91 98.6004 393.141C98.7521 393.372 99.061 393.434 99.2903 393.28L99.0156 392.862L98.741 392.445ZM99.0156 392.862L99.2903 393.28L102.566 391.083L102.291 390.665L102.016 390.247L98.741 392.445L99.0156 392.862ZM108.841 386.27L109.116 386.688L115.666 382.293L115.392 381.875L115.117 381.457L108.567 385.852L108.841 386.27ZM121.942 377.48L122.217 377.897L128.767 373.502L128.493 373.085L128.218 372.667L121.668 377.062L121.942 377.48ZM135.043 368.69L135.318 369.107L141.868 364.712L141.594 364.295L141.319 363.877L134.769 368.272L135.043 368.69ZM148.144 359.9L148.419 360.317L154.969 355.922L154.695 355.505L154.42 355.087L147.869 359.482L148.144 359.9ZM161.245 351.109L161.52 351.527L168.07 347.132L167.795 346.714L167.521 346.297L160.97 350.692L161.245 351.109ZM174.346 342.319L174.621 342.737L181.171 338.342L180.896 337.924L180.622 337.507L174.071 341.902L174.346 342.319ZM187.447 333.529L187.722 333.947L194.272 329.552L193.997 329.134L193.723 328.717L187.172 333.112L187.447 333.529ZM200.548 324.739L200.822 325.157L207.373 320.762L207.098 320.344L206.824 319.926L200.273 324.321L200.548 324.739ZM213.649 315.949L213.923 316.367L220.474 311.972L220.199 311.554L219.925 311.136L213.374 315.531L213.649 315.949ZM226.75 307.159L227.024 307.577L233.575 303.182L233.3 302.764L233.025 302.346L226.475 306.741L226.75 307.159ZM239.851 298.369L240.125 298.787L246.676 294.392L246.401 293.974L246.126 293.556L239.576 297.951L239.851 298.369ZM252.951 289.579L253.226 289.997L259.777 285.602L259.502 285.184L259.227 284.766L252.677 289.161L252.951 289.579ZM266.052 280.789L266.327 281.207L272.878 276.812L272.603 276.394L272.328 275.976L265.778 280.371L266.052 280.789ZM279.153 271.999L279.428 272.417L285.978 268.022L285.704 267.604L285.429 267.186L278.879 271.581L279.153 271.999ZM292.254 263.209L292.529 263.627L299.079 259.232L298.805 258.814L298.53 258.396L291.98 262.791L292.254 263.209ZM305.355 254.419L305.63 254.837L312.18 250.441L311.906 250.024L311.631 249.606L305.081 254.001L305.355 254.419ZM318.456 245.629L318.731 246.046L325.281 241.651L325.007 241.234L324.732 240.816L318.181 245.211L318.456 245.629ZM331.557 236.839L331.832 237.256L338.382 232.861L338.108 232.444L337.833 232.026L331.282 236.421L331.557 236.839ZM344.658 228.049L344.933 228.466L351.483 224.071L351.208 223.653L350.934 223.236L344.383 227.631L344.658 228.049ZM357.759 219.258L358.034 219.676L364.584 215.281L364.309 214.863L364.035 214.446L357.484 218.841L357.759 219.258ZM370.86 210.468L371.134 210.886L377.685 206.491L377.41 206.073L377.136 205.656L370.585 210.051L370.86 210.468ZM383.961 201.678L384.235 202.096L390.786 197.701L390.511 197.283L390.237 196.865L383.686 201.261L383.961 201.678ZM397.062 192.888L397.336 193.306L403.887 188.911L403.612 188.493L403.338 188.075L396.787 192.47L397.062 192.888ZM410.163 184.098L410.437 184.516L416.988 180.121L416.713 179.703L416.438 179.285L409.888 183.68L410.163 184.098ZM423.264 175.308L423.538 175.726L430.089 171.331L429.814 170.913L429.539 170.495L422.989 174.89L423.264 175.308ZM436.364 166.518L436.639 166.936L443.19 162.541L442.915 162.123L442.64 161.705L436.09 166.1L436.364 166.518ZM449.465 157.728L449.74 158.146L456.291 153.751L456.016 153.333L455.741 152.915L449.191 157.31L449.465 157.728ZM462.566 148.938L462.841 149.356L469.391 144.961L469.117 144.543L468.842 144.125L462.292 148.52L462.566 148.938ZM475.667 140.148L475.942 140.566L482.492 136.171L482.218 135.753L481.943 135.335L475.393 139.73L475.667 140.148ZM488.768 131.358L489.043 131.776L495.593 127.381L495.319 126.963L495.044 126.545L488.494 130.94L488.768 131.358ZM501.869 122.568L502.144 122.986L508.694 118.59L508.42 118.173L508.145 117.755L501.594 122.15L501.869 122.568ZM514.97 113.778L515.245 114.195L521.795 109.8L521.52 109.383L521.246 108.965L514.695 113.36L514.97 113.778ZM528.071 104.988L528.346 105.405L534.896 101.01L534.621 100.593L534.347 100.175L527.796 104.57L528.071 104.988ZM541.172 96.1975L541.447 96.6153L544.722 94.4178L544.447 94L544.172 93.5822L540.897 95.7797L541.172 96.1975Z" fill="#717171" fill-opacity="0.5"/>
<path d="M325.5 392C325.5 392.276 325.724 392.5 326 392.5C326.276 392.5 326.5 392.276 326.5 392H326H325.5ZM326 392H326.5V388.125H326H325.5V392H326ZM326 380.375H326.5V372.625H326H325.5V380.375H326ZM326 364.875H326.5V357.125H326H325.5V364.875H326ZM326 349.375H326.5V341.625H326H325.5V349.375H326ZM326 333.875H326.5V326.125H326H325.5V333.875H326ZM326 318.375H326.5V310.625H326H325.5V318.375H326ZM326 302.875H326.5V295.125H326H325.5V302.875H326ZM326 287.375H326.5V279.625H326H325.5V287.375H326ZM326 271.875H326.5V264.125H326H325.5V271.875H326ZM326 256.375H326.5V248.625H326H325.5V256.375H326ZM326 240.875H326.5V233.125H326H325.5V240.875H326ZM326 225.375H326.5V217.625H326H325.5V225.375H326ZM326 209.875H326.5V202.125H326H325.5V209.875H326ZM326 194.375H326.5V186.625H326H325.5V194.375H326ZM326 178.875H326.5V175H326H325.5V178.875H326Z" fill="#717171" fill-opacity="0.5"/>
<circle cx="326" cy="167" r="8" fill="#717171"/>
<path d="M100 389C118.479 377.355 140.753 358.225 175.237 326.617C229.686 276.711 248.99 242.776 299.478 182.389C357.1 113.471 416.789 115.515 544 195.864" stroke="#404040"/>
<defs>
<filter id="filter0_ddiiii_1528_1156" x="0" y="0" width="701" height="535" filterUnits="userSpaceOnUse" color-interpolation-filters="sRGB">
<feFlood flood-opacity="0" result="BackgroundImageFix"/>
<feColorMatrix in="SourceAlpha" type="matrix" values="0 0 0 0 0 0 0 0 0 0 0 0 0 0 0 0 0 0 127 0" result="hardAlpha"/>
<feOffset dx="-1" dy="-1"/>
<feGaussianBlur stdDeviation="1"/>
<feColorMatrix type="matrix" values="0 0 0 0 0.831373 0 0 0 0 0.831373 0 0 0 0 0.831373 0 0 0 0.5 0"/>
<feBlend mode="normal" in2="BackgroundImageFix" result="effect1_dropShadow_1528_1156"/>
<feColorMatrix in="SourceAlpha" type="matrix" values="0 0 0 0 0 0 0 0 0 0 0 0 0 0 0 0 0 0 127 0" result="hardAlpha"/>
<feOffset dx="1" dy="1"/>
<feGaussianBlur stdDeviation="1"/>
<feColorMatrix type="matrix" values="0 0 0 0 0.917647 0 0 0 0 0.917647 0 0 0 0 0.917647 0 0 0 0.3 0"/>
<feBlend mode="normal" in2="effect1_dropShadow_1528_1156" result="effect2_dropShadow_1528_1156"/>
<feBlend mode="normal" in="SourceGraphic" in2="effect2_dropShadow_1528_1156" result="shape"/>
<feColorMatrix in="SourceAlpha" type="matrix" values="0 0 0 0 0 0 0 0 0 0 0 0 0 0 0 0 0 0 127 0" result="hardAlpha"/>
<feOffset dx="1" dy="1"/>
<feGaussianBlur stdDeviation="1.5"/>
<feComposite in2="hardAlpha" operator="arithmetic" k2="-1" k3="1"/>
<feColorMatrix type="matrix" values="0 0 0 0 0.831373 0 0 0 0 0.831373 0 0 0 0 0.831373 0 0 0 0.9 0"/>
<feBlend mode="normal" in2="shape" result="effect3_innerShadow_1528_1156"/>
<feColorMatrix in="SourceAlpha" type="matrix" values="0 0 0 0 0 0 0 0 0 0 0 0 0 0 0 0 0 0 127 0" result="hardAlpha"/>
<feOffset dx="-1" dy="-1"/>
<feGaussianBlur stdDeviation="1"/>
<feComposite in2="hardAlpha" operator="arithmetic" k2="-1" k3="1"/>
<feColorMatrix type="matrix" values="0 0 0 0 0.917647 0 0 0 0 0.917647 0 0 0 0 0.917647 0 0 0 0.9 0"/>
<feBlend mode="normal" in2="effect3_innerShadow_1528_1156" result="effect4_innerShadow_1528_1156"/>
<feColorMatrix in="SourceAlpha" type="matrix" values="0 0 0 0 0 0 0 0 0 0 0 0 0 0 0 0 0 0 127 0" result="hardAlpha"/>
<feOffset dx="1" dy="-1"/>
<feGaussianBlur stdDeviation="1"/>
<feComposite in2="hardAlpha" operator="arithmetic" k2="-1" k3="1"/>
<feColorMatrix type="matrix" values="0 0 0 0 0.831373 0 0 0 0 0.831373 0 0 0 0 0.831373 0 0 0 0.2 0"/>
<feBlend mode="normal" in2="effect4_innerShadow_1528_1156" result="effect5_innerShadow_1528_1156"/>
<feColorMatrix in="SourceAlpha" type="matrix" values="0 0 0 0 0 0 0 0 0 0 0 0 0 0 0 0 0 0 127 0" result="hardAlpha"/>
<feOffset dx="-1" dy="1"/>
<feGaussianBlur stdDeviation="1"/>
<feComposite in2="hardAlpha" operator="arithmetic" k2="-1" k3="1"/>
<feColorMatrix type="matrix" values="0 0 0 0 0.831373 0 0 0 0 0.831373 0 0 0 0 0.831373 0 0 0 0.2 0"/>
<feBlend mode="normal" in2="effect5_innerShadow_1528_1156" result="effect6_innerShadow_1528_1156"/>
</filter>
</defs>
</svg>
