<svg width="89" height="12" viewBox="0 0 89 12" fill="none" xmlns="http://www.w3.org/2000/svg">
<path d="M0.000828266 11.696L0.000828266 0.0160446H1.50483L8.35283 10.912H8.86483L8.54483 11.136V0.0160446H9.39283V11.696H7.87283L1.02483 0.800044H0.512828L0.832828 0.576044V11.696H0.000828266ZM16.6417 11.968C15.9377 11.968 15.3137 11.84 14.7697 11.584C14.2257 11.328 13.767 10.992 13.3937 10.576C13.031 10.16 12.7537 9.69604 12.5617 9.18404C12.3804 8.66138 12.2897 8.12804 12.2897 7.58404V7.42404C12.2897 6.86938 12.3857 6.33071 12.5777 5.80804C12.7697 5.28538 13.0524 4.81604 13.4257 4.40004C13.799 3.98404 14.2524 3.65338 14.7857 3.40804C15.3297 3.16271 15.9484 3.04004 16.6417 3.04004C17.3244 3.04004 17.9324 3.16271 18.4657 3.40804C19.0097 3.65338 19.4684 3.98404 19.8417 4.40004C20.215 4.81604 20.4977 5.28538 20.6897 5.80804C20.8924 6.33071 20.9937 6.86938 20.9937 7.42404V7.58404C20.9937 8.12804 20.8977 8.66138 20.7057 9.18404C20.5137 9.69604 20.231 10.16 19.8577 10.576C19.495 10.992 19.0417 11.328 18.4977 11.584C17.9644 11.84 17.3457 11.968 16.6417 11.968ZM16.6417 11.184C17.3884 11.184 18.0177 11.0134 18.5297 10.672C19.0524 10.3307 19.447 9.88271 19.7137 9.32804C19.991 8.76271 20.1297 8.15471 20.1297 7.50404C20.1297 6.83204 19.991 6.21871 19.7137 5.66404C19.4364 5.09871 19.0364 4.65071 18.5137 4.32004C18.0017 3.97871 17.3777 3.80804 16.6417 3.80804C15.9164 3.80804 15.287 3.97871 14.7537 4.32004C14.231 4.65071 13.831 5.09871 13.5537 5.66404C13.2764 6.21871 13.1377 6.83204 13.1377 7.50404C13.1377 8.15471 13.271 8.76271 13.5377 9.32804C13.815 9.88271 14.215 10.3307 14.7377 10.672C15.2604 11.0134 15.895 11.184 16.6417 11.184ZM24.0198 11.696V3.29604H24.8838V11.696H24.0198ZM22.6278 4.03204V3.29604H24.8838V4.03204H22.6278ZM24.0998 1.53604C23.8758 1.53604 23.7052 1.47738 23.5878 1.36004C23.4705 1.23204 23.4118 1.07204 23.4118 0.880044C23.4118 0.677377 23.4705 0.512044 23.5878 0.384045C23.7052 0.256044 23.8812 0.192044 24.1158 0.192044C24.3398 0.192044 24.5105 0.256044 24.6278 0.384045C24.7452 0.512044 24.8038 0.677377 24.8038 0.880044C24.8038 1.07204 24.7452 1.23204 24.6278 1.36004C24.5212 1.47738 24.3452 1.53604 24.0998 1.53604ZM30.7088 11.936C29.6635 11.936 28.8582 11.696 28.2928 11.216C27.7382 10.736 27.4555 10.1227 27.4448 9.37604H28.2768C28.2768 9.85604 28.4635 10.2774 28.8368 10.64C29.2208 10.992 29.8448 11.168 30.7088 11.168C31.5515 11.168 32.1702 10.992 32.5648 10.64C32.9595 10.2774 33.1568 9.85071 33.1568 9.36004C33.1568 8.88004 32.9755 8.51204 32.6128 8.25604C32.2608 8.00004 31.7808 7.84004 31.1728 7.77604L30.1808 7.66404C29.4448 7.57871 28.8582 7.34938 28.4208 6.97604C27.9942 6.60271 27.7808 6.09604 27.7808 5.45604C27.7808 4.99738 27.8982 4.58671 28.1328 4.22404C28.3675 3.86138 28.7035 3.57338 29.1408 3.36004C29.5888 3.14671 30.1115 3.04004 30.7088 3.04004C31.5835 3.04004 32.2875 3.25338 32.8208 3.68004C33.3648 4.10671 33.6422 4.68804 33.6528 5.42404H32.8208C32.8315 4.96538 32.6502 4.58138 32.2768 4.27204C31.9142 3.96271 31.3915 3.80804 30.7088 3.80804C29.9942 3.80804 29.4608 3.97338 29.1088 4.30404C28.7675 4.63471 28.5968 5.02404 28.5968 5.47204C28.5968 5.84538 28.7302 6.16538 28.9968 6.43204C29.2742 6.69871 29.6902 6.86404 30.2448 6.92804L31.2368 7.04004C32.0262 7.11471 32.6768 7.34404 33.1888 7.72804C33.7115 8.11204 33.9728 8.66138 33.9728 9.37604C33.9728 9.85604 33.8395 10.288 33.5728 10.672C33.3168 11.056 32.9488 11.3654 32.4688 11.6C31.9888 11.824 31.4022 11.936 30.7088 11.936ZM39.9958 11.968C39.2812 11.968 38.6625 11.8454 38.1398 11.6C37.6172 11.344 37.1905 11.008 36.8598 10.592C36.5292 10.1654 36.2785 9.69071 36.1078 9.16804C35.9478 8.63471 35.8678 8.09604 35.8678 7.55204V7.39204C35.8678 6.83738 35.9478 6.30404 36.1078 5.79204C36.2785 5.28004 36.5292 4.81604 36.8598 4.40004C37.2012 3.97338 37.6225 3.64271 38.1238 3.40804C38.6358 3.16271 39.2278 3.04004 39.8998 3.04004C40.7532 3.04004 41.4678 3.23204 42.0438 3.61604C42.6305 3.98938 43.0732 4.48004 43.3718 5.08804C43.6705 5.69604 43.8198 6.33604 43.8198 7.00804V7.58404H36.2678V6.88004H43.2598L43.0038 7.20004C43.0038 6.54938 42.8812 5.96804 42.6358 5.45604C42.4012 4.94404 42.0492 4.54404 41.5798 4.25604C41.1212 3.95738 40.5612 3.80804 39.8998 3.80804C39.1852 3.80804 38.5878 3.97338 38.1078 4.30404C37.6278 4.63471 37.2652 5.07738 37.0198 5.63204C36.7852 6.18671 36.6678 6.80004 36.6678 7.47204C36.6678 8.14404 36.7852 8.76271 37.0198 9.32804C37.2652 9.88271 37.6332 10.336 38.1238 10.688C38.6145 11.0294 39.2385 11.2 39.9958 11.2C40.8065 11.2 41.4572 11.0134 41.9478 10.64C42.4492 10.2667 42.7532 9.81871 42.8598 9.29604H43.6918C43.5745 9.81871 43.3505 10.2827 43.0198 10.688C42.6892 11.0934 42.2678 11.408 41.7558 11.632C41.2545 11.856 40.6678 11.968 39.9958 11.968ZM50.3915 11.696V0.0160446H51.2555V11.696H50.3915ZM50.9515 6.12804V5.32804L56.2795 5.31204V6.09604L50.9515 6.12804ZM50.9515 0.800044V0.0160446L56.5995 4.48227e-05V0.800044H50.9515ZM59.1667 11.696V0.0160446H60.0147V11.696H59.1667ZM57.9027 0.736044V0.0160446H60.0147V0.736044H57.9027ZM66.9542 11.968C66.2502 11.968 65.6262 11.84 65.0822 11.584C64.5382 11.328 64.0795 10.992 63.7062 10.576C63.3435 10.16 63.0662 9.69604 62.8742 9.18404C62.6929 8.66138 62.6022 8.12804 62.6022 7.58404V7.42404C62.6022 6.86938 62.6982 6.33071 62.8902 5.80804C63.0822 5.28538 63.3649 4.81604 63.7382 4.40004C64.1115 3.98404 64.5649 3.65338 65.0982 3.40804C65.6422 3.16271 66.2609 3.04004 66.9542 3.04004C67.6369 3.04004 68.2449 3.16271 68.7782 3.40804C69.3222 3.65338 69.7809 3.98404 70.1542 4.40004C70.5275 4.81604 70.8102 5.28538 71.0022 5.80804C71.2049 6.33071 71.3062 6.86938 71.3062 7.42404V7.58404C71.3062 8.12804 71.2102 8.66138 71.0182 9.18404C70.8262 9.69604 70.5435 10.16 70.1702 10.576C69.8075 10.992 69.3542 11.328 68.8102 11.584C68.2769 11.84 67.6582 11.968 66.9542 11.968ZM66.9542 11.184C67.7009 11.184 68.3302 11.0134 68.8422 10.672C69.3649 10.3307 69.7595 9.88271 70.0262 9.32804C70.3035 8.76271 70.4422 8.15471 70.4422 7.50404C70.4422 6.83204 70.3035 6.21871 70.0262 5.66404C69.7489 5.09871 69.3489 4.65071 68.8262 4.32004C68.3142 3.97871 67.6902 3.80804 66.9542 3.80804C66.2289 3.80804 65.5995 3.97871 65.0662 4.32004C64.5435 4.65071 64.1435 5.09871 63.8662 5.66404C63.5889 6.21871 63.4502 6.83204 63.4502 7.50404C63.4502 8.15471 63.5835 8.76271 63.8502 9.32804C64.1275 9.88271 64.5275 10.3307 65.0502 10.672C65.5729 11.0134 66.2075 11.184 66.9542 11.184ZM77.5323 11.968C76.8283 11.968 76.2043 11.84 75.6603 11.584C75.1163 11.328 74.6577 10.992 74.2843 10.576C73.9217 10.16 73.6443 9.69604 73.4523 9.18404C73.271 8.66138 73.1803 8.12804 73.1803 7.58404V7.42404C73.1803 6.86938 73.2763 6.33071 73.4683 5.80804C73.6603 5.28538 73.943 4.81604 74.3163 4.40004C74.6897 3.98404 75.143 3.65338 75.6763 3.40804C76.2203 3.16271 76.839 3.04004 77.5323 3.04004C78.215 3.04004 78.823 3.16271 79.3563 3.40804C79.9003 3.65338 80.359 3.98404 80.7323 4.40004C81.1057 4.81604 81.3883 5.28538 81.5803 5.80804C81.783 6.33071 81.8843 6.86938 81.8843 7.42404V7.58404C81.8843 8.12804 81.7883 8.66138 81.5963 9.18404C81.4043 9.69604 81.1217 10.16 80.7483 10.576C80.3857 10.992 79.9323 11.328 79.3883 11.584C78.855 11.84 78.2363 11.968 77.5323 11.968ZM77.5323 11.184C78.279 11.184 78.9083 11.0134 79.4203 10.672C79.943 10.3307 80.3377 9.88271 80.6043 9.32804C80.8817 8.76271 81.0203 8.15471 81.0203 7.50404C81.0203 6.83204 80.8817 6.21871 80.6043 5.66404C80.327 5.09871 79.927 4.65071 79.4043 4.32004C78.8923 3.97871 78.2683 3.80804 77.5323 3.80804C76.807 3.80804 76.1777 3.97871 75.6443 4.32004C75.1217 4.65071 74.7217 5.09871 74.4443 5.66404C74.167 6.21871 74.0283 6.83204 74.0283 7.50404C74.0283 8.15471 74.1617 8.76271 74.4283 9.32804C74.7057 9.88271 75.1057 10.3307 75.6283 10.672C76.151 11.0134 76.7857 11.184 77.5323 11.184ZM84.4625 11.696V3.29604H85.1345V6.84804H85.0065C85.0065 5.63204 85.2785 4.72538 85.8225 4.12804C86.3665 3.53071 87.2465 3.23204 88.4625 3.23204H88.7505V4.00004H88.3025C87.3105 4.00004 86.5638 4.25604 86.0625 4.76804C85.5611 5.26938 85.3105 6.01071 85.3105 6.99204V11.696H84.4625Z" fill="#404040"/>
</svg>
