<svg width="90" height="16" viewBox="0 0 90 16" fill="none" xmlns="http://www.w3.org/2000/svg">
<path d="M0.560828 7.52001V6.73601H3.37683C4.08083 6.73601 4.64616 6.60801 5.07283 6.35201C5.4995 6.09601 5.81416 5.75468 6.01683 5.32801C6.2195 4.89068 6.32083 4.41068 6.32083 3.88801C6.32083 3.36534 6.2195 2.89068 6.01683 2.46401C5.81416 2.02667 5.4995 1.68001 5.07283 1.42401C4.64616 1.16801 4.08083 1.04001 3.37683 1.04001H0.560828V0.256008H3.26483C4.17149 0.256008 4.91283 0.416008 5.48883 0.736009C6.06483 1.04534 6.4915 1.46668 6.76883 2.00001C7.04616 2.53334 7.18483 3.13068 7.18483 3.79201V3.98401C7.18483 4.63468 7.04616 5.23201 6.76883 5.77601C6.4915 6.30934 6.06483 6.73601 5.48883 7.05601C4.91283 7.36534 4.17149 7.52001 3.26483 7.52001H0.560828ZM0.000828266 11.984L0.000828266 0.256008H0.864828V11.984H0.000828266ZM12.8708 12.256C12.1562 12.256 11.5375 12.1333 11.0148 11.888C10.4922 11.632 10.0655 11.296 9.73483 10.88C9.40416 10.4533 9.15349 9.97868 8.98283 9.45601C8.82283 8.92268 8.74283 8.38401 8.74283 7.84001V7.68001C8.74283 7.12534 8.82283 6.59201 8.98283 6.08001C9.15349 5.56801 9.40416 5.10401 9.73483 4.68801C10.0762 4.26134 10.4975 3.93068 10.9988 3.69601C11.5108 3.45068 12.1028 3.32801 12.7748 3.32801C13.6282 3.32801 14.3428 3.52001 14.9188 3.90401C15.5055 4.27734 15.9482 4.76801 16.2468 5.37601C16.5455 5.98401 16.6948 6.62401 16.6948 7.29601V7.87201H9.14283V7.16801H16.1348L15.8788 7.48801C15.8788 6.83734 15.7562 6.25601 15.5108 5.74401C15.2762 5.23201 14.9242 4.83201 14.4548 4.54401C13.9962 4.24534 13.4362 4.09601 12.7748 4.09601C12.0602 4.09601 11.4628 4.26134 10.9828 4.59201C10.5028 4.92268 10.1402 5.36534 9.89483 5.92001C9.66016 6.47468 9.54283 7.08801 9.54283 7.76001C9.54283 8.43201 9.66016 9.05068 9.89483 9.61601C10.1402 10.1707 10.5082 10.624 10.9988 10.976C11.4895 11.3173 12.1135 11.488 12.8708 11.488C13.6815 11.488 14.3322 11.3013 14.8228 10.928C15.3242 10.5547 15.6282 10.1067 15.7348 9.58401H16.5668C16.4495 10.1067 16.2255 10.5707 15.8948 10.976C15.5642 11.3813 15.1428 11.696 14.6308 11.92C14.1295 12.144 13.5428 12.256 12.8708 12.256ZM24.2703 11.984V9.47201H24.1103V6.38401C24.1103 5.71201 23.9343 5.19468 23.5823 4.83201C23.2303 4.45868 22.649 4.27201 21.8383 4.27201C21.5503 4.27201 21.257 4.28268 20.9583 4.30401C20.6597 4.31468 20.377 4.33067 20.1103 4.35201C19.8437 4.36268 19.6037 4.38401 19.3903 4.41601V3.64801C19.6037 3.61601 19.8277 3.58934 20.0623 3.56801C20.3077 3.54668 20.553 3.53068 20.7983 3.52001C21.0437 3.50934 21.2783 3.50401 21.5023 3.50401C22.345 3.50401 23.017 3.61601 23.5183 3.84001C24.0197 4.05334 24.3823 4.38401 24.6063 4.83201C24.8303 5.26934 24.9423 5.82934 24.9423 6.51201V11.984H24.2703ZM21.3423 12.208C20.777 12.208 20.2703 12.1067 19.8223 11.904C19.3743 11.7013 19.017 11.4027 18.7503 11.008C18.4943 10.6133 18.3663 10.1333 18.3663 9.56801C18.3663 9.02401 18.489 8.56001 18.7343 8.17601C18.9903 7.79201 19.353 7.49868 19.8223 7.29601C20.3023 7.09334 20.8783 6.99201 21.5503 6.99201H24.1903V7.68001H21.4703C20.745 7.68001 20.185 7.85601 19.7903 8.20801C19.4063 8.54934 19.2143 9.00268 19.2143 9.56801C19.2143 10.1653 19.4223 10.64 19.8383 10.992C20.2543 11.3333 20.7983 11.504 21.4703 11.504C21.8863 11.504 22.2917 11.424 22.6863 11.264C23.081 11.104 23.4117 10.8373 23.6783 10.464C23.945 10.08 24.089 9.56801 24.1103 8.92801L24.4303 9.29601C24.3983 9.94668 24.2383 10.4907 23.9503 10.928C23.673 11.3547 23.3103 11.6747 22.8623 11.888C22.4143 12.1013 21.9077 12.208 21.3423 12.208ZM33.7347 11.984L30.1507 8.03201H28.8067L32.9027 3.58401H33.8627L30.2147 7.53601L30.2307 7.00801L34.7587 11.984H33.7347ZM28.1187 11.984V0.304008H28.9667V11.984H28.1187ZM45.5527 12.256C44.5394 12.256 43.6647 12.0747 42.9287 11.712C42.1927 11.3387 41.59 10.8587 41.1207 10.272C40.662 9.67468 40.3207 9.02401 40.0967 8.32001C39.8727 7.60534 39.7607 6.91201 39.7607 6.24001V6.00001C39.7607 5.27468 39.8727 4.56001 40.0967 3.85601C40.3314 3.14134 40.678 2.49601 41.1367 1.92001C41.606 1.33334 42.198 0.869342 42.9127 0.528008C43.6274 0.176009 44.47 8.58307e-06 45.4407 8.58307e-06C46.39 8.58307e-06 47.222 0.176009 47.9367 0.528008C48.662 0.869342 49.2434 1.35468 49.6807 1.98401C50.118 2.60268 50.3847 3.32801 50.4807 4.16001H49.6007C49.5047 3.43467 49.2647 2.82134 48.8807 2.32001C48.4967 1.81868 48.006 1.44001 47.4087 1.18401C46.822 0.928008 46.166 0.800008 45.4407 0.800008C44.6514 0.800008 43.958 0.944008 43.3607 1.23201C42.7634 1.50934 42.262 1.89867 41.8567 2.40001C41.4514 2.89067 41.1474 3.45601 40.9447 4.09601C40.742 4.73601 40.6407 5.41334 40.6407 6.12801C40.6407 6.78934 40.742 7.44001 40.9447 8.08001C41.1474 8.72001 41.4514 9.29068 41.8567 9.79201C42.262 10.2933 42.7687 10.6987 43.3767 11.008C43.9954 11.3067 44.7207 11.456 45.5527 11.456C46.6834 11.456 47.6327 11.168 48.4007 10.592C49.1794 10.0053 49.654 9.17334 49.8247 8.09601H50.7047C50.5874 8.90668 50.3047 9.62668 49.8567 10.256C49.4194 10.8747 48.838 11.3653 48.1127 11.728C47.3874 12.08 46.534 12.256 45.5527 12.256ZM53.1042 11.984V0.304008H53.9522V11.984H53.1042ZM51.8402 1.02401V0.304008H53.9522V1.02401H51.8402ZM62.3797 11.984V9.47201H62.2197V6.38401C62.2197 5.71201 62.0437 5.19468 61.6917 4.83201C61.3397 4.45868 60.7584 4.27201 59.9477 4.27201C59.6597 4.27201 59.3664 4.28268 59.0677 4.30401C58.769 4.31468 58.4864 4.33067 58.2197 4.35201C57.953 4.36268 57.713 4.38401 57.4997 4.41601V3.64801C57.713 3.61601 57.937 3.58934 58.1717 3.56801C58.417 3.54668 58.6624 3.53068 58.9077 3.52001C59.153 3.50934 59.3877 3.50401 59.6117 3.50401C60.4544 3.50401 61.1264 3.61601 61.6277 3.84001C62.129 4.05334 62.4917 4.38401 62.7157 4.83201C62.9397 5.26934 63.0517 5.82934 63.0517 6.51201V11.984H62.3797ZM59.4517 12.208C58.8864 12.208 58.3797 12.1067 57.9317 11.904C57.4837 11.7013 57.1264 11.4027 56.8597 11.008C56.6037 10.6133 56.4757 10.1333 56.4757 9.56801C56.4757 9.02401 56.5984 8.56001 56.8437 8.17601C57.0997 7.79201 57.4624 7.49868 57.9317 7.29601C58.4117 7.09334 58.9877 6.99201 59.6597 6.99201H62.2997V7.68001H59.5797C58.8544 7.68001 58.2944 7.85601 57.8997 8.20801C57.5157 8.54934 57.3237 9.00268 57.3237 9.56801C57.3237 10.1653 57.5317 10.64 57.9477 10.992C58.3637 11.3333 58.9077 11.504 59.5797 11.504C59.9957 11.504 60.401 11.424 60.7957 11.264C61.1904 11.104 61.521 10.8373 61.7877 10.464C62.0544 10.08 62.1984 9.56801 62.2197 8.92801L62.5397 9.29601C62.5077 9.94668 62.3477 10.4907 62.0597 10.928C61.7824 11.3547 61.4197 11.6747 60.9717 11.888C60.5237 12.1013 60.017 12.208 59.4517 12.208ZM66.2281 11.984V3.58401H66.9001V7.13601H66.7721C66.7721 5.92001 67.0441 5.01334 67.5881 4.41601C68.1321 3.81867 69.0121 3.52001 70.2281 3.52001H70.5161V4.28801H70.0681C69.0761 4.28801 68.3294 4.54401 67.8281 5.05601C67.3267 5.55734 67.0761 6.29868 67.0761 7.28001V11.984H66.2281ZM73.0355 11.984V3.58401H73.8995V11.984H73.0355ZM71.6435 4.32001V3.58401H73.8995V4.32001H71.6435ZM73.1155 1.82401C72.8915 1.82401 72.7208 1.76534 72.6035 1.64801C72.4861 1.52001 72.4275 1.36001 72.4275 1.16801C72.4275 0.965341 72.4861 0.800008 72.6035 0.672009C72.7208 0.544008 72.8968 0.480008 73.1315 0.480008C73.3555 0.480008 73.5261 0.544008 73.6435 0.672009C73.7608 0.800008 73.8195 0.965341 73.8195 1.16801C73.8195 1.36001 73.7608 1.52001 73.6435 1.64801C73.5368 1.76534 73.3608 1.82401 73.1155 1.82401ZM80.0125 12.064C79.4898 12.064 79.0311 11.9893 78.6365 11.84C78.2418 11.68 77.9378 11.4133 77.7245 11.04C77.5111 10.6667 77.4045 10.1653 77.4045 9.53601V0.848008H78.2365V9.68001C78.2365 10.192 78.3751 10.592 78.6525 10.88C78.9405 11.1573 79.3351 11.296 79.8365 11.296H81.4045V12.064H80.0125ZM75.8045 4.27201V3.58401H81.4045V4.27201H75.8045ZM82.9403 15.248V14.464H83.9003C84.2737 14.464 84.599 14.416 84.8763 14.32C85.1537 14.2347 85.3937 14.0747 85.5963 13.84C85.8097 13.6053 85.9857 13.2693 86.1243 12.832L89.1163 3.58401H89.9643L86.8443 13.104C86.6737 13.6267 86.4443 14.0427 86.1563 14.352C85.879 14.672 85.543 14.9013 85.1483 15.04C84.7643 15.1787 84.327 15.248 83.8363 15.248H82.9403ZM85.8523 11.776V11.024H87.0363V11.776H85.8523ZM85.6923 11.776L82.6363 3.58401H83.5003L86.5243 11.776H85.6923Z" fill="#404040"/>
</svg>
