<svg width="376" height="46" viewBox="0 0 376 46" fill="none" xmlns="http://www.w3.org/2000/svg">
<path d="M10.9443 35.952V3.31203H14.5923V35.952H10.9443ZM0.000250041 4.22403V0.912025H25.5363V4.22403H0.000250041ZM31.531 35.952V0.912025H35.131V20.736L34.075 21.552C34.075 19.184 34.411 17.12 35.083 15.36C35.787 13.6 36.827 12.24 38.203 11.28C39.611 10.288 41.371 9.79203 43.483 9.79203H43.675C46.747 9.79203 49.067 10.8 50.635 12.816C52.235 14.832 53.035 17.632 53.035 21.216V35.952H49.483V20.448C49.483 18.176 48.859 16.384 47.611 15.072C46.363 13.76 44.683 13.104 42.571 13.104C40.299 13.104 38.491 13.84 37.147 15.312C35.803 16.752 35.131 18.656 35.131 21.024V35.952H31.531ZM72.6078 36.768C70.4318 36.768 68.5438 36.4 66.9438 35.664C65.3438 34.896 64.0318 33.888 63.0078 32.64C61.9838 31.36 61.2158 29.936 60.7038 28.368C60.2238 26.8 59.9838 25.184 59.9838 23.52V22.848C59.9838 21.216 60.2238 19.616 60.7038 18.048C61.2158 16.48 61.9838 15.072 63.0078 13.824C64.0318 12.576 65.3118 11.584 66.8478 10.848C68.4158 10.08 70.2398 9.69602 72.3198 9.69602C74.9758 9.69602 77.1838 10.288 78.9438 11.472C80.7358 12.656 82.0798 14.176 82.9758 16.032C83.8718 17.856 84.3198 19.824 84.3198 21.936V23.808H61.6158V21.024H81.8238L80.9118 22.416C80.9118 20.528 80.5758 18.88 79.9038 17.472C79.2638 16.032 78.3038 14.912 77.0238 14.112C75.7758 13.28 74.2078 12.864 72.3198 12.864C70.3358 12.864 68.6878 13.328 67.3758 14.256C66.0638 15.184 65.0718 16.416 64.3997 17.952C63.7598 19.488 63.4398 21.232 63.4398 23.184C63.4398 25.104 63.7598 26.864 64.3997 28.464C65.0718 30.032 66.0798 31.28 67.4238 32.208C68.7998 33.136 70.5278 33.6 72.6078 33.6C74.8158 33.6 76.6078 33.104 77.9838 32.112C79.3598 31.088 80.2078 29.888 80.5278 28.512H83.8878C83.5678 30.208 82.8958 31.68 81.8718 32.928C80.8478 34.144 79.5518 35.088 77.9838 35.76C76.4158 36.432 74.6238 36.768 72.6078 36.768ZM118.197 36.768C115.061 36.768 112.373 36.224 110.133 35.136C107.925 34.016 106.117 32.56 104.709 30.768C103.333 28.976 102.325 27.04 101.685 24.96C101.045 22.848 100.725 20.8 100.725 18.816V17.904C100.725 15.76 101.045 13.632 101.685 11.52C102.357 9.37603 103.381 7.44002 104.757 5.71202C106.165 3.98403 107.957 2.60803 110.133 1.58403C112.309 0.528026 114.885 2.57492e-05 117.861 2.57492e-05C120.869 2.57492e-05 123.461 0.528026 125.637 1.58403C127.845 2.64003 129.605 4.12803 130.917 6.04803C132.229 7.93603 133.029 10.176 133.317 12.768H129.621C129.365 10.688 128.693 8.96002 127.605 7.58403C126.517 6.17602 125.125 5.12002 123.429 4.41603C121.765 3.71203 119.909 3.36003 117.861 3.36003C115.653 3.36003 113.701 3.76003 112.005 4.56002C110.341 5.32802 108.949 6.41602 107.829 7.82403C106.709 9.20002 105.861 10.8 105.285 12.624C104.709 14.416 104.421 16.336 104.421 18.384C104.421 20.336 104.693 22.208 105.237 24C105.813 25.792 106.677 27.408 107.829 28.848C108.981 30.256 110.421 31.376 112.149 32.208C113.877 33.008 115.893 33.408 118.197 33.408C121.397 33.408 124.085 32.608 126.261 31.008C128.437 29.376 129.781 27.04 130.293 24H133.989C133.637 26.4 132.805 28.576 131.493 30.528C130.181 32.448 128.405 33.968 126.165 35.088C123.957 36.208 121.301 36.768 118.197 36.768ZM140.802 35.952V0.912025H144.402V35.952H140.802ZM137.106 3.84002V0.912025H144.402V3.84002H137.106ZM169.19 35.952V28.32H168.614V19.296C168.614 17.408 168.118 15.968 167.126 14.976C166.134 13.952 164.598 13.44 162.518 13.44C161.558 13.44 160.582 13.456 159.59 13.488C158.63 13.52 157.702 13.568 156.806 13.632C155.942 13.664 155.174 13.712 154.502 13.776V10.608C155.206 10.544 155.926 10.48 156.662 10.416C157.398 10.352 158.15 10.32 158.918 10.32C159.718 10.288 160.486 10.272 161.222 10.272C163.814 10.272 165.894 10.592 167.462 11.232C169.062 11.872 170.23 12.88 170.966 14.256C171.702 15.6 172.07 17.392 172.07 19.632V35.952H169.19ZM160.598 36.624C158.806 36.624 157.222 36.304 155.846 35.664C154.47 35.024 153.398 34.096 152.63 32.88C151.894 31.664 151.526 30.192 151.526 28.464C151.526 26.768 151.91 25.328 152.678 24.144C153.478 22.96 154.614 22.064 156.086 21.456C157.59 20.816 159.398 20.496 161.51 20.496H168.95V23.232H161.27C159.254 23.232 157.702 23.728 156.614 24.72C155.558 25.68 155.03 26.944 155.03 28.512C155.03 30.112 155.59 31.392 156.71 32.352C157.83 33.28 159.35 33.744 161.27 33.744C162.454 33.744 163.59 33.536 164.678 33.12C165.766 32.672 166.678 31.936 167.414 30.912C168.15 29.856 168.55 28.416 168.614 26.592L169.67 28.08C169.542 29.968 169.094 31.552 168.326 32.832C167.558 34.08 166.518 35.024 165.206 35.664C163.894 36.304 162.358 36.624 160.598 36.624ZM181.062 35.952V10.56H183.942V21.168H183.654C183.654 17.456 184.47 14.72 186.102 12.96C187.734 11.168 190.294 10.272 193.782 10.272H194.598V13.536H193.11C190.358 13.536 188.262 14.256 186.822 15.696C185.382 17.104 184.662 19.184 184.662 21.936V35.952H181.062ZM201.766 35.952V10.56H205.318V35.952H201.766ZM197.686 13.44V10.56H205.318V13.44H197.686ZM202.534 5.85602C201.67 5.85602 201.014 5.63202 200.566 5.18402C200.15 4.70403 199.942 4.11203 199.942 3.40802C199.942 2.70402 200.15 2.12802 200.566 1.68002C201.014 1.20002 201.67 0.960025 202.534 0.960025C203.398 0.960025 204.038 1.20002 204.454 1.68002C204.87 2.12802 205.078 2.70402 205.078 3.40802C205.078 4.11203 204.87 4.70403 204.454 5.18402C204.038 5.63202 203.398 5.85602 202.534 5.85602ZM223.981 36.24C222.221 36.24 220.701 35.984 219.421 35.472C218.141 34.96 217.149 34.096 216.445 32.88C215.741 31.632 215.389 29.968 215.389 27.888V2.54402H218.845V28.416C218.845 29.888 219.245 31.024 220.045 31.824C220.845 32.592 221.981 32.976 223.453 32.976H228.013V36.24H223.981ZM210.829 13.296V10.56H228.013V13.296H210.829ZM232.713 45.84V42.624H235.977C237.097 42.624 238.057 42.48 238.857 42.192C239.657 41.936 240.329 41.472 240.873 40.8C241.417 40.128 241.881 39.2 242.265 38.016L250.809 10.56H254.312L245.385 39.024C244.873 40.656 244.169 41.968 243.273 42.96C242.377 43.984 241.305 44.72 240.057 45.168C238.809 45.616 237.385 45.84 235.785 45.84H232.713ZM240.969 35.328V32.304H245.529V35.328H240.969ZM240.537 35.328L231.321 10.56H235.017L243.897 35.328H240.537ZM287.94 36.768C285.06 36.768 282.5 36.288 280.26 35.328C278.052 34.368 276.196 33.056 274.692 31.392C273.188 29.696 272.036 27.76 271.236 25.584C270.468 23.376 270.084 21.056 270.084 18.624V17.76C270.084 15.52 270.452 13.344 271.188 11.232C271.956 9.12002 273.06 7.21603 274.5 5.52003C275.94 3.82403 277.732 2.48002 279.876 1.48802C282.02 0.496025 284.452 2.57492e-05 287.172 2.57492e-05C290.02 2.57492e-05 292.548 0.544025 294.756 1.63202C296.964 2.68802 298.74 4.17602 300.084 6.09602C301.46 8.01602 302.26 10.24 302.484 12.768H298.788C298.532 10.72 297.844 8.99202 296.724 7.58403C295.636 6.17602 294.26 5.12002 292.596 4.41603C290.932 3.71203 289.124 3.36003 287.172 3.36003C285.124 3.36003 283.268 3.72803 281.604 4.46403C279.94 5.20003 278.532 6.24003 277.38 7.58403C276.228 8.92803 275.332 10.512 274.692 12.336C274.084 14.128 273.78 16.096 273.78 18.24C273.78 20.512 274.1 22.592 274.74 24.48C275.38 26.336 276.308 27.936 277.524 29.28C278.74 30.624 280.212 31.664 281.94 32.4C283.7 33.136 285.7 33.504 287.94 33.504C290.692 33.504 293.108 32.976 295.188 31.92C297.3 30.832 298.932 29.408 300.084 27.648L298.644 32.16V21.792H302.1V30.528C300.596 32.48 298.644 34.016 296.244 35.136C293.844 36.224 291.076 36.768 287.94 36.768ZM286.644 22.56V19.488H305.22V22.56H286.644ZM327.159 35.952V28.32H326.583V19.296C326.583 17.408 326.087 15.968 325.095 14.976C324.103 13.952 322.567 13.44 320.487 13.44C319.527 13.44 318.551 13.456 317.559 13.488C316.599 13.52 315.671 13.568 314.775 13.632C313.911 13.664 313.143 13.712 312.471 13.776V10.608C313.175 10.544 313.895 10.48 314.631 10.416C315.367 10.352 316.119 10.32 316.887 10.32C317.687 10.288 318.455 10.272 319.191 10.272C321.783 10.272 323.863 10.592 325.431 11.232C327.031 11.872 328.199 12.88 328.935 14.256C329.671 15.6 330.039 17.392 330.039 19.632V35.952H327.159ZM318.567 36.624C316.775 36.624 315.191 36.304 313.815 35.664C312.439 35.024 311.367 34.096 310.599 32.88C309.863 31.664 309.495 30.192 309.495 28.464C309.495 26.768 309.879 25.328 310.647 24.144C311.447 22.96 312.583 22.064 314.055 21.456C315.559 20.816 317.367 20.496 319.479 20.496H326.919V23.232H319.239C317.223 23.232 315.671 23.728 314.583 24.72C313.527 25.68 312.999 26.944 312.999 28.512C312.999 30.112 313.559 31.392 314.679 32.352C315.799 33.28 317.319 33.744 319.239 33.744C320.423 33.744 321.559 33.536 322.647 33.12C323.735 32.672 324.647 31.936 325.383 30.912C326.119 29.856 326.519 28.416 326.583 26.592L327.639 28.08C327.511 29.968 327.063 31.552 326.295 32.832C325.527 34.08 324.487 35.024 323.175 35.664C321.863 36.304 320.327 36.624 318.567 36.624ZM339.031 45.552V10.56H341.911V21.456L341.047 21.552C341.175 18.992 341.719 16.832 342.679 15.072C343.671 13.312 344.999 11.984 346.663 11.088C348.359 10.16 350.247 9.69602 352.327 9.69602C354.183 9.69602 355.863 10.064 357.367 10.8C358.903 11.504 360.199 12.48 361.255 13.728C362.343 14.944 363.159 16.352 363.703 17.952C364.279 19.52 364.567 21.168 364.567 22.896V23.568C364.567 25.296 364.279 26.96 363.703 28.56C363.127 30.128 362.295 31.536 361.207 32.784C360.151 34 358.855 34.976 357.319 35.712C355.815 36.416 354.119 36.768 352.231 36.768C350.215 36.768 348.359 36.32 346.663 35.424C344.999 34.496 343.639 33.136 342.583 31.344C341.559 29.552 340.999 27.344 340.903 24.72L342.631 28.32V45.552H339.031ZM351.751 33.6C353.671 33.6 355.319 33.152 356.695 32.256C358.071 31.328 359.127 30.08 359.863 28.512C360.599 26.912 360.967 25.152 360.967 23.232C360.967 21.248 360.583 19.488 359.815 17.952C359.079 16.384 358.023 15.152 356.647 14.256C355.271 13.328 353.639 12.864 351.751 12.864C350.023 12.864 348.455 13.248 347.047 14.016C345.639 14.784 344.519 15.872 343.687 17.28C342.887 18.656 342.487 20.288 342.487 22.176V24.528C342.487 26.32 342.887 27.904 343.687 29.28C344.519 30.624 345.639 31.68 347.047 32.448C348.455 33.216 350.023 33.6 351.751 33.6ZM371.124 35.952V31.2H375.636V35.952H371.124ZM371.124 17.856V13.104H375.636V17.856H371.124Z" fill="#0D0D0D"/>
</svg>
