<svg width="349" height="53" viewBox="0 0 349 53" fill="none" xmlns="http://www.w3.org/2000/svg">
<path d="M4.94333 17.52L-0.000671864 1.90735e-05H1.31933L5.95133 16.704L5.39933 16.344H7.19933L6.64733 16.704L10.4873 0.792019H11.7113L7.63133 17.52H4.94333ZM15.4793 17.52L11.0393 0.792019H12.2873L16.5113 16.704L15.9113 16.344H17.7833L17.1833 16.704L21.4553 1.90735e-05H22.7513L18.1913 17.52H15.4793ZM26.1224 17.52V1.90735e-05H27.3944V9.36002L26.9384 10.176C26.9384 9.07202 27.1064 8.10402 27.4424 7.27202C27.7944 6.42402 28.3224 5.76802 29.0264 5.30402C29.7304 4.82402 30.6184 4.58402 31.6904 4.58402H31.7384C33.3064 4.58402 34.4904 5.08002 35.2904 6.07202C36.0904 7.04802 36.4904 8.38402 36.4904 10.08V17.52H35.1944V9.79202C35.1944 8.57602 34.8664 7.60002 34.2104 6.86402C33.5544 6.12802 32.6264 5.76002 31.4264 5.76002C30.1944 5.76002 29.2104 6.15202 28.4744 6.93602C27.7544 7.70402 27.3944 8.71202 27.3944 9.96002V17.52H26.1224ZM39.7533 22.416V21.24H41.1933C41.7533 21.24 42.2413 21.168 42.6573 21.024C43.0733 20.896 43.4333 20.656 43.7373 20.304C44.0573 19.952 44.3213 19.448 44.5293 18.792L49.0173 4.92002H50.2893L45.6093 19.2C45.3533 19.984 45.0093 20.608 44.5773 21.072C44.1613 21.552 43.6573 21.896 43.0653 22.104C42.4893 22.312 41.8333 22.416 41.0973 22.416H39.7533ZM44.1213 17.208V16.08H45.8973V17.208H44.1213ZM43.8813 17.208L39.2973 4.92002H40.5933L45.1293 17.208H43.8813ZM59.4271 17.52V4.92002H60.4351V10.08H60.1471C60.1471 8.99202 60.3071 8.04002 60.6271 7.22402C60.9631 6.39202 61.4591 5.74402 62.1151 5.28002C62.7711 4.81602 63.6031 4.58402 64.6111 4.58402H64.6831C65.6751 4.58402 66.4991 4.81602 67.1551 5.28002C67.8111 5.72802 68.2911 6.36802 68.5951 7.20002C68.9151 8.01602 69.0751 8.97602 69.0751 10.08H68.5951C68.5951 8.99202 68.7551 8.04002 69.0751 7.22402C69.4111 6.39202 69.9071 5.74402 70.5631 5.28002C71.2351 4.81602 72.0751 4.58402 73.0831 4.58402H73.1551C74.1471 4.58402 74.9711 4.81602 75.6271 5.28002C76.2991 5.72802 76.7951 6.36802 77.1151 7.20002C77.4351 8.01602 77.5951 8.97602 77.5951 10.08V17.52H76.3231V9.79202C76.3231 8.59202 76.0271 7.62402 75.4351 6.88802C74.8591 6.13602 74.0031 5.76002 72.8671 5.76002C71.7151 5.76002 70.8031 6.14402 70.1311 6.91202C69.4751 7.68002 69.1471 8.68002 69.1471 9.91202V17.52H67.8751V9.79202C67.8751 8.59202 67.5791 7.62402 66.9871 6.88802C66.4111 6.13602 65.5551 5.76002 64.4191 5.76002C63.2671 5.76002 62.3551 6.14402 61.6831 6.91202C61.0271 7.68002 60.6991 8.68002 60.6991 9.91202V17.52H59.4271ZM87.8444 17.928C86.7884 17.928 85.8524 17.736 85.0364 17.352C84.2204 16.968 83.5324 16.464 82.9724 15.84C82.4284 15.216 82.0124 14.52 81.7244 13.752C81.4524 12.968 81.3164 12.168 81.3164 11.352V11.112C81.3164 10.28 81.4604 9.47202 81.7484 8.68802C82.0364 7.90402 82.4604 7.20002 83.0204 6.57602C83.5804 5.95202 84.2604 5.45602 85.0604 5.08802C85.8764 4.72002 86.8044 4.53602 87.8444 4.53602C88.8684 4.53602 89.7804 4.72002 90.5804 5.08802C91.3964 5.45602 92.0844 5.95202 92.6444 6.57602C93.2044 7.20002 93.6284 7.90402 93.9164 8.68802C94.2204 9.47202 94.3724 10.28 94.3724 11.112V11.352C94.3724 12.168 94.2284 12.968 93.9404 13.752C93.6524 14.52 93.2284 15.216 92.6684 15.84C92.1244 16.464 91.4444 16.968 90.6284 17.352C89.8284 17.736 88.9004 17.928 87.8444 17.928ZM87.8444 16.752C88.9644 16.752 89.9084 16.496 90.6764 15.984C91.4604 15.472 92.0524 14.8 92.4524 13.968C92.8684 13.12 93.0764 12.208 93.0764 11.232C93.0764 10.224 92.8684 9.30402 92.4524 8.47202C92.0364 7.62402 91.4364 6.95202 90.6524 6.45602C89.8844 5.94402 88.9484 5.68802 87.8444 5.68802C86.7564 5.68802 85.8124 5.94402 85.0124 6.45602C84.2284 6.95202 83.6284 7.62402 83.2124 8.47202C82.7964 9.30402 82.5884 10.224 82.5884 11.232C82.5884 12.208 82.7884 13.12 83.1884 13.968C83.6044 14.8 84.2044 15.472 84.9884 15.984C85.7724 16.496 86.7244 16.752 87.8444 16.752ZM98.2396 17.52V4.92002H99.2476V10.248H99.0556C99.0556 8.42402 99.4636 7.06402 100.28 6.16802C101.096 5.27202 102.416 4.82402 104.24 4.82402H104.672V5.97602H104C102.512 5.97602 101.392 6.36002 100.64 7.12802C99.8876 7.88002 99.5116 8.99202 99.5116 10.464V17.52H98.2396ZM112.751 17.928C111.679 17.928 110.751 17.744 109.967 17.376C109.183 16.992 108.543 16.488 108.047 15.864C107.551 15.224 107.175 14.512 106.919 13.728C106.679 12.928 106.559 12.12 106.559 11.304V11.064C106.559 10.232 106.679 9.43202 106.919 8.66402C107.175 7.89602 107.551 7.20002 108.047 6.57602C108.559 5.93602 109.191 5.44002 109.943 5.08802C110.711 4.72002 111.599 4.53602 112.607 4.53602C113.887 4.53602 114.959 4.82402 115.823 5.40002C116.703 5.96002 117.367 6.69602 117.815 7.60802C118.263 8.52002 118.487 9.48002 118.487 10.488V11.352H107.159V10.296H117.647L117.263 10.776C117.263 9.80002 117.079 8.92802 116.711 8.16002C116.359 7.39202 115.831 6.79202 115.127 6.36002C114.439 5.91202 113.599 5.68802 112.607 5.68802C111.535 5.68802 110.639 5.93602 109.919 6.43202C109.199 6.92802 108.655 7.59202 108.287 8.42402C107.935 9.25602 107.759 10.176 107.759 11.184C107.759 12.192 107.935 13.12 108.287 13.968C108.655 14.8 109.207 15.48 109.943 16.008C110.679 16.52 111.615 16.776 112.751 16.776C113.967 16.776 114.943 16.496 115.679 15.936C116.431 15.376 116.887 14.704 117.047 13.92H118.295C118.119 14.704 117.783 15.4 117.287 16.008C116.791 16.616 116.159 17.088 115.391 17.424C114.639 17.76 113.759 17.928 112.751 17.928ZM132.952 17.928C132.008 17.928 131.152 17.752 130.384 17.4C129.632 17.032 128.992 16.544 128.464 15.936C127.936 15.312 127.528 14.608 127.24 13.824C126.968 13.04 126.832 12.216 126.832 11.352V11.112C126.832 10.28 126.968 9.48002 127.24 8.71202C127.512 7.92802 127.904 7.22402 128.416 6.60002C128.944 5.96002 129.584 5.45602 130.336 5.08802C131.088 4.72002 131.952 4.53602 132.928 4.53602C134.064 4.53602 135.048 4.79202 135.88 5.30402C136.728 5.81602 137.384 6.52002 137.848 7.41602C138.328 8.29602 138.584 9.30402 138.616 10.44L137.968 9.02402V1.90735e-05H139.24V17.52H138.232V11.928H138.712C138.68 13.128 138.416 14.184 137.92 15.096C137.424 15.992 136.744 16.688 135.88 17.184C135.032 17.68 134.056 17.928 132.952 17.928ZM133.072 16.776C134.048 16.776 134.904 16.56 135.64 16.128C136.392 15.696 136.976 15.112 137.392 14.376C137.824 13.624 138.04 12.768 138.04 11.808V10.56C138.04 9.64802 137.824 8.82402 137.392 8.08802C136.976 7.35202 136.392 6.76802 135.64 6.33602C134.904 5.90402 134.048 5.68802 133.072 5.68802C132.016 5.68802 131.12 5.94402 130.384 6.45602C129.648 6.96802 129.08 7.64802 128.68 8.49602C128.296 9.32802 128.104 10.24 128.104 11.232C128.104 12.256 128.304 13.192 128.704 14.04C129.104 14.872 129.672 15.536 130.408 16.032C131.16 16.528 132.048 16.776 133.072 16.776ZM151.881 17.52V13.752H151.641V9.12002C151.641 8.11202 151.377 7.33602 150.849 6.79202C150.321 6.23202 149.449 5.95202 148.233 5.95202C147.801 5.95202 147.361 5.96802 146.913 6.00002C146.465 6.01602 146.041 6.04002 145.641 6.07202C145.241 6.08802 144.881 6.12002 144.561 6.16802V5.01602C144.881 4.96802 145.217 4.92802 145.569 4.89602C145.937 4.86402 146.305 4.84002 146.673 4.82402C147.041 4.80802 147.393 4.80002 147.729 4.80002C148.993 4.80002 150.001 4.96802 150.753 5.30402C151.505 5.62402 152.049 6.12002 152.385 6.79202C152.721 7.44802 152.889 8.28802 152.889 9.31202V17.52H151.881ZM147.489 17.856C146.641 17.856 145.881 17.704 145.209 17.4C144.537 17.096 144.001 16.648 143.601 16.056C143.217 15.464 143.025 14.744 143.025 13.896C143.025 13.08 143.209 12.384 143.577 11.808C143.961 11.232 144.505 10.792 145.209 10.488C145.929 10.184 146.793 10.032 147.801 10.032H151.761V11.064H147.681C146.593 11.064 145.753 11.328 145.161 11.856C144.585 12.368 144.297 13.048 144.297 13.896C144.297 14.792 144.609 15.504 145.233 16.032C145.857 16.544 146.673 16.8 147.681 16.8C148.305 16.8 148.913 16.68 149.505 16.44C150.097 16.2 150.593 15.8 150.993 15.24C151.393 14.664 151.609 13.896 151.641 12.936L152.121 13.488C152.073 14.464 151.833 15.28 151.401 15.936C150.985 16.576 150.441 17.056 149.769 17.376C149.097 17.696 148.337 17.856 147.489 17.856ZM161.854 17.64C161.07 17.64 160.382 17.528 159.79 17.304C159.198 17.064 158.742 16.664 158.422 16.104C158.102 15.544 157.942 14.792 157.942 13.848V0.816019H159.19V14.064C159.19 14.832 159.398 15.432 159.814 15.864C160.246 16.28 160.838 16.488 161.59 16.488H163.942V17.64H161.854ZM155.542 5.95202V4.92002H163.942V5.95202H155.542ZM175.319 17.52V13.752H175.079V9.12002C175.079 8.11202 174.815 7.33602 174.287 6.79202C173.759 6.23202 172.887 5.95202 171.671 5.95202C171.239 5.95202 170.799 5.96802 170.351 6.00002C169.903 6.01602 169.479 6.04002 169.079 6.07202C168.679 6.08802 168.319 6.12002 167.999 6.16802V5.01602C168.319 4.96802 168.655 4.92802 169.007 4.89602C169.375 4.86402 169.743 4.84002 170.111 4.82402C170.479 4.80802 170.831 4.80002 171.167 4.80002C172.431 4.80002 173.439 4.96802 174.191 5.30402C174.943 5.62402 175.487 6.12002 175.823 6.79202C176.159 7.44802 176.327 8.28802 176.327 9.31202V17.52H175.319ZM170.927 17.856C170.079 17.856 169.319 17.704 168.647 17.4C167.975 17.096 167.439 16.648 167.039 16.056C166.655 15.464 166.463 14.744 166.463 13.896C166.463 13.08 166.647 12.384 167.015 11.808C167.399 11.232 167.943 10.792 168.647 10.488C169.367 10.184 170.231 10.032 171.239 10.032H175.199V11.064H171.119C170.031 11.064 169.191 11.328 168.599 11.856C168.023 12.368 167.735 13.048 167.735 13.896C167.735 14.792 168.047 15.504 168.671 16.032C169.295 16.544 170.111 16.8 171.119 16.8C171.743 16.8 172.351 16.68 172.943 16.44C173.535 16.2 174.031 15.8 174.431 15.24C174.831 14.664 175.047 13.896 175.079 12.936L175.559 13.488C175.511 14.464 175.271 15.28 174.839 15.936C174.423 16.576 173.879 17.056 173.207 17.376C172.535 17.696 171.775 17.856 170.927 17.856ZM186.833 22.32V4.92002H187.841V10.296L187.457 10.464C187.473 9.28002 187.721 8.24802 188.201 7.36802C188.697 6.47202 189.369 5.77602 190.217 5.28002C191.065 4.78402 192.049 4.53602 193.169 4.53602C194.129 4.53602 194.985 4.72002 195.737 5.08802C196.489 5.44002 197.121 5.92802 197.633 6.55202C198.161 7.16002 198.561 7.85602 198.833 8.64002C199.105 9.42402 199.241 10.248 199.241 11.112V11.352C199.241 12.168 199.105 12.968 198.833 13.752C198.561 14.52 198.161 15.224 197.633 15.864C197.121 16.488 196.489 16.992 195.737 17.376C194.985 17.744 194.129 17.928 193.169 17.928C192.049 17.928 191.057 17.672 190.193 17.16C189.345 16.648 188.681 15.944 188.201 15.048C187.721 14.136 187.465 13.104 187.433 11.952L188.105 13.632V22.32H186.833ZM193.001 16.776C194.057 16.776 194.953 16.52 195.689 16.008C196.441 15.48 197.009 14.8 197.393 13.968C197.777 13.12 197.969 12.208 197.969 11.232C197.969 10.208 197.769 9.28002 197.369 8.44802C196.985 7.60002 196.417 6.92802 195.665 6.43202C194.929 5.93602 194.041 5.68802 193.001 5.68802C192.041 5.68802 191.185 5.90402 190.433 6.33602C189.697 6.75202 189.113 7.33602 188.681 8.08802C188.249 8.82402 188.033 9.67202 188.033 10.632V11.856C188.033 12.768 188.241 13.6 188.657 14.352C189.089 15.088 189.673 15.68 190.409 16.128C191.161 16.56 192.025 16.776 193.001 16.776ZM203.122 17.52V4.92002H204.13V10.248H203.938C203.938 8.42402 204.346 7.06402 205.162 6.16802C205.978 5.27202 207.298 4.82402 209.122 4.82402H209.554V5.97602H208.882C207.394 5.97602 206.274 6.36002 205.522 7.12802C204.77 7.88002 204.394 8.99202 204.394 10.464V17.52H203.122ZM217.969 17.928C216.913 17.928 215.977 17.736 215.161 17.352C214.345 16.968 213.657 16.464 213.097 15.84C212.553 15.216 212.137 14.52 211.849 13.752C211.577 12.968 211.441 12.168 211.441 11.352V11.112C211.441 10.28 211.585 9.47202 211.873 8.68802C212.161 7.90402 212.585 7.20002 213.145 6.57602C213.705 5.95202 214.385 5.45602 215.185 5.08802C216.001 4.72002 216.929 4.53602 217.969 4.53602C218.993 4.53602 219.905 4.72002 220.705 5.08802C221.521 5.45602 222.209 5.95202 222.769 6.57602C223.329 7.20002 223.753 7.90402 224.041 8.68802C224.345 9.47202 224.497 10.28 224.497 11.112V11.352C224.497 12.168 224.353 12.968 224.065 13.752C223.777 14.52 223.353 15.216 222.793 15.84C222.249 16.464 221.569 16.968 220.753 17.352C219.953 17.736 219.025 17.928 217.969 17.928ZM217.969 16.752C219.089 16.752 220.033 16.496 220.801 15.984C221.585 15.472 222.177 14.8 222.577 13.968C222.993 13.12 223.201 12.208 223.201 11.232C223.201 10.224 222.993 9.30402 222.577 8.47202C222.161 7.62402 221.561 6.95202 220.777 6.45602C220.009 5.94402 219.073 5.68802 217.969 5.68802C216.881 5.68802 215.937 5.94402 215.137 6.45602C214.353 6.95202 213.753 7.62402 213.337 8.47202C212.921 9.30402 212.713 10.224 212.713 11.232C212.713 12.208 212.913 13.12 213.313 13.968C213.729 14.8 214.329 15.472 215.113 15.984C215.897 16.496 216.849 16.752 217.969 16.752ZM233.429 17.928C232.485 17.928 231.629 17.752 230.861 17.4C230.109 17.032 229.469 16.544 228.941 15.936C228.413 15.312 228.005 14.608 227.717 13.824C227.445 13.04 227.309 12.216 227.309 11.352V11.112C227.309 10.28 227.445 9.48002 227.717 8.71202C227.989 7.92802 228.381 7.22402 228.893 6.60002C229.421 5.96002 230.061 5.45602 230.813 5.08802C231.565 4.72002 232.429 4.53602 233.405 4.53602C234.541 4.53602 235.525 4.79202 236.357 5.30402C237.205 5.81602 237.861 6.52002 238.325 7.41602C238.805 8.29602 239.061 9.30402 239.093 10.44L238.445 9.02402V1.90735e-05H239.717V17.52H238.709V11.928H239.189C239.157 13.128 238.893 14.184 238.397 15.096C237.901 15.992 237.221 16.688 236.357 17.184C235.509 17.68 234.533 17.928 233.429 17.928ZM233.549 16.776C234.525 16.776 235.381 16.56 236.117 16.128C236.869 15.696 237.453 15.112 237.869 14.376C238.301 13.624 238.517 12.768 238.517 11.808V10.56C238.517 9.64802 238.301 8.82402 237.869 8.08802C237.453 7.35202 236.869 6.76802 236.117 6.33602C235.381 5.90402 234.525 5.68802 233.549 5.68802C232.493 5.68802 231.597 5.94402 230.861 6.45602C230.125 6.96802 229.557 7.64802 229.157 8.49602C228.773 9.32802 228.581 10.24 228.581 11.232C228.581 12.256 228.781 13.192 229.181 14.04C229.581 14.872 230.149 15.536 230.885 16.032C231.637 16.528 232.525 16.776 233.549 16.776ZM248.95 17.88C247.43 17.88 246.278 17.392 245.494 16.416C244.71 15.44 244.318 14.12 244.318 12.456V4.92002H245.614V12.744C245.614 13.912 245.918 14.864 246.526 15.6C247.15 16.32 248.046 16.68 249.214 16.68C250.398 16.68 251.334 16.304 252.022 15.552C252.726 14.8 253.078 13.816 253.078 12.6V4.92002H254.35V17.52H253.342V12.432H253.63C253.63 13.504 253.454 14.456 253.102 15.288C252.766 16.104 252.262 16.744 251.59 17.208C250.918 17.656 250.062 17.88 249.022 17.88H248.95ZM264.509 17.928C263.469 17.928 262.557 17.736 261.773 17.352C261.005 16.968 260.357 16.456 259.829 15.816C259.317 15.176 258.933 14.464 258.677 13.68C258.421 12.896 258.293 12.104 258.293 11.304V11.064C258.293 10.248 258.421 9.44802 258.677 8.66402C258.933 7.88002 259.317 7.18402 259.829 6.57602C260.357 5.95202 261.005 5.45602 261.773 5.08802C262.557 4.72002 263.469 4.53602 264.509 4.53602C265.517 4.53602 266.413 4.72002 267.197 5.08802C267.997 5.45602 268.645 5.97602 269.141 6.64802C269.653 7.30402 269.973 8.09602 270.101 9.02402H268.853C268.709 8.06402 268.261 7.27202 267.509 6.64802C266.757 6.00802 265.757 5.68802 264.509 5.68802C263.405 5.68802 262.485 5.93602 261.749 6.43202C261.013 6.92802 260.461 7.59202 260.093 8.42402C259.741 9.25602 259.565 10.176 259.565 11.184C259.565 12.16 259.749 13.072 260.117 13.92C260.485 14.768 261.037 15.456 261.773 15.984C262.509 16.496 263.421 16.752 264.509 16.752C265.357 16.752 266.101 16.6 266.741 16.296C267.397 15.976 267.925 15.56 268.325 15.048C268.725 14.52 268.965 13.944 269.045 13.32H270.293C270.181 14.248 269.861 15.056 269.333 15.744C268.805 16.416 268.125 16.952 267.293 17.352C266.461 17.736 265.533 17.928 264.509 17.928ZM278.922 17.928C277.85 17.928 276.922 17.744 276.138 17.376C275.354 16.992 274.714 16.488 274.218 15.864C273.722 15.224 273.346 14.512 273.09 13.728C272.85 12.928 272.73 12.12 272.73 11.304V11.064C272.73 10.232 272.85 9.43202 273.09 8.66402C273.346 7.89602 273.722 7.20002 274.218 6.57602C274.73 5.93602 275.362 5.44002 276.114 5.08802C276.882 4.72002 277.77 4.53602 278.778 4.53602C280.058 4.53602 281.13 4.82402 281.994 5.40002C282.874 5.96002 283.538 6.69602 283.986 7.60802C284.434 8.52002 284.658 9.48002 284.658 10.488V11.352H273.33V10.296H283.818L283.434 10.776C283.434 9.80002 283.25 8.92802 282.882 8.16002C282.53 7.39202 282.002 6.79202 281.298 6.36002C280.61 5.91202 279.77 5.68802 278.778 5.68802C277.706 5.68802 276.81 5.93602 276.09 6.43202C275.37 6.92802 274.826 7.59202 274.458 8.42402C274.106 9.25602 273.93 10.176 273.93 11.184C273.93 12.192 274.106 13.12 274.458 13.968C274.826 14.8 275.378 15.48 276.114 16.008C276.85 16.52 277.786 16.776 278.922 16.776C280.138 16.776 281.114 16.496 281.85 15.936C282.602 15.376 283.058 14.704 283.218 13.92H284.466C284.29 14.704 283.954 15.4 283.458 16.008C282.962 16.616 282.33 17.088 281.562 17.424C280.81 17.76 279.93 17.928 278.922 17.928ZM292.086 17.88C290.518 17.88 289.31 17.52 288.462 16.8C287.63 16.08 287.206 15.16 287.19 14.04H288.438C288.438 14.76 288.718 15.392 289.278 15.936C289.854 16.464 290.79 16.728 292.086 16.728C293.35 16.728 294.278 16.464 294.87 15.936C295.462 15.392 295.758 14.752 295.758 14.016C295.758 13.296 295.486 12.744 294.942 12.36C294.414 11.976 293.694 11.736 292.782 11.64L291.294 11.472C290.19 11.344 289.31 11 288.654 10.44C288.014 9.88002 287.694 9.12002 287.694 8.16002C287.694 7.47202 287.87 6.85602 288.222 6.31202C288.574 5.76802 289.078 5.33602 289.734 5.01602C290.406 4.69602 291.19 4.53602 292.086 4.53602C293.398 4.53602 294.454 4.85602 295.254 5.49602C296.07 6.13602 296.486 7.00802 296.502 8.11202H295.254C295.27 7.42402 294.998 6.84802 294.438 6.38402C293.894 5.92002 293.11 5.68802 292.086 5.68802C291.014 5.68802 290.214 5.93602 289.686 6.43202C289.174 6.92802 288.918 7.51202 288.918 8.18402C288.918 8.74402 289.118 9.22402 289.518 9.62402C289.934 10.024 290.558 10.272 291.39 10.368L292.878 10.536C294.062 10.648 295.038 10.992 295.806 11.568C296.59 12.144 296.982 12.968 296.982 14.04C296.982 14.76 296.782 15.408 296.382 15.984C295.998 16.56 295.446 17.024 294.726 17.376C294.006 17.712 293.126 17.88 292.086 17.88Z" fill="#404040"/>
<path d="M306.694 17.52V1.90735e-05H307.966V17.52H306.694ZM304.798 1.08002V1.90735e-05H307.966V1.08002H304.798ZM318.04 17.928C316.968 17.928 316.04 17.744 315.256 17.376C314.472 16.992 313.832 16.488 313.336 15.864C312.84 15.224 312.464 14.512 312.208 13.728C311.968 12.928 311.848 12.12 311.848 11.304V11.064C311.848 10.232 311.968 9.43202 312.208 8.66402C312.464 7.89602 312.84 7.20002 313.336 6.57602C313.848 5.93602 314.48 5.44002 315.232 5.08802C316 4.72002 316.888 4.53602 317.896 4.53602C319.176 4.53602 320.248 4.82402 321.112 5.40002C321.992 5.96002 322.656 6.69602 323.104 7.60802C323.552 8.52002 323.776 9.48002 323.776 10.488V11.352H312.448V10.296H322.936L322.552 10.776C322.552 9.80002 322.368 8.92802 322 8.16002C321.648 7.39202 321.12 6.79202 320.416 6.36002C319.728 5.91202 318.888 5.68802 317.896 5.68802C316.824 5.68802 315.928 5.93602 315.208 6.43202C314.488 6.92802 313.944 7.59202 313.576 8.42402C313.224 9.25602 313.048 10.176 313.048 11.184C313.048 12.192 313.224 13.12 313.576 13.968C313.944 14.8 314.496 15.48 315.232 16.008C315.968 16.52 316.904 16.776 318.04 16.776C319.256 16.776 320.232 16.496 320.968 15.936C321.72 15.376 322.176 14.704 322.336 13.92H323.584C323.408 14.704 323.072 15.4 322.576 16.008C322.08 16.616 321.448 17.088 320.68 17.424C319.928 17.76 319.048 17.928 318.04 17.928ZM331.203 17.88C329.635 17.88 328.427 17.52 327.579 16.8C326.747 16.08 326.323 15.16 326.307 14.04H327.555C327.555 14.76 327.835 15.392 328.395 15.936C328.971 16.464 329.907 16.728 331.203 16.728C332.467 16.728 333.395 16.464 333.987 15.936C334.579 15.392 334.875 14.752 334.875 14.016C334.875 13.296 334.603 12.744 334.059 12.36C333.531 11.976 332.811 11.736 331.899 11.64L330.411 11.472C329.307 11.344 328.427 11 327.771 10.44C327.131 9.88002 326.811 9.12002 326.811 8.16002C326.811 7.47202 326.987 6.85602 327.339 6.31202C327.691 5.76802 328.195 5.33602 328.851 5.01602C329.523 4.69602 330.307 4.53602 331.203 4.53602C332.515 4.53602 333.571 4.85602 334.371 5.49602C335.187 6.13602 335.603 7.00802 335.619 8.11202H334.371C334.387 7.42402 334.115 6.84802 333.555 6.38402C333.011 5.92002 332.227 5.68802 331.203 5.68802C330.131 5.68802 329.331 5.93602 328.803 6.43202C328.291 6.92802 328.035 7.51202 328.035 8.18402C328.035 8.74402 328.235 9.22402 328.635 9.62402C329.051 10.024 329.675 10.272 330.507 10.368L331.995 10.536C333.179 10.648 334.155 10.992 334.923 11.568C335.707 12.144 336.099 12.968 336.099 14.04C336.099 14.76 335.899 15.408 335.499 15.984C335.115 16.56 334.563 17.024 333.843 17.376C333.123 17.712 332.243 17.88 331.203 17.88ZM343.765 17.88C342.197 17.88 340.989 17.52 340.141 16.8C339.309 16.08 338.885 15.16 338.869 14.04H340.117C340.117 14.76 340.397 15.392 340.957 15.936C341.533 16.464 342.469 16.728 343.765 16.728C345.029 16.728 345.957 16.464 346.549 15.936C347.141 15.392 347.437 14.752 347.437 14.016C347.437 13.296 347.165 12.744 346.621 12.36C346.093 11.976 345.373 11.736 344.461 11.64L342.973 11.472C341.869 11.344 340.989 11 340.333 10.44C339.693 9.88002 339.373 9.12002 339.373 8.16002C339.373 7.47202 339.549 6.85602 339.901 6.31202C340.253 5.76802 340.757 5.33602 341.413 5.01602C342.085 4.69602 342.869 4.53602 343.765 4.53602C345.077 4.53602 346.133 4.85602 346.933 5.49602C347.749 6.13602 348.165 7.00802 348.181 8.11202H346.933C346.949 7.42402 346.677 6.84802 346.117 6.38402C345.573 5.92002 344.789 5.68802 343.765 5.68802C342.693 5.68802 341.893 5.93602 341.365 6.43202C340.853 6.92802 340.597 7.51202 340.597 8.18402C340.597 8.74402 340.797 9.22402 341.197 9.62402C341.613 10.024 342.237 10.272 343.069 10.368L344.557 10.536C345.741 10.648 346.717 10.992 347.485 11.568C348.269 12.144 348.661 12.968 348.661 14.04C348.661 14.76 348.461 15.408 348.061 15.984C347.677 16.56 347.125 17.024 346.405 17.376C345.685 17.712 344.805 17.88 343.765 17.88ZM5.87933 47.88C4.35933 47.88 3.20733 47.392 2.42333 46.416C1.63933 45.44 1.24733 44.12 1.24733 42.456V34.92H2.54333V42.744C2.54333 43.912 2.84733 44.864 3.45533 45.6C4.07933 46.32 4.97533 46.68 6.14333 46.68C7.32733 46.68 8.26333 46.304 8.95133 45.552C9.65533 44.8 10.0073 43.816 10.0073 42.6V34.92H11.2793V47.52H10.2713V42.432H10.5593C10.5593 43.504 10.3833 44.456 10.0313 45.288C9.69533 46.104 9.19133 46.744 8.51933 47.208C7.84733 47.656 6.99133 47.88 5.95133 47.88H5.87933ZM16.2786 47.52V34.92H17.2866V40.08H16.9986C16.9986 38.976 17.1746 38.016 17.5266 37.2C17.8946 36.368 18.4306 35.728 19.1346 35.28C19.8546 34.816 20.7426 34.584 21.7986 34.584H21.8706C23.4546 34.584 24.6466 35.08 25.4466 36.072C26.2466 37.048 26.6466 38.384 26.6466 40.08V47.52H25.3506V39.792C25.3506 38.592 25.0226 37.624 24.3666 36.888C23.7266 36.136 22.7986 35.76 21.5826 35.76C20.3506 35.76 19.3666 36.144 18.6306 36.912C17.9106 37.664 17.5506 38.664 17.5506 39.912V47.52H16.2786ZM36.4833 47.928C35.5393 47.928 34.6833 47.752 33.9153 47.4C33.1633 47.032 32.5233 46.544 31.9953 45.936C31.4673 45.312 31.0593 44.608 30.7713 43.824C30.4993 43.04 30.3633 42.216 30.3633 41.352V41.112C30.3633 40.28 30.4993 39.48 30.7713 38.712C31.0433 37.928 31.4353 37.224 31.9473 36.6C32.4753 35.96 33.1153 35.456 33.8673 35.088C34.6193 34.72 35.4833 34.536 36.4593 34.536C37.5953 34.536 38.5793 34.792 39.4113 35.304C40.2593 35.816 40.9153 36.52 41.3793 37.416C41.8593 38.296 42.1153 39.304 42.1473 40.44L41.4993 39.024V30H42.7713V47.52H41.7633V41.928H42.2433C42.2113 43.128 41.9473 44.184 41.4513 45.096C40.9553 45.992 40.2753 46.688 39.4113 47.184C38.5633 47.68 37.5873 47.928 36.4833 47.928ZM36.6033 46.776C37.5793 46.776 38.4353 46.56 39.1713 46.128C39.9233 45.696 40.5073 45.112 40.9233 44.376C41.3553 43.624 41.5713 42.768 41.5713 41.808V40.56C41.5713 39.648 41.3553 38.824 40.9233 38.088C40.5073 37.352 39.9233 36.768 39.1713 36.336C38.4353 35.904 37.5793 35.688 36.6033 35.688C35.5473 35.688 34.6513 35.944 33.9153 36.456C33.1793 36.968 32.6113 37.648 32.2113 38.496C31.8273 39.328 31.6353 40.24 31.6353 41.232C31.6353 42.256 31.8353 43.192 32.2353 44.04C32.6353 44.872 33.2033 45.536 33.9393 46.032C34.6913 46.528 35.5793 46.776 36.6033 46.776ZM52.8443 47.928C51.7723 47.928 50.8443 47.744 50.0603 47.376C49.2763 46.992 48.6363 46.488 48.1403 45.864C47.6443 45.224 47.2683 44.512 47.0123 43.728C46.7723 42.928 46.6523 42.12 46.6523 41.304V41.064C46.6523 40.232 46.7723 39.432 47.0123 38.664C47.2683 37.896 47.6443 37.2 48.1403 36.576C48.6523 35.936 49.2843 35.44 50.0363 35.088C50.8043 34.72 51.6923 34.536 52.7003 34.536C53.9803 34.536 55.0523 34.824 55.9163 35.4C56.7963 35.96 57.4603 36.696 57.9083 37.608C58.3563 38.52 58.5803 39.48 58.5803 40.488V41.352H47.2523V40.296H57.7403L57.3563 40.776C57.3563 39.8 57.1723 38.928 56.8043 38.16C56.4523 37.392 55.9243 36.792 55.2203 36.36C54.5323 35.912 53.6923 35.688 52.7003 35.688C51.6283 35.688 50.7323 35.936 50.0123 36.432C49.2923 36.928 48.7483 37.592 48.3803 38.424C48.0283 39.256 47.8523 40.176 47.8523 41.184C47.8523 42.192 48.0283 43.12 48.3803 43.968C48.7483 44.8 49.3003 45.48 50.0363 46.008C50.7723 46.52 51.7083 46.776 52.8443 46.776C54.0603 46.776 55.0363 46.496 55.7723 45.936C56.5243 45.376 56.9803 44.704 57.1403 43.92H58.3883C58.2123 44.704 57.8763 45.4 57.3803 46.008C56.8843 46.616 56.2523 47.088 55.4843 47.424C54.7323 47.76 53.8523 47.928 52.8443 47.928ZM62.2396 47.52V34.92H63.2476V40.248H63.0556C63.0556 38.424 63.4636 37.064 64.2796 36.168C65.0956 35.272 66.4156 34.824 68.2396 34.824H68.6716V35.976H67.9996C66.5116 35.976 65.3916 36.36 64.6396 37.128C63.8876 37.88 63.5116 38.992 63.5116 40.464V47.52H62.2396ZM75.5466 47.88C73.9786 47.88 72.7706 47.52 71.9226 46.8C71.0906 46.08 70.6666 45.16 70.6506 44.04H71.8986C71.8986 44.76 72.1786 45.392 72.7386 45.936C73.3146 46.464 74.2506 46.728 75.5466 46.728C76.8106 46.728 77.7386 46.464 78.3306 45.936C78.9226 45.392 79.2186 44.752 79.2186 44.016C79.2186 43.296 78.9466 42.744 78.4026 42.36C77.8746 41.976 77.1546 41.736 76.2426 41.64L74.7546 41.472C73.6506 41.344 72.7706 41 72.1146 40.44C71.4746 39.88 71.1546 39.12 71.1546 38.16C71.1546 37.472 71.3306 36.856 71.6826 36.312C72.0346 35.768 72.5386 35.336 73.1946 35.016C73.8666 34.696 74.6506 34.536 75.5466 34.536C76.8586 34.536 77.9146 34.856 78.7146 35.496C79.5306 36.136 79.9466 37.008 79.9626 38.112H78.7146C78.7306 37.424 78.4586 36.848 77.8986 36.384C77.3546 35.92 76.5706 35.688 75.5466 35.688C74.4746 35.688 73.6746 35.936 73.1466 36.432C72.6346 36.928 72.3786 37.512 72.3786 38.184C72.3786 38.744 72.5786 39.224 72.9786 39.624C73.3946 40.024 74.0186 40.272 74.8506 40.368L76.3386 40.536C77.5226 40.648 78.4986 40.992 79.2666 41.568C80.0506 42.144 80.4426 42.968 80.4426 44.04C80.4426 44.76 80.2426 45.408 79.8426 45.984C79.4586 46.56 78.9066 47.024 78.1866 47.376C77.4666 47.712 76.5866 47.88 75.5466 47.88ZM88.5411 47.64C87.7571 47.64 87.0691 47.528 86.4771 47.304C85.8851 47.064 85.4291 46.664 85.1091 46.104C84.7891 45.544 84.6291 44.792 84.6291 43.848V30.816H85.8771V44.064C85.8771 44.832 86.0851 45.432 86.5011 45.864C86.9331 46.28 87.5251 46.488 88.2771 46.488H90.6291V47.64H88.5411ZM82.2291 35.952V34.92H90.6291V35.952H82.2291ZM102.006 47.52V43.752H101.766V39.12C101.766 38.112 101.502 37.336 100.974 36.792C100.446 36.232 99.5741 35.952 98.3581 35.952C97.9261 35.952 97.4861 35.968 97.0381 36C96.5901 36.016 96.1661 36.04 95.7661 36.072C95.3661 36.088 95.0061 36.12 94.6861 36.168V35.016C95.0061 34.968 95.3421 34.928 95.6941 34.896C96.0621 34.864 96.4301 34.84 96.7981 34.824C97.1661 34.808 97.5181 34.8 97.8541 34.8C99.1181 34.8 100.126 34.968 100.878 35.304C101.63 35.624 102.174 36.12 102.51 36.792C102.846 37.448 103.014 38.288 103.014 39.312V47.52H102.006ZM97.6141 47.856C96.7661 47.856 96.0061 47.704 95.3341 47.4C94.6621 47.096 94.1261 46.648 93.7261 46.056C93.3421 45.464 93.1501 44.744 93.1501 43.896C93.1501 43.08 93.3341 42.384 93.7021 41.808C94.0861 41.232 94.6301 40.792 95.3341 40.488C96.0541 40.184 96.9181 40.032 97.9261 40.032H101.886V41.064H97.8061C96.7181 41.064 95.8781 41.328 95.2861 41.856C94.7101 42.368 94.4221 43.048 94.4221 43.896C94.4221 44.792 94.7341 45.504 95.3581 46.032C95.9821 46.544 96.7981 46.8 97.8061 46.8C98.4301 46.8 99.0381 46.68 99.6301 46.44C100.222 46.2 100.718 45.8 101.118 45.24C101.518 44.664 101.734 43.896 101.766 42.936L102.246 43.488C102.198 44.464 101.958 45.28 101.526 45.936C101.11 46.576 100.566 47.056 99.8941 47.376C99.2221 47.696 98.4621 47.856 97.6141 47.856ZM107.779 47.52V34.92H108.787V40.08H108.499C108.499 38.976 108.675 38.016 109.027 37.2C109.395 36.368 109.931 35.728 110.635 35.28C111.355 34.816 112.243 34.584 113.299 34.584H113.371C114.955 34.584 116.147 35.08 116.947 36.072C117.747 37.048 118.147 38.384 118.147 40.08V47.52H116.851V39.792C116.851 38.592 116.523 37.624 115.867 36.888C115.227 36.136 114.299 35.76 113.083 35.76C111.851 35.76 110.867 36.144 110.131 36.912C109.411 37.664 109.051 38.664 109.051 39.912V47.52H107.779ZM127.983 47.928C127.039 47.928 126.183 47.752 125.415 47.4C124.663 47.032 124.023 46.544 123.495 45.936C122.967 45.312 122.559 44.608 122.271 43.824C121.999 43.04 121.863 42.216 121.863 41.352V41.112C121.863 40.28 121.999 39.48 122.271 38.712C122.543 37.928 122.935 37.224 123.447 36.6C123.975 35.96 124.615 35.456 125.367 35.088C126.119 34.72 126.983 34.536 127.959 34.536C129.095 34.536 130.079 34.792 130.911 35.304C131.759 35.816 132.415 36.52 132.879 37.416C133.359 38.296 133.615 39.304 133.647 40.44L132.999 39.024V30H134.271V47.52H133.263V41.928H133.743C133.711 43.128 133.447 44.184 132.951 45.096C132.455 45.992 131.775 46.688 130.911 47.184C130.063 47.68 129.087 47.928 127.983 47.928ZM128.103 46.776C129.079 46.776 129.935 46.56 130.671 46.128C131.423 45.696 132.007 45.112 132.423 44.376C132.855 43.624 133.071 42.768 133.071 41.808V40.56C133.071 39.648 132.855 38.824 132.423 38.088C132.007 37.352 131.423 36.768 130.671 36.336C129.935 35.904 129.079 35.688 128.103 35.688C127.047 35.688 126.151 35.944 125.415 36.456C124.679 36.968 124.111 37.648 123.711 38.496C123.327 39.328 123.135 40.24 123.135 41.232C123.135 42.256 123.335 43.192 123.735 44.04C124.135 44.872 124.703 45.536 125.439 46.032C126.191 46.528 127.079 46.776 128.103 46.776ZM139.88 47.52V34.92H141.176V47.52H139.88ZM137.792 36.024V34.92H141.176V36.024H137.792ZM140 32.28C139.664 32.28 139.408 32.192 139.232 32.016C139.056 31.824 138.968 31.584 138.968 31.296C138.968 30.992 139.056 30.744 139.232 30.552C139.408 30.36 139.672 30.264 140.024 30.264C140.36 30.264 140.616 30.36 140.792 30.552C140.968 30.744 141.056 30.992 141.056 31.296C141.056 31.584 140.968 31.824 140.792 32.016C140.632 32.192 140.368 32.28 140 32.28ZM146.146 47.52V34.92H147.154V40.08H146.866C146.866 38.976 147.042 38.016 147.394 37.2C147.762 36.368 148.298 35.728 149.002 35.28C149.722 34.816 150.61 34.584 151.666 34.584H151.738C153.322 34.584 154.514 35.08 155.314 36.072C156.114 37.048 156.514 38.384 156.514 40.08V47.52H155.218V39.792C155.218 38.592 154.89 37.624 154.234 36.888C153.594 36.136 152.666 35.76 151.45 35.76C150.218 35.76 149.234 36.144 148.498 36.912C147.778 37.664 147.418 38.664 147.418 39.912V47.52H146.146ZM166.086 52.44C165.526 52.44 164.942 52.416 164.334 52.368C163.726 52.32 163.142 52.248 162.582 52.152V51.024C163.158 51.12 163.758 51.192 164.382 51.24C165.022 51.304 165.622 51.336 166.182 51.336C167.462 51.336 168.47 51.168 169.206 50.832C169.942 50.512 170.47 49.976 170.79 49.224C171.11 48.488 171.27 47.504 171.27 46.272V43.68L171.846 41.928C171.83 43.08 171.582 44.096 171.102 44.976C170.638 45.856 169.99 46.552 169.158 47.064C168.326 47.56 167.35 47.808 166.23 47.808C165.286 47.808 164.438 47.632 163.686 47.28C162.95 46.912 162.326 46.424 161.814 45.816C161.302 45.192 160.91 44.488 160.638 43.704C160.366 42.904 160.23 42.088 160.23 41.256V41.016C160.23 40.2 160.366 39.408 160.638 38.64C160.91 37.856 161.302 37.16 161.814 36.552C162.326 35.928 162.958 35.44 163.71 35.088C164.462 34.72 165.318 34.536 166.278 34.536C167.446 34.536 168.454 34.8 169.302 35.328C170.15 35.856 170.798 36.568 171.246 37.464C171.71 38.36 171.95 39.352 171.966 40.44L171.486 39.792V34.92H172.518V46.272C172.518 47.776 172.31 48.976 171.894 49.872C171.478 50.784 170.798 51.44 169.854 51.84C168.91 52.24 167.654 52.44 166.086 52.44ZM166.398 46.632C167.358 46.632 168.206 46.424 168.942 46.008C169.678 45.576 170.254 44.992 170.67 44.256C171.086 43.504 171.294 42.656 171.294 41.712V40.488C171.294 39.576 171.086 38.76 170.67 38.04C170.27 37.304 169.702 36.72 168.966 36.288C168.23 35.856 167.382 35.64 166.422 35.64C165.366 35.64 164.47 35.896 163.734 36.408C163.014 36.92 162.462 37.592 162.078 38.424C161.694 39.256 161.502 40.16 161.502 41.136C161.502 42.144 161.702 43.072 162.102 43.92C162.502 44.752 163.062 45.416 163.782 45.912C164.518 46.392 165.39 46.632 166.398 46.632Z" fill="url(#paint0_radial_1008_1025)"/>
<defs>
<radialGradient id="paint0_radial_1008_1025" cx="0" cy="0" r="1" gradientUnits="userSpaceOnUse" gradientTransform="translate(186.111 24.52) rotate(90) scale(30 187)">
<stop stop-color="#5A69EA"/>
<stop offset="1" stop-color="#BF8BCA"/>
</radialGradient>
</defs>
</svg>
